<svg xmlns="http://www.w3.org/2000/svg" viewBox="0 0 90.71 135.77"><defs><style>.cls-1{fill:#00a040;}</style></defs><g id="レイヤー_2" data-name="レイヤー 2"><g id="design"><path class="cls-1" d="M0,0V90.71H90.71V0ZM86.93,86.93H3.78V3.78H86.93Z"/><rect class="cls-1" x="71.81" y="49.13" width="7.56" height="7.56"/><rect class="cls-1" x="56.69" y="49.13" width="7.56" height="7.56"/><rect class="cls-1" x="64.25" y="56.69" width="7.56" height="7.56"/><rect class="cls-1" x="49.13" y="56.69" width="7.56" height="7.56"/><rect class="cls-1" x="64.25" y="41.57" width="7.56" height="7.56"/><rect class="cls-1" x="49.13" y="41.57" width="7.56" height="7.56"/><rect class="cls-1" x="71.81" y="64.25" width="7.56" height="7.56"/><rect class="cls-1" x="56.69" y="64.25" width="7.56" height="7.56"/><rect class="cls-1" x="56.69" y="18.9" width="7.56" height="7.56"/><rect class="cls-1" x="64.25" y="26.46" width="7.56" height="7.56"/><rect class="cls-1" x="49.13" y="26.46" width="7.56" height="7.56"/><rect class="cls-1" x="64.25" y="11.34" width="7.56" height="7.56"/><rect class="cls-1" x="49.13" y="11.34" width="7.56" height="7.56"/><rect class="cls-1" x="71.81" y="34.02" width="7.56" height="7.56"/><rect class="cls-1" x="56.69" y="34.02" width="7.56" height="7.56"/><rect class="cls-1" x="64.25" y="71.81" width="7.56" height="7.56"/><rect class="cls-1" x="49.13" y="71.81" width="7.56" height="7.56"/><path class="cls-1" d="M40,26.45a4.5,4.5,0,0,1-2.31-2,2.82,2.82,0,0,0,2-2.7V14.17a2.83,2.83,0,0,0-2.83-2.83H23.62a2.83,2.83,0,0,0-2.83,2.83v7.56a2.82,2.82,0,0,0,2,2.7,4.51,4.51,0,0,1-2.3,2c-9.92,3.89-9.16,8.59-9.16,13.24h0v3.78h0V62.36h0v3.78h0v6h0a7.25,7.25,0,0,0,13.08,4.32,7.21,7.21,0,0,0,11.63,0A7.25,7.25,0,0,0,49.13,72.1V39.69C49.13,35,49.89,30.34,40,26.45ZM24.52,16.62V15.07H36v5.76H24.52ZM45.4,72.1a3.54,3.54,0,0,1-3.53,3.54,3.49,3.49,0,0,1-2.82-1.45,3.74,3.74,0,0,0-6,0,3.47,3.47,0,0,1-5.64,0,3.77,3.77,0,0,0-3-1.5h0a3.73,3.73,0,0,0-3,1.5,3.51,3.51,0,0,1-2.82,1.45,3.55,3.55,0,0,1-3.54-3.48v-6H45.4Zm0-9.74H15.07V43.47H45.4Zm0-23.64c0,.32,0,.64,0,1H15.07v-1c-.05-3.93-.07-6.1,6.79-8.79a8.22,8.22,0,0,0,4.92-5.36H33.7a8.21,8.21,0,0,0,4.91,5.36C45.47,32.62,45.45,34.78,45.41,38.72Z"/><path class="cls-1" d="M19.74,54.8h1.89a3.78,3.78,0,0,0,0-7.56H17.85V58.58h1.89Zm0-5.67h1.89a1.89,1.89,0,1,1,0,3.78H19.74Z"/><polygon class="cls-1" points="33.91 56.69 28.23 56.69 28.23 53.86 32.02 53.86 32.02 51.97 28.23 51.97 28.23 49.13 33.91 49.13 33.91 47.24 26.34 47.24 26.34 58.58 33.91 58.58 33.91 56.69"/><polygon class="cls-1" points="37.9 58.58 39.79 58.58 39.79 49.13 42.63 49.13 42.63 47.24 35.07 47.24 35.07 49.13 37.9 49.13 37.9 58.58"/><path class="cls-1" d="M15.6,107.48a4.47,4.47,0,0,1-2.46,4l2.46,4.93H13.37l-2.23-4.47H8.91v4.47H6.67V103h4.47A4.44,4.44,0,0,1,15.6,107.48Zm-2.23,0a2.18,2.18,0,0,0-2.23-2.23H8.91v4.46h2.23A2.23,2.23,0,0,0,13.37,107.48Z"/><path class="cls-1" d="M19,108.6H23.5v2.23H19v3.34h6.7v2.24H16.8V103h8.93v2.23H19Z"/><path class="cls-1" d="M31.11,105.11a2.23,2.23,0,0,0-2.23,2.23v4.74a2.23,2.23,0,0,0,4.46,0h2.23a5.77,5.77,0,0,1-.15,1.15,4.46,4.46,0,0,1-8.77-1.15v-4.74a4.46,4.46,0,0,1,8.77-1.15,5.34,5.34,0,0,1,.15,1.15H33.34A2.2,2.2,0,0,0,31.11,105.11Z"/><path class="cls-1" d="M39.13,116.41v-6.7L35.79,103H38l2.23,4.48L42.48,103h2.23l-3.35,6.69v6.7Z"/><path class="cls-1" d="M49.39,105.11a2.23,2.23,0,0,0-2.23,2.23v4.74a2.23,2.23,0,1,0,4.46,0h2.23a5.77,5.77,0,0,1-.15,1.15,4.46,4.46,0,0,1-8.77-1.15v-4.74a4.46,4.46,0,0,1,8.77-1.15,5.34,5.34,0,0,1,.15,1.15H51.62A2.2,2.2,0,0,0,49.39,105.11Z"/><path class="cls-1" d="M57.38,114.17h6.7v2.24H55.15V103h2.23Z"/><path class="cls-1" d="M67.6,108.6h4.46v2.23H67.6v3.34h6.69v2.24H65.37V103h8.92v2.23H67.6Z"/><path class="cls-1" d="M84.5,107.48v4.46A4.47,4.47,0,0,1,80,116.41H75.58V103H80A4.44,4.44,0,0,1,84.5,107.48Zm-2.23,4.46v-4.46A2.23,2.23,0,0,0,80,105.25H77.81v8.92H80A2.23,2.23,0,0,0,82.27,111.94Z"/><path class="cls-1" d="M11.12,126.71a4.46,4.46,0,0,1-4.46,4.46H4.42v4.46H2.19V122.24H6.66A4.44,4.44,0,0,1,11.12,126.71Zm-2.23,0a2.23,2.23,0,0,0-2.23-2.24H4.42v4.47H6.66A2.23,2.23,0,0,0,8.89,126.71Z"/><path class="cls-1" d="M16.62,122.11a4.44,4.44,0,0,1,4.47,4.46v4.73a4.47,4.47,0,1,1-8.93,0v-4.73A4.46,4.46,0,0,1,16.62,122.11Zm0,2.23a2.23,2.23,0,0,0-2.23,2.23v4.73a2.24,2.24,0,0,0,4.47,0v-4.73A2.23,2.23,0,0,0,16.62,124.34Z"/><path class="cls-1" d="M24.72,133.4h6.69v2.23H22.49V122.24h2.23Z"/><path class="cls-1" d="M34,135.63v-6.69l-3.35-6.7h2.23l2.23,4.48,2.24-4.48h2.23l-3.35,6.7v6.69Z"/><path class="cls-1" d="M42.94,127.82H47.4v2.23H42.94v3.35h6.69v2.23H40.71V122.24h8.92v2.23H42.94Z"/><path class="cls-1" d="M54.69,124.34A1.59,1.59,0,0,0,53,125.92a1.41,1.41,0,0,0,.85,1.36l2.54,1.23a3.48,3.48,0,0,1,2.19,3.39,3.88,3.88,0,0,1-3.94,3.87,4.39,4.39,0,0,1-4-2.77l2.09-.85a2.12,2.12,0,0,0,1.94,1.38,1.57,1.57,0,0,0,1.68-1.59,1.32,1.32,0,0,0-.85-1.37L53,129.34A3.55,3.55,0,0,1,50.79,126a3.89,3.89,0,0,1,3.94-3.86,4.24,4.24,0,0,1,4,2.77l-2.07.84A2.15,2.15,0,0,0,54.69,124.34Z"/><path class="cls-1" d="M68.69,124.47H65.35v11.16H63.12V124.47H59.77v-2.23h8.92Z"/><path class="cls-1" d="M72.23,127.82h4.46v2.23H72.23v3.35h6.69v2.23H70V122.24h8.92v2.23H72.23Z"/><path class="cls-1" d="M89.14,126.71a4.48,4.48,0,0,1-2.47,4l2.47,4.92H86.9l-2.23-4.46H82.44v4.46H80.21V122.24h4.46A4.45,4.45,0,0,1,89.14,126.71Zm-2.24,0a2.19,2.19,0,0,0-2.23-2.24H82.44v4.47h2.23A2.23,2.23,0,0,0,86.9,126.71Z"/></g></g></svg>