<?xml version="1.0" encoding="utf-8"?>
<!-- Generator: Adobe Illustrator 21.0.0, SVG Export Plug-In . SVG Version: 6.00 Build 0)  -->
<svg version="1.1" id="레이어_1" xmlns="http://www.w3.org/2000/svg" xmlns:xlink="http://www.w3.org/1999/xlink" x="0px"
	 y="0px" viewBox="0 0 661.9 632.9" style="enable-background:new 0 0 661.9 632.9;" xml:space="preserve">
<style type="text/css">
	.st0{fill:#0F75BC;}
</style>
<path d="M32.4,32c-10.3,1.9-22,2.2-30.5,2.2l-0.8-5.5c3.5,0,7.6,0,11.8-0.2v-2.9c-5.3-0.8-8.6-3.5-8.6-7.4c0-4.8,4.8-7.7,12.2-7.7
	c7.3,0,12.1,2.9,12.1,7.7c0,3.9-3.3,6.6-8.5,7.4v2.5c4-0.3,8-0.6,11.8-1.1L32.4,32z M30.6,9.3H2.3v-5h10.6V0H20v4.3h10.5v5H30.6z
	 M15.1,43.4h27.6v5.7H8V36.6h7.1V43.4z M16.5,21.3c3.3,0,5.3-1,5.3-2.9s-2-3-5.3-3s-5.4,1-5.4,3C11.1,20.2,13.1,21.3,16.5,21.3z
	 M47.4,16.5v5.8h-6.3V39H34V0.2h7.1v16.3H47.4z"/>
<path d="M84.5,13.8c-3.1,7.8-10,13.2-21,16.3l-2.8-5.6c11.3-3,16.8-8.4,17.7-15.1h-15V3.6h22.8c0,1.6-0.1,3.1-0.3,4.5h8.9V0.2h7.2
	v28.6h-7.1V24h-11v-5.7h11v-4.6H84.5V13.8z M102.3,39.6c0,6.2-6.6,10.1-16.7,10.1c-10.2,0-16.8-3.9-16.8-10.1s6.6-10.1,16.8-10.1
	C95.6,29.5,102.3,33.4,102.3,39.6z M95.3,39.6c0-3-3.6-4.6-9.7-4.6c-6.2,0-9.8,1.6-9.8,4.6s3.6,4.6,9.8,4.6
	C91.6,44.2,95.3,42.6,95.3,39.6z"/>
<path d="M148.8,30.6c-5.7-1.6-9.6-4.9-11.9-9c-2.2,4.5-6.2,8.2-12,9.8l-3.3-5.5c8.1-2.4,11.7-8.3,11.7-14.1v-0.3h-10V5.9h10V0.5h7.1
	V6h10v5.6h-10v0.3c0,5.5,3.6,11,11.7,13.2L148.8,30.6z M163.6,43.4v5.7h-34.3V33.4h7.1v10H163.6z M162.4,36.6h-7.2V0.2h7.2V36.6z"/>
<path d="M202.4,35.5c3.8-0.2,7.7-0.5,11.2-1l0.5,5.1c-10.5,2.1-21.7,2.1-30.1,2.1l-0.9-5.8c3.6,0,7.7,0,12-0.1v-4.2
	c-5.2-1-8.6-4.4-8.6-9c0-5.6,5-9.4,12.2-9.4c7.1,0,12.1,3.8,12.1,9.4c0,4.5-3.4,7.9-8.6,9v3.9H202.4z M213.4,11.3h-29.3V5.7h11.1
	V0.4h7.1v5.2h11L213.4,11.3L213.4,11.3z M198.8,26.6c3.2,0,5.4-1.4,5.4-4s-2.2-4-5.4-4s-5.4,1.4-5.4,4
	C193.4,25.2,195.6,26.6,198.8,26.6z M229.5,26.4h-6.2V50h-7.1V0.2h7.1v20.3h6.2V26.4z"/>
<path d="M270.9,28.5c-5.5-1.8-9.2-5.3-11.3-9.8c-2.2,4.9-6.1,8.9-11.9,10.7l-3.6-5.6c8-2.7,11.6-9,11.7-15.2H246V3h26.7v5.7H263
	c0.1,5.7,3.6,11.7,11.2,14.3L270.9,28.5z M252.1,32H286v18h-7.1V37.7h-26.8V32L252.1,32z M286,0.3v29.5h-7.1v-12h-7.3v-5.7h7.3V0.3
	H286z"/>
<path d="M348.1,38.2V44h-45v-5.8H348.1z M344.1,17.1c0,8.6-8.1,14.4-18.6,14.4c-10.4,0-18.5-5.7-18.5-14.4s8.1-14.4,18.5-14.4
	C336,2.7,344.1,8.4,344.1,17.1z M314,17.1c0,5.3,4.8,8.5,11.6,8.5c6.8,0,11.6-3.2,11.6-8.5c0-5.4-4.8-8.6-11.6-8.6
	S314,11.7,314,17.1z"/>
<path d="M407.8,38.7v5.8h-45v-5.8h18.9v-7.4H368V14.4h27.8V9.1H368V3.4h34.8V20H375v5.6h28.8v5.7h-15.1v7.4H407.8z"/>
<path d="M485.4,28.3h-23.7v-24h23.7V28.3z M474.4,43.4h26.7v5.7h-33.9V32.9h7.1L474.4,43.4L474.4,43.4z M478.4,9.9h-9.7v12.7h9.7
	V9.9z M506,14.6v5.8h-6.6v16.1h-7.1V0.2h7.1v14.4C499.4,14.6,506,14.6,506,14.6z"/>
<path d="M565.9,24.8v5.7h-45v-5.7H565.9z M533.4,43.4h28v5.7h-35.1V34.2h7.1V43.4z M561,20.7h-34.6V2h34.2v5.7h-27.1v7.4H561V20.7z"
	/>
<path d="M645.5,30c-5.5-1.7-9.3-5.3-11.6-9.7c-2.2,4.9-6.2,8.7-12,10.6l-3.6-5.6c8.3-2.6,11.9-9.1,11.9-15.3V9.4h-10V3.8h27.1v5.6
	h-9.8V10c0,5.8,3.6,11.9,11.7,14.6L645.5,30z M660.7,43.4v5.7h-34.3V32.9h7.1v10.5H660.7z M659.4,36.2h-7.2v-36h7.2V36.2z"/>
<g>
	<path class="st0" d="M22,116.6h-5.3v8H14v-8H8.6v8H5.9v-8H0.7v-2.2H22V116.6z M2.9,107.2c0-3.1,3.4-5.2,8.3-5.2s8.3,2,8.3,5.2
		s-3.4,5.2-8.3,5.2C6.3,112.4,2.9,110.4,2.9,107.2z M5.7,107.2c0,1.9,2.2,3,5.6,3s5.6-1.1,5.6-3s-2.2-3-5.6-3S5.7,105.4,5.7,107.2z"
		/>
	<path class="st0" d="M30.2,116.5c3.3,0,6.8-0.3,10.5-1.1l0.3,2.2c-4,0.8-7.8,1.1-11.5,1.1h-2v-15.3h2.7V116.5z M45.5,101.2v23.5
		h-2.7v-23.5H45.5z"/>
	<path class="st0" d="M72.7,110.6v2.1H51.6v-2.1H67c0.2-0.9,0.3-1.7,0.4-2.5l-13.5,0.6l-0.3-2.1l13.9-0.4c0-0.6,0-1.2,0-1.8H54.2
		v-2.1h15.9v1.9c0,1.8,0,3.9-0.5,6.5L72.7,110.6L72.7,110.6z M56.7,122.3h14.5v2.1H54v-6h13.7v-1.8H54v-2.1h16.4v5.8H56.7V122.3z"/>
	<path class="st0" d="M98.3,119.7v2.2H77v-2.2h9.3v-4h-6.7v-7.6h13.5V105H79.5v-2.2h16.2v7.4H82.2v3.3h14.1v2.2H89v4
		C89,119.7,98.3,119.7,98.3,119.7z"/>
	<path class="st0" d="M123.7,112.9v2.2h-21.3v-2.2H123.7z M107.7,122h13.7v2.2H105v-6.9h2.7V122z M121.3,110.1h-16.1V102h2.7v5.9
		h13.4V110.1z"/>
	<path class="st0" d="M143.9,108c0,3.9,2.4,8,6.1,9.5l-1.5,2.1c-2.7-1.2-4.8-3.7-5.9-6.8c-1,3.3-3.1,6.1-5.9,7.4l-1.5-2.1
		c3.6-1.7,6.1-6.1,6.1-10.1v-2.2h-5.2v-2.2h13.2v2.2h-5.2v2.2H143.9z M154.5,101.2v23.5h-2.7v-23.5H154.5z"/>
	<path class="st0" d="M181.9,114.9h-9.4v9.8h-2.7v-9.8h-9.2v-2.2h15.3c0.7-3.3,0.7-5.7,0.7-7.9h-13.4v-2.2h16v2.1c0,2.2,0,4.7-0.6,8
		h3.3L181.9,114.9L181.9,114.9z"/>
	<path class="st0" d="M186.2,117.5c4.2,0,10.1,0,15.1-0.8l0.2,2c-5.2,1-10.8,1-15,1L186.2,117.5z M200,108.5c0,3.3-2.7,5.6-6.4,5.6
		s-6.4-2.3-6.4-5.6s2.7-5.6,6.4-5.6S200,105.2,200,108.5z M189.9,108.5c0,2,1.6,3.4,3.7,3.4c2.2,0,3.8-1.3,3.8-3.4s-1.6-3.4-3.8-3.4
		C191.5,105.1,189.9,106.4,189.9,108.5z M205.4,101.2v23.5h-2.7v-23.5H205.4z"/>
	<path class="st0" d="M231.1,103.4v15.5h-11v-15.5H231.1z M222.7,105.5v11.2h5.8v-11.2H222.7z M238.2,101.2v23.6h-2.7v-23.6H238.2z"
		/>
	<path class="st0" d="M247.6,117c2.4,0,4.7-0.2,7.4-0.6l0.2,2.2c-3.1,0.5-5.7,0.6-8.6,0.6H245V110h6.2v-4.3H245v-2.2h8.8v8.6h-6.2
		V117z M264.3,101.2v23.5h-2.5v-12.2H259v11.1h-2.5v-21.8h2.5v8.6h2.8v-9.1h2.5V101.2z"/>
	<path class="st0" d="M291,112v2h-21.3v-2H291z M274.8,122.6H289v1.8h-16.9V119h13.5v-1.7H272v-1.8h16.2v5.3h-13.5L274.8,122.6
		L274.8,122.6z M285.6,103.6h-13.3v-1.8h15.9v5.2H275v1.7h13.7v1.9h-16.3v-5.3h13.2L285.6,103.6L285.6,103.6z"/>
	<path class="st0" d="M317.9,114.9c-2.1,0.4-4.2,0.6-6.3,0.8v8.2h-2.7v-8.1c-2.2,0.1-4.3,0.1-6.1,0.1l-0.3-2.2
		c4.2,0,10.1-0.1,15.2-0.8L317.9,114.9z M304.1,107.1c0-2.9,2.5-4.9,6.1-4.9c3.5,0,6.1,2,6.1,4.9s-2.5,4.9-6.1,4.9
		C306.6,112.1,304.1,110,304.1,107.1z M306.6,107.1c0,1.7,1.5,2.7,3.5,2.7c2.1,0,3.5-1.1,3.5-2.7s-1.4-2.7-3.5-2.7
		C308.1,104.4,306.6,105.5,306.6,107.1z M321.9,101.2v23.5h-2.7v-23.5H321.9z"/>
	<path class="st0" d="M335,105h4.4v2.2h-11.5V105h4.4v-3.1h2.7V105z M338.7,114c0,3.2-2.1,5.5-5.1,5.5s-5.1-2.2-5.1-5.5
		s2.1-5.5,5.1-5.5S338.7,110.7,338.7,114z M336.3,114c0-1.9-1.1-3.3-2.7-3.3s-2.7,1.3-2.7,3.3s1.1,3.2,2.7,3.2
		C335.2,117.2,336.3,115.9,336.3,114z M347.9,101.2v23.5h-2.5v-11.5h-2.5v10.5h-2.5v-21.9h2.5v9.2h2.5v-9.7L347.9,101.2L347.9,101.2
		z"/>
	<path class="st0" d="M369.4,108c0,3.9,2.4,8,6.1,9.5l-1.5,2.1c-2.7-1.2-4.8-3.7-5.9-6.8c-1,3.3-3.1,6.1-5.9,7.4l-1.5-2.1
		c3.6-1.7,6.1-6.1,6.1-10.1v-2.2h-5.2v-2.2h13.2v2.2h-5.2v2.2H369.4z M380,101.2v23.5h-2.7v-23.5H380z"/>
	<path class="st0" d="M407.4,112.8v2.2h-21.3v-2.2h9.3v-3.4h2.7v3.4H407.4z M405.1,110.7c-3.8-0.6-6.9-2.3-8.4-4.9
		c-1.5,2.5-4.6,4.3-8.4,4.9l-1-2.1c4.6-0.6,8-3.3,8-6.2v-0.9h2.8v0.9c0,3,3.3,5.6,8,6.2L405.1,110.7z M388.5,117h16.3v7.7h-2.7v-5.6
		h-13.6L388.5,117L388.5,117z"/>
	<path class="st0" d="M423.6,103.7c0,6.8-2.9,12.8-10.6,16.7l-1.5-2.1c5.7-2.9,8.8-7.1,9.4-12.5h-8.2v-2.2L423.6,103.7L423.6,103.7z
		 M433.3,112.7h-3.6v12H427v-23.5h2.7v9.3h3.6L433.3,112.7L433.3,112.7z"/>
	<path class="st0" d="M458.2,112v2.2H437V112H458.2z M455.6,120.3c0,2.7-3,4.3-8.1,4.3c-5,0-8.1-1.6-8.1-4.3c0-2.8,3.1-4.3,8.1-4.3
		C452.6,116,455.6,117.6,455.6,120.3z M455.8,109.6h-16v-8h2.7v5.8h13.4v2.2H455.8z M452.9,120.3c0-1.5-2-2.2-5.4-2.2
		s-5.4,0.8-5.4,2.2c0,1.4,1.9,2.2,5.4,2.2S452.9,121.7,452.9,120.3z"/>
	<path class="st0" d="M476.3,106h-13.9v-2.1h5.6v-2.7h2.7v2.7h5.6L476.3,106L476.3,106z M469.3,116c-3.4,0-5.7-1.8-5.7-4.4
		c0-2.7,2.3-4.4,5.7-4.4c3.4,0,5.7,1.8,5.7,4.4S472.7,116,469.3,116z M468.6,122.1h13.1v2.2h-15.8v-6.8h2.7L468.6,122.1L468.6,122.1
		z M469.3,113.9c1.9,0,3.1-0.9,3.1-2.4s-1.3-2.4-3.1-2.4c-1.8,0-3.1,0.9-3.1,2.4S467.5,113.9,469.3,113.9z M484.1,108.7v2.2h-3.3
		v7.9h-2.7v-17.6h2.7v7.5H484.1z"/>
	<path class="st0" d="M508.3,115.2c-2.7-0.9-4.7-2.7-5.7-5c-1,2.5-3,4.5-5.8,5.4l-1.4-2.1c3.7-1.2,5.8-4.3,5.8-7.5v-0.9h-5.1V103
		h12.8v2.2h-5v0.9c0,3,2.1,5.9,5.7,7L508.3,115.2z M515.2,122.1v2.2h-16v-7.5h2.7v5.3H515.2z M514.5,118.3h-2.7v-17.1h2.7V118.3z"/>
	<path class="st0" d="M541.9,111v2.1h-21.3V111H541.9z M522.9,105.6c0-2.6,3.1-4.1,8.4-4.1c5.3,0,8.4,1.4,8.4,4.1c0,2.6-3.1,4-8.4,4
		S522.9,108.2,522.9,105.6z M525.8,122.4h14v2.1h-16.7v-5.9h13.4v-1.7h-13.4v-2h16.1v5.6h-13.4L525.8,122.4L525.8,122.4z
		 M525.6,105.6c0,1.3,2,2,5.6,2s5.6-0.7,5.6-2c0-1.4-2-2.1-5.6-2.1C527.6,103.6,525.6,104.3,525.6,105.6z"/>
	<path class="st0" d="M565.2,114.3h-11v-11.1h11V114.3z M562.6,105.4h-5.7v6.8h5.7V105.4z M559.6,122.1h13.1v2.2h-15.8v-7.5h2.7
		V122.1z M575.1,108.2v2.2h-3.3v8h-2.7v-17.2h2.7v7H575.1z"/>
	<path class="st0" d="M600.1,111.6v2.2h-21.2v-2.2H600.1z M594.8,115.4h2.7v8.9h-16v-8.9h2.7v2.2h10.6V115.4z M597.7,109.6h-16.2
		v-7.7h16v2.2h-13.4v3.4h13.6L597.7,109.6L597.7,109.6z M594.8,119.7h-10.6v2.4h10.6V119.7z"/>
	<path class="st0" d="M608.3,116.5c3.3,0,6.8-0.3,10.5-1.1l0.3,2.2c-4,0.8-7.8,1.1-11.5,1.1h-2v-15.3h2.7V116.5z M623.7,101.2v23.5
		H621v-23.5H623.7z"/>
	<path class="st0" d="M633.3,116.7c3.8,0,6.7-0.2,9.9-0.8l0.3,2.2c-3.6,0.7-6.7,0.8-11,0.8h-1.9v-15.5h10.9v2.2h-8.2V116.7z
		 M651.5,112.4h-3.7v12.3h-2.7v-23.5h2.7v9h3.7V112.4z"/>
	<path class="st0" d="M655.7,120.9c0-1.2,0.9-2.1,2-2.1s2,0.9,2,2.1s-0.9,2.1-2,2.1S655.7,122.2,655.7,120.9z"/>
	<path class="st0" d="M22,162.8h-5.3v8H14v-8H8.6v8H5.9v-8H0.7v-2.2H22V162.8z M2.9,153.4c0-3.1,3.4-5.2,8.3-5.2s8.3,2,8.3,5.2
		s-3.4,5.2-8.3,5.2C6.3,158.6,2.9,156.6,2.9,153.4z M5.7,153.4c0,1.9,2.2,3,5.6,3s5.6-1.1,5.6-3s-2.2-3-5.6-3S5.7,151.6,5.7,153.4z"
		/>
	<path class="st0" d="M27.5,162.7c3.3,0,6.8-0.3,10.5-1.1l0.3,2.2c-4,0.8-7.8,1.1-11.5,1.1h-2v-15.3h2.7V162.7z M42.8,147.4v23.5
		h-2.7v-23.5H42.8z"/>
	<path class="st0" d="M67.3,156.8v2.1H46.2v-2.1h15.4c0.2-0.9,0.3-1.7,0.4-2.5l-13.5,0.6l-0.3-2.1l13.9-0.4c0-0.7,0-1.2,0-1.8H48.8
		v-2.1h15.9v1.9c0,1.8,0,3.9-0.5,6.5L67.3,156.8L67.3,156.8z M51.2,168.5h14.5v2.1H48.6v-6h13.7v-1.8H48.6v-2.1H65v5.8H51.2V168.5z"
		/>
	<path class="st0" d="M90.1,165.9v2.2H68.9v-2.2h9.3v-4h-6.7v-7.6H85v-3.1H71.4V149h16.2v7.4H74.1v3.3h14.1v2.2h-7.3v4H90.1z"/>
	<path class="st0" d="M91.7,163.7c4.2,0,10.1,0,15.1-0.8l0.2,2c-5.2,1-10.8,1-15,1L91.7,163.7z M105.6,154.7c0,3.3-2.7,5.6-6.4,5.6
		s-6.4-2.3-6.4-5.6s2.7-5.6,6.4-5.6S105.6,151.4,105.6,154.7z M95.4,154.7c0,2,1.6,3.4,3.7,3.4c2.2,0,3.8-1.3,3.8-3.4
		c0-2.1-1.6-3.4-3.8-3.4C97,151.3,95.4,152.6,95.4,154.7z M110.9,147.4v23.5h-2.7v-23.5H110.9z"/>
	<path class="st0" d="M127.6,154.2c0,3.9,2.4,8,6.1,9.5l-1.5,2.1c-2.7-1.2-4.8-3.7-5.9-6.8c-1,3.3-3.1,6.1-5.9,7.4l-1.5-2.1
		c3.6-1.7,6.1-6.1,6.1-10.1V152h-5.2v-2.2H133v2.2h-5.2v2.2H127.6z M138.3,147.4v23.5h-2.7v-23.5H138.3z"/>
	<path class="st0" d="M163,159v2.2h-21.3V159h9.3v-3.4h2.7v3.4H163z M160.7,156.9c-3.8-0.6-6.9-2.3-8.4-4.9
		c-1.5,2.5-4.6,4.3-8.4,4.9l-1-2.1c4.6-0.6,8-3.3,8-6.2v-0.9h2.8v0.9c0,3,3.3,5.6,8,6.2L160.7,156.9z M144,163.2h16.3v7.7h-2.7v-5.6
		H144V163.2z"/>
	<path class="st0" d="M176.5,149.9c0,6.8-2.9,12.8-10.6,16.7l-1.5-2.1c5.7-2.9,8.8-7.1,9.4-12.5h-8.2v-2.2h10.9L176.5,149.9
		L176.5,149.9z M186.2,158.9h-3.6v12h-2.7v-23.5h2.7v9.3h3.6V158.9z"/>
	<path class="st0" d="M208.4,158.2v2.2h-21.2v-2.2H208.4z M205.8,166.5c0,2.7-3,4.3-8.1,4.3c-5,0-8.1-1.6-8.1-4.3
		c0-2.8,3.1-4.3,8.1-4.3S205.8,163.8,205.8,166.5z M206,155.8h-16v-8h2.7v5.8H206V155.8z M203.1,166.5c0-1.5-2-2.2-5.4-2.2
		s-5.4,0.8-5.4,2.2s1.9,2.2,5.4,2.2C201.1,168.7,203.1,167.9,203.1,166.5z"/>
	<path class="st0" d="M223.8,152.2h-13.9v-2.1h5.6v-2.7h2.7v2.7h5.6L223.8,152.2L223.8,152.2z M216.8,162.2c-3.4,0-5.7-1.8-5.7-4.4
		c0-2.7,2.3-4.4,5.7-4.4s5.7,1.8,5.7,4.4S220.2,162.2,216.8,162.2z M216,168.3h13.1v2.2h-15.8v-6.8h2.7V168.3z M216.8,160.1
		c1.9,0,3.1-0.9,3.1-2.4s-1.3-2.4-3.1-2.4s-3.1,0.9-3.1,2.4C213.7,159.2,215,160.1,216.8,160.1z M231.5,154.9v2.2h-3.3v7.9h-2.7
		v-17.6h2.7v7.5L231.5,154.9L231.5,154.9z"/>
	<path class="st0" d="M250.4,161.4c-2.7-0.9-4.7-2.7-5.7-5c-1,2.5-3,4.5-5.8,5.4l-1.4-2.1c3.7-1.2,5.8-4.3,5.8-7.5v-0.9h-5.1v-2.2
		H251v2.2h-5v0.9c0,3,2.1,5.9,5.7,7L250.4,161.4z M257.3,168.3v2.2h-16V163h2.7v5.3H257.3z M256.6,164.5h-2.7v-17.1h2.7V164.5z"/>
	<path class="st0" d="M281.2,159.6v2.2H260v-2.2H281.2z M262.2,152.9c0-3,3.3-4.8,8.4-4.8s8.4,1.8,8.4,4.8s-3.3,4.8-8.4,4.8
		S262.2,155.9,262.2,152.9z M265.3,168.3h13.5v2.2h-16.2v-6.8h2.7V168.3z M265,152.9c0,1.7,2.2,2.6,5.6,2.6s5.6-1,5.6-2.6
		s-2.2-2.6-5.6-2.6C267.1,150.3,265,151.2,265,152.9z"/>
	<path class="st0" d="M308.6,165.9v2.2h-21.3v-2.2h9.3v-4h-6.7v-7.6h13.5v-3.1h-13.6V149H306v7.4h-13.5v3.3h14.1v2.2h-7.3v4H308.6z"
		/>
	<path class="st0" d="M331.3,165.7v2.2H310v-2.2H331.3z M329.3,161.1c-3.8-0.8-7.1-3.2-8.7-6.4c-1.5,3.2-4.8,5.7-8.7,6.4l-1.1-2.2
		c4.6-0.9,8.4-4.5,8.4-8.2v-1.8h2.8v1.8c0,3.7,3.8,7.4,8.4,8.2L329.3,161.1z"/>
	<path class="st0" d="M338.3,160.8c-3.1,0-5.3-2.4-5.3-5.8s2.2-5.8,5.3-5.8c3.1,0,5.4,2.4,5.4,5.8S341.4,160.8,338.3,160.8z
		 M338.3,158.5c1.7,0,3-1.4,3-3.5s-1.2-3.5-3-3.5c-1.7,0-2.9,1.4-2.9,3.5S336.6,158.5,338.3,158.5z M353.3,168.3v2.2h-16.2v-7.7h2.7
		v5.6h13.5V168.3z M347.7,164.2h-2.5v-16.3h2.5v6.3h2.4v-6.7h2.5V165h-2.5v-8.7h-2.4V164.2z"/>
	<path class="st0" d="M365.8,159.3c-2.1-0.8-3.6-2.3-4.4-4.1c-0.9,2-2.4,3.7-4.6,4.6l-1.3-2c3-1.2,4.6-3.9,4.6-6.4V151h-4v-2.2h10.4
		v2.2h-3.7v0.4c0,2.4,1.5,4.8,4.3,6L365.8,159.3z M376.2,168.5v2.1h-16.5v-6h13v-1.8h-13.1v-2.1h15.7v5.8h-13v2H376.2z M368.3,152.5
		v-4.7h2.5v11.8h-2.5v-4.9h-3v-2.2L368.3,152.5L368.3,152.5z M375.4,159.8h-2.5v-12.4h2.5V159.8z"/>
	<path class="st0" d="M381.5,163c2.5,0,4.8-0.2,7.5-0.6l0.2,2.2c-3.2,0.5-5.8,0.6-8.7,0.6H379v-9h5.7V152h-5.8v-2.2h8.3v8.5h-5.7
		V163z M391,147.9h2.5v21.8H391v-11.9h-2.7v-2.2h2.7V147.9z M398.3,147.4v23.5h-2.5v-23.5H398.3z"/>
	<path class="st0" d="M422.2,165.7v2.2H401v-2.2H422.2z M420.2,161.1c-3.8-0.8-7.1-3.2-8.7-6.4c-1.5,3.2-4.8,5.7-8.7,6.4l-1.1-2.2
		c4.6-0.9,8.4-4.5,8.4-8.2v-1.8h2.8v1.8c0,3.7,3.8,7.4,8.4,8.2L420.2,161.1z"/>
	<path class="st0" d="M436.5,147.8h2.5v21.9h-2.5v-11.3H434c-0.2,4.6-2.2,7.4-5,7.4c-3,0-5-3.2-5-8.3s2-8.3,5-8.3
		c2.8,0,4.7,2.7,5,7.1h2.5V147.8z M431.6,157.5c0-3.7-1-5.8-2.6-5.8s-2.6,2.1-2.6,5.8s1,5.8,2.6,5.8S431.6,161.3,431.6,157.5z
		 M443.7,147.4v23.5h-2.5v-23.5H443.7z"/>
	<path class="st0" d="M466.5,161.1c-2.1,0.4-4.2,0.6-6.3,0.8v8.2h-2.7V162c-2.2,0.1-4.3,0.1-6.1,0.1l-0.3-2.2
		c4.2,0,10.1-0.1,15.2-0.8L466.5,161.1z M452.7,153.3c0-2.9,2.5-4.9,6.1-4.9c3.5,0,6.1,2,6.1,4.9s-2.5,4.9-6.1,4.9
		C455.2,158.3,452.7,156.2,452.7,153.3z M455.2,153.3c0,1.7,1.5,2.7,3.5,2.7c2.1,0,3.5-1.1,3.5-2.7c0-1.6-1.4-2.7-3.5-2.7
		C456.7,150.6,455.2,151.7,455.2,153.3z M470.5,147.4v23.5h-2.7v-23.5H470.5z"/>
	<path class="st0" d="M482.7,154.9c0,3.7,2.3,7.5,5.9,9.1l-1.4,2.1c-2.7-1.2-4.7-3.6-5.8-6.5c-1,3.1-3.1,5.7-5.8,6.9l-1.5-2.1
		c3.7-1.7,5.9-5.6,5.9-9.5v-1.4h-5.2v-2.2h5.2v-3.5h2.7v3.5h5.1v2.2h-5.1L482.7,154.9L482.7,154.9z M493.1,147.4v23.5h-2.7v-23.5
		H493.1z"/>
	<path class="st0" d="M510.4,152.2h-13.9v-2.1h5.6v-2.7h2.7v2.7h5.6L510.4,152.2L510.4,152.2z M503.5,162.2c-3.4,0-5.7-1.8-5.7-4.4
		c0-2.7,2.3-4.4,5.7-4.4c3.4,0,5.7,1.8,5.7,4.4S506.8,162.2,503.5,162.2z M502.7,168.3h13.1v2.2H500v-6.8h2.7V168.3z M503.5,160.1
		c1.9,0,3.1-0.9,3.1-2.4s-1.3-2.4-3.1-2.4c-1.8,0-3.1,0.9-3.1,2.4C500.3,159.2,501.6,160.1,503.5,160.1z M518.2,154.9v2.2h-3.3v7.9
		h-2.7v-17.6h2.7v7.5L518.2,154.9L518.2,154.9z"/>
	<path class="st0" d="M537,161.4c-2.7-0.9-4.7-2.7-5.7-5c-1,2.5-3,4.5-5.8,5.4l-1.4-2.1c3.7-1.2,5.8-4.3,5.8-7.5v-0.9h-5.1v-2.2
		h12.8v2.2h-5v0.9c0,3,2.1,5.9,5.7,7L537,161.4z M543.9,168.3v2.2h-16V163h2.7v5.3H543.9z M543.2,164.5h-2.7v-17.1h2.7V164.5z"/>
	<path class="st0" d="M564.1,157.4c0,5.1-2.5,8.3-6.1,8.3c-3.5,0-6-3.2-6-8.3c0-5,2.5-8.3,6-8.3
		C561.6,149.1,564.1,152.3,564.1,157.4z M554.6,157.4c0,3.7,1.4,5.9,3.5,5.9s3.5-2.2,3.5-5.9c0-3.6-1.4-5.9-3.5-5.9
		C556.1,151.5,554.6,153.7,554.6,157.4z M570.6,147.4V171h-2.7v-23.6H570.6z"/>
	<path class="st0" d="M595.3,165.8v2.2H574v-2.2h9.3V160h-6.8v-10.7h2.7v8.5h13.7v2.2h-7v5.9L595.3,165.8L595.3,165.8z"/>
	<path class="st0" d="M609.5,147.9h2.5v21.9h-2.5v-11.4h-2.9v6.8h-9.1v-15.5h2.5v5.6h4.1v-5.6h2.5v6.5h2.9V147.9z M604.1,157.3H600
		v5.6h4.1V157.3z M616.8,147.4v23.5h-2.5v-23.5H616.8z"/>
	<path class="st0" d="M632.3,157.4c0,5.1-2.5,8.3-6.1,8.3c-3.5,0-6-3.2-6-8.3c0-5,2.5-8.3,6-8.3
		C629.8,149.1,632.3,152.3,632.3,157.4z M622.8,157.4c0,3.7,1.4,5.9,3.5,5.9s3.5-2.2,3.5-5.9c0-3.6-1.4-5.9-3.5-5.9
		S622.8,153.7,622.8,157.4z M638.8,147.4V171h-2.7v-23.6H638.8z"/>
	<path class="st0" d="M654.5,161.6c-2.5-1-4.3-3-5.3-5.5c-1,2.7-3,4.7-5.6,5.8l-1.5-2.1c3.7-1.4,5.7-4.7,5.7-8.2v-2.9h2.7v2.9
		c0,3.3,2,6.6,5.5,7.9L654.5,161.6z M662.2,168.3v2.2h-15.8v-7.3h2.7v5.1H662.2z M658.9,157.5h-4.4v-2.2h4.4v-2.5h-4.4v-2.2h4.4
		v-3.3h2.7v17.5h-2.7V157.5z"/>
	<path class="st0" d="M10.7,207.4c-2-0.9-3.4-2.5-4.2-4.5C5.6,205.1,4.2,207,2,208l-1.5-2c3.1-1.5,4.7-4.7,4.7-7.5v-3.3h2.6v3.3
		c0,2.8,1.4,5.5,4.3,6.9L10.7,207.4z M21.2,214.5v2.2H5v-7.5h2.7v5.3H21.2z M13.4,201.5h-3.3v-2.2h3.3V194h2.5v16.5h-2.5V201.5z
		 M20.6,211.2H18v-17.6h2.5v17.6H20.6z"/>
	<path class="st0" d="M29.9,209.4c3.7,0,6.4-0.2,9.5-0.7l0.2,2.2c-3.4,0.6-6.3,0.7-10.6,0.7h-1.8v-16h10.9v2.2h-8.2v4.4h7.3v2.1
		h-7.3C29.9,204.3,29.9,209.4,29.9,209.4z M45.7,193.5v23.6H43v-12.7h-4.5v-2.2H43v-8.6h2.7V193.5z"/>
	<path class="st0" d="M64.5,194H67v22h-2.5v-11.3H62c-0.2,4.6-2.2,7.4-5,7.4c-3,0-5-3.2-5-8.3s2-8.3,5-8.3c2.8,0,4.7,2.7,5,7.1h2.5
		V194z M59.5,203.7c0-3.7-1-5.8-2.6-5.8s-2.6,2.1-2.6,5.8s1,5.8,2.6,5.8C58.6,209.6,59.5,207.5,59.5,203.7z M71.7,193.6v23.5h-2.5
		v-23.5H71.7z"/>
	<path class="st0" d="M85.6,199.4c0,4.4,2.2,8.6,5.8,10.3l-1.6,2.2c-2.7-1.3-4.5-3.9-5.6-7c-1,3.3-3,6.1-5.6,7.4l-1.7-2.1
		c3.7-1.8,6-6.3,6-10.7v-3.9h2.7C85.6,195.6,85.6,199.4,85.6,199.4z M96.6,193.5v23.6h-2.7v-13.7h-5v-2.2h5v-7.7L96.6,193.5
		L96.6,193.5z"/>
	<path class="st0" d="M120.1,196.6c0,6.3-2.1,11.8-8.7,15.6l-1.6-1.9c5.1-2.9,7.2-6.8,7.6-11.5h-6.6v-2.2L120.1,196.6L120.1,196.6z
		 M130,193.6v23.5h-2.5V205h-2.7v11h-2.5v-21.8h2.5v8.6h2.7v-9.2H130z"/>
	<path class="st0" d="M147.4,204.9h-11.1v-10.3h2.7v3.1h5.7v-3.1h2.7L147.4,204.9L147.4,204.9z M141.4,214.8h13.3v2.1h-15.9v-6.2
		h12.5v-2h-12.5v-2.1H154v6h-12.5v2.2H141.4z M144.7,199.7H139v3h5.7V199.7z M157.1,198.4v2.2h-3.3v5h-2.7v-12h2.7v4.8H157.1z"/>
	<path class="st0" d="M174.9,198.4H161v-2.1h5.6v-2.7h2.7v2.7h5.6L174.9,198.4L174.9,198.4z M167.9,208.4c-3.4,0-5.7-1.8-5.7-4.4
		c0-2.7,2.3-4.4,5.7-4.4s5.7,1.8,5.7,4.4C173.6,206.6,171.3,208.4,167.9,208.4z M167.2,214.5h13.1v2.2h-15.8v-6.8h2.7V214.5z
		 M167.9,206.3c1.9,0,3.1-0.9,3.1-2.4s-1.3-2.4-3.1-2.4s-3.1,0.9-3.1,2.4C164.8,205.4,166.1,206.3,167.9,206.3z M182.6,201.1v2.2
		h-3.3v7.9h-2.7v-17.6h2.7v7.5L182.6,201.1L182.6,201.1z"/>
	<path class="st0" d="M203,210.1c2.1-0.1,4.1-0.3,6.1-0.6l0.2,2c-5.2,1-10.8,1.1-15,1.1l-0.3-2.2c1.8,0,4.1,0,6.3-0.1v-4h2.7V210.1z
		 M194.6,204.8c3.5-1,5.5-3.4,5.7-6.2h-5.1v-2.2h5.1v-2.7h2.7v2.7h5.1v2.2H203c0.2,2.7,2.2,5,5.7,5.9l-1.2,2.1
		c-2.8-0.8-4.8-2.4-5.8-4.6c-1,2.3-3,4-5.8,4.8L194.6,204.8z M213.2,193.6v23.6h-2.7v-23.6H213.2z"/>
	<path class="st0" d="M232.1,206.8c-2.7-0.8-4.7-2.4-5.8-4.5c-1,2.3-3,4-5.8,4.9l-1.3-2.1c3.6-1,5.7-3.7,5.7-6.6v-0.3H220v-2.1h4.9
		v-2.7h2.7v2.7h4.9v2.1h-4.9v0.3c0,2.7,2.1,5.2,5.7,6.2L232.1,206.8z M223.4,208.6h15.4v8.2h-15.4V208.6z M226,214.7h10.2v-4H226
		V214.7z M238.8,193.6v13.8h-2.7v-5.3H232v-2.2h4.2v-6.3H238.8z"/>
	<path class="st0" d="M258.5,205.8c-3,0.7-5.8,0.8-10.8,0.8h-1.9v-11.1h10.5v2.2h-7.8v6.7c4.4,0,7-0.2,9.8-0.8L258.5,205.8z
		 M251,214.5h13.1v2.2h-15.8v-7.8h2.7V214.5z M266.5,200.3v2.2h-3.3v8.1h-2.7v-17h2.7v6.7H266.5z"/>
	<path class="st0" d="M290.2,196.1c0,7-2.8,12.9-10.9,16.8l-1.4-2.1c6.2-3,9.1-7.1,9.5-12.5H279v-2.2H290.2z M297.1,193.6v23.5h-2.7
		v-23.5H297.1z"/>
	<path class="st0" d="M315.1,205.2v2h6.6v5.7h-13.4v1.9h14v2.1h-16.7V211H319v-1.7h-13.4v-2h6.7v-2H303v-2.1h21.3v2.1h-9.2
		L315.1,205.2L315.1,205.2z M322.4,201.8c-3.9-0.5-7.1-2.1-8.6-4.4c-1.5,2.3-4.7,4-8.6,4.4l-0.9-2.1c4.7-0.5,8.1-2.8,8.1-5.4v-0.7
		h2.8v0.7c0,2.6,3.4,4.9,8.1,5.4L322.4,201.8z"/>
	<path class="st0" d="M350,212.1v2.2h-21.3v-2.2h9.3v-4h-6.7v-7.6h13.5v-3.1h-13.6v-2.2h16.2v7.4h-13.5v3.3H348v2.2h-7.3v4
		L350,212.1L350,212.1z"/>
	<path class="st0" d="M375.1,206.9c-3.2,0.6-5.9,0.7-10.7,0.7h-1.8v-12.2h10.9v2.2h-8.2v2.8h7.7v2.1h-7.7v3c4.2,0,6.7-0.1,9.6-0.6
		L375.1,206.9z M367.7,214.5h13.1v2.2H365v-7.2h2.7V214.5z M383.2,200.7v2.2h-3.3v8.1h-2.7v-17.4h2.7v7.2h3.3V200.7z"/>
	<path class="st0" d="M397.4,206.4c-2.1-0.8-3.5-2.4-4.4-4.2c-0.9,2.2-2.4,4-4.7,5l-1.4-2.1c3.1-1.4,4.7-4.4,4.7-7v-3h2.6v3
		c0,2.6,1.5,5.2,4.6,6.4L397.4,206.4z M407.1,212.8c0,2.7-3.1,4.3-8,4.3s-8-1.6-8-4.3s3.1-4.3,8-4.3S407.1,210.1,407.1,212.8z
		 M404.4,212.8c0-1.5-2-2.3-5.3-2.3s-5.3,0.8-5.3,2.3c0,1.4,2,2.2,5.3,2.2S404.4,214.2,404.4,212.8z M401.9,207.3h-2.5V194h2.5v5.6
		h2.5v-6h2.5V208h-2.5v-6.2h-2.5V207.3z"/>
	<path class="st0" d="M424.1,198.2h-11.7v-2.1h4.5v-2.4h2.6v2.4h4.5v2.1H424.1z M413.3,203.2c0-2.4,2.1-4,5-4c3,0,5,1.6,5,4
		s-2.1,4.1-5,4.1C415.3,207.3,413.3,205.7,413.3,203.2z M429.7,209.5c0,2.3,1.6,4.4,4.6,5.3l-1.3,2c-2.3-0.8-3.8-2.2-4.6-4.1
		c-0.8,1.8-2.1,3.4-4.3,4.3c-2.2-0.8-3.6-2.4-4.3-4.2c-0.9,1.7-2.4,3.2-4.6,4l-1.3-2c3-0.9,4.5-3.2,4.5-5.3v-0.7h2.6v0.7
		c0,1.9,0.9,3.8,2.9,5c2.1-1.3,3.1-3.4,3.1-5v-0.7h2.6L429.7,209.5L429.7,209.5z M415.7,203.2c0,1.3,1,2.1,2.6,2.1s2.7-0.8,2.7-2.1
		s-1.1-2.1-2.7-2.1S415.7,201.9,415.7,203.2z M427.5,207.8H425v-13.9h2.5v5.9h2.4v-6.2h2.5v14.5h-2.5V202h-2.4V207.8z"/>
	<path class="st0" d="M459.3,204.1v2.1H438v-2.1H459.3z M457.2,202.7c-3.8-0.5-7-2.3-8.5-4.7c-1.5,2.4-4.7,4.2-8.5,4.7l-1-2.1
		c4.7-0.6,8.1-3.1,8.1-5.9v-0.9h2.8v0.9c0,2.7,3.5,5.3,8.1,5.9L457.2,202.7z M453.9,207.7h2.7v9.1h-15.9v-9.1h2.7v2.4H454v-2.4
		H453.9z M453.9,212.1h-10.6v2.5h10.6V212.1z"/>
	<path class="st0" d="M467.5,208.9c3.3,0,6.8-0.3,10.5-1.1l0.3,2.2c-4,0.8-7.8,1.1-11.5,1.1h-2v-15.3h2.7V208.9z M482.9,193.6v23.5
		h-2.7v-23.5H482.9z"/>
	<path class="st0" d="M492.6,209.1c3.8,0,6.7-0.2,9.9-0.8l0.3,2.2c-3.6,0.7-6.7,0.8-11,0.8h-1.9v-15.5h10.9v2.2h-8.2L492.6,209.1
		L492.6,209.1z M510.8,204.8h-3.7v12.3h-2.7v-23.5h2.7v9h3.7V204.8z"/>
	<path class="st0" d="M515,213.3c0-1.2,0.9-2.1,2-2.1s2,0.9,2,2.1c0,1.2-0.9,2.1-2,2.1S515,214.6,515,213.3z"/>
	<path class="st0" d="M544.3,207.6c-2.7-0.9-4.7-2.7-5.7-5c-1,2.5-3,4.5-5.8,5.4l-1.4-2.1c3.7-1.2,5.8-4.3,5.8-7.5v-0.9h-5.1v-2.2
		h12.8v2.2h-5v0.9c0,3,2.1,5.9,5.7,7L544.3,207.6z M551.2,214.5v2.2h-16v-7.5h2.7v5.3H551.2z M550.5,210.7h-2.7v-17.1h2.7V210.7z"/>
	<path class="st0" d="M577.9,203.4v2.1h-21.3v-2.1H577.9z M558.9,198c0-2.6,3.1-4.1,8.4-4.1c5.3,0,8.4,1.4,8.4,4.1
		c0,2.6-3.1,4-8.4,4S558.9,200.6,558.9,198z M561.9,214.8h14v2.1h-16.7V211h13.4v-1.7h-13.4v-2h16.1v5.6h-13.4L561.9,214.8
		L561.9,214.8z M561.7,198c0,1.3,2,2,5.6,2s5.6-0.7,5.6-2c0-1.4-2-2.1-5.6-2.1C563.6,196,561.7,196.7,561.7,198z"/>
	<path class="st0" d="M601.4,206.7h-11v-11.1h11V206.7z M598.7,197.8H593v6.8h5.7V197.8z M595.7,214.5h13.1v2.2H593v-7.5h2.7V214.5z
		 M611.2,200.6v2.2h-3.3v8h-2.7v-17.2h2.7v7H611.2z"/>
	<path class="st0" d="M636.3,211.9v2.2H615v-2.2H636.3z M633.9,206.8h-16.3v-11.2h16.1v2.2h-13.4v6.8h13.6L633.9,206.8L633.9,206.8z
		"/>
	<path class="st0" d="M661.8,205.3v2.2h-21.3v-2.2H661.8z M645.8,214.4h13.7v2.2h-16.4v-6.9h2.7V214.4z M659.4,202.5h-16.1v-8.1h2.7
		v5.9h13.4L659.4,202.5L659.4,202.5z"/>
	<path class="st0" d="M21.9,250.5v2.2H0.7v-2.2H9v-4.3h2.7v4.3H21.9z M19.4,258.9c0,2.7-3.2,4.4-8.2,4.4c-5.1,0-8.3-1.7-8.3-4.4
		c0-2.7,3.2-4.4,8.3-4.4C16.2,254.5,19.4,256.2,19.4,258.9z M16,248.8c0.6-2.3,0.6-4,0.6-5.8H3.2v-2.2h16.1v2c0,1.9,0,3.8-0.7,6.2
		L16,248.8z M16.8,258.9c0-1.5-2.1-2.3-5.5-2.3c-3.5,0-5.6,0.9-5.6,2.3c0,1.5,2.1,2.3,5.6,2.3C14.7,261.2,16.8,260.4,16.8,258.9z"/>
	<path class="st0" d="M38.5,253c-2.6-0.9-4.5-2.8-5.5-5c-1,2.6-3,4.7-5.8,5.6l-1.4-2.1c3.6-1.3,5.7-4.4,5.7-7.6v-0.3h-5v-2.2h12.6
		v2.2h-4.9v0.3c0,2.9,2,5.9,5.5,7.1L38.5,253z M45.4,258.9c0,2.8-3,4.4-7.9,4.4s-7.9-1.6-7.9-4.4s3-4.4,7.9-4.4
		C42.4,254.4,45.4,256.1,45.4,258.9z M42.7,258.9c0-1.5-1.9-2.4-5.2-2.4c-3.4,0-5.3,0.8-5.3,2.4s1.9,2.4,5.3,2.4
		C40.8,261.2,42.7,260.4,42.7,258.9z M42.6,245.7v-5.9h2.7v14h-2.7v-5.9h-4.2v-2.2L42.6,245.7L42.6,245.7z"/>
	<path class="st0" d="M72.3,252v2.2H51V252H72.3z M53.3,245.3c0-3,3.3-4.8,8.4-4.8s8.4,1.8,8.4,4.8s-3.3,4.8-8.4,4.8
		S53.3,248.3,53.3,245.3z M56.4,260.7h13.5v2.2H53.7V256h2.7V260.7z M56,245.3c0,1.7,2.2,2.6,5.6,2.6c3.4,0,5.6-1,5.6-2.6
		s-2.2-2.6-5.6-2.6C58.2,242.7,56,243.6,56,245.3z"/>
	<path class="st0" d="M89.9,251.1c-3.5,0-6.1-2.2-6.1-5.3s2.6-5.3,6.1-5.3c3.6,0,6.2,2.2,6.2,5.3C96.1,249,93.4,251.1,89.9,251.1z
		 M89.9,249c2.1,0,3.6-1.2,3.6-3.1s-1.5-3.1-3.6-3.1c-2,0-3.5,1.2-3.5,3.1S87.9,249,89.9,249z M103.3,260.9v2.1h-16v-6.2H100v-2
		H87.3v-2.1h15.4v6H89.9v2.1h13.4V260.9z M102.6,251.7H100v-11.9h2.7L102.6,251.7L102.6,251.7z"/>
	<path class="st0" d="M120.4,253.3h-11.1v-11.8h2.7v3.7h5.7v-3.7h2.7C120.4,241.5,120.4,253.3,120.4,253.3z M114.6,260.7h13.1v2.2
		h-15.8v-7.4h2.7C114.6,255.5,114.6,260.7,114.6,260.7z M117.7,247.2H112v3.9h5.7V247.2z M130.1,246.7v2.2h-3.3v8.1h-2.7v-17.2h2.7
		v6.9H130.1z"/>
	<path class="st0" d="M146.3,253c-2.6-0.9-4.5-2.8-5.5-5c-1,2.5-3,4.5-5.8,5.5l-1.4-2.1c3.6-1.2,5.8-4.3,5.8-7.5v-0.5h-5v-2.2H147
		v2.2h-4.9v0.4c0,2.9,2,5.9,5.5,7.1L146.3,253z M137.3,255h15.8v8.3h-2.7v-6.1h-13.2L137.3,255L137.3,255z M153.1,239.8v14h-2.7
		v-5.9h-4.1v-2.2h4.1v-5.9L153.1,239.8L153.1,239.8z"/>
	<path class="st0" d="M180.1,258.1v2.2h-21.3v-2.2H180.1z M178,247.8c0,4-3.7,6.6-8.6,6.6c-4.9,0-8.6-2.6-8.6-6.6s3.7-6.6,8.6-6.6
		C174.3,241.1,178,243.8,178,247.8z M163.4,247.8c0,2.7,2.5,4.4,6,4.4s6-1.7,6-4.4s-2.6-4.4-6-4.4
		C165.9,243.3,163.4,245,163.4,247.8z"/>
	<path class="st0" d="M205.2,258.3v2.2H184v-2.2h9.3v-4h-6.7v-7.6h13.5v-3.1h-13.6v-2.2h16.2v7.4h-13.5v3.3h14.1v2.2H196v4H205.2z"
		/>
	<path class="st0" d="M230.9,254.6c-4.9,0.9-10.5,1-14.6,1.1l-0.3-2.1c1.7,0,3.8,0,6-0.1v-1.6c-2.6-0.3-4.3-1.6-4.3-3.5
		c0-2.2,2.2-3.6,5.6-3.6c3.4,0,5.6,1.4,5.6,3.6c0,1.9-1.6,3.2-4.2,3.5v1.5c2-0.1,4.1-0.3,6-0.6L230.9,254.6z M230,243.9h-13.4v-2
		h5.4v-2.2h2.7v2.2h5.3V243.9z M222.1,260.7h13.3v2.2h-16V257h2.7V260.7z M223.3,250.1c1.9,0,3.1-0.7,3.1-1.7c0-1.1-1.2-1.8-3.1-1.8
		c-1.9,0-3.1,0.7-3.1,1.8C220.3,249.4,221.5,250.1,223.3,250.1z M237.8,247.8v2.2h-3.2v8.2h-2.7v-18.4h2.7v8L237.8,247.8
		L237.8,247.8z"/>
	<path class="st0" d="M252.7,246c-1.5,3.7-4.9,6.4-10,7.9l-1.1-2.1c5.5-1.5,8.6-4.4,9-8.1h-7.8v-2.2h10.7c0,0.8-0.1,1.6-0.2,2.3h4.8
		v-4h2.7v13.8h-2.7v-2.7h-5.7v-2.2h5.7V246H252.7z M261,258.5c0,2.9-3.1,4.7-7.9,4.7c-4.8,0-7.8-1.8-7.8-4.7c0-2.9,3.1-4.6,7.8-4.6
		C257.9,253.9,261,255.7,261,258.5z M258.4,258.5c0-1.6-2-2.5-5.2-2.5s-5.2,0.9-5.2,2.5s2,2.5,5.2,2.5
		C256.4,261.1,258.4,260.2,258.4,258.5z"/>
	<path class="st0" d="M273.6,256c2.4-0.1,4.9-0.2,7.2-0.5l0.1,2c-4.8,0.8-10.2,0.9-14.3,0.9l-0.3-2.2c1.4,0,3,0,4.7-0.1V249h2.6
		L273.6,256L273.6,256z M276.2,252.8c0.6-3.6,0.7-6.4,0.7-8.3h-9.3v-2.2h11.9v1.6c0,2.1,0,5-0.6,9.2L276.2,252.8z M288.2,251.7h-3.5
		v11.6H282v-23.5h2.7v9.6h3.5V251.7z"/>
	<path class="st0" d="M312,253c-2.7-0.9-4.7-2.7-5.7-5c-1,2.5-3,4.4-5.8,5.4l-1.4-2.1c3.7-1.2,5.8-4.3,5.8-7.5v-0.4h-5.1v-2.2h12.8
		v2.2h-5v0.4c0,3,2.1,5.9,5.7,7L312,253z M302.4,255.1h15.8v8.1h-2.7v-6h-13.2v-2.1H302.4z M318.2,239.8V254h-2.7v-14.2H318.2z"/>
	<path class="st0" d="M330.4,252.5c-2.2,0.1-4.4,0.1-6.2,0.1l-0.3-2.2c4.3,0,10.1-0.1,15.1-0.7l0.2,1.9c-2,0.3-4,0.6-6,0.7v4.5h-2.7
		v-4.3L330.4,252.5L330.4,252.5z M325.7,244.8c0-2.5,2.4-4.1,5.8-4.1s5.8,1.6,5.8,4.1s-2.4,4.1-5.8,4.1
		C328,249,325.7,247.3,325.7,244.8z M344,260.7v2.2h-17V256h2.7v4.8L344,260.7L344,260.7z M328.2,244.8c0,1.3,1.3,2.2,3.3,2.2
		c1.9,0,3.3-0.8,3.3-2.2s-1.3-2.2-3.3-2.2C329.5,242.7,328.2,243.5,328.2,244.8z M340.8,253.6v-13.8h2.7v17.9h-2.7v-2.2h-4.6v-1.9
		L340.8,253.6L340.8,253.6z"/>
	<path class="st0" d="M362,240.2h2.5v21.9H362v-11.3h-2.5c-0.2,4.6-2.2,7.4-5,7.4c-3,0-5-3.2-5-8.3s2-8.3,5-8.3c2.8,0,4.7,2.7,5,7.1
		h2.5V240.2z M357.1,249.9c0-3.7-1-5.8-2.6-5.8s-2.6,2.1-2.6,5.8s1,5.8,2.6,5.8S357.1,253.7,357.1,249.9z M369.2,239.8v23.5h-2.5
		v-23.5L369.2,239.8L369.2,239.8z"/>
	<path class="st0" d="M386.9,240.4h2.5v21.8h-2.5v-10.9h-4.3c-1.4,2.7-3.6,5.1-6.9,7l-1.5-1.9c4.9-2.9,7.2-6.8,7.6-11.6h-6.5v-2.2
		h9.1c0,2.3-0.3,4.4-1,6.4h3.5L386.9,240.4L386.9,240.4z M394.4,239.8v23.5h-2.6v-23.5L394.4,239.8L394.4,239.8z"/>
	<path class="st0" d="M427.9,251.2v2.2h-21.3v-2.2h15.3c0.3-1.3,0.4-2.4,0.5-3.5l-13.4,0.6l-0.3-2.2l13.9-0.4c0-0.9,0-1.7,0-2.5
		h-13.3V241h15.9v2.1c0,2.3,0,4.8-0.6,8.2h3.3V251.2z M411.9,260.7h13.8v2.2h-16.5v-7.4h2.7V260.7z"/>
	<path class="st0" d="M460.1,255.7h-9.4v7.6H448v-7.6h-9.2v-2.2h21.3L460.1,255.7L460.1,255.7z M457.5,251h-16.1v-10.3h2.7v3h10.7
		v-3h2.7L457.5,251L457.5,251z M454.8,245.8h-10.7v3h10.7V245.8z"/>
	<path class="st0" d="M477.7,251.2c-3,0.6-5.8,0.8-10.8,0.8H465v-10.6h10.4v2.2h-7.7v6.3c4.4,0,7-0.2,9.8-0.8L477.7,251.2z
		 M467.4,254.2h15v8.8h-15V254.2z M470,260.8h9.7v-4.5H470V260.8z M485.7,247.5h-3.3v5.5h-2.7v-13.3h2.7v5.6h3.3V247.5z"/>
	<path class="st0" d="M510.5,249.6v2.1h-21.3v-2.1H510.5z M491.4,244.2c0-2.6,3.1-4.1,8.4-4.1s8.4,1.4,8.4,4.1c0,2.6-3.1,4-8.4,4
		S491.4,246.8,491.4,244.2z M494.4,261h14v2.1h-16.7v-5.9h13.4v-1.7h-13.4v-2h16.1v5.6h-13.4V261z M494.2,244.2c0,1.3,2,2,5.6,2
		s5.6-0.7,5.6-2c0-1.4-2-2.1-5.6-2.1C496.2,242.2,494.2,242.9,494.2,244.2z"/>
	<path class="st0" d="M542.7,255.2h-9.3v8.1h-2.7v-8.1h-9.2V253h21.2V255.2z M522.6,249.2c4.5-0.6,7.8-3.2,7.9-5.9h-7.2v-2.2h17.3
		v2.2h-7.1c0.2,2.7,3.5,5.3,7.9,5.9l-1,2.1c-3.9-0.6-7.1-2.5-8.5-5.1c-1.4,2.6-4.6,4.5-8.5,5.1L522.6,249.2z"/>
	<path class="st0" d="M559.2,240.4h2.5v21.8h-2.5v-10.9h-4.3c-1.4,2.7-3.6,5.1-6.9,7l-1.5-1.9c4.9-2.9,7.2-6.8,7.6-11.6h-6.5v-2.2
		h9.1c0,2.3-0.3,4.4-1,6.4h3.5L559.2,240.4L559.2,240.4z M566.7,239.8v23.5h-2.6v-23.5L566.7,239.8L566.7,239.8z"/>
	<path class="st0" d="M594.1,251.9c-5,0.9-10.6,1-14.8,1l-0.4-2.1c1.9,0,4.1,0,6.4-0.1v-2.2H581v-7.6h11.2v2.2h-8.5v3.3h8.7v2.2H588
		v2.1c2-0.1,4-0.3,5.9-0.5L594.1,251.9z M595.7,254.4h2.7v8.6h-15.6v-8.6h2.7v2.1h10.3v-2.1H595.7z M595.7,258.6h-10.3v2.3h10.3
		V258.6z M598.3,239.8v13.6h-2.7v-13.6H598.3z"/>
	<path class="st0" d="M608.1,255.1c3.3,0,6.8-0.3,10.5-1.1l0.3,2.2c-4,0.8-7.8,1.1-11.5,1.1h-2V242h2.7V255.1z M623.5,239.8v23.5
		h-2.7v-23.5L623.5,239.8L623.5,239.8z"/>
	<path class="st0" d="M632.9,255.3c3.8,0,6.7-0.2,9.9-0.8l0.3,2.2c-3.6,0.7-6.7,0.8-11,0.8h-1.9V242h10.9v2.2h-8.2V255.3z
		 M651.1,251h-3.7v12.3h-2.7v-23.5h2.7v9h3.7V251z"/>
	<path class="st0" d="M655,259.5c0-1.2,0.9-2.1,2-2.1s2,0.9,2,2.1s-0.9,2.1-2,2.1S655,260.8,655,259.5z"/>
	<path class="st0" d="M8.9,292.8c0,3.6,2.3,7.8,5.9,9.5l-1.5,2.1c-2.6-1.2-4.6-3.8-5.7-6.8c-1,3.3-3.1,6.1-5.8,7.4l-1.5-2.1
		c3.6-1.7,6-6.2,6-10.1v-2.3H1.1v-2.2h12.8v2.2h-5C8.9,290.5,8.9,292.8,8.9,292.8z M22.5,297.5h-3.7v12h-2.7V286h2.7v9.3h3.7V297.5z
		"/>
	<path class="st0" d="M34.9,297.3c-1.1,1.3-2.8,2.1-4.7,2c-3.5,0-6.1-2.5-6.1-6s2.7-6,6.1-6c1.9,0,3.6,0.8,4.7,2h5.6V286h2.7v17.3
		h-2.7v-6H34.9z M30.2,297c2,0,3.5-1.5,3.5-3.6s-1.5-3.6-3.5-3.6c-2.1,0-3.6,1.5-3.6,3.6C26.6,295.6,28.1,297,30.2,297z M43.8,306.9
		v2.2H28v-7.5h2.7v5.3H43.8z M36,291.7c0.2,0.5,0.3,1.1,0.3,1.7s-0.1,1.2-0.3,1.7h4.5v-3.5L36,291.7L36,291.7z"/>
	<path class="st0" d="M68,304.3v2.2H46.8v-2.2H68z M66,299.7c-3.8-0.8-7.1-3.2-8.7-6.4c-1.5,3.2-4.8,5.7-8.7,6.4l-1.1-2.2
		c4.6-0.9,8.4-4.5,8.4-8.2v-1.8h2.8v1.8c0,3.7,3.8,7.4,8.4,8.2L66,299.7z"/>
	<path class="st0" d="M73.3,301.8c3.6,0,6.4-0.2,9.6-0.7l0.2,2.2c-3.5,0.6-6.6,0.7-10.7,0.7h-1.8v-9.5h7.9v-4.2h-7.9v-2.2h10.5v8.5
		h-7.9v5.2H73.3z M89.3,285.9v23.6h-2.7V297h-4.1v-2.2h4.1V286h2.7V285.9z"/>
	<path class="st0" d="M114.1,297.7v2.2H105v4.4h-2.7v-4.4h-9.5v-2.2H114.1z M95.1,291.3c0-2.9,3.3-4.8,8.3-4.8s8.3,1.8,8.3,4.8
		c0,2.9-3.3,4.8-8.3,4.8C98.4,296.1,95.1,294.2,95.1,291.3z M98.1,306.9h13.6v2.2H95.4v-6.9h2.7V306.9z M98,291.3
		c0,1.7,2.2,2.6,5.5,2.6s5.5-1,5.5-2.6s-2.2-2.6-5.5-2.6C100.1,288.7,98,289.6,98,291.3z"/>
	<path class="st0" d="M131.2,298.9c-2.1-0.9-3.5-2.4-4.4-4.3c-0.9,2.2-2.4,4-4.6,5l-1.4-2.1c3.1-1.4,4.7-4.4,4.7-7.1v-3h2.6v3
		c0,2.6,1.5,5.3,4.5,6.5L131.2,298.9z M124.8,301.4h15.9v8.1H138v-6h-13.2V301.4z M140.7,286v14.2h-2.5v-6.1h-2.5v6h-2.5v-13.7h2.5
		v5.5h2.5V286H140.7z"/>
	<path class="st0" d="M155.8,287.4c0,6.1-4,10.3-11,12.2l-1-2.1c5.5-1.5,8.7-4.3,9.1-7.9h-8.1v-2.2H155.8z M147.2,300.2h15v8.9h-15
		V300.2z M149.9,307h9.7v-4.7h-9.7V307z M165.5,293.6h-3.3v5.6h-2.7V286h2.7v5.5h3.3V293.6z"/>
	<path class="st0" d="M188.2,295.8v2.1h-21.3v-2.1H188.2z M169.2,290.4c0-2.6,3.1-4.1,8.4-4.1c5.3,0,8.4,1.4,8.4,4.1
		c0,2.6-3.1,4-8.4,4C172.2,294.4,169.2,293,169.2,290.4z M172.1,307.2h14v2.1h-16.7v-5.9h13.4v-1.7h-13.4v-2h16.1v5.6h-13.4
		L172.1,307.2L172.1,307.2z M171.9,290.4c0,1.3,1.9,2,5.6,2c3.6,0,5.6-0.7,5.6-2c0-1.4-2-2.1-5.6-2.1
		C173.9,288.4,171.9,289.1,171.9,290.4z"/>
	<path class="st0" d="M206.7,299.1h-11V288h11V299.1z M204.1,290.2h-5.7v6.8h5.7V290.2z M201.1,306.9h13.1v2.2h-15.8v-7.5h2.7V306.9
		z M216.6,293v2.2h-3.3v8h-2.7V286h2.7v7H216.6z"/>
	<path class="st0" d="M239.2,295.5v2.2H218v-2.2H239.2z M223.2,307.2h14v2.1h-16.7v-6h13.4v-1.8h-13.4v-2.1h16.1v5.8h-13.4
		L223.2,307.2L223.2,307.2z M236.7,293.9h-16v-7.3h15.8v2.2h-13.1v2.9h13.4L236.7,293.9L236.7,293.9z"/>
	<path class="st0" d="M253.4,288.5c0,7-2.8,12.9-10.9,16.8l-1.4-2.1c6.2-3,9.1-7.1,9.5-12.5h-8.4v-2.2L253.4,288.5L253.4,288.5z
		 M260.4,286v23.5h-2.7V286H260.4z"/>
	<path class="st0" d="M284.4,299.7c-2.1,0.4-4.2,0.6-6.3,0.8v8.2h-2.7v-8.1c-2.2,0.1-4.3,0.1-6.1,0.1l-0.3-2.2
		c4.2,0,10.1-0.1,15.2-0.8L284.4,299.7z M270.6,291.9c0-2.9,2.5-4.9,6.1-4.9c3.5,0,6.1,2,6.1,4.9s-2.5,4.9-6.1,4.9
		C273.1,296.9,270.6,294.8,270.6,291.9z M273.2,291.9c0,1.7,1.5,2.7,3.5,2.7c2.1,0,3.5-1.1,3.5-2.7s-1.4-2.7-3.5-2.7
		C274.6,289.2,273.2,290.3,273.2,291.9z M288.4,286v23.5h-2.7V286H288.4z"/>
	<path class="st0" d="M299.1,289.8h4.4v2.2H292v-2.2h4.4v-3.1h2.7V289.8z M302.8,298.8c0,3.2-2.1,5.5-5.1,5.5s-5.1-2.2-5.1-5.5
		s2.1-5.5,5.1-5.5C300.7,293.3,302.8,295.5,302.8,298.8z M300.5,298.8c0-2-1.1-3.3-2.7-3.3s-2.7,1.3-2.7,3.3c0,1.9,1.1,3.2,2.7,3.2
		S300.5,300.7,300.5,298.8z M312,286v23.5h-2.5V298H307v10.5h-2.5v-21.9h2.5v9.2h2.5V286H312z"/>
	<path class="st0" d="M331.8,297.2h-11v-9.7h11V297.2z M324.9,306.7c1.4-0.1,2.8-0.3,4.2-0.8l0.4,2.1c-2.1,0.7-4.2,0.8-6.1,0.8h-1.2
		v-8.9h2.6v6.8H324.9z M329.2,289.6h-5.7v5.4h5.7V289.6z M335.9,300.1h4.6v2h-11.8v-2h4.6v-1.9h2.6L335.9,300.1L335.9,300.1z
		 M339,306.2c0,2-1.8,3.3-4.4,3.3s-4.4-1.3-4.4-3.3s1.8-3.3,4.4-3.3C337.2,302.8,339,304.1,339,306.2z M336.7,306.2
		c0-0.9-0.9-1.5-2.1-1.5s-2.1,0.5-2.1,1.5c0,0.9,0.9,1.5,2.1,1.5C335.8,307.6,336.7,307.1,336.7,306.2z M341.7,291.1v2.2h-3.3v4.5
		h-2.7V286h2.7v5.1H341.7z"/>
	<path class="st0" d="M364.3,298.2v2.2H343v-2.2H364.3z M345.3,291.5c0-3,3.3-4.8,8.4-4.8s8.4,1.8,8.4,4.8s-3.3,4.8-8.4,4.8
		S345.3,294.5,345.3,291.5z M348.4,306.9h13.5v2.2h-16.2v-6.8h2.7V306.9z M348.1,291.5c0,1.7,2.2,2.6,5.6,2.6s5.6-1,5.6-2.6
		s-2.2-2.6-5.6-2.6C350.2,288.9,348.1,289.8,348.1,291.5z"/>
	<path class="st0" d="M377.6,298.6c-3.6,0-6.2-2.3-6.2-5.6c0-3.3,2.7-5.6,6.2-5.6c3.6,0,6.3,2.3,6.3,5.6
		C383.9,296.2,381.2,298.6,377.6,298.6z M377.6,296.3c2.1,0,3.6-1.3,3.6-3.4c0-2-1.5-3.4-3.6-3.4s-3.6,1.3-3.6,3.4
		S375.5,296.3,377.6,296.3z M389.7,305c0,2.8-3,4.5-7.8,4.5s-7.8-1.7-7.8-4.5s3-4.5,7.8-4.5S389.7,302.1,389.7,305z M387,305
		c0-1.6-1.9-2.4-5.2-2.4c-3.3,0-5.2,0.8-5.2,2.4c0,1.5,1.9,2.4,5.2,2.4C385.1,307.3,387,306.5,387,305z M389.4,291.4v2.9h3.3v2.2
		h-3.3v3.3h-2.7V286h2.7v3.2h3.3v2.2L389.4,291.4L389.4,291.4z"/>
	<path class="st0" d="M394.2,302.3c4.2,0,10.1,0,15.1-0.8l0.2,2c-5.2,1-10.8,1-15,1L394.2,302.3z M408.1,293.3
		c0,3.3-2.7,5.6-6.4,5.6s-6.4-2.3-6.4-5.6s2.7-5.6,6.4-5.6S408.1,290,408.1,293.3z M397.9,293.3c0,2,1.6,3.4,3.7,3.4
		c2.2,0,3.8-1.3,3.8-3.4s-1.6-3.4-3.8-3.4C399.5,289.9,397.9,291.2,397.9,293.3z M413.4,286v23.5h-2.7V286H413.4z"/>
	<path class="st0" d="M434,297.7v2h6.6v5.6h-13.4v1.9h14v2.1h-16.7v-5.9H438v-1.7h-13.4v-2h6.7v-2H422v-2.1h21.3v2.1H434z
		 M440.6,294h-15.8v-7.3h15.8V294z M438,288.8h-10.5v3.1H438V288.8z"/>
	<path class="st0" d="M452.2,302.2c2.4-0.1,4.9-0.2,7.2-0.5l0.1,2c-4.8,0.8-10.2,0.9-14.3,0.9l-0.3-2.2c1.4,0,3,0,4.7-0.1v-7.1h2.6
		L452.2,302.2L452.2,302.2z M454.8,299c0.6-3.6,0.7-6.4,0.7-8.3h-9.3v-2.2h11.9v1.6c0,2.1,0,5-0.6,9.2L454.8,299z M466.8,297.9h-3.5
		v11.6h-2.7V286h2.7v9.6h3.5V297.9z"/>
	<path class="st0" d="M494.4,301.2H485v8.3h-2.7v-8.3h-9.2V299h21.2v2.2H494.4z M492.4,296.8c-3.9-0.6-7.1-2.6-8.6-5.3
		c-1.5,2.7-4.8,4.7-8.7,5.3l-1-2.2c4.8-0.7,8.3-3.6,8.3-6.7v-1.2h2.8v1.2c0,3,3.5,6,8.3,6.7L492.4,296.8z"/>
	<path class="st0" d="M508.6,299.2c-2.6-0.9-4.5-2.7-5.5-4.9c-1,2.5-3,4.4-5.7,5.4l-1.4-2.1c3.7-1.2,5.8-4.2,5.8-7.5v-0.4h-5v-2.2
		h12.6v2.2h-4.9v0.4c0,3,2,5.8,5.6,7L508.6,299.2z M499.1,301.3h15.4v8.2h-2.7v-6H499v-2.2H499.1z M517.8,294.2h-3.3v6h-2.7V286h2.7
		v6h3.3V294.2z"/>
	<path class="st0" d="M538.7,286v12.6H536v-5h-4.3c-0.5,2.7-2.9,4.4-6,4.4c-3.5,0-6.1-2.3-6.1-5.5s2.6-5.5,6.1-5.5
		c3.1,0,5.5,1.7,6,4.4h4.3V286H538.7z M529.2,292.5c0-2-1.5-3.3-3.5-3.3c-2.1,0-3.6,1.3-3.6,3.3s1.5,3.3,3.6,3.3
		C527.7,295.8,529.2,294.5,529.2,292.5z M536,299.7h2.7v9.5h-15.3v-9.5h2.7v2.7h10v-2.7H536z M536,304.4h-10v2.6h10V304.4z"/>
	<path class="st0" d="M555.1,296c0,5.1-2.5,8.3-6.1,8.3c-3.5,0-6-3.2-6-8.3c0-5,2.5-8.3,6-8.3C552.6,287.7,555.1,290.9,555.1,296z
		 M545.6,296c0,3.7,1.4,5.9,3.5,5.9s3.5-2.2,3.5-5.9c0-3.6-1.4-5.9-3.5-5.9S545.6,292.3,545.6,296z M561.6,286v23.6h-2.7V286H561.6z
		"/>
	<path class="st0" d="M585,296.6c-4.7,0.8-10,0.9-14.1,0.9l-0.3-2.2c0.9,0,1.8,0,2.8,0v-5.7h-2.1v-2.1h12.6v2.1h-2.1v5.4
		c1.1-0.1,2.1-0.2,3.1-0.3L585,296.6z M590.4,307.2v2.1h-16.3v-6.1H587v-1.9h-12.9v-2.1h15.5v5.9h-12.8v2.1H590.4z M576,295.2
		c1,0,2.2-0.1,3.2-0.1v-5.5H576V295.2z M589.7,298.1H587V286h2.7V298.1z"/>
	<path class="st0" d="M614.6,304.4v2.2h-21.3v-2.2h5v-6.1c-1.9-1-3-2.7-3-4.8c0-3.7,3.6-6.1,8.6-6.1s8.6,2.4,8.6,6.1
		c0,2.1-1.1,3.7-3,4.8v6.1H614.6z M597.9,293.5c0,2.5,2.5,4.1,6,4.1s6-1.6,6-4.1s-2.5-4-6-4C600.3,289.5,597.9,291,597.9,293.5z
		 M600.9,304.4h5.9v-5.1c-0.9,0.2-1.9,0.3-3,0.3s-2.1-0.1-3-0.3L600.9,304.4L600.9,304.4z"/>
	<path class="st0" d="M624.5,289.6h5.5v2.2h-13.8v-2.2h5.6v-3.3h2.7V289.6z M629,298.9c0,3.2-2.5,5.5-5.8,5.5
		c-3.4,0-5.8-2.3-5.8-5.5s2.4-5.5,5.8-5.5C626.5,293.5,629,295.7,629,298.9z M626.4,298.9c0-2-1.4-3.3-3.3-3.3
		c-1.9,0-3.3,1.3-3.3,3.3s1.4,3.3,3.3,3.3C625.1,302.2,626.4,300.9,626.4,298.9z M638.2,297.7h-3.6v11.8h-2.7V286h2.7v9.4h3.6V297.7
		z"/>
	<path class="st0" d="M651.8,288.5c0,7-2.8,12.9-10.9,16.8l-1.4-2.1c6.2-3,9.1-7.1,9.5-12.5h-8.4v-2.2L651.8,288.5L651.8,288.5z
		 M658.7,286v23.5H656V286H658.7z"/>
	<path class="st0" d="M3.7,347.5c0.8,0,1.7-0.2,2.7-0.4l0.2,2.2c-1.8,0.4-3.2,0.4-4.4,0.4h-1V335h5v2.2H3.7V347.5z M9.6,347.5
		c0.9-0.1,2-0.2,3.1-0.4l0.2,2.2c-1.8,0.4-3.4,0.5-4.7,0.5h-1v-14.7h5.1v2.2H9.6V347.5z M21,332.2v23.5h-2.5v-11.9h-2.3v10.8h-2.5
		v-21.9h2.5v8.9h2.3v-9.4H21z"/>
	<path class="st0" d="M46.6,344v2.2h-9.1v4.4h-2.7v-4.4h-9.5V344H46.6z M30.5,353.1h13.7v2.2H27.9v-6.8h2.7v4.6L30.5,353.1
		L30.5,353.1z M43.8,341.7H28v-8.5h15.8V341.7z M41.2,335.4H30.6v4.2h10.6V335.4z"/>
	<path class="st0" d="M62.8,338.7c0,3.2-2.6,5.5-6.2,5.5c-3.6,0-6.2-2.2-6.2-5.5c0-3.2,2.7-5.5,6.2-5.5
		C60.2,333.3,62.8,335.5,62.8,338.7z M53,338.7c0,2,1.5,3.3,3.6,3.3s3.6-1.3,3.6-3.3s-1.5-3.3-3.6-3.3C54.4,335.5,53,336.8,53,338.7
		z M56.5,345.9v2.6h10v-2.6h2.7v9.5H53.9v-9.5H56.5z M56.5,353.2h10v-2.7h-10V353.2z M69.2,332.2v12.6h-2.7v-12.6H69.2z"/>
	<path class="st0" d="M78.5,347.5c3.3,0,6.8-0.3,10.5-1.1l0.3,2.2c-4,0.8-7.8,1.1-11.5,1.1h-2v-15.3h2.7V347.5z M93.9,332.2v23.5
		h-2.7v-23.5H93.9z"/>
	<path class="st0" d="M102.7,347.7c3.8,0,6.7-0.2,9.9-0.8l0.3,2.2c-3.6,0.7-6.7,0.8-11,0.8H100v-15.5h10.9v2.2h-8.2
		C102.7,336.6,102.7,347.7,102.7,347.7z M120.9,343.4h-3.7v12.3h-2.7v-23.5h2.7v9h3.7V343.4z"/>
	<path class="st0" d="M124.2,351.9c0-1.2,0.9-2.1,2-2.1s2,0.9,2,2.1s-0.9,2.1-2,2.1S124.2,353.2,124.2,351.9z"/>
	<path class="st0" d="M159.9,342.1v2.1h-21.3v-2.1H159.9z M143.8,353.4h14v2.1h-16.7v-5.8h13.4V348h-13.4v-2h16.1v5.6h-13.4
		L143.8,353.4L143.8,353.4z M157.1,340.4h-15.8v-7.8h2.7v2h10.5v-2h2.7L157.1,340.4L157.1,340.4z M154.5,336.5H144v1.9h10.5V336.5z"
		/>
	<path class="st0" d="M184.5,348.5h-9.3v7.2h-2.7v-7.2h-9.3v-2.2h21.3V348.5z M179.2,335.2h-13.5V333H182v6.5h-13.5v2.5h14v2.2
		h-16.7v-6.7h13.5v-2.3H179.2z"/>
	<path class="st0" d="M202.6,338c0,4.2,2.2,8.4,5.7,10.2l-1.6,2.1c-2.5-1.3-4.4-3.8-5.4-6.9c-1,3.3-3,6-5.7,7.4l-1.6-2.2
		c3.7-1.8,6-6.2,6-10.6v-3.8h2.7L202.6,338L202.6,338z M216.2,343.7h-3.7v12h-2.7v-23.5h2.7v9.3h3.7V343.7z"/>
	<path class="st0" d="M231.8,342.2c0,5.1-2.5,8.3-6.1,8.3c-3.5,0-6-3.2-6-8.3c0-5,2.5-8.3,6-8.3
		C229.3,333.9,231.8,337.1,231.8,342.2z M222.3,342.2c0,3.7,1.4,5.9,3.5,5.9s3.5-2.2,3.5-5.9c0-3.6-1.4-5.9-3.5-5.9
		C223.7,336.3,222.3,338.5,222.3,342.2z M238.3,332.2v23.6h-2.7v-23.6H238.3z"/>
	<path class="st0" d="M264.7,341.6v2.1h-21.2v-2.1H259c0.2-0.9,0.3-1.7,0.4-2.5l-13.5,0.6l-0.3-2.1l13.9-0.4c0-0.6,0-1.2,0-1.8
		h-13.3v-2.1h15.9v1.9c0,1.8,0,3.9-0.5,6.5h3.1V341.6z M248.6,353.3h14.5v2.1H246v-6h13.7v-1.8H246v-2.1h16.4v5.8h-13.7L248.6,353.3
		L248.6,353.3z"/>
	<path class="st0" d="M289.4,344.4v2.2h-21.2v-2.2H289.4z M270.4,337.7c0-3,3.3-4.8,8.4-4.8s8.4,1.8,8.4,4.8s-3.3,4.8-8.4,4.8
		S270.4,340.7,270.4,337.7z M273.5,353.1H287v2.2h-16.2v-6.8h2.7V353.1z M273.1,337.7c0,1.7,2.2,2.6,5.6,2.6s5.6-1,5.6-2.6
		s-2.2-2.6-5.6-2.6C275.3,335.1,273.1,336,273.1,337.7z"/>
	<path class="st0" d="M312.1,342.2c0,5.1-2.5,8.3-6.1,8.3c-3.5,0-6-3.2-6-8.3c0-5,2.5-8.3,6-8.3
		C309.6,333.9,312.1,337.1,312.1,342.2z M302.6,342.2c0,3.7,1.4,5.9,3.5,5.9s3.5-2.2,3.5-5.9c0-3.6-1.4-5.9-3.5-5.9
		C304,336.3,302.6,338.5,302.6,342.2z M318.6,332.2v23.6h-2.7v-23.6H318.6z"/>
	<path class="st0" d="M327.3,348c3.6,0,6.4-0.2,9.6-0.7l0.2,2.2c-3.5,0.6-6.6,0.7-10.7,0.7h-1.8v-9.5h7.9v-4.2h-7.9v-2.2h10.5v8.5
		h-7.9L327.3,348L327.3,348z M343.3,332.1v23.6h-2.7v-12.5h-4.1V341h4.1v-8.8h2.7V332.1z"/>
	<path class="st0" d="M362.3,337h-13.9v-2.1h5.6v-2.7h2.7v2.7h5.6L362.3,337L362.3,337z M355.4,347c-3.4,0-5.7-1.8-5.7-4.4
		c0-2.7,2.3-4.4,5.7-4.4c3.4,0,5.7,1.8,5.7,4.4S358.8,347,355.4,347z M354.6,353.1h13.1v2.2h-15.8v-6.8h2.7L354.6,353.1L354.6,353.1
		z M355.4,344.9c1.9,0,3.1-0.9,3.1-2.4s-1.3-2.4-3.1-2.4c-1.8,0-3.1,0.9-3.1,2.4S353.5,344.9,355.4,344.9z M370.1,339.7v2.2h-3.3
		v7.9h-2.7v-17.6h2.7v7.5H370.1z"/>
	<path class="st0" d="M386.6,348.4c2.4-0.1,4.9-0.2,7.2-0.5l0.1,2c-4.8,0.8-10.2,0.9-14.3,0.9l-0.3-2.2c1.4,0,3,0,4.7-0.1v-7.1h2.6
		L386.6,348.4L386.6,348.4z M389.2,345.2c0.6-3.6,0.7-6.4,0.7-8.3h-9.3v-2.2h11.9v1.6c0,2.1,0,5-0.7,9.2L389.2,345.2z M401.2,344.1
		h-3.5v11.6H395v-23.5h2.7v9.6h3.5V344.1z"/>
	<path class="st0" d="M416.8,345.4c-2.6-0.9-4.5-2.8-5.5-5c-1,2.6-3,4.7-5.8,5.6l-1.4-2.1c3.6-1.3,5.7-4.4,5.7-7.6V336h-5v-2.2h12.6
		v2.2h-4.9v0.3c0,2.9,2,5.9,5.5,7.1L416.8,345.4z M423.7,351.3c0,2.8-3,4.4-7.9,4.4s-7.9-1.6-7.9-4.4s3-4.4,7.9-4.4
		C420.7,346.8,423.7,348.5,423.7,351.3z M421,351.3c0-1.5-1.9-2.4-5.2-2.4c-3.4,0-5.3,0.8-5.3,2.4s1.9,2.4,5.3,2.4
		C419.1,353.6,421,352.8,421,351.3z M420.9,338.1v-5.9h2.7v14h-2.7v-5.9h-4.2v-2.2H420.9z"/>
	<path class="st0" d="M450,342v2.1h-21.3V342H450z M431,336.6c0-2.6,3.1-4.1,8.4-4.1s8.4,1.4,8.4,4.1c0,2.6-3.1,4-8.4,4
		S431,339.2,431,336.6z M434,353.4h14v2.1h-16.7v-5.9h13.4v-1.7h-13.4v-2h16.1v5.6H434V353.4z M433.8,336.6c0,1.3,2,2,5.6,2
		s5.6-0.7,5.6-2c0-1.4-2-2.1-5.6-2.1C435.7,334.6,433.8,335.3,433.8,336.6z"/>
	<path class="st0" d="M471.8,345.7H461v-12h2.7v3.9h5.5v-3.9h2.6v2.6h4.9v-4.1h2.7v17.3h-2.7v-6h-4.9L471.8,345.7L471.8,345.7z
		 M469.1,339.7h-5.5v3.8h5.5V339.7z M479.9,353.1v2.2H464v-7.4h2.7v5.2L479.9,353.1L479.9,353.1z M471.8,338.5v2.9h4.9v-2.9H471.8z"
		/>
	<path class="st0" d="M493,349.1c2-0.1,4-0.2,5.9-0.5l0.2,2c-5,0.9-10.5,0.9-14.5,0.9l-0.4-2.2c1.8,0,3.9,0,6.1-0.1v-2.3
		c-2.6-0.4-4.3-2-4.3-4.3c0-2.7,2.3-4.4,5.6-4.4c3.3,0,5.6,1.7,5.6,4.4c0,2.2-1.7,3.8-4.3,4.3L493,349.1L493,349.1z M498.6,337.1
		h-14v-2.2h5.7v-2.7h2.7v2.7h5.6L498.6,337.1L498.6,337.1z M491.6,344.9c1.8,0,3.1-0.9,3.1-2.3c0-1.5-1.2-2.3-3.1-2.3
		c-1.8,0-3.1,0.9-3.1,2.3C488.5,344.1,489.8,344.9,491.6,344.9z M506.2,344.2h-3.4v11.5h-2.7v-23.5h2.7v9.8h3.4V344.2z"/>
	<path class="st0" d="M517.7,338c0,4.3,2.4,8.6,6.1,10.3l-1.6,2.1c-2.7-1.3-4.8-3.9-5.8-7c-1.1,3.4-3.1,6.2-6,7.6l-1.6-2.2
		c3.7-1.7,6.2-6.2,6.2-10.7v-3.8h2.7V338z M528.4,332.2v23.6h-2.7v-23.6H528.4z"/>
	<path class="st0" d="M546.3,334.5c0,7-2.2,13.2-10.8,17.5l-1.5-2.1c4.1-2.1,6.7-4.5,8.1-7.4l-7.6,0.7l-0.4-2.3l8.8-0.5
		c0.3-1.1,0.5-2.4,0.7-3.7h-8.2v-2.2H546.3z M553,332.2v23.5h-2.7v-23.5H553z"/>
	<path class="st0" d="M579.6,343.9v2.2h-21.3v-2.2H579.6z M563.5,353h13.7v2.2h-16.4v-6.9h2.7V353z M577.1,341.1H561V333h2.7v5.9
		h13.4L577.1,341.1L577.1,341.1z"/>
	<path class="st0" d="M596.6,338.4c0,4,1.5,7.9,4.7,9.6l-1.6,2.1c-2.2-1.2-3.6-3.4-4.4-6c-0.9,2.9-2.4,5.3-4.6,6.7l-1.7-2
		c3.4-2,5-6.2,5-10.2v-4.3h2.6V338.4z M609.4,332.2v23.5h-2.5v-12h-2.6v10.9h-2.5v-21.9h2.5v8.9h2.6v-9.3h2.5V332.2z"/>
	<path class="st0" d="M635.3,350.7v2.2H614v-2.2h9.3v-4h-6.7v-7.6h13.5V336h-13.6v-2.2h16.2v7.4h-13.5v3.3h14.1v2.2H626v4
		L635.3,350.7L635.3,350.7z"/>
	<path class="st0" d="M659.9,343.9v2.2h-9.1v4.4H648v-4.4h-9.5v-2.2H659.9z M640.9,337.5c0-2.9,3.3-4.8,8.3-4.8s8.3,1.8,8.3,4.8
		c0,2.9-3.3,4.8-8.3,4.8C644.1,342.3,640.9,340.4,640.9,337.5z M643.9,353.1h13.6v2.2h-16.3v-6.9h2.7V353.1z M643.7,337.5
		c0,1.7,2.2,2.6,5.5,2.6s5.5-1,5.5-2.6s-2.2-2.6-5.5-2.6S643.7,335.8,643.7,337.5z"/>
	<path class="st0" d="M13.2,380.9c0,7-2.8,12.9-10.9,16.8l-1.4-2.1c6.2-3,9.1-7.1,9.5-12.5H2v-2.2L13.2,380.9L13.2,380.9z
		 M20.1,378.4v23.5h-2.7v-23.5H20.1z"/>
	<path class="st0" d="M35.5,390v2h6.6v5.7H28.7v1.9h14v2.1H26.1v-5.9h13.4v-1.7H26v-2h6.7v-2h-9.3V388h21.3v2.1h-9.2V390z
		 M42.7,386.6c-3.9-0.5-7.1-2.1-8.6-4.4c-1.5,2.3-4.7,4-8.6,4.4l-0.9-2.1c4.7-0.5,8.1-2.8,8.1-5.4v-0.7h2.8v0.7
		c0,2.6,3.4,4.9,8.1,5.4L42.7,386.6z"/>
	<path class="st0" d="M59.3,384.9c0,3.2-2.6,5.5-6.2,5.5c-3.6,0-6.2-2.2-6.2-5.5c0-3.2,2.7-5.5,6.2-5.5
		C56.6,379.5,59.3,381.7,59.3,384.9z M49.4,384.9c0,2,1.5,3.3,3.6,3.3s3.6-1.3,3.6-3.3s-1.5-3.3-3.6-3.3
		C50.9,381.7,49.4,383,49.4,384.9z M53,392.1v2.6h10v-2.6h2.7v9.5H50.4v-9.5H53z M53,399.4h10v-2.7H53V399.4z M65.7,378.4V391H63
		v-12.6H65.7z"/>
	<path class="st0" d="M73.2,393.7c3.3,0,6.8-0.3,10.5-1.1l0.3,2.2c-4,0.8-7.8,1.1-11.5,1.1h-2v-15.3h2.7V393.7z M88.6,378.4v23.5
		h-2.7v-23.5H88.6z"/>
	<path class="st0" d="M95.6,393.9c3.8,0,6.7-0.2,9.9-0.8l0.3,2.2c-3.6,0.7-6.7,0.8-11,0.8h-1.9v-15.5h10.9v2.2h-8.2
		C95.6,382.8,95.6,393.9,95.6,393.9z M113.9,389.6h-3.7v12.3h-2.7v-23.5h2.7v9h3.7V389.6z"/>
	<path class="st0" d="M115.4,398.1c0-1.2,0.9-2.1,2-2.1s2,0.9,2,2.1s-0.9,2.1-2,2.1S115.4,399.4,115.4,398.1z"/>
	<path class="st0" d="M147.5,388.3v2.1h-21.3v-2.1H147.5z M131.5,399.6h14v2.1h-16.7v-5.8h13.4v-1.7h-13.4v-2h16.1v5.6h-13.4
		L131.5,399.6L131.5,399.6z M144.7,386.6H129v-7.8h2.7v2h10.5v-2h2.7v7.8H144.7z M142.1,382.7h-10.5v1.9h10.5V382.7z"/>
	<path class="st0" d="M170.3,394.7H161v7.2h-2.7v-7.2H149v-2.2h21.3V394.7z M165.1,381.4h-13.5v-2.2h16.3v6.5h-13.5v2.5h14v2.2
		h-16.7v-6.7h13.5v-2.3H165.1z"/>
	<path class="st0" d="M184.9,384.2c0,4.2,2.2,8.4,5.7,10.2l-1.6,2.1c-2.5-1.3-4.4-3.8-5.4-6.9c-1,3.3-3,6-5.7,7.4l-1.6-2.2
		c3.7-1.8,6-6.2,6-10.6v-3.8h2.7L184.9,384.2L184.9,384.2z M198.5,389.9h-3.7v12h-2.7v-23.5h2.7v9.3h3.7V389.9z"/>
	<path class="st0" d="M212.4,388.4c0,5.1-2.5,8.3-6.1,8.3c-3.5,0-6-3.2-6-8.3c0-5,2.5-8.3,6-8.3
		C209.8,380.1,212.4,383.3,212.4,388.4z M202.8,388.4c0,3.7,1.4,5.9,3.5,5.9s3.5-2.2,3.5-5.9c0-3.6-1.4-5.9-3.5-5.9
		C204.3,382.5,202.8,384.7,202.8,388.4z M218.8,378.4V402h-2.7v-23.6H218.8z"/>
	<path class="st0" d="M243.5,387.8v2.1h-21.2v-2.1h15.4c0.2-0.9,0.3-1.7,0.4-2.5l-13.5,0.6l-0.3-2.1l13.9-0.4c0-0.7,0-1.2,0-1.8H225
		v-2.1h15.9v1.9c0,1.8,0,3.9-0.5,6.5h3.1V387.8z M227.4,399.5h14.5v2.1h-17.1v-6h13.7v-1.8h-13.7v-2.1h16.4v5.8h-13.7L227.4,399.5
		L227.4,399.5z"/>
	<path class="st0" d="M266.4,390.6v2.2h-21.2v-2.2H266.4z M247.4,383.9c0-3,3.3-4.8,8.4-4.8c5.1,0,8.4,1.8,8.4,4.8s-3.3,4.8-8.4,4.8
		C250.7,388.7,247.4,386.9,247.4,383.9z M250.5,399.3H264v2.2h-16.2v-6.8h2.7V399.3z M250.1,383.9c0,1.7,2.2,2.6,5.6,2.6
		c3.4,0,5.6-1,5.6-2.6s-2.2-2.6-5.6-2.6C252.3,381.3,250.1,382.2,250.1,383.9z"/>
	<path class="st0" d="M285.9,392.4c-2.7-0.9-4.7-2.7-5.7-5c-1,2.5-3,4.5-5.8,5.4l-1.4-2.1c3.7-1.2,5.8-4.3,5.8-7.5v-0.9h-5.1v-2.2
		h12.8v2.2h-5v0.9c0,3,2.1,5.9,5.7,7L285.9,392.4z M292.8,399.3v2.2h-16V394h2.7v5.3H292.8z M292.1,395.5h-2.7v-17.1h2.7V395.5z"/>
	<path class="st0" d="M307.4,384.8c0,4,1.5,8.1,4.8,10l-1.6,2c-2.2-1.3-3.7-3.6-4.5-6.3c-0.8,3-2.3,5.5-4.6,6.9l-1.6-2
		c3.3-2.1,4.9-6.3,4.9-10.5v-1.7h-4.1V381h10.6v2.2h-3.9L307.4,384.8L307.4,384.8z M313.1,378.8h2.5v21.9h-2.5v-11.9h-3.5v-2.2h3.5
		V378.8z M320.3,378.4v23.5h-2.5v-23.5H320.3z"/>
	<path class="st0" d="M335.6,391.6c-2.6-0.9-4.5-2.7-5.5-4.9c-1,2.5-3,4.4-5.7,5.4L323,390c3.7-1.2,5.8-4.2,5.8-7.5v-0.4h-5v-2.2
		h12.6v2.2h-4.9v0.4c0,3,2,5.8,5.6,7L335.6,391.6z M326,393.7h15.4v8.2h-2.7v-6H326V393.7z M344.8,386.6h-3.3v6h-2.7v-14.2h2.7v6
		h3.3V386.6z"/>
	<path class="st0" d="M346.1,394.7c4.2,0,10.1,0,15.1-0.8l0.2,2c-5.2,1-10.8,1-15,1L346.1,394.7z M359.9,385.7
		c0,3.3-2.7,5.6-6.4,5.6s-6.4-2.3-6.4-5.6s2.7-5.6,6.4-5.6S359.9,382.4,359.9,385.7z M349.8,385.7c0,2,1.6,3.4,3.7,3.4
		c2.2,0,3.8-1.3,3.8-3.4s-1.6-3.4-3.8-3.4C351.4,382.3,349.8,383.6,349.8,385.7z M365.3,378.4v23.5h-2.7v-23.5H365.3z"/>
	<path class="st0" d="M374.4,380.7h11V396h-11V380.7z M377,393.9h5.7v-11.1H377V393.9z M395.4,389.8h-3.7v12.1H389v-23.5h2.7v9.2
		h3.7L395.4,389.8L395.4,389.8z"/>
	<path class="st0" d="M417.7,394h-9.4v7.9h-2.7V394h-9.2v-2.2h21.3L417.7,394L417.7,394z M415,388.9h-16v-9.3h16V388.9z
		 M412.4,381.8h-10.7v5h10.7V381.8z"/>
	<path class="st0" d="M423.3,394.1c3.7,0,7-0.2,10.7-0.8l0.3,2.2c-4,0.7-7.5,0.8-11.7,0.8h-2V387h8.2v-4.4h-8.2v-2.2h10.9v8.7h-8.2
		L423.3,394.1L423.3,394.1z M438.6,378.3v23.6h-2.7v-23.6H438.6z"/>
	<path class="st0" d="M458.8,380.9c0,6.8-2.9,12.8-10.6,16.7l-1.5-2.1c5.7-2.9,8.8-7.1,9.4-12.5H448v-2.2h10.8V380.9z M468.5,389.9
		H465v12h-2.7v-23.5h2.7v9.3h3.6v2.2H468.5z"/>
	<path class="st0" d="M490.8,389.1v2.2h-21.2v-2.2h8.3v-4.3h2.7v4.3H490.8z M488.4,397.5c0,2.7-3.2,4.4-8.2,4.4
		c-5.1,0-8.3-1.7-8.3-4.4c0-2.7,3.2-4.4,8.3-4.4C485.2,393.1,488.4,394.8,488.4,397.5z M484.9,387.4c0.6-2.3,0.6-4,0.6-5.8H472v-2.2
		h16.1v2c0,1.9,0,3.8-0.7,6.2L484.9,387.4z M485.7,397.5c0-1.5-2.1-2.3-5.5-2.3c-3.5,0-5.6,0.9-5.6,2.3c0,1.5,2.1,2.3,5.6,2.3
		C483.6,399.8,485.7,399,485.7,397.5z"/>
	<path class="st0" d="M518.4,389.1v2.2h-21.2v-2.2h8.3v-4.3h2.7v4.3H518.4z M516,397.5c0,2.7-3.2,4.4-8.2,4.4
		c-5.1,0-8.3-1.7-8.3-4.4c0-2.7,3.2-4.4,8.3-4.4C512.7,393.1,516,394.8,516,397.5z M512.5,387.4c0.6-2.3,0.6-4,0.6-5.8h-13.5v-2.2
		h16.1v2c0,1.9,0,3.8-0.7,6.2L512.5,387.4z M513.3,397.5c0-1.5-2.1-2.3-5.5-2.3c-3.5,0-5.6,0.9-5.6,2.3c0,1.5,2.1,2.3,5.6,2.3
		C511.2,399.8,513.3,399,513.3,397.5z"/>
	<path class="st0" d="M532.7,391.6c-2.6-0.9-4.5-2.8-5.5-5c-1,2.6-3,4.7-5.8,5.6l-1.4-2.1c3.6-1.3,5.7-4.4,5.7-7.6v-0.3h-5V380h12.6
		v2.2h-4.9v0.3c0,2.9,2,5.9,5.5,7.1L532.7,391.6z M539.6,397.5c0,2.8-3,4.4-7.9,4.4s-7.9-1.6-7.9-4.4s3-4.4,7.9-4.4
		C536.6,393,539.6,394.7,539.6,397.5z M536.9,397.5c0-1.5-1.9-2.4-5.2-2.4c-3.4,0-5.3,0.8-5.3,2.4s1.9,2.4,5.3,2.4
		C535,399.8,536.9,399,536.9,397.5z M536.8,384.3v-5.9h2.7v14h-2.7v-5.9h-4.2v-2.2H536.8z"/>
	<path class="st0" d="M555.7,378.8h2.5v21.9h-2.5v-11.3h-2.5c-0.2,4.6-2.2,7.4-5,7.4c-3,0-5-3.2-5-8.3c0-5.1,2-8.3,5-8.3
		c2.8,0,4.7,2.7,5,7.1h2.5V378.8z M550.8,388.5c0-3.7-1-5.8-2.6-5.8s-2.6,2.1-2.6,5.8c0,3.7,1,5.8,2.6,5.8
		C549.8,394.4,550.8,392.3,550.8,388.5z M562.9,378.4v23.5h-2.5v-23.5H562.9z"/>
	<path class="st0" d="M578.7,384.2c0,4.2,2.2,8.4,5.7,10.2l-1.6,2.1c-2.5-1.3-4.4-3.8-5.4-6.9c-1,3.3-3,6-5.7,7.4l-1.6-2.2
		c3.7-1.8,6-6.2,6-10.6v-3.8h2.7v3.8H578.7z M592.3,389.9h-3.7v12H586v-23.5h2.7v9.3h3.7v2.2H592.3z"/>
	<path class="st0" d="M614.5,389.8v2.1h-21.2v-2.1h5v-3.1c-1.8-0.8-2.8-2-2.8-3.5c0-2.8,3.2-4.4,8.4-4.4c5.1,0,8.4,1.7,8.4,4.4
		c0,1.5-1,2.7-2.8,3.5v3.1H614.5z M611.9,397.7c0,2.7-3,4.2-8.1,4.2c-5,0-8.1-1.5-8.1-4.2s3-4.2,8.1-4.2S611.9,395,611.9,397.7z
		 M598.3,383.2c0,1.5,2.1,2.4,5.6,2.4s5.6-0.9,5.6-2.4s-2.1-2.3-5.6-2.3C600.4,380.9,598.3,381.7,598.3,383.2z M609.2,397.7
		c0-1.4-2-2.2-5.4-2.2s-5.4,0.8-5.4,2.2c0,1.4,1.9,2.2,5.4,2.2C607.3,399.8,609.2,399.1,609.2,397.7z M601,389.8h5.8v-2.4
		c-0.9,0.1-1.8,0.2-2.9,0.2s-2.1-0.1-2.9-0.2L601,389.8L601,389.8z"/>
	<path class="st0" d="M625.2,394.6c2.1-0.1,4.2-0.2,6.1-0.4l0.2,2c-5.1,0.8-10.5,0.9-15,0.9l-0.3-2.2c2,0,4.1,0,6.3-0.1v-4.3h-4.7
		v-9.9h12v2.2h-9.3v5.5h9.4v2.2h-4.8L625.2,394.6L625.2,394.6z M635.4,378.3v23.6h-2.7v-23.6H635.4z"/>
	<path class="st0" d="M660.2,390.1v2.2h-21.3v-2.2H660.2z M644.2,399.2h13.7v2.2h-16.4v-6.9h2.7V399.2z M657.8,387.3h-16.1v-8.1h2.7
		v5.9h13.4L657.8,387.3L657.8,387.3z"/>
	<path class="st0" d="M12.6,436.4v2h6.6v5.6H5.9v1.9h14v2.1H3.2v-6h13.4v-1.7H3.2v-2h6.7v-2H0.7v-2.1H22v2.1h-9.4V436.4z
		 M19.2,432.6H3.4v-7.3h15.8V432.6z M16.6,427.4H6v3.1h10.5v-3.1H16.6z"/>
	<path class="st0" d="M24.5,440.9c4.2,0,10.1,0,15.1-0.8l0.2,1.9c-5.2,1-10.8,1-15,1L24.5,440.9z M38.3,431.9c0,3.3-2.7,5.6-6.4,5.6
		s-6.4-2.3-6.4-5.6s2.7-5.6,6.4-5.6S38.3,428.6,38.3,431.9z M28.2,431.9c0,2,1.6,3.4,3.7,3.4c2.2,0,3.8-1.3,3.8-3.4
		s-1.6-3.4-3.8-3.4C29.8,428.5,28.2,429.8,28.2,431.9z M43.7,424.6v23.5H41v-23.5H43.7z"/>
	<path class="st0" d="M60.1,437.2c-3.6,0-6.2-2.3-6.2-5.6c0-3.3,2.7-5.6,6.2-5.6c3.6,0,6.3,2.3,6.3,5.6
		C66.4,434.8,63.7,437.2,60.1,437.2z M60.1,434.9c2.1,0,3.6-1.3,3.6-3.4c0-2-1.5-3.4-3.6-3.4s-3.6,1.3-3.6,3.4
		S58.1,434.9,60.1,434.9z M72.2,443.6c0,2.8-3,4.5-7.8,4.5s-7.8-1.7-7.8-4.5s3-4.5,7.8-4.5S72.2,440.7,72.2,443.6z M69.5,443.6
		c0-1.6-1.9-2.4-5.2-2.4c-3.3,0-5.2,0.8-5.2,2.4c0,1.5,1.9,2.4,5.2,2.4C67.7,445.9,69.5,445.1,69.5,443.6z M71.9,430v2.9h3.3v2.2
		h-3.3v3.3h-2.7v-13.8h2.7v3.2h3.3v2.2L71.9,430L71.9,430z"/>
	<path class="st0" d="M98.5,434.4v2.1H77.2v-2.1H98.5z M79.5,429c0-2.6,3.1-4.1,8.4-4.1s8.4,1.4,8.4,4.1c0,2.6-3.1,4-8.4,4
		S79.5,431.6,79.5,429z M82.5,445.8h14v2.1H79.8V442h13.4v-1.7H79.8v-2h16.1v5.6H82.5V445.8z M82.3,429c0,1.3,1.9,2,5.6,2
		c3.6,0,5.6-0.7,5.6-2c0-1.4-2-2.1-5.6-2.1C84.2,427,82.3,427.7,82.3,429z"/>
	<path class="st0" d="M115.6,441.1c2.1-0.1,4.1-0.3,6.1-0.6l0.2,2c-5.2,1-10.8,1.1-15,1.1l-0.3-2.2c1.8,0,4.1,0,6.3-0.1v-4h2.7
		C115.6,437.3,115.6,441.1,115.6,441.1z M107.2,435.8c3.5-1,5.5-3.4,5.7-6.2h-5.1v-2.2h5.1v-2.7h2.7v2.7h5.1v2.2h-5.1
		c0.2,2.7,2.2,5,5.7,5.9l-1.2,2.1c-2.8-0.8-4.8-2.4-5.8-4.6c-1,2.3-3,4-5.8,4.8L107.2,435.8z M125.8,424.6v23.6h-2.7v-23.6H125.8z"
		/>
	<path class="st0" d="M133.6,440.3c2.7,0,4.8-0.2,7.3-0.7l0.2,2.2c-2.8,0.5-5.3,0.7-8.6,0.7H131v-15.1h8.7v2.2h-6.1L133.6,440.3
		L133.6,440.3z M150.2,424.6v23.5h-2.5v-12h-2.8V447h-2.5v-21.8h2.5v8.8h2.8v-9.3h2.5V424.6z"/>
	<path class="st0" d="M161.1,442.5c0.8,0.9,1.9,1.4,3.1,1.4c2.3,0,4.3-1.9,4.5-7.3c-1.1,1.4-2.8,2.2-4.2,2.2c-3.2,0-5.4-2-5.4-6
		c0-3.8,2.6-6.3,5.7-6.3c3.7,0,6.6,3,6.6,9.3c0,7.5-3.4,10.6-7.1,10.6c-2.2,0-3.8-0.9-4.9-2L161.1,442.5z M168.7,434.4
		c-0.3-3.8-1.7-5.5-3.8-5.5c-1.6,0-2.9,1.5-2.9,4c0,2.4,1.1,3.8,3.1,3.8C166.3,436.7,167.6,436,168.7,434.4z"/>
	<path class="st0" d="M175.7,442.5c0.8,0.9,1.9,1.4,3.1,1.4c2.3,0,4.3-1.9,4.5-7.3c-1.1,1.4-2.8,2.2-4.2,2.2c-3.2,0-5.4-2-5.4-6
		c0-3.8,2.6-6.3,5.7-6.3c3.7,0,6.6,3,6.6,9.3c0,7.5-3.4,10.6-7.1,10.6c-2.2,0-3.8-0.9-4.9-2L175.7,442.5z M183.3,434.4
		c-0.3-3.8-1.7-5.5-3.8-5.5c-1.6,0-2.9,1.5-2.9,4c0,2.4,1.1,3.8,3.1,3.8C180.8,436.7,182.2,436,183.3,434.4z"/>
	<path class="st0" d="M188.2,432.6c0-3.8,1.8-6,4.5-6s4.5,2.2,4.5,6s-1.8,6.1-4.5,6.1S188.2,436.5,188.2,432.6z M194.9,432.6
		c0-3-1-4.3-2.3-4.3s-2.3,1.3-2.3,4.3c0,2.9,1,4.3,2.3,4.3C194,436.9,194.9,435.5,194.9,432.6z M203.7,426.6h1.9l-10.5,19.8h-1.9
		L203.7,426.6z M201.7,440.4c0-3.8,1.8-6,4.5-6s4.5,2.2,4.5,6s-1.8,6.1-4.5,6.1C203.6,446.4,201.7,444.2,201.7,440.4z M208.5,440.4
		c0-3-1-4.3-2.3-4.3c-1.4,0-2.3,1.3-2.3,4.3c0,2.9,1,4.3,2.3,4.3C207.6,444.7,208.5,443.3,208.5,440.4z"/>
	<path class="st0" d="M214.2,433.4l1.7-2.8l-2.9-1.2l0.5-1.6l3.1,0.8l0.3-3.3h1.7l0.3,3.3l3.1-0.7l0.5,1.6l-2.9,1.2l1.7,2.8l-1.4,1
		l-2.2-2.5l-2.2,2.5L214.2,433.4z"/>
	<path class="st0" d="M243.2,436.5c-2.6-0.8-4.5-2.5-5.6-4.6c-1,2.3-3,4.3-5.8,5.1l-1.3-2.1c3.6-1.2,5.7-4.1,5.7-6.9v-0.2h-4.9v-2.2
		h12.6v2.2H239v0.3c0,2.7,2,5.3,5.5,6.3L243.2,436.5z M250.8,445.7v2.1h-16v-6.2h12.6v-1.9h-12.6v-2.1h15.3v6h-12.6v2.1H250.8z
		 M247.4,429.6v-5h2.7v12h-2.7v-4.8h-4.1v-2.2H247.4z"/>
	<path class="st0" d="M266.2,426c0,6.1-4,10.3-11,12.2l-1-2.1c5.5-1.5,8.7-4.3,9.1-7.9h-8.1V426H266.2z M257.6,438.8h15v8.9h-15
		V438.8z M260.3,445.6h9.7V441h-9.7V445.6z M275.9,432.2h-3.3v5.6h-2.7v-13.3h2.7v5.5h3.3V432.2z"/>
	<path class="st0" d="M291.8,429H278v-2.2h5.6v-2.4h2.7v2.4h5.6v2.2H291.8z M284.9,438.1c-3.4,0-5.7-1.7-5.7-4.2s2.3-4.1,5.7-4.1
		c3.4,0,5.7,1.7,5.7,4.1C290.6,436.5,288.3,438.1,284.9,438.1z M293.6,439.3h2.7v8.5h-15v-8.5h2.7v2.2h9.7v-2.2H293.6z M284.9,436.1
		c1.9,0,3.1-0.8,3.1-2.2c0-1.3-1.3-2.1-3.1-2.1s-3.1,0.8-3.1,2.1C281.8,435.3,283,436.1,284.9,436.1z M293.6,443.5h-9.7v2.2h9.7
		V443.5z M299.6,432.7h-3.3v5.6h-2.7v-13.7h2.7v5.8h3.3V432.7z"/>
	<path class="st0" d="M305.6,439.9c3.3,0,6.8-0.3,10.5-1.1l0.3,2.2c-4,0.8-7.8,1.1-11.5,1.1h-2v-15.3h2.7V439.9z M321,424.6v23.5
		h-2.7v-23.5H321z"/>
	<path class="st0" d="M328.9,440.1c3.8,0,6.7-0.2,9.9-0.8l0.3,2.2c-3.6,0.7-6.7,0.8-11,0.8h-1.9v-15.5h10.9v2.2h-8.2L328.9,440.1
		L328.9,440.1z M347.1,435.8h-3.7v12.3h-2.7v-23.5h2.7v9h3.7V435.8z"/>
	<path class="st0" d="M349.5,444.3c0-1.2,0.9-2.1,2-2.1s2,0.9,2,2.1s-0.9,2.1-2,2.1S349.5,445.6,349.5,444.3z"/>
	<path class="st0" d="M370.2,430.4c0,4.2,2.2,8.4,5.7,10.2l-1.6,2.1c-2.5-1.3-4.4-3.8-5.4-6.9c-1,3.3-3,6-5.7,7.4l-1.6-2.2
		c3.7-1.8,6-6.2,6-10.6v-3.8h2.7v3.8H370.2z M383.8,436.1h-3.7v12h-2.7v-23.5h2.7v9.3h3.7V436.1z"/>
	<path class="st0" d="M399.6,436.8c-3.5,0.6-6.6,0.8-11.1,0.8h-1.9v-7h8V428h-8v-2.2h10.7v6.8h-8v2.8c4,0,6.9-0.2,10.1-0.8
		L399.6,436.8z M389,439.7h15v8.1h-15V439.7z M391.6,445.7h9.8v-3.9h-9.8V445.7z M407.3,432.6H404v6h-2.7v-14h2.7v5.8h3.3V432.6z"/>
	<path class="st0" d="M422.2,434.6c0,5.1-2.5,8.3-6.1,8.3c-3.5,0-6-3.2-6-8.3c0-5,2.5-8.3,6-8.3
		C419.6,426.3,422.2,429.5,422.2,434.6z M412.7,434.6c0,3.7,1.4,5.9,3.5,5.9s3.5-2.2,3.5-5.9c0-3.6-1.4-5.9-3.5-5.9
		S412.7,430.9,412.7,434.6z M428.6,424.6v23.6h-2.7v-23.6H428.6z"/>
	<path class="st0" d="M446.8,430.4c0,4.2,2.2,8.4,5.7,10.2l-1.6,2.1c-2.5-1.3-4.4-3.8-5.4-6.9c-1,3.3-3,6-5.7,7.4l-1.6-2.2
		c3.7-1.8,6-6.2,6-10.6v-3.8h2.7v3.8H446.8z M460.4,436.1h-3.7v12H454v-23.5h2.7v9.3h3.7L460.4,436.1L460.4,436.1z"/>
	<path class="st0" d="M483.5,443.1v2.2h-21.3v-2.2h9.3v-4.8H464v-2.2h3.4v-7.2H464v-2.2h17.7v2.2h-3.5v7.2h3.4v2.2h-7.4v4.8H483.5z
		 M470.1,436.1h5.4v-7.2h-5.4V436.1z"/>
	<path class="st0" d="M507.2,443.1v2.2h-21.3v-2.2h9.3v-4h-6.7v-7.6H502v-3.1h-13.6v-2.2h16.2v7.4h-13.5v3.3h14.1v2.2h-7.3v4
		L507.2,443.1L507.2,443.1z"/>
	<path class="st0" d="M536.4,436.4v2.2h-9.1v4.4h-2.7v-4.4h-9.5v-2.2H536.4z M520.4,445.5H534v2.2h-16.3v-6.8h2.7V445.5z
		 M533.6,434.1h-15.8v-8.5h15.8V434.1z M531,427.8h-10.6v4.2H531V427.8z"/>
	<path class="st0" d="M552.1,436.4c-2.8-0.8-4.8-2.5-5.9-4.7c-1,2.4-3.1,4.3-6,5.2l-1.3-2.1c3.6-1.1,5.8-3.9,5.8-6.8h-5.1v-2.2h12.8
		v2.2h-5c0.1,2.7,2.2,5.3,5.7,6.3L552.1,436.4z M558.8,445.8v2.1h-16v-6.1h12.7v-2h-12.7v-2h15.4v5.9h-12.7v2.1H558.8z M558.1,436.7
		h-2.7v-12.1h2.7V436.7z"/>
	<path class="st0" d="M565.9,440.4c3.6,0,6.4-0.2,9.6-0.7l0.2,2.2c-3.5,0.6-6.6,0.7-10.7,0.7h-1.8V433h7.9v-4.2h-7.9v-2.2h10.5v8.5
		h-7.9v5.3L565.9,440.4L565.9,440.4z M581.9,424.5v23.6h-2.7v-12.5h-4.1v-2.2h4.1v-8.8h2.7V424.5z"/>
	<path class="st0" d="M603.5,437.7h-11v-11.1h11V437.7z M600.9,428.8h-5.7v6.8h5.7V428.8z M597.9,445.5H611v2.2h-15.8v-7.5h2.7
		V445.5z M613.4,431.6v2.2H610v8h-2.7v-17.2h2.7v7H613.4z"/>
	<path class="st0" d="M636.7,442.9v2.2h-21.3v-2.2H636.7z M634.2,437.8H618v-11.2h16.1v2.2h-13.4v6.8h13.6L634.2,437.8L634.2,437.8z
		"/>
	<path class="st0" d="M660.3,436.3v2.2H639v-2.2H660.3z M644.3,445.4H658v2.2h-16.4v-6.9h2.7V445.4z M657.9,433.5h-16.1v-8.1h2.7
		v5.9h13.4L657.9,433.5L657.9,433.5z"/>
	<path class="st0" d="M13.1,484.2H1.9v-11.8h2.7v3.7h5.9v-3.7h2.7L13.1,484.2L13.1,484.2z M10.4,478.2H4.5v3.8h5.9V478.2z
		 M20.6,491.6v2.2h-16v-7.4h2.7v5.3h13.3V491.6z M20,488.1h-2.7v-17.3H20V488.1z"/>
	<path class="st0" d="M28.6,486.6c3.9,0,6.8-0.2,10.2-0.7l0.3,2.2c-3.7,0.6-6.9,0.7-11.2,0.7h-2v-16h11.6v2.2h-8.9v4.4h8v2.2h-8
		C28.6,481.6,28.6,486.6,28.6,486.6z M43.9,470.8v23.5h-2.7v-23.5H43.9z"/>
	<path class="st0" d="M57.1,477.6c0,3.9,2.4,8,6.1,9.5l-1.5,2.1c-2.7-1.2-4.8-3.7-5.9-6.8c-1,3.3-3.1,6.1-5.9,7.4l-1.5-2.1
		c3.6-1.7,6.1-6.1,6.1-10.1v-2.2h-5.2v-2.2h13.2v2.2h-5.2v2.2H57.1z M67.8,470.8v23.5h-2.7v-23.5H67.8z"/>
	<path class="st0" d="M90.1,473.3c0,6.8-2.9,12.8-10.6,16.7l-1.5-2.1c5.7-2.9,8.8-7.1,9.4-12.5h-8.2v-2.2h10.9
		C90.1,473.2,90.1,473.3,90.1,473.3z M99.8,482.3h-3.6v12h-2.7v-23.5h2.7v9.3h3.6V482.3z"/>
	<path class="st0" d="M123.2,481.5v2.2H102v-2.2h8.3v-4.3h2.7v4.3H123.2z M120.7,489.9c0,2.7-3.2,4.4-8.2,4.4
		c-5.1,0-8.3-1.7-8.3-4.4c0-2.7,3.2-4.4,8.3-4.4C117.5,485.5,120.7,487.2,120.7,489.9z M117.3,479.8c0.6-2.3,0.6-4,0.6-5.8h-13.5
		v-2.2h16.1v2c0,1.9,0,3.8-0.7,6.2L117.3,479.8z M118,489.9c0-1.5-2.1-2.3-5.5-2.3c-3.5,0-5.6,0.9-5.6,2.3c0,1.5,2.1,2.3,5.6,2.3
		C116,492.2,118,491.4,118,489.9z"/>
	<path class="st0" d="M147.1,483v2.2h-21.2V483H147.1z M128.1,476.3c0-3,3.3-4.8,8.4-4.8s8.4,1.8,8.4,4.8s-3.3,4.8-8.4,4.8
		S128.1,479.3,128.1,476.3z M131.2,491.6h13.5v2.2h-16.2V487h2.7V491.6z M130.8,476.3c0,1.7,2.2,2.6,5.6,2.6c3.4,0,5.6-1,5.6-2.6
		s-2.2-2.6-5.6-2.6C133,473.7,130.8,474.6,130.8,476.3z"/>
	<path class="st0" d="M158.8,486.4c2.5,0,4.8-0.2,7.5-0.6l0.2,2.2c-3.2,0.5-5.8,0.6-8.7,0.6h-1.6v-9h5.7v-4.2h-5.8v-2.2h8.3v8.5
		h-5.7v4.7H158.8z M168.2,471.3h2.5v21.8h-2.5v-11.9h-2.7V479h2.7V471.3z M175.5,470.8v23.5H173v-23.5H175.5z"/>
	<path class="st0" d="M192.2,480.8c0,5.1-2.5,8.3-6.1,8.3c-3.5,0-6-3.2-6-8.3c0-5,2.5-8.3,6-8.3
		C189.7,472.5,192.2,475.7,192.2,480.8z M182.7,480.8c0,3.7,1.4,5.9,3.5,5.9s3.5-2.2,3.5-5.9c0-3.6-1.4-5.9-3.5-5.9
		C184.2,474.9,182.7,477.1,182.7,480.8z M198.7,470.8v23.6H196v-23.6H198.7z"/>
	<path class="st0" d="M211.7,477.2c0,4,2.3,8.3,6,10l-1.6,2.1c-2.7-1.3-4.7-4-5.7-7.1c-1,3.3-3.1,6.2-5.8,7.6l-1.6-2.1
		c3.6-1.7,6-6.2,6-10.5v-1.9h-5.1v-2.2h12.9v2.2h-5.1L211.7,477.2L211.7,477.2z M222.7,470.8v23.5H220v-12.9h-4.6v-2.2h4.6v-8.4
		H222.7z"/>
	<path class="st0" d="M248.4,489.3v2.2h-21.3v-2.2h9.3v-4h-6.7v-7.6h13.5v-3.1h-13.6v-2.2h16.2v7.4h-13.5v3.3h14.1v2.2H239v4
		L248.4,489.3L248.4,489.3z"/>
	<path class="st0" d="M260.2,486.5c2.7,0,4.8-0.2,7.3-0.7l0.2,2.2c-2.8,0.5-5.3,0.7-8.6,0.7h-1.6v-15.1h8.7v2.2h-6.1v10.7
		L260.2,486.5L260.2,486.5z M276.8,470.8v23.5h-2.5v-12h-2.8v10.9H269v-21.8h2.5v8.8h2.8v-9.3h2.5V470.8z"/>
	<path class="st0" d="M287.7,478c0,3.7,1.6,7.4,4.8,9.2l-1.5,2c-2.2-1.2-3.7-3.4-4.6-5.9c-0.8,2.8-2.3,5.1-4.5,6.4l-1.5-2
		c3.2-1.9,4.8-5.9,4.8-9.6v-0.8h-4.1v-2.2h4.1v-3.3h2.5v3.3h4v2.2h-4L287.7,478L287.7,478z M293.4,471.3h2.5v21.9h-2.5v-11.1h-3.2
		v-2.2h3.2V471.3z M300.7,470.8v23.5h-2.5v-23.5H300.7z"/>
	<path class="st0" d="M312.6,474.4h5.5v2.2h-13.8v-2.2h5.6v-3.3h2.7L312.6,474.4L312.6,474.4z M317.2,483.7c0,3.2-2.5,5.5-5.8,5.5
		c-3.4,0-5.8-2.3-5.8-5.5s2.4-5.5,5.8-5.5C314.7,478.3,317.2,480.5,317.2,483.7z M314.6,483.7c0-2-1.4-3.3-3.3-3.3s-3.3,1.3-3.3,3.3
		s1.4,3.3,3.3,3.3S314.6,485.7,314.6,483.7z M326.3,482.5h-3.6v11.8H320v-23.5h2.7v9.4h3.6L326.3,482.5L326.3,482.5z"/>
	<path class="st0" d="M347.9,470.8v23.6h-2.7v-8.9h-5.4c-1,2.3-2.8,3.7-5.1,3.7c-3.5,0-5.9-3.2-5.9-8.3c0-5,2.5-8.3,5.9-8.3
		c2.1,0,3.9,1.2,4.9,3.3h5.5v-5.1L347.9,470.8L347.9,470.8z M338.1,480.8c0-3.6-1.4-5.9-3.4-5.9s-3.4,2.2-3.4,5.9
		c0,3.7,1.4,5.9,3.4,5.9C336.7,486.7,338.1,484.5,338.1,480.8z M345.2,483.2v-5.1h-4.8c0.2,0.9,0.3,1.7,0.3,2.7
		c0,0.9-0.1,1.7-0.2,2.4H345.2z"/>
	<path class="st0" d="M371.2,484c-2.7-0.9-4.7-2.7-5.7-5c-1,2.5-3,4.4-5.8,5.4l-1.4-2.1c3.7-1.2,5.8-4.3,5.8-7.5v-0.4H359v-2.2h12.8
		v2.2h-5v0.4c0,3,2.1,5.9,5.7,7L371.2,484z M361.6,486.1h15.8v8.1h-2.7v-6h-13.2v-2.1H361.6z M377.4,470.8V485h-2.7v-14.2H377.4z"/>
	<path class="st0" d="M388.3,483.5c-2.2,0.1-4.4,0.1-6.2,0.1l-0.3-2.2c4.3,0,10.1-0.1,15.1-0.7l0.2,1.9c-2,0.3-4,0.6-6,0.7v4.5h-2.7
		v-4.3H388.3z M383.6,475.8c0-2.5,2.4-4.1,5.8-4.1s5.8,1.6,5.8,4.1s-2.4,4.1-5.8,4.1C385.9,479.9,383.6,478.3,383.6,475.8z
		 M401.9,491.6v2.2h-17v-6.9h2.7v4.8h14.3V491.6z M386.1,475.8c0,1.3,1.3,2.2,3.3,2.2c1.9,0,3.3-0.8,3.3-2.2s-1.3-2.2-3.3-2.2
		C387.4,473.7,386.1,474.5,386.1,475.8z M398.7,484.6v-13.8h2.7v17.9h-2.7v-2.2h-4.6v-1.9H398.7z"/>
	<path class="st0" d="M405.9,487.1c4.2,0,10.1,0,15.1-0.8l0.2,1.9c-5.2,1-10.8,1-15,1L405.9,487.1z M419.7,478.1
		c0,3.3-2.7,5.6-6.4,5.6s-6.4-2.3-6.4-5.6s2.7-5.6,6.4-5.6S419.7,474.7,419.7,478.1z M409.6,478.1c0,2,1.6,3.4,3.7,3.4
		c2.2,0,3.8-1.3,3.8-3.4s-1.6-3.4-3.8-3.4C411.2,474.7,409.6,476,409.6,478.1z M425.1,470.8v23.5h-2.7v-23.5H425.1z"/>
	<path class="st0" d="M456.7,486h-9.3v8.3h-2.7V486h-9.2v-2.2h21.2V486z M454.7,481.6c-3.9-0.6-7.1-2.6-8.6-5.3
		c-1.5,2.7-4.8,4.7-8.7,5.3l-1-2.2c4.8-0.7,8.3-3.6,8.3-6.7v-1.2h2.8v1.2c0,3,3.5,6,8.3,6.7L454.7,481.6z"/>
	<path class="st0" d="M471.7,484c-2.6-0.9-4.5-2.7-5.5-4.9c-1,2.5-3,4.4-5.7,5.4l-1.4-2.1c3.7-1.2,5.8-4.2,5.8-7.5v-0.4h-5v-2.2
		h12.6v2.2h-4.9v0.4c0,3,2,5.9,5.6,7L471.7,484z M462.2,486.1h15.4v8.2H475v-6h-12.8V486.1z M481,479h-3.3v6H475v-14.2h2.7v6h3.3
		V479z"/>
	<path class="st0" d="M502.6,470.8v12.6H500v-5h-4.3c-0.5,2.7-2.9,4.4-6,4.4c-3.5,0-6.1-2.3-6.1-5.5s2.6-5.5,6.1-5.5
		c3.1,0,5.5,1.7,6,4.4h4.3v-5.4H502.6z M493.2,477.3c0-2-1.5-3.3-3.5-3.3c-2.1,0-3.6,1.3-3.6,3.3s1.5,3.3,3.6,3.3
		C491.7,480.6,493.2,479.3,493.2,477.3z M500,484.5h2.7v9.5h-15.3v-9.5h2.7v2.7h10v-2.7H500z M500,489.2h-10v2.6h10V489.2z"/>
	<path class="st0" d="M534.1,486.7h-9.4v7.6H522v-7.6h-9.2v-2.2h21.3V486.7L534.1,486.7z M531.5,482h-16.1v-10.3h2.7v3h10.7v-3h2.7
		L531.5,482L531.5,482z M528.8,476.8h-10.7v3h10.7V476.8z"/>
	<path class="st0" d="M550.4,482.2c-3,0.6-5.8,0.8-10.8,0.8h-1.9v-10.6h10.4v2.2h-7.7v6.3c4.4,0,7-0.2,9.8-0.8L550.4,482.2z
		 M540,485.2h15v8.8h-15V485.2z M542.7,491.8h9.7v-4.5h-9.7V491.8z M558.4,478.5H555v5.5h-2.7v-13.3h2.7v5.6h3.3v2.2L558.4,478.5
		L558.4,478.5z"/>
	<path class="st0" d="M581.8,480.6v2.1h-21.3v-2.1H581.8z M562.8,475.2c0-2.6,3.1-4.1,8.4-4.1c5.3,0,8.4,1.4,8.4,4.1
		c0,2.6-3.1,4-8.4,4C565.9,479.2,562.8,477.8,562.8,475.2z M565.8,492h14v2.1h-16.7v-5.9h13.4v-1.7h-13.4v-2h16.1v5.6h-13.4
		L565.8,492L565.8,492z M565.6,475.2c0,1.3,1.9,2,5.6,2c3.6,0,5.6-0.7,5.6-2c0-1.4-2-2.1-5.6-2.1
		C567.6,473.2,565.6,473.9,565.6,475.2z"/>
	<path class="st0" d="M602.2,482.5v2h6.6v5.7h-13.4v1.9h14v2.1h-16.7v-5.8h13.4v-1.8h-13.4v-2h6.8v-2h-9.3v-2.1h21.3v2.1h-9.3
		L602.2,482.5L602.2,482.5z M591.3,477.4c4.3-0.3,7.4-1.9,7.9-3.8h-7v-2.1h17.4v2.1h-7c0.5,1.9,3.6,3.5,7.9,3.8l-0.8,2
		c-4.1-0.3-7.3-1.8-8.7-4c-1.4,2.2-4.6,3.6-8.7,4L591.3,477.4z"/>
	<path class="st0" d="M627,480.8c0,5.1-2.5,8.3-6.1,8.3c-3.5,0-6-3.2-6-8.3c0-5,2.5-8.3,6-8.3S627,475.7,627,480.8z M617.5,480.8
		c0,3.7,1.4,5.9,3.5,5.9s3.5-2.2,3.5-5.9c0-3.6-1.4-5.9-3.5-5.9S617.5,477.1,617.5,480.8z M633.4,470.8v23.6h-2.7v-23.6H633.4z"/>
	<path class="st0" d="M659.2,489v2.2H638V489h7.9v-8.3h2.7v8.3H659.2z M654.2,475.2h-14V473h16.7v2.3c0,2.9,0,6.2-0.9,11l-2.7-0.3
		C654.2,481.4,654.2,478.1,654.2,475.2L654.2,475.2z"/>
	<path class="st0" d="M22,527.6v2.2H0.7v-2.2h15.4c0.6-2.9,0.6-5.1,0.6-7.1H3.4v-2.2h16v1.9c0,2,0,4.3-0.6,7.4L22,527.6L22,527.6z
		 M6.1,537.9H20v2.2H3.4v-7.9h2.7C6.1,532.2,6.1,537.9,6.1,537.9z"/>
	<path class="st0" d="M45,532.6h-9.4v7.9h-2.7v-7.9h-9.2v-2.2H45V532.6z M42.3,527.5h-16v-9.3h16V527.5z M39.6,520.4H28.9v5h10.7
		V520.4z"/>
	<path class="st0" d="M66.2,531.8c-4.9,0.9-10.5,1-14.6,1.1l-0.3-2.1c1.7,0,3.8,0,6-0.1V529c-2.6-0.3-4.3-1.6-4.3-3.5
		c0-2.2,2.2-3.6,5.6-3.6c3.4,0,5.6,1.4,5.6,3.6c0,1.9-1.6,3.2-4.2,3.5v1.5c2-0.1,4.1-0.3,6-0.6L66.2,531.8z M65.4,521.1H52v-2h5.4
		v-2.2h2.7v2.2h5.3V521.1z M57.5,537.9h13.3v2.2h-16v-5.8h2.7C57.5,534.3,57.5,537.9,57.5,537.9z M58.7,527.3c1.9,0,3.1-0.7,3.1-1.7
		c0-1.1-1.2-1.8-3.1-1.8c-1.9,0-3.1,0.7-3.1,1.8C55.6,526.6,56.8,527.3,58.7,527.3z M73.2,525v2.2H70v8.2h-2.7V517H70v8H73.2z"/>
	<path class="st0" d="M85.9,523.2c-1.5,3.7-4.9,6.4-10,7.9l-1.1-2.1c5.5-1.5,8.6-4.4,9-8.1H76v-2.2h10.7c0,0.8-0.1,1.6-0.2,2.3h4.8
		v-4H94v13.8h-2.7v-2.7h-5.7v-2.2h5.7v-2.7H85.9z M94.2,535.7c0,2.9-3.1,4.7-7.9,4.7s-7.8-1.8-7.8-4.7s3.1-4.6,7.8-4.6
		C91.1,531.1,94.2,532.9,94.2,535.7z M91.5,535.7c0-1.6-2-2.5-5.2-2.5s-5.2,0.9-5.2,2.5s2,2.5,5.2,2.5
		C89.5,538.3,91.5,537.4,91.5,535.7z"/>
	<path class="st0" d="M118.8,526.8v2.1H97.5v-2.1H118.8z M99.8,521.4c0-2.6,3.1-4.1,8.4-4.1s8.4,1.4,8.4,4.1c0,2.6-3.1,4-8.4,4
		S99.8,524,99.8,521.4z M102.8,538.2h14v2.1h-16.7v-5.9h13.4v-1.7H100v-2h16.1v5.6h-13.4v1.9L102.8,538.2L102.8,538.2z M102.6,521.4
		c0,1.3,2,2,5.6,2s5.6-0.7,5.6-2c0-1.4-2-2.1-5.6-2.1C104.5,519.4,102.6,520.1,102.6,521.4z"/>
	<path class="st0" d="M135.5,520c0,6.3-2.1,11.8-8.7,15.6l-1.6-1.9c5.1-2.9,7.2-6.8,7.6-11.5h-6.6V520H135.5z M145.4,517v23.5h-2.5
		v-12.1h-2.7v11h-2.5v-21.8h2.5v8.6h2.7V517H145.4z"/>
	<path class="st0" d="M160.9,530.8c-2.5-0.9-4.4-2.8-5.4-5.2c-1,2.6-3,4.7-5.7,5.7l-1.4-2.1c3.7-1.3,5.7-4.6,5.7-8.1v-2.7h2.7v2.8
		c0,3.2,2,6.2,5.5,7.5L160.9,530.8z M168.4,537.9v2.2h-15.8v-7.4h2.7v5.2H168.4z M165.2,524.5h-4.8v-2.2h4.8V517h2.7v17.5h-2.7
		V524.5z"/>
	<path class="st0" d="M185.3,521.4h-13.9v-2.2h5.6v-2.4h2.7v2.4h5.6L185.3,521.4L185.3,521.4z M178.4,530.5c-3.4,0-5.7-1.7-5.7-4.2
		s2.3-4.1,5.7-4.1s5.7,1.7,5.7,4.1C184.1,528.9,181.8,530.5,178.4,530.5z M187.1,531.7h2.7v8.5h-15v-8.5h2.7v2.2h9.7L187.1,531.7
		L187.1,531.7z M178.4,528.5c1.9,0,3.1-0.8,3.1-2.2c0-1.3-1.3-2.1-3.1-2.1s-3.1,0.8-3.1,2.1C175.2,527.7,176.5,528.5,178.4,528.5z
		 M187.1,535.9h-9.7v2.2h9.7V535.9z M193.1,525.1h-3.3v5.6h-2.7V517h2.7v5.8h3.3V525.1z"/>
	<path class="st0" d="M198.4,532.3c3.3,0,6.8-0.3,10.5-1.1l0.3,2.2c-4,0.8-7.8,1.1-11.5,1.1h-2v-15.3h2.7V532.3z M213.8,517v23.5
		h-2.7V517H213.8z"/>
	<path class="st0" d="M221,532.5c3.8,0,6.7-0.2,9.9-0.8l0.3,2.2c-3.6,0.7-6.7,0.8-11,0.8h-1.9v-15.5h10.9v2.2H221V532.5z
		 M239.2,528.2h-3.7v12.3h-2.7V517h2.7v9h3.7V528.2z"/>
	<path class="st0" d="M240.9,536.7c0-1.2,0.9-2.1,2-2.1s2,0.9,2,2.1s-0.9,2.1-2,2.1S240.9,538,240.9,536.7z"/>
	<path class="st0" d="M273.4,532.4h-5.3v8h-2.7v-8H260v8h-2.7v-8h-5.2v-2.2h21.3V532.4z M254.3,523c0-3.1,3.4-5.2,8.3-5.2
		s8.3,2,8.3,5.2s-3.4,5.2-8.3,5.2S254.3,526.2,254.3,523z M257.1,523c0,1.9,2.2,3,5.6,3s5.6-1.1,5.6-3s-2.2-3-5.6-3
		C259.3,520,257.1,521.2,257.1,523z"/>
	<path class="st0" d="M279.1,532.3c3.3,0,6.8-0.3,10.5-1.1l0.3,2.2c-4,0.8-7.8,1.1-11.5,1.1h-2v-15.3h2.7V532.3z M294.5,517v23.5
		h-2.7V517H294.5z"/>
	<path class="st0" d="M319.3,526.4v2.1h-21.2v-2.1h15.4c0.2-0.9,0.3-1.7,0.4-2.5l-13.5,0.6l-0.3-2.1L314,522c0-0.7,0-1.2,0-1.8
		h-13.3V518h15.9v1.9c0,1.8,0,3.9-0.5,6.5H319.3z M303.2,538.1h14.5v2.1h-17.1v-6h13.7v-1.8h-13.7v-2.1H317v5.8h-13.7L303.2,538.1
		L303.2,538.1z"/>
	<path class="st0" d="M342.3,535.5v2.2H321v-2.2h9.3v-4h-6.7v-7.6h13.5v-3.1h-13.6v-2.2h16.2v7.4h-13.5v3.3h14.1v2.2H333v4
		L342.3,535.5L342.3,535.5z"/>
	<path class="st0" d="M344.1,533.3c4.2,0,10.1,0,15.1-0.8l0.2,2c-5.2,1-10.8,1-15,1L344.1,533.3z M358,524.3c0,3.3-2.7,5.6-6.4,5.6
		s-6.4-2.3-6.4-5.6s2.7-5.6,6.4-5.6S358,520.9,358,524.3z M347.9,524.3c0,2,1.6,3.4,3.7,3.4c2.2,0,3.8-1.3,3.8-3.4
		c0-2.1-1.6-3.4-3.8-3.4C349.4,520.9,347.9,522.2,347.9,524.3z M363.3,517v23.5h-2.7V517H363.3z"/>
	<path class="st0" d="M380.6,523.8c0,3.9,2.4,8,6.1,9.5l-1.5,2.1c-2.7-1.2-4.8-3.7-5.9-6.8c-1,3.3-3.1,6.1-5.9,7.4l-1.5-2.1
		c3.6-1.7,6.1-6.1,6.1-10.1v-2.2h-5.2v-2.2H386v2.2h-5.2v2.2L380.6,523.8L380.6,523.8z M391.2,517v23.5h-2.7V517H391.2z"/>
	<path class="st0" d="M416.2,528.6v2.2h-21.3v-2.2h9.3v-3.4h2.7v3.4H416.2z M413.9,526.5c-3.8-0.6-6.9-2.3-8.4-4.9
		c-1.5,2.5-4.6,4.3-8.4,4.9l-1-2.1c4.6-0.6,8-3.3,8-6.2v-0.9h2.8v0.9c0,3,3.3,5.6,8,6.2L413.9,526.5z M397.3,532.8h16.3v7.7h-2.7
		v-5.6h-13.6L397.3,532.8L397.3,532.8z"/>
	<path class="st0" d="M429.9,519.5c0,6.8-2.9,12.8-10.6,16.7l-1.5-2.1c5.7-2.9,8.8-7.1,9.4-12.5H419v-2.2L429.9,519.5L429.9,519.5z
		 M439.6,528.5H436v12h-2.7V517h2.7v9.3h3.6V528.5z"/>
	<path class="st0" d="M462.1,527.8v2.2h-21.2v-2.2H462.1z M459.5,536.1c0,2.7-3,4.3-8.1,4.3c-5,0-8.1-1.6-8.1-4.3
		c0-2.8,3.1-4.3,8.1-4.3C456.5,531.8,459.5,533.4,459.5,536.1z M459.7,525.4h-16v-8h2.7v5.8h13.4v2.2H459.7z M456.8,536.1
		c0-1.5-2-2.2-5.4-2.2s-5.4,0.8-5.4,2.2s1.9,2.2,5.4,2.2S456.8,537.5,456.8,536.1z"/>
	<path class="st0" d="M477.7,521.8h-13.9v-2.1h5.6V517h2.7v2.7h5.6L477.7,521.8L477.7,521.8z M470.8,531.8c-3.4,0-5.7-1.8-5.7-4.4
		c0-2.7,2.3-4.4,5.7-4.4c3.4,0,5.7,1.8,5.7,4.4S474.2,531.8,470.8,531.8z M470,537.9h13.1v2.2h-15.8v-6.8h2.7L470,537.9L470,537.9z
		 M470.8,529.7c1.9,0,3.1-0.9,3.1-2.4s-1.3-2.4-3.1-2.4c-1.8,0-3.1,0.9-3.1,2.4C467.7,528.8,469,529.7,470.8,529.7z M485.5,524.5
		v2.2h-3.3v7.9h-2.7V517h2.7v7.5H485.5z"/>
	<path class="st0" d="M504.9,531c-2.7-0.9-4.7-2.7-5.7-5c-1,2.5-3,4.5-5.8,5.4l-1.4-2.1c3.7-1.2,5.8-4.3,5.8-7.5V521h-5.1v-2.2h12.8
		v2.2h-5v0.9c0,3,2.1,5.9,5.7,7L504.9,531z M511.8,537.9v2.2h-16v-7.5h2.7v5.3H511.8z M511.1,534.1h-2.7V517h2.7V534.1z"/>
	<path class="st0" d="M536,529.2v2.2h-21.2v-2.2H536z M517,522.5c0-3,3.3-4.8,8.4-4.8s8.4,1.8,8.4,4.8s-3.3,4.8-8.4,4.8
		S517,525.5,517,522.5z M520.1,537.9h13.5v2.2h-16.2v-6.8h2.7V537.9z M519.7,522.5c0,1.7,2.2,2.6,5.6,2.6c3.4,0,5.6-1,5.6-2.6
		s-2.2-2.6-5.6-2.6S519.7,520.8,519.7,522.5z"/>
	<path class="st0" d="M557.3,531.8c-4.9,0.9-10.5,1-14.6,1.1l-0.3-2.1c1.7,0,3.8,0,6-0.1V529c-2.6-0.3-4.3-1.6-4.3-3.5
		c0-2.2,2.2-3.6,5.6-3.6c3.4,0,5.6,1.4,5.6,3.6c0,1.9-1.6,3.2-4.2,3.5v1.5c2-0.1,4.1-0.3,6-0.6L557.3,531.8z M556.4,521.1H543v-2
		h5.4v-2.2h2.7v2.2h5.3V521.1z M548.5,537.9h13.3v2.2h-16v-5.8h2.7V537.9z M549.7,527.3c1.9,0,3.1-0.7,3.1-1.7
		c0-1.1-1.2-1.8-3.1-1.8c-1.9,0-3.1,0.7-3.1,1.8C546.7,526.6,547.9,527.3,549.7,527.3z M564.2,525v2.2H561v8.2h-2.7V517h2.7v8H564.2
		z"/>
	<path class="st0" d="M576.9,523.2c-1.5,3.7-4.9,6.4-10,7.9l-1.1-2.1c5.5-1.5,8.6-4.4,9-8.1H567v-2.2h10.7c0,0.8-0.1,1.6-0.2,2.3
		h4.8v-4h2.7v13.8h-2.7v-2.7h-5.7v-2.2h5.7v-2.7H576.9z M585.2,535.7c0,2.9-3.1,4.7-7.9,4.7c-4.8,0-7.8-1.8-7.8-4.7s3.1-4.6,7.8-4.6
		C582.1,531.1,585.2,532.9,585.2,535.7z M582.6,535.7c0-1.6-2-2.5-5.2-2.5s-5.2,0.9-5.2,2.5s2,2.5,5.2,2.5
		C580.6,538.3,582.6,537.4,582.6,535.7z"/>
	<path class="st0" d="M595.7,533.2c2.4-0.1,4.9-0.2,7.2-0.5l0.1,2c-4.8,0.8-10.2,0.9-14.3,0.9l-0.3-2.2c1.4,0,3,0,4.7-0.1v-7.1h2.6
		V533.2z M598.3,530c0.6-3.6,0.7-6.4,0.7-8.3h-9.3v-2.2h11.9v1.6c0,2.1,0,5-0.7,9.2L598.3,530z M610.3,528.9h-3.5v11.6h-2.7V517h2.7
		v9.6h3.5V528.9z"/>
	<path class="st0" d="M624.7,522.8c0,4.2,2.2,8.4,5.7,10.2l-1.6,2.1c-2.5-1.3-4.4-3.8-5.4-6.9c-1,3.3-3,6-5.7,7.4l-1.6-2.2
		c3.7-1.8,6-6.2,6-10.6V519h2.7v3.8H624.7z M638.3,528.5h-3.7v12H632V517h2.7v9.3h3.7v2.2H638.3z"/>
	<path class="st0" d="M653.4,529.2c-3.5,0.6-6.6,0.8-11.1,0.8h-1.9v-7h8v-2.5h-8v-2.2H651v6.8h-8v2.8c4,0,6.9-0.2,10.1-0.8
		L653.4,529.2z M642.8,532.1h15v8.1h-15V532.1z M645.4,538.1h9.8v-3.9h-9.8V538.1z M661.2,525h-3.3v6h-2.7v-14h2.7v5.8h3.3V525z"/>
	<path class="st0" d="M22,581.6v2.2H0.7v-2.2H10v-5.3H3.1v-11.2h16.4v11.2h-6.9v5.3H22z M5.7,574.2h11.2v-7H5.7V574.2z"/>
	<path class="st0" d="M48.2,578.8h-9.4v7.8h-2.7v-7.8h-9.3v-2.2h21.3L48.2,578.8L48.2,578.8z M45.7,573.9h-16v-9.4h15.6v2.2H32.5
		v5.1h13.2V573.9z"/>
	<path class="st0" d="M74.5,574v2H53.2v-2H74.5z M58.4,584.6h14.2v1.8H55.7V581h13.5v-1.7H55.7v-1.8h16.2v5.3H58.4V584.6z
		 M69.2,565.6H55.9v-1.8h15.9v5.2H58.6v1.7h13.7v1.9H55.9v-5.3h13.2L69.2,565.6L69.2,565.6z"/>
	<path class="st0" d="M103.1,576.9c-2.1,0.4-4.2,0.6-6.3,0.8v8.2h-2.7v-8.1c-2.2,0.1-4.3,0.1-6.1,0.1l-0.3-2.2
		c4.2,0,10.1-0.1,15.2-0.8L103.1,576.9z M89.3,569.1c0-2.9,2.5-4.9,6.1-4.9c3.5,0,6.1,2,6.1,4.9S99,574,95.4,574
		C91.8,574.1,89.3,572,89.3,569.1z M91.8,569.1c0,1.7,1.5,2.7,3.5,2.7c2.1,0,3.5-1.1,3.5-2.7c0-1.6-1.4-2.7-3.5-2.7
		C93.3,566.4,91.8,567.5,91.8,569.1z M107.1,563.2v23.5h-2.7v-23.5H107.1z"/>
	<path class="st0" d="M127.8,568H114v-2.1h5.6v-2.7h2.7v2.7h5.6L127.8,568L127.8,568z M120.9,578c-3.4,0-5.7-1.8-5.7-4.4
		c0-2.7,2.3-4.4,5.7-4.4c3.4,0,5.7,1.8,5.7,4.4S124.3,578,120.9,578z M120.1,584.1h13.1v2.2h-15.8v-6.8h2.7
		C120.1,579.5,120.1,584.1,120.1,584.1z M120.9,575.9c1.9,0,3.1-0.9,3.1-2.4s-1.3-2.4-3.1-2.4c-1.8,0-3.1,0.9-3.1,2.4
		S119,575.9,120.9,575.9z M135.6,570.7v2.2h-3.3v7.9h-2.7v-17.6h2.7v7.5L135.6,570.7L135.6,570.7z"/>
	<path class="st0" d="M160.4,565c0,6.2-3.7,10.5-10.6,12.7l-1.1-2.1c5.4-1.7,8.4-4.7,8.8-8.4h-7.7V565H160.4z M161.4,578
		c0,3.1,3.1,5.7,7.6,6.5l-1.1,2.1c-3.6-0.7-6.4-2.4-7.9-4.9c-1.4,2.5-4.3,4.3-7.9,5l-1-2.1c4.5-0.8,7.6-3.4,7.6-6.5v-0.9h2.7
		L161.4,578L161.4,578z M165.2,571.8h-4.6v-2.2h4.6v-6.4h2.7V579h-2.7V571.8z"/>
	<path class="st0" d="M187.5,569.7c0,3.2-2.6,5.5-6.2,5.5c-3.6,0-6.2-2.2-6.2-5.5c0-3.2,2.7-5.5,6.2-5.5
		C184.9,564.3,187.5,566.5,187.5,569.7z M177.7,569.7c0,2,1.5,3.3,3.6,3.3s3.6-1.3,3.6-3.3s-1.5-3.3-3.6-3.3
		C179.2,566.5,177.7,567.8,177.7,569.7z M181.3,576.9v2.6h10v-2.6h2.7v9.5h-15.3v-9.5H181.3z M181.3,584.2h10v-2.7h-10V584.2z
		 M194,563.2v12.6h-2.7v-12.6H194z"/>
	<path class="st0" d="M204.9,578.5c3.3,0,6.8-0.3,10.5-1.1l0.3,2.2c-4,0.8-7.8,1.1-11.5,1.1h-2v-15.3h2.7V578.5z M220.3,563.2v23.5
		h-2.7v-23.5H220.3z"/>
	<path class="st0" d="M230.8,578.7c3.8,0,6.7-0.2,9.9-0.8l0.3,2.2c-3.6,0.7-6.7,0.8-11,0.8h-1.9v-15.5H239v2.2h-8.2V578.7z
		 M249,574.4h-3.7v12.3h-2.7v-23.5h2.7v9h3.7V574.4z"/>
	<path class="st0" d="M254,582.9c0-1.2,0.9-2.1,2-2.1s2,0.9,2,2.1c0,1.2-0.9,2.1-2,2.1C254.8,585,254,584.2,254,582.9z"/>
	<path class="st0" d="M292.9,573.1v2.1h-21.3v-2.1H292.9z M276.9,584.4h14v2.1h-16.7v-5.8h13.4V579h-13.4v-2h16.1v5.6h-13.4V584.4z
		 M290.2,571.4h-15.8v-7.8h2.7v2h10.5v-2h2.7v7.8H290.2z M287.5,567.5H277v1.9h10.5V567.5z"/>
	<path class="st0" d="M319.2,579.5h-9.3v7.2h-2.7v-7.2h-9.3v-2.2h21.3V579.5z M314,566.2h-13.5V564h16.3v6.5h-13.5v2.5h14v2.2h-16.7
		v-6.7H314V566.2z"/>
	<path class="st0" d="M340.6,569c0,4.2,2.2,8.4,5.7,10.2l-1.6,2.1c-2.5-1.3-4.4-3.8-5.4-6.9c-1,3.3-3,6-5.7,7.4l-1.6-2.2
		c3.7-1.8,6-6.2,6-10.6v-3.8h2.7v3.8H340.6z M354.2,574.7h-3.7v12h-2.7v-23.5h2.7v9.3h3.7V574.7z"/>
	<path class="st0" d="M371.5,573.2c0,5.1-2.5,8.3-6.1,8.3c-3.5,0-6-3.2-6-8.3c0-5,2.5-8.3,6-8.3C369,564.9,371.5,568.1,371.5,573.2z
		 M362,573.2c0,3.7,1.4,5.9,3.5,5.9s3.5-2.2,3.5-5.9c0-3.6-1.4-5.9-3.5-5.9C363.5,567.3,362,569.5,362,573.2z M378,563.2v23.6h-2.7
		v-23.6H378z"/>
	<path class="st0" d="M406.1,572.6v2.1H385v-2.1h15.4c0.2-0.9,0.3-1.7,0.4-2.5l-13.5,0.6l-0.3-2.1l13.9-0.4c0-0.6,0-1.2,0-1.8h-13.3
		v-2.1h15.9v1.9c0,1.8,0,3.9-0.5,6.5h3.1V572.6z M390,584.3h14.5v2.1h-17.1v-6h13.7v-1.8h-13.7v-2.1h16.4v5.8H390V584.3z"/>
	<path class="st0" d="M432.4,575.4v2.2h-21.2v-2.2H432.4z M413.4,568.7c0-3,3.3-4.8,8.4-4.8s8.4,1.8,8.4,4.8s-3.3,4.8-8.4,4.8
		S413.4,571.7,413.4,568.7z M416.5,584.1H430v2.2h-16.2v-6.8h2.7V584.1z M416.2,568.7c0,1.7,2.2,2.6,5.6,2.6s5.6-1,5.6-2.6
		s-2.2-2.6-5.6-2.6C418.3,566.1,416.2,567,416.2,568.7z"/>
	<path class="st0" d="M454.3,570c0,3.9,2.4,8,6.1,9.5l-1.5,2.1c-2.7-1.2-4.8-3.7-5.9-6.8c-1,3.3-3.1,6.1-5.9,7.4l-1.5-2.1
		c3.6-1.7,6.1-6.1,6.1-10.1v-2.2h-5.2v-2.2h13.2v2.2h-5.2v2.2L454.3,570L454.3,570z M465,563.2v23.5h-2.7v-23.5H465z"/>
	<path class="st0" d="M493.2,574.8v2.2h-21.3v-2.2h9.3v-3.4h2.7v3.4H493.2z M490.9,572.7c-3.8-0.6-6.9-2.3-8.4-4.9
		c-1.5,2.5-4.6,4.3-8.4,4.9l-1-2.1c4.6-0.6,8-3.3,8-6.2v-0.9h2.8v0.9c0,3,3.3,5.6,8,6.2L490.9,572.7z M474.2,579h16.3v7.7h-2.7v-5.6
		h-13.6L474.2,579L474.2,579z"/>
	<path class="st0" d="M510.2,565.7c0,6.8-2.9,12.8-10.6,16.7l-1.5-2.1c5.7-2.9,8.8-7.1,9.4-12.5h-8.2v-2.2L510.2,565.7L510.2,565.7z
		 M519.9,574.7h-3.6v12h-2.7v-23.5h2.7v9.3h3.6V574.7z"/>
	<path class="st0" d="M545.7,574v2.2h-21.2V574H545.7z M543.1,582.3c0,2.7-3,4.3-8.1,4.3c-5,0-8.1-1.6-8.1-4.3
		c0-2.8,3.1-4.3,8.1-4.3S543.1,579.6,543.1,582.3z M543.2,571.6h-16v-8h2.7v5.8h13.4v2.2H543.2z M540.4,582.3c0-1.5-2-2.2-5.4-2.2
		s-5.4,0.8-5.4,2.2s1.9,2.2,5.4,2.2C538.4,584.5,540.4,583.7,540.4,582.3z"/>
	<path class="st0" d="M563.2,576.1c-2.5-0.9-4.3-2.7-5.4-5c-1,2.6-3,4.7-5.9,5.7l-1.4-2.2c3.8-1.3,5.8-4.4,5.8-7.9v-2.3h2.7v2.2
		c0,3.3,2,6.2,5.5,7.4L563.2,576.1z M570.2,582.2c0,2.8-3,4.5-7.9,4.5s-7.9-1.7-7.9-4.5s3-4.5,7.9-4.5S570.2,579.3,570.2,582.2z
		 M567.6,582.2c0-1.5-1.9-2.4-5.3-2.4s-5.2,0.9-5.2,2.4s1.9,2.4,5.2,2.4S567.6,583.7,567.6,582.2z M567.4,570.1h-4.8v-2.2h4.8v-4.7
		h2.7V577h-2.7V570.1z"/>
	<path class="st0" d="M598.2,573v2.1h-21.3V573H598.2z M579.2,567.6c0-2.6,3.1-4.1,8.4-4.1c5.3,0,8.4,1.4,8.4,4.1c0,2.6-3.1,4-8.4,4
		S579.2,570.2,579.2,567.6z M582.1,584.4h14v2.1h-16.7v-5.9h13.4v-1.7h-13.4v-2h16.1v5.6h-13.4L582.1,584.4L582.1,584.4z M582,567.6
		c0,1.3,1.9,2,5.6,2c3.6,0,5.6-0.7,5.6-2c0-1.4-2-2.1-5.6-2.1C583.9,565.6,582,566.3,582,567.6z"/>
	<path class="st0" d="M625.3,567.8h-13.9v-2.1h5.6V563h2.7v2.7h5.6L625.3,567.8L625.3,567.8z M618.3,577.1c-3.4,0-5.7-1.6-5.7-4.2
		c0-2.5,2.3-4.2,5.7-4.2s5.7,1.6,5.7,4.2S621.7,577.1,618.3,577.1z M630,582.5c0,2.6-3,4.1-7.7,4.1c-4.8,0-7.7-1.5-7.7-4.1
		s3-4.1,7.7-4.1S630,580,630,582.5z M618.3,575.2c1.9,0,3.1-0.8,3.1-2.2s-1.3-2.2-3.1-2.2s-3.1,0.8-3.1,2.2
		C615.2,574.3,616.5,575.2,618.3,575.2z M627.3,582.5c0-1.4-1.9-2.1-5.1-2.1c-3.2,0-5.1,0.7-5.1,2.1c0,1.4,1.9,2.1,5.1,2.1
		C625.5,584.6,627.3,583.9,627.3,582.5z M629.7,569.2v2.8h3.3v2.2h-3.3v4H627v-15h2.7v3.8h3.3v2.2H629.7z"/>
	<path class="st0" d="M651.5,568h-13.9v-2.1h5.6v-2.7h2.7v2.7h5.6L651.5,568L651.5,568z M644.6,578c-3.4,0-5.7-1.8-5.7-4.4
		c0-2.7,2.3-4.4,5.7-4.4s5.7,1.8,5.7,4.4S648,578,644.6,578z M643.8,584.1h13.1v2.2h-15.8v-6.8h2.7V584.1z M644.6,575.9
		c1.9,0,3.1-0.9,3.1-2.4s-1.3-2.4-3.1-2.4s-3.1,0.9-3.1,2.4S642.7,575.9,644.6,575.9z M659.3,570.7v2.2H656v7.9h-2.7v-17.6h2.7v7.5
		L659.3,570.7L659.3,570.7z"/>
	<path class="st0" d="M12.6,611.7c0,7-2.2,13.2-10.5,17.4L0.6,627c4-2,6.4-4.5,7.8-7.4l-7.3,0.7L0.7,618l8.6-0.5
		c0.3-1.2,0.5-2.4,0.6-3.7h-8v-2.2L12.6,611.7L12.6,611.7z M20.1,609.4v23.5h-2.7v-12.1h-4.9v-2.2h4.9v-9.2H20.1z"/>
	<path class="st0" d="M29.6,624.9c3.8,0,6.7-0.2,9.9-0.8l0.3,2.2c-3.6,0.7-6.7,0.8-11,0.8h-1.9v-15.5h10.9v2.2h-8.2
		C29.6,613.8,29.6,624.9,29.6,624.9z M47.8,620.6h-3.7v12.3h-2.7v-23.5h2.7v9h3.7V620.6z"/>
	<path class="st0" d="M65.2,622.4c-3.5,0.6-6.6,0.7-11.1,0.7h-1.9v-7.3h8V613h-8v-2.2h10.7v7h-8v3.1c4,0,6.9-0.1,10.1-0.7
		L65.2,622.4z M57.5,630.3h13v2.2H54.8v-7.1h2.7V630.3z M72.9,616.4v2.2h-3.3v8.1h-2.7v-17.3h2.7v7H72.9z"/>
	<path class="st0" d="M97.6,614.2H83.7v-2.1h5.6v-2.7H92v2.7h5.6V614.2z M90.7,624.2c-3.4,0-5.7-1.8-5.7-4.4c0-2.7,2.3-4.4,5.7-4.4
		c3.4,0,5.7,1.8,5.7,4.4C96.4,622.4,94,624.2,90.7,624.2z M89.9,630.3H103v2.2H87.2v-6.8h2.7C89.9,625.7,89.9,630.3,89.9,630.3z
		 M90.7,622.1c1.9,0,3.1-0.9,3.1-2.4s-1.3-2.4-3.1-2.4c-1.8,0-3.1,0.9-3.1,2.4C87.5,621.2,88.8,622.1,90.7,622.1z M105.4,616.9v2.2
		H102v7.9h-2.7v-17.6h2.7v7.5L105.4,616.9L105.4,616.9z"/>
	<path class="st0" d="M128.1,610.4c0,6-3.8,9.8-10.6,11.4l-1-2.1c5.4-1.3,8.3-3.8,8.8-7.2h-7.5v-2.2L128.1,610.4L128.1,610.4z
		 M136.3,630.5v2.2h-15.9v-6.3H133v-2h-12.6v-2.2h15.3v6.1h-12.6v2.2H136.3z M133,616.9h-4.7v-2.2h4.7v-5.3h2.7v11.9H133V616.9z"/>
	<path class="st0" d="M162.7,620.6v2.1h-21.2v-2.1H162.7z M160.4,614.4c0,2.8-3.3,4.5-8.4,4.5s-8.4-1.7-8.4-4.5s3.3-4.5,8.4-4.5
		S160.4,611.6,160.4,614.4z M160.1,624.7v7.9H144v-7.9H160.1z M146.5,614.4c0,1.5,2.1,2.4,5.6,2.4s5.6-0.9,5.6-2.4
		c0-1.6-2.1-2.4-5.6-2.4S146.5,612.8,146.5,614.4z M146.6,626.9v3.6h10.8v-3.6H146.6z"/>
	<path class="st0" d="M179.6,619.4c0,5.1-2.5,8.3-6.1,8.3c-3.5,0-6-3.2-6-8.3c0-5,2.5-8.3,6-8.3
		C177.1,611.1,179.6,614.3,179.6,619.4z M170.1,619.4c0,3.7,1.4,5.9,3.5,5.9s3.5-2.2,3.5-5.9c0-3.6-1.4-5.9-3.5-5.9
		S170.1,615.7,170.1,619.4z M186.1,609.4V633h-2.7v-23.6H186.1z"/>
	<path class="st0" d="M211.5,609.4V633h-2.7v-9.5h-5v3.6h-10.9v-15.4h10.9v3.3h5v-5.5L211.5,609.4L211.5,609.4z M201.2,613.7h-5.6
		v11.2h5.6V613.7z M208.8,621.3V617h-5v4.3H208.8z"/>
	<path class="st0" d="M245.8,624.9h-9.4v8h-2.7v-8h-9.2v-2.2h21.3L245.8,624.9L245.8,624.9z M226.7,615.5c0-3.2,3.4-5.2,8.3-5.2
		c4.9,0,8.3,2,8.3,5.2s-3.4,5.2-8.3,5.2C230.1,620.7,226.7,618.7,226.7,615.5z M229.5,615.5c0,1.9,2.2,3.1,5.6,3.1
		c3.4,0,5.6-1.1,5.6-3.1c0-1.9-2.2-3-5.6-3C231.7,612.4,229.5,613.6,229.5,615.5z"/>
	<path class="st0" d="M253.8,625.1c3.7,0,7-0.2,10.7-0.8l0.3,2.2c-4,0.7-7.5,0.8-11.7,0.8h-2V618h8.2v-4.4H251v-2.2h11v8.7h-8.2
		V625.1z M269.1,609.3v23.6h-2.7v-23.6H269.1z"/>
	<path class="st0" d="M296.3,621.1v2.2H275v-2.2H296.3z M280.3,630.2H294v2.2h-16.4v-6.9h2.7L280.3,630.2L280.3,630.2z M293.9,618.3
		h-16.1v-8.1h2.7v5.9h13.4V618.3z"/>
	<path class="st0" d="M314.1,621.8c-3.6,0-6.3-2.3-6.3-5.6s2.7-5.5,6.3-5.5c3.6,0,6.2,2.3,6.2,5.5S317.6,621.8,314.1,621.8z
		 M314.1,619.6c2.1,0,3.6-1.3,3.6-3.4c0-2-1.5-3.3-3.6-3.3s-3.6,1.3-3.6,3.3C310.4,618.3,311.9,619.6,314.1,619.6z M323.3,630.4h3.3
		v2.1h-16.2v-2.1h3.3v-4.5h-3.1v-2.1h15.7v2.1h-3L323.3,630.4L323.3,630.4z M316.4,630.4h4.3v-4.5h-4.3V630.4z M329.2,614.9v2.2
		h-3.3v5.5h-2.7v-13.2h2.7v5.5H329.2z"/>
	<path class="st0" d="M352.2,627.7v2.2h-21.3v-2.2H352.2z M350.1,617.4c0,4-3.7,6.6-8.6,6.6s-8.6-2.6-8.6-6.6s3.7-6.6,8.6-6.6
		C346.4,610.7,350.1,613.4,350.1,617.4z M335.5,617.4c0,2.7,2.5,4.4,6,4.4s6-1.7,6-4.4s-2.6-4.4-6-4.4
		C338,612.9,335.5,614.6,335.5,617.4z"/>
	<path class="st0" d="M375.6,627.9v2.2h-21.3v-2.2h9.3v-4h-6.7v-7.6h13.5v-3.1h-13.6V611H373v7.4h-13.5v3.3h14.1v2.2h-7.3v4H375.6z"
		/>
	<path class="st0" d="M399,627.9v2.2h-21.3v-2.2h9.3v-5.5h-6.7v-11.2h16.1v2.2H383v6.8h13.6v2.2h-6.9v5.5H399z"/>
	<path class="st0" d="M419.2,610h2.5v21.8h-2.5v-7.9h-3.8v-2.2h3.8V618h-3.4c-1.1,4-3.6,7.4-8,10l-1.5-1.9c4.8-2.9,7.2-6.8,7.6-11.6
		h-6.4v-2.2h9.1c0,1.2-0.1,2.4-0.3,3.5h3V610H419.2z M426.5,609.4v23.5h-2.6v-23.5H426.5z"/>
	<path class="st0" d="M451.1,621v2.2h-21.3V621h9.3v-3.4h2.7v3.4H451.1z M448.8,618.9c-3.8-0.6-6.9-2.3-8.4-4.9
		c-1.5,2.5-4.6,4.3-8.4,4.9l-1-2.1c4.6-0.6,8-3.3,8-6.2v-0.9h2.8v0.9c0,3,3.3,5.6,8,6.2L448.8,618.9z M432.2,625.2h16.3v7.7h-2.7
		v-5.6h-13.6L432.2,625.2L432.2,625.2z"/>
	<path class="st0" d="M462,624.8c3.2,0,6.6-0.3,10.1-1l0.3,2.2c-4,0.8-7.6,1-11.2,1h-2v-15.3h2.7v13.1H462z M480.3,620.8h-3.6v12.1
		H474v-23.5h2.7v9.2h3.6L480.3,620.8L480.3,620.8z"/>
	<path class="st0" d="M494.2,619.4c0,5.1-2.5,8.3-6,8.3s-6-3.2-6-8.3s2.5-8.3,6-8.3S494.2,614.3,494.2,619.4z M491.7,619.4
		c0-3.7-1.4-5.9-3.5-5.9s-3.5,2.2-3.5,5.9s1.4,5.9,3.5,5.9C490.2,625.3,491.7,623.1,491.7,619.4z M503.8,620.8h-3.7v12.1h-2.7v-23.5
		h2.7v9.2h3.7V620.8z"/>
	<path class="st0" d="M517.3,610.4c0,6.1-4.1,9.9-11,11.4l-1-2.2c5.6-1.2,8.7-3.8,9-7h-8v-2.2H517.3z M511.2,630.5h13.3v2.2h-15.9
		v-6.3H521v-2h-12.5v-2.2h15.2v6.2h-12.5V630.5z M527,614.4v2.2h-3.3v4.7H521v-11.9h2.7v5H527z"/>
	<path class="st0" d="M546.1,611.2c0,6.2-3.7,10.5-10.6,12.7l-1.1-2.1c5.4-1.7,8.4-4.7,8.8-8.4h-7.7v-2.2H546.1z M547.1,624.2
		c0,3.1,3.1,5.7,7.6,6.5l-1.1,2.1c-3.6-0.7-6.4-2.4-7.9-4.9c-1.4,2.5-4.3,4.3-7.9,5l-1-2.1c4.5-0.8,7.6-3.4,7.6-6.5v-0.9h2.7
		L547.1,624.2L547.1,624.2z M550.9,618h-4.6v-2.2h4.6v-6.4h2.7v15.8h-2.7V618z"/>
	<path class="st0" d="M570.4,615.9c0,3.2-2.6,5.5-6.2,5.5c-3.6,0-6.2-2.2-6.2-5.5c0-3.2,2.7-5.5,6.2-5.5
		C567.8,610.5,570.4,612.7,570.4,615.9z M560.6,615.9c0,2,1.5,3.3,3.6,3.3s3.6-1.3,3.6-3.3s-1.5-3.3-3.6-3.3
		C562,612.7,560.6,614,560.6,615.9z M564.1,623.1v2.6h10v-2.6h2.7v9.5h-15.3v-9.5H564.1z M564.1,630.4h10v-2.7h-10V630.4z
		 M576.8,609.4V622h-2.7v-12.6H576.8z"/>
	<path class="st0" d="M584.9,624.7c3.3,0,6.8-0.3,10.5-1.1l0.3,2.2c-4,0.8-7.8,1.1-11.5,1.1h-2v-15.3h2.7V624.7z M600.3,609.4v23.5
		h-2.7v-23.5H600.3z"/>
	<path class="st0" d="M607.9,624.9c3.8,0,6.7-0.2,9.9-0.8l0.3,2.2c-3.6,0.7-6.7,0.8-11,0.8h-1.9v-15.5h10.9v2.2h-8.2V624.9z
		 M626.1,620.6h-3.7v12.3h-2.7v-23.5h2.7v9h3.7V620.6z"/>
	<path class="st0" d="M628.2,629.1c0-1.2,0.9-2.1,2-2.1s2,0.9,2,2.1s-0.9,2.1-2,2.1S628.2,630.4,628.2,629.1z"/>
</g>
</svg>
