<svg xmlns="http://www.w3.org/2000/svg" viewBox="0 0 666 215.34"><defs><style>.cls-1{fill:#25aae1;}.cls-2{fill:#0f75bc;}.cls-3{fill:#387471;}.cls-4{fill:#1f9048;}</style></defs><g id="movie"><path class="cls-1" d="M107.35,190.86A58,58,0,0,1,73,202.17c-32.91,0-59.19-26.33-59.82-59.94C12.65,113.6,42.25,69.88,63.86,38c3.19-4.71,6.28-9.27,9.13-13.58,2.86,4.31,6,8.87,9.14,13.59,8.73,12.9,18.75,27.73,27.58,42.7,2.43-4.32,5-8.64,7.62-12.93-7.87-12.85-16.4-25.48-24.3-37.15-5.35-7.9-10.4-15.36-14.48-21.8L73,0,67.43,8.79C63.36,15.23,58.31,22.69,53,30.58,29.1,65.82-.59,109.67,0,142.48c.77,40.85,32.83,72.86,73,72.86A71.13,71.13,0,0,0,117.06,200,73.13,73.13,0,0,1,107.35,190.86Z"/><path class="cls-1" d="M51.2,171.6a28.3,28.3,0,0,1-6.82-6.5,27.79,27.79,0,0,1-4.3-8.5,31.17,31.17,0,0,1-1.31-8.4l-9.31.17a39.58,39.58,0,0,0,1.71,10.95c5.06,16.53,20.44,27.22,39.19,27.22v-9.32A36.47,36.47,0,0,1,60,175.76,31.45,31.45,0,0,1,51.2,171.6Z"/><path class="cls-2" d="M196,190.85a58.17,58.17,0,0,1-27.77,10.93V34.19L170.81,38c8.73,12.9,18.75,27.73,27.58,42.7,2.43-4.32,5-8.64,7.62-12.93-7.87-12.85-16.4-25.48-24.3-37.15-5.35-7.9-10.4-15.36-14.48-21.8L161.67,0l-5.56,8.79C152,15.23,147,22.69,141.64,30.58c-7.91,11.68-16.44,24.3-24.31,37.16-2.63,4.29-5.19,8.61-7.62,12.93-12.25,21.76-21.36,43.5-21,61.81a74.77,74.77,0,0,0,18.66,48.38,73.13,73.13,0,0,0,9.71,9.16,72.11,72.11,0,0,0,44.61,15.32A71.13,71.13,0,0,0,205.74,200,72.68,72.68,0,0,1,196,190.85Zm-40.93,10.94c-29.76-3.24-52.65-28.22-53.25-59.56-.52-28.63,29.09-72.35,50.7-104.27l2.55-3.77Z"/><path class="cls-3" d="M284.69,190.85a58.09,58.09,0,0,1-27.76,10.93V172.43l11.72-11.72a77.52,77.52,0,0,1-2.47-16.15l-9.25,9.26V34.19L259.49,38c8.74,12.91,18.75,27.74,27.57,42.71,2.43-4.32,5-8.64,7.63-12.94-7.87-12.85-16.4-25.48-24.3-37.15C265,22.69,260,15.23,255.91,8.79L250.35,0l-5.56,8.79c-4.08,6.44-9.13,13.9-14.48,21.8-7.9,11.67-16.43,24.3-24.3,37.15-2.63,4.29-5.19,8.61-7.62,12.93-12.25,21.76-21.36,43.5-21,61.81A74.73,74.73,0,0,0,196,190.85a72.19,72.19,0,0,0,54.33,24.49A71.13,71.13,0,0,0,294.42,200,72.76,72.76,0,0,1,284.69,190.85Zm-40.92,10.94c-29.77-3.24-52.65-28.22-53.25-59.56-.11-6.06,1.19-12.82,3.42-20l49.83,49.83Zm0-48.32L199,108.73C209.31,85.15,227,59,241.21,38l2.56-3.78Z"/><path class="cls-4" d="M344.59,8.79,339,0l-5.56,8.79c-4.08,6.44-9.13,13.9-14.48,21.8-7.9,11.67-16.43,24.3-24.3,37.15-2.64,4.3-5.2,8.62-7.63,12.94-12.25,21.76-21.35,43.5-21,61.8,0,.7.11,1.38.14,2.08a77.52,77.52,0,0,0,2.47,16.15,73.87,73.87,0,0,0,16,30.14A72.28,72.28,0,0,0,339,215.34c39.38,0,71.44-32,73-72.87.6-32.8-29.09-76.65-52.95-111.89C353.71,22.69,348.66,15.23,344.59,8.79Zm-12.15,193c-29.76-3.24-52.65-28.22-53.24-59.56-.11-6.06,1.19-12.82,3.42-20l49.82,49.83Zm0-48.32-44.73-44.73a296,296,0,0,1,19.67-36.46l25.06,33Zm0-69.93L314.9,60.43C320,52.57,325.14,45,329.89,38l2.55-3.78Zm66.42,58.56c-1.19,31.36-24.06,56.37-53.25,59.68V172.43l49.93-49.93C397.7,129.52,399,136.16,398.86,142.1ZM390.46,109l-44.85,44.86V105.48l25.2-33C378.34,84.68,385.33,97.14,390.46,109ZM345.61,83.81V34.19L348.16,38c4.79,7.08,10,14.75,15.14,22.7Z"/><path d="M556.94,88.21c5.45,0,9.39,4,9.57,9.71l.06,1.74h9.36l-.07-1.86a20.43,20.43,0,0,0-.65-4.83A18.92,18.92,0,0,0,538,97.86v19.07c0,10.43,8.49,17.48,18.93,17.48,8.57,0,16.08-4.33,18.28-12.62a20.41,20.41,0,0,0,.64-4.79l.07-1.86h-9.36l-.06,1.73c-.18,5.72-4.12,9.71-9.57,9.71a9.66,9.66,0,0,1-9.65-9.65V97.86A9.66,9.66,0,0,1,556.94,88.21Z"/><polygon points="531.07 55.95 504.95 55.95 504.95 10.25 495.68 10.25 495.68 65.22 531.07 65.22 531.07 55.95"/><polygon points="639.13 125.61 639.13 112.07 658.25 112.07 658.25 102.72 639.13 102.72 639.13 89.18 664.54 89.18 664.54 79.91 629.85 79.91 629.85 134.88 665.45 134.88 665.45 125.61 639.13 125.61"/><path d="M487.06,186.75a18.32,18.32,0,0,1-36,4.74,16.06,16.06,0,0,1-.63-4.74h9.17a9.28,9.28,0,0,0,9.16,9.17,9.18,9.18,0,0,0,9.17-9.17V149.54h9.16Z"/><path d="M546.13,204.53H537l18.33-55h9.16l18.34,55h-9.17l-3.08-9.16H549.21Zm6.09-18.33h15.33l-7.67-22.91Z"/><path d="M616.72,186.2V149.54h9.17v55h-9.17l-18.33-36.66v36.66h-9.17v-55h9.17Z"/><path d="M649.41,158.15a6.56,6.56,0,0,0-6.88,6.48,5.82,5.82,0,0,0,3.48,5.61l10.43,5.06c5.93,2.84,9,7.19,9,13.9a15.91,15.91,0,0,1-16.2,15.89c-7.19,0-13.36-4.43-16.44-11.38l8.62-3.48c1.81,3.79,4.58,5.69,8,5.69,4,0,6.87-2.76,6.87-6.56,0-3.24-1.34-4.58-3.48-5.61l-10.43-5.06c-5.69-2.76-9-7.26-9-13.82A16,16,0,0,1,649.56,149c7.35,0,13.36,4.11,16.44,11.38l-8.53,3.48Q654.62,158.16,649.41,158.15Z"/><path d="M486.35,49.18a15.35,15.35,0,0,0-5.75-11.45,15.63,15.63,0,0,0,4.85-11.44,16,16,0,0,0-16-16H450.4v55h20A16,16,0,0,0,486.35,49.18ZM459.68,19.52h9.65a6.78,6.78,0,1,1,0,13.55h-9.65Zm0,36.43V42.41h10.56a6.77,6.77,0,1,1,0,13.54Z"/><path d="M556.91,66.31a18.94,18.94,0,0,0,18.92-18.92V10.25h-9.28V47.39a9.65,9.65,0,1,1-19.29,0V10.25H538V47.39A18.94,18.94,0,0,0,556.91,66.31Z"/><polygon points="595.92 42.41 615.03 42.41 615.03 33.06 595.92 33.06 595.92 19.52 621.33 19.52 621.33 10.25 586.64 10.25 586.64 65.22 622.24 65.22 622.24 55.95 595.92 55.95 595.92 42.41"/><path d="M469.33,88.21c5.45,0,9.38,4,9.57,9.71l.06,1.74h9.36l-.07-1.86A20.43,20.43,0,0,0,487.6,93a18.92,18.92,0,0,0-37.2,4.89v19.07c0,10.43,8.49,17.48,18.93,17.48,8.57,0,16.08-4.33,18.28-12.62a20.41,20.41,0,0,0,.64-4.79l.07-1.86H479l-.06,1.73c-.19,5.72-4.12,9.71-9.57,9.71a9.66,9.66,0,0,1-9.65-9.65V97.86A9.66,9.66,0,0,1,469.33,88.21Z"/><polygon points="513.41 105.12 503.4 79.91 493.4 79.91 508.73 115.12 508.73 134.88 518.08 134.88 518.08 115.12 533.41 79.91 523.41 79.91 513.41 105.12"/><polygon points="595.92 79.91 586.64 79.91 586.64 134.88 622.03 134.88 622.03 125.61 595.92 125.61 595.92 79.91"/><polygon points="504.92 195.26 504.92 181.72 524.03 181.72 524.03 172.37 504.92 172.37 504.92 158.83 530.33 158.83 530.33 149.56 495.64 149.56 495.64 204.53 531.24 204.53 531.24 195.26 504.92 195.26"/></g></svg>