<svg xmlns="http://www.w3.org/2000/svg" viewBox="0 0 1084 350.49"><defs><style>.cls-1{fill:#25aae1;}.cls-2{fill:#0f75bc;}.cls-3{fill:#387471;}.cls-4{fill:#1f9048;}</style></defs><g id="レイヤー_2" data-name="レイヤー 2"><g id="MOVIE"><path class="cls-1" d="M174.72,310.65a94.27,94.27,0,0,1-55.91,18.41c-53.57,0-96.35-42.85-97.38-97.56-.85-46.6,47.34-117.76,82.51-169.71,5.2-7.67,10.22-15.09,14.87-22.1,4.64,7,9.67,14.43,14.87,22.11,14.21,21,30.51,45.13,44.88,69.49,4-7,8.13-14,12.41-21-12.81-20.91-26.69-41.46-39.56-60.46-8.7-12.86-16.92-25-23.55-35.48L118.81,0l-9,14.31C103.12,24.79,94.91,36.93,86.2,49.78,47.37,107.13-1,178.5,0,231.9c1.26,66.5,53.44,118.59,118.8,118.59a115.67,115.67,0,0,0,71.72-24.94A117.85,117.85,0,0,1,174.72,310.65Z"/><path class="cls-1" d="M83.33,279.31a46.31,46.31,0,0,1-11.09-10.58,45,45,0,0,1-7-13.84,50.46,50.46,0,0,1-2.14-13.68l-15.16.28a65.43,65.43,0,0,0,2.79,17.83C59,286.22,84,303.61,114.52,303.61V288.44a59.3,59.3,0,0,1-16.82-2.37A51.58,51.58,0,0,1,83.33,279.31Z"/><path class="cls-2" d="M319,310.64a94.69,94.69,0,0,1-45.19,17.78V55.64L278,61.8c14.22,21,30.52,45.13,44.89,69.49,4-7,8.13-14,12.41-21-12.81-20.91-26.7-41.46-39.56-60.46-8.7-12.85-16.92-25-23.56-35.48L263.14,0l-9,14.31c-6.64,10.48-14.85,22.62-23.55,35.47-12.87,19-26.75,39.55-39.57,60.47-4.28,7-8.45,14-12.41,21-19.94,35.43-34.75,70.82-34.21,100.61a121.71,121.71,0,0,0,30.37,78.75,117.62,117.62,0,0,0,88.42,39.84,115.7,115.7,0,0,0,71.73-24.94A118.12,118.12,0,0,1,319,310.64Zm-66.61,17.81c-48.45-5.28-85.7-45.95-86.66-96.95-.85-46.6,47.33-117.76,82.51-169.71l4.15-6.14Z"/><path class="cls-3" d="M463.37,310.64a94.59,94.59,0,0,1-45.18,17.78V280.65l19.07-19.08a124.86,124.86,0,0,1-4-26.28l-15.06,15.07V55.65l4.16,6.15c14.22,21,30.52,45.15,44.87,69.52,4-7,8.14-14.07,12.42-21.07C466.83,89.34,453,68.79,440.09,49.79c-8.71-12.85-16.93-25-23.56-35.48L407.47,0l-9.05,14.31c-6.63,10.49-14.85,22.63-23.55,35.48-12.87,19-26.75,39.55-39.56,60.46-4.28,7-8.45,14-12.41,21C303,166.72,288.14,202.11,288.69,231.9A121.69,121.69,0,0,0,319,310.64a117.73,117.73,0,0,0,88.43,39.85,115.7,115.7,0,0,0,71.73-24.94A118.73,118.73,0,0,1,463.37,310.64Zm-66.61,17.81c-48.44-5.28-85.69-45.95-86.66-96.95-.18-9.86,1.94-20.87,5.56-32.52l81.1,81.11Zm0-78.66L324,177C340.67,138.59,369.42,96,392.6,61.8c1.42-2.09,2.78-4.11,4.16-6.16Z"/><path class="cls-4" d="M560.86,14.31,551.81,0l-9,14.31C536.12,24.8,527.9,36.94,519.2,49.79c-12.87,19-26.75,39.55-39.56,60.46-4.28,7-8.46,14-12.42,21.07-19.93,35.41-34.74,70.79-34.2,100.58,0,1.15.17,2.25.23,3.39a124.86,124.86,0,0,0,4,26.28,120.48,120.48,0,0,0,26.11,49.07,118.73,118.73,0,0,0,15.83,14.91,117.36,117.36,0,0,0,72.61,24.94c64.1,0,116.28-52,118.79-118.6,1-53.39-47.36-124.76-86.19-182.11C575.71,36.93,567.49,24.79,560.86,14.31ZM541.1,328.45c-48.45-5.28-85.7-45.95-86.66-96.95-.18-9.86,1.93-20.87,5.56-32.51l81.1,81.1Zm0-78.66L468.29,177c8.39-19.26,19.76-39.54,32-59.33l40.81,53.76Zm0-113.81L512.54,98.36c8.32-12.79,16.67-25.16,24.4-36.56l4.16-6.16Zm108.09,95.31c-1.93,51-39.15,91.75-86.67,97.13V280.65l81.27-81.27C647.31,210.82,649.37,221.61,649.19,231.29Zm-13.67-53.94-73,73V171.69l41-53.69C615.8,137.82,627.17,158.11,635.52,177.35Zm-73-40.95V55.65l4.15,6.14c7.8,11.52,16.24,24,24.64,36.94Z"/><path d="M906.49,143.58c8.87,0,15.28,6.5,15.58,15.8l.1,2.82H937.4l-.12-3a32.54,32.54,0,0,0-1-7.85,30.79,30.79,0,0,0-60.54,7.95v31c0,17,13.82,28.45,30.8,28.45,14,0,26.18-7.05,29.75-20.53a32.58,32.58,0,0,0,1-7.81l.12-3H922.17l-.1,2.82c-.3,9.31-6.71,15.81-15.58,15.81a15.73,15.73,0,0,1-15.71-15.71v-31A15.72,15.72,0,0,1,906.49,143.58Z"/><polygon points="864.38 91.07 821.88 91.07 821.88 16.69 806.78 16.69 806.78 106.16 864.38 106.16 864.38 91.07"/><polygon points="1040.26 204.45 1040.26 182.41 1071.38 182.41 1071.38 167.19 1040.26 167.19 1040.26 145.15 1081.63 145.15 1081.63 130.06 1025.17 130.06 1025.17 219.54 1083.1 219.54 1083.1 204.45 1040.26 204.45"/><path d="M792.76,304a29.83,29.83,0,0,1-58.65,7.71,26,26,0,0,1-1-7.71H748a15.1,15.1,0,0,0,14.92,14.92A14.93,14.93,0,0,0,777.84,304V243.39h14.92Z"/><path d="M888.9,332.9H874l29.84-89.51h14.92l29.83,89.51H933.65l-5-14.91H893.91Zm9.9-29.83h25l-12.47-37.3Z"/><path d="M1003.79,303.07V243.39h14.92V332.9h-14.92L974,273.23V332.9H959V243.39H974Z"/><path d="M1057,257.41c-6.3,0-11.19,4.5-11.19,10.55a9.47,9.47,0,0,0,5.66,9.13l17,8.23c9.64,4.63,14.66,11.7,14.66,22.63,0,14.41-11.58,25.85-26.37,25.85-11.7,0-21.73-7.2-26.75-18.52l14-5.65c3,6.17,7.46,9.26,13,9.26,6.56,0,11.19-4.51,11.19-10.68,0-5.27-2.19-7.46-5.66-9.13l-17-8.23c-9.26-4.5-14.67-11.83-14.67-22.51a26.05,26.05,0,0,1,26.37-25.85c12,0,21.73,6.69,26.75,18.52l-13.89,5.66Q1065.47,257.41,1057,257.41Z"/><path d="M791.6,80.05c0-7.27-3.92-14.07-9.37-18.65a25.38,25.38,0,0,0,7.9-18.6,26.08,26.08,0,0,0-26-26.11h-31v89.47h32.53A26.08,26.08,0,0,0,791.6,80.05ZM748.18,31.78h15.71a11,11,0,1,1,0,22H748.18Zm0,59.29V69h17.19a11,11,0,1,1,0,22Z"/><path d="M906.44,107.93a30.83,30.83,0,0,0,30.8-30.79V16.68h-15.1V77.14a15.71,15.71,0,0,1-31.41,0V16.68H875.64V77.14A30.82,30.82,0,0,0,906.44,107.93Z"/><polygon points="969.93 69.03 1001.04 69.03 1001.04 53.82 969.93 53.82 969.93 31.78 1011.29 31.78 1011.29 16.69 954.83 16.69 954.83 106.16 1012.77 106.16 1012.77 91.07 969.93 91.07 969.93 69.03"/><path d="M763.89,143.58c8.87,0,15.28,6.5,15.58,15.8l.1,2.82H794.8l-.12-3a32.54,32.54,0,0,0-1-7.85,30.8,30.8,0,0,0-60.55,7.95v31c0,17,13.82,28.45,30.81,28.45,14,0,26.18-7.05,29.75-20.53a32.58,32.58,0,0,0,1-7.81l.12-3H779.57l-.1,2.82c-.3,9.31-6.71,15.81-15.58,15.81a15.73,15.73,0,0,1-15.71-15.71v-31A15.72,15.72,0,0,1,763.89,143.58Z"/><polygon points="835.64 171.1 819.35 130.06 803.08 130.06 828.03 187.37 828.03 219.54 843.25 219.54 843.25 187.37 868.2 130.06 851.92 130.06 835.64 171.1"/><polygon points="969.93 130.06 954.83 130.06 954.83 219.54 1012.43 219.54 1012.43 204.45 969.93 204.45 969.93 130.06"/><polygon points="821.82 317.81 821.82 295.77 852.93 295.77 852.93 280.56 821.82 280.56 821.82 258.52 863.18 258.52 863.18 243.43 806.72 243.43 806.72 332.9 864.65 332.9 864.65 317.81 821.82 317.81"/></g></g></svg>