<?xml version="1.0" encoding="utf-8"?>
<!-- Generator: Adobe Illustrator 21.0.0, SVG Export Plug-In . SVG Version: 6.00 Build 0)  -->
<svg version="1.1" id="레이어_1" xmlns="http://www.w3.org/2000/svg" xmlns:xlink="http://www.w3.org/1999/xlink" x="0px"
	 y="0px" viewBox="0 0 1083.8 541.4" style="enable-background:new 0 0 1083.8 541.4;" xml:space="preserve">
<style type="text/css">
	.st0{fill:#0F75BC;}
</style>
<g>
	<path d="M52.1,53.4C34.9,56.6,15.4,57,1.3,57.1L0,48c5.8,0,12.6,0,19.7-0.3v-4.8c-8.8-1.4-14.3-5.8-14.3-12.3c0-8,8-12.9,20.3-12.9
		c12.1,0,20.2,4.9,20.2,12.9c0,6.5-5.5,11-14.2,12.3v4.2c6.8-0.5,13.3-1,19.6-1.9L52.1,53.4z M49.1,15.6H2.1V7.1h17.6V0h11.9v7.1
		h17.5V15.6z M23.4,72.4h46.1v9.4h-58V61h11.9V72.4z M25.6,35.5c5.6,0,8.9-1.7,8.9-4.9c0-3.2-3.3-4.9-8.9-4.9c-5.6,0-9,1.7-9,4.9
		C16.6,33.7,20.1,35.5,25.6,35.5z M77.1,27.4v9.7H66.7v27.9H54.8V0.3h11.9v27.2H77.1z"/>
	<path d="M144.3,22.9c-5.1,13-16.7,22-35,27.1l-4.6-9.4c18.9-5,28-13.9,29.5-25.2h-25V5.9h38c0,2.6-0.2,5.1-0.5,7.6h14.8V0.4h11.9
		v47.7h-11.9v-7.9h-18.3v-9.5h18.3v-7.6H144.3z M173.9,66c0,10.3-11.1,16.8-27.9,16.8c-16.9,0-28-6.5-28-16.8
		c0-10.3,11.1-16.8,28-16.8C162.8,49.1,173.9,55.6,173.9,66z M162.2,66c0-5-6-7.6-16.2-7.6c-10.3,0-16.3,2.6-16.3,7.6
		c0,5,6,7.6,16.3,7.6C156.1,73.6,162.2,71,162.2,66z"/>
	<path d="M253.3,51c-9.5-2.6-15.9-8.1-19.8-15c-3.7,7.6-10.3,13.6-20,16.4l-5.6-9.2c13.5-4,19.4-13.8,19.4-23.5v-0.4h-16.7V9.9h16.7
		V0.8h11.9v9.1h16.6v9.4h-16.6v0.4c0,9.1,6,18.4,19.5,22L253.3,51z M278,72.4v9.4h-57.2V55.7h11.9v16.6H278z M275.9,61h-12V0.4h12
		V61z"/>
	<path d="M341.2,59.2c6.4-0.4,12.8-0.8,18.7-1.7l0.9,8.5c-17.5,3.4-36.1,3.4-50.1,3.4l-1.4-9.6c5.9,0,12.8,0,20.1-0.2v-7
		c-8.6-1.7-14.3-7.4-14.3-14.9c0-9.4,8.4-15.7,20.2-15.7c11.9,0,20.2,6.3,20.2,15.7c0,7.6-5.7,13.2-14.3,14.9V59.2z M359.5,18.8
		h-48.8V9.4h18.5V0.7h11.9v8.7h18.4V18.8z M335.2,44.4c5.4,0,9-2.3,9-6.7s-3.6-6.7-9-6.7c-5.4,0-9,2.3-9,6.7S329.8,44.4,335.2,44.4z
		 M386.4,43.9H376v39.3h-11.9V0.4H376v33.7h10.3V43.9z"/>
	<path d="M457.4,47.4c-9.1-3-15.3-8.9-18.8-16.3c-3.7,8.1-10.2,14.8-19.8,17.9l-6-9.4c13.3-4.5,19.3-15,19.5-25.3H416V4.9h44.5v9.4
		h-16.1c0.2,9.4,5.9,19.4,18.7,23.8L457.4,47.4z M426,53.4h56.5v30h-11.9V62.8H426V53.4z M482.5,0.4v49.2h-11.9v-20h-12.2v-9.5h12.2
		V0.4H482.5z"/>
	<path d="M591.3,63.6v9.7h-75.1v-9.7H591.3z M584.6,28.5c0,14.4-13.5,23.9-31,23.9c-17.4,0-30.9-9.5-30.9-23.9
		c0-14.5,13.5-24,30.9-24C571.1,4.5,584.6,14,584.6,28.5z M534.4,28.5c0,8.8,8,14.2,19.3,14.2c11.3,0,19.3-5.4,19.3-14.2
		c0-9-8-14.3-19.3-14.3C542.4,14.2,534.4,19.5,534.4,28.5z"/>
	<path d="M694.3,64.4v9.7h-75.1v-9.7h31.5V52.1h-22.9V24h46.3v-8.9h-46.3V5.7h58v27.6h-46.2v9.3h48.1v9.5h-25.1v12.3H694.3z"/>
	<path d="M805,47.2h-39.5v-40H805V47.2z M786.7,72.4h44.5v9.4h-56.4V54.9h11.9V72.4z M793.3,16.6h-16.2v21.2h16.2V16.6z M839.2,24.3
		V34h-11v26.8h-11.9V0.4h11.9v23.9H839.2z"/>
	<path d="M941.1,41.3v9.4h-75v-9.4H941.1z M886.9,72.4h46.6v9.4H875V57h11.9V72.4z M932.8,34.6h-57.6V3.3h57v9.4H887v12.3h45.8V34.6
		z"/>
	<path d="M1055.4,50c-9.2-2.9-15.5-8.8-19.3-16.2c-3.7,8.1-10.3,14.5-20,17.6l-6-9.3c13.8-4.3,19.8-15.2,19.8-25.6v-1h-16.6V6.3
		h45.1v9.4H1042v1c0,9.7,6,19.9,19.4,24.3L1055.4,50z M1080.7,72.4v9.4h-57.2V54.9h11.9v17.5H1080.7z M1078.6,60.3h-12V0.4h12V60.3z
		"/>
</g>
<g>
	<path class="st0" d="M21.2,169.6h-5.1v7.7h-2.6v-7.7H8.4v7.7H5.8v-7.7h-5v-2.1h20.5L21.2,169.6z M2.9,160.6c0-3,3.3-5,8-5
		c4.7,0,8,1.9,8,5c0,3-3.2,5-8,5C6.2,165.6,2.9,163.6,2.9,160.6z M5.6,160.6c0,1.8,2.1,2.9,5.4,2.9c3.2,0,5.3-1.1,5.3-2.9
		c0-1.8-2.1-2.9-5.3-2.9C7.7,157.7,5.6,158.8,5.6,160.6z"/>
	<path class="st0" d="M28.3,169.4c3.2,0,6.6-0.3,10.1-1l0.3,2.1c-3.9,0.8-7.5,1.1-11,1.1h-1.9V157h2.5V169.4z M43,154.8v22.6h-2.6
		v-22.6H43z"/>
	<path class="st0" d="M68.3,163.8v2H48v-2h14.8c0.2-0.9,0.3-1.7,0.4-2.4l-12.9,0.6l-0.3-2l13.4-0.4c0-0.6,0-1.2,0-1.8H50.6v-2h15.3
		v1.8c0,1.8,0,3.7-0.5,6.2H68.3z M52.9,175.1h13.9v2H50.4v-5.8h13.1v-1.7H50.3v-2H66v5.6H52.9V175.1z"/>
	<path class="st0" d="M92,172.6v2.1H71.6v-2.1h8.9v-3.8h-6.4v-7.3h13v-3H74v-2.1h15.6v7.1h-13v3.1h13.5v2.1h-7v3.8H92z"/>
	<path class="st0" d="M115.6,166v2.1H95.2V166H115.6z M100.2,174.8h13.2v2.1H97.7v-6.6h2.6V174.8z M113.3,163.3H97.8v-7.8h2.6v5.7
		h12.9V163.3z"/>
	<path class="st0" d="M133.3,161.3c0,3.7,2.3,7.6,5.8,9.1l-1.4,2c-2.6-1.1-4.6-3.6-5.7-6.5c-1,3.1-3,5.8-5.7,7.1l-1.5-2
		c3.5-1.6,5.8-5.8,5.8-9.7v-2.1h-5V157h12.6v2.1h-5V161.3z M143.6,154.8v22.6H141v-22.6H143.6z"/>
	<path class="st0" d="M169,167.9h-9v9.4h-2.6v-9.4h-8.8v-2.1h14.7c0.6-3.1,0.6-5.5,0.6-7.6h-12.9v-2.1h15.4v2c0,2.1,0,4.5-0.6,7.7
		h3.1V167.9z"/>
	<path class="st0" d="M172.3,170.5c4,0,9.7,0,14.5-0.8l0.2,1.9c-5,0.9-10.4,1-14.4,1L172.3,170.5z M185.6,161.8
		c0,3.2-2.6,5.4-6.1,5.4s-6.1-2.2-6.1-5.4s2.6-5.4,6.1-5.4S185.6,158.6,185.6,161.8z M175.9,161.8c0,1.9,1.5,3.2,3.6,3.2
		c2.1,0,3.6-1.3,3.6-3.2c0-2-1.5-3.2-3.6-3.2C177.4,158.5,175.9,159.8,175.9,161.8z M190.8,154.7v22.6h-2.6v-22.6H190.8z"/>
	<path class="st0" d="M213.8,156.9v14.9h-10.6v-14.9H213.8z M205.8,158.9v10.8h5.5v-10.8H205.8z M220.6,154.7v22.6H218v-22.6H220.6z
		"/>
	<path class="st0" d="M228.8,170c2.3,0,4.5-0.1,7.1-0.6l0.2,2.1c-3,0.5-5.5,0.6-8.3,0.6h-1.5v-8.8h5.9v-4.1h-6v-2.1h8.5v8.3h-5.9
		V170z M244.9,154.8v22.5h-2.4v-11.7h-2.7v10.6h-2.4v-21h2.4v8.3h2.7v-8.7H244.9z"/>
	<path class="st0" d="M269.7,165.1v1.9h-20.5v-1.9H269.7z M254.2,175.3h13.7v1.8h-16.2v-5.2h13v-1.6h-13v-1.8h15.6v5h-13V175.3z
		 M264.5,157.1h-12.8v-1.8h15.3v5h-12.7v1.6h13.1v1.8h-15.7v-5.1h12.7V157.1z"/>
	<path class="st0" d="M293.8,168c-2,0.4-4,0.6-6,0.8v7.9h-2.6v-7.8c-2.1,0.1-4.1,0.1-5.9,0.1l-0.3-2.1c4.1,0,9.7-0.1,14.6-0.8
		L293.8,168z M280.6,160.5c0-2.8,2.5-4.7,5.8-4.7s5.8,1.9,5.8,4.7c0,2.8-2.4,4.7-5.8,4.7S280.6,163.3,280.6,160.5z M283.1,160.5
		c0,1.6,1.4,2.6,3.3,2.6c2,0,3.3-1,3.3-2.6c0-1.6-1.4-2.6-3.3-2.6C284.5,157.9,283.1,158.9,283.1,160.5z M297.7,154.8v22.6h-2.6
		v-22.6H297.7z"/>
	<path class="st0" d="M309.4,158.4h4.2v2.1h-11v-2.1h4.3v-3h2.5V158.4z M313,167c0,3.1-2,5.2-4.9,5.2s-4.9-2.1-4.9-5.2
		c0-3.1,2-5.2,4.9-5.2S313,163.9,313,167z M310.8,167c0-1.9-1.1-3.1-2.6-3.1s-2.6,1.2-2.6,3.1s1.1,3.1,2.6,3.1
		S310.8,168.9,310.8,167z M321.9,154.8v22.6h-2.4v-11.1H317v10h-2.4v-21h2.4v8.9h2.4v-9.3H321.9z"/>
	<path class="st0" d="M340.8,161.3c0,3.7,2.3,7.6,5.8,9.1l-1.4,2c-2.6-1.1-4.6-3.6-5.7-6.5c-1,3.1-3,5.8-5.7,7.1l-1.5-2
		c3.5-1.6,5.8-5.8,5.8-9.7v-2.1h-5V157h12.6v2.1h-5V161.3z M351,154.8v22.6h-2.6v-22.6H351z"/>
	<path class="st0" d="M376.5,165.9v2.1h-20.5v-2.1h8.9v-3.2h2.6v3.2H376.5z M374.3,163.9c-3.6-0.6-6.6-2.2-8.1-4.7
		c-1.4,2.4-4.4,4.1-8.1,4.7l-1-2c4.4-0.6,7.7-3.1,7.7-5.9v-0.8h2.6v0.8c0,2.8,3.2,5.3,7.7,5.9L374.3,163.9z M358.3,169.9H374v7.4
		h-2.6V172h-13.1V169.9z"/>
	<path class="st0" d="M391.2,157.1c0,6.5-2.8,12.3-10.2,16.1l-1.4-2c5.5-2.8,8.5-6.8,9-12h-7.9v-2.1H391.2z M400.6,165.8h-3.4v11.5
		h-2.6v-22.6h2.6v8.9h3.4V165.8z"/>
	<path class="st0" d="M423.7,165.1v2.1h-20.4v-2.1H423.7z M421.2,173.1c0,2.6-2.9,4.1-7.8,4.1c-4.8,0-7.8-1.5-7.8-4.1
		c0-2.6,2.9-4.2,7.8-4.2C418.3,169,421.2,170.5,421.2,173.1z M421.4,162.8H406v-7.6h2.6v5.6h12.8V162.8z M418.6,173.1
		c0-1.4-1.9-2.1-5.2-2.1c-3.3,0-5.1,0.7-5.1,2.1c0,1.4,1.8,2.1,5.1,2.1C416.7,175.3,418.6,174.5,418.6,173.1z"/>
	<path class="st0" d="M440.2,159.4h-13.3v-2h5.4v-2.6h2.6v2.6h5.4V159.4z M433.6,169c-3.2,0-5.5-1.7-5.5-4.3c0-2.5,2.2-4.3,5.5-4.3
		c3.2,0,5.5,1.7,5.5,4.3C439,167.3,436.8,169,433.6,169z M432.8,174.8h12.6v2.1h-15.2v-6.5h2.6V174.8z M433.6,167c1.8,0,3-0.9,3-2.3
		c0-1.4-1.2-2.3-3-2.3c-1.8,0-3,0.8-3,2.3C430.6,166.1,431.8,167,433.6,167z M447.7,162v2.1h-3.2v7.6h-2.6v-16.9h2.6v7.2H447.7z"/>
	<path class="st0" d="M469.3,168.2c-2.6-0.9-4.5-2.6-5.5-4.8c-1,2.4-2.9,4.3-5.6,5.2l-1.4-2c3.6-1.2,5.6-4.1,5.6-7.2v-0.8h-4.9v-2.1
		h12.3v2.1h-4.8v0.8c0,2.9,2,5.6,5.5,6.7L469.3,168.2z M475.9,174.8v2.1h-15.4v-7.2h2.6v5.1H475.9z M475.3,171.2h-2.6v-16.4h2.6
		V171.2z"/>
	<path class="st0" d="M500.7,164.2v2h-20.4v-2H500.7z M482.5,159c0-2.5,3-3.9,8-3.9c5,0,8,1.4,8,3.9c0,2.5-3,3.9-8,3.9
		C485.4,162.9,482.5,161.5,482.5,159z M485.3,175.2h13.5v2h-16v-5.7h12.9v-1.6h-12.9v-1.9h15.4v5.4h-12.8V175.2z M485.1,159
		c0,1.3,1.9,1.9,5.4,1.9c3.5,0,5.4-0.7,5.4-1.9c0-1.3-1.9-2-5.4-2C487,157,485.1,157.7,485.1,159z"/>
	<path class="st0" d="M521.5,167.4h-10.6v-10.7h10.6V167.4z M518.9,158.8h-5.5v6.5h5.5V158.8z M516,174.8h12.6v2.1h-15.2v-7.2h2.6
		V174.8z M530.9,161.5v2.1h-3.2v7.7h-2.6v-16.5h2.6v6.7H530.9z"/>
	<path class="st0" d="M554.2,164.8v2.1h-20.4v-2.1H554.2z M549,168.4h2.5v8.6h-15.3v-8.6h2.6v2.1H549V168.4z M551.9,162.8h-15.6
		v-7.4h15.4v2.1h-12.8v3.2h13V162.8z M549,172.6h-10.2v2.3H549V172.6z"/>
	<path class="st0" d="M561.2,169.4c3.2,0,6.6-0.3,10.1-1l0.3,2.1c-3.9,0.8-7.5,1.1-11,1.1h-1.9V157h2.5V169.4z M576,154.8v22.6h-2.6
		v-22.6H576z"/>
	<path class="st0" d="M584.4,169.7c3.6,0,6.4-0.2,9.5-0.7l0.3,2.1c-3.4,0.6-6.5,0.8-10.5,0.8h-1.8v-14.9h10.5v2.1h-7.9V169.7z
		 M601.9,165.6h-3.5v11.8h-2.6v-22.6h2.6v8.7h3.5V165.6z"/>
	<path class="st0" d="M605.1,173.7c0-1.2,0.8-2,1.9-2c1.1,0,1.9,0.9,1.9,2c0,1.2-0.8,2-1.9,2C605.9,175.7,605.1,174.9,605.1,173.7z"
		/>
	<path class="st0" d="M639.3,169.6h-5.1v7.7h-2.6v-7.7h-5.1v7.7h-2.6v-7.7h-5v-2.1h20.5L639.3,169.6z M620.9,160.6c0-3,3.3-5,8-5
		c4.7,0,8,1.9,8,5c0,3-3.2,5-8,5C624.2,165.6,620.9,163.6,620.9,160.6z M623.6,160.6c0,1.8,2.1,2.9,5.4,2.9c3.2,0,5.3-1.1,5.3-2.9
		c0-1.8-2.1-2.9-5.3-2.9C625.7,157.7,623.6,158.8,623.6,160.6z"/>
	<path class="st0" d="M646.3,169.4c3.2,0,6.6-0.3,10.1-1l0.3,2.1c-3.9,0.8-7.5,1.1-11,1.1h-1.9V157h2.5V169.4z M661,154.8v22.6h-2.6
		v-22.6H661z"/>
	<path class="st0" d="M686.4,163.8v2H666v-2h14.8c0.2-0.9,0.3-1.7,0.4-2.4l-12.9,0.6l-0.3-2l13.4-0.4c0-0.6,0-1.2,0-1.8h-12.8v-2
		h15.3v1.8c0,1.8,0,3.7-0.5,6.2H686.4z M670.9,175.1h13.9v2h-16.5v-5.8h13.1v-1.7h-13.2v-2h15.7v5.6h-13.2V175.1z"/>
	<path class="st0" d="M710,172.6v2.1h-20.4v-2.1h8.9v-3.8h-6.4v-7.3h13v-3h-13v-2.1h15.6v7.1h-13v3.1h13.5v2.1h-7v3.8H710z"/>
	<path class="st0" d="M713.3,170.5c4,0,9.7,0,14.5-0.8l0.2,1.9c-5,0.9-10.4,1-14.4,1L713.3,170.5z M726.6,161.8
		c0,3.2-2.6,5.4-6.1,5.4s-6.1-2.2-6.1-5.4s2.6-5.4,6.1-5.4S726.6,158.6,726.6,161.8z M716.9,161.8c0,1.9,1.5,3.2,3.6,3.2
		c2.1,0,3.6-1.3,3.6-3.2c0-2-1.5-3.2-3.6-3.2C718.4,158.5,716.9,159.8,716.9,161.8z M731.8,154.7v22.6h-2.6v-22.6H731.8z"/>
	<path class="st0" d="M751.3,161.3c0,3.7,2.3,7.6,5.8,9.1l-1.4,2c-2.6-1.1-4.6-3.6-5.7-6.5c-1,3.1-3,5.8-5.7,7.1l-1.5-2
		c3.5-1.6,5.8-5.8,5.8-9.7v-2.1h-5V157h12.6v2.1h-5V161.3z M761.6,154.8v22.6H759v-22.6H761.6z"/>
	<path class="st0" d="M787.1,165.9v2.1h-20.5v-2.1h8.9v-3.2h2.6v3.2H787.1z M784.9,163.9c-3.6-0.6-6.6-2.2-8.1-4.7
		c-1.4,2.4-4.4,4.1-8.1,4.7l-1-2c4.4-0.6,7.7-3.1,7.7-5.9v-0.8h2.6v0.8c0,2.8,3.2,5.3,7.7,5.9L784.9,163.9z M768.9,169.9h15.6v7.4
		h-2.6V172h-13.1V169.9z"/>
	<path class="st0" d="M801.8,157.1c0,6.5-2.8,12.3-10.2,16.1l-1.4-2c5.5-2.8,8.5-6.8,9-12h-7.9v-2.1H801.8z M811.1,165.8h-3.4v11.5
		h-2.6v-22.6h2.6v8.9h3.4V165.8z"/>
	<path class="st0" d="M834.2,165.1v2.1h-20.4v-2.1H834.2z M831.7,173.1c0,2.6-2.9,4.1-7.8,4.1c-4.8,0-7.8-1.5-7.8-4.1
		c0-2.6,2.9-4.2,7.8-4.2C828.8,169,831.7,170.5,831.7,173.1z M831.9,162.8h-15.4v-7.6h2.6v5.6h12.8V162.8z M829.1,173.1
		c0-1.4-1.9-2.1-5.2-2.1c-3.3,0-5.1,0.7-5.1,2.1c0,1.4,1.8,2.1,5.1,2.1C827.3,175.3,829.1,174.5,829.1,173.1z"/>
	<path class="st0" d="M850.8,159.4h-13.3v-2h5.4v-2.6h2.6v2.6h5.4V159.4z M844.1,169c-3.2,0-5.5-1.7-5.5-4.3c0-2.5,2.2-4.3,5.5-4.3
		c3.2,0,5.5,1.7,5.5,4.3C849.6,167.3,847.3,169,844.1,169z M843.3,174.8h12.6v2.1h-15.2v-6.5h2.6V174.8z M844.1,167
		c1.8,0,3-0.9,3-2.3c0-1.4-1.2-2.3-3-2.3c-1.8,0-3,0.8-3,2.3C841.1,166.1,842.3,167,844.1,167z M858.2,162v2.1H855v7.6h-2.6v-16.9
		h2.6v7.2H858.2z"/>
	<path class="st0" d="M879.9,168.2c-2.6-0.9-4.5-2.6-5.5-4.8c-1,2.4-2.9,4.3-5.6,5.2l-1.3-2c3.6-1.2,5.6-4.1,5.6-7.2v-0.8h-4.9v-2.1
		h12.3v2.1h-4.8v0.8c0,2.9,2,5.6,5.5,6.7L879.9,168.2z M886.5,174.8v2.1h-15.4v-7.2h2.6v5.1H886.5z M885.8,171.2h-2.6v-16.4h2.6
		V171.2z"/>
	<path class="st0" d="M911.2,166.5v2.1h-20.4v-2.1H911.2z M893,160c0-2.8,3.2-4.6,8-4.6c4.9,0,8,1.7,8,4.6c0,2.9-3.2,4.6-8,4.6
		C896.2,164.6,893,162.9,893,160z M896,174.8h13v2.1h-15.6v-6.6h2.6V174.8z M895.6,160c0,1.6,2.1,2.5,5.4,2.5c3.3,0,5.4-0.9,5.4-2.5
		c0-1.6-2.1-2.5-5.4-2.5C897.7,157.5,895.6,158.5,895.6,160z"/>
	<path class="st0" d="M941.1,172.6v2.1h-20.4v-2.1h8.9v-3.8h-6.4v-7.3h13v-3h-13v-2.1h15.6v7.1h-13v3.1h13.5v2.1h-7v3.8H941.1z"/>
	<path class="st0" d="M964.7,172.3v2.1h-20.4v-2.1H964.7z M962.7,167.9c-3.7-0.8-6.8-3.1-8.3-6.2c-1.5,3.1-4.6,5.4-8.3,6.2l-1.1-2.1
		c4.4-0.8,8.1-4.3,8.1-7.9v-1.7h2.7v1.7c0,3.6,3.6,7.1,8.1,7.9L962.7,167.9z"/>
	<path class="st0" d="M973.1,167.6c-3,0-5.1-2.3-5.1-5.6c0-3.3,2.1-5.6,5.1-5.6c3,0,5.2,2.3,5.2,5.6
		C978.3,165.3,976.1,167.6,973.1,167.6z M973.1,165.4c1.6,0,2.8-1.3,2.8-3.4c0-2-1.2-3.4-2.8-3.4c-1.6,0-2.8,1.3-2.8,3.4
		C970.3,164.1,971.5,165.4,973.1,165.4z M987.6,174.8v2.1H972v-7.4h2.6v5.3H987.6z M982.2,170.9h-2.4v-15.7h2.4v6h2.3v-6.4h2.4v16.9
		h-2.4v-8.3h-2.3V170.9z"/>
	<path class="st0" d="M1001.3,166.2c-2-0.7-3.4-2.2-4.2-3.9c-0.8,1.9-2.3,3.5-4.4,4.4l-1.3-1.9c2.9-1.1,4.4-3.7,4.4-6.1v-0.4h-3.9
		v-2.1h10v2.1h-3.6v0.4c0,2.3,1.4,4.6,4.2,5.7L1001.3,166.2z M1011.4,175.1v2h-15.8v-5.8h12.5v-1.7h-12.5v-2h15.1v5.6h-12.5v1.9
		H1011.4z M1003.8,159.7v-4.5h2.4v11.3h-2.4v-4.7h-2.9v-2.1H1003.8z M1010.6,166.7h-2.4v-11.9h2.4V166.7z"/>
	<path class="st0" d="M1018.2,169.8c2.4,0,4.6-0.1,7.2-0.6l0.2,2.1c-3,0.5-5.6,0.6-8.4,0.6h-1.5v-8.6h5.5v-4h-5.5v-2.1h8v8.2h-5.5
		V169.8z M1027.3,155.3h2.4v20.9h-2.4v-11.4h-2.5v-2.1h2.5V155.3z M1034.3,154.8v22.6h-2.4v-22.6H1034.3z"/>
	<path class="st0" d="M1059.1,172.3v2.1h-20.4v-2.1H1059.1z M1057.1,167.9c-3.7-0.8-6.8-3.1-8.3-6.2c-1.5,3.1-4.6,5.4-8.3,6.2
		l-1.1-2.1c4.4-0.8,8.1-4.3,8.1-7.9v-1.7h2.7v1.7c0,3.6,3.6,7.1,8.1,7.9L1057.1,167.9z"/>
	<path class="st0" d="M1074.6,155.2h2.4v21.1h-2.4v-10.8h-2.4c-0.2,4.4-2.1,7.1-4.8,7.1c-2.9,0-4.8-3.1-4.8-8s1.9-8,4.8-8
		c2.7,0,4.5,2.6,4.8,6.8h2.4V155.2z M1069.8,164.5c0-3.6-0.9-5.6-2.5-5.6s-2.5,2-2.5,5.6s1,5.6,2.5,5.6S1069.8,168.1,1069.8,164.5z
		 M1081.5,154.8v22.5h-2.4v-22.5H1081.5z"/>
	<path class="st0" d="M15.6,220c-2,0.4-4,0.6-6,0.8v7.9H7v-7.8C4.8,221,2.8,221,1.1,221l-0.3-2.1c4.1,0,9.7-0.1,14.6-0.8L15.6,220z
		 M2.3,212.5c0-2.8,2.5-4.7,5.8-4.7s5.8,1.9,5.8,4.7c0,2.8-2.4,4.7-5.8,4.7S2.3,215.3,2.3,212.5z M4.8,212.5c0,1.6,1.4,2.6,3.3,2.6
		c2,0,3.3-1,3.3-2.6c0-1.6-1.4-2.6-3.3-2.6C6.2,209.9,4.8,210.9,4.8,212.5z M19.4,206.8v22.6h-2.6v-22.6H19.4z"/>
	<path class="st0" d="M33.7,213.9c0,3.5,2.2,7.2,5.7,8.7l-1.4,2c-2.6-1.1-4.5-3.4-5.6-6.3c-1,3-3,5.4-5.6,6.6l-1.4-2
		c3.5-1.6,5.7-5.4,5.7-9.1v-1.3h-5v-2.1h5v-3.3h2.6v3.3h4.9v2.1h-4.9V213.9z M43.8,206.7v22.6h-2.6v-22.6H43.8z"/>
	<path class="st0" d="M62.9,211.4H49.6v-2H55v-2.6h2.6v2.6h5.4V211.4z M56.3,221c-3.2,0-5.5-1.7-5.5-4.3c0-2.5,2.2-4.3,5.5-4.3
		c3.2,0,5.5,1.7,5.5,4.3C61.7,219.3,59.5,221,56.3,221z M55.5,226.8h12.6v2.1H52.9v-6.5h2.6V226.8z M56.3,219c1.8,0,3-0.8,3-2.3
		s-1.2-2.3-3-2.3c-1.8,0-3,0.8-3,2.3S54.5,219,56.3,219z M70.4,214v2.1h-3.2v7.6h-2.6v-16.9h2.6v7.2H70.4z"/>
	<path class="st0" d="M93.6,220.2c-2.6-0.8-4.5-2.6-5.5-4.8c-1,2.4-2.9,4.3-5.6,5.2l-1.3-2c3.6-1.2,5.6-4.1,5.6-7.2v-0.8h-4.9v-2.1
		h12.3v2.1h-4.8v0.8c0,2.9,2,5.6,5.5,6.7L93.6,220.2z M100.2,226.8v2.1H84.9v-7.2h2.6v5.1H100.2z M99.6,223.2H97v-16.4h2.6V223.2z"
		/>
	<path class="st0" d="M124.8,216.4c0,4.9-2.4,8-5.8,8c-3.3,0-5.8-3.1-5.8-8c0-4.8,2.4-7.9,5.8-7.9
		C122.4,208.4,124.8,211.5,124.8,216.4z M115.7,216.4c0,3.5,1.4,5.7,3.3,5.7c2,0,3.3-2.1,3.3-5.7c0-3.5-1.4-5.6-3.3-5.6
		C117,210.7,115.7,212.9,115.7,216.4z M131,206.7v22.6h-2.6v-22.6H131z"/>
	<path class="st0" d="M157.3,224.5v2.1h-20.4v-2.1h8.9v-5.6h-6.5v-10.3h2.6v8.2H155v2.1h-6.7v5.6H157.3z"/>
	<path class="st0" d="M173.5,207.2h2.4v21.1h-2.4v-11h-2.8v6.5H162v-14.9h2.4v5.3h3.9v-5.3h2.4v6.3h2.8V207.2z M168.4,216.3h-3.9
		v5.4h3.9V216.3z M180.5,206.8v22.6H178v-22.6H180.5z"/>
	<path class="st0" d="M198,216.4c0,4.9-2.4,8-5.8,8c-3.3,0-5.8-3.1-5.8-8c0-4.8,2.4-7.9,5.8-7.9C195.6,208.4,198,211.5,198,216.4z
		 M188.9,216.4c0,3.5,1.4,5.7,3.3,5.7c2,0,3.3-2.1,3.3-5.7c0-3.5-1.4-5.6-3.3-5.6C190.2,210.7,188.9,212.9,188.9,216.4z
		 M204.2,206.7v22.6h-2.6v-22.6H204.2z"/>
	<path class="st0" d="M221.9,220.5c-2.4-1-4.1-2.9-5.1-5.3c-1,2.5-2.8,4.5-5.4,5.6l-1.4-2c3.5-1.3,5.5-4.5,5.5-7.9V208h2.6v2.8
		c0,3.2,1.9,6.3,5.2,7.6L221.9,220.5z M229.2,226.8v2.1H214v-7h2.6v4.9H229.2z M226.1,216.5h-4.2v-2.1h4.2V212h-4.2v-2.1h4.2v-3.1
		h2.6v16.8h-2.6V216.5z"/>
	<path class="st0" d="M251.1,220c-1.9-0.9-3.2-2.4-4-4.3c-0.8,2.1-2.2,3.9-4.3,4.9l-1.4-1.9c3-1.5,4.5-4.5,4.5-7.2v-3.1h2.5v3.1
		c0,2.6,1.4,5.3,4.2,6.6L251.1,220z M261.2,226.8v2.1h-15.5v-7.2h2.6v5.1H261.2z M253.7,214.3h-3.2v-2.1h3.2v-5h2.4V223h-2.4V214.3z
		 M260.5,223.7h-2.4v-16.9h2.4V223.7z"/>
	<path class="st0" d="M269.4,222c3.6,0,6.2-0.1,9.1-0.6l0.2,2.1c-3.2,0.6-6,0.7-10.1,0.7h-1.8v-15.4h10.5v2.1h-7.9v4.2h7v2h-7V222z
		 M284.6,206.7v22.6H282v-12.2h-4.3V215h4.3v-8.3H284.6z"/>
	<path class="st0" d="M302.5,207.2h2.4v21.1h-2.4v-10.8h-2.4c-0.2,4.4-2.1,7.1-4.8,7.1c-2.9,0-4.8-3.1-4.8-8c0-4.9,1.9-8,4.8-8
		c2.7,0,4.5,2.6,4.8,6.8h2.4V207.2z M297.8,216.5c0-3.6-0.9-5.6-2.5-5.6s-2.5,2-2.5,5.6s1,5.6,2.5,5.6S297.8,220.1,297.8,216.5z
		 M309.5,206.8v22.5h-2.4v-22.5H309.5z"/>
	<path class="st0" d="M322.8,212.3c0,4.2,2.1,8.3,5.6,9.9l-1.5,2.1c-2.5-1.3-4.4-3.7-5.3-6.8c-1,3.2-2.8,5.8-5.4,7.1l-1.6-2
		c3.5-1.7,5.7-6.1,5.7-10.3v-3.7h2.6V212.3z M333.4,206.7v22.6h-2.6v-13.1H326v-2.1h4.8v-7.4H333.4z"/>
	<path class="st0" d="M355.8,209.6c0,6-2,11.3-8.3,15l-1.5-1.8c4.9-2.8,6.9-6.5,7.3-11.1h-6.3v-2.1H355.8z M365.3,206.8v22.6h-2.4
		v-11.6h-2.6v10.6h-2.4v-20.9h2.4v8.2h2.6v-8.8H365.3z"/>
	<path class="st0" d="M381.9,217.6h-10.6v-9.9h2.6v3h5.5v-3h2.5V217.6z M376.1,227.1h12.7v2h-15.3v-5.9h12v-1.9h-12v-2h14.6v5.8h-12
		V227.1z M379.3,212.7h-5.5v2.9h5.5V212.7z M391.3,211.4v2.1h-3.2v4.8h-2.6v-11.6h2.6v4.6H391.3z"/>
	<path class="st0" d="M408.2,211.4h-13.3v-2h5.4v-2.6h2.6v2.6h5.4V211.4z M401.6,221c-3.2,0-5.5-1.7-5.5-4.3c0-2.5,2.2-4.3,5.5-4.3
		c3.2,0,5.5,1.7,5.5,4.3C407,219.3,404.8,221,401.6,221z M400.8,226.8h12.6v2.1h-15.2v-6.5h2.6V226.8z M401.6,219c1.8,0,3-0.8,3-2.3
		s-1.2-2.3-3-2.3c-1.8,0-3,0.8-3,2.3S399.8,219,401.6,219z M415.7,214v2.1h-3.2v7.6h-2.6v-16.9h2.6v7.2H415.7z"/>
	<path class="st0" d="M435,222.6c2-0.1,4-0.3,5.8-0.6l0.2,1.9c-5,1-10.4,1-14.4,1l-0.3-2.1c1.8,0,3.9,0,6.1-0.1v-3.9h2.6V222.6z
		 M427,217.6c3.3-0.9,5.3-3.3,5.4-5.9h-4.9v-2.1h4.9v-2.6h2.6v2.6h4.9v2.1H435c0.2,2.5,2.1,4.8,5.5,5.7l-1.1,2
		c-2.6-0.8-4.6-2.3-5.6-4.4c-1,2.2-2.9,3.8-5.6,4.6L427,217.6z M444.9,206.7v22.6h-2.6v-22.6H444.9z"/>
	<path class="st0" d="M463,219.5c-2.6-0.7-4.5-2.3-5.5-4.3c-1,2.2-2.9,3.9-5.6,4.7l-1.2-2c3.5-1,5.4-3.5,5.4-6.3v-0.3h-4.7v-2h4.7
		v-2.6h2.6v2.6h4.7v2h-4.7v0.3c0,2.6,2,5,5.5,5.9L463,219.5z M454.6,221.2h14.8v7.9h-14.8V221.2z M457.1,227h9.8v-3.8h-9.8V227z
		 M469.4,206.8v13.3h-2.6V215h-4v-2.1h4v-6.1H469.4z"/>
	<path class="st0" d="M488.3,218.5c-2.9,0.6-5.6,0.8-10.4,0.8H476v-10.6h10v2.1h-7.5v6.4c4.3,0,6.7-0.1,9.4-0.7L488.3,218.5z
		 M481,226.8h12.6v2.1h-15.2v-7.5h2.6V226.8z M495.9,213.2v2.1h-3.2v7.7h-2.6v-16.3h2.6v6.5H495.9z"/>
	<path class="st0" d="M518.5,209.1c0,6.7-2.7,12.4-10.4,16.2l-1.4-2c5.9-2.8,8.7-6.8,9.2-12h-8v-2.1H518.5z M525.1,206.8v22.6h-2.6
		v-22.6H525.1z"/>
	<path class="st0" d="M542.4,218v1.9h6.4v5.4h-12.8v1.8h13.5v2h-16v-5.6h12.9v-1.7h-12.9v-1.9h6.5V218h-8.9v-2h20.4v2H542.4z
		 M549.4,214.7c-3.7-0.5-6.8-2-8.3-4.2c-1.5,2.2-4.5,3.8-8.3,4.2l-0.9-2c4.5-0.5,7.8-2.7,7.8-5.2v-0.6h2.6v0.6
		c0,2.5,3.3,4.7,7.8,5.2L549.4,214.7z"/>
	<path class="st0" d="M575.8,224.6v2.1h-20.4v-2.1h8.9v-3.8h-6.4v-7.3h13v-3h-13v-2.1h15.6v7.1h-13v3.1h13.5v2.1h-7v3.8H575.8z"/>
	<path class="st0" d="M599.7,219.6c-3,0.6-5.7,0.7-10.3,0.7h-1.8v-11.7h10.4v2.1h-7.9v2.7h7.4v2h-7.4v2.9c4,0,6.4-0.1,9.2-0.6
		L599.7,219.6z M592.7,226.8h12.6v2.1h-15.2V222h2.6V226.8z M607.6,213.6v2.1h-3.2v7.8h-2.6v-16.8h2.6v6.9H607.6z"/>
	<path class="st0" d="M621.1,219c-2-0.8-3.4-2.3-4.2-4.1c-0.8,2.1-2.3,3.8-4.5,4.8l-1.3-2c3-1.4,4.5-4.2,4.5-6.8v-2.8h2.5v2.8
		c0,2.5,1.5,5,4.4,6.1L621.1,219z M630.4,225.2c0,2.6-2.9,4.1-7.6,4.1c-4.7,0-7.6-1.5-7.6-4.1c0-2.6,3-4.1,7.6-4.1
		C627.4,221.1,630.4,222.6,630.4,225.2z M627.8,225.2c0-1.4-1.9-2.2-5.1-2.2c-3.2,0-5.1,0.8-5.1,2.2c0,1.4,1.9,2.1,5.1,2.1
		C625.9,227.4,627.8,226.6,627.8,225.2z M625.4,219.9H623v-12.7h2.4v5.4h2.4v-5.8h2.4v13.8h-2.4v-6h-2.4V219.9z"/>
	<path class="st0" d="M646.7,211.2h-11.2v-2h4.4v-2.3h2.5v2.3h4.3V211.2z M636.3,216c0-2.3,2-3.9,4.8-3.9c2.8,0,4.8,1.6,4.8,3.9
		c0,2.3-2,3.9-4.8,3.9C638.3,219.9,636.3,218.4,636.3,216z M652,222c0,2.2,1.5,4.3,4.4,5.1l-1.2,1.9c-2.2-0.7-3.7-2.1-4.4-3.9
		c-0.7,1.7-2,3.3-4.1,4.1c-2.1-0.8-3.4-2.3-4.1-4c-0.8,1.7-2.3,3.1-4.4,3.8l-1.2-1.9c2.8-0.9,4.4-3.1,4.4-5.1v-0.6h2.5v0.6
		c0,1.8,0.9,3.6,2.8,4.8c2-1.3,2.9-3.2,2.9-4.8v-0.6h2.5V222z M638.6,216c0,1.3,1,2,2.5,2c1.5,0,2.5-0.8,2.5-2c0-1.2-1-2-2.5-2
		C639.5,214,638.6,214.8,638.6,216z M649.9,220.4h-2.4v-13.3h2.4v5.7h2.3v-6h2.4v13.9h-2.4v-5.8h-2.3V220.4z"/>
	<path class="st0" d="M680.4,216.9v2h-20.4v-2H680.4z M678.3,215.5c-3.7-0.5-6.7-2.2-8.2-4.5c-1.5,2.3-4.5,4-8.2,4.5l-0.9-2
		c4.5-0.6,7.8-3,7.8-5.6V207h2.6v0.9c0,2.6,3.3,5.1,7.8,5.6L678.3,215.5z M675.2,220.3h2.6v8.7h-15.3v-8.7h2.5v2.3h10.2V220.3z
		 M675.2,224.6H665v2.4h10.2V224.6z"/>
	<path class="st0" d="M688.2,221.4c3.2,0,6.6-0.3,10.1-1l0.3,2.1c-3.9,0.8-7.5,1.1-11,1.1h-1.9V209h2.5V221.4z M703,206.8v22.6h-2.6
		v-22.6H703z"/>
	<path class="st0" d="M712.2,221.7c3.6,0,6.4-0.2,9.5-0.7l0.3,2.1c-3.4,0.6-6.5,0.7-10.5,0.7h-1.8v-14.9h10.5v2.1h-7.9V221.7z
		 M729.7,217.6h-3.5v11.8h-2.6v-22.6h2.6v8.7h3.5V217.6z"/>
	<path class="st0" d="M733.7,225.7c0-1.2,0.8-2,1.9-2c1.1,0,1.9,0.9,1.9,2s-0.8,2-1.9,2C734.5,227.7,733.7,226.9,733.7,225.7z"/>
	<path class="st0" d="M761.6,220.2c-2.6-0.8-4.5-2.6-5.5-4.8c-1,2.4-2.9,4.3-5.6,5.2l-1.3-2c3.6-1.2,5.6-4.1,5.6-7.2v-0.8h-4.9v-2.1
		h12.3v2.1h-4.8v0.8c0,2.9,2,5.6,5.5,6.7L761.6,220.2z M768.3,226.8v2.1h-15.4v-7.2h2.6v5.1H768.3z M767.6,223.2H765v-16.4h2.6
		V223.2z"/>
	<path class="st0" d="M793.8,216.2v2h-20.4v-2H793.8z M775.6,211c0-2.5,3-3.9,8-3.9c5,0,8,1.4,8,3.9c0,2.5-3,3.9-8,3.9
		C778.5,214.9,775.6,213.5,775.6,211z M778.4,227.2h13.5v2h-16v-5.7h12.9v-1.6h-12.9v-2h15.4v5.4h-12.8V227.2z M778.2,211
		c0,1.3,1.9,2,5.4,2c3.5,0,5.4-0.7,5.4-2c0-1.3-1.9-2-5.4-2C780.1,209,778.2,209.7,778.2,211z"/>
	<path class="st0" d="M816.2,219.4h-10.6v-10.7h10.6V219.4z M813.7,210.8h-5.5v6.5h5.5V210.8z M810.8,226.8h12.6v2.1h-15.2v-7.2h2.6
		V226.8z M825.7,213.5v2.1h-3.2v7.7h-2.6v-16.5h2.6v6.7H825.7z"/>
	<path class="st0" d="M849.7,224.3v2.1h-20.5v-2.1H849.7z M847.4,219.5h-15.6v-10.7h15.5v2.1h-12.9v6.6h13.1V219.5z"/>
	<path class="st0" d="M874.1,218v2.1h-20.5V218H874.1z M858.7,226.8h13.2v2.1h-15.8v-6.6h2.6V226.8z M871.8,215.3h-15.5v-7.8h2.6
		v5.7h12.9V215.3z"/>
	<path class="st0" d="M905.4,217.1v2.1h-20.3v-2.1h8v-4.1h2.6v4.1H905.4z M903.1,225.1c0,2.6-3.1,4.2-7.9,4.2
		c-4.9,0-7.9-1.6-7.9-4.2c0-2.6,3.1-4.2,7.9-4.2C900,220.9,903.1,222.5,903.1,225.1z M899.8,215.5c0.6-2.2,0.6-3.8,0.6-5.5h-12.9
		v-2.1h15.5v1.9c0,1.8,0,3.7-0.6,6L899.8,215.5z M900.5,225.1c0-1.4-2-2.2-5.3-2.2c-3.3,0-5.4,0.8-5.4,2.2c0,1.4,2,2.3,5.4,2.3
		C898.5,227.4,900.5,226.5,900.5,225.1z"/>
	<path class="st0" d="M921.6,219.5c-2.5-0.9-4.3-2.6-5.2-4.8c-1,2.5-2.9,4.5-5.6,5.4l-1.3-2c3.5-1.2,5.5-4.2,5.5-7.3v-0.3h-4.8v-2.1
		h12.1v2.1h-4.7v0.3c0,2.8,1.9,5.6,5.3,6.8L921.6,219.5z M928.3,225.1c0,2.7-2.9,4.3-7.6,4.3c-4.7,0-7.6-1.6-7.6-4.3
		c0-2.7,2.9-4.3,7.6-4.3C925.4,220.8,928.3,222.4,928.3,225.1z M925.7,225.1c0-1.5-1.8-2.3-5-2.3c-3.2,0-5,0.8-5,2.3s1.8,2.3,5,2.3
		C923.8,227.4,925.7,226.6,925.7,225.1z M925.6,212.4v-5.7h2.6v13.4h-2.6v-5.7h-4v-2.1H925.6z"/>
	<path class="st0" d="M954.3,218.5v2.1h-20.4v-2.1H954.3z M936,212c0-2.8,3.2-4.6,8-4.6c4.9,0,8,1.7,8,4.6c0,2.9-3.2,4.6-8,4.6
		C939.2,216.6,936,214.9,936,212z M939,226.8h13v2.1h-15.6v-6.6h2.6V226.8z M938.7,212c0,1.6,2.1,2.5,5.4,2.5c3.3,0,5.4-0.9,5.4-2.5
		c0-1.6-2.1-2.5-5.4-2.5C940.7,209.5,938.7,210.5,938.7,212z"/>
	<path class="st0" d="M971.6,217.7c-3.4,0-5.9-2.1-5.9-5.1s2.5-5.1,5.9-5.1c3.4,0,5.9,2.1,5.9,5.1S975,217.7,971.6,217.7z
		 M971.6,215.6c2,0,3.4-1.2,3.4-3s-1.5-3-3.4-3c-2,0-3.4,1.2-3.4,3S969.7,215.6,971.6,215.6z M984.6,227v2h-15.4v-5.9h12.2v-1.9
		h-12.2v-2h14.8v5.8h-12.2v2H984.6z M983.9,218.2h-2.6v-11.5h2.6V218.2z"/>
	<path class="st0" d="M1001.1,219.7h-10.6v-11.3h2.6v3.5h5.5v-3.5h2.5V219.7z M995.6,226.8h12.6v2.1H993v-7.1h2.6V226.8z
		 M998.6,213.9H993v3.7h5.5V213.9z M1010.5,213.4v2.1h-3.2v7.8h-2.6v-16.6h2.6v6.6H1010.5z"/>
	<path class="st0" d="M1026.2,219.5c-2.5-0.9-4.3-2.6-5.3-4.8c-1,2.4-2.9,4.4-5.6,5.3l-1.3-2c3.5-1.2,5.5-4.2,5.5-7.2v-0.5h-4.8
		v-2.1h12.1v2.1h-4.7v0.4c0,2.8,1.9,5.6,5.3,6.8L1026.2,219.5z M1017.6,221.4h15.2v8h-2.6v-5.9h-12.6V221.4z M1032.8,206.7v13.5
		h-2.6v-5.7h-3.9v-2.1h3.9v-5.7H1032.8z"/>
	<path class="st0" d="M1058.9,224.4v2.1h-20.4v-2.1H1058.9z M1057,214.4c0,3.8-3.6,6.4-8.3,6.4c-4.7,0-8.3-2.5-8.3-6.4
		c0-3.8,3.6-6.4,8.3-6.4C1053.4,208,1057,210.6,1057,214.4z M1042.9,214.4c0,2.6,2.4,4.2,5.8,4.2c3.3,0,5.8-1.6,5.8-4.2
		c0-2.6-2.5-4.2-5.8-4.2C1045.3,210.2,1042.9,211.8,1042.9,214.4z"/>
	<path class="st0" d="M1083.3,224.6v2.1h-20.4v-2.1h8.9v-3.8h-6.4v-7.3h13v-3h-13v-2.1h15.6v7.1h-13v3.1h13.5v2.1h-7v3.8H1083.3z"/>
	<path class="st0" d="M14.9,273c-4.7,0.9-10.1,1-14,1l-0.3-2c1.7,0,3.7,0,5.7-0.1v-1.5c-2.5-0.3-4.1-1.5-4.1-3.4
		c0-2.1,2.1-3.5,5.4-3.5c3.3,0,5.4,1.3,5.4,3.5c0,1.8-1.5,3.1-4,3.4v1.4c1.9-0.1,3.9-0.3,5.7-0.5L14.9,273z M14.1,262.7H1.2v-1.9
		h5.2v-2.1h2.6v2.1h5.1V262.7z M6.4,278.8h12.8v2.1H3.9v-5.6h2.6V278.8z M7.6,268.6c1.8,0,2.9-0.6,2.9-1.7c0-1.1-1.1-1.7-2.9-1.7
		c-1.8,0-2.9,0.7-2.9,1.7C4.7,268,5.8,268.6,7.6,268.6z M21.5,266.4v2.1h-3.1v7.9h-2.6v-17.7h2.6v7.7H21.5z"/>
	<path class="st0" d="M34.8,264.7c-1.4,3.6-4.7,6.1-9.6,7.5l-1-2c5.3-1.5,8.2-4.2,8.7-7.8h-7.5v-2.1h10.2c0,0.8-0.1,1.5-0.2,2.3H40
		v-3.9h2.6V272H40v-2.6h-5.5v-2.1H40v-2.6H34.8z M42.8,276.8c0,2.8-3,4.5-7.5,4.5c-4.6,0-7.5-1.7-7.5-4.5c0-2.7,2.9-4.4,7.5-4.4
		C39.8,272.3,42.8,274,42.8,276.8z M40.2,276.8c0-1.5-1.9-2.4-5-2.4c-3,0-5,0.9-5,2.4c0,1.6,1.9,2.4,5,2.4
		C38.3,279.2,40.2,278.3,40.2,276.8z"/>
	<path class="st0" d="M53.9,274.3c2.3-0.1,4.7-0.2,6.9-0.5l0.1,1.9c-4.6,0.8-9.8,0.9-13.8,0.9l-0.3-2.1c1.4,0,2.9,0,4.5,0v-6.8h2.5
		V274.3z M56.4,271.2c0.6-3.5,0.6-6.1,0.6-8h-8.9v-2.1h11.5v1.5c0,2,0,4.8-0.6,8.8L56.4,271.2z M67.9,270.2h-3.3v11.1H62v-22.6h2.6
		v9.3h3.3V270.2z"/>
	<path class="st0" d="M88.6,271.5c-2.6-0.8-4.5-2.6-5.5-4.8c-1,2.4-2.9,4.3-5.6,5.2l-1.3-2c3.6-1.2,5.6-4.1,5.6-7.2v-0.4h-4.9v-2.1
		h12.3v2.1h-4.8v0.4c0,2.9,2,5.6,5.5,6.8L88.6,271.5z M79.4,273.5h15.2v7.8H92v-5.7H79.4V273.5z M94.6,258.7v13.6H92v-13.6H94.6z"/>
	<path class="st0" d="M105.3,271c-2.1,0.1-4.2,0.1-6,0.1L99,269c4.1,0,9.7-0.1,14.5-0.7l0.2,1.8c-1.9,0.3-3.9,0.5-5.8,0.6v4.3h-2.6
		V271z M100.8,263.6c0-2.4,2.3-4,5.6-4c3.3,0,5.6,1.6,5.6,4s-2.3,4-5.6,4C103,267.6,100.8,266,100.8,263.6z M118.4,278.8v2.1h-16.3
		v-6.7h2.6v4.6H118.4z M103.2,263.6c0,1.3,1.3,2.1,3.1,2.1c1.8,0,3.1-0.8,3.1-2.1s-1.3-2.1-3.1-2.1
		C104.5,261.5,103.2,262.3,103.2,263.6z M115.3,272v-13.3h2.6v17.2h-2.6v-2.1h-4.4V272H115.3z"/>
	<path class="st0" d="M134.6,259.2h2.4v21.1h-2.4v-10.8h-2.4c-0.2,4.4-2.1,7.1-4.8,7.1c-2.9,0-4.8-3.1-4.8-8c0-4.9,1.9-8,4.8-8
		c2.7,0,4.5,2.6,4.8,6.8h2.4V259.2z M129.9,268.5c0-3.6-0.9-5.6-2.5-5.6s-2.5,2-2.5,5.6s1,5.6,2.5,5.6S129.9,272.1,129.9,268.5z
		 M141.6,258.8v22.5h-2.4v-22.5H141.6z"/>
	<path class="st0" d="M157.6,259.3h2.4v20.9h-2.4v-10.4h-4.1c-1.3,2.6-3.5,4.9-6.6,6.7l-1.5-1.8c4.7-2.8,6.9-6.5,7.3-11.1h-6.2v-2.1
		h8.8c0,2.2-0.3,4.3-0.9,6.2h3.3V259.3z M164.7,258.8v22.6h-2.5v-22.6H164.7z"/>
	<path class="st0" d="M194.8,269.7v2.1h-20.5v-2.1h14.7c0.3-1.2,0.4-2.3,0.5-3.4l-12.9,0.6l-0.3-2.1l13.4-0.4c0-0.8,0-1.6,0-2.4H177
		v-2.1h15.3v2c0,2.2,0,4.6-0.6,7.8H194.8z M179.5,278.8h13.2v2.1h-15.8v-7.1h2.6V278.8z"/>
	<path class="st0" d="M223.7,274h-9v7.3h-2.6V274h-8.9V272h20.5V274z M221.2,269.5h-15.5v-9.9h2.6v2.8h10.3v-2.8h2.6V269.5z
		 M218.6,264.6h-10.3v2.9h10.3V264.6z"/>
	<path class="st0" d="M239.6,269.7c-2.9,0.6-5.6,0.8-10.4,0.8h-1.8v-10.2h10v2.1H230v6c4.3,0,6.7-0.2,9.4-0.7L239.6,269.7z
		 M229.7,272.6h14.4v8.4h-14.4V272.6z M232.2,279h9.3v-4.3h-9.3V279z M247.3,266.2h-3.2v5.3h-2.6v-12.7h2.6v5.3h3.2V266.2z"/>
	<path class="st0" d="M270,268.2v2h-20.4v-2H270z M251.8,263c0-2.5,3-3.9,8-3.9c5,0,8,1.4,8,3.9c0,2.5-3,3.9-8,3.9
		C254.7,266.9,251.8,265.5,251.8,263z M254.6,279.2h13.5v2h-16v-5.7h12.9v-1.6H252v-2h15.4v5.4h-12.8V279.2z M254.4,263
		c0,1.3,1.9,2,5.4,2c3.5,0,5.4-0.7,5.4-2c0-1.3-1.9-2-5.4-2C256.3,261,254.4,261.7,254.4,263z"/>
	<path class="st0" d="M298.9,273.5h-9v7.8h-2.6v-7.8h-8.8v-2.1h20.4L298.9,273.5z M279.7,267.8c4.3-0.6,7.5-3,7.6-5.7h-6.9V260H297
		v2.1h-6.8c0.1,2.6,3.3,5.1,7.6,5.7l-0.9,2c-3.7-0.5-6.8-2.4-8.2-4.9c-1.4,2.5-4.4,4.3-8.1,4.9L279.7,267.8z"/>
	<path class="st0" d="M313.8,259.3h2.4v20.9h-2.4v-10.4h-4.1c-1.3,2.6-3.5,4.9-6.6,6.7l-1.5-1.8c4.7-2.8,6.9-6.5,7.3-11.1h-6.2v-2.1
		h8.8c0,2.2-0.3,4.3-0.9,6.2h3.3V259.3z M321,258.8v22.6h-2.5v-22.6H321z"/>
	<path class="st0" d="M345.2,270.4c-4.8,0.9-10.2,0.9-14.2,0.9l-0.4-2c1.8,0,3.9,0,6.1-0.1v-2.2h-4.1v-7.3h10.7v2.1h-8.1v3.1h8.3
		v2.1h-4.2v2c1.9-0.1,3.8-0.3,5.7-0.5L345.2,270.4z M346.7,272.8h2.5v8.3h-15v-8.3h2.5v2h9.9V272.8z M346.7,276.8h-9.9v2.2h9.9
		V276.8z M349.2,258.8v13h-2.6v-13H349.2z"/>
	<path class="st0" d="M357.6,273.4c3.2,0,6.6-0.3,10.1-1l0.3,2.1c-3.9,0.8-7.5,1.1-11,1.1h-1.9V261h2.5V273.4z M372.4,258.8v22.6
		h-2.6v-22.6H372.4z"/>
	<path class="st0" d="M380.4,273.7c3.6,0,6.4-0.2,9.5-0.7l0.3,2.1c-3.4,0.6-6.5,0.7-10.5,0.7h-1.8v-14.9h10.5v2.1h-7.9V273.7z
		 M397.9,269.6h-3.5v11.8h-2.6v-22.6h2.6v8.7h3.5V269.6z"/>
	<path class="st0" d="M400.6,277.7c0-1.2,0.8-2,1.9-2c1.1,0,1.9,0.9,1.9,2s-0.8,2-1.9,2C401.4,279.7,400.6,278.9,400.6,277.7z"/>
	<path class="st0" d="M421.3,265.3c0,3.5,2.2,7.5,5.6,9.1l-1.4,2c-2.5-1.2-4.4-3.7-5.5-6.5c-1,3.1-3,5.8-5.6,7.1l-1.5-2
		c3.4-1.6,5.7-5.9,5.7-9.7v-2.2h-4.9V261h12.3v2.1h-4.8V265.3z M434.4,269.8h-3.5v11.5h-2.6v-22.6h2.6v8.9h3.5V269.8z"/>
	<path class="st0" d="M447.3,269.7c-1,1.2-2.6,2-4.5,2c-3.3,0-5.9-2.4-5.9-5.7s2.5-5.7,5.9-5.7c1.8,0,3.4,0.8,4.5,1.9h5.4v-3.3h2.6
		v16.6h-2.6v-5.7H447.3z M442.8,269.4c1.9,0,3.4-1.4,3.4-3.5c0-2-1.5-3.4-3.4-3.4c-2,0-3.4,1.4-3.4,3.4
		C439.3,268,440.8,269.4,442.8,269.4z M455.8,278.8v2.1h-15.2v-7.2h2.6v5.1H455.8z M448.4,264.2c0.2,0.5,0.2,1.1,0.2,1.7
		s-0.1,1.1-0.2,1.7h4.3v-3.3H448.4z"/>
	<path class="st0" d="M480.2,276.3v2.1h-20.4v-2.1H480.2z M478.2,271.9c-3.7-0.8-6.8-3.1-8.3-6.2c-1.5,3.1-4.6,5.4-8.3,6.2l-1.1-2.1
		c4.4-0.8,8.1-4.3,8.1-7.9v-1.7h2.7v1.7c0,3.6,3.6,7.1,8.1,7.9L478.2,271.9z"/>
	<path class="st0" d="M486.2,273.9c3.5,0,6.2-0.1,9.3-0.7l0.2,2.1c-3.4,0.6-6.3,0.7-10.2,0.7h-1.8v-9.2h7.5v-4h-7.6v-2.1h10.1v8.2
		h-7.5V273.9z M501.6,258.7v22.6H499v-12H495v-2.1h3.9v-8.5H501.6z"/>
	<path class="st0" d="M526.5,270v2.1h-8.7v4.3h-2.6v-4.3H506V270H526.5z M508.2,263.9c0-2.8,3.1-4.6,8-4.6c4.8,0,8,1.8,8,4.6
		s-3.2,4.6-8,4.6C511.4,268.5,508.2,266.7,508.2,263.9z M511.1,278.8h13.1v2.1h-15.7v-6.7h2.6V278.8z M510.9,263.9
		c0,1.6,2.1,2.5,5.3,2.5c3.2,0,5.2-0.9,5.2-2.5s-2.1-2.5-5.2-2.5C513,261.3,510.9,262.3,510.9,263.9z"/>
	<path class="st0" d="M544.9,271.1c-2-0.8-3.4-2.3-4.2-4.2c-0.8,2.1-2.3,3.8-4.4,4.8l-1.4-2c3-1.4,4.5-4.2,4.5-6.8v-2.9h2.5v2.9
		c0,2.5,1.4,5.1,4.4,6.2L544.9,271.1z M538.8,273.6H554v7.8h-2.6v-5.7h-12.7V273.6z M554,258.8v13.7h-2.4v-5.9h-2.4v5.7h-2.4v-13.2
		h2.4v5.3h2.4v-5.7H554z"/>
	<path class="st0" d="M569.5,260.1c0,5.8-3.9,9.9-10.5,11.7l-1-2c5.3-1.4,8.3-4.1,8.8-7.6H559v-2.1H569.5z M561.3,272.5h14.4v8.6
		h-14.4V272.5z M563.8,279h9.3v-4.5h-9.3V279z M578.9,266.1h-3.2v5.4h-2.6v-12.7h2.6v5.2h3.2V266.1z"/>
	<path class="st0" d="M601.7,268.2v2h-20.4v-2H601.7z M583.4,263c0-2.5,3-3.9,8-3.9c5,0,8,1.4,8,3.9c0,2.5-3,3.9-8,3.9
		C586.4,266.9,583.4,265.5,583.4,263z M586.2,279.2h13.5v2h-16v-5.7h12.9v-1.6h-12.9v-2h15.4v5.4h-12.8V279.2z M586.1,263
		c0,1.3,1.9,2,5.4,2c3.5,0,5.4-0.7,5.4-2c0-1.3-1.9-2-5.4-2C587.9,261,586.1,261.7,586.1,263z"/>
	<path class="st0" d="M621.5,271.4H611v-10.7h10.6V271.4z M619,262.8h-5.5v6.5h5.5V262.8z M616.1,278.8h12.6v2.1h-15.2v-7.2h2.6
		V278.8z M631,265.5v2.1h-3.2v7.7h-2.6v-16.5h2.6v6.7H631z"/>
	<path class="st0" d="M653.8,267.9v2.1h-20.4v-2.1H653.8z M638.3,279.1h13.5v2h-16v-5.8h12.9v-1.7h-12.9v-2h15.4v5.6h-12.8V279.1z
		 M651.3,266.3H636v-7h15.2v2.1h-12.6v2.8h12.8V266.3z"/>
	<path class="st0" d="M668.4,261.1c0,6.7-2.7,12.4-10.4,16.2l-1.4-2c5.9-2.8,8.7-6.8,9.2-12h-8v-2.1H668.4z M675.1,258.8v22.6h-2.6
		v-22.6H675.1z"/>
	<path class="st0" d="M700.2,272c-2,0.4-4,0.6-6,0.8v7.9h-2.6v-7.8c-2.1,0.1-4.1,0.1-5.9,0.1l-0.3-2.1c4.1,0,9.7-0.1,14.6-0.8
		L700.2,272z M686.9,264.5c0-2.8,2.5-4.7,5.8-4.7s5.8,1.9,5.8,4.7c0,2.8-2.4,4.7-5.8,4.7S686.9,267.3,686.9,264.5z M689.4,264.5
		c0,1.6,1.4,2.6,3.3,2.6c2,0,3.3-1,3.3-2.6c0-1.6-1.4-2.6-3.3-2.6C690.8,261.9,689.4,262.9,689.4,264.5z M704.1,258.8v22.6h-2.6
		v-22.6H704.1z"/>
	<path class="st0" d="M715.3,262.4h4.2v2.1h-11v-2.1h4.3v-3h2.5V262.4z M718.9,271c0,3.1-2,5.2-4.9,5.2s-4.9-2.1-4.9-5.2
		c0-3.1,2-5.2,4.9-5.2S718.9,267.9,718.9,271z M716.6,271c0-1.9-1.1-3.1-2.6-3.1s-2.6,1.3-2.6,3.1c0,1.9,1.1,3.1,2.6,3.1
		S716.6,272.9,716.6,271z M727.8,258.8v22.6h-2.4v-11.1h-2.4v10h-2.4v-21h2.4v8.9h2.4v-9.3H727.8z"/>
	<path class="st0" d="M748.8,269.5h-10.6v-9.3h10.6V269.5z M742.1,278.6c1.3-0.1,2.7-0.3,4.1-0.7l0.4,2c-2,0.7-4,0.8-5.8,0.8h-1.2
		v-8.6h2.5V278.6z M746.3,262.2h-5.5v5.2h5.5V262.2z M752.7,272.4h4.4v1.9h-11.3v-1.9h4.4v-1.8h2.5V272.4z M755.7,278.2
		c0,2-1.8,3.2-4.2,3.2c-2.5,0-4.3-1.2-4.3-3.2c0-1.9,1.8-3.2,4.3-3.2C754,275,755.7,276.2,755.7,278.2z M753.5,278.2
		c0-0.9-0.8-1.4-2-1.4c-1.1,0-2,0.5-2,1.4c0,0.9,0.8,1.4,2,1.4C752.6,279.6,753.5,279,753.5,278.2z M758.3,263.7v2.1h-3.2v4.3h-2.6
		v-11.4h2.6v4.9H758.3z"/>
	<path class="st0" d="M781,270.5v2.1h-20.4v-2.1H781z M762.8,264c0-2.8,3.2-4.6,8-4.6c4.9,0,8,1.7,8,4.6c0,2.9-3.2,4.6-8,4.6
		C765.9,268.6,762.8,266.9,762.8,264z M765.8,278.8h13v2.1h-15.6v-6.6h2.6V278.8z M765.4,264c0,1.6,2.1,2.5,5.4,2.5
		c3.3,0,5.4-0.9,5.4-2.5c0-1.6-2.1-2.5-5.4-2.5C767.5,261.5,765.4,262.5,765.4,264z"/>
	<path class="st0" d="M795.8,270.8c-3.4,0-6-2.2-6-5.4c0-3.2,2.6-5.4,6-5.4c3.4,0,6,2.2,6,5.4C801.8,268.6,799.3,270.8,795.8,270.8z
		 M795.8,268.7c2,0,3.5-1.3,3.5-3.2c0-1.9-1.5-3.2-3.5-3.2c-2,0-3.5,1.3-3.5,3.2C792.3,267.4,793.8,268.7,795.8,268.7z M807.4,277
		c0,2.7-2.9,4.3-7.5,4.3c-4.6,0-7.5-1.6-7.5-4.3c0-2.7,2.9-4.3,7.5-4.3C804.5,272.7,807.4,274.3,807.4,277z M804.9,277
		c0-1.5-1.8-2.3-5-2.3s-5,0.8-5,2.3c0,1.5,1.8,2.3,5,2.3S804.9,278.5,804.9,277z M807.2,264v2.7h3.1v2.1h-3.1v3.2h-2.6v-13.3h2.6
		v3.1h3.1v2.1H807.2z"/>
	<path class="st0" d="M812.8,274.5c4,0,9.7,0,14.5-0.7l0.2,1.9c-5,1-10.4,1-14.4,1L812.8,274.5z M826.1,265.8c0,3.2-2.6,5.4-6.1,5.4
		s-6.1-2.2-6.1-5.4s2.6-5.4,6.1-5.4S826.1,262.6,826.1,265.8z M816.4,265.8c0,1.9,1.5,3.2,3.6,3.2c2.1,0,3.6-1.3,3.6-3.2
		c0-2-1.5-3.2-3.6-3.2C817.9,262.5,816.4,263.8,816.4,265.8z M831.3,258.7v22.6h-2.6v-22.6H831.3z"/>
	<path class="st0" d="M853.1,270.1v1.9h6.4v5.4h-12.8v1.8h13.5v2h-16v-5.6h12.9v-1.6H844v-2h6.5v-1.9h-8.9v-2H862v2H853.1z
		 M859.4,266.4h-15.2v-7h15.2V266.4z M856.9,261.5h-10.1v2.9h10.1V261.5z"/>
	<path class="st0" d="M871.5,274.3c2.3-0.1,4.7-0.2,6.9-0.5l0.1,1.9c-4.6,0.8-9.8,0.9-13.8,0.9l-0.3-2.1c1.4,0,2.9,0,4.5,0v-6.8h2.5
		V274.3z M874.1,271.2c0.6-3.5,0.6-6.1,0.6-8h-8.9v-2.1h11.5v1.5c0,2,0,4.8-0.6,8.8L874.1,271.2z M885.6,270.2h-3.3v11.1h-2.6v-22.6
		h2.6v9.3h3.3V270.2z"/>
	<path class="st0" d="M914.1,273.4h-9v8h-2.6v-8h-8.8v-2.1h20.4V273.4z M912.2,269.2c-3.7-0.6-6.8-2.5-8.3-5.1
		c-1.4,2.6-4.6,4.5-8.3,5.1l-1-2.1c4.6-0.6,7.9-3.4,7.9-6.4v-1.2h2.7v1.2c0,2.9,3.4,5.7,7.9,6.4L912.2,269.2z"/>
	<path class="st0" d="M928.8,271.5c-2.5-0.8-4.3-2.5-5.3-4.7c-1,2.4-2.9,4.2-5.5,5.1l-1.3-2c3.6-1.2,5.5-4.1,5.5-7.2v-0.4h-4.8v-2.1
		h12.1v2.1h-4.7v0.4c0,2.8,1.9,5.6,5.3,6.8L928.8,271.5z M919.6,273.5h14.8v7.9h-2.6v-5.8h-12.3V273.5z M937.7,266.6h-3.2v5.7h-2.6
		v-13.6h2.6v5.8h3.2V266.6z"/>
	<path class="st0" d="M958.7,258.8v12.1h-2.6v-4.8h-4.2c-0.5,2.5-2.7,4.3-5.7,4.3c-3.4,0-5.9-2.2-5.9-5.3c0-3.1,2.5-5.3,5.9-5.3
		c3,0,5.2,1.7,5.7,4.2h4.2v-5.2H958.7z M949.6,265c0-1.9-1.4-3.1-3.4-3.1c-2,0-3.4,1.2-3.4,3.1c0,1.9,1.4,3.2,3.4,3.2
		C948.1,268.2,949.6,266.9,949.6,265z M956.1,271.9h2.5v9.1H944v-9.1h2.5v2.5h9.6V271.9z M956.1,276.5h-9.6v2.5h9.6V276.5z"/>
	<path class="st0" d="M975.5,268.4c0,4.9-2.4,8-5.8,8c-3.3,0-5.8-3.1-5.8-8c0-4.8,2.4-7.9,5.8-7.9
		C973.1,260.4,975.5,263.5,975.5,268.4z M966.4,268.4c0,3.5,1.4,5.7,3.3,5.7c2,0,3.3-2.1,3.3-5.7c0-3.5-1.4-5.6-3.3-5.6
		C967.7,262.7,966.4,264.9,966.4,268.4z M981.7,258.7v22.6h-2.6v-22.6H981.7z"/>
	<path class="st0" d="M1006.3,268.9c-4.5,0.7-9.6,0.8-13.6,0.9l-0.3-2.1c0.8,0,1.7,0,2.6,0v-5.4h-2v-2h12.1v2h-2v5.1
		c1-0.1,2-0.2,3-0.3L1006.3,268.9z M1011.5,279.1v2h-15.7v-5.9h12.4v-1.8h-12.4v-2h14.9v5.7h-12.3v2H1011.5z M997.6,267.6
		c1,0,2.1,0,3.1-0.1v-5.3h-3.1V267.6z M1010.7,270.4h-2.6v-11.7h2.6V270.4z"/>
	<path class="st0" d="M1035.7,276.5v2.1h-20.4v-2.1h4.8v-5.9c-1.8-1-2.9-2.6-2.9-4.6c0-3.6,3.5-5.9,8.3-5.9c4.8,0,8.3,2.3,8.3,5.9
		c0,2-1.1,3.6-2.9,4.6v5.9H1035.7z M1019.6,266c0,2.4,2.4,3.9,5.8,3.9c3.4,0,5.8-1.5,5.8-3.9c0-2.4-2.4-3.9-5.8-3.9
		C1022,262.1,1019.6,263.6,1019.6,266z M1022.6,276.5h5.7v-4.9c-0.9,0.2-1.8,0.3-2.8,0.3c-1,0-2-0.1-2.8-0.3V276.5z"/>
	<path class="st0" d="M1046.2,262.2h5.3v2.1h-13.2v-2.1h5.4v-3.1h2.6V262.2z M1050.5,271.2c0,3.1-2.4,5.3-5.6,5.3
		c-3.2,0-5.6-2.2-5.6-5.3c0-3.1,2.3-5.3,5.6-5.3C1048.2,265.9,1050.5,268.1,1050.5,271.2z M1048.1,271.2c0-1.9-1.3-3.1-3.1-3.1
		c-1.8,0-3.1,1.3-3.1,3.1s1.3,3.1,3.1,3.1C1046.8,274.4,1048.1,273.1,1048.1,271.2z M1059.4,270h-3.5v11.4h-2.6v-22.6h2.6v9.1h3.5
		V270z"/>
	<path class="st0" d="M1073.5,261.1c0,6.7-2.7,12.4-10.4,16.2l-1.4-2c5.9-2.8,8.7-6.8,9.2-12h-8v-2.1H1073.5z M1080.1,258.8v22.6
		h-2.6v-22.6H1080.1z"/>
	<path class="st0" d="M3.7,325.5c0.7,0,1.6-0.1,2.5-0.3l0.2,2.1c-1.8,0.4-3.1,0.4-4.2,0.4H1.3v-14.1h4.8v2.1H3.7V325.5z M9.4,325.5
		c0.9,0,1.9-0.2,3-0.4l0.2,2.1c-1.8,0.4-3.2,0.5-4.5,0.5H7v-14.1H12v2.1H9.4V325.5z M20.3,310.8v22.6h-2.4v-11.5h-2.2v10.4h-2.4
		v-21.1h2.4v8.6h2.2v-9H20.3z"/>
	<path class="st0" d="M44.4,322.1v2.1h-8.7v4.2h-2.6v-4.2H24v-2.1H44.4z M29.1,330.8h13.1v2.1H26.5v-6.5h2.6V330.8z M41.8,319.9
		H26.6v-8.1h15.2V319.9z M39.3,313.8H29.1v4h10.2V313.8z"/>
	<path class="st0" d="M59.6,317c0,3.1-2.5,5.2-6,5.2s-6-2.1-6-5.2c0-3.1,2.5-5.2,6-5.2S59.6,313.9,59.6,317z M50.2,317
		c0,1.9,1.4,3.1,3.5,3.1c2,0,3.5-1.2,3.5-3.1c0-1.9-1.4-3.1-3.5-3.1C51.6,313.9,50.2,315.2,50.2,317z M53.6,323.9v2.5h9.6v-2.5h2.5
		v9.1H51.1v-9.1H53.6z M53.6,331h9.6v-2.5h-9.6V331z M65.8,310.8v12.1h-2.6v-12.1H65.8z"/>
	<path class="st0" d="M74.3,325.4c3.2,0,6.6-0.3,10.1-1l0.3,2.1c-3.9,0.8-7.5,1.1-11,1.1h-1.9V313h2.5V325.4z M89.1,310.8v22.6h-2.6
		v-22.6H89.1z"/>
	<path class="st0" d="M97.2,325.7c3.6,0,6.4-0.2,9.5-0.7l0.3,2.1c-3.4,0.6-6.5,0.7-10.5,0.7h-1.8v-14.9h10.5v2.1h-7.9V325.7z
		 M114.7,321.6h-3.5v11.8h-2.6v-22.6h2.6v8.7h3.5V321.6z"/>
	<path class="st0" d="M117.4,329.7c0-1.2,0.8-2,1.9-2c1.1,0,1.9,0.9,1.9,2s-0.8,2-1.9,2C118.3,331.7,117.4,330.9,117.4,329.7z"/>
	<path class="st0" d="M150.8,320.3v2h-20.4v-2H150.8z M135.4,331.2h13.5v2h-16v-5.6h12.9v-1.6h-12.9V324h15.4v5.3h-12.8V331.2z
		 M148.2,318.7h-15.1v-7.5h2.5v1.9h10v-1.9h2.5V318.7z M145.6,314.9h-10v1.8h10V314.9z"/>
	<path class="st0" d="M174.1,326.5h-9v6.9h-2.6v-6.9h-8.9v-2.1h20.5V326.5z M169,313.6h-13v-2.1h15.6v6.3h-13v2.4h13.5v2.1h-16.1
		v-6.5H169V313.6z"/>
	<path class="st0" d="M190.6,316.3c0,4,2.1,8.1,5.5,9.8l-1.6,2c-2.4-1.3-4.2-3.7-5.2-6.6c-1,3.1-2.9,5.7-5.4,7.1l-1.6-2.1
		c3.5-1.7,5.7-6,5.7-10.2v-3.7h2.6V316.3z M203.7,321.8h-3.5v11.5h-2.6v-22.6h2.6v8.9h3.5V321.8z"/>
	<path class="st0" d="M218.3,320.4c0,4.9-2.4,8-5.8,8c-3.3,0-5.8-3.1-5.8-8c0-4.8,2.4-7.9,5.8-7.9
		C215.9,312.4,218.3,315.5,218.3,320.4z M209.2,320.4c0,3.5,1.4,5.7,3.3,5.7c2,0,3.3-2.1,3.3-5.7c0-3.5-1.4-5.6-3.3-5.6
		C210.6,314.7,209.2,316.9,209.2,320.4z M224.5,310.7v22.6h-2.6v-22.6H224.5z"/>
	<path class="st0" d="M249.5,319.8v2h-20.3v-2H244c0.2-0.9,0.3-1.7,0.4-2.4l-12.9,0.5l-0.3-2l13.4-0.4c0-0.6,0-1.2,0-1.8h-12.8v-2
		h15.3v1.8c0,1.8,0,3.7-0.5,6.2H249.5z M234.1,331.1H248v2h-16.5v-5.8h13.1v-1.7h-13.2v-2h15.7v5.6h-13.2V331.1z"/>
	<path class="st0" d="M272.8,322.5v2.1h-20.4v-2.1H272.8z M254.6,316c0-2.8,3.2-4.6,8-4.6c4.9,0,8,1.7,8,4.6c0,2.9-3.2,4.6-8,4.6
		C257.7,320.6,254.6,318.9,254.6,316z M257.6,330.8h13v2.1H255v-6.6h2.6V330.8z M257.2,316c0,1.6,2.1,2.5,5.4,2.5
		c3.3,0,5.4-0.9,5.4-2.5c0-1.6-2.1-2.5-5.4-2.5C259.3,313.5,257.2,314.5,257.2,316z"/>
	<path class="st0" d="M293.8,320.4c0,4.9-2.4,8-5.8,8c-3.3,0-5.8-3.1-5.8-8c0-4.8,2.4-7.9,5.8-7.9
		C291.4,312.4,293.8,315.5,293.8,320.4z M284.7,320.4c0,3.5,1.4,5.7,3.3,5.7c2,0,3.3-2.1,3.3-5.7c0-3.5-1.4-5.6-3.3-5.6
		C286.1,314.7,284.7,316.9,284.7,320.4z M300,310.7v22.6h-2.6v-22.6H300z"/>
	<path class="st0" d="M308,325.9c3.5,0,6.2-0.1,9.3-0.7l0.2,2.1c-3.4,0.6-6.3,0.7-10.2,0.7h-1.8v-9.2h7.5v-4h-7.6v-2.1h10.1v8.2H308
		V325.9z M323.4,310.7v22.6h-2.6v-12h-3.9v-2.1h3.9v-8.5H323.4z"/>
	<path class="st0" d="M341.3,315.4H328v-2h5.4v-2.6h2.6v2.6h5.4V315.4z M334.6,325c-3.2,0-5.5-1.7-5.5-4.3c0-2.5,2.2-4.3,5.5-4.3
		c3.2,0,5.5,1.7,5.5,4.3C340.1,323.3,337.8,325,334.6,325z M333.9,330.8h12.6v2.1h-15.2v-6.5h2.6V330.8z M334.6,323
		c1.8,0,3-0.8,3-2.3s-1.2-2.3-3-2.3c-1.8,0-3,0.8-3,2.3S332.8,323,334.6,323z M348.7,318v2.1h-3.2v7.6H343v-16.9h2.6v7.2H348.7z"/>
	<path class="st0" d="M363.8,326.3c2.3-0.1,4.7-0.2,6.9-0.5l0.1,1.9c-4.6,0.8-9.8,0.9-13.8,0.9l-0.3-2.1c1.4,0,2.9,0,4.5,0v-6.8h2.5
		V326.3z M366.3,323.2c0.6-3.5,0.6-6.1,0.6-8H358v-2.1h11.5v1.5c0,2,0,4.8-0.6,8.8L366.3,323.2z M377.8,322.2h-3.3v11.1h-2.6v-22.6
		h2.6v9.3h3.3V322.2z"/>
	<path class="st0" d="M392.4,323.5c-2.5-0.9-4.3-2.6-5.2-4.8c-1,2.5-2.9,4.5-5.6,5.4l-1.3-2c3.5-1.2,5.5-4.2,5.5-7.3v-0.3H381v-2.1
		H393v2.1h-4.7v0.3c0,2.8,1.9,5.6,5.3,6.8L392.4,323.5z M399,329.1c0,2.7-2.9,4.3-7.6,4.3c-4.7,0-7.6-1.6-7.6-4.3
		c0-2.7,2.9-4.3,7.6-4.3C396.1,324.8,399,326.4,399,329.1z M396.4,329.1c0-1.5-1.8-2.3-5-2.3c-3.2,0-5,0.8-5,2.3s1.8,2.3,5,2.3
		C394.6,331.4,396.4,330.6,396.4,329.1z M396.3,316.4v-5.7h2.6v13.4h-2.6v-5.7h-4v-2.1H396.3z"/>
	<path class="st0" d="M423.9,320.2v2h-20.4v-2H423.9z M405.6,315c0-2.5,3-3.9,8-3.9c5,0,8,1.4,8,3.9c0,2.5-3,3.9-8,3.9
		C408.6,318.9,405.6,317.5,405.6,315z M408.5,331.2h13.5v2h-16v-5.7h12.9v-1.6h-12.9v-2h15.4v5.4h-12.8V331.2z M408.3,315
		c0,1.3,1.9,1.9,5.4,1.9c3.5,0,5.4-0.7,5.4-1.9c0-1.3-1.9-2-5.4-2C410.1,313,408.3,313.7,408.3,315z"/>
	<path class="st0" d="M443.9,323.8h-10.4v-11.5h2.5v3.7h5.3v-3.7h2.5v2.5h4.7v-3.9h2.6v16.7h-2.6v-5.8h-4.7V323.8z M441.4,318h-5.3
		v3.7h5.3V318z M451.7,330.8v2.1h-15.2v-7.1h2.6v5H451.7z M443.9,316.8v2.8h4.7v-2.8H443.9z"/>
	<path class="st0" d="M463.9,327c1.9-0.1,3.8-0.2,5.6-0.5l0.2,1.9c-4.8,0.8-10,0.9-13.9,0.9l-0.3-2.1c1.7,0,3.7,0,5.8-0.1v-2.2
		c-2.5-0.4-4.1-1.9-4.1-4.1c0-2.5,2.2-4.2,5.4-4.2c3.2,0,5.4,1.7,5.4,4.2c0,2.1-1.6,3.7-4.1,4.1V327z M469.3,315.4h-13.4v-2.1h5.4
		v-2.5h2.6v2.5h5.4V315.4z M462.6,323c1.8,0,3-0.8,3-2.2c0-1.4-1.2-2.3-3-2.3c-1.8,0-3,0.8-3,2.3C459.6,322.2,460.8,323,462.6,323z
		 M476.6,322.3h-3.2v11h-2.6v-22.6h2.6v9.4h3.2V322.3z"/>
	<path class="st0" d="M487.3,316.3c0,4.1,2.3,8.3,5.8,9.9l-1.5,2c-2.6-1.2-4.6-3.7-5.6-6.8c-1,3.3-3,5.9-5.7,7.3l-1.5-2.1
		c3.6-1.6,5.9-5.9,5.9-10.3v-3.7h2.6V316.3z M497.5,310.7v22.6h-2.6v-22.6H497.5z"/>
	<path class="st0" d="M514.3,313c0,6.7-2.1,12.7-10.4,16.8l-1.4-2c4-2,6.4-4.3,7.8-7.1l-7.3,0.7l-0.3-2.2l8.4-0.5
		c0.3-1.1,0.5-2.3,0.6-3.5h-7.9V313H514.3z M520.8,310.8v22.6h-2.6v-22.6H520.8z"/>
	<path class="st0" d="M545.9,322v2.1h-20.5V322H545.9z M530.5,330.8h13.2v2.1h-15.8v-6.6h2.6V330.8z M543.5,319.3h-15.5v-7.8h2.6
		v5.7h12.9V319.3z"/>
	<path class="st0" d="M561.4,316.7c0,3.8,1.5,7.5,4.5,9.2l-1.5,2c-2.1-1.2-3.4-3.3-4.2-5.8c-0.8,2.7-2.3,5.1-4.4,6.4l-1.6-1.9
		c3.2-1.9,4.8-5.9,4.8-9.8v-4.1h2.5V316.7z M573.8,310.8v22.6h-2.4v-11.5h-2.5v10.5h-2.4v-21.1h2.4v8.5h2.5v-8.9H573.8z"/>
	<path class="st0" d="M598.2,328.6v2.1h-20.4v-2.1h8.9v-3.8h-6.4v-7.3h13v-3h-13v-2.1h15.6v7.1h-13v3.1h13.5v2.1h-7v3.8H598.2z"/>
	<path class="st0" d="M621.4,322v2.1h-8.7v4.3H610v-4.3h-9.1V322H621.4z M603.2,315.9c0-2.8,3.1-4.6,8-4.6c4.8,0,8,1.8,8,4.6
		c0,2.8-3.2,4.6-8,4.6C606.3,320.5,603.2,318.7,603.2,315.9z M606,330.8h13.1v2.1h-15.7v-6.7h2.6V330.8z M605.9,315.9
		c0,1.6,2.1,2.5,5.3,2.5c3.2,0,5.2-0.9,5.2-2.5c0-1.6-2.1-2.5-5.2-2.5C607.9,313.3,605.9,314.3,605.9,315.9z"/>
	<path class="st0" d="M642,313.1c0,6.7-2.7,12.4-10.4,16.2l-1.4-2c5.9-2.8,8.7-6.8,9.2-12h-8v-2.1H642z M648.6,310.8v22.6h-2.6
		v-22.6H648.6z"/>
	<path class="st0" d="M664.7,322v1.9h6.4v5.4h-12.8v1.8h13.5v2h-16v-5.6h12.9v-1.7h-12.9v-1.9h6.5V322h-8.9v-2h20.4v2H664.7z
		 M671.7,318.7c-3.7-0.5-6.8-2-8.3-4.2c-1.5,2.2-4.5,3.8-8.3,4.2l-0.9-2c4.5-0.5,7.8-2.7,7.8-5.2v-0.6h2.6v0.6
		c0,2.5,3.3,4.7,7.8,5.2L671.7,318.7z"/>
	<path class="st0" d="M688.9,317c0,3.1-2.5,5.2-6,5.2s-6-2.1-6-5.2c0-3.1,2.5-5.2,6-5.2S688.9,313.9,688.9,317z M679.4,317
		c0,1.9,1.4,3.1,3.5,3.1c2,0,3.5-1.2,3.5-3.1c0-1.9-1.4-3.1-3.5-3.1C680.8,313.9,679.4,315.2,679.4,317z M682.9,323.9v2.5h9.6v-2.5
		h2.5v9.1h-14.7v-9.1H682.9z M682.9,331h9.6v-2.5h-9.6V331z M695.1,310.8v12.1h-2.6v-12.1H695.1z"/>
	<path class="st0" d="M703.6,325.4c3.2,0,6.6-0.3,10.1-1l0.3,2.1c-3.9,0.8-7.5,1.1-11,1.1H701V313h2.5V325.4z M718.3,310.8v22.6
		h-2.6v-22.6H718.3z"/>
	<path class="st0" d="M726.4,325.7c3.6,0,6.4-0.2,9.5-0.7l0.3,2.1c-3.4,0.6-6.5,0.7-10.5,0.7h-1.8v-14.9h10.5v2.1h-7.9V325.7z
		 M743.9,321.6h-3.5v11.8h-2.6v-22.6h2.6v8.7h3.5V321.6z"/>
	<path class="st0" d="M746.7,329.7c0-1.2,0.8-2,1.9-2c1.1,0,1.9,0.9,1.9,2s-0.8,2-1.9,2C747.5,331.7,746.7,330.9,746.7,329.7z"/>
	<path class="st0" d="M780.1,320.3v2h-20.4v-2H780.1z M764.7,331.2h13.5v2h-16v-5.6H775v-1.6h-12.9V324h15.4v5.3h-12.8V331.2z
		 M777.4,318.7h-15.1v-7.5h2.5v1.9h10v-1.9h2.5V318.7z M774.9,314.9h-10v1.8h10V314.9z"/>
	<path class="st0" d="M803.3,326.5h-9v6.9h-2.6v-6.9h-8.9v-2.1h20.5V326.5z M798.3,313.6h-13v-2.1h15.6v6.3h-13v2.4h13.5v2.1h-16.1
		v-6.5h12.9V313.6z"/>
	<path class="st0" d="M819.9,316.3c0,4,2.1,8.1,5.5,9.8l-1.6,2c-2.4-1.3-4.2-3.7-5.2-6.6c-1,3.1-2.9,5.7-5.4,7.1l-1.6-2.1
		c3.5-1.7,5.7-6,5.7-10.2v-3.7h2.6V316.3z M833,321.8h-3.5v11.5h-2.6v-22.6h2.6v8.9h3.5V321.8z"/>
	<path class="st0" d="M847.6,320.4c0,4.9-2.4,8-5.8,8c-3.3,0-5.8-3.1-5.8-8c0-4.8,2.4-7.9,5.8-7.9
		C845.1,312.4,847.6,315.5,847.6,320.4z M838.4,320.4c0,3.5,1.4,5.7,3.3,5.7c2,0,3.3-2.1,3.3-5.7c0-3.5-1.4-5.6-3.3-5.6
		C839.8,314.7,838.4,316.9,838.4,320.4z M853.8,310.7v22.6h-2.6v-22.6H853.8z"/>
	<path class="st0" d="M878.8,319.8v2h-20.3v-2h14.8c0.2-0.9,0.3-1.7,0.4-2.4l-12.9,0.5l-0.3-2l13.4-0.4c0-0.6,0-1.2,0-1.8H861v-2
		h15.3v1.8c0,1.8,0,3.7-0.5,6.2H878.8z M863.3,331.1h13.9v2h-16.5v-5.8h13.1v-1.7h-13.2v-2h15.7v5.6h-13.2V331.1z"/>
	<path class="st0" d="M902,322.5v2.1h-20.4v-2.1H902z M883.8,316c0-2.8,3.2-4.6,8-4.6c4.9,0,8,1.7,8,4.6c0,2.9-3.2,4.6-8,4.6
		C887,320.6,883.8,318.9,883.8,316z M886.8,330.8h13v2.1h-15.6v-6.6h2.6V330.8z M886.4,316c0,1.6,2.1,2.5,5.4,2.5
		c3.3,0,5.4-0.9,5.4-2.5c0-1.6-2.1-2.5-5.4-2.5C888.5,313.5,886.4,314.5,886.4,316z"/>
	<path class="st0" d="M923.3,324.2c-2.6-0.8-4.5-2.6-5.5-4.8c-1,2.4-2.9,4.3-5.6,5.2l-1.3-2c3.6-1.2,5.6-4.1,5.6-7.2v-0.8h-4.9v-2.1
		h12.3v2.1h-4.8v0.8c0,2.9,2,5.6,5.5,6.7L923.3,324.2z M930,330.8v2.1h-15.4v-7.2h2.6v5.1H930z M929.3,327.2h-2.6v-16.4h2.6V327.2z"
		/>
	<path class="st0" d="M946.6,317c0,3.8,1.4,7.7,4.6,9.6l-1.5,1.9c-2.1-1.3-3.5-3.5-4.3-6.1c-0.8,2.8-2.3,5.3-4.4,6.6l-1.5-1.9
		c3.2-2,4.7-6.1,4.7-10.1v-1.6h-4v-2.1h10.2v2.1h-3.7V317z M952,311.2h2.4v21H952v-11.4h-3.3v-2.1h3.3V311.2z M959,310.7v22.6h-2.4
		v-22.6H959z"/>
	<path class="st0" d="M975,323.5c-2.5-0.8-4.3-2.5-5.3-4.7c-1,2.4-2.9,4.2-5.5,5.1l-1.3-2c3.6-1.2,5.5-4.1,5.5-7.2v-0.4h-4.8v-2.1
		h12.1v2.1h-4.7v0.4c0,2.8,1.9,5.6,5.3,6.8L975,323.5z M965.8,325.5h14.8v7.9h-2.6v-5.8h-12.3V325.5z M983.8,318.6h-3.2v5.7h-2.6
		v-13.6h2.6v5.8h3.2V318.6z"/>
	<path class="st0" d="M986.3,326.5c4,0,9.7,0,14.5-0.7l0.2,1.9c-5,1-10.4,1-14.4,1L986.3,326.5z M999.7,317.8c0,3.2-2.6,5.4-6.1,5.4
		s-6.1-2.2-6.1-5.4c0-3.2,2.6-5.4,6.1-5.4S999.7,314.6,999.7,317.8z M989.9,317.8c0,1.9,1.5,3.2,3.6,3.2c2.1,0,3.6-1.3,3.6-3.2
		c0-2-1.5-3.2-3.6-3.2C991.4,314.5,989.9,315.8,989.9,317.8z M1004.8,310.7v22.6h-2.6v-22.6H1004.8z"/>
	<path class="st0" d="M1016.1,313h10.6v14.7h-10.6V313z M1018.6,325.7h5.5V315h-5.5V325.7z M1036.3,321.7h-3.5v11.6h-2.6v-22.6h2.6
		v8.8h3.5V321.7z"/>
	<path class="st0" d="M1059,325.7h-9v7.6h-2.6v-7.6h-8.9v-2.1h20.5V325.7z M1056.4,320.9H1041V312h15.4V320.9z M1053.9,314h-10.3
		v4.8h10.3V314z"/>
	<path class="st0" d="M1065.6,325.9c3.6,0,6.7-0.2,10.3-0.8l0.3,2.1c-3.9,0.7-7.2,0.8-11.2,0.8h-1.9v-8.9h7.9v-4.2h-7.9v-2.1h10.5
		v8.4h-7.9V325.9z M1080.4,310.7v22.7h-2.6v-22.7H1080.4z"/>
	<path class="st0" d="M12.4,365.1c0,6.5-2.8,12.3-10.2,16.1l-1.4-2c5.5-2.8,8.5-6.8,9-12H1.9v-2.1H12.4z M21.7,373.8h-3.4v11.5h-2.6
		v-22.6h2.6v8.9h3.4V373.8z"/>
	<path class="st0" d="M45.3,373.1v2.1H25v-2.1h8v-4.1h2.6v4.1H45.3z M43,381.1c0,2.6-3.1,4.2-7.9,4.2c-4.9,0-7.9-1.6-7.9-4.2
		c0-2.6,3.1-4.2,7.9-4.2C39.9,376.9,43,378.5,43,381.1z M39.7,371.5c0.6-2.2,0.6-3.8,0.6-5.5H27.4v-2.1h15.5v1.9c0,1.8,0,3.7-0.6,6
		L39.7,371.5z M40.4,381.1c0-1.4-2-2.2-5.3-2.2c-3.3,0-5.4,0.8-5.4,2.2c0,1.4,2,2.3,5.4,2.3C38.4,383.4,40.4,382.5,40.4,381.1z"/>
	<path class="st0" d="M76.4,373.1v2.1H56v-2.1h8v-4.1h2.6v4.1H76.4z M74,381.1c0,2.6-3.1,4.2-7.9,4.2c-4.9,0-7.9-1.6-7.9-4.2
		c0-2.6,3.1-4.2,7.9-4.2C70.9,376.9,74,378.5,74,381.1z M70.7,371.5c0.6-2.2,0.6-3.8,0.6-5.5H58.4v-2.1h15.5v1.9c0,1.8,0,3.7-0.6,6
		L70.7,371.5z M71.4,381.1c0-1.4-2-2.2-5.3-2.2c-3.3,0-5.4,0.8-5.4,2.2c0,1.4,2,2.3,5.4,2.3C69.5,383.4,71.4,382.5,71.4,381.1z"/>
	<path class="st0" d="M92.4,375.5c-2.5-0.9-4.3-2.6-5.2-4.8c-1,2.5-2.9,4.5-5.6,5.4l-1.3-2c3.5-1.2,5.5-4.2,5.5-7.3v-0.3H81v-2.1H93
		v2.1h-4.7v0.3c0,2.8,1.9,5.6,5.3,6.8L92.4,375.5z M99,381.1c0,2.7-2.9,4.3-7.6,4.3c-4.7,0-7.6-1.6-7.6-4.3c0-2.7,2.9-4.3,7.6-4.3
		C96.1,376.8,99,378.4,99,381.1z M96.4,381.1c0-1.5-1.8-2.3-5-2.3c-3.2,0-5,0.8-5,2.3s1.8,2.3,5,2.3
		C94.6,383.4,96.4,382.6,96.4,381.1z M96.3,368.4v-5.7h2.6v13.4h-2.6v-5.7h-4v-2.1H96.3z"/>
	<path class="st0" d="M116.7,363.2h2.4v21.1h-2.4v-10.8h-2.4c-0.2,4.4-2.1,7.1-4.8,7.1c-2.9,0-4.8-3.1-4.8-8c0-4.9,1.9-8,4.8-8
		c2.7,0,4.5,2.6,4.8,6.8h2.4V363.2z M112,372.5c0-3.6-0.9-5.6-2.5-5.6s-2.5,2-2.5,5.6s1,5.6,2.5,5.6S112,376.1,112,372.5z
		 M123.7,362.8v22.5h-2.4v-22.5H123.7z"/>
	<path class="st0" d="M143.3,368.3c0,4,2.1,8.1,5.5,9.8l-1.6,2c-2.4-1.3-4.2-3.7-5.2-6.6c-1,3.1-2.9,5.7-5.4,7.1l-1.6-2.1
		c3.5-1.7,5.7-6,5.7-10.2v-3.7h2.6V368.3z M156.4,373.8h-3.5v11.5h-2.6v-22.6h2.6v8.9h3.5V373.8z"/>
	<path class="st0" d="M180,373.7v2h-20.4v-2h4.8v-3c-1.7-0.7-2.7-1.9-2.7-3.3c0-2.6,3.1-4.2,8-4.2c4.9,0,8,1.6,8,4.2
		c0,1.5-1,2.6-2.7,3.4v3H180z M177.5,381.3c0,2.6-2.9,4-7.8,4c-4.8,0-7.8-1.5-7.8-4c0-2.6,2.9-4,7.8-4
		C174.6,377.2,177.5,378.7,177.5,381.3z M164.4,367.4c0,1.5,2,2.3,5.4,2.3c3.3,0,5.4-0.8,5.4-2.3c0-1.4-2-2.2-5.4-2.2
		C166.5,365.1,164.4,365.9,164.4,367.4z M174.9,381.3c0-1.4-1.9-2.1-5.2-2.1c-3.3,0-5.1,0.7-5.1,2.1c0,1.4,1.8,2.1,5.1,2.1
		C173.1,383.4,174.9,382.7,174.9,381.3z M167,373.7h5.5v-2.3c-0.8,0.1-1.8,0.2-2.7,0.2c-1,0-2-0.1-2.8-0.2V373.7z"/>
	<path class="st0" d="M192.6,378.4c2-0.1,4-0.2,5.9-0.4l0.2,1.9c-4.9,0.8-10.1,0.8-14.4,0.8l-0.3-2.1c1.9,0,3.9,0,6-0.1v-4.2h-4.5
		v-9.5H197v2.1h-9v5.3h9.1v2.1h-4.6V378.4z M202.4,362.7v22.7h-2.6v-22.7H202.4z"/>
	<path class="st0" d="M228.5,374v2.1H208V374H228.5z M213.1,382.8h13.2v2.1h-15.8v-6.6h2.6V382.8z M226.1,371.3h-15.5v-7.8h2.6v5.7
		h12.9V371.3z"/>
	<path class="st0" d="M250.5,374.1v1.9h6.4v5.4h-12.8v1.8h13.5v2h-16v-5.6h12.9v-1.6h-12.9v-2h6.5v-1.9H239v-2h20.4v2H250.5z
		 M256.8,370.4h-15.2v-7h15.2V370.4z M254.3,365.5h-10.1v2.9h10.1V365.5z"/>
	<path class="st0" d="M263.4,378.5c4,0,9.7,0,14.5-0.7l0.2,1.9c-5,1-10.4,1-14.4,1L263.4,378.5z M276.7,369.8c0,3.2-2.6,5.4-6.1,5.4
		s-6.1-2.2-6.1-5.4s2.6-5.4,6.1-5.4S276.7,366.6,276.7,369.8z M266.9,369.8c0,1.9,1.5,3.2,3.6,3.2c2.1,0,3.6-1.3,3.6-3.2
		c0-2-1.5-3.2-3.6-3.2C268.5,366.5,266.9,367.8,266.9,369.8z M281.8,362.7v22.6h-2.6v-22.6H281.8z"/>
	<path class="st0" d="M300.6,374.8c-3.4,0-6-2.2-6-5.4c0-3.2,2.6-5.4,6-5.4c3.4,0,6,2.2,6,5.4C306.6,372.6,304,374.8,300.6,374.8z
		 M300.6,372.7c2,0,3.5-1.3,3.5-3.2c0-1.9-1.5-3.2-3.5-3.2c-2,0-3.5,1.3-3.5,3.2C297.1,371.4,298.6,372.7,300.6,372.7z M312.1,381
		c0,2.7-2.9,4.3-7.5,4.3c-4.6,0-7.5-1.6-7.5-4.3c0-2.7,2.9-4.3,7.5-4.3C309.3,376.7,312.1,378.3,312.1,381z M309.6,381
		c0-1.5-1.8-2.3-5-2.3s-5,0.8-5,2.3c0,1.5,1.8,2.3,5,2.3S309.6,382.5,309.6,381z M311.9,368v2.7h3.1v2.1h-3.1v3.2h-2.6v-13.3h2.6
		v3.1h3.1v2.1H311.9z"/>
	<path class="st0" d="M338.9,372.2v2h-20.4v-2H338.9z M320.6,367c0-2.5,3-3.9,8-3.9c5,0,8,1.4,8,3.9c0,2.5-3,3.9-8,3.9
		C323.6,370.9,320.6,369.5,320.6,367z M323.5,383.2H337v2h-16v-5.7h12.9v-1.6h-12.9v-2h15.4v5.4h-12.8V383.2z M323.3,367
		c0,1.3,1.9,2,5.4,2c3.5,0,5.4-0.7,5.4-2c0-1.3-1.9-2-5.4-2C325.2,365,323.3,365.7,323.3,367z"/>
	<path class="st0" d="M358.3,378.6c2-0.1,4-0.3,5.8-0.6l0.2,1.9c-5,1-10.4,1-14.4,1l-0.3-2.1c1.8,0,3.9,0,6.1-0.1v-3.9h2.6V378.6z
		 M350.2,373.6c3.3-0.9,5.3-3.3,5.4-5.9h-4.9v-2.1h4.9v-2.6h2.6v2.6h4.9v2.1h-4.9c0.2,2.5,2.1,4.8,5.5,5.7l-1.1,2
		c-2.6-0.8-4.6-2.3-5.6-4.4c-1,2.2-2.9,3.8-5.6,4.6L350.2,373.6z M368.1,362.7v22.6h-2.6v-22.6H368.1z"/>
	<path class="st0" d="M377,377.8c2.6,0,4.6-0.2,7-0.6l0.2,2.1c-2.7,0.5-5,0.6-8.2,0.6h-1.5v-14.5h8.3v2.1H377V377.8z M392.9,362.7
		v22.6h-2.4v-11.5h-2.7v10.4h-2.4v-21h2.4v8.4h2.7v-8.9H392.9z"/>
	<path class="st0" d="M406.4,380c0.7,0.8,1.8,1.4,3,1.4c2.2,0,4.1-1.8,4.3-7c-1.1,1.3-2.6,2.2-4,2.2c-3.1,0-5.1-1.9-5.1-5.8
		c0-3.6,2.5-6,5.5-6c3.5,0,6.4,2.8,6.4,8.9c0,7.2-3.3,10.1-6.8,10.1c-2.1,0-3.6-0.8-4.7-2L406.4,380z M413.7,372.2
		c-0.3-3.6-1.6-5.3-3.6-5.3c-1.6,0-2.8,1.4-2.8,3.8c0,2.3,1,3.7,3,3.7C411.3,374.4,412.6,373.8,413.7,372.2z"/>
	<path class="st0" d="M421.8,380c0.7,0.8,1.8,1.4,3,1.4c2.2,0,4.1-1.8,4.3-7c-1.1,1.3-2.6,2.2-4,2.2c-3.1,0-5.1-1.9-5.1-5.8
		c0-3.6,2.5-6,5.5-6c3.5,0,6.4,2.8,6.4,8.9c0,7.2-3.3,10.1-6.8,10.1c-2.1,0-3.6-0.8-4.7-2L421.8,380z M429.1,372.2
		c-0.3-3.6-1.6-5.3-3.6-5.3c-1.6,0-2.8,1.4-2.8,3.8c0,2.3,1,3.7,3,3.7C426.7,374.4,428,373.8,429.1,372.2z"/>
	<path class="st0" d="M435.3,370.5c0-3.7,1.7-5.8,4.3-5.8c2.6,0,4.3,2.1,4.3,5.8c0,3.7-1.7,5.8-4.3,5.8
		C437,376.3,435.3,374.2,435.3,370.5z M441.8,370.5c0-2.8-0.9-4.1-2.2-4.1c-1.3,0-2.2,1.3-2.2,4.1c0,2.8,0.9,4.1,2.2,4.1
		C440.8,374.6,441.8,373.3,441.8,370.5z M450.2,364.7h1.8l-10.1,19.1h-1.8L450.2,364.7z M448.3,377.9c0-3.7,1.8-5.8,4.3-5.8
		c2.5,0,4.3,2.1,4.3,5.8c0,3.7-1.7,5.8-4.3,5.8C450,383.7,448.3,381.6,448.3,377.9z M454.8,377.9c0-2.8-0.9-4.1-2.2-4.1
		c-1.3,0-2.2,1.3-2.2,4.1c0,2.8,0.9,4.1,2.2,4.1C453.9,382.1,454.8,380.7,454.8,377.9z"/>
	<path class="st0" d="M461.7,371.3l1.6-2.7l-2.8-1.2l0.5-1.5l3,0.7l0.3-3.1h1.6l0.3,3.1l3-0.7l0.5,1.5l-2.8,1.2l1.6,2.7l-1.3,1
		l-2.1-2.4l-2.1,2.4L461.7,371.3z"/>
	<path class="st0" d="M492.5,374.2c-2.5-0.8-4.4-2.4-5.3-4.4c-1,2.2-2.9,4.1-5.6,4.9l-1.3-2c3.4-1.1,5.5-3.9,5.5-6.6v-0.2h-4.7v-2.1
		h12.1v2.1h-4.7v0.3c0,2.5,2,5,5.3,6.1L492.5,374.2z M499.9,383.1v2h-15.4v-5.9h12.1v-1.8h-12.1v-2h14.7v5.7H487v2H499.9z
		 M496.5,367.6v-4.8h2.6v11.6h-2.6v-4.6h-4v-2.1H496.5z"/>
	<path class="st0" d="M516,364.1c0,5.8-3.9,9.9-10.5,11.7l-1-2c5.3-1.4,8.3-4.1,8.8-7.6h-7.7v-2.1H516z M507.8,376.5h14.4v8.6h-14.4
		V376.5z M510.4,383h9.3v-4.5h-9.3V383z M525.4,370.1h-3.2v5.4h-2.6v-12.7h2.6v5.2h3.2V370.1z"/>
	<path class="st0" d="M542.2,367h-13.3v-2.1h5.4v-2.3h2.6v2.3h5.4V367z M535.5,375.8c-3.2,0-5.5-1.6-5.5-4c0-2.4,2.2-4,5.5-4
		c3.3,0,5.5,1.6,5.5,4C541,374.2,538.8,375.8,535.5,375.8z M543.9,376.9h2.5v8.2H532v-8.2h2.5v2.1h9.3V376.9z M535.5,373.9
		c1.8,0,3-0.8,3-2.1c0-1.3-1.2-2-3-2s-3,0.8-3,2C532.5,373.1,533.7,373.9,535.5,373.9z M543.9,380.9h-9.3v2.1h9.3V380.9z
		 M549.6,370.5h-3.2v5.4h-2.6v-13.2h2.6v5.6h3.2V370.5z"/>
	<path class="st0" d="M556.9,377.4c3.2,0,6.6-0.3,10.1-1l0.3,2.1c-3.9,0.8-7.5,1.1-11,1.1h-1.9V365h2.5V377.4z M571.7,362.8v22.6
		h-2.6v-22.6H571.7z"/>
	<path class="st0" d="M580.7,377.7c3.6,0,6.4-0.2,9.5-0.7l0.3,2.1c-3.4,0.6-6.5,0.7-10.5,0.7h-1.8v-14.9h10.5v2.1h-7.9V377.7z
		 M598.2,373.6h-3.5v11.8h-2.6v-22.6h2.6v8.7h3.5V373.6z"/>
	<path class="st0" d="M602,381.7c0-1.2,0.8-2,1.9-2c1.1,0,1.9,0.9,1.9,2s-0.8,2-1.9,2C602.8,383.7,602,382.9,602,381.7z"/>
	<path class="st0" d="M624.8,368.3c0,4,2.1,8.1,5.5,9.8l-1.6,2c-2.4-1.3-4.2-3.7-5.2-6.6c-1,3.1-2.9,5.7-5.4,7.1l-1.6-2.1
		c3.5-1.7,5.7-6,5.7-10.2v-3.7h2.6V368.3z M637.9,373.8h-3.5v11.5h-2.6v-22.6h2.6v8.9h3.5V373.8z"/>
	<path class="st0" d="M654.5,374.5c-3.4,0.6-6.3,0.7-10.7,0.7H642v-6.7h7.6V366h-7.7v-2.1h10.2v6.5h-7.7v2.7c3.9,0,6.6-0.1,9.7-0.7
		L654.5,374.5z M644.3,377.3h14.4v7.8h-14.4V377.3z M646.8,383h9.4v-3.7h-9.4V383z M661.9,370.5h-3.2v5.7h-2.6v-13.4h2.6v5.6h3.2
		V370.5z"/>
	<path class="st0" d="M677.7,372.4c0,4.9-2.4,8-5.8,8c-3.3,0-5.8-3.1-5.8-8c0-4.8,2.4-7.9,5.8-7.9
		C675.2,364.4,677.7,367.5,677.7,372.4z M668.5,372.4c0,3.5,1.4,5.7,3.3,5.7c2,0,3.3-2.1,3.3-5.7c0-3.5-1.4-5.6-3.3-5.6
		C669.9,366.7,668.5,368.9,668.5,372.4z M683.9,362.7v22.6h-2.6v-22.6H683.9z"/>
	<path class="st0" d="M704.2,368.3c0,4,2.1,8.1,5.5,9.8l-1.6,2c-2.4-1.3-4.2-3.7-5.2-6.6c-1,3.1-2.9,5.7-5.4,7.1l-1.6-2.1
		c3.5-1.7,5.7-6,5.7-10.2v-3.7h2.6V368.3z M717.3,373.8h-3.5v11.5h-2.6v-22.6h2.6v8.9h3.5V373.8z"/>
	<path class="st0" d="M741,380.5v2.1h-20.5v-2.1h8.9v-4.6h-7.1v-2.1h3.2v-6.9h-3.3v-2.1h17v2.1h-3.3v6.9h3.3v2.1H732v4.6H741z
		 M728.1,373.8h5.2v-6.9h-5.2V373.8z"/>
	<path class="st0" d="M765.2,380.6v2.1h-20.4v-2.1h8.9v-3.8h-6.4v-7.3h13v-3h-13v-2.1h15.6v7.1h-13v3.1h13.5v2.1h-7v3.8H765.2z"/>
	<path class="st0" d="M796.2,374.1v2.1h-8.7v4.2h-2.6v-4.2h-9.1v-2.1H796.2z M780.8,382.8h13.1v2.1h-15.7v-6.5h2.6V382.8z
		 M793.5,371.9h-15.2v-8.1h15.2V371.9z M791,365.8h-10.2v4H791V365.8z"/>
	<path class="st0" d="M812.7,374.1c-2.7-0.8-4.6-2.4-5.6-4.5c-1,2.3-3,4.1-5.7,5l-1.2-2c3.5-1,5.5-3.7,5.6-6.5h-4.9v-2.1h12.3v2.1
		h-4.8c0.1,2.6,2.1,5.1,5.5,6.1L812.7,374.1z M819.2,383.1v2h-15.4v-5.8H816v-1.9h-12.2v-1.9h14.8v5.7h-12.2v2H819.2z M818.5,374.4
		h-2.6v-11.6h2.6V374.4z"/>
	<path class="st0" d="M827.5,377.9c3.5,0,6.2-0.1,9.3-0.7l0.2,2.1c-3.4,0.6-6.3,0.7-10.2,0.7h-1.8v-9.2h7.5v-4h-7.6v-2.1H835v8.2
		h-7.5V377.9z M842.8,362.7v22.6h-2.6v-12h-3.9v-2.1h3.9v-8.5H842.8z"/>
	<path class="st0" d="M866.5,375.4h-10.6v-10.7h10.6V375.4z M864,366.8h-5.5v6.5h5.5V366.8z M861.1,382.8h12.6v2.1h-15.2v-7.2h2.6
		V382.8z M876,369.5v2.1h-3.2v7.7h-2.6v-16.5h2.6v6.7H876z"/>
	<path class="st0" d="M899.8,380.3v2.1h-20.5v-2.1H899.8z M897.5,375.5h-15.6v-10.7h15.5v2.1h-12.9v6.6h13.1V375.5z"/>
	<path class="st0" d="M924,374v2.1h-20.5V374H924z M908.6,382.8h13.2v2.1H906v-6.6h2.6V382.8z M921.7,371.3h-15.5v-7.8h2.6v5.7h12.9
		V371.3z"/>
	<path class="st0" d="M946.5,375.7h-10.7v-11.3h2.5v3.5h5.6v-3.5h2.6V375.7z M943.9,369.9h-5.6v3.7h5.6V369.9z M953.7,382.8v2.1
		h-15.4v-7.1h2.6v5H953.7z M953.2,379.4h-2.6v-16.6h2.6V379.4z"/>
	<path class="st0" d="M962.7,378c3.7,0,6.6-0.2,9.8-0.7l0.3,2.1c-3.5,0.6-6.6,0.7-10.8,0.7h-1.9v-15.3h11.1v2.1h-8.6v4.2h7.7v2.1
		h-7.7V378z M977.4,362.7v22.6h-2.6v-22.6H977.4z"/>
	<path class="st0" d="M991.3,369.3c0,3.7,2.3,7.6,5.8,9.1l-1.4,2c-2.6-1.1-4.6-3.6-5.7-6.5c-1,3.1-3,5.8-5.7,7.1l-1.5-2
		c3.5-1.6,5.8-5.8,5.8-9.7v-2.2h-5V365h12.6v2.1h-5V369.3z M1001.6,362.8v22.6H999v-22.6H1001.6z"/>
	<path class="st0" d="M1025.6,365.1c0,6.5-2.8,12.3-10.2,16.1l-1.4-2c5.5-2.8,8.5-6.8,9-12h-7.9v-2.1H1025.6z M1034.9,373.8h-3.4
		v11.5h-2.6v-22.6h2.6v8.9h3.4V373.8z"/>
	<path class="st0" d="M1058.6,373.1v2.1h-20.3v-2.1h8v-4.1h2.6v4.1H1058.6z M1056.2,381.1c0,2.6-3.1,4.2-7.9,4.2
		c-4.9,0-7.9-1.6-7.9-4.2c0-2.6,3.1-4.2,7.9-4.2C1053.1,376.9,1056.2,378.5,1056.2,381.1z M1052.9,371.5c0.6-2.2,0.6-3.8,0.6-5.5
		h-12.9v-2.1h15.5v1.9c0,1.8,0,3.7-0.6,6L1052.9,371.5z M1053.7,381.1c0-1.4-2-2.2-5.3-2.2c-3.3,0-5.4,0.8-5.4,2.2
		c0,1.4,2,2.3,5.4,2.3C1051.7,383.4,1053.7,382.5,1053.7,381.1z"/>
	<path class="st0" d="M1082.8,374.5v2.1h-20.4v-2.1H1082.8z M1064.6,368c0-2.8,3.2-4.6,8-4.6c4.9,0,8,1.7,8,4.6c0,2.9-3.2,4.6-8,4.6
		C1067.7,372.6,1064.6,370.9,1064.6,368z M1067.6,382.8h13v2.1H1065v-6.6h2.6V382.8z M1067.2,368c0,1.6,2.1,2.5,5.4,2.5
		c3.3,0,5.4-0.9,5.4-2.5c0-1.6-2.1-2.5-5.4-2.5C1069.3,365.5,1067.2,366.5,1067.2,368z"/>
	<path class="st0" d="M4,429.8c2.4,0,4.6-0.1,7.2-0.6l0.2,2.1c-3,0.5-5.6,0.6-8.4,0.6H1.5v-8.6H7v-4H1.4v-2.1h8v8.2H4V429.8z
		 M13,415.3h2.4v20.9H13v-11.4h-2.5v-2.1H13V415.3z M20,414.8v22.6h-2.4v-22.6H20z"/>
	<path class="st0" d="M37.1,424.4c0,4.9-2.4,8-5.8,8c-3.3,0-5.8-3.1-5.8-8c0-4.8,2.4-7.9,5.8-7.9C34.7,416.4,37.1,419.5,37.1,424.4z
		 M28,424.4c0,3.5,1.4,5.7,3.3,5.7c2,0,3.3-2.1,3.3-5.7c0-3.5-1.4-5.6-3.3-5.6C29.3,418.7,28,420.9,28,424.4z M43.3,414.7v22.6h-2.6
		v-22.6H43.3z"/>
	<path class="st0" d="M56.8,420.9c0,3.8,2.2,8,5.7,9.6l-1.5,2c-2.6-1.2-4.5-3.8-5.5-6.8c-1,3.2-2.9,5.9-5.6,7.3l-1.5-2
		c3.5-1.7,5.7-6,5.7-10v-1.8h-4.9V417h12.4v2.1h-4.9V420.9z M67.4,414.7v22.6h-2.6v-12.4h-4.4v-2.1h4.4v-8.1H67.4z"/>
	<path class="st0" d="M93.1,432.6v2.1H72.6v-2.1h8.9v-3.8h-6.4v-7.3h13v-3h-13v-2.1h15.6v7.1h-13v3.1h13.5v2.1h-7v3.8H93.1z"/>
	<path class="st0" d="M106.4,429.8c2.6,0,4.6-0.2,7-0.6l0.2,2.1c-2.7,0.5-5,0.6-8.2,0.6h-1.5v-14.5h8.3v2.1h-5.8V429.8z
		 M122.4,414.7v22.6h-2.4v-11.5h-2.7v10.4h-2.4v-21h2.4v8.4h2.7v-8.9H122.4z"/>
	<path class="st0" d="M133.9,421.7c0,3.5,1.5,7.1,4.6,8.8l-1.4,1.9c-2.1-1.1-3.6-3.2-4.4-5.7c-0.8,2.6-2.2,4.9-4.4,6.2l-1.5-1.9
		c3.1-1.8,4.6-5.7,4.6-9.3v-0.8h-3.9v-2.1h3.9v-3.2h2.4v3.2h3.9v2.1h-3.9V421.7z M139.3,415.2h2.4v21h-2.4v-10.6h-3v-2.1h3V415.2z
		 M146.3,414.8v22.6h-2.4v-22.6H146.3z"/>
	<path class="st0" d="M158.9,418.2h5.3v2.1h-13.2v-2.1h5.4v-3.1h2.6V418.2z M163.2,427.2c0,3.1-2.4,5.3-5.6,5.3
		c-3.2,0-5.6-2.2-5.6-5.3c0-3.1,2.3-5.3,5.6-5.3C160.9,421.9,163.2,424.1,163.2,427.2z M160.8,427.2c0-1.9-1.3-3.1-3.1-3.1
		c-1.8,0-3.1,1.3-3.1,3.1s1.3,3.1,3.1,3.1C159.5,430.4,160.8,429.1,160.8,427.2z M172,426h-3.5v11.4H166v-22.6h2.6v9.1h3.5V426z"/>
	<path class="st0" d="M193.7,414.7v22.6h-2.6v-8.6H186c-0.9,2.2-2.7,3.5-4.9,3.5c-3.3,0-5.7-3.1-5.7-8c0-4.8,2.4-7.9,5.7-7.9
		c2,0,3.7,1.2,4.7,3.2h5.3v-4.9H193.7z M184.4,424.4c0-3.5-1.3-5.6-3.3-5.6c-1.9,0-3.3,2.1-3.3,5.6c0,3.5,1.3,5.7,3.3,5.7
		C183,430,184.4,427.9,184.4,424.4z M191.1,426.7v-4.9h-4.6c0.2,0.8,0.3,1.7,0.3,2.6c0,0.8-0.1,1.6-0.2,2.3H191.1z"/>
	<path class="st0" d="M218.1,427.5c-2.6-0.8-4.5-2.6-5.5-4.8c-1,2.4-2.9,4.3-5.6,5.2l-1.4-2c3.6-1.2,5.6-4.1,5.6-7.2v-0.4h-4.9v-2.1
		h12.3v2.1h-4.8v0.4c0,2.9,2,5.6,5.5,6.8L218.1,427.5z M208.9,429.5h15.2v7.8h-2.6v-5.7h-12.6V429.5z M224.1,414.7v13.6h-2.6v-13.6
		H224.1z"/>
	<path class="st0" d="M235.7,427c-2.1,0.1-4.2,0.1-6,0.1l-0.3-2.1c4.1,0,9.7-0.1,14.5-0.7l0.2,1.8c-1.9,0.3-3.9,0.5-5.8,0.6v4.3
		h-2.6V427z M231.1,419.6c0-2.4,2.3-4,5.6-4c3.3,0,5.6,1.6,5.6,4s-2.3,4-5.6,4C233.4,423.6,231.1,422,231.1,419.6z M248.7,434.8v2.1
		h-16.3v-6.7h2.6v4.6H248.7z M233.5,419.6c0,1.3,1.3,2.1,3.1,2.1c1.8,0,3.1-0.8,3.1-2.1s-1.3-2.1-3.1-2.1
		C234.8,417.5,233.5,418.3,233.5,419.6z M245.6,428v-13.3h2.6v17.2h-2.6v-2.1h-4.4V428H245.6z"/>
	<path class="st0" d="M253.5,430.5c4,0,9.7,0,14.5-0.7l0.2,1.9c-5,1-10.4,1-14.4,1L253.5,430.5z M266.8,421.8c0,3.2-2.6,5.4-6.1,5.4
		s-6.1-2.2-6.1-5.4s2.6-5.4,6.1-5.4S266.8,418.6,266.8,421.8z M257.1,421.8c0,1.9,1.5,3.2,3.6,3.2c2.1,0,3.6-1.3,3.6-3.2
		c0-2-1.5-3.2-3.6-3.2C258.6,418.5,257.1,419.8,257.1,421.8z M272,414.7v22.6h-2.6v-22.6H272z"/>
	<path class="st0" d="M304.3,429.4h-9v8h-2.6v-8H284v-2.1h20.4V429.4z M302.5,425.2c-3.7-0.6-6.8-2.5-8.3-5.1
		c-1.4,2.6-4.6,4.5-8.3,5.1l-1-2.1c4.6-0.6,7.9-3.4,7.9-6.4v-1.2h2.7v1.2c0,2.9,3.4,5.7,7.9,6.4L302.5,425.2z"/>
	<path class="st0" d="M319.8,427.5c-2.5-0.8-4.3-2.5-5.3-4.7c-1,2.4-2.9,4.2-5.5,5.1l-1.3-2c3.6-1.2,5.5-4.1,5.5-7.2v-0.4h-4.8v-2.1
		h12.1v2.1h-4.7v0.4c0,2.8,1.9,5.6,5.3,6.8L319.8,427.5z M310.7,429.5h14.8v7.9h-2.6v-5.8h-12.3V429.5z M328.7,422.6h-3.2v5.7h-2.6
		v-13.6h2.6v5.8h3.2V422.6z"/>
	<path class="st0" d="M350.5,414.8v12.1H348v-4.8h-4.2c-0.5,2.5-2.7,4.3-5.7,4.3c-3.4,0-5.9-2.2-5.9-5.3c0-3.1,2.5-5.3,5.9-5.3
		c3,0,5.2,1.7,5.7,4.2h4.2v-5.2H350.5z M341.4,421c0-1.9-1.4-3.1-3.4-3.1c-2,0-3.4,1.2-3.4,3.1c0,1.9,1.4,3.2,3.4,3.2
		C340,424.2,341.4,422.9,341.4,421z M348,427.9h2.5v9.1h-14.7v-9.1h2.5v2.5h9.6V427.9z M348,432.5h-9.6v2.5h9.6V432.5z"/>
	<path class="st0" d="M382.8,430h-9v7.3h-2.6V430h-8.9V428h20.5V430z M380.3,425.5h-15.5v-9.9h2.6v2.8h10.3v-2.8h2.6V425.5z
		 M377.7,420.6h-10.3v2.9h10.3V420.6z"/>
	<path class="st0" d="M399.5,425.7c-2.9,0.6-5.6,0.8-10.4,0.8h-1.8v-10.2h10v2.1h-7.4v6c4.3,0,6.7-0.2,9.4-0.7L399.5,425.7z
		 M389.5,428.6h14.4v8.4h-14.4V428.6z M392.1,435h9.3v-4.3h-9.3V435z M407.1,422.2h-3.2v5.3h-2.6v-12.7h2.6v5.3h3.2V422.2z"/>
	<path class="st0" d="M430.7,424.2v2h-20.4v-2H430.7z M412.4,419c0-2.5,3-3.9,8-3.9c5,0,8,1.4,8,3.9c0,2.5-3,3.9-8,3.9
		C415.4,422.9,412.4,421.5,412.4,419z M415.3,435.2h13.5v2h-16v-5.7h12.9v-1.6h-12.9v-2h15.4v5.4h-12.8V435.2z M415.1,419
		c0,1.3,1.9,2,5.4,2c3.5,0,5.4-0.7,5.4-2c0-1.3-1.9-2-5.4-2C417,417,415.1,417.7,415.1,419z"/>
	<path class="st0" d="M452.3,426v1.9h6.4v5.4h-12.8v1.8h13.5v2h-16v-5.6h12.9v-1.7h-12.9v-1.9h6.5V426h-8.9v-2h20.4v2H452.3z
		 M441.8,421.1c4.1-0.3,7.1-1.8,7.6-3.7h-6.7v-2h16.7v2h-6.8c0.5,1.8,3.4,3.3,7.6,3.7l-0.8,1.9c-3.9-0.3-7-1.7-8.4-3.8
		c-1.4,2.1-4.4,3.5-8.4,3.8L441.8,421.1z"/>
	<path class="st0" d="M477.1,424.4c0,4.9-2.4,8-5.8,8c-3.3,0-5.8-3.1-5.8-8c0-4.8,2.4-7.9,5.8-7.9
		C474.7,416.4,477.1,419.5,477.1,424.4z M468,424.4c0,3.5,1.4,5.7,3.3,5.7c2,0,3.3-2.1,3.3-5.7c0-3.5-1.4-5.6-3.3-5.6
		C469.4,418.7,468,420.9,468,424.4z M483.3,414.7v22.6h-2.6v-22.6H483.3z"/>
	<path class="st0" d="M509.1,432.3v2.1h-20.4v-2.1h7.6v-7.9h2.6v7.9H509.1z M504.3,419h-13.5v-2.1h16.1v2.2c0,2.8,0,5.9-0.9,10.6
		l-2.6-0.3c0.9-4.4,0.9-7.6,0.9-10.3V419z"/>
	<path class="st0" d="M539.7,425v2.1h-20.5V425H534c0.6-2.8,0.6-4.9,0.6-6.8h-12.8V416h15.4v1.8c0,1.9,0,4.1-0.5,7.1H539.7z
		 M524.4,434.8h13.4v2.1h-15.9v-7.6h2.5V434.8z"/>
	<path class="st0" d="M563.6,429.7h-9v7.6H552v-7.6h-8.9v-2.1h20.5V429.7z M561.1,424.9h-15.4V416h15.4V424.9z M558.5,418h-10.3v4.8
		h10.3V418z"/>
	<path class="st0" d="M587.8,429c-4.7,0.9-10.1,1-14,1l-0.3-2c1.7,0,3.7,0,5.7-0.1v-1.5c-2.5-0.3-4.1-1.5-4.1-3.4
		c0-2.1,2.1-3.5,5.4-3.5c3.3,0,5.4,1.3,5.4,3.5c0,1.8-1.5,3.1-4,3.4v1.4c1.9-0.1,3.9-0.3,5.7-0.5L587.8,429z M587,418.7h-12.9v-1.9
		h5.2v-2.1h2.6v2.1h5.1V418.7z M579.3,434.8h12.8v2.1h-15.4v-5.6h2.6V434.8z M580.5,424.6c1.8,0,2.9-0.6,2.9-1.7
		c0-1.1-1.1-1.7-2.9-1.7c-1.8,0-2.9,0.7-2.9,1.7C577.6,424,578.7,424.6,580.5,424.6z M594.5,422.4v2.1h-3.1v7.9h-2.6v-17.7h2.6v7.7
		H594.5z"/>
	<path class="st0" d="M608.5,420.7c-1.4,3.6-4.7,6.1-9.6,7.5l-1-2c5.3-1.5,8.2-4.2,8.7-7.8h-7.5v-2.1h10.2c0,0.8-0.1,1.5-0.2,2.3
		h4.6v-3.9h2.6V428h-2.6v-2.6h-5.5v-2.1h5.5v-2.6H608.5z M616.5,432.8c0,2.8-3,4.5-7.5,4.5c-4.6,0-7.5-1.7-7.5-4.5
		c0-2.7,2.9-4.4,7.5-4.4C613.5,428.3,616.5,430,616.5,432.8z M613.9,432.8c0-1.5-1.9-2.4-5-2.4c-3,0-5,0.9-5,2.4
		c0,1.6,1.9,2.4,5,2.4C612,435.2,613.9,434.3,613.9,432.8z"/>
	<path class="st0" d="M642,424.2v2h-20.4v-2H642z M623.8,419c0-2.5,3-3.9,8-3.9c5,0,8,1.4,8,3.9c0,2.5-3,3.9-8,3.9
		C626.7,422.9,623.8,421.5,623.8,419z M626.6,435.2h13.5v2h-16v-5.7h12.9v-1.6H624v-2h15.4v5.4h-12.8V435.2z M626.4,419
		c0,1.3,1.9,2,5.4,2c3.5,0,5.4-0.7,5.4-2c0-1.3-1.9-2-5.4-2C628.3,417,626.4,417.7,626.4,419z"/>
	<path class="st0" d="M661.8,417.6c0,6-2,11.3-8.3,15l-1.5-1.8c4.9-2.8,6.9-6.5,7.3-11.1H653v-2.1H661.8z M671.3,414.8v22.6h-2.4
		v-11.6h-2.6v10.6h-2.4v-20.9h2.4v8.2h2.6v-8.8H671.3z"/>
	<path class="st0" d="M688,428c-2.4-0.9-4.2-2.7-5.1-5c-1,2.5-2.9,4.5-5.5,5.5l-1.4-2c3.5-1.2,5.5-4.4,5.5-7.8v-2.6h2.6v2.7
		c0,3,1.9,6,5.3,7.2L688,428z M695.3,434.8v2.1h-15.2v-7.1h2.6v5H695.3z M692.2,422h-4.6v-2.1h4.6v-5.1h2.6v16.8h-2.6V422z"/>
	<path class="st0" d="M713.4,419H700v-2.1h5.4v-2.3h2.6v2.3h5.4V419z M706.7,427.8c-3.2,0-5.5-1.6-5.5-4c0-2.4,2.2-4,5.5-4
		c3.3,0,5.5,1.6,5.5,4C712.2,426.2,710,427.8,706.7,427.8z M715.1,428.9h2.5v8.2h-14.4v-8.2h2.5v2.1h9.3V428.9z M706.7,425.9
		c1.8,0,3-0.8,3-2.1c0-1.3-1.2-2-3-2s-3,0.8-3,2C703.7,425.1,704.9,425.9,706.7,425.9z M715.1,432.9h-9.3v2.1h9.3V432.9z
		 M720.8,422.5h-3.2v5.4h-2.6v-13.2h2.6v5.6h3.2V422.5z"/>
	<path class="st0" d="M727.8,429.4c3.2,0,6.6-0.3,10.1-1l0.3,2.1c-3.9,0.8-7.5,1.1-11,1.1h-1.9V417h2.5V429.4z M742.6,414.8v22.6
		H740v-22.6H742.6z"/>
	<path class="st0" d="M751.4,429.7c3.6,0,6.4-0.2,9.5-0.7l0.3,2.1c-3.4,0.6-6.5,0.7-10.5,0.7h-1.8v-14.9h10.5v2.1h-7.9V429.7z
		 M768.9,425.6h-3.5v11.8h-2.6v-22.6h2.6v8.7h3.5V425.6z"/>
	<path class="st0" d="M772.4,433.7c0-1.2,0.8-2,1.9-2c1.1,0,1.9,0.9,1.9,2s-0.8,2-1.9,2C773.3,435.7,772.4,434.9,772.4,433.7z"/>
	<path class="st0" d="M807.3,429.6h-5.1v7.7h-2.6v-7.7h-5.1v7.7h-2.6v-7.7h-5v-2.1h20.5L807.3,429.6z M789,420.6c0-3,3.3-5,8-5
		c4.7,0,8,1.9,8,5c0,3-3.2,5-8,5C792.2,425.6,789,423.6,789,420.6z M791.6,420.6c0,1.8,2.1,2.9,5.4,2.9c3.2,0,5.3-1.1,5.3-2.9
		c0-1.8-2.1-2.9-5.3-2.9C793.8,417.7,791.6,418.8,791.6,420.6z"/>
	<path class="st0" d="M814.7,429.4c3.2,0,6.6-0.3,10.1-1l0.3,2.1c-3.9,0.8-7.5,1.1-11,1.1h-1.9V417h2.5V429.4z M829.4,414.8v22.6
		h-2.6v-22.6H829.4z"/>
	<path class="st0" d="M855.1,423.8v2h-20.3v-2h14.8c0.2-0.9,0.3-1.7,0.4-2.4l-12.9,0.5l-0.3-2l13.4-0.4c0-0.6,0-1.2,0-1.8h-12.8v-2
		h15.3v1.8c0,1.8,0,3.8-0.5,6.2H855.1z M839.6,435.1h13.9v2h-16.5v-5.8h13.1v-1.7h-13.2v-2h15.7v5.6h-13.2V435.1z"/>
	<path class="st0" d="M879.1,432.6v2.1h-20.4v-2.1h8.9v-3.8h-6.4v-7.3h13v-3h-13v-2.1h15.6v7.1h-13v3.1h13.5v2.1h-7v3.8H879.1z"/>
	<path class="st0" d="M882.8,430.5c4,0,9.7,0,14.5-0.7l0.2,1.9c-5,1-10.4,1-14.4,1L882.8,430.5z M896.1,421.8c0,3.2-2.6,5.4-6.1,5.4
		s-6.1-2.2-6.1-5.4s2.6-5.4,6.1-5.4S896.1,418.6,896.1,421.8z M886.3,421.8c0,1.9,1.5,3.2,3.6,3.2c2.1,0,3.6-1.3,3.6-3.2
		c0-2-1.5-3.2-3.6-3.2C887.8,418.5,886.3,419.8,886.3,421.8z M901.2,414.7v22.6h-2.6v-22.6H901.2z"/>
	<path class="st0" d="M921.5,421.3c0,3.7,2.3,7.6,5.8,9.1l-1.4,2c-2.6-1.1-4.6-3.6-5.7-6.5c-1,3.1-3,5.8-5.7,7.1l-1.5-2
		c3.5-1.6,5.8-5.8,5.8-9.7v-2.2h-5V417h12.6v2.1h-5V421.3z M931.7,414.8v22.6h-2.6v-22.6H931.7z"/>
	<path class="st0" d="M957.6,425.9v2.1h-20.5v-2.1h8.9v-3.2h2.6v3.2H957.6z M955.4,423.9c-3.6-0.6-6.6-2.2-8.1-4.7
		c-1.4,2.4-4.4,4.1-8.1,4.7l-1-2c4.4-0.6,7.7-3.1,7.7-5.9v-0.9h2.6v0.9c0,2.8,3.2,5.3,7.7,5.9L955.4,423.9z M939.4,429.9H955v7.4
		h-2.6V432h-13.1V429.9z"/>
	<path class="st0" d="M972.6,417.1c0,6.5-2.8,12.3-10.2,16.1l-1.4-2c5.5-2.8,8.5-6.8,9-12h-7.9v-2.1H972.6z M982,425.8h-3.4v11.5
		H976v-22.6h2.6v8.9h3.4V425.8z"/>
	<path class="st0" d="M1005.4,425.1v2.1H985v-2.1H1005.4z M1002.9,433.1c0,2.6-2.9,4.1-7.8,4.1c-4.8,0-7.8-1.5-7.8-4.1
		c0-2.6,2.9-4.2,7.8-4.2C1000,429,1002.9,430.5,1002.9,433.1z M1003.1,422.8h-15.4v-7.6h2.6v5.6h12.8V422.8z M1000.3,433.1
		c0-1.4-1.9-2.1-5.2-2.1c-3.3,0-5.1,0.7-5.1,2.1c0,1.4,1.8,2.1,5.1,2.1C998.5,435.3,1000.3,434.5,1000.3,433.1z"/>
	<path class="st0" d="M1022.3,419.4H1009v-2h5.4v-2.6h2.6v2.6h5.4V419.4z M1015.6,429c-3.2,0-5.5-1.7-5.5-4.3c0-2.5,2.2-4.3,5.5-4.3
		c3.2,0,5.5,1.7,5.5,4.3C1021.1,427.3,1018.9,429,1015.6,429z M1014.9,434.8h12.6v2.1h-15.2v-6.5h2.6V434.8z M1015.6,427
		c1.8,0,3-0.8,3-2.3s-1.2-2.3-3-2.3c-1.8,0-3,0.8-3,2.3S1013.9,427,1015.6,427z M1029.8,422v2.1h-3.2v7.6h-2.6v-16.9h2.6v7.2H1029.8
		z"/>
	<path class="st0" d="M1052.1,428.2c-2.6-0.8-4.5-2.6-5.5-4.8c-1,2.4-2.9,4.3-5.6,5.2l-1.4-2c3.6-1.2,5.6-4.1,5.6-7.2v-0.8h-4.9
		v-2.1h12.3v2.1h-4.8v0.8c0,2.9,2,5.6,5.5,6.7L1052.1,428.2z M1058.7,434.8v2.1h-15.4v-7.2h2.6v5.1H1058.7z M1058.1,431.2h-2.6
		v-16.4h2.6V431.2z"/>
	<path class="st0" d="M1083.8,426.5v2.1h-20.4v-2.1H1083.8z M1065.6,420c0-2.8,3.2-4.6,8-4.6c4.9,0,8,1.7,8,4.6c0,2.9-3.2,4.6-8,4.6
		C1068.8,424.6,1065.6,422.9,1065.6,420z M1068.6,434.8h13v2.1H1066v-6.6h2.6V434.8z M1068.2,420c0,1.6,2.1,2.5,5.4,2.5
		c3.3,0,5.4-0.9,5.4-2.5c0-1.6-2.1-2.5-5.4-2.5C1070.3,417.5,1068.2,418.5,1068.2,420z"/>
	<path class="st0" d="M14.9,481c-4.7,0.9-10.1,1-14,1l-0.3-2c1.7,0,3.7,0,5.7-0.1v-1.5c-2.5-0.3-4.1-1.5-4.1-3.4
		c0-2.1,2.1-3.5,5.4-3.5c3.3,0,5.4,1.3,5.4,3.5c0,1.8-1.5,3.1-4,3.4v1.4c1.9-0.1,3.9-0.3,5.7-0.5L14.9,481z M14.1,470.7H1.2v-1.9
		h5.2v-2.1h2.6v2.1h5.1V470.7z M6.4,486.8h12.8v2.1H3.9v-5.6h2.6V486.8z M7.6,476.6c1.8,0,2.9-0.6,2.9-1.7c0-1.1-1.1-1.7-2.9-1.7
		c-1.8,0-2.9,0.7-2.9,1.7C4.7,476,5.8,476.6,7.6,476.6z M21.5,474.4v2.1h-3.1v7.9h-2.6v-17.7h2.6v7.7H21.5z"/>
	<path class="st0" d="M36.9,472.7c-1.4,3.6-4.7,6.1-9.6,7.5l-1-2c5.3-1.5,8.2-4.2,8.7-7.8h-7.5v-2.1h10.2c0,0.8-0.1,1.5-0.2,2.3h4.6
		v-3.9h2.6V480h-2.6v-2.6h-5.5v-2.1h5.5v-2.6H36.9z M44.8,484.8c0,2.8-3,4.5-7.5,4.5c-4.6,0-7.5-1.7-7.5-4.5c0-2.7,2.9-4.4,7.5-4.4
		C41.9,480.3,44.8,482,44.8,484.8z M42.3,484.8c0-1.5-1.9-2.4-5-2.4c-3,0-5,0.9-5,2.4c0,1.6,1.9,2.4,5,2.4
		C40.4,487.2,42.3,486.3,42.3,484.8z"/>
	<path class="st0" d="M58,482.3c2.3-0.1,4.7-0.2,6.9-0.5l0.1,1.9c-4.6,0.8-9.8,0.9-13.8,0.9l-0.3-2.1c1.4,0,2.9,0,4.5,0v-6.8H58
		V482.3z M60.5,479.2c0.6-3.5,0.6-6.1,0.6-8h-8.9v-2.1h11.5v1.5c0,2,0,4.8-0.6,8.8L60.5,479.2z M72,478.2h-3.3v11.1h-2.6v-22.6h2.6
		v9.3H72V478.2z"/>
	<path class="st0" d="M92.2,472.3c0,4,2.1,8.1,5.5,9.8l-1.6,2c-2.4-1.3-4.2-3.7-5.2-6.6c-1,3.1-2.9,5.7-5.4,7.1l-1.6-2.1
		c3.5-1.7,5.7-6,5.7-10.2v-3.7h2.6V472.3z M105.3,477.8h-3.5v11.5h-2.6v-22.6h2.6v8.9h3.5V477.8z"/>
	<path class="st0" d="M122.9,478.5c-3.4,0.6-6.3,0.7-10.7,0.7h-1.8v-6.7h7.6V470h-7.7v-2.1h10.2v6.5H113v2.7c3.9,0,6.6-0.1,9.7-0.7
		L122.9,478.5z M112.7,481.3h14.4v7.8h-14.4V481.3z M115.3,487h9.4v-3.7h-9.4V487z M130.3,474.5h-3.2v5.7h-2.6v-13.4h2.6v5.6h3.2
		V474.5z"/>
	<path class="st0" d="M163,484.5v2.1h-20.4v-2.1h8.9v-5.1h-6.6v-10.8h15.8v10.8h-6.6v5.1H163z M147.4,477.3h10.7v-6.7h-10.7V477.3z"
		/>
	<path class="st0" d="M188.3,481.8h-9v7.5h-2.6v-7.5h-8.9v-2.1h20.5V481.8z M185.8,477.1h-15.3v-9h15v2.1h-12.4v4.9h12.6V477.1z"/>
	<path class="st0" d="M213.5,477.1v1.9H193v-1.9H213.5z M198,487.3h13.7v1.8h-16.2v-5.2h13v-1.6h-13v-1.8H211v5h-13V487.3z
		 M208.4,469.1h-12.8v-1.8h15.3v5h-12.7v1.6h13.1v1.8h-15.7v-5.1h12.7V469.1z"/>
	<path class="st0" d="M240.9,480c-2,0.4-4,0.6-6,0.8v7.9h-2.6v-7.8c-2.1,0.1-4.1,0.1-5.9,0.1l-0.3-2.1c4.1,0,9.7-0.1,14.6-0.8
		L240.9,480z M227.7,472.5c0-2.8,2.4-4.7,5.8-4.7s5.8,1.9,5.8,4.7c0,2.8-2.4,4.7-5.8,4.7S227.7,475.3,227.7,472.5z M230.1,472.5
		c0,1.6,1.4,2.6,3.3,2.6c2,0,3.3-1,3.3-2.6c0-1.6-1.4-2.6-3.3-2.6C231.5,469.9,230.1,470.9,230.1,472.5z M244.8,466.8v22.6h-2.6
		v-22.6H244.8z"/>
	<path class="st0" d="M264.7,471.4h-13.3v-2h5.4v-2.6h2.6v2.6h5.4V471.4z M258,481c-3.2,0-5.5-1.7-5.5-4.3c0-2.5,2.2-4.3,5.5-4.3
		c3.2,0,5.5,1.7,5.5,4.3C263.5,479.3,261.3,481,258,481z M257.3,486.8h12.6v2.1h-15.2v-6.5h2.6V486.8z M258,479c1.8,0,3-0.8,3-2.3
		s-1.2-2.3-3-2.3c-1.8,0-3,0.8-3,2.3S256.3,479,258,479z M272.2,474v2.1H269v7.6h-2.6v-16.9h2.6v7.2H272.2z"/>
	<path class="st0" d="M296,468.5c0,6-3.6,10.1-10.2,12.2l-1.1-2c5.2-1.6,8.1-4.5,8.5-8.1h-7.4v-2.1H296z M297,481
		c0,2.9,2.9,5.5,7.3,6.2l-1,2c-3.4-0.6-6.2-2.3-7.5-4.7c-1.4,2.4-4.1,4.1-7.6,4.8l-1-2c4.3-0.7,7.3-3.3,7.3-6.3v-0.9h2.6V481z
		 M300.5,475.1h-4.4v-2.1h4.4v-6.2h2.6v15.1h-2.6V475.1z"/>
	<path class="st0" d="M322,473c0,3.1-2.5,5.2-6,5.2s-6-2.1-6-5.2c0-3.1,2.5-5.2,6-5.2S322,469.9,322,473z M312.6,473
		c0,1.9,1.4,3.1,3.5,3.1c2,0,3.5-1.2,3.5-3.1c0-1.9-1.4-3.1-3.5-3.1C314,469.9,312.6,471.2,312.6,473z M316.1,479.9v2.5h9.6v-2.5
		h2.5v9.1h-14.7v-9.1H316.1z M316.1,487h9.6v-2.5h-9.6V487z M328.2,466.8v12.1h-2.6v-12.1H328.2z"/>
	<path class="st0" d="M338.8,481.4c3.2,0,6.6-0.3,10.1-1l0.3,2.1c-3.9,0.8-7.5,1.1-11,1.1h-1.9V469h2.5V481.4z M353.5,466.8v22.6
		h-2.6v-22.6H353.5z"/>
	<path class="st0" d="M363.6,481.7c3.6,0,6.4-0.2,9.5-0.7l0.3,2.1c-3.4,0.6-6.5,0.7-10.5,0.7H361v-14.9h10.5v2.1h-7.9V481.7z
		 M381.1,477.6h-3.5v11.8H375v-22.6h2.6v8.7h3.5V477.6z"/>
	<path class="st0" d="M385.9,485.7c0-1.2,0.8-2,1.9-2c1.1,0,1.9,0.9,1.9,2s-0.8,2-1.9,2C386.7,487.7,385.9,486.9,385.9,485.7z"/>
	<path class="st0" d="M423.3,476.3v2h-20.4v-2H423.3z M407.9,487.2h13.5v2h-16v-5.6h12.9v-1.6h-12.9V480h15.4v5.3h-12.8V487.2z
		 M420.6,474.7h-15.1v-7.5h2.5v1.9h10v-1.9h2.5V474.7z M418.1,470.9h-10v1.8h10V470.9z"/>
	<path class="st0" d="M448.5,482.5h-9v6.9h-2.6v-6.9h-8.9v-2.1h20.5V482.5z M443.5,469.6h-13v-2.1h15.6v6.3h-13v2.4h13.5v2.1h-16.1
		v-6.5h12.9V469.6z"/>
	<path class="st0" d="M469,472.3c0,4,2.1,8.1,5.5,9.8l-1.6,2c-2.4-1.3-4.2-3.7-5.2-6.6c-1,3.1-2.9,5.7-5.4,7.1l-1.6-2.1
		c3.5-1.7,5.7-6,5.7-10.2v-3.7h2.6V472.3z M482.1,477.8h-3.5v11.5H476v-22.6h2.6v8.9h3.5V477.8z"/>
	<path class="st0" d="M498.7,476.4c0,4.9-2.4,8-5.8,8c-3.3,0-5.8-3.1-5.8-8c0-4.8,2.4-7.9,5.8-7.9
		C496.3,468.4,498.7,471.5,498.7,476.4z M489.6,476.4c0,3.5,1.4,5.7,3.3,5.7c2,0,3.3-2.1,3.3-5.7c0-3.5-1.4-5.6-3.3-5.6
		C491,470.7,489.6,472.9,489.6,476.4z M504.9,466.7v22.6h-2.6v-22.6H504.9z"/>
	<path class="st0" d="M532,475.8v2h-20.3v-2h14.8c0.2-0.9,0.3-1.7,0.4-2.4l-12.9,0.5l-0.3-2l13.4-0.4c0-0.6,0-1.2,0-1.8h-12.8v-2
		h15.3v1.8c0,1.8,0,3.8-0.5,6.2H532z M516.5,487.1h13.9v2H514v-5.8h13.1v-1.7h-13.2v-2h15.7v5.6h-13.2V487.1z"/>
	<path class="st0" d="M557.2,478.5v2.1h-20.4v-2.1H557.2z M539,472c0-2.8,3.2-4.6,8-4.6c4.9,0,8,1.7,8,4.6c0,2.9-3.2,4.6-8,4.6
		C542.1,476.6,539,474.9,539,472z M542,486.8h13v2.1h-15.6v-6.6h2.6V486.8z M541.6,472c0,1.6,2.1,2.5,5.4,2.5c3.3,0,5.4-0.9,5.4-2.5
		c0-1.6-2.1-2.5-5.4-2.5C543.7,469.5,541.6,470.5,541.6,472z"/>
	<path class="st0" d="M578.2,473.3c0,3.7,2.3,7.6,5.8,9.1l-1.4,2c-2.6-1.1-4.6-3.6-5.7-6.5c-1,3.1-3,5.8-5.7,7.1l-1.5-2
		c3.5-1.6,5.8-5.8,5.8-9.7v-2.2h-5V469h12.6v2.1h-5V473.3z M588.5,466.8v22.6h-2.6v-22.6H588.5z"/>
	<path class="st0" d="M615.6,477.9v2.1h-20.5v-2.1h8.9v-3.2h2.6v3.2H615.6z M613.4,475.9c-3.6-0.6-6.6-2.2-8.1-4.7
		c-1.4,2.4-4.4,4.1-8.1,4.7l-1-2c4.4-0.6,7.7-3.1,7.7-5.9v-0.9h2.6v0.9c0,2.8,3.2,5.3,7.7,5.9L613.4,475.9z M597.4,481.9H613v7.4
		h-2.6V484h-13.1V481.9z"/>
	<path class="st0" d="M631.9,469.1c0,6.5-2.8,12.3-10.2,16.1l-1.4-2c5.5-2.8,8.5-6.8,9-12h-7.9v-2.1H631.9z M641.2,477.8h-3.4v11.5
		h-2.6v-22.6h2.6v8.9h3.4V477.8z"/>
	<path class="st0" d="M666,477.1v2.1h-20.4v-2.1H666z M663.5,485.1c0,2.6-2.9,4.1-7.8,4.1c-4.8,0-7.8-1.5-7.8-4.1
		c0-2.6,2.9-4.2,7.8-4.2C660.6,481,663.5,482.5,663.5,485.1z M663.7,474.8h-15.4v-7.6h2.6v5.6h12.8V474.8z M660.9,485.1
		c0-1.4-1.9-2.1-5.2-2.1c-3.3,0-5.1,0.7-5.1,2.1c0,1.4,1.8,2.1,5.1,2.1C659,487.3,660.9,486.5,660.9,485.1z"/>
	<path class="st0" d="M682.8,479.2c-2.4-0.9-4.2-2.6-5.1-4.8c-1,2.5-2.9,4.5-5.6,5.4l-1.3-2.1c3.6-1.2,5.6-4.3,5.6-7.6V468h2.6v2.1
		c0,3.1,1.9,5.9,5.3,7.1L682.8,479.2z M689.6,485c0,2.7-2.9,4.3-7.6,4.3c-4.7,0-7.6-1.6-7.6-4.3s2.9-4.3,7.6-4.3
		C686.7,480.7,689.6,482.3,689.6,485z M687,485c0-1.5-1.8-2.3-5-2.3s-5,0.8-5,2.3s1.8,2.3,5,2.3S687,486.5,687,485z M686.9,473.4
		h-4.6v-2.1h4.6v-4.5h2.6v13.3h-2.6V473.4z"/>
	<path class="st0" d="M716.4,476.2v2H696v-2H716.4z M698.2,471c0-2.5,3-3.9,8-3.9c5,0,8,1.4,8,3.9c0,2.5-3,3.9-8,3.9
		C701.1,474.9,698.2,473.5,698.2,471z M701,487.2h13.5v2h-16v-5.7h12.9v-1.6h-12.9v-2h15.4v5.4H701V487.2z M700.8,471
		c0,1.3,1.9,2,5.4,2c3.5,0,5.4-0.7,5.4-2c0-1.3-1.9-2-5.4-2C702.7,469,700.8,469.7,700.8,471z"/>
	<path class="st0" d="M742.4,471.2h-13.3v-2h5.4v-2.5h2.6v2.5h5.4V471.2z M735.8,480.2c-3.2,0-5.5-1.6-5.5-4c0-2.4,2.2-4,5.5-4
		c3.3,0,5.5,1.6,5.5,4C741.2,478.6,739,480.2,735.8,480.2z M747,485.4c0,2.5-2.8,4-7.4,4s-7.4-1.5-7.4-4c0-2.5,2.8-3.9,7.4-3.9
		S747,482.9,747,485.4z M735.8,478.3c1.8,0,3-0.8,3-2.1c0-1.3-1.2-2.1-3-2.1s-3,0.8-3,2.1C732.8,477.5,734,478.3,735.8,478.3z
		 M744.4,485.4c0-1.3-1.8-2-4.9-2c-3.1,0-4.9,0.7-4.9,2c0,1.3,1.8,2,4.9,2C742.6,487.4,744.4,486.7,744.4,485.4z M746.7,472.5v2.7
		h3.1v2.1h-3.1v3.8h-2.6v-14.4h2.6v3.6h3.1v2.1H746.7z"/>
	<path class="st0" d="M767.7,471.4h-13.3v-2h5.4v-2.6h2.6v2.6h5.4V471.4z M761,481c-3.2,0-5.5-1.7-5.5-4.3c0-2.5,2.2-4.3,5.5-4.3
		c3.2,0,5.5,1.7,5.5,4.3C766.5,479.3,764.2,481,761,481z M760.2,486.8h12.6v2.1h-15.2v-6.5h2.6V486.8z M761,479c1.8,0,3-0.8,3-2.3
		s-1.2-2.3-3-2.3c-1.8,0-3,0.8-3,2.3S759.2,479,761,479z M775.1,474v2.1h-3.2v7.6h-2.6v-16.9h2.6v7.2H775.1z"/>
	<path class="st0" d="M798.8,469c0,6.7-2.1,12.7-10.1,16.8l-1.4-2c3.8-1.9,6.2-4.3,7.5-7.1l-7,0.6l-0.4-2.2l8.2-0.5
		c0.3-1.1,0.5-2.3,0.6-3.5h-7.6V469H798.8z M806.1,466.8v22.6h-2.6v-11.6h-4.7v-2.1h4.7v-8.9H806.1z"/>
	<path class="st0" d="M816.1,481.7c3.6,0,6.4-0.2,9.5-0.7l0.3,2.1c-3.4,0.6-6.5,0.7-10.5,0.7h-1.8v-14.9H824v2.1h-7.9V481.7z
		 M833.6,477.6h-3.5v11.8h-2.6v-22.6h2.6v8.7h3.5V477.6z"/>
	<path class="st0" d="M851.2,479.3c-3.4,0.6-6.3,0.7-10.7,0.7h-1.8v-7h7.6v-2.7h-7.7v-2.1h10.2v6.7h-7.7v3c3.9,0,6.6-0.1,9.7-0.7
		L851.2,479.3z M843.9,486.8h12.5v2.1h-15.1v-6.8h2.6V486.8z M858.7,473.5v2.1h-3.2v7.8h-2.6v-16.6h2.6v6.7H858.7z"/>
	<path class="st0" d="M884.3,471.4h-13.3v-2h5.4v-2.6h2.6v2.6h5.4V471.4z M877.6,481c-3.2,0-5.5-1.7-5.5-4.3c0-2.5,2.2-4.3,5.5-4.3
		c3.2,0,5.5,1.7,5.5,4.3C883.1,479.3,880.8,481,877.6,481z M876.8,486.8h12.6v2.1h-15.2v-6.5h2.6V486.8z M877.6,479
		c1.8,0,3-0.8,3-2.3s-1.2-2.3-3-2.3c-1.8,0-3,0.8-3,2.3S875.8,479,877.6,479z M891.7,474v2.1h-3.2v7.6H886v-16.9h2.6v7.2H891.7z"/>
	<path class="st0" d="M915.4,467.7c0,5.7-3.7,9.4-10.2,11l-0.9-2c5.2-1.2,8-3.7,8.4-6.9h-7.2v-2.1H915.4z M923.3,487.1v2.1H908v-6.1
		h12.1v-1.9H908v-2.1h14.7v5.9h-12.1v2.1H923.3z M920.1,474h-4.5v-2.1h4.5v-5.1h2.6v11.4h-2.6V474z"/>
	<path class="st0" d="M949.6,477.5v2h-20.4v-2H949.6z M947.5,471.6c0,2.7-3.1,4.3-8,4.3s-8-1.6-8-4.3c0-2.7,3.1-4.3,8-4.3
		S947.5,468.9,947.5,471.6z M947.1,481.5v7.5h-15.5v-7.5H947.1z M934,471.6c0,1.5,2,2.3,5.4,2.3c3.3,0,5.4-0.8,5.4-2.3
		c0-1.5-2-2.3-5.4-2.3C936.1,469.2,934,470.1,934,471.6z M934.2,483.6v3.4h10.4v-3.4H934.2z"/>
	<path class="st0" d="M966.8,476.4c0,4.9-2.4,8-5.8,8c-3.3,0-5.8-3.1-5.8-8c0-4.8,2.4-7.9,5.8-7.9
		C964.4,468.4,966.8,471.5,966.8,476.4z M957.7,476.4c0,3.5,1.4,5.7,3.3,5.7c2,0,3.3-2.1,3.3-5.7c0-3.5-1.4-5.6-3.3-5.6
		C959,470.7,957.7,472.9,957.7,476.4z M973,466.7v22.6h-2.6v-22.6H973z"/>
	<path class="st0" d="M998.4,466.7v22.6h-2.6v-9.1H991v3.4h-10.5v-14.8H991v3.2h4.8v-5.3H998.4z M988.5,470.9H983v10.8h5.4V470.9z
		 M995.8,478.2v-4.1H991v4.1H995.8z"/>
	<path class="st0" d="M1033.2,481.7h-9v7.7h-2.6v-7.7h-8.9v-2.1h20.5V481.7z M1014.9,472.6c0-3,3.3-5,8-5c4.7,0,8,1.9,8,5
		c0,3.1-3.2,5-8,5C1018.1,477.6,1014.9,475.7,1014.9,472.6z M1017.5,472.6c0,1.8,2.1,2.9,5.4,2.9c3.2,0,5.3-1.1,5.3-2.9
		c0-1.8-2.1-2.9-5.3-2.9C1019.7,469.7,1017.5,470.8,1017.5,472.6z"/>
	<path class="st0" d="M1041.8,481.9c3.6,0,6.7-0.2,10.3-0.8l0.3,2.1c-3.9,0.7-7.2,0.8-11.2,0.8h-1.9v-8.9h7.9v-4.2h-7.9v-2.1h10.5
		v8.4h-7.9V481.9z M1056.6,466.7v22.7h-2.6v-22.7H1056.6z"/>
	<path class="st0" d="M1083.7,478v2.1h-20.5V478H1083.7z M1068.2,486.8h13.2v2.1h-15.8v-6.6h2.6V486.8z M1081.3,475.3h-15.5v-7.8
		h2.6v5.7h12.9V475.3z"/>
	<path class="st0" d="M7.1,530.7c-3.5,0-6-2.2-6-5.3s2.5-5.3,6-5.3c3.4,0,6,2.2,6,5.3S10.5,530.7,7.1,530.7z M7.1,528.6
		c2,0,3.5-1.3,3.5-3.2c0-1.9-1.5-3.2-3.5-3.2c-2,0-3.5,1.3-3.5,3.2C3.6,527.3,5.1,528.6,7.1,528.6z M16,538.9h3.2v2H3.7v-2h3.1v-4.3
		H3.9v-2h15.1v2H16V538.9z M9.3,538.9h4.1v-4.3H9.3V538.9z M21.6,524v2.1h-3.2v5.3h-2.6v-12.6h2.6v5.2H21.6z"/>
	<path class="st0" d="M45,536.4v2.1H24.5v-2.1H45z M43,526.4c0,3.8-3.6,6.4-8.3,6.4c-4.7,0-8.3-2.5-8.3-6.4c0-3.8,3.6-6.4,8.3-6.4
		C39.4,520,43,522.6,43,526.4z M28.9,526.4c0,2.6,2.4,4.2,5.8,4.2c3.3,0,5.8-1.6,5.8-4.2c0-2.6-2.5-4.2-5.8-4.2
		C31.4,522.2,28.9,523.8,28.9,526.4z"/>
	<path class="st0" d="M68.7,536.6v2.1H48.3v-2.1h8.9v-3.8h-6.4v-7.3h13v-3h-13v-2.1h15.6v7.1h-13v3.1h13.5v2.1h-7v3.8H68.7z"/>
	<path class="st0" d="M92.5,536.5v2.1H72v-2.1h8.9v-5.3h-6.4v-10.7H90v2.1H77.1v6.6h13.1v2.1h-6.7v5.3H92.5z"/>
	<path class="st0" d="M114.4,519.3h2.4v20.9h-2.4v-7.6h-3.7v-2.1h3.7V527h-3.3c-1,3.8-3.4,7.1-7.6,9.6l-1.5-1.8
		c4.6-2.8,6.9-6.5,7.3-11.1h-6.2v-2.1h8.7c0,1.2-0.1,2.3-0.3,3.3h2.8V519.3z M121.4,518.8v22.6H119v-22.6H121.4z"/>
	<path class="st0" d="M146.3,529.9v2.1h-20.5v-2.1h8.9v-3.2h2.6v3.2H146.3z M144.1,527.9c-3.6-0.6-6.6-2.2-8.1-4.7
		c-1.4,2.4-4.4,4.1-8.1,4.7l-1-2c4.4-0.6,7.7-3.1,7.7-5.9v-0.9h2.6v0.9c0,2.8,3.2,5.3,7.7,5.9L144.1,527.9z M128.2,533.9h15.6v7.4
		h-2.6V536h-13.1V533.9z"/>
	<path class="st0" d="M159.4,533.6c3,0,6.3-0.3,9.7-1l0.3,2.1c-3.8,0.8-7.3,1-10.7,1h-1.9V521h2.6V533.6z M176.9,529.7h-3.4v11.6
		h-2.6v-22.6h2.6v8.8h3.4V529.7z"/>
	<path class="st0" d="M191.6,528.4c0,4.9-2.4,7.9-5.8,7.9s-5.8-3.1-5.8-7.9s2.4-8,5.8-8S191.6,523.5,191.6,528.4z M189.1,528.4
		c0-3.5-1.4-5.6-3.3-5.6c-2,0-3.3,2.1-3.3,5.6s1.3,5.6,3.3,5.6C187.7,534,189.1,531.9,189.1,528.4z M200.8,529.7h-3.5v11.6h-2.6
		v-22.6h2.6v8.8h3.5V529.7z"/>
	<path class="st0" d="M215,519.7c0,5.8-3.9,9.5-10.6,11l-0.9-2.1c5.4-1.1,8.3-3.7,8.7-6.8h-7.7v-2.1H215z M209.2,539.1h12.7v2.1
		h-15.3v-6.1h12v-1.9h-12v-2.1h14.6v5.9h-12V539.1z M224.3,523.6v2.1h-3.2v4.5h-2.6v-11.4h2.6v4.8H224.3z"/>
	<path class="st0" d="M245.2,520.5c0,6-3.6,10.1-10.2,12.2l-1.1-2c5.2-1.6,8.1-4.5,8.5-8.1h-7.4v-2.1H245.2z M246.2,533
		c0,2.9,2.9,5.5,7.3,6.2l-1,2c-3.4-0.6-6.2-2.3-7.5-4.7c-1.4,2.4-4.1,4.1-7.6,4.8l-1-2c4.3-0.7,7.3-3.3,7.3-6.3v-0.9h2.6V533z
		 M249.8,527.1h-4.4v-2.1h4.4v-6.2h2.6v15.1h-2.6V527.1z"/>
	<path class="st0" d="M269.8,525c0,3.1-2.5,5.2-6,5.2s-6-2.1-6-5.2c0-3.1,2.5-5.2,6-5.2S269.8,521.9,269.8,525z M260.4,525
		c0,1.9,1.4,3.1,3.5,3.1c2,0,3.5-1.2,3.5-3.1c0-1.9-1.4-3.1-3.5-3.1C261.8,521.9,260.4,523.2,260.4,525z M263.8,531.9v2.5h9.6v-2.5
		h2.5v9.1h-14.7v-9.1H263.8z M263.8,539h9.6v-2.5h-9.6V539z M276,518.8v12.1h-2.6v-12.1H276z"/>
	<path class="st0" d="M285,533.4c3.2,0,6.6-0.3,10.1-1l0.3,2.1c-3.9,0.8-7.5,1.1-11,1.1h-1.9V521h2.5V533.4z M299.8,518.8v22.6h-2.6
		v-22.6H299.8z"/>
	<path class="st0" d="M308.4,533.7c3.6,0,6.4-0.2,9.5-0.7l0.3,2.1c-3.4,0.6-6.5,0.7-10.5,0.7h-1.8v-14.9h10.5v2.1h-7.9V533.7z
		 M325.9,529.6h-3.5v11.8h-2.6v-22.6h2.6v8.7h3.5V529.6z"/>
	<path class="st0" d="M329.2,537.7c0-1.2,0.8-2,1.9-2c1.1,0,1.9,0.9,1.9,2s-0.8,2-1.9,2C330,539.7,329.2,538.9,329.2,537.7z"/>
</g>
</svg>
