<svg xmlns="http://www.w3.org/2000/svg" viewBox="0 0 30 30"><defs><style>.cls-1{fill:#0f75bc;}.cls-2{fill:#fff;}.cls-3{fill:none;stroke:#fff;stroke-miterlimit:10;stroke-width:2px;}</style></defs><g id="BUTTON"><rect class="cls-1" x="1.5" y="1.5" width="27" height="27"/><path class="cls-1" d="M27,3V27H3V3H27m3-3H0V30H30V0Z"/><path class="cls-2" d="M11.79,19H10.05v5.8H8.9V19H7.16V17.84h4.63Z"/><path class="cls-2" d="M15.11,17.77a2.31,2.31,0,0,1,2.31,2.32v2.46a2.32,2.32,0,1,1-4.63,0V20.09A2.32,2.32,0,0,1,15.11,17.77Zm0,1.16A1.16,1.16,0,0,0,14,20.09v2.46a1.16,1.16,0,1,0,2.31,0V20.09A1.15,1.15,0,0,0,15.11,18.93Z"/><path class="cls-2" d="M23.62,20.16a2.32,2.32,0,0,1-2.31,2.32H20.15V24.8H19v-7h2.32A2.31,2.31,0,0,1,23.62,20.16Zm-1.16,0A1.15,1.15,0,0,0,21.31,19H20.15v2.32h1.16A1.15,1.15,0,0,0,22.46,20.16Z"/><polyline class="cls-3" points="20.5 13.25 15 6.75 9.5 13.25"/></g></svg>