<?xml version="1.0" encoding="utf-8"?>
<!-- Generator: Adobe Illustrator 21.0.0, SVG Export Plug-In . SVG Version: 6.00 Build 0)  -->
<svg version="1.1" id="레이어_1" xmlns="http://www.w3.org/2000/svg" xmlns:xlink="http://www.w3.org/1999/xlink" x="0px"
	 y="0px" viewBox="0 0 666 74" style="enable-background:new 0 0 666 74;" xml:space="preserve">
<style type="text/css">
	.st0{fill:#0F75BC;}
</style>
<g>
	<path class="st0" d="M64.8,54.7v8H3.2v-8H64.8z M47.5,17.4h-38V9.7h47.7v8.1c0,9.5,0,18.9-2.5,32.9l-9.7-0.9
		c2.4-13,2.4-22.7,2.4-32V17.4z"/>
	<path class="st0" d="M116.8,39.9H84.1V7.5h9.6v8.6h13.4V7.5h9.6V39.9z M88.7,46H111v25.5h-9.6V53.8H88.7V46z M107.2,23.6H93.8v8.7
		h13.4V23.6z M114,46h21.8v25.5h-9.6V53.8H114V46z M144.8,27.2h-9v15.7H126V3.5h9.8v15.8h9V27.2z"/>
	<path class="st0" d="M147.6,49.9c12,0,28.7-0.1,43.1-2.2l0.6,7c-14.7,3-30.6,3.1-42.4,3.1L147.6,49.9z M188,24.7
		c0,9.8-8.1,16.8-18.8,16.8c-10.7,0-18.7-7-18.7-16.8c0-9.8,8.1-16.8,18.7-16.8C179.8,7.9,188,14.9,188,24.7z M159.9,24.7
		c0,5.3,4,8.4,9.3,8.4c5.3,0,9.3-3.1,9.3-8.4c0-5.3-4-8.4-9.3-8.4C163.9,16.3,159.9,19.4,159.9,24.7z M204.1,3.3v68.4h-9.8V3.3
		H204.1z"/>
	<path class="st0" d="M268.2,40.2c-14.3,2.5-30,2.7-41.8,2.7l-1-6.7c4.9,0,10.4,0,16.2-0.1V33c-7.3-0.9-11.8-4-11.8-8.7
		c0-5.6,6.5-8.9,16.7-8.9s16.6,3.3,16.6,8.9c0,4.7-4.4,7.8-11.7,8.7v2.7c5.5-0.3,11-0.7,16.1-1.3L268.2,40.2z M265.8,14.1h-38.7V7.7
		h14.5V2.9h9.8v4.8h14.4V14.1z M244.2,64.6h38.4V71h-48.1V55.3h36.1v-3h-36.2v-6.4h45.8v15.4h-36V64.6z M246.5,27.4
		c4.7,0,7.3-1,7.3-3c0-1.9-2.7-2.9-7.3-2.9c-4.7,0-7.4,1-7.4,2.9C239.1,26.3,241.8,27.4,246.5,27.4z M288.8,19.4v8h-8.6v16.1h-9.8
		V3.4h9.8v16.1H288.8z"/>
	<path class="st0" d="M353.1,35.4v7.8h-61.6v-7.8h25.9v-5.6h-18.4V6.3h46.8V14h-37.1v8H346v7.8h-18.9v5.6H353.1z M345.7,59.1
		c0,8-9,12.5-23.7,12.5s-23.6-4.5-23.6-12.5c0-8.1,8.9-12.6,23.6-12.6S345.7,51,345.7,59.1z M335.7,59.1c0-3.6-4.7-5.2-13.8-5.2
		s-13.8,1.6-13.8,5.2s4.7,5.1,13.8,5.1S335.7,62.7,335.7,59.1z"/>
</g>
</svg>
