<?xml version="1.0" encoding="utf-8"?>
<!-- Generator: Adobe Illustrator 21.0.0, SVG Export Plug-In . SVG Version: 6.00 Build 0)  -->
<svg version="1.1" id="레이어_1" xmlns="http://www.w3.org/2000/svg" xmlns:xlink="http://www.w3.org/1999/xlink" x="0px"
	 y="0px" viewBox="0 0 1079.3 223" style="enable-background:new 0 0 1079.3 223;" xml:space="preserve">
<style type="text/css">
	.st0{fill:#0F75BC;}
</style>
<g>
	<path class="st0" d="M20.5,58.5c12.4-0.1,21.3-0.8,31.2-2.4l1.2,10.1c-11.7,2.2-22,2.5-37.8,2.5h-7V10.5h39.2v9.9H20.5V58.5z
		 M76.7,2.8v86.9H64.3v-47H43.1v-10h21.1V2.8H76.7z"/>
	<path class="st0" d="M119.4,57.8c10.9-0.3,22.7-1.2,34.8-3.6l1.2,10.2c-14.4,3-28.3,3.8-40.9,3.8H107V11h12.4V57.8z M184.2,45.7
		h-12.1v43.5h-12.4V2.7h12.4v32.7h12.1V45.7z"/>
	<path class="st0" d="M265.3,47v9.9h-78.2V47H265.3z M194.9,23.2c0-11,12.5-17.9,31.3-17.9c18.9,0,31.4,6.9,31.4,17.9
		s-12.5,17.9-31.4,17.9C207.4,41.1,194.9,34.2,194.9,23.2z M209,78h47.6v9.9h-60V62.7H209V78z M207.6,23.2c0,5.4,7,8,18.5,8
		c11.7,0,18.6-2.6,18.6-8c0-5.3-7-8.1-18.6-8.1C214.6,15.1,207.6,17.9,207.6,23.2z"/>
	<path class="st0" d="M49.4,180.8c-9.4-3-15.9-9.1-19.6-16.7c-3.9,8.4-10.6,15-20.6,18.3l-6.5-9.7c14.1-4.6,20.2-15.4,20.5-26.1H6
		v-9.9h46.8v9.9H35.9c0.3,10,6.2,20.2,19.8,24.6L49.4,180.8z M14.4,187.6h57.8v30.6H59.8v-20.8H14.4V187.6z M83.7,162.7H72.2v21.1
		H59.8v-52.2h12.4v20.9h11.5V162.7z"/>
	<path class="st0" d="M159.1,131.6v46.5h-12.4v-17.4H133c-2.4,9.4-11.2,15.8-22.4,15.8c-13,0-22.7-8.6-22.7-20.7s9.8-20.7,22.7-20.7
		c11,0,19.8,6.3,22.3,15.5h13.8v-19.1H159.1z M121.6,155.8c0-6.5-4.6-10.3-11-10.3c-6.3,0-10.9,3.9-10.9,10.3s4.6,10.3,10.9,10.3
		C117,166.2,121.6,162.3,121.6,155.8z M146.8,181.9h12.3v35.2h-57.3v-35.2h12.3v8.3h32.7V181.9z M146.8,199.6h-32.7v7.8h32.7V199.6z
		"/>
	<path class="st0" d="M240.4,187c-18,3.4-38.3,3.8-53.1,3.9l-1.3-9.5c6.1,0,13.2,0,20.6-0.3v-5c-9.2-1.4-14.9-6.1-14.9-12.9
		c0-8.4,8.4-13.4,21.1-13.4c12.7,0,21.1,5.1,21.1,13.4c0,6.8-5.7,11.5-14.9,12.9v4.4c7-0.5,13.9-1,20.5-2L240.4,187z M237.3,147.5
		h-49.2v-8.8h18.4v-7.4H219v7.4h18.3V147.5z M210.5,206.8h48.1v9.9h-60.5V195h12.4V206.8z M212.8,168.3c5.8,0,9.3-1.8,9.3-5.1
		c0-3.4-3.5-5.2-9.3-5.2c-5.8,0-9.4,1.8-9.4,5.2C203.4,166.5,207,168.3,212.8,168.3z M266.6,159.9V170h-10.9v29.1h-12.4v-67.7h12.4
		v28.4H266.6z"/>
	<path class="st0" d="M311.8,155.2c-5.4,13.6-17.5,22.9-36.6,28.3l-4.8-9.8c19.7-5.3,29.2-14.6,30.8-26.3h-26.1v-10h39.7
		c0,2.7-0.2,5.4-0.6,7.9h15.5v-13.7h12.4v49.8h-12.4v-8.3h-19.1v-10h19.1v-8H311.8z M342.7,200.1c0,10.8-11.6,17.6-29.1,17.6
		c-17.7,0-29.2-6.8-29.2-17.6c0-10.8,11.6-17.6,29.2-17.6C331.2,182.5,342.7,189.3,342.7,200.1z M330.5,200.1c0-5.3-6.3-8-16.9-8
		c-10.7,0-17,2.7-17,8s6.3,8,17,8C324.2,208.1,330.5,205.4,330.5,200.1z"/>
</g>
</svg>
