<?xml version="1.0" encoding="utf-8"?>
<!-- Generator: Adobe Illustrator 21.0.0, SVG Export Plug-In . SVG Version: 6.00 Build 0)  -->
<svg version="1.1" id="레이어_1" xmlns="http://www.w3.org/2000/svg" xmlns:xlink="http://www.w3.org/1999/xlink" x="0px"
	 y="0px" viewBox="0 0 674 169.2" style="enable-background:new 0 0 674 169.2;" xml:space="preserve">
<style type="text/css">
	.st0{fill:#0F75BC;}
</style>
<g>
	<path class="st0" d="M15.7,45.9c9.5-0.1,16.3-0.6,23.9-1.9l0.9,7.7c-8.9,1.7-16.8,1.9-28.9,1.9H6.2V9.1h30v7.6H15.7V45.9z
		 M58.8,3.2v66.5h-9.5v-36H33.1v-7.6h16.2V3.2H58.8z"/>
	<path class="st0" d="M91.4,45.4c8.4-0.2,17.4-0.9,26.6-2.7l0.9,7.8c-11,2.3-21.7,2.9-31.3,2.9h-5.8V9.5h9.5V45.4z M141.1,36.1h-9.3
		v33.3h-9.5V3.2h9.5v25.1h9.3V36.1z"/>
	<path class="st0" d="M203.2,37.1v7.6h-59.9v-7.6H203.2z M149.3,18.9c0-8.4,9.6-13.7,24-13.7c14.5,0,24,5.3,24,13.7
		s-9.6,13.7-24,13.7C158.8,32.5,149.3,27.3,149.3,18.9z M160.1,60.8h36.4v7.6h-45.9V49.1h9.5V60.8z M159,18.9
		c0,4.1,5.3,6.1,14.2,6.1c8.9,0,14.3-2,14.3-6.1c0-4-5.3-6.2-14.3-6.2C164.4,12.7,159,14.8,159,18.9z"/>
	<path class="st0" d="M37.9,137.3c-7.2-2.3-12.2-7-15-12.8c-3,6.4-8.1,11.5-15.8,14l-5-7.4c10.8-3.5,15.5-11.8,15.7-20H4.6v-7.6
		h35.9v7.6h-13c0.2,7.6,4.8,15.5,15.2,18.9L37.9,137.3z M11,142.6h44.3V166h-9.5v-15.9H11V142.6z M64.1,123.5h-8.8v16.1h-9.5v-40
		h9.5v16h8.8V123.5z"/>
	<path class="st0" d="M121.9,99.6v35.6h-9.5V122h-10.5c-1.8,7.2-8.6,12.1-17.1,12.1c-9.9,0-17.4-6.6-17.4-15.8s7.5-15.8,17.4-15.8
		c8.4,0,15.2,4.8,17.1,11.9h10.6V99.6H121.9z M93.2,118.2c0-5-3.5-7.9-8.4-7.9c-4.8,0-8.4,3-8.4,7.9c0,5,3.5,7.9,8.4,7.9
		C89.6,126.1,93.2,123.2,93.2,118.2z M112.5,138.2h9.4v27H78v-27h9.4v6.3h25.1V138.2z M112.5,151.7H87.4v6h25.1V151.7z"/>
	<path class="st0" d="M184.2,142c-13.8,2.6-29.4,2.9-40.7,3l-1-7.3c4.7,0,10.1,0,15.8-0.2v-3.8c-7.1-1.1-11.4-4.7-11.4-9.9
		c0-6.4,6.4-10.3,16.2-10.3c9.7,0,16.1,3.9,16.1,10.3c0,5.2-4.4,8.8-11.4,9.9v3.4c5.4-0.4,10.7-0.8,15.7-1.5L184.2,142z
		 M181.8,111.8h-37.7V105h14.1v-5.7h9.5v5.7h14V111.8z M161.2,157.2h36.9v7.6h-46.4v-16.6h9.5V157.2z M163,127.7
		c4.5,0,7.1-1.4,7.1-3.9c0-2.6-2.7-4-7.1-4c-4.5,0-7.2,1.4-7.2,4C155.8,126.3,158.5,127.7,163,127.7z M204.2,121.3v7.8h-8.4v22.3
		h-9.5V99.6h9.5v21.7H204.2z"/>
	<path class="st0" d="M238.8,117.7c-4.1,10.4-13.4,17.6-28,21.7l-3.7-7.5c15.1-4,22.4-11.2,23.6-20.2h-20v-7.6h30.4
		c0,2.1-0.1,4.1-0.4,6h11.9V99.6h9.5v38.2h-9.5v-6.3H238v-7.6h14.6v-6.1H238.8z M262.5,152.1c0,8.3-8.9,13.5-22.3,13.5
		c-13.5,0-22.4-5.2-22.4-13.5c0-8.3,8.9-13.5,22.4-13.5C253.7,138.7,262.5,143.8,262.5,152.1z M253.2,152.1c0-4-4.8-6.1-13-6.1
		c-8.2,0-13,2.1-13,6.1s4.8,6.1,13,6.1C248.3,158.2,253.2,156.2,253.2,152.1z"/>
</g>
</svg>
