<?xml version="1.0" encoding="utf-8"?>
<!-- Generator: Adobe Illustrator 21.0.0, SVG Export Plug-In . SVG Version: 6.00 Build 0)  -->
<svg version="1.1" id="레이어_1" xmlns="http://www.w3.org/2000/svg" xmlns:xlink="http://www.w3.org/1999/xlink" x="0px"
	 y="0px" viewBox="0 0 652.5 259.3" style="enable-background:new 0 0 652.5 259.3;" xml:space="preserve">
<style type="text/css">
	.st0{fill:#0F75BC;}
</style>
<g>
	<path class="st0" d="M2,6.3h31.7v43.9H2V6.3z M11.4,42.8h13V13.8h-13V42.8z M61.6,32.9h-9.6v33.5h-9.5V0.1h9.5v24.9h9.6V32.9z"/>
	<path class="st0" d="M123.4,44.7H97.9v21.7h-9.5V44.7H63.4v-7.6h60.1V44.7z M116.2,30.1H70.3V3.3h45.9V30.1z M106.9,10.8H79.6v11.8
		h27.3V10.8z"/>
	<path class="st0" d="M140,43.3c10.1-0.1,18.4-0.6,27.8-2.2l1,7.7c-10.8,1.9-20.5,2.3-32.5,2.3h-6V23.8h21.5V13.2h-21.6V5.7h31.3
		v25.6H140V43.3z M181.9,0v66.5h-9.5V0H181.9z"/>
	<path class="st0" d="M237.8,6.8c0,19.9-7.6,36.9-29.6,48.1l-5.3-7.3c15.4-7.9,23.6-18.4,25.3-33.1h-21.7V6.8H237.8z M264.7,33.2
		h-9.3v33.1H246V0h9.5v25.3h9.3V33.2z"/>
	<path class="st0" d="M326.7,29.7v7.5H267v-7.5h22.1V18.1h9.5v11.6H326.7z M320,53.9c0,7.7-9.2,12.5-23.5,12.5
		c-14.3,0-23.5-4.8-23.5-12.5c0-7.8,9.2-12.5,23.5-12.5C310.8,41.4,320,46.2,320,53.9z M308.4,25.3c1.5-5.9,1.7-10.4,1.7-14.8h-36.4
		V3h45.9v5.5c0,5.3,0,10.9-1.9,17.7L308.4,25.3z M310.6,53.9c0-3.6-5.1-5.4-14.1-5.4c-8.9,0-14,1.8-14,5.4c0,3.5,5.1,5.3,14,5.3
		C305.5,59.3,310.6,57.5,310.6,53.9z"/>
	<path class="st0" d="M403.6,29.7v7.5h-59.7v-7.5H366V18.1h9.5v11.6H403.6z M396.9,53.9c0,7.7-9.2,12.5-23.5,12.5
		c-14.3,0-23.5-4.8-23.5-12.5c0-7.8,9.2-12.5,23.5-12.5C387.6,41.4,396.9,46.2,396.9,53.9z M385.3,25.3c1.5-5.9,1.7-10.4,1.7-14.8
		h-36.4V3h45.9v5.5c0,5.3,0,10.9-1.9,17.7L385.3,25.3z M387.4,53.9c0-3.6-5.1-5.4-14.1-5.4c-8.9,0-14,1.8-14,5.4
		c0,3.5,5.1,5.3,14,5.3C382.3,59.3,387.4,57.5,387.4,53.9z"/>
	<path class="st0" d="M442.4,37.7c-7.2-2.4-12.2-7.1-15-12.9c-2.9,6.7-8.1,12.1-15.8,14.7l-4.8-7.5c10.5-3.7,15.3-12.1,15.6-20.4
		h-13V4H445v7.6h-12.9c0.3,7.6,4.9,15.3,15,18.6L442.4,37.7z M462.8,53.7c0,8.1-8.6,12.7-22.7,12.7c-14.1,0-22.8-4.7-22.8-12.7
		c0-8.1,8.6-12.7,22.8-12.7C454.2,41,462.8,45.7,462.8,53.7z M453.3,53.7c0-3.7-4.5-5.5-13.2-5.5c-8.7,0-13.2,1.8-13.2,5.5
		c0,3.7,4.5,5.5,13.2,5.5C448.8,59.3,453.3,57.5,453.3,53.7z M453,16.1v-16h9.5v39.5H453V23.8h-9.9v-7.7H453z"/>
	<path class="st0" d="M504.9,1.2h8.9v62.3h-8.9V32.2h-5.2c-0.9,13-6.3,20.7-14.3,20.7c-8.8,0-14.3-9.1-14.3-24.1
		c0-15,5.5-24.1,14.3-24.1c7.8,0,13.2,7.3,14.3,19.7h5.3V1.2z M491.1,28.8c0-10.2-2.1-15.1-5.8-15.1c-3.6,0-5.8,5-5.8,15.1
		c0,10.2,2.2,15.2,5.8,15.2C489,44,491.1,39,491.1,28.8z M527.3,0v66.3h-9V0H527.3z"/>
	<path class="st0" d="M558.7,14.8c0,12.5,4.8,24.7,15.8,29.6l-5.6,7.6c-7.3-3.5-12.1-10-14.8-18c-2.9,8.5-7.8,15.4-15.3,19.2
		l-5.9-7.6c11.2-5.2,16.3-18.1,16.3-30.7V5.2h9.6V14.8z M589.5,0v66.5H580V28.4h-12.7v-7.6H580V0H589.5z"/>
	<path class="st0" d="M597.5,45.4c11.7,0,27.9-0.1,41.9-2.2l0.6,6.8c-14.3,2.9-29.8,3-41.3,3L597.5,45.4z M636.8,20.8
		c0,9.6-7.9,16.3-18.3,16.3s-18.2-6.8-18.2-16.3c0-9.5,7.8-16.3,18.2-16.3S636.8,11.3,636.8,20.8z M609.5,20.8c0,5.2,3.9,8.2,9,8.2
		s9-3,9-8.2c0-5.2-3.9-8.2-9-8.2S609.5,15.6,609.5,20.8z M652.5,0v66.5H643V0H652.5z"/>
	<path class="st0" d="M34.6,130.2v4.2h18v17H16.3v3.7h38v7.1H6.9v-17.4h36.4v-3.5H6.8v-7h18.3v-4.2H0v-7.5h59.9v7.5H34.6z
		 M52.3,119.2H7.4V98.4h44.9V119.2z M43,105.7H16.7v6.3H43V105.7z"/>
	<path class="st0" d="M101.2,111.2c0,12,4.7,24,15.3,29.2l-5.8,7.5c-6.9-3.5-11.6-9.9-14.3-17.9c-2.9,8.4-7.8,15.4-15.3,19.1
		l-5.7-7.7c11.2-5.3,16.2-17.9,16.2-30.2v-9.6h9.6V111.2z M138.4,129.9h-9.6v32.9h-9.5V96.5h9.5V122h9.6V129.9z"/>
	<path class="st0" d="M200.1,127.9v7.5h-59.9v-7.5h13.5v-8c-4.8-2.2-7.5-5.5-7.5-9.7c0-7.9,9.4-12.7,24-12.7c14.7,0,24,4.8,24,12.7
		c0,4.3-2.8,7.6-7.7,9.8v7.9H200.1z M193,150.8c0,7.7-8.7,12.1-23,12.1c-14.3,0-23-4.4-23-12.1c0-7.7,8.6-12,23-12
		C184.3,138.7,193,143.1,193,150.8z M156,110.2c0,3.6,5.2,5.5,14.2,5.5c9.1,0,14.3-1.9,14.3-5.5c0-3.7-5.2-5.5-14.3-5.5
		C161.1,104.7,156,106.5,156,110.2z M183.4,150.8c0-3.4-4.5-4.8-13.4-4.8c-8.9,0-13.4,1.4-13.4,4.8c0,3.4,4.5,4.9,13.4,4.9
		C178.8,155.7,183.4,154.1,183.4,150.8z M163.2,127.9H177v-5.5c-2.1,0.2-4.4,0.4-6.8,0.4c-2.5,0-4.8-0.1-7-0.4V127.9z"/>
	<path class="st0" d="M226.7,113.3V108h-20.9v-7.6h30.2v19.9h-20.7v5.8c10.8-0.1,18.1-0.5,26.4-2l0.8,7.6c-9.2,1.7-17.6,2-30.9,2
		h-5.7v-20.4H226.7z M256.4,150.3c0,7.9-8.6,12.6-22.5,12.6s-22.5-4.7-22.5-12.6c0-8,8.6-12.6,22.5-12.6S256.4,142.3,256.4,150.3z
		 M247,150.3c0-3.7-4.5-5.3-13.1-5.3c-8.6,0-13.1,1.7-13.1,5.3c0,3.7,4.5,5.3,13.1,5.3C242.6,155.6,247,153.9,247,150.3z
		 M255.7,113.1v6.3h8.8v7.7h-8.8v9.4h-9.5v-40h9.5v8.9h8.8v7.7H255.7z"/>
	<path class="st0" d="M326.8,123.2v7.4h-59.9v-7.4H326.8z M272.9,108.7c0-7.3,8.9-11.3,24-11.3c15.2,0,24,4,24,11.3
		c0,7.3-8.9,11.3-24,11.3C281.7,120,272.9,116.1,272.9,108.7z M283.2,155.2h38v7.1h-47.5v-17.4h36.4v-3.5h-36.4v-7h45.8v17.1h-36.3
		V155.2z M282.7,108.7c0,3.1,4.5,4.4,14.1,4.4c9.6,0,14.2-1.3,14.2-4.4c0-3-4.5-4.3-14.2-4.3C287.3,104.4,282.7,105.8,282.7,108.7z"
		/>
	<path class="st0" d="M26.6,238.6c5.3-0.4,10.6-0.8,15.6-1.6l0.6,6.9c-14.3,2.9-29.9,3-41.3,3l-1.2-7.7c4.9,0,10.7,0,16.7-0.2v-10.1
		h9.6V238.6z M1.7,223.6c9.9-2.6,14.5-8.8,15.2-15.4H3.7v-7.6H17v-7.2h9.6v7.2H40v7.6H26.6c0.6,6.3,5.5,12.3,15.2,14.8l-4.2,7.2
		c-7.6-1.9-12.8-6.2-15.8-11.7c-3,5.8-8.2,10.2-15.9,12.3L1.7,223.6z M55.3,192.8v66.5h-9.5v-66.5H55.3z"/>
	<path class="st0" d="M74.6,236.4c6.2-0.1,11.8-0.5,18.1-1.7l0.7,7.7c-8.1,1.5-15.1,1.8-23.6,1.8h-4.6v-43.8h24.6v7.7H74.6V236.4z
		 M120.2,192.8v66.4h-9V226h-6v30.1h-8.9v-62h8.9v24.3h6v-25.6H120.2z"/>
	<path class="st0" d="M146.4,241.6c1.9,2.1,5.3,3.7,8.4,3.7c6,0,10.9-4.5,11.4-17.9c-2.7,3.6-7.3,5.8-10.9,5.8
		c-8.9,0-15.3-5.5-15.3-16.8c0-10.9,7.6-17.8,16.8-17.8c10.1,0,19.2,7.9,19.2,26.4c0,20.2-9.9,28.9-20.5,28.9
		c-6.6,0-11.4-2.8-14.6-6L146.4,241.6z M166,220c-0.9-9.7-4.6-13.3-9.1-13.3c-4,0-7.2,3.2-7.2,9.8c0,6.3,3,9.2,7.6,9.2
		C160.1,225.7,163.4,224.1,166,220z"/>
	<path class="st0" d="M185.9,241.6c1.9,2.1,5.3,3.7,8.4,3.7c6,0,10.9-4.5,11.4-17.9c-2.7,3.6-7.3,5.8-10.9,5.8
		c-8.9,0-15.3-5.5-15.3-16.8c0-10.9,7.6-17.8,16.8-17.8c10.1,0,19.2,7.9,19.2,26.4c0,20.2-9.9,28.9-20.5,28.9
		c-6.6,0-11.4-2.8-14.6-6L185.9,241.6z M205.6,220c-0.9-9.7-4.6-13.3-9.1-13.3c-4,0-7.2,3.2-7.2,9.8c0,6.3,3,9.2,7.6,9.2
		C199.7,225.7,203,224.1,205.6,220z"/>
	<path class="st0" d="M218.4,215.5c0-10.7,5.3-16.8,13-16.8s13,6.1,13,16.8c0,10.7-5.4,17-13,17S218.4,226.2,218.4,215.5z
		 M237,215.5c0-7.8-2.4-10.8-5.5-10.8c-3.1,0-5.5,3-5.5,10.8s2.4,11,5.5,11C234.5,226.5,237,223.3,237,215.5z M262.2,198.7h6.3
		l-29,55.3h-6.2L262.2,198.7z M257.2,237c0-10.7,5.4-16.8,13-16.8s13,6.1,13,16.8c0,10.7-5.5,17-13,17S257.2,247.7,257.2,237z
		 M275.7,237c0-7.8-2.4-10.9-5.5-10.9c-3.1,0-5.5,3-5.5,10.9s2.4,10.9,5.5,10.9C273.2,248,275.7,244.9,275.7,237z"/>
	<path class="st0" d="M289.9,219.6l4.8-8.2l-8.6-3.8l1.7-5.3l9.2,2.1l0.9-9.5h5.7l0.9,9.5l9.2-2.1l1.7,5.3l-8.6,3.8l4.8,8.2
		l-4.5,3.3l-6.3-7.2l-6.3,7.2L289.9,219.6z"/>
	<path class="st0" d="M367.8,226.6c-7.3-2.1-12.3-6.4-15.3-11.9c-3,6-8.3,11-16,13.2l-4.5-7.4c10.3-3.2,15.2-10.9,15.6-17.7h-13
		v-7.6h35.6v7.6h-13c0.3,6.7,4.9,13.5,14.9,16.3L367.8,226.6z M390,251.1v7.3h-45.5v-18.2h34.2v-3.7h-34.3v-7.3h43.8v17.9h-34.3v4
		H390z M378.6,206.4v-13.5h9.5v33.7h-9.5V214h-10.1v-7.6H378.6z"/>
	<path class="st0" d="M429.8,196.7c0,17.6-11.2,29.6-30.8,34.7l-3.7-7.5c14.8-3.7,22.8-10.9,24.2-19.7h-21v-7.6H429.8z M405.2,232.5
		h43v25.9h-43V232.5z M414.5,251h24.3v-11h-24.3V251z M457,215h-8.8v14.8h-9.5v-36.9h9.5v14.4h8.8V215z"/>
</g>
</svg>
