<?xml version="1.0" encoding="utf-8"?>
<!-- Generator: Adobe Illustrator 21.0.0, SVG Export Plug-In . SVG Version: 6.00 Build 0)  -->
<svg version="1.1" id="레이어_1" xmlns="http://www.w3.org/2000/svg" xmlns:xlink="http://www.w3.org/1999/xlink" x="0px"
	 y="0px" viewBox="0 0 1079.3 351" style="enable-background:new 0 0 1079.3 351;" xml:space="preserve">
<style type="text/css">
	.st0{fill:#0F75BC;}
</style>
<g>
	<path class="st0" d="M6.7,11H48v57.3H6.7V11z M18.9,58.5h16.9V20.8H18.9V58.5z M84.4,45.7H71.8v43.7H59.4V2.9h12.4v32.5h12.6V45.7z
		"/>
	<path class="st0" d="M165.2,61.1h-33.3v28.3h-12.4V61.1H86.8v-9.9h78.4V61.1z M155.8,42h-60V7h60V42z M143.6,16.8H108v15.4h35.6
		V16.8z"/>
	<path class="st0" d="M186.8,59.2c13.2-0.1,24.1-0.8,36.3-2.8l1.3,10.1c-14.1,2.4-26.8,3-42.5,3h-7.8V33.8h28.1V20H174v-9.9h40.9
		v33.5h-28.1V59.2z M241.5,2.7v86.9h-12.4V2.7H241.5z"/>
	<path class="st0" d="M314.5,11.6c0,25.9-9.9,48.2-38.6,62.8l-7-9.5C289,54.6,299.8,40.9,302,21.7h-28.3V11.6H314.5z M349.7,46
		h-12.1v43.1h-12.4V2.7h12.4v33.1h12.1V46z"/>
	<path class="st0" d="M430.6,41.5v9.8h-77.9v-9.8h28.9V26.4h12.4v15.1H430.6z M421.9,73.1c0,10.1-12,16.3-30.7,16.3
		c-18.6,0-30.6-6.2-30.6-16.3c0-10.2,12-16.4,30.6-16.4C409.8,56.8,421.9,63,421.9,73.1z M406.7,35.7c2-7.7,2.3-13.5,2.3-19.3h-47.6
		V6.7h60v7.1c0,6.9,0,14.2-2.4,23.1L406.7,35.7z M409.6,73.1c0-4.7-6.7-7-18.4-7c-11.7,0-18.3,2.4-18.3,7c0,4.6,6.7,7,18.3,7
		C402.9,80.1,409.6,77.7,409.6,73.1z"/>
	<path class="st0" d="M530.9,41.5v9.8H453v-9.8h28.9V26.4h12.4v15.1H530.9z M522.2,73.1c0,10.1-12,16.3-30.7,16.3
		c-18.6,0-30.6-6.2-30.6-16.3c0-10.2,12-16.4,30.6-16.4C510.1,56.8,522.2,63,522.2,73.1z M507,35.7c2-7.7,2.3-13.5,2.3-19.3h-47.6
		V6.7h60v7.1c0,6.9,0,14.2-2.4,23.1L507,35.7z M509.8,73.1c0-4.7-6.7-7-18.4-7c-11.7,0-18.3,2.4-18.3,7c0,4.6,6.7,7,18.3,7
		C503.2,80.1,509.8,77.7,509.8,73.1z"/>
	<path class="st0" d="M581.7,52c-9.4-3.1-15.9-9.2-19.6-16.8c-3.8,8.7-10.6,15.8-20.7,19.2l-6.3-9.8c13.7-4.8,20-15.8,20.4-26.6h-17
		V8H585v10h-16.8c0.4,9.9,6.4,20,19.6,24.3L581.7,52z M608.3,72.8c0,10.5-11.3,16.6-29.6,16.6c-18.4,0-29.7-6.1-29.7-16.6
		c0-10.5,11.3-16.6,29.7-16.6C597,56.2,608.3,62.3,608.3,72.8z M595.9,72.8c0-4.9-5.9-7.2-17.2-7.2c-11.4,0-17.3,2.4-17.3,7.2
		s5.9,7.2,17.3,7.2C589.9,80.1,595.9,77.7,595.9,72.8z M595.5,23.7V2.8h12.4v51.5h-12.4V33.7h-13V23.7H595.5z"/>
	<path class="st0" d="M663.2,4.2h11.6v81.3h-11.6V44.7h-6.8c-1.1,16.9-8.2,27.1-18.7,27.1c-11.5,0-18.7-11.8-18.7-31.5
		c0-19.6,7.2-31.4,18.7-31.4c10.2,0,17.2,9.6,18.6,25.8h6.9V4.2z M645.2,40.3c0-13.3-2.7-19.7-7.5-19.7c-4.7,0-7.5,6.5-7.5,19.7
		c0,13.3,2.8,19.8,7.5,19.8C642.5,60.1,645.2,53.6,645.2,40.3z M692.5,2.7v86.6h-11.7V2.7H692.5z"/>
	<path class="st0" d="M733.5,22c0,16.4,6.3,32.2,20.6,38.6l-7.3,9.9c-9.5-4.6-15.8-13.1-19.4-23.5c-3.8,11.1-10.2,20.1-19.9,25
		l-7.7-10c14.7-6.8,21.2-23.6,21.2-40V9.5h12.5V22z M773.6,2.7v86.9h-12.4V39.8h-16.6v-10h16.6V2.7H773.6z"/>
	<path class="st0" d="M784.1,61.9c15.2,0,36.5-0.1,54.7-2.8l0.8,8.9c-18.6,3.8-38.9,3.9-53.9,3.9L784.1,61.9z M835.4,29.9
		c0,12.5-10.3,21.3-23.9,21.3s-23.8-8.8-23.8-21.3c0-12.4,10.2-21.3,23.8-21.3S835.4,17.5,835.4,29.9z M799.7,29.9
		c0,6.8,5.1,10.7,11.7,10.7c6.7,0,11.7-3.9,11.7-10.7s-5.1-10.7-11.7-10.7C804.8,19.2,799.7,23.1,799.7,29.9z M855.9,2.7v86.9h-12.4
		V2.7H855.9z"/>
	<path class="st0" d="M49.3,175.7v5.5h23.5v22.2H25.4v4.9H75v9.3H13.1v-22.7h47.5v-4.5H13v-9.1h23.9v-5.5H4v-9.8h78.2v9.8H49.3z
		 M72.3,161.3H13.7v-27.2h58.6V161.3z M60.2,143.6H25.8v8.2h34.3V143.6z"/>
	<path class="st0" d="M136.2,150.9c0,15.6,6.1,31.3,20,38.2l-7.5,9.8c-9-4.6-15.1-13-18.7-23.3c-3.8,11-10.2,20.1-20,24.9l-7.4-10.1
		c14.6-6.9,21.1-23.4,21.1-39.5v-12.6h12.5V150.9z M184.7,175.2h-12.6v43h-12.4v-86.6h12.4v33.3h12.6V175.2z"/>
	<path class="st0" d="M265.3,172.7v9.8h-78.2v-9.8h17.6v-10.4c-6.2-2.8-9.8-7.1-9.8-12.7c0-10.3,12.2-16.6,31.3-16.6
		c19.2,0,31.4,6.3,31.4,16.6c0,5.6-3.7,10-10.1,12.8v10.3H265.3z M256,202.5c0,10.1-11.4,15.8-30.1,15.8c-18.7,0-30-5.7-30-15.8
		s11.3-15.7,30-15.7C244.7,186.8,256,192.4,256,202.5z M207.6,149.6c0,4.7,6.8,7.1,18.5,7.1c11.8,0,18.6-2.4,18.6-7.1
		c0-4.9-6.8-7.2-18.6-7.2C214.4,142.3,207.6,144.7,207.6,149.6z M243.5,202.5c0-4.4-5.9-6.3-17.5-6.3s-17.5,1.9-17.5,6.3
		c0,4.4,5.9,6.4,17.5,6.4S243.5,206.9,243.5,202.5z M217,172.7h18v-7.1c-2.7,0.3-5.7,0.5-8.9,0.5c-3.3,0-6.3-0.2-9.1-0.6V172.7z"/>
	<path class="st0" d="M300,153.5v-6.9h-27.3v-10h39.5v26h-27.1v7.5c14.1-0.1,23.6-0.7,34.4-2.6l1,10c-12,2.3-23,2.6-40.3,2.6h-7.4
		v-26.7H300z M338.8,201.8c0,10.3-11.3,16.4-29.3,16.4s-29.3-6.1-29.3-16.4c0-10.4,11.3-16.4,29.3-16.4S338.8,191.4,338.8,201.8z
		 M326.6,201.8c0-4.8-5.8-7-17.1-7s-17.1,2.2-17.1,7s5.8,7,17.1,7S326.6,206.6,326.6,201.8z M337.9,153.3v8.2h11.5v10.1h-11.5v12.2
		h-12.4v-52.2h12.4v11.7h11.5v10.1H337.9z"/>
	<path class="st0" d="M430.7,166.5v9.7h-78.2v-9.7H430.7z M360.3,147.6c0-9.5,11.6-14.8,31.3-14.8c19.8,0,31.4,5.3,31.4,14.8
		c0,9.6-11.6,14.8-31.4,14.8C371.9,162.3,360.3,157.2,360.3,147.6z M373.8,208.2h49.6v9.3h-61.9v-22.7H409v-4.6h-47.6V181h59.8v22.3
		h-47.4V208.2z M373.2,147.6c0,4,5.9,5.7,18.4,5.7c12.6,0,18.5-1.7,18.5-5.7c0-3.9-5.9-5.6-18.5-5.6
		C379.1,141.9,373.2,143.7,373.2,147.6z"/>
	<path class="st0" d="M38.7,320.1c7-0.5,13.8-1,20.4-2.1l0.8,9c-18.6,3.8-39,3.9-53.9,3.9l-1.6-10.1c6.4,0,13.9,0,21.8-0.3v-13.2
		h12.5V320.1z M6.3,300.5c12.9-3.4,19-11.5,19.8-20.1H8.8v-9.9h17.4v-9.4h12.5v9.4h17.6v9.9H38.8c0.8,8.3,7.1,16.1,19.8,19.4
		l-5.5,9.4c-10-2.5-16.7-8.1-20.6-15.2c-3.9,7.5-10.7,13.3-20.8,16.1L6.3,300.5z M76.2,260.3v86.9H63.8v-86.9H76.2z"/>
	<path class="st0" d="M101.4,317.3c8.1-0.2,15.4-0.7,23.7-2.2l0.9,10.1c-10.5,2-19.7,2.3-30.8,2.3h-6v-57.1h32.1v10.1h-19.8V317.3z
		 M161,260.3V347h-11.7v-43.3h-7.8v39.3h-11.6V262h11.6v31.7h7.8v-33.4H161z"/>
	<path class="st0" d="M195.1,324c2.5,2.7,6.9,4.9,11,4.9c7.8,0,14.3-5.9,14.9-23.4c-3.6,4.7-9.5,7.6-14.3,7.6
		c-11.6,0-19.9-7.1-19.9-21.9c0-14.3,10-23.2,21.9-23.2c13.2,0,25,10.3,25,34.5c0,26.3-12.9,37.7-26.7,37.7
		c-8.6,0-14.9-3.7-19.1-7.9L195.1,324z M220.8,295.8c-1.2-12.7-6-17.4-11.9-17.4c-5.2,0-9.4,4.2-9.4,12.8c0,8.2,3.9,12,9.9,12
		C213.1,303.3,217.4,301.2,220.8,295.8z"/>
	<path class="st0" d="M246.7,324c2.5,2.7,6.9,4.9,11,4.9c7.8,0,14.3-5.9,14.9-23.4c-3.6,4.7-9.5,7.6-14.3,7.6
		c-11.6,0-19.9-7.1-19.9-21.9c0-14.3,10-23.2,21.9-23.2c13.2,0,25,10.3,25,34.5c0,26.3-12.9,37.7-26.7,37.7
		c-8.6,0-14.9-3.7-19.1-7.9L246.7,324z M272.4,295.8c-1.2-12.7-6-17.4-11.9-17.4c-5.2,0-9.4,4.2-9.4,12.8c0,8.2,3.9,12,9.9,12
		C264.7,303.3,269,301.2,272.4,295.8z"/>
	<path class="st0" d="M289.2,289.9c0-13.9,7-21.9,16.9-21.9s17,8,17,21.9c0,14-7,22.2-17,22.2S289.2,303.9,289.2,289.9z
		 M313.4,289.9c0-10.2-3.2-14.1-7.2-14.1s-7.1,3.9-7.1,14.1c0,10.2,3.1,14.4,7.1,14.4S313.4,300.2,313.4,289.9z M346.3,268h8.2
		l-37.9,72.2h-8.1L346.3,268z M339.8,318c0-14,7-22,16.9-22c9.9,0,17,8,17,22c0,13.9-7.1,22.2-17,22.2
		C346.9,340.2,339.8,331.9,339.8,318z M364,318c0-10.2-3.2-14.2-7.2-14.2c-4,0-7.2,3.9-7.2,14.2c0,10.2,3.2,14.3,7.2,14.3
		C360.8,332.3,364,328.3,364,318z"/>
	<path class="st0" d="M382.5,295.3l6.2-10.7l-11.2-5l2.3-7l12,2.7l1.2-12.4h7.4l1.1,12.4l12-2.7l2.3,7l-11.3,5l6.3,10.7l-5.9,4.3
		l-8.3-9.4l-8.3,9.4L382.5,295.3z"/>
	<path class="st0" d="M484.2,304.5c-9.6-2.7-16.1-8.4-19.9-15.5c-3.9,7.8-10.8,14.4-20.9,17.3l-5.8-9.7
		c13.4-4.1,19.8-14.2,20.3-23.1h-17v-9.9h46.5v9.9h-16.9c0.4,8.7,6.4,17.6,19.5,21.3L484.2,304.5z M513.1,336.4v9.6h-59.4v-23.8
		h44.6v-4.8h-44.8v-9.6h57.1v23.3H466v5.3H513.1z M498.3,278.1v-17.7h12.4v44h-12.4v-16.4h-13.2v-9.9H498.3z"/>
	<path class="st0" d="M565.2,265.4c0,23-14.6,38.6-40.2,45.3l-4.9-9.8c19.3-4.8,29.8-14.3,31.6-25.7h-27.4v-9.9H565.2z M533.1,312.1
		h56.1v33.8h-56.1V312.1z M545.2,336.3H577v-14.4h-31.8V336.3z M600.6,289.3h-11.5v19.3h-12.4v-48.2h12.4v18.8h11.5V289.3z"/>
</g>
</svg>
