<?xml version="1.0" encoding="utf-8"?>
<!-- Generator: Adobe Illustrator 21.0.0, SVG Export Plug-In . SVG Version: 6.00 Build 0)  -->
<svg version="1.1" id="레이어_1" xmlns="http://www.w3.org/2000/svg" xmlns:xlink="http://www.w3.org/1999/xlink" x="0px"
	 y="0px" viewBox="0 0 1070.1 91.4" style="enable-background:new 0 0 1070.1 91.4;" xml:space="preserve">
<style type="text/css">
	.st0{fill:#0F75BC;}
</style>
<g>
	<path class="st0" d="M81.3,67.8v10.2H3V67.8H81.3z M59.3,20.5H11.1v-9.9h60.6v10.2c0,12.1,0,24-3.2,41.7l-12.3-1.1
		c3.1-16.5,3.1-28.9,3.1-40.6V20.5z"/>
	<path class="st0" d="M147.3,49h-41.5V7.9h12.2v10.9h17V7.9h12.2V49z M111.6,56.8H140v32.4h-12.2V66.6h-16.2V56.8z M135.1,28.3h-17
		v11h17V28.3z M143.8,56.8h27.7v32.4h-12.2V66.6h-15.5V56.8z M183,32.9h-11.5v19.9h-12.4V2.7h12.4v20H183V32.9z"/>
	<path class="st0" d="M186.4,61.8c15.2,0,36.5-0.1,54.7-2.8l0.8,8.9c-18.6,3.8-38.9,3.9-53.9,3.9L186.4,61.8z M237.8,29.7
		c0,12.5-10.3,21.3-23.9,21.3s-23.8-8.8-23.8-21.3c0-12.4,10.2-21.3,23.8-21.3S237.8,17.3,237.8,29.7z M202.1,29.7
		c0,6.8,5.1,10.7,11.8,10.7s11.7-3.9,11.7-10.7S220.6,19,213.9,19S202.1,22.9,202.1,29.7z M258.2,2.5v86.9h-12.4V2.5H258.2z"/>
	<path class="st0" d="M339.7,49.4c-18.1,3.2-38.2,3.4-53.1,3.4l-1.2-8.5c6.2,0,13.2,0,20.6-0.2v-3.9c-9.3-1.1-14.9-5.1-14.9-11
		c0-7,8.3-11.3,21.1-11.3s21.1,4.2,21.1,11.3c0,5.9-5.6,9.9-14.9,11v3.5c7-0.4,13.9-0.9,20.5-1.7L339.7,49.4z M336.6,16.3h-49.2V8.1
		h18.4V2h12.4v6.1h18.3V16.3z M309.2,80.4H358v8.2h-61.1V68.6h45.9v-3.8h-46v-8.2H355v19.6h-45.8V80.4z M312.1,33.1
		c5.9,0,9.3-1.3,9.3-3.9c0-2.4-3.4-3.7-9.3-3.7s-9.4,1.2-9.4,3.7C302.7,31.8,306.2,33.1,312.1,33.1z M365.9,23v10.2H355v20.4h-12.4
		V2.6H355V23H365.9z"/>
	<path class="st0" d="M447.5,43.3v9.9h-78.3v-9.9h32.9v-7.1h-23.4V6.3h59.4v9.9H391v10.2h47.6v9.9h-24.1v7.1H447.5z M438.1,73.4
		c0,10.2-11.4,15.9-30.1,15.9s-30-5.7-30-15.9c0-10.2,11.3-16,30-16S438.1,63.2,438.1,73.4z M425.5,73.4c0-4.5-5.9-6.6-17.5-6.6
		c-11.6,0-17.5,2.1-17.5,6.6s5.9,6.5,17.5,6.5C419.5,79.9,425.5,77.9,425.5,73.4z"/>
</g>
</svg>
