<svg xmlns="http://www.w3.org/2000/svg" width="135.425" height="58.594" viewBox="0 0 135.425 58.594">
  <g id="グループ_153" data-name="グループ 153" transform="translate(-375.56 -28.92)">
    <path id="パス_252" data-name="パス 252" d="M423.012,86.109c8.667,1.081,17.937-1.324,24.271-7.337a49.981,49.981,0,0,0,37.344,7.08,27.925,27.925,0,0,0,7.718-2.673,31.614,31.614,0,0,0,8.7-7.728c3.728-4.45,7.049-9.422,8.447-15.057s.616-12.045-3.131-16.479c-3.528-4.173-9.318-6.081-14.756-5.54a24.944,24.944,0,0,0-14.45,7.09,49.281,49.281,0,0,0-29.3-13.547,32.583,32.583,0,0,0-14.38,1.49,19.633,19.633,0,0,0-10.859,9.21,2.868,2.868,0,0,1-.934,1.264,2.689,2.689,0,0,1-1.573.21A70.7,70.7,0,0,0,391.115,48.3a28.572,28.572,0,0,0-10.108,5.764,18.229,18.229,0,0,0-4.771,17.859c2.175,7.463,7.709,9.019,14.243,11.782a7.125,7.125,0,0,0,6.027.389,34.151,34.151,0,0,0,7.263-2.506,7.142,7.142,0,0,1,2.3-.946c2.316-.308,5.706,2.288,7.856,3.128A37.889,37.889,0,0,0,423.012,86.109Z" fill="#fff"/>
    <path id="パス_253" data-name="パス 253" d="M441.64,79.7c-6.457,4.269-13.167,6.787-20.776,6.374a33.849,33.849,0,0,1-20.122-8.108c-.591-.489-.676-1.591-1-2.409a7.794,7.794,0,0,1,2.524.735c10.108,7.476,20.853,9.472,32.483,3.859a35.786,35.786,0,0,0,4.8-2.965,3.23,3.23,0,0,1,4.225.033c13.048,9.061,26.86,9.415,41.018,3.071,4.156-1.862,7.94-4.548,11.947-6.761a6.21,6.21,0,0,1,2.309-.238c-.3.685-.4,1.629-.918,2.015-10.091,7.518-21.12,12.551-34.016,12.185A38.32,38.32,0,0,1,441.64,79.7Z"/>
    <path id="パス_254" data-name="パス 254" d="M478.81,43.392c10.056-8.417,20.544-5.522,31.041-.6.548.257.764,1.222,1.134,1.857a6.484,6.484,0,0,1-2.175.16c-4.221-1.206-8.34-2.91-12.63-3.694a16.081,16.081,0,0,0-15.422,5c-1.833,1.974-2.383,1.932-4.342-.079C471.4,40.9,465.923,36.4,459.131,33.771A26.462,26.462,0,0,0,435.284,35.5a5.474,5.474,0,0,1-1.492.825,7.3,7.3,0,0,1-1.9-.126c.228-.608.29-1.572.71-1.768,3.682-1.714,7.29-3.883,11.182-4.791,9.358-2.183,17.807.818,25.494,6.051C472.571,37.933,475.508,40.7,478.81,43.392Z"/>
    <path id="パス_255" data-name="パス 255" d="M412.024,41.637c4.749.766,10.549,1.655,16.322,2.693.735.132,1.329,1.048,1.988,1.6-.855.217-1.782.765-2.555.6a68.4,68.4,0,0,0-20.26-1.274c-5.167.435-10.2,1.545-14.692,4.336a20.263,20.263,0,0,0-8.548,11.026c-.262.76-1.129,1.31-1.717,1.957-.164-.861-.65-1.81-.442-2.569,2.733-9.972,9.911-15.034,19.516-17.152C404.65,42.187,407.794,42.111,412.024,41.637Z"/>
  </g>
</svg>
