<svg xmlns="http://www.w3.org/2000/svg" width="118.732" height="51.697" viewBox="0 0 118.732 51.697">
  <g id="グループ_154" data-name="グループ 154" transform="translate(-598.349 -28.92)">
    <path id="パス_256" data-name="パス 256" d="M620.865,74.011a27.388,27.388,0,0,1-13.851-2.074,15.046,15.046,0,0,1-6.492-4.853,8.017,8.017,0,0,1-1.032-7.772,10.061,10.061,0,0,1,2.5-3.132,47.72,47.72,0,0,1,6.028-4.4c8.022-5.24,16.556-10.652,26.127-11.094,2.871-.133,5.788.19,8.6-.421,3.583-.78,6.651-3,9.711-5.022,4.072-2.691,8.508-5.179,13.375-5.549,7.517-.57,14.442,3.984,20.063,9.007,2.657,2.374,5.267,4.956,8.572,6.286,3.1,1.246,6.55,1.278,9.774,2.158A19.277,19.277,0,0,1,715,54.823c2.027,2.981,3.075,7.25.8,10.045a9.909,9.909,0,0,1-5.019,2.8,52.378,52.378,0,0,1-16.055,2.222c-3.326-.061-6.7-.435-9.946.3-6.373,1.442-11.261,6.918-17.642,8.327-5.5,1.213-11.161-.786-16.308-3.064s-10.356-4.92-15.983-5.065c-4.8-.124-9.458,1.6-13.789,3.674" fill="#fff"/>
    <path id="パス_257" data-name="パス 257" d="M634.495,39.209c3.942,1.311,6.553-.712,9.458-3.2,9.959-8.526,21.114-9.037,32.48-3.27,4.538,2.3,8.51,5.747,12.644,8.8.59.435.64,1.6.94,2.429-.815-.23-1.837-.222-2.414-.725-5.753-5.017-12-9.124-19.586-10.743-9.691-2.068-17.8.972-24.409,8.08a6.162,6.162,0,0,1-5.8,2.219c-5.621-.685-11.227-.332-16.333,2.187-2.47,1.218-4.431,3.481-6.593,5.305-1.346,1.136-2.584,2.4-3.965,3.492-2.624,2.069-5.56,3.8-7.919,6.132-3.057,3.017-2.624,5.857,1.358,7.538,4.176,1.762,8.7,2.7,13.076,3.983.388.113.908-.025,1.195.187A10.517,10.517,0,0,1,620,73.055c-.525.276-1.079.83-1.57.779a37.876,37.876,0,0,1-6.041-.972,59.467,59.467,0,0,1-9.052-2.972c-5.576-2.547-6.614-7.394-2.4-11.878,2.374-2.526,5.468-4.369,8.186-6.583a19.1,19.1,0,0,0,3.474-3.285C616.1,43.337,621,41,626.651,40.006,629.213,39.556,631.838,39.467,634.495,39.209Z"/>
    <path id="パス_258" data-name="パス 258" d="M665.209,80.617c-10.282-.2-19.359-3.634-27.74-9.1-.578-.377-.718-1.424-1.061-2.159a6.3,6.3,0,0,1,2.4.306,53.326,53.326,0,0,0,19.09,7.422c8.132,1.317,15.859.285,22.761-4.494a10.311,10.311,0,0,1,5.939-1.82c6.961-.178,13.882-.766,20.482-3.228a19.37,19.37,0,0,0,4.13-2.125c3.3-2.256,4.025-5.083,2.431-8.775a6.024,6.024,0,0,1-.694-1.56,7.857,7.857,0,0,1,.264-1.94c.591.3,1.44.449,1.733.932,2.942,4.862,2.892,9.917-2.287,13.591-4.54,3.22-9.83,4.421-15.2,5.2-3.8.551-7.656.675-11.476,1.093a6.081,6.081,0,0,0-2.679.955A32.732,32.732,0,0,1,665.209,80.617Z"/>
  </g>
</svg>
