<svg width="17" height="20" viewBox="0 0 17 20" fill="none" xmlns="http://www.w3.org/2000/svg">
<path d="M8.45803 11.4394C8.1574 11.5776 7.82803 11.7576 7.16865 12.1194C6.91865 12.2601 6.65741 12.4007 6.41428 12.5332C6.39741 12.5163 6.37991 12.4951 6.36303 12.4776C5.05866 11.0838 2.64615 10.0994 2.74865 8.22756C2.78678 7.54569 3.02115 5.75569 7.38178 3.58194C10.9705 1.81319 13.8262 2.30319 14.3193 3.39006C15.028 4.93944 12.7887 7.82256 9.0824 8.24069C8.67221 8.32389 8.24856 8.31384 7.84278 8.21128C7.43699 8.10873 7.05944 7.91629 6.73803 7.64819C6.54178 7.43506 6.51241 7.42256 6.43991 7.46506C6.32053 7.52756 6.39741 7.72069 6.43991 7.83131C6.58128 8.08728 6.77254 8.3123 7.00238 8.49308C7.23221 8.67386 7.49596 8.80672 7.77803 8.88381C9.23654 9.19906 10.7572 9.04843 12.1255 8.45319C14.3718 7.58381 16.1255 5.16694 15.6118 3.14069C15.0962 1.08631 11.6862 0.408812 8.4599 1.55506C6.43945 2.23593 4.57274 3.30775 2.96615 4.70944C1.18865 6.37194 0.907405 7.81694 1.0224 8.42194C1.43615 10.5701 4.3974 11.9682 5.5849 13.0038C5.5224 13.0382 5.4699 13.0663 5.42303 13.0932C4.83053 13.3876 2.57178 14.5682 2.00865 15.8169C1.36928 17.2319 2.11115 18.2463 2.60115 18.3826C3.33958 18.5594 4.11482 18.5013 4.8186 18.2162C5.52238 17.9312 6.11958 17.4335 6.52678 16.7926C6.87258 16.2611 7.08492 15.654 7.14574 15.0229C7.20657 14.3918 7.11409 13.7553 6.87616 13.1676C7.01653 13.0556 7.16625 12.9558 7.32365 12.8694C7.62615 12.6907 7.91428 12.5144 8.1699 12.3782C9.04514 11.9682 10.0003 11.7571 10.9668 11.7601C12.9955 11.9988 13.3962 13.2644 13.3193 13.7976C13.2833 13.9867 13.2073 14.166 13.0962 14.3233C12.9852 14.4805 12.8417 14.6122 12.6755 14.7094C12.5349 14.7988 12.488 14.8288 12.5005 14.8926C12.5174 14.9863 12.5855 14.9819 12.7049 14.9651C13.0097 14.8687 13.2783 14.6824 13.4752 14.4307C13.6722 14.1789 13.7885 13.8735 13.8087 13.5544C13.8712 12.3044 12.6793 10.9332 10.5693 10.9457C9.93748 10.9468 9.31199 11.0714 8.72803 11.3126C8.63428 11.3513 8.54324 11.393 8.45491 11.4376L8.45803 11.4394ZM5.4424 16.3388C4.76865 17.0719 3.83115 17.3488 3.42615 17.1144C2.98865 16.8644 3.16178 15.7801 3.98865 15.0044C4.47838 14.5632 5.0077 14.168 5.5699 13.8238C5.66803 13.7613 5.81303 13.6788 5.98741 13.5738C6.01741 13.5569 6.03428 13.5482 6.03428 13.5482L6.13678 13.4857C6.28425 13.9801 6.29767 14.5049 6.17566 15.0062C6.05365 15.5075 5.80059 15.9674 5.4424 16.3388Z" fill="#CD6799"/>
</svg>
