<svg width="26" height="19" viewBox="0 0 26 19" fill="none" xmlns="http://www.w3.org/2000/svg">
<path d="M5.1 7L3 15V5H20C20 4.46957 19.7893 3.96086 19.4142 3.58579C19.0391 3.21071 18.5304 3 18 3H11L9 1H3C2.46957 1 1.96086 1.21071 1.58579 1.58579C1.21071 1.96086 1 2.46957 1 3V15C1 15.5304 1.21071 16.0391 1.58579 16.4142C1.96086 16.7893 2.46957 17 3 17H18C18.9 17 19.7 16.4 19.9 15.5L22.2 7H5.1ZM18 15H5L6.6 9H19.6L18 15Z" fill="#F06292"/>
<path d="M19.0855 12.3501C18.845 12.4606 18.5815 12.6046 18.054 12.8941C17.854 13.0066 17.645 13.1191 17.4505 13.2251C17.437 13.2116 17.423 13.1946 17.4095 13.1806C16.366 12.0656 14.436 11.2781 14.518 9.78058C14.5485 9.23508 14.736 7.80308 18.2245 6.06408C21.0955 4.64908 23.38 5.04108 23.7745 5.91058C24.3415 7.15008 22.55 9.45658 19.585 9.79108C19.2568 9.85765 18.9179 9.84961 18.5933 9.76756C18.2687 9.68552 17.9666 9.53157 17.7095 9.31708C17.5525 9.14658 17.529 9.13658 17.471 9.17058C17.3755 9.22058 17.437 9.37508 17.471 9.46358C17.5841 9.66836 17.7371 9.84838 17.921 9.993C18.1049 10.1376 18.3158 10.2439 18.5415 10.3056C19.7083 10.5578 20.9248 10.4373 22.0195 9.96108C23.8165 9.26558 25.2195 7.33208 24.8085 5.71108C24.396 4.06758 21.668 3.52558 19.087 4.44258C17.4706 4.98728 15.9773 5.84474 14.692 6.96608C13.27 8.29609 13.045 9.45208 13.137 9.93608C13.468 11.6546 15.837 12.7731 16.787 13.6016C16.737 13.6291 16.695 13.6516 16.6575 13.6731C16.1835 13.9086 14.3765 14.8531 13.926 15.8521C13.4145 16.9841 14.008 17.7956 14.4 17.9046C14.9907 18.0461 15.6109 17.9996 16.174 17.7715C16.737 17.5435 17.2147 17.1453 17.5405 16.6326C17.8171 16.2074 17.987 15.7217 18.0357 15.2168C18.0843 14.7119 18.0103 14.2028 17.82 13.7326C17.9323 13.643 18.0521 13.5632 18.178 13.4941C18.42 13.3511 18.6505 13.2101 18.855 13.1011C19.5552 12.7731 20.3193 12.6042 21.0925 12.6066C22.7155 12.7976 23.036 13.8101 22.9745 14.2366C22.9457 14.3879 22.8849 14.5313 22.796 14.6571C22.7072 14.783 22.5925 14.8883 22.4595 14.9661C22.347 15.0376 22.3095 15.0616 22.3195 15.1126C22.333 15.1876 22.3875 15.1841 22.483 15.1706C22.7268 15.0935 22.9417 14.9445 23.0993 14.7431C23.2569 14.5417 23.3498 14.2973 23.366 14.0421C23.416 13.0421 22.4625 11.9451 20.7745 11.9551C20.2691 11.956 19.7687 12.0557 19.3015 12.2486C19.2265 12.2796 19.1537 12.3129 19.083 12.3486L19.0855 12.3501ZM16.673 16.2696C16.134 16.8561 15.384 17.0776 15.06 16.8901C14.71 16.6901 14.8485 15.8226 15.51 15.2021C15.9018 14.8491 16.3252 14.5329 16.775 14.2576C16.8535 14.2076 16.9695 14.1416 17.109 14.0576C17.133 14.0441 17.1465 14.0371 17.1465 14.0371L17.2285 13.9871C17.3465 14.3826 17.3572 14.8024 17.2596 15.2035C17.162 15.6046 16.9596 15.9725 16.673 16.2696Z" fill="white"/>
</svg>
