<svg xmlns="http://www.w3.org/2000/svg" xmlns:xlink="http://www.w3.org/1999/xlink" viewBox="0 0 188.7 91.21"><defs><style>.cls-1{fill:none;}.cls-2{fill:red;}.cls-3{clip-path:url(#clip-path);}</style><clipPath id="clip-path" transform="translate(0 0)"><rect class="cls-1" width="188.7" height="91.21"/></clipPath></defs><g id="レイヤー_2" data-name="レイヤー 2"><g id="TOP"><polygon class="cls-2" points="0 72.75 0 91.02 3.65 91.02 3.65 83.72 10.34 83.72 10.34 80.05 3.65 80.05 3.65 76.4 12.18 76.4 12.18 72.75 0 72.75"/><path class="cls-2" d="M20.1,77.74l1.81,6H18.27Zm-1.83-5L12.18,91h3.65l1.23-3.65h6.09L24.36,91H28l-6.1-18.27Z" transform="translate(0 0)"/><g class="cls-3"><path class="cls-2" d="M33.19,86.09a2.3,2.3,0,0,0,2.1,1.47,1.83,1.83,0,0,0,1.86-1.73,1.56,1.56,0,0,0-.94-1.5L33,82.81A5.17,5.17,0,0,1,29.83,78a5.47,5.47,0,0,1,5.51-5.46,5.87,5.87,0,0,1,5.46,3.7l-3.39,1.41a2.25,2.25,0,0,0-2.07-1.46A1.83,1.83,0,0,0,33.47,78a1.65,1.65,0,0,0,1,1.5L37.62,81a5,5,0,0,1,3.18,4.77,5.44,5.44,0,0,1-5.54,5.46,5.85,5.85,0,0,1-5.43-3.7Z" transform="translate(0 0)"/></g><polygon class="cls-2" points="42.62 72.75 42.62 76.4 46.88 76.4 46.88 91.02 50.55 91.02 50.55 76.4 54.8 76.4 54.8 72.75 42.62 72.75"/><g class="cls-3"><path class="cls-2" d="M79.16,91H75.51l-2.05-6.09H70.63V91H67V72.75h6.09a6.09,6.09,0,0,1,3.67,11Zm-8.53-9.74h2.44a2.44,2.44,0,1,0,0-4.88H70.63Z" transform="translate(0 0)"/></g><polygon class="cls-2" points="82.81 72.75 82.81 91.02 94.98 91.02 94.98 87.37 86.46 87.37 86.46 83.72 93.15 83.72 93.15 80.05 86.46 80.05 86.46 76.4 94.98 76.4 94.98 72.75 82.81 72.75"/><polygon class="cls-2" points="98.63 72.75 98.63 76.4 102.88 76.4 102.88 91.02 106.56 91.02 106.56 76.4 110.81 76.4 110.81 72.75 98.63 72.75"/><path class="cls-2" d="M118.74,77.74l1.81,6H116.9Zm-1.84-5L110.81,91h3.65l1.23-3.65h6.09L123,91h3.66l-6.09-18.27Z" transform="translate(0 0)"/><rect class="cls-2" x="130.29" y="72.76" width="3.65" height="18.27"/><polygon class="cls-2" points="137.58 72.75 137.58 91.02 149.76 91.02 149.76 87.37 141.23 87.37 141.23 72.75 137.58 72.75"/><rect class="cls-2" x="153.41" y="72.76" width="3.65" height="18.27"/><polygon class="cls-2" points="169.23 72.75 169.23 83.62 164.35 72.75 160.7 72.75 160.7 91.02 164.35 91.02 164.35 80.15 169.23 91.02 172.88 91.02 172.88 72.75 169.23 72.75"/><g class="cls-3"><path class="cls-2" d="M185.06,78.66a2.44,2.44,0,1,0-4.88,0v6.46a2.44,2.44,0,0,0,2.44,2.44A2.41,2.41,0,0,0,185.06,85h-2.44V81.47h6.08v3.65a6.09,6.09,0,1,1-12.17,0V78.66a6.09,6.09,0,1,1,12.17,0Z" transform="translate(0 0)"/></g><polygon class="cls-2" points="0 44.03 0 62.9 56.61 44.03 0 44.03"/><polygon class="cls-2" points="0 0 0 15.72 141.53 15.72 188.7 0 0 0"/><polygon class="cls-2" points="0 22.02 0 37.74 75.48 37.74 122.66 22.02 0 22.02"/></g></g></svg>