<?xml version="1.0" encoding="utf-8"?>
<!-- Generator: Adobe Illustrator 26.1.0, SVG Export Plug-In . SVG Version: 6.00 Build 0)  -->
<svg version="1.1" id="레이어_1" xmlns="http://www.w3.org/2000/svg" xmlns:xlink="http://www.w3.org/1999/xlink" x="0px"
	 y="0px" viewBox="0 0 1100 95.1" style="enable-background:new 0 0 1100 95.1;" xml:space="preserve">
<style type="text/css">
	.st0{fill:#251E1C;}
	.st1{fill:#FF0000;}
</style>
<g id="TOP">
	<path class="st0" d="M32.8,19.7c-2.5-5-6.1-7.6-10.7-7.6c-2.4-0.1-4.8,0.8-6.5,2.5c-1.7,1.6-2.7,3.8-2.6,6.1
		c-0.2,3.2,1.7,6.2,4.6,7.5L31.4,35c3.6,1.6,6.6,4.1,8.9,7.3c2.1,3.3,3.2,7.2,3,11.2c0,2.8-0.6,5.6-1.7,8.2
		c-2.2,5.1-6.3,9.1-11.4,11.2c-2.7,1.1-5.5,1.7-8.4,1.6c-4.7,0-9.2-1.4-13-4.1c-3.9-2.8-7-6.6-8.8-11l11.4-4.6
		c1,2.3,2.6,4.2,4.6,5.7c1.8,1.2,3.9,1.9,6.1,1.9c2.4,0.1,4.8-0.8,6.6-2.5c1.7-1.6,2.6-3.9,2.6-6.2c0.1-1.7-0.3-3.4-1.3-4.8
		c-0.9-1.1-2.1-2-3.4-2.6l-13.9-6.7c-3.5-1.6-6.6-4.1-8.8-7.3C1.7,28.9,0.6,25,0.7,21.1c0-2.8,0.5-5.6,1.7-8.2
		C3.5,10.4,5.1,8.1,7,6.2c2-1.9,4.3-3.4,6.8-4.5C16.5,0.6,19.4,0,22.3,0c4.7-0.1,9.2,1.3,13.1,3.9c4,2.8,7,6.7,8.8,11.2L32.8,19.7z"
		/>
	<path class="st0" d="M82.3,73.8v-3.4c-2.9,2.3-6.4,3.5-10.1,3.4c-2.6,0-5.2-0.5-7.6-1.5c-2.3-0.9-4.3-2.4-6-4.1
		c-1.7-1.8-3-3.9-3.9-6.2c-1-2.5-1.5-5.2-1.4-7.9v-32h10.7v32c0.2,5,4.4,9,9.4,8.8c4.8-0.2,8.7-4,8.8-8.8v-32h10.6v51.7H82.3z"/>
	<path class="st0" d="M111.4,59c0.7,1.4,1.7,2.5,2.9,3.5c1.1,0.8,2.4,1.3,3.7,1.3c1.3,0,2.5-0.4,3.5-1.3c0.9-0.8,1.4-2,1.4-3.2
		c0.1-1-0.2-1.9-0.7-2.7c-0.6-0.7-1.4-1.3-2.2-1.8l-8.7-4.6c-2.4-1.3-4.5-3.2-5.9-5.6c-2.5-4.1-2.9-9.2-1-13.7
		c0.8-1.8,1.9-3.5,3.3-4.8c1.4-1.4,3.1-2.5,4.9-3.3c1.9-0.8,3.9-1.2,6-1.2c3.5,0,7,1.1,9.9,3c2.9,1.9,5.2,4.5,6.6,7.7l-9.7,4.6
		c-0.6-1.3-1.6-2.5-2.8-3.4c-1.2-0.8-2.6-1.3-4-1.3c-1.3,0-2.5,0.5-3.4,1.3c-0.9,0.8-1.4,1.9-1.4,3.1c0,0.9,0.3,1.7,0.7,2.5
		c0.6,0.9,1.4,1.6,2.4,2l8.7,4.6c2.2,1.2,4.1,2.8,5.6,4.9c1.7,2.5,2.5,5.5,2.4,8.5c0,2-0.4,4.1-1.2,5.9c-0.8,1.8-1.9,3.5-3.4,4.9
		c-1.4,1.4-3.1,2.5-4.9,3.2c-1.9,0.8-3.9,1.2-6,1.2c-3.5,0-6.9-1-9.8-3c-2.9-1.9-5.2-4.6-6.7-7.7L111.4,59z"/>
	<path class="st0" d="M148.1,0.7h10.7V22h10.6v10.7h-10.6v25.8c0,2.5,2,4.5,4.4,4.5c0,0,0.1,0,0.1,0h3v10.7h-3c-2,0-4.1-0.4-5.9-1.2
		c-1.8-0.8-3.4-1.9-4.8-3.3c-1.4-1.4-2.5-3-3.2-4.8c-0.8-1.9-1.2-3.9-1.2-5.9V32.8h-6.1V22h6.1V0.7z"/>
	<path class="st0" d="M206.3,41.4c0-2.4-0.9-4.8-2.7-6.5c-1.7-1.8-4-2.8-6.4-2.7c-1.8,0-3.5,0.5-5,1.5c-1.6,1-2.8,2.5-3.5,4.2
		l-9.8-4.1c1.5-3.7,4-6.8,7.3-9c3.3-2.2,7.1-3.3,11-3.3c2.6,0,5.2,0.5,7.7,1.6c4.7,2,8.5,5.8,10.5,10.5c1.1,2.4,1.6,5.1,1.6,7.7
		v32.4h-10.7v-3.4c-2.3,2.2-5.4,3.4-9.3,3.4h-4.4c-2,0-4.1-0.4-5.9-1.2c-1.8-0.8-3.4-1.9-4.8-3.3c-1.4-1.4-2.5-3-3.2-4.8
		c-0.8-1.9-1.2-3.9-1.2-5.9c0-4.1,1.7-8.1,4.6-10.9c1.4-1.3,3-2.4,4.8-3.2c1.8-0.8,3.8-1.2,5.8-1.2h13.8L206.3,41.4z M192.6,54
		c-1.2,0-2.4,0.5-3.2,1.3c-0.9,0.9-1.3,2.1-1.3,3.3c0,2.5,2,4.5,4.4,4.5c0,0,0.1,0,0.1,0h4.4c2.4,0,4.8-0.8,6.6-2.5
		c1.8-1.5,2.8-3.7,2.8-6V54H192.6z"/>
	<path class="st0" d="M240.8,0.7v10.7h-10.7V0.7H240.8z M240.8,22v51.8h-10.7V22H240.8z"/>
	<path class="st0" d="M265.1,22v3.4c2.8-2.3,6.4-3.5,10.1-3.4c2.3,0,4.6,0.4,6.7,1.2c4.7,1.7,8.5,5.2,10.4,9.8
		c1.2,2.8,1.8,5.8,1.7,8.8v31.9h-10.6V41.9c0.1-2.5-0.9-4.8-2.7-6.6c-3.6-3.6-9.3-3.6-12.9,0c0,0,0,0,0,0c-1.7,1.7-2.7,4.1-2.7,6.6
		v31.9h-10.7V22H265.1z"/>
	<path class="st0" d="M334.8,41.4c0-2.4-0.9-4.8-2.7-6.5c-1.7-1.8-4-2.8-6.5-2.7c-1.8,0-3.5,0.5-5,1.5c-1.6,1-2.8,2.5-3.5,4.2
		l-9.8-4.1c1.5-3.7,4-6.8,7.3-9c3.3-2.2,7.1-3.3,11-3.3c2.6,0,5.3,0.5,7.7,1.6c4.7,2,8.5,5.8,10.5,10.5c1.1,2.4,1.6,5.1,1.6,7.7
		v32.4h-10.6v-3.4c-2.3,2.2-5.4,3.4-9.4,3.4h-4.4c-2,0-4.1-0.4-5.9-1.2c-1.8-0.8-3.4-1.9-4.8-3.3c-1.4-1.4-2.5-3-3.3-4.8
		c-1.6-3.8-1.6-8.2,0.1-12c0.8-1.8,1.9-3.5,3.4-4.8c1.4-1.3,3-2.4,4.8-3.2c1.8-0.8,3.8-1.2,5.8-1.2h13.8L334.8,41.4z M321.1,54
		c-1.2,0-2.4,0.5-3.2,1.3c-0.9,0.9-1.3,2.1-1.3,3.3c0,2.5,2,4.5,4.4,4.5c0,0,0.1,0,0.1,0h4.4c2.4,0,4.8-0.8,6.6-2.5
		c1.8-1.5,2.8-3.7,2.8-6V54H321.1z"/>
	<path class="st0" d="M368.9,0.7v24.7c2.8-2.2,6.4-3.4,10-3.4c5.1,0,9.9,2,13.4,5.7c1.7,1.8,3.1,3.9,4,6.3c1,2.5,1.5,5.1,1.5,7.8
		v12.3c0,2.7-0.5,5.4-1.5,7.9c-0.9,2.3-2.2,4.4-3.9,6.2c-1.6,1.8-3.6,3.2-5.9,4.1c-2.3,1-4.9,1.5-7.4,1.5c-1.8,0-3.7-0.2-5.5-0.8
		c-1.7-0.6-3.4-1.5-4.8-2.6v3.4h-10.7V0.7H368.9z M387.1,41.8c0.2-5-3.8-9.3-8.8-9.4c-5-0.2-9.3,3.8-9.4,8.8c0,0.2,0,0.4,0,0.6v12.3
		c0.2,5,4.4,9,9.4,8.8c4.8-0.2,8.7-4,8.8-8.8V41.8z"/>
	<path class="st0" d="M420.2,0.7v10.7h-10.7V0.7H420.2z M420.2,22v51.8h-10.7V22H420.2z"/>
	<path class="st0" d="M445,58.5c0,1.2,0.4,2.4,1.3,3.3c0.8,0.9,2,1.3,3.2,1.3h3v10.7h-3c-2,0-4.1-0.4-5.9-1.2
		c-3.6-1.5-6.5-4.4-8.1-8.1c-0.8-1.9-1.2-3.9-1.2-5.9V0.7H445V58.5z"/>
	<path class="st0" d="M472.4,0.7v10.7h-10.7V0.7H472.4z M472.4,22v51.8h-10.7V22H472.4z"/>
	<path class="st0" d="M489.6,0.7h10.7V22h10.6v10.7h-10.6v25.8c0,2.5,2,4.5,4.4,4.5c0,0,0.1,0,0.1,0h3v10.7h-3c-2,0-4.1-0.4-5.9-1.2
		c-1.8-0.8-3.4-1.9-4.8-3.3c-1.4-1.4-2.5-3-3.2-4.8c-0.8-1.9-1.2-3.9-1.2-5.9V32.8h-6.1V22h6.1L489.6,0.7z"/>
	<path class="st0" d="M518.4,22H529l11.5,34.3L552,22h10.6l-21.1,62.8c-1,3.1-3,5.7-5.7,7.4c-2.9,1.8-6.3,2.8-9.8,2.8V84.5
		c3.4-0.3,5.5-1.6,6.2-3.8l2.8-8.5L518.4,22z"/>
	<path class="st0" d="M618.8,0.7c3.2,0,6.4,0.6,9.3,1.8c2.9,1.2,5.5,2.9,7.8,5.1c4.7,4.6,7.3,10.9,7.2,17.4
		c0,9.2-5.2,17.7-13.4,21.8l13.4,26.9H631l-12.2-24.4h-12.2v24.4h-12.2V0.7H618.8z M618.8,37.3c1.6,0,3.2-0.3,4.7-0.9
		c2.9-1.3,5.3-3.6,6.5-6.5c0.6-1.5,1-3.1,0.9-4.7c0-1.7-0.3-3.3-0.9-4.9c-0.6-1.5-1.5-2.8-2.6-3.9c-1.1-1.1-2.4-1.9-3.9-2.5
		c-1.5-0.6-3.1-0.9-4.7-0.9h-12.2v24.4H618.8z"/>
	<path class="st0" d="M661.4,54.5c0,1.2,0.2,2.4,0.7,3.6c0.9,2.2,2.6,3.9,4.8,4.8c1.1,0.5,2.3,0.8,3.5,0.7c2.6,0,5-1,6.8-2.8
		l7.5,7.5c-1.8,2-4,3.5-6.5,4.6c-2.5,1-5.1,1.5-7.8,1.5c-2.7,0-5.3-0.5-7.7-1.6c-2.4-1-4.5-2.4-6.3-4.2c-1.8-1.8-3.2-3.9-4.2-6.3
		c-1-2.4-1.5-5.1-1.5-7.7V41.4c0-2.7,0.5-5.3,1.6-7.7c2-4.8,5.8-8.5,10.5-10.5c2.4-1.1,5.1-1.6,7.7-1.6c2.6,0,5.2,0.5,7.7,1.6
		c4.7,2,8.5,5.8,10.5,10.6c1.1,2.4,1.6,5.1,1.6,7.7V52h-28.9V54.5z M679.6,41.4c-0.1-2.5-1.1-4.8-2.8-6.6c-1.7-1.7-4-2.7-6.3-2.6
		c-2.4,0-4.8,0.9-6.5,2.7c-1.8,1.7-2.7,4.1-2.7,6.6L679.6,41.4z"/>
	<path class="st0" d="M710.9,95.1h-10.7V22h10.7v3.4c2.8-2.2,6.4-3.4,10-3.4c5.1,0,9.9,2,13.4,5.7c1.7,1.8,3.1,4,4,6.3
		c1,2.5,1.5,5.1,1.5,7.8v12.2c0,2.7-0.5,5.4-1.4,7.9c-0.9,2.3-2.2,4.4-3.9,6.2c-1.6,1.8-3.6,3.2-5.9,4.1c-2.3,1-4.9,1.5-7.4,1.5
		c-1.8,0-3.7-0.2-5.5-0.8c-1.7-0.6-3.4-1.5-4.8-2.6V95.1z M729.2,41.9c0-2.5-0.9-4.8-2.7-6.6c-3.6-3.6-9.3-3.6-12.9,0c0,0,0,0,0,0
		c-1.8,1.7-2.7,4.1-2.7,6.6v12.2c-0.2,5,3.8,9.3,8.8,9.4s9.3-3.8,9.4-8.8c0-0.2,0-0.4,0-0.6L729.2,41.9z"/>
	<path class="st0" d="M748.2,41.4c0-2.7,0.5-5.3,1.6-7.7c2-4.7,5.8-8.5,10.5-10.5c2.4-1.1,5.1-1.6,7.7-1.6c2.6,0,5.3,0.5,7.7,1.6
		c4.7,2,8.5,5.8,10.5,10.6c1.1,2.4,1.6,5.1,1.6,7.7v13.1c0,2.7-0.5,5.3-1.6,7.7c-2,4.7-5.8,8.5-10.5,10.5c-2.4,1.1-5,1.6-7.7,1.6
		c-2.7,0-5.3-0.5-7.7-1.6c-4.7-2-8.5-5.8-10.5-10.5c-1.1-2.4-1.6-5.1-1.6-7.7V41.4z M777.2,41.4c0-2.5-0.9-4.8-2.7-6.6
		c-3.6-3.6-9.3-3.6-12.9,0c0,0,0,0,0,0c-1.8,1.7-2.7,4.1-2.7,6.6v13.1c0,2.5,0.9,4.8,2.7,6.6c1.7,1.7,4,2.7,6.5,2.7
		c2.4,0,4.8-1,6.4-2.7c1.7-1.7,2.7-4.1,2.7-6.5L777.2,41.4z"/>
	<path class="st0" d="M808.4,25.4c2.7-2.2,6.1-3.4,9.6-3.4c2.5,0,4.9,0.5,7.2,1.5c2.4,1,4.6,2.5,6.4,4.4l-7.6,7.5
		c-1.7-1.8-4-2.8-6.5-2.7c-5,0-9.1,4.1-9.1,9.1v31.9h-10.7V22h10.7V25.4z"/>
	<path class="st0" d="M843.5,0.7h10.7V22h10.6v10.7h-10.6v25.8c0,2.5,2,4.5,4.4,4.5c0,0,0.1,0,0.1,0h3v10.7h-3c-2,0-4.1-0.4-5.9-1.2
		c-3.6-1.5-6.5-4.4-8.1-8.1c-0.8-1.9-1.2-3.9-1.2-5.9V32.8h-6.1V22h6.1V0.7z"/>
	<path class="st1" d="M922.5,28.1c1-1.2,1.9-2.5,2.5-3.9c0.5-1.1,0.7-2.3,0.7-3.5c0-2.2-0.8-4.4-2.4-6c-3.3-3.3-8.6-3.3-11.9,0
		c0,0,0,0,0,0c-1.6,1.6-2.5,3.7-2.4,5.9h-12.2c0-2.7,0.5-5.4,1.6-7.9c1.1-2.4,2.5-4.7,4.4-6.6c1.9-1.9,4.1-3.4,6.5-4.5
		c5.1-2.2,10.9-2.2,16.1,0c2.4,1,4.7,2.6,6.5,4.5c1.9,1.9,3.4,4.1,4.4,6.6c1.1,2.6,1.7,5.3,1.6,8.1c0,2.4-0.4,4.8-1.3,7.1
		c-1.1,2.4-2.5,4.7-4.3,6.8l-21.8,27h27.4v12.2h-41.2V61.6L922.5,28.1z"/>
	<path class="st1" d="M950.4,20.7c0-2.8,0.5-5.5,1.6-8.1c2.1-4.9,6-8.9,10.9-11c5.1-2.2,10.9-2.2,16.1,0c4.9,2.1,8.8,6,10.9,11
		c1.1,2.6,1.6,5.3,1.6,8.1v33.2c0,2.8-0.5,5.6-1.6,8.1c-2.1,4.9-6,8.9-10.9,11c-5.1,2.2-10.9,2.2-16.1,0c-4.9-2.1-8.8-6.1-10.9-11
		c-1.1-2.6-1.6-5.3-1.6-8.1L950.4,20.7z M962.6,54c0,4.6,3.8,8.4,8.4,8.4c4.6,0,8.4-3.8,8.4-8.4V20.6c0-4.6-3.8-8.4-8.4-8.4
		c-2.2,0-4.4,0.9-5.9,2.5c-1.6,1.6-2.5,3.7-2.5,5.9V54z"/>
	<path class="st1" d="M1029.5,28.1c1-1.2,1.9-2.5,2.5-3.9c0.5-1.1,0.7-2.3,0.7-3.5c0-2.2-0.8-4.4-2.4-6c-3.3-3.3-8.6-3.3-11.9,0
		c-1.6,1.6-2.5,3.7-2.5,5.9h-12.2c0-2.7,0.5-5.4,1.6-7.9c1.1-2.4,2.6-4.7,4.4-6.6c1.9-1.9,4.1-3.4,6.5-4.5c5.1-2.2,10.9-2.2,16.1,0
		c2.4,1.1,4.6,2.6,6.5,4.5c1.9,1.9,3.4,4.2,4.4,6.6c1.1,2.6,1.6,5.3,1.6,8.1c0,2.4-0.4,4.8-1.3,7.1c-1.1,2.4-2.5,4.7-4.2,6.8
		l-21.8,27h27.4v12.1h-41.2V61.6L1029.5,28.1z"/>
</g>
<path class="st1" d="M1082.5,28.1c1-1.2,1.9-2.5,2.5-3.9c0.5-1.1,0.7-2.3,0.7-3.5c0-2.2-0.8-4.4-2.4-6c-3.3-3.3-8.6-3.3-11.9,0
	c-1.6,1.6-2.5,3.7-2.5,5.9h-12.2c0-2.7,0.5-5.4,1.6-7.9c1.1-2.4,2.6-4.7,4.4-6.6c1.9-1.9,4.1-3.4,6.5-4.5c5.1-2.2,10.9-2.2,16.1,0
	c2.4,1.1,4.6,2.6,6.5,4.5c1.9,1.9,3.4,4.2,4.4,6.6c1.1,2.6,1.6,5.3,1.6,8.1c0,2.4-0.4,4.8-1.3,7.1c-1.1,2.4-2.5,4.7-4.2,6.8
	l-21.8,27h27.4v12.1h-41.2V61.6L1082.5,28.1z"/>
</svg>
