<?xml version="1.0" encoding="utf-8"?>
<!-- Generator: Adobe Illustrator 26.1.0, SVG Export Plug-In . SVG Version: 6.00 Build 0)  -->
<svg version="1.1" id="레이어_1" xmlns="http://www.w3.org/2000/svg" xmlns:xlink="http://www.w3.org/1999/xlink" x="0px"
	 y="0px" viewBox="0 0 632.5 212.2" style="enable-background:new 0 0 632.5 212.2;" xml:space="preserve">
<style type="text/css">
	.st0{fill:#251E1C;}
	.st1{fill:#FF0000;}
</style>
<path class="st0" d="M35.2,21.2c-2.7-5.4-6.5-8.1-11.5-8.1c-2.6-0.1-5.1,0.9-7,2.7c-1.8,1.7-2.9,4.1-2.8,6.6c-0.2,3.5,1.8,6.7,5,8
	l14.9,7.2c3.8,1.7,7.1,4.4,9.6,7.8c2.3,3.6,3.4,7.8,3.3,12c0,3-0.6,6.1-1.8,8.9c-2.4,5.5-6.8,9.8-12.3,12.1c-2.9,1.2-5.9,1.8-9,1.8
	c-5,0-9.9-1.5-13.9-4.4C5.3,72.7,2,68.6,0,63.8l12.3-5c1,2.5,2.7,4.6,4.9,6.2c1.9,1.3,4.2,2,6.5,2c2.6,0.1,5.1-0.9,7-2.7
	c1.8-1.7,2.8-4.2,2.8-6.7c0.1-1.8-0.3-3.7-1.3-5.2c-1-1.2-2.2-2.2-3.6-2.8l-14.8-7.2c-3.8-1.7-7.1-4.4-9.5-7.8
	C1.8,31,0.7,26.9,0.8,22.7c0-3,0.6-6.1,1.8-8.9c1.2-2.7,2.8-5.1,4.9-7.2c2.1-2.1,4.6-3.7,7.3-4.9c2.9-1.2,6-1.8,9.1-1.8
	c5-0.1,9.9,1.4,14.1,4.2c4.2,3,7.5,7.2,9.4,12L35.2,21.2z"/>
<path class="st0" d="M90.7,79.3v-3.6c-3.1,2.4-6.9,3.7-10.8,3.6c-2.8,0-5.5-0.5-8.1-1.6c-2.4-1-4.6-2.5-6.4-4.5
	c-1.8-1.9-3.3-4.2-4.2-6.7c-1-2.7-1.6-5.6-1.5-8.5V23.7h11.5v34.4c0.2,5.4,4.7,9.7,10.1,9.5c5.2-0.2,9.3-4.3,9.5-9.5V23.7h11.4v55.6
	H90.7z"/>
<path class="st0" d="M123.1,63.4c0.7,1.5,1.8,2.7,3.1,3.7c1.1,0.9,2.6,1.4,4,1.4c1.4,0.1,2.7-0.4,3.7-1.4c1-0.9,1.5-2.2,1.5-3.5
	c0.1-1-0.2-2.1-0.8-2.9c-0.7-0.8-1.5-1.4-2.4-1.9l-9.4-5c-2.6-1.4-4.8-3.5-6.3-6c-1.6-2.5-2.4-5.4-2.4-8.4c0-4.3,1.7-8.5,4.8-11.5
	c1.5-1.5,3.3-2.7,5.2-3.5c2.1-0.9,4.3-1.3,6.5-1.3c3.8,0,7.5,1.1,10.6,3.3c3.1,2,5.6,4.9,7.1,8.2l-10.4,5c-0.7-1.4-1.7-2.7-3-3.6
	c-1.3-0.9-2.8-1.4-4.3-1.3c-1.3,0-2.7,0.4-3.7,1.3c-1,0.8-1.5,2.1-1.5,3.3c0,0.9,0.3,1.9,0.8,2.7c0.6,1,1.5,1.7,2.6,2.2l9.4,5
	c2.4,1.3,4.4,3.1,6,5.2c1.8,2.7,2.7,5.9,2.5,9.1c0,2.2-0.4,4.4-1.3,6.4c-0.8,1.9-2,3.7-3.5,5.2c-1.5,1.5-3.3,2.7-5.2,3.5
	c-2,0.9-4.3,1.3-6.5,1.3c-3.8,0-7.4-1.1-10.6-3.2c-3.1-2-5.6-4.9-7.2-8.3L123.1,63.4z"/>
<path class="st0" d="M164.8,0.8h11.5v22.9h11.4v11.5h-11.4v27.7c0,2.7,2.1,4.8,4.8,4.9c0,0,0.1,0,0.1,0h3.3v11.5h-3.3
	c-2.2,0-4.4-0.4-6.4-1.3c-1.9-0.8-3.7-2-5.2-3.5c-1.5-1.5-2.7-3.3-3.5-5.2c-0.9-2-1.3-4.2-1.3-6.4V35.2h-6.5V23.7h6.5L164.8,0.8z"/>
<path class="st0" d="M229.5,44.4c0-2.6-1-5.2-2.9-7c-1.8-1.9-4.3-3-6.9-2.9c-1.9,0-3.8,0.6-5.4,1.6c-1.7,1.1-3,2.7-3.7,4.6
	l-10.5-4.4c1.6-3.9,4.3-7.3,7.8-9.7c3.5-2.3,7.6-3.5,11.8-3.5c2.8,0,5.6,0.6,8.2,1.7c5.1,2.2,9.1,6.2,11.3,11.3
	c1.1,2.6,1.7,5.4,1.7,8.3v34.9h-11.4v-3.6c-2.5,2.4-5.8,3.6-10,3.6h-4.7c-2.2,0-4.4-0.4-6.4-1.3c-1.9-0.8-3.7-2-5.2-3.5
	c-1.5-1.5-2.7-3.3-3.5-5.2c-2.6-6.2-1.2-13.4,3.7-18.1c1.5-1.4,3.3-2.6,5.2-3.4c2-0.8,4.1-1.3,6.2-1.2h14.8L229.5,44.4z M214.8,58
	c-1.3,0-2.5,0.5-3.4,1.4c-0.9,0.9-1.5,2.2-1.4,3.5c0,2.7,2.1,4.8,4.8,4.8c0,0,0.1,0,0.1,0h4.7c2.6,0,5.1-0.9,7.1-2.7
	c1.9-1.6,3-4,3-6.5V58H214.8z"/>
<path class="st0" d="M268.8,0.8v11.5h-11.5V0.8H268.8z M268.8,23.7v55.6h-11.5V23.7H268.8z"/>
<path class="st0" d="M297.2,23.7v3.6c3-2.5,6.9-3.7,10.8-3.6c2.5,0,4.9,0.5,7.3,1.3c5,1.8,9.1,5.6,11.2,10.5c1.3,3,1.9,6.2,1.8,9.5
	v34.3h-11.4V45c0.1-2.6-1-5.2-2.8-7c-3.8-3.8-10-3.8-13.8,0c0,0,0,0,0,0c-1.9,1.8-2.9,4.4-2.9,7v34.3h-11.5V23.7H297.2z"/>
<path class="st0" d="M374.4,44.4c0-2.6-1-5.2-2.9-7c-1.8-1.9-4.3-3-6.9-2.9c-1.9,0-3.8,0.6-5.4,1.6c-1.7,1.1-3,2.7-3.7,4.6
	l-10.5-4.4c1.6-3.9,4.3-7.3,7.8-9.7c3.5-2.3,7.6-3.5,11.8-3.5c2.8,0,5.6,0.6,8.2,1.7c5.1,2.2,9.1,6.2,11.3,11.3
	c1.1,2.6,1.7,5.4,1.7,8.3v34.9h-11.4v-3.6c-2.5,2.4-5.8,3.6-10,3.6h-4.7c-2.2,0-4.4-0.4-6.4-1.3c-2-0.8-3.7-2-5.2-3.5
	c-1.5-1.5-2.7-3.3-3.5-5.2c-0.9-2-1.3-4.2-1.3-6.4c0-2.3,0.4-4.5,1.4-6.5c0.9-1.9,2.1-3.7,3.6-5.2c1.5-1.4,3.3-2.6,5.2-3.4
	c2-0.8,4.1-1.3,6.2-1.2h14.8L374.4,44.4z M359.6,58c-1.3,0-2.5,0.5-3.4,1.4c-0.9,0.9-1.5,2.2-1.4,3.5c0,2.7,2.1,4.8,4.8,4.8
	c0,0,0.1,0,0.1,0h4.7c2.6,0,5.1-0.9,7-2.7c1.9-1.6,3-4,3-6.5V58H359.6z"/>
<path class="st0" d="M413.2,0.8v26.5c3.1-2.4,6.8-3.7,10.7-3.6c2.8,0,5.5,0.5,8,1.6c2.4,1,4.6,2.6,6.4,4.5c1.8,1.9,3.3,4.2,4.3,6.7
	c1.1,2.7,1.6,5.5,1.6,8.4v13.2c0,2.9-0.5,5.8-1.5,8.5c-1,2.5-2.4,4.8-4.2,6.7c-1.8,1.9-3.9,3.4-6.3,4.5c-2.5,1.1-5.2,1.6-8,1.6
	c-2,0-4-0.3-5.9-0.8c-1.9-0.6-3.6-1.6-5.2-2.8v3.6h-11.5V0.8H413.2z M432.8,44.9c-0.2-5.4-4.7-9.7-10.1-9.5
	c-5.2,0.2-9.3,4.3-9.5,9.5v13.2c0.2,5.4,4.7,9.7,10.1,9.5c5.2-0.2,9.3-4.3,9.5-9.5V44.9z"/>
<path class="st0" d="M470.6,0.8v11.5h-11.5V0.8H470.6z M470.6,23.7v55.6h-11.5V23.7H470.6z"/>
<path class="st0" d="M499.5,62.8c0,1.3,0.5,2.6,1.4,3.6c0.9,0.9,2.1,1.4,3.4,1.4h3.3v11.5h-3.3c-2.2,0-4.4-0.4-6.4-1.3
	c-1.9-0.8-3.7-2-5.2-3.5c-1.5-1.5-2.7-3.3-3.5-5.2c-0.9-2-1.3-4.2-1.3-6.4V0.8h11.5V62.8z"/>
<path class="st0" d="M531.1,0.8v11.5h-11.5V0.8H531.1z M531.1,23.7v55.6h-11.5V23.7H531.1z"/>
<path class="st0" d="M551.9,0.8h11.5v22.9h11.4v11.5h-11.4v27.7c0,2.7,2.1,4.8,4.8,4.9c0,0,0.1,0,0.1,0h3.3v11.5h-3.3
	c-2.2,0-4.4-0.4-6.4-1.3c-3.9-1.7-7-4.8-8.7-8.7c-0.9-2-1.3-4.2-1.3-6.4V35.2h-6.5V23.7h6.5V0.8z"/>
<path class="st0" d="M585.1,23.7h11.4l12.3,36.9l12.4-36.9h11.4l-22.7,67.4c-1,3.3-3.2,6.2-6.2,8c-3.1,1.9-6.7,3-10.4,3V90.8
	c3.7-0.4,5.9-1.7,6.7-4.1l3-9.1L585.1,23.7z"/>
<path class="st0" d="M29,110.8c3.4,0,6.8,0.7,10,2c3.1,1.3,5.9,3.1,8.3,5.5c8.7,8.6,10.3,22.1,3.9,32.5c-2.5,4.2-6.2,7.5-10.5,9.7
	l14.5,28.9H42.1L29,163.1H15.9v26.2H2.8v-78.5H29z M29,150c1.7,0,3.5-0.3,5.1-1c3.2-1.3,5.7-3.8,7-7c0.7-1.6,1-3.3,1-5.1
	c0-1.8-0.3-3.6-1-5.2c-0.6-1.6-1.6-3-2.8-4.2c-1.2-1.2-2.6-2.1-4.2-2.7c-1.6-0.7-3.3-1-5.1-1H15.9V150H29z"/>
<path class="st0" d="M75.8,168.5c0,1.3,0.3,2.6,0.8,3.8c0.5,1.2,1.2,2.2,2.1,3.1c0.9,0.9,1.9,1.6,3,2.1c1.2,0.5,2.5,0.8,3.8,0.8
	c2.7,0,5.4-1.1,7.3-3l8,8c-1.9,2.1-4.3,3.8-7,4.9c-2.6,1.1-5.5,1.7-8.3,1.6c-2.9,0-5.7-0.6-8.3-1.7c-2.5-1.1-4.8-2.6-6.8-4.6
	c-1.9-1.9-3.5-4.2-4.5-6.8c-1.1-2.6-1.7-5.4-1.6-8.3v-14.1c0-2.9,0.6-5.7,1.8-8.3c2.2-5.1,6.2-9.2,11.3-11.3
	c2.6-1.1,5.4-1.7,8.3-1.7c2.8,0,5.6,0.6,8.2,1.7c5.1,2.2,9.1,6.2,11.3,11.3c1.1,2.6,1.7,5.4,1.7,8.3v11.4h-31L75.8,168.5z
	 M95.4,154.4c-0.1-2.7-1.1-5.2-3-7.1c-1.8-1.9-4.3-2.9-6.8-2.8c-2.6,0-5.1,1-6.9,2.9c-1.9,1.9-2.9,4.4-2.9,7.1L95.4,154.4z"/>
<path class="st0" d="M130.2,212.2h-11.5v-78.5h11.5v3.6c3-2.4,6.8-3.7,10.7-3.6c5.5,0,10.7,2.2,14.4,6.1c1.8,2,3.3,4.3,4.3,6.8
	c1.1,2.7,1.6,5.5,1.6,8.4v13.1c0,2.9-0.5,5.8-1.5,8.5c-1,2.5-2.4,4.7-4.2,6.7c-1.8,1.9-3.9,3.4-6.3,4.5c-2.5,1.1-5.2,1.6-7.9,1.6
	c-2,0-4-0.3-5.9-0.9c-1.9-0.6-3.6-1.6-5.2-2.8L130.2,212.2z M149.8,155c0-2.6-1-5.2-2.9-7c-3.8-3.8-10-3.8-13.9,0
	c-1.9,1.9-2.9,4.4-2.9,7v13.1c0,5.4,4.4,9.8,9.8,9.8s9.8-4.4,9.8-9.8c0,0,0,0,0,0V155z"/>
<path class="st0" d="M171.3,154.4c0-2.9,0.6-5.7,1.7-8.3c2.2-5.1,6.2-9.2,11.3-11.3c2.6-1.1,5.4-1.7,8.3-1.7c2.8,0,5.6,0.6,8.2,1.7
	c5.1,2.2,9.1,6.2,11.3,11.3c1.1,2.6,1.7,5.4,1.7,8.3v14.1c0,2.9-0.6,5.7-1.7,8.3c-1.1,2.5-2.6,4.8-4.6,6.8c-1.9,1.9-4.2,3.5-6.7,4.6
	c-2.6,1.1-5.4,1.7-8.2,1.7c-2.9,0-5.7-0.6-8.3-1.7c-5.1-2.2-9.2-6.2-11.4-11.3c-1.1-2.6-1.7-5.4-1.7-8.3L171.3,154.4z M202.5,154.4
	c0.1-2.6-1-5.2-2.9-7.1c-3.8-3.8-10-3.8-13.9,0c-1.9,1.9-2.9,4.4-2.9,7.1v14.1c-0.1,2.6,1,5.2,2.9,7.1c3.8,3.8,9.9,3.8,13.7,0.1
	c0,0,0.1-0.1,0.1-0.1c1.9-1.8,2.9-4.4,2.9-7V154.4z"/>
<path class="st0" d="M237.1,137.3c2.9-2.4,6.6-3.7,10.4-3.6c2.7,0,5.3,0.6,7.7,1.6c2.6,1.1,4.9,2.8,6.8,4.8l-8.1,8
	c-1.8-2-4.3-3-7-2.9c-5.4,0-9.8,4.4-9.8,9.8v34.3h-11.5v-55.6h11.5L237.1,137.3z"/>
<path class="st0" d="M276,110.8h11.5v22.9h11.4v11.5h-11.4v27.8c0,2.7,2.1,4.8,4.8,4.9c0,0,0.1,0,0.1,0h3.3v11.5h-3.3
	c-2.2,0-4.4-0.4-6.4-1.3c-3.9-1.7-7-4.8-8.7-8.7c-0.9-2-1.3-4.2-1.3-6.4v-27.8h-6.5v-11.5h6.5V110.8z"/>
<path class="st1" d="M368.7,140.2c1.1-1.3,2-2.7,2.7-4.2c0.5-1.2,0.8-2.5,0.8-3.8c0.1-2.4-0.9-4.8-2.6-6.5c-3.5-3.5-9.3-3.5-12.8,0
	c-1.7,1.7-2.6,4-2.6,6.4h-13.1c0-2.9,0.6-5.8,1.8-8.5c1.1-2.6,2.7-5,4.7-7c2-2,4.4-3.7,7-4.8c5.5-2.3,11.7-2.3,17.3,0
	c2.6,1.1,5,2.8,7,4.8c2,2.1,3.6,4.5,4.7,7.1c1.2,2.7,1.8,5.7,1.7,8.7c0,2.6-0.4,5.2-1.4,7.6c-1.2,2.6-2.7,5.1-4.6,7.3l-23.5,29h29.4
	v13h-44.2v-13.1L368.7,140.2z"/>
<path class="st1" d="M399.9,132.2c0-3,0.6-5.9,1.8-8.7c2.2-5.3,6.4-9.5,11.7-11.8c5.5-2.3,11.7-2.3,17.3,0c2.6,1.1,5,2.7,7,4.7
	c2,2,3.6,4.4,4.7,7.1c1.2,2.7,1.8,5.7,1.8,8.7v35.6c0,3-0.6,5.9-1.8,8.7c-1.1,2.6-2.7,5-4.7,7c-2,2-4.4,3.6-7,4.7
	c-5.5,2.3-11.7,2.3-17.3,0c-5.3-2.3-9.5-6.5-11.7-11.8c-1.2-2.7-1.8-5.7-1.8-8.7V132.2z M412.9,168c0,5,4,9,9,9s9-4,9-9v-35.9
	c0-5-4-9-9-9s-9,4-9,9L412.9,168z"/>
<path class="st1" d="M485.9,140.2c1.1-1.3,2-2.7,2.7-4.2c0.5-1.2,0.8-2.5,0.8-3.8c0.1-2.4-0.9-4.8-2.6-6.5c-3.5-3.5-9.3-3.5-12.8,0
	c-1.7,1.7-2.6,4-2.7,6.4h-13.1c0-2.9,0.6-5.8,1.8-8.5c1.1-2.6,2.7-5,4.7-7c2-2,4.4-3.7,7-4.8c5.5-2.3,11.7-2.3,17.3,0
	c2.6,1.1,5,2.8,7,4.8c2,2.1,3.6,4.5,4.7,7.1c1.2,2.7,1.8,5.7,1.8,8.7c0,2.6-0.4,5.2-1.4,7.6c-1.2,2.6-2.7,5.1-4.6,7.3l-23.5,29h29.4
	v13h-44.2v-13.1L485.9,140.2z"/>
<path class="st1" d="M542.9,140.2c1.1-1.3,2-2.7,2.7-4.2c0.5-1.2,0.8-2.5,0.8-3.8c0.1-2.4-0.9-4.8-2.6-6.5c-3.5-3.5-9.3-3.5-12.8,0
	c-1.7,1.7-2.6,4-2.7,6.4h-13.1c0-2.9,0.6-5.8,1.8-8.5c1.1-2.6,2.7-5,4.7-7c2-2,4.4-3.7,7-4.8c5.5-2.3,11.7-2.3,17.3,0
	c2.6,1.1,5,2.8,7,4.8c2,2.1,3.6,4.5,4.7,7.1c1.2,2.7,1.8,5.7,1.8,8.7c0,2.6-0.4,5.2-1.4,7.6c-1.2,2.6-2.7,5.1-4.6,7.3l-23.5,29h29.4
	v13h-44.2v-13.1L542.9,140.2z"/>
</svg>
