<?xml version="1.0" encoding="utf-8"?>
<!-- Generator: Adobe Illustrator 25.1.0, SVG Export Plug-In . SVG Version: 6.00 Build 0)  -->
<svg version="1.1" id="グループ_1" xmlns="http://www.w3.org/2000/svg" xmlns:xlink="http://www.w3.org/1999/xlink" x="0px"
	 y="0px" viewBox="0 0 372.7 78.2" style="enable-background:new 0 0 372.7 78.2;" xml:space="preserve">
<style type="text/css">
	.st0{fill:#FFFFFF;}
</style>
<g>
	<path d="M7.7,19.9c1.7,0,3.2-1.4,3.2-3.2v-16h4.7v16c0,4.3-3.5,7.9-7.9,7.9s-7.9-3.6-7.9-7.9h4.7C4.6,18.3,6,19.9,7.7,19.9z"/>
	<path d="M27.2,23.4c-0.6,0.6-1.5,1-2.3,1H24c-2.8,0-5.1-2.3-5.1-5.1s2.3-5.1,5.1-5.1h3.3c0-1.4-0.7-2.3-2.1-2.3
		c-0.8,0-1.5,0.4-1.9,1.3l-3.9-1.6c1.1-2.3,3.3-3.9,5.8-3.9c3.6,0,6.3,2.8,6.3,6.5v10.3h-4.2L27.2,23.4L27.2,23.4z M22.8,19.2
		c0,0.6,0.5,1.2,1.2,1.2h1.2c1.3,0,2.1-0.8,2.1-2.2V18H24C23.3,18,22.8,18.4,22.8,19.2z"/>
	<path d="M40.6,11.8c-1.2,0-2.1,0.9-2.1,2.1v4.3c0,1.2,0.9,2.1,2.1,2.1c1.2,0,2-0.9,2.1-2.1h4.2c-0.1,3.6-2.8,6.3-6.3,6.3
		s-6.3-2.8-6.3-6.3v-4.3c0-3.5,2.8-6.3,6.3-6.3s6.2,2.7,6.3,6.3h-4.2C42.6,12.7,41.8,11.8,40.6,11.8z"/>
	<path d="M61.8,7.8v23.7h-4.2v-8.1c-0.7,0.6-1.7,1-2.8,1c-3.2,0-5.6-2.7-5.6-6.3v-3.9c0-3.6,2.4-6.3,5.6-6.3c1.1,0,2,0.3,2.8,1v-1
		L61.8,7.8L61.8,7.8z M55.5,12c-1.2,0-2.1,0.9-2.1,2.1V18c0,1.2,0.9,2.1,2.1,2.1c1.1,0,2.1-1,2.1-2.1v-4C57.6,13,56.6,12,55.5,12z"
		/>
	<path d="M69.4,18c0,1.2,1.1,2.1,2.1,2.1c1.1,0,2.1-1,2.1-2.1V7.8h4.2v16.6h-4.2v-1c-0.8,0.6-1.7,1-2.9,1c-3.7,0-5.5-3.5-5.5-6.3
		V7.8h4.2C69.4,7.8,69.4,18,69.4,18z"/>
	<path d="M84.8,18.2c0,1.2,1,2.2,2.2,2.2c0.6,0,1.2-0.2,1.6-0.7l2.8,2.9c-1.2,1.2-2.8,1.9-4.5,1.9c-3.5,0-6.3-2.9-6.3-6.3v-4.3
		c0-3.5,2.8-6.3,6.3-6.3s6.3,2.8,6.3,6.3v3.8h-8.5L84.8,18.2L84.8,18.2z M87,11.7c-1.3,0-2.2,1-2.2,2.4h4.5
		C89.2,12.7,88.3,11.7,87,11.7z"/>
	<path d="M100.3,20.4c0.5,0,1-0.3,1-0.9c0-0.3-0.2-0.5-0.6-0.8L98.1,17c-1.4-0.9-2.6-2.3-2.6-4.4c0-2.8,2.3-5,5.3-5
		c2.3,0,4.1,1.3,5.1,3.6l-3.8,1.5c-0.3-0.6-0.8-1-1.4-1c-0.5,0-1,0.4-1,0.9c0,0.3,0.2,0.5,0.6,0.8l2.6,1.7c1.7,1.1,2.6,2.4,2.6,4.4
		c0,2.8-2.3,5-5.3,5c-2.2,0-4.1-1.3-5.1-3.6l3.8-1.5C99.3,20,99.8,20.4,100.3,20.4z"/>
	<path d="M124.3,24.4h-4.7l7.9-23.7h4.7l7.9,23.7h-4.7l-1.6-4.7h-7.9L124.3,24.4z M127.5,14.9h4.7l-2.3-7.8L127.5,14.9z"/>
	<path d="M148.2,0.7v7.1h3.8V12h-3.8v5.7c0,1.5,0.9,2.4,2.2,2.4h1.6v4.2h-1.6c-4,0-6.5-3.2-6.5-6.3v-6h-1.8V7.8h1.8V0.7H148.2z"/>
	<path d="M160.5,0.7v7.1h3.8V12h-3.8v5.7c0,1.5,0.9,2.4,2.2,2.4h1.6v4.2h-1.6c-4,0-6.5-3.2-6.5-6.3v-6h-1.8V7.8h1.8V0.7H160.5z"/>
	<path d="M175.1,23.4c-0.6,0.6-1.5,1-2.3,1h-0.9c-2.8,0-5.1-2.3-5.1-5.1s2.3-5.1,5.1-5.1h3.3c0-1.4-0.7-2.3-2.1-2.3
		c-0.8,0-1.5,0.4-1.9,1.3l-3.9-1.6c1.1-2.3,3.3-3.9,5.8-3.9c3.6,0,6.3,2.8,6.3,6.5v10.3h-4.2v-1.1H175.1z M170.7,19.2
		c0,0.6,0.5,1.2,1.2,1.2h1.2c1.3,0,2.1-0.8,2.1-2.2V18h-3.3C171.2,18,170.7,18.4,170.7,19.2z"/>
	<path d="M187,17.9c0,1.3,1.2,2.2,2.2,2.2v4.2c-3.6,0-6.5-3-6.5-6.5V0.7h4.2v17.2C186.9,17.9,187,17.9,187,17.9z"/>
	<path d="M191.3,0.7h4.2v4.2h-4.2V0.7z M191.3,7.8h4.2v16.6h-4.2V7.8z"/>
</g>
<g>
	<path d="M198.1,51.8h-4.2v2.1h2.8v1.4h-2.8v3.5h-1.4v-8.3h5.6L198.1,51.8L198.1,51.8z"/>
	<path d="M201.5,54c-0.4,0-0.8,0.2-1,0.7l-1.1-0.5c0.4-0.9,1.2-1.4,2.1-1.4c1.3,0,2.3,1,2.3,2.3v3.7h-1.2v-0.4
		c-0.3,0.3-0.6,0.4-1.1,0.4H201c-1,0-1.7-0.8-1.7-1.7c0-1,0.8-1.7,1.7-1.7h1.6v-0.2C202.5,54.5,202,54,201.5,54z M200.4,57
		c0,0.3,0.2,0.5,0.5,0.5h0.5c0.6,0,1.1-0.4,1.1-1v-0.1h-1.6C200.6,56.5,200.4,56.7,200.4,57z"/>
	<path d="M207.5,57.6c0.3,0,0.6-0.2,0.6-0.5s-0.1-0.4-0.3-0.5l-1-0.5c-0.6-0.3-0.9-0.9-0.9-1.5c0-1,0.8-1.7,1.8-1.7
		c0.8,0,1.6,0.5,1.9,1.2l-1.1,0.5c-0.2-0.3-0.4-0.5-0.8-0.5c-0.3,0-0.6,0.2-0.6,0.5c0,0.2,0.1,0.4,0.4,0.5l1,0.5
		c0.5,0.3,0.9,0.7,0.9,1.5c0,1-0.8,1.7-1.8,1.7c-0.8,0-1.5-0.5-1.9-1.2l1.1-0.5C206.9,57.4,207.2,57.6,207.5,57.6z"/>
	<path d="M213.1,50.4v2.4h1.2V54h-1.2v3c0,0.3,0.2,0.5,0.5,0.5h0.3v1.2h-0.3c-1,0-1.7-0.8-1.7-1.7v-3h-0.7v-1.2h0.7v-2.4
		C211.9,50.4,213.1,50.4,213.1,50.4z"/>
	<path d="M227.3,53.2c0,1.1-0.6,2-1.5,2.5l1.5,3.1h-1.4l-1.4-2.8h-1.4v2.8h-1.4v-8.3h2.8C226,50.4,227.3,51.6,227.3,53.2z
		 M225.9,53.2c0-0.8-0.6-1.4-1.4-1.4h-1.4v2.8h1.4C225.3,54.6,225.9,54,225.9,53.2z"/>
	<path d="M231.3,57.6c0.3,0,0.6-0.1,0.8-0.3l0.9,0.9c-0.4,0.5-1,0.7-1.6,0.7c-1.2,0-2.3-1-2.3-2.3v-1.5c0-1.2,1-2.3,2.3-2.3
		c1.2,0,2.3,1,2.3,2.3v1.2h-3.3v0.3C230.3,57.1,230.7,57.6,231.3,57.6z M231.3,54c-0.6,0-1,0.5-1,1.1h2.1
		C232.3,54.4,231.9,54,231.3,54z"/>
	<path d="M237.3,50.4v2.4h1.2V54h-1.2v3c0,0.3,0.2,0.5,0.5,0.5h0.3v1.2h-0.3c-1,0-1.7-0.8-1.7-1.7v-3h-0.7v-1.2h0.7v-2.4
		C236.1,50.4,237.3,50.4,237.3,50.4z"/>
	<path d="M242.6,54c-0.4,0-0.8,0.2-1,0.7l-1.1-0.5c0.4-0.9,1.2-1.4,2.1-1.4c1.3,0,2.3,1,2.3,2.3v3.7h-1.2v-0.4
		c-0.3,0.3-0.6,0.4-1.1,0.4h-0.5c-1,0-1.7-0.8-1.7-1.7c0-1,0.8-1.7,1.7-1.7h1.6v-0.2C243.7,54.5,243.2,54,242.6,54z M241.6,57
		c0,0.3,0.2,0.5,0.5,0.5h0.5c0.6,0,1.1-0.4,1.1-1v-0.1h-1.6C241.8,56.5,241.6,56.7,241.6,57z"/>
	<path d="M248.3,51.6h-1.2v-1.2h1.2V51.6z M248.3,58.8h-1.2v-5.9h1.2V58.8z"/>
	<path d="M252.3,57.5h0.3v1.2h-0.3c-1,0-1.7-0.8-1.7-1.7v-6.6h1.2V57C251.8,57.3,252,57.5,252.3,57.5z"/>
	<path d="M255.8,51.6h-1.2v-1.2h1.2V51.6z M255.8,58.8h-1.2v-5.9h1.2V58.8z"/>
	<path d="M259.3,53.2c0.3-0.3,0.7-0.4,1.2-0.4c1,0,2.1,0.7,2.1,2.3v3.6h-1.2v-3.6c0-0.6-0.5-1.1-1-1.1c-0.6,0-1,0.5-1,1.1v3.6h-1.2
		v-5.9h1.2v0.4C259.4,53.2,259.3,53.2,259.3,53.2z"/>
	<path d="M266.8,58.8c-1.2,0-2.1-1-2.1-2.3v-1.4c0-1.3,1-2.3,2.2-2.3c0.4,0,0.8,0.1,1.1,0.4v-0.4h1.2v6.1c0,1.2-1,2.3-2.3,2.3
		c-0.6,0-1.1-0.2-1.6-0.7l0.8-0.9c0.2,0.2,0.5,0.3,0.8,0.3c0.6,0,1-0.5,1-1v-0.6C267.6,58.7,267.2,58.8,266.8,58.8z M266.9,54.1
		c-0.6,0-1,0.5-1,1v1.4c0,0.6,0.5,1,1,1c0.6,0,1-0.5,1-1v-1.4C267.9,54.5,267.5,54.1,266.9,54.1z"/>
	<path d="M279.2,51.7c-0.8,0-1.4,0.6-1.4,1.4v3c0,0.8,0.6,1.4,1.4,1.4s1.4-0.6,1.4-1.4h1.4c0,0.2,0,0.5-0.1,0.7
		c-0.3,1.2-1.4,2.1-2.7,2.1c-1.5,0-2.8-1.3-2.8-2.8v-3c0-1.5,1.3-2.8,2.8-2.8c1.3,0,2.4,0.8,2.7,2.1c0.1,0.3,0.1,0.5,0.1,0.7h-1.4
		C280.6,52.3,280,51.7,279.2,51.7z"/>
	<path d="M286.2,52.8c1.3,0,2.3,1,2.3,2.3v1.5c0,1.2-1,2.3-2.3,2.3c-1.2,0-2.3-1-2.3-2.3v-1.5C284,53.8,285,52.8,286.2,52.8z
		 M286.2,54c-0.6,0-1,0.5-1,1.1v1.5c0,0.6,0.5,1.1,1,1.1c0.6,0,1-0.5,1-1.1v-1.5C287.3,54.5,286.8,54,286.2,54z"/>
	<path d="M291.9,58.8h-1.4v-1.4h1.4V58.8z"/>
	<path d="M295.5,58.8l-1.4,1.4v-2.8h1.4V58.8z"/>
	<path d="M193.9,74.4h4.2v1.4h-5.6v-8.3h1.4L193.9,74.4L193.9,74.4z"/>
	<path d="M201.6,67.4v2.4h1.2V71h-1.2v3c0,0.3,0.2,0.5,0.5,0.5h0.3v1.2h-0.3c-1,0-1.7-0.8-1.7-1.7v-3h-0.7v-1.2h0.7v-2.4H201.6z"/>
	<path d="M207.9,75.8v-0.4c-0.4,0.3-0.7,0.4-1.2,0.4c-1.2,0-2.1-1-2.1-2.3v-1.4c0-1.3,1-2.3,2.2-2.3c0.4,0,0.8,0.1,1.1,0.4v-2.8h1.2
		v8.3h-1.2V75.8z M206.9,71.1c-0.6,0-1,0.5-1,1v1.4c0,0.6,0.5,1,1,1c0.6,0,1-0.5,1-1v-1.4C207.9,71.5,207.5,71.1,206.9,71.1z"/>
	<path d="M212.8,75.8h-1.4v-1.4h1.4V75.8z"/>
	<path d="M222.9,68.7c-0.8,0-1.4,0.6-1.4,1.4v3c0,0.8,0.6,1.4,1.4,1.4c0.8,0,1.4-0.6,1.4-1.4h1.4c0,0.2,0,0.5-0.1,0.7
		c-0.3,1.2-1.4,2.1-2.7,2.1c-1.5,0-2.8-1.3-2.8-2.8v-3c0-1.5,1.3-2.8,2.8-2.8c1.3,0,2.4,0.8,2.7,2.1c0.1,0.3,0.1,0.5,0.1,0.7h-1.4
		C224.3,69.3,223.7,68.7,222.9,68.7z"/>
	<path d="M229,70.2c0.3-0.3,0.7-0.4,1.2-0.4c1.2,0,2.1,1,2.1,2.3v3.7H231v-3.7c0-0.6-0.5-1-1-1c-0.6,0-1,0.5-1,1v3.7h-1.2v-8.3h1.2
		V70.2z"/>
	<path d="M236.5,71c-0.4,0-0.8,0.2-1,0.7l-1.1-0.5c0.4-0.9,1.2-1.4,2.1-1.4c1.3,0,2.3,1,2.3,2.3v3.7h-1.2v-0.4
		c-0.3,0.3-0.6,0.4-1.1,0.4H236c-1,0-1.7-0.8-1.7-1.7c0-1,0.8-1.7,1.7-1.7h1.6v-0.2C237.6,71.5,237.1,71,236.5,71z M235.5,74
		c0,0.3,0.2,0.5,0.5,0.5h0.5c0.6,0,1.1-0.4,1.1-1v-0.1H236C235.7,73.5,235.5,73.7,235.5,74z"/>
	<path d="M242.2,68.6H241v-1.2h1.2V68.6z M242.2,75.8H241v-5.9h1.2V75.8z"/>
	<path d="M246.8,69.9c0.6,0,1.1,0.2,1.5,0.7l-0.9,0.9c-0.2-0.2-0.4-0.3-0.7-0.3c-0.6,0-1,0.5-1,1v3.6h-1.2v-5.9h1.2v0.4
		C246,70,246.4,69.9,246.8,69.9z"/>
	<path d="M252.6,69.9c0.6,0,1.2,0.3,1.6,0.7c0.5-0.5,1-0.7,1.7-0.7c1.2,0,2.2,1,2.2,2.3v3.6h-1.2v-3.6c0-0.6-0.5-1.1-1-1.1
		c-0.6,0-1,0.5-1,1v3.7h-1.2v-3.6c0-0.6-0.5-1.1-1-1.1c-0.6,0-1,0.5-1,1.1v3.6h-1.2v-5.9h1.2v0.4C251.8,70,252.2,69.9,252.6,69.9z"
		/>
	<path d="M262.4,71c-0.4,0-0.8,0.2-1,0.7l-1.1-0.5c0.4-0.9,1.2-1.4,2.1-1.4c1.3,0,2.3,1,2.3,2.3v3.7h-1.2v-0.4
		c-0.3,0.3-0.6,0.4-1.1,0.4h-0.5c-1,0-1.7-0.8-1.7-1.7c0-1,0.8-1.7,1.7-1.7h1.6v-0.2C263.5,71.5,263,71,262.4,71z M261.4,74
		c0,0.3,0.2,0.5,0.5,0.5h0.5c0.6,0,1.1-0.4,1.1-1v-0.1h-1.6C261.6,73.5,261.4,73.7,261.4,74z"/>
	<path d="M268.1,70.2c0.3-0.3,0.7-0.4,1.2-0.4c1,0,2.1,0.7,2.1,2.3v3.6h-1.2v-3.6c0-0.6-0.5-1.1-1-1.1c-0.6,0-1,0.5-1,1.1v3.6H267
		v-5.9h1.2v0.4H268.1z"/>
	<path d="M281,71c-0.4,0-0.8,0.2-1,0.7l-1.1-0.5c0.4-0.9,1.2-1.4,2.1-1.4c1.3,0,2.3,1,2.3,2.3v3.7H282v-0.4
		c-0.3,0.3-0.6,0.4-1.1,0.4h-0.5c-1,0-1.7-0.8-1.7-1.7c0-1,0.8-1.7,1.7-1.7h1.6v-0.2C282,71.5,281.5,71,281,71z M279.9,74
		c0,0.3,0.2,0.5,0.5,0.5h0.5c0.6,0,1.1-0.4,1.1-1v-0.1h-1.6C280.1,73.5,279.9,73.7,279.9,74z"/>
	<path d="M286.6,70.2c0.3-0.3,0.7-0.4,1.2-0.4c1,0,2.1,0.7,2.1,2.3v3.6h-1.2v-3.6c0-0.6-0.5-1.1-1-1.1c-0.6,0-1,0.5-1,1.1v3.6h-1.2
		v-5.9h1.2v0.4H286.6z"/>
	<path d="M295.3,75.8v-0.4c-0.4,0.3-0.7,0.4-1.2,0.4c-1.2,0-2.1-1-2.1-2.3v-1.4c0-1.3,1-2.3,2.2-2.3c0.4,0,0.8,0.1,1.1,0.4v-2.8h1.2
		v8.3h-1.2V75.8z M294.2,71.1c-0.6,0-1,0.5-1,1v1.4c0,0.6,0.5,1,1,1c0.6,0,1-0.5,1-1v-1.4C295.3,71.5,294.8,71.1,294.2,71.1z"/>
	<path d="M309.6,70.2c0,1.5-1.2,2.8-2.8,2.8h-1.4v2.8H304v-8.3h2.8C308.4,67.4,309.6,68.7,309.6,70.2z M308.2,70.2
		c0-0.8-0.6-1.4-1.4-1.4h-1.4v2.8h1.4C307.6,71.6,308.2,71,308.2,70.2z"/>
	<path d="M313.9,69.9c0.6,0,1.1,0.2,1.5,0.7l-0.9,0.9c-0.2-0.2-0.4-0.3-0.7-0.3c-0.6,0-1,0.5-1,1v3.6h-1.2v-5.9h1.2v0.4
		C313.1,70,313.5,69.9,313.9,69.9z"/>
	<path d="M319.4,74.6c0.3,0,0.6-0.1,0.8-0.3l0.9,0.9c-0.4,0.5-1,0.7-1.6,0.7c-1.2,0-2.3-1-2.3-2.3v-1.5c0-1.2,1-2.3,2.3-2.3
		c1.2,0,2.3,1,2.3,2.3v1.2h-3.3v0.3C318.3,74.1,318.8,74.6,319.4,74.6z M319.4,71c-0.6,0-1,0.5-1,1.1h2.1
		C320.4,71.4,319.9,71,319.4,71z"/>
	<path d="M325.2,74.6c0.3,0,0.6-0.2,0.6-0.5s-0.1-0.4-0.3-0.5l-1-0.5c-0.6-0.3-0.9-0.9-0.9-1.5c0-1,0.8-1.7,1.8-1.7
		c0.8,0,1.6,0.5,1.9,1.2l-1.1,0.5c-0.2-0.3-0.4-0.5-0.8-0.5c-0.3,0-0.6,0.2-0.6,0.5c0,0.2,0.1,0.4,0.4,0.5l1,0.5
		c0.5,0.3,0.9,0.7,0.9,1.5c0,1-0.8,1.7-1.8,1.7c-0.8,0-1.5-0.5-1.9-1.2l1.1-0.5C324.6,74.4,324.9,74.6,325.2,74.6z"/>
	<path d="M330.3,68.6h-1.2v-1.2h1.2V68.6z M330.3,75.8h-1.2v-5.9h1.2V75.8z"/>
	<path d="M335.7,75.8v-0.4c-0.4,0.3-0.7,0.4-1.2,0.4c-1.2,0-2.1-1-2.1-2.3v-1.4c0-1.3,1-2.3,2.2-2.3c0.4,0,0.8,0.1,1.1,0.4v-2.8h1.2
		v8.3h-1.2V75.8z M334.7,71.1c-0.6,0-1,0.5-1,1v1.4c0,0.6,0.5,1,1,1c0.6,0,1-0.5,1-1v-1.4C335.7,71.5,335.2,71.1,334.7,71.1z"/>
	<path d="M341.3,74.6c0.3,0,0.6-0.1,0.8-0.3l0.9,0.9c-0.4,0.5-1,0.7-1.6,0.7c-1.2,0-2.3-1-2.3-2.3v-1.5c0-1.2,1-2.3,2.3-2.3
		c1.2,0,2.3,1,2.3,2.3v1.2h-3.3v0.3C340.2,74.1,340.7,74.6,341.3,74.6z M341.3,71c-0.6,0-1,0.5-1,1.1h2.1
		C342.3,71.4,341.8,71,341.3,71z"/>
	<path d="M346.8,70.2c0.3-0.3,0.7-0.4,1.2-0.4c1,0,2.1,0.7,2.1,2.3v3.6h-1.2v-3.6c0-0.6-0.5-1.1-1-1.1c-0.6,0-1,0.5-1,1.1v3.6h-1.2
		v-5.9h1.2v0.4H346.8z"/>
	<path d="M353.9,67.4v2.4h1.2V71h-1.2v3c0,0.3,0.2,0.5,0.5,0.5h0.3v1.2h-0.3c-1,0-1.7-0.8-1.7-1.7v-3H352v-1.2h0.7v-2.4H353.9z"/>
</g>
<g>
	<path d="M219.5,2.7c0,1.5-1.2,2.8-2.8,2.8h-1.4v2.8H214V0h2.8C218.3-0.1,219.5,1.2,219.5,2.7z M218.2,2.7c0-0.8-0.6-1.4-1.4-1.4
		h-1.4v2.8h1.4C217.5,4.1,218.2,3.5,218.2,2.7z"/>
	<path d="M222.8,2.8c0.3-0.3,0.7-0.4,1.2-0.4c1.2,0,2.1,1,2.1,2.3v3.6h-1.2V4.6c0-0.6-0.5-1-1-1c-0.6,0-1,0.5-1,1v3.7h-1.2V0h1.2
		v2.8H222.8z"/>
	<path d="M229.5,1.2h-1.2V0h1.2V1.2z M229.5,8.3h-1.2V2.4h1.2V8.3z"/>
	<path d="M233.6,7.1h0.3v1.2h-0.3c-1,0-1.7-0.8-1.7-1.7V0h1.2v6.6C233,6.8,233.3,7.1,233.6,7.1z"/>
	<path d="M237.9,2.3c1.3,0,2.3,1,2.3,2.3v1.5c0,1.2-1,2.3-2.3,2.3c-1.2,0-2.3-1-2.3-2.3V4.6C235.6,3.3,236.7,2.3,237.9,2.3z
		 M237.9,3.5c-0.6,0-1,0.5-1,1.1v1.5c0,0.6,0.5,1.1,1,1.1c0.6,0,1-0.5,1-1.1V4.6C238.9,4,238.5,3.5,237.9,3.5z"/>
	<path d="M243.8,7.1c0.3,0,0.6-0.2,0.6-0.5s-0.1-0.4-0.3-0.5l-1-0.5c-0.6-0.3-0.9-0.9-0.9-1.5c0-1,0.8-1.7,1.8-1.7
		c0.8,0,1.6,0.5,1.9,1.2l-1.1,0.5c-0.2-0.3-0.4-0.5-0.8-0.5c-0.3,0-0.6,0.2-0.6,0.5c0,0.2,0.1,0.4,0.4,0.5l1,0.5
		c0.5,0.3,0.9,0.7,0.9,1.5c0,1-0.8,1.7-1.8,1.7c-0.8,0-1.5-0.5-1.9-1.2l1.1-0.5C243.2,6.9,243.5,7.1,243.8,7.1z"/>
	<path d="M249.7,2.3c1.3,0,2.3,1,2.3,2.3v1.5c0,1.2-1,2.3-2.3,2.3c-1.2,0-2.3-1-2.3-2.3V4.6C247.5,3.3,248.5,2.3,249.7,2.3z
		 M249.7,3.5c-0.6,0-1,0.5-1,1.1v1.5c0,0.6,0.5,1.1,1,1.1c0.6,0,1-0.5,1-1.1V4.6C250.8,4,250.3,3.5,249.7,3.5z"/>
	<path d="M254,10.7V2.4h1.2v0.4c0.3-0.3,0.7-0.4,1.1-0.4c1.2,0,2.2,1,2.2,2.3v1.4c0,1.3-0.9,2.3-2.1,2.3c-0.5,0-0.8-0.1-1.2-0.4v2.8
		L254,10.7L254,10.7z M256.3,3.6c-0.6,0-1,0.5-1,1.1v1.4c0,0.6,0.5,1,1,1c0.6,0,1-0.5,1-1V4.7C257.3,4,256.9,3.6,256.3,3.6z"/>
	<path d="M261.9,2.8c0.3-0.3,0.7-0.4,1.2-0.4c1.2,0,2.1,1,2.1,2.3v3.6H264V4.6c0-0.6-0.5-1-1-1c-0.6,0-1,0.5-1,1v3.7h-1.2V0h1.2v2.8
		H261.9z"/>
	<path d="M269.5,7.1c0.3,0,0.6-0.1,0.8-0.3l0.9,0.9c-0.4,0.5-1,0.7-1.6,0.7c-1.2,0-2.3-1-2.3-2.3V4.6c0-1.2,1-2.3,2.3-2.3
		c1.2,0,2.3,1,2.3,2.3v1.2h-3.3v0.3C268.4,6.6,268.9,7.1,269.5,7.1z M269.5,3.5c-0.6,0-1,0.5-1,1.1h2.1C270.5,4,270.1,3.5,269.5,3.5
		z"/>
	<path d="M276.1,2.4c0.6,0,1.1,0.2,1.5,0.7L276.7,4c-0.2-0.2-0.4-0.3-0.7-0.3c-0.6,0-1,0.5-1,1v3.6h-1.2V2.4h1.2v0.4
		C275.3,2.5,275.7,2.4,276.1,2.4z"/>
	<path d="M285.9,8.3h-1.4l2.1-8.3h1.4L285.9,8.3z"/>
	<path d="M215.4,20.4h2.8v1.4h-2.8v2.1h4.2v1.4H214V17h5.6v1.3h-4.2L215.4,20.4L215.4,20.4z"/>
	<path d="M223.7,25.3c-1.2,0-2.3-1-2.3-2.3v-1.4c0-1.3,1-2.3,2.3-2.3s2.3,1,2.3,2.3h-1.2c0-0.6-0.5-1.1-1-1.1c-0.6,0-1,0.5-1,1.1V23
		c0,0.7,0.5,1.1,1,1.1c0.6,0,1-0.5,1-1h1.2C226,24.3,225,25.3,223.7,25.3z"/>
	<path d="M230.2,19.3c1.3,0,2.3,1,2.3,2.3v1.5c0,1.2-1,2.3-2.3,2.3c-1.2,0-2.3-1-2.3-2.3v-1.5C227.9,20.3,228.9,19.3,230.2,19.3z
		 M230.2,20.5c-0.6,0-1,0.5-1,1.1v1.5c0,0.6,0.5,1.1,1,1.1c0.6,0,1-0.5,1-1.1v-1.5C231.2,21,230.8,20.5,230.2,20.5z"/>
	<path d="M235.7,19.8c0.3-0.3,0.7-0.4,1.2-0.4c1,0,2.1,0.7,2.1,2.3v3.6h-1.2v-3.6c0-0.6-0.5-1.1-1-1.1c-0.6,0-1,0.5-1,1.1v3.6h-1.2
		v-5.9h1.2v0.4H235.7z"/>
	<path d="M243.4,19.3c1.3,0,2.3,1,2.3,2.3v1.5c0,1.2-1,2.3-2.3,2.3c-1.2,0-2.3-1-2.3-2.3v-1.5C241.1,20.3,242.1,19.3,243.4,19.3z
		 M243.4,20.5c-0.6,0-1,0.5-1,1.1v1.5c0,0.6,0.5,1.1,1,1.1c0.6,0,1-0.5,1-1.1v-1.5C244.4,21,243.9,20.5,243.4,20.5z"/>
	<path d="M250.1,19.4c0.6,0,1.2,0.3,1.6,0.7c0.5-0.5,1-0.7,1.7-0.7c1.2,0,2.2,1,2.2,2.3v3.6h-1.2v-3.6c0-0.6-0.5-1.1-1-1.1
		c-0.6,0-1,0.5-1,1v3.7H251v-3.6c0-0.6-0.5-1.1-1-1.1c-0.6,0-1,0.5-1,1.1v3.6h-1.2v-5.9h1.2v0.4C249.3,19.5,249.7,19.4,250.1,19.4z"
		/>
	<path d="M259,18.2h-1.2V17h1.2V18.2z M259,25.3h-1.2v-5.9h1.2V25.3z"/>
	<path d="M262.8,24.1c0.3,0,0.6-0.2,0.6-0.5s-0.1-0.4-0.3-0.5l-1-0.5c-0.6-0.3-0.9-0.9-0.9-1.5c0-1,0.8-1.7,1.8-1.7
		c0.8,0,1.6,0.5,1.9,1.2l-1.1,0.5c-0.2-0.3-0.4-0.5-0.8-0.5c-0.3,0-0.6,0.2-0.6,0.5c0,0.2,0.1,0.4,0.4,0.5l1,0.5
		c0.5,0.3,0.9,0.7,0.9,1.5c0,1-0.8,1.7-1.8,1.7c-0.8,0-1.5-0.5-1.9-1.2l1.1-0.5C262.3,23.9,262.5,24.1,262.8,24.1z"/>
	<path d="M268.5,16.9v2.4h1.2v1.2h-1.2v3c0,0.3,0.2,0.5,0.5,0.5h0.3v1.3H269c-1,0-1.7-0.8-1.7-1.7v-3h-0.7v-1.2h0.7V17h1.2V16.9z"/>
	<path d="M278.1,25.3h-1.4l2.1-8.3h1.4L278.1,25.3z"/>
	<path d="M293,18.3h-4.2v2.1h2.8v1.4h-2.8v3.5h-1.4V17h5.6V18.3z"/>
	<path d="M297.6,24.9c-0.3,0.3-0.7,0.4-1.2,0.4c-1.2,0-2.2-1-2.2-2.3v-3.7h1.2V23c0,0.6,0.5,1,1,1c0.6,0,1-0.5,1-1v-3.7h1.2v6h-1.2
		v-0.4H297.6z"/>
	<path d="M302.7,16.9v2.4h1.2v1.2h-1.2v3c0,0.3,0.2,0.5,0.5,0.5h0.3v1.3h-0.3c-1,0-1.7-0.8-1.7-1.7v-3h-0.7v-1.2h0.7V17h1.2V16.9z"
		/>
	<path d="M309.2,24.9c-0.3,0.3-0.7,0.4-1.2,0.4c-1.2,0-2.2-1-2.2-2.3v-3.7h1.2V23c0,0.6,0.5,1,1,1c0.6,0,1-0.5,1-1v-3.7h1.2v6H309
		v-0.4H309.2z"/>
	<path d="M315,19.4c0.6,0,1.1,0.2,1.5,0.7l-0.9,0.9c-0.2-0.2-0.4-0.3-0.7-0.3c-0.6,0-1,0.5-1,1v3.6h-1.2v-5.9h1.2v0.4
		C314.2,19.5,314.6,19.4,315,19.4z"/>
	<path d="M320.5,19.3c1.3,0,2.3,1,2.3,2.3v1.5c0,1.2-1,2.3-2.3,2.3c-1.2,0-2.3-1-2.3-2.3v-1.5C318.2,20.3,319.2,19.3,320.5,19.3z
		 M320.5,20.5c-0.6,0-1,0.5-1,1.1v1.5c0,0.6,0.5,1.1,1,1.1c0.6,0,1-0.5,1-1.1v-1.5C321.5,21,321,20.5,320.5,20.5z"/>
	<path d="M326.5,24.1h0.3v1.2h-0.3c-1,0-1.7-0.8-1.7-1.7V17h1.2v6.6C326,23.8,326.3,24.1,326.5,24.1z"/>
	<path d="M330.9,19.3c1.3,0,2.3,1,2.3,2.3v1.5c0,1.2-1,2.3-2.3,2.3c-1.2,0-2.3-1-2.3-2.3v-1.5C328.6,20.3,329.7,19.3,330.9,19.3z
		 M330.9,20.5c-0.6,0-1,0.5-1,1.1v1.5c0,0.6,0.5,1.1,1,1.1c0.6,0,1-0.5,1-1.1v-1.5C331.9,21,331.5,20.5,330.9,20.5z"/>
	<path d="M337.2,25.3c-1.2,0-2.1-1-2.1-2.3v-1.4c0-1.3,1-2.3,2.2-2.3c0.4,0,0.8,0.1,1.1,0.4v-0.4h1.2v6.1c0,1.2-1,2.3-2.3,2.3
		c-0.6,0-1.1-0.2-1.6-0.7l0.8-0.9c0.2,0.2,0.5,0.3,0.8,0.3c0.6,0,1-0.5,1-1v-0.6C338,25.2,337.7,25.3,337.2,25.3z M337.3,20.6
		c-0.6,0-1,0.5-1,1V23c0,0.6,0.5,1,1,1c0.6,0,1-0.5,1-1v-1.4C338.4,21.1,337.9,20.6,337.3,20.6z"/>
	<path d="M343.1,18.2h-1.2V17h1.2V18.2z M343.1,25.3h-1.2v-5.9h1.2V25.3z"/>
	<path d="M346.8,24.1c0.3,0,0.6-0.2,0.6-0.5s-0.1-0.4-0.3-0.5l-1-0.5c-0.6-0.3-0.9-0.9-0.9-1.5c0-1,0.8-1.7,1.8-1.7
		c0.8,0,1.6,0.5,1.9,1.2l-1.1,0.5c-0.2-0.3-0.4-0.5-0.8-0.5c-0.3,0-0.6,0.2-0.6,0.5c0,0.2,0.1,0.4,0.4,0.5l1,0.5
		c0.5,0.3,0.9,0.7,0.9,1.5c0,1-0.8,1.7-1.8,1.7c-0.8,0-1.5-0.5-1.9-1.2l1.1-0.5C346.3,23.9,346.5,24.1,346.8,24.1z"/>
	<path d="M352.5,16.9v2.4h1.2v1.2h-1.2v3c0,0.3,0.2,0.5,0.5,0.5h0.3v1.3H353c-1,0-1.7-0.8-1.7-1.7v-3h-0.7v-1.2h0.7V17h1.2V16.9z"/>
</g>
<g>
	<path d="M6,75.5v-19H0.5v-4.7h15.8v4.7h-5.5v18.9L6,75.5L6,75.5z"/>
	<path d="M26.6,74.5c-0.6,0.6-1.5,1-2.3,1h-0.9c-2.8,0-5.1-2.3-5.1-5.1s2.3-5.1,5.1-5.1h3.3c0-1.4-0.7-2.3-2.1-2.3
		c-0.8,0-1.5,0.4-1.9,1.3l-3.9-1.6c1.1-2.3,3.3-3.9,5.8-3.9c3.6,0,6.3,2.8,6.3,6.5v10.3h-4.2v-1.1C26.7,74.5,26.6,74.5,26.6,74.5z
		 M22.1,70.3c0,0.6,0.5,1.2,1.2,1.2h1.2c1.3,0,2.1-0.9,2.1-2.2v-0.2h-3.3C22.6,69.2,22.1,69.6,22.1,70.3z"/>
	<path d="M45.6,51.8v23.7h-4.2v-1c-0.7,0.6-1.7,1-2.8,1c-3.2,0-5.6-2.7-5.6-6.3v-3.9c0-3.6,2.4-6.3,5.6-6.3c1.1,0,2,0.3,2.8,1v-8.1
		L45.6,51.8L45.6,51.8z M39.3,63.1c-1.2,0-2.1,1-2.1,2.1v3.9c0,1.2,0.9,2.1,2.1,2.1c1.1,0,2.1-1,2.1-2.1v-4
		C41.3,64.1,40.4,63.1,39.3,63.1z"/>
	<path d="M56.1,74.5c-0.6,0.6-1.5,1-2.3,1h-0.9c-2.8,0-5.1-2.3-5.1-5.1s2.3-5.1,5.1-5.1h3.3c0-1.4-0.7-2.3-2.1-2.3
		c-0.8,0-1.5,0.4-1.9,1.3l-3.9-1.6c1.1-2.3,3.3-3.9,5.8-3.9c3.6,0,6.3,2.8,6.3,6.5v10.3h-4.2L56.1,74.5L56.1,74.5z M51.7,70.3
		c0,0.6,0.5,1.2,1.2,1.2h1.2c1.3,0,2.1-0.9,2.1-2.2v-0.2h-3.3C52.2,69.2,51.7,69.6,51.7,70.3z"/>
	<path d="M67.2,71.5c0.5,0,1-0.3,1-0.8c0-0.3-0.2-0.5-0.6-0.8L65,68.2c-1.4-0.9-2.6-2.3-2.6-4.4c0-2.8,2.3-5,5.3-5
		c2.3,0,4.1,1.3,5.1,3.6L69,63.9c-0.3-0.6-0.8-1-1.4-1c-0.5,0-1,0.4-1,0.9c0,0.3,0.2,0.5,0.6,0.9l2.6,1.7c1.7,1.1,2.6,2.4,2.6,4.4
		c0,2.8-2.3,5-5.3,5c-2.2,0-4.1-1.3-5.1-3.6l3.8-1.5C66.2,71.1,66.7,71.5,67.2,71.5z"/>
	<path d="M83.2,65.2c0-1.1-1-2.1-2.1-2.1c-1.2,0-2.1,1-2.1,2.1v10.3h-4.2V51.8H79v8.1c0.7-0.6,1.7-1,2.9-1c3.1,0,5.5,2.7,5.5,6.3
		v10.3h-4.2C83.2,75.5,83.2,65.2,83.2,65.2z"/>
	<path d="M90.2,51.8h4.2V56h-4.2V51.8z M90.2,58.9h4.2v16.6h-4.2V58.9z"/>
	<path d="M113,75.5V66l-5.5-14.2h4.7l3.2,8.7l3.2-8.7h4.7L117.8,66v9.5H113z"/>
	<path d="M133,74.5c-0.6,0.6-1.5,1-2.3,1h-0.9c-2.8,0-5.1-2.3-5.1-5.1s2.3-5.1,5.1-5.1h3.3c0-1.4-0.7-2.3-2.1-2.3
		c-0.8,0-1.5,0.4-1.9,1.3l-3.9-1.6c1.1-2.3,3.3-3.9,5.8-3.9c3.6,0,6.3,2.8,6.3,6.5v10.3H133V74.5z M128.5,70.3
		c0,0.6,0.5,1.2,1.2,1.2h1.2c1.3,0,2.1-0.9,2.1-2.2v-0.2h-3.3C129.1,69.2,128.5,69.6,128.5,70.3z"/>
	<path d="M148.3,65.2c0-1.3-1-2.1-2.1-2.1c-1.2,0-2.1,1-2.1,2.1v10.3h-4.2V58.9h4.2v1c0.8-0.6,1.7-1,2.9-1c3.1,0,5.5,2.5,5.5,6.3
		v10.2h-4.2L148.3,65.2L148.3,65.2z"/>
	<path d="M163.2,74.5c-0.6,0.6-1.5,1-2.3,1H160c-2.8,0-5.1-2.3-5.1-5.1s2.3-5.1,5.1-5.1h3.3c0-1.4-0.7-2.3-2.1-2.3
		c-0.8,0-1.5,0.4-1.9,1.3l-3.9-1.6c1.1-2.3,3.3-3.9,5.8-3.9c3.6,0,6.3,2.8,6.3,6.5v10.3h-4.2v-1.1C163.3,74.5,163.2,74.5,163.2,74.5
		z M158.7,70.3c0,0.6,0.5,1.2,1.2,1.2h1.2c1.3,0,2.1-0.9,2.1-2.2v-0.2h-3.3C159.3,69.2,158.7,69.6,158.7,70.3z"/>
	<path d="M170.1,51.8h4.2V56h-4.2V51.8z M170.1,58.9h4.2v16.6h-4.2V58.9z"/>
</g>
<rect x="186.4" y="43.2" class="st0" width="197" height="41.6"/>
<g>
	<path d="M195,51.8c-0.8,0-1.4,0.6-1.4,1.4v3c0,0.8,0.6,1.4,1.4,1.4c0.8,0,1.4-0.6,1.4-1.4h1.4c0,0.2,0,0.5-0.1,0.7
		c-0.3,1.2-1.4,2.1-2.7,2.1c-1.5,0-2.8-1.3-2.8-2.8v-3c0-1.5,1.3-2.8,2.8-2.8c1.3,0,2.4,0.8,2.7,2.1c0.1,0.3,0.1,0.5,0.1,0.7h-1.4
		C196.4,52.4,195.8,51.8,195,51.8z"/>
	<path d="M201.1,53.3c0.3-0.3,0.7-0.4,1.2-0.4c1.2,0,2.1,1,2.1,2.3v3.7h-1.2v-3.7c0-0.6-0.5-1-1-1c-0.6,0-1,0.5-1,1v3.7h-1.2v-8.3
		h1.2V53.3z"/>
	<path d="M208.7,54c-0.4,0-0.8,0.2-1,0.7l-1.1-0.5c0.4-0.9,1.2-1.4,2.1-1.4c1.3,0,2.3,1,2.3,2.3v3.7h-1.2v-0.4
		c-0.3,0.3-0.6,0.4-1.1,0.4h-0.5c-1,0-1.7-0.8-1.7-1.7c0-1,0.8-1.7,1.7-1.7h1.6v-0.2C209.8,54.5,209.3,54,208.7,54z M207.7,57.1
		c0,0.3,0.2,0.5,0.5,0.5h0.5c0.6,0,1.1-0.4,1.1-1v-0.1h-1.6C207.9,56.5,207.7,56.8,207.7,57.1z"/>
	<path d="M214.4,51.7h-1.2v-1.2h1.2V51.7z M214.4,58.8h-1.2v-5.9h1.2V58.8z"/>
	<path d="M219,52.9c0.6,0,1.1,0.2,1.5,0.7l-0.9,0.9c-0.2-0.2-0.4-0.3-0.7-0.3c-0.6,0-1,0.5-1,1v3.6h-1.2v-5.9h1.2v0.4
		C218.2,53,218.6,52.9,219,52.9z"/>
	<path d="M224.8,52.9c0.6,0,1.2,0.3,1.6,0.7c0.5-0.5,1-0.7,1.7-0.7c1.2,0,2.2,1,2.2,2.3v3.6H229v-3.6c0-0.6-0.5-1.1-1-1.1
		c-0.6,0-1,0.5-1,1v3.7h-1.2v-3.6c0-0.6-0.5-1.1-1-1.1c-0.6,0-1,0.5-1,1.1v3.6h-1.2v-5.9h1.2v0.4C224,53,224.4,52.9,224.8,52.9z"/>
	<path d="M234.6,54c-0.4,0-0.8,0.2-1,0.7l-1.1-0.5c0.4-0.9,1.2-1.4,2.1-1.4c1.3,0,2.3,1,2.3,2.3v3.7h-1.2v-0.4
		c-0.3,0.3-0.6,0.4-1.1,0.4h-0.5c-1,0-1.7-0.8-1.7-1.7c0-1,0.8-1.7,1.7-1.7h1.6v-0.2C235.7,54.5,235.2,54,234.6,54z M233.6,57.1
		c0,0.3,0.2,0.5,0.5,0.5h0.5c0.6,0,1.1-0.4,1.1-1v-0.1h-1.6C233.8,56.5,233.6,56.8,233.6,57.1z"/>
	<path d="M240.3,53.3c0.3-0.3,0.7-0.4,1.2-0.4c1,0,2.1,0.7,2.1,2.3v3.6h-1.2v-3.6c0-0.6-0.5-1.1-1-1.1c-0.6,0-1,0.5-1,1.1v3.6h-1.2
		v-5.9h1.2V53.3z"/>
	<path d="M247.2,58.8l-1.4,1.4v-2.8h1.4V58.8z"/>
	<path d="M260.3,53.2c0,1.5-1.2,2.8-2.8,2.8h-1.4v2.8h-1.4v-8.3h2.8C259.1,50.5,260.3,51.7,260.3,53.2z M258.9,53.2
		c0-0.8-0.6-1.4-1.4-1.4h-1.4v2.8h1.4C258.3,54.6,258.9,54,258.9,53.2z"/>
	<path d="M264.6,52.9c0.6,0,1.1,0.2,1.5,0.7l-0.9,0.9c-0.2-0.2-0.4-0.3-0.7-0.3c-0.6,0-1,0.5-1,1v3.6h-1.2v-5.9h1.2v0.4
		C263.8,53,264.2,52.9,264.6,52.9z"/>
	<path d="M270.2,57.6c0.3,0,0.6-0.1,0.8-0.3l0.9,0.9c-0.4,0.5-1,0.7-1.6,0.7c-1.2,0-2.3-1-2.3-2.3v-1.5c0-1.2,1-2.3,2.3-2.3
		c1.2,0,2.3,1,2.3,2.3v1.2h-3.3v0.3C269.1,57.2,269.6,57.6,270.2,57.6z M270.2,54c-0.6,0-1,0.5-1,1.1h2.1
		C271.2,54.5,270.7,54,270.2,54z"/>
	<path d="M276,57.7c0.3,0,0.6-0.2,0.6-0.5c0-0.3-0.1-0.4-0.3-0.5l-1-0.5c-0.6-0.3-0.9-0.9-0.9-1.5c0-1,0.8-1.7,1.8-1.7
		c0.8,0,1.6,0.5,1.9,1.2l-1.1,0.5c-0.2-0.3-0.4-0.5-0.8-0.5c-0.3,0-0.6,0.2-0.6,0.5c0,0.2,0.1,0.4,0.4,0.5l1,0.5
		c0.5,0.3,0.9,0.7,0.9,1.5c0,1-0.8,1.7-1.8,1.7c-0.8,0-1.5-0.5-1.9-1.2l1.1-0.5C275.4,57.5,275.7,57.7,276,57.7z"/>
	<path d="M281.1,51.7h-1.2v-1.2h1.2V51.7z M281.1,58.8h-1.2v-5.9h1.2V58.8z"/>
	<path d="M286.4,58.8v-0.4c-0.4,0.3-0.7,0.4-1.2,0.4c-1.2,0-2.1-1-2.1-2.3v-1.4c0-1.3,1-2.3,2.2-2.3c0.4,0,0.8,0.1,1.1,0.4v-2.8h1.2
		v8.3H286.4z M285.4,54.1c-0.6,0-1,0.5-1,1v1.4c0,0.6,0.5,1,1,1c0.6,0,1-0.5,1-1v-1.4C286.4,54.6,286,54.1,285.4,54.1z"/>
	<path d="M291.9,57.6c0.3,0,0.6-0.1,0.8-0.3l0.9,0.9c-0.4,0.5-1,0.7-1.6,0.7c-1.2,0-2.3-1-2.3-2.3v-1.5c0-1.2,1-2.3,2.3-2.3
		c1.2,0,2.3,1,2.3,2.3v1.2h-3.3v0.3C290.9,57.2,291.4,57.6,291.9,57.6z M292,54c-0.6,0-1,0.5-1,1.1h2.1C293,54.5,292.5,54,292,54z"
		/>
	<path d="M297.5,53.3c0.3-0.3,0.7-0.4,1.2-0.4c1,0,2.1,0.7,2.1,2.3v3.6h-1.2v-3.6c0-0.6-0.5-1.1-1-1.1c-0.6,0-1,0.5-1,1.1v3.6h-1.2
		v-5.9h1.2V53.3z"/>
	<path d="M304.8,50.5v2.4h1.2v1.2h-1.2v3c0,0.3,0.2,0.5,0.5,0.5h0.3v1.2h-0.3c-1,0-1.7-0.8-1.7-1.7v-3h-0.7v-1.2h0.7v-2.4H304.8z"/>
	<path d="M315.3,54c-0.4,0-0.8,0.2-1,0.7l-1.1-0.5c0.4-0.9,1.2-1.4,2.1-1.4c1.3,0,2.3,1,2.3,2.3v3.7h-1.2v-0.4
		c-0.3,0.3-0.6,0.4-1.1,0.4h-0.5c-1,0-1.7-0.8-1.7-1.7c0-1,0.8-1.7,1.7-1.7h1.6v-0.2C316.3,54.5,315.9,54,315.3,54z M314.3,57.1
		c0,0.3,0.2,0.5,0.5,0.5h0.5c0.6,0,1.1-0.4,1.1-1v-0.1h-1.6C314.5,56.5,314.3,56.8,314.3,57.1z"/>
	<path d="M321,53.3c0.3-0.3,0.7-0.4,1.2-0.4c1,0,2.1,0.7,2.1,2.3v3.6H323v-3.6c0-0.6-0.5-1.1-1-1.1c-0.6,0-1,0.5-1,1.1v3.6h-1.2
		v-5.9h1.2V53.3z"/>
	<path d="M329.6,58.8v-0.4c-0.4,0.3-0.7,0.4-1.2,0.4c-1.2,0-2.1-1-2.1-2.3v-1.4c0-1.3,1-2.3,2.2-2.3c0.4,0,0.8,0.1,1.1,0.4v-2.8h1.2
		v8.3H329.6z M328.5,54.1c-0.6,0-1,0.5-1,1v1.4c0,0.6,0.5,1,1,1c0.6,0,1-0.5,1-1v-1.4C329.6,54.6,329.1,54.1,328.5,54.1z"/>
	<path d="M340.9,51.8c-0.8,0-1.4,0.6-1.4,1.4v3c0,0.8,0.6,1.4,1.4,1.4c0.8,0,1.4-0.6,1.4-1.4h1.4c0,0.2,0,0.5-0.1,0.7
		c-0.3,1.2-1.4,2.1-2.7,2.1c-1.5,0-2.8-1.3-2.8-2.8v-3c0-1.5,1.3-2.8,2.8-2.8c1.3,0,2.4,0.8,2.7,2.1c0.1,0.3,0.1,0.5,0.1,0.7h-1.4
		C342.2,52.4,341.6,51.8,340.9,51.8z"/>
	<path d="M347.2,53.9h2.8v1.4h-2.8v2.1h4.2v1.4h-5.6v-8.3h5.6v1.4h-4.2V53.9z"/>
	<path d="M356.1,50.4c1.5,0,2.8,1.2,2.8,2.8v3c0,1.5-1.2,2.8-2.8,2.8c-1.5,0-2.8-1.3-2.8-2.8v-3C353.4,51.6,354.6,50.4,356.1,50.4z
		 M356.1,51.8c-0.8,0-1.4,0.6-1.4,1.4v3c0,0.8,0.6,1.4,1.4,1.4s1.4-0.6,1.4-1.4v-3C357.5,52.4,356.9,51.8,356.1,51.8z"/>
</g>
<g>
	<path d="M197.9,68.6h-4.2v2.1h2.8v1.4h-2.8v3.5h-1.4v-8.3h5.6V68.6z"/>
	<path d="M202,70.8c-0.4,0-0.8,0.2-1,0.7l-1.1-0.5c0.4-0.9,1.2-1.4,2.1-1.4c1.3,0,2.3,1,2.3,2.3v3.7H203v-0.4
		c-0.3,0.3-0.6,0.4-1.1,0.4h-0.5c-1,0-1.7-0.8-1.7-1.7c0-1,0.8-1.7,1.7-1.7h1.6v-0.2C203,71.3,202.6,70.8,202,70.8z M200.9,73.8
		c0,0.3,0.2,0.5,0.5,0.5h0.5c0.6,0,1.1-0.4,1.1-1v-0.1h-1.6C201.2,73.3,200.9,73.5,200.9,73.8z"/>
	<path d="M207.9,74.4c0.3,0,0.6-0.2,0.6-0.5c0-0.3-0.1-0.4-0.3-0.5l-1-0.5c-0.6-0.3-0.9-0.9-0.9-1.5c0-1,0.8-1.7,1.8-1.7
		c0.8,0,1.6,0.5,1.9,1.2l-1.1,0.5c-0.2-0.3-0.4-0.5-0.8-0.5c-0.3,0-0.6,0.2-0.6,0.5c0,0.2,0.1,0.4,0.4,0.5l1,0.5
		c0.5,0.3,0.9,0.7,0.9,1.5c0,1-0.8,1.7-1.8,1.7c-0.8,0-1.5-0.5-1.9-1.2l1.1-0.5C207.3,74.2,207.6,74.4,207.9,74.4z"/>
	<path d="M213.5,67.2v2.4h1.2v1.2h-1.2v3c0,0.3,0.2,0.5,0.5,0.5h0.3v1.2H214c-1,0-1.7-0.8-1.7-1.7v-3h-0.7v-1.2h0.7v-2.4H213.5z"/>
	<path d="M227.6,70c0,1.1-0.6,2-1.5,2.5l1.5,3.1h-1.4l-1.4-2.8h-1.4v2.8H222v-8.3h2.8C226.3,67.2,227.6,68.4,227.6,70z M226.2,70
		c0-0.8-0.6-1.4-1.4-1.4h-1.4v2.8h1.4C225.6,71.4,226.2,70.7,226.2,70z"/>
	<path d="M231.7,74.4c0.3,0,0.6-0.1,0.8-0.3l0.9,0.9c-0.4,0.5-1,0.7-1.6,0.7c-1.2,0-2.3-1-2.3-2.3v-1.5c0-1.2,1-2.3,2.3-2.3
		c1.2,0,2.3,1,2.3,2.3V73h-3.3v0.3C230.6,73.9,231.1,74.4,231.7,74.4z M231.7,70.8c-0.6,0-1,0.5-1,1.1h2.1
		C232.7,71.2,232.2,70.8,231.7,70.8z"/>
	<path d="M237.7,67.2v2.4h1.2v1.2h-1.2v3c0,0.3,0.2,0.5,0.5,0.5h0.3v1.2h-0.3c-1,0-1.7-0.8-1.7-1.7v-3h-0.7v-1.2h0.7v-2.4H237.7z"/>
	<path d="M243.1,70.8c-0.4,0-0.8,0.2-1,0.7L241,71c0.4-0.9,1.2-1.4,2.1-1.4c1.3,0,2.3,1,2.3,2.3v3.7h-1.2v-0.4
		c-0.3,0.3-0.6,0.4-1.1,0.4h-0.5c-1,0-1.7-0.8-1.7-1.7c0-1,0.8-1.7,1.7-1.7h1.6v-0.2C244.1,71.3,243.6,70.8,243.1,70.8z M242,73.8
		c0,0.3,0.2,0.5,0.5,0.5h0.5c0.6,0,1.1-0.4,1.1-1v-0.1h-1.6C242.2,73.3,242,73.5,242,73.8z"/>
	<path d="M248.7,68.4h-1.2v-1.2h1.2V68.4z M248.7,75.5h-1.2v-5.9h1.2V75.5z"/>
	<path d="M252.8,74.3h0.3v1.2h-0.3c-1,0-1.7-0.8-1.7-1.7v-6.6h1.2v6.6C252.3,74.1,252.5,74.3,252.8,74.3z"/>
	<path d="M256.2,68.4H255v-1.2h1.2V68.4z M256.2,75.5H255v-5.9h1.2V75.5z"/>
	<path d="M259.7,70c0.3-0.3,0.7-0.4,1.2-0.4c1,0,2.1,0.7,2.1,2.3v3.6h-1.2v-3.6c0-0.6-0.5-1.1-1-1.1c-0.6,0-1,0.5-1,1.1v3.6h-1.2
		v-5.9h1.2V70z"/>
	<path d="M267.2,75.5c-1.2,0-2.1-1-2.1-2.3v-1.4c0-1.3,1-2.3,2.2-2.3c0.4,0,0.8,0.1,1.1,0.4v-0.4h1.2v6.1c0,1.2-1,2.3-2.3,2.3
		c-0.6,0-1.1-0.2-1.6-0.7l0.8-0.9c0.2,0.2,0.5,0.3,0.8,0.3c0.6,0,1-0.5,1-1v-0.6C268,75.4,267.7,75.5,267.2,75.5z M267.4,70.8
		c-0.6,0-1,0.5-1,1v1.4c0,0.6,0.5,1,1,1c0.6,0,1-0.5,1-1v-1.4C268.4,71.3,267.9,70.8,267.4,70.8z"/>
	<path d="M279.6,68.5c-0.8,0-1.4,0.6-1.4,1.4v3c0,0.8,0.6,1.4,1.4,1.4c0.8,0,1.4-0.6,1.4-1.4h1.4c0,0.2,0,0.5-0.1,0.7
		c-0.3,1.2-1.4,2.1-2.7,2.1c-1.5,0-2.8-1.3-2.8-2.8v-3c0-1.5,1.3-2.8,2.8-2.8c1.3,0,2.4,0.8,2.7,2.1c0.1,0.3,0.1,0.5,0.1,0.7H281
		C281,69.1,280.4,68.5,279.6,68.5z"/>
	<path d="M286.6,69.6c1.3,0,2.3,1,2.3,2.3v1.5c0,1.2-1,2.3-2.3,2.3c-1.2,0-2.3-1-2.3-2.3v-1.5C284.4,70.6,285.4,69.6,286.6,69.6z
		 M286.6,70.8c-0.6,0-1,0.5-1,1.1v1.5c0,0.6,0.5,1.1,1,1.1c0.6,0,1-0.5,1-1.1v-1.5C287.7,71.2,287.2,70.8,286.6,70.8z"/>
	<path d="M292.4,75.5H291v-1.4h1.4V75.5z"/>
	<path d="M296,75.5l-1.4,1.4v-2.8h1.4V75.5z"/>
	<path d="M304.9,74.1h4.2v1.4h-5.6v-8.3h1.4V74.1z"/>
	<path d="M312.9,67.2v2.4h1.2v1.2h-1.2v3c0,0.3,0.2,0.5,0.5,0.5h0.3v1.2h-0.3c-1,0-1.7-0.8-1.7-1.7v-3H311v-1.2h0.7v-2.4H312.9z"/>
	<path d="M319.3,75.5v-0.4c-0.4,0.3-0.7,0.4-1.2,0.4c-1.2,0-2.1-1-2.1-2.3v-1.4c0-1.3,1-2.3,2.2-2.3c0.4,0,0.8,0.1,1.1,0.4v-2.8h1.2
		v8.3H319.3z M318.2,70.8c-0.6,0-1,0.5-1,1v1.4c0,0.6,0.5,1,1,1c0.6,0,1-0.5,1-1v-1.4C319.3,71.3,318.8,70.8,318.2,70.8z"/>
	<path d="M324.1,75.5h-1.4v-1.4h1.4V75.5z"/>
</g>
</svg>
