<svg width="24" height="24" viewBox="0 0 24 24" fill="none" xmlns="http://www.w3.org/2000/svg">
<g id="Frame 379">
<path id="&#226;&#128;&#156;" d="M9.29455 4.33013C7.28727 4.72937 5.87636 6.26488 5.06182 8.93666C4.65455 10.2572 4.45091 11.5624 4.45091 12.8522C4.45091 13.0058 4.45091 13.144 4.45091 13.2668C4.48 13.3589 4.50909 13.5893 4.53818 13.9578H9.29455V24H0V14.7409C0 10.1958 0.858182 6.69482 2.57455 4.238C4.29091 1.78119 6.53091 0.368522 9.29455 0V4.33013ZM24 4.33013C22.4 4.60653 21.1782 5.55854 20.3345 7.18618C19.52 8.81382 19.1127 10.6871 19.1127 12.8061C19.1127 12.9904 19.1127 13.1747 19.1127 13.3589C19.1418 13.5432 19.1855 13.7428 19.2436 13.9578H24V24H14.6618V14.7409C14.6618 11.0864 15.3891 7.83109 16.8436 4.97505C18.2982 2.08829 20.6836 0.429942 24 0V4.33013Z" fill="black"/>
</g>
</svg>
