<svg id="レイヤー_1" data-name="レイヤー 1" xmlns="http://www.w3.org/2000/svg" xmlns:xlink="http://www.w3.org/1999/xlink" viewBox="0 0 56.98 72.52"><defs><style>.cls-1,.cls-3{fill:none;}.cls-2{clip-path:url(#clip-path);}.cls-3{stroke:#00a040;stroke-miterlimit:10;stroke-width:1.46px;}.cls-4{clip-path:url(#clip-path-3);}.cls-5{fill:#00a040;}</style><clipPath id="clip-path" transform="translate(-1127.25 -106.82)"><path class="cls-1" d="M1132.93,130.73a23.18,23.18,0,1,0,23.18-23.18,23.18,23.18,0,0,0-23.18,23.18"/></clipPath><clipPath id="clip-path-3" transform="translate(-1127.25 -106.82)"><rect class="cls-1" width="1226" height="4305.4"/></clipPath></defs><g class="cls-2"><path class="cls-3" d="M1128.09,111.78h21.2A2.5,2.5,0,0,1,1152,114a1.27,1.27,0,0,0,1.71,1l.44-.27a2.46,2.46,0,0,1,3.71,1.94l0,.45a2.46,2.46,0,0,1-2.28,2.62l-3.58.25a3.09,3.09,0,0,0-3.25,2.25l-1.65,6a2.25,2.25,0,0,1-3.1,1.46l-.36-.16a2.15,2.15,0,0,0-2.75.91l-.62,1.12a3.77,3.77,0,0,0-.46,2.18l.09,1a2.13,2.13,0,0,1-1.36,2.17h0a2.18,2.18,0,0,1-2.53-.72l-8-10.73Z" transform="translate(-1127.25 -106.82)"/></g><g class="cls-2"><path class="cls-3" d="M1180.12,111.19c-.26.09-9.9,1.53-14.74,2.25a3.16,3.16,0,0,0-2.71,3.13v.68a3.18,3.18,0,0,0,3,3.17l4,.27a2.44,2.44,0,0,1,2.23,2l.19.89a4.53,4.53,0,0,0,3.54,3.51l7.44,1.47Z" transform="translate(-1127.25 -106.82)"/><path class="cls-3" d="M1183.37,135.21l-9.9-2.54a2.8,2.8,0,0,0-3.33,1.73l-.19.5a2.8,2.8,0,0,0,.85,3.18l10.2,8.34Z" transform="translate(-1127.25 -106.82)"/><path class="cls-3" d="M1155.09,141.44l-.92,6.11a2.11,2.11,0,0,0,1.67,2.37l.69.14a2.09,2.09,0,0,0,2-.7l.5-.58a2.1,2.1,0,0,1,1.8-.74l2.6.26a2.11,2.11,0,0,0,2.24-1.57l.84-3.22a2.11,2.11,0,0,0-1.71-2.61l-.24,0a2.15,2.15,0,0,0-1.85.62,2.1,2.1,0,0,1-3.35-.42l-.15-.26a2,2,0,0,0-1.1-.94l-.25-.09A2.1,2.1,0,0,0,1155.09,141.44Z" transform="translate(-1127.25 -106.82)"/><path class="cls-3" d="M1140.47,140.84h0a1.48,1.48,0,0,1,1.72-.21l3,1.64a1.5,1.5,0,0,1,.38,2.34l-.81.87a1.51,1.51,0,0,1-2.22,0l-2.22-2.51A1.5,1.5,0,0,1,1140.47,140.84Z" transform="translate(-1127.25 -106.82)"/><path class="cls-3" d="M1155,128.07h0a1.82,1.82,0,0,1,.65,2.39l-1.57,3a1.83,1.83,0,0,1-2.48.77l-.1,0a1.84,1.84,0,0,1-.74-2.52l1.67-2.94A1.82,1.82,0,0,1,1155,128.07Z" transform="translate(-1127.25 -106.82)"/><path class="cls-3" d="M1159.53,123.19l.43.47a1.36,1.36,0,0,1,.07,1.74l-.41.55a1.36,1.36,0,0,1-1.74.36l-.67-.36a1.37,1.37,0,0,1-.3-2.16l.65-.65A1.36,1.36,0,0,1,1159.53,123.19Z" transform="translate(-1127.25 -106.82)"/><path class="cls-3" d="M1146.92,132.85h0a1.53,1.53,0,0,0-2.1.87l-.43,1.23a1.52,1.52,0,0,0,.85,1.91l.29.12a1.53,1.53,0,0,0,2.11-1.24l.14-1.35A1.53,1.53,0,0,0,1146.92,132.85Z" transform="translate(-1127.25 -106.82)"/></g><g class="cls-4"><path class="cls-3" d="M1179.29,130.73a23.18,23.18,0,1,1-23.18-23.18A23.18,23.18,0,0,1,1179.29,130.73Z" transform="translate(-1127.25 -106.82)"/><path class="cls-5" d="M1142,174.85a2.24,2.24,0,0,1-2.24,2.24h-.9v2.25h-1.35V172.6h2.25a2.23,2.23,0,0,1,2.24,2.25m-2.24.9a.9.9,0,1,0,0-1.8h-.9v1.8Z" transform="translate(-1127.25 -106.82)"/><polygon class="cls-5" points="21.01 71.17 21.01 72.52 16.52 72.52 16.52 65.79 17.86 65.79 17.86 71.17 21.01 71.17"/><path class="cls-5" d="M1150.89,179.34h-1.34l2.24-6.74h1.35l2.24,6.74H1154l-.45-1.35h-2.24Zm.9-2.69h1.35l-.67-2.21Z" transform="translate(-1127.25 -106.82)"/><polygon class="cls-5" points="29.7 72.52 29.7 65.79 31.05 65.79 32.85 69.79 32.85 65.79 34.19 65.79 34.19 72.52 32.85 72.52 31.05 68.52 31.05 72.52 29.7 72.52"/><polygon class="cls-5" points="40.6 67.13 37.45 67.13 37.45 68.48 39.92 68.48 39.92 69.83 37.45 69.83 37.45 71.17 40.6 71.17 40.6 72.52 36.11 72.52 36.11 65.79 40.6 65.79 40.6 67.13"/><polygon class="cls-5" points="43.74 72.52 43.74 67.13 42.17 67.13 42.17 65.79 46.66 65.79 46.66 67.13 45.1 67.13 45.1 72.52 43.74 72.52"/></g></svg>