<?xml version="1.0" encoding="utf-8"?>
<!-- Generator: Adobe Illustrator 24.3.0, SVG Export Plug-In . SVG Version: 6.00 Build 0)  -->
<svg version="1.1" id="レイヤー_1" xmlns="http://www.w3.org/2000/svg" xmlns:xlink="http://www.w3.org/1999/xlink" x="0px"
	 y="0px" viewBox="0 0 60 60" style="enable-background:new 0 0 60 60;" xml:space="preserve">
<style type="text/css">
	.st0{fill:#00A040;}
	.st1{enable-background:new    ;}
	.st2{fill:#FFFFFF;}
	.st3{fill:none;stroke:#FFFFFF;stroke-width:4;stroke-miterlimit:10;}
</style>
<rect x="1.5" y="1.5" class="st0" width="57" height="57"/>
<path class="st0" d="M57,3v54H3V3H57 M60,0H0v60h60V0z"/>
<g class="st1">
	<path class="st2" d="M23.6,38h-3.5v11.6h-2.3V38h-3.5v-2.3h9.3V38z"/>
</g>
<g class="st1">
	<path class="st2" d="M30.2,35.5c2.6,0,4.6,2.1,4.6,4.6v4.9c0,2.5-2.1,4.6-4.6,4.6c-2.5,0-4.6-2.1-4.6-4.6v-4.9
		C25.6,37.6,27.7,35.5,30.2,35.5z M30.2,37.9c-1.3,0-2.3,1-2.3,2.3v4.9c0,1.3,1,2.3,2.3,2.3c1.3,0,2.3-1,2.3-2.3v-4.9
		C32.5,38.9,31.5,37.9,30.2,37.9z"/>
</g>
<g class="st1">
	<path class="st2" d="M47.3,40.3c0,2.5-2.1,4.6-4.6,4.6h-2.3v4.6H38V35.7h4.6C45.2,35.7,47.3,37.7,47.3,40.3z M44.9,40.3
		c0-1.3-1-2.3-2.3-2.3h-2.3v4.6h2.3C43.9,42.6,44.9,41.6,44.9,40.3z"/>
</g>
<polyline class="st3" points="41,26.5 30,13.5 19,26.5 "/>
</svg>
