<?xml version="1.0" encoding="UTF-8"?>
<svg id="_レイヤー_2" data-name="レイヤー 2" xmlns="http://www.w3.org/2000/svg" viewBox="0 0 690 690">
  <defs>
    <style>
      .cls-1 {
        fill: #fff;
      }

      .cls-2 {
        fill: #0073c0;
      }

      .cls-3 {
        fill: none;
        stroke: #000;
        stroke-miterlimit: 10;
        stroke-width: .83px;
      }

      .cls-4 {
        fill: #666;
      }

      .cls-5 {
        fill: red;
      }
    </style>
  </defs>
  <g id="_レイヤー_1-2" data-name="レイヤー 1">
    <path class="cls-5" d="m688,2v686H2V2h686m2-2H0v690h690V0h0Z"/>
    <g>
      <g>
        <path d="m171.32,379.64v-13.91h2.26v13.91c0,2.48,2.1,4.58,4.59,4.58s4.59-2.1,4.59-4.58v-13.91h2.26v13.91c0,3.75-3.03,6.84-6.85,6.84s-6.85-3.09-6.85-6.84Z"/>
        <path d="m190.33,365.73h2.26l9.17,16.21v-16.21h2.26v20.55h-2.26l-9.17-16.21v16.21h-2.26v-20.55Z"/>
        <path d="m209.28,365.73h2.26v9.12h9.17v-9.12h2.26v20.55h-2.26v-9.17h-9.17v9.17h-2.26v-20.55Z"/>
        <path d="m227.73,379.64v-7.27c0-3.81,3.09-6.84,6.85-6.84,3.05,0,5.82,2.06,6.61,5.07.15.59.21.97.23,1.77h-2.29c-.09-2.69-1.98-4.58-4.56-4.58s-4.59,2.04-4.59,4.58v7.27c0,2.48,2.04,4.58,4.59,4.58s4.47-1.89,4.56-4.58h2.29c-.03.8-.09,1.18-.23,1.77-.79,3.01-3.56,5.07-6.61,5.07-3.76,0-6.85-3.09-6.85-6.84Z"/>
        <path d="m246.18,365.73h7.29c3.55,0,6.41,2.85,6.41,6.4,0,2.6-1.62,4.99-4.07,5.93l4.07,8.21h-2.47l-3.88-7.77h-5.09v7.77h-2.26v-20.55Zm7.29,10.51c2.28,0,4.14-1.86,4.14-4.14s-1.86-4.11-4.14-4.11h-5.03v8.25h5.03Z"/>
        <path d="m264.06,383.81h2.47v2.47l-2.47,2.48v-4.96Z"/>
        <path d="m279.42,380.85v-3.7c0-3.08,2.5-5.58,5.58-5.58s5.55,2.5,5.55,5.58v3.7c0,3.08-2.44,5.58-5.55,5.58s-5.58-2.5-5.58-5.58Zm9.04,0v-3.7c0-1.9-1.57-3.49-3.46-3.49s-3.49,1.6-3.49,3.49v3.7c0,1.9,1.6,3.49,3.49,3.49s3.46-1.6,3.46-3.49Z"/>
        <path d="m294.82,380.73v-9.02h2.08v9.02c0,1.89,1.57,3.46,3.46,3.46s3.49-1.57,3.49-3.46v-9.02h2.09v14.56h-2.09v-1.35c-.98.91-2.13,1.35-3.46,1.35-3.08,0-5.58-2.5-5.58-5.54Z"/>
        <path d="m310.74,371.72h2.08v1.35c.97-.91,2.13-1.35,3.46-1.35,1.51,0,2.84.56,3.99,1.64l-1.51,1.53c-.68-.74-1.51-1.09-2.48-1.09-1.89,0-3.46,1.6-3.46,3.49v8.99h-2.08v-14.56Z"/>
        <path d="m333.49,390.62l1.42-1.56c.74.74,1.57,1.12,2.54,1.12,1.89,0,3.49-1.6,3.49-3.49v-1.77c-.98.91-2.16,1.35-3.49,1.35-3.08,0-5.58-2.5-5.58-5.58v-3.4c0-3.08,2.62-5.58,5.58-5.58,1.63,0,2.75.62,3.49,1.35v-1.35h2.06v14.97c0,3.08-2.5,5.58-5.55,5.58-1.54,0-2.87-.56-3.96-1.64Zm7.45-9.92v-3.4c0-1.89-1.6-3.49-3.49-3.49s-3.49,1.6-3.49,3.49v3.4c0,1.89,1.6,3.49,3.49,3.49s3.49-1.6,3.49-3.49Z"/>
        <path d="m347.76,382.48v-16.75h2.09v16.75c0,.95.77,1.71,1.71,1.71h.86v2.08h-.86c-2.12,0-3.8-1.67-3.8-3.8Z"/>
        <path d="m355.57,380.85v-3.7c0-3.08,2.5-5.58,5.58-5.58s5.55,2.5,5.55,5.58v3.7c0,3.08-2.44,5.58-5.55,5.58s-5.58-2.5-5.58-5.58Zm9.04,0v-3.7c0-1.9-1.57-3.49-3.46-3.49s-3.49,1.6-3.49,3.49v3.7c0,1.9,1.6,3.49,3.49,3.49s3.46-1.6,3.46-3.49Z"/>
        <path d="m371.07,365.73h2.06v7.34c.98-.91,2.16-1.35,3.49-1.35,3.08,0,5.58,2.5,5.58,5.58v3.43c0,3.05-2.5,5.55-5.58,5.55-1.36,0-2.51-.44-3.49-1.35v1.35h-2.06v-20.54Zm9.04,15v-3.43c0-1.89-1.6-3.49-3.49-3.49s-3.49,1.6-3.49,3.49v3.43c0,1.89,1.6,3.46,3.49,3.46s3.49-1.57,3.49-3.46Z"/>
        <path d="m386.08,382c0-2.37,1.91-4.28,4.28-4.28h4.77v-.56c0-1.9-1.6-3.51-3.49-3.51-1.39,0-2.63.86-3.2,2.17l-1.94-.8c.94-2.16,2.89-3.45,5.17-3.45,3.11,0,5.55,2.5,5.55,5.59v9.11h-2.11v-1.79c-.89,1.2-2.04,1.79-3.49,1.79h-1.24c-2.37,0-4.28-1.91-4.28-4.27Zm5.52,2.19c2.01,0,3.52-1.89,3.52-4.38h-4.77c-1.21,0-2.19.98-2.19,2.19s.98,2.19,2.19,2.19h1.24Z"/>
        <path d="m401.86,382.48v-16.75h2.09v16.75c0,.95.77,1.71,1.71,1.71h.86v2.08h-.86c-2.12,0-3.8-1.67-3.8-3.8Z"/>
        <path d="m418.55,371.72h2.06v1.35c.98-.91,2.16-1.35,3.49-1.35,3.08,0,5.58,2.5,5.58,5.58v3.4c0,3.08-2.5,5.58-5.58,5.58-1.33,0-2.51-.44-3.49-1.35v7.35h-2.06v-20.55Zm9.04,8.98v-3.4c0-1.89-1.6-3.49-3.49-3.49s-3.49,1.6-3.49,3.49v3.4c0,1.89,1.6,3.49,3.49,3.49s3.49-1.6,3.49-3.49Z"/>
        <path d="m433.57,382c0-2.37,1.91-4.28,4.28-4.28h4.77v-.56c0-1.9-1.6-3.51-3.49-3.51-1.39,0-2.63.86-3.2,2.17l-1.94-.8c.94-2.16,2.89-3.45,5.17-3.45,3.11,0,5.55,2.5,5.55,5.59v9.11h-2.11v-1.79c-.89,1.2-2.04,1.79-3.49,1.79h-1.24c-2.37,0-4.28-1.91-4.28-4.27Zm5.52,2.19c2.01,0,3.52-1.89,3.52-4.38h-4.77c-1.21,0-2.19.98-2.19,2.19s.98,2.19,2.19,2.19h1.24Z"/>
        <path d="m449.37,371.72h2.08v1.35c.97-.91,2.13-1.35,3.46-1.35,1.51,0,2.84.56,3.99,1.64l-1.51,1.53c-.68-.74-1.51-1.09-2.48-1.09-1.89,0-3.46,1.6-3.46,3.49v8.99h-2.08v-14.56Z"/>
        <path d="m463.43,382.47v-8.67h-1.71v-2.08h1.71v-5.99h2.08v5.99h2.92v2.08h-2.92v8.67c0,.95.74,1.72,1.71,1.72h.53v2.08h-.53c-2.12,0-3.8-1.67-3.8-3.8Z"/>
        <path d="m472.27,371.72h2.08v1.35c.98-.91,2.13-1.35,3.46-1.35,3.08,0,5.58,2.5,5.58,5.57v8.99h-2.08v-8.99c0-1.89-1.57-3.49-3.46-3.49s-3.49,1.6-3.49,3.49v8.99h-2.08v-14.56Z"/>
        <path d="m487.68,380.85v-3.7c0-3.09,2.5-5.59,5.55-5.59s5.58,2.5,5.58,5.59v2.1h-9.04v1.6c0,1.89,1.57,3.49,3.46,3.49,1.01,0,1.86-.38,2.55-1.12l1.48,1.51c-1.06,1.15-2.48,1.7-4.02,1.7-3.05,0-5.55-2.5-5.55-5.58Zm9.04-3.61c0-2.05-1.57-3.59-3.46-3.59-2.01,0-3.4,1.48-3.49,3.59h6.96Z"/>
        <path d="m503.2,371.72h2.08v1.35c.97-.91,2.13-1.35,3.46-1.35,1.51,0,2.84.56,3.99,1.64l-1.51,1.53c-.68-.74-1.51-1.09-2.48-1.09-1.89,0-3.46,1.6-3.46,3.49v8.99h-2.08v-14.56Z"/>
        <path d="m516.19,383.81h2.47v2.47l-2.47,2.48v-4.96Z"/>
        <path d="m96.98,412.86h2.08v1.35c.98-.91,2.13-1.35,3.46-1.35,3.08,0,5.58,2.5,5.58,5.57v8.99h-2.08v-8.99c0-1.89-1.57-3.49-3.46-3.49s-3.49,1.6-3.49,3.49v8.99h-2.08v-14.56Z"/>
        <path d="m112.38,421.99v-3.7c0-3.09,2.5-5.59,5.55-5.59s5.58,2.5,5.58,5.59v2.1h-9.04v1.6c0,1.89,1.57,3.49,3.46,3.49,1.01,0,1.86-.38,2.55-1.12l1.48,1.51c-1.06,1.15-2.48,1.7-4.02,1.7-3.05,0-5.55-2.5-5.55-5.58Zm9.04-3.61c0-2.05-1.57-3.59-3.46-3.59-2.01,0-3.4,1.48-3.49,3.59h6.96Z"/>
        <path d="m127.53,421.99v-3.7c0-3.09,2.5-5.59,5.55-5.59s5.58,2.5,5.58,5.59v2.1h-9.04v1.6c0,1.89,1.57,3.49,3.46,3.49,1.01,0,1.86-.38,2.55-1.12l1.48,1.51c-1.06,1.15-2.48,1.7-4.02,1.7-3.05,0-5.55-2.5-5.55-5.58Zm9.04-3.61c0-2.05-1.57-3.59-3.46-3.59-2.01,0-3.4,1.48-3.49,3.59h6.96Z"/>
        <path d="m142.67,421.87v-3.43c0-3.08,2.5-5.58,5.58-5.58,1.33,0,2.51.44,3.49,1.35v-7.34h2.06v20.54h-2.06v-1.35c-.98.91-2.13,1.35-3.49,1.35-3.08,0-5.58-2.5-5.58-5.55Zm9.07,0v-3.43c0-1.89-1.6-3.49-3.49-3.49s-3.49,1.6-3.49,3.49v3.43c0,1.89,1.6,3.46,3.49,3.46s3.49-1.57,3.49-3.46Z"/>
        <path d="m157.67,424.56l1.88-.92c.68,1.18,1.92,1.89,2.95,1.89,1.18,0,2.09-.92,2.09-2.07,0-.98-.59-1.75-1.8-2.28l-1.53-.68c-2.35-1.04-3.26-2.43-3.26-3.97,0-2.19,1.88-3.83,4.18-3.83,2.09,0,3.9,1.12,4.82,3l-1.89.89c-.68-1.15-1.74-1.81-2.95-1.81s-2.07.77-2.07,1.81c0,.68.47,1.36,1.89,1.98l1.71.77c2.1.92,3.05,2.16,3.05,4.08,0,2.37-1.83,4.14-4.25,4.14-2.09,0-3.83-1.12-4.8-3.01Z"/>
        <path d="m179.34,421.87v-9.02h2.08v9.02c0,1.89,1.57,3.46,3.46,3.46s3.49-1.57,3.49-3.46v-9.02h2.09v14.56h-2.09v-1.35c-.98.91-2.13,1.35-3.46,1.35-3.08,0-5.58-2.5-5.58-5.54Z"/>
        <path d="m195.26,412.86h2.08v1.35c.97-.91,2.13-1.35,3.46-1.35,1.51,0,2.84.56,3.99,1.64l-1.51,1.53c-.68-.74-1.51-1.09-2.48-1.09-1.89,0-3.46,1.6-3.46,3.49v8.99h-2.08v-14.56Z"/>
        <path d="m209.51,431.76l1.42-1.56c.74.74,1.57,1.12,2.54,1.12,1.89,0,3.49-1.6,3.49-3.49v-1.77c-.98.91-2.16,1.35-3.49,1.35-3.08,0-5.58-2.5-5.58-5.58v-3.4c0-3.08,2.62-5.58,5.58-5.58,1.63,0,2.75.62,3.49,1.35v-1.35h2.06v14.97c0,3.08-2.5,5.58-5.55,5.58-1.54,0-2.87-.56-3.96-1.64Zm7.45-9.92v-3.4c0-1.89-1.6-3.49-3.49-3.49s-3.49,1.6-3.49,3.49v3.4c0,1.89,1.6,3.49,3.49,3.49s3.49-1.6,3.49-3.49Z"/>
        <path d="m223.42,421.99v-3.7c0-3.09,2.5-5.59,5.55-5.59s5.58,2.5,5.58,5.59v2.1h-9.04v1.6c0,1.89,1.57,3.49,3.46,3.49,1.01,0,1.86-.38,2.55-1.12l1.48,1.51c-1.06,1.15-2.48,1.7-4.02,1.7-3.05,0-5.55-2.5-5.55-5.58Zm9.04-3.61c0-2.05-1.57-3.59-3.46-3.59-2.01,0-3.4,1.48-3.49,3.59h6.96Z"/>
        <path d="m238.95,412.86h2.08v1.35c.98-.91,2.13-1.35,3.46-1.35,3.08,0,5.58,2.5,5.58,5.57v8.99h-2.08v-8.99c0-1.89-1.57-3.49-3.46-3.49s-3.49,1.6-3.49,3.49v8.99h-2.08v-14.56Z"/>
        <path d="m255.79,423.61v-8.67h-1.71v-2.08h1.71v-5.99h2.08v5.99h2.92v2.08h-2.92v8.67c0,.95.74,1.72,1.71,1.72h.53v2.08h-.53c-2.12,0-3.8-1.67-3.8-3.8Z"/>
        <path d="m272.24,424.56l1.88-.92c.68,1.18,1.92,1.89,2.95,1.89,1.18,0,2.09-.92,2.09-2.07,0-.98-.59-1.75-1.8-2.28l-1.53-.68c-2.35-1.04-3.26-2.43-3.26-3.97,0-2.19,1.88-3.83,4.18-3.83,2.09,0,3.9,1.12,4.82,3l-1.89.89c-.68-1.15-1.74-1.81-2.95-1.81s-2.07.77-2.07,1.81c0,.68.47,1.36,1.89,1.98l1.71.77c2.1.92,3.05,2.16,3.05,4.08,0,2.37-1.83,4.14-4.25,4.14-2.09,0-3.83-1.12-4.8-3.01Z"/>
        <path d="m285.42,421.87v-9.02h2.08v9.02c0,1.89,1.57,3.46,3.46,3.46s3.49-1.57,3.49-3.46v-9.02h2.09v14.56h-2.09v-1.35c-.98.91-2.13,1.35-3.46,1.35-3.08,0-5.58-2.5-5.58-5.54Z"/>
        <path d="m301.34,412.86h2.06v1.35c.98-.91,2.16-1.35,3.49-1.35,3.08,0,5.58,2.5,5.58,5.58v3.4c0,3.08-2.5,5.58-5.58,5.58-1.33,0-2.51-.44-3.49-1.35v7.35h-2.06v-20.55Zm9.04,8.98v-3.4c0-1.89-1.6-3.49-3.49-3.49s-3.49,1.6-3.49,3.49v3.4c0,1.89,1.6,3.49,3.49,3.49s3.49-1.6,3.49-3.49Z"/>
        <path d="m316.87,412.86h2.06v1.35c.98-.91,2.16-1.35,3.49-1.35,3.08,0,5.58,2.5,5.58,5.58v3.4c0,3.08-2.5,5.58-5.58,5.58-1.33,0-2.51-.44-3.49-1.35v7.35h-2.06v-20.55Zm9.04,8.98v-3.4c0-1.89-1.6-3.49-3.49-3.49s-3.49,1.6-3.49,3.49v3.4c0,1.89,1.6,3.49,3.49,3.49s3.49-1.6,3.49-3.49Z"/>
        <path d="m332.01,421.99v-3.7c0-3.08,2.5-5.58,5.58-5.58s5.55,2.5,5.55,5.58v3.7c0,3.08-2.44,5.58-5.55,5.58s-5.58-2.5-5.58-5.58Zm9.04,0v-3.7c0-1.9-1.57-3.49-3.46-3.49s-3.49,1.6-3.49,3.49v3.7c0,1.9,1.6,3.49,3.49,3.49s3.46-1.6,3.46-3.49Z"/>
        <path d="m347.54,412.86h2.08v1.35c.97-.91,2.13-1.35,3.46-1.35,1.51,0,2.84.56,3.99,1.64l-1.51,1.53c-.68-.74-1.51-1.09-2.48-1.09-1.89,0-3.46,1.6-3.46,3.49v8.99h-2.08v-14.56Z"/>
        <path d="m361.6,423.61v-8.67h-1.71v-2.08h1.71v-5.99h2.08v5.99h2.92v2.08h-2.92v8.67c0,.95.74,1.72,1.71,1.72h.53v2.08h-.53c-2.12,0-3.8-1.67-3.8-3.8Z"/>
        <path d="m379.98,423.61v-8.67h-1.71v-2.08h1.71v-5.99h2.08v5.99h2.92v2.08h-2.92v8.67c0,.95.74,1.72,1.71,1.72h.53v2.08h-.53c-2.12,0-3.8-1.67-3.8-3.8Z"/>
        <path d="m388.43,421.99v-3.7c0-3.08,2.5-5.58,5.58-5.58s5.55,2.5,5.55,5.58v3.7c0,3.08-2.44,5.58-5.55,5.58s-5.58-2.5-5.58-5.58Zm9.04,0v-3.7c0-1.9-1.57-3.49-3.46-3.49s-3.49,1.6-3.49,3.49v3.7c0,1.9,1.6,3.49,3.49,3.49s3.46-1.6,3.46-3.49Z"/>
        <path d="m412.46,412.86h2.08v1.35c.97-.91,2.13-1.35,3.46-1.35,1.51,0,2.84.56,3.99,1.64l-1.51,1.53c-.68-.74-1.51-1.09-2.48-1.09-1.89,0-3.46,1.6-3.46,3.49v8.99h-2.08v-14.56Z"/>
        <path d="m425.09,421.99v-3.7c0-3.09,2.5-5.59,5.55-5.59s5.58,2.5,5.58,5.59v2.1h-9.04v1.6c0,1.89,1.57,3.49,3.46,3.49,1.01,0,1.86-.38,2.55-1.12l1.48,1.51c-1.06,1.15-2.48,1.7-4.02,1.7-3.05,0-5.55-2.5-5.55-5.58Zm9.04-3.61c0-2.05-1.57-3.59-3.46-3.59-2.01,0-3.4,1.48-3.49,3.59h6.96Z"/>
        <path d="m439.73,424.56l1.88-.92c.68,1.18,1.92,1.89,2.95,1.89,1.18,0,2.09-.92,2.09-2.07,0-.98-.59-1.75-1.8-2.28l-1.53-.68c-2.35-1.04-3.26-2.43-3.26-3.97,0-2.19,1.88-3.83,4.18-3.83,2.09,0,3.9,1.12,4.82,3l-1.89.89c-.68-1.15-1.74-1.81-2.95-1.81s-2.07.77-2.07,1.81c0,.68.47,1.36,1.89,1.98l1.71.77c2.1.92,3.05,2.16,3.05,4.08,0,2.37-1.83,4.14-4.25,4.14-2.09,0-3.83-1.12-4.8-3.01Z"/>
        <path d="m453.04,412.86h2.06v1.35c.98-.91,2.16-1.35,3.49-1.35,3.08,0,5.58,2.5,5.58,5.58v3.4c0,3.08-2.5,5.58-5.58,5.58-1.33,0-2.51-.44-3.49-1.35v7.35h-2.06v-20.55Zm9.04,8.98v-3.4c0-1.89-1.6-3.49-3.49-3.49s-3.49,1.6-3.49,3.49v3.4c0,1.89,1.6,3.49,3.49,3.49s3.49-1.6,3.49-3.49Z"/>
        <path d="m468.19,421.99v-3.7c0-3.08,2.5-5.58,5.58-5.58s5.55,2.5,5.55,5.58v3.7c0,3.08-2.44,5.58-5.55,5.58s-5.58-2.5-5.58-5.58Zm9.04,0v-3.7c0-1.9-1.57-3.49-3.46-3.49s-3.49,1.6-3.49,3.49v3.7c0,1.9,1.6,3.49,3.49,3.49s3.46-1.6,3.46-3.49Z"/>
        <path d="m483.71,412.86h2.08v1.35c.98-.91,2.13-1.35,3.46-1.35,3.08,0,5.58,2.5,5.58,5.57v8.99h-2.08v-8.99c0-1.89-1.57-3.49-3.46-3.49s-3.49,1.6-3.49,3.49v8.99h-2.08v-14.56Z"/>
        <path d="m499.12,421.87v-3.43c0-3.08,2.5-5.58,5.58-5.58,1.33,0,2.51.44,3.49,1.35v-7.34h2.06v20.54h-2.06v-1.35c-.98.91-2.13,1.35-3.49,1.35-3.08,0-5.58-2.5-5.58-5.55Zm9.07,0v-3.43c0-1.89-1.6-3.49-3.49-3.49s-3.49,1.6-3.49,3.49v3.43c0,1.89,1.6,3.46,3.49,3.46s3.49-1.57,3.49-3.46Z"/>
        <path d="m524.54,423.61v-8.67h-1.71v-2.08h1.71v-5.99h2.08v5.99h2.92v2.08h-2.92v8.67c0,.95.74,1.72,1.71,1.72h.53v2.08h-.53c-2.12,0-3.8-1.67-3.8-3.8Z"/>
        <path d="m533,421.99v-3.7c0-3.08,2.5-5.58,5.58-5.58s5.55,2.5,5.55,5.58v3.7c0,3.08-2.44,5.58-5.55,5.58s-5.58-2.5-5.58-5.58Zm9.04,0v-3.7c0-1.9-1.57-3.49-3.46-3.49s-3.49,1.6-3.49,3.49v3.7c0,1.9,1.6,3.49,3.49,3.49s3.46-1.6,3.46-3.49Z"/>
        <path d="m558.06,423.61v-8.67h-1.71v-2.08h1.71v-5.99h2.08v5.99h2.92v2.08h-2.92v8.67c0,.95.74,1.72,1.71,1.72h.53v2.08h-.53c-2.12,0-3.8-1.67-3.8-3.8Z"/>
        <path d="m566.88,406.87h2.09v7.34c.98-.91,2.16-1.35,3.49-1.35,3.05,0,5.55,2.5,5.55,5.57v8.99h-2.08v-8.99c0-1.89-1.57-3.49-3.46-3.49s-3.49,1.6-3.49,3.49v8.99h-2.09v-20.55Z"/>
        <path d="m582.29,421.99v-3.7c0-3.09,2.5-5.59,5.55-5.59s5.58,2.5,5.58,5.59v2.1h-9.04v1.6c0,1.89,1.57,3.49,3.46,3.49,1.01,0,1.86-.38,2.55-1.12l1.48,1.51c-1.06,1.15-2.48,1.7-4.02,1.7-3.05,0-5.55-2.5-5.55-5.58Zm9.04-3.61c0-2.05-1.57-3.59-3.46-3.59-2.01,0-3.4,1.48-3.49,3.59h6.96Z"/>
        <path d="m99.71,463.13v-3.7c0-3.09,2.5-5.59,5.55-5.59s5.58,2.5,5.58,5.59v2.1h-9.04v1.6c0,1.89,1.57,3.49,3.46,3.49,1.01,0,1.86-.38,2.55-1.12l1.48,1.51c-1.06,1.15-2.48,1.7-4.02,1.7-3.05,0-5.55-2.5-5.55-5.58Zm9.04-3.61c0-2.05-1.57-3.59-3.46-3.59-2.01,0-3.4,1.48-3.49,3.59h6.96Z"/>
        <path d="m115.24,454h2.06v1.41c.98-.94,2.13-1.41,3.49-1.41,1.8,0,3.58.91,4.55,2.33,1.06-1.5,2.75-2.33,4.55-2.33,3.04,0,5.55,2.5,5.55,5.58v8.99h-2.06v-8.99c0-1.95-1.6-3.52-3.49-3.52s-3.52,1.57-3.52,3.52v8.99h-2.06v-9.04c0-1.89-1.6-3.46-3.49-3.46s-3.52,1.57-3.52,3.52v8.99h-2.06v-14.56Z"/>
        <path d="m139.72,463.13v-3.7c0-3.09,2.5-5.59,5.55-5.59s5.58,2.5,5.58,5.59v2.1h-9.04v1.6c0,1.89,1.57,3.49,3.46,3.49,1.01,0,1.86-.38,2.55-1.12l1.48,1.51c-1.06,1.15-2.48,1.7-4.02,1.7-3.05,0-5.55-2.5-5.55-5.58Zm9.04-3.61c0-2.05-1.57-3.59-3.46-3.59-2.01,0-3.4,1.48-3.49,3.59h6.96Z"/>
        <path d="m155.24,454h2.08v1.35c.97-.91,2.13-1.35,3.46-1.35,1.51,0,2.84.56,3.99,1.64l-1.51,1.53c-.68-.74-1.51-1.09-2.48-1.09-1.89,0-3.46,1.6-3.46,3.49v8.99h-2.08v-14.56Z"/>
        <path d="m169.49,472.9l1.42-1.56c.74.74,1.57,1.12,2.54,1.12,1.89,0,3.49-1.6,3.49-3.49v-1.77c-.98.91-2.16,1.35-3.49,1.35-3.08,0-5.58-2.5-5.58-5.58v-3.4c0-3.08,2.62-5.58,5.58-5.58,1.63,0,2.75.62,3.49,1.35v-1.35h2.06v14.97c0,3.08-2.5,5.58-5.55,5.58-1.54,0-2.87-.56-3.96-1.64Zm7.45-9.92v-3.4c0-1.89-1.6-3.49-3.49-3.49s-3.49,1.6-3.49,3.49v3.4c0,1.89,1.6,3.49,3.49,3.49s3.49-1.6,3.49-3.49Z"/>
        <path d="m183.4,463.13v-3.7c0-3.09,2.5-5.59,5.55-5.59s5.58,2.5,5.58,5.59v2.1h-9.04v1.6c0,1.89,1.57,3.49,3.46,3.49,1.01,0,1.86-.38,2.55-1.12l1.48,1.51c-1.06,1.15-2.48,1.7-4.02,1.7-3.05,0-5.55-2.5-5.55-5.58Zm9.04-3.61c0-2.05-1.57-3.59-3.46-3.59-2.01,0-3.4,1.48-3.49,3.59h6.96Z"/>
        <path d="m198.93,454h2.08v1.35c.98-.91,2.13-1.35,3.46-1.35,3.08,0,5.58,2.5,5.58,5.57v8.99h-2.08v-8.99c0-1.89-1.57-3.49-3.46-3.49s-3.49,1.6-3.49,3.49v8.99h-2.08v-14.56Z"/>
        <path d="m214.34,463.13v-3.7c0-3.08,2.5-5.58,5.55-5.58s5.43,2.32,5.58,5.58h-2.09c-.09-2.01-1.54-3.49-3.49-3.49s-3.46,1.6-3.46,3.49v3.7c0,1.9,1.57,3.49,3.46,3.49s3.4-1.48,3.49-3.49h2.09c-.15,3.26-2.44,5.58-5.58,5.58s-5.55-2.5-5.55-5.58Z"/>
        <path d="m230.48,472.33c1.27-.06,2.04-.5,2.36-1.36l1.06-2.95-5.11-14.03h2.27l3.9,11.04,4.01-11.04h2.24l-6.41,17.66c-.68,1.8-2.18,2.8-4.34,2.89v-2.21Z"/>
        <path d="m253.42,454h2.08v1.35c.98-.91,2.13-1.35,3.46-1.35,3.08,0,5.58,2.5,5.58,5.57v8.99h-2.08v-8.99c0-1.89-1.57-3.49-3.46-3.49s-3.49,1.6-3.49,3.49v8.99h-2.08v-14.56Z"/>
        <path d="m268.83,463.13v-3.7c0-3.09,2.5-5.59,5.55-5.59s5.58,2.5,5.58,5.59v2.1h-9.04v1.6c0,1.89,1.57,3.49,3.46,3.49,1.01,0,1.86-.38,2.55-1.12l1.48,1.51c-1.06,1.15-2.48,1.7-4.02,1.7-3.05,0-5.55-2.5-5.55-5.58Zm9.04-3.61c0-2.05-1.57-3.59-3.46-3.59-2.01,0-3.4,1.48-3.49,3.59h6.96Z"/>
        <path d="m283.97,463.13v-3.7c0-3.09,2.5-5.59,5.55-5.59s5.58,2.5,5.58,5.59v2.1h-9.04v1.6c0,1.89,1.57,3.49,3.46,3.49,1.01,0,1.86-.38,2.55-1.12l1.48,1.51c-1.06,1.15-2.48,1.7-4.02,1.7-3.05,0-5.55-2.5-5.55-5.58Zm9.04-3.61c0-2.05-1.57-3.59-3.46-3.59-2.01,0-3.4,1.48-3.49,3.59h6.96Z"/>
        <path d="m299.11,463.01v-3.43c0-3.08,2.5-5.58,5.58-5.58,1.33,0,2.51.44,3.49,1.35v-7.34h2.06v20.54h-2.06v-1.35c-.98.91-2.13,1.35-3.49,1.35-3.08,0-5.58-2.5-5.58-5.55Zm9.07,0v-3.43c0-1.89-1.6-3.49-3.49-3.49s-3.49,1.6-3.49,3.49v3.43c0,1.89,1.6,3.46,3.49,3.46s3.49-1.57,3.49-3.46Z"/>
        <path d="m314.11,465.7l1.88-.92c.68,1.18,1.92,1.89,2.95,1.89,1.18,0,2.09-.92,2.09-2.07,0-.98-.59-1.75-1.8-2.28l-1.53-.68c-2.35-1.04-3.26-2.43-3.26-3.97,0-2.19,1.88-3.83,4.18-3.83,2.09,0,3.9,1.12,4.82,3l-1.89.89c-.68-1.15-1.74-1.81-2.95-1.81s-2.07.77-2.07,1.81c0,.68.47,1.36,1.89,1.98l1.71.77c2.1.92,3.05,2.16,3.05,4.08,0,2.37-1.83,4.14-4.25,4.14-2.09,0-3.83-1.12-4.8-3.01Z"/>
        <path d="m335.53,463.13v-3.7c0-3.08,2.5-5.58,5.58-5.58s5.55,2.5,5.55,5.58v3.7c0,3.08-2.44,5.58-5.55,5.58s-5.58-2.5-5.58-5.58Zm9.04,0v-3.7c0-1.9-1.57-3.49-3.46-3.49s-3.49,1.6-3.49,3.49v3.7c0,1.9,1.6,3.49,3.49,3.49s3.46-1.6,3.46-3.49Z"/>
        <path d="m352.23,456.57h-1.71v-2.08h1.71v-2.66c0-2.13,1.67-3.8,3.8-3.8h1.71v2.09h-1.71c-.97,0-1.71.74-1.71,1.72v2.66h2.96v2.08h-2.96v12h-2.08v-12Z"/>
        <path d="m369.67,454h2.06v1.41c.98-.94,2.13-1.41,3.49-1.41,1.8,0,3.58.91,4.55,2.33,1.06-1.5,2.75-2.33,4.55-2.33,3.04,0,5.55,2.5,5.55,5.58v8.99h-2.06v-8.99c0-1.95-1.6-3.52-3.49-3.52s-3.52,1.57-3.52,3.52v8.99h-2.06v-9.04c0-1.89-1.6-3.46-3.49-3.46s-3.52,1.57-3.52,3.52v8.99h-2.06v-14.56Z"/>
        <path d="m394.36,448.02h2.47v2.47h-2.47v-2.47Zm.18,5.98h2.08v14.57h-2.08v-14.57Z"/>
        <path d="m401.38,464.76v-16.75h2.09v16.75c0,.95.77,1.71,1.71,1.71h.86v2.08h-.86c-2.12,0-3.8-1.67-3.8-3.8Z"/>
        <path d="m409.55,464.76v-16.75h2.09v16.75c0,.95.77,1.71,1.71,1.71h.86v2.08h-.86c-2.12,0-3.8-1.67-3.8-3.8Z"/>
        <path d="m417.57,448.02h2.47v2.47h-2.47v-2.47Zm.18,5.98h2.08v14.57h-2.08v-14.57Z"/>
        <path d="m424.24,463.13v-3.7c0-3.08,2.5-5.58,5.58-5.58s5.55,2.5,5.55,5.58v3.7c0,3.08-2.44,5.58-5.55,5.58s-5.58-2.5-5.58-5.58Zm9.04,0v-3.7c0-1.9-1.57-3.49-3.46-3.49s-3.49,1.6-3.49,3.49v3.7c0,1.9,1.6,3.49,3.49,3.49s3.46-1.6,3.46-3.49Z"/>
        <path d="m439.76,454h2.08v1.35c.98-.91,2.13-1.35,3.46-1.35,3.08,0,5.58,2.5,5.58,5.57v8.99h-2.08v-8.99c0-1.89-1.57-3.49-3.46-3.49s-3.49,1.6-3.49,3.49v8.99h-2.08v-14.56Z"/>
        <path d="m454.67,465.7l1.88-.92c.68,1.18,1.92,1.89,2.95,1.89,1.18,0,2.09-.92,2.09-2.07,0-.98-.59-1.75-1.8-2.28l-1.53-.68c-2.35-1.04-3.26-2.43-3.26-3.97,0-2.19,1.88-3.83,4.18-3.83,2.09,0,3.9,1.12,4.82,3l-1.89.89c-.68-1.15-1.74-1.81-2.95-1.81s-2.07.77-2.07,1.81c0,.68.47,1.36,1.89,1.98l1.71.77c2.1.92,3.05,2.16,3.05,4.08,0,2.37-1.83,4.14-4.25,4.14-2.09,0-3.83-1.12-4.8-3.01Z"/>
        <path d="m476.3,448.02h2.47v2.47h-2.47v-2.47Zm.18,5.98h2.08v14.57h-2.08v-14.57Z"/>
        <path d="m483.35,454h2.06v1.41c.98-.94,2.13-1.41,3.49-1.41,1.8,0,3.58.91,4.55,2.33,1.06-1.5,2.75-2.33,4.55-2.33,3.04,0,5.55,2.5,5.55,5.58v8.99h-2.06v-8.99c0-1.95-1.6-3.52-3.49-3.52s-3.52,1.57-3.52,3.52v8.99h-2.06v-9.04c0-1.89-1.6-3.46-3.49-3.46s-3.52,1.57-3.52,3.52v8.99h-2.06v-14.56Z"/>
        <path d="m508.21,454h2.06v1.35c.98-.91,2.16-1.35,3.49-1.35,3.08,0,5.58,2.5,5.58,5.58v3.4c0,3.08-2.5,5.58-5.58,5.58-1.33,0-2.51-.44-3.49-1.35v7.35h-2.06v-20.55Zm9.04,8.98v-3.4c0-1.89-1.6-3.49-3.49-3.49s-3.49,1.6-3.49,3.49v3.4c0,1.89,1.6,3.49,3.49,3.49s3.49-1.6,3.49-3.49Z"/>
        <path d="m523.23,464.28c0-2.37,1.91-4.28,4.28-4.28h4.77v-.56c0-1.9-1.6-3.51-3.49-3.51-1.39,0-2.63.86-3.2,2.17l-1.94-.8c.94-2.16,2.89-3.45,5.17-3.45,3.11,0,5.55,2.5,5.55,5.59v9.11h-2.11v-1.79c-.89,1.2-2.04,1.79-3.49,1.79h-1.24c-2.37,0-4.28-1.91-4.28-4.27Zm5.52,2.19c2.01,0,3.52-1.89,3.52-4.38h-4.77c-1.21,0-2.19.98-2.19,2.19s.98,2.19,2.19,2.19h1.24Z"/>
        <path d="m538.64,463.13v-3.7c0-3.08,2.5-5.58,5.55-5.58s5.43,2.32,5.58,5.58h-2.09c-.09-2.01-1.54-3.49-3.49-3.49s-3.46,1.6-3.46,3.49v3.7c0,1.9,1.57,3.49,3.46,3.49s3.4-1.48,3.49-3.49h2.09c-.15,3.26-2.44,5.58-5.58,5.58s-5.55-2.5-5.55-5.58Z"/>
        <path d="m555.21,464.75v-8.67h-1.71v-2.08h1.71v-5.99h2.08v5.99h2.92v2.08h-2.92v8.67c0,.95.74,1.72,1.71,1.72h.53v2.08h-.53c-2.12,0-3.8-1.67-3.8-3.8Z"/>
        <path d="m563.67,463.13v-3.7c0-3.09,2.5-5.59,5.55-5.59s5.58,2.5,5.58,5.59v2.1h-9.04v1.6c0,1.89,1.57,3.49,3.46,3.49,1.01,0,1.86-.38,2.55-1.12l1.48,1.51c-1.06,1.15-2.48,1.7-4.02,1.7-3.05,0-5.55-2.5-5.55-5.58Zm9.04-3.61c0-2.05-1.57-3.59-3.46-3.59-2.01,0-3.4,1.48-3.49,3.59h6.96Z"/>
        <path d="m578.82,463.01v-3.43c0-3.08,2.5-5.58,5.58-5.58,1.33,0,2.51.44,3.49,1.35v-7.34h2.06v20.54h-2.06v-1.35c-.98.91-2.13,1.35-3.49,1.35-3.08,0-5.58-2.5-5.58-5.55Zm9.07,0v-3.43c0-1.89-1.6-3.49-3.49-3.49s-3.49,1.6-3.49,3.49v3.43c0,1.89,1.6,3.46,3.49,3.46s3.49-1.57,3.49-3.46Z"/>
        <path d="m123.96,489.15h2.06v7.34c.98-.91,2.16-1.35,3.49-1.35,3.08,0,5.58,2.5,5.58,5.58v3.43c0,3.05-2.5,5.55-5.58,5.55-1.36,0-2.51-.44-3.49-1.35v1.35h-2.06v-20.54Zm9.04,15v-3.43c0-1.89-1.6-3.49-3.49-3.49s-3.49,1.6-3.49,3.49v3.43c0,1.89,1.6,3.46,3.49,3.46s3.49-1.57,3.49-3.46Z"/>
        <path d="m140.1,513.47c1.27-.06,2.04-.5,2.36-1.36l1.06-2.95-5.11-14.03h2.27l3.9,11.04,4.01-11.04h2.24l-6.41,17.66c-.68,1.8-2.18,2.8-4.34,2.89v-2.21Z"/>
        <path d="m164.08,505.9v-8.67h-1.71v-2.08h1.71v-5.99h2.08v5.99h2.92v2.08h-2.92v8.67c0,.95.74,1.72,1.71,1.72h.53v2.08h-.53c-2.12,0-3.8-1.67-3.8-3.8Z"/>
        <path d="m172.89,489.15h2.09v7.34c.98-.91,2.16-1.35,3.49-1.35,3.05,0,5.55,2.5,5.55,5.57v8.99h-2.08v-8.99c0-1.89-1.57-3.49-3.46-3.49s-3.49,1.6-3.49,3.49v8.99h-2.09v-20.55Z"/>
        <path d="m188.3,504.27v-3.7c0-3.09,2.5-5.59,5.55-5.59s5.58,2.5,5.58,5.59v2.1h-9.04v1.6c0,1.89,1.57,3.49,3.46,3.49,1.01,0,1.86-.38,2.55-1.12l1.48,1.51c-1.06,1.15-2.48,1.7-4.02,1.7-3.05,0-5.55-2.5-5.55-5.58Zm9.04-3.61c0-2.05-1.57-3.59-3.46-3.59-2.01,0-3.4,1.48-3.49,3.59h6.96Z"/>
        <path d="m217.72,491.42h-5.7v-2.26h13.7v2.26h-5.73v18.28h-2.26v-18.28Z"/>
        <path d="m230.09,504.15v-9.02h2.08v9.02c0,1.89,1.57,3.46,3.46,3.46s3.49-1.57,3.49-3.46v-9.02h2.09v14.56h-2.09v-1.35c-.98.91-2.13,1.35-3.46,1.35-3.08,0-5.58-2.5-5.58-5.54Zm2.09-14.08h2.47v2.47h-2.47v-2.47Zm4.53,0h2.47v2.47h-2.47v-2.47Z"/>
        <path d="m246.01,495.14h2.08v1.35c.97-.91,2.13-1.35,3.46-1.35,1.51,0,2.84.56,3.99,1.64l-1.51,1.53c-.68-.74-1.51-1.09-2.48-1.09-1.89,0-3.46,1.6-3.46,3.49v8.99h-2.08v-14.56Z"/>
        <path d="m259,489.15h2.09v14.23l7.06-8.24h2.66l-4.9,5.7,5.08,8.86h-2.48l-4.02-7.24-3.4,3.96v3.28h-2.09v-20.55Z"/>
        <path d="m274.52,489.16h2.47v2.47h-2.47v-2.47Zm.18,5.98h2.08v14.57h-2.08v-14.57Z"/>
        <path d="m282.18,513.47c1.27-.06,2.04-.5,2.36-1.36l1.06-2.95-5.11-14.03h2.27l3.9,11.04,4.01-11.04h2.24l-6.41,17.66c-.68,1.8-2.18,2.8-4.34,2.89v-2.21Z"/>
        <path d="m296.24,504.27v-3.7c0-3.09,2.5-5.59,5.55-5.59s5.58,2.5,5.58,5.59v2.1h-9.04v1.6c0,1.89,1.57,3.49,3.46,3.49,1.01,0,1.86-.38,2.55-1.12l1.48,1.51c-1.06,1.15-2.48,1.7-4.02,1.7-3.05,0-5.55-2.5-5.55-5.58Zm9.04-3.61c0-2.05-1.57-3.59-3.46-3.59-2.01,0-3.4,1.48-3.49,3.59h6.96Z"/>
        <path d="m311.46,498.27h13.7v2.26h-13.7v-2.26Z"/>
        <path d="m328.88,505.66l2.09-.8c1.09,1.86,2.57,2.78,4.49,2.78,2.04,0,3.49-1.45,3.49-3.57,0-1.54-.83-2.6-2.81-3.46l-2.9-1.27c-2.71-1.18-3.92-2.81-3.92-5.05,0-3.1,2.38-5.34,5.67-5.34,2.96,0,5.17,1.35,6.67,4.09l-2.06.92c-1.09-1.8-2.69-2.75-4.58-2.75-2.01,0-3.43,1.24-3.43,2.98,0,1.33.68,2.21,2.54,3.01l3.05,1.33c2.83,1.27,4.04,2.95,4.04,5.55,0,3.43-2.41,5.81-5.84,5.81-2.81,0-4.99-1.41-6.49-4.24Z"/>
        <path d="m346.5,513.47c1.27-.06,2.04-.5,2.36-1.36l1.06-2.95-5.11-14.03h2.27l3.9,11.04,4.01-11.04h2.24l-6.41,17.66c-.68,1.8-2.18,2.8-4.34,2.89v-2.21Z"/>
        <path d="m360.95,495.14h2.08v1.35c.97-.91,2.13-1.35,3.46-1.35,1.51,0,2.84.56,3.99,1.64l-1.51,1.53c-.68-.74-1.51-1.09-2.48-1.09-1.89,0-3.46,1.6-3.46,3.49v8.99h-2.08v-14.56Z"/>
        <path d="m373.78,489.16h2.47v2.47h-2.47v-2.47Zm.18,5.98h2.08v14.57h-2.08v-14.57Z"/>
        <path d="m380.32,505.42c0-2.37,1.91-4.28,4.28-4.28h4.77v-.56c0-1.9-1.6-3.51-3.49-3.51-1.39,0-2.63.86-3.2,2.17l-1.94-.8c.94-2.16,2.89-3.45,5.17-3.45,3.11,0,5.55,2.5,5.55,5.59v9.11h-2.11v-1.79c-.89,1.2-2.04,1.79-3.49,1.79h-1.24c-2.37,0-4.28-1.91-4.28-4.27Zm5.52,2.19c2.01,0,3.52-1.89,3.52-4.38h-4.77c-1.21,0-2.19.98-2.19,2.19s.98,2.19,2.19,2.19h1.24Z"/>
        <path d="m404.24,504.27v-3.7c0-3.09,2.5-5.59,5.55-5.59s5.58,2.5,5.58,5.59v2.1h-9.04v1.6c0,1.89,1.57,3.49,3.46,3.49,1.01,0,1.86-.38,2.55-1.12l1.48,1.51c-1.06,1.15-2.48,1.7-4.02,1.7-3.05,0-5.55-2.5-5.55-5.58Zm9.04-3.61c0-2.05-1.57-3.59-3.46-3.59-2.01,0-3.4,1.48-3.49,3.59h6.96Z"/>
        <path d="m419.25,505.42c0-2.37,1.91-4.28,4.28-4.28h4.77v-.56c0-1.9-1.6-3.51-3.49-3.51-1.39,0-2.63.86-3.2,2.17l-1.94-.8c.94-2.16,2.89-3.45,5.17-3.45,3.11,0,5.55,2.5,5.55,5.59v9.11h-2.11v-1.79c-.89,1.2-2.04,1.79-3.49,1.79h-1.24c-2.37,0-4.28-1.91-4.28-4.27Zm5.52,2.19c2.01,0,3.52-1.89,3.52-4.38h-4.77c-1.21,0-2.19.98-2.19,2.19s.98,2.19,2.19,2.19h1.24Z"/>
        <path d="m435.05,495.14h2.08v1.35c.97-.91,2.13-1.35,3.46-1.35,1.51,0,2.84.56,3.99,1.64l-1.51,1.53c-.68-.74-1.51-1.09-2.48-1.09-1.89,0-3.46,1.6-3.46,3.49v8.99h-2.08v-14.56Z"/>
        <path d="m449.11,505.9v-8.67h-1.71v-2.08h1.71v-5.99h2.08v5.99h2.92v2.08h-2.92v8.67c0,.95.74,1.72,1.71,1.72h.53v2.08h-.53c-2.12,0-3.8-1.67-3.8-3.8Z"/>
        <path d="m457.93,489.15h2.09v7.34c.98-.91,2.16-1.35,3.49-1.35,3.05,0,5.55,2.5,5.55,5.57v8.99h-2.08v-8.99c0-1.89-1.57-3.49-3.46-3.49s-3.49,1.6-3.49,3.49v8.99h-2.09v-20.55Z"/>
        <path d="m482.4,508.35c-.98.91-2.16,1.35-3.49,1.35-3.08,0-5.58-2.5-5.58-5.58v-3.4c0-3.08,2.5-5.58,5.58-5.58,1.33,0,2.51.44,3.49,1.35v-1.35h2.06v20.55h-2.06v-7.35Zm0-4.22v-3.4c0-1.89-1.6-3.49-3.49-3.49s-3.49,1.6-3.49,3.49v3.4c0,1.89,1.6,3.49,3.49,3.49s3.49-1.6,3.49-3.49Z"/>
        <path d="m489.12,504.15v-9.02h2.08v9.02c0,1.89,1.57,3.46,3.46,3.46s3.49-1.57,3.49-3.46v-9.02h2.09v14.56h-2.09v-1.35c-.98.91-2.13,1.35-3.46,1.35-3.08,0-5.58-2.5-5.58-5.54Z"/>
        <path d="m504.53,505.42c0-2.37,1.91-4.28,4.28-4.28h4.77v-.56c0-1.9-1.6-3.51-3.49-3.51-1.39,0-2.63.86-3.2,2.17l-1.94-.8c.94-2.16,2.89-3.45,5.17-3.45,3.11,0,5.55,2.5,5.55,5.59v9.11h-2.11v-1.79c-.89,1.2-2.04,1.79-3.49,1.79h-1.24c-2.37,0-4.28-1.91-4.28-4.27Zm5.52,2.19c2.01,0,3.52-1.89,3.52-4.38h-4.77c-1.21,0-2.19.98-2.19,2.19s.98,2.19,2.19,2.19h1.24Z"/>
        <path d="m520.3,489.15h2.09v14.23l7.06-8.24h2.66l-4.9,5.7,5.08,8.86h-2.48l-4.02-7.24-3.4,3.96v3.28h-2.09v-20.55Z"/>
        <path d="m535.62,504.27v-3.7c0-3.09,2.5-5.59,5.55-5.59s5.58,2.5,5.58,5.59v2.1h-9.04v1.6c0,1.89,1.57,3.49,3.46,3.49,1.01,0,1.86-.38,2.55-1.12l1.48,1.51c-1.06,1.15-2.48,1.7-4.02,1.7-3.05,0-5.55-2.5-5.55-5.58Zm9.04-3.61c0-2.05-1.57-3.59-3.46-3.59-2.01,0-3.4,1.48-3.49,3.59h6.96Z"/>
        <path d="m550.26,506.84l1.88-.92c.68,1.18,1.92,1.89,2.95,1.89,1.18,0,2.09-.92,2.09-2.07,0-.98-.59-1.75-1.8-2.28l-1.53-.68c-2.35-1.04-3.26-2.43-3.26-3.97,0-2.19,1.88-3.83,4.18-3.83,2.09,0,3.9,1.12,4.82,3l-1.89.89c-.68-1.15-1.74-1.81-2.95-1.81s-2.07.77-2.07,1.81c0,.68.47,1.36,1.89,1.98l1.71.77c2.1.92,3.05,2.16,3.05,4.08,0,2.37-1.83,4.14-4.25,4.14-2.09,0-3.83-1.12-4.8-3.01Z"/>
        <path d="m563.57,507.23h2.47v2.47h-2.47v-2.47Z"/>
      </g>
      <g>
        <g>
          <path class="cls-5" d="m214.71,560.04v-6.14c0-3.22,2.62-5.79,5.8-5.79,2.63,0,4.92,1.74,5.6,4.29.12.5.17.83.2,1.5h-1.92c-.08-2.27-1.73-3.87-3.88-3.87s-3.88,1.72-3.88,3.87v6.14c0,2.1,1.73,3.88,3.88,3.88,1.6,0,3.03-.95,3.6-2.45.18-.48.28-.93.28-1.63v-.55h-3.88v-1.92h5.79v2.49c0,3.41-2.49,5.97-5.79,5.97s-5.8-2.62-5.8-5.8Z"/>
          <path class="cls-5" d="m229.33,561.07v-3.13c0-2.61,2.11-4.72,4.72-4.72s4.69,2.12,4.69,4.72v3.13c0,2.61-2.06,4.72-4.69,4.72s-4.72-2.12-4.72-4.72Zm7.65,0v-3.13c0-1.6-1.33-2.96-2.93-2.96s-2.96,1.35-2.96,2.96v3.13c0,1.6,1.35,2.96,2.96,2.96s2.93-1.35,2.93-2.96Z"/>
          <path class="cls-5" d="m249.68,562.44v-7.34h-1.45v-1.76h1.45v-5.07h1.76v5.07h2.47v1.76h-2.47v7.34c0,.8.62,1.45,1.45,1.45h.45v1.76h-.45c-1.8,0-3.21-1.42-3.21-3.22Z"/>
          <path class="cls-5" d="m256.4,561.07v-3.13c0-2.61,2.11-4.72,4.72-4.72s4.69,2.12,4.69,4.72v3.13c0,2.61-2.06,4.72-4.69,4.72s-4.72-2.12-4.72-4.72Zm7.65,0v-3.13c0-1.6-1.33-2.96-2.93-2.96s-2.96,1.35-2.96,2.96v3.13c0,1.6,1.35,2.96,2.96,2.96s2.93-1.35,2.93-2.96Z"/>
          <path class="cls-5" d="m276.06,560.04v-11.77h1.92v11.77c0,2.1,1.78,3.87,3.88,3.87s3.88-1.77,3.88-3.87v-11.77h1.92v11.77c0,3.17-2.57,5.79-5.8,5.79s-5.8-2.61-5.8-5.79Z"/>
          <path class="cls-5" d="m291.71,548.28h1.92l7.76,13.72v-13.72h1.92v17.39h-1.92l-7.76-13.71v13.71h-1.92v-17.39Z"/>
          <path class="cls-5" d="m307.32,548.28h1.92v7.71h7.76v-7.71h1.92v17.39h-1.92v-7.76h-7.76v7.76h-1.92v-17.39Z"/>
          <path class="cls-5" d="m322.5,560.04v-6.15c0-3.22,2.62-5.79,5.8-5.79,2.58,0,4.92,1.74,5.6,4.29.12.5.17.83.2,1.5h-1.94c-.08-2.27-1.68-3.87-3.86-3.87s-3.88,1.72-3.88,3.87v6.15c0,2.1,1.73,3.87,3.88,3.87s3.78-1.6,3.86-3.87h1.94c-.02.67-.07,1-.2,1.5-.67,2.55-3.02,4.29-5.6,4.29-3.18,0-5.8-2.61-5.8-5.79Z"/>
          <path class="cls-5" d="m337.68,548.28h6.17c3,0,5.42,2.42,5.42,5.42,0,2.2-1.37,4.22-3.44,5.02l3.44,6.95h-2.09l-3.28-6.57h-4.31v6.57h-1.92v-17.38Zm6.17,8.9c1.93,0,3.5-1.58,3.5-3.5s-1.58-3.48-3.5-3.48h-4.26v6.98h4.26Z"/>
          <path class="cls-5" d="m358.25,553.34h1.87l2.82,9.76,2.47-9.76h1.95l2.45,9.76,2.85-9.75h1.87l-3.85,12.32h-1.8l-2.5-9.63-2.5,9.63h-1.8l-3.85-12.32Z"/>
          <path class="cls-5" d="m376.92,561.07v-3.13c0-2.61,2.11-4.73,4.69-4.73s4.72,2.12,4.72,4.73v1.78h-7.65v1.35c0,1.6,1.33,2.96,2.93,2.96.85,0,1.58-.33,2.15-.95l1.25,1.28c-.9.97-2.1,1.44-3.4,1.44-2.58,0-4.69-2.12-4.69-4.72Zm7.65-3.05c0-1.73-1.33-3.04-2.93-3.04-1.7,0-2.88,1.25-2.96,3.04h5.89Z"/>
          <path class="cls-5" d="m389.6,548.28h1.74v6.21c.83-.77,1.83-1.14,2.95-1.14,2.6,0,4.72,2.11,4.72,4.72v2.9c0,2.58-2.11,4.69-4.72,4.69-1.15,0-2.13-.37-2.95-1.14v1.14h-1.74v-17.38Zm7.65,12.69v-2.9c0-1.6-1.35-2.95-2.95-2.95s-2.95,1.35-2.95,2.95v2.9c0,1.6,1.35,2.93,2.95,2.93s2.95-1.33,2.95-2.93Z"/>
          <path class="cls-5" d="m401.56,563.24l1.59-.78c.57,1,1.62,1.6,2.49,1.6,1,0,1.77-.78,1.77-1.75,0-.83-.5-1.48-1.52-1.93l-1.3-.58c-1.99-.88-2.76-2.05-2.76-3.36,0-1.85,1.59-3.24,3.54-3.24,1.77,0,3.3.94,4.08,2.54l-1.6.75c-.58-.98-1.47-1.53-2.5-1.53s-1.75.65-1.75,1.53c0,.58.4,1.15,1.6,1.68l1.45.65c1.78.78,2.58,1.83,2.58,3.46,0,2-1.55,3.5-3.6,3.5-1.77,0-3.24-.95-4.06-2.55Z"/>
          <path class="cls-5" d="m412.24,548.28h2.09v2.09h-2.09v-2.09Zm.15,5.06h1.76v12.32h-1.76v-12.32Z"/>
          <path class="cls-5" d="m418.65,562.44v-7.34h-1.45v-1.76h1.45v-5.07h1.76v5.07h2.47v1.76h-2.47v7.34c0,.8.62,1.45,1.45,1.45h.45v1.76h-.45c-1.8,0-3.21-1.42-3.21-3.22Z"/>
          <path class="cls-5" d="m425.38,561.07v-3.13c0-2.61,2.11-4.73,4.69-4.73s4.72,2.12,4.72,4.73v1.78h-7.65v1.35c0,1.6,1.33,2.96,2.93,2.96.85,0,1.58-.33,2.15-.95l1.25,1.28c-.9.97-2.1,1.44-3.4,1.44-2.58,0-4.69-2.12-4.69-4.72Zm7.65-3.05c0-1.73-1.33-3.04-2.93-3.04-1.7,0-2.88,1.25-2.96,3.04h5.89Z"/>
        </g>
        <g>
          <polygon class="cls-5" points="476.68 559.8 476.68 564.25 462.43 564.25 462.43 550 466.88 550 466.88 548.22 460.64 548.22 460.64 566.03 478.46 566.03 478.46 559.8 476.68 559.8"/>
          <polygon class="cls-5" points="472.22 548.22 472.22 550 475.42 550 468.92 556.5 470.18 557.76 476.68 551.26 476.68 554.45 478.46 554.45 478.46 548.22 472.22 548.22"/>
        </g>
      </g>
    </g>
    <g>
      <g>
        <rect class="cls-5" x="164.95" y="123.97" width="156.19" height="156.19"/>
        <rect class="cls-1" x="280.05" y="145.34" width="9.86" height="49.34"/>
        <g>
          <path class="cls-1" d="m217.56,178.24c0,9.06-7.35,16.44-16.43,16.44s-16.45-7.38-16.45-16.44v-32.9h9.88v32.9c0,3.63,2.93,6.59,6.57,6.59s6.55-2.96,6.55-6.59v-32.9h9.88v32.9Z"/>
          <polygon class="cls-1" points="263.59 258.8 230.72 258.8 230.72 209.46 240.57 209.46 240.57 248.92 263.59 248.92 263.59 258.8"/>
          <polygon class="cls-1" points="263.59 194.68 253.72 194.68 240.57 166.48 240.57 194.68 230.72 194.68 230.72 145.34 240.57 145.34 253.72 173.53 253.72 145.34 263.59 145.34 263.59 194.68"/>
          <path class="cls-1" d="m201.13,209.46c-9.1,0-16.45,7.37-16.45,16.46v16.43c0,9.07,7.35,16.44,16.45,16.44,1.07,0,2.15-.09,3.19-.29l3.35,10.17h9.88l-4.87-14.63c3.01-3,4.87-7.1,4.87-11.69v-16.43c0-9.09-7.35-16.46-16.43-16.46m6.55,32.9c0,3.62-2.91,6.56-6.55,6.56s-6.57-2.95-6.57-6.56v-16.43c0-3.64,2.93-6.56,6.57-6.56s6.55,2.92,6.55,6.56v16.43Z"/>
          <path class="cls-1" d="m284.99,209.46c-9.1,0-16.47,7.37-16.47,16.46v16.43c0,9.07,7.37,16.44,16.47,16.44s16.42-7.37,16.42-16.44v-16.43c0-9.09-7.36-16.46-16.42-16.46m6.56,32.9c0,3.62-2.96,6.56-6.56,6.56s-6.59-2.95-6.59-6.56v-16.43c0-3.64,2.94-6.56,6.59-6.56s6.56,2.92,6.56,6.56v16.43Z"/>
        </g>
      </g>
      <line class="cls-3" x1="351.16" y1="104.8" x2="351.16" y2="280.16"/>
      <g>
        <g>
          <path class="cls-2" d="m404.75,255.53c0,7.68-4.15,11.36-12.6,11.36s-12.65-3.68-12.65-11.36v-16.98h8.53v15.08c0,2.83,0,6.36,4.15,6.36s4.03-3.53,4.03-6.36v-15.08h8.53v16.98"/>
          <polygon class="cls-2" points="409.87 238.55 418.6 238.55 426.66 253.36 426.74 253.36 426.74 238.55 434.81 238.55 434.81 266.23 426.51 266.23 418.02 251.11 417.94 251.11 417.94 266.23 409.87 266.23 409.87 238.55"/>
          <polygon class="cls-2" points="440.04 238.55 448.57 238.55 448.57 248.17 456.56 248.17 456.56 238.55 465.09 238.55 465.09 266.23 456.56 266.23 456.56 255.26 448.57 255.26 448.57 266.23 440.04 266.23 440.04 238.55"/>
          <path class="cls-2" d="m486.93,248.86c-.16-1.01-.93-4.07-4.46-4.07-3.99,0-5.27,3.88-5.27,7.6s1.28,7.6,5.27,7.6c2.87,0,4-2.02,4.5-4.61h8.38c0,5.58-4.54,11.52-12.64,11.52-8.96,0-14.04-6.32-14.04-14.5,0-8.73,5.51-14.5,14.04-14.5,7.6.04,11.79,4.03,12.52,10.97h-8.3"/>
          <path class="cls-2" d="m507.44,245.14h4c3.26,0,4.23,1.01,4.23,2.76,0,2.48-2.17,2.75-3.76,2.75h-4.46v-5.51Zm-8.53,21.1h8.53v-9.65h4.54c3.37,0,3.6,2.75,3.84,5.39.11,1.43.27,2.87.7,4.26h8.53c-.78-1.28-.81-4.57-.93-5.93-.31-3.45-1.74-6.01-4.07-6.9,2.83-1.05,4.15-4.07,4.15-6.94,0-5.24-4.19-7.91-9.04-7.91h-16.25v27.69"/>
          <polygon class="cls-2" points="382.28 272.6 379.5 272.6 379.5 270.88 387.1 270.88 387.1 272.6 384.32 272.6 384.32 280.16 382.28 280.16 382.28 272.6"/>
          <path class="cls-2" d="m387.74,270.88h1.85v3.5h.04c.47-.75,1.28-1.12,1.96-1.12,1.96,0,2.46,1.1,2.46,2.77v4.13h-1.85v-3.8c0-1.1-.32-1.65-1.18-1.65-1,0-1.43.56-1.43,1.92v3.52h-1.85v-9.28"/>
          <path class="cls-2" d="m396.68,277.25c.05,1.17.62,1.7,1.65,1.7.74,0,1.34-.45,1.46-.87h1.62c-.52,1.59-1.62,2.26-3.14,2.26-2.12,0-3.43-1.46-3.43-3.53s1.39-3.55,3.43-3.55c2.29,0,3.39,1.92,3.26,3.99h-4.85Zm3-1.17c-.17-.94-.57-1.43-1.47-1.43-1.17,0-1.51.91-1.53,1.43h3"/>
          <path class="cls-2" d="m413.51,276.65c0,2.51-1.48,3.73-3.96,3.73s-3.95-1.21-3.95-3.73v-5.77h2.04v5.77c0,1.01.26,2.01,1.91,2.01,1.46,0,1.92-.64,1.92-2.01v-5.77h2.04v5.77"/>
          <polygon class="cls-2" points="414.87 270.88 416.9 270.88 420.77 277.11 420.8 277.11 420.8 270.88 422.71 270.88 422.71 280.16 420.67 280.16 416.81 273.95 416.78 273.95 416.78 280.16 414.87 280.16 414.87 270.88"/>
          <path class="cls-2" d="m429.19,272.47h2.23c.91,0,1.4.39,1.4,1.29s-.49,1.33-1.4,1.33h-2.23v-2.61Zm-2.04,7.69h2.04v-3.63h2.04c1.03,0,1.4.43,1.55,1.4.1.74.08,1.64.33,2.22h2.04c-.36-.52-.35-1.61-.39-2.2-.07-.94-.35-1.91-1.35-2.17v-.03c1.03-.42,1.47-1.24,1.47-2.33,0-1.4-1.05-2.56-2.72-2.56h-5v9.28"/>
          <path class="cls-2" d="m437.62,276.08c.03-.52.36-1.43,1.53-1.43.9,0,1.3.49,1.47,1.43h-3Zm4.85,1.17c.13-2.07-.97-3.99-3.26-3.99-2.04,0-3.43,1.53-3.43,3.55s1.31,3.54,3.43,3.54c1.52,0,2.62-.68,3.14-2.26h-1.62c-.12.42-.72.87-1.46.87-1.03,0-1.6-.53-1.65-1.7h4.85"/>
          <path class="cls-2" d="m443.69,274.68h-1.11v-1.23h1.11v-.52c0-1.18.74-2.04,2.25-2.04.33,0,.66.04.97.05v1.38c-.22-.03-.44-.04-.68-.04-.49,0-.7.21-.7.77v.4h1.27v1.23h-1.27v5.48h-1.84v-5.48"/>
          <path class="cls-2" d="m453.68,280.16h-1.75v-.94h-.04c-.47.75-1.27,1.12-2.05,1.12-1.96,0-2.46-1.11-2.46-2.77v-4.13h1.85v3.79c0,1.11.32,1.65,1.18,1.65,1,0,1.43-.56,1.43-1.92v-3.52h1.85v6.72"/>
          <path class="cls-2" d="m457.92,278.58c-1.13,0-1.49-1.05-1.49-2.01s.45-1.91,1.49-1.91c1.2,0,1.57.97,1.57,2.06,0,.96-.52,1.86-1.57,1.86m3.33-5.13h-1.75v.9h-.02c-.44-.78-1.12-1.08-2-1.08-1.88,0-2.88,1.58-2.88,3.32,0,1.85.86,3.38,2.87,3.38.8,0,1.61-.34,2.01-1.04h.02v.88c.01.96-.45,1.66-1.48,1.66-.65,0-1.21-.23-1.38-.92h-1.83c.09,1.53,1.64,2.16,2.96,2.16,3.09,0,3.48-1.87,3.48-2.98v-6.29"/>
          <path class="cls-2" d="m464.02,276.08c.02-.52.36-1.43,1.53-1.43.9,0,1.3.49,1.47,1.43h-3Zm4.85,1.17c.13-2.07-.98-3.99-3.26-3.99-2.04,0-3.43,1.53-3.43,3.55s1.31,3.54,3.43,3.54c1.52,0,2.63-.68,3.14-2.26h-1.62c-.12.42-.72.87-1.46.87-1.03,0-1.6-.53-1.65-1.7h4.85"/>
          <path class="cls-2" d="m471.24,276.08c.03-.52.36-1.43,1.53-1.43.9,0,1.3.49,1.47,1.43h-3Zm4.85,1.17c.13-2.07-.97-3.99-3.26-3.99-2.04,0-3.43,1.53-3.43,3.55s1.31,3.54,3.43,3.54c1.52,0,2.62-.68,3.15-2.26h-1.63c-.12.42-.72.87-1.46.87-1.03,0-1.6-.53-1.65-1.7h4.85"/>
          <path class="cls-2" d="m484.54,273.17h.03l1.17,3.4h-2.4l1.21-3.4Zm-4.53,6.99h2.06l.73-2.07h3.47l.7,2.07h2.12l-3.47-9.28h-2.09l-3.52,9.28Z"/>
          <path class="cls-2" d="m492.54,278.58c-1.13,0-1.49-1.05-1.49-2.01s.46-1.91,1.49-1.91c1.2,0,1.57.97,1.57,2.06,0,.96-.52,1.86-1.57,1.86m3.33-5.13h-1.75v.9h-.03c-.44-.78-1.12-1.08-2-1.08-1.88,0-2.89,1.58-2.89,3.32,0,1.85.86,3.38,2.87,3.38.81,0,1.61-.34,2.01-1.04h.03v.88c.01.96-.46,1.66-1.48,1.66-.65,0-1.21-.23-1.38-.92h-1.83c.09,1.53,1.64,2.16,2.96,2.16,3.09,0,3.48-1.87,3.48-2.98v-6.29"/>
          <path class="cls-2" d="m498.63,276.08c.02-.52.36-1.43,1.53-1.43.9,0,1.3.49,1.47,1.43h-3Zm4.85,1.17c.13-2.07-.97-3.99-3.26-3.99-2.04,0-3.43,1.53-3.43,3.55s1.31,3.54,3.43,3.54c1.52,0,2.62-.68,3.14-2.26h-1.62c-.12.42-.72.87-1.46.87-1.03,0-1.6-.53-1.65-1.7h4.85"/>
          <path class="cls-2" d="m504.28,273.44h1.75v.94h.04c.47-.75,1.27-1.12,2.05-1.12,1.96,0,2.46,1.1,2.46,2.77v4.13h-1.85v-3.8c0-1.1-.32-1.65-1.18-1.65-1,0-1.43.56-1.43,1.92v3.52h-1.85v-6.72"/>
          <path class="cls-2" d="m516.28,275.81c-.12-.75-.6-1.16-1.36-1.16-1.18,0-1.57,1.19-1.57,2.18s.38,2.12,1.53,2.12c.86,0,1.35-.54,1.47-1.36h1.78c-.23,1.78-1.47,2.76-3.24,2.76-2.03,0-3.39-1.43-3.39-3.44s1.25-3.64,3.43-3.64c1.59,0,3.04.83,3.16,2.55h-1.81"/>
          <path class="cls-2" d="m522.24,281.01c-.4,1.08-1.04,1.52-2.31,1.52-.38,0-.75-.03-1.13-.06v-1.52c.35.03.71.08,1.08.06.64-.06.85-.73.64-1.26l-2.36-6.3h1.98l1.52,4.6h.03l1.47-4.6h1.91l-2.81,7.56"/>
          <g>
            <path class="cls-2" d="m455.97,199.3c1.32,0,1.15-.75,1.15-2.14v-6.77c0-1.4-.14-1.84.66-1.84,2.79,0,3.56-.26,3.56-2.74v-25.15c0-6.85-4.86-5.72-6.23-8.22-1.95-3.38,3.64-3.38,1.61-10.72-.51-1.66-1.82-2.69-4.34-2.69s-3.83,1.03-4.35,2.69c-2.02,7.34,3.56,7.34,1.62,10.72-1.37,2.5-6.23,1.37-6.23,8.22v25.15c0,2.49.76,2.74,3.56,2.74.79,0,.66.44.66,1.84v6.77c0,1.39-.16,2.14,1.16,2.14h7.16"/>
            <path class="cls-2" d="m433.85,144.72c-2.49,2.63-6.42,8.78-3.85,13.89,5.21,2,4.81-16.44,11.3-16.13,3.21,2.96-.96,11.65-2.25,15.49-1.61,4.71-2.88,14.61-5.93,19.39-2.56,3.99-.64,16.52-1.44,20.84-2.16,2.15-8.02.64-10.5.24,0-4.95-.64-8.86-1.44-16.76-.08-1.6-1.76-26.02-.4-28.98,2.8-6.15,18.12-17.88,20.2-20.12,1.84-1.99,8.33-8.62,10.82-8.62,1.76,1.2.72,3.99.32,5.11-2.48,6.15-13.23,12.21-16.83,15.65"/>
            <path class="cls-2" d="m471.2,144.72c2.4,2.63,6.33,8.78,3.85,13.89-5.29,2-4.89-16.44-11.38-16.13-3.12,2.96,1.04,11.65,2.32,15.49,1.6,4.71,2.89,14.61,5.93,19.39,2.49,3.99.64,16.52,1.36,20.84,2.24,2.15,8.02.64,10.58.24,0-4.95.56-8.86,1.37-16.76.16-1.6,1.84-26.02.48-28.98-2.8-6.15-18.11-17.88-20.2-20.12-1.92-1.99-8.34-8.62-10.83-8.62-1.84,1.2-.72,3.99-.32,5.11,2.49,6.15,13.23,12.21,16.83,15.65"/>
            <path class="cls-2" d="m411.58,136.45c-1.37,1.28-4.42,2.16-6.51,4.96-.8-1.52,1.28-5.2,3.77-7.36,1.85-1.52,5.47-4,6.51-4.24.81,1.84-2.09,4.64-3.77,6.64"/>
            <path class="cls-2" d="m407.33,146.44c-2.33,2.16-4.82,3.04-8.04,6.96-1.36-4.72-1.04-8.88-.4-11.68,1.13-3.68,2.98-7.76,6.11-9.04-.64,2.08-1.69,4.96-1.93,8.88-1.36,5.36-2.17,5.52-1.84,6.24.32,0,2.09-2.8,4.25-4.96,2.57-2.56,5.78-3.12,7.87-4.64-.32,1.04-2.17,4.32-6.02,8.23"/>
            <path class="cls-2" d="m396,168.6c-3.13-5.6-3.45-9.68-3.69-14.4.17-3.28,1.77-10.88,4.18-11.99-.72,6.87,1.13,7.52.4,13.2,0,.32-.81,6.24-.81,6.56.97-.16.09-5.44,11.09-13.03-2.41,4.16-1.29,5.44-5.62,10.95-5.06,4.96-5.78,9.84-5.55,8.72"/>
            <path class="cls-2" d="m400.42,173.88c-2.33,3.36-1.93,5.04-2.49,6.64-5.55-3.2-11.81-15.91-9.48-22.23,1.44,4.8,3.45,5.84,4.9,9.84,2.49,6,2.09,7.84,3.69,9.2-.32-3.12.72-6.8,1.77-9.52,1.53-2.32,2.73-5.36,3.86-6.4,1.2,4.4.32,8-2.25,12.48"/>
            <path class="cls-2" d="m405.4,184.75c0,4.88-.89,7.04-1.29,10.64-9.56-3.12-14.54-13.99-14.54-19.35,2.9,6.56,7.15,6.48,12.7,15.75.48-3.52-.97-.88-1.13-7.52.16-6.96,1.61-7.2,1.85-11.52,1.77,1.92,2.41,9.6,2.41,11.99"/>
            <path class="cls-2" d="m413.35,198.59c.73,3.6,1.04,7.84,1.6,10.96-5.45-2-6.83-.48-13.33-4.56-2.97-1.6-8.27-8.32-7.95-13.12,6.42,7.12,7.55,6.32,10.68,8.96,2.89,2.32,5.21,5.76,7.31,5.28.15-1.92-4.74-6.08-4.1-18.08,1.28,1.36,4.81,6.8,5.78,10.56"/>
            <path class="cls-2" d="m424.19,207.55c1.69,2.4,1.29,3.44,5.62,8.4-1.05.48-7.23,2.08-11.33,2.24-2.72,0-12.36-2.56-15.57-9.12,5.54,2.97,5.62,2.24,13.01,3.84,5.3,1.2,9.08,2.88,10.52,2.72-.32-.72-4.42-2.4-7.23-5.92-2.82-3.76-2.18-8-4.67-11.12,1.69-.48,8.27,7.2,9.64,8.96"/>
            <path class="cls-2" d="m493.02,136.45c1.29,1.28,4.42,2.16,6.43,4.96.89-1.52-1.28-5.2-3.77-7.36-1.76-1.52-5.38-4-6.51-4.24-.81,1.84,2.09,4.64,3.85,6.64"/>
            <path class="cls-2" d="m497.28,146.44c2.25,2.16,4.74,3.04,7.95,6.96,1.37-4.72,1.04-8.88.4-11.68-1.05-3.68-2.97-7.76-6.11-9.04.72,2.08,1.69,4.96,1.93,8.88,1.36,5.36,2.17,5.52,1.85,6.24-.32,0-2.09-2.8-4.26-4.96-2.49-2.56-5.7-3.12-7.87-4.64.32,1.04,2.25,4.32,6.1,8.23"/>
            <path class="cls-2" d="m508.53,168.6c3.21-5.6,3.45-9.68,3.69-14.4-.16-3.28-1.77-10.88-4.09-11.99.64,6.87-1.21,7.52-.41,13.2,0,.32.73,6.24.73,6.56-.88-.16-.08-5.44-11-13.03,2.33,4.16,1.2,5.44,5.54,10.95,5.14,4.96,5.78,9.84,5.55,8.72"/>
            <path class="cls-2" d="m504.19,173.88c2.25,3.36,1.84,5.04,2.41,6.64,5.54-3.2,11.89-15.91,9.48-22.23-1.37,4.8-3.46,5.84-4.82,9.84-2.57,6-2.17,7.84-3.69,9.2.32-3.12-.8-6.8-1.85-9.52-1.45-2.32-2.73-5.36-3.86-6.4-1.13,4.4-.32,8,2.33,12.48"/>
            <path class="cls-2" d="m499.12,184.75c0,4.88.96,7.04,1.37,10.64,9.48-3.12,14.54-13.99,14.54-19.35-2.98,6.56-7.15,6.48-12.77,15.75-.48-3.52.96-.88,1.13-7.52-.16-6.96-1.61-7.2-1.85-11.52-1.77,1.92-2.41,9.6-2.41,11.99"/>
            <path class="cls-2" d="m491.18,198.59c-.72,3.6-.96,7.84-1.53,10.96,5.38-2,6.75-.48,13.26-4.56,2.97-1.6,8.35-8.32,8.03-13.12-6.43,7.12-7.63,6.32-10.68,8.96-2.89,2.32-5.3,5.76-7.39,5.28-.16-1.92,4.74-6.08,4.18-18.08-1.36,1.36-4.9,6.8-5.87,10.56"/>
            <path class="cls-2" d="m480.33,207.55c-1.6,2.4-1.21,3.44-5.62,8.4,1.13.48,7.23,2.08,11.41,2.24,2.65,0,12.29-2.56,15.5-9.12-5.54,2.97-5.62,2.24-13.01,3.84-5.3,1.2-9,2.88-10.52,2.72.31-.72,4.5-2.4,7.22-5.92,2.81-3.76,2.17-8,4.74-11.12-1.77-.48-8.35,7.2-9.72,8.96"/>
            <path class="cls-2" d="m438.57,230.11l-1.6-.8s10.2-12.4,27.71-11.44c17.5.96,16.3,5.04,25.7,4.4,1.04-.08-.8,1.28-.8,1.28,0,0-9.16,3.52-20.48-.32-11.25-3.84-18.56-6.16-30.52,6.88"/>
            <path class="cls-2" d="m466.27,230.11l1.61-.8s-10.12-12.4-27.63-11.44c-17.59.96-16.38,5.04-25.78,4.4-1.04-.08.81,1.28.81,1.28,0,0,9.16,3.52,20.49-.32,11.32-3.84,18.63-6.16,30.51,6.88"/>
          </g>
        </g>
        <g>
          <path class="cls-4" d="m414.79,114.16v-9.36h1.17v9.36h-1.17Z"/>
          <path class="cls-4" d="m422.71,114.16v-4.43c0-1.19-.6-1.57-1.52-1.57-.83,0-1.61.51-2.01,1.05v4.95h-1.05v-6.78h1.05v.98c.48-.56,1.4-1.15,2.41-1.15,1.42,0,2.16.72,2.16,2.19v4.76h-1.05Z"/>
          <path class="cls-4" d="m428.9,113.26l.55-.76c.45.52,1.31.97,2.23.97,1.04,0,1.6-.49,1.6-1.16,0-.74-.83-.94-1.74-1.16-1.15-.27-2.46-.58-2.46-1.98,0-1.05.91-1.95,2.53-1.95,1.15,0,1.96.43,2.51.98l-.49.73c-.41-.49-1.15-.86-2.02-.86-.93,0-1.5.46-1.5,1.07,0,.65.77.83,1.66,1.04,1.18.27,2.54.6,2.54,2.11,0,1.14-.91,2.05-2.67,2.05-1.11,0-2.05-.34-2.74-1.07Z"/>
          <path class="cls-4" d="m440.52,114.16v-.95c-.52.59-1.4,1.12-2.41,1.12-1.42,0-2.16-.69-2.16-2.16v-4.79h1.05v4.46c0,1.19.6,1.54,1.52,1.54.83,0,1.61-.48,2.01-1.02v-4.98h1.05v6.78h-1.05Z"/>
          <path class="cls-4" d="m444.7,113.14v3.61h-1.05v-9.36h1.05v1.01c.49-.69,1.33-1.18,2.29-1.18,1.78,0,3.02,1.35,3.02,3.55s-1.23,3.56-3.02,3.56c-.93,0-1.74-.43-2.29-1.19Zm4.2-2.37c0-1.5-.81-2.61-2.18-2.61-.83,0-1.66.49-2.02,1.08v3.06c.36.59,1.19,1.1,2.02,1.1,1.36,0,2.18-1.12,2.18-2.62Z"/>
          <path class="cls-4" d="m452.75,113.14v3.61h-1.05v-9.36h1.05v1.01c.49-.69,1.33-1.18,2.29-1.18,1.78,0,3.02,1.35,3.02,3.55s-1.24,3.56-3.02,3.56c-.93,0-1.74-.43-2.29-1.19Zm4.2-2.37c0-1.5-.81-2.61-2.18-2.61-.83,0-1.66.49-2.02,1.08v3.06c.37.59,1.19,1.1,2.02,1.1,1.36,0,2.18-1.12,2.18-2.62Z"/>
          <path class="cls-4" d="m459.38,110.76c0-1.96,1.29-3.55,3.35-3.55s3.35,1.59,3.35,3.55-1.29,3.56-3.35,3.56-3.35-1.6-3.35-3.56Zm5.6,0c0-1.38-.8-2.61-2.25-2.61s-2.26,1.24-2.26,2.61.81,2.62,2.26,2.62,2.25-1.24,2.25-2.62Z"/>
          <path class="cls-4" d="m467.78,114.16v-6.78h1.05v1.09c.55-.72,1.33-1.24,2.26-1.24v1.08c-.13-.03-.25-.04-.42-.04-.65,0-1.53.53-1.84,1.08v4.8h-1.05Z"/>
          <path class="cls-4" d="m473.06,112.74v-4.43h-1.12v-.93h1.12v-1.85h1.05v1.85h1.38v.93h-1.38v4.21c0,.51.22.87.69.87.3,0,.58-.13.72-.28l.31.79c-.27.25-.65.43-1.26.43-1,0-1.5-.58-1.5-1.59Z"/>
          <path class="cls-4" d="m480.21,110.76c0-1.96,1.29-3.55,3.35-3.55s3.35,1.59,3.35,3.55-1.29,3.56-3.35,3.56-3.35-1.6-3.35-3.56Zm5.6,0c0-1.38-.8-2.61-2.25-2.61s-2.26,1.24-2.26,2.61.81,2.62,2.26,2.62,2.25-1.24,2.25-2.62Z"/>
          <path class="cls-4" d="m488.81,114.16v-5.85h-1.12v-.93h1.12v-.52c0-1.4.79-2.2,1.96-2.2.39,0,.76.07,1.02.24l-.27.79c-.17-.1-.36-.15-.6-.15-.69,0-1.07.48-1.07,1.33v.52h1.37v.93h-1.37v5.85h-1.05Z"/>
        </g>
      </g>
    </g>
    <g>
      <polygon class="cls-5" points="476.68 559.8 476.68 564.25 462.43 564.25 462.43 550 466.88 550 466.88 548.22 460.64 548.22 460.64 566.03 478.46 566.03 478.46 559.8 476.68 559.8"/>
      <polygon class="cls-5" points="472.22 548.22 472.22 550 475.42 550 468.92 556.5 470.18 557.76 476.68 551.26 476.68 554.45 478.46 554.45 478.46 548.22 472.22 548.22"/>
    </g>
  </g>
</svg>