<?xml version="1.0" encoding="UTF-8"?>
<svg id="_レイヤー_2" data-name="レイヤー 2" xmlns="http://www.w3.org/2000/svg" viewBox="0 0 918 212">
  <defs>
    <style>
      .cls-1 {
        fill: #fff;
      }

      .cls-2 {
        fill: none;
        stroke: #000;
        stroke-miterlimit: 10;
        stroke-width: .63px;
      }

      .cls-3 {
        fill: #0073c0;
      }

      .cls-4 {
        fill: #666;
      }

      .cls-5 {
        fill: red;
      }
    </style>
  </defs>
  <g id="_レイヤー_1-2" data-name="レイヤー 1">
    <g>
      <path d="m417.06,55.87v-8.54h1.39v8.54c0,1.52,1.29,2.81,2.82,2.81s2.82-1.29,2.82-2.81v-8.54h1.39v8.54c0,2.3-1.86,4.2-4.21,4.2s-4.21-1.9-4.21-4.2Z"/>
      <path d="m429.17,47.33h1.39l5.63,9.95v-9.95h1.39v12.62h-1.39l-5.63-9.96v9.96h-1.39v-12.62Z"/>
      <path d="m441.31,47.33h1.39v5.6h5.63v-5.6h1.39v12.62h-1.39v-5.63h-5.63v5.63h-1.39v-12.62Z"/>
      <path d="m453.22,55.87v-4.46c0-2.34,1.9-4.2,4.21-4.2,1.87,0,3.57,1.26,4.06,3.11.09.36.13.6.14,1.09h-1.41c-.05-1.65-1.22-2.81-2.8-2.81s-2.82,1.25-2.82,2.81v4.46c0,1.52,1.25,2.81,2.82,2.81s2.75-1.16,2.8-2.81h1.41c-.02.49-.05.73-.14,1.09-.49,1.85-2.19,3.11-4.06,3.11-2.31,0-4.21-1.9-4.21-4.2Z"/>
      <path d="m465.06,47.33h4.48c2.18,0,3.93,1.75,3.93,3.93,0,1.6-.99,3.07-2.5,3.64l2.5,5.04h-1.52l-2.38-4.77h-3.12v4.77h-1.39v-12.62Zm4.48,6.46c1.4,0,2.54-1.14,2.54-2.54s-1.14-2.52-2.54-2.52h-3.09v5.07h3.09Z"/>
      <path d="m476.74,58.43h1.51v1.52l-1.51,1.52v-3.04Z"/>
      <path d="m487.58,56.61v-2.27c0-1.89,1.53-3.43,3.42-3.43s3.41,1.54,3.41,3.43v2.27c0,1.89-1.5,3.43-3.41,3.43s-3.42-1.54-3.42-3.43Zm5.55,0v-2.27c0-1.16-.96-2.15-2.13-2.15s-2.14.98-2.14,2.15v2.27c0,1.16.98,2.15,2.14,2.15s2.13-.98,2.13-2.15Z"/>
      <path d="m497.69,56.54v-5.54h1.28v5.54c0,1.16.96,2.12,2.13,2.12s2.14-.96,2.14-2.12v-5.54h1.28v8.94h-1.28v-.83c-.6.56-1.31.83-2.13.83-1.89,0-3.42-1.54-3.42-3.41Z"/>
      <path d="m508.15,51.01h1.28v.83c.6-.56,1.31-.83,2.12-.83.92,0,1.74.34,2.45,1.01l-.93.94c-.42-.45-.92-.67-1.52-.67-1.16,0-2.12.98-2.12,2.14v5.52h-1.28v-8.94Z"/>
      <path d="m523.52,62.62l.87-.96c.45.45.96.69,1.56.69,1.16,0,2.14-.98,2.14-2.14v-1.08c-.6.56-1.33.83-2.14.83-1.89,0-3.42-1.54-3.42-3.42v-2.09c0-1.89,1.61-3.42,3.42-3.42,1,0,1.69.38,2.14.83v-.83h1.26v9.19c0,1.89-1.54,3.42-3.41,3.42-.94,0-1.76-.34-2.43-1.01Zm4.58-6.09v-2.09c0-1.16-.98-2.14-2.14-2.14s-2.14.98-2.14,2.14v2.09c0,1.16.98,2.14,2.14,2.14s2.14-.98,2.14-2.14Z"/>
      <path d="m532.96,57.61v-10.28h1.28v10.28c0,.58.47,1.05,1.05,1.05h.53v1.28h-.53c-1.31,0-2.33-1.03-2.33-2.33Z"/>
      <path d="m538.46,56.61v-2.27c0-1.89,1.53-3.43,3.42-3.43s3.41,1.54,3.41,3.43v2.27c0,1.89-1.5,3.43-3.41,3.43s-3.42-1.54-3.42-3.43Zm5.55,0v-2.27c0-1.16-.96-2.15-2.13-2.15s-2.14.98-2.14,2.15v2.27c0,1.16.98,2.15,2.14,2.15s2.13-.98,2.13-2.15Z"/>
      <path d="m548.67,47.33h1.26v4.51c.6-.56,1.33-.83,2.14-.83,1.89,0,3.42,1.53,3.42,3.42v2.11c0,1.87-1.54,3.41-3.42,3.41-.84,0-1.54-.27-2.14-.83v.83h-1.26v-12.62Zm5.55,9.21v-2.11c0-1.16-.98-2.14-2.14-2.14s-2.14.98-2.14,2.14v2.11c0,1.16.98,2.12,2.14,2.12s2.14-.96,2.14-2.12Z"/>
      <path d="m558.6,57.32c0-1.45,1.17-2.63,2.63-2.63h2.93v-.35c0-1.17-.98-2.15-2.14-2.15-.85,0-1.62.53-1.96,1.33l-1.19-.49c.58-1.33,1.77-2.12,3.17-2.12,1.91,0,3.41,1.54,3.41,3.44v5.6h-1.3v-1.1c-.54.74-1.25,1.1-2.14,1.1h-.76c-1.45,0-2.63-1.17-2.63-2.62Zm3.39,1.34c1.24,0,2.16-1.16,2.16-2.69h-2.93c-.75,0-1.34.6-1.34,1.34s.6,1.34,1.34,1.34h.76Z"/>
      <path d="m568.95,57.61v-10.28h1.28v10.28c0,.58.47,1.05,1.05,1.05h.53v1.28h-.53c-1.31,0-2.33-1.03-2.33-2.33Z"/>
      <path d="m580.61,51.01h1.26v.83c.6-.56,1.33-.83,2.14-.83,1.89,0,3.42,1.53,3.42,3.42v2.09c0,1.89-1.54,3.42-3.42,3.42-.82,0-1.54-.27-2.14-.83v4.51h-1.26v-12.62Zm5.55,5.51v-2.09c0-1.16-.98-2.14-2.14-2.14s-2.14.98-2.14,2.14v2.09c0,1.16.98,2.14,2.14,2.14s2.14-.98,2.14-2.14Z"/>
      <path d="m590.55,57.32c0-1.45,1.17-2.63,2.63-2.63h2.93v-.35c0-1.17-.98-2.15-2.14-2.15-.85,0-1.62.53-1.96,1.33l-1.19-.49c.58-1.33,1.77-2.12,3.17-2.12,1.91,0,3.41,1.54,3.41,3.44v5.6h-1.3v-1.1c-.54.74-1.25,1.1-2.14,1.1h-.76c-1.45,0-2.63-1.17-2.63-2.62Zm3.39,1.34c1.24,0,2.16-1.16,2.16-2.69h-2.93c-.75,0-1.34.6-1.34,1.34s.6,1.34,1.34,1.34h.76Z"/>
      <path d="m600.96,51.01h1.28v.83c.6-.56,1.31-.83,2.12-.83.92,0,1.74.34,2.45,1.01l-.93.94c-.42-.45-.92-.67-1.52-.67-1.16,0-2.12.98-2.12,2.14v5.52h-1.28v-8.94Z"/>
      <path d="m610.65,57.61v-5.32h-1.05v-1.28h1.05v-3.68h1.28v3.68h1.8v1.28h-1.8v5.32c0,.58.45,1.05,1.05,1.05h.33v1.28h-.33c-1.3,0-2.33-1.03-2.33-2.33Z"/>
      <path d="m616.82,51.01h1.28v.83c.6-.56,1.31-.83,2.13-.83,1.89,0,3.43,1.53,3.43,3.42v5.52h-1.28v-5.52c0-1.16-.96-2.14-2.13-2.14s-2.15.98-2.15,2.14v5.52h-1.28v-8.94Z"/>
      <path d="m626.94,56.62v-2.27c0-1.89,1.53-3.43,3.41-3.43s3.42,1.54,3.42,3.43v1.29h-5.55v.98c0,1.16.96,2.15,2.13,2.15.62,0,1.14-.24,1.56-.69l.91.93c-.65.7-1.52,1.05-2.47,1.05-1.87,0-3.41-1.54-3.41-3.43Zm5.55-2.22c0-1.26-.96-2.2-2.13-2.2-1.24,0-2.09.91-2.14,2.2h4.27Z"/>
      <path d="m637.04,51.01h1.28v.83c.6-.56,1.31-.83,2.12-.83.92,0,1.74.34,2.45,1.01l-.93.94c-.42-.45-.92-.67-1.52-.67-1.16,0-2.12.98-2.12,2.14v5.52h-1.28v-8.94Z"/>
      <path d="m643.84,58.43h1.51v1.52l-1.51,1.52v-3.04Z"/>
      <path d="m417,77.07h1.28v.83c.6-.56,1.31-.83,2.13-.83,1.89,0,3.43,1.53,3.43,3.42v5.52h-1.28v-5.52c0-1.16-.96-2.14-2.13-2.14s-2.15.98-2.15,2.14v5.52h-1.28v-8.94Z"/>
      <path d="m427.12,82.67v-2.27c0-1.89,1.54-3.43,3.41-3.43s3.43,1.54,3.43,3.43v1.29h-5.55v.98c0,1.16.96,2.15,2.13,2.15.62,0,1.15-.24,1.56-.69l.91.93c-.65.7-1.52,1.05-2.47,1.05-1.87,0-3.41-1.54-3.41-3.43Zm5.55-2.22c0-1.26-.96-2.2-2.13-2.2-1.24,0-2.09.91-2.15,2.2h4.27Z"/>
      <path d="m437.11,82.67v-2.27c0-1.89,1.54-3.43,3.41-3.43s3.43,1.54,3.43,3.43v1.29h-5.55v.98c0,1.16.96,2.15,2.13,2.15.62,0,1.15-.24,1.56-.69l.91.93c-.65.7-1.52,1.05-2.47,1.05-1.87,0-3.41-1.54-3.41-3.43Zm5.55-2.22c0-1.26-.96-2.2-2.13-2.2-1.24,0-2.09.91-2.15,2.2h4.27Z"/>
      <path d="m447.09,82.6v-2.11c0-1.89,1.54-3.42,3.42-3.42.82,0,1.54.27,2.14.83v-4.51h1.27v12.62h-1.27v-.83c-.6.56-1.31.83-2.14.83-1.89,0-3.42-1.54-3.42-3.41Zm5.57,0v-2.11c0-1.16-.98-2.14-2.14-2.14s-2.14.98-2.14,2.14v2.11c0,1.16.98,2.12,2.14,2.12s2.14-.96,2.14-2.12Z"/>
      <path d="m457.03,84.25l1.16-.56c.42.73,1.18,1.16,1.81,1.16.72,0,1.29-.56,1.29-1.27,0-.6-.36-1.07-1.11-1.4l-.94-.42c-1.45-.64-2.01-1.49-2.01-2.44,0-1.34,1.15-2.35,2.57-2.35,1.29,0,2.39.69,2.96,1.84l-1.16.54c-.42-.71-1.07-1.11-1.81-1.11s-1.27.47-1.27,1.11c0,.42.29.84,1.16,1.22l1.05.47c1.29.56,1.87,1.33,1.87,2.51,0,1.45-1.13,2.54-2.61,2.54-1.29,0-2.35-.69-2.95-1.85Z"/>
      <path d="m471.76,82.6v-5.54h1.28v5.54c0,1.16.96,2.12,2.13,2.12s2.14-.96,2.14-2.12v-5.54h1.28v8.94h-1.28v-.83c-.6.56-1.31.83-2.13.83-1.89,0-3.42-1.54-3.42-3.41Z"/>
      <path d="m482.21,77.07h1.28v.83c.6-.56,1.31-.83,2.12-.83.92,0,1.74.34,2.45,1.01l-.93.94c-.42-.45-.92-.67-1.52-.67-1.16,0-2.12.98-2.12,2.14v5.52h-1.28v-8.94Z"/>
      <path d="m491.54,88.67l.87-.96c.45.45.96.69,1.56.69,1.16,0,2.14-.98,2.14-2.14v-1.08c-.6.56-1.33.83-2.14.83-1.89,0-3.42-1.54-3.42-3.42v-2.09c0-1.89,1.61-3.42,3.42-3.42,1,0,1.69.38,2.14.83v-.83h1.26v9.19c0,1.89-1.54,3.42-3.41,3.42-.94,0-1.76-.34-2.43-1.01Zm4.58-6.09v-2.09c0-1.16-.98-2.14-2.14-2.14s-2.14.98-2.14,2.14v2.09c0,1.16.98,2.14,2.14,2.14s2.14-.98,2.14-2.14Z"/>
      <path d="m500.77,82.67v-2.27c0-1.89,1.53-3.43,3.41-3.43s3.42,1.54,3.42,3.43v1.29h-5.55v.98c0,1.16.96,2.15,2.13,2.15.62,0,1.14-.24,1.56-.69l.91.93c-.65.7-1.52,1.05-2.47,1.05-1.87,0-3.41-1.54-3.41-3.43Zm5.55-2.22c0-1.26-.96-2.2-2.13-2.2-1.24,0-2.09.91-2.14,2.2h4.27Z"/>
      <path d="m510.87,77.07h1.28v.83c.6-.56,1.31-.83,2.13-.83,1.89,0,3.43,1.53,3.43,3.42v5.52h-1.28v-5.52c0-1.16-.96-2.14-2.13-2.14s-2.15.98-2.15,2.14v5.52h-1.28v-8.94Z"/>
      <path d="m521.63,83.67v-5.32h-1.05v-1.28h1.05v-3.68h1.28v3.68h1.8v1.28h-1.8v5.32c0,.58.45,1.05,1.05,1.05h.33v1.28h-.33c-1.3,0-2.33-1.03-2.33-2.33Z"/>
      <path d="m533.14,84.25l1.16-.56c.42.73,1.18,1.16,1.81,1.16.72,0,1.29-.56,1.29-1.27,0-.6-.36-1.07-1.11-1.4l-.94-.42c-1.45-.64-2.01-1.49-2.01-2.44,0-1.34,1.15-2.35,2.57-2.35,1.29,0,2.39.69,2.96,1.84l-1.16.54c-.42-.71-1.07-1.11-1.81-1.11s-1.27.47-1.27,1.11c0,.42.29.84,1.16,1.22l1.05.47c1.29.56,1.87,1.33,1.87,2.51,0,1.45-1.13,2.54-2.61,2.54-1.29,0-2.35-.69-2.95-1.85Z"/>
      <path d="m541.97,82.6v-5.54h1.28v5.54c0,1.16.96,2.12,2.13,2.12s2.14-.96,2.14-2.12v-5.54h1.28v8.94h-1.28v-.83c-.6.56-1.31.83-2.13.83-1.89,0-3.42-1.54-3.42-3.41Z"/>
      <path d="m552.43,77.07h1.26v.83c.6-.56,1.33-.83,2.14-.83,1.89,0,3.42,1.53,3.42,3.42v2.09c0,1.89-1.54,3.42-3.42,3.42-.82,0-1.54-.27-2.14-.83v4.51h-1.26v-12.62Zm5.55,5.51v-2.09c0-1.16-.98-2.14-2.14-2.14s-2.14.98-2.14,2.14v2.09c0,1.16.98,2.14,2.14,2.14s2.14-.98,2.14-2.14Z"/>
      <path d="m562.64,77.07h1.26v.83c.6-.56,1.33-.83,2.14-.83,1.89,0,3.42,1.53,3.42,3.42v2.09c0,1.89-1.54,3.42-3.42,3.42-.82,0-1.54-.27-2.14-.83v4.51h-1.26v-12.62Zm5.55,5.51v-2.09c0-1.16-.98-2.14-2.14-2.14s-2.14.98-2.14,2.14v2.09c0,1.16.98,2.14,2.14,2.14s2.14-.98,2.14-2.14Z"/>
      <path d="m572.62,82.67v-2.27c0-1.89,1.53-3.43,3.42-3.43s3.41,1.54,3.41,3.43v2.27c0,1.89-1.5,3.43-3.41,3.43s-3.42-1.54-3.42-3.43Zm5.55,0v-2.27c0-1.16-.96-2.15-2.13-2.15s-2.14.98-2.14,2.15v2.27c0,1.16.98,2.15,2.14,2.15s2.13-.98,2.13-2.15Z"/>
      <path d="m582.84,77.07h1.28v.83c.6-.56,1.31-.83,2.12-.83.92,0,1.74.34,2.45,1.01l-.93.94c-.42-.45-.92-.67-1.52-.67-1.16,0-2.12.98-2.12,2.14v5.52h-1.28v-8.94Z"/>
      <path d="m592.53,83.67v-5.32h-1.05v-1.28h1.05v-3.68h1.28v3.68h1.8v1.28h-1.8v5.32c0,.58.45,1.05,1.05,1.05h.33v1.28h-.33c-1.3,0-2.33-1.03-2.33-2.33Z"/>
      <path d="m605.22,83.67v-5.32h-1.05v-1.28h1.05v-3.68h1.28v3.68h1.8v1.28h-1.8v5.32c0,.58.45,1.05,1.05,1.05h.33v1.28h-.33c-1.3,0-2.33-1.03-2.33-2.33Z"/>
      <path d="m611.04,82.67v-2.27c0-1.89,1.53-3.43,3.42-3.43s3.41,1.54,3.41,3.43v2.27c0,1.89-1.5,3.43-3.41,3.43s-3.42-1.54-3.42-3.43Zm5.55,0v-2.27c0-1.16-.96-2.15-2.13-2.15s-2.14.98-2.14,2.15v2.27c0,1.16.98,2.15,2.14,2.15s2.13-.98,2.13-2.15Z"/>
      <path d="m627.2,77.07h1.28v.83c.6-.56,1.31-.83,2.12-.83.92,0,1.74.34,2.45,1.01l-.93.94c-.42-.45-.92-.67-1.52-.67-1.16,0-2.12.98-2.12,2.14v5.52h-1.28v-8.94Z"/>
      <path d="m635.58,82.67v-2.27c0-1.89,1.53-3.43,3.41-3.43s3.42,1.54,3.42,3.43v1.29h-5.55v.98c0,1.16.96,2.15,2.13,2.15.62,0,1.14-.24,1.56-.69l.91.93c-.65.7-1.52,1.05-2.47,1.05-1.87,0-3.41-1.54-3.41-3.43Zm5.55-2.22c0-1.26-.96-2.2-2.13-2.2-1.24,0-2.09.91-2.14,2.2h4.27Z"/>
      <path d="m645.29,84.25l1.16-.56c.42.73,1.18,1.16,1.81,1.16.72,0,1.29-.56,1.29-1.27,0-.6-.36-1.07-1.11-1.4l-.94-.42c-1.45-.64-2.01-1.49-2.01-2.44,0-1.34,1.15-2.35,2.57-2.35,1.29,0,2.39.69,2.96,1.84l-1.16.54c-.42-.71-1.07-1.11-1.81-1.11s-1.27.47-1.27,1.11c0,.42.29.84,1.16,1.22l1.05.47c1.29.56,1.87,1.33,1.87,2.51,0,1.45-1.13,2.54-2.61,2.54-1.29,0-2.35-.69-2.95-1.85Z"/>
      <path d="m654.17,77.07h1.26v.83c.6-.56,1.33-.83,2.14-.83,1.89,0,3.42,1.53,3.42,3.42v2.09c0,1.89-1.54,3.42-3.42,3.42-.82,0-1.54-.27-2.14-.83v4.51h-1.26v-12.62Zm5.55,5.51v-2.09c0-1.16-.98-2.14-2.14-2.14s-2.14.98-2.14,2.14v2.09c0,1.16.98,2.14,2.14,2.14s2.14-.98,2.14-2.14Z"/>
      <path d="m664.16,82.67v-2.27c0-1.89,1.53-3.43,3.42-3.43s3.41,1.54,3.41,3.43v2.27c0,1.89-1.5,3.43-3.41,3.43s-3.42-1.54-3.42-3.43Zm5.55,0v-2.27c0-1.16-.96-2.15-2.13-2.15s-2.14.98-2.14,2.15v2.27c0,1.16.98,2.15,2.14,2.15s2.13-.98,2.13-2.15Z"/>
      <path d="m674.37,77.07h1.28v.83c.6-.56,1.31-.83,2.13-.83,1.89,0,3.43,1.53,3.43,3.42v5.52h-1.28v-5.52c0-1.16-.96-2.14-2.13-2.14s-2.15.98-2.15,2.14v5.52h-1.28v-8.94Z"/>
      <path d="m684.49,82.6v-2.11c0-1.89,1.53-3.42,3.42-3.42.82,0,1.54.27,2.14.83v-4.51h1.26v12.62h-1.26v-.83c-.6.56-1.31.83-2.14.83-1.89,0-3.42-1.54-3.42-3.41Zm5.57,0v-2.11c0-1.16-.98-2.14-2.14-2.14s-2.14.98-2.14,2.14v2.11c0,1.16.98,2.12,2.14,2.12s2.14-.96,2.14-2.12Z"/>
      <path d="m701.51,83.67v-5.32h-1.05v-1.28h1.05v-3.68h1.28v3.68h1.8v1.28h-1.8v5.32c0,.58.45,1.05,1.05,1.05h.33v1.28h-.33c-1.3,0-2.33-1.03-2.33-2.33Z"/>
      <path d="m707.32,82.67v-2.27c0-1.89,1.53-3.43,3.42-3.43s3.41,1.54,3.41,3.43v2.27c0,1.89-1.5,3.43-3.41,3.43s-3.42-1.54-3.42-3.43Zm5.55,0v-2.27c0-1.16-.96-2.15-2.13-2.15s-2.14.98-2.14,2.15v2.27c0,1.16.98,2.15,2.14,2.15s2.13-.98,2.13-2.15Z"/>
      <path d="m724.12,83.67v-5.32h-1.05v-1.28h1.05v-3.68h1.28v3.68h1.8v1.28h-1.8v5.32c0,.58.45,1.05,1.05,1.05h.33v1.28h-.33c-1.3,0-2.33-1.03-2.33-2.33Z"/>
      <path d="m730.29,73.39h1.28v4.51c.6-.56,1.33-.83,2.14-.83,1.87,0,3.41,1.53,3.41,3.42v5.52h-1.28v-5.52c0-1.16-.96-2.14-2.13-2.14s-2.14.98-2.14,2.14v5.52h-1.28v-12.62Z"/>
      <path d="m740.4,82.67v-2.27c0-1.89,1.53-3.43,3.41-3.43s3.42,1.54,3.42,3.43v1.29h-5.55v.98c0,1.16.96,2.15,2.13,2.15.62,0,1.14-.24,1.56-.69l.91.93c-.65.7-1.52,1.05-2.47,1.05-1.87,0-3.41-1.54-3.41-3.43Zm5.55-2.22c0-1.26-.96-2.2-2.13-2.2-1.24,0-2.09.91-2.14,2.2h4.27Z"/>
      <path d="m756.33,82.67v-2.27c0-1.89,1.53-3.43,3.41-3.43s3.42,1.54,3.42,3.43v1.29h-5.55v.98c0,1.16.96,2.15,2.13,2.15.62,0,1.14-.24,1.56-.69l.91.93c-.65.7-1.52,1.05-2.47,1.05-1.87,0-3.41-1.54-3.41-3.43Zm5.55-2.22c0-1.26-.96-2.2-2.13-2.2-1.24,0-2.09.91-2.14,2.2h4.27Z"/>
      <path d="m766.43,77.07h1.26v.87c.6-.58,1.31-.87,2.14-.87,1.11,0,2.2.56,2.79,1.43.65-.92,1.69-1.43,2.79-1.43,1.87,0,3.41,1.54,3.41,3.42v5.52h-1.26v-5.52c0-1.2-.98-2.16-2.14-2.16s-2.16.96-2.16,2.16v5.52h-1.27v-5.55c0-1.16-.98-2.12-2.14-2.12s-2.16.96-2.16,2.16v5.52h-1.26v-8.94Z"/>
      <path d="m782.11,82.67v-2.27c0-1.89,1.53-3.43,3.41-3.43s3.42,1.54,3.42,3.43v1.29h-5.55v.98c0,1.16.96,2.15,2.13,2.15.62,0,1.14-.24,1.56-.69l.91.93c-.65.7-1.52,1.05-2.47,1.05-1.87,0-3.41-1.54-3.41-3.43Zm5.55-2.22c0-1.26-.96-2.2-2.13-2.2-1.24,0-2.09.91-2.14,2.2h4.27Z"/>
      <path d="m792.22,77.07h1.28v.83c.6-.56,1.31-.83,2.12-.83.92,0,1.74.34,2.45,1.01l-.93.94c-.42-.45-.92-.67-1.52-.67-1.16,0-2.12.98-2.12,2.14v5.52h-1.28v-8.94Z"/>
      <path d="m801.55,88.67l.87-.96c.45.45.96.69,1.56.69,1.16,0,2.14-.98,2.14-2.14v-1.08c-.6.56-1.33.83-2.14.83-1.89,0-3.42-1.54-3.42-3.42v-2.09c0-1.89,1.61-3.42,3.42-3.42,1,0,1.69.38,2.14.83v-.83h1.26v9.19c0,1.89-1.54,3.42-3.41,3.42-.94,0-1.76-.34-2.43-1.01Zm4.58-6.09v-2.09c0-1.16-.98-2.14-2.14-2.14s-2.14.98-2.14,2.14v2.09c0,1.16.98,2.14,2.14,2.14s2.14-.98,2.14-2.14Z"/>
      <path d="m810.77,82.67v-2.27c0-1.89,1.53-3.43,3.41-3.43s3.42,1.54,3.42,3.43v1.29h-5.55v.98c0,1.16.96,2.15,2.13,2.15.62,0,1.14-.24,1.56-.69l.91.93c-.65.7-1.52,1.05-2.47,1.05-1.87,0-3.41-1.54-3.41-3.43Zm5.55-2.22c0-1.26-.96-2.2-2.13-2.2-1.24,0-2.09.91-2.14,2.2h4.27Z"/>
      <path d="m820.87,77.07h1.28v.83c.6-.56,1.31-.83,2.13-.83,1.89,0,3.43,1.53,3.43,3.42v5.52h-1.28v-5.52c0-1.16-.96-2.14-2.13-2.14s-2.15.98-2.15,2.14v5.52h-1.28v-8.94Z"/>
      <path d="m830.99,82.67v-2.27c0-1.89,1.53-3.43,3.41-3.43s3.33,1.43,3.42,3.43h-1.28c-.05-1.24-.95-2.15-2.14-2.15s-2.13.98-2.13,2.15v2.27c0,1.16.96,2.15,2.13,2.15s2.09-.91,2.14-2.15h1.28c-.09,2-1.5,3.43-3.42,3.43s-3.41-1.54-3.41-3.43Z"/>
      <path d="m841.35,88.32c.78-.04,1.25-.31,1.45-.83l.65-1.81-3.14-8.61h1.4l2.39,6.78,2.46-6.78h1.38l-3.93,10.84c-.42,1.11-1.34,1.72-2.66,1.78v-1.36Z"/>
      <path d="m417,103.13h1.28v.83c.6-.56,1.31-.83,2.13-.83,1.89,0,3.43,1.53,3.43,3.42v5.52h-1.28v-5.52c0-1.16-.96-2.14-2.13-2.14s-2.15.98-2.15,2.14v5.52h-1.28v-8.94Z"/>
      <path d="m427.12,108.73v-2.27c0-1.89,1.54-3.43,3.41-3.43s3.43,1.54,3.43,3.43v1.29h-5.55v.98c0,1.16.96,2.15,2.13,2.15.62,0,1.15-.24,1.56-.69l.91.93c-.65.7-1.52,1.05-2.47,1.05-1.87,0-3.41-1.54-3.41-3.43Zm5.55-2.22c0-1.26-.96-2.2-2.13-2.2-1.24,0-2.09.91-2.15,2.2h4.27Z"/>
      <path d="m437.11,108.73v-2.27c0-1.89,1.54-3.43,3.41-3.43s3.43,1.54,3.43,3.43v1.29h-5.55v.98c0,1.16.96,2.15,2.13,2.15.62,0,1.15-.24,1.56-.69l.91.93c-.65.7-1.52,1.05-2.47,1.05-1.87,0-3.41-1.54-3.41-3.43Zm5.55-2.22c0-1.26-.96-2.2-2.13-2.2-1.24,0-2.09.91-2.15,2.2h4.27Z"/>
      <path d="m447.09,108.66v-2.11c0-1.89,1.54-3.42,3.42-3.42.82,0,1.54.27,2.14.83v-4.51h1.27v12.62h-1.27v-.83c-.6.56-1.31.83-2.14.83-1.89,0-3.42-1.54-3.42-3.41Zm5.57,0v-2.11c0-1.16-.98-2.14-2.14-2.14s-2.14.98-2.14,2.14v2.11c0,1.16.98,2.12,2.14,2.12s2.14-.96,2.14-2.12Z"/>
      <path d="m457.03,110.31l1.16-.56c.42.73,1.18,1.16,1.81,1.16.72,0,1.29-.56,1.29-1.27,0-.6-.36-1.07-1.11-1.4l-.94-.42c-1.45-.64-2.01-1.49-2.01-2.44,0-1.34,1.15-2.35,2.57-2.35,1.29,0,2.39.69,2.96,1.84l-1.16.54c-.42-.71-1.07-1.11-1.81-1.11s-1.27.47-1.27,1.11c0,.42.29.84,1.16,1.22l1.05.47c1.29.56,1.87,1.33,1.87,2.51,0,1.45-1.13,2.54-2.61,2.54-1.29,0-2.35-.69-2.95-1.85Z"/>
      <path d="m471.6,108.73v-2.27c0-1.89,1.53-3.43,3.42-3.43s3.41,1.54,3.41,3.43v2.27c0,1.89-1.5,3.43-3.41,3.43s-3.42-1.54-3.42-3.43Zm5.55,0v-2.27c0-1.16-.96-2.15-2.13-2.15s-2.14.98-2.14,2.15v2.27c0,1.16.98,2.15,2.14,2.15s2.13-.98,2.13-2.15Z"/>
      <path d="m482.4,104.7h-1.05v-1.28h1.05v-1.64c0-1.31,1.03-2.33,2.33-2.33h1.05v1.28h-1.05c-.6,0-1.05.45-1.05,1.05v1.64h1.81v1.28h-1.81v7.37h-1.28v-7.37Z"/>
      <path d="m494.52,103.12h1.26v.87c.6-.58,1.31-.87,2.14-.87,1.11,0,2.2.56,2.79,1.43.65-.92,1.69-1.43,2.79-1.43,1.87,0,3.41,1.54,3.41,3.42v5.52h-1.26v-5.52c0-1.2-.98-2.16-2.14-2.16s-2.16.96-2.16,2.16v5.52h-1.27v-5.55c0-1.16-.98-2.12-2.14-2.12s-2.16.96-2.16,2.16v5.52h-1.26v-8.94Z"/>
      <path d="m510.33,99.45h1.51v1.51h-1.51v-1.51Zm.11,3.67h1.28v8.94h-1.28v-8.94Z"/>
      <path d="m515.3,109.73v-10.28h1.28v10.28c0,.58.47,1.05,1.05,1.05h.53v1.28h-.53c-1.31,0-2.33-1.03-2.33-2.33Z"/>
      <path d="m521.1,109.73v-10.28h1.28v10.28c0,.58.47,1.05,1.05,1.05h.53v1.28h-.53c-1.31,0-2.33-1.03-2.33-2.33Z"/>
      <path d="m526.86,99.45h1.51v1.51h-1.51v-1.51Zm.11,3.67h1.28v8.94h-1.28v-8.94Z"/>
      <path d="m531.59,108.73v-2.27c0-1.89,1.53-3.43,3.42-3.43s3.41,1.54,3.41,3.43v2.27c0,1.89-1.5,3.43-3.41,3.43s-3.42-1.54-3.42-3.43Zm5.55,0v-2.27c0-1.16-.96-2.15-2.13-2.15s-2.14.98-2.14,2.15v2.27c0,1.16.98,2.15,2.14,2.15s2.13-.98,2.13-2.15Z"/>
      <path d="m541.81,103.13h1.28v.83c.6-.56,1.31-.83,2.13-.83,1.89,0,3.43,1.53,3.43,3.42v5.52h-1.28v-5.52c0-1.16-.96-2.14-2.13-2.14s-2.15.98-2.15,2.14v5.52h-1.28v-8.94Z"/>
      <path d="m551.72,110.31l1.16-.56c.42.73,1.18,1.16,1.81,1.16.72,0,1.29-.56,1.29-1.27,0-.6-.36-1.07-1.11-1.4l-.94-.42c-1.45-.64-2.01-1.49-2.01-2.44,0-1.34,1.15-2.35,2.57-2.35,1.29,0,2.39.69,2.96,1.84l-1.16.54c-.42-.71-1.07-1.11-1.81-1.11s-1.27.47-1.27,1.11c0,.42.29.84,1.16,1.22l1.05.47c1.29.56,1.87,1.33,1.87,2.51,0,1.45-1.13,2.54-2.61,2.54-1.29,0-2.35-.69-2.95-1.85Z"/>
      <path d="m566.41,99.45h1.51v1.51h-1.51v-1.51Zm.11,3.67h1.28v8.94h-1.28v-8.94Z"/>
      <path d="m571.44,103.12h1.26v.87c.6-.58,1.31-.87,2.14-.87,1.11,0,2.2.56,2.79,1.43.65-.92,1.69-1.43,2.79-1.43,1.87,0,3.41,1.54,3.41,3.42v5.52h-1.26v-5.52c0-1.2-.98-2.16-2.14-2.16s-2.16.96-2.16,2.16v5.52h-1.27v-5.55c0-1.16-.98-2.12-2.14-2.12s-2.16.96-2.16,2.16v5.52h-1.26v-8.94Z"/>
      <path d="m587.39,103.13h1.26v.83c.6-.56,1.33-.83,2.14-.83,1.89,0,3.42,1.53,3.42,3.42v2.09c0,1.89-1.54,3.42-3.42,3.42-.82,0-1.54-.27-2.14-.83v4.51h-1.26v-12.62Zm5.55,5.51v-2.09c0-1.16-.98-2.14-2.14-2.14s-2.14.98-2.14,2.14v2.09c0,1.16.98,2.14,2.14,2.14s2.14-.98,2.14-2.14Z"/>
      <path d="m597.32,109.44c0-1.45,1.17-2.63,2.63-2.63h2.93v-.35c0-1.17-.98-2.15-2.14-2.15-.85,0-1.62.53-1.96,1.33l-1.19-.49c.58-1.33,1.77-2.12,3.17-2.12,1.91,0,3.41,1.54,3.41,3.44v5.6h-1.3v-1.1c-.54.74-1.25,1.1-2.14,1.1h-.76c-1.45,0-2.63-1.17-2.63-2.62Zm3.39,1.34c1.24,0,2.16-1.16,2.16-2.69h-2.93c-.75,0-1.34.6-1.34,1.34s.6,1.34,1.34,1.34h.76Z"/>
      <path d="m607.48,108.73v-2.27c0-1.89,1.53-3.43,3.41-3.43s3.33,1.43,3.42,3.43h-1.28c-.05-1.24-.95-2.15-2.14-2.15s-2.13.98-2.13,2.15v2.27c0,1.16.96,2.15,2.13,2.15s2.09-.91,2.14-2.15h1.28c-.09,2-1.5,3.43-3.42,3.43s-3.41-1.54-3.41-3.43Z"/>
      <path d="m618.18,109.73v-5.32h-1.05v-1.28h1.05v-3.68h1.28v3.68h1.8v1.28h-1.8v5.32c0,.58.45,1.05,1.05,1.05h.33v1.28h-.33c-1.3,0-2.33-1.03-2.33-2.33Z"/>
      <path d="m623.99,108.73v-2.27c0-1.89,1.53-3.43,3.41-3.43s3.42,1.54,3.42,3.43v1.29h-5.55v.98c0,1.16.96,2.15,2.13,2.15.62,0,1.14-.24,1.56-.69l.91.93c-.65.7-1.52,1.05-2.47,1.05-1.87,0-3.41-1.54-3.41-3.43Zm5.55-2.22c0-1.26-.96-2.2-2.13-2.2-1.24,0-2.09.91-2.14,2.2h4.27Z"/>
      <path d="m633.98,108.66v-2.11c0-1.89,1.53-3.42,3.42-3.42.82,0,1.54.27,2.14.83v-4.51h1.26v12.62h-1.26v-.83c-.6.56-1.31.83-2.14.83-1.89,0-3.42-1.54-3.42-3.41Zm5.57,0v-2.11c0-1.16-.98-2.14-2.14-2.14s-2.14.98-2.14,2.14v2.11c0,1.16.98,2.12,2.14,2.12s2.14-.96,2.14-2.12Z"/>
      <path d="m650.34,99.45h1.26v4.51c.6-.56,1.33-.83,2.14-.83,1.89,0,3.42,1.53,3.42,3.42v2.11c0,1.87-1.54,3.41-3.42,3.41-.84,0-1.54-.27-2.14-.83v.83h-1.26v-12.62Zm5.55,9.21v-2.11c0-1.16-.98-2.14-2.14-2.14s-2.14.98-2.14,2.14v2.11c0,1.16.98,2.12,2.14,2.12s2.14-.96,2.14-2.12Z"/>
      <path d="m660.69,114.38c.78-.04,1.25-.31,1.45-.83l.65-1.81-3.14-8.61h1.4l2.39,6.78,2.46-6.78h1.38l-3.93,10.84c-.42,1.11-1.34,1.72-2.66,1.78v-1.36Z"/>
      <path d="m676.82,109.73v-5.32h-1.05v-1.28h1.05v-3.68h1.28v3.68h1.8v1.28h-1.8v5.32c0,.58.45,1.05,1.05,1.05h.33v1.28h-.33c-1.3,0-2.33-1.03-2.33-2.33Z"/>
      <path d="m682.99,99.45h1.28v4.51c.6-.56,1.33-.83,2.14-.83,1.87,0,3.41,1.53,3.41,3.42v5.52h-1.28v-5.52c0-1.16-.96-2.14-2.13-2.14s-2.14.98-2.14,2.14v5.52h-1.28v-12.62Z"/>
      <path d="m693.1,108.73v-2.27c0-1.89,1.53-3.43,3.41-3.43s3.42,1.54,3.42,3.43v1.29h-5.55v.98c0,1.16.96,2.15,2.13,2.15.62,0,1.14-.24,1.56-.69l.91.93c-.65.7-1.52,1.05-2.47,1.05-1.87,0-3.41-1.54-3.41-3.43Zm5.55-2.22c0-1.26-.96-2.2-2.13-2.2-1.24,0-2.09.91-2.14,2.2h4.27Z"/>
      <path d="m420.32,126.9h-3.5v-1.39h8.41v1.39h-3.52v11.23h-1.39v-11.23Z"/>
      <path d="m426.85,134.72v-5.54h1.28v5.54c0,1.16.96,2.12,2.13,2.12s2.14-.96,2.14-2.12v-5.54h1.28v8.94h-1.28v-.83c-.6.56-1.31.83-2.13.83-1.89,0-3.43-1.54-3.43-3.41Zm1.28-8.65h1.52v1.51h-1.52v-1.51Zm2.78,0h1.52v1.51h-1.52v-1.51Z"/>
      <path d="m437.3,129.18h1.28v.83c.6-.56,1.31-.83,2.12-.83.93,0,1.74.34,2.45,1.01l-.93.94c-.42-.45-.93-.67-1.52-.67-1.16,0-2.12.98-2.12,2.14v5.52h-1.28v-8.94Z"/>
      <path d="m446.15,125.5h1.28v8.74l4.34-5.06h1.63l-3.01,3.5,3.12,5.44h-1.52l-2.47-4.45-2.09,2.43v2.01h-1.28v-12.62Z"/>
      <path d="m456.46,125.51h1.52v1.51h-1.52v-1.51Zm.11,3.67h1.28v8.94h-1.28v-8.94Z"/>
      <path d="m461.95,140.44c.78-.04,1.25-.31,1.45-.83l.65-1.81-3.14-8.61h1.4l2.39,6.78,2.46-6.78h1.38l-3.93,10.84c-.42,1.11-1.34,1.72-2.66,1.78v-1.36Z"/>
      <path d="m471.05,134.79v-2.27c0-1.89,1.53-3.43,3.41-3.43s3.42,1.54,3.42,3.43v1.29h-5.55v.98c0,1.16.96,2.15,2.13,2.15.62,0,1.14-.24,1.56-.69l.91.93c-.65.7-1.52,1.05-2.47,1.05-1.87,0-3.41-1.54-3.41-3.43Zm5.55-2.22c0-1.26-.96-2.2-2.13-2.2-1.24,0-2.09.91-2.14,2.2h4.27Z"/>
      <path d="m481.08,131.1h8.41v1.39h-8.41v-1.39Z"/>
      <path d="m491.97,135.64l1.28-.49c.67,1.14,1.58,1.71,2.76,1.71,1.25,0,2.14-.89,2.14-2.2,0-.94-.51-1.6-1.72-2.12l-1.78-.78c-1.67-.73-2.41-1.72-2.41-3.1,0-1.9,1.46-3.28,3.48-3.28,1.82,0,3.17.83,4.1,2.51l-1.27.56c-.67-1.11-1.65-1.69-2.81-1.69-1.23,0-2.11.76-2.11,1.83,0,.82.42,1.36,1.56,1.85l1.87.82c1.74.78,2.48,1.81,2.48,3.41,0,2.1-1.48,3.57-3.59,3.57-1.72,0-3.06-.87-3.99-2.61Z"/>
      <path d="m502.82,140.44c.78-.04,1.25-.31,1.45-.83l.65-1.81-3.14-8.61h1.4l2.39,6.78,2.46-6.78h1.38l-3.93,10.84c-.42,1.11-1.34,1.72-2.66,1.78v-1.36Z"/>
      <path d="m512.48,129.18h1.28v.83c.6-.56,1.31-.83,2.12-.83.92,0,1.74.34,2.45,1.01l-.93.94c-.42-.45-.92-.67-1.52-.67-1.16,0-2.12.98-2.12,2.14v5.52h-1.28v-8.94Z"/>
      <path d="m521.22,125.51h1.51v1.51h-1.51v-1.51Zm.11,3.67h1.28v8.94h-1.28v-8.94Z"/>
      <path d="m525.85,135.5c0-1.45,1.17-2.63,2.63-2.63h2.93v-.35c0-1.17-.98-2.15-2.14-2.15-.85,0-1.62.53-1.96,1.33l-1.19-.49c.58-1.33,1.77-2.12,3.17-2.12,1.91,0,3.41,1.54,3.41,3.44v5.6h-1.3v-1.1c-.54.74-1.25,1.1-2.14,1.1h-.76c-1.45,0-2.63-1.17-2.63-2.62Zm3.39,1.34c1.24,0,2.16-1.16,2.16-2.69h-2.93c-.75,0-1.34.6-1.34,1.34s.6,1.34,1.34,1.34h.76Z"/>
      <path d="m541.95,134.79v-2.27c0-1.89,1.53-3.43,3.41-3.43s3.42,1.54,3.42,3.43v1.29h-5.55v.98c0,1.16.96,2.15,2.13,2.15.62,0,1.14-.24,1.56-.69l.91.93c-.65.7-1.52,1.05-2.47,1.05-1.87,0-3.41-1.54-3.41-3.43Zm5.55-2.22c0-1.26-.96-2.2-2.13-2.2-1.24,0-2.09.91-2.14,2.2h4.27Z"/>
      <path d="m551.67,135.5c0-1.45,1.17-2.63,2.63-2.63h2.93v-.35c0-1.17-.98-2.15-2.14-2.15-.85,0-1.62.53-1.96,1.33l-1.19-.49c.58-1.33,1.77-2.12,3.17-2.12,1.91,0,3.41,1.54,3.41,3.44v5.6h-1.3v-1.1c-.54.74-1.25,1.1-2.14,1.1h-.76c-1.45,0-2.63-1.17-2.63-2.62Zm3.39,1.34c1.24,0,2.16-1.16,2.16-2.69h-2.93c-.75,0-1.34.6-1.34,1.34s.6,1.34,1.34,1.34h.76Z"/>
      <path d="m562.08,129.18h1.28v.83c.6-.56,1.31-.83,2.12-.83.92,0,1.74.34,2.45,1.01l-.93.94c-.42-.45-.92-.67-1.52-.67-1.16,0-2.12.98-2.12,2.14v5.52h-1.28v-8.94Z"/>
      <path d="m571.77,135.79v-5.32h-1.05v-1.28h1.05v-3.68h1.28v3.68h1.8v1.28h-1.8v5.32c0,.58.45,1.05,1.05,1.05h.33v1.28h-.33c-1.3,0-2.33-1.03-2.33-2.33Z"/>
      <path d="m577.94,125.5h1.28v4.51c.6-.56,1.33-.83,2.14-.83,1.87,0,3.41,1.53,3.41,3.42v5.52h-1.28v-5.52c0-1.16-.96-2.14-2.13-2.14s-2.14.98-2.14,2.14v5.52h-1.28v-12.62Z"/>
      <path d="m593.62,137.29c-.6.56-1.33.83-2.14.83-1.89,0-3.42-1.54-3.42-3.42v-2.09c0-1.89,1.53-3.42,3.42-3.42.82,0,1.54.27,2.14.83v-.83h1.26v12.62h-1.26v-4.51Zm0-2.59v-2.09c0-1.16-.98-2.14-2.14-2.14s-2.14.98-2.14,2.14v2.09c0,1.16.98,2.14,2.14,2.14s2.14-.98,2.14-2.14Z"/>
      <path d="m598.42,134.72v-5.54h1.28v5.54c0,1.16.96,2.12,2.13,2.12s2.14-.96,2.14-2.12v-5.54h1.28v8.94h-1.28v-.83c-.6.56-1.31.83-2.13.83-1.89,0-3.42-1.54-3.42-3.41Z"/>
      <path d="m608.5,135.5c0-1.45,1.17-2.63,2.63-2.63h2.93v-.35c0-1.17-.98-2.15-2.14-2.15-.85,0-1.62.53-1.96,1.33l-1.19-.49c.58-1.33,1.77-2.12,3.17-2.12,1.91,0,3.41,1.54,3.41,3.44v5.6h-1.3v-1.1c-.54.74-1.25,1.1-2.14,1.1h-.76c-1.45,0-2.63-1.17-2.63-2.62Zm3.39,1.34c1.24,0,2.16-1.16,2.16-2.69h-2.93c-.75,0-1.34.6-1.34,1.34s.6,1.34,1.34,1.34h.76Z"/>
      <path d="m618.89,125.5h1.28v8.74l4.34-5.06h1.63l-3.01,3.5,3.12,5.44h-1.52l-2.47-4.45-2.09,2.43v2.01h-1.28v-12.62Z"/>
      <path d="m628.58,134.79v-2.27c0-1.89,1.53-3.43,3.41-3.43s3.42,1.54,3.42,3.43v1.29h-5.55v.98c0,1.16.96,2.15,2.13,2.15.62,0,1.14-.24,1.56-.69l.91.93c-.65.7-1.52,1.05-2.47,1.05-1.87,0-3.41-1.54-3.41-3.43Zm5.55-2.22c0-1.26-.96-2.2-2.13-2.2-1.24,0-2.09.91-2.14,2.2h4.27Z"/>
      <path d="m638.29,136.37l1.16-.56c.42.73,1.18,1.16,1.81,1.16.72,0,1.29-.56,1.29-1.27,0-.6-.36-1.07-1.11-1.4l-.94-.42c-1.45-.64-2.01-1.49-2.01-2.44,0-1.34,1.15-2.35,2.57-2.35,1.29,0,2.39.69,2.96,1.84l-1.16.54c-.42-.71-1.07-1.11-1.81-1.11s-1.27.47-1.27,1.11c0,.42.29.84,1.16,1.22l1.05.47c1.29.56,1.87,1.33,1.87,2.51,0,1.45-1.13,2.54-2.61,2.54-1.29,0-2.35-.69-2.95-1.85Z"/>
      <path d="m647.16,136.61h1.51v1.51h-1.51v-1.51Z"/>
    </g>
    <path class="cls-5" d="m917,1v210H1V1h916m1-1H0v212h918V0h0Z"/>
    <g>
      <g>
        <rect class="cls-5" x="76.66" y="47.33" width="117.34" height="117.34"/>
        <rect class="cls-1" x="163.13" y="63.38" width="7.41" height="37.06"/>
        <g>
          <path class="cls-1" d="m116.18,88.1c0,6.81-5.52,12.35-12.34,12.35s-12.35-5.54-12.35-12.35v-24.72h7.42v24.72c0,2.72,2.2,4.95,4.93,4.95s4.92-2.22,4.92-4.95v-24.72h7.42v24.72Z"/>
          <polygon class="cls-1" points="150.76 148.62 126.07 148.62 126.07 111.56 133.47 111.56 133.47 141.2 150.76 141.2 150.76 148.62"/>
          <polygon class="cls-1" points="150.76 100.45 143.35 100.45 133.47 79.27 133.47 100.45 126.07 100.45 126.07 63.39 133.47 63.39 143.35 84.57 143.35 63.39 150.76 63.39 150.76 100.45"/>
          <path class="cls-1" d="m103.84,111.55c-6.83,0-12.35,5.54-12.35,12.37v12.35c0,6.82,5.52,12.35,12.35,12.35.81,0,1.61-.06,2.4-.22l2.52,7.64h7.42l-3.66-10.99c2.26-2.25,3.66-5.34,3.66-8.78v-12.35c0-6.83-5.52-12.37-12.34-12.37m4.92,24.71c0,2.72-2.18,4.93-4.92,4.93s-4.93-2.21-4.93-4.93v-12.35c0-2.73,2.2-4.93,4.93-4.93s4.92,2.2,4.92,4.93v12.35Z"/>
          <path class="cls-1" d="m166.84,111.55c-6.83,0-12.37,5.54-12.37,12.37v12.35c0,6.82,5.54,12.35,12.37,12.35s12.34-5.54,12.34-12.35v-12.35c0-6.83-5.53-12.37-12.34-12.37m4.93,24.71c0,2.72-2.22,4.93-4.93,4.93s-4.95-2.21-4.95-4.93v-12.35c0-2.73,2.21-4.93,4.95-4.93s4.93,2.2,4.93,4.93v12.35Z"/>
        </g>
      </g>
      <line class="cls-2" x1="216.55" y1="32.93" x2="216.55" y2="164.67"/>
      <g>
        <g>
          <path class="cls-3" d="m256.81,146.17c0,5.77-3.12,8.54-9.47,8.54s-9.5-2.77-9.5-8.54v-12.76h6.41v11.33c0,2.13,0,4.78,3.12,4.78s3.03-2.65,3.03-4.78v-11.33h6.41v12.76"/>
          <polygon class="cls-3" points="260.66 133.41 267.21 133.41 273.27 144.54 273.33 144.54 273.33 133.41 279.39 133.41 279.39 154.21 273.15 154.21 266.78 142.85 266.72 142.85 266.72 154.21 260.66 154.21 260.66 133.41"/>
          <polygon class="cls-3" points="283.32 133.41 289.73 133.41 289.73 140.63 295.73 140.63 295.73 133.41 302.14 133.41 302.14 154.21 295.73 154.21 295.73 145.96 289.73 145.96 289.73 154.21 283.32 154.21 283.32 133.41"/>
          <path class="cls-3" d="m318.54,141.16c-.12-.76-.7-3.06-3.35-3.06-3,0-3.96,2.91-3.96,5.71s.96,5.71,3.96,5.71c2.16,0,3-1.52,3.38-3.47h6.29c0,4.19-3.41,8.65-9.5,8.65-6.73,0-10.55-4.75-10.55-10.9,0-6.56,4.14-10.89,10.55-10.89,5.71.03,8.86,3.03,9.41,8.24h-6.23"/>
          <path class="cls-3" d="m333.95,138.36h3c2.45,0,3.18.76,3.18,2.07,0,1.86-1.63,2.07-2.83,2.07h-3.35v-4.14Zm-6.41,15.85h6.41v-7.25h3.41c2.53,0,2.71,2.07,2.88,4.05.09,1.08.2,2.16.52,3.2h6.41c-.58-.96-.61-3.44-.7-4.46-.23-2.59-1.31-4.52-3.06-5.19,2.13-.79,3.12-3.06,3.12-5.21,0-3.93-3.15-5.94-6.79-5.94h-12.21v20.8"/>
          <polygon class="cls-3" points="239.93 158.99 237.84 158.99 237.84 157.7 243.55 157.7 243.55 158.99 241.46 158.99 241.46 164.67 239.93 164.67 239.93 158.99"/>
          <path class="cls-3" d="m244.03,157.7h1.39v2.63h.03c.35-.57.96-.84,1.48-.84,1.47,0,1.84.83,1.84,2.08v3.1h-1.39v-2.85c0-.83-.24-1.24-.89-1.24-.75,0-1.07.42-1.07,1.44v2.65h-1.39v-6.97"/>
          <path class="cls-3" d="m250.75,162.48c.04.88.47,1.28,1.24,1.28.56,0,1.01-.34,1.09-.65h1.22c-.39,1.19-1.22,1.7-2.36,1.7-1.59,0-2.58-1.09-2.58-2.66s1.05-2.66,2.58-2.66c1.72,0,2.55,1.44,2.45,3h-3.64Zm2.25-.88c-.13-.7-.43-1.07-1.1-1.07-.88,0-1.13.68-1.15,1.07h2.25"/>
          <path class="cls-3" d="m263.39,162.03c0,1.88-1.11,2.8-2.98,2.8s-2.97-.91-2.97-2.8v-4.33h1.53v4.33c0,.76.2,1.51,1.44,1.51,1.09,0,1.44-.48,1.44-1.51v-4.33h1.53v4.33"/>
          <polygon class="cls-3" points="264.41 157.7 265.94 157.7 268.85 162.38 268.86 162.38 268.86 157.7 270.3 157.7 270.3 164.67 268.77 164.67 265.87 160 265.85 160 265.85 164.67 264.41 164.67 264.41 157.7"/>
          <path class="cls-3" d="m275.17,158.89h1.68c.68,0,1.05.29,1.05.97s-.37,1-1.05,1h-1.68v-1.96Zm-1.53,5.78h1.53v-2.72h1.53c.77,0,1.05.32,1.16,1.05.08.56.06,1.23.24,1.67h1.53c-.27-.39-.26-1.21-.29-1.65-.05-.7-.26-1.43-1.02-1.63v-.02c.77-.31,1.1-.93,1.1-1.75,0-1.05-.79-1.92-2.04-1.92h-3.76v6.97"/>
          <path class="cls-3" d="m281.51,161.6c.02-.39.27-1.07,1.15-1.07.67,0,.98.37,1.1,1.07h-2.26Zm3.64.88c.1-1.55-.73-3-2.45-3-1.53,0-2.58,1.15-2.58,2.66s.99,2.66,2.58,2.66c1.14,0,1.97-.51,2.36-1.7h-1.22c-.09.31-.54.65-1.09.65-.77,0-1.2-.4-1.24-1.28h3.64"/>
          <path class="cls-3" d="m286.06,160.55h-.83v-.93h.83v-.39c0-.89.56-1.53,1.69-1.53.24,0,.5.03.73.04v1.04c-.16-.02-.33-.03-.51-.03-.37,0-.53.16-.53.58v.3h.96v.93h-.96v4.12h-1.39v-4.12"/>
          <path class="cls-3" d="m293.57,164.67h-1.32v-.7h-.03c-.35.57-.96.84-1.54.84-1.47,0-1.84-.83-1.84-2.08v-3.1h1.39v2.85c0,.83.24,1.24.89,1.24.75,0,1.07-.42,1.07-1.44v-2.64h1.39v5.05"/>
          <path class="cls-3" d="m296.76,163.48c-.85,0-1.12-.79-1.12-1.51s.34-1.44,1.12-1.44c.9,0,1.18.73,1.18,1.55,0,.72-.39,1.4-1.18,1.4m2.5-3.86h-1.32v.67h-.02c-.33-.59-.84-.81-1.5-.81-1.41,0-2.17,1.19-2.17,2.5,0,1.39.64,2.54,2.16,2.54.6,0,1.21-.25,1.51-.78h.02v.66c.01.72-.34,1.25-1.11,1.25-.49,0-.91-.18-1.04-.69h-1.38c.07,1.15,1.23,1.62,2.23,1.62,2.32,0,2.62-1.41,2.62-2.24v-4.72"/>
          <path class="cls-3" d="m301.34,161.6c.02-.39.27-1.07,1.15-1.07.67,0,.98.37,1.1,1.07h-2.25Zm3.64.88c.1-1.55-.73-3-2.45-3-1.53,0-2.58,1.15-2.58,2.66s.99,2.66,2.58,2.66c1.14,0,1.97-.51,2.36-1.7h-1.22c-.09.31-.54.65-1.09.65-.77,0-1.2-.4-1.24-1.28h3.64"/>
          <path class="cls-3" d="m306.76,161.6c.02-.39.27-1.07,1.15-1.07.67,0,.98.37,1.1,1.07h-2.25Zm3.64.88c.1-1.55-.73-3-2.45-3-1.53,0-2.58,1.15-2.58,2.66s.99,2.66,2.58,2.66c1.14,0,1.97-.51,2.36-1.7h-1.22c-.09.31-.54.65-1.09.65-.77,0-1.2-.4-1.24-1.28h3.64"/>
          <path class="cls-3" d="m316.75,159.42h.02l.88,2.56h-1.81l.91-2.56Zm-3.41,5.25h1.55l.55-1.55h2.61l.53,1.55h1.59l-2.61-6.97h-1.57l-2.65,6.97Z"/>
          <path class="cls-3" d="m322.76,163.48c-.85,0-1.12-.79-1.12-1.51s.34-1.44,1.12-1.44c.9,0,1.18.73,1.18,1.55,0,.72-.39,1.4-1.18,1.4m2.5-3.86h-1.32v.67h-.02c-.33-.59-.84-.81-1.5-.81-1.42,0-2.17,1.19-2.17,2.5,0,1.39.64,2.54,2.16,2.54.61,0,1.21-.25,1.51-.78h.02v.66c0,.72-.34,1.25-1.11,1.25-.49,0-.91-.18-1.04-.69h-1.38c.07,1.15,1.23,1.62,2.23,1.62,2.32,0,2.62-1.41,2.62-2.24v-4.72"/>
          <path class="cls-3" d="m327.34,161.6c.02-.39.27-1.07,1.15-1.07.67,0,.98.37,1.1,1.07h-2.25Zm3.64.88c.1-1.55-.73-3-2.45-3-1.53,0-2.58,1.15-2.58,2.66s.98,2.66,2.58,2.66c1.14,0,1.97-.51,2.36-1.7h-1.22c-.09.31-.54.65-1.09.65-.77,0-1.2-.4-1.24-1.28h3.64"/>
          <path class="cls-3" d="m331.58,159.62h1.32v.7h.03c.35-.57.96-.84,1.54-.84,1.47,0,1.84.83,1.84,2.08v3.1h-1.39v-2.85c0-.83-.24-1.24-.89-1.24-.75,0-1.07.42-1.07,1.44v2.65h-1.39v-5.05"/>
          <path class="cls-3" d="m340.59,161.4c-.09-.57-.45-.87-1.02-.87-.89,0-1.18.9-1.18,1.64s.28,1.59,1.15,1.59c.64,0,1.02-.41,1.1-1.03h1.34c-.18,1.34-1.1,2.07-2.43,2.07-1.52,0-2.55-1.07-2.55-2.59s.94-2.73,2.58-2.73c1.19,0,2.28.62,2.37,1.91h-1.36"/>
          <path class="cls-3" d="m345.07,165.3c-.3.81-.78,1.14-1.74,1.14-.28,0-.57-.02-.85-.05v-1.14c.26.02.54.06.81.05.48-.05.64-.55.48-.95l-1.77-4.73h1.48l1.14,3.46h.02l1.1-3.46h1.44l-2.11,5.68"/>
          <g>
            <path class="cls-3" d="m295.29,103.93c.99,0,.87-.56.87-1.61v-5.09c0-1.05-.1-1.38.5-1.38,2.1,0,2.67-.19,2.67-2.06v-18.89c0-5.15-3.65-4.3-4.68-6.18-1.46-2.54,2.73-2.54,1.21-8.05-.38-1.25-1.37-2.02-3.26-2.02s-2.88.77-3.27,2.02c-1.52,5.51,2.68,5.51,1.21,8.05-1.03,1.88-4.68,1.03-4.68,6.18v18.89c0,1.87.57,2.06,2.68,2.06.6,0,.5.33.5,1.38v5.09c0,1.05-.12,1.61.87,1.61h5.38"/>
            <path class="cls-3" d="m278.67,62.92c-1.87,1.98-4.82,6.6-2.89,10.43,3.92,1.5,3.62-12.35,8.49-12.11,2.41,2.22-.72,8.75-1.69,11.64-1.21,3.54-2.17,10.97-4.46,14.57-1.92,3-.48,12.41-1.09,15.65-1.62,1.61-6.02.48-7.89.18,0-3.72-.48-6.65-1.08-12.59-.06-1.2-1.33-19.55-.3-21.77,2.11-4.62,13.61-13.43,15.18-15.11,1.38-1.5,6.26-6.48,8.13-6.48,1.32.9.54,3,.24,3.84-1.86,4.62-9.94,9.17-12.64,11.75"/>
            <path class="cls-3" d="m306.73,62.92c1.8,1.98,4.76,6.6,2.89,10.43-3.97,1.5-3.67-12.35-8.55-12.11-2.35,2.22.78,8.75,1.75,11.64,1.21,3.54,2.17,10.97,4.46,14.57,1.87,3,.48,12.41,1.02,15.65,1.68,1.61,6.02.48,7.94.18,0-3.72.42-6.65,1.03-12.59.12-1.2,1.39-19.55.36-21.77-2.11-4.62-13.61-13.43-15.17-15.11-1.45-1.5-6.27-6.48-8.13-6.48-1.38.9-.54,3-.24,3.84,1.87,4.62,9.94,9.17,12.65,11.75"/>
            <path class="cls-3" d="m261.94,56.71c-1.03.96-3.32,1.62-4.89,3.72-.6-1.14.96-3.9,2.83-5.53,1.39-1.14,4.11-3.01,4.89-3.18.61,1.38-1.57,3.49-2.83,4.99"/>
            <path class="cls-3" d="m258.75,64.21c-1.75,1.62-3.62,2.29-6.04,5.23-1.02-3.55-.78-6.67-.3-8.77.85-2.76,2.24-5.83,4.59-6.79-.48,1.56-1.27,3.73-1.45,6.67-1.02,4.03-1.63,4.15-1.38,4.68.24,0,1.57-2.1,3.2-3.72,1.93-1.92,4.34-2.35,5.91-3.48-.24.78-1.63,3.24-4.52,6.19"/>
            <path class="cls-3" d="m250.23,80.86c-2.35-4.21-2.59-7.27-2.78-10.82.12-2.46,1.33-8.17,3.14-9.01-.54,5.16.85,5.65.3,9.91,0,.24-.61,4.68-.61,4.93.73-.12.06-4.09,8.33-9.79-1.81,3.13-.97,4.08-4.22,8.23-3.8,3.73-4.34,7.39-4.17,6.55"/>
            <path class="cls-3" d="m253.56,84.82c-1.75,2.52-1.45,3.79-1.87,4.99-4.17-2.4-8.87-11.96-7.12-16.7,1.08,3.6,2.59,4.39,3.68,7.39,1.87,4.51,1.57,5.89,2.78,6.91-.24-2.34.54-5.1,1.33-7.15,1.15-1.74,2.05-4.03,2.9-4.81.9,3.31.24,6.01-1.69,9.37"/>
            <path class="cls-3" d="m257.3,93c0,3.67-.67,5.29-.97,7.99-7.18-2.34-10.92-10.51-10.92-14.54,2.18,4.93,5.37,4.87,9.54,11.84.36-2.64-.73-.66-.85-5.65.12-5.23,1.21-5.41,1.39-8.65,1.33,1.44,1.81,7.21,1.81,9.01"/>
            <path class="cls-3" d="m263.27,103.39c.55,2.7.78,5.89,1.2,8.23-4.1-1.5-5.13-.36-10.01-3.42-2.23-1.2-6.22-6.25-5.97-9.86,4.82,5.35,5.67,4.75,8.02,6.73,2.17,1.74,3.92,4.33,5.49,3.97.12-1.44-3.56-4.57-3.08-13.58.96,1.02,3.62,5.11,4.34,7.93"/>
            <path class="cls-3" d="m271.41,110.12c1.27,1.8.97,2.58,4.22,6.31-.79.36-5.43,1.56-8.51,1.68-2.05,0-9.29-1.92-11.7-6.85,4.16,2.23,4.22,1.68,9.77,2.89,3.98.9,6.82,2.16,7.9,2.04-.24-.54-3.32-1.8-5.43-4.45-2.12-2.82-1.63-6.01-3.5-8.35,1.27-.36,6.21,5.41,7.24,6.73"/>
            <path class="cls-3" d="m323.12,56.71c.97.96,3.32,1.62,4.83,3.72.66-1.14-.96-3.9-2.83-5.53-1.32-1.14-4.04-3.01-4.89-3.18-.61,1.38,1.57,3.49,2.89,4.99"/>
            <path class="cls-3" d="m326.32,64.21c1.69,1.62,3.56,2.29,5.97,5.23,1.03-3.55.78-6.67.3-8.77-.79-2.76-2.23-5.83-4.59-6.79.54,1.56,1.27,3.73,1.45,6.67,1.03,4.03,1.63,4.15,1.39,4.68-.24,0-1.57-2.1-3.2-3.72-1.87-1.92-4.28-2.35-5.91-3.48.24.78,1.69,3.24,4.59,6.19"/>
            <path class="cls-3" d="m334.77,80.86c2.41-4.21,2.59-7.27,2.77-10.82-.12-2.46-1.33-8.17-3.08-9.01.48,5.16-.91,5.65-.31,9.91,0,.24.55,4.68.55,4.93-.66-.12-.06-4.09-8.27-9.79,1.75,3.13.9,4.08,4.16,8.23,3.86,3.73,4.34,7.39,4.17,6.55"/>
            <path class="cls-3" d="m331.51,84.82c1.69,2.52,1.39,3.79,1.81,4.99,4.16-2.4,8.93-11.96,7.12-16.7-1.03,3.6-2.6,4.39-3.62,7.39-1.93,4.51-1.63,5.89-2.77,6.91.24-2.34-.6-5.1-1.39-7.15-1.09-1.74-2.05-4.03-2.9-4.81-.85,3.31-.24,6.01,1.75,9.37"/>
            <path class="cls-3" d="m327.71,93c0,3.67.72,5.29,1.03,7.99,7.12-2.34,10.92-10.51,10.92-14.54-2.24,4.93-5.37,4.87-9.59,11.84-.36-2.64.72-.66.85-5.65-.12-5.23-1.21-5.41-1.39-8.65-1.33,1.44-1.81,7.21-1.81,9.01"/>
            <path class="cls-3" d="m321.74,103.39c-.54,2.7-.72,5.89-1.15,8.23,4.04-1.5,5.07-.36,9.96-3.42,2.23-1.2,6.27-6.25,6.03-9.86-4.83,5.35-5.73,4.75-8.03,6.73-2.17,1.74-3.98,4.33-5.55,3.97-.12-1.44,3.56-4.57,3.14-13.58-1.03,1.02-3.68,5.11-4.41,7.93"/>
            <path class="cls-3" d="m313.59,110.12c-1.2,1.8-.91,2.58-4.22,6.31.85.36,5.43,1.56,8.57,1.68,1.99,0,9.23-1.92,11.64-6.85-4.16,2.23-4.22,1.68-9.77,2.89-3.98.9-6.76,2.16-7.9,2.04.24-.54,3.38-1.8,5.43-4.45,2.11-2.82,1.63-6.01,3.56-8.35-1.33-.36-6.28,5.41-7.3,6.73"/>
            <path class="cls-3" d="m282.21,127.07l-1.2-.6s7.66-9.31,20.82-8.59c13.15.72,12.25,3.79,19.3,3.31.78-.06-.6.96-.6.96,0,0-6.88,2.64-15.39-.24-8.45-2.88-13.94-4.63-22.93,5.17"/>
            <path class="cls-3" d="m303.03,127.07l1.21-.6s-7.6-9.31-20.76-8.59c-13.21.72-12.31,3.79-19.37,3.31-.78-.06.61.96.61.96,0,0,6.88,2.64,15.39-.24,8.5-2.88,14-4.63,22.92,5.17"/>
          </g>
        </g>
        <g>
          <path class="cls-4" d="m264.35,39.96v-7.03h.88v7.03h-.88Z"/>
          <path class="cls-4" d="m270.3,39.96v-3.33c0-.9-.45-1.18-1.14-1.18-.62,0-1.21.38-1.51.79v3.72h-.79v-5.09h.79v.74c.36-.42,1.05-.86,1.81-.86,1.07,0,1.62.54,1.62,1.64v3.57h-.79Z"/>
          <path class="cls-4" d="m274.95,39.29l.41-.57c.34.39.98.73,1.68.73.78,0,1.2-.37,1.2-.87,0-.56-.62-.71-1.31-.87-.86-.2-1.85-.43-1.85-1.49,0-.79.69-1.47,1.9-1.47.86,0,1.48.33,1.89.74l-.37.55c-.31-.37-.86-.64-1.52-.64-.7,0-1.13.35-1.13.8,0,.48.58.62,1.24.78.89.2,1.91.45,1.91,1.58,0,.85-.69,1.54-2,1.54-.83,0-1.54-.25-2.06-.8Z"/>
          <path class="cls-4" d="m283.68,39.96v-.72c-.39.44-1.05.84-1.81.84-1.06,0-1.62-.52-1.62-1.62v-3.6h.79v3.35c0,.9.45,1.16,1.14,1.16.62,0,1.21-.36,1.51-.77v-3.74h.79v5.09h-.79Z"/>
          <path class="cls-4" d="m286.82,39.19v2.71h-.79v-7.03h.79v.76c.37-.52,1-.89,1.72-.89,1.34,0,2.27,1.01,2.27,2.67s-.93,2.68-2.27,2.68c-.7,0-1.31-.33-1.72-.9Zm3.15-1.78c0-1.13-.61-1.96-1.63-1.96-.62,0-1.24.37-1.52.81v2.3c.27.44.9.82,1.52.82,1.02,0,1.63-.84,1.63-1.97Z"/>
          <path class="cls-4" d="m292.87,39.19v2.71h-.79v-7.03h.79v.76c.37-.52,1-.89,1.72-.89,1.34,0,2.27,1.01,2.27,2.67s-.93,2.68-2.27,2.68c-.7,0-1.31-.33-1.72-.9Zm3.15-1.78c0-1.13-.61-1.96-1.63-1.96-.62,0-1.24.37-1.52.81v2.3c.27.44.9.82,1.52.82,1.02,0,1.63-.84,1.63-1.97Z"/>
          <path class="cls-4" d="m297.85,37.41c0-1.48.97-2.67,2.52-2.67s2.52,1.19,2.52,2.67-.97,2.68-2.52,2.68-2.52-1.2-2.52-2.68Zm4.21,0c0-1.03-.6-1.96-1.69-1.96s-1.7.93-1.7,1.96.61,1.97,1.7,1.97,1.69-.93,1.69-1.97Z"/>
          <path class="cls-4" d="m304.16,39.96v-5.09h.79v.82c.41-.54,1-.93,1.7-.93v.81c-.1-.02-.19-.03-.32-.03-.48,0-1.15.4-1.38.81v3.61h-.79Z"/>
          <path class="cls-4" d="m308.13,38.9v-3.33h-.84v-.7h.84v-1.39h.79v1.39h1.03v.7h-1.03v3.16c0,.38.17.65.52.65.22,0,.43-.1.54-.21l.23.59c-.2.19-.49.33-.95.33-.75,0-1.13-.43-1.13-1.19Z"/>
          <path class="cls-4" d="m313.5,37.41c0-1.48.97-2.67,2.52-2.67s2.52,1.19,2.52,2.67-.97,2.68-2.52,2.68-2.52-1.2-2.52-2.68Zm4.21,0c0-1.03-.6-1.96-1.69-1.96s-1.7.93-1.7,1.96.61,1.97,1.7,1.97,1.69-.93,1.69-1.97Z"/>
          <path class="cls-4" d="m319.96,39.96v-4.4h-.84v-.7h.84v-.39c0-1.05.59-1.66,1.48-1.66.3,0,.57.05.77.18l-.2.59c-.13-.07-.27-.12-.45-.12-.52,0-.8.36-.8,1v.39h1.03v.7h-1.03v4.4h-.79Z"/>
        </g>
      </g>
    </g>
    <g>
      <path class="cls-5" d="m416.67,161.72v-3.22c0-1.69,1.37-3.03,3.04-3.03,1.38,0,2.58.91,2.93,2.25.07.26.09.43.1.79h-1c-.04-1.19-.91-2.03-2.03-2.03s-2.03.9-2.03,2.03v3.22c0,1.1.91,2.03,2.03,2.03.84,0,1.59-.5,1.89-1.29.09-.25.14-.49.14-.85v-.29h-2.03v-1h3.04v1.3c0,1.79-1.31,3.13-3.04,3.13s-3.04-1.37-3.04-3.04Z"/>
      <path class="cls-5" d="m424.33,162.26v-1.64c0-1.37,1.11-2.47,2.47-2.47s2.46,1.11,2.46,2.47v1.64c0,1.37-1.08,2.47-2.46,2.47s-2.47-1.11-2.47-2.47Zm4.01,0v-1.64c0-.84-.7-1.55-1.54-1.55s-1.55.71-1.55,1.55v1.64c0,.84.71,1.55,1.55,1.55s1.54-.71,1.54-1.55Z"/>
      <path class="cls-5" d="m434.99,162.98v-3.84h-.76v-.92h.76v-2.66h.92v2.66h1.3v.92h-1.3v3.84c0,.42.33.76.76.76h.24v.92h-.24c-.94,0-1.68-.74-1.68-1.69Z"/>
      <path class="cls-5" d="m438.51,162.26v-1.64c0-1.37,1.11-2.47,2.47-2.47s2.46,1.11,2.46,2.47v1.64c0,1.37-1.08,2.47-2.46,2.47s-2.47-1.11-2.47-2.47Zm4.01,0v-1.64c0-.84-.7-1.55-1.54-1.55s-1.55.71-1.55,1.55v1.64c0,.84.71,1.55,1.55,1.55s1.54-.71,1.54-1.55Z"/>
      <path class="cls-5" d="m448.81,161.73v-6.17h1v6.17c0,1.1.93,2.03,2.03,2.03s2.03-.93,2.03-2.03v-6.17h1v6.17c0,1.66-1.34,3.03-3.04,3.03s-3.04-1.37-3.04-3.03Z"/>
      <path class="cls-5" d="m457.01,155.56h1l4.07,7.19v-7.19h1v9.11h-1l-4.07-7.19v7.19h-1v-9.11Z"/>
      <path class="cls-5" d="m465.19,155.56h1v4.04h4.07v-4.04h1v9.11h-1v-4.07h-4.07v4.07h-1v-9.11Z"/>
      <path class="cls-5" d="m473.15,161.73v-3.22c0-1.69,1.37-3.03,3.04-3.03,1.35,0,2.58.91,2.93,2.25.06.26.09.43.1.79h-1.01c-.04-1.19-.88-2.03-2.02-2.03s-2.03.9-2.03,2.03v3.22c0,1.1.91,2.03,2.03,2.03s1.98-.84,2.02-2.03h1.01c-.01.35-.04.52-.1.79-.35,1.33-1.58,2.25-2.93,2.25-1.67,0-3.04-1.37-3.04-3.03Z"/>
      <path class="cls-5" d="m481.1,155.56h3.23c1.57,0,2.84,1.27,2.84,2.84,0,1.15-.72,2.21-1.8,2.63l1.8,3.64h-1.1l-1.72-3.44h-2.26v3.44h-1v-9.11Zm3.23,4.66c1.01,0,1.84-.83,1.84-1.84s-.83-1.82-1.84-1.82h-2.23v3.66h2.23Z"/>
      <path class="cls-5" d="m491.88,158.21h.98l1.48,5.11,1.3-5.11h1.02l1.28,5.11,1.49-5.11h.98l-2.02,6.46h-.94l-1.31-5.05-1.31,5.05h-.94l-2.02-6.46Z"/>
      <path class="cls-5" d="m501.65,162.26v-1.64c0-1.37,1.11-2.48,2.46-2.48s2.47,1.11,2.47,2.48v.93h-4.01v.71c0,.84.7,1.55,1.54,1.55.45,0,.83-.17,1.13-.5l.65.67c-.47.51-1.1.75-1.78.75-1.35,0-2.46-1.11-2.46-2.47Zm4.01-1.6c0-.91-.7-1.59-1.54-1.59-.89,0-1.51.66-1.55,1.59h3.08Z"/>
      <path class="cls-5" d="m508.3,155.56h.91v3.25c.43-.4.96-.6,1.55-.6,1.36,0,2.47,1.11,2.47,2.47v1.52c0,1.35-1.11,2.46-2.47,2.46-.6,0-1.11-.2-1.55-.6v.6h-.91v-9.11Zm4.01,6.65v-1.52c0-.84-.71-1.55-1.55-1.55s-1.55.71-1.55,1.55v1.52c0,.84.71,1.53,1.55,1.53s1.55-.7,1.55-1.53Z"/>
      <path class="cls-5" d="m514.56,163.4l.83-.41c.3.53.85.84,1.31.84.52,0,.93-.41.93-.92,0-.43-.26-.77-.8-1.01l-.68-.3c-1.04-.46-1.45-1.08-1.45-1.76,0-.97.83-1.7,1.85-1.7.93,0,1.73.49,2.14,1.33l-.84.39c-.3-.51-.77-.8-1.31-.8s-.92.34-.92.8c0,.3.21.6.84.88l.76.34c.93.41,1.35.96,1.35,1.81,0,1.05-.81,1.83-1.89,1.83-.93,0-1.7-.5-2.13-1.33Z"/>
      <path class="cls-5" d="m520.16,155.56h1.09v1.09h-1.09v-1.09Zm.08,2.65h.92v6.46h-.92v-6.46Z"/>
      <path class="cls-5" d="m523.52,162.98v-3.84h-.76v-.92h.76v-2.66h.92v2.66h1.3v.92h-1.3v3.84c0,.42.33.76.76.76h.24v.92h-.24c-.94,0-1.68-.74-1.68-1.69Z"/>
      <path class="cls-5" d="m527.05,162.26v-1.64c0-1.37,1.11-2.48,2.46-2.48s2.47,1.11,2.47,2.48v.93h-4.01v.71c0,.84.7,1.55,1.54,1.55.45,0,.83-.17,1.13-.5l.65.67c-.47.51-1.1.75-1.78.75-1.35,0-2.46-1.11-2.46-2.47Zm4.01-1.6c0-.91-.7-1.59-1.54-1.59-.89,0-1.51.66-1.55,1.59h3.08Z"/>
    </g>
    <g>
      <polygon class="cls-5" points="553.68 161.1 553.68 163.44 546.21 163.44 546.21 155.96 548.55 155.96 548.55 155.03 545.28 155.03 545.28 164.37 554.62 164.37 554.62 161.1 553.68 161.1"/>
      <polygon class="cls-5" points="551.35 155.03 551.35 155.96 553.02 155.96 549.62 159.37 550.28 160.03 553.68 156.62 553.68 158.3 554.62 158.3 554.62 155.03 551.35 155.03"/>
    </g>
  </g>
</svg>