<svg id="グループ_245" data-name="グループ 245" xmlns="http://www.w3.org/2000/svg" width="153.362" height="126.159" viewBox="0 0 153.362 126.159">
  <g id="グループ_238" data-name="グループ 238" transform="translate(0)">
    <path id="パス_120" data-name="パス 120" d="M1250.891,989.159a28.033,28.033,0,0,1-25.089-15.422,25.812,25.812,0,0,1-25.458-42.729,29.352,29.352,0,0,1,25.976-48.288,34.826,34.826,0,0,1,10.457-12.786,34.617,34.617,0,0,1,53.181,15.48,25.828,25.828,0,0,1,18.983,33.278,33.666,33.666,0,0,1-33.674,56.359,28.139,28.139,0,0,1-24.376,14.108Zm-24.04-19.727a1.946,1.946,0,0,1,1.79,1.182,24.221,24.221,0,0,0,43.952,1.186,1.946,1.946,0,0,1,2.44-.957,29.775,29.775,0,0,0,30.355-50.133,1.946,1.946,0,0,1-.527-2.159,21.933,21.933,0,0,0-16.7-29.523,1.948,1.948,0,0,1-1.511-1.294,30.721,30.721,0,0,0-57.38-2.1,1.951,1.951,0,0,1-2.138,1.152,25.457,25.457,0,0,0-22.7,42.932,1.948,1.948,0,0,1-.081,2.81,21.925,21.925,0,0,0,21.854,37.013A1.937,1.937,0,0,1,1226.85,969.432Z" transform="translate(-1193.201 -863)" fill="#0da43b"/>
  </g>
  <g id="グループ_241" data-name="グループ 241" transform="translate(29.773 46.546)">
    <g id="グループ_239" data-name="グループ 239" transform="translate(0 0)">
      <path id="パス_121" data-name="パス 121" d="M1238.748,921.515a4.174,4.174,0,0,0-.344-1.7,4.434,4.434,0,0,0-.919-1.356,4.116,4.116,0,0,0-1.356-.9,4.318,4.318,0,0,0-1.656-.321,3.94,3.94,0,0,0-1.7.368,4.56,4.56,0,0,0-1.357.965,4.424,4.424,0,0,0-.9,1.356,4.037,4.037,0,0,0-.322,1.587v11.307a4.072,4.072,0,0,0,.344,1.656,4.352,4.352,0,0,0,2.276,2.275,4.043,4.043,0,0,0,1.655.344,4.1,4.1,0,0,0,2.988-1.172,4.462,4.462,0,0,0,1.287-3.1h6.39a10.665,10.665,0,1,1-21.329,0V921.515a10.393,10.393,0,0,1,.827-4.138,10.668,10.668,0,0,1,2.276-3.378,10.908,10.908,0,0,1,3.4-2.3,10.3,10.3,0,0,1,4.16-.85,10.614,10.614,0,0,1,10.665,10.665Z" transform="translate(-1223.808 -910.85)" fill="#0da43b"/>
    </g>
    <g id="グループ_240" data-name="グループ 240" transform="translate(24.638 0)">
      <path id="パス_122" data-name="パス 122" d="M1270.467,932.822a10.31,10.31,0,0,1-.85,4.161,10.925,10.925,0,0,1-2.3,3.4,10.687,10.687,0,0,1-3.378,2.275,10.4,10.4,0,0,1-4.138.827,10.614,10.614,0,0,1-10.665-10.665V921.515a10.394,10.394,0,0,1,.828-4.138,10.676,10.676,0,0,1,2.275-3.378,10.922,10.922,0,0,1,3.4-2.3,10.306,10.306,0,0,1,4.159-.85,10.153,10.153,0,0,1,4.138.85,10.933,10.933,0,0,1,5.677,5.677,10.146,10.146,0,0,1,.85,4.138Zm-14.94,0a4.06,4.06,0,0,0,.345,1.656,4.342,4.342,0,0,0,2.275,2.275,4.149,4.149,0,0,0,3.309,0,4.34,4.34,0,0,0,2.276-2.275,4.06,4.06,0,0,0,.344-1.656V921.515a4.064,4.064,0,0,0-.344-1.656,4.729,4.729,0,0,0-.919-1.378,3.942,3.942,0,0,0-1.357-.92,4.425,4.425,0,0,0-3.309,0,3.928,3.928,0,0,0-1.356.92,4.71,4.71,0,0,0-.919,1.378,4.064,4.064,0,0,0-.345,1.656Z" transform="translate(-1249.136 -910.85)" fill="#0da43b"/>
    </g>
  </g>
  <g id="グループ_243" data-name="グループ 243" transform="translate(79.683 62.658)">
    <g id="グループ_242" data-name="グループ 242" transform="translate(0 0)">
      <path id="パス_123" data-name="パス 123" d="M1275.117,934.845V934.6a6.932,6.932,0,0,1,.567-2.787,7.3,7.3,0,0,1,3.836-3.836,7.132,7.132,0,0,1,5.574,0,7.3,7.3,0,0,1,3.836,3.836,6.929,6.929,0,0,1,.568,2.787,5.772,5.772,0,0,1-.4,2.047,8.159,8.159,0,0,1-1.393,2.254l-6.64,7.913h8.429V951.6h-14.38v-4.507l8.669-10.527a8.845,8.845,0,0,0,.654-.946,1.96,1.96,0,0,0,.275-1.016,2.409,2.409,0,1,0-4.817,0v.241Z" transform="translate(-1275.117 -927.414)" fill="#0da43b"/>
    </g>
  </g>
  <g id="グループ_244" data-name="グループ 244" transform="translate(122.271 29.349)">
    <path id="パス_124" data-name="パス 124" d="M1342.422,904.16a7.723,7.723,0,1,0-15.342-1.263c0,.156.015.307.023.461a7.723,7.723,0,0,0,2.849,15.181,9.886,9.886,0,1,0,12.47-14.379Z" transform="translate(-1318.953 -893.226)" fill="#e4efe2"/>
    <path id="パス_125" data-name="パス 125" d="M1338.153,924.88a11.808,11.808,0,0,1-9.153-4.337c-.144.006-.288.01-.429.01a14.056,14.056,0,1,1,15.855-17.709c0,.058,0,.116,0,.174a11.828,11.828,0,0,1-6.271,21.862Zm-8.255-8.341a1.945,1.945,0,0,1,1.623.874,7.941,7.941,0,1,0,10.015-11.546,1.945,1.945,0,0,1-1.088-2.074,5.973,5.973,0,0,0,.086-.948,5.781,5.781,0,0,0-11.563,0c0,.068.006.133.01.2l.009.154a1.945,1.945,0,0,1-1.562,2.016,5.778,5.778,0,0,0,2.135,11.356A1.945,1.945,0,0,1,1329.9,916.538Z" transform="translate(-1318.898 -893.171)" fill="#0da43b"/>
  </g>
</svg>
