<?xml version="1.0" encoding="utf-8"?>
<!-- Generator: Adobe Illustrator 24.2.3, SVG Export Plug-In . SVG Version: 6.00 Build 0)  -->
<svg version="1.1" id="レイヤー_1" xmlns="http://www.w3.org/2000/svg" xmlns:xlink="http://www.w3.org/1999/xlink" x="0px"
	 y="0px" viewBox="0 0 66 66" style="enable-background:new 0 0 66 66;" xml:space="preserve">
<style type="text/css">
	.st0{fill:#0DA43B;}
	.st1{fill:#FFFFFF;}
	.st2{enable-background:new    ;}
</style>
<g id="レイヤー_2_1_">
	<g id="レイヤー_1-2">
		<g id="グループ_46">
			<circle id="楕円形_19" class="st0" cx="33" cy="33" r="33"/>
			<path id="パス_129" class="st1" d="M27.5,38.2v-2c1.4-0.1,2.7-0.4,4-0.9c0.7-0.4,1.3-1.5,1.7-3.1h2.1V53h-2.8V38.2H27.5z"/>
			<g class="st2">
				<path class="st1" d="M14.7,17.6c-0.9,0-1.6,0.7-1.6,1.6v3.4c0,0.9,0.7,1.6,1.6,1.6c0.9,0,1.6-0.7,1.6-1.6H18
					c0,0.2,0,0.6-0.1,0.8C17.5,25,16.2,26,14.7,26c-1.8,0-3.3-1.5-3.3-3.2v-3.4c0-1.8,1.5-3.3,3.3-3.3c1.5,0,2.8,1,3.1,2.4
					c0.1,0.3,0.1,0.6,0.1,0.8h-1.6C16.4,18.3,15.6,17.6,14.7,17.6z"/>
				<path class="st1" d="M21.5,18.9c1.5,0,2.6,1.2,2.6,2.6v1.8c0,1.5-1.2,2.6-2.6,2.6c-1.5,0-2.6-1.2-2.6-2.6v-1.8
					C18.8,20.1,20,18.9,21.5,18.9z M21.5,20.3c-0.7,0-1.2,0.5-1.2,1.2v1.8c0,0.7,0.5,1.2,1.2,1.2s1.2-0.6,1.2-1.2v-1.8
					C22.7,20.9,22.1,20.3,21.5,20.3z"/>
				<path class="st1" d="M26.5,19.4c0.4-0.3,0.8-0.4,1.3-0.4c1.2,0,2.5,0.8,2.5,2.6v4.3H29v-4.3c0-0.7-0.5-1.2-1.2-1.2
					c-0.7,0-1.2,0.5-1.2,1.2v4.3h-1.4V19h1.4V19.4z"/>
				<path class="st1" d="M34,25.9c-1.5,0-2.6-1.2-2.6-2.7v-1.6c0-1.5,1.1-2.7,2.6-2.7c1.5,0,2.6,1.2,2.6,2.6h-1.4
					c0-0.7-0.5-1.2-1.2-1.2c-0.7,0-1.2,0.5-1.2,1.3v1.6c0,0.8,0.5,1.3,1.2,1.3c0.7,0,1.2-0.6,1.2-1.2h1.4
					C36.7,24.7,35.5,25.9,34,25.9z"/>
				<path class="st1" d="M40.1,24.5c0.3,0,0.6-0.1,0.9-0.4l1,1c-0.5,0.5-1.2,0.8-1.9,0.8c-1.4,0-2.6-1.2-2.6-2.6v-1.8
					c0-1.5,1.2-2.6,2.6-2.6c1.4,0,2.6,1.2,2.6,2.6V23h-3.9v0.3C38.9,24,39.5,24.5,40.1,24.5z M40.2,20.3c-0.7,0-1.2,0.5-1.2,1.2h2.4
					C41.3,20.8,40.8,20.3,40.2,20.3z"/>
				<path class="st1" d="M46.5,19c0.7,0,1.3,0.3,1.8,0.8l-1,1c-0.2-0.2-0.5-0.4-0.9-0.4c-0.7,0-1.2,0.5-1.2,1.2v4.3h-1.4V19h1.4v0.4
					C45.6,19.1,46,19,46.5,19z"/>
				<path class="st1" d="M50.5,19.4c0.3-0.3,0.8-0.4,1.3-0.4c1.2,0,2.5,0.8,2.5,2.6v4.3H53v-4.3c0-0.7-0.5-1.2-1.2-1.2
					c-0.7,0-1.2,0.5-1.2,1.2v4.3h-1.4V19h1.4V19.4z"/>
			</g>
		</g>
	</g>
</g>
</svg>
