<svg id="レイヤー_1" data-name="レイヤー 1" xmlns="http://www.w3.org/2000/svg" width="65.048" height="64.879" viewBox="0 0 65.048 64.879">
  <path id="パス_1" data-name="パス 1" d="M26.3,61.418v6.947A7.428,7.428,0,0,1,24.4,73.133L26.3,79.286h-4L20.87,75.032a7.487,7.487,0,0,1-1.34.13,6.817,6.817,0,0,1-6.83-6.8V61.418a6.8,6.8,0,1,1,13.6,0Zm34.879,0v6.947a6.772,6.772,0,0,1-13.543,0V61.418a6.772,6.772,0,0,1,13.543,0Z" transform="translate(-4.439 -19.091)" fill="#fff"/>
  <path id="パス_2" data-name="パス 2" d="M65.048,0V64.879H0V0ZM56.735,49.274V42.327a6.772,6.772,0,1,0-13.543,0v6.947a6.772,6.772,0,1,0,13.543,0Zm-4.7-19.924V8.853H47.875v20.5ZM41.091,56.019V51.876h-9.53V35.555H27.418v20.49Zm0-26.67V8.853H36.928V20.562L31.548,8.853H27.418v20.49h4.144V17.635l5.379,11.741ZM21.863,22.539V8.879h-4v13.66a2.771,2.771,0,1,1-5.536,0V8.879H8.261v13.66a6.732,6.732,0,0,0,6.83,6.811,6.68,6.68,0,0,0,6.772-6.811Zm0,26.735V42.327a6.8,6.8,0,1,0-13.6,0v6.947a6.817,6.817,0,0,0,6.824,6.772,7.487,7.487,0,0,0,1.34-.13l1.425,4.28h4l-1.893-6.154a7.428,7.428,0,0,0,1.893-4.768Z" fill="red"/>
  <path id="パス_3" data-name="パス 3" d="M52.327,13.61H56.49v20.5H52.327ZM45.543,56.633V60.8H31.856V40.312H36V56.633h9.543Zm0-43.023V34.1H41.379L36,22.359V34.1H31.856V13.61H36l5.379,11.722V13.61Zm-19.241,0V27.27a6.8,6.8,0,1,1-13.6.026V13.636h4.1V27.3a2.771,2.771,0,1,0,5.536,0V13.636Z" transform="translate(-4.439 -4.757)" fill="#fff"/>
  <path id="パス_4" data-name="パス 4" d="M21.711,60.83a2.758,2.758,0,0,0-2.771,2.758v6.947a2.771,2.771,0,0,0,5.536,0V63.588a2.752,2.752,0,0,0-2.765-2.758Zm34.872,0a2.771,2.771,0,0,0-2.778,2.758v6.947a2.784,2.784,0,0,0,5.555,0V63.588a2.771,2.771,0,0,0-2.778-2.758Z" transform="translate(-6.62 -21.261)" fill="red"/>
</svg>
