<svg xmlns="http://www.w3.org/2000/svg" width="290.023" height="27.347" viewBox="0 0 290.023 27.347">
  <path id="パス_127" data-name="パス 127" d="M5.268-20.8V-7.944a7.563,7.563,0,0,0,.85,3.767,4.465,4.465,0,0,0,4.248,2.266q3.583,0,4.871-2.45a7.8,7.8,0,0,0,.694-3.583V-20.8h2.86V-9.119a13.516,13.516,0,0,1-1.034,5.9Q15.859.552,10.592.552T3.441-3.214a13.516,13.516,0,0,1-1.034-5.9V-20.8Zm18.029,0h3.328L37.131-3.951V-20.8h2.676V0H36.65L25.987-16.836V0H23.3Zm21.725,0h2.846V0H45.022ZM71.618-.057,70.2,1.657,66.988-.793A11.977,11.977,0,0,1,64.474.227a10.822,10.822,0,0,1-2.952.382,9.511,9.511,0,0,1-7.59-3.172,12.144,12.144,0,0,1-2.421-7.731,12.3,12.3,0,0,1,2.1-7.222,9.079,9.079,0,0,1,7.958-3.852q5.508,0,8.156,3.54a11.472,11.472,0,0,1,2.067,7.066,14.913,14.913,0,0,1-.5,3.866A9.993,9.993,0,0,1,68.758-2.28ZM61.862-1.912a10.575,10.575,0,0,0,1.643-.12,3.514,3.514,0,0,0,1.331-.474l-2.28-1.784,1.416-1.742,2.719,2.11a7.878,7.878,0,0,0,1.749-3.3,14.315,14.315,0,0,0,.46-3.5,8.756,8.756,0,0,0-1.919-5.9,6.549,6.549,0,0,0-5.246-2.237A6.888,6.888,0,0,0,56.4-16.716q-1.968,2.145-1.968,6.606a8.919,8.919,0,0,0,1.89,5.976A6.872,6.872,0,0,0,61.862-1.912ZM75.289-20.8h2.818V-2.478H88.642V0H75.289Zm25.251-.566q5.508,0,8.156,3.54a11.472,11.472,0,0,1,2.067,7.066A12.365,12.365,0,0,1,108.4-3.016,9.378,9.378,0,0,1,100.483.609a9.461,9.461,0,0,1-7.547-3.172,11.977,11.977,0,0,1-2.45-7.731,12.3,12.3,0,0,1,2.1-7.222A9.079,9.079,0,0,1,100.54-21.368Zm.283,19.456a5.866,5.866,0,0,0,5.388-2.669,11.361,11.361,0,0,0,1.664-6.138,8.756,8.756,0,0,0-1.919-5.9,6.549,6.549,0,0,0-5.246-2.237,6.832,6.832,0,0,0-5.268,2.216Q93.4-14.429,93.4-10.11a9.548,9.548,0,0,0,1.749,5.827Q96.9-1.912,100.823-1.912Zm22.6-4.323a6.186,6.186,0,0,0,.623,2.364,4.677,4.677,0,0,0,1.305,1.58,5.172,5.172,0,0,0,1.841.885,8.724,8.724,0,0,0,2.233.276,7.441,7.441,0,0,0,2.407-.348,4.553,4.553,0,0,0,1.653-.942,3.7,3.7,0,0,0,.943-1.378,4.52,4.52,0,0,0,.3-1.653,3.264,3.264,0,0,0-.551-1.972,4.25,4.25,0,0,0-1.436-1.232,8.786,8.786,0,0,0-2.03-.768q-1.145-.29-2.349-.566t-2.349-.653a7.394,7.394,0,0,1-2.03-1.015,4.905,4.905,0,0,1-1.436-1.639A5.219,5.219,0,0,1,122-15.834a5.106,5.106,0,0,1,.45-2.088,5.2,5.2,0,0,1,1.334-1.8A6.547,6.547,0,0,1,126-20.967a9.343,9.343,0,0,1,3.074-.464,8.81,8.81,0,0,1,3.089.493,6.133,6.133,0,0,1,2.189,1.349,5.551,5.551,0,0,1,1.305,1.986,6.647,6.647,0,0,1,.435,2.407h-1.885a4.687,4.687,0,0,0-.421-2.059,3.863,3.863,0,0,0-1.146-1.421,4.891,4.891,0,0,0-1.653-.812,7.035,7.035,0,0,0-1.914-.261,6.73,6.73,0,0,0-2.537.421,4.458,4.458,0,0,0-1.639,1.087,3.673,3.673,0,0,0-.841,1.479,3.56,3.56,0,0,0-.087,1.624,2.833,2.833,0,0,0,.812,1.624,5.124,5.124,0,0,0,1.566,1,11.8,11.8,0,0,0,2.045.638q1.117.247,2.276.522a23.281,23.281,0,0,1,2.247.653,6.908,6.908,0,0,1,1.929,1.015,4.675,4.675,0,0,1,1.348,1.639,5.519,5.519,0,0,1,.507,2.508,5.42,5.42,0,0,1-2,4.5A8.818,8.818,0,0,1,129.074.551,10.386,10.386,0,0,1,126.058.13a6.682,6.682,0,0,1-2.407-1.276,5.861,5.861,0,0,1-1.58-2.117,7.216,7.216,0,0,1-.565-2.973Zm26.97-8.787h1.74V0h-1.74V-2.088q-.348.406-.783.841a5.944,5.944,0,0,1-1,.8,5.742,5.742,0,0,1-1.32.609,5.6,5.6,0,0,1-1.74.247,6.616,6.616,0,0,1-2.523-.421,4.13,4.13,0,0,1-1.639-1.175,4.655,4.655,0,0,1-.9-1.754,8.229,8.229,0,0,1-.275-2.19v-9.889h1.74v9.86a4.388,4.388,0,0,0,.9,2.973,3.745,3.745,0,0,0,2.958,1.029,4.314,4.314,0,0,0,1.928-.421,4.031,4.031,0,0,0,1.436-1.174,5.6,5.6,0,0,0,.9-1.8,7.812,7.812,0,0,0,.319-2.291Zm7.1,10.324a4.416,4.416,0,0,0,1.465,2.74,4.963,4.963,0,0,0,3.031.8,5.246,5.246,0,0,0,1.653-.232,3.32,3.32,0,0,0,1.145-.624,2.689,2.689,0,0,0,.682-.885,2.422,2.422,0,0,0,.232-1.044,1.921,1.921,0,0,0-.71-1.638,5.362,5.362,0,0,0-1.784-.841,22.966,22.966,0,0,0-2.32-.522,11.349,11.349,0,0,1-2.32-.653,4.646,4.646,0,0,1-1.783-1.247,3.369,3.369,0,0,1-.71-2.291,3.915,3.915,0,0,1,1.377-3.089,5.743,5.743,0,0,1,3.9-1.2,6.658,6.658,0,0,1,3.958,1.088,4.973,4.973,0,0,1,1.841,3.64h-1.769a3.252,3.252,0,0,0-1.32-2.451,4.914,4.914,0,0,0-2.74-.71,3.9,3.9,0,0,0-2.523.71,2.3,2.3,0,0,0-.87,1.87,1.826,1.826,0,0,0,.711,1.552,5.79,5.79,0,0,0,1.783.87q1.073.333,2.32.594a11.427,11.427,0,0,1,2.32.74,5.078,5.078,0,0,1,1.784,1.29,3.322,3.322,0,0,1,.71,2.262,3.814,3.814,0,0,1-.464,1.9A4.039,4.039,0,0,1,165.817-.7a5.935,5.935,0,0,1-1.928.826,10.223,10.223,0,0,1-2.451.276,6.621,6.621,0,0,1-2.363-.392,5.131,5.131,0,0,1-1.755-1.087A5.015,5.015,0,0,1,156.189-2.7a5.72,5.72,0,0,1-.464-2ZM176.4.058q-.319.058-.841.2a4.33,4.33,0,0,1-1.16.145,2.764,2.764,0,0,1-1.987-.653,3.177,3.177,0,0,1-.681-2.335V-13.572h-2.117v-1.45h2.117V-19.2h1.74v4.176h2.813v1.45h-2.813V-3.277q0,.551.029.957a1.6,1.6,0,0,0,.174.667.832.832,0,0,0,.449.377,2.492,2.492,0,0,0,.856.116,4.493,4.493,0,0,0,.71-.058q.363-.058.71-.145Zm12.76-7.946a8.531,8.531,0,0,1-2.233.609q-1.131.145-2.262.232a6.376,6.376,0,0,0-3.117.9,2.576,2.576,0,0,0-1.117,2.291,2.487,2.487,0,0,0,.275,1.2,2.543,2.543,0,0,0,.725.841,3.065,3.065,0,0,0,1.044.493,4.625,4.625,0,0,0,1.2.16,7.9,7.9,0,0,0,2.03-.261,5.489,5.489,0,0,0,1.755-.8A4.069,4.069,0,0,0,188.7-3.581a3.935,3.935,0,0,0,.464-1.958Zm-2.929-.87q.493-.058,1.174-.174a4.435,4.435,0,0,0,1.117-.319.924.924,0,0,0,.536-.681,4.283,4.283,0,0,0,.1-.884,2.965,2.965,0,0,0-.855-2.19,3.99,3.99,0,0,0-2.886-.855,8,8,0,0,0-1.653.159,3.6,3.6,0,0,0-1.319.551,3.04,3.04,0,0,0-.928,1.044,4.431,4.431,0,0,0-.479,1.639h-1.769a5.374,5.374,0,0,1,.609-2.277,4.616,4.616,0,0,1,1.348-1.537,5.594,5.594,0,0,1,1.914-.87,9.358,9.358,0,0,1,2.305-.276,8.886,8.886,0,0,1,2.132.247,4.941,4.941,0,0,1,1.74.783,3.636,3.636,0,0,1,1.16,1.435,5.182,5.182,0,0,1,.421,2.2v8.178q0,1.015.363,1.291t1.464-.13V-.058l-.594.174a2.7,2.7,0,0,1-.768.116,3.471,3.471,0,0,1-.783-.087,1.34,1.34,0,0,1-.7-.275,1.7,1.7,0,0,1-.421-.522,2.163,2.163,0,0,1-.217-.667,4.864,4.864,0,0,1-.058-.768,7.555,7.555,0,0,1-2.523,1.856,7.418,7.418,0,0,1-3.074.638,6.88,6.88,0,0,1-1.9-.261,4.6,4.6,0,0,1-1.61-.812,4.032,4.032,0,0,1-1.1-1.349,4.14,4.14,0,0,1-.406-1.9q0-3.828,5.249-4.524ZM195.861,0V-15.022h1.74V0Zm-.087-18.3V-20.88h1.914V-18.3ZM203.923,0h-1.74V-15.022h1.74v2.088a11.051,11.051,0,0,1,2.16-1.8,4.97,4.97,0,0,1,2.683-.7,6.849,6.849,0,0,1,2.581.479,4.4,4.4,0,0,1,2,1.667A3.74,3.74,0,0,1,214-11.615a15.137,15.137,0,0,1,.1,1.784V0h-1.74V-9.8a4.475,4.475,0,0,0-.9-3.045,3.817,3.817,0,0,0-2.987-1.015,4.239,4.239,0,0,0-1.479.246,4.654,4.654,0,0,0-1.2.653,4.371,4.371,0,0,0-.913.928,4.306,4.306,0,0,0-.58,1.1,5.531,5.531,0,0,0-.319,1.392q-.058.667-.058,1.45Zm24.36-7.888a8.531,8.531,0,0,1-2.233.609q-1.131.145-2.262.232a6.376,6.376,0,0,0-3.117.9,2.576,2.576,0,0,0-1.117,2.291,2.487,2.487,0,0,0,.275,1.2,2.543,2.543,0,0,0,.725.841,3.065,3.065,0,0,0,1.044.493,4.625,4.625,0,0,0,1.2.16,7.9,7.9,0,0,0,2.03-.261,5.489,5.489,0,0,0,1.755-.8,4.069,4.069,0,0,0,1.232-1.363,3.935,3.935,0,0,0,.464-1.958Zm-2.929-.87q.493-.058,1.174-.174a4.435,4.435,0,0,0,1.117-.319.924.924,0,0,0,.536-.681,4.283,4.283,0,0,0,.1-.884,2.965,2.965,0,0,0-.855-2.19,3.99,3.99,0,0,0-2.886-.855,8,8,0,0,0-1.653.159,3.6,3.6,0,0,0-1.319.551,3.04,3.04,0,0,0-.928,1.044,4.431,4.431,0,0,0-.479,1.639h-1.769A5.374,5.374,0,0,1,219-12.746a4.616,4.616,0,0,1,1.348-1.537,5.594,5.594,0,0,1,1.914-.87,9.358,9.358,0,0,1,2.305-.276,8.886,8.886,0,0,1,2.132.247,4.941,4.941,0,0,1,1.74.783,3.636,3.636,0,0,1,1.16,1.435,5.182,5.182,0,0,1,.421,2.2v8.178q0,1.015.363,1.291t1.464-.13V-.058l-.594.174a2.7,2.7,0,0,1-.768.116A3.471,3.471,0,0,1,229.7.145a1.34,1.34,0,0,1-.7-.275,1.7,1.7,0,0,1-.421-.522,2.163,2.163,0,0,1-.217-.667,4.864,4.864,0,0,1-.058-.768,7.555,7.555,0,0,1-2.523,1.856,7.418,7.418,0,0,1-3.074.638,6.88,6.88,0,0,1-1.9-.261,4.6,4.6,0,0,1-1.61-.812,4.032,4.032,0,0,1-1.1-1.349,4.14,4.14,0,0,1-.406-1.9q0-3.828,5.249-4.524Zm11.31,1.189A9.257,9.257,0,0,0,237-5.031,6.185,6.185,0,0,0,237.969-3a4.578,4.578,0,0,0,1.6,1.349,4.681,4.681,0,0,0,2.175.493,5.17,5.17,0,0,0,2.03-.391A4.647,4.647,0,0,0,245.393-2.7a5.345,5.345,0,0,0,1.088-1.841,7.389,7.389,0,0,0,.391-2.509A9.807,9.807,0,0,0,246.64-9.7a6.333,6.333,0,0,0-.928-2.16,4.593,4.593,0,0,0-1.638-1.465,4.867,4.867,0,0,0-2.335-.536,4.424,4.424,0,0,0-2.132.507,4.915,4.915,0,0,0-1.6,1.363,6.27,6.27,0,0,0-1,2A8.286,8.286,0,0,0,236.664-7.569Zm0,7.569h-1.74V-20.88h1.74v8.265a5.385,5.385,0,0,1,2.305-2.1,6.926,6.926,0,0,1,3.059-.711,6.388,6.388,0,0,1,2.973.652,6.1,6.1,0,0,1,2.088,1.74,7.477,7.477,0,0,1,1.232,2.538,11.133,11.133,0,0,1,.406,3.016,12.3,12.3,0,0,1-.377,3.1,6.8,6.8,0,0,1-1.2,2.508,5.779,5.779,0,0,1-2.1,1.667,7.162,7.162,0,0,1-3.1.609,5.674,5.674,0,0,1-1.479-.2A7,7,0,0,1,239-.377a5.9,5.9,0,0,1-1.3-.942,4.715,4.715,0,0,1-.971-1.319h-.058Zm16.182,0V-15.022h1.74V0Zm-.087-18.3V-20.88h1.914V-18.3ZM259.429,0V-20.88h1.74V0Zm6.583,0V-15.022h1.74V0Zm-.087-18.3V-20.88h1.914V-18.3ZM277.612.058q-.319.058-.841.2a4.33,4.33,0,0,1-1.16.145,2.764,2.764,0,0,1-1.986-.653,3.177,3.177,0,0,1-.682-2.335V-13.572h-2.117v-1.45h2.117V-19.2h1.74v4.176H277.5v1.45h-2.813V-3.277q0,.551.029.957a1.6,1.6,0,0,0,.174.667.832.832,0,0,0,.449.377,2.492,2.492,0,0,0,.855.116,4.493,4.493,0,0,0,.71-.058q.363-.058.711-.145Zm2.813,4.031.71.116a4.674,4.674,0,0,0,.74.058,1.61,1.61,0,0,0,1.189-.464,3.882,3.882,0,0,0,.768-1.116,9.184,9.184,0,0,0,.508-1.363,6.27,6.27,0,0,1,.464-1.2l-5.829-15.138h1.943l4.814,12.905,4.814-12.905h1.885L286.834-.2q-.522,1.421-1,2.552a11.474,11.474,0,0,1-1.015,1.928A4.213,4.213,0,0,1,283.629,5.5a2.8,2.8,0,0,1-1.552.42,6.474,6.474,0,0,1-.884-.058,7.284,7.284,0,0,1-.768-.145Z" transform="translate(-2.407 21.431)"/>
</svg>
