<svg xmlns="http://www.w3.org/2000/svg" viewBox="0 0 554.62 133.91"><g id="レイヤー_2" data-name="レイヤー 2"><g id="contents"><path d="M40.26,11a41.65,41.65,0,0,0,5.38-.23,25.09,25.09,0,0,0-.22,3.87V19a25.07,25.07,0,0,0,.22,3.81,35.47,35.47,0,0,0-4.93-.22H9.52a34.93,34.93,0,0,0-4.93.22,27.49,27.49,0,0,0,.23-3.92v-4a31.31,31.31,0,0,0-.23-4.09A41.65,41.65,0,0,0,10,11h3.3V8.51H6.16A37,37,0,0,0,0,8.85V3.14a48,48,0,0,0,6.16.33h7.11V2.86A15,15,0,0,0,13.05,0h6.16A22.8,22.8,0,0,0,19,2.86v.61H30.52V2.86A16.27,16.27,0,0,0,30.3,0h6.21a15.37,15.37,0,0,0-.22,2.86v.61H44a51.17,51.17,0,0,0,6.27-.33V8.85A45.62,45.62,0,0,0,44,8.51H36.29V11ZM17,36.74a48.18,48.18,0,0,1-11.25,6,15.25,15.25,0,0,0-4.54-4.59,35,35,0,0,0,10.31-4.09,23.85,23.85,0,0,0,5.54-4.43H6.61v5.32H.67A26,26,0,0,0,.9,30.86V28.39a22.39,22.39,0,0,0-.23-3.81,56.59,56.59,0,0,0,6.05.23H43.46a58.78,58.78,0,0,0,6.16-.23,21.58,21.58,0,0,0-.23,3.81v2.47a24.71,24.71,0,0,0,.23,4.08H43.68V29.62H24.36c-.95,1.18-1.34,1.68-2.24,2.64H34.55A29.23,29.23,0,0,0,39,32l3.58,4a12.07,12.07,0,0,0-1.29,1.12,44.71,44.71,0,0,1-12.09,8.68,59.48,59.48,0,0,1-14.06,4.6c-2.35.5-4,.72-9.3,1.4a14.14,14.14,0,0,0-3.36-5.72c8-.33,12.38-1,17.7-2.52a30.64,30.64,0,0,0-5.77-3.24l4.2-2.92a41.56,41.56,0,0,1,7.23,4.09,30.85,30.85,0,0,0,7.72-4.81Zm-.5-21.51h-6v3h6Zm14-6.72H19V11H30.52Zm-2.63,6.72H21.78v3h6.11Zm11.76,3v-3H33.26v3Z"/><path d="M76.33.78A93.67,93.67,0,0,0,80,18.31C83.66,17,83.66,17,94.53,13.38a13.71,13.71,0,0,0,2.13-.84l2.4,7.06A136.44,136.44,0,0,0,80.58,25c-8.17,3-12.26,6.6-12.26,10.64s3.81,5.82,12.82,5.82c7,0,13.89-.84,18.09-2.3l.62,7.68a34.14,34.14,0,0,0-4.54.39,119.81,119.81,0,0,1-13.1.84C74.42,48.05,69.55,47.1,66,45a10.6,10.6,0,0,1-4.87-9.35,13.16,13.16,0,0,1,5-10,34.15,34.15,0,0,1,7.62-4.81A142.67,142.67,0,0,1,69.94,5.6,24.11,24.11,0,0,0,69.05,2Z"/><path d="M154.28,7.06c-.67.16-.67.16-4.7,1.51a69.42,69.42,0,0,1-9.36,2.29c-.05,7.56-.05,7.56-.16,9.47h11.87a35.19,35.19,0,0,0,6.83-.39v6.72a50.14,50.14,0,0,0-6.72-.28H139.66c-.61,5.2-1.79,9-3.75,12.2a29,29,0,0,1-9.13,8.91,34.85,34.85,0,0,1-5.2,2.8,18.15,18.15,0,0,0-4.88-5.94,25.67,25.67,0,0,0,8.68-4.7,17.87,17.87,0,0,0,6.44-9.52,30.16,30.16,0,0,0,.62-3.75H118.61a50.05,50.05,0,0,0-6.72.28V19.94a35.19,35.19,0,0,0,6.83.39h14.34c.11-2.35.11-4.54.11-8.46-4.54.67-6.27.84-15.51,1.29a23.27,23.27,0,0,0-2.08-6c1.74.11,2.64.11,3.48.11A96.58,96.58,0,0,0,143,4a29.44,29.44,0,0,0,6.78-2.64Z"/><path d="M213.81,13.72a8.76,8.76,0,0,0-.62,3.75c-.17,6.33-.78,15-1.34,18.65-1.46,9.69-3.42,12-10.14,12a42.32,42.32,0,0,1-6.94-.61c-.11-3.53-.28-4.59-1.29-7.17a28.83,28.83,0,0,0,7.39,1.29c2.41,0,3.25-1.23,4.15-6.11a126,126,0,0,0,1.23-17.92l-13.05.06c-.78,7-2,11.2-4.48,16-3.08,5.93-8.06,11-15.12,15.51a22,22,0,0,0-5-5.94c7-3.69,11.59-8.12,14.56-14.11A28.9,28.9,0,0,0,186,19.38c.11-.79.22-1.35.28-1.74l-9.3.06a39,39,0,0,0-6.05.28l0-6.89a32.49,32.49,0,0,0,6.21.45l9.8-.06c.17-2.13.28-5.38.28-7V3.08A10.66,10.66,0,0,0,187,.9l7.51.16c-.11.73-.17,1-.23,1.74,0,.34,0,.67,0,1.06C194.1,5,194.1,5,194,8c0,1.23,0,1.74-.22,3.53l12.43-.06a11.31,11.31,0,0,0,4.43-.5Z"/><path d="M269.81,19.77a24.92,24.92,0,0,0-1.57,3.53c-2.91,8.23-7.17,14.44-13,18.92-4,3.08-7.62,5-14.67,7.62a19.78,19.78,0,0,0-4.37-6.5c6.83-1.73,11.25-3.8,15.57-7.39,4.14-3.47,6.55-6.89,9-13.1H233.52a55.92,55.92,0,0,0-7.17.28V16.3a40.36,40.36,0,0,0,7.28.39h26.66a24.11,24.11,0,0,0,6.33-.51Zm-38.7-17a31.65,31.65,0,0,0,6.55.39h19.55a31.59,31.59,0,0,0,6.55-.39V9.69a42.27,42.27,0,0,0-6.44-.28H237.55a42.27,42.27,0,0,0-6.44.28Z"/><path d="M281,6.55c2.3.51,5.88.73,13,.73A21.87,21.87,0,0,0,296.18.34l7.34.78c-.34.56-.34.56-2.24,5-.28.62-.39.78-.5,1,.44-.06.44-.06,3.52-.23,6.5-.39,11.6-1,14.68-1.9l.39,6.38c-1.57.12-1.57.12-4.43.45-4.08.51-11.2,1-16.85,1.12a29.24,29.24,0,0,1-5.15,7.45l.05.11c.39-.28.39-.28,1.12-.84a13.52,13.52,0,0,1,7.9-2.52c4.37,0,7.11,2.07,8,5.94q6.47-2.36,8.56-3c3-1.06,3.25-1.12,4.15-1.68l2.63,6.44a50.94,50.94,0,0,0-6.22,1.52q-1.17.33-8.4,2.85v.62c.06,1.45.06,1.45.06,2.24v2.24c-.06,1-.06,1.45-.06,1.85a23.19,23.19,0,0,0,.17,3l-6.49.17a45.07,45.07,0,0,0,.33-6.49V31.47a34,34,0,0,0-5.37,2.91c-2,1.46-2.92,3-2.92,4.6,0,2.91,2.69,4.08,9.47,4.08s12.49-.84,16.46-2.35l.56,7.23a16.1,16.1,0,0,0-2.57.22,101.09,101.09,0,0,1-14.34,1c-5.94,0-9.63-.67-12.49-2.35a8.15,8.15,0,0,1-4.09-7.23,8.92,8.92,0,0,1,2.47-6.21c2.52-3.14,5.71-5.27,12-7.9a3.07,3.07,0,0,0-3.42-3c-3.25,0-7.17,2-11.48,5.76a25.07,25.07,0,0,0-4.87,5.1l-5.1-5a34.35,34.35,0,0,0,5-5,73.74,73.74,0,0,0,6.72-9.58,3,3,0,0,1,.45-.73c-.22,0-.95.06-.95.06-.9,0-5.82-.11-7.06-.11-1.06-.06-1.06-.06-1.56-.06a5.8,5.8,0,0,0-.9.06Z"/><path d="M338.52,34a65.46,65.46,0,0,1,12.6,12.32l-5.21,4.87a60.32,60.32,0,0,0-12.15-12.76Z"/><path d="M7.67,89a64.62,64.62,0,0,0-.33-6.72h6.94A43.68,43.68,0,0,0,13.89,89v5.49H23V88.33a41,41,0,0,0-.39-6.11h6.72a49.88,49.88,0,0,0-.34,6v6.22h9.41V88.22a45.37,45.37,0,0,0-.34-6h6.84a39.68,39.68,0,0,0-.4,6v6.22h2a45.46,45.46,0,0,0,6.16-.34v6.27a48.59,48.59,0,0,0-6.16-.33h-2v12.32a50,50,0,0,0,.23,5c-1.51-.11-2.8-.17-4.71-.17H27.61c-1.91,0-3.14.06-4.87.17a39.28,39.28,0,0,0,.22-4.76v-12.6H13.89V125H43.06a65.26,65.26,0,0,0,7.06-.33v6.49a69.05,69.05,0,0,0-7.06-.33H13.89v3H7.34c.22-2.35.33-4.7.33-8v-25.7H6.55a48.15,48.15,0,0,0-6.16.33V94.15a46.7,46.7,0,0,0,6.16.34H7.67ZM29,100.09v11.76h9.41V100.09Z"/><path d="M71.4,106.58a57.72,57.72,0,0,0-5.88.23A52.66,52.66,0,0,0,65.8,101V89.28a54.42,54.42,0,0,0-.28-6,44.81,44.81,0,0,0,6,.28h30a46.83,46.83,0,0,0,6-.28,40.74,40.74,0,0,0-.28,6V101a38.82,38.82,0,0,0,.28,5.83c-1.8-.17-3.53-.23-6-.23H96.66c3.8,3.7,9.29,6.5,16.4,8.35a25.07,25.07,0,0,0-3,6,52.92,52.92,0,0,1-12.21-6.16v12.43a40.47,40.47,0,0,0,.33,6.16H91.45a47.34,47.34,0,0,0,.33-6.22V116.78a28.87,28.87,0,0,0-.28-4.43h3.25a31.44,31.44,0,0,1-5.54-5.77H83.38a28.43,28.43,0,0,1-5.2,5.77h4.2a18.09,18.09,0,0,0-.23,2.58c-.39,10.41-4.59,15.34-16,19a23.37,23.37,0,0,0-3.75-5.15c5.32-1.46,7.9-2.58,10.25-4.65s3.41-5,3.41-9.29c0-.12,0-.4,0-.73A44.19,44.19,0,0,1,63.17,121,22.89,22.89,0,0,0,60,115.26c7.17-2,12.49-4.87,15.91-8.68Zm.39-13.66H83.38V88.66H71.79Zm0,9H83.38v-4.2H71.79Zm17.36-9h12.1V88.66H89.15Zm0,9h12.1v-4.2H89.15Z"/><path d="M141.23,87.77a36.52,36.52,0,0,0-.33-6.11h7a41.91,41.91,0,0,0-.33,5.88v3.64H163a40,40,0,0,0,5.1-.22,40.55,40.55,0,0,0-.23,4.93V113a39.17,39.17,0,0,0,.28,5.6H161.5v-3.36H147.62v11.37a44,44,0,0,0,.39,6.94h-7.17a47,47,0,0,0,.39-6.94V115.21H128v3.36h-6.61a42.69,42.69,0,0,0,.28-5.6V95.83a43.25,43.25,0,0,0-.23-4.87,42.88,42.88,0,0,0,5,.22h14.73ZM128,97.12v12.15h13.21V97.12Zm33.48,12.15V97.12H147.62v12.15Z"/><path d="M202.1,115.77c-3.19,7.22-6.77,10.53-11.36,10.53-6.39,0-11-6.5-11-15.52a24,24,0,0,1,6.16-16.29c4.7-5.15,11.31-7.84,19.26-7.84,13.44,0,22.18,8.17,22.18,20.77,0,9.69-5,17.42-13.61,20.89a36.53,36.53,0,0,1-8.79,2.35,17.76,17.76,0,0,0-3.42-6.55c5.16-.67,8.52-1.57,11.15-3.08a15.68,15.68,0,0,0,7.78-14,13.88,13.88,0,0,0-6.89-12.43,12.14,12.14,0,0,0-5.65-1.68A81.26,81.26,0,0,1,202.1,115.77Zm-8.23-20a18.76,18.76,0,0,0-7.61,15.12c0,4.59,2,8.23,4.42,8.23,1.85,0,3.75-2.35,5.77-7.17A74.07,74.07,0,0,0,201.1,93,14.24,14.24,0,0,0,193.87,95.72Z"/><path d="M282.24,133.41A107.9,107.9,0,0,0,266,122.49a39.19,39.19,0,0,1-12.1,7.17A59.39,59.39,0,0,1,240.13,133a22.43,22.43,0,0,0-3-6.05,47.67,47.67,0,0,0,13.78-2.91,43,43,0,0,0,9.12-4.71,101.56,101.56,0,0,0-10.69-4.65c-.9,1.24-1,1.4-2,2.75a55.83,55.83,0,0,0-6.27-2.69,69.17,69.17,0,0,0,9.68-15.4h-7a50.55,50.55,0,0,0-6.6.34V93.2a54.93,54.93,0,0,0,6.6.34h9.52a63.25,63.25,0,0,0,3.53-11.71l7.28,1a38,38,0,0,0-1.4,3.92c-.89,2.74-1.45,4.37-2.35,6.78h20.94A51.78,51.78,0,0,0,288,93.2v6.5a50.84,50.84,0,0,0-6.44-.34h-3.08c-1.68,7.9-4,13.16-8,18.37a130.27,130.27,0,0,1,16.3,10.3ZM258,99.36a91.69,91.69,0,0,1-5.37,10.25,107.76,107.76,0,0,1,12.15,5.21c3.69-4.48,5.6-8.63,7.11-15.46Z"/><path d="M297.92,107.14a50.22,50.22,0,0,0,2-14.56l4.53.56c-.33,6.89-.84,11-2.07,15.68ZM305,133.46a53.4,53.4,0,0,0,.39-7.05v-39A37.12,37.12,0,0,0,305,81.5h6.72a46,46,0,0,0-.33,5.93v39.43a55.19,55.19,0,0,0,.33,6.6ZM329.78,93.2V87.6a37.76,37.76,0,0,0-.39-5.94h6.78a37.34,37.34,0,0,0-.39,5.94v5.6h6.55a38.76,38.76,0,0,0,6.16-.34v6.22a52.29,52.29,0,0,0-6.11-.34h-6.6v9.8h5.6a41.1,41.1,0,0,0,6-.28v6a42.47,42.47,0,0,0-6.1-.33h-5.54v11.87h7.61a49,49,0,0,0,6.55-.34v6.33a45.21,45.21,0,0,0-6.55-.39H320.88a45.63,45.63,0,0,0-6.61.39v-6.33a49.58,49.58,0,0,0,6.61.34h8.9V114h-5a47.17,47.17,0,0,0-6.21.33v-6l.89.12a34.07,34.07,0,0,0-5-3.14,23.18,23.18,0,0,0,3-5.6l-3.25,1.57a32,32,0,0,0-2.57-8.35l3.75-1.79a46.17,46.17,0,0,1,2.58,7.11,47.18,47.18,0,0,0,2.4-12.93l6,1.12a13.61,13.61,0,0,0-.4,2c-.16,1.07-.56,3.36-.84,4.82Zm-6.1,5.54a41.55,41.55,0,0,1-4,9.64c1.23.11,2.46.16,4.25.16h5.88v-9.8Z"/><path d="M363.44,91.63a44.09,44.09,0,0,0,7.5.51c.68,0,1.29,0,2.58-.06a68.64,68.64,0,0,0,1.06-8.57,8.58,8.58,0,0,0-.05-1l7.39.68a31.63,31.63,0,0,0-1.06,5.37c-.28,1.57-.34,1.91-.56,3.19a46.33,46.33,0,0,0,9.57-1.68l.28,6.44c-.45.06-.45.06-1.79.28A77.52,77.52,0,0,1,379.18,98c-.62,3.47-2,9.41-3.48,14.5A186.83,186.83,0,0,1,369.43,131l-7.05-2.74c3.86-7.12,8.17-20.16,10-30.13a5.32,5.32,0,0,1-.73.05h-3.25c-.28,0-.84,0-1.79-.05s-1.79-.06-2.24-.06a7.73,7.73,0,0,0-1.06.06Zm27.78,21.73c-2.24,2.8-2.92,4.2-2.92,6.16,0,2.86,2.8,4.31,8.4,4.31a42.78,42.78,0,0,0,12.72-2.07l.5,6.89c-1,.11-1.46.17-2.74.39a65.57,65.57,0,0,1-10.42.9c-5,0-8.57-.73-11.26-2.24a8.11,8.11,0,0,1-4-6.89c0-3,1.06-5.49,4.14-9.69ZM407.85,106a58.39,58.39,0,0,0-7.06-.39A60,60,0,0,0,386,107.26l-.51-6.16c8-1.52,10.64-1.8,16.69-1.8,1.51,0,2,0,5.55.06Z"/><path d="M420.5,90.79c2.58.67,6.33.95,12.1.95a48.22,48.22,0,0,0,1.57-9.24l7.5.62c-.33,1-.33,1-.89,3.25-1,4.2-1,4.2-1.35,5.26,4.26-.11,10.59-.56,14.28-1a38,38,0,0,0,7.17-1.28l.34,6.77c-1.29.06-1.8.11-3.25.28-8.12.9-13.05,1.29-20.05,1.46a75.39,75.39,0,0,1-4.42,11.37v.11a26,26,0,0,1,14.11-3.64c9.85,0,15.73,4.25,15.73,11.37,0,8.28-8,13.66-20.27,13.66a51.12,51.12,0,0,1-14.28-2,31.51,31.51,0,0,0-.56-7.11,42.69,42.69,0,0,0,14.45,2.69c8.12,0,13.38-2.86,13.38-7.34,0-3.47-3.36-5.38-9.4-5.38a28.22,28.22,0,0,0-12,2.75,9.48,9.48,0,0,0-4.09,3.25l-6.78-2.36a37.42,37.42,0,0,0,2.63-5,126.91,126.91,0,0,0,4.71-12.43c-3-.05-5.49-.17-8.46-.39-.78-.06-1.34-.06-1.79-.06h-.45Z"/><path d="M474.1,110c2.4-1.68,4.81-4.42,12.2-13.72a17.23,17.23,0,0,1,3.48-3.53,7.7,7.7,0,0,1,4.48-1.68,7.94,7.94,0,0,1,5,2.13,38.2,38.2,0,0,1,3.75,4,178.35,178.35,0,0,0,16.74,17.14,35.7,35.7,0,0,0,6.11,4.7l-3.42,8a11.21,11.21,0,0,0-1.62-1.62c-2.92-2.58-7.34-6.78-11.43-10.86-4.25-4.37-4.37-4.54-10.36-11.37-3.47-4-3.81-4.26-4.87-4.26-.9,0-1.46.51-3.36,3a157.67,157.67,0,0,1-11,13.55,9.15,9.15,0,0,0-1.18,1.51Z"/><path d="M554.62,123.72a9.46,9.46,0,1,1-9.46-9.46A9.5,9.5,0,0,1,554.62,123.72Zm-14.56,0a5.1,5.1,0,1,0,5.1-5.1A5.13,5.13,0,0,0,540.06,123.72Z"/></g></g></svg>