<svg xmlns="http://www.w3.org/2000/svg" viewBox="0 0 1086.89 62.21"><g id="レイヤー_2" data-name="レイヤー 2"><g id="contents"><path d="M47.79,13.63a49.8,49.8,0,0,0,6.38-.27A29.77,29.77,0,0,0,53.9,18v5.18a29.89,29.89,0,0,0,.27,4.52,42,42,0,0,0-5.85-.27h-37a41.38,41.38,0,0,0-5.85.27A32.92,32.92,0,0,0,5.72,23V18.21a37.32,37.32,0,0,0-.27-4.85,49.8,49.8,0,0,0,6.38.27h3.92V10.7H7.31A44.2,44.2,0,0,0,0,11.1V4.32a55.33,55.33,0,0,0,7.31.4h8.44V4A17.89,17.89,0,0,0,15.49.6H22.8A27,27,0,0,0,22.6,4v.73H36.22V4A18.43,18.43,0,0,0,36,.6h7.38A18.34,18.34,0,0,0,43.07,4v.73h9.11a59,59,0,0,0,7.44-.4V11.1a54.78,54.78,0,0,0-7.44-.4H43.07v2.93ZM20.21,44.2A57.43,57.43,0,0,1,6.85,51.31a18.24,18.24,0,0,0-5.39-5.45c5.78-1.53,8.71-2.72,12.23-4.85a28,28,0,0,0,6.58-5.25H7.84v6.31H.8a31.42,31.42,0,0,0,.26-4.85V34.3A26.87,26.87,0,0,0,.8,29.78,68.11,68.11,0,0,0,8,30h43.6a71,71,0,0,0,7.31-.26,25.63,25.63,0,0,0-.27,4.52v2.92a29.67,29.67,0,0,0,.27,4.85h-7V35.76H28.91c-1.13,1.4-1.59,2-2.66,3.12H41a35.07,35.07,0,0,0,5.25-.26l4.26,4.78A12.25,12.25,0,0,0,49,44.73,53.29,53.29,0,0,1,34.63,55,70.2,70.2,0,0,1,18,60.49c-2.8.59-4.72.86-11,1.66a16.9,16.9,0,0,0-4-6.78c9.44-.4,14.69-1.13,21-3a35.79,35.79,0,0,0-6.85-3.86l5-3.46a48.45,48.45,0,0,1,8.57,4.86,36.24,36.24,0,0,0,9.17-5.72Zm-.6-25.52H12.5v3.59h7.11Zm16.61-8H22.6v2.93H36.22Zm-3.12,8H25.86v3.59H33.1Zm14,3.59V18.68H39.48v3.59Z"/><path d="M90.59,1.53c.26,4.45,2.26,14,4.38,20.8,4.32-1.59,4.32-1.59,17.22-5.85a17.81,17.81,0,0,0,2.53-1l2.85,8.37a163,163,0,0,0-21.93,6.38c-9.7,3.59-14.56,7.85-14.56,12.63s4.52,6.91,15.22,6.91c8.31,0,16.49-1,21.47-2.72l.73,9.1a41.57,41.57,0,0,0-5.38.47,140.88,140.88,0,0,1-15.55,1c-9.24,0-15-1.13-19.28-3.66-3.65-2.19-5.78-6.31-5.78-11.1A15.64,15.64,0,0,1,78.42,31a41.23,41.23,0,0,1,9-5.71A169.76,169.76,0,0,1,83,7.24,28.27,28.27,0,0,0,82,2.92Z"/><path d="M183.1,9c-.79.2-.79.2-5.58,1.8a82.41,82.41,0,0,1-11.1,2.72c-.07,9-.07,9-.2,11.24h14.09a41,41,0,0,0,8.11-.47v8a59.73,59.73,0,0,0-8-.34H165.75c-.73,6.19-2.12,10.64-4.45,14.49A34.26,34.26,0,0,1,150.47,57a41.74,41.74,0,0,1-6.18,3.33,21.59,21.59,0,0,0-5.79-7,30.76,30.76,0,0,0,10.31-5.58,21.25,21.25,0,0,0,7.64-11.3,36.16,36.16,0,0,0,.73-4.46H140.76a59.66,59.66,0,0,0-8,.34v-8a41,41,0,0,0,8.11.47h17c.13-2.8.13-5.39.13-10-5.38.8-7.44,1-18.41,1.53A27.45,27.45,0,0,0,137.17,9c2.06.13,3.13.13,4.12.13a115,115,0,0,0,28.45-3.85,34.6,34.6,0,0,0,8-3.13Z"/><path d="M253.75,16.88a10.5,10.5,0,0,0-.73,4.46c-.2,7.51-.93,17.74-1.6,22.13-1.72,11.5-4,14.22-12,14.22a50.94,50.94,0,0,1-8.24-.73c-.13-4.18-.33-5.45-1.53-8.51A34.17,34.17,0,0,0,238.4,50c2.85,0,3.85-1.46,4.91-7.24a148.8,148.8,0,0,0,1.47-21.27l-15.49.07c-.93,8.3-2.33,13.29-5.32,19-3.65,7-9.57,13.09-17.94,18.41a26,26,0,0,0-6-7.05c8.31-4.39,13.76-9.64,17.29-16.75a34.2,34.2,0,0,0,3.39-11.56c.13-.93.26-1.6.33-2.06l-11,.06a48,48,0,0,0-7.17.33l-.07-8.17a38,38,0,0,0,7.38.53l11.63-.07c.2-2.52.33-6.38.33-8.3V4.25a12.88,12.88,0,0,0-.2-2.59l8.91.2c-.13.87-.2,1.13-.27,2.06,0,.4-.06.8-.06,1.26-.14,1.4-.14,1.4-.27,4.86-.07,1.46-.07,2.06-.26,4.18l14.75-.06c3,0,3.59-.07,5.25-.6Z"/><path d="M320.21,24.06a31.14,31.14,0,0,0-1.86,4.19c-3.46,9.77-8.51,17.15-15.42,22.46-4.72,3.66-9,5.92-17.42,9-1.46-3.32-2.26-4.45-5.18-7.71,8.11-2.06,13.36-4.52,18.48-8.77,4.92-4.12,7.77-8.18,10.7-15.55H277.14a67,67,0,0,0-8.51.33V19.94a47,47,0,0,0,8.64.47h31.64a29.29,29.29,0,0,0,7.51-.6ZM274.28,3.92a37.65,37.65,0,0,0,7.78.47h23.2A37.6,37.6,0,0,0,313,3.92V12.1a50.18,50.18,0,0,0-7.64-.34H281.93a50.25,50.25,0,0,0-7.65.34Z"/><path d="M333.43,8.38c2.73.59,7,.86,15.42.86,1.8-4,2.39-6,2.66-8.24l8.71.93c-.4.66-.4.66-2.66,6-.33.73-.47.93-.6,1.2.53-.07.53-.07,4.19-.27,7.71-.46,13.76-1.2,17.41-2.26l.47,7.58c-1.86.13-1.86.13-5.25.53-4.86.6-13.3,1.13-20,1.33a34.3,34.3,0,0,1-6.12,8.84l.07.13c.47-.33.47-.33,1.33-1a16.07,16.07,0,0,1,9.37-3c5.19,0,8.44,2.46,9.51,7.05q7.67-2.79,10.17-3.59c3.59-1.26,3.85-1.33,4.91-2l3.13,7.64a60.45,60.45,0,0,0-7.38,1.79q-1.39.41-10,3.39V36c.07,1.72.07,1.72.07,2.65v2.66c-.07,1.13-.07,1.73-.07,2.2a27.8,27.8,0,0,0,.2,3.52l-7.71.2a52.06,52.06,0,0,0,.4-7.71V38a39.76,39.76,0,0,0-6.38,3.46c-2.33,1.73-3.46,3.52-3.46,5.45,0,3.46,3.19,4.85,11.23,4.85s14.83-1,19.55-2.79l.66,8.57a19.67,19.67,0,0,0-3.06.27,120.54,120.54,0,0,1-17,1.2c-7,0-11.44-.8-14.82-2.8a9.62,9.62,0,0,1-4.86-8.57,10.61,10.61,0,0,1,2.93-7.38c3-3.72,6.78-6.25,14.29-9.37-.33-2.46-1.66-3.59-4.06-3.59-3.85,0-8.5,2.33-13.62,6.85a29.7,29.7,0,0,0-5.78,6l-6.05-6a41.53,41.53,0,0,0,6-5.91,87.14,87.14,0,0,0,8-11.37,3.2,3.2,0,0,1,.54-.86c-.27,0-1.13.07-1.13.07-1.07,0-6.92-.14-8.38-.14-1.26-.06-1.26-.06-1.86-.06a8,8,0,0,0-1.06.06Z"/><path d="M401.75,40.94a77.72,77.72,0,0,1,15,14.63l-6.19,5.78A71.67,71.67,0,0,0,396.1,46.19Z"/><path d="M437.77,8.91a74.35,74.35,0,0,0-.4-8h8.25a50.9,50.9,0,0,0-.47,8v6.51h10.77V8.11a47.65,47.65,0,0,0-.47-7.25h8A59.85,59.85,0,0,0,463,8v7.38H474.2V8a56.14,56.14,0,0,0-.4-7.12h8.11A46.1,46.1,0,0,0,481.44,8v7.38h2.33a54.6,54.6,0,0,0,7.31-.4v7.45a56,56,0,0,0-7.31-.4h-2.33V36.69a59.82,59.82,0,0,0,.27,6c-1.8-.13-3.33-.2-5.59-.2H461.44c-2.26,0-3.73.07-5.79.2a44.37,44.37,0,0,0,.27-5.65v-15H445.15V51.58h34.63a74.82,74.82,0,0,0,8.37-.4v7.71a79.09,79.09,0,0,0-8.37-.4H445.15V62h-7.78a93.77,93.77,0,0,0,.4-9.43V22.07h-1.33a55.33,55.33,0,0,0-7.31.4V15a56.07,56.07,0,0,0,7.31.4h1.33ZM463,22.07V36H474.2v-14Z"/><path d="M513.4,29.78a69.38,69.38,0,0,0-7,.26,65.56,65.56,0,0,0,.33-6.91V9.24a67.77,67.77,0,0,0-.33-7.11,53.42,53.42,0,0,0,7.11.33h35.62a55.8,55.8,0,0,0,7.18-.33A50.36,50.36,0,0,0,556,9.24V23.13a47.82,47.82,0,0,0,.33,6.91c-2.12-.2-4.18-.26-7.11-.26h-5.85c4.52,4.38,11,7.71,19.48,9.9a30,30,0,0,0-3.53,7.18,62.59,62.59,0,0,1-14.49-7.31V54.3a48.32,48.32,0,0,0,.4,7.32h-8a54.51,54.51,0,0,0,.4-7.38V41.87a34.71,34.71,0,0,0-.33-5.25h3.85a37.94,37.94,0,0,1-6.58-6.84h-6.91a34.32,34.32,0,0,1-6.18,6.84h5a22,22,0,0,0-.26,3.06c-.47,12.36-5.45,18.21-18.95,22.53a27.62,27.62,0,0,0-4.45-6.11c6.31-1.73,9.37-3.06,12.16-5.52s4.06-5.91,4.06-11c0-.13-.07-.47-.07-.87-4.32,3.39-8.51,5.65-15.29,8.18a26.78,26.78,0,0,0-3.72-6.78c8.51-2.33,14.82-5.78,18.88-10.3Zm.47-16.22h13.76V8.51H513.87Zm0,10.63h13.76v-5H513.87Zm20.6-10.63h14.36V8.51H534.47Zm0,10.63h14.36v-5H534.47Z"/><path d="M596.28,7.44a42.23,42.23,0,0,0-.4-7.24h8.38a48.12,48.12,0,0,0-.4,7V11.5h18.21a47.26,47.26,0,0,0,6-.27,48.6,48.6,0,0,0-.27,5.85V37.35a45,45,0,0,0,.34,6.65h-7.85V40H603.86v13.5a52.77,52.77,0,0,0,.46,8.24h-8.5a56.15,56.15,0,0,0,.46-8.24V40H580.6v4h-7.85a49.11,49.11,0,0,0,.33-6.65V17a52.13,52.13,0,0,0-.26-5.79,51,51,0,0,0,6,.27h17.48ZM580.6,18.54V33h15.68V18.54ZM620.34,33V18.54H603.86V33Z"/><path d="M668.52,40.68c-3.79,8.57-8,12.49-13.49,12.49-7.58,0-13-7.71-13-18.41a28.58,28.58,0,0,1,7.31-19.34c5.59-6.11,13.43-9.31,22.87-9.31,16,0,26.32,9.71,26.32,24.66,0,11.5-6,20.68-16.15,24.8a43.48,43.48,0,0,1-10.44,2.79,21.17,21.17,0,0,0-4-7.78c6.11-.8,10.1-1.86,13.23-3.65,5.78-3.19,9.23-9.51,9.23-16.62a16.46,16.46,0,0,0-8.17-14.76,14.65,14.65,0,0,0-6.71-2C674.17,24,671.85,33.17,668.52,40.68Zm-9.77-23.8a22.28,22.28,0,0,0-9,18c0,5.45,2.33,9.77,5.25,9.77,2.2,0,4.46-2.79,6.85-8.51a87.46,87.46,0,0,0,5.52-22.46A16.92,16.92,0,0,0,658.75,16.88Z"/><path d="M763.63,61.62a129.11,129.11,0,0,0-19.27-13A46.43,46.43,0,0,1,730,57.16a70.33,70.33,0,0,1-16.35,4A26.53,26.53,0,0,0,710.12,54c7.25-.66,11.7-1.66,16.36-3.45a51.74,51.74,0,0,0,10.83-5.59,117.91,117.91,0,0,0-12.7-5.51c-1.06,1.46-1.19,1.66-2.32,3.25a66,66,0,0,0-7.45-3.19,82.14,82.14,0,0,0,11.5-18.28H718a62.71,62.71,0,0,0-7.84.4V13.89a63.57,63.57,0,0,0,7.84.4h11.3A74.47,74.47,0,0,0,733.52.4l8.64,1.2a43.27,43.27,0,0,0-1.66,4.65c-1.06,3.25-1.73,5.18-2.79,8h24.86a60,60,0,0,0,7.84-.4V21.6a62.84,62.84,0,0,0-7.64-.4h-3.66c-2,9.37-4.72,15.62-9.5,21.8A156.93,156.93,0,0,1,769,55.23ZM734.85,21.2a107.91,107.91,0,0,1-6.38,12.17,127.35,127.35,0,0,1,14.42,6.18c4.39-5.32,6.65-10.24,8.44-18.35Z"/><path d="M782.23,30.44a59.68,59.68,0,0,0,2.4-17.28l5.38.67c-.4,8.17-1,13.09-2.46,18.61Zm8.44,31.24a62.09,62.09,0,0,0,.47-8.37V7.05a43.23,43.23,0,0,0-.47-7h8a54.86,54.86,0,0,0-.4,7.05V53.84a65.61,65.61,0,0,0,.4,7.84Zm29.38-47.79V7.24a44.93,44.93,0,0,0-.46-7h8a44.43,44.43,0,0,0-.46,7v6.65h7.77a46.49,46.49,0,0,0,7.31-.4v7.38a60.05,60.05,0,0,0-7.24-.4h-7.84V32.1h6.64a49.45,49.45,0,0,0,7.18-.33V39a49,49,0,0,0-7.24-.4h-6.58V52.64h9a58.9,58.9,0,0,0,7.77-.4v7.51a54,54,0,0,0-7.77-.46H809.48a54.5,54.5,0,0,0-7.84.46V52.24a59.36,59.36,0,0,0,7.84.4h10.57V38.55h-6a54.41,54.41,0,0,0-7.38.4V31.77c.47.07.6.07,1.07.13a43.43,43.43,0,0,0-6-3.72,27.33,27.33,0,0,0,3.53-6.64l-3.86,1.86a38,38,0,0,0-3.05-9.91l4.45-2.12a55.43,55.43,0,0,1,3.06,8.44,56.18,56.18,0,0,0,2.85-15.36l7.12,1.33a16.75,16.75,0,0,0-.47,2.4c-.2,1.26-.66,4-1,5.71Zm-7.24,6.58A49,49,0,0,1,808,31.9c1.46.14,2.93.2,5.05.2h7V20.47Z"/><path d="M860,12a52.71,52.71,0,0,0,8.91.6c.8,0,1.53,0,3.06-.07a82.17,82.17,0,0,0,1.26-10.17,8.52,8.52,0,0,0-.07-1.19l8.78.79c-.47,1.53-.47,1.53-1.27,6.39-.33,1.86-.4,2.25-.66,3.78a54.52,54.52,0,0,0,11.36-2l.34,7.64c-.53.07-.53.07-2.13.34a92.24,92.24,0,0,1-10.9,1.39c-.73,4.12-2.39,11.17-4.12,17.22-1.93,6.91-3.06,10.23-7.45,22l-8.37-3.26c4.59-8.44,9.7-23.93,11.9-35.76a5.39,5.39,0,0,1-.87.07h-3.85c-.33,0-1,0-2.13-.07s-2.13-.07-2.66-.07a9.42,9.42,0,0,0-1.26.07Zm33,25.79c-2.66,3.32-3.46,5-3.46,7.31,0,3.39,3.33,5.12,10,5.12a50.68,50.68,0,0,0,15.09-2.46l.6,8.18c-1.2.13-1.73.19-3.26.46a76.93,76.93,0,0,1-12.36,1.06c-5.92,0-10.17-.86-13.36-2.65a9.62,9.62,0,0,1-4.72-8.18c0-3.52,1.26-6.51,4.92-11.5Zm19.74-8.71a69.64,69.64,0,0,0-8.37-.46,71.86,71.86,0,0,0-17.55,1.92l-.6-7.31c9.44-1.79,12.63-2.12,19.81-2.12,1.79,0,2.39,0,6.58.06Z"/><path d="M927.71,11c3.06.8,7.52,1.13,14.36,1.13a57,57,0,0,0,1.86-11l8.91.73a35.16,35.16,0,0,0-1.06,3.85c-1.2,5-1.2,5-1.6,6.25,5.05-.13,12.56-.66,17-1.2a45.32,45.32,0,0,0,8.51-1.52l.4,8c-1.53.06-2.13.13-3.86.33-9.64,1.06-15.49,1.53-23.79,1.73a89.62,89.62,0,0,1-5.25,13.49V33c4.45-2.85,10.23-4.32,16.75-4.32,11.69,0,18.67,5.06,18.67,13.5,0,9.83-9.5,16.21-24.06,16.21a60.74,60.74,0,0,1-17-2.32,37.7,37.7,0,0,0-.66-8.44A50.71,50.71,0,0,0,954,50.85c9.63,0,15.88-3.39,15.88-8.71,0-4.12-4-6.38-11.17-6.38A33.66,33.66,0,0,0,944.46,39a11.3,11.3,0,0,0-4.85,3.85l-8-2.79a44.2,44.2,0,0,0,3.12-6,148.54,148.54,0,0,0,5.59-14.76c-3.53-.06-6.52-.2-10-.46-.93-.07-1.59-.07-2.13-.07h-.53Z"/><path d="M991.32,33.83c2.85-2,5.71-5.25,14.49-16.28a19.83,19.83,0,0,1,4.12-4.19,9.11,9.11,0,0,1,5.31-2,9.44,9.44,0,0,1,6,2.52,44.8,44.8,0,0,1,4.45,4.79A213.12,213.12,0,0,0,1045.55,39a42.6,42.6,0,0,0,7.25,5.58L1048.74,54a12.85,12.85,0,0,0-1.92-1.93c-3.46-3.06-8.71-8-13.56-12.89-5-5.19-5.19-5.39-12.3-13.5-4.12-4.72-4.52-5-5.78-5-1.07,0-1.73.6-4,3.59A189.57,189.57,0,0,1,998.1,40.35a10,10,0,0,0-1.4,1.79Z"/><path d="M1086.89,50.12a11.24,11.24,0,1,1-11.23-11.24A11.28,11.28,0,0,1,1086.89,50.12Zm-17.28,0a6,6,0,1,0,6.05-6A6.08,6.08,0,0,0,1069.61,50.12Z"/></g></g></svg>