<?xml version="1.0" encoding="utf-8"?>
<!-- Generator: Adobe Illustrator 25.2.0, SVG Export Plug-In . SVG Version: 6.00 Build 0)  -->
<svg version="1.1" id="レイヤー_1" xmlns="http://www.w3.org/2000/svg" xmlns:xlink="http://www.w3.org/1999/xlink" x="0px"
	 y="0px" viewBox="0 0 665.5 186.6" style="enable-background:new 0 0 665.5 186.6;" xml:space="preserve">
<style type="text/css">
	.st0{fill:#F7BA00;}
</style>
<g>
	<path class="st0" d="M13.2,32.1h25v12.5h-25v18.8h37.6v12.5H0.6V0.8h50.1v12.5H13.2V32.1z"/>
	<path class="st0" d="M75.1,75.9H62.6V0.8h12.5l15.7,45.9l15.7-45.9H119v75.1h-12.5V36.6l-9.4,26.8H84.5l-9.4-26.8V75.9z"/>
	<path class="st0" d="M180.7,25.8c0,13.7-11.1,25-25,25h-12.5v25h-12.5V0.8h25C169.6,0.8,180.7,11.9,180.7,25.8z M168.2,25.8
		c0-6.9-5.6-12.5-12.5-12.5h-12.5v25h12.5C162.6,38.3,168.2,32.7,168.2,25.8z"/>
	<path class="st0" d="M215,0c13.9,0,25,11.1,25,25v26.6c0,13.7-11.1,25-25,25c-13.7,0-25-11.3-25-25V25C190,11.1,201.3,0,215,0z
		 M215,12.5c-6.9,0-12.5,5.6-12.5,12.5v26.6c0,6.9,5.6,12.5,12.5,12.5s12.5-5.6,12.5-12.5V25C227.6,18.1,222,12.5,215,12.5z"/>
	<path class="st0" d="M270.2,55.5l12.5-54.7h12.5l12.5,54.7l12.5-54.7h12.5L314,75.9h-12.5L289,21.3l-12.5,54.6h-12.5L245.2,0.8
		h12.5L270.2,55.5z"/>
	<path class="st0" d="M354.7,32.1h25v12.5h-25v18.8h37.6v12.5h-50.1V0.8h50.1v12.5h-37.6V32.1z"/>
	<path class="st0" d="M452.3,25.8c0,9.5-5.3,18.1-13.8,22.5l13.8,27.6h-12.5l-12.5-25h-12.5v25h-12.5V0.8h25
		C440.8,0.8,452.3,11.4,452.3,25.8z M439.8,25.8c0-7.3-5.6-12.5-12.5-12.5h-12.5v25h12.5C434.2,38.3,439.8,32.7,439.8,25.8z"/>
	<path class="st0" d="M474.6,75.9H462V0.8h12.5V75.9z"/>
	<path class="st0" d="M525.1,50.8V0.8h12.5v75.1h-12.5l-25-50.1v50.1h-12.5V0.8H500L525.1,50.8z"/>
	<path class="st0" d="M573.8,12.5c-6.9,0-12.5,5.6-12.5,12.5v26.6c0,6.9,5.6,12.5,12.5,12.5c7.3,0,12.5-5.5,12.5-13.3h-12.8V38.3
		h25.4v12.5c0,14.7-10.8,25.8-25,25.8c-13.7,0-25-11.3-25-25V25c0-13.9,11.3-25,25-25C585.2,0,595,7.6,598,18.6
		c0.5,2.2,0.9,4.8,0.9,6.5h-12.5C586.3,17.7,581.1,12.5,573.8,12.5z"/>
	<path class="st0" d="M25,166.2l12.5-54.7h12.5l12.5,54.7l12.5-54.7h12.5l-18.8,75.1H56.4L43.8,132l-12.5,54.6H18.8L0,111.5h12.5
		L25,166.2z"/>
	<path class="st0" d="M117.9,110.8c13.9,0,25,11.1,25,25v26.6c0,13.7-11.1,25-25,25c-13.7,0-25-11.3-25-25v-26.6
		C92.8,121.9,104.2,110.8,117.9,110.8z M117.9,123.3c-6.9,0-12.5,5.6-12.5,12.5v26.6c0,6.9,5.6,12.5,12.5,12.5s12.5-5.6,12.5-12.5
		v-26.6C130.4,128.9,124.8,123.3,117.9,123.3z"/>
	<path class="st0" d="M167.4,186.6h-12.5v-75.1h12.5l15.7,45.9l15.7-45.9h12.5v75.1h-12.5v-39.3l-9.4,26.8h-12.5l-9.4-26.8V186.6z"
		/>
	<path class="st0" d="M236.7,142.8h25v12.5h-25v18.8h37.6v12.5h-50.1v-75.1h50.1V124h-37.6V142.8z"/>
	<path class="st0" d="M322.9,161.6v-50.1h12.5v75.1h-12.5l-25-50.1v50.1h-12.5v-75.1h12.5L322.9,161.6z"/>
</g>
</svg>
