<svg xmlns="http://www.w3.org/2000/svg" viewBox="0 0 35.48 80.73"><defs><style>.cls-1{fill:none;stroke:#f7ba00;stroke-miterlimit:10;stroke-width:1.46px;}.cls-2{fill:#f7ba00;}</style></defs><title>icon_people</title><g id="レイヤー_2" data-name="レイヤー 2"><g id="レイヤー_1-2" data-name="レイヤー 1"><path class="cls-1" d="M32.46,36.85,26.33,14.33a2.66,2.66,0,0,0-2-2l-3-.66a1.32,1.32,0,0,1-1-1.28V9.27A1.78,1.78,0,0,1,20.76,8a4.27,4.27,0,0,0,1.29-3.09A4.05,4.05,0,0,0,18.14.73a4.05,4.05,0,0,0-3.91,4.18A4.27,4.27,0,0,0,15.52,8a1.78,1.78,0,0,1,.54,1.27V10.4a1.32,1.32,0,0,1-1,1.28l-3,.66a2.68,2.68,0,0,0-2,2L3.82,36.85a1.31,1.31,0,0,0,1.29,1.53h0a1.31,1.31,0,0,0,1.28-1l5.08-15.29a.68.68,0,0,1,.85-.51.72.72,0,0,1,.5.75L10.27,58.52a2.47,2.47,0,0,1-1.22,2.13l-1.6,1.21a.81.81,0,0,0-.14,1.3.84.84,0,0,0,.59.21H12a1.32,1.32,0,0,0,1.3-1.07l4.45-24.93a.38.38,0,0,1,.74,0L23,62.3a1.32,1.32,0,0,0,1.3,1.07h4.12a.84.84,0,0,0,.59-.21.81.81,0,0,0-.14-1.3l-1.2-1A3.26,3.26,0,0,1,26,58.06L23.46,22.3a.73.73,0,0,1,.5-.75.68.68,0,0,1,.85.51l5.08,15.29a1.31,1.31,0,0,0,2.57-.5Z"/><path class="cls-2" d="M4.49,76.17a2.25,2.25,0,0,1-2.25,2.25h-.9v2.24H0V73.93H2.24A2.23,2.23,0,0,1,4.49,76.17Zm-2.25.9a.9.9,0,0,0,0-1.8h-.9v1.8Z"/><path class="cls-2" d="M10.73,75.27H7.59v1.35h2.46V78H7.59v1.35h3.14v1.34H6.24V73.93h4.49Z"/><path class="cls-2" d="M14.59,80.73a2.26,2.26,0,0,1-2.24-2.25V76.1a2.24,2.24,0,1,1,4.48,0v2.38A2.24,2.24,0,0,1,14.59,80.73Zm0-1.35a.9.9,0,0,0,.9-.9V76.1a.9.9,0,1,0-1.8,0v2.38A.9.9,0,0,0,14.59,79.38Z"/><path class="cls-2" d="M23.09,76.17a2.24,2.24,0,0,1-2.24,2.25H20v2.24H18.6V73.93h2.25A2.22,2.22,0,0,1,23.09,76.17Zm-2.24.9a.9.9,0,1,0,0-1.8H20v1.8Z"/><path class="cls-2" d="M29.34,79.32v1.34H24.85V73.93H26.2v5.39Z"/><path class="cls-2" d="M35.48,75.27H32.33v1.35H34.8V78H32.33v1.35h3.15v1.34H31V73.93h4.49Z"/></g></g></svg>