<svg id="_グループ_" data-name="&lt;グループ&gt;" xmlns="http://www.w3.org/2000/svg" width="390" height="60" viewBox="0 0 390 60">
  <defs>
    <style>
      .cls-1 {
        fill: #fff;
      }

      .cls-2 {
        fill-rule: evenodd;
      }
    </style>
  </defs>
  <rect id="長方形_1" data-name="長方形 1" class="cls-1" width="390" height="60"/>
  <path id="Sustainability_Report_TOP" data-name="Sustainability Report TOP" class="cls-2" d="M318.255,5199.3l3.025-1.23a6.175,6.175,0,0,0-5.824-4.04,5.672,5.672,0,0,0-5.741,5.63,5.153,5.153,0,0,0,3.193,4.9l3.695,1.79a1.92,1.92,0,0,1,1.232,1.99,2.3,2.3,0,0,1-2.435,2.33,3.1,3.1,0,0,1-2.828-2.02l-3.053,1.23a6.382,6.382,0,0,0,5.824,4.03,5.633,5.633,0,0,0,5.74-5.62,5.054,5.054,0,0,0-3.192-4.93l-3.695-1.79a2.074,2.074,0,0,1-1.233-1.99,2.324,2.324,0,0,1,2.437-2.3A3.117,3.117,0,0,1,318.255,5199.3Zm14.644,14.42h2.828v-13.81H332.9v8.54a2.436,2.436,0,1,1-4.872,0v-8.54h-2.856v8.54a5.008,5.008,0,0,0,5.04,5.27,4.141,4.141,0,0,0,2.688-.9v0.9Zm8.933-3.95-2.605,1.23a4.92,4.92,0,0,0,4.4,2.86,4.075,4.075,0,0,0,4.115-4.06,3.764,3.764,0,0,0-2.128-3.56l-2.324-1.23a1.375,1.375,0,0,1-.84-1.2,1.246,1.246,0,0,1,1.288-1.18,2.007,2.007,0,0,1,1.82,1.23l2.576-1.23a4.827,4.827,0,0,0-4.4-2.86,4.044,4.044,0,0,0-1.96,7.62l2.324,1.23a1.216,1.216,0,0,1,.784,1.21,1.2,1.2,0,0,1-1.288,1.2A2.1,2.1,0,0,1,341.832,5209.77Zm11.058-15.54v5.68h-1.624v2.86h1.624v6.89a4.063,4.063,0,0,0,4.061,4.06h0.811v-2.86h-0.811a1.193,1.193,0,0,1-1.2-1.2v-6.89h2.828v-2.86h-2.828v-5.68H352.89Zm13.216,14.2h3.668v0.16a2.406,2.406,0,0,1-2.492,2.27h-1.176A1.215,1.215,0,0,1,366.106,5208.43Zm3.668-3.36v0.53h-3.668a4.06,4.06,0,1,0,0,8.12h1.176a3.476,3.476,0,0,0,2.492-.9v0.9H372.6v-8.65a5.262,5.262,0,0,0-10.136-2.02l2.6,1.09a2.436,2.436,0,0,1,2.267-1.54A2.463,2.463,0,0,1,369.774,5205.07Zm10-10.84h-2.855v2.86h2.855v-2.86Zm0,5.68h-2.855v13.81h2.855v-13.81Zm7.308,0h-2.856v13.81h2.856v-8.51a2.436,2.436,0,1,1,4.872,0v8.51h2.828v-8.51a4.967,4.967,0,0,0-5.012-5.3,4.036,4.036,0,0,0-2.688.9v-0.9Zm15.736,8.52h3.668v0.16a2.4,2.4,0,0,1-2.492,2.27h-1.176A1.215,1.215,0,0,1,402.813,5208.43Zm3.668-3.36v0.53h-3.668a4.06,4.06,0,1,0,0,8.12h1.176a3.476,3.476,0,0,0,2.492-.9v0.9h2.828v-8.65a5.262,5.262,0,0,0-10.136-2.02l2.6,1.09a2.436,2.436,0,0,1,2.267-1.54A2.463,2.463,0,0,1,406.481,5205.07Zm14.756,0.11v3.27a2.436,2.436,0,1,1-4.872,0v-3.27A2.436,2.436,0,1,1,421.237,5205.18Zm-4.872-10.95h-2.857v19.49h2.857v-0.9a4.171,4.171,0,0,0,2.744.9,4.992,4.992,0,0,0,4.956-5.27v-3.27a5.076,5.076,0,0,0-5.04-5.27,4.227,4.227,0,0,0-2.66.9v-6.58Zm14.5,0h-2.856v2.86h2.856v-2.86Zm0,5.68h-2.856v13.81h2.856v-13.81Zm7.42,9.72v-15.4h-2.856v15.43a4.062,4.062,0,0,0,4.06,4.06H440.3v-2.86h-0.811A1.2,1.2,0,0,1,438.288,5209.63Zm8.4-15.4h-2.855v2.86h2.855v-2.86Zm0,5.68h-2.855v13.81h2.855v-13.81Zm5.684-5.68v5.68h-1.624v2.86h1.624v6.89a4.063,4.063,0,0,0,4.06,4.06h0.812v-2.86h-0.812a1.193,1.193,0,0,1-1.2-1.2v-6.89h2.828v-2.86h-2.828v-5.68h-2.856Zm8.764,5.68,4.452,13.39-0.755,2.27a1.673,1.673,0,0,1-1.653,1v2.83a4.191,4.191,0,0,0,4.116-2.74l5.628-16.75H470.1l-3.08,9.16-3.052-9.16h-2.828Zm33.18,4.06h-3.248v-6.49h3.248a3.179,3.179,0,0,1,3.248,3.25A3.245,3.245,0,0,1,494.315,5203.97Zm0-9.74h-6.5v19.49h3.248v-6.5h3.248l3.248,6.5h3.248l-3.584-7.17A6.507,6.507,0,0,0,494.315,5194.23Zm17.641,10.84h-4.873A2.437,2.437,0,1,1,511.956,5205.07Zm-4.873,3.5v-0.68h7.7v-2.82a5.278,5.278,0,1,0-10.556,0v3.5a5.3,5.3,0,0,0,5.264,5.29,5.037,5.037,0,0,0,3.808-1.63l-1.988-1.98a2.552,2.552,0,0,1-1.82.75A2.429,2.429,0,0,1,507.083,5208.57Zm19.264-3.36v3.24a2.436,2.436,0,1,1-4.872,0v-3.24A2.436,2.436,0,1,1,526.347,5205.21Zm-4.872,14.19v-6.58a4.171,4.171,0,0,0,2.744.9,4.992,4.992,0,0,0,4.956-5.27v-3.24a5.1,5.1,0,0,0-5.04-5.3,4.227,4.227,0,0,0-2.66.9v-0.9h-2.856v19.49h2.856Zm18.983-14.33v3.5a2.436,2.436,0,1,1-4.872,0v-3.5A2.436,2.436,0,1,1,540.458,5205.07Zm-7.728,0v3.5a5.279,5.279,0,1,0,10.557,0v-3.5A5.279,5.279,0,1,0,532.73,5205.07Zm17.388-4.26v-0.9h-2.856v13.81h2.856v-8.51a2.437,2.437,0,0,1,2.436-2.44,2.293,2.293,0,0,1,1.737.73l2.015-1.99a5.035,5.035,0,0,0-3.612-1.6A4.054,4.054,0,0,0,550.118,5200.81Zm10.975-6.58v5.68h-1.624v2.86h1.624v6.89a4.064,4.064,0,0,0,4.061,4.06h0.811v-2.86h-0.811a1.193,1.193,0,0,1-1.2-1.2v-6.89h2.828v-2.86H563.95v-5.68h-2.857Zm33.516,0H581.617v3.25h4.872v16.24h3.248v-16.24h4.872v-3.25Zm12.656,6.3v6.89a3.248,3.248,0,1,1-6.5,0v-6.89A3.248,3.248,0,1,1,607.265,5200.53Zm-9.744,0v6.89a6.5,6.5,0,0,0,12.992,0v-6.89A6.5,6.5,0,1,0,597.521,5200.53Zm23.856,3.44h-3.248v-6.49h3.248A3.245,3.245,0,1,1,621.377,5203.97Zm0-9.74h-6.5v19.49h3.248v-6.5h3.248A6.5,6.5,0,1,0,621.377,5194.23Z" transform="translate(-271 -5174)"/>
</svg>
