<svg xmlns="http://www.w3.org/2000/svg" viewBox="0 0 1076.85 95.13"><defs><style>.cls-1{fill:#251e1c;}.cls-2{fill:red;}</style></defs><g id="レイヤー_2" data-name="レイヤー 2"><g id="TOP"><path class="cls-1" d="M32.76,19.74Q29,12.18,22.05,12.18a9.12,9.12,0,0,0-6.51,2.47,8.07,8.07,0,0,0-2.62,6.14,7.62,7.62,0,0,0,4.62,7.45L31.4,35a22.18,22.18,0,0,1,8.92,7.3,19.42,19.42,0,0,1,3,11.18,20.52,20.52,0,0,1-1.68,8.25A21.36,21.36,0,0,1,30.24,72.92a21.43,21.43,0,0,1-8.4,1.63,22.06,22.06,0,0,1-13-4.1A25.89,25.89,0,0,1,0,59.43l11.45-4.62A13.81,13.81,0,0,0,16,60.48a10.46,10.46,0,0,0,6.09,1.89,9.06,9.06,0,0,0,6.56-2.47,8.27,8.27,0,0,0,2.58-6.25,7.7,7.7,0,0,0-1.26-4.83,10.05,10.05,0,0,0-3.36-2.62L12.71,39.48a22,22,0,0,1-8.82-7.3A19,19,0,0,1,.74,21.1a20.14,20.14,0,0,1,1.68-8.24A21.09,21.09,0,0,1,7,6.19a21.9,21.9,0,0,1,6.83-4.51A21.28,21.28,0,0,1,22.26,0,22.45,22.45,0,0,1,35.33,3.94,24.77,24.77,0,0,1,44.1,15.12Z"/><path class="cls-1" d="M82.32,73.81V70.45a15.32,15.32,0,0,1-10.08,3.36,19,19,0,0,1-7.56-1.47,17.44,17.44,0,0,1-6-4.14A19.49,19.49,0,0,1,54.76,62a21.05,21.05,0,0,1-1.42-7.88v-32H64.05v32a9.14,9.14,0,0,0,18.27,0v-32h10.6V73.81Z"/><path class="cls-1" d="M111.4,59a9.86,9.86,0,0,0,2.89,3.46A6.23,6.23,0,0,0,118,63.73a4.9,4.9,0,0,0,3.46-1.26,4.22,4.22,0,0,0,1.37-3.25,4.37,4.37,0,0,0-.74-2.73,7.54,7.54,0,0,0-2.2-1.79l-8.72-4.62a15.39,15.39,0,0,1-5.88-5.56,15,15,0,0,1-1-13.7,14.82,14.82,0,0,1,3.3-4.83,16.1,16.1,0,0,1,4.89-3.26,15,15,0,0,1,6-1.21,17.29,17.29,0,0,1,9.87,3.05A18.35,18.35,0,0,1,135,32.23l-9.66,4.62a9.22,9.22,0,0,0-2.78-3.36,6.72,6.72,0,0,0-4-1.26,4.83,4.83,0,0,0-3.41,1.32,4.1,4.1,0,0,0-1.42,3.09,4.69,4.69,0,0,0,.74,2.47,5.66,5.66,0,0,0,2.41,2l8.72,4.62a16.27,16.27,0,0,1,5.62,4.88,14,14,0,0,1,2.36,8.45,14.88,14.88,0,0,1-1.21,5.94A15.06,15.06,0,0,1,129,69.88a16.15,16.15,0,0,1-4.88,3.25,14.91,14.91,0,0,1-6,1.21,17.26,17.26,0,0,1-9.81-3,18.67,18.67,0,0,1-6.67-7.72Z"/><path class="cls-1" d="M148.15.73h10.71V22.05h10.61V32.76H158.86V58.59a4.47,4.47,0,0,0,4.52,4.51h3V73.81h-3a14.87,14.87,0,0,1-5.94-1.2,15.58,15.58,0,0,1-4.83-3.26,15.33,15.33,0,0,1-3.25-4.83,14.63,14.63,0,0,1-1.21-5.93V32.76h-6.09V22.05h6.09Z"/><path class="cls-1" d="M206.32,41.37a9,9,0,0,0-2.68-6.51,8.69,8.69,0,0,0-6.45-2.73,9,9,0,0,0-5,1.52,9.36,9.36,0,0,0-3.47,4.25l-9.76-4.09a19.69,19.69,0,0,1,7.29-9,19.36,19.36,0,0,1,11-3.26,18.76,18.76,0,0,1,7.66,1.58,20.06,20.06,0,0,1,10.5,10.55,19.18,19.18,0,0,1,1.58,7.72V73.81H206.32V70.45C204,72.7,200.9,73.81,197,73.81h-4.41a14.87,14.87,0,0,1-5.94-1.2,15.58,15.58,0,0,1-4.83-3.26,15.33,15.33,0,0,1-3.25-4.83,14.63,14.63,0,0,1-1.21-5.93A15.09,15.09,0,0,1,182,47.67a16,16,0,0,1,4.83-3.15,14.66,14.66,0,0,1,5.78-1.16h13.75ZM192.57,54a4.4,4.4,0,0,0-3.21,1.31,4.52,4.52,0,0,0-1.31,3.31,4.47,4.47,0,0,0,4.52,4.51H197a9.59,9.59,0,0,0,6.56-2.46,7.79,7.79,0,0,0,2.78-6V54Z"/><path class="cls-1" d="M240.76.73V11.44H230.05V.73Zm0,21.32V73.81H230.05V22.05Z"/><path class="cls-1" d="M265.12,22.05v3.36a15.11,15.11,0,0,1,10.08-3.36,19.64,19.64,0,0,1,6.72,1.21,17.59,17.59,0,0,1,10.39,9.81A21.55,21.55,0,0,1,294,41.89V73.81h-10.6V41.89a8.92,8.92,0,0,0-2.68-6.56,9.13,9.13,0,0,0-12.92,0,9,9,0,0,0-2.67,6.56V73.81H254.41V22.05Z"/><path class="cls-1" d="M334.84,41.37a9,9,0,0,0-2.68-6.51,8.71,8.71,0,0,0-6.46-2.73,9,9,0,0,0-5,1.52,9.34,9.34,0,0,0-3.46,4.25l-9.77-4.09a19.65,19.65,0,0,1,7.3-9,19.32,19.32,0,0,1,11-3.26,18.8,18.8,0,0,1,7.67,1.58,20.15,20.15,0,0,1,10.5,10.55,19.17,19.17,0,0,1,1.57,7.72V73.81h-10.6V70.45c-2.31,2.25-5.43,3.36-9.35,3.36h-4.41a14.79,14.79,0,0,1-5.93-1.2,15.35,15.35,0,0,1-4.83-3.26,15.52,15.52,0,0,1-3.26-4.83,15.3,15.3,0,0,1,.06-12,15,15,0,0,1,3.36-4.83,16,16,0,0,1,4.83-3.15,14.65,14.65,0,0,1,5.77-1.16h13.76ZM321.08,54a4.36,4.36,0,0,0-3.2,1.31,4.48,4.48,0,0,0-1.31,3.31,4.47,4.47,0,0,0,4.51,4.51h4.41a9.57,9.57,0,0,0,6.56-2.46,7.77,7.77,0,0,0,2.79-6V54Z"/><path class="cls-1" d="M368.86.73V25.41a15.74,15.74,0,0,1,10-3.36,18.48,18.48,0,0,1,13.44,5.67,19.45,19.45,0,0,1,4,6.25,20.57,20.57,0,0,1,1.47,7.82V54.07A21.05,21.05,0,0,1,396.31,62a20.08,20.08,0,0,1-3.88,6.25,17.1,17.1,0,0,1-5.88,4.14,18.38,18.38,0,0,1-7.4,1.47,17.64,17.64,0,0,1-5.46-.78,16.73,16.73,0,0,1-4.83-2.58v3.36H358.15V.73Zm18.27,41.06a9.14,9.14,0,1,0-18.27,0V54.07a9.14,9.14,0,0,0,18.27,0Z"/><path class="cls-1" d="M420.2.73V11.44H409.49V.73Zm0,21.32V73.81H409.49V22.05Z"/><path class="cls-1" d="M445,58.48a4.45,4.45,0,0,0,1.31,3.31,4.32,4.32,0,0,0,3.2,1.31h3.05V73.81h-3.05a14.79,14.79,0,0,1-5.93-1.2,15.23,15.23,0,0,1-8.08-8.09,14.63,14.63,0,0,1-1.21-5.93V.73H445Z"/><path class="cls-1" d="M472.38.73V11.44H461.67V.73Zm0,21.32V73.81H461.67V22.05Z"/><path class="cls-1" d="M489.6.73h10.71V22.05h10.6V32.76h-10.6V58.59a4.47,4.47,0,0,0,4.51,4.51h3.05V73.81h-3.05a14.83,14.83,0,0,1-5.93-1.2,15.58,15.58,0,0,1-4.83-3.26,15.33,15.33,0,0,1-3.25-4.83,14.63,14.63,0,0,1-1.21-5.93V32.76h-6.09V22.05h6.09Z"/><path class="cls-1" d="M518.37,22.05H529l11.45,34.33L552,22.05h10.6l-21.1,62.79a13.48,13.48,0,0,1-5.72,7.45A19.21,19.21,0,0,1,526,95.13V84.52q5.15-.52,6.2-3.78l2.83-8.5Z"/><path class="cls-1" d="M618.85.73a24.17,24.17,0,0,1,9.35,1.84A25.09,25.09,0,0,1,636,7.66a24,24,0,0,1,7.24,17.43,24.46,24.46,0,0,1-13.44,21.84l13.44,26.88H631L618.85,49.45H606.67V73.81H594.49V.73Zm0,36.54a11.89,11.89,0,0,0,4.73-.94,12.43,12.43,0,0,0,6.51-6.51,11.89,11.89,0,0,0,.94-4.73,12.55,12.55,0,0,0-.94-4.88,11.54,11.54,0,0,0-2.63-3.88,11.81,11.81,0,0,0-3.88-2.52,12.41,12.41,0,0,0-4.73-.9H606.67V37.27Z"/><path class="cls-1" d="M661.38,54.49a8.77,8.77,0,0,0,.73,3.57,9.15,9.15,0,0,0,4.78,4.83,8.25,8.25,0,0,0,3.51.74,9.79,9.79,0,0,0,6.83-2.84l7.45,7.46a18.58,18.58,0,0,1-6.51,4.57,20.19,20.19,0,0,1-7.77,1.52,19.1,19.1,0,0,1-7.71-1.58,20,20,0,0,1-6.3-4.25,19.22,19.22,0,0,1-4.2-6.3,19.62,19.62,0,0,1-1.52-7.72V41.37a19.17,19.17,0,0,1,1.57-7.72A19.92,19.92,0,0,1,662.79,23.1a19.18,19.18,0,0,1,7.72-1.58,18.76,18.76,0,0,1,7.66,1.58,20.06,20.06,0,0,1,10.5,10.55,19.18,19.18,0,0,1,1.58,7.72V52H661.38Zm18.26-13.12a9.85,9.85,0,0,0-2.78-6.62,8.56,8.56,0,0,0-6.35-2.62,8.8,8.8,0,0,0-6.46,2.68,8.92,8.92,0,0,0-2.67,6.56Z"/><path class="cls-1" d="M710.93,95.13H700.22V22.05h10.71v3.36a15.77,15.77,0,0,1,10-3.36,18.31,18.31,0,0,1,13.44,5.72,20.25,20.25,0,0,1,4,6.3,20.65,20.65,0,0,1,1.47,7.82V54.07A21.05,21.05,0,0,1,738.39,62a20.08,20.08,0,0,1-3.88,6.25,17.1,17.1,0,0,1-5.88,4.14,18.39,18.39,0,0,1-7.41,1.47,17.73,17.73,0,0,1-5.46-.78,17,17,0,0,1-4.83-2.58ZM729.2,41.89a9,9,0,0,0-2.67-6.56,9.13,9.13,0,0,0-12.92,0,9,9,0,0,0-2.68,6.56V54.07a9.14,9.14,0,1,0,18.27,0Z"/><path class="cls-1" d="M748.21,41.37a19.17,19.17,0,0,1,1.57-7.72A20,20,0,0,1,760.33,23.1a19.18,19.18,0,0,1,7.72-1.58,18.8,18.8,0,0,1,7.67,1.58,20.15,20.15,0,0,1,10.5,10.55,19.17,19.17,0,0,1,1.57,7.72V54.49a19.14,19.14,0,0,1-1.57,7.72,20.15,20.15,0,0,1-10.5,10.55,18.8,18.8,0,0,1-7.67,1.58,19.18,19.18,0,0,1-7.72-1.58,20,20,0,0,1-10.55-10.55,19.14,19.14,0,0,1-1.57-7.72Zm29,0a8.93,8.93,0,0,0-2.68-6.56,9.13,9.13,0,0,0-12.92,0,8.92,8.92,0,0,0-2.67,6.56V54.49a9,9,0,0,0,2.67,6.57,8.83,8.83,0,0,0,6.46,2.67A8.68,8.68,0,0,0,774.51,61a9,9,0,0,0,2.68-6.51Z"/><path class="cls-1" d="M808.37,25.41A15,15,0,0,1,818,22.05a18,18,0,0,1,7.19,1.52A19.8,19.8,0,0,1,831.58,28L824,35.49a8.46,8.46,0,0,0-6.51-2.73,9.15,9.15,0,0,0-9.14,9.13V73.81H797.66V22.05h10.71Z"/><path class="cls-1" d="M843.55.73h10.71V22.05h10.6V32.76h-10.6V58.59a4.47,4.47,0,0,0,4.51,4.51h3.05V73.81h-3.05a14.79,14.79,0,0,1-5.93-1.2,15.29,15.29,0,0,1-8.09-8.09,14.79,14.79,0,0,1-1.2-5.93V32.76h-6.09V22.05h6.09Z"/><path class="cls-2" d="M922.5,28.14A17.15,17.15,0,0,0,925,24.2a8.9,8.9,0,0,0,.74-3.52,8.3,8.3,0,0,0-2.42-6,8.41,8.41,0,0,0-11.91,0A8.06,8.06,0,0,0,909,20.58H896.78a19.54,19.54,0,0,1,1.63-7.93,21.51,21.51,0,0,1,4.41-6.56,20.35,20.35,0,0,1,6.51-4.46,20.59,20.59,0,0,1,16.06,0,20.35,20.35,0,0,1,6.51,4.46,21.26,21.26,0,0,1,4.41,6.61,20.17,20.17,0,0,1,1.63,8.09,18.15,18.15,0,0,1-1.31,7.09,30.11,30.11,0,0,1-4.26,6.77l-21.84,27h27.41V73.81H896.78V61.63Z"/><path class="cls-2" d="M950.43,20.68a20.32,20.32,0,0,1,1.63-8.08A20.68,20.68,0,0,1,963,1.63a20.62,20.62,0,0,1,16.07,0A20.68,20.68,0,0,1,990,12.6a20.32,20.32,0,0,1,1.62,8.08V53.86A20.29,20.29,0,0,1,990,62a20.68,20.68,0,0,1-10.92,11,20.62,20.62,0,0,1-16.07,0,20.68,20.68,0,0,1-10.92-11,20.3,20.3,0,0,1-1.63-8.09ZM962.61,54a8.4,8.4,0,0,0,16.8,0V20.58a8.42,8.42,0,0,0-8.4-8.4,8.07,8.07,0,0,0-5.93,2.47,8.1,8.1,0,0,0-2.47,5.93Z"/><path class="cls-2" d="M1029.5,28.14A17.15,17.15,0,0,0,1032,24.2a8.88,8.88,0,0,0,.73-3.52,8.29,8.29,0,0,0-2.41-6,8.43,8.43,0,0,0-11.92,0,8.1,8.1,0,0,0-2.47,5.93h-12.18a19.71,19.71,0,0,1,1.63-7.93,21.88,21.88,0,0,1,4.41-6.56,20.46,20.46,0,0,1,6.51-4.46,20.62,20.62,0,0,1,16.07,0,20.57,20.57,0,0,1,6.51,4.46,21.62,21.62,0,0,1,4.41,6.61,20.33,20.33,0,0,1,1.62,8.09,18,18,0,0,1-1.31,7.09,29.67,29.67,0,0,1-4.25,6.77l-21.84,27h27.4V73.81h-41.16V61.63Z"/><path class="cls-2" d="M1076.85.73V73.81h-12.18V12.91h-7.56V.73Z"/></g></g></svg>