<?xml version="1.0" encoding="utf-8"?>
<!-- Generator: Adobe Illustrator 21.0.0, SVG Export Plug-In . SVG Version: 6.00 Build 0)  -->
<svg version="1.1" id="레이어_2" xmlns="http://www.w3.org/2000/svg" xmlns:xlink="http://www.w3.org/1999/xlink" x="0px"
	 y="0px" viewBox="0 0 1084.5 68.8" style="enable-background:new 0 0 1084.5 68.8;" xml:space="preserve">
<g>
	<path d="M35.5,34.1l0,8.7h18.3l0,24.9l-46.3,0l0-24.9h18.3l0-8.7L0,34.1v-7.8l16,0c1.9-6.3,2.4-11.2,2.4-15.1H5.6l0-7.8l22.4,0
		l0,3.9c0,4.5,0,10.8-2.2,19l17.2,0c1.5-6.2,1.9-11.1,2-15.1l-13,0l0-7.8l22.5,0l0,4.3c0,4.7,0,10.8-1.8,18.6l9,0v7.8L35.5,34.1z
		 M44.3,50.5l-27.2,0l0,9.7l27.2,0L44.3,50.5z"/>
	<path d="M103.3,46.5c6.6-0.2,13.2-0.7,19.5-1.4l0.5,7c-13.8,2.4-29.1,2.7-40.9,2.7l-0.9-8c3.8,0,7.9,0,12.2-0.1l0-20.1l9.6,0
		L103.3,46.5z M108.6,38c1.6-9.7,1.8-17,1.8-23.1l-25.5,0l0-7.8l35.1,0l0,5.6c0,6.6,0,14.9-1.9,26.1L108.6,38z M144.8,36h-9.2
		l0,32.6l-9.8,0l0-68.2l9.8,0l0,27.5h9.2V36z"/>
	<path d="M236.8,14.2l-41.1,0l0-7.6l15.6,0V0l9.8,0v6.6l15.6,0L236.8,14.2z M216.3,40.9c-10.3,0-17.1-4.8-17.1-12.3
		c0-7.5,6.8-12.2,17.1-12.2c10.2,0,17,4.7,17,12.2C233.3,36,226.5,40.9,216.3,40.9z M206.2,44.5l45.4,0l0,23.3l-45.4,0L206.2,44.5z
		 M216.3,33.7c4.7,0,7.8-1.6,7.8-5.1c0-3.4-3-5.1-7.8-5.1c-4.8,0-7.8,1.7-7.8,5.1C208.5,32,211.5,33.7,216.3,33.7z M215.8,60.2
		l26.2,0l0-8l-26.2,0L215.8,60.2z M251.5,0.5l0,41.1h-9.8l0-41.1L251.5,0.5z"/>
	<path d="M338.6,27.9v7.6l-61.6,0v-7.6L338.6,27.9z M283.1,13c0-7.5,9.1-11.6,24.6-11.6c15.6,0,24.7,4.1,24.7,11.6
		c0,7.5-9.1,11.6-24.7,11.6C292.2,24.6,283.1,20.6,283.1,13z M293.8,60.8l39.1,0v7.3l-48.8,0l0-17.9l37.4,0v-3.6l-37.4,0l0-7.2
		l47.1,0l0,17.5l-37.3,0V60.8z M293.3,13c0,3.2,4.7,4.5,14.5,4.5c9.9,0,14.6-1.3,14.6-4.5c0-3-4.7-4.4-14.6-4.4
		C297.9,8.6,293.3,10,293.3,13z"/>
	<path d="M426.2,41.4c-7.5-2.4-12.6-7.3-15.5-13.5c-3,6.7-8.4,12.1-16.4,14.8l-4.9-7.8c11.2-3.6,16.1-12.6,16.1-21.2v-1l-13.4,0
		l0-7.8l36.6,0l0,7.8l-13.2,0v0.9c0,8.1,4.7,16.4,15.4,20.1L426.2,41.4z M448.4,59.7v7.8l-46.5,0l0-21.4h9.8l0,13.6L448.4,59.7z
		 M437,18.1l0-17.6l9.8,0l0,49.7H437l0-24.2l-10.7,0l0-7.9L437,18.1z"/>
	<path d="M524.4,17.5c0,11,3,22.4,12.2,28.5l-5.3,7.5c-5.8-3.6-9.4-9.3-11.5-16.2c-2.4,7.5-6.4,14.1-12.5,17.8l-5.8-7.3
		c10-6.1,13.6-18.3,13.6-29.9l0-11.5h9.4L524.4,17.5z M538.1,1.6l9.1,0l0,64h-9.1l0-34.2h-8.5l0-7.9h8.5L538.1,1.6z M561.1,0.5
		l0,68.2h-9.3l0-68.2L561.1,0.5z"/>
	<path d="M620.1,1.9l9.1,0l0,63.7h-9.1l0-22.3l-9.5,0v-7.8h9.5l0-9.3h-8.2c-3,11.2-9.8,20.7-22.6,28.3l-5.6-6.8
		c13.5-8.2,19.4-18.1,20.6-31.4l-16.8,0V8.5l26.5,0c0,3.5-0.2,6.7-0.6,9.9h6.6V1.9z M643.4,0.4l0,68.2h-9.3l0-68.2L643.4,0.4z"/>
	<path d="M754.8,0.4l0,68.4l-9.8,0l0-25.3h-13.9c-3,6.7-8.3,10.5-14.9,10.4c-10.1,0-17.6-9.4-17.6-24.4c0-14.9,7.5-24.3,17.6-24.3
		c6.1,0,11.2,3.3,14.3,9.2l14.5,0v-14L754.8,0.4z M724.7,29.5c0-10.1-3.4-15.5-8.4-15.5c-5,0-8.4,5.4-8.4,15.5
		c0,10.1,3.4,15.5,8.4,15.5C721.3,45,724.7,39.6,724.7,29.5z M745,35.5l0-13.3l-11.8,0c0.4,2.2,0.7,4.7,0.7,7.3
		c0,2.1-0.1,4.2-0.4,6.1L745,35.5z"/>
	<path d="M815.6,38.3c-7.2-2.4-12-7.1-14.9-13.2c-3,7-8.4,12.4-16.5,15.2l-5.1-7.8c11.6-3.7,16.4-13,16.4-22.3V4l9.9,0v5.6
		c0,9.2,4.4,17.5,15.2,20.9L815.6,38.3z M836.9,55.4c0,8.3-8.9,13.2-23.3,13.2c-14.5,0-23.4-4.9-23.4-13.2c0-8.4,8.9-13.3,23.4-13.3
		C828.1,42.1,836.9,47,836.9,55.4z M827.2,55.4c0-3.9-4.7-5.8-13.5-5.8c-9,0-13.6,1.8-13.6,5.8c0,3.8,4.7,5.7,13.6,5.7
		C822.5,61.1,827.2,59.3,827.2,55.4z M826.9,20.8l-12.4,0v-7.9l12.4,0V0.5l9.8,0l0,40h-9.8L826.9,20.8z"/>
	<path d="M923.4,26.9l0,7.7l-61.6,0l0-7.7L923.4,26.9z M878.5,60.6l39.1,0l0,7.5l-48.8,0l0-18.4l37.4,0v-3.8l-37.4,0v-7.3l47.1,0
		v18.1l-37.3,0V60.6z M916.1,23.3l-46.7,0V1.8l46.2,0v7.8l-36.5,0v6l37,0V23.3z"/>
	<path d="M979.2,1.6l9.1,0l0,64h-9.1l0-32.1h-5.3c-0.9,13.3-6.4,21.3-14.7,21.3c-9,0-14.7-9.3-14.7-24.8c0-15.4,5.7-24.7,14.7-24.7
		c8.1,0,13.5,7.5,14.7,20.3h5.4V1.6z M965,30c0-10.4-2.1-15.5-5.9-15.5c-3.7,0-5.9,5.1-5.9,15.5c0,10.5,2.2,15.6,5.9,15.6
		C962.9,45.6,965,40.5,965,30z M1002.3,0.4l0,68.2H993l0-68.2L1002.3,0.4z"/>
	<path d="M1060.9,1.9l9.1,0l0,63.6h-9.1l0-31.2h-10.7c-3.8,7.8-10.1,14.5-19.7,20.1l-5.6-6.9c13.6-8.1,19.6-18,20.8-31.3l-17,0V8.5
		l26.7,0c0,6.4-0.6,12.4-2.2,18h7.6V1.9z M1084.5,0.4l0,68.2h-9.3l0-68.2L1084.5,0.4z"/>
</g>
</svg>
