<?xml version="1.0" encoding="utf-8"?>
<!-- Generator: Adobe Illustrator 21.0.0, SVG Export Plug-In . SVG Version: 6.00 Build 0)  -->
<svg version="1.1" xmlns="http://www.w3.org/2000/svg" xmlns:xlink="http://www.w3.org/1999/xlink" x="0px" y="0px"
	 viewBox="0 0 554.6 133.9" style="enable-background:new 0 0 554.6 133.9;" xml:space="preserve">
<style type="text/css">
	.st0{display:none;}
	.st1{display:inline;}
</style>
<g id="レイヤー_1" class="st0">
	<g class="st1">
		<g>
			<path d="M7.7,53.4H0.2v-45h7.5V53.4z"/>
			<path d="M23,23.5c1.6-1.4,3.7-2.1,6.2-2.1c5.5,0,11.6,3.9,11.6,12.2v19.7h-6.5V33.7c0-3.2-2.5-5.7-5.6-5.7s-5.6,2.5-5.6,5.7v19.7
				h-6.6V21.5H23V23.5z"/>
			<path d="M57.9,47.1c1.7,0,3-1.2,3-2.8c0-1.5-0.6-2.1-1.8-2.8l-5.4-2.8c-3-1.6-5-4.8-5-8.2c0-5.2,4.2-9.4,9.5-9.4
				c4.5,0,8.4,2.7,10.2,6.6l-6,2.8c-0.8-1.7-2.3-2.8-4.2-2.8c-1.6,0-3,1.2-3,2.7c0,1,0.6,2.1,1.9,2.8l5.4,2.8
				c2.7,1.4,4.9,3.9,4.9,8.2c0,5.2-4.2,9.4-9.5,9.4c-4.4,0-8.3-2.7-10.2-6.6l6-2.8C54.8,46,56.3,47.1,57.9,47.1z"/>
			<path d="M74.6,66.5v-45h6.6v2.1c1.7-1.4,3.8-2.1,6.1-2.1c6.5,0,11.7,5.3,11.7,12.2v7.5c0,7-4.9,12.2-11.5,12.2
				c-2.5,0-4.3-0.6-6.3-2.1v15.2H74.6z M86.8,28c-3.1,0-5.6,2.5-5.6,5.7v7.5c0,3.1,2.5,5.6,5.6,5.6s5.6-2.5,5.6-5.6v-7.5
				C92.4,30.5,89.9,28,86.8,28z"/>
			<path d="M113.8,14.9h-6.6V8.3h6.6V14.9z M113.8,53.4h-6.6V21.5h6.6V53.4z"/>
			<path d="M135.5,21.5c3,0,6,1.3,8.3,3.7l-4.7,4.6c-1-1.1-2.4-1.7-4-1.7c-3.1,0-5.6,2.5-5.6,5.6v19.7H123V21.5h6.6v2.1
				C131.3,22.2,133.3,21.5,135.5,21.5z"/>
			<path d="M158.4,47.1c1.6,0,3-0.6,4.2-1.7l4.6,4.6c-2.3,2.5-5.4,3.8-8.8,3.8c-6.7,0-12.2-5.5-12.2-12.2v-8.1
				c0-6.7,5.5-12.2,12.2-12.2s12.2,5.5,12.2,12.2V40h-17.8v1.6C152.9,44.6,155.4,47.1,158.4,47.1z M158.5,27.7
				c-3.1,0-5.6,2.5-5.6,5.7h11.3C163.9,30.1,161.6,27.7,158.5,27.7z"/>
			<path d="M204.6,27.7c-2.3,0-4.3,1.3-5.2,3.6l-6-2.5c2-4.7,6.3-7.6,11.3-7.6c6.8,0,12.2,5.5,12.2,12.2v20h-6.5v-2.1
				c-1.4,1.4-3.4,2.1-5.8,2.1h-2.7c-5.2,0-9.4-4.2-9.4-9.4c0-5.4,4.5-9.4,9.4-9.4h8.5v-1.2C210.3,30.3,207.7,27.7,204.6,27.7z
				 M199,44c0,1.6,1.2,2.8,2.8,2.8h2.7c3.1,0,5.8-2.3,5.8-5.2v-0.4h-8.5C200.2,41.1,199,42.4,199,44z"/>
			<path d="M230.8,23.5c1.6-1.4,3.7-2.1,6.2-2.1c5.5,0,11.6,3.9,11.6,12.2v19.7H242V33.7c0-3.2-2.5-5.7-5.6-5.7s-5.6,2.5-5.6,5.7
				v19.7h-6.6V21.5h6.6L230.8,23.5L230.8,23.5z"/>
			<path d="M274.3,53.4v-2.1c-2,1.5-3.8,2.1-6.3,2.1c-6.5,0-11.5-5.2-11.5-12.2v-7.6c0-6.9,5.2-12.2,11.7-12.2
				c2.3,0,4.4,0.7,6.1,2.1V8.3h6.5v45h-6.5V53.4z M268.7,28.1c-3.1,0-5.6,2.5-5.6,5.6v7.6c0,3.1,2.5,5.6,5.6,5.6s5.6-2.5,5.6-5.6
				v-7.6C274.3,30.6,271.8,28.1,268.7,28.1z"/>
			<path d="M312.4,27.1h15v7.5h-15v11.3h22.5v7.5h-30v-45h30v7.5h-22.5V27.1z"/>
			<path d="M355.9,21.5c3.3,0,6.4,1.4,8.7,3.9c2.5-2.6,5.4-3.9,8.9-3.9c6.7,0,11.8,5.3,11.8,12.2v19.7h-6.6V33.7
				c0-3.2-2.5-5.7-5.6-5.7c-3,0-5.6,2.5-5.6,5.6v19.7H361V33.7c0-3.1-2.5-5.7-5.6-5.7s-5.6,2.5-5.6,5.7v19.7h-6.6V21.5h6.6v2.1
				C351.6,22.2,353.7,21.5,355.9,21.5z"/>
			<path d="M394.3,66.5v-45h6.6v2.1c1.7-1.4,3.8-2.1,6.1-2.1c6.5,0,11.7,5.3,11.7,12.2v7.5c0,7-4.9,12.2-11.5,12.2
				c-2.5,0-4.3-0.6-6.3-2.1v15.2H394.3z M406.5,28c-3.1,0-5.6,2.5-5.6,5.7v7.5c0,3.1,2.5,5.6,5.6,5.6s5.6-2.5,5.6-5.6v-7.5
				C412.1,30.5,409.6,28,406.5,28z"/>
			<path d="M438,21.1c6.8,0,12.2,5.5,12.2,12.2v8.1c0,6.7-5.4,12.2-12.2,12.2c-6.7,0-12.2-5.5-12.2-12.2v-8.1
				C425.8,26.6,431.3,21.1,438,21.1z M438,27.7c-3.1,0-5.6,2.5-5.6,5.7v8.1c0,3.2,2.5,5.7,5.6,5.7s5.6-2.6,5.6-5.7v-8.1
				C443.6,30.2,441.1,27.7,438,27.7z"/>
			<path d="M490.8,21.5h6.6L488,53.4h-5.6l-6.1-20.6l-6.1,20.6h-5.6l-9.4-31.9h6.6l5.6,21.2l5.6-21.2h6.6l5.6,21.2L490.8,21.5z"/>
			<path d="M513.5,47.1c1.6,0,3-0.6,4.2-1.7l4.6,4.6c-2.3,2.5-5.4,3.8-8.8,3.8c-6.7,0-12.2-5.5-12.2-12.2v-8.1
				c0-6.7,5.5-12.2,12.2-12.2s12.2,5.5,12.2,12.2V40h-17.8v1.6C507.9,44.6,510.4,47.1,513.5,47.1z M513.5,27.7
				c-3.1,0-5.6,2.5-5.6,5.7h11.3C519,30.1,516.6,27.7,513.5,27.7z"/>
			<path d="M546.3,21.5c3,0,6,1.3,8.3,3.7l-4.7,4.6c-1-1.1-2.4-1.7-4-1.7c-3.1,0-5.6,2.5-5.6,5.6v19.7h-6.6V21.5h6.6v2.1
				C542.1,22.2,544,21.5,546.3,21.5z"/>
			<path d="M15,113l7.5-32.8H30l7.5,32.8L45,80.2h7.5l-11.3,45h-7.5l-7.5-32.7l-7.5,32.7h-7.5L0,80.2h7.5L15,113z"/>
			<path d="M67.2,93c6.8,0,12.2,5.5,12.2,12.2v8.1c0,6.7-5.4,12.2-12.2,12.2c-6.7,0-12.2-5.5-12.2-12.2v-8.1
				C55,98.5,60.5,93,67.2,93z M67.2,99.6c-3.1,0-5.6,2.5-5.6,5.7v8.1c0,3.2,2.5,5.7,5.6,5.7s5.6-2.6,5.6-5.7v-8.1
				C72.9,102.1,70.3,99.6,67.2,99.6z"/>
			<path d="M99.7,93.4c3.3,0,6.4,1.4,8.7,3.9c2.5-2.6,5.4-3.9,8.9-3.9c6.7,0,11.8,5.3,11.8,12.2v19.7h-6.6v-19.7
				c0-3.2-2.5-5.7-5.6-5.7c-3,0-5.6,2.5-5.6,5.6v19.7h-6.5v-19.7c0-3.1-2.5-5.7-5.6-5.7s-5.6,2.5-5.6,5.7v19.7H87V93.4h6.6v2.1
				C95.3,94.1,97.4,93.4,99.7,93.4z"/>
			<path d="M148.3,119c1.6,0,3-0.6,4.2-1.7l4.6,4.6c-2.3,2.5-5.4,3.8-8.8,3.8c-6.7,0-12.2-5.5-12.2-12.2v-8.1
				c0-6.7,5.5-12.2,12.2-12.2s12.2,5.5,12.2,12.2v6.5h-17.8v1.6C142.7,116.5,145.2,119,148.3,119z M148.3,99.6
				c-3.1,0-5.6,2.5-5.6,5.7H154C153.8,102,151.4,99.6,148.3,99.6z"/>
			<path d="M174.5,95.4c1.6-1.4,3.7-2.1,6.2-2.1c5.5,0,11.6,3.9,11.6,12.2v19.7h-6.5v-19.7c0-3.2-2.5-5.7-5.6-5.7s-5.6,2.5-5.6,5.7
				v19.7H168V93.4h6.6L174.5,95.4L174.5,95.4z"/>
			<path d="M225.9,113l7.5-32.8h7.5l7.5,32.8l7.5-32.8h7.5l-11.3,45h-7.5l-7.5-32.7l-7.5,32.7h-7.5l-11.3-45h7.5L225.9,113z"/>
			<path d="M278.1,93c6.8,0,12.2,5.5,12.2,12.2v8.1c0,6.7-5.4,12.2-12.2,12.2c-6.7,0-12.2-5.5-12.2-12.2v-8.1
				C265.9,98.5,271.4,93,278.1,93z M278.1,99.6c-3.1,0-5.6,2.5-5.6,5.7v8.1c0,3.2,2.5,5.7,5.6,5.7s5.6-2.6,5.6-5.7v-8.1
				C283.7,102.1,281.2,99.6,278.1,99.6z"/>
			<path d="M310.9,93.4c3,0,6,1.3,8.3,3.7l-4.7,4.6c-1-1.1-2.4-1.7-4-1.7c-3.1,0-5.6,2.5-5.6,5.6v19.7h-6.6V93.4h6.6v2.1
				C306.7,94.1,308.6,93.4,310.9,93.4z"/>
			<path d="M335.4,118.7h1.9v6.6h-1.9c-5.2,0-9.4-4.2-9.4-9.4V80.2h6.6v35.6C332.6,117.4,333.8,118.7,335.4,118.7z"/>
			<path d="M360.9,125.3v-2.1c-2,1.5-3.8,2.1-6.3,2.1c-6.5,0-11.5-5.2-11.5-12.2v-7.6c0-6.9,5.2-12.2,11.7-12.2
				c2.3,0,4.4,0.7,6.1,2.1V80.2h6.5v45h-6.5V125.3z M355.2,100c-3.1,0-5.6,2.5-5.6,5.6v7.6c0,3.1,2.5,5.6,5.6,5.6s5.6-2.5,5.6-5.6
				v-7.6C360.9,102.5,358.3,100,355.2,100z"/>
			<path d="M409.5,93.4h6.6l-9.4,31.9h-5.6l-6.1-20.6l-6.1,20.6h-5.6l-9.4-31.9h6.6l5.6,21.2l5.6-21.2h6.6l5.6,21.2L409.5,93.4z"/>
			<path d="M430.2,86.8h-6.6v-6.6h6.6V86.8z M430.2,125.3h-6.6V93.4h6.6V125.3z"/>
			<path d="M456.1,125.3v-2.1c-2,1.5-3.8,2.1-6.3,2.1c-6.5,0-11.5-5.2-11.5-12.2v-7.6c0-6.9,5.2-12.2,11.7-12.2
				c2.3,0,4.4,0.7,6.1,2.1V80.2h6.5v45h-6.5V125.3z M450.5,100c-3.1,0-5.6,2.5-5.6,5.6v7.6c0,3.1,2.5,5.6,5.6,5.6s5.6-2.5,5.6-5.6
				v-7.6C456.1,102.5,453.6,100,450.5,100z"/>
			<path d="M481.6,119c1.6,0,3-0.6,4.2-1.7l4.6,4.6c-2.3,2.5-5.4,3.8-8.8,3.8c-6.7,0-12.2-5.5-12.2-12.2v-8.1
				c0-6.7,5.5-12.2,12.2-12.2s12.2,5.5,12.2,12.2v6.5H476v1.6C476,116.5,478.5,119,481.6,119z M481.6,99.6c-3.1,0-5.6,2.5-5.6,5.7
				h11.3C487.1,102,484.7,99.6,481.6,99.6z"/>
		</g>
	</g>
</g>
<g id="레이어_2">
	<g>
		<path d="M27.5,30.2v6.1h12.8v17.5H7.7V36.3h12.8v-6.1H2.5v-5.5h11.2c1.3-4.4,1.7-7.9,1.7-10.6H6.4V8.5h15.8v2.8
			c0,3.2,0,7.6-1.6,13.4h12.1c1-4.4,1.3-7.8,1.4-10.6H25V8.5h15.8v3c0,3.3,0,7.6-1.2,13.1h6.3v5.5H27.5z M33.6,41.7H14.5v6.8h19.1
			V41.7z"/>
		<path d="M81.9,38.9c4.6-0.2,9.3-0.5,13.7-1l0.4,4.9c-9.7,1.7-20.4,1.9-28.8,1.9l-0.6-5.6c2.7,0,5.6,0,8.6-0.1V25h6.8V38.9z
			 M85.7,32.9c1.1-6.8,1.2-12,1.2-16.2H69v-5.5h24.7v3.9c0,4.6,0,10.5-1.3,18.4L85.7,32.9z M111.1,31.5h-6.5v22.9h-6.9V6.5h6.9v19.3
			h6.5V31.5z"/>
		<path d="M189.4,16.2h-28.9v-5.4h11V6.2h6.9v4.6h11L189.4,16.2z M175,34.9c-7.2,0-12-3.4-12-8.6c0-5.3,4.8-8.6,12-8.6
			c7.2,0,12,3.3,12,8.6C187,31.5,182.2,34.9,175,34.9z M167.9,37.5h31.9v16.4h-31.9V37.5z M175,29.9c3.3,0,5.5-1.1,5.5-3.6
			c0-2.4-2.1-3.6-5.5-3.6c-3.4,0-5.5,1.2-5.5,3.6C169.5,28.7,171.6,29.9,175,29.9z M174.6,48.5H193v-5.6h-18.4V48.5z M199.8,6.6
			v28.9h-6.9V6.6H199.8z"/>
		<path d="M267.7,25.8v5.4h-43.3v-5.4H267.7z M228.8,15.4c0-5.3,6.4-8.2,17.3-8.2c11,0,17.4,2.9,17.4,8.2c0,5.3-6.4,8.2-17.4,8.2
			C235.2,23.5,228.8,20.7,228.8,15.4z M236.3,48.9h27.5v5.1h-34.3V41.5h26.3v-2.5h-26.3v-5h33.1v12.3h-26.2V48.9z M235.9,15.4
			c0,2.2,3.3,3.2,10.2,3.2c7,0,10.2-0.9,10.2-3.2c0-2.1-3.3-3.1-10.2-3.1C239.2,12.2,235.9,13.2,235.9,15.4z"/>
		<path d="M28,109.3c-5.3-1.7-8.8-5.1-10.9-9.5c-2.1,4.7-5.9,8.5-11.5,10.4l-3.4-5.5c7.9-2.5,11.3-8.8,11.3-14.9v-0.7H4.1v-5.5h25.7
			v5.5h-9.3v0.6c0,5.7,3.3,11.5,10.8,14.1L28,109.3z M43.6,122.1v5.5H11v-15h6.9v9.6H43.6z M35.7,92.9V80.5h6.9v35h-6.9v-17h-7.5
			v-5.6H35.7z"/>
		<path d="M110.7,92.5c0,7.8,2.1,15.7,8.6,20l-3.7,5.3c-4.1-2.5-6.6-6.6-8.1-11.4c-1.7,5.3-4.5,9.9-8.8,12.5l-4.1-5.1
			c7-4.3,9.6-12.8,9.6-21v-8.1h6.6V92.5z M120.3,81.3h6.4v45h-6.4v-24h-6v-5.6h6V81.3z M136.5,80.5v47.9H130V80.5H136.5z"/>
		<path d="M184.8,81.6h6.4v44.8h-6.4v-15.7h-6.7v-5.5h6.7v-6.5H179c-2.1,7.9-6.9,14.6-15.9,19.9l-3.9-4.8
			c9.5-5.8,13.6-12.7,14.5-22.1H162v-5.5h18.6c0,2.4-0.2,4.7-0.4,7h4.6V81.6z M201.2,80.5v48h-6.5v-48H201.2z"/>
		<path d="M293.1,80.5v48.1h-6.9v-17.8h-9.8c-2.1,4.7-5.8,7.4-10.5,7.3c-7.1,0-12.4-6.6-12.4-17.2c0-10.5,5.3-17.1,12.4-17.1
			c4.3,0,7.9,2.3,10,6.5h10.2v-9.8H293.1z M272,100.9c0-7.1-2.4-10.9-5.9-10.9c-3.5,0-5.9,3.8-5.9,10.9c0,7.1,2.4,10.9,5.9,10.9
			C269.6,111.8,272,108,272,100.9z M286.3,105.2v-9.4h-8.3c0.3,1.6,0.5,3.3,0.5,5.1c0,1.5-0.1,3-0.3,4.3H286.3z"/>
		<path d="M342.7,107.1c-5-1.7-8.4-5-10.5-9.3c-2.1,4.9-5.9,8.7-11.6,10.7L317,103c8.2-2.6,11.5-9.1,11.5-15.7V83h7v4
			c0,6.5,3.1,12.3,10.7,14.7L342.7,107.1z M357.7,119.2c0,5.8-6.2,9.3-16.4,9.3c-10.2,0-16.4-3.4-16.4-9.3c0-5.9,6.2-9.4,16.4-9.4
			C351.4,109.8,357.7,113.2,357.7,119.2z M350.8,119.2c0-2.8-3.3-4.1-9.5-4.1c-6.3,0-9.6,1.3-9.6,4.1c0,2.7,3.3,4,9.6,4
			C347.5,123.2,350.8,121.9,350.8,119.2z M350.6,94.8h-8.7v-5.6h8.7v-8.7h6.9v28.1h-6.9V94.8z"/>
		<path d="M425.3,99.1v5.4H382v-5.4H425.3z M393.7,122.8h27.5v5.3h-34.3v-13h26.3v-2.7h-26.3v-5.2H420v12.7h-26.2V122.8z
			 M420.2,96.5h-32.8V81.5h32.5v5.5h-25.6v4.2h26V96.5z"/>
		<path d="M471.3,81.3h6.4v45h-6.4v-22.6h-3.7c-0.6,9.4-4.5,15-10.4,15c-6.3,0-10.3-6.6-10.3-17.4c0-10.8,4-17.4,10.3-17.4
			c5.7,0,9.5,5.3,10.3,14.3h3.8V81.3z M461.4,101.3c0-7.3-1.5-10.9-4.2-10.9c-2.6,0-4.2,3.6-4.2,10.9c0,7.4,1.6,11,4.2,11
			C459.9,112.2,461.4,108.7,461.4,101.3z M487.5,80.5v47.9H481V80.5H487.5z"/>
		<path d="M535.6,81.6h6.4v44.7h-6.4v-22h-7.5c-2.7,5.5-7.1,10.2-13.8,14.1l-3.9-4.8c9.6-5.7,13.8-12.6,14.6-22h-12v-5.5h18.8
			c0,4.5-0.4,8.7-1.6,12.6h5.4V81.6z M552.1,80.5v47.9h-6.5V80.5H552.1z"/>
	</g>
</g>
</svg>
