<?xml version="1.0" encoding="utf-8"?>
<!-- Generator: Adobe Illustrator 21.0.0, SVG Export Plug-In . SVG Version: 6.00 Build 0)  -->
<svg version="1.1" id="레이어_2" xmlns="http://www.w3.org/2000/svg" xmlns:xlink="http://www.w3.org/1999/xlink" x="0px"
	 y="0px" viewBox="0 0 1084.8 295.8" style="enable-background:new 0 0 1084.8 295.8;" xml:space="preserve">
<g>
	<path d="M31,26v3.8H1V26h12.6v-6.7H4.2V3.1h23.5v16.2h-9.4V26H31z M8.8,15.6h14.2V6.8H8.8V15.6z"/>
	<path d="M67.5,17v3.8H37.6V17H67.5z M45.8,29.4h18.6v3.8H41.1v-9.9h4.7V29.4z M64.2,14.3h-23V1.8h22.7v3.8h-18v4.9h18.3V14.3z"/>
	<path d="M113.4,0.6v33.1h-4.7V21.5h-6.7c-1.5,3.2-4,5.1-7.2,5.1c-4.9,0-8.5-4.6-8.5-11.8C86.1,7.5,89.8,3,94.7,3
		c3,0,5.5,1.6,6.9,4.4h7V0.6H113.4z M98.8,14.7c0-4.9-1.7-7.5-4.1-7.5c-2.4,0-4.1,2.6-4.1,7.5c0,4.9,1.7,7.5,4.1,7.5
		C97.1,22.3,98.8,19.6,98.8,14.7z M108.6,17.7v-6.5h-5.7c0.2,1.1,0.3,2.3,0.3,3.5c0,1-0.1,2-0.2,2.9H108.6z"/>
	<path d="M139.5,19c-3.5-1.2-5.8-3.4-7.2-6.4c-1.5,3.4-4.1,6-8,7.4l-2.5-3.8c5.6-1.8,8-6.3,8-10.8V2.4h4.8v2.7
		c0,4.4,2.2,8.5,7.4,10.2L139.5,19z M149.9,27.3c0,4-4.3,6.4-11.3,6.4c-7,0-11.3-2.4-11.3-6.4c0-4.1,4.3-6.5,11.3-6.5
		C145.6,20.9,149.9,23.2,149.9,27.3z M145.2,27.3c0-1.9-2.3-2.8-6.6-2.8c-4.3,0-6.6,0.9-6.6,2.8c0,1.9,2.3,2.8,6.6,2.8
		C142.9,30.1,145.2,29.2,145.2,27.3z M145,10.5h-6V6.7h6v-6h4.7V20H145V10.5z"/>
	<path d="M188.5,13.5v3.7h-29.9v-3.7H188.5z M166.8,29.8h18.9v3.6h-23.6v-8.9h18.1v-1.9H162v-3.6h22.8v8.8h-18.1V29.8z M185,11.7
		h-22.6V1.3h22.4v3.8h-17.7V8H185V11.7z"/>
	<path d="M225,17.5v3.8h-29.8v-3.8H225z M198.1,8.4c0-4.2,4.8-6.8,11.9-6.8c7.2,0,12,2.6,12,6.8s-4.8,6.8-12,6.8
		C202.9,15.3,198.1,12.6,198.1,8.4z M203.5,29.4h18.2v3.8h-22.9v-9.6h4.7V29.4z M203,8.4c0,2,2.7,3,7.1,3c4.4,0,7.1-1,7.1-3
		c0-2-2.7-3.1-7.1-3.1C205.6,5.4,203,6.4,203,8.4z"/>
	<path d="M255.4,9.6c0,5,2.6,10.9,8,13.4l-2.6,3.7c-3.7-1.7-6.2-5-7.7-8.9c-1.5,4.3-4.1,7.9-7.9,9.7l-2.7-3.8
		c5.4-2.5,8.1-8.7,8.1-14.2V7.7h-6.9V3.8h18.2v3.9h-6.6V9.6z M273.9,17.2h-4.8v16.5h-4.7v-33h4.7v12.6h4.8V17.2z"/>
	<path d="M309.6,22.9h-6.9v10.8h-4.8V22.9h-6.6v10.8h-4.8V22.9h-6.8V19h29.9V22.9z M282.7,9.2c0-4.5,4.9-7.4,11.9-7.4
		c7,0,11.9,2.9,11.9,7.4c0,4.5-4.9,7.4-11.9,7.4C287.5,16.6,282.7,13.7,282.7,9.2z M287.5,9.2c0,2.4,2.8,3.6,7.1,3.6
		c4.3,0,7.1-1.3,7.1-3.6c0-2.3-2.8-3.6-7.1-3.6C290.3,5.5,287.5,6.8,287.5,9.2z"/>
	<path d="M346.1,17.1v3.7h-29.9v-3.7h12.6v-1.9h-8.9V6.4h17.9V4.7h-17.9V1.2h22.6v8.6h-17.9v1.8h18.5v3.6h-9.6v1.9H346.1z M337.9,22
		h4.7v11.3H320V22h4.7v2.1h13.3V22z M337.9,27.6h-13.3v2.1h13.3V27.6z"/>
	<path d="M369.7,1.4h4.4v30.9h-4.4V17.1h-5.2c-1.9,3.8-4.9,7-9.5,9.8l-2.7-3.3c6.6-3.9,9.5-8.7,10.1-15.2h-8.3V4.6h13
		c0,3.1-0.3,6-1.1,8.7h3.7V1.4z M381.1,0.6v33h-4.5v-33H381.1z"/>
	<path d="M418,17v4.2h8.9v12.1h-22.5V21.2h8.9V17h-12.5v-3.8h7.7c0.9-3,1.1-5.4,1.2-7.3h-6.2V2.1h10.9V4c0,2.2,0,5.2-1.1,9.2h8.4
		c0.7-3,0.9-5.4,1-7.3h-6.3V2.1h10.9v2.1c0,2.3,0,5.2-0.9,9h4.3V17H418z M422.3,24.9h-13.2v4.7h13.2V24.9z"/>
	<path d="M467.1,19.9h-12.7v13.8h-4.7V19.9h-12.4V16h7.2c1.1-4.1,1.3-7.2,1.4-9.6h-6.2V2.6h10.8v2.1c0,2.7,0,6.3-1.2,11.3h8.9
		c0.9-4,1-7.1,1-9.6h-6.6V2.6h11.2V5c0,2.7,0,6.3-1,11h4.2V19.9z"/>
	<path d="M501.5,0.7v33.1h-4.7v-13h-6.1v4.8H475V3.6h15.7v4.6h6.1V0.7H501.5z M486.1,7.3h-6.4v14.7h6.4V7.3z M496.8,17.1v-5.1h-6.1
		v5.1H496.8z"/>
	<path d="M550.2,0.6v33h-4.5V17.3h-2.7v14.9h-4.4v-9.8l-2.7,3.7c-2.8-1.6-4.6-4.2-5.7-7.5c-1.1,3.6-3.1,6.6-6,8.4l-2.9-3.5
		c5-2.9,6.7-8.9,6.7-14.5V3.5h4.6v5.2c0,5.7,1.5,11.1,6.1,13.6V1.2h4.4v12.3h2.7V0.6H550.2z"/>
	<path d="M588.3,26.2v3.9h-29.9v-3.9h12.6v-4.9h-9.1V10.1h18.4V6.5h-18.5V2.8h23.1v11h-18.4v3.7h19.2v3.8h-10v4.9H588.3z"/>
	<path d="M624.8,16.7v3.8h-12.3v5.7h-4.8v-5.7h-12.8v-3.8H624.8z M597.9,8.1c0-4.2,4.8-6.9,11.9-6.9c7.1,0,11.9,2.7,11.9,6.9
		c0,4.2-4.7,6.9-11.9,6.9C602.7,15,597.9,12.3,597.9,8.1z M603.2,29.4h18.4v3.8h-23.2v-9.9h4.8V29.4z M603.1,8.1
		c0,2,2.6,3.1,6.7,3.1c4.2,0,6.8-1,6.8-3.1S614,5,609.8,5C605.7,5,603.1,6.1,603.1,8.1z"/>
	<path d="M649,21.6c2.6-0.1,5.4-0.3,8.6-0.9l0.4,4c-4.3,0.8-8.1,1-11.4,1h-2.3V4.3h4.7V21.6z M671.3,0.6v33h-4.5V17.2h-3v14.9h-4.4
		V1.2h4.4v12.1h3V0.6H671.3z"/>
	<path d="M688.8,16.7c-5.1,0-8.9-3.2-8.9-7.6c0-4.4,3.8-7.5,8.9-7.5c5,0,8.8,3.2,8.8,7.5C697.6,13.6,693.8,16.7,688.8,16.7z
		 M688.8,12.9c2.4,0,4.2-1.4,4.2-3.7c0-2.3-1.8-3.7-4.2-3.7c-2.4,0-4.3,1.4-4.3,3.7C684.5,11.5,686.4,12.9,688.8,12.9z M707.7,29.6
		v3.7h-22.8v-9.1h17.3v-2h-17.3v-3.6h22v9h-17.3v2.1H707.7z M706.9,17.2h-4.8V0.7h4.8V17.2z"/>
	<path d="M745.8,14v3.7H716V14H745.8z M718.9,6.8c0-3.6,4.4-5.6,11.9-5.6c7.6,0,12,2,12,5.6c0,3.7-4.4,5.6-12,5.6
		C723.4,12.4,718.9,10.4,718.9,6.8z M724.1,29.9h18.9v3.6h-23.6v-8.7h18.1V23h-18.2v-3.5h22.8V28h-18.1V29.9z M723.9,6.8
		c0,1.5,2.3,2.2,7,2.2c4.8,0,7.1-0.6,7.1-2.2c0-1.5-2.3-2.2-7.1-2.2C726.1,4.6,723.9,5.3,723.9,6.8z"/>
	<path d="M780.8,19.3H765V3.4h15.7V19.3z M773.5,29.4h17.8v3.8h-22.5V22.4h4.7V29.4z M776.1,7.1h-6.5v8.5h6.5V7.1z M794.5,10.2v3.9
		h-4.4v10.7h-4.7V0.7h4.7v9.5H794.5z"/>
	<path d="M830.5,13.5v3.7h-29.9v-3.7H830.5z M808.7,29.8h18.9v3.6H804v-8.9h18.1v-1.9H804v-3.6h22.8v8.8h-18.1V29.8z M826.9,11.7
		h-22.6V1.3h22.4v3.8H809V8h17.9V11.7z"/>
	<path d="M864.8,0.6v33.1h-4.7V16.4h-5.5c-0.5,6.3-3.9,10.2-8.5,10.2c-4.9,0-8.5-4.6-8.5-11.8c0-7.2,3.6-11.8,8.5-11.8
		c4.4,0,7.8,3.6,8.4,9.6h5.5V0.6H864.8z M850.2,14.7c0-4.9-1.6-7.5-4.1-7.5c-2.4,0-4,2.6-4,7.5c0,4.9,1.6,7.5,4,7.5
		C848.5,22.3,850.2,19.6,850.2,14.7z"/>
	<path d="M902.2,1.9c0,8.8-5.6,14.1-15.5,16.1l-1.7-3.8c7.7-1.4,11.4-4.7,11.9-8.5h-10.3V1.9H902.2z M894.1,29.6h18v3.7h-22.7V24
		h17.1v-1.9h-17.1v-3.7h21.8v9.1h-17.1V29.6z M915.6,7.2v3.9h-4.4v6h-4.7V0.6h4.7v6.6H915.6z"/>
	<path d="M963.2,22.5h-12.7v11.3h-4.7V22.5h-12.4v-3.8h29.8V22.5z M960.3,16.2c-5.8-0.9-9.9-3.6-12-7.1c-2.1,3.6-6.3,6.2-12.1,7.1
		l-1.8-3.8c7.5-1,11.3-5.3,11.3-9.2V1.6h5.1v1.6c0,3.8,3.8,8.1,11.3,9.2L960.3,16.2z"/>
	<path d="M981.9,10.3c0-4.6,3.9-7.9,9-7.9c5.2,0,9,3.3,9,7.9c0,4.6-3.8,7.9-9,7.9C985.7,18.2,981.9,14.9,981.9,10.3z M1005.5,21.8
		c0,3.4,1.8,6.6,6.2,7.9l-2.3,3.4c-3.1-1-5.1-3-6.2-5.5c-1.1,2.5-3,4.7-6,5.9c-3-1.1-4.9-3.3-6-5.8c-1.1,2.4-3.2,4.3-6.1,5.4
		l-2.3-3.4c4.4-1.5,6.2-4.7,6.2-7.9v-1.1h4.6v1.1c0,2.6,1,5.3,3.7,7.2c2.7-2,3.8-4.7,3.8-7.2v-1.1h4.7V21.8z M986.5,10.3
		c0,2.5,1.8,4,4.3,4c2.5,0,4.4-1.5,4.4-4c0-2.5-1.9-4-4.4-4C988.3,6.3,986.5,7.8,986.5,10.3z M1008.8,19.3h-4.8V0.7h4.8V19.3z"/>
	<path d="M1045.6,0.6v33.1h-4.7V16.4h-5.5c-0.5,6.3-3.9,10.2-8.5,10.2c-4.9,0-8.5-4.6-8.5-11.8c0-7.2,3.6-11.8,8.5-11.8
		c4.4,0,7.8,3.6,8.4,9.6h5.5V0.6H1045.6z M1031,14.7c0-4.9-1.6-7.5-4.1-7.5c-2.4,0-4,2.6-4,7.5c0,4.9,1.6,7.5,4,7.5
		C1029.4,22.3,1031,19.6,1031,14.7z"/>
	<path d="M1071.9,14.7c0,7.3-3.7,11.8-8.7,11.8c-5,0-8.7-4.6-8.7-11.8c0-7.2,3.7-11.8,8.7-11.8C1068.2,3,1071.9,7.5,1071.9,14.7z
		 M1067.4,14.7c0-4.8-1.7-7.5-4.1-7.5c-2.5,0-4.1,2.7-4.1,7.5c0,4.9,1.6,7.5,4.1,7.5C1065.7,22.3,1067.4,19.6,1067.4,14.7z
		 M1080.2,12.2V18h4.6v3.9h-4.6v11.8h-4.7v-33h4.7v7.7h4.6v3.9H1080.2z"/>
	<path d="M20.5,72.8H1v-3.7h7.4v-3.2h4.8v3.2h7.4L20.5,72.8z M10.8,85.4c-4.8,0-8.1-2.4-8.1-5.8c0-3.5,3.3-5.8,8.1-5.8
		c4.8,0,8.1,2.3,8.1,5.8C18.9,83,15.5,85.4,10.8,85.4z M22.4,86.8h4.7v12.1H5.6V86.8h4.7v2.5h12.1V86.8z M10.8,81.9
		c2.1,0,3.6-0.8,3.6-2.4s-1.5-2.4-3.6-2.4c-2.1,0-3.6,0.8-3.6,2.4S8.6,81.9,10.8,81.9z M22.4,92.8H10.3v2.3h12.1V92.8z M31.4,78
		h-4.4v7.5h-4.7V66.2h4.7v7.9h4.4V78z"/>
	<path d="M46.1,87c4.3-0.1,9-0.5,13.9-1.4l0.5,3.9c-5.6,1.2-11.1,1.5-16.1,1.5h-2.9V69.3h4.7V87z M67.3,66.1v33h-4.7v-33H67.3z"/>
	<path d="M84.4,87.4c4.7-0.1,8.6-0.3,12.9-1l0.5,3.9c-5,0.9-9.5,1.1-15.2,1.1h-2.8V69.2h15.4V73H84.4V87.4z M109.1,82.3h-4.8v17
		h-4.7V66.2h4.7v12.2h4.8V82.3z"/>
	<path d="M118.1,93.2c0-1.9,1.4-3.4,3.3-3.4c1.9,0,3.3,1.5,3.3,3.4c0,1.9-1.4,3.4-3.3,3.4C119.5,96.6,118.1,95.1,118.1,93.2z"/>
	<path d="M178.1,88.4h-12.7v10.8h-4.7V88.4h-12.5v-3.8h29.9V88.4z M151.2,74.7c0-4.5,4.9-7.4,11.9-7.4c7,0,11.9,2.9,11.9,7.4
		c0,4.6-4.9,7.5-11.9,7.5C156,82.2,151.2,79.3,151.2,74.7z M156,74.7c0,2.4,2.8,3.7,7.1,3.7c4.3,0,7.1-1.3,7.1-3.7
		c0-2.4-2.8-3.7-7.1-3.7C158.8,71,156,72.3,156,74.7z"/>
	<path d="M193.5,87.7c5,0,9.2-0.3,13.8-1.1l0.5,3.8c-5.4,0.9-10.2,1.1-16.2,1.1h-3V78h10.7v-5.3h-10.8V69h15.6v12.8h-10.7V87.7z
		 M214.4,66.1v33.1h-4.7V66.1H214.4z"/>
	<path d="M255.5,82.2V86h-29.9v-3.8H255.5z M233.7,94.7h18.7v3.8h-23.4v-9.9h4.8V94.7z M252.2,78.9h-22.9V67.3h4.7v7.7h18.2V78.9z"
		/>
	<path d="M295.7,86c-3.6-1.2-6.1-3.6-7.5-6.5c-1.5,3.3-4.1,5.9-7.9,7.2l-2.4-3.8c5.4-1.8,7.8-6.1,7.8-10.3v-0.5h-6.5v-3.8h17.8v3.8
		h-6.4v0.4c0,3.9,2.3,8,7.5,9.7L295.7,86z M306.4,94.9v3.8h-22.5V88.3h4.7v6.6H306.4z M301,74.7v-8.5h4.7v24.1H301V78.5h-5.2v-3.8
		H301z"/>
	<path d="M341.1,74.4c0,5.3,1.4,10.8,5.9,13.8l-2.6,3.7c-2.8-1.7-4.6-4.5-5.6-7.9c-1.1,3.7-3.1,6.8-6.1,8.6l-2.8-3.6
		c4.8-2.9,6.6-8.9,6.6-14.5V69h4.6V74.4z M347.7,66.7h4.4v31h-4.4V81.2h-4.1v-3.8h4.1V66.7z M358.9,66.2v33h-4.5v-33H358.9z"/>
	<path d="M386.4,66.9h4.4v30.9h-4.4V86.9h-4.6v-3.8h4.6v-4.5h-4c-1.5,5.5-4.8,10-10.9,13.7l-2.7-3.3c6.5-4,9.4-8.8,10-15.2h-8.1
		v-3.8h12.8c0,1.7-0.1,3.3-0.3,4.8h3.2V66.9z M397.6,66.1v33.1h-4.5V66.1H397.6z"/>
	<path d="M449.5,66.1v33.1h-4.7V87H438c-1.5,3.2-4,5.1-7.2,5.1c-4.9,0-8.5-4.6-8.5-11.8c0-7.2,3.6-11.8,8.5-11.8
		c3,0,5.5,1.6,6.9,4.4h7v-6.8H449.5z M434.9,80.2c0-4.9-1.7-7.5-4.1-7.5c-2.4,0-4.1,2.6-4.1,7.5c0,4.9,1.7,7.5,4.1,7.5
		C433.2,87.8,434.9,85.1,434.9,80.2z M444.7,83.2v-6.5H439c0.2,1.1,0.3,2.3,0.3,3.5c0,1-0.1,2-0.2,2.9H444.7z"/>
	<path d="M477.8,84.5c-3.5-1.2-5.8-3.4-7.2-6.4c-1.5,3.4-4.1,6-8,7.4l-2.5-3.8c5.6-1.8,8-6.3,8-10.8v-2.9h4.8v2.7
		c0,4.4,2.2,8.5,7.4,10.2L477.8,84.5z M488.2,92.8c0,4-4.3,6.4-11.3,6.4c-7,0-11.3-2.4-11.3-6.4c0-4.1,4.3-6.5,11.3-6.5
		C483.9,86.4,488.2,88.7,488.2,92.8z M483.4,92.8c0-1.9-2.3-2.8-6.6-2.8c-4.3,0-6.6,0.9-6.6,2.8c0,1.9,2.3,2.8,6.6,2.8
		C481.2,95.6,483.4,94.7,483.4,92.8z M483.3,76h-6v-3.8h6v-6h4.7v19.4h-4.7V76z"/>
	<path d="M529,79v3.7h-29.9V79H529z M507.2,95.3h18.9v3.6h-23.6V90h18.1v-1.9h-18.2v-3.6h22.8v8.8h-18.1V95.3z M525.4,77.2h-22.6
		V66.8h22.4v3.8h-17.7v2.9h17.9V77.2z"/>
	<path d="M556.1,80.2c0,7.3-3.7,11.8-8.7,11.8s-8.7-4.6-8.7-11.8c0-7.2,3.7-11.8,8.7-11.8S556.1,73,556.1,80.2z M543.2,80.2
		c0,4.9,1.7,7.5,4.1,7.5s4.1-2.6,4.1-7.5c0-4.9-1.7-7.5-4.1-7.5S543.2,75.3,543.2,80.2z M565.1,66.1v33.1h-4.7V66.1H565.1z"/>
	<path d="M620.1,91v3.9h-29.9V91H620.1z M611.7,73h-18.4v-3.8h23.1v3.9c0,4.6,0,9.1-1.2,15.9l-4.7-0.4c1.2-6.3,1.2-11,1.2-15.5V73z"
		/>
	<path d="M658.8,79v3.7H629V79H658.8z M637.1,95.3H656v3.6h-23.6V90h18.1v-1.9h-18.2v-3.6h22.8v8.8h-18.1V95.3z M655.3,77.2h-22.6
		V66.8H655v3.8h-17.7v2.9h17.9V77.2z"/>
	<path d="M667.7,88.7c5.8,0,13.9,0,20.9-1.1l0.3,3.4c-7.1,1.4-14.9,1.5-20.6,1.5L667.7,88.7z M687.3,76.5c0,4.8-3.9,8.1-9.1,8.1
		s-9.1-3.4-9.1-8.1c0-4.7,3.9-8.1,9.1-8.1S687.3,71.8,687.3,76.5z M673.7,76.5c0,2.6,1.9,4.1,4.5,4.1s4.5-1.5,4.5-4.1
		c0-2.6-1.9-4.1-4.5-4.1S673.7,73.9,673.7,76.5z M695.2,66.1v33.1h-4.7V66.1H695.2z"/>
	<path d="M738.3,86c-3.7-1.1-6.2-3.5-7.7-6.5c-1.5,3.2-4.1,5.8-8,7l-2.4-3.7c5.5-1.7,7.9-6.1,7.9-10.2v-0.4h-6.6v-3.7h18v3.7h-6.5
		v0.4c0,3.9,2.4,7.9,7.7,9.7L738.3,86z M748.4,94.9v3.8h-22.8V87.9h4.7v7H748.4z M747.5,90.1h-4.8V66.2h4.8V90.1z"/>
	<path d="M776.4,84.9c-3.6-1.2-6.1-3.5-7.5-6.4c-1.4,3.3-4.1,6-7.9,7.3l-2.4-3.7c5.2-1.8,7.6-6,7.8-10.2h-6.5v-3.8h17.8v3.8h-6.4
		c0.1,3.8,2.4,7.6,7.5,9.3L776.4,84.9z M786.5,92.9c0,4-4.3,6.3-11.3,6.3c-7,0-11.3-2.3-11.3-6.3c0-4,4.3-6.3,11.3-6.3
		C782.2,86.5,786.5,88.9,786.5,92.9z M781.8,92.9c0-1.9-2.3-2.8-6.6-2.8c-4.3,0-6.6,0.9-6.6,2.8c0,1.9,2.3,2.8,6.6,2.8
		C779.5,95.6,781.8,94.8,781.8,92.9z M781.7,74.1v-8h4.7v19.7h-4.7V78h-5v-3.8H781.7z"/>
	<path d="M816.9,73.3h-19.4v-3.7h7.3v-3.5h4.8v3.5h7.4L816.9,73.3z M807.2,87.3c-4.7,0-8.1-2.6-8.1-6.4c0-3.7,3.4-6.3,8.1-6.3
		s8.1,2.6,8.1,6.3C815.3,84.7,811.9,87.3,807.2,87.3z M806.9,94.9h17.8v3.8h-22.5V89h4.7V94.9z M807.2,83.7c2.1,0,3.6-1,3.6-2.8
		c0-1.8-1.5-2.8-3.6-2.8c-2.1,0-3.6,1-3.6,2.8C803.6,82.7,805.1,83.7,807.2,83.7z M827.8,76.2v3.9h-4.4v10.7h-4.7V66.2h4.7v10.1
		H827.8z"/>
	<path d="M867,69.5c0,9.9-3.8,18.4-14.7,24l-2.7-3.6c7.7-3.9,11.8-9.2,12.6-16.5h-10.8v-3.8H867z M880.4,82.7h-4.6v16.5h-4.7v-33
		h4.7v12.6h4.6V82.7z"/>
	<path d="M901.5,76.5c0,4.8,2.6,10.2,8,12.5l-2.5,3.6c-3.7-1.5-6.3-4.7-7.8-8.5c-1.5,4-4.1,7.4-7.9,9l-2.5-3.6c5.4-2.4,8-8,8-13.1
		v-1.1h-6.9v-3.8h6.9v-4.6h4.7v4.6h6.7v3.8h-6.7V76.5z M916,66.2v33h-4.7v-33H916z"/>
	<path d="M957.2,81v3.4h-29.9V81H957.2z M935.4,95.7h19.2v3.2h-23.9v-8H949v-1.7h-18.3v-3.2h23v7.9h-18.3V95.7z M948.9,69.9H931
		v-3.2h22.6v7.8h-17.9v1.7h18.4v3.2H931v-7.9h17.9V69.9z"/>
	<path d="M1009.7,91.5v3.8h-29.9v-3.8h12.4v-7.4h4.7v7.4H1009.7z M1006.8,85.1c-5.8-1-10-4.1-12.2-8.2c-2.2,4.1-6.3,7.2-12.1,8.2
		l-1.9-3.9c7.5-1.2,11.6-6.3,11.6-10.9V68h5.1v2.4c0,4.7,4.1,9.7,11.6,10.9L1006.8,85.1z"/>
	<path d="M1035.8,84.9v2.4c5.7,0.5,9,2.5,9,5.9c0,3.8-4.3,6-11.5,6c-7.1,0-11.4-2.2-11.4-6c0-3.4,3.4-5.5,9.1-5.9v-2.4h-12.6v-3.8
		h29.8v3.8H1035.8z M1019.8,76.2c6.1-0.5,9.4-2.7,10.2-4.9h-8.8v-3.8h24.4v3.8h-8.8c0.8,2.2,4.1,4.4,10.2,4.9l-1.7,3.7
		c-6.2-0.5-10.3-2.9-12-6c-1.8,3.1-5.8,5.5-12.1,6L1019.8,76.2z M1033.3,90.8c-4.4,0-6.7,0.7-6.7,2.4c0,1.6,2.3,2.4,6.7,2.4
		c4.4,0,6.7-0.7,6.7-2.4C1040,91.6,1037.7,90.8,1033.3,90.8z"/>
	<path d="M1070,71.1h7.4v3.8h-19.6v-3.8h7.4v-4.4h4.7V71.1z M1076.1,84.5c0,4.7-3.6,7.9-8.4,7.9c-4.9,0-8.5-3.3-8.5-7.9
		c0-4.6,3.6-7.9,8.5-7.9C1072.5,76.7,1076.1,79.9,1076.1,84.5z M1071.6,84.5c0-2.5-1.7-4-3.9-4c-2.3,0-3.9,1.5-3.9,4
		c0,2.5,1.6,4.1,3.9,4.1C1069.9,88.6,1071.6,87.1,1071.6,84.5z M1084.5,66.1v33h-4.7v-33H1084.5z"/>
	<path d="M28.8,131.6v33.1H24v-12.3h-6.7c-1.5,3.2-4,5.1-7.2,5.1c-4.9,0-8.5-4.6-8.5-11.8c0-7.2,3.6-11.8,8.5-11.8
		c3,0,5.5,1.6,6.9,4.4h7v-6.8H28.8z M14.2,145.7c0-4.9-1.7-7.5-4.1-7.5c-2.4,0-4.1,2.6-4.1,7.5c0,4.9,1.7,7.5,4.1,7.5
		C12.5,153.3,14.2,150.6,14.2,145.7z M24,148.7v-6.5h-5.7c0.2,1.1,0.3,2.3,0.3,3.5c0,1-0.1,2-0.2,2.9H24z"/>
	<path d="M56.7,135.1c0,10.1-3.4,18.4-15.1,24l-2.5-3.7c8.4-4.1,12.1-9.2,12.8-16.5h-11v-3.8H56.7z M66.5,131.6v33h-4.8v-33H66.5z"
		/>
	<path d="M106.9,156.9v3.8H77v-3.8h10.5v-11.4h4.7v11.4H106.9z M97.9,152.9c1.3-6.2,1.3-10.8,1.3-14.7H80v-3.8h24v3.2
		c0,4.1,0,8.8-1.3,15.8L97.9,152.9z"/>
	<path d="M140.1,140.6c0,5,2.6,10.9,8,13.4l-2.6,3.7c-3.7-1.7-6.2-5-7.7-8.9c-1.5,4.3-4.1,7.9-7.9,9.7l-2.7-3.8
		c5.4-2.5,8.1-8.7,8.1-14.2v-1.8h-6.9v-3.9h18.2v3.9h-6.6V140.6z M158.7,148.2h-4.8v16.5h-4.7v-33h4.7v12.6h4.8V148.2z"/>
	<path d="M183.8,150.8c-3.7-1.3-6.2-3.7-7.6-6.8c-1.5,3.3-4.1,6-7.9,7.4l-2.4-3.8c5.5-1.9,7.9-6.5,7.9-10.9v-3.2h4.8v3.2
		c0,4.3,2.3,8.6,7.7,10.3L183.8,150.8z M194.2,160.4v3.8h-22.8v-10.7h4.7v6.9H194.2z M193.4,155.8h-4.8v-24.1h4.8V155.8z"/>
	<path d="M223.1,147.6c-4.1,0.9-7.8,1.1-15.1,1.1h-2.8v-15h14.7v3.8h-10v7.5c5.9,0,9.1-0.3,12.7-1L223.1,147.6z M225.2,151h4.7v13.3
		h-21.6V151h4.7v3h12.2V151z M225.2,157.6h-12.2v2.9h12.2V157.6z M234.3,142.6h-4.4v6.7h-4.7v-17.7h4.7v7.1h4.4V142.6z"/>
	<path d="M258.9,132.4h4.4v30.9h-4.4v-15.1h-5.2c-1.9,3.8-4.9,7-9.5,9.8l-2.7-3.3c6.6-3.9,9.5-8.7,10.1-15.2h-8.3v-3.8h13
		c0,3.1-0.3,6-1.1,8.7h3.7V132.4z M270.3,131.6v33h-4.5v-33H270.3z"/>
	<path d="M310.1,147.8c-3.6-1.1-6-3.2-7.4-6.1c-1.5,3.2-4.1,5.7-8,6.9l-2.3-3.8c5.5-1.6,7.7-5.7,7.7-9.9v-2.1h4.8v2
		c0,4,2.2,7.8,7.5,9.3L310.1,147.8z M301.9,160.8h18v3.7h-22.7v-9h17.1v-1.9h-17.1v-3.6H319v8.9h-17.1V160.8z M323.3,138.1v3.8H319
		v6.7h-4.7v-16.9h4.7v6.4H323.3z"/>
	<path d="M348.5,145.7c0,7.3-3.7,11.8-8.7,11.8c-5,0-8.7-4.6-8.7-11.8c0-7.2,3.7-11.8,8.7-11.8C344.8,134,348.5,138.5,348.5,145.7z
		 M343.9,145.7c0-4.9-1.7-7.5-4.1-7.5c-2.5,0-4.1,2.6-4.1,7.5c0,4.9,1.7,7.5,4.1,7.5C342.2,153.3,343.9,150.6,343.9,145.7z
		 M361.6,148h-4.8v16.7H352v-33h4.7v12.4h4.8V148z"/>
	<path d="M385.9,132.9c0,8.8-5.6,14.1-15.5,16.1l-1.7-3.8c7.7-1.4,11.4-4.7,11.9-8.5h-10.3v-3.8H385.9z M377.8,160.6h18v3.7h-22.7
		V155h17.1v-1.9h-17.1v-3.7h21.8v9.1h-17.1V160.6z M399.3,138.2v3.9h-4.4v6h-4.7v-16.5h4.7v6.6H399.3z"/>
	<path d="M449.8,153.5h-12.7v11.3h-4.7v-11.3H420v-3.8h29.8V153.5z M446.9,147.2c-5.8-0.9-9.9-3.6-12-7.1c-2.1,3.6-6.3,6.2-12.1,7.1
		l-1.8-3.8c7.5-1,11.3-5.3,11.3-9.2v-1.6h5.1v1.6c0,3.8,3.8,8.1,11.3,9.2L446.9,147.2z"/>
	<path d="M471.5,141.3c0-4.6,3.9-7.9,9-7.9c5.2,0,9,3.3,9,7.9c0,4.6-3.8,7.9-9,7.9C475.3,149.2,471.5,145.9,471.5,141.3z
		 M495.1,152.8c0,3.4,1.8,6.6,6.2,7.9l-2.3,3.4c-3.1-1-5.1-3-6.2-5.5c-1.1,2.5-3,4.7-6,5.9c-3-1.1-4.9-3.3-6-5.8
		c-1.1,2.4-3.2,4.3-6.1,5.4l-2.3-3.4c4.4-1.5,6.2-4.7,6.2-7.9v-1.1h4.6v1.1c0,2.6,1,5.3,3.7,7.2c2.7-2,3.8-4.7,3.8-7.2v-1.1h4.7
		V152.8z M476.1,141.3c0,2.5,1.8,4,4.3,4c2.5,0,4.4-1.5,4.4-4c0-2.5-1.9-4-4.4-4C477.9,137.3,476.1,138.8,476.1,141.3z M498.4,150.3
		h-4.8v-18.7h4.8V150.3z"/>
	<path d="M538.9,147.7v3.8h-29.9v-3.8H538.9z M517.1,160.2h18.7v3.8h-23.4v-9.9h4.8V160.2z M535.6,144.4h-22.9v-11.5h4.7v7.7h18.2
		V144.4z"/>
	<path d="M570.5,139.9c0,5.3,1.4,10.8,5.9,13.8l-2.6,3.7c-2.8-1.7-4.6-4.5-5.6-7.9c-1.1,3.7-3.1,6.8-6.1,8.6l-2.8-3.6
		c4.8-2.9,6.6-8.9,6.6-14.5v-5.6h4.6V139.9z M577.2,132.2h4.4v31h-4.4v-16.6H573v-3.8h4.1V132.2z M588.3,131.7v33h-4.5v-33H588.3z"
		/>
	<path d="M615,150c-3.5-1.1-5.9-3.4-7.3-6.2c-1.4,3.3-4,5.8-7.7,7.1l-2.5-3.7c5.5-1.8,7.7-6.2,7.7-10.7v-3h4.8v3.4
		c0,4,2.2,7.9,7.4,9.5L615,150z M624.3,158.3c0,4-4.3,6.4-11.2,6.4c-6.9,0-11.2-2.4-11.2-6.4c0-4,4.3-6.3,11.2-6.3
		C620,152,624.3,154.3,624.3,158.3z M619.6,158.3c0-1.8-2.3-2.7-6.5-2.7c-4.2,0-6.5,0.9-6.5,2.7c0,1.9,2.3,2.7,6.5,2.7
		C617.4,161,619.6,160.2,619.6,158.3z M628.3,139.3v3.9H624v8h-4.7v-19.5h4.7v7.6H628.3z"/>
	<path d="M665.8,145v3.7h-29.8V145H665.8z M638.9,137.8c0-3.6,4.4-5.6,11.9-5.6c7.6,0,12,2,12,5.6c0,3.7-4.4,5.6-12,5.6
		C643.3,143.4,638.9,141.4,638.9,137.8z M644.1,160.9H663v3.6h-23.6v-8.7h18.1V154h-18.2v-3.5h22.8v8.5h-18.1V160.9z M643.8,137.8
		c0,1.5,2.3,2.2,7,2.2c4.8,0,7.1-0.6,7.1-2.2c0-1.5-2.3-2.2-7.1-2.2C646.1,135.6,643.8,136.3,643.8,137.8z"/>
	<path d="M704.7,148.5h-16v-14.9h16V148.5z M715.1,160.6v3.7h-22.6v-12.4h22v3.8h-17.3v5H715.1z M700,137.4h-6.7v7.4h6.7V137.4z
		 M714.4,150.2h-4.8v-18.6h4.8V150.2z"/>
	<path d="M754.9,156.9v3.9h-29.9v-3.9H754.9z M752.2,142.9c0,5.7-5.4,9.5-12.3,9.5c-6.9,0-12.3-3.8-12.3-9.5c0-5.8,5.4-9.6,12.3-9.6
		C746.8,133.3,752.2,137.1,752.2,142.9z M732.2,142.9c0,3.5,3.2,5.7,7.7,5.7c4.5,0,7.7-2.2,7.7-5.7c0-3.6-3.2-5.7-7.7-5.7
		C735.4,137.2,732.2,139.3,732.2,142.9z"/>
	<path d="M790.6,131.7v33.1h-4.7v-13h-6.1v4.8h-15.7v-22.1h15.7v4.6h6.1v-7.5H790.6z M775.2,138.3h-6.4v14.7h6.4V138.3z
		 M785.9,148.1v-5.1h-6.1v5.1H785.9z"/>
	<path d="M843.9,153.9h-12.7v10.8h-4.7v-10.8H814v-3.8h29.9V153.9z M840.3,146.6h-22.9v-13.3h22.9V146.6z M835.7,137h-13.6v5.9h13.6
		V137z"/>
	<path d="M871.4,138.8h-19.4v-3.7h7.3v-3.5h4.8v3.5h7.4L871.4,138.8z M861.6,152.8c-4.7,0-8.1-2.6-8.1-6.4c0-3.7,3.4-6.3,8.1-6.3
		s8.1,2.6,8.1,6.3C869.7,150.2,866.4,152.8,861.6,152.8z M861.3,160.4h17.8v3.8h-22.5v-9.6h4.7V160.4z M861.6,149.2
		c2.1,0,3.6-1,3.6-2.8c0-1.8-1.5-2.8-3.6-2.8c-2.1,0-3.6,1-3.6,2.8C858,148.2,859.5,149.2,861.6,149.2z M882.3,141.7v3.9h-4.4v10.7
		h-4.7v-24.7h4.7v10.1H882.3z"/>
	<path d="M909.3,138.8h-19.4v-3.7h7.3v-3.5h4.8v3.5h7.4L909.3,138.8z M899.6,152.8c-4.7,0-8.1-2.6-8.1-6.4c0-3.7,3.4-6.3,8.1-6.3
		s8.1,2.6,8.1,6.3C907.7,150.2,904.3,152.8,899.6,152.8z M899.3,160.4h17.8v3.8h-22.5v-9.6h4.7V160.4z M899.6,149.2
		c2.1,0,3.6-1,3.6-2.8c0-1.8-1.5-2.8-3.6-2.8c-2.1,0-3.6,1-3.6,2.8C896,148.2,897.5,149.2,899.6,149.2z M920.3,141.7v3.9h-4.4v10.7
		h-4.7v-24.7h4.7v10.1H920.3z"/>
	<path d="M958,135c0,9.9-3.8,18.4-14.7,24l-2.7-3.6c7.7-3.9,11.8-9.2,12.6-16.5h-10.8V135H958z M971.4,148.2h-4.6v16.5h-4.7v-33h4.7
		v12.6h4.6V148.2z"/>
	<path d="M1008.8,146.4v3.8h-29.9v-3.8H1008.8z M1005.2,158.5c0,3.9-4.3,6.1-11.5,6.1c-7.1,0-11.4-2.3-11.4-6.1s4.3-6.1,11.4-6.1
		C1000.9,152.4,1005.2,154.6,1005.2,158.5z M1005.5,143.6h-22.8v-11.4h4.7v7.6h18.1V143.6z M1000.4,158.5c0-1.7-2.3-2.5-6.7-2.5
		c-4.4,0-6.7,0.8-6.7,2.5s2.3,2.5,6.7,2.5C998.2,161,1000.4,160.2,1000.4,158.5z"/>
	<path d="M1034.2,150c-3.5-1.2-5.8-3.4-7.2-6.4c-1.5,3.4-4.1,6-8,7.4l-2.5-3.8c5.6-1.8,8-6.3,8-10.8v-2.9h4.8v2.7
		c0,4.4,2.2,8.5,7.4,10.2L1034.2,150z M1044.6,158.3c0,4-4.3,6.4-11.3,6.4c-7,0-11.3-2.4-11.3-6.4c0-4.1,4.3-6.5,11.3-6.5
		C1040.3,151.9,1044.6,154.2,1044.6,158.3z M1039.9,158.3c0-1.9-2.3-2.8-6.6-2.8c-4.3,0-6.6,0.9-6.6,2.8c0,1.9,2.3,2.8,6.6,2.8
		C1037.6,161.1,1039.9,160.2,1039.9,158.3z M1039.7,141.5h-6v-3.8h6v-6h4.7V151h-4.7V141.5z"/>
	<path d="M1084.7,145v3.7h-29.8V145H1084.7z M1057.8,137.8c0-3.6,4.4-5.6,11.9-5.6c7.6,0,12,2,12,5.6c0,3.7-4.4,5.6-12,5.6
		C1062.2,143.4,1057.8,141.4,1057.8,137.8z M1063,160.9h18.9v3.6h-23.6v-8.7h18.1V154h-18.2v-3.5h22.8v8.5H1063V160.9z
		 M1062.7,137.8c0,1.5,2.3,2.2,7,2.2c4.8,0,7.1-0.6,7.1-2.2c0-1.5-2.3-2.2-7.1-2.2C1065,135.6,1062.7,136.3,1062.7,137.8z"/>
	<path d="M30.9,210.6v3.7H1v-3.7H30.9z M2.4,206.1c6.2-0.4,9.5-2.3,10.5-4.2H3.8v-3.7h24.4v3.7h-9.1c1,2,4.2,3.8,10.4,4.2l-1.4,3.6
		c-6.1-0.4-10.2-2.4-12.1-5.1c-2,2.7-6.1,4.7-12.2,5.1L2.4,206.1z M9.2,226.4h18.9v3.5H4.5v-8.6h18.1v-1.8H4.5v-3.4h22.8v8.5H9.2
		V226.4z"/>
	<path d="M57.2,198.4c0,9-5,13.9-15.4,16.1l-1.7-3.8c8.1-1.4,11.4-4.6,11.8-8.5h-10v-3.8H57.2z M68,226.2v3.7H45.1v-9.2h17.2v-1.9
		H45.1v-3.6h22v8.9H49.9v2.2H68z M67.1,213.7h-4.8v-16.6h4.8V213.7z"/>
	<path d="M122,219h-12.7v11.3h-4.7V219H92.1v-3.8H122V219z M119.1,212.7c-5.8-0.9-9.9-3.6-12-7.1c-2.1,3.6-6.3,6.2-12.1,7.1
		l-1.8-3.8c7.5-1,11.3-5.3,11.3-9.2v-1.6h5.1v1.6c0,3.8,3.8,8.1,11.3,9.2L119.1,212.7z"/>
	<path d="M145,206.8c0-4.6,3.9-7.9,9-7.9c5.2,0,9,3.3,9,7.9c0,4.6-3.8,7.9-9,7.9C148.9,214.7,145,211.4,145,206.8z M168.6,218.3
		c0,3.4,1.8,6.6,6.2,7.9l-2.3,3.4c-3.1-1-5.1-3-6.2-5.5c-1.1,2.5-3,4.7-6,5.9c-3-1.1-4.9-3.3-6-5.8c-1.1,2.4-3.2,4.3-6.1,5.4
		l-2.3-3.4c4.4-1.5,6.2-4.7,6.2-7.9v-1.1h4.6v1.1c0,2.6,1,5.3,3.7,7.2c2.7-2,3.8-4.7,3.8-7.2v-1.1h4.7V218.3z M149.6,206.8
		c0,2.5,1.8,4,4.3,4c2.5,0,4.4-1.5,4.4-4c0-2.5-1.9-4-4.4-4C151.4,202.8,149.6,204.3,149.6,206.8z M172,215.8h-4.8v-18.7h4.8V215.8z
		"/>
	<path d="M200.9,200.6c0,10.1-3.4,18.4-15.1,24l-2.5-3.7c8.4-4.1,12.1-9.2,12.8-16.5h-11v-3.8H200.9z M210.7,197.1v33h-4.8v-33
		H210.7z"/>
	<path d="M251.7,212v3.4h-29.9V212H251.7z M229.9,226.7h19.2v3.2h-23.9v-8h18.3v-1.7h-18.3v-3.2h23v7.9h-18.3V226.7z M243.4,200.9
		h-17.9v-3.2h22.6v7.8h-17.9v1.7h18.4v3.2h-23.1v-7.9h17.9V200.9z"/>
	<path d="M286.6,199.8h4.7v22.8h-16v-22.8h4.7v8h6.6V199.8z M286.6,211.5h-6.6v7.3h6.6V211.5z M304.9,213.4h-4.8v16.8h-4.7v-33h4.7
		v12.3h4.8V213.4z"/>
	<path d="M332.3,213.9c-4.6,0.9-8.8,1-15.4,1h-2.8v-10h10.4v-2.5H314v-3.8h15.1v9.8h-10.3v2.7c5.4,0,9-0.3,13.1-1L332.3,213.9z
		 M334.2,216.8h4.7v13.1h-21.5v-13.1h4.7v2.9h12.1V216.8z M334.2,223.3h-12.1v2.7h12.1V223.3z M343.3,208.3h-4.4v7.2h-4.7v-18.3h4.7
		v7.2h4.4V208.3z"/>
	<path d="M357.9,218c4.3-0.1,9-0.5,13.9-1.4l0.5,3.9c-5.6,1.2-11.1,1.5-16.1,1.5h-2.9v-21.8h4.7V218z M379.1,197.1v33h-4.7v-33
		H379.1z"/>
	<path d="M396.1,218.4c4.7-0.1,8.6-0.3,12.9-1l0.5,3.9c-5,0.9-9.5,1.1-15.2,1.1h-2.8v-22.1h15.4v3.8h-10.7V218.4z M420.8,213.3H416
		v17h-4.7v-33.1h4.7v12.2h4.8V213.3z"/>
	<path d="M429.8,224.2c0-1.9,1.4-3.4,3.3-3.4c1.9,0,3.3,1.5,3.3,3.4c0,1.9-1.4,3.4-3.3,3.4C431.2,227.6,429.8,226.1,429.8,224.2z"/>
	<path d="M469.1,214.7c-5.1,0-9-3.3-9-7.9c0-4.6,3.8-7.9,9-7.9c5.1,0,8.9,3.3,8.9,7.9C478,211.4,474.2,214.7,469.1,214.7z
		 M482.5,226h4.4v3.7H464V226h4.2v-5.3h-4v-3.7h22.2v3.7h-4V226z M469.1,210.8c2.5,0,4.3-1.4,4.3-4c0-2.5-1.9-4-4.3-4
		c-2.5,0-4.3,1.5-4.3,4C464.7,209.3,466.6,210.8,469.1,210.8z M472.9,226h5v-5.3h-5V226z M490.2,204.4v3.9h-4.4v7.2h-4.7v-18.3h4.7
		v7.2H490.2z"/>
	<path d="M528.4,222.4v3.9h-29.9v-3.9H528.4z M525.8,208.4c0,5.7-5.4,9.5-12.3,9.5c-6.9,0-12.3-3.8-12.3-9.5c0-5.8,5.4-9.6,12.3-9.6
		C520.4,198.8,525.8,202.6,525.8,208.4z M505.8,208.4c0,3.5,3.2,5.7,7.7,5.7c4.5,0,7.7-2.2,7.7-5.7c0-3.6-3.2-5.7-7.7-5.7
		C508.9,202.7,505.8,204.8,505.8,208.4z"/>
	<path d="M567.1,222.7v3.9h-29.9v-3.9h12.6v-4.9h-9.1v-11.2H559V203h-18.5v-3.8h23.1v11h-18.4v3.7h19.2v3.8h-10v4.9H567.1z"/>
	<path d="M605.7,222.6v3.9h-29.9v-3.9h12.6v-6.9h-9.1v-16.3h23v3.8H584v8.7h18.5v3.8h-9.4v6.9H605.7z"/>
	<path d="M658.1,219.4h-6.9v10.8h-4.8v-10.8h-6.6v10.8H635v-10.8h-6.8v-3.8h29.9V219.4z M631.2,205.7c0-4.5,4.9-7.4,11.9-7.4
		c7,0,11.9,2.9,11.9,7.4c0,4.5-4.9,7.4-11.9,7.4C636,213.1,631.2,210.2,631.2,205.7z M636,205.7c0,2.4,2.8,3.6,7.1,3.6
		c4.3,0,7.1-1.3,7.1-3.6c0-2.3-2.8-3.6-7.1-3.6C638.8,202,636,203.3,636,205.7z"/>
	<path d="M673.3,218c4.3-0.1,9-0.5,13.9-1.4l0.5,3.9c-5.6,1.2-11.1,1.5-16.1,1.5h-2.9v-21.8h4.7V218z M694.4,197.1v33h-4.7v-33
		H694.4z"/>
	<path d="M735.3,209.9v3.7h-29.7v-3.7h21c0.1-1,0.3-1.8,0.4-2.7l-18.2,0.8l-0.5-3.6l18.9-0.4c0-0.6,0-1.3,0-1.9h-18v-3.7h22.7v2.9
		c0,2.5,0,5.3-0.6,8.6H735.3z M713.5,226.3h19.7v3.6h-24.4v-8.9h18.6v-1.8h-18.7v-3.6h23.4v8.7h-18.6V226.3z"/>
	<path d="M774.1,222.7v3.9h-29.9v-3.9h12.6v-4.9h-9.1v-11.2H766V203h-18.5v-3.8h23.1v11h-18.4v3.7h19.2v3.8h-10v4.9H774.1z"/>
	<path d="M812.7,213.2v3.8h-29.9v-3.8H812.7z M790.9,225.7h18.7v3.8h-23.4v-9.9h4.8V225.7z M809.4,209.9h-22.9v-11.5h4.7v7.7h18.2
		V209.9z"/>
	<path d="M865,212.8v3.8h-29.8v-3.8h12.5v-2.4c-5.9-0.5-9.5-2.8-9.5-6.3c0-4,4.7-6.5,11.9-6.5s12,2.4,12,6.5c0,3.5-3.7,5.8-9.7,6.3
		v2.3H865z M852.5,218.8c0,3.4,3.2,6.8,10.5,7.7l-1.8,3.6c-5.4-0.7-9.2-2.8-11.2-5.8c-2,3-5.8,5.1-11.2,5.8l-1.8-3.6
		c7.4-0.9,10.5-4.3,10.5-7.7v-0.6h4.8V218.8z M850.1,207c4.5,0,7.1-0.9,7.1-2.8c0-1.9-2.6-2.8-7.1-2.8c-4.5,0-7.1,0.9-7.1,2.8
		C843.1,206,845.6,207,850.1,207z"/>
	<path d="M874,219.7c5.8,0,13.9,0,20.9-1.1l0.3,3.4c-7.1,1.4-14.9,1.5-20.6,1.5L874,219.7z M893.6,207.5c0,4.8-3.9,8.1-9.1,8.1
		s-9.1-3.4-9.1-8.1c0-4.7,3.9-8.1,9.1-8.1S893.6,202.8,893.6,207.5z M880,207.5c0,2.6,1.9,4.1,4.5,4.1s4.5-1.5,4.5-4.1
		s-1.9-4.1-4.5-4.1S880,204.9,880,207.5z M901.4,197.1v33.1h-4.7v-33.1H901.4z"/>
	<path d="M946.6,203.8h-19.9v-3.7h7.6v-3.2h4.7v3.2h7.6L946.6,203.8z M936.6,216.7c-5,0-8.3-2.3-8.3-6s3.3-5.9,8.3-5.9
		c5,0,8.3,2.3,8.3,5.9S941.6,216.7,936.6,216.7z M931.7,218.5h22v11.3h-22V218.5z M936.6,213.3c2.3,0,3.8-0.8,3.8-2.5
		c0-1.7-1.5-2.5-3.8-2.5c-2.3,0-3.8,0.8-3.8,2.5C932.9,212.5,934.3,213.3,936.6,213.3z M936.4,226.1h12.7v-3.9h-12.7V226.1z
		 M953.7,197.2v19.9h-4.8v-19.9H953.7z"/>
	<path d="M994.7,210.5v3.7h-29.8v-3.7H994.7z M967.9,203.3c0-3.6,4.4-5.6,11.9-5.6c7.6,0,12,2,12,5.6c0,3.7-4.4,5.6-12,5.6
		C972.3,208.9,967.9,206.9,967.9,203.3z M973,226.4H992v3.6h-23.6v-8.7h18.1v-1.8h-18.2V216h22.8v8.5H973V226.4z M972.8,203.3
		c0,1.5,2.3,2.2,7,2.2c4.8,0,7.1-0.6,7.1-2.2c0-1.5-2.3-2.2-7.1-2.2C975,201.1,972.8,201.8,972.8,203.3z"/>
	<path d="M1047.2,214.2v3.7h-29.9v-3.7h12.6v-2h-8.8V198h22.7v3.6h-18v1.7h17.3v3.4h-17.3v1.8h18.3v3.6h-9.4v2H1047.2z
		 M1043.6,224.8c0,3.5-4.2,5.4-11.5,5.4c-7.2,0-11.4-1.9-11.4-5.4c0-3.6,4.2-5.4,11.4-5.4C1039.5,219.4,1043.6,221.2,1043.6,224.8z
		 M1038.9,224.8c0-1.4-2.1-1.9-6.7-1.9c-4.6,0-6.7,0.6-6.7,1.9s2.1,2,6.7,2C1036.8,226.8,1038.9,226.1,1038.9,224.8z"/>
	<path d="M1066.2,202.1h5.5v3.8h-15.8v-3.8h5.6v-4.1h4.7V202.1z M1071.1,215.2c0,4.6-3,7.9-7.2,7.9s-7.2-3.3-7.2-7.9
		c0-4.6,3-7.9,7.2-7.9S1071.1,210.6,1071.1,215.2z M1067,215.2c0-2.5-1.3-3.9-3.1-3.9s-3.1,1.5-3.1,3.9s1.3,3.9,3.1,3.9
		S1067,217.7,1067,215.2z M1084.3,197.1v33h-4.5v-15.7h-2.5v14.4h-4.4v-31h4.4v12.8h2.5v-13.5H1084.3z"/>
	<path d="M18.7,282.5c-3.6-1.2-6.1-3.6-7.5-6.5c-1.5,3.3-4.1,5.9-7.9,7.2l-2.4-3.8c5.4-1.8,7.8-6.1,7.8-10.3v-0.5H2.2v-3.8h17.8v3.8
		h-6.4v0.4c0,3.9,2.3,8,7.5,9.7L18.7,282.5z M29.4,291.4v3.8H6.9v-10.4h4.7v6.6H29.4z M23.9,271.2v-8.5h4.7v24.1h-4.7V275h-5.2v-3.8
		H23.9z"/>
	<path d="M67.3,270.9c0,5.3,1.4,10.8,5.9,13.8l-2.6,3.7c-2.8-1.7-4.6-4.5-5.6-7.9c-1.1,3.7-3.1,6.8-6.1,8.6l-2.8-3.6
		c4.8-2.9,6.6-8.9,6.6-14.5v-5.6h4.6V270.9z M73.9,263.2h4.4v31h-4.4v-16.6h-4.1v-3.8h4.1V263.2z M85.1,262.7v33h-4.5v-33H85.1z"/>
	<path d="M114.2,263.4h4.4v30.9h-4.4v-10.8h-4.6v-3.8h4.6v-4.5h-4c-1.5,5.5-4.8,10-10.9,13.7l-2.7-3.3c6.5-4,9.4-8.8,10-15.2h-8.1
		v-3.8h12.8c0,1.7-0.1,3.3-0.3,4.8h3.2V263.4z M125.5,262.6v33.1H121v-33.1H125.5z"/>
	<path d="M180.5,262.6v33.1h-4.7v-12.3H169c-1.5,3.2-4,5.1-7.2,5.1c-4.9,0-8.5-4.6-8.5-11.8c0-7.2,3.6-11.8,8.5-11.8
		c3,0,5.5,1.6,6.9,4.4h7v-6.8H180.5z M165.9,276.7c0-4.9-1.7-7.5-4.1-7.5c-2.4,0-4.1,2.6-4.1,7.5c0,4.9,1.7,7.5,4.1,7.5
		C164.3,284.3,165.9,281.6,165.9,276.7z M175.8,279.7v-6.5H170c0.2,1.1,0.3,2.3,0.3,3.5c0,1-0.1,2-0.2,2.9H175.8z"/>
	<path d="M210.5,281c-3.5-1.2-5.8-3.4-7.2-6.4c-1.5,3.4-4.1,6-8,7.4l-2.5-3.8c5.6-1.8,8-6.3,8-10.8v-2.9h4.8v2.7
		c0,4.4,2.2,8.5,7.4,10.2L210.5,281z M220.8,289.3c0,4-4.3,6.4-11.3,6.4c-7,0-11.3-2.4-11.3-6.4c0-4.1,4.3-6.5,11.3-6.5
		C216.5,282.9,220.8,285.2,220.8,289.3z M216.1,289.3c0-1.9-2.3-2.8-6.6-2.8c-4.3,0-6.6,0.9-6.6,2.8c0,1.9,2.3,2.8,6.6,2.8
		C213.8,292.1,216.1,291.2,216.1,289.3z M216,272.5h-6v-3.8h6v-6h4.7V282H216V272.5z"/>
	<path d="M263.3,275.5v3.7h-29.9v-3.7H263.3z M241.5,291.8h18.9v3.6h-23.6v-8.9h18.1v-1.9h-18.2v-3.6h22.8v8.8h-18.1V291.8z
		 M259.7,273.7h-22.6v-10.4h22.4v3.8h-17.7v2.9h17.9V273.7z"/>
	<path d="M303.5,276v3.7h-29.8V276H303.5z M276.6,268.8c0-3.6,4.4-5.6,11.9-5.6c7.6,0,12,2,12,5.6c0,3.7-4.4,5.6-12,5.6
		C281,274.4,276.6,272.4,276.6,268.8z M281.8,291.9h18.9v3.6h-23.6v-8.7h18.1V285h-18.2v-3.5h22.8v8.5h-18.1V291.9z M281.5,268.8
		c0,1.5,2.3,2.2,7,2.2c4.8,0,7.1-0.6,7.1-2.2c0-1.5-2.3-2.2-7.1-2.2C283.8,266.6,281.5,267.3,281.5,268.8z"/>
	<path d="M350.7,282.4c-2.7,0.5-5.4,0.9-8.1,1.1v11.2h-4.7v-10.9c-2.8,0.1-5.5,0.1-7.9,0.1l-0.5-3.9c5.8,0,14-0.1,20.9-1.1
		L350.7,282.4z M331.4,271.1c0-4.2,3.7-7.1,8.7-7.1s8.6,2.9,8.6,7.1c0,4.1-3.7,7-8.6,7S331.4,275.1,331.4,271.1z M336,271.1
		c0,2,1.7,3.2,4.1,3.2c2.4,0,4.1-1.1,4.1-3.2c0-2.1-1.7-3.2-4.1-3.2C337.7,267.8,336,269,336,271.1z M357,262.7v33h-4.7v-33H357z"/>
	<path d="M389.1,269.8h-19.4v-3.7h7.3v-3.5h4.8v3.5h7.4L389.1,269.8z M379.4,283.8c-4.7,0-8.1-2.6-8.1-6.4c0-3.7,3.4-6.3,8.1-6.3
		s8.1,2.6,8.1,6.3C387.5,281.2,384.1,283.8,379.4,283.8z M379.1,291.4h17.8v3.8h-22.5v-9.6h4.7V291.4z M379.4,280.2
		c2.1,0,3.6-1,3.6-2.8c0-1.8-1.5-2.8-3.6-2.8c-2.1,0-3.6,1-3.6,2.8C375.8,279.2,377.3,280.2,379.4,280.2z M400,272.7v3.9h-4.4v10.7
		h-4.7v-24.7h4.7v10.1H400z"/>
	<path d="M431.4,283.9c4.7-0.1,8.6-0.3,12.9-1l0.5,3.9c-5,0.9-9.5,1.1-15.2,1.1h-2.8v-22.1h15.4v3.8h-10.7V283.9z M456.1,278.8h-4.8
		v17h-4.7v-33.1h4.7v12.2h4.8V278.8z"/>
	<path d="M474.9,280.5c-5.1,0-9-3.4-9-8c0-4.7,3.9-8,9-8c5.1,0,8.9,3.3,8.9,8C483.8,277.1,480,280.5,474.9,280.5z M492,289.2
		c0,4.1-4.3,6.6-11.2,6.6c-6.9,0-11.2-2.4-11.2-6.6c0-4.1,4.3-6.5,11.2-6.5C487.7,282.6,492,285.1,492,289.2z M474.9,276.5
		c2.5,0,4.3-1.5,4.3-4c0-2.5-1.9-4.1-4.3-4.1c-2.5,0-4.3,1.5-4.3,4.1C470.6,275,472.4,276.5,474.9,276.5z M487.3,289.2
		c0-1.9-2.3-2.8-6.5-2.8c-4.2,0-6.5,0.9-6.5,2.8c0,1.9,2.3,2.8,6.5,2.8C485.1,292,487.3,291.1,487.3,289.2z M491.7,270.6v3.3h4.2
		v3.9h-4.2v4.2h-4.7v-19.3h4.7v4.1h4.2v3.9H491.7z"/>
	<path d="M525.4,269.8H506v-3.7h7.3v-3.5h4.8v3.5h7.4L525.4,269.8z M515.7,283.8c-4.7,0-8.1-2.6-8.1-6.4c0-3.7,3.4-6.3,8.1-6.3
		s8.1,2.6,8.1,6.3C523.8,281.2,520.4,283.8,515.7,283.8z M515.4,291.4h17.8v3.8h-22.5v-9.6h4.7V291.4z M515.7,280.2
		c2.1,0,3.6-1,3.6-2.8c0-1.8-1.5-2.8-3.6-2.8c-2.1,0-3.6,1-3.6,2.8C512.1,279.2,513.6,280.2,515.7,280.2z M536.4,272.7v3.9H532v10.7
		h-4.7v-24.7h4.7v10.1H536.4z"/>
	<path d="M574.5,271.6c0,5.4,2.7,11.1,8.2,13.4l-2.6,3.7c-3.8-1.7-6.5-4.9-7.9-8.9c-1.5,4.3-4.1,7.9-8,9.7l-2.7-3.8
		c5.5-2.5,8.2-8.5,8.2-14.2v-1.8h-6.9v-3.9h18.5v3.9h-6.8V271.6z M589.1,262.7v33h-4.7v-33H589.1z"/>
	<path d="M630.5,291.4v3.8H606v-9.8h4.6v-4.4c-2.9,0.1-5.7,0.2-8.1,0.2l-0.6-3.8c6,0,14.1-0.1,21-1l0.3,3.4
		c-2.6,0.5-5.2,0.8-7.9,0.9v6.2h-4.6v4.5H630.5z M604.2,269.7c0-3.5,3.4-5.9,8.3-5.9c4.8,0,8.2,2.4,8.2,5.9s-3.4,5.9-8.2,5.9
		C607.6,275.6,604.2,273.2,604.2,269.7z M608.7,269.7c0,1.6,1.5,2.4,3.8,2.4c2.2,0,3.7-0.8,3.7-2.4s-1.5-2.5-3.7-2.5
		C610.3,267.2,608.7,268.1,608.7,269.7z M625,281.9v-19.2h4.7v25H625v-2.6h-6.2v-3.2H625z"/>
	<path d="M672.1,276v3.7h-29.8V276H672.1z M645.3,268.8c0-3.6,4.4-5.6,11.9-5.6c7.6,0,12,2,12,5.6c0,3.7-4.4,5.6-12,5.6
		C649.7,274.4,645.3,272.4,645.3,268.8z M650.4,291.9h18.9v3.6h-23.6v-8.7h18.1V285h-18.2v-3.5h22.8v8.5h-18.1V291.9z M650.2,268.8
		c0,1.5,2.3,2.2,7,2.2c4.8,0,7.1-0.6,7.1-2.2c0-1.5-2.3-2.2-7.1-2.2C652.4,266.6,650.2,267.3,650.2,268.8z"/>
	<path d="M715.1,263.4h4.4v30.9h-4.4v-10.8h-4.6v-3.8h4.6v-4.5h-4c-1.5,5.5-4.8,10-10.9,13.7l-2.7-3.3c6.5-4,9.4-8.8,10-15.2h-8.1
		v-3.8h12.8c0,1.7-0.1,3.3-0.3,4.8h3.2V263.4z M726.4,262.6v33.1h-4.5v-33.1H726.4z"/>
	<path d="M768.2,278.7v3.8h-29.9v-3.8h12.5v-4.3h4.7v4.3H768.2z M764.8,276.3c-5.6-0.8-9.6-3.1-11.7-6.4c-2.1,3.3-6.1,5.6-11.6,6.4
		l-1.8-3.7c7.4-0.9,11-4.7,11-8.4v-1h4.8v1c0,3.8,3.5,7.5,10.9,8.4L764.8,276.3z M741.6,284.8h23v11h-4.7v-7.2h-18.2V284.8z"/>
	<path d="M788.8,267.6h5.5v3.8h-15.8v-3.8h5.6v-4.1h4.7V267.6z M793.8,280.7c0,4.6-3,7.9-7.2,7.9s-7.2-3.3-7.2-7.9
		c0-4.6,3-7.9,7.2-7.9S793.8,276.1,793.8,280.7z M789.6,280.7c0-2.5-1.3-3.9-3.1-3.9s-3.1,1.5-3.1,3.9s1.3,3.9,3.1,3.9
		S789.6,283.2,789.6,280.7z M806.9,262.6v33h-4.5v-15.7h-2.5v14.4h-4.4v-31h4.4v12.8h2.5v-13.5H806.9z"/>
	<path d="M840,283.6c4.2-0.1,8.6-0.5,13.3-1.4l0.5,3.9c-5.5,1.1-10.8,1.4-15.6,1.4h-2.9v-21.8h4.7V283.6z M864.8,279h-4.6v16.6h-4.7
		v-33h4.7v12.5h4.6V279z"/>
	<path d="M891.7,266c0,9.9-3.8,18.4-14.7,24l-2.7-3.6c7.7-3.9,11.8-9.2,12.6-16.5h-10.8V266H891.7z M905.1,279.2h-4.6v16.5h-4.7v-33
		h4.7v12.6h4.6V279.2z"/>
	<path d="M914.9,279c6-2.4,8.9-5.7,9.5-10.3h-7.8v-3.8h12.8c0,2.3-0.3,4.4-0.9,6.3h3.3v-8h4.4V281h-4.4v-6h-5.1
		c-1.9,3.1-5.1,5.5-9.5,7.4L914.9,279z M939.2,283.9c0,3.4,1.8,6.7,6.2,8l-2.3,3.5c-3.1-1.1-5.1-3.1-6.2-5.6c-1.1,2.5-3,4.7-6,5.9
		c-3-1.1-4.9-3.3-6-5.8c-1.1,2.5-3.1,4.4-6.1,5.5l-2.3-3.5c4.3-1.5,6.1-4.8,6.1-8v-1.4h4.6v1.4c0,2.7,1,5.4,3.7,7.2
		c2.7-1.9,3.8-4.8,3.8-7.2v-1.4h4.7V283.9z M943,281.5h-4.5v-18.8h4.5V281.5z"/>
	<path d="M985,277.1v3.7h-29.8v-3.7H985z M981.9,275.6c-5.6-0.7-9.7-3-11.8-6.2c-2.1,3.2-6.2,5.5-11.8,6.2l-1.6-3.7
		c7.4-0.9,11-4.5,11-7.9v-1h4.9v1c0,3.3,3.6,7.1,11,7.9L981.9,275.6z M976.6,282.5h4.7v12.8h-22.6v-12.8h4.7v2.8h13.2V282.5z
		 M976.6,288.8h-13.2v2.9h13.2V288.8z"/>
	<path d="M1001.9,283.5c4.3-0.1,9-0.5,13.9-1.4l0.5,3.9c-5.6,1.2-11.1,1.5-16.1,1.5h-2.9v-21.8h4.7V283.5z M1023.1,262.6v33h-4.7
		v-33H1023.1z"/>
	<path d="M1041.7,283.9c4.7-0.1,8.6-0.3,12.9-1l0.5,3.9c-5,0.9-9.5,1.1-15.2,1.1h-2.8v-22.1h15.4v3.8h-10.7V283.9z M1066.4,278.8
		h-4.8v17h-4.7v-33.1h4.7v12.2h4.8V278.8z"/>
	<path d="M1077.1,289.7c0-1.9,1.4-3.4,3.3-3.4c1.9,0,3.3,1.5,3.3,3.4c0,1.9-1.4,3.4-3.3,3.4C1078.5,293.1,1077.1,291.6,1077.1,289.7
		z"/>
</g>
</svg>
