<?xml version="1.0" encoding="utf-8"?>
<!-- Generator: Adobe Illustrator 21.0.0, SVG Export Plug-In . SVG Version: 6.00 Build 0)  -->
<svg version="1.1" id="레이어_2" xmlns="http://www.w3.org/2000/svg" xmlns:xlink="http://www.w3.org/1999/xlink" x="0px"
	 y="0px" viewBox="0 0 665.9 314.9" style="enable-background:new 0 0 665.9 314.9;" xml:space="preserve">
<g>
	<path d="M23.8,20.4v3h-23v-3h9.7v-5.2H3.2V2.8h18.1v12.5h-7.2v5.2H23.8z M6.8,12.4h10.9V5.7H6.8V12.4z"/>
	<path d="M55.9,13.5v2.9h-23v-2.9H55.9z M39.2,23h14.3v2.9H35.6v-7.6h3.6V23z M53.3,11.4H35.7V1.9h17.5v2.9H39.3v3.8h14V11.4z"/>
	<path d="M99.2,0.9v25.5h-3.6V17h-5.2c-1.1,2.5-3.1,3.9-5.5,3.9c-3.8,0-6.6-3.5-6.6-9.1c0-5.6,2.8-9,6.6-9c2.3,0,4.2,1.2,5.3,3.4
		h5.4V0.9H99.2z M88,11.8C88,8,86.7,6,84.8,6c-1.8,0-3.1,2-3.1,5.8c0,3.8,1.3,5.8,3.1,5.8C86.7,17.6,88,15.5,88,11.8z M95.6,14v-5
		h-4.4c0.2,0.8,0.2,1.7,0.2,2.7c0,0.8-0.1,1.6-0.2,2.3H95.6z"/>
	<path d="M123.3,15c-2.7-0.9-4.5-2.6-5.5-4.9c-1.1,2.6-3.1,4.6-6.1,5.7l-1.9-2.9c4.3-1.4,6.1-4.8,6.1-8.3V2.3h3.7v2.1
		c0,3.4,1.7,6.5,5.7,7.8L123.3,15z M131.3,21.4c0,3.1-3.3,4.9-8.7,4.9c-5.4,0-8.7-1.8-8.7-4.9c0-3.1,3.3-5,8.7-5
		C128,16.5,131.3,18.3,131.3,21.4z M127.7,21.4c0-1.5-1.7-2.2-5-2.2c-3.3,0-5.1,0.7-5.1,2.2c0,1.4,1.7,2.1,5.1,2.1
		C125.9,23.6,127.7,22.9,127.7,21.4z M127.6,8.5h-4.6v-3h4.6V1h3.6v14.9h-3.6V8.5z"/>
	<path d="M165,10.8v2.9h-23v-2.9H165z M148.3,23.3h14.6v2.8h-18.2v-6.9h13.9v-1.4h-14v-2.7h17.5v6.7h-13.9V23.3z M162.3,9.4h-17.4
		v-8h17.2v2.9h-13.6v2.2h13.8V9.4z"/>
	<path d="M197.1,13.9v2.9h-22.9v-2.9H197.1z M176.4,6.9c0-3.2,3.7-5.2,9.2-5.2c5.5,0,9.2,2,9.2,5.2s-3.7,5.2-9.2,5.2
		C180.1,12.2,176.4,10.2,176.4,6.9z M180.5,23h14v2.9h-17.6v-7.4h3.6V23z M180.2,6.9c0,1.6,2,2.3,5.4,2.3c3.4,0,5.5-0.8,5.5-2.3
		c0-1.5-2-2.4-5.5-2.4C182.2,4.6,180.2,5.4,180.2,6.9z"/>
	<path d="M228.5,7.8c0,3.9,2,8.4,6.2,10.3l-2,2.9c-2.8-1.3-4.8-3.8-5.9-6.8c-1.1,3.3-3.2,6.1-6.1,7.5l-2-2.9
		c4.2-1.9,6.2-6.7,6.2-10.9V6.4h-5.3v-3h14v3h-5V7.8z M242.7,13.6H239v12.7h-3.6V1h3.6v9.7h3.7V13.6z"/>
	<path d="M274.2,18h-5.3v8.3h-3.7V18h-5.1v8.3h-3.7V18h-5.2v-3h23V18z M253.5,7.5c0-3.4,3.7-5.7,9.2-5.7c5.4,0,9.2,2.2,9.2,5.7
		c0,3.5-3.8,5.7-9.2,5.7C257.2,13.2,253.5,11,253.5,7.5z M257.2,7.5c0,1.8,2.1,2.8,5.5,2.8c3.3,0,5.4-1,5.4-2.8
		c0-1.8-2.1-2.8-5.4-2.8C259.3,4.7,257.2,5.7,257.2,7.5z"/>
	<path d="M306.3,13.6v2.9h-23v-2.9h9.7v-1.5h-6.8V5.4h13.7V4.1h-13.8V1.3h17.4v6.6h-13.7v1.4H304v2.8h-7.4v1.5H306.3z M300,17.4h3.6
		v8.7h-17.4v-8.7h3.6V19H300V17.4z M300,21.6h-10.2v1.6H300V21.6z"/>
	<path d="M328.4,1.5h3.4v23.7h-3.4V13.6h-4c-1.4,2.9-3.7,5.4-7.3,7.5l-2.1-2.6c5.1-3,7.3-6.7,7.7-11.7h-6.3V4h10
		c0,2.4-0.2,4.6-0.8,6.7h2.8V1.5z M337.2,0.9v25.4h-3.4V0.9H337.2z"/>
	<path d="M373.7,13.5v3.3h6.8V26h-17.3v-9.3h6.8v-3.3h-9.6v-2.9h6c0.7-2.3,0.9-4.2,0.9-5.6h-4.8V2h8.4v1.5c0,1.7,0,4-0.8,7.1h6.4
		c0.6-2.3,0.7-4.1,0.7-5.6h-4.9V2h8.4v1.6c0,1.8,0,4-0.7,6.9h3.3v2.9H373.7z M376.9,19.6h-10.1v3.6h10.1V19.6z"/>
	<path d="M415.4,15.7h-9.8v10.6H402V15.7h-9.5v-3h5.5c0.9-3.2,1-5.5,1-7.4h-4.8V2.5h8.3v1.6c0,2,0,4.8-0.9,8.7h6.9
		c0.7-3.1,0.8-5.5,0.8-7.4h-5V2.5h8.6v1.8c0,2.1,0,4.8-0.7,8.5h3.2V15.7z"/>
	<path d="M445.9,1v25.4h-3.6v-10h-4.7v3.7h-12.1v-17h12.1v3.5h4.7V1H445.9z M434,6h-4.9v11.3h4.9V6z M442.2,13.6V9.6h-4.7v3.9H442.2
		z"/>
	<path d="M491.4,0.9v25.4h-3.4V13.7h-2v11.4h-3.4v-7.5l-2.1,2.8c-2.2-1.2-3.6-3.3-4.4-5.7c-0.9,2.8-2.4,5.1-4.6,6.5l-2.3-2.7
		c3.8-2.3,5.2-6.8,5.2-11.1V3.2h3.5v4c0,4.4,1.2,8.5,4.7,10.5V1.4h3.4v9.5h2V0.9H491.4z"/>
	<path d="M524.7,20.6v3h-23v-3h9.7v-3.8h-7V8.2h14.2V5.5h-14.2V2.6h17.8V11h-14.1v2.8h14.7v2.9H515v3.8H524.7z"/>
	<path d="M556.7,13.3v2.9h-9.4v4.4h-3.7v-4.4h-9.8v-2.9H556.7z M536.1,6.7c0-3.2,3.7-5.3,9.1-5.3c5.5,0,9.1,2.1,9.1,5.3
		c0,3.2-3.6,5.3-9.1,5.3C539.8,12,536.1,9.9,536.1,6.7z M540.1,23h14.1v2.9h-17.8v-7.6h3.7V23z M540,6.7c0,1.6,2,2.4,5.2,2.4
		c3.2,0,5.2-0.8,5.2-2.4s-2-2.4-5.2-2.4C542.1,4.3,540,5.1,540,6.7z"/>
	<path d="M583.4,17c2-0.1,4.2-0.2,6.6-0.7l0.3,3.1c-3.3,0.6-6.2,0.7-8.8,0.7h-1.8V3.8h3.6V17z M600.5,0.9v25.4h-3.5V13.7h-2.3v11.5
		h-3.4V1.4h3.4v9.3h2.3V0.9H600.5z"/>
	<path d="M618,13.3c-3.9,0-6.8-2.4-6.8-5.8c0-3.4,2.9-5.8,6.8-5.8c3.9,0,6.8,2.4,6.8,5.8C624.8,10.9,621.9,13.3,618,13.3z M618,10.4
		c1.9,0,3.2-1,3.2-2.9c0-1.8-1.4-2.9-3.2-2.9s-3.3,1.1-3.3,2.9C614.8,9.3,616.2,10.4,618,10.4z M632.6,23.2v2.8h-17.5v-7h13.3v-1.5
		H615v-2.8H632v6.9h-13.3v1.6H632.6z M632,13.7h-3.7V1h3.7V13.7z"/>
	<path d="M665.9,11.2V14h-22.9v-2.8H665.9z M645.2,5.6c0-2.8,3.4-4.3,9.2-4.3c5.8,0,9.2,1.5,9.2,4.3c0,2.8-3.4,4.3-9.2,4.3
		C648.6,10,645.2,8.5,645.2,5.6z M649.2,23.4h14.6v2.7h-18.2v-6.7h13.9v-1.4h-14v-2.7h17.5V22h-13.9V23.4z M649,5.6
		c0,1.2,1.7,1.7,5.4,1.7c3.7,0,5.4-0.5,5.4-1.7c0-1.1-1.7-1.7-5.4-1.7C650.7,4,649,4.5,649,5.6z"/>
	<path d="M13.6,63.3H1.5V51.1h12.1V63.3z M8,71h13.6v2.9H4.4v-8.2H8V71z M10.1,53.9h-5v6.5h5V53.9z M24.1,56.3v3h-3.4v8.2h-3.6V49
		h3.6v7.3H24.1z"/>
	<path d="M56.8,58.8v2.9h-23v-2.9H56.8z M40.1,71.4h14.6v2.8H36.5v-6.9h13.9v-1.4h-14v-2.7H54v6.7H40.1V71.4z M54.1,57.5H36.7v-8
		h17.2v2.9H40.3v2.2h13.8V57.5z"/>
	<path d="M88.2,48.9v25.5h-3.6V61h-4.2c-0.4,4.9-3,7.8-6.5,7.8c-3.8,0-6.6-3.5-6.6-9.1c0-5.6,2.8-9,6.6-9c3.4,0,6,2.8,6.5,7.4h4.2
		v-9.2H88.2z M76.9,59.8c0-3.7-1.2-5.8-3.1-5.8c-1.8,0-3.1,2-3.1,5.8c0,3.8,1.2,5.8,3.1,5.8C75.7,65.6,76.9,63.5,76.9,59.8z"/>
	<path d="M126.9,49.9c0,6.8-4.3,10.9-11.9,12.4l-1.3-3c5.9-1.1,8.8-3.6,9.2-6.6h-7.9v-2.9H126.9z M120.7,71.2h13.8v2.9h-17.5v-7.2
		h13.2v-1.5h-13.2v-2.9h16.8v7h-13.1V71.2z M137.2,54v3h-3.4v4.6h-3.6V48.9h3.6V54H137.2z"/>
	<path d="M183.8,65.7H174v8.7h-3.6v-8.7h-9.6v-3h22.9V65.7z M181.6,60.9c-4.4-0.7-7.6-2.7-9.2-5.5c-1.6,2.7-4.8,4.8-9.3,5.5
		l-1.4-2.9c5.8-0.8,8.7-4.1,8.7-7.1v-1.2h3.9v1.2c0,3,2.9,6.3,8.7,7.1L181.6,60.9z"/>
	<path d="M208.1,56.4c0-3.6,3-6.1,6.9-6.1c4,0,6.9,2.5,6.9,6.1c0,3.6-3,6.1-6.9,6.1C211.1,62.4,208.1,59.9,208.1,56.4z M226.3,65.2
		c0,2.6,1.4,5.1,4.7,6.1l-1.8,2.6c-2.4-0.8-3.9-2.3-4.8-4.2c-0.8,1.9-2.3,3.6-4.6,4.5c-2.3-0.9-3.8-2.5-4.6-4.4
		c-0.9,1.8-2.4,3.3-4.7,4.2l-1.8-2.6c3.4-1.1,4.7-3.6,4.7-6.1v-0.9h3.5v0.9c0,2,0.8,4.1,2.8,5.5c2-1.5,2.9-3.6,2.9-5.5v-0.9h3.6
		V65.2z M211.7,56.4c0,1.9,1.4,3.1,3.3,3.1c1.9,0,3.4-1.2,3.4-3.1c0-1.9-1.4-3.1-3.4-3.1C213.1,53.3,211.7,54.4,211.7,56.4z
		 M228.9,63.3h-3.7V49h3.7V63.3z"/>
	<path d="M262.1,48.9v25.5h-3.6V61h-4.2c-0.4,4.9-3,7.8-6.5,7.8c-3.8,0-6.6-3.5-6.6-9.1c0-5.6,2.8-9,6.6-9c3.4,0,6,2.8,6.5,7.4h4.2
		v-9.2H262.1z M250.9,59.8c0-3.7-1.2-5.8-3.1-5.8c-1.8,0-3.1,2-3.1,5.8c0,3.8,1.2,5.8,3.1,5.8C249.6,65.6,250.9,63.5,250.9,59.8z"/>
	<path d="M287.3,59.8c0,5.6-2.8,9.1-6.7,9.1c-3.9,0-6.7-3.5-6.7-9.1c0-5.6,2.8-9,6.7-9C284.5,50.7,287.3,54.2,287.3,59.8z
		 M283.8,59.8c0-3.7-1.3-5.8-3.2-5.8c-1.9,0-3.2,2-3.2,5.8c0,3.8,1.3,5.8,3.2,5.8C282.5,65.6,283.8,63.5,283.8,59.8z M293.7,57.9
		v4.4h3.5v3h-3.5v9.1h-3.6V49h3.6v5.9h3.5v3H293.7z"/>
	<path d="M335.8,54h-15v-2.8h5.7v-2.4h3.7v2.4h5.7L335.8,54z M328.3,63.7c-3.7,0-6.2-1.8-6.2-4.5c0-2.7,2.6-4.5,6.2-4.5
		c3.7,0,6.2,1.8,6.2,4.5C334.5,61.9,332,63.7,328.3,63.7z M337.2,64.8h3.6v9.3h-16.5v-9.3h3.6v1.9h9.3V64.8z M328.3,61.1
		c1.6,0,2.8-0.6,2.8-1.8s-1.1-1.8-2.8-1.8c-1.6,0-2.8,0.6-2.8,1.8S326.7,61.1,328.3,61.1z M337.2,69.5h-9.3v1.8h9.3V69.5z M344.2,58
		h-3.4v5.8h-3.6V49h3.6v6.1h3.4V58z"/>
	<path d="M358.8,65c3.3-0.1,6.9-0.4,10.7-1.1l0.4,3c-4.3,0.9-8.5,1.2-12.4,1.2h-2.3V51.4h3.6V65z M375.1,48.9v25.4h-3.6V48.9H375.1z
		"/>
	<path d="M391.5,65.3c3.6-0.1,6.6-0.2,9.9-0.8l0.4,3c-3.8,0.7-7.3,0.8-11.7,0.8h-2.2v-17h11.9v3h-8.2V65.3z M410.5,61.3h-3.7v13.1
		h-3.6V49h3.6v9.4h3.7V61.3z"/>
	<path d="M420.7,69.7c0-1.5,1.1-2.6,2.5-2.6c1.5,0,2.5,1.2,2.5,2.6c0,1.5-1.1,2.6-2.5,2.6C421.8,72.4,420.7,71.2,420.7,69.7z"/>
	<path d="M473.5,66.1h-9.8v8.3h-3.6v-8.3h-9.6v-2.9h23V66.1z M452.8,55.5c0-3.4,3.8-5.7,9.2-5.7c5.4,0,9.2,2.3,9.2,5.7
		c0,3.5-3.8,5.7-9.2,5.7C456.5,61.3,452.8,59,452.8,55.5z M456.5,55.5c0,1.8,2.1,2.8,5.5,2.8c3.3,0,5.4-1,5.4-2.8
		c0-1.8-2.1-2.8-5.4-2.8C458.6,52.7,456.5,53.7,456.5,55.5z"/>
	<path d="M488.6,65.5c3.9,0,7.1-0.2,10.6-0.8l0.4,3c-4.1,0.7-7.9,0.9-12.5,0.9h-2.3V58.1h8.2V54h-8.3v-2.9h12v9.8h-8.2V65.5z
		 M504.7,48.9v25.5H501V48.9H504.7z"/>
	<path d="M539.6,61.3v2.9h-23v-2.9H539.6z M522.8,70.9h14.3v2.9h-18v-7.6h3.7V70.9z M537,58.7h-17.6v-8.9h3.6v6h14V58.7z"/>
	<path d="M577.1,64.2c-2.8-0.9-4.7-2.7-5.8-5c-1.1,2.5-3.1,4.5-6.1,5.5l-1.8-2.9c4.2-1.4,6-4.7,6-7.9v-0.4h-5v-2.9H578v2.9h-4.9v0.3
		c0,3,1.7,6.1,5.7,7.5L577.1,64.2z M585.3,71v2.9H568v-8h3.6V71H585.3z M581.1,55.5V49h3.6v18.5h-3.6v-9h-4v-3H581.1z"/>
	<path d="M618.6,55.3c0,4.1,1.1,8.3,4.5,10.6l-2,2.8c-2.2-1.3-3.5-3.5-4.3-6c-0.9,2.8-2.4,5.2-4.7,6.6l-2.2-2.7
		c3.7-2.3,5.1-6.8,5.1-11.1v-4.3h3.5V55.3z M623.7,49.4h3.4v23.9h-3.4V60.5h-3.2v-3h3.2V49.4z M632.3,49v25.4h-3.4V49H632.3z"/>
	<path d="M656.7,49.5h3.4v23.7h-3.4v-8.3h-3.5V62h3.5v-3.4h-3.1c-1.1,4.2-3.7,7.7-8.4,10.5l-2.1-2.5c5-3.1,7.2-6.7,7.7-11.7h-6.3V52
		h9.9c0,1.3-0.1,2.5-0.2,3.7h2.5V49.5z M665.4,48.9v25.4h-3.4V48.9H665.4z"/>
	<path d="M22.1,96.9v25.5h-3.6V113h-5.2c-1.1,2.5-3.1,3.9-5.5,3.9c-3.8,0-6.6-3.5-6.6-9.1c0-5.6,2.8-9,6.6-9c2.3,0,4.2,1.2,5.3,3.4
		h5.4v-5.2H22.1z M10.9,107.8c0-3.7-1.3-5.8-3.1-5.8c-1.8,0-3.1,2-3.1,5.8c0,3.8,1.3,5.8,3.1,5.8C9.6,113.6,10.9,111.6,10.9,107.8z
		 M18.5,110v-5H14c0.2,0.8,0.2,1.7,0.2,2.7c0,0.8-0.1,1.6-0.2,2.3H18.5z"/>
	<path d="M46.8,111.1c-2.7-0.9-4.5-2.6-5.5-4.9c-1.1,2.6-3.1,4.6-6.1,5.7l-1.9-2.9c4.3-1.4,6.1-4.8,6.1-8.3v-2.3H43v2.1
		c0,3.4,1.7,6.5,5.7,7.8L46.8,111.1z M54.8,117.5c0,3.1-3.3,4.9-8.7,4.9c-5.4,0-8.7-1.8-8.7-4.9c0-3.1,3.3-5,8.7-5
		C51.5,112.5,54.8,114.3,54.8,117.5z M51.1,117.5c0-1.5-1.7-2.2-5-2.2c-3.3,0-5.1,0.7-5.1,2.2c0,1.4,1.7,2.1,5.1,2.1
		C49.4,119.6,51.1,118.9,51.1,117.5z M51,104.6h-4.6v-3H51V97h3.6v14.9H51V104.6z"/>
	<path d="M89.1,106.8v2.9h-23v-2.9H89.1z M72.4,119.4h14.6v2.8H68.7v-6.9h13.9v-1.4h-14v-2.7h17.5v6.7H72.4V119.4z M86.4,105.5H69
		v-8h17.2v2.9H72.6v2.2h13.8V105.5z"/>
	<path d="M112.8,107.8c0,5.6-2.8,9.1-6.7,9.1s-6.7-3.5-6.7-9.1c0-5.6,2.8-9,6.7-9S112.8,102.2,112.8,107.8z M103,107.8
		c0,3.8,1.3,5.8,3.2,5.8s3.2-2,3.2-5.8c0-3.7-1.3-5.8-3.2-5.8S103,104,103,107.8z M119.8,96.9v25.5h-3.6V96.9H119.8z"/>
	<path d="M167.9,116.1v3h-23v-3H167.9z M161.5,102.2h-14.1v-2.9h17.8v3c0,3.6,0,7-0.9,12.2l-3.6-0.3c0.9-4.9,0.9-8.5,0.9-11.9V102.2
		z"/>
	<path d="M200.6,106.8v2.9h-23v-2.9H200.6z M183.9,119.4h14.6v2.8h-18.2v-6.9h13.9v-1.4h-14v-2.7h17.5v6.7h-13.9V119.4z
		 M197.9,105.5h-17.4v-8h17.2v2.9h-13.6v2.2h13.8V105.5z"/>
	<path d="M210.4,114.3c4.5,0,10.7,0,16-0.8l0.2,2.6c-5.5,1.1-11.4,1.2-15.8,1.2L210.4,114.3z M225.4,104.9c0,3.7-3,6.3-7,6.3
		c-4,0-7-2.6-7-6.3c0-3.6,3-6.3,7-6.3C222.4,98.7,225.4,101.3,225.4,104.9z M215,104.9c0,2,1.5,3.1,3.4,3.1s3.4-1.2,3.4-3.1
		c0-2-1.5-3.1-3.4-3.1S215,102.9,215,104.9z M231.4,96.9v25.5h-3.6V96.9H231.4z"/>
	<path d="M270.4,112.2c-2.8-0.9-4.7-2.7-5.9-5c-1.1,2.5-3.2,4.4-6.1,5.4l-1.8-2.8c4.2-1.3,6.1-4.7,6.1-7.8v-0.3h-5.1v-2.9h13.8v2.9
		h-5v0.3c0,3,1.8,6.1,6,7.4L270.4,112.2z M278.2,119v2.9h-17.5v-8.2h3.6v5.3H278.2z M277.5,115.3h-3.7V97h3.7V115.3z"/>
	<path d="M302.6,111.4c-2.8-0.9-4.7-2.7-5.8-4.9c-1.1,2.6-3.1,4.6-6.1,5.6l-1.8-2.9c4-1.4,5.9-4.6,6-7.8h-5v-2.9h13.6v2.9h-4.9
		c0.1,2.9,1.9,5.9,5.7,7.1L302.6,111.4z M310.4,117.5c0,3.1-3.3,4.9-8.7,4.9c-5.4,0-8.7-1.8-8.7-4.9c0-3.1,3.3-4.9,8.7-4.9
		C307.1,112.6,310.4,114.4,310.4,117.5z M306.8,117.5c0-1.4-1.7-2.1-5-2.1c-3.3,0-5.1,0.7-5.1,2.1c0,1.4,1.7,2.1,5.1,2.1
		C305.1,119.6,306.8,118.9,306.8,117.5z M306.7,103.1V97h3.6v15.1h-3.6v-6h-3.8v-3H306.7z"/>
	<path d="M336.7,102.5h-14.9v-2.8h5.6v-2.7h3.7v2.7h5.7L336.7,102.5z M329.2,113.2c-3.6,0-6.2-2-6.2-4.9c0-2.9,2.6-4.9,6.2-4.9
		s6.2,2,6.2,4.9C335.5,111.2,332.9,113.2,329.2,113.2z M329,119h13.6v2.9h-17.3v-7.4h3.6V119z M329.2,110.4c1.6,0,2.8-0.7,2.8-2.2
		c0-1.4-1.2-2.1-2.8-2.1c-1.6,0-2.8,0.7-2.8,2.1C326.5,109.7,327.6,110.4,329.2,110.4z M345.1,104.7v3h-3.4v8.2h-3.6V97h3.6v7.7
		H345.1z"/>
	<path d="M381.1,99.6c0,7.6-2.9,14.1-11.3,18.4l-2-2.8c5.9-3,9-7.1,9.7-12.7h-8.3v-3H381.1z M391.4,109.7h-3.6v12.7h-3.6V96.9h3.6
		v9.7h3.6V109.7z"/>
	<path d="M410.5,104.9c0,3.7,2,7.8,6.2,9.6l-1.9,2.8c-2.9-1.2-4.9-3.6-6-6.5c-1.1,3.1-3.2,5.7-6.1,6.9l-2-2.8
		c4.2-1.9,6.1-6.2,6.1-10V104h-5.3v-2.9h5.3v-3.5h3.6v3.5h5.2v2.9h-5.2V104.9z M421.7,97v25.4H418V97H421.7z"/>
	<path d="M456.3,108.4v2.6h-23v-2.6H456.3z M439.5,119.7h14.7v2.5h-18.3V116h14v-1.3h-14.1v-2.5h17.7v6h-14V119.7z M449.9,99.9
		h-13.8v-2.5h17.4v6h-13.7v1.3h14.2v2.5h-17.8v-6.1h13.7V99.9z"/>
	<path d="M502.4,116.4v2.9h-23v-2.9h9.6v-5.7h3.6v5.7H502.4z M500.2,111.6c-4.5-0.8-7.7-3.2-9.4-6.3c-1.7,3.1-4.9,5.5-9.3,6.3
		l-1.5-3c5.7-0.9,8.9-4.8,8.9-8.4v-1.8h3.9v1.8c0,3.6,3.1,7.4,8.9,8.4L500.2,111.6z"/>
	<path d="M525.4,111.4v1.9c4.4,0.4,6.9,1.9,6.9,4.5c0,2.9-3.3,4.6-8.8,4.6s-8.8-1.7-8.8-4.6c0-2.6,2.6-4.2,7-4.5v-1.8h-9.7v-2.9H535
		v2.9H525.4z M513.1,104.7c4.7-0.4,7.2-2.1,7.8-3.8h-6.7V98H533v2.9h-6.8c0.6,1.7,3.1,3.4,7.9,3.8l-1.3,2.8
		c-4.8-0.4-7.9-2.2-9.2-4.6c-1.4,2.4-4.5,4.2-9.3,4.6L513.1,104.7z M523.5,115.9c-3.4,0-5.1,0.6-5.1,1.8c0,1.3,1.7,1.8,5.1,1.8
		s5.1-0.6,5.1-1.8C528.6,116.5,526.9,115.9,523.5,115.9z"/>
	<path d="M554.7,100.8h5.7v2.9h-15.1v-2.9h5.7v-3.4h3.6V100.8z M559.3,111.1c0,3.6-2.8,6.1-6.5,6.1c-3.8,0-6.5-2.5-6.5-6.1
		c0-3.5,2.8-6,6.5-6C556.6,105,559.3,107.6,559.3,111.1z M555.9,111.1c0-1.9-1.3-3.1-3-3.1c-1.8,0-3,1.2-3,3.1c0,2,1.3,3.1,3,3.1
		C554.6,114.2,555.9,113,555.9,111.1z M565.8,96.9v25.4h-3.6V96.9H565.8z"/>
	<path d="M598.7,96.9v25.5h-3.6V113h-5.2c-1.1,2.5-3.1,3.9-5.5,3.9c-3.8,0-6.6-3.5-6.6-9.1c0-5.6,2.8-9,6.6-9c2.3,0,4.2,1.2,5.3,3.4
		h5.4v-5.2H598.7z M587.5,107.8c0-3.7-1.3-5.8-3.1-5.8c-1.8,0-3.1,2-3.1,5.8c0,3.8,1.3,5.8,3.1,5.8
		C586.2,113.6,587.5,111.6,587.5,107.8z M595.1,110v-5h-4.4c0.2,0.8,0.2,1.7,0.2,2.7c0,0.8-0.1,1.6-0.2,2.3H595.1z"/>
	<path d="M623.7,99.6c0,7.8-2.6,14.1-11.6,18.5l-1.9-2.9c6.5-3.1,9.3-7.1,9.8-12.7h-8.5v-2.9H623.7z M631.2,96.9v25.4h-3.7V96.9
		H631.2z"/>
	<path d="M665.7,116.4v2.9h-23v-2.9h8.1v-8.7h3.6v8.7H665.7z M658.8,113.3c1-4.8,1-8.3,1-11.3h-14.8v-2.9h18.4v2.4
		c0,3.2,0,6.8-1,12.2L658.8,113.3z"/>
	<path d="M10.1,151.8c0,3.9,2,8.4,6.2,10.3l-2,2.9c-2.8-1.3-4.8-3.8-5.9-6.8c-1.1,3.3-3.2,6.1-6.1,7.5l-2-2.9
		c4.2-1.9,6.2-6.7,6.2-10.9v-1.4H1.2v-3h14v3h-5V151.8z M24.4,157.7h-3.7v12.7H17V145h3.6v9.7h3.7V157.7z"/>
	<path d="M46,159.7c-2.8-1-4.7-2.8-5.8-5.2c-1.2,2.6-3.1,4.6-6.1,5.7l-1.8-2.9c4.2-1.4,6-5,6-8.4v-2.5h3.7v2.5
		c0,3.3,1.8,6.6,5.9,7.9L46,159.7z M54,167v2.9H36.5v-8.2h3.6v5.3H54z M53.4,163.5h-3.7V145h3.7V163.5z"/>
	<path d="M78.5,157.2c-3.1,0.7-6,0.8-11.6,0.8h-2.1v-11.6H76v2.9h-7.7v5.7c4.5,0,7-0.2,9.8-0.8L78.5,157.2z M80.2,159.8h3.6V170
		H67.2v-10.2h3.6v2.3h9.4V159.8z M80.2,164.9h-9.4v2.2h9.4V164.9z M87.1,153.4h-3.4v5.2h-3.6V145h3.6v5.5h3.4V153.4z"/>
	<path d="M108.3,145.5h3.4v23.7h-3.4v-11.6h-4c-1.4,2.9-3.7,5.4-7.3,7.5l-2.1-2.6c5.1-3,7.3-6.7,7.7-11.7h-6.3V148h10
		c0,2.4-0.2,4.6-0.8,6.7h2.8V145.5z M117.1,145v25.4h-3.4V145H117.1z"/>
	<path d="M152.4,157.4c-2.7-0.8-4.6-2.5-5.7-4.7c-1.1,2.5-3.1,4.4-6.1,5.3l-1.7-2.9c4.2-1.3,5.9-4.4,5.9-7.6v-1.6h3.7v1.5
		c0,3.1,1.7,6,5.8,7.1L152.4,157.4z M146,167.4h13.8v2.8h-17.5v-6.9h13.2v-1.4h-13.2V159h16.8v6.8H146V167.4z M162.5,149.9v3h-3.3
		v5.1h-3.6v-13h3.6v4.9H162.5z"/>
	<path d="M184.1,155.8c0,5.6-2.8,9.1-6.7,9.1c-3.9,0-6.7-3.5-6.7-9.1c0-5.6,2.8-9,6.7-9C181.3,146.7,184.1,150.2,184.1,155.8z
		 M180.6,155.8c0-3.7-1.3-5.8-3.2-5.8c-1.9,0-3.2,2-3.2,5.8c0,3.8,1.3,5.8,3.2,5.8C179.3,161.6,180.6,159.6,180.6,155.8z
		 M194.2,157.6h-3.7v12.8h-3.6V145h3.6v9.6h3.7V157.6z"/>
	<path d="M215.2,145.9c0,6.8-4.3,10.9-11.9,12.4l-1.3-3c5.9-1.1,8.8-3.6,9.2-6.6h-7.9v-2.9H215.2z M209,167.3h13.8v2.9h-17.5V163
		h13.2v-1.5h-13.2v-2.9h16.8v7H209V167.3z M225.5,150v3h-3.4v4.6h-3.6V145h3.6v5.1H225.5z"/>
	<path d="M269,161.7h-9.7v8.7h-3.6v-8.7H246v-3H269V161.7z M266.8,156.9c-4.4-0.7-7.6-2.7-9.2-5.5c-1.6,2.7-4.8,4.8-9.3,5.5
		l-1.4-2.9c5.8-0.8,8.7-4.1,8.7-7.1v-1.2h3.9v1.2c0,3,2.9,6.3,8.7,7.1L266.8,156.9z"/>
	<path d="M290.3,152.4c0-3.6,3-6.1,6.9-6.1c4,0,6.9,2.5,6.9,6.1c0,3.6-3,6.1-6.9,6.1C293.2,158.5,290.3,155.9,290.3,152.4z
		 M308.4,161.2c0,2.6,1.4,5.1,4.7,6.1l-1.8,2.6c-2.4-0.8-3.9-2.3-4.8-4.2c-0.8,1.9-2.3,3.6-4.6,4.5c-2.3-0.9-3.8-2.5-4.6-4.4
		c-0.9,1.8-2.4,3.3-4.7,4.2l-1.8-2.6c3.4-1.1,4.7-3.6,4.7-6.1v-0.9h3.5v0.9c0,2,0.8,4.1,2.8,5.5c2-1.5,2.9-3.6,2.9-5.5v-0.9h3.6
		V161.2z M293.8,152.4c0,1.9,1.4,3.1,3.3,3.1c1.9,0,3.4-1.2,3.4-3.1c0-1.9-1.4-3.1-3.4-3.1C295.2,149.3,293.8,150.5,293.8,152.4z
		 M311,159.3h-3.7V145h3.7V159.3z"/>
	<path d="M344.4,157.3v2.9h-23v-2.9H344.4z M327.7,166.9H342v2.9h-18v-7.6h3.7V166.9z M341.9,154.7h-17.6v-8.9h3.6v6h14V154.7z"/>
	<path d="M373.4,151.3c0,4.1,1.1,8.3,4.5,10.6l-2,2.8c-2.2-1.3-3.5-3.5-4.3-6c-0.9,2.8-2.4,5.2-4.7,6.6l-2.2-2.7
		c3.7-2.3,5.1-6.8,5.1-11.1v-4.3h3.5V151.3z M378.5,145.4h3.4v23.9h-3.4v-12.7h-3.2v-3h3.2V145.4z M387.1,145v25.4h-3.4V145H387.1z"
		/>
	<path d="M409.8,159c-2.7-0.9-4.5-2.6-5.6-4.7c-1.1,2.5-3.1,4.5-6,5.5l-1.9-2.9c4.2-1.4,6-4.8,6-8.2v-2.3h3.7v2.6
		c0,3.1,1.7,6,5.7,7.3L409.8,159z M417,165.5c0,3.1-3.3,4.9-8.6,4.9c-5.3,0-8.6-1.8-8.6-4.9c0-3.1,3.3-4.9,8.6-4.9
		C413.7,160.6,417,162.4,417,165.5z M413.4,165.5c0-1.4-1.7-2.1-5-2.1c-3.3,0-5,0.7-5,2.1c0,1.4,1.7,2.1,5,2.1
		C411.7,167.6,413.4,166.9,413.4,165.5z M420.1,150.9v3h-3.4v6.1h-3.6v-15h3.6v5.9H420.1z"/>
	<path d="M451.2,155.2v2.8h-22.9v-2.8H451.2z M430.6,149.7c0-2.8,3.4-4.3,9.2-4.3c5.8,0,9.2,1.5,9.2,4.3c0,2.8-3.4,4.3-9.2,4.3
		C433.9,154,430.6,152.5,430.6,149.7z M434.5,167.4h14.6v2.7h-18.2v-6.7h13.9v-1.4h-14v-2.7h17.5v6.5h-13.9V167.4z M434.3,149.7
		c0,1.2,1.7,1.7,5.4,1.7c3.7,0,5.4-0.5,5.4-1.7c0-1.1-1.7-1.7-5.4-1.7C436.1,148,434.3,148.5,434.3,149.7z"/>
	<path d="M485.7,157.9h-12.3v-11.4h12.3V157.9z M493.8,167.2v2.9h-17.4v-9.6h16.9v2.9H480v3.8H493.8z M482.2,149.4H477v5.7h5.2
		V149.4z M493.2,159.3h-3.7V145h3.7V159.3z"/>
	<path d="M526.6,164.4v3h-23v-3H526.6z M524.6,153.6c0,4.4-4.1,7.3-9.5,7.3c-5.3,0-9.5-2.9-9.5-7.3c0-4.4,4.1-7.4,9.5-7.4
		C520.5,146.2,524.6,149.2,524.6,153.6z M509.2,153.6c0,2.7,2.5,4.4,5.9,4.4c3.5,0,5.9-1.7,5.9-4.4c0-2.8-2.5-4.4-5.9-4.4
		C511.7,149.2,509.2,150.9,509.2,153.6z"/>
	<path d="M556.4,145v25.4h-3.6v-10h-4.7v3.7h-12.1v-17h12.1v3.5h4.7V145H556.4z M544.6,150.1h-4.9v11.3h4.9V150.1z M552.8,157.6
		v-3.9h-4.7v3.9H552.8z"/>
	<path d="M602,162.1h-9.8v8.3h-3.6v-8.3H579v-2.9h23V162.1z M599.2,156.5h-17.6v-10.3h17.6V156.5z M595.7,149.1h-10.5v4.5h10.5
		V149.1z"/>
	<path d="M625.5,150.5h-14.9v-2.8h5.6V145h3.7v2.7h5.7L625.5,150.5z M618,161.2c-3.6,0-6.2-2-6.2-4.9c0-2.9,2.6-4.9,6.2-4.9
		s6.2,2,6.2,4.9C624.2,159.2,621.6,161.2,618,161.2z M617.8,167h13.6v2.9h-17.3v-7.4h3.6V167z M618,158.4c1.6,0,2.8-0.7,2.8-2.2
		c0-1.4-1.2-2.1-2.8-2.1c-1.6,0-2.8,0.7-2.8,2.1C615.2,157.7,616.4,158.4,618,158.4z M633.9,152.7v3h-3.4v8.2h-3.6v-19h3.6v7.7
		H633.9z"/>
	<path d="M656.9,150.5H642v-2.8h5.6V145h3.7v2.7h5.7L656.9,150.5z M649.5,161.2c-3.6,0-6.2-2-6.2-4.9c0-2.9,2.6-4.9,6.2-4.9
		s6.2,2,6.2,4.9C655.7,159.2,653.1,161.2,649.5,161.2z M649.3,167h13.6v2.9h-17.3v-7.4h3.6V167z M649.5,158.4c1.6,0,2.8-0.7,2.8-2.2
		c0-1.4-1.2-2.1-2.8-2.1c-1.6,0-2.8,0.7-2.8,2.1C646.7,157.7,647.8,158.4,649.5,158.4z M665.4,152.7v3H662v8.2h-3.6v-19h3.6v7.7
		H665.4z"/>
	<path d="M13.9,195.6c0,7.6-2.9,14.1-11.3,18.4l-2-2.8c5.9-3,9-7.1,9.7-12.7H1.9v-3H13.9z M24.2,205.7h-3.6v12.7H17V193h3.6v9.7h3.6
		V205.7z"/>
	<path d="M56.6,204.3v2.9h-23v-2.9H56.6z M53.8,213.6c0,3-3.3,4.7-8.8,4.7c-5.5,0-8.8-1.7-8.8-4.7c0-3,3.3-4.7,8.8-4.7
		C50.5,208.9,53.8,210.6,53.8,213.6z M54,202.2H36.5v-8.8h3.6v5.9H54V202.2z M50.1,213.6c0-1.3-1.7-1.9-5.1-1.9
		c-3.4,0-5.1,0.6-5.1,1.9c0,1.3,1.7,1.9,5.1,1.9C48.4,215.5,50.1,214.9,50.1,213.6z"/>
	<path d="M79.7,207.1c-2.7-0.9-4.5-2.6-5.5-4.9c-1.1,2.6-3.1,4.6-6.1,5.7l-1.9-2.9c4.3-1.4,6.1-4.8,6.1-8.3v-2.3H76v2.1
		c0,3.4,1.7,6.5,5.7,7.8L79.7,207.1z M87.7,213.5c0,3.1-3.3,4.9-8.7,4.9c-5.4,0-8.7-1.8-8.7-4.9c0-3.1,3.3-5,8.7-5
		C84.4,208.5,87.7,210.3,87.7,213.5z M84.1,213.5c0-1.5-1.7-2.2-5-2.2c-3.3,0-5.1,0.7-5.1,2.2c0,1.4,1.7,2.1,5.1,2.1
		C82.3,215.6,84.1,214.9,84.1,213.5z M84,200.6h-4.6v-3H84V193h3.6v14.9H84V200.6z"/>
	<path d="M122.1,203.2v2.8H99.2v-2.8H122.1z M101.4,197.7c0-2.8,3.4-4.3,9.2-4.3c5.8,0,9.2,1.5,9.2,4.3c0,2.8-3.4,4.3-9.2,4.3
		C104.8,202,101.4,200.5,101.4,197.7z M105.4,215.5H120v2.7h-18.2v-6.7h13.9v-1.4h-14v-2.7h17.5v6.5h-13.9V215.5z M105.2,197.7
		c0,1.2,1.7,1.7,5.4,1.7c3.7,0,5.4-0.5,5.4-1.7c0-1.1-1.7-1.7-5.4-1.7C107,196,105.2,196.5,105.2,197.7z"/>
	<path d="M168.6,203.3v2.8h-22.9v-2.8H168.6z M146.7,199.9c4.7-0.3,7.3-1.7,8.1-3.3h-7v-2.8h18.8v2.8h-7c0.7,1.5,3.3,2.9,8,3.3
		l-1.1,2.8c-4.7-0.3-7.8-1.8-9.3-3.9c-1.5,2.1-4.7,3.6-9.3,3.9L146.7,199.9z M151.9,215.5h14.6v2.7h-18.2v-6.6h13.9v-1.4h-14v-2.6
		h17.5v6.5h-13.9V215.5z"/>
	<path d="M191.9,193.9c0,6.9-3.8,10.7-11.9,12.4l-1.3-2.9c6.3-1.1,8.7-3.5,9.1-6.5h-7.7v-2.9H191.9z M200.2,215.3v2.8h-17.5V211
		h13.2v-1.5h-13.3v-2.8h16.9v6.9h-13.2v1.7H200.2z M199.5,205.7h-3.7V193h3.7V205.7z"/>
	<path d="M247.9,209.8h-9.7v8.7h-3.6v-8.7h-9.6v-3h22.9V209.8z M245.7,204.9c-4.4-0.7-7.6-2.7-9.2-5.5c-1.6,2.7-4.8,4.8-9.3,5.5
		l-1.4-2.9c5.8-0.8,8.7-4.1,8.7-7.1v-1.2h3.9v1.2c0,3,2.9,6.3,8.7,7.1L245.7,204.9z"/>
	<path d="M271.7,200.4c0-3.6,3-6.1,6.9-6.1c4,0,6.9,2.5,6.9,6.1s-3,6.1-6.9,6.1C274.7,206.5,271.7,203.9,271.7,200.4z M289.9,209.3
		c0,2.6,1.4,5.1,4.7,6.1l-1.8,2.6c-2.4-0.8-3.9-2.3-4.8-4.2c-0.8,1.9-2.3,3.6-4.6,4.5c-2.3-0.9-3.8-2.5-4.6-4.4
		c-0.9,1.8-2.4,3.3-4.7,4.2l-1.8-2.6c3.4-1.1,4.7-3.6,4.7-6.1v-0.9h3.5v0.9c0,2,0.8,4.1,2.8,5.5c2-1.5,2.9-3.6,2.9-5.5v-0.9h3.6
		V209.3z M275.3,200.4c0,1.9,1.4,3.1,3.3,3.1c1.9,0,3.4-1.2,3.4-3.1s-1.4-3.1-3.4-3.1C276.7,197.3,275.3,198.5,275.3,200.4z
		 M292.5,207.4h-3.7V193h3.7V207.4z"/>
	<path d="M317.7,195.6c0,7.8-2.6,14.1-11.6,18.5l-1.9-2.9c6.5-3.1,9.3-7.1,9.8-12.7h-8.5v-2.9H317.7z M325.3,193v25.4h-3.7V193
		H325.3z"/>
	<path d="M359.9,204.4v2.6h-23v-2.6H359.9z M343.2,215.7h14.7v2.5h-18.3V212h14v-1.3h-14.1v-2.5h17.7v6h-14V215.7z M353.5,195.9
		h-13.8v-2.5h17.4v6h-13.7v1.3h14.2v2.5h-17.8v-6.1h13.7V195.9z"/>
	<path d="M392.9,195h3.6v17.5h-12.3V195h3.6v6.1h5.1V195z M392.9,204h-5.1v5.6h5.1V204z M407,205.5h-3.7v12.9h-3.6V193h3.6v9.4h3.7
		V205.5z"/>
	<path d="M431.1,205.9c-3.5,0.7-6.8,0.8-11.8,0.8h-2.2V199h8V197h-8v-2.9h11.6v7.6h-7.9v2.1c4.1,0,6.9-0.2,10.1-0.8L431.1,205.9z
		 M432.6,208.1h3.6v10h-16.5v-10h3.6v2.3h9.3V208.1z M432.6,213.1h-9.3v2.1h9.3V213.1z M439.6,201.5h-3.4v5.5h-3.6V193h3.6v5.6h3.4
		V201.5z"/>
	<path d="M453.9,209c3.3-0.1,6.9-0.4,10.7-1.1l0.4,3c-4.3,0.9-8.5,1.2-12.4,1.2h-2.3v-16.7h3.6V209z M470.2,193v25.4h-3.6V193H470.2
		z"/>
	<path d="M486.4,209.3c3.6-0.1,6.6-0.2,9.9-0.8l0.4,3c-3.8,0.7-7.3,0.8-11.7,0.8h-2.2v-17h11.9v3h-8.2V209.3z M505.4,205.4h-3.7
		v13.1H498V193h3.6v9.4h3.7V205.4z"/>
	<path d="M515.4,213.7c0-1.5,1.1-2.6,2.5-2.6c1.5,0,2.5,1.2,2.5,2.6c0,1.5-1.1,2.6-2.5,2.6C516.4,216.4,515.4,215.2,515.4,213.7z"/>
	<path d="M551.7,206.5c-3.9,0-6.9-2.5-6.9-6.1s3-6.1,6.9-6.1c3.9,0,6.9,2.5,6.9,6.1S555.6,206.5,551.7,206.5z M562.1,215.2h3.4v2.9
		h-17.6v-2.9h3.3V211H548v-2.9h17.1v2.9h-3.1V215.2z M551.7,203.4c1.9,0,3.3-1.1,3.3-3.1c0-1.9-1.4-3.1-3.3-3.1
		c-1.9,0-3.3,1.1-3.3,3.1C548.4,202.3,549.8,203.4,551.7,203.4z M554.7,215.2h3.8V211h-3.8V215.2z M568,198.5v3h-3.4v5.5H561V193
		h3.6v5.5H568z"/>
	<path d="M600.4,212.4v3h-23v-3H600.4z M598.4,201.6c0,4.4-4.1,7.3-9.5,7.3c-5.3,0-9.5-2.9-9.5-7.3c0-4.4,4.1-7.4,9.5-7.4
		C594.3,194.3,598.4,197.2,598.4,201.6z M583,201.6c0,2.7,2.5,4.4,5.9,4.4c3.5,0,5.9-1.7,5.9-4.4c0-2.8-2.5-4.4-5.9-4.4
		C585.5,197.2,583,198.9,583,201.6z"/>
	<path d="M633.2,212.6v3h-23v-3h9.7v-3.8h-7v-8.6H627v-2.7h-14.2v-2.9h17.8v8.5h-14.1v2.8h14.7v2.9h-7.7v3.8H633.2z"/>
	<path d="M666,212.5v3h-23v-3h9.7v-5.3h-7v-12.5h17.7v2.9h-14v6.7h14.2v2.9h-7.3v5.3H666z"/>
	<path d="M23.8,258.1h-5.3v8.3h-3.7v-8.3H9.7v8.3H6v-8.3H0.8v-3h23V258.1z M3,247.5c0-3.4,3.7-5.7,9.2-5.7c5.4,0,9.2,2.2,9.2,5.7
		c0,3.5-3.8,5.7-9.2,5.7C6.8,253.2,3,251,3,247.5z M6.8,247.5c0,1.8,2.1,2.8,5.5,2.8c3.3,0,5.4-1,5.4-2.8c0-1.8-2.1-2.8-5.4-2.8
		C8.9,244.7,6.8,245.7,6.8,247.5z"/>
	<path d="M38.6,257c3.3-0.1,6.9-0.4,10.7-1.1l0.4,3c-4.3,0.9-8.5,1.2-12.4,1.2H35v-16.7h3.6V257z M54.9,241v25.4h-3.6V241H54.9z"/>
	<path d="M89.5,250.8v2.9H66.6v-2.9h16.2c0.1-0.7,0.2-1.4,0.3-2.1l-14,0.6l-0.4-2.8l14.6-0.3c0-0.5,0-1,0-1.5H69.4v-2.8h17.5v2.3
		c0,2,0,4.1-0.4,6.6H89.5z M72.7,263.4h15.1v2.8H69.2v-6.9h14.3v-1.4H69.1v-2.7H87v6.7H72.7V263.4z"/>
	<path d="M122.5,260.6v3h-23v-3h9.7v-3.8h-7v-8.6h14.2v-2.7h-14.2v-2.9h17.8v8.5h-14.1v2.8h14.7v2.9h-7.7v3.8H122.5z"/>
	<path d="M155.4,253.3v2.9h-23v-2.9H155.4z M138.7,262.9H153v2.9h-18v-7.6h3.7V262.9z M152.9,250.8h-17.6v-8.9h3.6v6h14V250.8z"/>
	<path d="M202,253v2.9h-22.9V253h9.6v-1.8c-4.5-0.4-7.3-2.2-7.3-4.9c0-3.1,3.6-5,9.2-5s9.2,1.9,9.2,5c0,2.7-2.9,4.5-7.4,4.9v1.8H202
		z M192.4,257.6c0,2.6,2.5,5.2,8.1,5.9l-1.4,2.8c-4.1-0.6-7.1-2.2-8.6-4.5c-1.5,2.3-4.5,3.9-8.6,4.5l-1.4-2.8
		c5.7-0.7,8.1-3.3,8.1-5.9v-0.5h3.7V257.6z M190.6,248.5c3.5,0,5.5-0.7,5.5-2.2c0-1.5-2-2.2-5.5-2.2c-3.4,0-5.4,0.7-5.4,2.2
		C185.1,247.8,187.1,248.5,190.6,248.5z"/>
	<path d="M212.1,258.3c4.5,0,10.7,0,16-0.8l0.2,2.6c-5.5,1.1-11.4,1.2-15.8,1.2L212.1,258.3z M227.2,248.9c0,3.7-3,6.3-7,6.3
		c-4,0-7-2.6-7-6.3c0-3.6,3-6.3,7-6.3C224.1,242.7,227.2,245.3,227.2,248.9z M216.7,248.9c0,2,1.5,3.1,3.4,3.1s3.4-1.2,3.4-3.1
		s-1.5-3.1-3.4-3.1S216.7,247,216.7,248.9z M233.2,241v25.5h-3.6V241H233.2z"/>
	<path d="M274.3,246.1H259v-2.8h5.8v-2.5h3.6v2.5h5.8L274.3,246.1z M266.6,256c-3.8,0-6.4-1.8-6.4-4.6c0-2.8,2.5-4.5,6.4-4.5
		c3.8,0,6.3,1.8,6.3,4.5C273,254.3,270.5,256,266.6,256z M262.9,257.4h16.9v8.7h-16.9V257.4z M266.6,253.4c1.8,0,2.9-0.6,2.9-1.9
		c0-1.3-1.1-1.9-2.9-1.9c-1.8,0-2.9,0.6-2.9,1.9C263.8,252.8,264.9,253.4,266.6,253.4z M266.5,263.2h9.8v-3h-9.8V263.2z M279.8,241
		v15.3h-3.7V241H279.8z"/>
	<path d="M314.5,251.2v2.8h-22.9v-2.8H314.5z M293.9,245.7c0-2.8,3.4-4.3,9.2-4.3c5.8,0,9.2,1.5,9.2,4.3c0,2.8-3.4,4.3-9.2,4.3
		C297.3,250,293.9,248.5,293.9,245.7z M297.8,263.5h14.6v2.7h-18.2v-6.7h13.9v-1.4h-14v-2.7h17.5v6.5h-13.9V263.5z M297.6,245.7
		c0,1.2,1.7,1.7,5.4,1.7c3.7,0,5.4-0.5,5.4-1.7c0-1.1-1.7-1.7-5.4-1.7C299.4,244,297.6,244.6,297.6,245.7z"/>
	<path d="M361.2,254.1v2.8h-23v-2.8h9.7v-1.6h-6.8v-10.9h17.5v2.8h-13.9v1.3H358v2.6h-13.3v1.4h14.1v2.8h-7.3v1.6H361.2z
		 M358.5,262.2c0,2.7-3.2,4.2-8.8,4.2c-5.6,0-8.8-1.5-8.8-4.2c0-2.7,3.2-4.2,8.8-4.2C355.3,258.1,358.5,259.5,358.5,262.2z
		 M354.8,262.2c0-1-1.6-1.5-5.2-1.5c-3.5,0-5.1,0.4-5.1,1.5s1.6,1.5,5.1,1.5C353.2,263.7,354.8,263.3,354.8,262.2z"/>
	<path d="M379.1,244.8h4.2v2.9h-12.1v-2.9h4.3v-3.1h3.6V244.8z M382.8,254.9c0,3.5-2.3,6-5.6,6s-5.6-2.5-5.6-6
		c0-3.6,2.3-6.1,5.6-6.1S382.8,251.3,382.8,254.9z M379.6,254.9c0-1.9-1-3-2.4-3s-2.4,1.1-2.4,3c0,1.9,1,3,2.4,3
		S379.6,256.8,379.6,254.9z M393,241v25.4h-3.4v-12.1h-1.9v11.1h-3.4v-23.9h3.4v9.9h1.9V241H393z"/>
	<path d="M431.4,256.2c-2.8-0.9-4.7-2.7-5.8-5c-1.1,2.5-3.1,4.5-6.1,5.5l-1.8-2.9c4.2-1.4,6-4.7,6-7.9v-0.4h-5v-2.9h13.6v2.9h-4.9
		v0.3c0,3,1.7,6.1,5.7,7.5L431.4,256.2z M439.7,263.1v2.9h-17.3v-8h3.6v5.1H439.7z M435.5,247.6V241h3.6v18.5h-3.6v-9h-4v-3H435.5z"
		/>
	<path d="M472.7,247.3c0,4.1,1.1,8.3,4.5,10.6l-2,2.8c-2.2-1.3-3.5-3.5-4.3-6c-0.9,2.8-2.4,5.2-4.7,6.6l-2.2-2.7
		c3.7-2.3,5.1-6.8,5.1-11.1v-4.3h3.5V247.3z M477.7,241.4h3.4v23.9h-3.4v-12.7h-3.2v-3h3.2V241.4z M486.3,241v25.4h-3.4V241H486.3z"
		/>
	<path d="M510.6,241.5h3.4v23.7h-3.4V257h-3.5V254h3.5v-3.4h-3.1c-1.1,4.2-3.7,7.7-8.4,10.5l-2.1-2.5c5-3.1,7.2-6.7,7.7-11.7h-6.3
		V244h9.9c0,1.3-0.1,2.5-0.2,3.7h2.5V241.5z M519.3,241v25.4h-3.4V241H519.3z"/>
	<path d="M565.5,241v25.5h-3.6V257h-5.2c-1.1,2.5-3.1,3.9-5.5,3.9c-3.8,0-6.6-3.5-6.6-9.1c0-5.6,2.8-9,6.6-9c2.3,0,4.2,1.2,5.3,3.4
		h5.4V241H565.5z M554.2,251.8c0-3.8-1.3-5.8-3.1-5.8c-1.8,0-3.1,2-3.1,5.8c0,3.8,1.3,5.8,3.1,5.8
		C553,257.6,554.2,255.6,554.2,251.8z M561.8,254.1v-5h-4.4c0.2,0.8,0.2,1.7,0.2,2.7c0,0.8-0.1,1.6-0.2,2.3H561.8z"/>
	<path d="M590.4,255.1c-2.7-0.9-4.5-2.6-5.5-4.9c-1.1,2.6-3.1,4.6-6.1,5.7l-1.9-2.9c4.3-1.4,6.1-4.8,6.1-8.3v-2.3h3.7v2.1
		c0,3.4,1.7,6.5,5.7,7.8L590.4,255.1z M598.4,261.5c0,3.1-3.3,4.9-8.7,4.9c-5.4,0-8.7-1.8-8.7-4.9c0-3.1,3.3-5,8.7-5
		C595.1,256.5,598.4,258.3,598.4,261.5z M594.8,261.5c0-1.5-1.7-2.2-5-2.2c-3.3,0-5.1,0.7-5.1,2.2c0,1.4,1.7,2.1,5.1,2.1
		C593,263.6,594.8,262.9,594.8,261.5z M594.6,248.6H590v-3h4.6V241h3.6v14.9h-3.6V248.6z"/>
	<path d="M633,250.8v2.9h-23v-2.9H633z M616.2,263.4h14.6v2.8h-18.2v-6.9h13.9v-1.4h-14v-2.7h17.5v6.7h-13.9V263.4z M630.2,249.5
		h-17.4v-8H630v2.9h-13.6v2.2h13.8V249.5z"/>
	<path d="M665.8,251.2v2.8h-22.9v-2.8H665.8z M645.1,245.7c0-2.8,3.4-4.3,9.2-4.3c5.8,0,9.2,1.5,9.2,4.3c0,2.8-3.4,4.3-9.2,4.3
		C648.5,250,645.1,248.5,645.1,245.7z M649.1,263.5h14.6v2.7h-18.2v-6.7h13.9v-1.4h-14v-2.7H663v6.5h-13.9V263.5z M648.9,245.7
		c0,1.2,1.7,1.7,5.4,1.7c3.7,0,5.4-0.5,5.4-1.7c0-1.1-1.7-1.7-5.4-1.7C650.7,244,648.9,244.6,648.9,245.7z"/>
	<path d="M17.2,304.1c-2,0.4-4.2,0.7-6.2,0.9v8.6H7.3v-8.4c-2.2,0.1-4.2,0.1-6,0.1l-0.4-3c4.4,0,10.7-0.1,16.1-0.9L17.2,304.1z
		 M2.4,295.5c0-3.2,2.8-5.4,6.7-5.4s6.6,2.2,6.6,5.4c0,3.1-2.8,5.4-6.6,5.4S2.4,298.6,2.4,295.5z M5.9,295.5c0,1.5,1.3,2.4,3.2,2.4
		c1.9,0,3.2-0.9,3.2-2.4c0-1.6-1.3-2.5-3.2-2.5C7.2,293,5.9,293.9,5.9,295.5z M22,289v25.4h-3.6V289H22z"/>
	<path d="M50.8,294.5H35.8v-2.8h5.6V289h3.7v2.7h5.7L50.8,294.5z M43.3,305.2c-3.6,0-6.2-2-6.2-4.9c0-2.9,2.6-4.9,6.2-4.9
		s6.2,2,6.2,4.9C49.5,303.2,46.9,305.2,43.3,305.2z M43.1,311.1h13.6v2.9H39.4v-7.4h3.6V311.1z M43.3,302.5c1.6,0,2.8-0.7,2.8-2.2
		c0-1.4-1.2-2.1-2.8-2.1c-1.6,0-2.8,0.7-2.8,2.1C40.5,301.7,41.7,302.5,43.3,302.5z M59.2,296.8v3h-3.4v8.2h-3.6v-19h3.6v7.7H59.2z"
		/>
	<path d="M91.4,305.3c3.6-0.1,6.6-0.2,9.9-0.8l0.4,3c-3.8,0.7-7.3,0.8-11.7,0.8h-2.2v-17h11.9v3h-8.2V305.3z M110.3,301.4h-3.7v13.1
		H103V289h3.6v9.4h3.7V301.4z"/>
	<path d="M128.9,302.7c-3.9,0-6.9-2.6-6.9-6.1c0-3.6,3-6.2,6.9-6.2c3.9,0,6.9,2.6,6.9,6.2C135.7,300.1,132.7,302.7,128.9,302.7z
		 M142,309.4c0,3.2-3.3,5-8.6,5c-5.3,0-8.6-1.9-8.6-5c0-3.1,3.3-5,8.6-5C138.7,304.4,142,306.2,142,309.4z M128.9,299.6
		c1.9,0,3.3-1.2,3.3-3.1c0-2-1.4-3.1-3.3-3.1c-1.9,0-3.3,1.2-3.3,3.1C125.5,298.5,126.9,299.6,128.9,299.6z M138.4,309.4
		c0-1.5-1.7-2.2-5-2.2c-3.3,0-5,0.7-5,2.2c0,1.5,1.7,2.2,5,2.2C136.7,311.6,138.4,310.9,138.4,309.4z M141.8,295.1v2.5h3.3v3h-3.3
		v3.2h-3.6V289h3.6v3.1h3.3v3H141.8z"/>
	<path d="M171.7,294.5h-14.9v-2.8h5.6V289h3.7v2.7h5.7L171.7,294.5z M164.3,305.2c-3.6,0-6.2-2-6.2-4.9c0-2.9,2.6-4.9,6.2-4.9
		s6.2,2,6.2,4.9C170.5,303.2,167.9,305.2,164.3,305.2z M164.1,311.1h13.6v2.9h-17.3v-7.4h3.6V311.1z M164.3,302.5
		c1.6,0,2.8-0.7,2.8-2.2c0-1.4-1.2-2.1-2.8-2.1c-1.6,0-2.8,0.7-2.8,2.1C161.5,301.7,162.6,302.5,164.3,302.5z M180.2,296.8v3h-3.4
		v8.2h-3.6v-19h3.6v7.7H180.2z"/>
	<path d="M217.6,295.8c0,4.1,2,8.5,6.3,10.3l-2,2.9c-3-1.3-5-3.8-6.1-6.8c-1.1,3.3-3.2,6.1-6.1,7.4l-2.1-2.9
		c4.2-1.9,6.3-6.6,6.3-10.9v-1.4h-5.3v-3h14.2v3h-5.2V295.8z M228.8,289v25.4h-3.6V289H228.8z"/>
	<path d="M264.7,311.1v2.9h-18.8v-7.6h3.5V303c-2.2,0.1-4.4,0.1-6.3,0.1l-0.5-2.9c4.6,0,10.8-0.1,16.2-0.8l0.2,2.6
		c-2,0.4-4,0.6-6.1,0.7v4.8h-3.5v3.5H264.7z M244.5,294.4c0-2.7,2.6-4.5,6.3-4.5c3.7,0,6.3,1.8,6.3,4.5s-2.6,4.5-6.3,4.5
		C247.1,298.9,244.5,297.1,244.5,294.4z M247.9,294.4c0,1.2,1.2,1.9,2.9,1.9c1.7,0,2.9-0.6,2.9-1.9c0-1.2-1.2-1.9-2.9-1.9
		C249.1,292.5,247.9,293.2,247.9,294.4z M260.5,303.8V289h3.6v19.2h-3.6v-2h-4.8v-2.5H260.5z"/>
	<path d="M300.7,299.2v2.8h-22.9v-2.8H300.7z M280.1,293.7c0-2.8,3.4-4.3,9.2-4.3c5.8,0,9.2,1.5,9.2,4.3c0,2.8-3.4,4.3-9.2,4.3
		C283.5,298,280.1,296.5,280.1,293.7z M284.1,311.5h14.6v2.7h-18.2v-6.7h13.9v-1.4h-14v-2.7h17.5v6.5h-13.9V311.5z M283.9,293.7
		c0,1.2,1.7,1.7,5.4,1.7c3.7,0,5.4-0.5,5.4-1.7c0-1.1-1.7-1.7-5.4-1.7C285.6,292,283.9,292.6,283.9,293.7z"/>
	<path d="M341.9,289.6h3.4v23.7h-3.4V305h-3.5V302h3.5v-3.4h-3.1c-1.1,4.2-3.7,7.7-8.4,10.5l-2.1-2.5c5-3.1,7.2-6.7,7.7-11.7h-6.3
		V292h9.9c0,1.3-0.1,2.5-0.2,3.7h2.5V289.6z M350.6,289v25.4h-3.4V289H350.6z"/>
	<path d="M386.7,301.3v2.9h-23v-2.9h9.6V298h3.6v3.3H386.7z M384.1,299.5c-4.3-0.6-7.4-2.4-9-4.9c-1.6,2.5-4.7,4.3-8.9,4.9l-1.4-2.8
		c5.7-0.7,8.4-3.6,8.4-6.5v-0.7h3.7v0.7c0,3,2.7,5.8,8.4,6.5L384.1,299.5z M366.3,306h17.6v8.4h-3.6v-5.6h-14V306z"/>
	<path d="M406.7,292.8h4.2v2.9h-12.1v-2.9h4.3v-3.1h3.6V292.8z M410.4,302.9c0,3.5-2.3,6-5.6,6s-5.6-2.5-5.6-6
		c0-3.6,2.3-6.1,5.6-6.1S410.4,299.3,410.4,302.9z M407.2,302.9c0-1.9-1-3-2.4-3s-2.4,1.1-2.4,3c0,1.9,1,3,2.4,3
		S407.2,304.8,407.2,302.9z M420.6,289v25.4h-3.4v-12.1h-1.9v11.1h-3.4v-23.9h3.4v9.9h1.9V289H420.6z"/>
	<path d="M454.1,305.1c3.2-0.1,6.6-0.4,10.2-1l0.4,3c-4.2,0.9-8.3,1.1-12,1.1h-2.2v-16.8h3.6V305.1z M473.2,301.6h-3.6v12.8H466V289
		h3.6v9.6h3.6V301.6z"/>
	<path d="M497.9,291.6c0,7.6-2.9,14.1-11.3,18.4l-2-2.8c5.9-3,9-7.1,9.7-12.7h-8.3v-3H497.9z M508.2,301.7h-3.6v12.7H501V289h3.6
		v9.7h3.6V301.7z"/>
	<path d="M519.8,301.5c4.6-1.8,6.8-4.4,7.3-7.9h-6v-2.9h9.8c0,1.8-0.2,3.4-0.7,4.9h2.6v-6.1h3.4v13.6h-3.4v-4.6h-3.9
		c-1.5,2.4-3.9,4.2-7.3,5.7L519.8,301.5z M538.4,305.4c0,2.6,1.4,5.2,4.7,6.2l-1.8,2.7c-2.4-0.8-3.9-2.4-4.8-4.3
		c-0.9,2-2.3,3.6-4.6,4.5c-2.3-0.9-3.8-2.5-4.6-4.5c-0.9,1.9-2.4,3.4-4.7,4.2l-1.8-2.7c3.3-1.1,4.7-3.7,4.7-6.2v-1.1h3.5v1.1
		c0,2,0.8,4.2,2.8,5.6c2.1-1.5,2.9-3.7,2.9-5.6v-1.1h3.6V305.4z M541.4,303.5H538V289h3.4V303.5z"/>
	<path d="M577.7,300.1v2.9h-22.9v-2.9H577.7z M575.3,298.9c-4.3-0.5-7.4-2.3-9-4.7c-1.6,2.4-4.7,4.2-9.1,4.7l-1.3-2.8
		c5.7-0.7,8.5-3.5,8.5-6.1v-0.8h3.8v0.8c0,2.6,2.8,5.4,8.5,6.1L575.3,298.9z M571.3,304.2h3.6v9.9h-17.4v-9.9h3.6v2.1h10.2V304.2z
		 M571.3,309.1h-10.2v2.2h10.2V309.1z"/>
	<path d="M594.8,305c3.3-0.1,6.9-0.4,10.7-1.1l0.4,3c-4.3,0.9-8.5,1.2-12.4,1.2h-2.3v-16.7h3.6V305z M611,289v25.4h-3.6V289H611z"/>
	<path d="M629.5,305.3c3.6-0.1,6.6-0.2,9.9-0.8l0.4,3c-3.8,0.7-7.3,0.8-11.7,0.8h-2.2v-17h11.9v3h-8.2V305.3z M648.4,301.4h-3.7
		v13.1h-3.6V289h3.6v9.4h3.7V301.4z"/>
	<path d="M660.6,309.8c0-1.5,1.1-2.6,2.5-2.6c1.5,0,2.5,1.2,2.5,2.6c0,1.5-1.1,2.6-2.5,2.6C661.7,312.4,660.6,311.3,660.6,309.8z"/>
</g>
</svg>
