<?xml version="1.0" encoding="utf-8"?>
<!-- Generator: Adobe Illustrator 25.2.0, SVG Export Plug-In . SVG Version: 6.00 Build 0)  -->
<svg version="1.1" id="レイヤー_1" xmlns="http://www.w3.org/2000/svg" xmlns:xlink="http://www.w3.org/1999/xlink" x="0px"
	 y="0px" viewBox="0 0 1084.5 259.3" style="enable-background:new 0 0 1084.5 259.3;" xml:space="preserve">
<style type="text/css">
	.st0{fill:#F7BA00;}
</style>
<g>
	<path class="st0" d="M16.7,42.8h33.4v16.7H16.7v25h50.1v16.7H0V1h66.8v16.7H16.7V42.8z"/>
	<path class="st0" d="M97.3,101.2H80.6V1h16.7l20.9,61.2L139.1,1h16.7v100.2h-16.7V48.8l-12.5,35.7h-16.7L97.3,48.8V101.2z"/>
	<path class="st0" d="M237.5,34.4c0,18.3-14.8,33.4-33.4,33.4h-16.7v33.4h-16.7V1h33.4C222.7,1,237.5,15.8,237.5,34.4z M220.8,34.4
		c0-9.2-7.5-16.7-16.7-16.7h-16.7v33.4h16.7C213.4,51.1,220.8,43.6,220.8,34.4z"/>
	<path class="st0" d="M282.8,0c18.6,0,33.4,14.8,33.4,33.4v35.4c0,18.3-14.8,33.4-33.4,33.4c-18.3,0-33.4-15.1-33.4-33.4V33.4
		C249.4,14.8,264.5,0,282.8,0z M282.8,16.7c-9.2,0-16.7,7.5-16.7,16.7v35.4c0,9.2,7.5,16.7,16.7,16.7s16.7-7.5,16.7-16.7V33.4
		C299.5,24.2,292,16.7,282.8,16.7z"/>
	<path class="st0" d="M354.3,74L371,1h16.7l16.7,73l16.7-73h16.7l-25.1,100.2h-16.7l-16.7-72.8l-16.7,72.8H346L320.9,1h16.7
		L354.3,74z"/>
	<path class="st0" d="M465,42.8h33.4v16.7H465v25h50.1v16.7h-66.8V1h66.8v16.7H465V42.8z"/>
	<path class="st0" d="M594.6,34.4c0,12.7-7.1,24.2-18.4,29.9l18.4,36.9h-16.7l-16.7-33.4h-16.7v33.4h-16.7V1h33.4
		C579.2,1,594.6,15.3,594.6,34.4z M577.9,34.4c0-9.8-7.5-16.7-16.7-16.7h-16.7v33.4h16.7C570.4,51.1,577.9,43.6,577.9,34.4z"/>
	<path class="st0" d="M622.2,101.2h-16.7V1h16.7V101.2z"/>
	<path class="st0" d="M687.6,67.8V1h16.7v100.2h-16.7l-33.4-66.8v66.8h-16.7V1h16.7L687.6,67.8z"/>
	<path class="st0" d="M750.5,16.7c-9.2,0-16.7,7.5-16.7,16.7v35.4c0,9.2,7.5,16.7,16.7,16.7c9.8,0,16.7-7.3,16.7-17.7h-17.1V51.1
		h33.8v16.7c0,19.6-14.4,34.4-33.4,34.4c-18.3,0-33.4-15.1-33.4-33.4V33.4c0-18.6,15.1-33.4,33.4-33.4c15.3,0,28.4,10.1,32.2,24.8
		c0.7,2.9,1.2,6.3,1.2,8.6h-16.7C767.2,23.6,760.3,16.7,750.5,16.7z"/>
	<path class="st0" d="M34,231l16.7-73h16.7l16.7,73l16.7-73h16.7L92.4,258.2H75.7L59,185.4l-16.7,72.8H25.6L0.6,158h16.7L34,231z"/>
	<path class="st0" d="M155.8,157c18.6,0,33.4,14.8,33.4,33.4v35.4c0,18.3-14.8,33.4-33.4,33.4c-18.3,0-33.4-15.1-33.4-33.4v-35.4
		C122.4,171.9,137.5,157,155.8,157z M155.8,173.7c-9.2,0-16.7,7.5-16.7,16.7v35.4c0,9.2,7.5,16.7,16.7,16.7s16.7-7.5,16.7-16.7
		v-35.4C172.5,181.2,165,173.7,155.8,173.7z"/>
	<path class="st0" d="M219.8,258.2h-16.7V158h16.7l20.9,61.2l20.9-61.2h16.7v100.2h-16.7v-52.4l-12.5,35.7h-16.7l-12.5-35.7V258.2z"
		/>
	<path class="st0" d="M310.3,199.8h33.4v16.7h-33.4v25.1h50.1v16.7h-66.8V158h66.8v16.7h-50.1V199.8z"/>
	<path class="st0" d="M423.1,224.8V158h16.7v100.2h-16.7l-33.4-66.8v66.8H373V158h16.7L423.1,224.8z"/>
</g>
</svg>
