<svg xmlns="http://www.w3.org/2000/svg" viewBox="0 0 690 690"><defs><style>.cls-1{fill:red;}.cls-2{fill:#fff;}.cls-3{fill:none;stroke:#666;stroke-miterlimit:10;}.cls-4{fill:#386ab2;}</style></defs><g id="レイヤー_2" data-name="レイヤー 2"><g id="レイヤー_1-2" data-name="レイヤー 1"><path class="cls-1" d="M688,2V688H2V2H688m2-2H0V690H690V0Z"/><path d="M67.23,407.09a4.69,4.69,0,0,0,9.37,0v-14.2h2.31v14.2a7,7,0,0,1-14,0v-14.2h2.31Z"/><path d="M96,409.43V392.89h2.31v21H96l-9.36-16.55v16.55H84.33v-21h2.31Z"/><path d="M106,402.2h9.37v-9.31h2.31v21h-2.31v-9.36H106v9.36h-2.31v-21H106Z"/><path d="M129.51,395a4.66,4.66,0,0,0-4.68,4.68v7.41a4.71,4.71,0,0,0,4.68,4.68,4.58,4.58,0,0,0,4.65-4.68h2.34a7.56,7.56,0,0,1-.24,1.81,7,7,0,0,1-13.74-1.81v-7.41a7,7,0,0,1,13.74-1.81,7.64,7.64,0,0,1,.24,1.81h-2.34A4.59,4.59,0,0,0,129.51,395Z"/><path d="M152.81,413.87l-3.95-7.93h-5.2v7.93h-2.31v-21h7.45a6.52,6.52,0,0,1,2.38,12.6l4.16,8.38ZM153,399.4a4.24,4.24,0,0,0-4.23-4.2h-5.14v8.43h5.14A4.25,4.25,0,0,0,153,399.4Z"/><path d="M162.12,413.87l-2.52,2.52v-5h2.52Z"/><path d="M184.69,414a5.7,5.7,0,0,1-5.69-5.7v-3.78a5.68,5.68,0,1,1,11.36,0v3.78A5.66,5.66,0,0,1,184.69,414Zm0-2.13a3.59,3.59,0,0,0,3.54-3.57v-3.78a3.55,3.55,0,1,0-7.1,0v3.78A3.61,3.61,0,0,0,184.69,411.89Z"/><path d="M204.1,413.86v-1.38a5,5,0,0,1-3.53,1.38,5.69,5.69,0,0,1-5.7-5.66V399H197v9.2a3.55,3.55,0,0,0,7.1,0V399h2.13v14.86Z"/><path d="M213.3,399v1.38a5,5,0,0,1,3.53-1.38,5.79,5.79,0,0,1,4.08,1.68l-1.54,1.57a3.3,3.3,0,0,0-2.54-1.12,3.58,3.58,0,0,0-3.53,3.56v9.18h-2.12V399Z"/><path d="M242.61,420a5.54,5.54,0,0,1-4-1.68L240,416.7a3.55,3.55,0,0,0,6.16-2.42v-1.8a5,5,0,0,1-3.56,1.38,5.69,5.69,0,0,1-5.69-5.69v-3.48a5.77,5.77,0,0,1,5.69-5.69,4.86,4.86,0,0,1,3.56,1.38V399h2.11v15.28A5.7,5.7,0,0,1,242.61,420Zm0-18.84a3.61,3.61,0,0,0-3.56,3.56v3.48a3.56,3.56,0,1,0,7.12,0v-3.48A3.61,3.61,0,0,0,242.61,401.13Z"/><path d="M257.1,411.73H258v2.13h-.87a3.85,3.85,0,0,1-3.88-3.88V392.89h2.13V410A1.75,1.75,0,0,0,257.1,411.73Z"/><path d="M266.86,414a5.7,5.7,0,0,1-5.69-5.7v-3.78a5.68,5.68,0,1,1,11.35,0v3.78A5.65,5.65,0,0,1,266.86,414Zm0-2.13a3.59,3.59,0,0,0,3.54-3.57v-3.78a3.56,3.56,0,1,0-7.11,0v3.78A3.62,3.62,0,0,0,266.86,411.89Z"/><path d="M279.12,392.89v7.49a5,5,0,0,1,3.56-1.38,5.69,5.69,0,0,1,5.69,5.69v3.51a5.69,5.69,0,0,1-5.69,5.66,5,5,0,0,1-3.56-1.38v1.38H277v-21Zm3.56,18.84a3.59,3.59,0,0,0,3.57-3.53v-3.51a3.57,3.57,0,0,0-7.13,0v3.51A3.58,3.58,0,0,0,282.68,411.73Z"/><path d="M298,401a3.57,3.57,0,0,0-3.26,2.22l-2-.82a5.68,5.68,0,0,1,10.93,2.19v9.3h-2.15V412a4.21,4.21,0,0,1-3.57,1.83h-1.27a4.37,4.37,0,0,1,0-8.73h4.87v-.57A3.63,3.63,0,0,0,298,401Zm-3.54,8.53a2.23,2.23,0,0,0,2.24,2.23H298c2.05,0,3.6-1.93,3.6-4.47h-4.87A2.24,2.24,0,0,0,294.48,409.5Z"/><path d="M312.51,411.73h.88v2.13h-.88a3.85,3.85,0,0,1-3.88-3.88V392.89h2.13V410A1.75,1.75,0,0,0,312.51,411.73Z"/><path d="M331.35,400.38a5.06,5.06,0,0,1,3.56-1.38,5.7,5.7,0,0,1,5.7,5.69v3.48a5.7,5.7,0,0,1-5.7,5.69,5.06,5.06,0,0,1-3.56-1.38V420h-2.1V399h2.1Zm3.56.75a3.61,3.61,0,0,0-3.56,3.56v3.48a3.57,3.57,0,0,0,7.13,0v-3.48A3.61,3.61,0,0,0,334.91,401.13Z"/><path d="M350.36,401a3.59,3.59,0,0,0-3.27,2.22l-2-.82a5.68,5.68,0,0,1,10.94,2.19v9.3h-2.16V412a4.2,4.2,0,0,1-3.56,1.83h-1.27a4.37,4.37,0,1,1,0-8.73h4.86v-.57A3.62,3.62,0,0,0,350.36,401Zm-3.54,8.53a2.23,2.23,0,0,0,2.24,2.23h1.27c2.05,0,3.59-1.93,3.59-4.47h-4.86A2.24,2.24,0,0,0,346.82,409.5Z"/><path d="M363,399v1.38A5,5,0,0,1,366.5,399a5.79,5.79,0,0,1,4.07,1.68L369,402.25a3.29,3.29,0,0,0-2.53-1.12,3.58,3.58,0,0,0-3.53,3.56v9.18h-2.13V399Z"/><path d="M379.86,411.73h.54v2.13h-.56A3.85,3.85,0,0,1,376,410v-8.85h-1.75V399H376v-6.11h2.13V399h3v2.13h-3V410A1.74,1.74,0,0,0,379.86,411.73Z"/><path d="M387.76,399v1.38A5,5,0,0,1,391.3,399a5.69,5.69,0,0,1,5.69,5.69v9.18h-2.13v-9.18a3.55,3.55,0,1,0-7.1,0v9.18h-2.13V399Z"/><path d="M407.21,411.89a3.39,3.39,0,0,0,2.6-1.15l1.51,1.54a5.49,5.49,0,0,1-4.11,1.74,5.69,5.69,0,0,1-5.66-5.7v-3.77a5.68,5.68,0,1,1,11.36,0v2.14h-9.23v1.63A3.58,3.58,0,0,0,407.21,411.89Zm0-10.92a3.54,3.54,0,0,0-3.56,3.67h7.1A3.58,3.58,0,0,0,407.24,401Z"/><path d="M419.53,399v1.38a5,5,0,0,1,3.52-1.38,5.79,5.79,0,0,1,4.08,1.68l-1.54,1.57a3.3,3.3,0,0,0-2.54-1.12,3.57,3.57,0,0,0-3.52,3.56v9.18H417.4V399Z"/><path d="M433.66,413.87l-2.52,2.52v-5h2.52Z"/><path d="M453.08,399v1.38a5,5,0,0,1,3.54-1.38,5.69,5.69,0,0,1,5.69,5.69v9.18h-2.12v-9.18a3.56,3.56,0,1,0-7.11,0v9.18H451V399Z"/><path d="M472.53,411.89a3.39,3.39,0,0,0,2.6-1.15l1.51,1.54a5.46,5.46,0,0,1-4.11,1.74,5.69,5.69,0,0,1-5.66-5.7v-3.77a5.68,5.68,0,1,1,11.36,0v2.14H469v1.63A3.58,3.58,0,0,0,472.53,411.89Zm0-10.92a3.54,3.54,0,0,0-3.56,3.67h7.1A3.58,3.58,0,0,0,472.56,401Z"/><path d="M488,411.89a3.39,3.39,0,0,0,2.6-1.15l1.51,1.54A5.47,5.47,0,0,1,488,414a5.69,5.69,0,0,1-5.66-5.7v-3.77a5.68,5.68,0,1,1,11.36,0v2.14h-9.23v1.63A3.58,3.58,0,0,0,488,411.89ZM488,401a3.54,3.54,0,0,0-3.56,3.67h7.1A3.58,3.58,0,0,0,488,401Z"/><path d="M506.91,412.48a5,5,0,0,1-3.56,1.38,5.69,5.69,0,0,1-5.69-5.66v-3.51a5.69,5.69,0,0,1,5.69-5.69,5,5,0,0,1,3.56,1.38v-7.49H509v21h-2.11Zm-3.56-.75a3.58,3.58,0,0,0,3.56-3.53v-3.51a3.56,3.56,0,1,0-7.12,0v3.51A3.58,3.58,0,0,0,503.35,411.73Z"/><path d="M517.91,411.94a2.1,2.1,0,0,0,2.14-2.11,2.56,2.56,0,0,0-1.84-2.33l-1.57-.69c-2.4-1.06-3.33-2.48-3.33-4.05a4.06,4.06,0,0,1,4.27-3.91,5.37,5.37,0,0,1,4.92,3.06l-1.94.91a3.47,3.47,0,0,0-3-1.85,2,2,0,0,0-2.11,1.85c0,.69.48,1.39,1.93,2l1.74.79c2.15.94,3.11,2.2,3.11,4.17a4.18,4.18,0,0,1-4.34,4.22A5.38,5.38,0,0,1,513,411l1.92-.94A3.72,3.72,0,0,0,517.91,411.94Z"/><path d="M548.21,413.86v-1.38a5,5,0,0,1-3.54,1.38A5.69,5.69,0,0,1,539,408.2V399h2.12v9.2a3.56,3.56,0,0,0,7.11,0V399h2.12v14.86Z"/><path d="M557.41,399v1.38a5,5,0,0,1,3.53-1.38,5.79,5.79,0,0,1,4.07,1.68l-1.54,1.57a3.28,3.28,0,0,0-2.53-1.12,3.58,3.58,0,0,0-3.53,3.56v9.18h-2.13V399Z"/><path d="M574.33,420a5.54,5.54,0,0,1-4-1.68l1.44-1.59a3.55,3.55,0,0,0,6.16-2.42v-1.8a5,5,0,0,1-3.56,1.38,5.69,5.69,0,0,1-5.69-5.69v-3.48a5.77,5.77,0,0,1,5.69-5.69,4.86,4.86,0,0,1,3.56,1.38V399H580v15.28A5.7,5.7,0,0,1,574.33,420Zm0-18.84a3.61,3.61,0,0,0-3.56,3.56v3.48a3.56,3.56,0,1,0,7.12,0v-3.48A3.61,3.61,0,0,0,574.33,401.13Z"/><path d="M590.08,411.89a3.39,3.39,0,0,0,2.6-1.15l1.51,1.54a5.46,5.46,0,0,1-4.11,1.74,5.69,5.69,0,0,1-5.66-5.7v-3.77a5.68,5.68,0,1,1,11.36,0v2.14h-9.23v1.63A3.58,3.58,0,0,0,590.08,411.89Zm0-10.92a3.55,3.55,0,0,0-3.57,3.67h7.1A3.57,3.57,0,0,0,590.12,401Z"/><path d="M602.4,399v1.38a5,5,0,0,1,3.53-1.38,5.7,5.7,0,0,1,5.7,5.69v9.18H609.5v-9.18a3.55,3.55,0,1,0-7.1,0v9.18h-2.13V399Z"/><path d="M621.8,411.73h.54v2.13h-.56A3.85,3.85,0,0,1,617.9,410v-8.85h-1.75V399h1.75v-6.11H620V399h3v2.13h-3V410A1.73,1.73,0,0,0,621.8,411.73Z"/><path d="M127.81,434.89v7.49a5,5,0,0,1,3.56-1.38,5.7,5.7,0,0,1,5.67,5.69v9.18h-2.13v-9.18a3.55,3.55,0,1,0-7.1,0v9.18h-2.13v-21Z"/><path d="M147.25,453.89a3.39,3.39,0,0,0,2.6-1.15l1.51,1.54a5.46,5.46,0,0,1-4.11,1.74,5.69,5.69,0,0,1-5.66-5.7v-3.77a5.68,5.68,0,1,1,11.36,0v2.14h-9.23v1.63A3.58,3.58,0,0,0,147.25,453.89Zm0-10.92a3.55,3.55,0,0,0-3.57,3.67h7.1A3.57,3.57,0,0,0,147.29,443Z"/><path d="M161.45,453.73h.88v2.13h-.88a3.85,3.85,0,0,1-3.88-3.88V434.89h2.13V452A1.75,1.75,0,0,0,161.45,453.73Z"/><path d="M167.91,442.38a5,5,0,0,1,3.56-1.38,5.69,5.69,0,0,1,5.69,5.69v3.48a5.69,5.69,0,0,1-5.69,5.69,5,5,0,0,1-3.56-1.38V462H165.8V441h2.11Zm3.56.75a3.61,3.61,0,0,0-3.56,3.56v3.48a3.56,3.56,0,1,0,7.12,0v-3.48A3.61,3.61,0,0,0,171.47,443.13Z"/><path d="M199.27,453.73h.54v2.13h-.56a3.85,3.85,0,0,1-3.88-3.88v-8.85h-1.75V441h1.75v-6.11h2.13V441h3v2.13h-3V452A1.73,1.73,0,0,0,199.27,453.73Z"/><path d="M210.32,456a5.7,5.7,0,0,1-5.7-5.7v-3.78a5.68,5.68,0,1,1,11.36,0v3.78A5.65,5.65,0,0,1,210.32,456Zm0-2.13a3.59,3.59,0,0,0,3.54-3.57v-3.78a3.56,3.56,0,1,0-7.11,0v3.78A3.62,3.62,0,0,0,210.32,453.89Z"/><path d="M236.88,453.94a2.1,2.1,0,0,0,2.14-2.11,2.56,2.56,0,0,0-1.84-2.33l-1.56-.69c-2.41-1.06-3.33-2.48-3.33-4.05a4,4,0,0,1,4.26-3.91,5.37,5.37,0,0,1,4.92,3.06l-1.93.91a3.48,3.48,0,0,0-3-1.85,2,2,0,0,0-2.11,1.85c0,.69.49,1.39,1.93,2l1.75.79c2.14.94,3.11,2.2,3.11,4.17a4.19,4.19,0,0,1-4.35,4.22A5.39,5.39,0,0,1,232,453l1.93-.94A3.7,3.7,0,0,0,236.88,453.94Z"/><path d="M254.8,455.86v-1.38a5,5,0,0,1-3.54,1.38,5.69,5.69,0,0,1-5.69-5.66V441h2.13v9.2a3.55,3.55,0,0,0,7.1,0V441h2.13v14.86Z"/><path d="M263.84,442.38a5.08,5.08,0,0,1,3.57-1.38,5.69,5.69,0,0,1,5.69,5.69v3.48a5.69,5.69,0,0,1-5.69,5.69,5.08,5.08,0,0,1-3.57-1.38V462h-2.1V441h2.1Zm3.57.75a3.61,3.61,0,0,0-3.57,3.56v3.48a3.57,3.57,0,0,0,7.13,0v-3.48A3.61,3.61,0,0,0,267.41,443.13Z"/><path d="M279.57,442.38a5.08,5.08,0,0,1,3.57-1.38,5.69,5.69,0,0,1,5.69,5.69v3.48a5.69,5.69,0,0,1-5.69,5.69,5.08,5.08,0,0,1-3.57-1.38V462h-2.1V441h2.1Zm3.57.75a3.62,3.62,0,0,0-3.57,3.56v3.48a3.57,3.57,0,0,0,7.13,0v-3.48A3.61,3.61,0,0,0,283.14,443.13Z"/><path d="M298.61,456a5.7,5.7,0,0,1-5.69-5.7v-3.78a5.68,5.68,0,1,1,11.35,0v3.78A5.65,5.65,0,0,1,298.61,456Zm0-2.13a3.59,3.59,0,0,0,3.54-3.57v-3.78a3.56,3.56,0,1,0-7.11,0v3.78A3.62,3.62,0,0,0,298.61,453.89Z"/><path d="M310.92,441v1.38a5,5,0,0,1,3.53-1.38,5.77,5.77,0,0,1,4.07,1.68L317,444.25a3.28,3.28,0,0,0-2.53-1.12,3.58,3.58,0,0,0-3.53,3.56v9.18h-2.13V441Z"/><path d="M327.81,453.73h.55v2.13h-.56a3.85,3.85,0,0,1-3.88-3.88v-8.85h-1.75V441h1.75v-6.11h2.13V441h3v2.13h-3V452A1.73,1.73,0,0,0,327.81,453.73Z"/><path d="M348.44,437.41h-2.52v-2.52h2.52Zm-.21,18.46H346.1V441h2.13Z"/><path d="M358.57,453.73h.54v2.13h-.56a3.85,3.85,0,0,1-3.88-3.88v-8.85h-1.75V441h1.75v-6.11h2.13V441h3v2.13h-3V452A1.73,1.73,0,0,0,358.57,453.73Z"/><path d="M368.34,453.94a2.1,2.1,0,0,0,2.14-2.11,2.56,2.56,0,0,0-1.84-2.33l-1.56-.69c-2.41-1.06-3.34-2.48-3.34-4.05a4.06,4.06,0,0,1,4.27-3.91,5.37,5.37,0,0,1,4.92,3.06l-1.94.91a3.47,3.47,0,0,0-3-1.85,2,2,0,0,0-2.11,1.85c0,.69.48,1.39,1.93,2l1.75.79c2.14.94,3.11,2.2,3.11,4.17a4.19,4.19,0,0,1-4.35,4.22,5.38,5.38,0,0,1-4.9-3.07l1.92-.94A3.72,3.72,0,0,0,368.34,453.94Z"/><path d="M391.54,434.89v7.49A5.06,5.06,0,0,1,395.1,441a5.69,5.69,0,0,1,5.67,5.69v9.18h-2.13v-9.18a3.55,3.55,0,1,0-7.1,0v9.18h-2.13v-21Z"/><path d="M414.94,455.86v-1.38a5,5,0,0,1-3.53,1.38,5.69,5.69,0,0,1-5.7-5.66V441h2.13v9.2a3.55,3.55,0,0,0,7.1,0V441h2.13v14.86Z"/><path d="M427.65,441a5.74,5.74,0,0,1,4.65,2.37,5.62,5.62,0,0,1,4.64-2.37,5.69,5.69,0,0,1,5.66,5.69v9.18h-2.1v-9.18a3.58,3.58,0,1,0-7.15,0v9.18h-2.1v-9.24a3.58,3.58,0,0,0-7.16.06v9.18H422V441h2.1v1.44A5,5,0,0,1,427.65,441Z"/><path d="M452.77,443a3.59,3.59,0,0,0-3.27,2.22l-2-.82a5.68,5.68,0,0,1,10.94,2.19v9.3H456.3V454a4.18,4.18,0,0,1-3.56,1.83h-1.27a4.37,4.37,0,1,1,0-8.73h4.86v-.57A3.62,3.62,0,0,0,452.77,443Zm-3.54,8.53a2.23,2.23,0,0,0,2.24,2.23h1.27c2.05,0,3.59-1.93,3.59-4.47h-4.86A2.24,2.24,0,0,0,449.23,451.5Z"/><path d="M465.38,441v1.38a5,5,0,0,1,3.53-1.38,5.7,5.7,0,0,1,5.7,5.69v9.18h-2.13v-9.18a3.55,3.55,0,1,0-7.1,0v9.18h-2.13V441Z"/><path d="M482,437.41H479.5v-2.52H482Zm-.21,18.46h-2.13V441h2.13Z"/><path d="M492.15,453.73h.55v2.13h-.57a3.85,3.85,0,0,1-3.88-3.88v-8.85h-1.74V441h1.74v-6.11h2.13V441h3v2.13h-3V452A1.74,1.74,0,0,0,492.15,453.73Z"/><path d="M503.17,443a3.57,3.57,0,0,0-3.26,2.22l-2-.82a5.68,5.68,0,0,1,10.94,2.19v9.3h-2.16V454a4.21,4.21,0,0,1-3.57,1.83h-1.27a4.37,4.37,0,0,1,0-8.73h4.87v-.57A3.62,3.62,0,0,0,503.17,443Zm-3.53,8.53a2.22,2.22,0,0,0,2.23,2.23h1.27c2.06,0,3.6-1.93,3.6-4.47h-4.87A2.23,2.23,0,0,0,499.64,451.5Z"/><path d="M515.78,441v1.38a5,5,0,0,1,3.53-1.38,5.75,5.75,0,0,1,4.07,1.68l-1.53,1.57a3.3,3.3,0,0,0-2.54-1.12,3.58,3.58,0,0,0-3.53,3.56v9.18h-2.12V441Z"/><path d="M529.92,437.41H527.4v-2.52h2.52Zm-.21,18.46h-2.13V441h2.13Z"/><path d="M540.08,443a3.57,3.57,0,0,0-3.26,2.22l-2-.82a5.68,5.68,0,0,1,10.93,2.19v9.3h-2.15V454a4.21,4.21,0,0,1-3.57,1.83h-1.27a4.37,4.37,0,0,1,0-8.73h4.87v-.57A3.63,3.63,0,0,0,540.08,443Zm-3.54,8.53a2.23,2.23,0,0,0,2.24,2.23h1.27c2.05,0,3.6-1.93,3.6-4.47h-4.87A2.24,2.24,0,0,0,536.54,451.5Z"/><path d="M552.69,441v1.38a5,5,0,0,1,3.54-1.38,5.69,5.69,0,0,1,5.69,5.69v9.18h-2.13v-9.18a3.55,3.55,0,1,0-7.1,0v9.18h-2.13V441Z"/><path d="M185.88,485a3.57,3.57,0,0,0-3.26,2.22l-2-.82a5.68,5.68,0,0,1,10.94,2.19v9.3h-2.16V496a4.18,4.18,0,0,1-3.56,1.83h-1.27a4.37,4.37,0,1,1,0-8.73h4.86v-.57A3.62,3.62,0,0,0,185.88,485Zm-3.54,8.53a2.23,2.23,0,0,0,2.24,2.23h1.27c2.05,0,3.59-1.93,3.59-4.47h-4.86A2.24,2.24,0,0,0,182.34,493.5Z"/><path d="M198.83,479.41h-2.52v-2.52h2.52Zm-.21,18.46h-2.13V483h2.13Z"/><path d="M212.47,496.48a5,5,0,0,1-3.56,1.38,5.69,5.69,0,0,1-5.69-5.66v-3.51a5.69,5.69,0,0,1,5.69-5.69,5,5,0,0,1,3.56,1.38v-7.49h2.11v21h-2.11Zm-3.56-.75a3.58,3.58,0,0,0,3.56-3.53v-3.51a3.56,3.56,0,1,0-7.12,0v3.51A3.58,3.58,0,0,0,208.91,495.73Z"/><path d="M233.82,484.38a5.08,5.08,0,0,1,3.57-1.38,5.69,5.69,0,0,1,5.69,5.69v3.48a5.69,5.69,0,0,1-5.69,5.69,5.08,5.08,0,0,1-3.57-1.38V504h-2.1V483h2.1Zm3.57.75a3.61,3.61,0,0,0-3.57,3.56v3.48a3.57,3.57,0,0,0,7.13,0v-3.48A3.61,3.61,0,0,0,237.39,485.13Z"/><path d="M249.71,483v1.38a5,5,0,0,1,3.53-1.38,5.77,5.77,0,0,1,4.07,1.68l-1.54,1.57a3.28,3.28,0,0,0-2.53-1.12,3.58,3.58,0,0,0-3.53,3.56v9.18h-2.13V483Z"/><path d="M266.66,498a5.7,5.7,0,0,1-5.69-5.7v-3.78a5.68,5.68,0,1,1,11.35,0v3.78A5.65,5.65,0,0,1,266.66,498Zm0-2.13a3.59,3.59,0,0,0,3.54-3.57v-3.78a3.56,3.56,0,1,0-7.11,0v3.78A3.62,3.62,0,0,0,266.66,495.89Z"/><path d="M282.09,504a5.54,5.54,0,0,1-4-1.68l1.44-1.59a3.58,3.58,0,0,0,2.6,1.14,3.62,3.62,0,0,0,3.57-3.56v-1.8a5.08,5.08,0,0,1-3.57,1.38,5.69,5.69,0,0,1-5.69-5.69v-3.48a5.77,5.77,0,0,1,5.69-5.69,4.91,4.91,0,0,1,3.57,1.38V483h2.1v15.28A5.7,5.7,0,0,1,282.09,504Zm0-18.84a3.61,3.61,0,0,0-3.56,3.56v3.48a3.57,3.57,0,0,0,7.13,0v-3.48A3.62,3.62,0,0,0,282.09,485.13Z"/><path d="M294.7,483v1.38a5,5,0,0,1,3.53-1.38,5.77,5.77,0,0,1,4.07,1.68l-1.54,1.57a3.28,3.28,0,0,0-2.53-1.12,3.58,3.58,0,0,0-3.53,3.56v9.18h-2.13V483Z"/><path d="M311.62,485a3.57,3.57,0,0,0-3.26,2.22l-2-.82a5.68,5.68,0,0,1,10.93,2.19v9.3h-2.15V496a4.21,4.21,0,0,1-3.57,1.83h-1.27a4.37,4.37,0,0,1,0-8.73h4.87v-.57A3.63,3.63,0,0,0,311.62,485Zm-3.54,8.53a2.23,2.23,0,0,0,2.24,2.23h1.27c2.05,0,3.6-1.93,3.6-4.47h-4.87A2.24,2.24,0,0,0,308.08,493.5Z"/><path d="M327.74,483a5.73,5.73,0,0,1,4.64,2.37A5.64,5.64,0,0,1,337,483a5.7,5.7,0,0,1,5.66,5.69v9.18h-2.1v-9.18a3.58,3.58,0,1,0-7.16,0v9.18h-2.1v-9.24a3.58,3.58,0,0,0-7.15.06v9.18h-2.1V483h2.1v1.44A4.92,4.92,0,0,1,327.74,483Z"/><path d="M351.6,495.94a2.1,2.1,0,0,0,2.14-2.11,2.56,2.56,0,0,0-1.83-2.33l-1.57-.69c-2.4-1.06-3.33-2.48-3.33-4.05a4.05,4.05,0,0,1,4.26-3.91,5.37,5.37,0,0,1,4.92,3.06l-1.93.91a3.48,3.48,0,0,0-3-1.85,2,2,0,0,0-2.1,1.85c0,.69.48,1.39,1.92,2l1.75.79c2.14.94,3.11,2.2,3.11,4.17a4.19,4.19,0,0,1-4.35,4.22,5.4,5.4,0,0,1-4.9-3.07l1.93-.94A3.71,3.71,0,0,0,351.6,495.94Z"/><path d="M374,497.87V485.62h-1.75v-2.13H374v-2.72a3.85,3.85,0,0,1,3.89-3.88h1.75V479h-1.76a1.71,1.71,0,0,0-1.75,1.75v2.72h3v2.13h-3v12.25Z"/><path d="M389.22,498a5.7,5.7,0,0,1-5.7-5.7v-3.78a5.68,5.68,0,1,1,11.36,0v3.78A5.65,5.65,0,0,1,389.22,498Zm0-2.13a3.58,3.58,0,0,0,3.53-3.57v-3.78a3.55,3.55,0,1,0-7.1,0v3.78A3.61,3.61,0,0,0,389.22,495.89Z"/><path d="M401.53,483v1.38a5,5,0,0,1,3.52-1.38,5.79,5.79,0,0,1,4.08,1.68l-1.54,1.57a3.3,3.3,0,0,0-2.54-1.12,3.57,3.57,0,0,0-3.52,3.56v9.18H399.4V483Z"/><path d="M427.55,484.38a5.08,5.08,0,0,1,3.57-1.38,5.69,5.69,0,0,1,5.69,5.69v3.48a5.69,5.69,0,0,1-5.69,5.69,5.08,5.08,0,0,1-3.57-1.38V504h-2.1V483h2.1Zm3.57.75a3.61,3.61,0,0,0-3.57,3.56v3.48a3.57,3.57,0,0,0,7.13,0v-3.48A3.61,3.61,0,0,0,431.12,485.13Z"/><path d="M446.59,495.89a3.39,3.39,0,0,0,2.59-1.15l1.51,1.54a5.45,5.45,0,0,1-4.1,1.74,5.69,5.69,0,0,1-5.67-5.7v-3.77a5.68,5.68,0,1,1,11.36,0v2.14h-9.23v1.63A3.59,3.59,0,0,0,446.59,495.89Zm0-10.92a3.55,3.55,0,0,0-3.57,3.67h7.1A3.57,3.57,0,0,0,446.62,485Z"/><path d="M462.05,498a5.7,5.7,0,0,1-5.7-5.7v-3.78a5.68,5.68,0,1,1,11.36,0v3.78A5.65,5.65,0,0,1,462.05,498Zm0-2.13a3.58,3.58,0,0,0,3.53-3.57v-3.78a3.55,3.55,0,1,0-7.1,0v3.78A3.62,3.62,0,0,0,462.05,495.89Z"/><path d="M474.2,484.38a5.08,5.08,0,0,1,3.57-1.38,5.69,5.69,0,0,1,5.69,5.69v3.48a5.69,5.69,0,0,1-5.69,5.69,5.08,5.08,0,0,1-3.57-1.38V504h-2.1V483h2.1Zm3.57.75a3.61,3.61,0,0,0-3.57,3.56v3.48a3.57,3.57,0,0,0,7.13,0v-3.48A3.61,3.61,0,0,0,477.77,485.13Z"/><path d="M492,495.73h.87v2.13H492a3.85,3.85,0,0,1-3.88-3.88V476.89h2.13V494A1.75,1.75,0,0,0,492,495.73Z"/><path d="M501.73,495.89a3.42,3.42,0,0,0,2.6-1.15l1.5,1.54a5.45,5.45,0,0,1-4.1,1.74,5.69,5.69,0,0,1-5.67-5.7v-3.77a5.68,5.68,0,1,1,11.36,0v2.14h-9.23v1.63A3.59,3.59,0,0,0,501.73,495.89Zm0-10.92a3.55,3.55,0,0,0-3.57,3.67h7.1A3.57,3.57,0,0,0,501.76,485Z"/><path d="M71,521.41H68.44v-2.52H71Zm-.21,18.46H68.62V525h2.13Z"/><path d="M78,525v1.38A5,5,0,0,1,81.53,525a5.7,5.7,0,0,1,5.7,5.69v9.18H85.1v-9.18a3.55,3.55,0,1,0-7.1,0v9.18H75.87V525Z"/><path d="M107.07,533.09a4.69,4.69,0,0,0,9.37,0v-14.2h2.31v14.2a7,7,0,0,1-14,0v-14.2h2.31Z"/><path d="M133.66,539.87l-4.1-7.39-3.47,4v3.35H124v-21h2.13v14.53L133.3,525H136l-5,5.81,5.19,9Z"/><path d="M142.37,525v1.38a5,5,0,0,1,3.52-1.38,5.79,5.79,0,0,1,4.08,1.68l-1.54,1.57a3.3,3.3,0,0,0-2.54-1.12,3.57,3.57,0,0,0-3.52,3.56v9.18h-2.13V525Z"/><path d="M159.29,527a3.59,3.59,0,0,0-3.27,2.22l-2-.82A5.68,5.68,0,0,1,165,530.56v9.3h-2.16V538a4.18,4.18,0,0,1-3.56,1.83H158a4.37,4.37,0,1,1,0-8.73h4.86v-.57A3.62,3.62,0,0,0,159.29,527Zm-3.54,8.53a2.23,2.23,0,0,0,2.24,2.23h1.27c2.05,0,3.59-1.93,3.59-4.47H158A2.24,2.24,0,0,0,155.75,535.5Z"/><path d="M172.24,521.41h-2.52v-2.52h2.52ZM172,539.87H169.9V525H172Z"/><path d="M179.27,525v1.38a5,5,0,0,1,3.54-1.38,5.69,5.69,0,0,1,5.69,5.69v9.18h-2.12v-9.18a3.56,3.56,0,1,0-7.11,0v9.18h-2.13V525Z"/><path d="M198.72,537.89a3.39,3.39,0,0,0,2.6-1.15l1.51,1.54a5.49,5.49,0,0,1-4.11,1.74,5.69,5.69,0,0,1-5.66-5.7v-3.77a5.68,5.68,0,1,1,11.36,0v2.14h-9.23v1.63A3.58,3.58,0,0,0,198.72,537.89Zm0-10.92a3.54,3.54,0,0,0-3.56,3.67h7.1A3.58,3.58,0,0,0,198.75,527Z"/><path d="M226.54,527a3.57,3.57,0,0,0-3.26,2.22l-2-.82a5.68,5.68,0,0,1,10.94,2.19v9.3h-2.16V538a4.18,4.18,0,0,1-3.56,1.83h-1.27a4.37,4.37,0,1,1,0-8.73h4.86v-.57A3.62,3.62,0,0,0,226.54,527ZM223,535.5a2.23,2.23,0,0,0,2.24,2.23h1.27c2.05,0,3.59-1.93,3.59-4.47h-4.86A2.24,2.24,0,0,0,223,535.5Z"/><path d="M239.15,525v1.38a5,5,0,0,1,3.53-1.38,5.7,5.7,0,0,1,5.7,5.69v9.18h-2.13v-9.18a3.55,3.55,0,1,0-7.1,0v9.18H237V525Z"/><path d="M262.06,538.48a5,5,0,0,1-3.56,1.38,5.7,5.7,0,0,1-5.7-5.66v-3.51a5.7,5.7,0,0,1,5.7-5.69,5.06,5.06,0,0,1,3.56,1.38v-7.49h2.1v21h-2.1Zm-3.56-.75a3.58,3.58,0,0,0,3.56-3.53v-3.51a3.57,3.57,0,0,0-7.13,0v3.51A3.58,3.58,0,0,0,258.5,537.73Z"/><path d="M283.91,521.41h-2.52v-2.52h2.52Zm-.21,18.46h-2.13V525h2.13Z"/><path d="M294,537.73h.54v2.13H294a3.85,3.85,0,0,1-3.88-3.88v-8.85h-1.75V525h1.75v-6.11h2.13V525h3v2.13h-3V536A1.73,1.73,0,0,0,294,537.73Z"/><path d="M303.81,537.94a2.1,2.1,0,0,0,2.14-2.11,2.56,2.56,0,0,0-1.84-2.33l-1.57-.69c-2.4-1.06-3.33-2.48-3.33-4a4.06,4.06,0,0,1,4.27-3.91,5.37,5.37,0,0,1,4.92,3.06l-1.94.91a3.47,3.47,0,0,0-3-1.85,2,2,0,0,0-2.11,1.85c0,.69.48,1.39,1.93,2l1.74.79c2.15.94,3.11,2.2,3.11,4.17a4.18,4.18,0,0,1-4.34,4.22,5.38,5.38,0,0,1-4.9-3.07l1.92-.94A3.72,3.72,0,0,0,303.81,537.94Z"/><path d="M327,525v1.38a5,5,0,0,1,3.54-1.38,5.7,5.7,0,0,1,5.7,5.69v9.18h-2.13v-9.18a3.56,3.56,0,1,0-7.11,0v9.18h-2.12V525Z"/><path d="M346.45,537.89a3.39,3.39,0,0,0,2.6-1.15l1.51,1.54a5.46,5.46,0,0,1-4.11,1.74,5.69,5.69,0,0,1-5.66-5.7v-3.77a5.68,5.68,0,1,1,11.36,0v2.14h-9.23v1.63A3.58,3.58,0,0,0,346.45,537.89Zm0-10.92a3.54,3.54,0,0,0-3.56,3.67H350A3.58,3.58,0,0,0,346.48,527Z"/><path d="M359.11,521.41h-2.52v-2.52h2.52Zm-.21,18.46h-2.13V525h2.13Z"/><path d="M369.27,546a5.58,5.58,0,0,1-4-1.68l1.45-1.59a3.56,3.56,0,0,0,2.6,1.14,3.61,3.61,0,0,0,3.56-3.56v-1.8a5.08,5.08,0,0,1-3.56,1.38,5.7,5.7,0,0,1-5.7-5.69v-3.48a5.78,5.78,0,0,1,5.7-5.69,4.86,4.86,0,0,1,3.56,1.38V525h2.1v15.28A5.69,5.69,0,0,1,369.27,546Zm0-18.84a3.61,3.61,0,0,0-3.57,3.56v3.48a3.57,3.57,0,0,0,7.13,0v-3.48A3.61,3.61,0,0,0,369.27,527.13Z"/><path d="M381.88,518.89v7.49a5,5,0,0,1,3.56-1.38,5.69,5.69,0,0,1,5.66,5.69v9.18H389v-9.18a3.55,3.55,0,1,0-7.1,0v9.18h-2.13v-21Z"/><path d="M398.13,518.89v7.49a5,5,0,0,1,3.56-1.38,5.69,5.69,0,0,1,5.69,5.69v3.51a5.69,5.69,0,0,1-5.69,5.66,5,5,0,0,1-3.56-1.38v1.38H396v-21Zm3.56,18.84a3.58,3.58,0,0,0,3.56-3.53v-3.51a3.56,3.56,0,1,0-7.12,0v3.51A3.58,3.58,0,0,0,401.69,537.73Z"/><path d="M417.06,540a5.7,5.7,0,0,1-5.7-5.7v-3.78a5.68,5.68,0,1,1,11.36,0v3.78A5.65,5.65,0,0,1,417.06,540Zm0-2.13a3.58,3.58,0,0,0,3.53-3.57v-3.78a3.55,3.55,0,1,0-7.1,0v3.78A3.61,3.61,0,0,0,417.06,537.89Z"/><path d="M429.37,525v1.38A5,5,0,0,1,432.9,525a5.77,5.77,0,0,1,4.07,1.68l-1.54,1.57a3.28,3.28,0,0,0-2.53-1.12,3.58,3.58,0,0,0-3.53,3.56v9.18h-2.13V525Z"/><path d="M443.51,521.41H441v-2.52h2.52Zm-.21,18.46h-2.13V525h2.13Z"/><path d="M450.54,525v1.38a5,5,0,0,1,3.54-1.38,5.7,5.7,0,0,1,5.7,5.69v9.18h-2.13v-9.18a3.56,3.56,0,1,0-7.11,0v9.18h-2.12V525Z"/><path d="M470,546a5.54,5.54,0,0,1-4-1.68l1.44-1.59a3.55,3.55,0,0,0,6.16-2.42v-1.8a5,5,0,0,1-3.56,1.38,5.69,5.69,0,0,1-5.69-5.69v-3.48A5.77,5.77,0,0,1,470,525a4.86,4.86,0,0,1,3.56,1.38V525h2.11v15.28A5.7,5.7,0,0,1,470,546Zm0-18.84a3.61,3.61,0,0,0-3.56,3.56v3.48a3.56,3.56,0,0,0,7.12,0v-3.48A3.61,3.61,0,0,0,470,527.13Z"/><path d="M498.08,527a3.59,3.59,0,0,0-3.53,3.57v3.79a3.59,3.59,0,0,0,3.53,3.56,3.55,3.55,0,0,0,3.57-3.56h2.13a5.68,5.68,0,1,1-11.36,0v-3.79a5.68,5.68,0,1,1,11.36,0h-2.13A3.57,3.57,0,0,0,498.08,527Z"/><path d="M513.57,540a5.7,5.7,0,0,1-5.69-5.7v-3.78a5.68,5.68,0,1,1,11.36,0v3.78A5.66,5.66,0,0,1,513.57,540Zm0-2.13a3.59,3.59,0,0,0,3.54-3.57v-3.78a3.55,3.55,0,1,0-7.1,0v3.78A3.61,3.61,0,0,0,513.57,537.89Z"/><path d="M533,539.86v-1.38a5,5,0,0,1-3.53,1.38,5.69,5.69,0,0,1-5.7-5.66V525h2.13v9.2a3.55,3.55,0,0,0,7.1,0V525h2.13v14.86Z"/><path d="M542.18,525v1.38a5,5,0,0,1,3.54-1.38,5.69,5.69,0,0,1,5.69,5.69v9.18h-2.12v-9.18a3.56,3.56,0,1,0-7.11,0v9.18h-2.12V525Z"/><path d="M561.58,537.73h.55v2.13h-.57a3.84,3.84,0,0,1-3.87-3.88v-8.85h-1.75V525h1.75v-6.11h2.12V525h3v2.13h-3V536A1.74,1.74,0,0,0,561.58,537.73Z"/><path d="M569.48,525v1.38A5,5,0,0,1,573,525a5.75,5.75,0,0,1,4.07,1.68l-1.53,1.57a3.3,3.3,0,0,0-2.54-1.12,3.58,3.58,0,0,0-3.53,3.56v9.18h-2.13V525Z"/><path d="M583.62,521.41H581.1v-2.52h2.52Zm-.21,18.46h-2.12V525h2.12Z"/><path d="M593.81,537.89a3.39,3.39,0,0,0,2.59-1.15l1.51,1.54a5.45,5.45,0,0,1-4.1,1.74,5.69,5.69,0,0,1-5.67-5.7v-3.77a5.68,5.68,0,1,1,11.36,0v2.14h-9.23v1.63A3.59,3.59,0,0,0,593.81,537.89Zm0-10.92a3.55,3.55,0,0,0-3.57,3.67h7.1A3.57,3.57,0,0,0,593.84,527Z"/><path d="M608,537.94a2.1,2.1,0,0,0,2.14-2.11,2.56,2.56,0,0,0-1.84-2.33l-1.56-.69c-2.41-1.06-3.34-2.48-3.34-4a4.06,4.06,0,0,1,4.27-3.91,5.37,5.37,0,0,1,4.92,3.06l-1.94.91a3.47,3.47,0,0,0-3-1.85,2,2,0,0,0-2.11,1.85c0,.69.48,1.39,1.93,2l1.75.79c2.14.94,3.1,2.2,3.1,4.17A4.18,4.18,0,0,1,608,540a5.38,5.38,0,0,1-4.9-3.07L605,536A3.72,3.72,0,0,0,608,537.94Z"/><path d="M619.17,539.86h-2.52v-2.52h2.52Z"/><rect class="cls-1" x="179.03" y="93.39" width="142" height="141.99"/><rect class="cls-2" x="283.68" y="112.82" width="8.95" height="44.85"/><path class="cls-2" d="M226.86,142.74a14.95,14.95,0,0,1-29.89,0V112.82h9v29.92a6,6,0,1,0,11.91,0V112.82h9Z"/><polygon class="cls-2" points="268.7 215.96 238.82 215.96 238.82 171.11 247.78 171.11 247.78 206.98 268.7 206.98 268.7 215.96"/><polygon class="cls-2" points="268.7 157.68 259.73 157.68 247.78 132.05 247.78 157.68 238.82 157.68 238.82 112.82 247.78 112.82 259.73 138.46 259.73 112.82 268.7 112.82 268.7 157.68"/><path class="cls-2" d="M211.93,171.11a15,15,0,0,0-15,15V201a14.94,14.94,0,0,0,15,14.93,14.56,14.56,0,0,0,2.88-.26l3.06,9.25h9l-4.44-13.31A14.89,14.89,0,0,0,226.86,201V186.09a15,15,0,0,0-14.93-15M217.87,201A6,6,0,0,1,206,201V186.09a6,6,0,1,1,11.91,0Z"/><path class="cls-2" d="M288.15,171.11a15,15,0,0,0-15,15V201a15,15,0,0,0,29.91,0V186.09a15,15,0,0,0-14.94-15m6,29.92a6,6,0,0,1-11.95,0V186.09a6,6,0,1,1,11.95,0Z"/><line class="cls-3" x1="61" y1="312.68" x2="629" y2="312.68"/><path class="cls-1" d="M220.67,585a4,4,0,0,0-7.92,0v6.27a4,4,0,0,0,4,4,3.92,3.92,0,0,0,3.68-2.5,4.42,4.42,0,0,0,.28-1.66v-.57h-4v-2h5.91v2.54a5.88,5.88,0,0,1-5.91,6.1,6,6,0,0,1-5.92-5.92V585a5.92,5.92,0,0,1,11.83,0h-2Z"/><path class="cls-1" d="M230.54,597.12a4.82,4.82,0,0,1-4.82-4.82v-3.19a4.81,4.81,0,1,1,9.61,0v3.19A4.78,4.78,0,0,1,230.54,597.12Zm0-1.8a3,3,0,0,0,3-3v-3.19a3,3,0,1,0-6,0v3.19A3.06,3.06,0,0,0,230.54,595.32Z"/><path class="cls-1" d="M253.17,595.19h.46V597h-.48a3.25,3.25,0,0,1-3.28-3.28v-7.49h-1.48v-1.8h1.48v-5.18h1.8v5.18h2.53v1.8h-2.53v7.49A1.47,1.47,0,0,0,253.17,595.19Z"/><path class="cls-1" d="M262.08,597.12a4.82,4.82,0,0,1-4.82-4.82v-3.19a4.81,4.81,0,1,1,9.61,0v3.19A4.78,4.78,0,0,1,262.08,597.12Zm0-1.8a3,3,0,0,0,3-3v-3.19a3,3,0,1,0-6,0v3.19A3.06,3.06,0,0,0,262.08,595.32Z"/><path class="cls-1" d="M282.42,591.26a4,4,0,0,0,7.92,0v-12h2v12a5.92,5.92,0,0,1-11.83,0v-12h1.95Z"/><path class="cls-1" d="M306.32,593.25v-14h2V597h-2l-7.92-14v14h-1.95V579.24h1.95Z"/><path class="cls-1" d="M314.34,587.12h7.92v-7.88h2V597h-2v-7.92h-7.92V597h-2V579.24h2Z"/><path class="cls-1" d="M333.8,581a4,4,0,0,0-4,4v6.28a4,4,0,0,0,4,4,3.88,3.88,0,0,0,3.94-4h2a5.92,5.92,0,0,1-11.83,0V585a5.92,5.92,0,0,1,11.83,0h-2A3.88,3.88,0,0,0,333.8,581Z"/><path class="cls-1" d="M353.08,597l-3.35-6.71h-4.4V597h-1.95V579.25h6.3a5.51,5.51,0,0,1,2,10.65l3.51,7.1Zm.18-12.25a3.58,3.58,0,0,0-3.58-3.55h-4.35v7.13h4.35A3.59,3.59,0,0,0,353.26,584.75Z"/><path class="cls-1" d="M382.52,584.41h1.91L380.5,597h-1.83l-2.56-9.83L373.56,597h-1.84l-3.93-12.59h1.92l2.88,10,2.53-10h2l2.5,10Z"/><path class="cls-1" d="M391.94,595.32a2.87,2.87,0,0,0,2.2-1l1.28,1.3a4.64,4.64,0,0,1-3.48,1.47,4.81,4.81,0,0,1-4.79-4.81v-3.2a4.81,4.81,0,1,1,9.61,0v1.81H389v1.39A3,3,0,0,0,391.94,595.32Zm0-9.23a3,3,0,0,0-3,3.1h6A3,3,0,0,0,392,586.09Z"/><path class="cls-1" d="M401.88,579.24v6.35a4.28,4.28,0,0,1,3-1.17,4.82,4.82,0,0,1,4.81,4.82v3A4.81,4.81,0,0,1,404.9,597a4.23,4.23,0,0,1-3-1.17V597H400.1V579.24Zm3,16a3,3,0,0,0,3-3v-3a3,3,0,1,0-6,0v3A3,3,0,0,0,404.9,595.19Z"/><path class="cls-1" d="M416.38,595.37a1.78,1.78,0,0,0,1.81-1.79,2.17,2.17,0,0,0-1.56-2l-1.32-.59c-2-.89-2.82-2.09-2.82-3.42a3.43,3.43,0,0,1,3.61-3.31,4.52,4.52,0,0,1,4.16,2.59l-1.64.77a2.93,2.93,0,0,0-2.55-1.56,1.65,1.65,0,0,0-1.78,1.56c0,.59.41,1.17,1.63,1.71l1.48.67c1.81.79,2.63,1.86,2.63,3.52a3.55,3.55,0,0,1-3.68,3.58,4.55,4.55,0,0,1-4.14-2.6l1.62-.8A3.16,3.16,0,0,0,416.38,595.37Z"/><path class="cls-1" d="M425.38,581.38h-2.14v-2.13h2.14ZM425.2,597h-1.8V584.42h1.8Z"/><path class="cls-1" d="M433.51,595.19H434V597h-.48a3.25,3.25,0,0,1-3.28-3.28v-7.49h-1.48v-1.8h1.48v-5.18H432v5.18h2.53v1.8H432v7.49A1.47,1.47,0,0,0,433.51,595.19Z"/><path class="cls-1" d="M442.41,595.32a2.87,2.87,0,0,0,2.2-1l1.28,1.3a4.64,4.64,0,0,1-3.48,1.47,4.81,4.81,0,0,1-4.79-4.81v-3.2a4.81,4.81,0,1,1,9.61,0v1.81h-7.81v1.39A3,3,0,0,0,442.41,595.32Zm0-9.23a3,3,0,0,0-3,3.1h6A3,3,0,0,0,442.44,586.09Z"/><polygon class="cls-1" points="478.23 591.01 478.23 595.55 463.68 595.55 463.68 581 468.23 581 468.23 579.19 461.86 579.19 461.86 597.37 480.05 597.37 480.05 591.01 478.23 591.01"/><polygon class="cls-1" points="473.68 579.19 473.68 581 476.94 581 470.31 587.64 471.6 588.92 478.23 582.29 478.23 585.55 480.05 585.55 480.05 579.19 473.68 579.19"/><path class="cls-4" d="M403.36,211.08c0,6.87-3.71,10.16-11.27,10.16s-11.31-3.29-11.31-10.16V195.89h7.63v13.49c0,2.53,0,5.69,3.72,5.69s3.6-3.16,3.6-5.69V195.89h7.63v15.19"/><polygon class="cls-4" points="407.94 195.89 415.75 195.89 422.96 209.14 423.03 209.14 423.03 195.89 430.25 195.89 430.25 220.65 422.82 220.65 415.23 207.13 415.16 207.13 415.16 220.65 407.94 220.65 407.94 195.89"/><polygon class="cls-4" points="434.93 195.89 442.56 195.89 442.56 204.49 449.71 204.49 449.71 195.89 457.34 195.89 457.34 220.65 449.71 220.65 449.71 210.84 442.56 210.84 442.56 220.65 434.93 220.65 434.93 195.89"/><path class="cls-4" d="M476.87,205.11a4,4,0,0,0-4-3.64c-3.57,0-4.72,3.47-4.72,6.8s1.15,6.8,4.72,6.8c2.57,0,3.57-1.81,4-4.13h7.49c0,5-4.06,10.3-11.31,10.3-8,0-12.56-5.65-12.56-13,0-7.81,4.93-13,12.56-13,6.8,0,10.55,3.6,11.2,9.81h-7.42"/><path class="cls-4" d="M495.22,201.78h3.57c2.92,0,3.79.9,3.79,2.47,0,2.21-1.95,2.46-3.37,2.46h-4Zm-7.63,18.87h7.63V212h4.06c3,0,3.22,2.46,3.43,4.82a17.63,17.63,0,0,0,.63,3.81H511c-.7-1.14-.73-4.09-.83-5.3-.28-3.09-1.56-5.38-3.65-6.18,2.54-.94,3.72-3.64,3.72-6.21,0-4.68-3.75-7.07-8.09-7.07H487.59v24.76"/><polygon class="cls-4" points="383.27 226.35 380.78 226.35 380.78 224.81 387.58 224.81 387.58 226.35 385.09 226.35 385.09 233.11 383.27 233.11 383.27 226.35"/><path class="cls-4" d="M388.15,224.81h1.65v3.13h0a2.1,2.1,0,0,1,1.76-1c1.75,0,2.19,1,2.19,2.47v3.7h-1.65v-3.39c0-1-.29-1.48-1.05-1.48s-1.28.5-1.28,1.72v3.15h-1.65v-8.3"/><path class="cls-4" d="M396.14,230.51c.05,1,.56,1.52,1.48,1.52a1.36,1.36,0,0,0,1.3-.78h1.45a2.69,2.69,0,0,1-2.81,2,2.94,2.94,0,0,1-3.07-3.16,3,3,0,0,1,3.07-3.17c2.05,0,3,1.72,2.92,3.57Zm2.69-1c-.15-.84-.51-1.28-1.32-1.28a1.31,1.31,0,0,0-1.37,1.28h2.69"/><path class="cls-4" d="M411.2,230c0,2.25-1.33,3.34-3.55,3.34s-3.53-1.08-3.53-3.34v-5.16h1.82V230c0,.91.24,1.8,1.71,1.8,1.3,0,1.72-.57,1.72-1.8v-5.16h1.83V230"/><polygon class="cls-4" points="412.42 224.81 414.23 224.81 417.69 230.38 417.72 230.38 417.72 224.81 419.43 224.81 419.43 233.11 417.6 233.11 414.15 227.56 414.12 227.56 414.12 233.11 412.42 233.11 412.42 224.81"/><path class="cls-4" d="M425.23,226.23h2c.82,0,1.26.35,1.26,1.15s-.44,1.19-1.26,1.19h-2Zm-1.83,6.88h1.83v-3.24h1.82c.92,0,1.26.38,1.38,1.25a9.71,9.71,0,0,0,.29,2h1.83a4.4,4.4,0,0,1-.35-2c-.06-.84-.31-1.71-1.21-1.94v0a2,2,0,0,0,1.31-2.08,2.28,2.28,0,0,0-2.42-2.29H423.4v8.3"/><path class="cls-4" d="M432.77,229.46a1.3,1.3,0,0,1,1.37-1.28c.8,0,1.16.44,1.31,1.28Zm4.33,1c.12-1.85-.87-3.57-2.91-3.57a3,3,0,0,0-3.07,3.17,2.93,2.93,0,0,0,3.07,3.16,2.7,2.7,0,0,0,2.81-2h-1.45a1.37,1.37,0,0,1-1.3.78c-.92,0-1.43-.48-1.48-1.52h4.33"/><path class="cls-4" d="M438.19,228.2h-1v-1.1h1v-.46a1.77,1.77,0,0,1,2-1.83c.29,0,.59,0,.87.05v1.23a5.66,5.66,0,0,0-.6,0c-.44,0-.63.19-.63.69v.36H441v1.1h-1.14v4.91h-1.65V228.2"/><path class="cls-4" d="M447.13,233.11h-1.57v-.84h0a2.11,2.11,0,0,1-1.83,1c-1.76,0-2.2-1-2.2-2.47v-3.7h1.65v3.39c0,1,.29,1.48,1.06,1.48s1.28-.5,1.28-1.72V227.1h1.65v6"/><path class="cls-4" d="M450.93,231.69c-1,0-1.34-.94-1.34-1.8s.41-1.71,1.34-1.71,1.4.87,1.4,1.85a1.47,1.47,0,0,1-1.4,1.66m3-4.59h-1.57v.8h0a1.87,1.87,0,0,0-1.79-1,2.69,2.69,0,0,0-2.58,3c0,1.65.77,3,2.57,3a2,2,0,0,0,1.8-.93h0v.79c0,.86-.4,1.48-1.32,1.48a1.12,1.12,0,0,1-1.23-.82h-1.64c.08,1.37,1.46,1.93,2.65,1.93,2.77,0,3.11-1.68,3.11-2.66V227.1"/><path class="cls-4" d="M456.38,229.46a1.3,1.3,0,0,1,1.37-1.28c.8,0,1.16.44,1.31,1.28Zm4.34,1c.11-1.85-.88-3.57-2.92-3.57a3,3,0,0,0-3.07,3.17,2.93,2.93,0,0,0,3.07,3.16,2.69,2.69,0,0,0,2.81-2h-1.45a1.37,1.37,0,0,1-1.3.78c-.92,0-1.43-.48-1.48-1.52h4.34"/><path class="cls-4" d="M462.84,229.46a1.31,1.31,0,0,1,1.37-1.28c.81,0,1.17.44,1.32,1.28Zm4.34,1c.11-1.85-.87-3.57-2.92-3.57a3,3,0,0,0-3.07,3.17,2.94,2.94,0,0,0,3.07,3.16,2.69,2.69,0,0,0,2.81-2h-1.45a1.36,1.36,0,0,1-1.3.78c-.92,0-1.43-.48-1.48-1.52h4.34"/><path class="cls-4" d="M474.73,226.86h0l1.05,3h-2.15Zm-4.05,6.25h1.84l.65-1.85h3.11l.63,1.85h1.89l-3.1-8.3h-1.87Z"/><path class="cls-4" d="M481.89,231.69c-1,0-1.34-.94-1.34-1.8s.41-1.71,1.34-1.71,1.41.87,1.41,1.85a1.48,1.48,0,0,1-1.41,1.66m3-4.59H483.3v.8h0a1.87,1.87,0,0,0-1.78-1,2.69,2.69,0,0,0-2.59,3c0,1.65.77,3,2.57,3a2,2,0,0,0,1.8-.93h0v.79c0,.86-.41,1.48-1.33,1.48a1.12,1.12,0,0,1-1.23-.82H479.1c.08,1.37,1.47,1.93,2.65,1.93,2.77,0,3.12-1.68,3.12-2.66V227.1"/><path class="cls-4" d="M487.34,229.46a1.3,1.3,0,0,1,1.37-1.28c.81,0,1.17.44,1.32,1.28Zm4.34,1c.11-1.85-.87-3.57-2.92-3.57a3,3,0,0,0-3.07,3.17,2.94,2.94,0,0,0,3.07,3.16,2.69,2.69,0,0,0,2.81-2h-1.45a1.36,1.36,0,0,1-1.3.78c-.92,0-1.43-.48-1.48-1.52h4.34"/><path class="cls-4" d="M492.4,227.1H494v.84h0a2.14,2.14,0,0,1,1.84-1c1.75,0,2.2,1,2.2,2.47v3.7h-1.66v-3.39c0-1-.29-1.48-1.05-1.48s-1.28.5-1.28,1.72v3.15H492.4v-6"/><path class="cls-4" d="M503.13,229.22a1.13,1.13,0,0,0-1.22-1c-1.06,0-1.41,1.07-1.41,1.95s.34,1.9,1.37,1.9a1.26,1.26,0,0,0,1.31-1.22h1.6a2.69,2.69,0,0,1-2.9,2.46,2.92,2.92,0,0,1-3-3.08,3,3,0,0,1,3.07-3.25,2.55,2.55,0,0,1,2.82,2.28h-1.61"/><path class="cls-4" d="M508.46,233.86a1.89,1.89,0,0,1-2.07,1.37c-.34,0-.67,0-1-.06v-1.36a7.68,7.68,0,0,0,1,.05.77.77,0,0,0,.56-1.12l-2.11-5.64h1.77l1.36,4.12h0l1.31-4.12H511l-2.51,6.76"/><path class="cls-4" d="M449.18,160.78c1.18,0,1-.67,1-1.91v-6.06c0-1.25-.12-1.65.59-1.65,2.5,0,3.19-.23,3.19-2.45v-22.5c0-6.13-4.34-5.12-5.57-7.36-1.75-3,3.25-3,1.44-9.59-.46-1.48-1.63-2.4-3.89-2.4s-3.43.92-3.89,2.4c-1.81,6.57,3.19,6.57,1.45,9.59-1.23,2.24-5.58,1.23-5.58,7.36v22.5c0,2.22.68,2.45,3.19,2.45.71,0,.59.4.59,1.65v6.06c0,1.24-.14,1.91,1,1.91h6.41"/><path class="cls-4" d="M429.4,112c-2.23,2.35-5.74,7.85-3.45,12.42,4.66,1.79,4.31-14.71,10.11-14.42,2.87,2.64-.86,10.42-2,13.85-1.44,4.22-2.58,13.07-5.31,17.35-2.29,3.57-.57,14.78-1.29,18.64-1.93,1.92-7.17.57-9.39.21,0-4.43-.58-7.92-1.3-15-.07-1.43-1.57-23.28-.36-25.92,2.51-5.5,16.21-16,18.08-18,1.64-1.78,7.45-7.71,9.68-7.71,1.57,1.07.64,3.57.28,4.57-2.22,5.5-11.83,10.93-15.05,14"/><path class="cls-4" d="M462.81,112c2.14,2.35,5.66,7.85,3.44,12.42-4.73,1.79-4.37-14.71-10.18-14.42-2.8,2.64.93,10.42,2.08,13.85,1.43,4.22,2.58,13.07,5.3,17.35,2.23,3.57.57,14.78,1.22,18.64,2,1.92,7.17.57,9.46.21,0-4.43.5-7.92,1.22-15,.15-1.43,1.65-23.28.43-25.92-2.5-5.5-16.2-16-18.06-18-1.72-1.78-7.46-7.71-9.68-7.71-1.65,1.07-.65,3.57-.29,4.57,2.22,5.5,11.83,10.93,15.06,14"/><path class="cls-4" d="M409.48,104.56c-1.23,1.14-4,1.93-5.82,4.43-.72-1.36,1.14-4.65,3.37-6.58,1.65-1.36,4.89-3.58,5.82-3.79.72,1.64-1.87,4.15-3.37,5.94"/><path class="cls-4" d="M405.67,113.5c-2.08,1.93-4.31,2.72-7.19,6.22a21,21,0,0,1-.36-10.44c1-3.29,2.66-6.94,5.47-8.09a30.5,30.5,0,0,0-1.73,7.94c-1.22,4.8-1.94,4.94-1.65,5.58.29,0,1.86-2.5,3.8-4.43,2.3-2.29,5.17-2.79,7-4.15-.28.93-1.93,3.86-5.38,7.37"/><path class="cls-4" d="M395.53,133.32c-2.8-5-3.08-8.66-3.3-12.88.15-2.94,1.58-9.73,3.74-10.73-.65,6.15,1,6.72.36,11.8,0,.28-.73,5.58-.73,5.87.87-.15.08-4.87,9.92-11.66-2.15,3.72-1.15,4.86-5,9.8a18,18,0,0,0-5,7.8"/><path class="cls-4" d="M399.49,138c-2.09,3-1.73,4.51-2.23,5.93-5-2.86-10.56-14.23-8.48-19.88,1.29,4.29,3.09,5.22,4.38,8.8,2.23,5.36,1.87,7,3.31,8.22-.29-2.79.65-6.08,1.58-8.51,1.37-2.07,2.45-4.8,3.45-5.72,1.08,3.93.29,7.15-2,11.16"/><path class="cls-4" d="M403.94,147.77c0,4.36-.79,6.29-1.15,9.51-8.55-2.79-13-12.52-13-17.31,2.6,5.87,6.4,5.79,11.36,14.09.43-3.14-.86-.78-1-6.72.15-6.23,1.44-6.44,1.66-10.3,1.58,1.71,2.15,8.58,2.15,10.73"/><path class="cls-4" d="M411.05,160.14c.65,3.22.94,7,1.44,9.81-4.88-1.79-6.11-.44-11.93-4.08-2.65-1.43-7.4-7.44-7.1-11.74,5.74,6.37,6.75,5.66,9.55,8,2.58,2.07,4.66,5.15,6.54,4.72.14-1.71-4.24-5.44-3.67-16.17a29.92,29.92,0,0,1,5.17,9.44"/><path class="cls-4" d="M420.75,168.16c1.51,2.15,1.15,3.07,5,7.51a42.16,42.16,0,0,1-10.13,2c-2.44,0-11.06-2.28-13.93-8.16,4.95,2.66,5,2,11.63,3.44,4.75,1.07,8.12,2.58,9.42,2.44-.29-.65-3.95-2.15-6.47-5.3-2.52-3.36-1.94-7.16-4.17-10,1.51-.43,7.4,6.44,8.62,8"/><path class="cls-4" d="M482.32,104.56c1.16,1.14,4,1.93,5.75,4.43.79-1.36-1.15-4.65-3.37-6.58-1.58-1.36-4.82-3.58-5.82-3.79-.73,1.64,1.86,4.15,3.44,5.94"/><path class="cls-4" d="M486.13,113.5c2,1.93,4.24,2.72,7.11,6.22a20.92,20.92,0,0,0,.37-10.44c-.94-3.29-2.66-6.94-5.47-8.09a28.21,28.21,0,0,1,1.73,7.94c1.22,4.8,1.94,4.94,1.65,5.58-.29,0-1.87-2.5-3.81-4.43-2.22-2.29-5.1-2.79-7-4.15.29.93,2,3.86,5.46,7.37"/><path class="cls-4" d="M496.2,133.32c2.86-5,3.08-8.66,3.3-12.88-.15-2.94-1.58-9.73-3.67-10.73.58,6.15-1.08,6.72-.36,11.8,0,.28.65,5.58.65,5.87-.79-.15-.08-4.87-9.84-11.66,2.08,3.72,1.07,4.86,5,9.8,4.6,4.43,5.18,8.8,5,7.8"/><path class="cls-4" d="M492.31,138c2,3,1.65,4.51,2.16,5.93,4.95-2.86,10.63-14.23,8.47-19.88-1.22,4.29-3.09,5.22-4.31,8.8-2.3,5.36-1.94,7-3.3,8.22.28-2.79-.72-6.08-1.65-8.51-1.3-2.07-2.45-4.8-3.45-5.72-1,3.93-.29,7.15,2.08,11.16"/><path class="cls-4" d="M487.78,147.77c0,4.36.86,6.29,1.23,9.51,8.48-2.79,13-12.52,13-17.31-2.66,5.87-6.4,5.79-11.42,14.09-.43-3.14.86-.78,1-6.72-.14-6.23-1.43-6.44-1.65-10.3-1.58,1.71-2.16,8.58-2.16,10.73"/><path class="cls-4" d="M480.67,160.14c-.65,3.22-.86,7-1.36,9.81,4.81-1.79,6-.44,11.85-4.08,2.66-1.43,7.47-7.44,7.19-11.74-5.75,6.37-6.83,5.66-9.56,8-2.58,2.07-4.74,5.15-6.61,4.72-.14-1.71,4.24-5.44,3.74-16.17a28.57,28.57,0,0,0-5.25,9.44"/><path class="cls-4" d="M471,168.16c-1.43,2.15-1.08,3.07-5,7.51a43.15,43.15,0,0,0,10.21,2c2.37,0,11-2.28,13.86-8.16-4.95,2.66-5,2-11.64,3.44-4.74,1.07-8.05,2.58-9.41,2.44.29-.65,4-2.15,6.47-5.3,2.51-3.36,1.94-7.16,4.24-10-1.58-.43-7.47,6.44-8.7,8"/><path class="cls-4" d="M433.61,188.33l-1.43-.71A31.59,31.59,0,0,1,457,177.39c15.65.86,14.58,4.51,23,3.93.94-.07-.71,1.15-.71,1.15a29.15,29.15,0,0,1-18.32-.29c-10.06-3.43-16.6-5.51-27.31,6.15"/><path class="cls-4" d="M458.4,188.33l1.44-.71a31.37,31.37,0,0,0-24.72-10.23c-15.73.86-14.65,4.51-23.06,3.93-.93-.07.72,1.15.72,1.15a29.15,29.15,0,0,0,18.32-.29c10.13-3.43,16.67-5.51,27.3,6.15"/></g></g></svg>