<svg xmlns="http://www.w3.org/2000/svg" viewBox="0 0 918 212"><defs><style>.cls-1{fill:red;}.cls-2{fill:#fff;}.cls-3{fill:none;stroke:#666;stroke-miterlimit:10;stroke-width:0.48px;}.cls-4{fill:#386ab2;}</style></defs><g id="レイヤー_2" data-name="レイヤー 2"><g id="レイヤー_1-2" data-name="レイヤー 1"><path class="cls-1" d="M917,1V211H1V1H917m1-1H0V212H918V0Z"/><path d="M375.19,57.88a3.17,3.17,0,0,0,6.34,0V48.27h1.56v9.61a4.73,4.73,0,0,1-9.46,0V48.27h1.56Z"/><path d="M395.41,59.47V48.27H397v14.2h-1.56l-6.34-11.2v11.2h-1.56V48.27h1.56Z"/><path d="M403,54.57h6.34v-6.3h1.57v14.2h-1.57V56.13H403v6.34h-1.56V48.27H403Z"/><path d="M419.81,49.69a3.16,3.16,0,0,0-3.17,3.17v5A3.18,3.18,0,0,0,419.81,61,3.1,3.1,0,0,0,423,57.87h1.59a4.67,4.67,0,0,1-.17,1.23,4.73,4.73,0,0,1-9.3-1.23v-5a4.74,4.74,0,0,1,9.47,0H423A3.11,3.11,0,0,0,419.81,49.69Z"/><path d="M436.42,62.47l-2.68-5.37h-3.51v5.37h-1.57V48.27h5a4.41,4.41,0,0,1,1.62,8.52l2.81,5.68Zm.14-9.8a2.86,2.86,0,0,0-2.86-2.84h-3.47v5.7h3.47A2.86,2.86,0,0,0,436.56,52.67Z"/><path d="M443.76,62.47l-1.7,1.7V60.76h1.7Z"/><path d="M461.15,62.57a3.86,3.86,0,0,1-3.85-3.86V56.15a3.85,3.85,0,1,1,7.69,0v2.56A3.83,3.83,0,0,1,461.15,62.57Zm0-1.44a2.43,2.43,0,0,0,2.39-2.42V56.15a2.4,2.4,0,1,0-4.8,0v2.56A2.45,2.45,0,0,0,461.15,61.13Z"/><path d="M475.23,62.46v-.93a3.36,3.36,0,0,1-2.39.93A3.84,3.84,0,0,1,469,58.63V52.4h1.44v6.23a2.4,2.4,0,0,0,4.8,0V52.4h1.45V62.46Z"/><path d="M482.47,52.4v.94a3.37,3.37,0,0,1,2.39-.94,3.89,3.89,0,0,1,2.75,1.14l-1,1.06a2.23,2.23,0,0,0-1.71-.75,2.42,2.42,0,0,0-2.39,2.41v6.21H481V52.4Z"/><path d="M504.42,66.6a3.79,3.79,0,0,1-2.74-1.14l1-1.08a2.41,2.41,0,0,0,1.76.78,2.44,2.44,0,0,0,2.41-2.41V61.53a3.41,3.41,0,0,1-2.41.93,3.85,3.85,0,0,1-3.86-3.85V56.26a3.91,3.91,0,0,1,3.86-3.86,3.3,3.3,0,0,1,2.41.94V52.4h1.42V62.75A3.85,3.85,0,0,1,504.42,66.6Zm0-12.75A2.44,2.44,0,0,0,502,56.26v2.35a2.41,2.41,0,1,0,4.82,0V56.26A2.44,2.44,0,0,0,504.42,53.85Z"/><path d="M515.21,61h.59v1.44h-.59a2.59,2.59,0,0,1-2.62-2.62V48.27H514V59.84A1.18,1.18,0,0,0,515.21,61Z"/><path d="M522.88,62.57A3.86,3.86,0,0,1,519,58.71V56.15a3.85,3.85,0,1,1,7.69,0v2.56A3.82,3.82,0,0,1,522.88,62.57Zm0-1.44a2.43,2.43,0,0,0,2.39-2.42V56.15a2.43,2.43,0,0,0-2.39-2.41,2.45,2.45,0,0,0-2.42,2.41v2.56A2.45,2.45,0,0,0,522.88,61.13Z"/><path d="M532.2,48.27v5.07a3.42,3.42,0,0,1,2.41-.94,3.85,3.85,0,0,1,3.85,3.86v2.37a3.84,3.84,0,0,1-3.85,3.83,3.38,3.38,0,0,1-2.41-.93v.93h-1.43V48.27ZM534.61,61A2.42,2.42,0,0,0,537,58.63V56.26a2.41,2.41,0,0,0-4.82,0v2.37A2.42,2.42,0,0,0,534.61,61Z"/><path d="M546.05,53.74a2.43,2.43,0,0,0-2.21,1.5l-1.34-.56a3.85,3.85,0,0,1,7.4,1.48v6.3h-1.46V61.23A2.83,2.83,0,0,1,546,62.46h-.86a3,3,0,1,1,0-5.9h3.29v-.4A2.45,2.45,0,0,0,546.05,53.74Zm-2.39,5.77A1.5,1.5,0,0,0,545.17,61H546c1.39,0,2.43-1.31,2.43-3h-3.29A1.5,1.5,0,0,0,543.66,59.51Z"/><path d="M556.79,61h.59v1.44h-.59a2.6,2.6,0,0,1-2.63-2.62V48.27h1.45V59.84A1.18,1.18,0,0,0,556.79,61Z"/><path d="M571.66,53.34a3.42,3.42,0,0,1,2.41-.94,3.86,3.86,0,0,1,3.85,3.86v2.35a3.85,3.85,0,0,1-3.85,3.85,3.41,3.41,0,0,1-2.41-.93V66.6h-1.43V52.4h1.43Zm2.41.51a2.44,2.44,0,0,0-2.41,2.41v2.35a2.41,2.41,0,1,0,4.82,0V56.26A2.44,2.44,0,0,0,574.07,53.85Z"/><path d="M585.54,53.74a2.41,2.41,0,0,0-2.2,1.5L582,54.68a3.85,3.85,0,0,1,7.41,1.48v6.3h-1.46V61.23a2.85,2.85,0,0,1-2.41,1.23h-.86a3,3,0,1,1,0-5.9H588v-.4A2.45,2.45,0,0,0,585.54,53.74Zm-2.39,5.77A1.51,1.51,0,0,0,584.67,61h.86c1.39,0,2.43-1.31,2.43-3h-3.29A1.51,1.51,0,0,0,583.15,59.51Z"/><path d="M595.1,52.4v.94a3.39,3.39,0,0,1,2.39-.94,3.93,3.93,0,0,1,2.76,1.14l-1,1.06a2.23,2.23,0,0,0-1.72-.75,2.43,2.43,0,0,0-2.39,2.41v6.21h-1.44V52.4Z"/><path d="M607.72,61h.37v1.44h-.38a2.59,2.59,0,0,1-2.62-2.62v-6H603.9V52.4h1.19V48.27h1.44V52.4h2v1.45h-2v6A1.17,1.17,0,0,0,607.72,61Z"/><path d="M614,52.4v.94a3.37,3.37,0,0,1,2.39-.94,3.85,3.85,0,0,1,3.85,3.86v6.21h-1.44V56.26a2.4,2.4,0,1,0-4.8,0v6.21h-1.45V52.4Z"/><path d="M628.06,61.13a2.33,2.33,0,0,0,1.76-.78l1,1a3.73,3.73,0,0,1-2.78,1.18,3.86,3.86,0,0,1-3.84-3.86V56.16a3.85,3.85,0,1,1,7.69,0v1.45h-6.24v1.1A2.43,2.43,0,0,0,628.06,61.13Zm0-7.39a2.4,2.4,0,0,0-2.41,2.48h4.8A2.42,2.42,0,0,0,628.08,53.74Z"/><path d="M637.29,52.4v.94a3.37,3.37,0,0,1,2.39-.94,3.93,3.93,0,0,1,2.76,1.14l-1.05,1.06a2.23,2.23,0,0,0-1.71-.75,2.42,2.42,0,0,0-2.39,2.41v6.21h-1.44V52.4Z"/><path d="M645.62,62.47l-1.71,1.7V60.76h1.71Z"/><path d="M660.88,52.4v.94a3.37,3.37,0,0,1,2.39-.94,3.85,3.85,0,0,1,3.85,3.86v6.21h-1.43V56.26a2.41,2.41,0,1,0-4.81,0v6.21h-1.44V52.4Z"/><path d="M675,61.13a2.31,2.31,0,0,0,1.76-.78l1,1A3.71,3.71,0,0,1,675,62.57a3.85,3.85,0,0,1-3.83-3.86V56.16a3.85,3.85,0,1,1,7.69,0v1.45h-6.25v1.1A2.43,2.43,0,0,0,675,61.13Zm0-7.39a2.4,2.4,0,0,0-2.41,2.48h4.8A2.42,2.42,0,0,0,675,53.74Z"/><path d="M686.47,61.13a2.31,2.31,0,0,0,1.76-.78l1,1a3.7,3.7,0,0,1-2.78,1.18,3.86,3.86,0,0,1-3.83-3.86V56.16a3.85,3.85,0,1,1,7.69,0v1.45h-6.25v1.1A2.43,2.43,0,0,0,686.47,61.13Zm0-7.39a2.4,2.4,0,0,0-2.41,2.48h4.8A2.42,2.42,0,0,0,686.49,53.74Z"/><path d="M700.34,61.53a3.38,3.38,0,0,1-2.41.93,3.85,3.85,0,0,1-3.85-3.83V56.26a3.86,3.86,0,0,1,3.85-3.86,3.42,3.42,0,0,1,2.41.94V48.27h1.43V62.46h-1.43ZM697.93,61a2.42,2.42,0,0,0,2.41-2.39V56.26a2.41,2.41,0,0,0-4.82,0v2.37A2.42,2.42,0,0,0,697.93,61Z"/><path d="M708.87,61.17a1.43,1.43,0,0,0,1.45-1.44,1.74,1.74,0,0,0-1.24-1.57L708,57.69C706.39,57,705.76,56,705.76,55a2.75,2.75,0,0,1,2.89-2.65A3.63,3.63,0,0,1,712,54.37l-1.31.62a2.35,2.35,0,0,0-2-1.25A1.32,1.32,0,0,0,707.2,55c0,.47.33.94,1.31,1.37l1.18.53a2.89,2.89,0,0,1,2.1,2.82,2.84,2.84,0,0,1-2.94,2.86,3.63,3.63,0,0,1-3.31-2.08l1.29-.63A2.53,2.53,0,0,0,708.87,61.17Z"/><path d="M731.49,62.46v-.93a3.36,3.36,0,0,1-2.39.93,3.84,3.84,0,0,1-3.85-3.83V52.4h1.44v6.23a2.4,2.4,0,0,0,4.8,0V52.4h1.45V62.46Z"/><path d="M738.73,52.4v.94a3.37,3.37,0,0,1,2.39-.94,3.89,3.89,0,0,1,2.75,1.14l-1,1.06a2.23,2.23,0,0,0-1.71-.75,2.42,2.42,0,0,0-2.39,2.41v6.21h-1.44V52.4Z"/><path d="M750.94,66.6a3.79,3.79,0,0,1-2.74-1.14l1-1.08a2.4,2.4,0,0,0,4.17-1.63V61.53a3.41,3.41,0,0,1-2.41.93,3.85,3.85,0,0,1-3.85-3.85V56.26a3.91,3.91,0,0,1,3.85-3.86,3.3,3.3,0,0,1,2.41.94V52.4h1.43V62.75A3.86,3.86,0,0,1,750.94,66.6Zm0-12.75a2.44,2.44,0,0,0-2.41,2.41v2.35a2.41,2.41,0,1,0,4.82,0V56.26A2.44,2.44,0,0,0,750.94,53.85Z"/><path d="M762.65,61.13a2.31,2.31,0,0,0,1.76-.78l1,1a3.71,3.71,0,0,1-2.78,1.18,3.86,3.86,0,0,1-3.84-3.86V56.16a3.85,3.85,0,1,1,7.69,0v1.45h-6.24v1.1A2.43,2.43,0,0,0,762.65,61.13Zm0-7.39a2.4,2.4,0,0,0-2.41,2.48h4.8A2.42,2.42,0,0,0,762.67,53.74Z"/><path d="M771.88,52.4v.94a3.37,3.37,0,0,1,2.39-.94,3.86,3.86,0,0,1,3.86,3.86v6.21h-1.44V56.26a2.41,2.41,0,1,0-4.81,0v6.21h-1.44V52.4Z"/><path d="M785.59,61H786v1.44h-.38A2.6,2.6,0,0,1,783,59.84v-6h-1.18V52.4H783V48.27h1.44V52.4h2v1.45h-2v6A1.17,1.17,0,0,0,785.59,61Z"/><path d="M801.43,48.27v5.07a3.46,3.46,0,0,1,2.42-.94,3.86,3.86,0,0,1,3.83,3.86v6.21h-1.44V56.26a2.42,2.42,0,0,0-2.39-2.41,2.45,2.45,0,0,0-2.42,2.41v6.21H800V48.27Z"/><path d="M815.54,61.13a2.31,2.31,0,0,0,1.75-.78l1,1a3.69,3.69,0,0,1-2.77,1.18,3.86,3.86,0,0,1-3.84-3.86V56.16a3.85,3.85,0,1,1,7.69,0v1.45h-6.25v1.1A2.44,2.44,0,0,0,815.54,61.13Zm0-7.39a2.4,2.4,0,0,0-2.42,2.48H818A2.42,2.42,0,0,0,815.56,53.74Z"/><path d="M826,61h.59v1.44H826a2.6,2.6,0,0,1-2.63-2.62V48.27h1.44V59.84A1.18,1.18,0,0,0,826,61Z"/><path d="M831.6,53.34A3.42,3.42,0,0,1,834,52.4a3.86,3.86,0,0,1,3.85,3.86v2.35A3.85,3.85,0,0,1,834,62.46a3.41,3.41,0,0,1-2.41-.93V66.6h-1.43V52.4h1.43Zm2.41.51a2.44,2.44,0,0,0-2.41,2.41v2.35a2.41,2.41,0,1,0,4.82,0V56.26A2.44,2.44,0,0,0,834,53.85Z"/><path d="M854.94,61h.37v1.44h-.38a2.6,2.6,0,0,1-2.63-2.62v-6h-1.18V52.4h1.18V48.27h1.44V52.4h2v1.45h-2v6A1.17,1.17,0,0,0,854.94,61Z"/><path d="M863.17,62.57a3.86,3.86,0,0,1-3.86-3.86V56.15a3.85,3.85,0,1,1,7.69,0v2.56A3.82,3.82,0,0,1,863.17,62.57Zm0-1.44a2.43,2.43,0,0,0,2.39-2.42V56.15a2.4,2.4,0,1,0-4.8,0v2.56A2.45,2.45,0,0,0,863.17,61.13Z"/><path d="M376.28,93.23a1.43,1.43,0,0,0,1.45-1.43,1.74,1.74,0,0,0-1.24-1.58l-1.06-.47c-1.63-.72-2.26-1.68-2.26-2.74a2.75,2.75,0,0,1,2.89-2.65,3.63,3.63,0,0,1,3.33,2.07l-1.31.62a2.35,2.35,0,0,0-2-1.25,1.32,1.32,0,0,0-1.43,1.25c0,.47.33.94,1.31,1.37l1.18.53a2.9,2.9,0,0,1,2.1,2.82,2.84,2.84,0,0,1-2.94,2.86,3.65,3.65,0,0,1-3.32-2.08l1.31-.63A2.5,2.5,0,0,0,376.28,93.23Z"/><path d="M389.44,94.52v-.93a3.36,3.36,0,0,1-2.39.93,3.85,3.85,0,0,1-3.86-3.83V84.46h1.45v6.23a2.4,2.4,0,0,0,4.8,0V84.46h1.44V94.52Z"/><path d="M396.61,85.4a3.41,3.41,0,0,1,2.41-.93,3.85,3.85,0,0,1,3.85,3.85v2.35A3.85,3.85,0,0,1,399,94.52a3.41,3.41,0,0,1-2.41-.93v5.07h-1.43V84.47h1.43Zm2.41.51a2.44,2.44,0,0,0-2.41,2.41v2.35a2.41,2.41,0,0,0,4.82,0V88.32A2.44,2.44,0,0,0,399,85.91Z"/><path d="M408.3,85.4a3.41,3.41,0,0,1,2.41-.93,3.85,3.85,0,0,1,3.85,3.85v2.35a3.85,3.85,0,0,1-3.85,3.85,3.41,3.41,0,0,1-2.41-.93v5.07h-1.43V84.47h1.43Zm2.41.51a2.44,2.44,0,0,0-2.41,2.41v2.35a2.41,2.41,0,0,0,4.82,0V88.32A2.44,2.44,0,0,0,410.71,85.91Z"/><path d="M422.22,94.63a3.86,3.86,0,0,1-3.85-3.86V88.22a3.85,3.85,0,1,1,7.69,0v2.55A3.83,3.83,0,0,1,422.22,94.63Zm0-1.44a2.44,2.44,0,0,0,2.4-2.42V88.22a2.41,2.41,0,1,0-4.81,0v2.55A2.45,2.45,0,0,0,422.22,93.19Z"/><path d="M431.57,84.47v.93a3.36,3.36,0,0,1,2.39-.93,3.92,3.92,0,0,1,2.76,1.13l-1.05,1.06a2.21,2.21,0,0,0-1.71-.75,2.42,2.42,0,0,0-2.39,2.41v6.21h-1.44V84.47Z"/><path d="M444.19,93.08h.37v1.44h-.38a2.6,2.6,0,0,1-2.63-2.62v-6h-1.18V84.47h1.18V80.33H443v4.14h2v1.44h-2v6A1.17,1.17,0,0,0,444.19,93.08Z"/><path d="M460.27,82h-1.71v-1.7h1.71Zm-.15,12.5h-1.44V84.46h1.44Z"/><path d="M468,93.08h.36v1.44h-.38a2.59,2.59,0,0,1-2.62-2.62v-6h-1.19V84.47h1.19V80.33h1.44v4.14h2v1.44h-2v6A1.17,1.17,0,0,0,468,93.08Z"/><path d="M475.58,93.23A1.43,1.43,0,0,0,477,91.8a1.74,1.74,0,0,0-1.24-1.58l-1.06-.47c-1.63-.72-2.26-1.68-2.26-2.74a2.75,2.75,0,0,1,2.89-2.65,3.63,3.63,0,0,1,3.33,2.07l-1.31.62a2.34,2.34,0,0,0-2-1.25,1.32,1.32,0,0,0-1.43,1.25c0,.47.33.94,1.31,1.37l1.18.53a2.91,2.91,0,0,1,2.11,2.82,2.84,2.84,0,0,1-2.95,2.86,3.64,3.64,0,0,1-3.31-2.08l1.3-.63A2.52,2.52,0,0,0,475.58,93.23Z"/><path d="M493.4,80.33V85.4a3.41,3.41,0,0,1,2.41-.93,3.85,3.85,0,0,1,3.84,3.85v6.21h-1.44V88.32a2.41,2.41,0,1,0-4.81,0v6.21H492V80.33Z"/><path d="M510.1,94.52v-.93a3.4,3.4,0,0,1-2.39.93,3.85,3.85,0,0,1-3.86-3.83V84.46h1.44v6.23a2.41,2.41,0,0,0,4.81,0V84.46h1.44V94.52Z"/><path d="M519.72,84.46a3.88,3.88,0,0,1,3.14,1.61A3.8,3.8,0,0,1,526,84.46a3.86,3.86,0,0,1,3.84,3.86v6.21h-1.43V88.32a2.42,2.42,0,1,0-4.84,0v6.21h-1.42V88.28a2.42,2.42,0,0,0-4.84,0v6.21h-1.43V84.46h1.43v1A3.34,3.34,0,0,1,519.72,84.46Z"/><path d="M537.61,85.8a2.43,2.43,0,0,0-2.21,1.5l-1.34-.55a3.84,3.84,0,0,1,7.4,1.48v6.29H540V93.29a2.83,2.83,0,0,1-2.41,1.23h-.86a3,3,0,1,1,0-5.9H540v-.39A2.45,2.45,0,0,0,537.61,85.8Zm-2.4,5.77a1.51,1.51,0,0,0,1.52,1.51h.86c1.39,0,2.43-1.31,2.43-3h-3.29A1.51,1.51,0,0,0,535.21,91.57Z"/><path d="M547.17,84.47v.93a3.38,3.38,0,0,1,2.39-.93,3.85,3.85,0,0,1,3.86,3.85v6.21H552V88.32a2.41,2.41,0,1,0-4.81,0v6.21h-1.44V84.47Z"/><path d="M559.33,82h-1.7v-1.7h1.7Zm-.14,12.5h-1.44V84.46h1.44Z"/><path d="M567,93.08h.37v1.44H567a2.59,2.59,0,0,1-2.62-2.62v-6h-1.19V84.47h1.19V80.33h1.44v4.14h2v1.44h-2v6A1.17,1.17,0,0,0,567,93.08Z"/><path d="M575.22,85.8A2.43,2.43,0,0,0,573,87.3l-1.34-.55a3.85,3.85,0,0,1,7.41,1.48v6.29h-1.46V93.29a2.86,2.86,0,0,1-2.42,1.23h-.86a3,3,0,0,1,0-5.9h3.29v-.39A2.45,2.45,0,0,0,575.22,85.8Zm-2.39,5.77a1.5,1.5,0,0,0,1.51,1.51h.86c1.39,0,2.43-1.31,2.43-3h-3.29A1.5,1.5,0,0,0,572.83,91.57Z"/><path d="M584.79,84.47v.93a3.34,3.34,0,0,1,2.38-.93,3.92,3.92,0,0,1,2.76,1.13l-1,1.06a2.23,2.23,0,0,0-1.72-.75,2.42,2.42,0,0,0-2.38,2.41v6.21h-1.45V84.47Z"/><path d="M595.36,82h-1.71v-1.7h1.71Zm-.15,12.5h-1.44V84.46h1.44Z"/><path d="M603.05,85.8a2.43,2.43,0,0,0-2.21,1.5l-1.34-.55a3.85,3.85,0,0,1,7.41,1.48v6.29h-1.46V93.29A2.85,2.85,0,0,1,603,94.52h-.86a3,3,0,1,1,0-5.9h3.3v-.39A2.46,2.46,0,0,0,603.05,85.8Zm-2.39,5.77a1.5,1.5,0,0,0,1.51,1.51H603c1.39,0,2.44-1.31,2.44-3h-3.3A1.5,1.5,0,0,0,600.66,91.57Z"/><path d="M612.62,84.47v.93a3.36,3.36,0,0,1,2.39-.93,3.85,3.85,0,0,1,3.85,3.85v6.21h-1.44V88.32a2.4,2.4,0,1,0-4.8,0v6.21h-1.45V84.47Z"/><path d="M636.26,85.8a2.43,2.43,0,0,0-2.21,1.5l-1.34-.55a3.85,3.85,0,0,1,7.41,1.48v6.29h-1.47V93.29a2.83,2.83,0,0,1-2.41,1.23h-.86a3,3,0,0,1,0-5.9h3.29v-.39A2.45,2.45,0,0,0,636.26,85.8Zm-2.39,5.77a1.5,1.5,0,0,0,1.51,1.51h.86c1.39,0,2.43-1.31,2.43-3h-3.29A1.5,1.5,0,0,0,633.87,91.57Z"/><path d="M646,82h-1.7v-1.7H646Zm-.14,12.5h-1.44V84.46h1.44Z"/><path d="M656.12,93.59a3.38,3.38,0,0,1-2.41.93,3.85,3.85,0,0,1-3.86-3.83V88.32a3.85,3.85,0,0,1,3.86-3.85,3.41,3.41,0,0,1,2.41.93V80.33h1.42V94.52h-1.42Zm-2.41-.51a2.42,2.42,0,0,0,2.41-2.39V88.32a2.42,2.42,0,0,0-4.83,0v2.37A2.43,2.43,0,0,0,653.71,93.08Z"/><path d="M672.69,85.4a3.41,3.41,0,0,1,2.41-.93A3.85,3.85,0,0,1,679,88.32v2.35a3.85,3.85,0,0,1-3.85,3.85,3.41,3.41,0,0,1-2.41-.93v5.07h-1.43V84.47h1.43Zm2.41.51a2.44,2.44,0,0,0-2.41,2.41v2.35a2.41,2.41,0,0,0,4.82,0V88.32A2.44,2.44,0,0,0,675.1,85.91Z"/><path d="M684.44,84.47v.93a3.38,3.38,0,0,1,2.39-.93,3.92,3.92,0,0,1,2.76,1.13l-1,1.06a2.23,2.23,0,0,0-1.72-.75,2.43,2.43,0,0,0-2.39,2.41v6.21H683V84.47Z"/><path d="M696.71,94.63a3.85,3.85,0,0,1-3.85-3.86V88.22a3.85,3.85,0,1,1,7.69,0v2.55A3.83,3.83,0,0,1,696.71,94.63Zm0-1.44a2.44,2.44,0,0,0,2.4-2.42V88.22a2.41,2.41,0,1,0-4.81,0v2.55A2.45,2.45,0,0,0,696.71,93.19Z"/><path d="M708.19,98.66a3.75,3.75,0,0,1-2.73-1.14l1-1.08a2.4,2.4,0,0,0,1.75.78,2.45,2.45,0,0,0,2.42-2.41V93.59a3.45,3.45,0,0,1-2.42.93,3.85,3.85,0,0,1-3.85-3.85V88.32a3.9,3.9,0,0,1,3.85-3.85,3.3,3.3,0,0,1,2.42.93v-.93H712V94.81A3.86,3.86,0,0,1,708.19,98.66Zm0-12.75a2.44,2.44,0,0,0-2.41,2.41v2.35a2.42,2.42,0,0,0,4.83,0V88.32A2.45,2.45,0,0,0,708.19,85.91Z"/><path d="M717.77,84.47v.93a3.36,3.36,0,0,1,2.39-.93,3.92,3.92,0,0,1,2.76,1.13l-1,1.06a2.23,2.23,0,0,0-1.71-.75,2.42,2.42,0,0,0-2.39,2.41v6.21h-1.44V84.47Z"/><path d="M730,85.8a2.43,2.43,0,0,0-2.21,1.5l-1.34-.55a3.84,3.84,0,0,1,7.4,1.48v6.29h-1.46V93.29A2.83,2.83,0,0,1,730,94.52h-.86a3,3,0,1,1,0-5.9h3.29v-.39A2.45,2.45,0,0,0,730,85.8Zm-2.4,5.77a1.51,1.51,0,0,0,1.52,1.51H730c1.39,0,2.43-1.31,2.43-3h-3.29A1.51,1.51,0,0,0,727.62,91.57Z"/><path d="M742,84.46a3.88,3.88,0,0,1,3.15,1.61,3.79,3.79,0,0,1,3.14-1.61,3.86,3.86,0,0,1,3.84,3.86v6.21h-1.43V88.32a2.42,2.42,0,1,0-4.84,0v6.21H744.4V88.28a2.43,2.43,0,0,0-4.85,0v6.21h-1.42V84.46h1.42v1A3.35,3.35,0,0,1,742,84.46Z"/><path d="M759.19,93.23a1.43,1.43,0,0,0,1.45-1.43,1.74,1.74,0,0,0-1.25-1.58l-1.06-.47c-1.62-.72-2.25-1.68-2.25-2.74A2.75,2.75,0,0,1,759,84.36a3.62,3.62,0,0,1,3.33,2.07l-1.31.62a2.34,2.34,0,0,0-2-1.25,1.32,1.32,0,0,0-1.43,1.25c0,.47.32.94,1.3,1.37L760,89a2.9,2.9,0,0,1,2.11,2.82,2.84,2.84,0,0,1-2.94,2.86,3.64,3.64,0,0,1-3.32-2.08l1.3-.63A2.53,2.53,0,0,0,759.19,93.23Z"/><path d="M776.46,94.53V86.24h-1.18V84.8h1.18V83a2.61,2.61,0,0,1,2.63-2.63h1.19v1.44h-1.19A1.16,1.16,0,0,0,777.9,83V84.8h2v1.44h-2v8.29Z"/><path d="M787.48,94.63a3.85,3.85,0,0,1-3.85-3.86V88.22a3.85,3.85,0,1,1,7.69,0v2.55A3.83,3.83,0,0,1,787.48,94.63Zm0-1.44a2.44,2.44,0,0,0,2.4-2.42V88.22a2.41,2.41,0,1,0-4.81,0v2.55A2.45,2.45,0,0,0,787.48,93.19Z"/><path d="M796.83,84.47v.93a3.36,3.36,0,0,1,2.39-.93A3.88,3.88,0,0,1,802,85.6l-1,1.06a2.23,2.23,0,0,0-1.71-.75,2.42,2.42,0,0,0-2.39,2.41v6.21h-1.44V84.47Z"/><path d="M816.56,85.4a3.43,3.43,0,0,1,2.41-.93,3.85,3.85,0,0,1,3.86,3.85v2.35A3.85,3.85,0,0,1,819,94.52a3.43,3.43,0,0,1-2.41-.93v5.07h-1.42V84.47h1.42Zm2.41.51a2.44,2.44,0,0,0-2.41,2.41v2.35a2.41,2.41,0,1,0,4.82,0V88.32A2.44,2.44,0,0,0,819,85.91Z"/><path d="M830.47,93.19a2.31,2.31,0,0,0,1.76-.78l1,1a3.7,3.7,0,0,1-2.78,1.18,3.86,3.86,0,0,1-3.83-3.86V88.22a3.85,3.85,0,1,1,7.69,0v1.45h-6.25v1.1A2.44,2.44,0,0,0,830.47,93.19Zm0-7.39a2.4,2.4,0,0,0-2.42,2.48h4.81A2.42,2.42,0,0,0,830.5,85.8Z"/><path d="M842,94.63a3.86,3.86,0,0,1-3.85-3.86V88.22a3.85,3.85,0,1,1,7.69,0v2.55A3.83,3.83,0,0,1,842,94.63Zm0-1.44a2.43,2.43,0,0,0,2.4-2.42V88.22a2.41,2.41,0,1,0-4.81,0v2.55A2.45,2.45,0,0,0,842,93.19Z"/><path d="M851.25,85.4a3.43,3.43,0,0,1,2.41-.93,3.85,3.85,0,0,1,3.86,3.85v2.35a3.85,3.85,0,0,1-3.86,3.85,3.43,3.43,0,0,1-2.41-.93v5.07h-1.42V84.47h1.42Zm2.41.51a2.44,2.44,0,0,0-2.41,2.41v2.35a2.42,2.42,0,0,0,4.83,0V88.32A2.45,2.45,0,0,0,853.66,85.91Z"/><path d="M864.22,93.08h.59v1.44h-.6a2.6,2.6,0,0,1-2.62-2.62V80.33H863V91.9A1.18,1.18,0,0,0,864.22,93.08Z"/><path d="M871.87,93.19a2.33,2.33,0,0,0,1.76-.78l1,1a3.73,3.73,0,0,1-2.78,1.18A3.86,3.86,0,0,1,868,90.77V88.22a3.85,3.85,0,1,1,7.69,0v1.45h-6.25v1.1A2.44,2.44,0,0,0,871.87,93.19Zm0-7.39a2.41,2.41,0,0,0-2.42,2.48h4.81A2.42,2.42,0,0,0,871.89,85.8Z"/><path d="M375.25,114.1h-1.71v-1.71h1.71Zm-.15,12.49h-1.44V116.53h1.44Z"/><path d="M381,116.53v.93a3.36,3.36,0,0,1,2.39-.93,3.85,3.85,0,0,1,3.86,3.85v6.21h-1.44v-6.21a2.41,2.41,0,1,0-4.81,0v6.21h-1.44V116.53Z"/><path d="M402.76,122a3.17,3.17,0,0,0,6.33,0v-9.61h1.57V122a4.74,4.74,0,0,1-9.47,0v-9.61h1.57Z"/><path d="M421.58,126.59l-2.78-5-2.35,2.73v2.27H415v-14.2h1.44v9.83l4.88-5.69h1.84l-3.39,3.94,3.51,6.12Z"/><path d="M428.52,116.53v.93a3.36,3.36,0,0,1,2.39-.93,3.88,3.88,0,0,1,2.75,1.13l-1,1.06a2.23,2.23,0,0,0-1.71-.75,2.42,2.42,0,0,0-2.39,2.41v6.21h-1.44V116.53Z"/><path d="M440.77,117.86a2.43,2.43,0,0,0-2.21,1.5l-1.34-.55a3.84,3.84,0,0,1,7.4,1.48v6.3h-1.46v-1.24a2.84,2.84,0,0,1-2.41,1.24h-.86a3,3,0,1,1,0-5.91h3.29v-.39A2.45,2.45,0,0,0,440.77,117.86Zm-2.4,5.77a1.51,1.51,0,0,0,1.52,1.51h.86c1.39,0,2.43-1.3,2.43-3h-3.29A1.51,1.51,0,0,0,438.37,123.63Z"/><path d="M450.47,114.1h-1.7v-1.71h1.7Zm-.14,12.49h-1.44V116.53h1.44Z"/><path d="M456.19,116.53v.93a3.36,3.36,0,0,1,2.39-.93,3.85,3.85,0,0,1,3.86,3.85v6.21H461v-6.21a2.4,2.4,0,1,0-4.8,0v6.21h-1.44V116.53Z"/><path d="M470.29,125.25a2.31,2.31,0,0,0,1.76-.78l1,1a3.68,3.68,0,0,1-2.78,1.18,3.85,3.85,0,0,1-3.83-3.85v-2.56a3.84,3.84,0,1,1,7.68,0v1.45H467.9v1.11A2.42,2.42,0,0,0,470.29,125.25Zm0-7.39a2.4,2.4,0,0,0-2.41,2.48h4.8A2.42,2.42,0,0,0,470.31,117.86Z"/><path d="M491.23,117.86a2.43,2.43,0,0,0-2.21,1.5l-1.34-.55a3.85,3.85,0,0,1,7.41,1.48v6.3h-1.46v-1.24a2.87,2.87,0,0,1-2.42,1.24h-.86a3,3,0,0,1,0-5.91h3.3v-.39A2.46,2.46,0,0,0,491.23,117.86Zm-2.39,5.77a1.51,1.51,0,0,0,1.51,1.51h.86c1.39,0,2.44-1.3,2.44-3h-3.3A1.51,1.51,0,0,0,488.84,123.63Z"/><path d="M500.8,116.53v.93a3.36,3.36,0,0,1,2.39-.93,3.85,3.85,0,0,1,3.85,3.85v6.21H505.6v-6.21a2.4,2.4,0,1,0-4.8,0v6.21h-1.44V116.53Z"/><path d="M517.28,125.65a3.4,3.4,0,0,1-2.41.94,3.86,3.86,0,0,1-3.86-3.84v-2.37a3.85,3.85,0,0,1,3.86-3.85,3.43,3.43,0,0,1,2.41.93v-5.07h1.42v14.2h-1.42Zm-2.41-.51a2.43,2.43,0,0,0,2.41-2.39v-2.37a2.42,2.42,0,0,0-4.83,0v2.37A2.43,2.43,0,0,0,514.87,125.14Z"/><path d="M534.18,114.1h-1.71v-1.71h1.71ZM534,126.59H532.6V116.53H534Z"/><path d="M541.86,125.14h.37v1.45h-.38a2.61,2.61,0,0,1-2.63-2.63v-6H538v-1.44h1.18v-4.14h1.44v4.14h2V118h-2v6A1.17,1.17,0,0,0,541.86,125.14Z"/><path d="M549.5,125.29a1.43,1.43,0,0,0,1.45-1.43,1.74,1.74,0,0,0-1.25-1.58l-1.06-.47c-1.63-.72-2.26-1.68-2.26-2.74a2.75,2.75,0,0,1,2.89-2.65,3.61,3.61,0,0,1,3.33,2.08l-1.31.61a2.34,2.34,0,0,0-2-1.25,1.33,1.33,0,0,0-1.43,1.25c0,.47.33.94,1.31,1.37l1.18.53a2.92,2.92,0,0,1,2.11,2.83,2.83,2.83,0,0,1-2.94,2.85,3.64,3.64,0,0,1-3.32-2.08l1.3-.63A2.52,2.52,0,0,0,549.5,125.29Z"/><path d="M567.31,116.53v.93a3.4,3.4,0,0,1,2.4-.93,3.85,3.85,0,0,1,3.85,3.85v6.21h-1.44v-6.21a2.42,2.42,0,0,0-2.39-2.41,2.45,2.45,0,0,0-2.42,2.41v6.21h-1.44V116.53Z"/><path d="M581.41,125.25a2.31,2.31,0,0,0,1.76-.78l1,1a3.66,3.66,0,0,1-2.78,1.18,3.85,3.85,0,0,1-3.83-3.85v-2.56a3.85,3.85,0,1,1,7.69,0v1.45H579v1.11A2.43,2.43,0,0,0,581.41,125.25Zm0-7.39a2.4,2.4,0,0,0-2.42,2.48h4.81A2.42,2.42,0,0,0,581.44,117.86Z"/><path d="M590.83,114.1h-1.7v-1.71h1.7Zm-.14,12.49h-1.44V116.53h1.44Z"/><path d="M598.61,130.72a3.74,3.74,0,0,1-2.74-1.13l1-1.08a2.4,2.4,0,0,0,1.76.77,2.44,2.44,0,0,0,2.41-2.41v-1.22a3.42,3.42,0,0,1-2.41.94,3.85,3.85,0,0,1-3.85-3.86v-2.35a3.9,3.9,0,0,1,3.85-3.85,3.29,3.29,0,0,1,2.41.93v-.93h1.43v10.34A3.86,3.86,0,0,1,598.61,130.72Zm0-12.75a2.44,2.44,0,0,0-2.41,2.41v2.35a2.41,2.41,0,0,0,4.82,0v-2.35A2.44,2.44,0,0,0,598.61,118Z"/><path d="M608.19,112.39v5.07a3.41,3.41,0,0,1,2.41-.93,3.84,3.84,0,0,1,3.83,3.85v6.21H613v-6.21a2.4,2.4,0,1,0-4.8,0v6.21h-1.45v-14.2Z"/><path d="M620.17,112.39v5.07a3.41,3.41,0,0,1,2.41-.93,3.85,3.85,0,0,1,3.86,3.85v2.37a3.86,3.86,0,0,1-3.86,3.84,3.38,3.38,0,0,1-2.41-.94v.94h-1.42v-14.2Zm2.41,12.75a2.42,2.42,0,0,0,2.41-2.39v-2.37a2.41,2.41,0,0,0-4.82,0v2.37A2.42,2.42,0,0,0,622.58,125.14Z"/><path d="M634.05,126.69a3.85,3.85,0,0,1-3.85-3.85v-2.56a3.85,3.85,0,1,1,7.69,0v2.56A3.83,3.83,0,0,1,634.05,126.69Zm0-1.44a2.44,2.44,0,0,0,2.4-2.41v-2.56a2.41,2.41,0,1,0-4.81,0v2.56A2.44,2.44,0,0,0,634.05,125.25Z"/><path d="M643.4,116.53v.93a3.36,3.36,0,0,1,2.39-.93,3.88,3.88,0,0,1,2.75,1.13l-1,1.06a2.23,2.23,0,0,0-1.71-.75,2.42,2.42,0,0,0-2.39,2.41v6.21H642V116.53Z"/><path d="M654,114.1h-1.7v-1.71H654Zm-.14,12.49h-1.44V116.53h1.44Z"/><path d="M659.68,116.53v.93a3.4,3.4,0,0,1,2.4-.93,3.85,3.85,0,0,1,3.85,3.85v6.21h-1.44v-6.21A2.42,2.42,0,0,0,662.1,118a2.45,2.45,0,0,0-2.42,2.41v6.21h-1.44V116.53Z"/><path d="M673.79,130.72a3.74,3.74,0,0,1-2.74-1.13l1-1.08a2.4,2.4,0,0,0,1.76.77,2.44,2.44,0,0,0,2.41-2.41v-1.22a3.44,3.44,0,0,1-2.41.94,3.86,3.86,0,0,1-3.86-3.86v-2.35a3.91,3.91,0,0,1,3.86-3.85,3.29,3.29,0,0,1,2.41.93v-.93h1.42v10.34A3.85,3.85,0,0,1,673.79,130.72Zm0-12.75a2.45,2.45,0,0,0-2.42,2.41v2.35a2.42,2.42,0,0,0,4.83,0v-2.35A2.44,2.44,0,0,0,673.79,118Z"/><path d="M694.93,117.86a2.43,2.43,0,0,0-2.39,2.41v2.57a2.43,2.43,0,0,0,2.39,2.41,2.4,2.4,0,0,0,2.41-2.41h1.44a3.81,3.81,0,0,1-3.85,3.85,3.86,3.86,0,0,1-3.84-3.85v-2.57a3.86,3.86,0,0,1,3.84-3.85,3.81,3.81,0,0,1,3.85,3.85h-1.44A2.41,2.41,0,0,0,694.93,117.86Z"/><path d="M706.44,126.69a3.85,3.85,0,0,1-3.85-3.85v-2.56a3.85,3.85,0,1,1,7.69,0v2.56A3.83,3.83,0,0,1,706.44,126.69Zm0-1.44a2.43,2.43,0,0,0,2.39-2.41v-2.56a2.4,2.4,0,1,0-4.8,0v2.56A2.44,2.44,0,0,0,706.44,125.25Z"/><path d="M720.52,126.59v-.94a3.37,3.37,0,0,1-2.39.94,3.86,3.86,0,0,1-3.86-3.84v-6.23h1.44v6.23a2.41,2.41,0,0,0,4.81,0v-6.23H722v10.07Z"/><path d="M727.76,116.53v.93a3.36,3.36,0,0,1,2.39-.93,3.85,3.85,0,0,1,3.85,3.85v6.21h-1.44v-6.21a2.4,2.4,0,1,0-4.8,0v6.21h-1.45V116.53Z"/><path d="M741.46,125.14h.37v1.45h-.38a2.6,2.6,0,0,1-2.62-2.63v-6h-1.19v-1.44h1.19v-4.14h1.44v4.14h2V118h-2v6A1.17,1.17,0,0,0,741.46,125.14Z"/><path d="M747.7,116.53v.93a3.35,3.35,0,0,1,2.38-.93,3.92,3.92,0,0,1,2.76,1.13l-1,1.06a2.23,2.23,0,0,0-1.72-.75,2.42,2.42,0,0,0-2.38,2.41v6.21h-1.45V116.53Z"/><path d="M758.27,114.1h-1.71v-1.71h1.71Zm-.15,12.49h-1.44V116.53h1.44Z"/><path d="M766,125.25a2.31,2.31,0,0,0,1.76-.78l1,1a3.66,3.66,0,0,1-2.78,1.18,3.85,3.85,0,0,1-3.83-3.85v-2.56a3.85,3.85,0,1,1,7.69,0v1.45h-6.25v1.11A2.42,2.42,0,0,0,766,125.25Zm0-7.39a2.4,2.4,0,0,0-2.41,2.48h4.81A2.43,2.43,0,0,0,766.06,117.86Z"/><path d="M776.72,125.29a1.43,1.43,0,0,0,1.45-1.43,1.74,1.74,0,0,0-1.25-1.58l-1.06-.47c-1.63-.72-2.25-1.68-2.25-2.74a2.74,2.74,0,0,1,2.88-2.65,3.61,3.61,0,0,1,3.33,2.08l-1.31.61a2.34,2.34,0,0,0-2-1.25,1.33,1.33,0,0,0-1.43,1.25c0,.47.33.94,1.31,1.37l1.18.53a2.92,2.92,0,0,1,2.11,2.83,2.83,2.83,0,0,1-2.94,2.85,3.64,3.64,0,0,1-3.32-2.08l1.3-.63A2.52,2.52,0,0,0,776.72,125.29Z"/><path d="M785.31,126.59h-1.7v-1.71h1.7Z"/><rect class="cls-1" x="39.95" y="47.41" width="116.76" height="116.76"/><rect class="cls-2" x="126" y="63.39" width="7.36" height="36.88"/><path class="cls-2" d="M79.28,88A12.29,12.29,0,0,1,54.7,88V63.39h7.39V88a4.9,4.9,0,1,0,9.8,0V63.39h7.39Z"/><polygon class="cls-2" points="113.69 148.2 89.12 148.2 89.12 111.32 96.48 111.32 96.48 140.82 113.69 140.82 113.69 148.2"/><polygon class="cls-2" points="113.69 100.27 106.31 100.27 96.48 79.2 96.48 100.27 89.12 100.27 89.12 63.39 96.48 63.39 106.31 84.47 106.31 63.39 113.69 63.39 113.69 100.27"/><path class="cls-2" d="M67,111.32a12.31,12.31,0,0,0-12.3,12.32v12.28A12.29,12.29,0,0,0,67,148.2a12.54,12.54,0,0,0,2.38-.21l2.51,7.61h7.39l-3.65-10.95a12.26,12.26,0,0,0,3.65-8.73V123.64A12.3,12.3,0,0,0,67,111.32m4.89,24.6a4.9,4.9,0,1,1-9.8,0V123.64a4.9,4.9,0,1,1,9.8,0Z"/><path class="cls-2" d="M129.68,111.32a12.32,12.32,0,0,0-12.31,12.32v12.28a12.3,12.3,0,0,0,24.6,0V123.64a12.31,12.31,0,0,0-12.29-12.32m4.91,24.6a4.92,4.92,0,0,1-9.83,0V123.64a4.92,4.92,0,1,1,9.83,0Z"/><line class="cls-3" x1="334.69" y1="35" x2="334.69" y2="177"/><path class="cls-1" d="M378.94,156a2.35,2.35,0,0,0-4.69,0v3.7A2.36,2.36,0,0,0,376.6,162a2.32,2.32,0,0,0,2.17-1.48,2.53,2.53,0,0,0,.17-1v-.34H376.6v-1.15h3.49v1.5a3.46,3.46,0,0,1-3.49,3.6,3.51,3.51,0,0,1-3.5-3.49V156a3.49,3.49,0,0,1,6.87-.91,3.35,3.35,0,0,1,.12.91h-1.15Z"/><path class="cls-1" d="M384.77,163.14a2.86,2.86,0,0,1-2.85-2.85V158.4a2.84,2.84,0,1,1,5.68,0v1.89A2.83,2.83,0,0,1,384.77,163.14Zm0-1.07a1.79,1.79,0,0,0,1.77-1.78V158.4a1.78,1.78,0,1,0-3.56,0v1.89A1.81,1.81,0,0,0,384.77,162.07Z"/><path class="cls-1" d="M398.14,162h.27v1.06h-.28a1.92,1.92,0,0,1-1.94-1.94v-4.43h-.87v-1.06h.87v-3.06h1.07v3.06h1.49v1.06h-1.49v4.43A.87.87,0,0,0,398.14,162Z"/><path class="cls-1" d="M403.41,163.14a2.85,2.85,0,0,1-2.85-2.85V158.4a2.84,2.84,0,1,1,5.68,0v1.89A2.83,2.83,0,0,1,403.41,163.14Zm0-1.07a1.79,1.79,0,0,0,1.76-1.78V158.4a1.79,1.79,0,0,0-1.76-1.78,1.81,1.81,0,0,0-1.79,1.78v1.89A1.81,1.81,0,0,0,403.41,162.07Z"/><path class="cls-1" d="M415.43,159.67a2.34,2.34,0,0,0,4.68,0v-7.1h1.15v7.1a3.5,3.5,0,0,1-7,0v-7.1h1.16Z"/><path class="cls-1" d="M429.55,160.85v-8.28h1.16v10.49h-1.16l-4.68-8.27v8.27h-1.16V152.57h1.16Z"/><path class="cls-1" d="M434.29,157.23H439v-4.66h1.15v10.49H439v-4.68h-4.68v4.68h-1.16V152.57h1.16Z"/><path class="cls-1" d="M445.79,153.63a2.34,2.34,0,0,0-2.35,2.34v3.7a2.36,2.36,0,0,0,2.35,2.34,2.29,2.29,0,0,0,2.32-2.34h1.17a3.27,3.27,0,0,1-.12.9,3.49,3.49,0,0,1-6.87-.9V156a3.49,3.49,0,0,1,6.87-.91,3.35,3.35,0,0,1,.12.91h-1.17A2.28,2.28,0,0,0,445.79,153.63Z"/><path class="cls-1" d="M457.18,163.06l-2-4h-2.6v4h-1.15V152.57h3.72a3.26,3.26,0,0,1,1.19,6.3l2.08,4.19Zm.1-7.23a2.11,2.11,0,0,0-2.11-2.1H452.6v4.21h2.57A2.12,2.12,0,0,0,457.28,155.83Z"/><path class="cls-1" d="M474.58,155.63h1.13l-2.33,7.43H472.3l-1.51-5.8-1.51,5.8H468.2l-2.33-7.43H467l1.71,5.88,1.49-5.88h1.18l1.48,5.88Z"/><path class="cls-1" d="M480.15,162.07a1.67,1.67,0,0,0,1.29-.57l.76.77a2.75,2.75,0,0,1-2.05.87,2.85,2.85,0,0,1-2.84-2.85V158.4a2.84,2.84,0,1,1,5.68,0v1.07h-4.61v.82A1.79,1.79,0,0,0,480.15,162.07Zm0-5.45a1.76,1.76,0,0,0-1.78,1.83h3.55A1.78,1.78,0,0,0,480.16,156.62Z"/><path class="cls-1" d="M486,152.57v3.75a2.49,2.49,0,0,1,1.78-.69,2.85,2.85,0,0,1,2.84,2.85v1.75a2.84,2.84,0,0,1-2.84,2.83,2.46,2.46,0,0,1-1.78-.69v.69H485V152.57ZM487.8,162a1.8,1.8,0,0,0,1.78-1.77v-1.75a1.78,1.78,0,1,0-3.56,0v1.75A1.79,1.79,0,0,0,487.8,162Z"/><path class="cls-1" d="M494.58,162.1a1.05,1.05,0,0,0,1.07-1.06,1.28,1.28,0,0,0-.92-1.16l-.78-.35c-1.2-.53-1.67-1.24-1.67-2a2,2,0,0,1,2.14-2,2.68,2.68,0,0,1,2.46,1.54l-1,.45a1.74,1.74,0,0,0-1.51-.92,1,1,0,0,0-1,.92c0,.35.24.69,1,1l.88.39a2.15,2.15,0,0,1,1.55,2.09,2.09,2.09,0,0,1-2.17,2.11,2.68,2.68,0,0,1-2.45-1.54l1-.47A1.85,1.85,0,0,0,494.58,162.1Z"/><path class="cls-1" d="M499.9,153.84h-1.26v-1.26h1.26Zm-.11,9.22h-1.06v-7.43h1.06Z"/><path class="cls-1" d="M504.71,162H505v1.06h-.28a1.92,1.92,0,0,1-1.94-1.94v-4.43h-.88v-1.06h.88v-3.06h1.06v3.06h1.49v1.06h-1.49v4.43A.88.88,0,0,0,504.71,162Z"/><path class="cls-1" d="M510,162.07a1.71,1.71,0,0,0,1.3-.57l.75.77a2.75,2.75,0,0,1-2,.87,2.84,2.84,0,0,1-2.83-2.85V158.4a2.84,2.84,0,1,1,5.68,0v1.07H508.2v.82A1.79,1.79,0,0,0,510,162.07Zm0-5.45a1.77,1.77,0,0,0-1.78,1.83h3.55A1.78,1.78,0,0,0,510,156.62Z"/><polygon class="cls-1" points="530.85 159.91 530.85 162.6 522.25 162.6 522.25 154 524.94 154 524.94 152.92 521.18 152.92 521.18 163.67 531.93 163.67 531.93 159.91 530.85 159.91"/><polygon class="cls-1" points="528.17 152.92 528.17 154 530.09 154 526.17 157.91 526.93 158.68 530.85 154.75 530.85 156.68 531.93 156.68 531.93 152.92 528.17 152.92"/><path class="cls-4" d="M210.74,144.19c0,5.64-3.05,8.35-9.26,8.35s-9.31-2.71-9.31-8.35v-12.5h6.28v11.1c0,2.08,0,4.68,3.05,4.68s3-2.6,3-4.68v-11.1h6.27v12.5"/><polygon class="cls-4" points="214.51 131.69 220.93 131.69 226.86 142.59 226.92 142.59 226.92 131.69 232.85 131.69 232.85 152.06 226.75 152.06 220.5 140.94 220.44 140.94 220.44 152.06 214.51 152.06 214.51 131.69"/><polygon class="cls-4" points="236.7 131.69 242.98 131.69 242.98 138.77 248.85 138.77 248.85 131.69 255.13 131.69 255.13 152.06 248.85 152.06 248.85 143.99 242.98 143.99 242.98 152.06 236.7 152.06 236.7 131.69"/><path class="cls-4" d="M271.19,139.28a3.27,3.27,0,0,0-3.28-3c-2.94,0-3.88,2.85-3.88,5.59s.94,5.59,3.88,5.59c2.11,0,2.94-1.49,3.31-3.4h6.16c0,4.11-3.34,8.47-9.3,8.47-6.59,0-10.33-4.65-10.33-10.66,0-6.42,4.05-10.67,10.33-10.67,5.59,0,8.67,3,9.21,8.07h-6.1"/><path class="cls-4" d="M286.28,136.54h2.93c2.4,0,3.11.74,3.11,2,0,1.82-1.59,2-2.76,2h-3.28ZM280,152.06h6.28V145h3.34c2.48,0,2.65,2,2.82,4a14.59,14.59,0,0,0,.51,3.14h6.28c-.57-.94-.6-3.37-.69-4.36-.23-2.54-1.28-4.43-3-5.08,2.08-.77,3.05-3,3.05-5.11,0-3.85-3.08-5.82-6.65-5.82H280v20.37"/><polygon class="cls-4" points="194.22 156.74 192.17 156.74 192.17 155.48 197.76 155.48 197.76 156.74 195.72 156.74 195.72 162.3 194.22 162.3 194.22 156.74"/><path class="cls-4" d="M198.23,155.48h1.36v2.57h0a1.73,1.73,0,0,1,1.45-.82c1.44,0,1.81.81,1.81,2v3h-1.36v-2.79c0-.81-.24-1.21-.87-1.21s-1,.41-1,1.41v2.59h-1.36v-6.82"/><path class="cls-4" d="M204.81,160.16c0,.86.45,1.25,1.21,1.25a1.12,1.12,0,0,0,1.07-.64h1.19a2.22,2.22,0,0,1-2.31,1.67,2.41,2.41,0,0,1-2.52-2.6,2.47,2.47,0,0,1,2.52-2.61c1.68,0,2.5,1.41,2.4,2.93Zm2.2-.86c-.12-.69-.42-1.05-1.08-1.05a1.06,1.06,0,0,0-1.12,1.05H207"/><path class="cls-4" d="M217.18,159.72c0,1.85-1.09,2.74-2.91,2.74s-2.91-.88-2.91-2.74v-4.24h1.5v4.24c0,.75.19,1.48,1.41,1.48,1.07,0,1.41-.47,1.41-1.48v-4.24h1.5v4.24"/><polygon class="cls-4" points="218.19 155.48 219.68 155.48 222.53 160.06 222.54 160.06 222.54 155.48 223.95 155.48 223.95 162.3 222.45 162.3 219.61 157.73 219.59 157.73 219.59 162.3 218.19 162.3 218.19 155.48"/><path class="cls-4" d="M228.72,156.64h1.64c.67,0,1,.29,1,1s-.37,1-1,1h-1.64Zm-1.5,5.66h1.5v-2.67h1.5c.76,0,1,.32,1.14,1a7.26,7.26,0,0,0,.24,1.63h1.5a3.69,3.69,0,0,1-.29-1.61c-.05-.69-.26-1.41-1-1.6v0a1.68,1.68,0,0,0,1.08-1.71,1.88,1.88,0,0,0-2-1.88h-3.68v6.82"/><path class="cls-4" d="M234.92,159.3a1.07,1.07,0,0,1,1.13-1.05c.66,0,1,.36,1.08,1.05Zm3.57.86c.09-1.52-.72-2.93-2.4-2.93a2.47,2.47,0,0,0-2.52,2.61,2.41,2.41,0,0,0,2.52,2.6,2.22,2.22,0,0,0,2.31-1.67h-1.19a1.12,1.12,0,0,1-1.07.64c-.76,0-1.18-.39-1.22-1.25h3.57"/><path class="cls-4" d="M239.38,158.27h-.81v-.91h.81V157a1.45,1.45,0,0,1,1.65-1.5c.24,0,.49,0,.72,0v1a4,4,0,0,0-.5,0c-.36,0-.51.15-.51.56v.3h.94v.91h-.94v4h-1.36v-4"/><path class="cls-4" d="M246.73,162.3h-1.29v-.69h0a1.74,1.74,0,0,1-1.51.83c-1.44,0-1.8-.82-1.8-2v-3h1.35v2.79c0,.81.24,1.22.87,1.22s1.05-.42,1.05-1.42v-2.59h1.36v4.94"/><path class="cls-4" d="M249.86,161.14c-.84,0-1.1-.78-1.1-1.48s.33-1.41,1.1-1.41,1.15.72,1.15,1.52a1.22,1.22,0,0,1-1.15,1.37m2.44-3.78H251V158h0a1.53,1.53,0,0,0-1.47-.79,2.2,2.2,0,0,0-2.12,2.44c0,1.36.63,2.49,2.11,2.49a1.66,1.66,0,0,0,1.48-.77h0V162c0,.71-.33,1.23-1.09,1.23a.92.92,0,0,1-1-.68h-1.35c.07,1.13,1.21,1.59,2.18,1.59,2.28,0,2.56-1.38,2.56-2.19v-4.63"/><path class="cls-4" d="M254.34,159.3a1.07,1.07,0,0,1,1.13-1.05c.66,0,1,.36,1.08,1.05Zm3.56.86c.1-1.52-.71-2.93-2.4-2.93a2.47,2.47,0,0,0-2.52,2.61,2.41,2.41,0,0,0,2.52,2.6,2.23,2.23,0,0,0,2.32-1.67h-1.2a1.1,1.1,0,0,1-1.07.64c-.75,0-1.17-.39-1.21-1.25h3.56"/><path class="cls-4" d="M259.65,159.3a1.07,1.07,0,0,1,1.13-1.05c.66,0,1,.36,1.08,1.05Zm3.57.86c.09-1.52-.72-2.93-2.4-2.93a2.47,2.47,0,0,0-2.52,2.61,2.41,2.41,0,0,0,2.52,2.6,2.22,2.22,0,0,0,2.31-1.67h-1.19a1.12,1.12,0,0,1-1.07.64c-.76,0-1.18-.39-1.22-1.25h3.57"/><path class="cls-4" d="M269.43,157.16h0l.86,2.5h-1.77Zm-3.34,5.14h1.52l.54-1.52h2.55l.52,1.52h1.56l-2.56-6.82h-1.54Z"/><path class="cls-4" d="M275.32,161.14c-.83,0-1.1-.78-1.1-1.48s.33-1.41,1.1-1.41,1.15.72,1.15,1.52a1.22,1.22,0,0,1-1.15,1.37m2.44-3.78h-1.29V158h0a1.53,1.53,0,0,0-1.47-.79,2.2,2.2,0,0,0-2.12,2.44c0,1.36.63,2.49,2.11,2.49a1.66,1.66,0,0,0,1.48-.77h0V162c0,.71-.33,1.23-1.09,1.23a.92.92,0,0,1-1-.68H273c.07,1.13,1.21,1.59,2.18,1.59,2.28,0,2.56-1.38,2.56-2.19v-4.63"/><path class="cls-4" d="M279.8,159.3a1.07,1.07,0,0,1,1.13-1.05c.66,0,.95.36,1.08,1.05Zm3.56.86c.1-1.52-.71-2.93-2.39-2.93a2.47,2.47,0,0,0-2.53,2.61,2.42,2.42,0,0,0,2.53,2.6,2.23,2.23,0,0,0,2.31-1.67h-1.2a1.1,1.1,0,0,1-1.07.64c-.75,0-1.17-.39-1.21-1.25h3.56"/><path class="cls-4" d="M284,157.36h1.29v.69h0a1.73,1.73,0,0,1,1.5-.82c1.45,0,1.81.81,1.81,2v3h-1.36v-2.79c0-.81-.23-1.21-.87-1.21s-1.05.41-1.05,1.41v2.59H284v-4.94"/><path class="cls-4" d="M292.78,159.1a.93.93,0,0,0-1-.85c-.87,0-1.15.88-1.15,1.61s.27,1.55,1.12,1.55a1,1,0,0,0,1.08-1h1.31a2.21,2.21,0,0,1-2.37,2,2.4,2.4,0,0,1-2.5-2.54,2.44,2.44,0,0,1,2.52-2.67,2.1,2.1,0,0,1,2.33,1.87h-1.33"/><path class="cls-4" d="M297.16,162.92a1.54,1.54,0,0,1-1.7,1.12,7.86,7.86,0,0,1-.83,0v-1.11c.26,0,.53.05.79,0a.63.63,0,0,0,.47-.92l-1.74-4.64h1.46l1.11,3.38h0l1.08-3.38h1.41l-2.07,5.56"/><path class="cls-4" d="M248.42,102.83c1,0,.85-.55.85-1.58v-5c0-1-.11-1.35.48-1.35,2.06,0,2.62-.19,2.62-2V74.4c0-5-3.57-4.21-4.58-6.05-1.43-2.49,2.68-2.49,1.18-7.89-.37-1.22-1.33-2-3.19-2s-2.82.75-3.2,2c-1.49,5.4,2.62,5.4,1.19,7.89-1,1.84-4.58,1-4.58,6.05V92.9c0,1.83.55,2,2.62,2,.58,0,.48.32.48,1.35v5c0,1-.12,1.58.86,1.58h5.27"/><path class="cls-4" d="M232.15,62.68c-1.83,1.94-4.72,6.46-2.83,10.22,3.83,1.46,3.54-12.1,8.31-11.87,2.36,2.18-.7,8.58-1.65,11.4-1.18,3.46-2.12,10.74-4.36,14.26-1.89,2.94-.47,12.16-1.06,15.33-1.59,1.58-5.9.47-7.73.17,0-3.64-.47-6.51-1.06-12.33-.06-1.17-1.3-19.14-.3-21.31,2.07-4.52,13.33-13.15,14.86-14.8,1.36-1.46,6.13-6.34,8-6.34,1.29.88.52,2.94.23,3.76-1.83,4.52-9.73,9-12.38,11.51"/><path class="cls-4" d="M259.62,62.68c1.77,1.94,4.66,6.46,2.83,10.22-3.89,1.46-3.59-12.1-8.37-11.87-2.3,2.18.77,8.58,1.71,11.4,1.18,3.46,2.12,10.74,4.36,14.26,1.83,2.94.47,12.16,1,15.33,1.65,1.58,5.9.47,7.78.17a122.24,122.24,0,0,1,1-12.33c.12-1.17,1.35-19.14.35-21.31C268.23,64,257,55.4,255.44,53.75c-1.42-1.46-6.14-6.34-8-6.34-1.36.88-.53,2.94-.24,3.76,1.83,4.52,9.73,9,12.38,11.51"/><path class="cls-4" d="M215.77,56.59c-1,.94-3.25,1.59-4.79,3.65-.59-1.12,1-3.82,2.78-5.41a22.9,22.9,0,0,1,4.78-3.12c.59,1.35-1.53,3.41-2.77,4.88"/><path class="cls-4" d="M212.64,63.94c-1.71,1.59-3.55,2.24-5.91,5.12a17.22,17.22,0,0,1-.3-8.59c.83-2.7,2.19-5.7,4.5-6.64a25,25,0,0,0-1.43,6.53c-1,3.94-1.59,4.06-1.35,4.58.23,0,1.53-2,3.13-3.64,1.89-1.88,4.25-2.3,5.79-3.41a20.23,20.23,0,0,1-4.43,6"/><path class="cls-4" d="M204.3,80.24c-2.3-4.12-2.53-7.12-2.71-10.59.12-2.41,1.3-8,3.07-8.82-.53,5,.83,5.53.3,9.7,0,.24-.6,4.59-.6,4.83.71-.12.07-4,8.16-9.59-1.77,3.06-1,4-4.14,8.06a14.79,14.79,0,0,0-4.08,6.41"/><path class="cls-4" d="M207.56,84.12c-1.72,2.47-1.42,3.71-1.83,4.89-4.09-2.36-8.69-11.71-7-16.36,1.06,3.53,2.54,4.3,3.61,7.24,1.83,4.41,1.53,5.76,2.71,6.76a16.65,16.65,0,0,1,1.3-7c1.13-1.7,2-3.94,2.84-4.7.89,3.23.24,5.88-1.65,9.17"/><path class="cls-4" d="M211.22,92.12c0,3.59-.65,5.18-.95,7.83-7-2.29-10.69-10.3-10.69-14.24,2.13,4.83,5.26,4.77,9.34,11.59.35-2.59-.71-.64-.83-5.53.12-5.12,1.18-5.29,1.36-8.47,1.3,1.41,1.77,7.06,1.77,8.82"/><path class="cls-4" d="M217.07,102.3c.53,2.65.76,5.77,1.18,8.06-4-1.47-5-.35-9.81-3.35-2.18-1.18-6.08-6.12-5.84-9.65,4.72,5.24,5.55,4.65,7.85,6.59,2.13,1.71,3.84,4.24,5.38,3.88.11-1.41-3.49-4.47-3-13.29a24.55,24.55,0,0,1,4.26,7.76"/><path class="cls-4" d="M225,108.89c1.24,1.77,1,2.53,4.14,6.18a35.19,35.19,0,0,1-8.33,1.65c-2,0-9.1-1.88-11.46-6.71,4.07,2.18,4.13,1.65,9.57,2.82,3.9.88,6.68,2.12,7.74,2-.24-.53-3.25-1.77-5.32-4.36-2.07-2.77-1.6-5.88-3.43-8.18,1.24-.35,6.09,5.3,7.09,6.59"/><path class="cls-4" d="M275.67,56.59c.95.94,3.25,1.59,4.73,3.65.65-1.12-.95-3.82-2.78-5.41a19.78,19.78,0,0,0-4.78-3.12c-.6,1.35,1.53,3.41,2.83,4.88"/><path class="cls-4" d="M278.8,63.94c1.66,1.59,3.49,2.24,5.85,5.12a17.22,17.22,0,0,0,.3-8.59c-.77-2.7-2.19-5.7-4.49-6.64a23.16,23.16,0,0,1,1.42,6.53c1,3.94,1.59,4.06,1.35,4.58-.23,0-1.53-2-3.13-3.64-1.83-1.88-4.19-2.3-5.79-3.41a21,21,0,0,0,4.49,6"/><path class="cls-4" d="M287.08,80.24c2.36-4.12,2.54-7.12,2.71-10.59-.12-2.41-1.3-8-3-8.82.47,5-.89,5.53-.3,9.7,0,.24.54,4.59.54,4.83-.65-.12-.07-4-8.1-9.59,1.72,3.06.89,4,4.08,8.06a14,14,0,0,1,4.08,6.41"/><path class="cls-4" d="M283.88,84.12c1.66,2.47,1.36,3.71,1.78,4.89,4.07-2.36,8.74-11.71,7-16.36-1,3.53-2.54,4.3-3.55,7.24-1.89,4.41-1.59,5.76-2.71,6.76a16.54,16.54,0,0,0-1.36-7c-1.07-1.7-2-3.94-2.84-4.7-.83,3.23-.23,5.88,1.71,9.17"/><path class="cls-4" d="M280.16,92.12c0,3.59.71,5.18,1,7.83,7-2.29,10.69-10.3,10.69-14.24-2.19,4.83-5.26,4.77-9.39,11.59-.36-2.59.7-.64.83-5.53-.13-5.12-1.19-5.29-1.36-8.47-1.3,1.41-1.78,7.06-1.78,8.82"/><path class="cls-4" d="M274.31,102.3c-.53,2.65-.7,5.77-1.12,8.06,4-1.47,5-.35,9.75-3.35,2.18-1.18,6.14-6.12,5.91-9.65-4.73,5.24-5.62,4.65-7.86,6.59-2.13,1.71-3.9,4.24-5.44,3.88-.11-1.41,3.49-4.47,3.08-13.29a23.4,23.4,0,0,0-4.32,7.76"/><path class="cls-4" d="M266.34,108.89c-1.18,1.77-.89,2.53-4.14,6.18a35.85,35.85,0,0,0,8.39,1.65c2,0,9-1.88,11.4-6.71-4.07,2.18-4.13,1.65-9.57,2.82-3.9.88-6.62,2.12-7.73,2,.23-.53,3.3-1.77,5.31-4.36,2.07-2.77,1.6-5.88,3.49-8.18-1.3-.35-6.15,5.3-7.15,6.59"/><path class="cls-4" d="M235.62,125.48l-1.18-.59a26,26,0,0,1,20.38-8.41c12.88.71,12,3.71,18.9,3.24.77-.06-.59.94-.59.94a24,24,0,0,1-15.06-.24c-8.27-2.82-13.65-4.53-22.45,5.06"/><path class="cls-4" d="M256,125.48l1.18-.59a25.76,25.76,0,0,0-20.32-8.41c-12.94.71-12.05,3.71-19,3.24-.76-.06.6.94.6.94a24,24,0,0,0,15.06-.24c8.33-2.82,13.71-4.53,22.45,5.06"/></g></g></svg>