<?xml version="1.0" encoding="utf-8"?>
<!-- Generator: Adobe Illustrator 23.1.0, SVG Export Plug-In . SVG Version: 6.00 Build 0)  -->
<svg version="1.1" id="レイヤー_1" xmlns="http://www.w3.org/2000/svg" xmlns:xlink="http://www.w3.org/1999/xlink" x="0px"
	 y="0px" viewBox="0 0 58.5 80.7" style="enable-background:new 0 0 58.5 80.7;" xml:space="preserve">
<style type="text/css">
	.st0{fill:#0076c0;}
</style>
<title>icon_people</title>
<path class="st0" d="M18.6,47.4c-0.6,0-1.2-0.2-1.6-0.6c-0.7-0.5-1-1.3-1-2.1c0-0.8,0.4-1.6,1.1-2.1l2-1.5c0.3-0.2,0.8-0.2,1,0.1
	c0.2,0.3,0.2,0.8-0.1,1l-2,1.5c-0.3,0.2-0.5,0.6-0.5,1c0,0.4,0.2,0.7,0.5,1c0.4,0.3,1,0.3,1.5,0l2.8-2.1c0.3-0.2,0.8-0.2,1,0.1
	c0.2,0.3,0.2,0.8-0.1,1l-2.8,2.1C19.7,47.2,19.2,47.4,18.6,47.4z"/>
<path class="st0" d="M25,52.3c-0.6,0-1.2-0.2-1.6-0.6c-0.7-0.5-1-1.3-1-2.1c0-0.8,0.4-1.6,1.1-2.1l2-1.5c0.3-0.2,0.8-0.2,1,0.1
	c0.2,0.3,0.2,0.8-0.1,1l-2,1.5c-0.3,0.2-0.5,0.6-0.5,1c0,0.4,0.2,0.7,0.5,1c0.4,0.3,1.1,0.3,1.5,0l2.8-2.1c0.3-0.2,0.8-0.2,1,0.1
	c0.2,0.3,0.2,0.8-0.1,1l-2.8,2.1C26.1,52.1,25.5,52.3,25,52.3z"/>
<path class="st0" d="M15.4,44.9c-0.6,0-1.2-0.2-1.6-0.6c-0.7-0.5-1-1.3-1-2.1c0-0.8,0.4-1.6,1.1-2.1l2-1.5c0.3-0.2,0.8-0.2,1,0.1
	c0.2,0.3,0.2,0.8-0.1,1l-2,1.5c-0.3,0.2-0.5,0.6-0.5,1c0,0.4,0.2,0.7,0.5,1c0.4,0.3,1,0.3,1.5,0l2.8-2.1c0.3-0.2,0.8-0.2,1,0.1
	c0.2,0.3,0.2,0.8-0.1,1L17,44.4C16.5,44.7,16,44.9,15.4,44.9z"/>
<path class="st0" d="M21.8,49.9c-0.6,0-1.2-0.2-1.6-0.6c-0.7-0.5-1-1.3-1-2.1c0-0.8,0.4-1.6,1.1-2.1l2-1.5c0.3-0.2,0.8-0.2,1,0.1
	c0.2,0.3,0.2,0.8-0.1,1l-2,1.5c-0.3,0.2-0.5,0.6-0.5,1c0,0.4,0.2,0.7,0.5,1c0.4,0.3,1,0.3,1.5,0l2.8-2.1c0.3-0.2,0.8-0.2,1,0.1
	c0.2,0.3,0.2,0.8-0.1,1l-2.8,2.1C22.9,49.7,22.3,49.9,21.8,49.9z"/>
<path class="st0" d="M41.9,40.1c-0.2,0-0.4-0.1-0.6-0.3c-0.2-0.3-0.2-0.8,0.1-1l2.8-2.2c0.4-0.3,0.6-0.6,0.8-1.1l1.3-3.4
	c0.3-0.8,0.8-1.5,1.5-2L57,23c0.3-0.2,0.8-0.2,1,0.1c0.2,0.3,0.2,0.8-0.1,1l-9.2,7.2c-0.4,0.4-0.8,0.8-1,1.3l-1.3,3.4
	c-0.3,0.7-0.7,1.3-1.3,1.7L42.3,40C42.2,40.1,42.1,40.1,41.9,40.1z"/>
<path class="st0" d="M29.2,24.3C29.1,24.3,29.1,24.3,29.2,24.3l-9-1.2C19,23,18,22.4,17.3,21.6L10.5,14c-0.3-0.3-0.2-0.8,0.1-1
	c0.3-0.3,0.8-0.2,1,0.1l6.8,7.6c0.5,0.6,1.2,0.9,1.9,1l9,1.2c0.4,0.1,0.7,0.4,0.6,0.8C29.8,24.1,29.5,24.3,29.2,24.3z"/>
<path class="st0" d="M31.1,51.4c-0.2,0-0.3,0-0.4-0.2L13.1,37.8c-0.6-0.4-1-1-1.3-1.7l-1.3-3.4c-0.2-0.5-0.5-1-1-1.3l-9.2-7.2
	c-0.3-0.2-0.4-0.7-0.1-1c0.2-0.3,0.7-0.4,1-0.1l9.2,7.2c0.7,0.5,1.2,1.2,1.5,2l1.3,3.4c0.2,0.4,0.4,0.8,0.8,1.1l17.5,13.5
	c0.3,0.2,0.4,0.7,0.1,1C31.5,51.3,31.3,51.4,31.1,51.4z"/>
<path class="st0" d="M39.3,47.4c-0.6,0-1.1-0.2-1.6-0.5l-8.8-6.7c-0.3-0.2-0.4-0.7-0.1-1c0.2-0.3,0.7-0.4,1-0.1l8.8,6.7
	c0.4,0.3,1.1,0.3,1.5,0c0.3-0.2,0.5-0.6,0.5-1c0-0.4-0.2-0.7-0.5-1l-8-6.1c-0.3-0.2-0.4-0.7-0.1-1c0.2-0.3,0.7-0.4,1-0.1l8,6.1
	c0.7,0.5,1,1.3,1.1,2.1c0,0.8-0.4,1.6-1,2.1C40.4,47.2,39.9,47.4,39.3,47.4z"/>
<path class="st0" d="M32.9,52.3c-0.6,0-1.1-0.2-1.6-0.5l-10.7-8.3c-0.3-0.2-0.4-0.7-0.1-1c0.2-0.3,0.7-0.4,1-0.1l10.7,8.3
	c0.4,0.3,1.1,0.3,1.5,0c0.3-0.2,0.5-0.6,0.5-1c0-0.4-0.2-0.7-0.5-1l-8-6.1c-0.3-0.2-0.4-0.7-0.1-1c0.2-0.3,0.7-0.4,1-0.1l8,6.1
	c0.7,0.5,1,1.3,1.1,2.1c0,0.8-0.4,1.6-1,2.1C34.1,52.1,33.5,52.3,32.9,52.3z"/>
<path class="st0" d="M42.5,44.9c-0.6,0-1.1-0.2-1.6-0.5l-8.8-6.7c-0.3-0.2-0.4-0.7-0.1-1c0.2-0.3,0.7-0.4,1-0.1l8.8,6.7
	c0.4,0.3,1.1,0.3,1.5,0c0.3-0.2,0.5-0.6,0.5-1c0-0.4-0.2-0.7-0.5-1L29.6,31c-0.4-0.3-1-0.3-1.4,0L25,33.4c-1.1,0.8-2.6,0.8-3.7,0
	c-0.7-0.6-1.2-1.4-1.2-2.4c0-0.9,0.4-1.8,1.2-2.4l6.8-5.2c0.4-0.3,0.9-0.5,1.5-0.6l8.3-1.1c0.7-0.1,1.4-0.5,1.9-1l6.8-7.6
	c0.3-0.3,0.7-0.3,1-0.1c0.3,0.3,0.3,0.7,0.1,1L41,21.6c-0.7,0.8-1.7,1.3-2.8,1.5l-8.3,1.1c-0.3,0-0.6,0.2-0.8,0.3l-6.8,5.2
	c-0.4,0.3-0.6,0.8-0.6,1.2c0,0.5,0.2,0.9,0.6,1.2c0.6,0.4,1.3,0.4,1.9,0l3.2-2.4c0.9-0.7,2.2-0.7,3.2,0l13.6,10.3
	c0.7,0.5,1,1.3,1.1,2.1s-0.4,1.6-1,2.1C43.6,44.7,43,44.9,42.5,44.9z"/>
<path class="st0" d="M36.1,49.9c-0.6,0-1.1-0.2-1.6-0.5l-8.8-6.7c-0.3-0.2-0.4-0.7-0.1-1c0.2-0.3,0.7-0.4,1-0.1l8.8,6.7
	c0.4,0.3,1.1,0.3,1.5,0c0.3-0.2,0.5-0.6,0.5-1c0-0.4-0.2-0.7-0.5-1l-8-6.1c-0.3-0.2-0.4-0.7-0.1-1c0.2-0.3,0.7-0.4,1-0.1l8,6.1
	c0.7,0.5,1,1.3,1.1,2.1c0,0.8-0.4,1.6-1,2.1C37.2,49.7,36.7,49.9,36.1,49.9z"/>
<path class="st0" d="M12.2,79.4c0.4,0,0.7-0.3,0.7-0.6c0-0.3-0.1-0.4-0.3-0.5l-1.2-0.6c-0.8-0.4-1.2-1-1.2-1.7c0-1.1,0.9-2,2-2
	c0.9,0,1.6,0.5,2,1.3L13,75.8c-0.2-0.3-0.4-0.5-0.8-0.5c-0.4,0-0.7,0.3-0.7,0.6c0,0.2,0.1,0.4,0.3,0.5l1.2,0.6
	c0.8,0.4,1.2,0.9,1.2,1.7c0,1.1-0.9,2-2,2c-0.9,0-1.6-0.5-2-1.3l1.2-0.5C11.6,79.2,11.9,79.4,12.2,79.4"/>
<path class="st0" d="M18.1,80.7c-1.2,0-2.2-1-2.2-2.2v-2.4c0-1.2,1-2.2,2.2-2.2c1.2,0,2.2,1,2.2,2.2v2.4
	C20.3,79.7,19.3,80.7,18.1,80.7 M18.1,79.4c0.5,0,0.9-0.4,0.9-0.9v-2.4c0-0.5-0.4-0.9-0.9-0.9c-0.5,0-0.9,0.4-0.9,0.9v2.4
	C17.2,79,17.6,79.4,18.1,79.4"/>
<path class="st0" d="M24.1,75.3c-0.5,0-0.9,0.4-0.9,0.9v2.4c0,0.5,0.4,0.9,0.9,0.9c0.5,0,0.9-0.4,0.9-0.9h1.3c0,1.2-1,2.2-2.2,2.2
	c-1.2,0-2.2-1-2.2-2.2v-2.4c0-1.2,1-2.2,2.2-2.2c1.2,0,2.2,1,2.2,2.2H25C25,75.6,24.6,75.3,24.1,75.3"/>
<rect x="28.1" y="74" class="st0" width="1.3" height="6.7"/>
<polygon class="st0" points="35.8,75.3 32.7,75.3 32.7,76.7 35.1,76.7 35.1,78 32.7,78 32.7,79.3 35.8,79.3 35.8,80.7 31.4,80.7 
	31.4,74 35.8,74 "/>
<polygon class="st0" points="38.9,80.7 38.9,75.3 37.4,75.3 37.4,74 41.8,74 41.8,75.3 40.3,75.3 40.3,80.7 "/>
<polygon class="st0" points="44.4,80.7 44.4,78 42.9,74 44.2,74 45.1,76.5 46,74 47.3,74 45.7,78 45.7,80.7 "/>
</svg>
