<svg xmlns="http://www.w3.org/2000/svg" viewBox="0 0 960 190"><defs><style>.cls-1{fill:#379e49;}.cls-2{fill:#fff;}</style></defs><g id="Botton"><path class="cls-1" d="M960,0H0V190H960V0Z"/><path class="cls-2" d="M147.32,64.27l-7.48-13-.05-.07a8.34,8.34,0,0,0-2.73-2.7,8.53,8.53,0,0,0-3.81-1H113a7.88,7.88,0,0,0-7.14,3.83L91.78,75.75l15.62,9L122.86,58,141,89.38,156.4,59Zm-6.49,19.09c-4.34-7.5-19-32.9-19.07-33h11.11a5.8,5.8,0,0,1,2.76.67,5.53,5.53,0,0,1,1.75,1.76l8.89,15.41,3.2-1.86Z"/><path class="cls-2" d="M80.47,95.36l-7.48,13,0,.07a8.3,8.3,0,0,0-1,3.72,8.61,8.61,0,0,0,1,3.83l10.12,17.52h0A7.88,7.88,0,0,0,90,137.71h28.2v-18H87.26c5.63-9.74,18.11-31.39,18.11-31.39l-34,1.84Zm19.78-3.93c-4.33,7.5-19,32.9-19.06,33l-5.51-9.54-.05-.08a5.88,5.88,0,0,1-.79-2.73,5.56,5.56,0,0,1,.65-2.4l8.89-15.4-3.2-1.84Z"/><path class="cls-2" d="M140.81,137.71h15.05a8.23,8.23,0,0,0,3.7-1,8.59,8.59,0,0,0,2.82-2.78l10.11-17.52h0a7.86,7.86,0,0,0,.24-8.1l-14.1-24.42-15.61,9,15.46,26.78c-11.26,0-36.25,0-36.25,0l18.6,28.53Zm-13.29-15.17c8.66,0,38,0,38.13,0l-5.51,9.54,0,.08a5.87,5.87,0,0,1-2,2.05,5.59,5.59,0,0,1-2.4.63H137.94v3.7Z"/><path class="cls-2" d="M119.21,96.06l-1.43-4.4h-2v4.4h-2.55V82.86h4.25a4.31,4.31,0,0,1,4.26,4.4,4.4,4.4,0,0,1-1.69,3.51l1.69,5.29Zm-1.71-7a1.77,1.77,0,0,0,0-3.53h-1.7V89Z"/><path class="cls-2" d="M132.49,85.49h-6v2.64h4.67v2.66h-4.67v2.64h6v2.63H124V82.86h8.51Z"/><path class="cls-2" d="M137.11,96.06h-2.55V93.52h2.55Z"/><path class="cls-2" d="M105.7,108a1.21,1.21,0,0,1-2.41,0v-6.73h-2.16V108a3.37,3.37,0,0,0,6.73,0v-6.73H105.7Z"/><polygon class="cls-2" points="114.34 106.66 111.9 101.23 109.77 101.23 109.77 111.22 111.93 111.22 111.93 105.79 114.37 111.22 116.5 111.22 116.5 101.23 114.34 101.23 114.34 106.66"/><path class="cls-2" d="M129,108V104.5a3.37,3.37,0,1,0-6.73,0V108a3.37,3.37,0,0,0,3.37,3.36,3.91,3.91,0,0,0,.57,0l.65,1.9h2.17l-1-2.88A3.23,3.23,0,0,0,129,108Zm-4.56-3.46a1.2,1.2,0,0,1,1.2-1.2,1.14,1.14,0,0,1,1.2,1.2V108a1.2,1.2,0,0,1-2.4,0Z"/><polygon class="cls-2" points="132.91 101.23 130.75 101.23 130.75 111.22 137.48 111.22 137.48 109.06 132.91 109.06 132.91 101.23"/><path class="cls-2" d="M141.53,101.13a3.37,3.37,0,0,0-3.36,3.37V108a3.37,3.37,0,0,0,6.73,0V104.5A3.37,3.37,0,0,0,141.53,101.13Zm-1.2,3.37a1.2,1.2,0,1,1,2.4,0V108a1.2,1.2,0,0,1-2.4,0Z"/><rect class="cls-2" x="118.43" y="101.23" width="2.16" height="9.99"/><path class="cls-2" d="M227.16,119.19l-5.09-15.66h-7v15.66H206v-47h15.13a15.34,15.34,0,0,1,15.14,15.67,15.63,15.63,0,0,1-6,12.49l6,18.84Zm-6.07-25a6.28,6.28,0,0,0,0-12.56H215V94.14Z"/><path class="cls-2" d="M274.4,81.58H253.2V91h16.63v9.45H253.2v9.39h21.2v9.38H244.13v-47H274.4Z"/><path class="cls-2" d="M290.85,119.19h-9.07v-9.07h9.07Z"/><path class="cls-2" d="M320.55,103.65a5.54,5.54,0,1,1-11.07,0v-31h-10v31a15.51,15.51,0,1,0,31,0v-31h-10Z"/><polygon class="cls-2" points="360.35 97.69 349.11 72.68 339.31 72.68 339.31 118.7 349.29 118.7 349.29 93.69 360.52 118.7 370.32 118.7 370.32 72.68 360.35 72.68 360.35 97.69"/><rect class="cls-2" x="378.69" y="72.19" width="10.95" height="47"/><path class="cls-2" d="M428.05,103.65V87.73a15.51,15.51,0,0,0-31,0v15.92a15.53,15.53,0,0,0,15.51,15.51,16.61,16.61,0,0,0,2.64-.21l3,8.75h10l-4.52-13.23A14.93,14.93,0,0,0,428.05,103.65ZM407,87.73a5.54,5.54,0,0,1,5.54-5.53,5.29,5.29,0,0,1,5.53,5.53v15.92a5.54,5.54,0,1,1-11.07,0Z"/><polygon class="cls-2" points="445.91 72.68 435.94 72.68 435.94 118.7 466.95 118.7 466.95 108.73 445.91 108.73 445.91 72.68"/><path class="cls-2" d="M485.62,72.23a15.52,15.52,0,0,0-15.51,15.5v15.92a15.51,15.51,0,1,0,31,0V87.73A15.51,15.51,0,0,0,485.62,72.23Zm-5.54,15.5a5.54,5.54,0,0,1,11.07,0v15.92a5.54,5.54,0,1,1-11.07,0Z"/><path class="cls-2" d="M524.7,119.34c-.06-.55-.06-.88-.28-2.14A103.74,103.74,0,0,1,523,99.79a96.72,96.72,0,0,1,1-14.51c.27-1.65.27-1.65,1.47-7.83a28.84,28.84,0,0,0,.61-4.06v-.22l7.39.77c-2.24,4.77-4.33,18-4.38,27.49-.06,2-.06,2-.06,2.85v.88a10.34,10.34,0,0,1,0,1.15h0c.28-.61.28-.61.66-1.59.11-.39.38-1,.66-1.86.49-1.15.49-1.15,1-2.47a10.87,10.87,0,0,0,.66-1.7l4.54,2c-3.23,6.35-5.42,13.14-5.42,16.76a10.72,10.72,0,0,0,.11,1.48Zm12.37-35.87a39.4,39.4,0,0,0,9.92.88c1.91,0,3.12,0,5-.11,0-3.24-.06-6-.06-8.22a15.48,15.48,0,0,0-.16-2.63l6.84-.16a54.2,54.2,0,0,0-.38,8V83.8a54.56,54.56,0,0,0,7.39-1.32l1.21-.43.43-.11.22,6.18a10.15,10.15,0,0,0-1.58.28c-1.87.38-4.71.87-7.62,1.2v1.21c0,3.07,0,3.17.55,12.37a44.05,44.05,0,0,1,8.6,5,10.1,10.1,0,0,0,1.53.93l-2.63,6.63a20.53,20.53,0,0,0-4.1-3.51c-1.87-1.2-3.13-2-3.45-2.24v.76a9.7,9.7,0,0,1-.44,3.07C557.12,117,553.28,119,548,119c-7.17,0-11.55-3.4-11.55-9,0-5.32,4.65-9,11.28-9a13,13,0,0,1,4.87.77c-.16-1.37-.22-4.06-.44-11.67-2.19.06-3.5.11-4.92.11-2,0-4.22-.05-6.79-.27-.77,0-1.37-.06-1.65-.06a8.87,8.87,0,0,0-.93,0,2.3,2.3,0,0,0-.55-.06.85.85,0,0,0-.32.06Zm11.12,23c-3.5,0-5.69,1.36-5.69,3.61,0,2,2,3.39,5,3.39,2,0,3.62-.6,4.44-1.69a4.63,4.63,0,0,0,.71-3v-1.48A11.38,11.38,0,0,0,548.19,106.42Z"/><path class="cls-2" d="M591.08,73.89a49.62,49.62,0,0,0-.66,7.39c-.22,5.09-.55,16.21-.55,20.1,0,5.2.33,7.17,1.43,8.81,1.26,1.81,3.89,2.85,7.34,2.85,5.91,0,10.67-3.34,13.25-9.36a37.25,37.25,0,0,0,2.52-9.2A25.31,25.31,0,0,0,621,98.69c-2.19,7.4-3.83,11-6.51,14-4.11,4.65-9.53,7-16.43,7a17.82,17.82,0,0,1-9.59-2.41c-3.77-2.52-5.36-6.73-5.36-14.07,0-2.85.11-8.38.44-22.07,0-1.64,0-2.79,0-3.56a26.29,26.29,0,0,0-.22-3.72Zm15.61,2.4a39.66,39.66,0,0,1,5.75,8.06l-3.84,2a40.76,40.76,0,0,0-5.75-8.16Zm8.48,6.63A45.42,45.42,0,0,0,609.59,75l3.67-1.92A33.07,33.07,0,0,1,619,80.79Z"/><path class="cls-2" d="M647.33,74.27a53.11,53.11,0,0,0,1.31,8.82,26.43,26.43,0,0,1,10.57-2.19h1.48c1.15-4.66,1.53-6.69,1.59-8.49l6.9,1.37a5.73,5.73,0,0,0-.55,1.53c-.77,3-1.48,5.64-1.7,6.41A19,19,0,0,1,674.27,85,16.16,16.16,0,0,1,681,98.58c0,8-4.65,14.57-12.81,18a40.37,40.37,0,0,1-8.93,2.63,15.89,15.89,0,0,0-3.39-6.41,25,25,0,0,0,8.92-2.13c3.73-1.59,6.19-3.51,7.67-5.86a13.19,13.19,0,0,0,1.86-6.74,10,10,0,0,0-4-8.49,12.94,12.94,0,0,0-4.93-2.35,65.9,65.9,0,0,1-10,20.42,24.59,24.59,0,0,1-6.52,6,9.17,9.17,0,0,1-5.09,1.48c-5.64,0-9.42-4.93-9.42-12.32,0-6.74,3.06-12.55,8.76-16.82-.27-.82-1.26-5.58-1.86-8.65a7,7,0,0,0-.55-1.86Zm-7,28.42c0,3.56,1.54,6,3.73,6,1.53,0,3.28-1.21,5.14-3.56a59,59,0,0,1-4.49-12.6C641.69,95.79,640.37,98.86,640.37,102.69Zm13-2.9a4.44,4.44,0,0,1,.32-.71,60.71,60.71,0,0,0,5.48-12.65,18.14,18.14,0,0,0-9.42,2.19A63.88,63.88,0,0,0,653.08,99a4.71,4.71,0,0,1,.27.82Z"/><path class="cls-2" d="M733.42,117.92a37,37,0,0,0-10.13-7.51,25.14,25.14,0,0,0-3-1.37v.61c0,3.45-1,5.8-3.06,7.39s-5,2.35-9,2.35c-8,0-12.59-3.12-12.59-8.54,0-6,5.42-9.47,14.62-9.47a27.74,27.74,0,0,1,3.67.22,9.72,9.72,0,0,0-.06-1.32v-1.2c0-.77,0-.77-.11-3-2.63,0-4.32.11-5.47.11-3.34,0-5.37-.06-9.92-.38-.71-.06-1.26-.06-2.08-.06l.11-5.91a71.42,71.42,0,0,0,12.76.93c1.1,0,3-.06,4.49-.11,0-.49,0-2.36,0-5.48-1.76.06-2.63.06-3.45.06-2.69,0-9.75-.28-13.42-.55a11.72,11.72,0,0,0-1.2-.06h-.88l.05-6.07c2.8.71,8.44,1.15,14.74,1.15.87,0,2.73-.06,4.1-.11,0-5.48,0-5.54-.27-6.9h7c-.27,1.47-.32,2.19-.38,6.68,7.45-.44,12.21-1,15.77-2.08l.28,6.08a32.59,32.59,0,0,0-4.33.49c-4.82.65-6.95.82-11.77,1.09.05,1.37.05,2,.11,5.42,2.73-.16,2.73-.16,7.77-.71a40.4,40.4,0,0,0,6.79-1.2l.17,6c-.93.06-2.3.22-3.56.39-.82.1-3.29.38-7.4.76-.76.06-1.58.11-3.72.22.16,5.31.16,5.31.22,6.63,4.82,1.42,9.09,3.56,15,7.72.94.6,1.21.82,2,1.26ZM709.49,106.8c-4.44,0-7.12,1.42-7.12,3.78,0,2,2.36,3.28,6.24,3.28,2.3,0,4-.65,4.77-1.75a6.9,6.9,0,0,0,.66-3.5v-1.32A19.46,19.46,0,0,0,709.49,106.8Z"/><path class="cls-2" d="M781.13,92.89c0,.22,0,.66,0,1.31a16.62,16.62,0,0,1,1.76,7.72c0,6-2.85,11.12-8.16,14.79-2.3,1.59-4.82,2.74-9.92,4.49A18,18,0,0,0,761,115c4.5-.87,6.74-1.64,9.31-3.17,3.73-2.14,5.92-4.93,6.36-8-1.59,2.52-4.44,3.89-8,3.89a10.12,10.12,0,0,1-6.36-2,8.55,8.55,0,0,1-3.77-7.39c0-5.81,4.54-10,10.89-10a9.16,9.16,0,0,1,5.7,1.64,2.05,2.05,0,0,1-.06-.66c0-.11,0-3.17,0-4.65-7.83.22-13,.38-15.39.55-8.27.6-8.27.6-9.75.82l-.22-6.52a23.87,23.87,0,0,0,2.69.11c1.37,0,2.24,0,9.31-.27,3.56-.11,4.1-.11,8.6-.22l4.65-.17c-.05-5.2-.05-5.2-.33-6.62l6.9-.06a42.55,42.55,0,0,0-.27,6.52c9.53-.06,13.8-.16,15.82-.38l.06,6.29c-2-.16-4.66-.27-9.2-.27-1.32,0-2.3,0-6.63.11v3.56ZM770,93.44c-2.8,0-5.1,2-5.1,4.38a4.32,4.32,0,0,0,4.66,4.32c3.12,0,5.37-2.08,5.37-4.93C774.89,94.92,773,93.44,770,93.44Z"/><path class="cls-2" d="M815.8,112.33a9.26,9.26,0,1,1-9.26-9.25A9.29,9.29,0,0,1,815.8,112.33Zm-14.24,0a5,5,0,1,0,5-5A5,5,0,0,0,801.56,112.33Z"/><polygon class="cls-2" points="872.69 117.84 877.66 117.84 893.09 95.06 877.66 72.29 872.69 72.29 888.12 95.06 872.69 117.84"/><polygon class="cls-2" points="852.43 117.84 867.86 95.06 852.43 72.29 847.46 72.29 862.89 95.06 847.46 117.84 852.43 117.84"/><polygon class="cls-2" points="860.07 117.84 865.04 117.84 880.48 95.06 865.04 72.29 860.07 72.29 875.51 95.06 860.07 117.84"/></g></svg>