<svg xmlns="http://www.w3.org/2000/svg" viewBox="0 0 145.45 200.25"><defs><style>.cls-1{fill:none;stroke:#379e49;stroke-miterlimit:10;stroke-width:3.61px;}.cls-2{fill:#379e49;}</style></defs><g id="Botton"><path class="cls-1" d="M109.25,91.41,94,35.54A6.66,6.66,0,0,0,89,30.6L81.46,29a3.26,3.26,0,0,1-2.57-3.19V23a4.38,4.38,0,0,1,1.33-3.15,10.65,10.65,0,0,0,3.19-7.68c0-5.72-4.34-10.36-9.69-10.36S64,6.45,64,12.17a10.65,10.65,0,0,0,3.19,7.68A4.38,4.38,0,0,1,68.55,23v2.79A3.25,3.25,0,0,1,66,29l-7.5,1.62a6.66,6.66,0,0,0-5.07,4.94L38.19,91.41a3.26,3.26,0,0,0,3.21,3.8h0a3.25,3.25,0,0,0,3.18-2.55l12.6-37.94a1.69,1.69,0,0,1,2.11-1.26,1.77,1.77,0,0,1,1.23,1.86l-6.33,89.85a6.12,6.12,0,0,1-3,5.28l-4,3a2,2,0,0,0-.33,3.23,2.17,2.17,0,0,0,1.45.52H58.54a3.27,3.27,0,0,0,3.22-2.67L72.81,92.7a.93.93,0,0,1,1.82,0l11.05,61.83a3.27,3.27,0,0,0,3.22,2.67H99.13a2.17,2.17,0,0,0,1.45-.52,2,2,0,0,0-.33-3.23l-3-2.42a8.12,8.12,0,0,1-4-7l-6.32-88.7a1.76,1.76,0,0,1,1.22-1.86,1.69,1.69,0,0,1,2.11,1.26l12.6,37.94a3.26,3.26,0,0,0,6.39-1.25Z"/><path class="cls-2" d="M39.86,189a5.57,5.57,0,0,1-5.57,5.57H32.06v5.57H28.72V183.38h5.57A5.54,5.54,0,0,1,39.86,189Zm-5.57,2.23a2.23,2.23,0,0,0,0-4.46H32.06v4.46Z"/><path class="cls-2" d="M55.34,186.72h-7.8v3.33h6.12v3.36H47.54v3.34h7.8v3.34H44.2V183.38H55.34Z"/><path class="cls-2" d="M64.91,200.25a5.6,5.6,0,0,1-5.57-5.56v-5.91a5.57,5.57,0,0,1,11.14,0v5.91A5.57,5.57,0,0,1,64.91,200.25Zm0-3.33a2.25,2.25,0,0,0,2.24-2.23v-5.91a2.24,2.24,0,0,0-4.47,0v5.91A2.25,2.25,0,0,0,64.91,196.92Z"/><path class="cls-2" d="M86,189a5.57,5.57,0,0,1-5.57,5.57H78.21v5.57H74.87V183.38h5.57A5.54,5.54,0,0,1,86,189Zm-5.57,2.23a2.23,2.23,0,0,0,0-4.46H78.21v4.46Z"/><path class="cls-2" d="M101.51,196.75v3.34H90.38V183.38h3.33v13.37Z"/><path class="cls-2" d="M116.73,186.72h-7.8v3.33h6.12v3.36h-6.12v3.34h7.8v3.34H105.59V183.38h11.14Z"/></g></svg>