<?xml version="1.0" encoding="utf-8"?>
<!-- Generator: Adobe Illustrator 25.2.1, SVG Export Plug-In . SVG Version: 6.00 Build 0)  -->
<svg version="1.1" id="レイヤー_1" xmlns="http://www.w3.org/2000/svg" xmlns:xlink="http://www.w3.org/1999/xlink" x="0px"
	 y="0px" viewBox="0 0 145.4 200.2" style="enable-background:new 0 0 145.4 200.2;" xml:space="preserve">
<style type="text/css">
	.st0{fill:none;stroke:#00A040;stroke-width:4;stroke-miterlimit:10;}
	.st1{fill:#00A040;stroke:#00A040;stroke-width:0.25;stroke-miterlimit:10;}
</style>
<g>
	<g>
		<path class="st0" d="M57.3,116.6l-6.3,4.8c-1.6,1.2-3.8,1.2-5.3,0l0,0c-2.3-1.8-2.3-5.2,0-7l4.5-3.4"/>
		<path class="st0" d="M71.7,127.7l-6.3,4.8c-1.6,1.2-3.8,1.2-5.3,0h0c-2.3-1.8-2.3-5.2,0-7l4.5-3.4"/>
		<path class="st0" d="M50.1,111l-6.3,4.8c-1.6,1.2-3.8,1.2-5.3,0h0c-2.3-1.8-2.3-5.2,0-7l4.5-3.4"/>
		<path class="st0" d="M64.5,122.1l-6.3,4.8c-1.6,1.2-3.8,1.2-5.3,0l0,0c-2.3-1.8-2.3-5.2,0-7l4.5-3.4"/>
		<path class="st0" d="M136.1,70.2l-20.7,16.2c-1.2,1-2.2,2.3-2.8,3.7l-3,7.7c-0.5,1.2-1.3,2.3-2.3,3.1l-6.4,4.9"/>
		<path class="st0" d="M31.2,47.4l15.4,17.2c1.4,1.5,3.3,2.5,5.3,2.8l20.2,2.7"/>
		<path class="st0" d="M8.3,70.2L29,86.4c1.2,1,2.2,2.3,2.8,3.7l3,7.7c0.5,1.2,1.3,2.3,2.3,3.1l39.6,30.5"/>
		<path class="st0" d="M72.5,106.3l19.9,15.1c1.6,1.2,3.8,1.2,5.3,0l0,0c2.3-1.8,2.3-5.2,0-7l-18-13.7"/>
		<path class="st0" d="M53.7,113.8L78,132.5c1.6,1.2,3.8,1.2,5.3,0h0c2.3-1.8,2.3-5.2,0-7l-18-13.7"/>
		<path class="st0" d="M79.8,100.7l19.9,15.1c1.6,1.2,3.8,1.2,5.3,0h0c2.3-1.8,2.3-5.2,0-7L74.3,85.5c-1.5-1.2-3.7-1.2-5.2,0
			L61.9,91c-1.9,1.4-4.4,1.4-6.3,0l0,0c-2.7-2.1-2.7-6.2,0-8.2L71.1,71c0.7-0.6,1.6-0.9,2.5-1.1l18.8-2.6c2.1-0.3,3.9-1.3,5.3-2.8
			l15.4-17.2"/>
		<path class="st0" d="M65.3,111.8L85.2,127c1.6,1.2,3.8,1.2,5.3,0l0,0c2.3-1.8,2.3-5.2,0-7l-18-13.7"/>
	</g>
</g>
<g>
	<g>
		<path class="st1" d="M30.4,195.9c0.9,0,1.7-0.7,1.7-1.6c0-0.7-0.3-1.1-0.9-1.4l-2.9-1.4c-1.9-0.9-2.9-2.5-2.9-4.3
			c0-2.7,2.2-4.9,5-4.9c2.2,0,4,1.3,4.9,3.4l-3.1,1.3c-0.4-0.9-1-1.3-1.9-1.3c-0.9,0-1.7,0.7-1.7,1.6c0,0.6,0.3,1.1,0.9,1.4l2.9,1.4
			c1.9,0.9,2.9,2.4,2.9,4.3c0,2.8-2.2,4.9-5,4.9c-2.2,0-4-1.2-4.9-3.4l3-1.3C28.9,195.5,29.5,195.9,30.4,195.9z"/>
		<path class="st1" d="M44.8,199.3c-3,0-5.5-2.5-5.5-5.5v-5.9c0-3.1,2.5-5.5,5.5-5.5c3.1,0,5.5,2.5,5.5,5.5v5.9
			C50.3,196.8,47.9,199.3,44.8,199.3z M44.8,195.9c1.2,0,2.2-1,2.2-2.2v-5.9c0-1.2-1-2.2-2.2-2.2s-2.2,1-2.2,2.2v5.9
			C42.6,194.9,43.6,195.9,44.8,195.9z"/>
		<path class="st1" d="M59.9,185.7c-1.3,0-2.2,1.1-2.2,2.2v5.9c0,1.2,1,2.2,2.2,2.2c1.2,0,2.1-0.9,2.2-2.2h3.3c0,3-2.5,5.5-5.5,5.5
			c-3,0-5.5-2.5-5.5-5.5v-5.9c0-3.1,2.5-5.5,5.5-5.5c3.1,0,5.5,2.5,5.5,5.5h-3.3C62.2,186.6,61.2,185.7,59.9,185.7z"/>
		<path class="st1" d="M69.9,182.5h3.3v16.6h-3.3V182.5z"/>
		<path class="st1" d="M88.9,185.8h-7.7v3.3h6.1v3.3h-6.1v3.3h7.7v3.3h-11v-16.6h11V185.8z"/>
		<path class="st1" d="M96.6,199.1v-13.3h-3.9v-3.3h11v3.3H100v13.3H96.6z"/>
		<path class="st1" d="M110.3,199.1v-6.6l-3.9-9.9h3.3l2.2,6.1l2.2-6.1h3.3l-3.9,9.9v6.6H110.3z"/>
	</g>
</g>
</svg>
