<?xml version="1.0" encoding="utf-8"?>
<!-- Generator: Adobe Illustrator 21.0.0, SVG Export Plug-In . SVG Version: 6.00 Build 0)  -->
<svg version="1.1" id="レイヤー_1" xmlns="http://www.w3.org/2000/svg" xmlns:xlink="http://www.w3.org/1999/xlink" x="0px"
	 y="0px" viewBox="0 0 1085.9 81.7" style="enable-background:new 0 0 1085.9 81.7;" xml:space="preserve">
<style type="text/css">
	.st0{fill:#379E49;}
	.st1{fill:#FFFFFF;}
</style>
<rect x="1004.2" class="st0" width="81.7" height="81.7"/>
<rect x="1064.4" y="11.2" class="st1" width="5.2" height="25.8"/>
<path class="st1" d="M1031.7,28.4c0,4.7-3.8,8.6-8.6,8.6c-4.7,0-8.6-3.8-8.6-8.6l0,0V11.2h5.2v17.2c0,1.9,1.5,3.4,3.4,3.4
	s3.4-1.5,3.4-3.4l0,0V11.2h5.2V28.4z"/>
<polygon class="st1" points="1055.8,70.5 1038.6,70.5 1038.6,44.7 1043.7,44.7 1043.7,65.4 1055.8,65.4 "/>
<polygon class="st1" points="1055.8,37 1050.6,37 1043.7,22.2 1043.7,37 1038.6,37 1038.6,11.2 1043.7,11.2 1050.6,25.9 
	1050.6,11.2 1055.8,11.2 "/>
<path class="st1" d="M1023.1,44.7c-4.8,0-8.6,3.9-8.6,8.6l0,0v8.6c0,4.7,3.8,8.6,8.6,8.6l0,0c0.6,0,1.1,0,1.7-0.2l1.8,5.3h5.2
	l-2.6-7.7c1.6-1.6,2.6-3.8,2.6-6.1v-8.6C1031.7,48.6,1027.9,44.7,1023.1,44.7 M1026.5,61.9c0,1.9-1.5,3.4-3.4,3.4s-3.4-1.5-3.4-3.4
	l0,0v-8.6c0-1.9,1.5-3.4,3.4-3.4s3.4,1.5,3.4,3.4l0,0V61.9z"/>
<path class="st1" d="M1067,44.7c-4.8,0-8.6,3.9-8.6,8.6v8.6c0,4.8,3.9,8.6,8.6,8.6s8.6-3.9,8.6-8.6v-8.6
	C1075.6,48.6,1071.7,44.7,1067,44.7 M1070.4,61.9c0,1.9-1.5,3.4-3.4,3.4s-3.4-1.5-3.4-3.4v-8.6c0-1.9,1.5-3.4,3.4-3.4
	s3.4,1.5,3.4,3.4l0,0V61.9z"/>
<path class="st0" d="M39.6,21.1H24.7v49.5h-9.9V21.1H0v-9.9h39.6V21.1z"/>
<path class="st0" d="M62.4,35.9h19.8V11.2h9.9v59.3h-9.9V45.8H62.4v24.7h-9.9V11.2h9.9V35.9z"/>
<path class="st0" d="M114.1,35.9h19.8v9.9h-19.8v14.8h29.7v9.9h-39.6V11.2h39.6v9.9h-29.7C114.1,21.1,114.1,35.9,114.1,35.9z"/>
<path class="st0" d="M218.6,31c0,10.9-8.9,19.7-19.8,19.8h-9.9v19.8H179V11.2h19.8c10.9-0.1,19.7,8.7,19.8,19.6
	C218.6,30.8,218.6,30.9,218.6,31z M208.7,31c0-5.5-4.4-9.9-9.9-9.9h-9.9v19.8h9.9C204.2,40.8,208.7,36.4,208.7,31z"/>
<path class="st0" d="M249.1,10.6c10.9-0.1,19.7,8.7,19.8,19.6c0,0.1,0,0.1,0,0.2v21c0.2,10.9-8.4,20-19.3,20.2
	c-10.9,0.2-20-8.4-20.2-19.3c0-0.3,0-0.6,0-0.9v-21C229.3,19.4,238.2,10.6,249.1,10.6z M249.1,20.5c-5.5,0-9.9,4.4-9.9,9.9v21
	c0.2,5.5,4.7,9.8,10.2,9.6c5.2-0.2,9.4-4.4,9.6-9.6v-21C259,24.9,254.6,20.5,249.1,20.5z"/>
<path class="st0" d="M297.2,54.4l9.9-43.2h9.9l9.9,43.2l9.9-43.2h9.9l-14.8,59.3H322l-9.9-43.2l-9.9,43.2h-9.9l-14.9-59.3h9.9
	L297.2,54.4z"/>
<path class="st0" d="M367.4,35.9h19.8v9.9h-19.8v14.8h29.7v9.9h-39.6V11.2h39.6v9.9h-29.7V35.9z"/>
<path class="st0" d="M448.8,31c0,7.5-4.2,14.3-10.9,17.7l10.9,21.8h-9.9L429,50.8h-9.9v19.8h-9.9V11.2H429
	c10.9,0,19.7,8.7,19.8,19.6C448.8,30.9,448.8,30.9,448.8,31z M438.9,31c0.1-5.3-4.1-9.8-9.4-9.9c-0.1,0-0.3,0-0.4,0h-9.9v19.8h9.9
	C434.4,40.8,438.8,36.4,438.9,31z"/>
<path class="st0" d="M501,10.6c10.9,0,19.7,8.7,19.8,19.6c0,0.1,0,0.1,0,0.2v21c0.2,10.9-8.4,20-19.3,20.2
	c-10.9,0.2-20-8.4-20.2-19.3c0-0.3,0-0.6,0-0.9v-21C481.2,19.4,490.1,10.6,501,10.6z M501,20.5c-5.5,0-9.9,4.4-9.9,9.9v21
	c0,5.5,4.4,9.9,9.9,9.9s9.9-4.4,9.9-9.9v-21C510.9,24.9,506.5,20.5,501,20.5z"/>
<path class="st0" d="M572.5,21.1h-29.7v14.8h19.8v9.9h-19.8v24.7h-9.9V11.2h39.6L572.5,21.1L572.5,21.1z"/>
<path class="st0" d="M622,20.5c-5.5,0-9.9,4.4-9.9,9.9v21c0,5.5,4.4,9.9,9.9,9.9s9.9-4.4,9.9-9.9h9.9c0,1.7-0.3,3.4-0.7,5.1
	c-2.3,8.7-10.1,14.7-19.1,14.6c-10.9-0.1-19.7-8.9-19.8-19.8v-21c0-10.9,8.9-19.8,19.8-19.8c8.9,0,16.8,6,19.1,14.6
	c0.4,1.7,0.7,3.4,0.7,5.1h-9.9c0.1-5.4-4.2-9.8-9.6-9.9C622.2,20.5,622.1,20.5,622,20.5z"/>
<path class="st0" d="M663,60.6h29.7v9.9h-39.5V11.2h9.9v49.4H663z"/>
<path class="st0" d="M720.4,10.6c10.9,0,19.7,8.7,19.8,19.6c0,0.1,0,0.1,0,0.2v21c0,10.9-8.8,19.8-19.8,19.8s-19.8-8.8-19.8-19.8
	l0,0v-21C700.6,19.4,709.5,10.6,720.4,10.6z M720.4,20.5c-5.5,0-9.9,4.4-9.9,9.9v21c0,5.5,4.4,9.9,9.9,9.9s9.9-4.4,9.9-9.9v-21
	C730.3,24.9,725.9,20.5,720.4,20.5z"/>
<path class="st0" d="M789.7,21.1h-14.8v49.5H765V21.1h-14.8v-9.9h39.6L789.7,21.1L789.7,21.1z"/>
<path class="st0" d="M811.8,35.9h19.8V11.2h9.9v59.3h-9.9V45.8h-19.8v24.7h-9.9V11.2h9.9V35.9z"/>
<path class="st0" d="M864.9,70.5H855V11.2h9.9V70.5z"/>
<path class="st0" d="M908.1,50.8V11.2h9.9v59.3h-9.9L888.3,31v39.5h-9.9V11.2h9.9L908.1,50.8z"/>
<path class="st0" d="M949.2,20.5c-5.5,0-9.9,4.4-9.9,9.9v21c0,5.5,4.4,9.9,9.9,9.9c5.8,0,9.9-4.3,9.9-10.5h-10.2v-9.9h20v9.9
	c0,11.6-8.5,20.4-19.8,20.4c-10.9-0.1-19.7-8.9-19.8-19.8v-21c0-10.9,8.8-19.8,19.8-19.8c9,0,16.8,6,19.1,14.7
	c0.4,1.7,0.6,3.4,0.7,5.1H959c0.2-5.2-3.9-9.7-9.1-9.9C949.6,20.5,949.4,20.5,949.2,20.5z"/>
</svg>
