<svg xmlns="http://www.w3.org/2000/svg" xmlns:xlink="http://www.w3.org/1999/xlink" viewBox="0 0 145.45 200.89"><defs><style>.cls-1{fill:none;stroke:#379e49;stroke-miterlimit:10;stroke-width:3.61px;}.cls-2{clip-path:url(#clip-path);}.cls-3{fill:#379e49;}</style><clipPath id="clip-path"><circle class="cls-1" cx="73.64" cy="80.31" r="57.5"/></clipPath></defs><g id="Botton"><g class="cls-2"><path class="cls-1" d="M4.14,33.31h52.6a6.19,6.19,0,0,1,6.77,5.47h0a3.13,3.13,0,0,0,4.23,2.58l1.09-.65A6.08,6.08,0,0,1,78,45.5l.08,1.13a6.09,6.09,0,0,1-5.65,6.5l-8.89.62a7.66,7.66,0,0,0-8,5.59l-4.09,14.8a5.61,5.61,0,0,1-7.7,3.63l-.89-.4A5.3,5.3,0,0,0,36,79.63l-1.56,2.78a9.37,9.37,0,0,0-1.14,5.39l.22,2.43a5.26,5.26,0,0,1-3.35,5.39l-.1,0a5.4,5.4,0,0,1-6.29-1.8L3.86,67.24Z"/><path class="cls-1" d="M133.2,31.85c-.63.21-24.56,3.78-36.56,5.57a7.86,7.86,0,0,0-6.71,7.79v1.68a7.88,7.88,0,0,0,7.34,7.86l10,.66a6.1,6.1,0,0,1,5.55,4.84l.46,2.21a11.19,11.19,0,0,0,8.78,8.7l18.46,3.66Z"/><path class="cls-1" d="M141.27,91.43l-24.55-6.3a7,7,0,0,0-8.28,4.28L108,90.65a7,7,0,0,0,2.11,7.91l25.3,20.67Z"/><path class="cls-1" d="M71.11,106.88,68.85,122A5.23,5.23,0,0,0,73,127.93l1.73.35a5.23,5.23,0,0,0,5-1.74L81,125.09a5.21,5.21,0,0,1,4.49-1.82l6.43.63A5.22,5.22,0,0,0,97.43,120l2.09-8a5.23,5.23,0,0,0-4.25-6.48l-.59-.09A5.24,5.24,0,0,0,90.1,107h0a5.22,5.22,0,0,1-8.31-1l-.37-.65A5.17,5.17,0,0,0,78.67,103l-.6-.22A5.21,5.21,0,0,0,71.11,106.88Z"/><path class="cls-1" d="M34.84,105.4h0a3.71,3.71,0,0,1,4.29-.53l7.52,4.07a3.72,3.72,0,0,1,1,5.81l-2,2.15a3.71,3.71,0,0,1-5.5-.07l-5.52-6.23A3.72,3.72,0,0,1,34.84,105.4Z"/><path class="cls-1" d="M70.87,73.71h0a4.56,4.56,0,0,1,1.61,6L68.6,87.09A4.55,4.55,0,0,1,62.44,89l-.25-.13a4.54,4.54,0,0,1-1.83-6.25l4.13-7.3A4.55,4.55,0,0,1,70.87,73.71Z"/><path class="cls-1" d="M82.13,61.61l1.07,1.18a3.38,3.38,0,0,1,.18,4.32l-1,1.34a3.38,3.38,0,0,1-4.32.91l-1.66-.91a3.38,3.38,0,0,1-.75-5.35l1.61-1.61A3.37,3.37,0,0,1,82.13,61.61Z"/><path class="cls-1" d="M50.84,85.57h0a3.78,3.78,0,0,0-5.2,2.17l-1.07,3a3.78,3.78,0,0,0,2.11,4.75l.71.3a3.8,3.8,0,0,0,5.24-3.09L53,89.39A3.8,3.8,0,0,0,50.84,85.57Z"/></g><circle class="cls-1" cx="73.64" cy="80.31" r="57.5"/><path class="cls-3" d="M38.65,189.76a5.57,5.57,0,0,1-5.56,5.56H30.85v5.57H27.52v-16.7h5.57A5.54,5.54,0,0,1,38.65,189.76ZM33.09,192a2.24,2.24,0,0,0,0-4.47H30.85V192Z"/><path class="cls-3" d="M54.16,197.56v3.33H43v-16.7h3.34v13.37Z"/><path class="cls-3" d="M60.71,200.89H57.37l5.57-16.7h3.34l5.57,16.7H68.51l-1.1-3.33H61.84Zm2.23-6.67h3.34l-1.66-5.47Z"/><path class="cls-3" d="M75.73,200.89v-16.7h3.34l4.46,9.93v-9.93h3.34v16.7H83.53L79.07,191v9.93Z"/><path class="cls-3" d="M102.76,187.52H95v3.34h6.12v3.36H95v3.34h7.8v3.33H91.62v-16.7h11.14Z"/><path class="cls-3" d="M110.56,200.89V187.52h-3.89v-3.33H117.8v3.33h-3.88v13.37Z"/></g></svg>