<svg id="レイヤー_1" data-name="レイヤー 1" xmlns="http://www.w3.org/2000/svg" width="960" height="300" viewBox="0 0 960 300">
  <defs>
    <style>
      .cls-1 {
        fill: #fff;
      }
    </style>
  </defs>
  <title>copy</title>
  <path class="cls-1" d="M103.5,79.75c-.66,15-2.64,30-9.39,43.12a62.44,62.44,0,0,0-18.25-6.62C86.31,97.47,86.31,77.37,86.31,60.18V6h44.17V109.64c0,7.67,0,14.28-22.35,14.28-.26-3.3-1.45-11.9-5.42-18.77,1.45.13,5.16.39,6.74.39,2.91,0,4-.53,4-5.55V79.75Zm9.92-45.09V21.83h-9.65V34.66Zm0,29V50.13h-9.65V63.62Zm39,60.3H134.71V6h58.72c0,6.22,0,25.39-.4,30.15-.39,5.56-2.38,9.66-13,11.64a40.42,40.42,0,0,1-9.52.66c-1.32-7.4-3.57-11-6.88-14.68,1.59.13,7.41.66,8.2.66,2.91,0,2.91-1.72,2.91-6.08V21.83H152.43V51.72h35.18L197,57.8c-1.19,5.69-4.5,23-13.62,39.67a94.11,94.11,0,0,0,15.6,14,167.42,167.42,0,0,0-12,14.15,85.47,85.47,0,0,1-14-12.43c-6.61,8.33-10.05,11-12.43,12.83a43.42,43.42,0,0,0-8.07-8.33Zm13-56.73h-13V110.7a65.08,65.08,0,0,0,10.19-11,82.82,82.82,0,0,1-10.05-25.78Zm.66,0A60.39,60.39,0,0,0,172.27,82a81.14,81.14,0,0,0,4.36-14.81Z"/>
  <path class="cls-1" d="M272,101.71c28.7-5.29,37.16-27.51,37.16-41.26,0-10.72-5.69-30.42-30.55-32.4-4.1,48.4-24.07,84.5-38.09,84.5-10.31,0-29.49-17.46-29.49-41.92C211,42.2,237,9,275.84,9c29,0,54.22,19.71,54.22,51.31,0,6.09-.52,23-15.6,40.87-8.07,9.39-17.46,14.28-28.7,19.17A85.59,85.59,0,0,0,272,101.71ZM230.62,69c0,10.18,5.68,17.86,8.46,17.86,3.17,0,5.69-6,7.14-9.39,5.69-13.1,10-28.3,10.18-45.5C241.06,37.7,230.62,57.14,230.62,69Z"/>
  <path class="cls-1" d="M418,48.94h40.6V67.85H416.53c-5.29,38-34.39,51.05-44.17,55.55-7.15-10.32-13.63-14.68-16.27-16.54,15.34-5.42,35.71-14.94,39.14-39H345V48.94h51V34.26a257.33,257.33,0,0,1-31.21,3.84,76.9,76.9,0,0,0-9.92-18.25c38,0,63.08-9.79,74.06-17.06l16.13,14.15a2.34,2.34,0,0,1,1.06,2c0,.93-.79,1.46-2,1.46a4.15,4.15,0,0,1-2-.53c-8.46,4.63-21,8.2-24.2,9.12Z"/>
  <path class="cls-1" d="M540.76,6.62c1.71.13,2.64.27,2.64,1.46,0,1.58-1.59,2-2.64,2.38.13,4.1.13,9.52-.27,18.51h42.06c-1.2,56.21-3.71,65.33-6.88,72.74-3.44,8.06-10.45,20.76-37.82,19.17-.53-6.48-1.59-11.24-5.43-21.95a33.23,33.23,0,0,0,9.39,1.19c11.51,0,17.59,0,18.65-51.18h-22c-6.35,39.28-24.07,57.92-50.78,73.26a53.34,53.34,0,0,0-15.35-15.86c30.55-16.27,40.07-32.27,44.7-57.4H477V29h42.06A156.72,156.72,0,0,0,518,5.17Z"/>
  <path class="cls-1" d="M687.94,39.82a40.93,40.93,0,0,0,11.38-1.19l12.83,9.12c-2.25,4.23-11.91,23-14,26.71-13.36,23.41-27.64,38.36-57.53,50.79-3.7-6.22-10.32-13.23-14.41-17.06C638.35,104,668.5,93.51,681.6,59.12H602.25V39.82ZM695.75,9V27.91H619V9Z"/>
  <path class="cls-1" d="M786.78,5.43c.8.13,2.65.53,2.65,2.38s-2.38,2-3.31,2l-3,6.48c3.84-.53,16.4-2.25,27.37-6.22V29.63c-19.7,3.44-22.08,3.84-37.69,5.69-1.58,2.78-1.85,3.31-5.15,9.12,4.76-2.64,10.44-2.64,11.5-2.64,6.75,0,15.21,4,19.31,11.24C818,43.65,820.24,42.73,825.13,40l7.81,21.16c-14.68,4.63-22.35,7.4-30.16,10.71.27,3.83.4,7.93.4,11.9,0,6-.26,9.66-.4,13.23-4.23-.27-9-.27-13.22-.27a57.84,57.84,0,0,0-7.67.27,115.76,115.76,0,0,0,.93-15.08c-8.2,5-16.54,10.58-16.54,16,0,5.95,13.49,6.35,20.24,6.35a148.61,148.61,0,0,0,42.32-6.48,83.12,83.12,0,0,0-2.52,21,164.48,164.48,0,0,1-36.89,3.83c-8.86,0-43.25,0-43.25-23.41,0-15.6,21-28.69,35.45-36.23-2.12-5.82-6.75-6.61-9.92-6.61-13.76,0-23,14.81-30.29,26.58L723,72.48c8.73-9.26,22-27.51,26.85-35.57-7.14.26-13,.26-18.65.13l.13-19.18c4.1.4,11.77,1.06,20.76,1.06,3.84,0,5.43,0,7.54-.13,4.9-10.18,6-13.75,7-17.33Z"/>
  <path class="cls-1" d="M873.46,122.07a106.7,106.7,0,0,0-26.85-22.74l12.83-14.15a172.41,172.41,0,0,1,29,22.21Z"/>
  <path class="cls-1" d="M82.25,213.19V175.5l21.56.92a1.46,1.46,0,0,1,1.58,1.33c0,1.19-1.32,1.72-2.64,2.11v33.33H124v19.17H102.75v43.38h25.13V294H51.57V275.74H82.25V232.36H60.43V216.1c-4.23,7.93-5.55,10.84-9.92,16.4,6.75,7.67,15.74,14.15,18.52,16.13A59.09,59.09,0,0,0,56.86,263a73.62,73.62,0,0,1-13.75-12.16v45.76H23.53V261.46C18,266,16,267.54,12.82,269.79c-2.38-6.75-6.74-12-11.9-16.4,14-8.07,30.68-24.2,35.31-34.91H7.14V200.1H23.53V175.5l19.58.53c.79,0,2.11.26,2.11,1.72,0,.66-.53,1.32-2.11,2.38v20H55.8l8.47,8.19c-.4.8-2.12,4.24-2.38,4.9Z"/>
  <path class="cls-1" d="M234.6,232H167.68V221.12a122.24,122.24,0,0,1-16,8.47c-1.59-2.25-7.14-10.19-14.68-15.87,20.1-5.82,46.29-26.58,53.56-41.13l23.54,2.91c.79.13,1.72.53,1.72,1.72,0,1.45-1.72,2.11-2.65,2.38,16.8,18.12,36.77,27,52.64,31.87-7,4.23-12.83,15.87-13.1,16.53a116.16,116.16,0,0,1-18.11-8.6Zm-88.34,42.18c3.83-.13,9-.26,20.63-.66a155.33,155.33,0,0,0,8.33-19.31h-28.3V236.73h108.7v17.45H228.38a161.2,161.2,0,0,1,27.51,29.76,77.38,77.38,0,0,0-15.34,14,147.59,147.59,0,0,0-9.26-13.23c-15.21,2.52-44.57,6.48-76.31,8.47-1,2.38-1.58,3.7-3,3.7-1.05,0-1.58-1.19-1.72-2.12Zm80.27-59.64a174.05,174.05,0,0,1-26.05-21.29c-7.67,7.67-15.87,15.6-23.54,21.29Zm-8.46,39.67h-17.2c0,1.19-.39,2-3.17,2.52-2.38,5.29-5.29,10.31-8.2,15.47,13.36-1.06,21.29-2,27.77-2.78-3.7-3.3-5.82-5.16-8.33-7.27Z"/>
  <path class="cls-1" d="M334.15,273.62c28.7-5.29,37.16-27.5,37.16-41.26,0-10.71-5.69-30.41-30.55-32.4-4.1,48.41-24.07,84.51-38.08,84.51-10.32,0-29.49-17.46-29.49-41.92,0-28.44,25.92-61.63,64.8-61.63,29,0,54.22,19.7,54.22,51.31,0,6.08-.53,23-15.61,40.87-8.07,9.38-17.46,14.28-28.7,19.17A85.65,85.65,0,0,0,334.15,273.62ZM292.76,241c0,10.18,5.68,17.85,8.46,17.85,3.18,0,5.69-5.95,7.14-9.39,5.69-13.09,10.05-28.3,10.19-45.49C303.2,209.62,292.76,229.06,292.76,241Z"/>
  <path class="cls-1" d="M480.12,220.86h40.6v18.91H478.67c-5.29,38-34.39,51-44.17,55.54-7.14-10.31-13.62-14.68-16.27-16.53,15.34-5.42,35.71-14.94,39.15-39H407.12V220.86h51.05V206.18A258,258,0,0,1,427,210,77.09,77.09,0,0,0,417,191.76c37.95,0,63.08-9.78,74.06-17.06l16.13,14.15a2.34,2.34,0,0,1,1.06,2c0,.92-.79,1.45-2,1.45a4,4,0,0,1-2-.53c-8.46,4.63-21,8.2-24.2,9.13Z"/>
  <path class="cls-1" d="M602.9,178.54c1.72.13,2.64.26,2.64,1.45,0,1.59-1.58,2-2.64,2.38.13,4.1.13,9.53-.27,18.52h42.06c-1.19,56.2-3.71,65.33-6.88,72.73-3.44,8.07-10.45,20.77-37.82,19.18-.53-6.48-1.59-11.24-5.42-21.95A33.12,33.12,0,0,0,604,272c11.5,0,17.58,0,18.64-51.18h-22c-6.35,39.28-24.07,57.92-50.78,73.26a53.44,53.44,0,0,0-15.34-15.87C565.07,262,574.6,246,579.23,220.86H539.16v-20h42.05a157,157,0,0,0-1.06-23.81Z"/>
  <path class="cls-1" d="M750.09,211.73a40.49,40.49,0,0,0,11.37-1.19l12.83,9.13c-2.25,4.23-11.91,23-14,26.71-13.36,23.41-27.64,38.35-57.53,50.78-3.7-6.21-10.31-13.22-14.41-17.06,12.16-4.23,42.32-14.67,55.41-49.06H664.39V211.73Zm7.8-30.81v18.91h-76.7V180.92Z"/>
  <path class="cls-1" d="M820.11,185.28c2.51.93,3.57,1.33,3.57,2.25,0,1.19-2.65,1.46-3.57,1.59-4,11.77-8.6,26.85-8.6,54.62a46.11,46.11,0,0,0,.93,10.58c.79-1.46,4-7.28,5.55-9.92a38.68,38.68,0,0,0,10.19,10.84c-3.31,6.22-9.39,21.56-8.73,31.61l-18.78,5c-4.5-12.43-9.39-27.11-9.39-52.89,0-23.94,3.7-40.34,8.46-61.37ZM855,247.44a36,36,0,0,0-2,9.39c0,5.82,3.17,6.74,18.38,6.74A134.68,134.68,0,0,0,904.08,260c-2.38,9.79-2,19.71-2,21.56-9.12,1.32-24.07,1.72-33.46,1.72-19.7,0-34.91-3.44-34.91-19.57,0-1.72,0-9.26,4.36-19.44ZM839,191c4,.27,9.26.66,17.19.66,21.82,0,33.86-3,38.88-4.23.13,2.12.66,13.75,1.85,20.1a196.59,196.59,0,0,1-40.73,4c-7.8,0-13-.4-17.19-.66Z"/>
  <path class="cls-1" d="M957.92,275.21a18.65,18.65,0,1,1-18.65-18.65A18.74,18.74,0,0,1,957.92,275.21Zm-29.09,0a10.45,10.45,0,1,0,10.44-10.45A10.38,10.38,0,0,0,928.83,275.21Z"/>
</svg>
