<svg xmlns="http://www.w3.org/2000/svg" width="276" height="137" viewBox="0 0 276 137">
  <metadata><?xpacket begin="﻿" id="W5M0MpCehiHzreSzNTczkc9d"?>
<x:xmpmeta xmlns:x="adobe:ns:meta/" x:xmptk="Adobe XMP Core 5.6-c140 79.160451, 2017/05/06-01:08:21        ">
   <rdf:RDF xmlns:rdf="http://www.w3.org/1999/02/22-rdf-syntax-ns#">
      <rdf:Description rdf:about=""/>
   </rdf:RDF>
</x:xmpmeta>
                                                                                                    
                                                                                                    
                                                                                                    
                                                                                                    
                                                                                                    
                                                                                                    
                                                                                                    
                                                                                                    
                                                                                                    
                                                                                                    
                                                                                                    
                                                                                                    
                                                                                                    
                                                                                                    
                                                                                                    
                                                                                                    
                                                                                                    
                                                                                                    
                                                                                                    
                                                                                                    
                           
<?xpacket end="w"?></metadata>
<defs>
    <style>
      .cls-1 {
        fill: #1b1b1b;
        fill-rule: evenodd;
      }
    </style>
  </defs>
  <path id="_5g" data-name="5g" class="cls-1" d="M0.365-.156V59.276H12.373a18.772,18.772,0,0,1,6.308-10.792,17.451,17.451,0,0,1,11.476-3.952,17.314,17.314,0,0,1,7.068,1.444A18.419,18.419,0,0,1,46.8,55.552a17.314,17.314,0,0,1,1.444,7.068V76.908A17.464,17.464,0,0,1,46.8,83.9a18.4,18.4,0,0,1-3.876,5.776,18.608,18.608,0,0,1-5.7,3.876A17.276,17.276,0,0,1,30.157,95a17.3,17.3,0,0,1-12.312-4.712,18.814,18.814,0,0,1-5.776-12.312H0.365A31.124,31.124,0,0,0,3.025,89.3a29.006,29.006,0,0,0,6.384,9.12A29.691,29.691,0,0,0,30.157,106.7a28.772,28.772,0,0,0,11.628-2.356A29.934,29.934,0,0,0,57.593,88.46a28.914,28.914,0,0,0,2.356-11.552V62.62a28.757,28.757,0,0,0-2.356-11.628A29.931,29.931,0,0,0,41.709,35.184,29.294,29.294,0,0,0,30,32.828a26.041,26.041,0,0,0-9.8,1.748,27.923,27.923,0,0,0-8.74,6V11.548h44.08v-11.7H0.365ZM116.188,76.908a16.931,16.931,0,0,1-1.444,6.916,18.419,18.419,0,0,1-9.576,9.576,17.283,17.283,0,0,1-13.832,0,18.419,18.419,0,0,1-9.576-9.576,16.9,16.9,0,0,1-1.444-6.916V59.428a16.9,16.9,0,0,1,1.444-6.916,18.419,18.419,0,0,1,9.576-9.576,17.283,17.283,0,0,1,13.832,0,18.419,18.419,0,0,1,9.576,9.576,16.939,16.939,0,0,1,1.444,6.916v17.48ZM126.828,30.7h-10.64v6.992a25.326,25.326,0,0,0-7.3-4.94A25.073,25.073,0,0,0,98.252,30.7a26.8,26.8,0,0,0-10.944,2.28,30.45,30.45,0,0,0-9.12,6.156,29.625,29.625,0,0,0-6.308,9.12,26.924,26.924,0,0,0-2.356,11.172v17.48A27.714,27.714,0,0,0,71.8,88.08,28.886,28.886,0,0,0,87.08,103.356a27.714,27.714,0,0,0,11.172,2.28,25.616,25.616,0,0,0,17.936-6.992v9.12a16.942,16.942,0,0,1-1.444,6.916,18.419,18.419,0,0,1-9.576,9.576,16.954,16.954,0,0,1-6.916,1.444,17.709,17.709,0,0,1-13.072-5.776l-7.3,8.056a27.8,27.8,0,0,0,20.368,8.512,27.183,27.183,0,0,0,11.1-2.28,29.092,29.092,0,0,0,15.2-15.276,27.714,27.714,0,0,0,2.28-11.172V30.7Z"/>
  <path id="羊毛を減量_" data-name="羊毛を減量。" class="cls-1" d="M151.687,87.761c0.431-.216,1.1-0.576,1.318-0.7a24.839,24.839,0,0,0-2.756-3.383l-3.355,1.512a13.553,13.553,0,0,1,2.133,2.568h-4.482v3.168h8.077v1.824h-5.848v3.239h5.848v2.256h-9.107v3.431h9.107v4.3h3.642v-4.3h9.059V98.248h-9.059V95.992h5.848V92.753h-5.848V90.929h8.076V87.761h-4.625a16.167,16.167,0,0,0,1.318-2.28c0.456,0,.887-0.024.887-0.336a0.413,0.413,0,0,0-.312-0.312l-3.714-1.2a19.208,19.208,0,0,1-2.469,4.127h-3.738Zm28.546,0.648a33.351,33.351,0,0,0,6.926-2.04,1.615,1.615,0,0,0,.359.048,0.339,0.339,0,0,0,.407-0.336,0.343,0.343,0,0,0-.119-0.264l-2.445-2.424c-3.762,1.992-11.024,2.928-16.416,2.976a11.16,11.16,0,0,1,1.822,3.215c3.474-.24,4.673-0.336,5.919-0.528v2.088l-8.22,1.008,0.383,3.144,7.837-.936v2.352l-8.532,1.08,0.48,3.167,8.052-.983v3.047c0,2.808,2.9,2.808,3.834,2.808h6.3a3.829,3.829,0,0,0,2.756-1.1,8.384,8.384,0,0,0,1.174-3.528,6.892,6.892,0,0,1-3.331-1.415c-0.311,1.847-.455,2.783-1.534,2.783h-4.5a1.047,1.047,0,0,1-1.15-1.056V99.544l10.52-1.3-0.431-3.24L180.233,96.28V93.953l9.322-1.1-0.288-3.216-9.034,1.08v-2.3Zm21.955-4.8a17.884,17.884,0,0,1-1.27,3.144c-0.383.024-.671,0.024-1.366,0.024-1.63,0-3.02-.12-3.762-0.192l-0.024,3.479c1.03,0.024,2.085.024,3.379-.024A51.264,51.264,0,0,1,194.28,96.5l3.331,1.9c1.318-2.136,3-4.823,5.488-4.823a1.738,1.738,0,0,1,1.8,1.2c-2.612,1.368-6.422,3.743-6.422,6.575,0,4.248,6.23,4.248,7.836,4.248a29.7,29.7,0,0,0,6.686-.7,15.07,15.07,0,0,1,.456-3.816,26.9,26.9,0,0,1-7.669,1.176c-1.222,0-3.667-.072-3.667-1.152,0-.983,1.51-1.991,3-2.9a20.765,20.765,0,0,1-.168,2.735,10.682,10.682,0,0,1,1.39-.048c0.767,0,1.63,0,2.4.048,0.024-.647.071-1.319,0.071-2.4,0-.72-0.023-1.464-0.071-2.16a56.944,56.944,0,0,1,5.464-1.944l-1.414-3.839c-0.887.5-1.294,0.672-4.841,2.376a4.21,4.21,0,0,0-3.5-2.04,4.536,4.536,0,0,0-2.085.48c0.6-1.056.647-1.152,0.935-1.656,2.827-.336,3.259-0.408,6.83-1.032V85.17A25.772,25.772,0,0,1,205.16,86.3l0.551-1.176c0.168,0,.6-0.024.6-0.36a0.48,0.48,0,0,0-.479-0.432Zm34.154,8.159a25.9,25.9,0,0,1-.815,3.671,46.394,46.394,0,0,1-.264-5.039h4.817v-2.88h-1.725a11.5,11.5,0,0,1,1.438-1.032,14.358,14.358,0,0,0-2.037-2.328L235.671,85.7a9.375,9.375,0,0,1,1.51,1.824h-1.894c0-.816.048-2.136,0.048-2.4a1.322,1.322,0,0,0,.743-0.624c0-.168-0.168-0.192-0.5-0.216l-3.619-.312c-0.024,1.056-.048,1.728,0,3.552h-8v7.343c0,5.256-1.7,8.087-2.636,9.071a16.488,16.488,0,0,1,3.211,1.464c1.39-2.256,2.444-5.063,2.444-10.655V90.4h5.081a46.342,46.342,0,0,0,1.15,9.215,11.2,11.2,0,0,1-1.054,1.152V94.384h-4.793v8.231h1.869v-1.8H232.1a17.54,17.54,0,0,1-3.93,2.76,9.867,9.867,0,0,1,2.636,2.208,21.774,21.774,0,0,0,3.762-2.9c0.695,1.224,2.109,3.12,3.691,3.12s2.157-2.208,2.444-4.56a10.135,10.135,0,0,1-2.612-1.943c-0.024.312-.144,1.943-0.407,1.943a2.532,2.532,0,0,1-.911-1.271,26.861,26.861,0,0,0,2.756-6.647c0.36-.048.671-0.1,0.671-0.384a0.563,0.563,0,0,0-.527-0.384Zm-5.991,6.7h-1.127v-1.8h1.127v1.8ZM219.039,86.61a27.689,27.689,0,0,1,3.5,2.328,25.373,25.373,0,0,1,2.085-2.736,17.411,17.411,0,0,0-3.571-2.3Zm-1.63,5.735a18.784,18.784,0,0,1,3.38,2.736,26.219,26.219,0,0,1,2.132-2.64,23.066,23.066,0,0,0-3.451-2.616Zm2.565,13.342a0.5,0.5,0,0,0,.263.1,0.194,0.194,0,0,0,.192-0.24,1.253,1.253,0,0,0-.144-0.5,24.754,24.754,0,0,0,2.9-6.791,11.2,11.2,0,0,1-2.54-2.232,20.193,20.193,0,0,1-3.331,8.015Zm11.958-14.542h-4.481v2.424h4.481V91.145Zm23.945,9.023h6.782v-6.36H245.788v6.36H252.4v0.647h-7.261v1.848H252.4v0.744h-9.131v2.232h21.856v-2.232h-9.25v-0.744h7.333v-1.848h-7.333v-0.647ZM249.023,96.3V95.56H252.4V96.3h-3.379Zm3.379,1.32v0.768h-3.379V97.624H252.4Zm3.475-1.32V95.56h3.331V96.3h-3.331Zm3.331,1.32v0.768h-3.331V97.624h3.331Zm-13.4-13.462v6.359h16.871V84.162H245.812Zm3.235,2.5V85.914h10.185v0.744H249.047Zm10.185,1.368v0.744H249.047V88.025h10.185ZM243.271,91.1v2.112h21.856V91.1H243.271Zm28.69,7.607a3.4,3.4,0,1,0,3.379,3.383A3.393,3.393,0,0,0,271.961,98.7Zm0,1.488a1.9,1.9,0,1,1-1.893,1.9A1.9,1.9,0,0,1,271.961,100.192Z"/>
</svg>
