<svg xmlns="http://www.w3.org/2000/svg" width="202" height="144" viewBox="0 0 202 144">
  <metadata><?xpacket begin="﻿" id="W5M0MpCehiHzreSzNTczkc9d"?>
<x:xmpmeta xmlns:x="adobe:ns:meta/" x:xmptk="Adobe XMP Core 5.6-c140 79.160451, 2017/05/06-01:08:21        ">
   <rdf:RDF xmlns:rdf="http://www.w3.org/1999/02/22-rdf-syntax-ns#">
      <rdf:Description rdf:about=""/>
   </rdf:RDF>
</x:xmpmeta>
                                                                                                    
                                                                                                    
                                                                                                    
                                                                                                    
                                                                                                    
                                                                                                    
                                                                                                    
                                                                                                    
                                                                                                    
                                                                                                    
                                                                                                    
                                                                                                    
                                                                                                    
                                                                                                    
                                                                                                    
                                                                                                    
                                                                                                    
                                                                                                    
                                                                                                    
                                                                                                    
                           
<?xpacket end="w"?></metadata>
<defs>
    <style>
      .cls-1 {
        fill: #1b1b1b;
        fill-rule: evenodd;
      }
    </style>
  </defs>
  <path id="_99_" data-name="99%" class="cls-1" d="M12.082,29.572A17.412,17.412,0,0,1,17.4,16.8a17.414,17.414,0,0,1,12.768-5.32A17.421,17.421,0,0,1,42.938,16.8a17.421,17.421,0,0,1,5.32,12.768v5.472a17.964,17.964,0,0,1-4.94,12.92,16.6,16.6,0,0,1-12.54,5.168,18.484,18.484,0,0,1-13.3-5.168,17.145,17.145,0,0,1-5.4-12.92V29.572Zm7.6,77.064H31.538L54.794,55.108q5.166-10.944,5.168-20.064V29.572A28.7,28.7,0,0,0,51.222,8.52,28.7,28.7,0,0,0,30.17-.22,28.7,28.7,0,0,0,9.118,8.52,28.692,28.692,0,0,0,.378,29.572v5.472A28.568,28.568,0,0,0,9.194,56.1a29.114,29.114,0,0,0,21.28,8.74A20.64,20.64,0,0,0,40.05,62.86ZM82.457,29.572A17.412,17.412,0,0,1,87.777,16.8a17.981,17.981,0,0,1,25.536,0,17.421,17.421,0,0,1,5.32,12.768v5.472a17.964,17.964,0,0,1-4.94,12.92,16.6,16.6,0,0,1-12.54,5.168,18.484,18.484,0,0,1-13.3-5.168,17.145,17.145,0,0,1-5.4-12.92V29.572Zm7.6,77.064h11.856l23.256-51.528q5.166-10.944,5.168-20.064V29.572A28.7,28.7,0,0,0,121.6,8.52a29.723,29.723,0,0,0-42.1,0,28.692,28.692,0,0,0-8.74,21.052v5.472A28.568,28.568,0,0,0,79.569,56.1a29.114,29.114,0,0,0,21.28,8.74,20.639,20.639,0,0,0,9.576-1.976ZM190.073,0.844L141.129,106.636h10.64L200.713,0.844h-10.64Zm-9.424,80.712a6.021,6.021,0,0,1,1.672-4.332,6.055,6.055,0,0,1,8.512,0,6.029,6.029,0,0,1,1.672,4.332V92.5a5.929,5.929,0,1,1-11.856,0V81.556Zm20.064,0a13.775,13.775,0,0,0-4.18-10.108,13.6,13.6,0,0,0-9.956-4.18,13.276,13.276,0,0,0-9.956,4.18,14.036,14.036,0,0,0-4.028,10.108V92.5a13.887,13.887,0,0,0,4.1,9.8,13.121,13.121,0,0,0,9.88,4.332,13.476,13.476,0,0,0,9.956-4.256,13.674,13.674,0,0,0,4.18-9.88V81.556ZM149.337,14.98a5.722,5.722,0,0,1,5.928-5.928,5.587,5.587,0,0,1,4.1,1.672,5.771,5.771,0,0,1,1.672,4.256V25.924a6.022,6.022,0,0,1-1.672,4.332,5.459,5.459,0,0,1-4.1,1.748,5.629,5.629,0,0,1-4.256-1.748,6.014,6.014,0,0,1-1.672-4.332V14.98Zm19.912,0a13.6,13.6,0,0,0-4.18-9.956,13.6,13.6,0,0,0-9.956-4.18,13.424,13.424,0,0,0-9.8,4.18,13.593,13.593,0,0,0-4.18,9.956V25.924a13.764,13.764,0,0,0,4.18,10.108,13.586,13.586,0,0,0,9.956,4.18,13.342,13.342,0,0,0,9.88-4.18,13.9,13.9,0,0,0,4.1-10.108V14.98Z"/>
  <path id="水を削減_" data-name="水を削減。" class="cls-1" d="M65.384,124.918a17.824,17.824,0,0,1-4.074,5.087,12.007,12.007,0,0,1-.767-2.087v-4.7a0.826,0.826,0,0,0,.551-0.576c0-.288-0.24-0.336-0.551-0.36L57,122.11v17.9c0,0.936-.072,1.056-0.935,1.056a13.415,13.415,0,0,1-1.965-.192,8.262,8.262,0,0,1,1.1,3.5c4.482,0,5.344-.48,5.344-3.815v-5.328a23.345,23.345,0,0,0,6.878,6.839,8.671,8.671,0,0,1,2.325-2.783,23.236,23.236,0,0,1-6.734-6.215,39.422,39.422,0,0,0,5.56-5.711c0.336,0,.719-0.048.719-0.312,0-.216-0.144-0.288-0.455-0.432Zm-17.4,2.3v3.215h4.889c-0.264,3.456-2.325,6.983-5.967,9.551A8.247,8.247,0,0,1,50,142.027a19.036,19.036,0,0,0,6.59-13.486l-1.27-1.319H47.986Zm33.291-5.28a17.905,17.905,0,0,1-1.27,3.144c-0.383.024-.671,0.024-1.366,0.024-1.63,0-3.02-.12-3.763-0.192L74.854,128.4c1.03,0.024,2.085.024,3.379-.024a51.171,51.171,0,0,1-4.865,6.456l3.331,1.895c1.318-2.135,3-4.823,5.488-4.823a1.738,1.738,0,0,1,1.8,1.2c-2.612,1.368-6.423,3.743-6.423,6.575,0,4.247,6.231,4.247,7.837,4.247a29.7,29.7,0,0,0,6.686-.7,15.084,15.084,0,0,1,.455-3.815,26.9,26.9,0,0,1-7.669,1.176c-1.222,0-3.667-.072-3.667-1.152,0-.984,1.51-1.992,3-2.9a20.819,20.819,0,0,1-.168,2.736,10.685,10.685,0,0,1,1.39-.048c0.767,0,1.63,0,2.4.048,0.024-.648.072-1.32,0.072-2.4,0-.72-0.024-1.464-0.072-2.159a57.009,57.009,0,0,1,5.464-1.944l-1.414-3.84c-0.887.5-1.294,0.672-4.841,2.376a4.209,4.209,0,0,0-3.5-2.04,4.535,4.535,0,0,0-2.085.48c0.6-1.056.647-1.152,0.935-1.656,2.828-.335,3.259-0.407,6.83-1.031V123.5a25.752,25.752,0,0,1-4.961,1.128l0.551-1.176c0.168,0,.6-0.024.6-0.36a0.48,0.48,0,0,0-.479-0.432Zm20.518,4.68a19.051,19.051,0,0,0-2.157-3.768l-2.756,1.56a15.947,15.947,0,0,1,2.085,4.343,10.477,10.477,0,0,1,2.828-1.151v1.463h-3.93v15.142h3.379v-4.535h4.673v0.576a0.671,0.671,0,0,1-.743.792,12.488,12.488,0,0,1-1.869-.24,5.582,5.582,0,0,1,1.39,3.479c4.577,0.216,4.769-1.2,4.769-2.471V129.069h-4V127.63a14.624,14.624,0,0,1,2.875.815,19.349,19.349,0,0,0,1.558-4.055c0.336-.072.623-0.144,0.623-0.432a0.38,0.38,0,0,0-.311-0.336l-3.355-.936a18.043,18.043,0,0,1-1.39,4.224v-3.84c0.407-.216.527-0.264,0.527-0.48a0.377,0.377,0,0,0-.408-0.312l-3.786-.168v4.512Zm-0.551,10.51V135.86h4.673v1.272h-4.673Zm0-3.815v-1.272h4.673v1.272h-4.673Zm9.346-8.447v14.47h3.283V125.878a0.732,0.732,0,0,0,.48-0.552,0.42,0.42,0,0,0-.48-0.312Zm4.53-2.736v17.878c0,0.528,0,1.08-.719,1.08a16.469,16.469,0,0,1-1.75-.264,8.849,8.849,0,0,1,1.294,3.623c3.595,0.12,4.673-.432,4.673-2.472V123.118a0.744,0.744,0,0,0,.528-0.5,0.463,0.463,0,0,0-.528-0.336Zm25.238,7.967a25.908,25.908,0,0,1-.815,3.672,46.553,46.553,0,0,1-.263-5.04H144.1v-2.879H142.37a11.582,11.582,0,0,1,1.438-1.032,14.31,14.31,0,0,0-2.037-2.328l-2.085,1.536a9.34,9.34,0,0,1,1.51,1.824H139.3c0-.816.048-2.136,0.048-2.4a1.325,1.325,0,0,0,.743-0.624c0-.168-0.168-0.192-0.5-0.216l-3.618-.312c-0.024,1.056-.048,1.728,0,3.552h-8.005V133.2c0,5.255-1.7,8.087-2.636,9.07a16.488,16.488,0,0,1,3.211,1.464c1.39-2.255,2.445-5.063,2.445-10.654v-4.344h5.08a46.281,46.281,0,0,0,1.151,9.215,11.361,11.361,0,0,1-1.055,1.152v-6.383H131.37v8.231h1.87v-1.8h2.875a17.469,17.469,0,0,1-3.93,2.759,9.867,9.867,0,0,1,2.636,2.208,21.844,21.844,0,0,0,3.763-2.9c0.695,1.223,2.109,3.119,3.69,3.119s2.157-2.208,2.445-4.559a10.132,10.132,0,0,1-2.612-1.944c-0.024.312-.144,1.944-0.408,1.944a2.534,2.534,0,0,1-.91-1.272,26.933,26.933,0,0,0,2.756-6.647c0.359-.048.671-0.1,0.671-0.384a0.564,0.564,0,0,0-.528-0.384Zm-5.991,6.695H133.24V135h1.126v1.8Zm-11.311-11.854a27.738,27.738,0,0,1,3.5,2.328,25.382,25.382,0,0,1,2.085-2.736,17.427,17.427,0,0,0-3.57-2.3Zm-1.63,5.735a18.781,18.781,0,0,1,3.379,2.736,26.231,26.231,0,0,1,2.133-2.64,23.067,23.067,0,0,0-3.451-2.616Zm2.564,13.342a0.5,0.5,0,0,0,.264.1,0.193,0.193,0,0,0,.191-0.24,1.249,1.249,0,0,0-.143-0.5,24.729,24.729,0,0,0,2.9-6.791,11.259,11.259,0,0,1-2.54-2.231,20.173,20.173,0,0,1-3.331,8.014Zm11.959-14.542h-4.482V131.9h4.482v-2.424Zm15.1,7.559a3.4,3.4,0,1,0,3.379,3.384A3.393,3.393,0,0,0,151.049,137.036Zm0,1.488a1.9,1.9,0,1,1-1.893,1.9A1.9,1.9,0,0,1,151.049,138.524Z"/>
</svg>
