<svg xmlns="http://www.w3.org/2000/svg" width="621" height="306" viewBox="0 0 621 306">
<defs>
    <style>
      .cls-1 {
        fill: #fff;
        fill-rule: evenodd;
      }
    </style>
  </defs>
  <path id="シェイプ_1" data-name="シェイプ 1" class="cls-1" d="M48.584,210.791l-9.666,5.722q-2.712-4.7-5.165-6.13a12.064,12.064,0,0,0-6.6-1.635,12.193,12.193,0,0,0-8.233,2.81,8.706,8.706,0,0,0-3.273,6.948q0,5.773,8.592,9.3l7.875,3.218q9.613,3.883,14.064,9.478a21.349,21.349,0,0,1,4.449,13.717q0,10.882-7.263,17.984a24.937,24.937,0,0,1-18.155,7.152q-10.279,0-16.978-6.079Q1.636,267.195,0,256.159L12.069,253.5q0.818,6.95,2.864,9.605,3.682,5.109,10.74,5.109a12.466,12.466,0,0,0,9.256-3.73,12.889,12.889,0,0,0,3.682-9.451,13.274,13.274,0,0,0-.639-4.215,10.711,10.711,0,0,0-1.995-3.525,15.951,15.951,0,0,0-3.5-3.015A33.912,33.912,0,0,0,27.36,241.6l-7.62-3.168Q3.528,231.585,3.528,218.4a18.994,18.994,0,0,1,6.8-14.868q6.8-6.027,16.927-6.028Q40.912,197.508,48.584,210.791Zm25.724,17.37v28.56q0,12.363,9.768,12.364t9.768-12.364v-28.56H105.35v28.815a32.045,32.045,0,0,1-1.483,10.32,17.329,17.329,0,0,1-4.961,7q-5.831,5.058-14.831,5.058-8.95,0-14.78-5.058a17.591,17.591,0,0,1-5.063-7q-1.432-3.474-1.432-10.32V228.161H74.307Zm70.418,8.482-9.512,5.058q-2.251-4.6-5.575-4.6a3.836,3.836,0,0,0-2.71,1.047,3.5,3.5,0,0,0-1.125,2.682q0,2.862,6.648,5.671,9.153,3.935,12.325,7.254a12.412,12.412,0,0,1,3.171,8.941,15.657,15.657,0,0,1-5.319,12.057,18.111,18.111,0,0,1-12.478,4.6q-12.531,0-17.746-12.21l9.819-4.547a21.279,21.279,0,0,0,3.12,4.547,7.117,7.117,0,0,0,5.012,1.942q5.829,0,5.83-5.314,0-3.065-4.5-5.722-1.74-.867-3.478-1.686t-3.528-1.686a21.6,21.6,0,0,1-7.058-4.9,12.08,12.08,0,0,1-2.608-8.022,14.192,14.192,0,0,1,4.449-10.729,15.623,15.623,0,0,1,11.047-4.24Q140.071,226.782,144.725,236.643Zm25.416,2.247v39.033H158.635V238.89h-4.909V228.161h4.909V209.923h11.506v18.238h8.95V238.89h-8.95Zm52.683-10.729h11.558v49.762H222.824v-5.211q-7.107,6.642-15.29,6.641a22.037,22.037,0,0,1-17.082-7.459q-6.7-7.611-6.7-19,0-11.189,6.7-18.648a21.608,21.608,0,0,1,16.775-7.459q8.694,0,15.6,7.153v-5.774Zm-27.309,24.728q0,7.154,3.836,11.649a12.568,12.568,0,0,0,9.921,4.547,13.214,13.214,0,0,0,10.331-4.394,18.9,18.9,0,0,0,0-23.093,13.029,13.029,0,0,0-10.229-4.445,12.724,12.724,0,0,0-9.921,4.5A16.562,16.562,0,0,0,195.515,252.889Zm49.557-45.418a7.506,7.506,0,0,1,7.467-7.408,7.255,7.255,0,0,1,5.319,2.2,7.077,7.077,0,0,1,2.2,5.263,7.242,7.242,0,0,1-2.2,5.313,7.085,7.085,0,0,1-5.267,2.2A7.507,7.507,0,0,1,245.072,207.471Zm13.246,20.69v49.762H246.812V228.161h11.506Zm14.576,0h11.557v4.6q6.034-5.977,13.6-5.978,8.694,0,13.552,5.467,4.192,4.649,4.194,15.173v30.5H304.243V250.13q0-7.356-2.047-10.166-1.992-2.862-7.261-2.861-5.728,0-8.131,3.78-2.353,3.73-2.353,13.028v24.012H272.894V228.161Zm89.959,0h11.559v49.762H362.853v-5.211q-7.107,6.642-15.291,6.641a22.037,22.037,0,0,1-17.081-7.459q-6.7-7.611-6.7-19,0-11.189,6.7-18.648a21.608,21.608,0,0,1,16.775-7.459q8.694,0,15.6,7.153v-5.774Zm-27.309,24.728q0,7.154,3.836,11.649a12.568,12.568,0,0,0,9.921,4.547,13.214,13.214,0,0,0,10.331-4.394,18.9,18.9,0,0,0,0-23.093,13.028,13.028,0,0,0-10.228-4.445,12.727,12.727,0,0,0-9.922,4.5A16.562,16.562,0,0,0,335.544,252.889Zm64.9-61.256v42.3q6.9-7.152,15.649-7.153a21.545,21.545,0,0,1,16.774,7.51q6.7,7.461,6.7,18.6,0,11.5-6.751,19a21.769,21.769,0,0,1-16.928,7.459q-8.642,0-15.444-6.641v5.211H388.937v-86.29h11.506ZM427.8,253.4q0-7.152-3.887-11.649a12.458,12.458,0,0,0-9.87-4.6,13.239,13.239,0,0,0-10.33,4.445q-3.939,4.395-3.938,11.444,0,7.256,3.887,11.6a12.929,12.929,0,0,0,10.228,4.445,12.692,12.692,0,0,0,9.921-4.445A16.311,16.311,0,0,0,427.8,253.4ZM450,207.471a7.5,7.5,0,0,1,7.467-7.408,7.252,7.252,0,0,1,5.318,2.2,7.074,7.074,0,0,1,2.2,5.263,7.239,7.239,0,0,1-2.2,5.313,7.084,7.084,0,0,1-5.267,2.2A7.5,7.5,0,0,1,450,207.471Zm13.246,20.69v49.762H451.737V228.161h11.507Zm26.081-36.528v86.29H477.819v-86.29h11.506Zm12.837,15.838a7.5,7.5,0,0,1,7.467-7.408,7.252,7.252,0,0,1,5.318,2.2,7.073,7.073,0,0,1,2.2,5.263,7.238,7.238,0,0,1-2.2,5.313,7.084,7.084,0,0,1-5.267,2.2A7.5,7.5,0,0,1,502.162,207.471Zm13.246,20.69v49.762H503.9V228.161h11.507Zm26.439,10.729v39.033H530.341V238.89h-4.91V228.161h4.91V209.923h11.506v18.238H550.8V238.89h-8.949Zm33.758,30.786-22.4-40.515h13.347l15.24,28.611,14.218-28.611H609L569.314,306H556.171ZM4.156,90.807V1.39H30.618V90.807a17.024,17.024,0,0,0,5.246,12.476,17.446,17.446,0,0,0,24.93,0,17.106,17.106,0,0,0,5.2-12.476V1.39H92.455V90.807a42.73,42.73,0,0,1-3.481,17.02A44.735,44.735,0,0,1,79.6,121.88a44.331,44.331,0,0,1-14.066,9.461A43.794,43.794,0,0,1,26.3,128.93a44.521,44.521,0,0,1-16.156-16.094A42.609,42.609,0,0,1,4.156,90.807Zm120.835,42.76V1.39h26.462l35.376,78.564V1.39H213.29V133.567H186.829L151.453,54.91v78.657H124.991Zm119.021,0V1.39h26.462V133.567H244.012Zm56.4-42.76V44.058a42.786,42.786,0,0,1,3.528-17.16,44.3,44.3,0,0,1,9.471-14.053,44.768,44.768,0,0,1,14.067-9.368,44.1,44.1,0,0,1,48.281,9.368,42.477,42.477,0,0,1,12.86,31.213V90.807a42.157,42.157,0,0,1-13.092,31.351L388.431,160H361.968l-8.726-25.879a58.076,58.076,0,0,1-8.729.742,42.962,42.962,0,0,1-22.051-5.936,44.15,44.15,0,0,1-16.11-16.094A42.854,42.854,0,0,1,300.41,90.807Zm26.369,0a17.688,17.688,0,0,0,35.376,0V44.058q0-7.883-4.967-12.754a18.305,18.305,0,0,0-25.163.278,16.831,16.831,0,0,0-5.246,12.476V90.807Zm89.682,42.76V1.39h26.462V107.132H504.76v26.435h-88.3Zm115.851-42.76V44.058A42.786,42.786,0,0,1,535.84,26.9a44.3,44.3,0,0,1,9.471-14.053,44.768,44.768,0,0,1,14.067-9.368,44.1,44.1,0,0,1,48.282,9.368,42.48,42.48,0,0,1,12.859,31.213V90.807a42.727,42.727,0,0,1-3.482,17.02,43.636,43.636,0,0,1-23.444,23.514,43.793,43.793,0,0,1-39.229-2.411,44.14,44.14,0,0,1-16.109-16.094A42.845,42.845,0,0,1,532.312,90.807Zm26.369,0a17.688,17.688,0,0,0,35.376,0V44.058a17.663,17.663,0,0,0-17.642-17.624,17.217,17.217,0,0,0-12.488,5.148,16.835,16.835,0,0,0-5.246,12.476V90.807Z"/>
</svg>
