<?xml version="1.0" encoding="utf-8"?>
<!-- Generator: Adobe Illustrator 22.1.0, SVG Export Plug-In . SVG Version: 6.00 Build 0)  -->
<svg version="1.1" id="レイヤー_1" xmlns="http://www.w3.org/2000/svg" xmlns:xlink="http://www.w3.org/1999/xlink" x="0px"
	 y="0px" viewBox="0 0 620 360" style="enable-background:new 0 0 620 360;" xml:space="preserve">
<style type="text/css">
	.st0{fill:#FFFFFF;}
	.st1{fill:#FF0000;}
</style>
<title>アートボード 1</title>
<g>
	<path id="シェイプ_1" class="st0" d="M126.8,149.9l-6.8,4c-0.8-1.7-2.1-3.2-3.6-4.3c-1.4-0.8-3-1.2-4.6-1.1
		c-2.1-0.1-4.2,0.6-5.8,2c-1.5,1.2-2.3,3-2.3,4.9c0,2.7,2,4.9,6,6.5l5.5,2.3c4.5,1.8,7.8,4,9.8,6.6c2.1,2.7,3.2,6.1,3.1,9.6
		c0.1,4.7-1.7,9.3-5.1,12.6s-8,5.1-12.7,5c-4.4,0.2-8.6-1.4-11.9-4.3c-3.1-2.8-5-6.8-5.8-12l8.4-1.9c0.4,3.2,1,5.5,2,6.7
		c3.3,4.1,9.3,4.8,13.4,1.5c0.2-0.2,0.4-0.3,0.6-0.5c1.7-1.8,2.7-4.2,2.6-6.6c0-1-0.1-2-0.4-2.9s-0.8-1.7-1.4-2.5
		c-0.7-0.8-1.5-1.5-2.4-2.1c-1.1-0.7-2.3-1.3-3.6-1.9l-5.3-2.2c-7.6-3.2-11.4-7.9-11.3-14c-0.1-4,1.7-7.8,4.8-10.4
		c3.3-2.9,7.5-4.4,11.8-4.2C118.3,140.6,123.3,143.7,126.8,149.9z M144.8,162.1v20c0,5.8,2.3,8.7,6.8,8.7s6.8-2.9,6.8-8.7v-20h8
		v20.2c0.1,2.4-0.3,4.9-1,7.2c-0.7,1.9-1.9,3.6-3.5,4.9c-6.1,4.7-14.6,4.7-20.7,0c-1.6-1.3-2.8-3-3.6-4.9c-0.8-2.3-1.1-4.8-1-7.2
		v-20.2H144.8z M194.1,168l-6.7,3.5c-1-2.1-2.3-3.2-3.9-3.2c-0.7,0-1.4,0.2-1.9,0.7s-0.8,1.2-0.8,1.9c0,1.3,1.6,2.7,4.7,4
		c4.3,1.8,7.1,3.5,8.6,5.1c1.5,1.7,2.3,4,2.2,6.3c0.1,3.2-1.3,6.3-3.7,8.4c-2.4,2.1-5.5,3.3-8.7,3.2c-5.8,0-10-2.8-12.4-8.6l6.9-3.2
		c0.6,1.2,1.3,2.2,2.2,3.2c0.9,0.9,2.2,1.4,3.5,1.4c2.7,0,4.1-1.2,4.1-3.7c0-1.4-1.1-2.8-3.1-4l-2.4-1.2l-2.5-1.2
		c-1.9-0.8-3.5-2-4.9-3.4c-1.3-1.6-1.9-3.6-1.8-5.6c-0.1-2.8,1-5.6,3.1-7.5c2.1-2,4.9-3.1,7.7-3C188.6,161.1,192,163.4,194.1,168
		L194.1,168z M211.9,169.6v27.3h-8.1v-27.3h-3.4v-7.5h3.4v-12.8h8.1v12.8h6.3v7.5H211.9z M248.8,162.1h8.1v34.8h-8.1v-3.7
		c-3.3,3.1-6.9,4.6-10.7,4.6c-4.6,0.1-8.9-1.8-11.9-5.2c-3.2-3.7-4.9-8.4-4.7-13.3c-0.2-4.8,1.5-9.5,4.7-13.1
		c2.9-3.4,7.2-5.3,11.7-5.2c4.1,0,7.7,1.7,10.9,5L248.8,162.1L248.8,162.1z M229.7,179.4c-0.1,3,0.8,5.9,2.7,8.2
		c1.7,2.1,4.3,3.2,6.9,3.2c2.7,0.1,5.4-1,7.2-3.1c3.7-4.8,3.7-11.4,0-16.2c-1.8-2.1-4.4-3.2-7.2-3.1c-2.7,0-5.2,1.1-6.9,3.1
		C230.6,173.7,229.6,176.5,229.7,179.4L229.7,179.4z M264.4,147.6c0-2.9,2.4-5.2,5.2-5.2c1.4,0,2.7,0.5,3.7,1.5s1.6,2.3,1.5,3.7
		c0,1.4-0.5,2.7-1.5,3.7s-2.3,1.6-3.7,1.5C266.7,152.9,264.4,150.5,264.4,147.6L264.4,147.6L264.4,147.6z M273.6,162.1v34.8h-8
		v-34.8H273.6z M283.9,162.1h8.1v3.2c2.5-2.6,5.9-4.2,9.5-4.2c4,0,7.2,1.3,9.5,3.8c2,2.2,2.9,5.7,2.9,10.6v21.4h-8.1v-19.5
		c0-3.4-0.5-5.8-1.4-7.1s-2.6-2-5.1-2c-2.7,0-4.6,0.9-5.7,2.6c-1.1,1.8-1.7,4.8-1.6,9.1v16.8h-8.1L283.9,162.1L283.9,162.1z
		 M346.9,162.1h8.1v34.8h-8.1v-3.6c-3.3,3.1-6.9,4.6-10.7,4.6c-4.6,0.1-8.9-1.8-12-5.2c-3.2-3.7-4.9-8.4-4.7-13.3
		c-0.2-4.8,1.5-9.5,4.7-13.1c2.9-3.4,7.2-5.3,11.7-5.2c4.2,0.1,8.1,1.9,10.9,5v-4H346.9z M327.7,179.4c-0.1,3,0.8,5.9,2.7,8.2
		c1.7,2.1,4.3,3.2,6.9,3.2c2.7,0.1,5.4-1,7.2-3.1c3.7-4.8,3.7-11.4,0-16.2c-1.8-2.1-4.4-3.2-7.2-3.1c-2.7,0-5.2,1.1-6.9,3.1
		C328.6,173.7,327.7,176.5,327.7,179.4L327.7,179.4z M373.1,136.4V166c2.8-3.1,6.8-5,11-5c4.5-0.1,8.8,1.8,11.8,5.3
		c3.2,3.6,4.8,8.2,4.7,13c0.2,4.9-1.5,9.6-4.7,13.3c-5.7,6.4-15.5,7-21.9,1.3c-0.3-0.2-0.5-0.5-0.8-0.7v3.6h-8.1v-60.4L373.1,136.4
		L373.1,136.4z M392.3,179.7c0.1-3-0.8-5.9-2.7-8.1c-1.7-2.1-4.2-3.3-6.9-3.2c-2.8-0.1-5.4,1.1-7.2,3.1c-1.9,2.2-2.9,5.1-2.8,8
		c-0.1,3,0.8,5.9,2.7,8.1c1.8,2.1,4.4,3.2,7.2,3.1c2.7,0.1,5.2-1.1,7-3.1C391.4,185.4,392.4,182.6,392.3,179.7L392.3,179.7z
		 M407.8,147.5c0-2.9,2.4-5.2,5.2-5.2c1.4,0,2.7,0.5,3.7,1.5s1.6,2.3,1.5,3.7c0,1.4-0.5,2.7-1.5,3.7s-2.3,1.6-3.7,1.5
		C410.2,152.8,407.8,150.5,407.8,147.5L407.8,147.5z M417.1,162v34.8H409V162H417.1z M435.4,136.4v60.4h-8.1v-60.4H435.4z
		 M444.4,147.5c0-2.9,2.4-5.2,5.2-5.2c1.4,0,2.7,0.5,3.7,1.5s1.6,2.3,1.5,3.7c0,2.9-2.3,5.2-5.2,5.3
		C446.7,152.8,444.4,150.5,444.4,147.5L444.4,147.5L444.4,147.5z M453.6,162v34.8h-8.1V162H453.6L453.6,162z M472.1,169.5v27.3h-8
		v-27.3h-3.4V162h3.4v-12.8h8V162h6.3v7.5H472.1z M495.7,191.1L480,162.7h9.4l10.7,20l10-20h9.1l-27.8,53.8h-9.2L495.7,191.1z
		 M95.7,65.9V3.3h18.5v62.6c0,3.3,1.3,6.5,3.7,8.7c4.7,4.8,12.4,4.9,17.3,0.2l0,0l0.2-0.2c2.4-2.3,3.7-5.4,3.6-8.7V3.3h18.5v62.6
		c0,4.1-0.8,8.2-2.4,11.9c-3.1,7.4-9,13.3-16.4,16.5c-8.9,3.8-19.1,3.2-27.5-1.7c-4.7-2.7-8.6-6.6-11.3-11.3
		C97.2,76.7,95.7,71.3,95.7,65.9z M180.3,95.8V3.3h18.5l24.8,55v-55h18.5v92.5h-18.5l-24.8-55.1v55.1H180.3z M263.6,95.8V3.3h18.5
		v92.5H263.6z M303.1,65.9V33.2c0-4.1,0.8-8.2,2.5-12c1.5-3.7,3.8-7,6.6-9.8c2.8-2.8,6.2-5,9.8-6.6c11.6-4.9,24.9-2.3,33.8,6.6
		c5.9,5.7,9.1,13.6,9,21.9V66c0.2,8.3-3.1,16.3-9.2,22l9,26.5h-18.5L340,96.4c-2,0.3-4.1,0.5-6.1,0.5c-5.4,0-10.8-1.4-15.4-4.1
		c-4.7-2.7-8.6-6.6-11.3-11.3C304.5,76.7,303.1,71.4,303.1,65.9L303.1,65.9z M321.6,65.9c0,6.8,5.5,12.4,12.4,12.4
		s12.4-5.5,12.4-12.4V33.2c0.1-3.3-1.1-6.6-3.5-8.9c-5-4.6-12.7-4.5-17.6,0.2c-2.4,2.3-3.7,5.4-3.7,8.7L321.6,65.9L321.6,65.9z
		 M384.3,95.8V3.3h18.5v74h43.3v18.5H384.3z M465.4,65.9V33.2c0-4.1,0.8-8.2,2.5-12c1.5-3.7,3.8-7,6.6-9.8c2.8-2.8,6.2-5,9.8-6.6
		c11.6-4.9,24.9-2.3,33.8,6.6c5.9,5.7,9.1,13.6,9,21.9V66c0,4.1-0.8,8.1-2.4,11.9c-6.6,15.7-24.7,23.1-40.4,16.5
		c-1.2-0.5-2.4-1.1-3.5-1.7c-4.7-2.7-8.6-6.6-11.3-11.3S465.4,71.3,465.4,65.9z M483.9,65.9c0,6.8,5.5,12.4,12.4,12.4
		s12.4-5.5,12.4-12.4V33.2c0-6.8-5.5-12.3-12.4-12.3c-3.3,0-6.4,1.3-8.7,3.6c-2.4,2.3-3.7,5.4-3.7,8.7L483.9,65.9z"/>
	<g>
		<g>
			<polygon points="264.2,339.8 264.2,355.6 274.1,355.6 274.1,357.5 262.3,357.5 262.3,339.8 			"/>
			<path d="M279,341.9h-2.1v-2.1h2.1V341.9z M278.8,357.5H277v-12.6h1.8V357.5z"/>
			<path d="M285.6,357.5h-1.8v-10.4h-1.5v-1.8h1.5V343c0-0.5,0.1-0.9,0.3-1.3c0.2-0.4,0.4-0.7,0.7-1c0.3-0.3,0.6-0.5,1-0.7
				s0.8-0.3,1.3-0.3h1.5v1.8h-1.5c-0.4,0-0.8,0.1-1.1,0.4c-0.3,0.3-0.4,0.6-0.4,1.1v2.3h2.6v1.8h-2.6V357.5z"/>
			<path d="M292.6,352.8c0,0.4,0.1,0.8,0.2,1.2c0.2,0.4,0.4,0.7,0.6,1c0.3,0.3,0.6,0.5,0.9,0.6c0.4,0.2,0.7,0.2,1.2,0.2
				c0.9,0,1.6-0.3,2.2-1l1.3,1.3c-0.5,0.5-1,0.9-1.6,1.1s-1.2,0.4-1.9,0.4c-0.7,0-1.3-0.1-1.9-0.4s-1.1-0.6-1.5-1s-0.8-0.9-1-1.5
				s-0.4-1.2-0.4-1.9v-3.2c0-0.7,0.1-1.3,0.4-1.9c0.2-0.6,0.6-1.1,1-1.5s0.9-0.8,1.5-1c0.6-0.3,1.2-0.4,1.9-0.4
				c0.7,0,1.3,0.1,1.9,0.4s1.1,0.6,1.5,1s0.8,0.9,1,1.5c0.3,0.6,0.4,1.2,0.4,1.9v1.8h-7.8L292.6,352.8L292.6,352.8z M298.6,349.7
				c0-0.4-0.1-0.9-0.2-1.2c-0.2-0.4-0.4-0.7-0.6-1c-0.3-0.3-0.6-0.5-0.9-0.7c-0.4-0.2-0.7-0.2-1.2-0.2c-0.9,0-1.6,0.3-2.1,0.9
				c-0.6,0.6-0.8,1.3-0.9,2.2L298.6,349.7L298.6,349.7z"/>
			<polygon points="316.5,354.2 320.4,339.8 322.4,339.8 317.4,357.5 315.4,357.5 312.2,343.5 308.9,357.5 306.9,357.5 301.9,339.8 
				303.8,339.8 307.8,354.2 311.2,339.8 313.1,339.8 			"/>
			<path d="M325.7,352.8c0,0.4,0.1,0.8,0.2,1.2c0.2,0.4,0.4,0.7,0.6,1c0.3,0.3,0.6,0.5,0.9,0.6c0.4,0.2,0.8,0.2,1.2,0.2
				c0.9,0,1.6-0.3,2.2-1l1.3,1.3c-0.5,0.5-1,0.9-1.6,1.1s-1.2,0.4-1.9,0.4c-0.7,0-1.3-0.1-1.9-0.4s-1.1-0.6-1.5-1s-0.8-0.9-1-1.5
				s-0.4-1.2-0.4-1.9v-3.2c0-0.7,0.1-1.3,0.4-1.9c0.2-0.6,0.6-1.1,1-1.5s0.9-0.8,1.5-1c0.6-0.3,1.2-0.4,1.9-0.4
				c0.7,0,1.3,0.1,1.9,0.4s1.1,0.6,1.5,1s0.8,0.9,1,1.5c0.3,0.6,0.4,1.2,0.4,1.9v1.8h-7.8L325.7,352.8L325.7,352.8z M331.7,349.7
				c0-0.4-0.1-0.9-0.2-1.2c-0.2-0.4-0.4-0.7-0.6-1c-0.3-0.3-0.6-0.5-0.9-0.7c-0.4-0.2-0.8-0.2-1.2-0.2c-0.9,0-1.6,0.3-2.1,0.9
				c-0.6,0.6-0.8,1.3-0.9,2.2L331.7,349.7L331.7,349.7z"/>
			<path d="M344,349.6c0-0.4-0.1-0.8-0.2-1.2c-0.2-0.4-0.4-0.7-0.6-1c-0.3-0.3-0.6-0.5-1-0.6c-0.4-0.2-0.8-0.2-1.2-0.2
				c-0.6,0-1.1,0.2-1.6,0.5s-0.9,0.8-1.1,1.4l-1.7-0.7c0.4-0.9,1-1.7,1.8-2.2s1.7-0.8,2.7-0.8c0.7,0,1.3,0.1,1.9,0.4s1.1,0.6,1.5,1
				s0.8,0.9,1,1.5c0.3,0.6,0.4,1.2,0.4,1.9v7.9h-1.8V356c-0.8,1-1.8,1.6-3,1.6H340c-0.5,0-1-0.1-1.4-0.3c-0.4-0.2-0.8-0.5-1.2-0.8
				c-0.3-0.3-0.6-0.7-0.8-1.2c-0.2-0.4-0.3-0.9-0.3-1.4s0.1-1,0.3-1.4c0.2-0.4,0.5-0.8,0.8-1.2c0.3-0.3,0.7-0.6,1.2-0.8
				c0.5-0.2,0.9-0.3,1.4-0.3h4.1L344,349.6L344,349.6z M339.8,351.9c-0.5,0-1,0.2-1.3,0.5c-0.4,0.4-0.5,0.8-0.5,1.3s0.2,1,0.5,1.3
				c0.4,0.4,0.8,0.5,1.3,0.5h1.1c0.4,0,0.8-0.1,1.2-0.3c0.4-0.2,0.7-0.5,1-0.8s0.5-0.7,0.6-1.2c0.2-0.5,0.2-1,0.2-1.5h-4.1V351.9z"
				/>
			<path d="M349.5,344.9h1.8v1.2c0.8-0.8,1.8-1.2,3-1.2c1.3,0,2.4,0.5,3.4,1.4l-1.3,1.3c-0.6-0.6-1.3-0.9-2.1-0.9
				c-0.4,0-0.8,0.1-1.2,0.2c-0.4,0.2-0.7,0.4-0.9,0.7c-0.3,0.3-0.5,0.6-0.6,1c-0.2,0.4-0.2,0.8-0.2,1.2v7.8h-1.8L349.5,344.9
				L349.5,344.9z"/>
		</g>
	</g>
</g>
<g>
	<rect x="278.1" y="252.2" class="st1" width="63.7" height="63.7"/>
	<rect x="325.1" y="260.9" class="st0" width="4" height="20.1"/>
	<path class="st0" d="M299.6,274.4c0,3.7-3,6.7-6.7,6.7s-6.7-3-6.7-6.7V261h4v13.4c0,1.5,1.2,2.7,2.7,2.7s2.7-1.2,2.7-2.7V261h4
		V274.4z"/>
	<polygon class="st0" points="318.5,307.2 305,307.2 305,287.1 309,287.1 309,303.2 318.5,303.2 	"/>
	<polygon class="st0" points="318.5,281.1 314.4,281.1 309,269.6 309,281.1 305,281.1 305,260.9 309,260.9 314.4,272.4 314.4,260.9 
		318.5,260.9 	"/>
	<path class="st0" d="M293,287.1c-3.7,0-6.7,3-6.7,6.7v6.7c0,3.7,3,6.7,6.7,6.7c0.4,0,0.9,0,1.3-0.1l1.4,4.1h4l-2-6
		c1.2-1.2,2-2.9,2-4.8v-6.7C299.6,290.1,296.6,287.1,293,287.1 M295.6,300.5c0,1.5-1.2,2.7-2.7,2.7s-2.7-1.2-2.7-2.7v-6.7
		c0-1.5,1.2-2.7,2.7-2.7s2.7,1.2,2.7,2.7V300.5z"/>
	<path class="st0" d="M327.1,287.1c-3.7,0-6.7,3-6.7,6.7v6.7c0,3.7,3,6.7,6.7,6.7s6.7-3,6.7-6.7v-6.7
		C333.9,290.1,330.9,287.1,327.1,287.1 M329.8,300.5c0,1.5-1.2,2.7-2.7,2.7s-2.7-1.2-2.7-2.7v-6.7c0-1.5,1.2-2.7,2.7-2.7
		s2.7,1.2,2.7,2.7V300.5z"/>
</g>
</svg>
