<svg id="レイヤー_1" data-name="レイヤー 1" xmlns="http://www.w3.org/2000/svg" viewBox="0 0 621 306"><defs><style>.cls-1{fill:#fff;}</style></defs><title>アートボード 1</title><path id="シェイプ_1" data-name="シェイプ 1" class="cls-1" d="M127.09,193.45l-6.77,4a11.58,11.58,0,0,0-3.61-4.29,8.43,8.43,0,0,0-4.62-1.15,8.6,8.6,0,0,0-5.77,2,6.12,6.12,0,0,0-2.29,4.86q0,4.05,6,6.51l5.51,2.26c4.48,1.81,7.77,4,9.84,6.63a15,15,0,0,1,3.12,9.6,16.86,16.86,0,0,1-5.09,12.59,17.45,17.45,0,0,1-12.7,5,17,17,0,0,1-11.89-4.26q-4.62-4.26-5.76-12l8.45-1.86q.57,4.86,2,6.72a9.53,9.53,0,0,0,14,1,9,9,0,0,0,2.58-6.62,9.27,9.27,0,0,0-.45-2.95,7.67,7.67,0,0,0-1.4-2.47,11.53,11.53,0,0,0-2.45-2.11,23.87,23.87,0,0,0-3.58-1.87l-5.33-2.22q-11.36-4.78-11.35-14a13.27,13.27,0,0,1,4.76-10.41,17.21,17.21,0,0,1,11.85-4.22Q121.72,184.15,127.09,193.45Zm18,12.16v20q0,8.66,6.84,8.66t6.84-8.66v-20h8v20.17a22.72,22.72,0,0,1-1,7.23,12.18,12.18,0,0,1-3.48,4.9,16.93,16.93,0,0,1-20.72,0A12.44,12.44,0,0,1,138,233a19.89,19.89,0,0,1-1-7.23V205.61Zm49.3,5.94-6.66,3.54q-1.57-3.22-3.9-3.22a2.71,2.71,0,0,0-1.9.73,2.49,2.49,0,0,0-.79,1.88q0,2,4.66,4,6.4,2.76,8.62,5.08a8.68,8.68,0,0,1,2.22,6.26,11,11,0,0,1-3.72,8.44,12.71,12.71,0,0,1-8.74,3.22q-8.76,0-12.42-8.55l6.88-3.18a14.71,14.71,0,0,0,2.18,3.18,5,5,0,0,0,3.51,1.36q4.08,0,4.08-3.72,0-2.14-3.15-4l-2.44-1.18-2.47-1.18a15,15,0,0,1-4.94-3.43,8.43,8.43,0,0,1-1.82-5.61,9.92,9.92,0,0,1,3.11-7.51,10.94,10.94,0,0,1,7.74-3q6.69,0,9.95,6.9Zm17.79,1.57v27.33h-8.06V213.12h-3.43v-7.51h3.43V192.85h8.06v12.76h6.26v7.51Zm36.88-7.51h8.09v34.84h-8.09V236.8q-5,4.65-10.71,4.65a15.43,15.43,0,0,1-11.95-5.22,19.4,19.4,0,0,1-4.69-13.3,18.79,18.79,0,0,1,4.69-13.06,15.11,15.11,0,0,1,11.74-5.22q6.08,0,10.92,5v-4Zm-19.12,17.31a12.14,12.14,0,0,0,2.69,8.16,8.79,8.79,0,0,0,6.94,3.18,9.24,9.24,0,0,0,7.23-3.08,13.21,13.21,0,0,0,0-16.16,9.11,9.11,0,0,0-7.16-3.11,8.86,8.86,0,0,0-6.94,3.15,11.54,11.54,0,0,0-2.76,7.86Zm34.69-31.79a5.26,5.26,0,0,1,5.23-5.19,5.11,5.11,0,0,1,3.72,1.54,5,5,0,0,1,1.54,3.69,5.11,5.11,0,0,1-1.54,3.72,5,5,0,0,1-3.69,1.54,5.26,5.26,0,0,1-5.26-5.25v-.05Zm9.27,14.48v34.84h-8V205.61Zm10.21,0h8.09v3.22a13.17,13.17,0,0,1,9.52-4.18q6.07,0,9.48,3.82,2.94,3.25,2.94,10.63v21.35h-8.09V221q0-5.15-1.43-7.12t-5.09-2q-4,0-5.69,2.65t-1.65,9.12v16.81H284.1V205.61Zm63,0h8.09v34.84h-8.09V236.8q-5,4.65-10.71,4.65a15.43,15.43,0,0,1-11.95-5.22,19.4,19.4,0,0,1-4.69-13.3,18.79,18.79,0,0,1,4.69-13.06,15.11,15.11,0,0,1,11.74-5.22,14.82,14.82,0,0,1,10.92,5v-4ZM328,222.92a12.14,12.14,0,0,0,2.69,8.16,8.8,8.8,0,0,0,6.94,3.18,9.24,9.24,0,0,0,7.23-3.08,13.21,13.21,0,0,0,0-16.16,9.11,9.11,0,0,0-7.16-3.11,8.86,8.86,0,0,0-6.94,3.15,11.54,11.54,0,0,0-2.76,7.86ZM373.39,180v29.61a14.88,14.88,0,0,1,10.95-5,15.11,15.11,0,0,1,11.75,5.25,18.79,18.79,0,0,1,4.69,13,19.13,19.13,0,0,1-4.73,13.3,15.5,15.5,0,0,1-22.66.58v3.64h-8.06V180Zm19.15,43.24a12,12,0,0,0-2.72-8.15,8.7,8.7,0,0,0-6.91-3.22,9.27,9.27,0,0,0-7.23,3.11,11.54,11.54,0,0,0-2.76,8,11.76,11.76,0,0,0,2.72,8.12,9.08,9.08,0,0,0,7.16,3.11,8.89,8.89,0,0,0,6.95-3.11A11.46,11.46,0,0,0,392.54,223.28Zm15.54-32.15a5.25,5.25,0,0,1,5.23-5.19,5.11,5.11,0,0,1,3.72,1.54,5,5,0,0,1,1.54,3.69,5.11,5.11,0,0,1-1.54,3.72,5,5,0,0,1-3.69,1.54,5.26,5.26,0,0,1-5.26-5.24Zm9.27,14.48v34.84h-8.06V205.61ZM435.61,180v60.41h-8.06V180Zm9,11.09a5.27,5.27,0,0,1,5.23-5.19,5.09,5.09,0,0,1,3.72,1.54,5,5,0,0,1,1.54,3.69,5.26,5.26,0,0,1-5.22,5.26,5.26,5.26,0,0,1-5.27-5.24v-.06Zm9.28,14.48v34.84h-8.06V205.61h8.06Zm18.5,7.51v27.33h-8.05V213.12h-3.44v-7.51h3.44V192.85h8.05v12.76h6.27v7.51ZM496,234.67l-15.68-28.36h9.35l10.66,20,10-20h9.09L491.6,260.1h-9.2ZM96,109.46V46.87h18.52v62.59a12,12,0,0,0,3.67,8.74,12.21,12.21,0,0,0,17.27.18l.18-.18a11.94,11.94,0,0,0,3.64-8.74V46.87H157.8v62.59a30,30,0,0,1-2.44,11.92A30.49,30.49,0,0,1,139,137.84a30.64,30.64,0,0,1-27.46-1.69,31.18,31.18,0,0,1-11.31-11.27A29.85,29.85,0,0,1,96,109.46Zm84.58,29.94V46.87H199.1l24.76,55v-55h18.52V139.4H223.86L199.1,84.34V139.4Zm83.32,0V46.87h18.52V139.4Zm39.48-29.94V76.74a29.72,29.72,0,0,1,2.47-12,30.72,30.72,0,0,1,6.63-9.84,31.24,31.24,0,0,1,9.84-6.56,30.87,30.87,0,0,1,33.8,6.56,29.73,29.73,0,0,1,9,21.85v32.72a29.5,29.5,0,0,1-9.16,22l9,26.49H346.46l-6.11-18.12a40.42,40.42,0,0,1-6.11.52,30,30,0,0,1-15.44-4.15,30.84,30.84,0,0,1-11.27-11.27,29.85,29.85,0,0,1-4.16-15.42Zm18.46,0a12.38,12.38,0,1,0,24.76,0V76.74a12,12,0,0,0-3.48-8.93,12.81,12.81,0,0,0-17.61.2,11.75,11.75,0,0,0-3.67,8.73ZM384.6,139.4V46.87h18.53v74h43.28V139.4Zm81.1-29.94V76.74a29.72,29.72,0,0,1,2.47-12,30.72,30.72,0,0,1,6.63-9.84,31.41,31.41,0,0,1,9.84-6.56,30.87,30.87,0,0,1,33.8,6.56,29.73,29.73,0,0,1,9,21.85v32.72A30,30,0,0,1,525,121.38a30.85,30.85,0,0,1-43.87,14.77,30.84,30.84,0,0,1-11.27-11.27,29.82,29.82,0,0,1-4.16-15.42Zm18.46,0a12.38,12.38,0,0,0,24.76,0V76.74A12.37,12.37,0,0,0,496.57,64.4,12.06,12.06,0,0,0,487.83,68a11.78,11.78,0,0,0-3.67,8.73Z"/></svg>