<svg xmlns="http://www.w3.org/2000/svg" viewBox="0 0 1017.38 541.33" preserveAspectRatio="xMidYMin"><defs><style>.cls-1,.cls-2{stroke:#000;stroke-linecap:round;stroke-linejoin:round;}.cls-1,.cls-3{fill-rule:evenodd;}</style></defs><g id="レイヤー_2" data-name="レイヤー 2"><g id="design"><path class="cls-1" d="M100.4,10.37l1.66.16,0,.23,1.63.39c.06.25.12.49.17.74l.24,0c-.06.25-.55.63-.35,1.16l.24,0c.35.65.6.67.55,1.72a2.28,2.28,0,0,0,1-.38l0-.24,1.87.42c0-.64,0-1.28-.05-1.92l-.24,0,.15-1.66L107,11l0-.47-.23,0c-.06-.25-.12-.49-.17-.73-.77-.3-1-.84-1.55-1.34l0-.24-.47,0,0-.24-.92-.33,0-.23L102.39,7l0-.24-.48,0,0-.24-1.19-.11,0-.24L99.15,6l0-.24c-1.41-.55-3.37-.08-4.52-.19L93,5.14l0,.24-3.08-.29c-2.07.39-4.71.17-6.73.56l-1.66-.16,0,.24-.71-.07,0,.24-1.66-.16,0,.24-.95-.09,0,.24L77.19,6l0,.24L76,6.17l0,.23-1.42-.13,0,.23-.48,0,0,.24-1.18-.11,0,.23-.95-.09,0,.24-.95-.09,0,.24H68.49l0,.24-.71-.07,0,.24L67,7.47l0,.24-.71-.07,0,.24H63.89l-.29.45-2.17.28,0,.23-.47,0,0,.23-1.42-.13L59,9.58l-1.41-.14-.29.45-.94-.09,0,.24L55.58,10l0,.24-.47,0,0,.23-1.18-.11,0,.24-1.46.34,0,.24-.48,0,0,.24-.71-.07,0,.24-.47-.05,0,.24-.7-.07,0,.24-.71-.07c-.09.15-.18.3-.28.45l-.47,0,0,.24-1-.09,0,.23-1.21.13,0,.23-1,.15,0,.24-2.43.49c-.1.15-.19.3-.28.45l-1.44.1-.54.67-.48,0,0,.24-.47,0,0,.24-.7-.07,0,.24-.47,0-.28.45-1-.09,0,.23-.47,0c-.1.15-.19.3-.28.45l-1,.15c-.1.15-.19.3-.28.45l-1.21.12-.28.45-1.7.32,0,.24-.47-.05-.29.46-1,.14-.29.45-1,.15-.54.67L27.9,20c-.09.15-.18.3-.28.45-.89.47-1-.15-1.53,1.05l-.47,0-.05.47-.73.17-.54.67-.47-.05-.28.45-2,1.24.32,1.7.24,0c.05.24.11.48.17.73l.47,0,0,.48,2,1.38,0-.24.71.07.29-.45.73-.17,0-.47,2.57-1.91.47,0c.47-1.29.48-.44,1.27-.83.1-.15.19-.3.28-.45a2.44,2.44,0,0,1,1.73-.56l0-.47.73-.17,0-.24.71.07.8-.88.71.07,0-.24.48.05,0-.24,1-.15,0-.24.71.07.28-.45,1-.15.28-.45.71.07,0-.24,1-.15,0-.23.71.06c.1-.15.19-.3.28-.45l1-.14,0-.24.47,0,0-.23.47,0,0-.23.71.06.54-.66.94.09,0-.24,1.21-.13,0-.23,1-.15,0-.24,1.68-.08,0-.23.48,0c.09-.15.18-.3.28-.45l.47,0,.28-.45L53.82,16l0-.23,1.46-.34,0-.24,2.15,0,0-.23.71.06,0-.23.47,0,0-.23,1,.09c.09-.16.19-.31.28-.46l1.68-.08,0-.23,1.47-.34,0-.24,1.91-.06,0-.23.71.06,0-.23.47,0,0-.24,2.15,0,0-.24.47,0,0-.23,1.18.11,0-.24.94.09,0-.23.71.06,0-.23.71.06,0-.23.94.08,0-.23H76.2l0-.24.48,0,0-.23,1.89.18,0-.24.71.07,0-.24.94.09,0-.24,1.42.13,0-.23.47,0,0-.23,1.42.13,0-.24.22.26,1.44-.1,0-.24,1.66.16,0-.24,5,.23,0-.24.47,0,0-.24L94,10c.08,0,.08-.34.49-.2l0,.24.24,0,0-.23,2.36.22,0-.24,3.31.31Z"/><path class="cls-1" d="M192.06,2.64l-.47-1.43A5.79,5.79,0,0,1,189.21.5h-1.9V.74c-.84.66-.1.48-.48,1.42h-.23l-.48,1.43h-.24v.47h-.23l-.48,2.38h-.24c-.08.32-.15.63-.23.95h-.24v.48h-.24v.71H184v.47h-.23v.48l-.48.24-.24.71h-.23c-.28.45-.24,1.47-.48,1.9l-.71.48-.24,1.42-.71.48-.48,1.42-.47.24v.47h-.24v.72h-.24v.47l-.47.24v.48h-.24v.47h-.24v.48H178v.71c-.32.71-.68.7-.71,1.9-1.1.29-.76.7-1.19,1.66h-.24v.48h-.23v.71l-.48.24v.47l-.47.48v.47h-.24v.48h-.24v.47H174v.48h-.23v.47h-.24v.48h-.24l-.24.95h-.23l-.24.95h-.24v.48h-.24v.47h-.23v.71l-.48.24-.24.71h-.23v.72h-.24l-.24,1h-.24l-.24,1-.47.24L169.25,38l-.47.24v.47h-.24l-.24,1h-.24v.95l-.47.24-.24,1.43h-.24v.47h-.23v.48h-.24v.47h-.24v.48h-.24v.47h-.23v.48h-.24v.47h-.24c-.16.48-.32,1-.47,1.43h-.24v.71h-.24L164,49.21h-.23v1.42h-.24v.48l-.48.24v.47h-.23v.48h-.24V53h-.24l-.24,1h-.23v.95h-.24v.48l-.48.23v.48h-.23v.47h-.24l-.48,1.9-.71.48v.48l-.71.47-.48,1.43-.71.47v.48l-.71.47c-.5.92.59.73-.72,1.19-.27.27,0,.1-.47.24-.27-.71-.49-1.92-.71-2.62V60.38l-.48-.24v-.71h-.24V59h-.23V58h-.24v-.48h-.24v-.47l-.47-.24V56.1l-.72-.48v-.47l-.47-.24-.72-1.19c-1.68-.31-5.21-1.06-7.12-.23v.23l-.95.24v.24h-.48v.24a3.59,3.59,0,0,1-1.42,1c-.18.68-.26.78-1,1-.23.86-.75.95-.95,1.9-.94.23-1.11.82-1.42,1.66h-.48c-.2.72-.56.91-.95,1.43h-.23V62a7.68,7.68,0,0,0-.72,1.66c-1,.28-.31.16-.71.71l-.48.24v.48l-.71.47v1l-.47.24v.48h-.24l.24.71-.95.71L132,69.88l-.95.71-.24,1h-.24v.72h-.23l-.24.95h-.24v.71h-.24v.47h-.23v.72h-.24l.24.71h-.24l-.24,1.43h-.24v1h-.24v.47h-.23v1a20.63,20.63,0,0,0-1,7.13v2.61h.23v1h.24V92h.24v.71h.24v1l.71.47v1l.48.23v.48h.23a3.33,3.33,0,0,1,1,1.42c.75.19,1.09.69,1.67,1,.77.35,1.12.11,1.66.72h1.43c.07-.16.15-.32.23-.48l1-.24,2.38-1.9v-.47l.95-.71v-.48l.47-.24a3.79,3.79,0,0,0,1.19-2.14h1l.24-.95h.48c.08-.23.15-.47.23-.71l1-.71v-.48l.48-.23v-.48H145l.71-1h.47c.14-1,.49-1.09,1-1.66h.23l.48-1.43.71-.47a7.84,7.84,0,0,0,1.9-2.86c1-.27.27-.1.71-.71l.48-.24v-.47h.24v-.48l.71-.47v-.48l.48-.23c.07-.24.15-.48.23-.72h.24V77l.48-.24c.07-.4.15-.79.23-1.19h.24v-.24h.71c-.08,1.19-.15,2.38-.23,3.57h-.24v.47h-.24v1.19h-.24v1.19h-.23c.07.32.15.63.23.95h-.23v2.38h-.24v1.66h-.24l.24,1.42h-.24V91a16.2,16.2,0,0,0-.24,5.22h.24v1.9h.24v.72h.24v.71h.23c.4.47.8,1,1.19,1.43a24.21,24.21,0,0,1,2.85.71,3,3,0,0,1,1-.71c.21-.51.86-1.68.48-2.62l-.48-.24.24-1.18h-.24V94.11c-.08-.23-.16-.47-.23-.71a26.18,26.18,0,0,0,.47-4.27V85.8h.24v-1H160V82h.23v-1h.24V79.62h.24l.24-3.56h.23V74.87h.24V73.68h.24V73h.24V71.78h.23l.72-3.09h.23V68h.24v-.71h.24V66.08h.24V65.6H164l.24-1.42h.24l.24-2.14H165v-.48h.23v-.47l.48-.24.24-1.66h.23l.24-.95h.24c.24-.72.47-1.43.71-2.14h.24v-.48h.24v-.95h.23V54h.24l.24-1h.24v-.48H169l.24-1.42h.24c.16-.48.32-1,.47-1.43h.24v-.47l.72-.48v-.47h.23l.24-1.67c.09-.19.32,0,.48-.71,1.21-.34.47-.55.95-1.42l.47-.24v-.48h.24v-.47l.47-.48v-.47l.48-.24.47-1.43.72-.47V39.7h.23l.24-1h.24l.24-1.66.47-.24.24-1h.24l.47-1.42h.24l.24-1.67c.13-.25.31,0,.47-.71h.48c.16-.71.32-1.42.47-2.14l.48-.24V29l.47-.24.24-1.18,1-.72v-.71h.24v-.47h.24v-.48L183,25V24.5h.24V24h.24c.16-.71.31-1.42.47-2.14h.24v-.47l.48-.24c.08-.32.15-.63.23-1h.24l.48-1.42h.23v-.72h.24l.24-.95h.24v-.71h.23v-.48l.48-.23.48-1.43H188v-.71h.24l.48-1.43H189v-.47h.24V11h.24l.24-.95h.23V9.29h.24V8.82h.24V8.1h.24V7.63h.23c.28-.64.17-1.31.48-1.9h.24a11.23,11.23,0,0,0,.71-3.09Zm-41.58,61.3v2.61c-.54,1.87-1,4.14-1.66,5.94-.38,1.11.3,1.72,0,2.62h-.24v.47h-.24v.71h-.23v.48c-.23.3-.9.26-1.19.48v.23l-.48.24v.48l-.47.23v.48l-.48.24a3.29,3.29,0,0,0-1,1.66c-1.62.44-.47,1.2-.95,1.9V83l-1.19-.24c-.16.65-.32.54-.47,1.19h-.48a1.89,1.89,0,0,1-.47.95h-.24v.47l-.48.24V86l-.47.23v.48l-.48.24v.47h-.23l-.48.71h-.47a4.08,4.08,0,0,1-1.19,1.67l-.48.24c-.16.47-.31,1-.47,1.42l-.71.24-1,1.19h-.71v-.24h-.24V91.26h-.23V88.65s-.2,0-.24-.48V85.56h-.24v-.24a13.36,13.36,0,0,0,.71-1.66h-.23c.08-.47.16-1,.23-1.43h.24V80.81h.24v-1h.24v-1h.23V78.2h.24l.48-2.38h.24c.07-.32.15-.63.23-.95h.24v-1l.48-.24V73h.23v-.48h.24l.48-1.42h.23v-.72h.24l.24-.95h.24v-.71l.71-.47.24-1,.47-.24.24-1,.47-.24v-.47l.48-.24v-.48l.71-.47V63.7l.48-.24V63h.24a3.06,3.06,0,0,0,.71-1.43c.67-.18.58-.29,1-.71h.24l.23-.71.72-.24v-.47h.23V59h.24l.24-.48h.47l.24-.47c.77-.39.61.36,1.19-.48h1.43v.24h.23v.71l.48.24v1.43H150v.71h.23l.24,2.38h.24Z"/><path class="cls-1" d="M75,44c-.7-.24-1.61-1.09-2.84-.76v.24l-1.19,0c-.08.16-.16.32-.25.47h-.47v.23h-.72v.24h-.47v.24l-1.66,0v.24l-1,.22v.24L63.09,46l-.24.47H61.66v.23h-.48v.23H60v.23l-1,.23v.24l-1,0v.24h-.71V48h-.48v.24l-1.19,0v.24h-.48v.24l-2.15.68v.24l-1,.22v.24L50,50.54v.24h-.47l-.25.48L48,51.47v.23h-.48v.23l-1,.23v.24h-.71v.23l-1,.23v.23l-2.39.68-.24.47h-.71v.24l-2.15.68v.24a1.64,1.64,0,0,1-1,.23,2,2,0,0,1,.49-1h.23v-.48h.24c.08-.47.17-.94.26-1.42h.23c.09-.31.17-.63.25-.94h.24v-.71h.24l.25-.94h.24v-.71h.24V49h.24v-.71h.24v-.95h.24c.08-.31.17-.63.25-1h.24v-.71l.48-.24V45h.23c.09-.47.18-.95.26-1.42l.48-.23v-.71h.24c.16-.47.33-.94.49-1.42h.24v-.48h.24V40l.47-.23v-.47h.24v-.48h.23c.29-.54.21-1.37.51-1.9l.72-.46v-1h.24v-.47l.48-.23v-.48h.24c.08-.47.17-.94.26-1.42l.47-.23c.09-.31.17-.63.26-.95l.47-.23v-.47l.48-.23v-.48h.23l.26-.95.47-.23v-.71h.24c.09-.32.17-.63.25-.95h.24v-.72h.24c.16-.48.33-.95.49-1.42h.24v-.47h.24v-.47h.24V24h.24c.16-.48.33-.95.49-1.42l.48-.23v-.48l.48-.23v-.71h.23v-.24h-.24c0-1.6.06-1.32-.92-1.91v-.24H54v-.23l-1,0V18l-1.9,0-.24.47h-.24V19l-.48.23c-.08.4-.17.79-.25,1.18l-.48.24-.25.94-.48.23c-.08.32-.17.63-.25.95h-.24l-.25.94h-.24L47,26h-.23c-.09.24-.17.47-.25.71L46,27v.71h-.24v.48h-.24v.48l-.48.23c-.08.31-.16.63-.25.95l-.48.23c-.08.31-.16.63-.25.94l-.48.23v.48h-.24v.47h-.24v.71h-.23c-.09.31-.17.63-.26.94h-.23v.47h-.24v.48h-.24l-.5,1.42h-.24c-.08.47-.17,1-.25,1.42l-.48.23v.71h-.24V39l-.48.23v1l-.72.46v.71h-.24c-.08.32-.16.63-.25.95h-.24c-.16.71-.33,1.42-.5,2.14h-.24v.48h-.23v.48l-.48.23v.71h-.24V47h-.24v.47H36v.71h-.24v.47h-.24v.48h-.24c-.16.48-.33,1-.49,1.42h-.24c-.09.55-.17,1.1-.26,1.66H34v.48h-.23v.47h-.24v.47h-.24v.71H33c-.17.47-.33.94-.5,1.42H32.3v.48h-.24v.48h-.23c-.25.46-.27,1.49-.51,1.89l-.47.23c-.37.39-.7.94-1.21,1.17l-1.19.22v.24H28v.24h-.72l-.24.47h-.71L26,61.6l-1.19.22-.24.48-1,0-.25.47h-.47l-.25.47h-.47l-.48.47h-.48v.24h-.48l-.24.47h-.72l-.24.48h-.71v.23h-.47v.23H17.9v.23h-.48l-.48.47-1,.22-.25.47H15v.24h-.48l-.24.47-1.43.22v.24H12.4v.24c-.91.33-1.29-.12-1.67.21L10,68.5c0,1.61.41,1.33.68,2.39.65.17.53.33,1.18.49v.47c.52.12.68.16,1,.49l2.38-.2V71.9h.48v-.24h.71v-.24h.71l.24-.47,1.43-.21c.08-.16.16-.32.25-.48h.71v-.23h.48v-.23h.48l.24-.47h.48l.48-.47h.47v-.24h.47v-.24h.48l.24-.47H24v-.24h.48v-.24h.71v-.24h.47v-.24l.71-.22c.28-.27,0-.1.48-.23v.23h.24v.23H26.9v.48h-.24V68l-.48.23V69l-.47.23v.71h-.24v.48h-.24v.48H25v.48H24.7c-.08.39-.17.79-.25,1.18l-.48.23v.48h-.23c-.09.32-.17.63-.25,1h-.24l-.51,2.13-.72.46-.74,2.13H21v.47l-.48.23c-.16.48-.33,1-.49,1.42h-.24c-.09.55-.17,1.1-.26,1.66h-.24v.48h-.24v.47l-.48.23v.71l-.48.24v.71h-.23c-.09.32-.17.64-.26,1h-.23c-.09.47-.18.95-.26,1.42h-.24v.47l-.47.23V89h-.24v.72h-.24c-.08.32-.16.63-.25,1h-.24v.71h-.23v.47H14.9v.71h-.24V93h-.24c-.17.47-.33.94-.5,1.42h-.23v.72h-.24v.48h-.24c-.08.56-.17,1.11-.26,1.66h-.24v.48h-.24v.72h-.24v.71l-.48.24c-.3.5,0,1-.26,1.66H11.2l-.49,1.42h-.24V103h-.23l0,1H10c-.08.31-.16.63-.25.94H9.49c-.09.47-.18,1-.26,1.42H9c-.09.47-.17,1-.26,1.42H8.49v.47H8.25c-.09.47-.17,1-.26,1.42l-.48.23L7,112.42H6.76c-.08.32-.17.63-.25,1H6.27c-.08.55-.17,1.1-.26,1.66H5.77v.48H5.53v.72H5.28v.72H5v.72H4.79l0,1H4.53V119H4.29L4,121.17H3.78c-.08.48-.17,1-.25,1.42H3.29v.48H3c-.09.71-.18,1.43-.26,2.14H2.54v.72H2.29v1H2v.48H1.79V128H1.55l0,1.43a11.74,11.74,0,0,0-1,5c.47.56.94,1.12,1.4,1.69.79,0,1.07.07,1.42.49a4.25,4.25,0,0,0,2.62-.44v-.71c.86-.21.83-.47,1.21-1.17H7.4v-.95l.48-.23c.08-.39.17-.79.25-1.18l.48-.23v-.48h.24v-.95h.24v-.48l.48-.23c.09-.39.17-.79.26-1.18,0-.07.35-.21.48-.47l-.71-.25v-1H9.41v-.24H8.7a18.61,18.61,0,0,1,1.76-6.86c.09-.56.17-1.11.26-1.66H11v-.48h.23l.27-1.66h.23v-.71H12l0-1.19h.24l.49-1.42h.24V112h.23l.27-1.66h.23v-.47h.24c.08-.47.17-.94.26-1.42h.23V108h.24c.08-.55.17-1.1.26-1.66h.24c.08-.32.16-.63.25-1h.24c.08-.47.17-.94.25-1.42h.24v-.47h.24v-.71h.23v-.47h.24c.16-.47.33-.94.49-1.42h.24l.51-2.13h.24c.08-.32.16-.63.25-1h.23c.09-.48.18-1,.26-1.43h.24V96h.23l.27-1.66h.23v-.48h.24v-.48l.47-.23,0-.95h.24l.49-1.41h.24v-.48h.23v-.48h.24v-.48h.24v-.47h.24v-.71H23V87.7h.24V87h.24v-.47h.24c.25-.71.5-1.42.74-2.13h.24c.17-.48.33-1,.5-1.42h.24v-.47h.24c.09-.4.17-.79.26-1.18l.47-.24v-.47h.24v-.71H27c.08-.31.16-.63.25-.94h.23l0-.71h.23v-.47l.48-.23v-.72h.24c.08-.32.16-.64.25-.95h.24v-.71L29.4,75v-.48h.24v-.72h.24c.08-.32.16-.63.25-1h.24c.08-.31.16-.63.25-.94l.48-.23v-.48h.24v-.72l.48-.23v-.47h.23c.09-.32.17-.63.25-1h.24v-.72h.24v-.48l.48-.23v-.47h.24v-.71l.48-.23v-.72h.24v-.48h.24c.09-.32.17-.64.25-.95H35c.09-.39.17-.79.25-1.18l.72-.23.49-.71,1.19-.22V61.3h.71v-.24h.47l.49-.71c.5-.3,1,0,1.66-.21v-.24L42,59.7v-.24l1.42-.22v-.47l.72-.23V58.3c.58-.28,1.34-.16,1.91-.45v-.23h.48v-.23l2.86-.91c.09-.16.17-.32.25-.48l1,0,.24-.47h.72v-.24H52v-.24h.71c.08-.16.16-.32.25-.47h.47V54.4l1.43-.22.25-.47h1v-.24h.48v-.24h.71V53h1l.24-.47H59v-.24l2.14-.45c.09-.15.17-.31.25-.47l2.14-.2V51l1-.23v-.23l1.43-.22c.08-.16.16-.32.25-.47l1.66,0,.24-.47h1v-.23h1v-.24h.48V48.7h.71v-.24l1,0v-.24h.47V48l1.19-.22.24-.47,1.19.25v-.24l1,0a1.74,1.74,0,0,1,.48-.47c0-2,0-1.72-.67-2.86Z"/><path class="cls-1" d="M695.84,96.47h.23l.24,2.85.71.47v.95h.24l.24.72.71.47v.72l2.38,1.66,2.37-.48v-.23l.72-.48c.08-.47.15-1,.23-1.43h-.23l-.24-.71h-.71a3.39,3.39,0,0,1-1.67-1.19c-.31-.45.29-1.77,0-2.85h-.24a3.6,3.6,0,0,1,.48-2.14V92.19h.24l.24-1.66H702v-.72h.24v-1h.24v-1h.24V86.49H703l.24-1.19h.24v-.48h.24v-.95h.23l.24-2.13.71-.48.24-1.9.48-.24v-.71h.23V77.7h.24V77h.24v-.71h.24V75.8h.23v-1H707v-.72l.72-.47c.07-.48.15-1,.23-1.43l.72-.47v-.48h.23l.24-1.66h.24l.24-1h.23v-.48h.24v-.71l.48-.24v-.47h.23v-.72H711l.48-1.42h.23v-.48H712v-.71l.48-.24v-.47h.24v-.48h.23v-.71h.24l.48-1.43h.23l.24-1,.48-.23c.08-.4.15-.8.23-1.19l.48-.24V57h.24v-.48h.23v-.71l.48-.24.24-1,.71-.48.24-1,.47-.23.24-1,.48-.24v-.48h.23v-.47h.24v-.48l.48-.47v-.48l.71-.47v-.72h.24v-.47l.47-.24.24-1,.71-.47.48-.72h.23v-.47c.19-.25.72-.42,1-.71h.48v-.48c.47-.14.2,0,.48-.24h.23c-.16-.79-.31-1.58-.47-2.37h-.24c-.32-.4-.63-.8-1-1.19H721.5v-.24h-1.9c-.32.63-.64,1.27-1,1.9h-.48A8.69,8.69,0,0,1,717,44v.47l-.47.24v.71h-.24a3.3,3.3,0,0,0-.48,1.9c-.76.21-.84.61-1.42.95l-.24,1.67h-.47v.24l-1.43,1.18v.48l-1,.71-.48,1.43-.71.47-1.9,5.23h-.47l-.24,1.19-.48.23v.48h-.24v.71h-.23c-.06.29.46.43.23,1l-.47.24v.48h-.24v.71l-.95.71v.48h-.24c-.08.31-.15.63-.23,1h-.24v1l-.48.24c-.08.39-.15.79-.23,1.18h-.24v.48h-.24v1.19l-.71.47v1l-.48.24v.47h-.23v1.19l-.48.24-.24,1.19-.47.24v.47h-.24v1h-.24v.48h-.24v1.18l-.47.24v.72h-.24v.47h-.24c-.08.4-.15.79-.23,1.19h-.24v.71h-.24l-.24,1.9h-.23v.48h-.24v1.19h-.24v1H697v1.9h-.23l-.24,1.42h-.24v.48h-.24c-.16,1.74-.31,3.48-.47,5.22h.24Z"/><path class="cls-1" d="M643.81,100.38h.44l1.32-1.53H646l1.09-1.32h.44l.44-.44v-.44c.25-.31.54-.13.88-.66h.44v-.44c.82-.1.7-.2,1.1-.65h.22c.07-.22.14-.44.22-.66h.43c.08-.15.15-.3.22-.44h.44c.15-.22.3-.44.44-.66h.44v-.22c.32-.3.3-.11.44-.66.9-.25.23-.16.66-.66h.22v-.22l.88-.22.66-.87h.22l.21-.44h.44a3.94,3.94,0,0,0,.88-1.54,4.58,4.58,0,0,0,2.42-1.54l.22-.44h.44v-.22l.65-.43.44-.66c.58-.42,1.15-.5,1.54-1.1h.44c.17-.6,0-.5.66-.66v-.44h.44v-.44c.66-.18.75-.41.87-1.1,1.05-.29.94-1,2-1.31.2-.72.68-1,1.1-1.54h.22V78l.44-.22c.07-.29.14-.58.22-.88l.44-.22v-.43l.65-.44c.08-.3.15-.59.22-.88l.44-.22c.08-.37.15-.73.22-1.1h.22c.08-.29.15-.58.22-.88h.22v-.66h.22V69.43h.22V67.89h-.22V66.8h-.22c-.07-.3-.15-.59-.22-.88h-.22c-.07-.37-.14-.73-.22-1.1h-.22a3,3,0,0,1-.66-1.32c-1-.27-.74-.69-1.31-1.1h-.44c-.08-.14-.15-.29-.22-.43l-.88-.22v-.22l-1.32-.44v-.22h-.66v-.22l-.87-.22v-.22h-1.1V60h-.66v-.22l-1.76-.22v-.22H658.3s0-.29-.44-.22v.22c-.74.14-1.14-.28-1.54-.22v.22l-3.29.44V60h-.44v.22l-.66.44v-.22h-.22c.15-.73.3-1.46.44-2.2.15-.07.3-.14.44-.22v-.87l.66-.44V56h.22V55.6h.22v-.44l.44-.22v-.88h.22v-.44h.22v-.44L655,53c.07-.29.14-.58.22-.87h.22a4.46,4.46,0,0,0,.65-2h.44a9.34,9.34,0,0,1,.66-1.76h.22v-.87l.66-.44c.07-.3.15-.59.22-.88h.22v-1.1l.44-.22V44.4l.66-.44v-.44l.44-.43v-.44l.44-.22v-.66h.22a4.33,4.33,0,0,0-.22-1.54h-.22c-.06-.24.46-.43.22-.88h-.22c-.55-.55-.95-.17-1.76-.44l-2-.65c-.14.26-.34.3-.44.43v.44l-.65.44c-.08.37-.15.73-.22,1.1l-.44.22c-.08.37-.15.73-.22,1.1h-.22v.44h-.22c-.07.29-.15.58-.22.87h-.22c-.07.37-.15.74-.22,1.1h-.22v.44H653c-.15.73-.29,1.47-.44,2.2l-.44.22c-.07.29-.14.58-.22.87l-.66.44v.88l-.43.22v.44h-.22c-.41.87.26,1-.88,1.32A14.79,14.79,0,0,1,648,54.94l-.66,2h-.22v.44h-.22v.87h-.22l-.21.88h-.22c-.08.37-.15.73-.22,1.1l-.66.44-.44,2-.66.44-.22.66h-.66c-.07.15-.14.29-.22.44h-.44v.22c-.32.3-.29.11-.44.66-1,.22-1.09.75-1.75,1.32v.22h-.44l-1.32,1.53v.66h-.22c-.44,1.36.32,2.17-.66,3.07v1.1h.22l1.32,2c-.29.88-.59,1.75-.88,2.63h-.22c-.07.37-.14.73-.22,1.1l-.44.22c-.14.66-.29,1.32-.44,2l-.43.22v.65h-.22v.44h-.22V83l-.44.22c-.08.44-.15.88-.22,1.32h-.22V85h-.22v.88H635v.65h-.22c-.07.52-.15,1-.22,1.54h-.22c-.07.59-.15,1.17-.22,1.76h-.22v1.31h-.22v.66h-.22v.88h-.22v1.54h-.22a13,13,0,0,0,.22,4.61h.22c.31.89-.23,1.15.44,1.75.17.6.05.5.66.66-.07.37-.15.73-.22,1.1h-.22c.07.51.15,1,.22,1.54h.44c.23.89.58.72,1.32,1.09v.22h.66l.21.44,1.1.22c.38-.43.52-.18.88-.44.15-.22.29-.44.44-.65h.22v-.44l.66-.22,1.1-1.54h.43c.25-.92.74-.79,1.32-1.32Zm-1.76-5.26-.87,1.09-.66.22-.44.66a10.44,10.44,0,0,1-2.2,1.76v-.22h-.22a20.89,20.89,0,0,1,.88-5.93v-.88l.44-.22v-.66h.22V89.63h.22v-.88h.22v-.66h.22v-.66h.22v-.66h.22c.07-.36.14-.73.22-1.09h.22v-.44H641v-.66l.44-.22v-.44h.22v-.44h.21V82.6h.22l.44-1.32h.22c.08-.36.15-.73.22-1.09l.44-.22v-.66h.22c.07-.44.15-.88.22-1.32H644c.07-.29.15-.58.22-.88h.22c.07-.44.15-.87.22-1.31l.44-.22v-.44h.22c.14-.66.29-1.32.44-2H646v-.44h.22v-.88h.22l.21-.87h.22v-.44l.44-.22c.15-.51.3-1,.44-1.54H648v-.44h.22c.07-.51.15-1,.22-1.53l.66-.44c.07-.22.15-.44.22-.66h.44v-.22l1.32-.44v-.22h.65a18.73,18.73,0,0,1,7.91-1.54h2.85v.22l1.54.22v.22h.88v.22h.44l.21.44H666c.43.24.88.64,1.32.88A13.23,13.23,0,0,0,668,67a9.53,9.53,0,0,1-.66,3.74l-.44.22v.44h-.22l-.66,2-1.53,1.32c-.08.29-.15.58-.22.88H664a2.39,2.39,0,0,0-.66,1.09h-.44c-.27,1-1.13,1.14-1.76,1.76l-.87,1.1h-.44c-.15.22-.3.44-.44.66l-.44.22c-.07.22-.15.44-.22.66h-.44l-.66.87h-.44l-.66.88h-.44l-.87,1.1h-.44l-.44.66L653,85.68c-.07.22-.15.43-.22.65h-.44l-.22.44h-.44l-.87,1.1h-.44l-1.54,1.76h-.44c-.07.14-.15.29-.22.44h-.44l-.66,1.31-.87.22-.66.88h-.44l-.88,1.1h-.44c-.07.15-.15.29-.22.44h-.22l-.66,1.1Z"/><path class="cls-1" d="M963,75l.46-.26,0-.72,1.36-1.25,0-.48.92-.76c.13-.48.27-1,.4-1.44l.91-.76c.14-.48.27-1,.41-1.45l.69-.51c.13-.48.27-1,.4-1.45l.47-.26,0-.47h.24l.4-1.45.48,0c.13-.49.27-1,.4-1.45h.24l0-.48.46-.26c.06-.32.13-.64.19-1L972,60c.06-.32.13-.64.19-1l.46-.26c.07-.32.13-.64.19-1l.47-.26,0-.48h.24l0-.47h.23l0-.48h.24l0-.71.69-.51c.07-.32.13-.64.19-1l.69-.51c.14-.48.27-1,.41-1.45l.46-.26,0-.47.23,0,0-.47h.24l0-.71.24,0c.2-.72.4-1.44.61-2.17,1.36-.43.94-1.47,1.54-2.45l.92-.76,0-.47.24,0,0-.47h.23l0-.95h.23c.07-.32.13-.64.19-1l.24,0,0-.47.46-.26,0-1c.19-.52,1-1.14.61-2.17h-.24l0-.47h-.24l-.27-.7-1.2-.18c-.08-.16-.17-.31-.26-.46l-1,0v-.24l-1.66.09c-.49.26-.75,1.53-1.09,2L975,39c-.07.32-.13.64-.19,1l-.47.26,0,.48-.47.26,0,.47-.69.51,0,.48-.91.75,0,.48-.69.51,0,.47-.92.76,0,.48-.69.51,0,.47h-.24c-.38.68.25.41-.67.75a3.84,3.84,0,0,1-.62,1.93l-.69.51c-.14.49-.27,1-.41,1.45l-.46.26c-.06.32-.13.64-.19,1h-.24c-.06.24-.13.49-.2.73l-.46.26q-2.26,4.86-4.52,9.74l-.47,0a3.12,3.12,0,0,0-1-1.62c-.69-.41-4.48-1.5-6-.89l0,.24-.48,0v.24l-.72-.21-.67,1-1.17.29L950,63.74l-.48,0-.66,1-.47.26,0,.47L948,66l-.48,0-.66,1c-.43.35-.35-.09-.69.51l-.48,0a4.28,4.28,0,0,1-1.1,1.72h-.24l0,.48-1.14,1,0,.48-.69.51,0,.47-.69.51,0,.48-.47.26c-.06.32-.12.64-.19,1l-.46.26,0,.47c-.15.09-.3.18-.46.26l0,.48h-.23c-.07.32-.13.64-.19,1l-.47.26,0,.48-.47.26,0,.47-.47.26c0,.48-.11,1-.16,1.44l-.47.26,0,.47h-.24l.05,1-.24,0c-.06.32-.13.64-.19,1h-.24L937,84.36h-.24l0,.71c-.35,1-1.25,4-.67,5.75l.24,0,.1,1.9h.23l0,.71H937l0,.71h.24l0,.71c.39.76,1.19,1,1.53,2.07l.72.2,0,.24.72.2.26.46c.42.26.54,0,1,.43l1.9-.09.22-.49,1.17-.29V97.3l.47,0,1.35-1.73c.91-.74,2-1.21,2.5-2.27l.48,0c.28-1.24,1.21-1.12,1.29-2.68l.48,0,.89-1.23c.66-.72,1.58-1.09,2-2l.71,0c.17,1.74.33,3.48.5,5.21a11.22,11.22,0,0,1,1.07,2.57l.48,0,0,.48,1.48,1.11v.24l1.2.18v.24c.76-.14.57-.11.93-.52l.24,0,0-.47.93-.52a7.27,7.27,0,0,0,.16-1.67c-.48-.12-.21,0-.49-.22-1.15-.63-.6-1-1.07-2.33l-.23,0c0-2.3.09-4.61.13-6.91h.24l-.06-1.19h.24l0-1H961l-.05-1h.24c.11-1,.22-1.91.34-2.87h.23c.07-.32.13-.64.19-1l.24,0,0-.71h.23c.07-.32.13-.64.19-1h.24C962.83,75.64,962.9,75.32,963,75Zm-5.17-3.56-.24,0,.05,1h-.24l0,.71h-.24l0,.71H957l0,.72h-.23l-.18,1.2h-.24c-.07.24-.13.48-.2.72l-.47.26,0,.48-.92.76c-.06.24-.13.48-.2.72l-.47,0c-.21.93-.68.78-.87,1.71-1.16.36-.62.68-1.12,1.48h-.23a2.49,2.49,0,0,0-.66,1.23,3,3,0,0,0-1.8,2l-.48,0,0,.48-1.82,1.75-.22.49-.47,0-.87,1.71-.71,0-.44.74-.47,0c-.3.49-.59,1-.88,1.47l-.48,0,0,.47-.95,0a12,12,0,0,1-.19-3.8h.24l0-1h.24c0-.64.09-1.28.14-1.91h.24l0-.48h.23c.13-.72.25-1.44.37-2.16l.47-.26c.06-.32.12-.64.19-1,.15-.09.3-.18.46-.26l0-.71.24,0,0-.47h.24l0-.48.47-.26,0-.71h.24l0-.48h.24l0-.47h.24l.2-.73.46-.26c.06-.32.13-.64.19-1l.92-.76,0-.47.47-.26,0-.48.92-.76c.06-.24.13-.48.2-.72l.69-.51,1.11-1.48c.59-.65,1.36-1,1.57-2a1.91,1.91,0,0,0,.93-.52v-.24l.7-.27c.06-.24.13-.49.2-.73l.94-.28c.14-.25.29-.49.44-.74l1.88-.33C957.48,66.45,958.08,70.24,957.79,71.44Z"/><path class="cls-1" d="M237.1,64.41l.48-.23.24-.72h.23V63l.72-.48V62l.71-.48v-.47l1.19-1V59.9h.47l.72-1.19h.47v-.47a3.46,3.46,0,0,0,2.14-1,2.85,2.85,0,0,0,.48-2.14c-1.08-.25-2.93-1.83-4.76-1.19v.24h-.47v.24H239v.23l-1,.24v.48a3.92,3.92,0,0,0-2.37,2.37c-1.3.34-.86.83-1.43,1.67l-.47.23v.24l-.48.24v.47l-1.19,1V62l-.47.24v.47h-.24a2.49,2.49,0,0,0-.71,1.19h-.24v.71H230c-.37,1.55-1.23,1.8-1.9,2.85V68l-.48.47v.48h-.24v.47h-.24v.48l-.47.24v.47h-.24v.48h-.24c-.07.24-.15.47-.23.71l-.48.24-.24,1-.95.71c-.08.4-.15.79-.23,1.19l-.48.24v.47h-.24v.48h-.23v.47l-.48.48v.47l-.47.24-.24.71h-.24v.48l-.48.47v.48H221v.47l-.48.24c-.31.87-.63,1.74-.95,2.62h-.24c-.08.23-.15.47-.23.71l-.48.24v.71h-.24v.47h-.23v.48l-.48.24c-.16.47-.32.95-.47,1.42h-.24v.48h-.24v.47h-.24v.48h-.23v.47H216v.72l-.72.47v1H215l-.24,1c-.42.77-.65.35-.71,1.66h-.95v-.23h-.24l-.24-1.67h-.24V91h-.23l-.24-5.71h.24c.08-1.42.15-2.85.23-4.27h.24V79.86h.24V77.72h.24v-1h.23V75.11h.24v-1h.24l.24-1h.23v-.95h.24l-.24-.48h.24v-1h.24l.24-1.9h.23v-.71h.24V67.5h.24v-1H216v-.71h.24v-.47h.23l.48-2.86h.24V61.8h.23v-.71h.24v-.71h.24V59.19h.24v-.72h.23V57.29h.24v-.72h.24V56.1h.24c.23-1.35.47-2.69.71-4a3.86,3.86,0,0,1-.95-1.43,19.31,19.31,0,0,0-4.28-.47c-.24,1.19-.47,2.37-.71,3.56h-.24v.72h-.24c-.05.28.46.42.24,1l-.47.23v.72h-.24v.71h-.24v1h-.24v1.66h-.23v.72h-.24v.47h-.24v.95h-.24v.71h-.23v1.43H211l-.24,1h-.24v1.43h-.23v.47l-.48.24v.71h-.24l-.24,2.14h-.23v.47h-.24v1.43h-.24v.48h-.24v1.42l-.47.24v.71h-.24v.71h-.24v1.43h-.23v1h-.24V80.1l-.24,2.37.24.72h-.24l.24.71h-.24l.24,5.7h.24l-.24.71h.24v.48h.23v.95h.24v.71h.24v1h.24v.71h.23v.48l.48.24.24.71h.47l.48.71h.24c.07.24.15.48.23.72H211v.23l.71.24c-.08,1.19-.34,1.18-.71,1.9v.48h-.24v.71l-.47.24v.47H210l-.24,1.19-.48.24v1l-.47.24-.24.71h-.24c-.31,1-.63,1.9-.95,2.85h-.23v.48l-.48.23v.72h-.24c-.08.31-.15.63-.23,1H206l-.24,1-.47.23v.72l-.48.23c-.16.48-.32,1-.47,1.43h-.24l-.48,1.43h-.24V116l-.71.48v.71l-.47.24-.24,1.19h-.24v.47h-.24v.48l-.47.24v.47h-.24v1l-.47.24-.72,2.14h-.23v.47h-.24v.72h-.24v.47h-.24v1l-.47.24-.24.95h-.24l-.24,1h-.23V129H197v.48h-.24l-.24.95h-.23v.71H196l-.24.95h-.24v.71h-.23v.48h-.24V134h-.24v.48h-.24v1h-.23v.47h-.24v.95h-.24c-.16.48-.32,1-.47,1.43h-.24l-.24,1.42h-.24v.72h-.23v.71h-.24v.71H192v.48h-.24v1.19h-.24v.71h-.23V145H191v1.43h-.24l-.24,1h-.23l-.24,1.66h-.24c-.16,1-.32,2.06-.47,3.09,1,.28.29.07.71.71h.24v.48h.23v.23H191v.24l1.66.24v.24h1.67c.08-.24.15-.48.23-.72l1-.71v-.47l.95-.72.24-1.18.48-.24c.08-.32.16-.64.23-.95h.24v-.48h.24v-.47h.24v-.72l.71-.47.24-1.19.47-.24.48-.95a6.12,6.12,0,0,0-2.14-.23,7,7,0,0,1,.48-2.86h.23v-.71h.24v-.71h.24l.24-1.66h.23l.48-1.43h.24v-1h.23v-.48h.24l.24-1.42h.24v-.48h.23l.72-2.37h.23l.24-.95h.24v-.72h.24v-.47h.23v-.71h.24l.24-.95h.24v-.72h.24c.07-.31.15-.63.23-1h.24v-.47H205v-.71h.24c.07-.32.15-.64.23-1h.24v-1H206v-.47l.71-.48v-1l.48-.23c.08-.32.15-.64.23-1h.24v-.48h.24v-.47h.24v-.48h.23v-.48h.24v-.47h.24v-.48h.24v-.47h.23V116h.24v-.47h.24V115H210v-.47h.24v-.48h.23v-.47h.24v-.48H211v-.47h.24v-.72l.47-.23.48-1.67c.63-1,1.26-2.06,1.9-3.08l.47-1.67L215,105v-.71h.23v-.47h.24l.24-1H216v-.72h.24v-.47l.47-.24V101h.24c.24-.72.47-1.43.71-2.14l.48-.24v-.71h.23v-.48h.24V97h.24l.47-1.43h.24v-.71h.24v-.48H220v-.47l.47-.24.24-1H221v-.48h.23v-.47h.24v-.48h.24v-.47h.24v-.48h.24c.07-.31.15-.63.23-1h.24v-.47l.48-.48v-.47l.71-.48v-.71l.47-.24V86h.24v-.48l.48-.47v-.48l.47-.24V83.9h.24v-.48h.24v-.71h.23l.24-.95h.24v-.48l.47-.23v-.72h.24v-.47l.48-.24.24-1,.47-.24.24-1.18.71-.48v-.71l.48-.24v-.48l.47-.23v-.48l.48-.24L231.4,73l.48-.24v-.47l.47-.24v-.48l.48-.47c.08-.32.16-.64.23-.95h.24l.24-.72.48-.23v-.48l.47-.24V68l.71-.48V67l.48-.24.24-.71h.23V65.6l.95-.71Z"/><path class="cls-1" d="M741.39,70.72V71l3.09-.24.24-.47h.71V70h.71l.24-.47h1.9l.24-.48H750v-.24h.95v-.24l2.61-.23v-.24h.71v-.24l2.38-.24V67.4h.47v-.24h1.67v-.24a5,5,0,0,1,1.9.24,6.5,6.5,0,0,1-.95,1.9v.48l-.48.23v.72l-.47.23v.48h-.24l-.24,1H758v.71h-.23v.48h-.24v.47l-.48.24v.71h-.23v.48h-.24v.47l-.71.48-.24,1.19h-.24l-.24,1h-.23v1l-.72.47c-.08.24-.16.48-.23.71h-.24l.24.72-.72.47-.47,1.43-.48.24-.24,1.18-.47.24v1.19l-.71.47-.24,1-.48.23-.71,2.14h-.24v.48l-.47.23v.48h-.24l-.24,2.61h-.23V94h-.24l-.71,2.14v1.18h-.24v1.19h-.24v.24h.24a4.79,4.79,0,0,0,.47,2.85l.48.24v.71l.47.24V103h.48v.23c.48.28.53,0,1,.48,2.34,0,1.93-.67,3.09-1.66-.08-1.24-1.11-2-.72-3.33h.24V97.57h.24v-.71h.24V95.67H753c.07-.32.15-.63.23-1h.24c.31-.59.19-1.27.48-1.9h.23l.24-.95h.24v-.48h.24v-.71l.47-.24V90h.24l.71-2.14.71-.47v-.72h.24v-.47h.24v-.48h.24c.08-.31.16-.63.23-1l.48-.24.24-1H759v-.47h.23V82.6h.24v-.47h.24v-.71l.47-.24V80.7h.24v-.47h.24v-.72l.47-.23.24-1,.48-.24c.31-1,.63-1.9.95-2.85l.47-.24.24-.71h.24v-.48l.47-.47v-.48h.24v-.47h.24v-.48l.47-.47V71l.48-.24,1.42-4.27,2.62-.24v.24h4v.23h3.09v.24H778v.24l1.67.24v-.24c1.1,0,1.26-.26,1.42-1.19h.24c-.35-.52-.09-.54,0-1.19-.53-.35-.69-1.08-1.19-1.42h-.47v-.24l-.95-.24v-.24H778v-.23l-4.51-.24v-.24a5.8,5.8,0,0,0-3.09.24h-.71v-.24c-.11-.17-.33,0-.24-.47h.24c.08-.24.16-.48.23-.72h.24l.48-1.42h.24v-.71h.23v-.48h.24v-.71h.24l.24-1H772l.24-1.43h.24v-.47h.24c.08-.48.15-1,.23-1.43h.24l.48-1.42h.23l.24-1.67h.24V49.1h.24v-.71h.23v-.48h.24a2.73,2.73,0,0,0-.47-2.13l-.24-.72L772,44.35v-.24c-.47-.13-.54.09-.71.24h-1.19v.24c-.49.51-.2,1.15-.47,1.9h-.24l-.24,1.66H769v.48h-.23v.71h-.24v.95h-.24V51H768v1l-.47.24-.24,1.43h-.24v.47l-.47.24v.47l-.48.24c-.08.48-.16,1-.23,1.43h-.24v.47l-.48.24c-.08.32-.16.63-.23,1h-.24l-.24,1.43-.71.47-.48,1.9c-.44.08-.47.24-.47.24h-2.85v.24l-.48-.24v.24h-.71v.23h-3.57v.24l-1.18.24-.24.48-1.19-.24v.24h-.95v.23h-.48v.24h-2.61v.24l-.95.24v.23h-.24v-.23h-.23v.23h-1.43V65h-.95v.24h-1v.24h-.95v.23l-4.28.72v1.9l2.14,2.37Z"/><path class="cls-1" d="M85.14,57.29V54.91c-.25-.54-3.25-1.95-4-1.19-1,.06-.8.15-1.42.48.08.47.15.95.23,1.42h-.23c.08.24.15.48.23.72h-.23a5.81,5.81,0,0,0,.23,3.09v2.13l.48.24.24.71,1,.24V63h.71v.24l.71.23.48-1.66h.24v-.95H84v-.71h.24V59h.24C84.69,58.38,84.74,57.69,85.14,57.29Z"/><path class="cls-1" d="M725.7,69.68l.23,0,.08.47.51.15c.47.66,0,.88.71,1.33l0,.23.7-.12c.23.44,0,.21.32.43.29.6.15.52.82.58.32.21,0,.1.51.15l.12-.74.23,0-.08-.47.23,0-.2-1.17-.24,0,0-.24.24,0-.29-1.64.24,0-.17-.93.24,0-.09-1.92c.08-.26.31,0,.34-.78.91-.44.39-.56,1-1.14a5.13,5.13,0,0,0-1-2.73L730,61a2,2,0,0,1-.63-.85,7.49,7.49,0,0,1-3-.45,3.1,3.1,0,0,0-1.75,1l.16.93-.23,0,.61,3.52-.24,0c.18.53.35,1.06.52,1.59S725.2,68.82,725.7,69.68Z"/><path class="cls-2" d="M395.38,56.13V55.5l-1.65-1.89-.84-.37a9.53,9.53,0,0,0-6.06.17l-.21.15-.7.14-.2.36h-.54l-.2.4-.67.13v.17l-.73.19-.35.7a2.28,2.28,0,0,1-1.08.57l-.7.16v.41a6.43,6.43,0,0,0-1.52,1,3.66,3.66,0,0,1-1.21.77l-.55.31-.1.36,0,0h-.29l-.36.54h-.25l-.88.88v.19l-.17.25a1.18,1.18,0,0,0-.87.43l-.41.68-1.05.45v.14l-.36.18v.43l-1.1,1.21-1.23,1v.21l-.47,0-.23.71a1.06,1.06,0,0,0-.55.57,1.55,1.55,0,0,0-.76.81,1.15,1.15,0,0,1-.08.15l-1,.71v.25l-.35.18v.55l-.72.63v.3l-.36.31-.35.18v.19h-.18v.7l-.36.17-.26,0,.26,3.11.25.81.11.56.4.2.13.68.9.78v.38l2.45,2.41h.29l.26.4,1.29.43v.42l1.25.2V83h.54v.18h.89v.18h.89v.18h2.14v.18h1.61v.17h2v.18H382v.18h1.43v.18h2l.27,0,0,.13.15.07c-.05.16-.12.36-.23.64l0,.11h-.19v.7l-.36.17-.15.88-.38,0v.7l-.36.17v.4l-.26.2-.1.4-.31.39a4.29,4.29,0,0,0-.71,1.14h-.41l-.16.69a1.76,1.76,0,0,1-.56.9l-.55.27-.2.6-.68.45v.29l-.35.18v.43l-.54.36v.43l-1.43,1.25v.37l-.72.21-.91,1.79h-.36l-.24.5-.81.29v.52l-.54.36v.19l-.21.07-.27.4h-.3l-1.89,2.27-.53.17-1.14,1.31h-.84v.61l-1.3,1.36h-.44l-.43.65-.68.17-.46.61h-.57l-.36.54h-.32l-.4.52a1.51,1.51,0,0,0-1,.1l-.75.81-1,.17v.42l-.53.54,0,.46a1.78,1.78,0,0,0,.55,1.65v.43l.53.18v.43l3.19.64.35-.41c.09-.11.16-.13.53-.17a2.76,2.76,0,0,0,1.24-.38l.43-.5.71-.18.36-.54.78-.19.14-.28.67-.13V112h.1l.61-.06.16-.59c0-.15.09-.2.34-.38a3.71,3.71,0,0,0,.47-.39h.83v-.5l.18,0,.79-1.12.22-.13a2,2,0,0,0,.94-.92,2.78,2.78,0,0,0,.77-.63c.16-.18.2-.22.37-.27l.5-.13.13-.5a1,1,0,0,1,.24-.42l.2-.29,1-.25v-.63l.54-.43H379l1.07-1.43h.59l.18-.66a.42.42,0,0,1,.1-.2,2.31,2.31,0,0,0,.27-.4,1.65,1.65,0,0,0,1-1.13.53.53,0,0,1,.05-.15l.85-.86h.57l.21-.61.28-.35a3.67,3.67,0,0,0,.58-.83H385l.17-.35h.52v-.81l.6-.45.37-1.08.82-.61v-.31l.35-.3.2-.1.36-1.07.52-.26V92l.36-.18v-.43l.54-.36v-.46l.53-.2V90h.18v-.87l.36-.18v-.2h.18v-.65l.1-.24c.09-.2.73-2.47.25-3.63a2.55,2.55,0,0,0-.73-1.75l-.27-.73-2.64-1.62-1.36-.23v-.26h-.89l-.13-.67-1,.49h-2.12v-.18h-.53v-.18h-1.07V79l-2.33-.18v-.25h-.54v-.17h-.53V78.2h-.54V78h-.54v-.18h-.53v-.18h-.36v-.18h-.54V77.3h-.53v-.18h-.89l-1.12-.78a3.78,3.78,0,0,1-.12-.36,2.83,2.83,0,0,0-.5-1,4.4,4.4,0,0,1,.56-1.64l.35-.17.23-.34h.59v-.71l.09-.1a4.57,4.57,0,0,0,.33-.44h.66v-.83l.76-.61.06-.17h.4l.18-.66c.09-.35.62-.81,1.08-1.22a9.48,9.48,0,0,0,1-1h.58l.18-.66c0-.2.07-.21.35-.37a4.42,4.42,0,0,0,.71-.53l1.1-1.34a1.11,1.11,0,0,0,.9-.72,3.44,3.44,0,0,0,.86-.65l.22-.21h.3l.36-.53H384l.18-.36h.43l.54-.71h.53l.54-.71h.46l.24-.48,1.33-.7.92-.25.3-.54,1.49-.35V57.8a1.08,1.08,0,0,1,.36.16v.53l.66.18a.53.53,0,0,1,.24.11v.64h1.59l.9.89.48-1.3A8.26,8.26,0,0,0,395.38,56.13ZM370.77,67.37Z"/><path class="cls-1" d="M115.32,82.47v.24l-.95.24-.24-.72h-.24c.25-.48-.13-1.73.24-2.61h.24v-.47h.23V78h.24l.24-2.14h.24v-.71h.23v-.72h.24V73H116V72h.24v-1h.23v-.48h.24v-.71H117v-.71h.24V68h.24c.07-.63.15-1.27.23-1.9h.24l.24-3.09h-.24V61.56a13.51,13.51,0,0,0-1-1.42l-1.19-.24v-.24h-.47v-.23l-2.62.47c-.32,1.27-1.32,1.84-2.14,2.61-.07.16-.15.32-.23.48l-.72.24v.47h-.23c-.32.4-.64.79-.95,1.19H108l-1.42,1.66-3.09,2.85-.24.72-1.66,1.42V72c-.25.3-.61,0-1,.24s-.28.89-.48,1.18l-.47.24-1.91,2.14h-.47v.47c-.48.15-.21,0-.48.24h-.23c.17-1.61.93-2.2,1.42-3.32.24-1,.48-2.06.71-3.09h.24v-.48l.48-.24L99.64,67h.23v-.71h.24v-.48h.24v-1h.24c.07-.48.15-1,.23-1.43h.24c.12-.45-.18-.34-.24-.47l.24-.71h-.24V62l.24-.24c-.16-.32-.32-.63-.47-.95h-.24v-.47A5.92,5.92,0,0,1,98,59.9c-.74,0-1.76-.11-2.14.24-.63.68-.14,1.78-.47,2.85h-.24l-.24,1.9h-.23v.48h-.24v.71h-.24v.71h-.24v.48H93.7V68h-.24l-.24,1.9-.48.24v.71h-.23l-.24,1H92v.71h-.24c-.07.32-.15.64-.23,1h-.24v.72h-.24l-.24,1h-.23v.71l-.48.24v1h-.24v.71h-.23l-.24,1.19h-.24v.47h-.24v.72h-.23l-.48,1.42H88V82h-.23v.47h-.24V83h-.24v.47H87v.48H86.8v.95h-.23l-.24,1h-.24v.47h-.24v1h-.23l-.48,1.43H84.9c-.08.55-.15,1.11-.23,1.66h-.24c.16.72.32,1.43.47,2.14a2.62,2.62,0,0,1,1.19.71v.24h.48v.24c.52.32.34-.11.71.47h1.9l.95-1.18,1.19-1,.24-.72.71-.47v-.48l.47-.47v-.48H93v-.47l.48-.24.24-1.19.71-.47v-.24h.71v-.24l.48-.24V85.8l.71-.48v-.47h.47a6.24,6.24,0,0,1,1.67-2.14l.47-.24V82h.24l.48-.72h.47a2,2,0,0,1,.48-1h.23v-.47l1.43-1.9h.47l.48-.48V77l.47-.24.24-.71h.24v-.48l1.9-1.66v-.48l.71-.23,1.43-1.67h.24v-.47h.47c.66-.36.09-.79,1.43-.95a29.46,29.46,0,0,1-1.67,5.94c-.08,1.11-.15,2.21-.23,3.32a5.25,5.25,0,0,0-.24,2.38h.24v1.9h.23v.71l1,.72v.47l.72.48c.08.23.16.47.23.71,1.63.35,2,1,4.28,1v-.24h.48l.23-.47H116v-.24h.47l.24-.48a5.32,5.32,0,0,1,1.43-1c.09-.52.23-.45.24-.47V83.66h.23c0-1-.14-.8-.47-1.43Z"/><path class="cls-1" d="M685.24,67.21l.24,0,.15,1.18.23,0,0,.24,2,.46a2.41,2.41,0,0,1,.41-.53l-.12-.94.24,0-.12-.94.23,0c.15-.74.29-1.48.44-2.21l.23,0-.06-.48.24,0,.06-1.44.44-.3-.06-.47.23,0a6.34,6.34,0,0,0-.36-2.83l-.5-.17-.3-.44L686.22,58l0-.24a3.13,3.13,0,0,0-1.15.39c0,.48-.17.5-.17.5l.15,1.18-.24,0,.3,2.35-.23,0c.14.47.27.93.41,1.39l-.44.29c0,1-.05,2.09-.08,3.13C685.23,67.12,684.94,67,685.24,67.21Z"/><path class="cls-1" d="M334.05,73l.71,1.19a6,6,0,0,0,2.85.47,16.1,16.1,0,0,0,0-3.8l-1.19-1.43L335,69.17v-.24h-.72v-.24h-.71v-.24h-1.66v-.23h-.24v.23h-2.61v.24h-.48v.24h-.71v.24h-.95l-.24.47H326v.24h-.72c-.08.16-.15.32-.23.47h-.48v.24l-1,.24-.24.48-1,.23-.47.72-1.43.47-.24.48h-.47c-.24.31-.48.63-.71,1h-.48v.23c-.65.42-.43-.22-.71.72a4.61,4.61,0,0,0-1.9,1.18l-.24.48h-.48c-.63.71-1.26,1.43-1.9,2.14-.48.47-1.06.57-1.42,1.19h-.24l.24-1.19h.24v-.48h.23l.24-1.66h.24v-1h.24v-.71h.23v-.72h.24v-1h.24l.24-2.37h.23v-.48h.24l.24-1.42H315c.08-.32.16-.64.23-1h.24v-1c.39-1.18.74-3.44-.24-4.28v-.24h-.95v-.24c-.26-.12-2.31-.79-2.85-.47v.24H311l-.48,2.85h-.23v1h-.24v1h-.24v.71h-.24v.48h-.24v1.42h-.23v.48h-.24L308.38,73h-.23v.47h-.24l-.24,1.43h-.24v.47h-.23L307,77h-.24v.71h-.24v1h-.23L306,79.86h-.24l-.24,1h-.23l-.24,1.66h-.24V83h-.24c-.08.47-.16,1-.23,1.42h-.24l-.24.95h-.24L303.39,87h-.23v.47h-.24v.71h-.24l-.24,1.43h-.23v.71H302V91h-.24v.71h-.24v1.42h-.23v.72H301v.71h-.24v.48h-.24c-.08.55-.15,1.1-.23,1.66h-.24v1h-.24v.95h-.24v.71h-.23v.48h-.24v.71h-.24v.71h-.24c-.16.87-.31,1.75-.47,2.62h.24v.71l1.42,1.66h.48v.24l.95.24V107a2.56,2.56,0,0,0,1.9-.48c1.38-.83.77-2.78,1.42-4.28h.24l.24-1h.24c.07-.55.15-1.11.23-1.66h.24V99.1H306l.24-1.42.47-.24V97l.48-.48V96h.23v-.48h.24l.48-1.43.47-.23.24-.95.47-.24V92l1-.72v-.47h.23a5.56,5.56,0,0,0,.72-1.9c1.21-.33.89-1,1.42-1.9h.24v-.48l1.19-.71c.08-.24.16-.48.23-.71l1.19-1v-.48l.48-.24,1.42-1.66h.72c.08-.4.15-.79.23-1.19s.6,0,.95-.24V80.1a3.36,3.36,0,0,1,1.67-.95c.08-.24.16-.48.23-.72l1.43-.47c.31-1.16.62-.67,1.43-1.19l.23-.48h.48v-.23h.47l.24-.48.95-.24.24-.47h.47v-.24l1-.24v-.23h.71v-.24h.47v-.24H330c.08-.16.15-.32.23-.47a11.11,11.11,0,0,1,3.09-.48V73Z"/><path class="cls-1" d="M262.53,69.4h-.24l-.24-1.66h-.24v-.47h-.23l-.24-.72h-.48c-.07-.31-.15-.63-.23-1l-.72-.23v-.24h-.47v-.24H259v-.24l-4.75-.24v.24c-1.27,0-2.14.43-2.37,1.43h-.72v.24l-2.37,2.13v.48l-.95.71v.48l-.72.47-.23.48h-.48l-.47.47V72l-.72.47V73l-.47.24-.24,1-.48.23v.48l-.47.24c-.55,1.26-1.11,2.53-1.66,3.8h-.24v.47l-.48.24v.48l-.47.23v.48l-.71.47-.48,1.43h-.24v.48l-.47.47v.48l-.48.23v.72h-.24v.47h-.23v.71h-.24V87.7h-.24v.47h-.24v1h-.23a7.27,7.27,0,0,0,.47,4l.24,1.43.47.24v.71l.72.48c1.2,1.23,2.27,2.67,4,3.32l3.8.24v-.24h.47l.24-.47h1l.24-.48,1-.24c.17-.59.12-.38.47-.71V97.2h.48l.24-.71.71-.24V96l1.19-1v-.48H253a4.31,4.31,0,0,1,1.19-1.66h.24v-.48l.71-.47V91.5l.48-.24v-.47l1.66-1.43.24-1.19h.24V87.7l.47-.24V87l.48-.24v-.48H259V85.8h.24v-1h.24c.16-.48.32-.95.47-1.43l.48-.23v-.48h.24c.08-.63.16-1.27.23-1.9h.24V80.1h.24v-.48h.24v-1h.23V78h.24v-1.9h.24v-1h.24V73.44h.24l-.24-1h.24v-.23h-.24Zm-3.8,5.94h-.24l-.24,1.19H258V78.2h-.23v.47h-.24v.71l-.71.48v.47l-1,.72v.47l-.47.48v.47h-.24l-.24,1.19h-.23v1.43l-.72.23L252.79,87h-.48c-.35,1.59-1.05,1.8-2.14,2.61-.55.79-1.11,1.58-1.66,2.38H248c-.35,1.3-1.74,1.77-2.37,2.85l-1.67.24v-.24c-1-.26-.29-.11-.71-.72H243c-.07-.23-.15-.47-.23-.71a4.7,4.7,0,0,1-.24-2.61l1.19-4.28H244v-.24c.82.07,1.83.52,2.38,0h.24l-.24-.71h.24V83.9h-.24l.48-2.62h.23l.24-1h.24v-.47l.71-.48.24-1.18,1-.72c.16-.47.32-1,.47-1.42l.48-.24v-.48h.24v-.47l.95-.71v-.48h.24v-.47h.23l.24-.72h.48V72c.91-.26.71-.53,1.18-1.19l.95-.71.24-.48h.48l.47-.71h.48v-.24H258l.24-.24a5.16,5.16,0,0,1,.24,2.38s-.35.08-.24.48l.48.23a4.22,4.22,0,0,1-.24,2.14C258.29,74.44,258.83,74.91,258.73,75.34Z"/><path class="cls-1" d="M553.36,58.75c.65.13.9.24,1.19.71.91,0,1,0,1.19-.71h.48c.08-.44.23-.47.23-.47V56.61h.24V55.9h.24c.35-1.09-.15-2.49-.24-3.33-.69-.33-2.23-1.42-2.85-1a5,5,0,0,0-1.9.24c.24,1.74.47,3.49.71,5.23A9.86,9.86,0,0,1,553.36,58.75Z"/><path class="cls-1" d="M295.32,68.93h-.24c0-.34.2.1.24-.24l-.24-1.19c-.94,0-1.49,0-1.9-.47H290.8v.24c-.9.64-.7.65-1.19,1.66h-.23v.95h-.24l-.24,1h-.24c-.15.71-.31,1.43-.47,2.14l-.48.24c-.08.39-.16.79-.23,1.18l-.72.48a6.62,6.62,0,0,0-.71,2.61h-.48c-.07.16-.15.32-.23.48h-.24v.47l-.48.24v.48h-.23c-.48.82-.62,1.41-1.43,1.9v.71c-1.18.31-.65.64-1.19,1.43l-.47.23c-.32.48-.64,1-.95,1.43h-.48A4.5,4.5,0,0,1,278.45,87l-.48.23v.48l-1,.71v.48h-.24a1.93,1.93,0,0,0-.47,1h-.48l-1.18,1.66h-.72v-.24c-1.1-1.15-.25-4.88,0-6.17l.95-5h.24v-.48h.24l.24-1.42h.23v-.48h.24V77h.24l.24-1.19.47-.24v-.71l.48-.24c.08-.32.15-.63.23-.95l.48-.24V73h.24v-.48c.65-1,1.59-1.38,1.9-2.85.26-.27.1,0,.24-.47A3.16,3.16,0,0,1,279.4,68c-1.29-.07-2-.67-3.09-.24l-.48-.24v.24h-.47V68l-.71.24c-.43,1.49-1.74,1.65-1.91,3.56h-.47l-.24.71h-.24V73h-.23v.71l-.48.24c-.16.47-.32,1-.47,1.42h-.24l-.24,1.43h-.24v.71h-.23v.72h-.24v.71h-.24l-.24,1.9h-.23l-.48,4.51a5.41,5.41,0,0,0-.48,1.9H268l-.24,1.91H268v.71h.24l-.24.47h.24l.24,1.67h.24v.47l.47.24v.47l.48.24v.48l.47.23c.32.4.63.8.95,1.19.91.6,1.91.17,2.61,1.19,1.13,0,1.63.35,2.62,0v-.24H277l.48-.71H278c.56-.63,1.11-1.27,1.66-1.9h.48A11.37,11.37,0,0,0,281.54,91H282c.28-.17.29-.92.48-1.19l.71-.48v-.71c.05-.09.34-.2.47-.48h.48c.18-.64.06-.54.71-.71l.24.71h.24c.08.4.16.8.23,1.19l1,.72v.47h.23l.48.71h.47v.24c.65.31.7-.06,1.19.48a3.14,3.14,0,0,0,1.19-.24V90.08h-.24V89.6h-.24v-.95h-.23c.08-1,.15-1.9.23-2.85h.24v-.71h.24l.24-3.33h.23v-.71h.24v-.72H291l.24-1.66h.23V78.2h.24v-1l.48-.24v-.72l.47-.23.48-1.43.71-.47v-.72h.24l.24-1h.23v-.71h.24l.24-1h.24v-1h.23v-.24h-.23Z"/><path class="cls-1" d="M469.25,76.16v.24l1.19.24v.24a3.74,3.74,0,0,0,1.66-.24l.24-.48,1-.24.24-.47H474l.24-.48,2.14-.71v.24h.24c-.17,1.29-.57,1.1-.95,1.9v.71l-.48.24v.71H475c-.08.32-.15.64-.23,1h-.24l-.24,1.43H474v.47h-.23l-.24,1.43h-.24v.48h-.24v1h-.23l-.48,1.42h-.24v1.19h-.24v.71h-.23v.71h-.24v.72h-.24V89h-.24c-.07.64-.15,1.27-.23,1.9h-.24v1h-.24v.72H470v1.18h-.23v.72h-.24v1.9h-.24v.71H469v2.38c-.2,1.1-.41,5.69.72,6.65v1.43l.71.47.24.71,1.9,1.43h.71l.24.47.71.24v.24l1.19.24v.23a2,2,0,0,0,2.14-1.42c.26-.27.1,0,.23-.48a17.56,17.56,0,0,1-1.66-1h-.47v-.23L475,108c-.08-.32-.15-.63-.23-1h-.24v-1.43h-.24a22.65,22.65,0,0,1,.24-5.94V97.55h.24c.08-.64.15-1.27.23-1.9h.24v-.48h.24v-1h.24v-.71h.23l.72-3.33h.23l.48-2.61h.24v-.48h.23l.24-1.42h.24l.24-1h.24V84H479v-.47h.24v-.71h.24V82.1h.24v-.71h.23l.24-1.43h.24v-.47h.24c.08-.4.15-.79.23-1.19h.24l.48-2.14h.23v-.47l.48-.24.24-1.19h.23v-.47H483l.24-1h.24v-1l.71-.48.24-.71c.35-.14.82-.1,1.19-.24v-.24h.47V70h.95v-.23h.48v-.24h1.66v-.24h.47V69h1V68.8h1.42v-.24h.71v-.24h.48v-.24h1.42v-.23h1.19v-.24h1.43v-.24h1.9l.24-.47.71-.24v-.24h.95v-.24h.24c0-1.43-.32-2.12-1.43-2.37a6.37,6.37,0,0,0-3.32-.24.64.64,0,0,1-.72.24v-.24H494.2v.24l-.71-.24v.24h-.72V64h-1.18v.24h-.95v.24l-1.91.24V65a4.11,4.11,0,0,1-1.66.23c.16-1.26.78-1.49,1.19-2.37v-.72l.47-.23v-.72l.48-.23v-.48h.24V60h.23v-.72h.24v-.47h.24l.24-1h.24c.07-.32.15-.64.23-.95h.24V56.2c0-.05.35-.22.48-.47h.71l.24-.95H493l.24-1.19-.48-.24c-.08-.39-.15-.79-.23-1.19l-1.67-.23v-.24c-.32,0-.39.4-.95.24v-.24a2.94,2.94,0,0,0-2.61.24c-1.13.33-.57.69-.95,1.66h-.24v.95l-.71.48v.47h-.24V56h-.24v.71h-.23v.71h-.24v.48h-.24v.47l-.48.24v.71l-.47.24V60H483v.47h-.24V61h-.23v.47h-.24v.48l-.48.47v.48l-.47.23v.48l-.48.24v.47h-.23V65l-.48.23V66c-.26.57-.64.75-.71,1.66a4.68,4.68,0,0,0-1.9.71v.24h-1.19v.24l-.95.23v.24H475l-.23.48h-1V70l-.95.24v.24h-.72c-.16.24-.31.48-.47.71h-.72v.24h-.47l-.24.48h-.95v.23h-.47l-.24.48h-.71v.24l-.72.47c.19.81.55,1.09.72,1.9A3.49,3.49,0,0,1,469.25,76.16Z"/><path class="cls-1" d="M777.94,73.26a12.94,12.94,0,0,1-.42,3.85l.12,1.42-.24,0,.09,1.18-.23,0,.13,1.66-.24,0a14.22,14.22,0,0,0,.61,4.72c.17,1.1.34,2.2.5,3.29h.24l.58,1.38a1.27,1.27,0,0,0-.39,1l-.48,0-.85,1.26-.24,0,.06.71-.69.29c-.27.27-.22.94-.38,1.23h-.24l-.42.75-.47,0a3.06,3.06,0,0,1-.82,1.73l-.47,0-.44.51,0,.47-.46.28-.63,1-.48,0-.2.49-1.1,1c-.06.33-.11.65-.17,1l-.23,0a3.32,3.32,0,0,0-.84,1.49l-.47,0c-.24,1.34-1.53,2.81-2.33,3.76l-.67.53-.36,1.46-.47,0a2.79,2.79,0,0,1-.62,1.24l-.24,0-.36,1.46-.45.27,0,.47-.23,0c-.06.25-.12.49-.19.73-.9.34-.3.09-.65.77l-.24,0,0,.47-.24,0,0,.47-.67.53,0,.48-.46.27,0,.47-1.11,1,0,.47-.46.27,0,.48a7.15,7.15,0,0,0-1,2.7c-1.31.45-1.24,2-1.65,3.23h-.24l.06.71L756,127l.06.71-.67.53,0,.71-.23,0,0,.47-.23,0,0,.48-.45.27,0,.47-.46.28.06.71-.24,0,.06.71c-.11.27-.32,0-.42.75l-.47,0c-.24,1-.49,2-.73,2.92l-.45.27,0,.72h-.23c-.27.58.12.33-.42.75a3.75,3.75,0,0,0,2.89,3.35l0,.24,1.65-.14c.13-.6.1-.39.42-.74l0-.24.48,0,.18-.73,1.11-1,.12-1.44.24,0c.05-.32.11-.64.16-1l.24,0c0-.56.07-1.12.1-1.68l.24,0c.05-.32.11-.64.16-1l.46-.28,0-.47.23,0,0-.47.23,0,0-.71.45-.28,0-.47.23,0,.15-1.2.45-.28-.06-.71.46-.27,0-.48.46-.27c0-.32.1-.64.16-1l.45-.27.18-.73.24,0-.05-.71.67-.53c0-.32.11-.64.16-1l.46-.27,0-.47.45-.28,0-.47.45-.28,0-.47.46-.27.36-1.46.24,0a2.5,2.5,0,0,0,.61-1.24l.48,0a6.76,6.76,0,0,1,.78-2.21l.89-.78c0-.4.09-.8.14-1.2l.67-.53,0-.48.45-.27,0-.24.46-.27-.06-.71.69-.3a2.26,2.26,0,0,0,.38-1.22l.48,0c.19-1.06,1-1.63,1.47-2.5l.47,0a2.56,2.56,0,0,1,.62-1.24l.23,0,0-.48,1.11-1,0-.47,2.2-2.32,0-.47.24,0a1.9,1.9,0,0,0,.4-1l.71-.05a7.3,7.3,0,0,1,1.27-2l.45-.28,0-.47.45-.27,0-.48.7-.29a14,14,0,0,0,.83-1.5l.48,0c.19-1,.64-1,1.3-1.54.22-.33.43-.67.64-1l.45-.28c.24-.55-.26-1.06.13-1.44l.93-.31.18-.73.24,0a2.5,2.5,0,0,0,.61-1.24c.58-.2.38-.14.68-.53h.23l0-.48.24,0,0-.71.69-.29.18-.73,2.63-2.83,0-.47.67-.53,0-.48.68-.53.18-.73.71,0,0-.24.45-.27,0-.48.45-.27,0-.48H796l0-.24c.51-.51.46.22.66-.77l.47,0,0-.23,1.55-1.55,0-.48.44-.51.47,0,.42-.75.45-.27.18-.73,1.17-.33,0-.24.45-.27,0-.47.67-.53,0-.24.47,0c.3-.28.64-1.35,1.06-1.75l-.13-1.66-.5-.2c-1.06-.94-2-1.11-4.12-.86L798,67.39l0,.47-1.55,1.56-.42.74c-.86.72-1.32.39-1.52,1.79a2.54,2.54,0,0,0-1.13.81l0,.23-.48,0-1.51,2c-.6.52-.92.34-1.09,1.27l-.47,0c-.11.66-.28.56-.38,1.22-1,.36-1.06,1-1.53,1.79l-.45.28,0,.47-.46.28c-.67.82-2,2.11-2.12,3.26-.59.2-.38.16-.68.53l-.23,0,0,.47-.23,0-.42.75-.71.06a20.93,20.93,0,0,1,.46-6.24l-.08-.94.24,0c0-.32.11-.65.16-1l.24,0-.11-1.42,0-.24h.23a2.38,2.38,0,0,0-.62-1.86C782.29,72.57,779.69,72.74,777.94,73.26Z"/><path class="cls-1" d="M446,73.24l.24-.95.47-.23c.55-.59,1.69-1.59,1.9-2.38,1-.28.82-.75,1.43-1.19h.47l.24-.47H451l.24-.48h.47c.24-.31.48-.63.71-1,.79-.55,1.63-.58,2.14-1.42a21.68,21.68,0,0,1,4,.71,3.46,3.46,0,0,1,.71-1.19c-.18-1.52-1.11-2.08-1.42-3.33l-4.75-.71v.24l-1.43.24v.23h-.47l-.24.48-1.19.24v.47a3,3,0,0,0-1.43.72v.23c-1.06.74-1.91.69-2.61,1.9h-.47v.48a1.81,1.81,0,0,0-.95.47v.24l-.72.24v.47l-.47.48h-.48L440,70.63v.48l-.48.23v.48l-.71.47v.48l-.47.24v.47h-.24l-.24,1h-.24c-.08.48-.16.95-.23,1.43h-.24c-.44,1.35.16,3.16.24,4.27a10.07,10.07,0,0,1,1.18,1.43V82l.48.23.24.72.71.47.24.48h.47l.48.71h.71v.24h.47l.48.71c.71.45,1.69.2,2.61.47v.24l7.37-.47v.71c-.31.25-.25.42-.48.71h-.23v.48l-.95.71v.48l-.48.23-.71,1h-.48c-.16.32-.31.64-.47,1h-.48c-.34,1.53-1.55,1.82-2.61,2.62l-1.43,2.14h-.47v.47a4.69,4.69,0,0,0-1.9,1.43l-.24.47h-.48c-.31.4-.63.79-.95,1.19h-.23l-.24.71-.95.24-1.19,1.43h-.47l-.48.71h-.48c-.07.16-.15.32-.23.47l-.72.24v.48h-.23l-.24.47c-.79.58-1.34.28-1.66,1.43l-.95.24v.47a3.36,3.36,0,0,0-1.67,1l-.24.48h-.71l-.24.47h-.71l-1.66,1.19c0,1-.1,1.22.71,1.43l.24.95c1.65.35,2.21,1.07,4,.71V112a5.21,5.21,0,0,0,1.9-.71l.24-.47h.47l.24-.48h.47l.24-.47h.48l.71-1,.71-.23.24-.48h.48c.55-.63,1.1-1.27,1.66-1.9h.47l.24-.47h.48l1.42-1.67.95-.23,1-1.19H445l1.42-1.67h.24v-.47c1.15-.27,1.13-.93,2.14-1.19.34-1.23,2-2.25,2.85-3.09.56-.63,1.11-1.27,1.66-1.9l.72-.47v-.48l.71-.47.24-1,.95-.71v-.47l1.42-1.19v-.48l.48-.23c.47-1.35.95-2.7,1.42-4H459c-.35-1.2-.29-1.7-1.19-2.38v-.24h-1V82h-.71V81.8a24.11,24.11,0,0,0-5.94-.24v.24l-4.76.24V81.8a8.71,8.71,0,0,0-1.9-.71c-.08-.32-.16-.64-.23-1h-.24c-.68-1.95,1.28-5.31,1.9-6.17Z"/><path class="cls-1" d="M873.84,87.47a3.86,3.86,0,0,0,1.9-1.18l.24-.48h.47l.48-.71,1-.24c.08-.16.15-.32.23-.47a7.55,7.55,0,0,0,2.62-2.14h.71a7.17,7.17,0,0,1-.71,2.61l-.24,2.61h-.24v2.62h.24v1.19h.24v1H881c.15.47.31,1,.47,1.42h.24v.48l.47.23a4.74,4.74,0,0,1,1.19,1.91l.71.23v.24h.48V97l3.33.24V97h.47v-.24H889V96.5h.72v-.23h.47V96h.48v-.24a1.94,1.94,0,0,1,.95-.48v-.47a6.94,6.94,0,0,0,3.09-1.9c.15-.24.31-.48.47-.71l1.43-.48.23-.47h.48l.24-.48h.47l.24-.47.71-.24v-.48c.16-.2.47-.17.72-.47s0,0,.23-.24l-1-.24c0-.86,0-1.09-.47-1.42V87l-.72.24v.47h-.47l-.24.48h-1.66v.23H893.8v.24l-.95.24v.24h-.72c-.16.23-.31.47-.47.71l-1.19.24c-.24.31-.48.63-.71,1h-.48a3.66,3.66,0,0,0-1.19,1.19H886a13.65,13.65,0,0,1,1.91-9c.07-.32.15-.64.23-1l.95-.72.24-1,.48-.23c.08-.24.15-.48.23-.72h.24v-.71l.71-.47.24-1h.24V77l.47-.24c.56-.84.53-1.36,1.43-1.9L893.08,72l-.71-.24v-.24c-.94-.35-1.45.19-2.14-.47a4.08,4.08,0,0,0-3.32,1.42l-.24.48h-.48l-.24.48h-.47l-.48.71-1,.24-.47,1.18c-.67.49-.76-.31-1.43,0-.31.4-.63.8-.95,1.19h-.71V77H880v.24h-.47l-.24.47h-.71l-.48.72c-.73.51-1.43.65-1.9,1.42h-.47v.48c-1.81.21-2,1.73-3.57,2.13-.08.4-.15.8-.23,1.19s-.56,0-1,.24v.24h-.48v.24c-.8.45-1.39.67-1.66,1.66l-1.67.24a22.1,22.1,0,0,1,1.91-4.52c.07-.47.15-1,.23-1.42h.24v-.48h.24l.24-1.66h.23v-.95h.24V76.07c0-.08.33-.06.24-.48h-.24l.24-2.13h-.24L870.27,72c-.78-.23-.47-.27-.95-.71v-.24l-4.51-.71v.23l-.95.24-.48.71c-.46.25-.85-.06-1.19.24-.15.32-.31.64-.47.95h-.48V73h-.71v.24h-.71v.24h-.48v.23h-.47L857,75.12v.47c-.17.21-.49.2-.72.48h-.47l-.24,1h-.71c-.38,1.42-1.17.78-2.14,1.43v.23l-1.19.95v.72c-1.71.1-.68.51-1.42,1h-1l-1.67,1.9H847a4.29,4.29,0,0,1,.47-1.9h.24l.24-1.67h.24c.15-.47.31-.95.47-1.42h.24l.24-1.43h.23l.24-1.19h.24v-.47h.24c.08-.32.16-.64.23-1h.24l.24-1.43H851v-.47h.24c.15-.72.31-1.43.47-2.14H852v-.48h.24c.07-.47.15-1,.23-1.42h.24v-.48l.48-.23V67a5,5,0,0,0,.71-2.38,3.74,3.74,0,0,1-1-1.42L851.5,63v-.24a.69.69,0,0,0-.71.24l-1.66-.24a1.94,1.94,0,0,1-.48,1h-.24c-.08.4-.15.8-.23,1.19h-.24v1.43l-.71.47v1.67H847l-.24,1h-.24v1h-.23v.71H846v.71h-.24v.71h-.24v.72h-.23l-.24,1h-.24c-.2.39,0,1.31-.24,1.66h-.24c-.27.4-.14.33-.71.48-.16.79-.31,1.58-.47,2.37H843v.48h-.24l-.24.71H842l-.48,2.85-.71.48v.47h-.24v.48h-.23v.71l-.48.24v.71h-.24v.48h-.23L839.15,88h-.24v.47h-.24l-.24,1.19h-.23L838,91.28l-.48.23V92h-.23v.47H837v.72h-.24l-.24.95h-.23l-.72,2.14h-.23l-.48,2.13h-.24v.48h-.23v.71h-.24v.48h-.24v.47l-.47.24v1.43a10,10,0,0,0,.95,1.42h.47c.22.18.18.49.48.71a8.79,8.79,0,0,0,1.66.72v-.24h.71v-.24l.71-.47v-.48l.72-.47.24-1,.47-.24v-.48l.48-.47v-.48h.23v-.47h.24v-.48l.71-.47v-.48h.24v-.47l.48-.24c.08-.32.15-.64.23-1l.48-.24v-.47l.47-.24v-.48l1.19-1v-.47l.95-.72v-.47l1.19-1v-.48l.48-.23V90.8l.71-.47v-.48h.24c.15-.24.31-.48.47-.71h.48a4.74,4.74,0,0,1,1.42-1.9L851,87v-.48l.71-.47v-.24c.56-.52.66,0,1-1h.48c.31-.4.63-.79,1-1.19h.47v-.24l.48-.23v-.48c.47-.14.2,0,.47-.24.65-.18.54,0,.71-.71a4.74,4.74,0,0,0,1.91-1.19l.23-.47h.48l.47-.71h.48l.47-.72h.48l.24-.47,1-.24c.16-.24.31-.48.47-.71l1-.24.24-.48.71-.23v.23h.24a8.72,8.72,0,0,1-1.42,3.81v.47h-.24v.48h-.24L862,83.91l-.48.24c-.16.79-.31,1.58-.47,2.37h-.24V87l-.48.24v.47h-.23l-.24,1.66h-.24v.72h-.24v.47h-.23v1h-.24V92h-.24l-1,4h.24v.47h.24V97h.23v.47h.24c.22.33.16.42.24,1h.47l.72.95h.71v.24h1s2.54-2,2.61-2.14V97l.48-.24L866,95.31h.47l.24-.71,1.19-.95c.08-.24.16-.47.23-.71.39-.32.26.25.72-.48h.47V92l.72-.48V91l.47-.48H871l.71-1c.71-.51,1.16-.44,1.42-1.42C873.77,88,873.67,88.13,873.84,87.47Z"/><path class="cls-1" d="M72.07,77.48c-.08-.31-.16-.63-.23-1l-2.38-.71a2.49,2.49,0,0,0-2.14.71h-.24c-.08.56-.15,1.11-.23,1.67h-.24l-.24,1.18-.47.24v.48h-.24v.47h-.24v.71h-.24v.48H65v.71l-.72.48-.24.71h-.23v.71h-.24v.48h-.24v.71H63c-.07.32-.15.63-.23,1h-.24V87l-.48.23v.48h-.23l-.24,1h-.24l-.24,1.43h-.23v.71h-.24l-.24.95h-.24v.47l-.47.24v.71h-.24c-.24,1.35-.47,2.7-.71,4H59a1.7,1.7,0,0,0,1.42,1.9v.48l1.43.24v.23a4.79,4.79,0,0,0,1.9-.23c.08-.32.16-.64.23-.95h.24V95.78h.24V95.3h.24v-.71H65v-.48h.23l.48-1.42h.24V91.5l.47-.24v-.47h.24v-.71h.24V89.6h.23v-.47l.48-.24v-.48h.24l.47-1.9L69,86l.48-1.43h.24v-.47h.23v-.48h.24v-.47h.24v-.48h.24V82l.47-.24.24-1.43h.24l.24-1h.23V78c0-.06.33-.07.24-.48Z"/><path class="cls-1" d="M597.22,87.4v.71h.24v2.38h.24V91h.24c.07.47.15,1,.23,1.42l.72.48c.07.39.15.79.23,1.18h.24a2,2,0,0,1,.48,1,3.51,3.51,0,0,1,1.42,1v.23h.48v.24l1.42.48v.23h1v.24l2.14-.24v-.23l1-.24.48-.71h.47l.24-.48h.47l.48-.71a9.34,9.34,0,0,0,2.38-2.62h.47l.24-1,1-.23v-.48h.24l1.18-1.43v-.23h.72V90h.24v.48H616l.24,1.19h.24v.47l.47.24v.48l1.19,1.42h.71l.24.48c.41.36.88.47,1.19,1l2.85.47V96h.71v-.24h.48v-.24H625v-.24l.71-.47v-.48l-1.9-.71h-1.18c-.45-.17-1-.72-1.43-1L621,91.44l-.47-.24V89.78h-.24c-.49-1.74.47-6.94,1-7.84l.48-.24v-.48h.23l.24-1h.24c.16-.79.31-1.58.47-2.37l.48-.24v-.48h.24c.08-.31.15-.63.23-1h.24V75.05h.24a2.39,2.39,0,0,0-.48-1.9c-.65-1-1-.28-1.9-.72a1.79,1.79,0,0,0-.47-.47l-.24-.72h.24V69.11h-.24c0-.34.23.09.24-.24l-.24-1.43-.48-.23c-.07-.48-.15-1-.23-1.43h-.24l-.48-.71c-1.46-.29-3.7-1.67-5.22-1.19v.24h-1l-.24.47h-.71l-.24.48H612l-.23.47h-.48L611,66h-.47l-1.43,1.66h-.47l-.48.95h-.47c-.32.4-.64.79-.95,1.19h-.48c-.24.39-.47.79-.71,1.19h-.48l-.23.47-1.19,1-.24.95-.48.24a3.87,3.87,0,0,0-1.18,2.14L601,76v.47l-.71.48c-.16.55-.32,1.11-.47,1.66h-.24l-.24,1h-.24v.71h-.23v.48h-.24v.71h-.24l-.24,1h-.23V83.6h-.24l-.24,2.85h-.24c-.14.56.27.64.24,1Zm5.47.24h.23V86h.24v-.72h.24l.24-1h.24V83.12h.23l.24-1h.24v-.71h.24V81h.23v-.48l.48-.24.24-1,.47-.23v-.48l.71-.48v-.47h.24v-.48l.48-.23c.31-.48.63-1,1-1.43h.47c.17-.65.32-.54.48-1.19a4.66,4.66,0,0,0,2.14-1.9h.47c.26-1,.72-.92,1.43-1.42l.47-.72h.48c.08-.15.16-.31.23-.47.3-.28.69-.4,1-.71a2.58,2.58,0,0,1,1,.23c-.24,3.17-1.33,5.75-2.14,8.32l-.24,2.85h.24a4.7,4.7,0,0,1-1.67,2.61l-.47.24-.24.71-.71.48V85h-.24v.47l-.71.48v.23h-.48v.24l-.71.48v.47l-1,.71v.48h-.48v.24L606,90.49V91l-.47.47h-.48v.24c-.29.23-.46.17-.71.47h-1v-.23A6.89,6.89,0,0,1,602.69,87.64Z"/><path class="cls-1" d="M985.84,97.37l.48,0,0-.24,1,0v-.23a4.43,4.43,0,0,1,1.88-.57l.2-.72c.6,0,.65.18,1,.19l.21-.49,1.42-.31,0-.23.48,0v-.23l.47,0,.22-.48.47,0v-.24l.47,0V93.4l.71,0v-.24l.94-.28v-.24l.95,0,.21-.48,1,0v-.24l.95,0,.21-.49,1.89-.33,0-.47c.88-.29,1.18-.9,1.84-1.28.47-.28,1.07,0,1.65-.32a2.12,2.12,0,0,1,.45-.5,3.64,3.64,0,0,0-.58-2.11l-1.43.07,0,.23-.48,0v.23c-.71.24-1.58-.66-2.37.12-.64.21-.54.08-.68.75l-1.66.08v-.24h-.24v.24l-1.18.06v.24l-.71,0v.24l-.48,0,0,.24-1.19.06v.24l-.47,0v.24l-1.19,0v.24l-.47,0v.24l-1.19.06V90l-.71,0v.24l-.71,0v.23l-.71,0v.23l-.47,0v.24l-2.11.57v.24l-.94.29v.23l-.94,0v.24l-.48,0V93l-1.42.07v.24l-1.19,0,0,.24a3.07,3.07,0,0,1-2.4-.36c-1.16-.26-.28-.21-.76-.91h-.24a1.86,1.86,0,0,1-.52-.93l-.47,0c-.11-.48-.26-.46-.26-.46l-.06-1.19H976l-.08-1.66h-.24c0-.87.08-1.75.11-2.62H976l0-.48h.23l0-1h.23c.14-.48.27-1,.41-1.45H977l0-.71h.24l0-.48h.24l0-.47.24,0,0-.47h.24l0-.71c.18-.47.65-1,.87-1.47l.95,0c.18.31.35.62.52.93l.48,0,.76.92.47,0,.51.69,1.2.18v.24l.48,0v.24a14,14,0,0,0,3.56-.17v-.24c.56-.42.43-.42,1.4-.55.06-.24.13-.48.2-.72,1.37-.43,2.34-1.64,3.45-2.31l0-.71c1.16-.14,1-.53,1.86-.81a3.4,3.4,0,0,1,.87-1.71l.46-.26,0-.47h.24l0-.48h.24l0-.71h.23l0-.71.24,0-.05-.94.24,0L996.82,69h.23v-.24h-.24c-.28-.86,0-1.6-.57-2.11-.41-1.27-3.09-2.28-4.42-2.64l-1.18.06a6.88,6.88,0,0,0-3.1-.09v.24l-.47,0v.23l-1.19.06v.24l-.93.28v.24l-1.41.31v.23l-.48,0-.21.48-.48,0-.21.48-.71,0-.44.73-1.18.3-.44.73a11.47,11.47,0,0,0-3.62,3.75l-.47,0c-.24,1-.71.85-1.12,1.49l0,.47-.68.51c-.14.56-.27,1.12-.4,1.69h-.23l0,.47-.46.26-.18,1.2h-.24c-.14.48-.27,1-.4,1.45h-.24l0,1h-.23c-.07.32-.13.64-.19,1h-.24c0,.56-.1,1.12-.16,1.68h-.23l0,.71h-.24l0,.71-.24,0c.12.86.25,1.73.37,2.6h-.24c.11.71.23,1.41.34,2.12h.24l0,.47H971l0,.71h.23l0,1h.24l.28.94h.24l0,.47.74.44.28.94.74.44v.24l.47,0,1.26,1.37,3.89,1.71,4-.2V98l2.36-.35Zm-2.65-24.85.48,0v-.24c.63-.45.43.21.67-.74.8-.26.59-.54,1.39-.79l0-.47,2.34-.83,0-.24.48,0v-.24l.71,0v-.24c.88-.4,1.95-.5,2.81-.85a1,1,0,0,0,.5.45c-.11,2-1.23,2.92-1.93,4.38l-.47,0a2.87,2.87,0,0,1-.66,1.22h-.23l0,.72H989l0,.23-.23.25-1.42.07v.24l-.48,0,0,.24-.48,0v.24L986,76v.23c-1,.63-1.57.46-2.84.38-.26-.55-.25-.84-.77-1.15C982.35,74.21,982.51,73.05,983.19,72.52Z"/><path class="cls-1" d="M528.18,92.49l-.48.71h-.47v.24H527V93.2c-.82-.09-2.43-.14-2.85.24l-1.9-1c-.24-.71-.48-1.43-.71-2.14h-.24v-.47h-.24v-5l.48-.24v-.48h.23v-1H522v-.47h.24v-1h.24c.08-.32.15-.64.23-1H523v-.72h.24v-.95h.24v-.47h.23V78h.24l.24-1h.24v-1h.23V74.43L523.9,74l-.24-.72h-.47l-.24-.71h-.24v-1.9h-.23v-.95h-.24v-.47H522V68l-.47-.24v-.71c-.27-.58-.78-.93-.95-1.67-.73-.2-.91-.56-1.43-1v-.23h-.71c-.75-.32-2.79-1.24-4.28-.72v.24h-.48V64l-1.18.24-.48.71h-.47c-.32.39-.64.79-.95,1.19l-1,.23-.24.72-1.9,1.66v.48l-.95.71v.47l-.72.48v.47h-.23l-.72,1-.47.24-.24,1-.95.71v.48l-.47.24v.47h-.24l-.24,1.19-1.19,1V78l-.47.47V79h-.24v.47h-.24v.48h-.24v.47h-.23v.48h-.24v.47h-.24v.48H499v.71l-.47.24v.71h-.24l-.24,1h-.23v.71h-.24v.48h-.24v1h-.24v.71h-.23v.95h-.24v1.43h-.24l-.24,5h.24v1l.48.24c.07.47.15,1,.23,1.42l.72.48c.07.23.15.47.23.71h.24v.48l.71.47.24.71h.48c.15.24.31.48.47.72l.95.23c.6.33,2.6,1.6,3.8,1.19V102h.48v-.23h1.19L507,101l1-.23.24-.48h.48c.15-.24.31-.47.47-.71h.48v-.24l1.18-.95v-.71c1.45-.38.83-1,1.43-1.9l.47-.24V95.1l.48-.23.95-1.43h.48l1.18-2.14c1.38.2.9.49,1.43,1.43h.24v.47l.71.48v.47l.71.24.48.71L523,96.77a7.64,7.64,0,0,0,4.52-.72l.47-.71h.95V95.1a3.5,3.5,0,0,1,1.43-.71,2.08,2.08,0,0,0-.48-1.66C529.46,92.71,528.18,92.49,528.18,92.49ZM517.72,73h-.23v1.18h-.24v.72H517V76.1h-.24c-.08.31-.15.63-.23,1h-.24l-.24,1.18-.47.24a11.55,11.55,0,0,0-.72,3.57h.24l.24.71h-.24v.71l-.47.24v.71l-.72.48-.24.71h-.23v.47l-.48.24-.24,1-.71.48v.47l-.71.48v.47l-.95.72-.24,1-.71.47-.24.71-1.66,1.43v.48l-.48.23v.48l-.47.47h-.48l-.24.48-.71.47v.48h-.24c-.15.24-.31.47-.47.71s-.14-.17-.48.24c-1.79,0-1.17-.53-2.14-1.19V94.63h-.23l-.24-1.43h.24V91.78h.23l.24-1.9h.24v-.72h.24l.24-1.66H503V87h.24v-1h.24V85.6h.24c.23-.71.47-1.43.71-2.14l.47-.24v-.47h.24l.24-1h.24v-.71h.23v-.48h.24l.24-.71h.47a5.15,5.15,0,0,1,.72-1.9l.71-.48.24-1,1-.71v-.48l.47-.23v-.48h.24l.24-.71.47-.24v-.48l1.19-.95v-.47l4-3.8h1v.23h.24v1h.24v.47h.23Z"/><path class="cls-1" d="M720.83,82.89l-.24,0,.12.7-.23.05.08.46-.43.32.09.47L720,85l.08.47-.23,0,.08.46-.39.55.09.47-.82.87c-.11.74-.22,1.48-.34,2.23l-.62.59.13.7-.24,0c0,.33-.05.65-.07,1l-.23,0,.12.7-.24,0,.17.94-.24,0,.13.7-.24,0,.33,1.87c-.13,1.1-.32,2.83.45,4l.24,0,.08.47,1.45,1.44,1,.07,0,.23,1.21,0,0,.24c.74-.23.65-.34,1.09-.68.08-.49.15-1,.23-1.48l-.24,0c-.14-.38-.29-.75-.43-1.13l.23,0-.2-1.17.23,0-.32-1.88L724,90.06l.43-.32-.08-.47.43-.31-.09-.47.62-.59c0-.4,0-.81,0-1.21l.42-.32c0-.25.08-.49.11-.74l.24,0c0-.33,0-.65.07-1l.23,0-.08-.47.43-.31-.08-.47.23,0a4.34,4.34,0,0,1,.89-1.84,25.81,25.81,0,0,0-1-2.73h-1.44l0-.24-.47.09,0-.24-.7.12,0-.23-2.25.88a8.57,8.57,0,0,1-.77,2.54l.08.47-.42.31Z"/><path class="cls-1" d="M556,95.34h-.23l-.24,1.19h-.24c.07,1.94,2.05,3.28,3.8,3.56v.24a1.72,1.72,0,0,1,.95-.24l.72-1.18.47-.24v-.48h.24v-.47h.24c.08-.4.16-.79.23-1.19l.48-.24v-.71h.24V95.1h.24v-.47l.47-.24v-.47l.48-.24V93.2l1.18-1c.65-.73.29-1.54,1.43-1.9.24-.86.91-1.29,1.42-1.9h.24V88l1-.72v-.47l.48-.24.24-.71H570v-.48l.72-.47v-.48l.47-.24v-.23l.48-.24v-.48h.23a2.51,2.51,0,0,0,.72-1.18h.47v-.48l2.14-1.9.24-.71,1-.48V78h.24c.31-.4.63-.8,1-1.19h.47l1.19-1.43c.93-.67,1.59-.53,1.9-1.9l1.19-.24c.16-.23.32-.47.47-.71h.48c.66-.46.22-.8,1.42-1,0,1.47-.25,1.25-.71,2.14v.47h-.24v.72h-.23v.71h-.24l-.24.95h-.24v.71h-.23l-.24,1h-.24l-.24,1h-.23v.48h-.24l-.24,1.66H581V82h-.23v.47h-.24v.71h-.24v.72H580v1h-.24v1h-.23V87.5a7.78,7.78,0,0,0-.48,2.38l.24.71h-.24l.48,3.56h.23l.24,1.43.72.47v.48l.47.47h.48c.15.24.31.48.47.72h.48l.23.47,1.19.24v.24c1.11.44,2.16.08,3.33,0,.45-.54,1.32-.76,1.9-1.19l.47-.48v-.47a3.92,3.92,0,0,1,1.43-.71l.24-2.38H589l-.24.48h-.47v.23c-1.24.46-1.44-.41-2.38.72-.76-.1-.69-.22-1.19-.48-.07-1.42-.15-2.85-.23-4.28h.23v-1H585v-.71h.24l.24-2.61h.23v-.48h.24v-.71h.24v-1h.24l.24-1h.23V82h.24v-.48h.24l.24-1.43h.23l.24-.95h.24v-.71h.24c.08-.32.15-.63.23-1H589v-1l.48-.24v-.71l.47-.24v-.71l.48-.24v-.71h.23l.24-1.66h.24v-.72h.24v-.71h.23V69.44h.24V68h.24v-1.9h-.24V64.93h-.24v-.24L590,64.45v-.23h-1V64h-1.9l-.24.47h-.47l-.24.48h-.48c-.23.32-.47.63-.71.95-.7.6-.83-.26-1.19,1a4.71,4.71,0,0,0-2.61,1.66l-.47.24c-.22.35.1.76-.24,1l-.72-.24c-.07.16-.15.32-.23.48h-.48v.24l-1.19.23c-.15.32-.31.64-.47,1h-.48l-.23.48h-.48l-.71,1H575l-.47,1h-1.19V74c-.46.32-.54.55-1.19.71l-.24,1.43-.71.47-1.66,1.9-.48.24v.47a3.66,3.66,0,0,1-1.42,1.19v.24h-.24v-.24h-.24a2.3,2.3,0,0,1,.24-1.19h.24c.08-.39.16-.79.23-1.18h.24v-.48h.24v-.47h.24l.24-1.43h.23l.24-1h.24l.24-1.43H570l.24-.95h.24l.24-1.42H571v-.48h.24v-.71h.24v-.47h.24v-.72l.47-.24v-.71h.24c.26-.5.06-.57.47-1a4.56,4.56,0,0,0-.71-2.37,5.92,5.92,0,0,0-3.56-.48V64l-.72-.24V64c-.85.59-.33,1.16-.71,2.14h-.24v.47h-.23v1.19l-.48.24L566,69.21h-.23v.47h-.24v.95h-.24v.48l-.47.23-.48,2.14-.47.24v.47h-.24c-.24,1.19-.48,2.38-.71,3.57h-.24v.47l-.48.24-.24,1-.47.24-.24,1.19H561c-.07.31-.15.63-.23,1h-.24L560.28,83H560c-.08,1-.15,1.9-.23,2.85h-.24v.47l-.71.48v.47h-.24l-.24,1.67h-.24c-.08.31-.16.63-.23.95h-.24v.71h-.24v.47h-.24c-.08.56-.16,1.11-.23,1.67h-.24v.47h-.24v.72h-.24v.71H556Z"/><path class="cls-1" d="M418.17,89.16l.71-.23.48-.48V88l.47-.24v-.48l.72-.47v-.48h.71l1.42,3.33h.24l.95,1.19.95.23.48.72.95.23v.24h.95v.24a3.58,3.58,0,0,0,2.14-.24V92h.47c.43-.33-.06-.92.24-1.42h.24c-.22-1.68-.52-.51-1.67-1V89.4h-.47v-.24l-.71-.23c-.29-.7-.42-1.12-.72-1.9h-.23l-.24-4s.3-.09.24-.72h-.24c0-.33.17.1.24-.23V80.37h.23v-.71H427v-.48h.24l.24-1.42h.23v-1h.24l.24-1h.24c.08-.48.15-1,.23-1.43h.24l.24-1h.24V73h.23v-.72l.72-.47v-.48h.23v-.71l.48-.24.24-1h.24c.15-.47.31-1,.47-1.42h.24c.27-.62.06-1.43.47-1.9-.08-.24-.16-.48-.23-.72h-.24v-.71H432a7.74,7.74,0,0,0-4-.71v.24l-1,.23-.24,1.19-.47.24v.71H426v.71h-.24v.48h-.23v.47l-.48.24-.48,1.43-.47.24v.71h-.24v.47h-.24v.72h-.23l-.24,1h-.24v.47h-.24V74h-.23v.47h-.24v.48H422v.47h-.24v1.43s-.15,0-.23.47c-1,.29-.32.17-.72.72l-.47.23v.48h-.24v.47l-.71.48-.48,1.43-.71.23-.48.48v.47l-.95.72v.47l-.71.48v.47l-.47.24v.47l-.48.24v.48l-.47.23c-.44.61.24.42-.72.72v.47l-1.42,1.19-.24.71h-.48c-.42,1.9-2.46,2.12-3.32,3.57h-.95v-.24c-1.15-.32-.94-.75-1.43-1.66h-.24v-.48h-.23V89.4l-.48-.24V85.84h.24V84.41h.24V83h.23V82h.24v-1h.24v-.72h.24c.08-.63.16-1.26.23-1.9H407l.24-1h.24c.08-.39.16-.79.23-1.19l.48-.23.24-1.43h.24c.15-.48.31-1,.47-1.43h.24v-.47h.24c.07-.32.15-.63.23-1l.48-.24.24-.71h.23v-.71H411l.48-.72h1.42c.24-.71.48-1.42.71-2.14l-.71-.47v-.48a1.75,1.75,0,0,1-.95-.23v-.24H411v-.24h-3.33c-.15.24-.31.48-.47.71l-1.66,1.43v.47l-.48.24V69h-.24v.47l-.47.48v.47l-.71.48v.71h-.24v.48h-.24l-.47,1.42h-.24v.71h-.24l-.24,1h-.24c-.07.39-.15.79-.23,1.18h-.24v.48h-.24c-.16,1-.31,2.06-.47,3.09h-.24v.95h-.24v.71h-.24V83h-.23l-.24,1.9s.31.08.24.47h-.24c-.36,1.47.38,3.67.71,4.52v.71h.24l.24,1h.23l.24.95.95.71v.48l.48.24.95,1.18.95.24.24.48h.47v.23h.48v.24h.71v.24h.47v.24h.72V97h.71v.24a7,7,0,0,0,2.38-.47h.95l.47-.72h.48c.08-.15.16-.31.23-.47.68-.46,1-.43,1.43-1.19h.48c.07-.32.15-.63.23-1,1-.28.91-.9,1.43-1.66l.47-.24v-.48l1.19-.71Z"/><path class="cls-1" d="M675.85,93.08l-.12,1-.44.29.09.71c-.24.86-1.4,2.74-.67,4.16l.24,0,.06.47.23,0,.33.67c.66.09.57.26,1.24.33l.06.47a5.14,5.14,0,0,0,2.36-.3,4.74,4.74,0,0,1,.49-1.74l.44-.3.12-1,.23,0-.12-1,.24,0-.06-.47.24,0-.12-.94.64-.56c.09-.57.18-1.14.26-1.71l.44-.3.12-1,.24,0-.06-.47.23,0-.06-.47.24,0-.06-.47.23,0-.06-.48.24,0c0-.32.08-.64.11-1l.24,0c0-.32.08-.65.11-1l.45-.3c0-.32.07-.65.11-1l.44-.3.15-.73.23,0c.21-.91.41-1.81.62-2.72l.44-.29-.06-.47.44-.3-.06-.47.23,0-.06-.47.24,0,.06-1.45.23,0-.18-1.41c-.53-.82-4.32-1.64-5.1-.55l-.44.3-.09,1.21-.23,0,.06.47-.44.29-.12,1-.23,0,0,1.68-.85.82.09.71-.24,0c-.05.25-.09.49-.14.74l-.47.06a9,9,0,0,1-.88,2.51l.06.47-.44.29-.12,1-.23,0,.06.47-.24,0,.06.47-.24,0,.09.71-.23,0,.12.94-.24,0c-.09.49-.19,1-.29,1.47Z"/><path class="cls-1" d="M923.82,91.93l-.06-.47c1.15-.27,1.1-.83,2-1.19l0-.47,1.33-.87,0-.47.42-.53.47-.05.42-.52-.05-.48.44-.29,1-1.55.47-.05c.06-.24.11-.49.16-.73l.24,0,.15-.74.45-.29-.06-.47.45-.29-.05-.47.23,0,0-.47.24,0-.08-.7.23,0-.05-.47.23,0-.08-.71.24,0c0-1-.07-2.07-.11-3.1l-.24,0L931.94,75l-.23,0-.35-.92-.23,0-.11-.95-.24,0,0-.47-.23,0-.06-.47-.76-.39,0-.47-.74-.16c-.09-.15-.19-.3-.29-.45l-.47.06,0-.24-1.47-.31,0-.24-1,.11,0-.24-.71.09,0-.24-.94.11,0-.24-.47,0,0-.23-2.39,0,0,.23-1.65.19c-.06.17-.12.33-.19.5l-1.41.16,0,.24-1.15.37-.39.76-1.16.37-.6,1-.47.06,0,.23-.92.34,0,.24-.71.08,0,.24-.48,0,0,.24-.47.05,0,.24-.47,0,0,.24a3.57,3.57,0,0,1-1.31,1.1c-.19,1-.11.28-.63.79l-.18.5-.24,0,.06.48-1.08,1.07.06.48-.66.55,0,.47-.23,0a3.38,3.38,0,0,0-.76,1.76c-1.35.52-.91,1.26-1.41,2.31l-.45.29c-.1.49-.21,1-.31,1.47l-.44.29c-.35.83-1.22,4.55-.52,6l.24,0,0,.47.24,0,.13,1.18.5.19c.11.22.21.45.32.68l.23,0,.06.47.5.19.05.47.76.39,0,.47.74.16.55.65.47,0,0,.24.71-.08,0,.23.47-.05,0,.23,1.47.32,0,.23,1.42-.16,0,.24c1.18.19,2.15-.74,2.76-1l1.62-.42,0-.24.47,0,.18-.5.47-.06,0-.23.47-.06,0-.23.47-.06.42-.52.48,0,.18-.5.47-.06,1-1.78,1.16-.37.81-1.29Zm-2.43-4.51c-.59.5-1.17.69-1.52,1.37l-.47,0c-.15,1-.59.82-1.28,1.34l0,.24-.48,0-.18.5L917,91l-.6,1-.92.34-.42.53-.47,0,0,.24-.48.05,0,.24-.47,0,0,.24L911.25,95l0-.24c-1.46.07-1.55-.71-2.52-1.15a9.5,9.5,0,0,1,.43-4.59l.66-.56-.08-.7.65-.56c.1-.56.19-1.13.29-1.7a2.08,2.08,0,0,0,1.2-2c.49-.15.81-.56,1.13-.61.09.15.19.3.29.45a2.61,2.61,0,0,0,1.73.52c.1-.49.21-1,.31-1.47l.24,0c0-.64,0-1.27,0-1.91l.45-.29-.06-.47.45-.29.15-.74a8.3,8.3,0,0,1,2.57-.53c.06-.16.09-.87.13-1l.24,0a1.9,1.9,0,0,0,.31-1.47l.68-.31,0-.24.47,0,0-.24a7.79,7.79,0,0,1,4.46-.74l1-.11,0,.24c1,.17.53.42,1.29.81l.42,1.62s-.29.08-.18.5a.4.4,0,0,1,.29.45l-.24,0c0,.48,0,1-.07,1.44l-.24,0,.06.47-.24,0,0,.48-.44.29.08.7-.66.56.06.47-.9.58.06.47-.24,0-.39.76-.47,0-1,1.55-.47.06c-.21.34-.41.68-.61,1l-.91.34C921.52,87.09,921.45,87.26,921.39,87.42Z"/><path class="cls-1" d="M542,98.43h.24v-.71h.23V97h.24v-.47h.24v-1h.24v-1h.24v-.71h.23l.24-1.19h.24v-.48h.24c.15-.71.31-1.42.47-2.14h.24l.24-1h.23v-.71h.24V88H546v-.72h.24c.08-.31.15-.63.23-1h.24l.24-1.9c1-2.24,2.23-4.78,2.14-8.08a3.1,3.1,0,0,1-.72-1,7.26,7.26,0,0,0-4.75-.47,19.08,19.08,0,0,1-1.19,5.22v.72h-.23l-.48,1.42h-.24c-.07.64-.15,1.27-.23,1.9H541v.72h-.24l-.24,1h-.23v1h-.24l-.48,2.14h-.23v.47h-.24v.71h-.24v1h-.24c-.3.79-1.57,4.85-1.18,5.94h.23v.48h.24l.24.71a6.38,6.38,0,0,1,2.37,1.19C541.48,99.27,541.53,99,542,98.43Z"/></g><g id="Button"><path class="cls-3" d="M1013,512.53c.61-.31.49-.57.58-.63l1.61-.38,0,.23.23-.06-.06-.22,1.38-.33,0-.23.63-.4c-.22-1.16-.15-1.87-1.18-1.9l-.11-.45-.51-.12-.06-.23-.46.11-.62-.58-.46.11-.34-.41-.46.11,0-.23-.74-.06a12,12,0,0,0-1.07-1.44l-1.12-2.65-.23.06c-1-1.76.24-2.63.33-3.71l-.49-2.07.23-.05-.22-.92.23-.05a3.63,3.63,0,0,0-1.06-2.42l-.23.06-.33-1.38c-.22-.38-.69-1.24-.9-1.72l-2.17,0c-.11-.14-.22-.27-.34-.4l-1.14.27-.06-.23c-.46,0-.79.09-1.2,0-.07.29-.32.46-.35.57l.11.46-.23.05c-.09.79.58,1,.61,1.55l-.23.06.22.92-.23.05.27,2.12-.23.05.11.46-.58.63v1l-.41.34.11.45-.75.91.11.46-.58.62.11.46-1.28,1.76c-.1.27-.2.53-.29.8l-.87.45-.12.51-.45.11.05.23-.69.16.06.23-.46.11,0,.23-.46.11-.12.51-.45.11-.12.51-.69.17,0,.23-.46.11.06.23-.63.39,1.17,1.9.8.29.17.69.23-.05.33.4.46-.11,1.53,1.33.61,1.55a10.52,10.52,0,0,1,1.71,6.14l.71,3-.23.06,1.09,4.58-.23.06.44,1.83-.23.06.28,1.14-.23.06.32,1.37-.23.06.11.46-.23.05.22.92-.23.05.11.46-.23.06.33,1.37-.23.06.82,3.44.52.12.11.46.51.12,0,.23.46-.11.06.23c1,.27,1.36,0,2.1.7l1.38-.32a7.77,7.77,0,0,0,.43-2.29l-.22-.91.23-.06-.17-.69.41-.33-.22-.92.23-.06-.11-.45.23-.06-.21-1.89.23-.05-.11-.46.23-.06-.1-1.43c.52-.27.45-.36.81-.67a19.71,19.71,0,0,1-.29-5.27l-.22-.92.23,0c0-.32,0-.65,0-1l.23-.06-.11-.46.41-.33c0-.73,0-1.45,0-2.18l.46-.11a6.82,6.82,0,0,1,0-3.88l.23-.06.81-1.65.46-.11C1012.34,513.54,1013,513.61,1013,512.53Z"/><path class="cls-3" d="M932,457.75a1.76,1.76,0,0,1,.47,1.18h.47c.65.35.09.78,1.42.94v.47a6.45,6.45,0,0,1,2.83.71c1.39.83,2.25,5,2.82,6.83v1.42h.24v1.41h.24v2.6h.23v1.88h.24v2.12h.23v5.19a17.8,17.8,0,0,1,.24,5.66h-.24l.24,1.88h-.24v3.3c0,.07-.3.08-.23.48h.23V495h-.23v1.42h-.24c-.08,1.49-.16,3-.23,4.48h-.24v1.65H940v4h.24l1.41,1.65,1.18.23v.24l2.6-.24a4.94,4.94,0,0,0,.47-2.36.62.62,0,0,1-.24-.7h.24v-.95h.23V502.3h.24v-1.65h.23V499h.24v-1.41H947v-.71h.23v-1.65h.24v-.94h.23v-1H948v-.47h.23v-1.41h.24v-.71h.24v-.94h.23v-.47h.24v-.71h.23c.24-1,.48-2,.71-3.07h.24v-.47h.23v-1.41h.24v-.47H951l.24-1.89.47-.23.24-.71h.23c.28-.46.23-1.43.47-1.89l.48-.23v-.47h.23v-.48h.24v-.7l.7-.47.24-.95.47-.23c.32-.95.63-1.89.94-2.83l.71-.47c.16-.48.32-1,.47-1.42l.71-.47.24-.94.47-.24.23-.94.71-.47v-.47l.71-.48v-.47l.47-.23v-.47l.47-.24.47-.71h.24v-.47l1.18-.94v-.47l.47-.24c.31-.39.63-.78.94-1.18.53-.34,1.25,0,1.89-.23a16.6,16.6,0,0,0,1.41-.95,4.14,4.14,0,0,0-.71-2.12c-.57-.87-.66-.34-1.65-.7v-.24h-.7v-.24h-.48v-.23h-.94v-.24h-1.18v.24a2.65,2.65,0,0,1-2.35-1h-.24v-.7l-.47-.24c-.16-.47-.32-.94-.47-1.41h-.24c-.16-.47-.31-.95-.47-1.42h-.24c-.15-1-.31-2-.47-3.06h-.23v-3.54h-.24a.61.61,0,0,1,.24-.7v-5.19h-.24v-1.65h.24V437h-.24v-3.53h-.23v-3.3c-.1-.32-.18.09-.24-.24-.42-2.52.56-5.09,0-7.07a4.52,4.52,0,0,1,.47-2.83v-1.65l-.71-.47c-.07-.24-.15-.47-.23-.71h-.71V417h-.47v-.24l-1.41-.24v-.23a3.78,3.78,0,0,0-1.42.23l-.71,2.13v1.65h-.23v2.59h-.24v1.65h-.23v.94h-.24v1.65h-.23v.71h-.24l-.24,2.12h-.23v.47h-.24v1.18h-.23v.47h-.24c-.3.6-.19,1.25-.47,1.89h-.24v.47h-.23l-.24,1.41-.47.24-.24,1.18-.47.23V438h-.23v.47h-.24v.94l-.94.71c-.16.47-.32.94-.47,1.41-.66,1-1.63,1.83-1.89,3.3h-.47a2,2,0,0,1-.47,1h-.24v.7l-.94.71-.24.94-1.41,1.18v.47l-.47.24c-.47.68-.43,1-1.18,1.41v.71h-.47l-.24.71-.7.23v.24l-.71.47-.24.94a14.71,14.71,0,0,1-3.06,1.65l.23,1.42Zm7.78-.47,1.18-.95a12.62,12.62,0,0,0,1.18-1.88l.94-.71v-.47l.47-.24.24-.7c.31-.24.62-.48.94-.71v-.47l.47-.24v-.47l.94-.71v-.47l.47-.23v-.48h.24v-.47H947v-.7l1.17-.71v-.47l.48-.47v-.48l.47-.23c.16-.47.31-.94.47-1.42l.71-.47v-.47l.47-.23c.31-.57-.12-.64.47-1.18V441h.24c0,3.11-.1,6,.7,8.25l.24,1.65h.23v.47l.48.24v.71h.23l.24.94h.23v.47l.47.24v.47l.48.23v.47l.47.24.23.71h.24c.08.23.16.47.23.71,1,.28,1.33,1.14,2.36,1.41v1.18l-.94.71v.47l-.47.23v.47l-1,.71v.47l-.47.24v.47l-.7.47v.47l-.48.24-.23.71h-.24l-.23.94-.71.47v.47h-.24v.47l-.47.24c-.08.31-.15.63-.23.94l-.47.24-.24.94-.71.47v.47h-.23v.47l-.47.24-.48,1.42-.47.23v.71h-.23l-.24.94L948,475v.47a5.72,5.72,0,0,0-.94,1.88c-.47-.14-.21,0-.48-.23h-.23l.23-1.18h-.23v-1.41h-.24V472.6h-.23V471h-.24V469.3h-.23v-.94h-.24v-.95h-.24v-.94h-.23v-.94h-.24v-.71h-.23l-.24-1.18h-.23l-.24-.94h-.24c-.07-.32-.15-.63-.23-.94l-.47-.24v-.47l-.71-.47v-.47l-2.12-1.89Z"/><path class="cls-3" d="M44.83,390.67l.05.27c-.71.31-.77.88-1.16,1.38l0,.14-.27.05,0,.14-.36.36.06.28c-.24.28-.47.56-.7.85l0,.28-.58.68,0,.28-.36.36.06.27-.37.36c-.2.46-.13.77-.5,1.11-.27-.45-.21-1.32-.51-1.91l-1.4-2.75-.14,0-.24-.53-.14,0-.06-.28-.47-.19-.08-.42-.3-.08-.44-.78-.61-.17-.24-.53-.31-.08-.85-.7-.28.06-.52-.47-.14,0a5.42,5.42,0,0,1,.34-1.21l.25-.19-.05-.28.58-.69.06-.44.58-.69,0-.28.47-.52,0-.28.47-.52.06-.44L37,383l-.06-.28.59-.69-.06-.27.36-.36-.05-.28.36-.36,0-.27.14,0a1.86,1.86,0,0,0,.25-.91l.28-.06a1.65,1.65,0,0,1,.25-.91l.25-.19,0-.58.25-.19-.05-.28.36-.36-.06-.27c.1-.3.3-.63.39-.94l.25-.19,0,.14.14,0A12.56,12.56,0,0,1,40.5,378l.27,1.38-.14,0a16.19,16.19,0,0,0,.92,4l.29,1.52.14,0,.6,2.33.14,0,.13.69.14,0,.06.27.13,0,.08.41.14,0,.08.42.14,0,.08.42.31.08.05.28.3.08.61.89Zm5.17,0-.47-.2,0-.14-.41.08a2.35,2.35,0,0,1-.19-.25h-.72c-.08-.13-.15-.26-.22-.39l-.28.05-.36-.36-.13,0-.25-.53-.47-.19-.11-.56-.14,0-.1-.55-.14,0-.11-.55-.14,0,0-.28-.14,0c-.34-1.51-.69-3-1-4.54L44,379.49c-.07-.19-.33-.41-.3-.8l.13,0-.13-.69c.09-.94-.12-2.21,0-3.15l-.16-.83s.18,0,.08-.3l-.14,0-.1-.55.13,0-.05-.27.14,0-.16-.83.14,0-.08-.41.13,0-.13-.69.14,0-.06-.28.14,0-.16-.83.14,0-.11-.55.14,0c.07-.83-.58-.79-.13-1.41l-.3-1.52a3,3,0,0,1-.49-.34l-1.53.3c0,.74-.42,1.13-.34,1.93-.4.14-.68.27-1-.09-.8.15-1.15.23-1.28.83l.14.69-.25.19.08.42-.14,0,0,.28-.13,0,.08.41-.25.19,0,.58-.25.2,0,.58-.25.19,0,.58-.14,0-.06.44-.25.19,0,.28-.36.36.06.27-.25.19,0,.58-.36.36,0,.28-.25.19,0,.58-.47.52,0,.28a2.51,2.51,0,0,0-.36,1.08l-.28.05a1.22,1.22,0,0,1-.17.61l-.14,0a8.35,8.35,0,0,1-.47,1.24l-.37.36.06.27-.25.19,0,.28-.25.19,0,.14-.25.19.05.28c-.15.18-.31.35-.47.52l.05.28-.25.19a2.91,2.91,0,0,0-.47,1.24l-.28.06-.06.44-.47.52.08.42-.61.55.06.28c-.13.11-.25.23-.37.35l.06.28-.25.19a6.73,6.73,0,0,1-.42.8c.25.77.73.86,1,1.53a1,1,0,0,1,.61.17l0,.13.28-.05.19.25,1-.19.19.25a1.63,1.63,0,0,0,.91.25l0,.28.28-.05c.08.17.16.35.25.52l.3.09.05.28.14,0c.15.26.29.52.44.77l.14,0,.08.41.14,0,0,.27.14,0,.08.41.14,0,.13.7.14,0,.16.83.14,0c.29,1.72.58,3.43.86,5.15l-.14,0,.3,1.52-.14,0,.08.42-.14,0,.19,1-.14,0,.27,1.39-.13,0,.09,2.71a10.33,10.33,0,0,0,.24,2.69l.3.08.22.39.14,0,.22.39c.68,0,1.87.65,2.4-.18.56-.55.06-.67.15-1.47l.14,0-.11-.56.14,0-.11-.56.14,0-.08-.42.14,0-.14-.69.14,0,0-.28.14,0,0-.86.14,0-.19-1,.14,0-.05-.28.13,0,.12-.89.25-.19-.11-.55.47-.52c0-.24,0-.48,0-.72l.36-.36-.05-.28.13,0-.05-.28.14,0-.08-.41.14,0-.06-.28.14,0-.08-.42.36-.36,0-.58.25-.19,0-.28.36-.35-.06-.28.48-.52-.06-.28.48-.52-.06-.28.36-.36-.08-.41.14,0,.2-.47.27-.05,0-.28c.5-.25.35-.5.86-.74A1.68,1.68,0,0,1,47,393c.35-.36.4.18.47-.52l.53-.25,0,.14.27,0,0,.14.83-.17c.45,0,.68.13.94-.32l.39-.22-.13-.69-.31-.09Z"/><path class="cls-3" d="M162.74,272.66l.32-.08.08-1.05.65-.17.15-2.11.8-.89-.17-.65,1.05-1.3-.25-1,1.29-1.71-.17-.64,1.13-1-.17-.65,1.77-2.52c.05-.24.1-.48.16-.73l.64-.16c.06-.25.11-.49.16-.73l.65-.17c.21-.51.42-1,.64-1.54l.64-.17-.08-.32c.56-.54.73-.19,1.13-1l2.26-.58.49.57a5.2,5.2,0,0,0,2.35-.26,5.27,5.27,0,0,1,1.61-1.79l-.34-1.3-.32.09c-.65-2.5-3.84-3.81-6.09-3.61a6.92,6.92,0,0,0-2.61-2.09l-.73-.16-1.14-1.77-.32.08-.57-.89-.73-.15-.74-1.54-.73-.16-.74-1.53-.32.08-.17-.64-.32.08-.17-.65-.32.09-.17-.65-.32.08-1.14-1.77-.33.08-.25-1-.32.08-.16-.64-.33.08-.33-1.29-.32.08-.17-.65-.73-.16-.16-.64-.33.08-2.62-6.22c-.93-1.55-1.51-4.5-2.07-6.71l-.66-2.58.56-.49-.16-.65.32-.08.07-1.05,1.54-.74-.25-1-.65.16c-.06-.67-.11-1.35-.17-2l-1.87-.56-.08-.32-.08-.32-.33.08c-.51-.3-4.5-.23-5.5,0l.17,2-.32.08.58,2.26-.32.09.25,1-.33.08.17.65-.33.08.67,2.59-1,1.3.33,1.29-.32.08.17.65-.57.49.17.65-.33.08.17.64c-.07.22-.38.37-.48.82l-.65.16c.28.62.55,1.24.82,1.86a5.58,5.58,0,0,0-2.89,3.5V231l-1.29,1.7.08.33-.8.89.17.65-.33.08.17.65-.32.08c-.14.38-.27.76-.4,1.14l-.65.16c0,1.11-.53,1.36-.8,2.27l-.64.17c0,1.26-.67,1.43-1.12,2.35l-.65.17c0,1-.17.91-.64,1.54l.09.33-1,.24.08.33-.33.08.18,2a14.38,14.38,0,0,0-2,1.55l.09.33-.33.08-.32.08-.08-.32-1.62.41-.08-.32a4.32,4.32,0,0,0-1.54.74l.74,1.53.32-.08.58,2.26.33-.08c.69.82,1.22,1.13,1.87,1.93l4.05-.35.08.33,2.11.15.08.32,1-.25.49.57c1,.52,2.29,1.51,3.49,1.51l1.39,2.75.32-.09.66,1.22.32-.09.25,1,.32-.08c.12.89.23,1.78.34,2.67l.33-.08c.91,1.68.88,4.7.84,6l.58,2.27-.32.08.74,2.91-.32.08.25,1-.32.09.66,2.58-.32.09.58,2.26-.33.08.5,1.94-.56.49c.44,2.18.89,4.37,1.33,6.55l.32-.08.17.64.32-.08c.77,1.18,1.53,2.37,2.29,3.55l.65-.17c.63,1.12,1.32.82,2.11,1.53l2.26-.58-.08-.32c1.26-1.6.14-2.76.54-4.62l.32-.08-.16-.65.32-.08-.25-1,.33-.09-.25-1,.56-.49-.09-1.69.32-.09-.16-.64.32-.09c-.06-.67-.11-1.35-.17-2l.32-.08-.16-.65.56-.49-.33-1.29.56-.49c0-.46,0-.92,0-1.38l.33-.08.07-1,.57-.49-.09-1.7.8-.9Zm-4.28-11.31-.64.17c0,1.5-.74,1.37-1.12,2.35l.16.65-.32.08c-.13.38-.26.76-.4,1.14l-1.29.33c-.58-1.8-1.16-3.61-1.73-5.41l-.33.08-.25-1-.32.08-.25-1-.32.08-.33-1.29-.32.08-.66-1.21-.32.09-.25-1-.73-.16-.25-1-.32.08-.17-.65-.73-.15-.16-.65L141,249.63l-1,.25-1.3-1-.33.08-.08-.32a6.89,6.89,0,0,0,2.25-3.33l.65-.17-.17-.65.65-.16-.17-.65c1.33-.75.66-1,1.2-2,.87-1.63,2.23-2.83,2.57-4.79l.64-.17a3.58,3.58,0,0,1,.56-1.86l.32-.09-.16-.64L147,234l.64-1.54.56-.49-.16-.64c.18-.17.37-.33.56-.49.49-1.39.4-2.76,1.43-3.82q1.44,2.22,2.86,4.44l.42,1.62.32-.09.17.65.73.16.16.64.33-.08.41,1.62.73.16.33,1.29.32-.08.17.64.73.16.17.65.32-.09.33,1.3,1.14.4.41,1.61.32-.08.66,1.21.32-.08.25,1,.32-.08.17.64.32-.08.17.65.73.15.16.65.33-.08.16.64.73.16c.9.84.52,1.2,1.79,1.61,0,2.16-1.77,2.79-3,4.23-.29.65-.58,1.3-.88,1.95l-.64.16c-.06.25-.11.49-.16.73l-.89.57.17.65-.48.81-.65.17c-.05.24-.11.49-.16.73C159.07,259.33,158.42,259.81,158.46,261.35Z"/></g></g></svg>