<?xml version="1.0" encoding="utf-8"?>
<!-- Generator: Adobe Illustrator 23.1.0, SVG Export Plug-In . SVG Version: 6.00 Build 0)  -->
<svg version="1.1" id="レイヤー_1" xmlns="http://www.w3.org/2000/svg" xmlns:xlink="http://www.w3.org/1999/xlink" x="0px"
	 y="0px" viewBox="0 0 284.1 163.8" style="enable-background:new 0 0 284.1 163.8;" xml:space="preserve">
<style type="text/css">
	.st0{fill:none;stroke:#379E49;stroke-width:4.26;stroke-linecap:round;stroke-linejoin:round;}
	.st1{fill:#379E49;stroke:#379E49;stroke-width:4.26;stroke-linecap:round;stroke-linejoin:round;}
	.st2{fill:#FFFFFF;stroke:#379E49;stroke-width:4.26;stroke-linecap:round;stroke-linejoin:round;}
	.st3{fill:#FFFFFF;stroke:#379E49;stroke-width:4.89;stroke-linecap:round;stroke-linejoin:round;}
	.st4{fill:#FFFFFF;}
	.st5{fill:#379E49;}
</style>
<title>アセット 7</title>
<g>
	<g id="REUNIQLO">
		<path class="st0" d="M137,59.3c0,2-3.6,4.8-11.3,3.5c-4.9-0.8-7.5-7.6-5.7-8.5"/>
		<polygon class="st1" points="105.7,158.2 153.7,158.2 154.6,126.1 105.7,126.1 		"/>
		<path class="st2" d="M162.1,92.7c0,0-2.4-29-2.7-32.1c-0.4-4-1.3-5.6-4.7-7l-6.3-2.6l-4.7-0.2c0.1-0.9,0.2-1.8,0.2-2.8
			c-2-0.6-4-1.1-6-1.5l-0.9-8.4c4.9-2.3,8.4-7.4,8.4-14.6c0-9.8-6.4-15-14.4-15s-14.4,5.2-14.4,15c0,7.1,3.4,14.5,8.4,16.8l-0.9,6.1
			c-1.9,0.4-1.1,0.9-3.2,1.6c0,0.5,0,1.1-0.1,1.6l-1,0l-9.8,4.3c-2.8,1.2-3.9,2.9-5.1,6.6l-6.4,19l8.2,46.7H157l-4.6-27.2
			L162.1,92.7z"/>
		<path class="st1" d="M141.2,35c3.2,0.8,6.6-0.8,7.8-3.9c2.8-6.2-3.3-14-3.7-16.5c-0.5-2.9-1.4-5.9-3.9-8.4
			C135,0,124.6,2,120.4,4.9s-7.9,11.6-4.1,17.9c0,0,0.1-6.2,3.6-10.7h12c2.5,1.4,4.9,3,7.2,4.7C141.6,18.7,151,24.4,141.2,35z"/>
		<path class="st3" d="M51,87.3c0-3.2,2.6-5.8,5.8-5.8c0,0,0,0,0,0h17.7c3.2,0.1,5.7,2.8,5.6,6.1c-0.1,3-2.5,5.4-5.6,5.6H56.8
			C53.6,93.1,51,90.5,51,87.3"/>
		<polygon class="st3" points="66.1,109.6 25.7,109.6 7.2,89.4 47.6,89.4 		"/>
		<rect x="2.1" y="155" class="st4" width="279.8" height="7.7"/>
		<line class="st0" x1="2.1" y1="155" x2="282" y2="155"/>
		<rect x="57.1" y="75.9" class="st2" width="49.8" height="54.7"/>
		<rect x="25.7" y="109.6" class="st3" width="71.7" height="51.6"/>
		<polygon class="st3" points="120.5,155 97.4,161.2 97.4,109.6 120.5,109.6 		"/>
		<path class="st5" d="M46,142.1l-1.1-3.2h-1.5v3.2h-1.9v-9.7h3.2c1.8,0,3.2,1.4,3.3,3.2c0,0,0,0,0,0.1c0,1-0.5,2-1.3,2.6l1.3,3.9
			H46z M44.7,137c0.7-0.1,1.2-0.7,1.2-1.4c-0.1-0.6-0.6-1.1-1.2-1.2h-1.3v2.6H44.7z"/>
		<path class="st5" d="M56.6,134.4h-4.5v1.9h3.6v2h-3.6v1.9h4.5v1.9h-6.5v-9.7h6.5V134.4z"/>
		<path class="st5" d="M65.3,139c0,1.8-1.4,3.2-3.2,3.2c-1.8,0-3.2-1.4-3.2-3.2c0,0,0,0,0,0v-6.6h1.9v6.6c0,0.7,0.6,1.3,1.3,1.3
			c0.7,0,1.3-0.6,1.3-1.3v-6.6h1.9V139z"/>
		<path class="st5" d="M70.3,140.3c0.5,0,1-0.4,1-0.9c0-0.3-0.2-0.7-0.5-0.8l-1.7-0.8c-1-0.4-1.7-1.4-1.7-2.5c0-1.6,1.3-2.9,2.9-2.9
			c0,0,0,0,0,0c1.3,0,2.4,0.8,2.9,2l-1.8,0.8c-0.2-0.5-0.6-0.8-1.1-0.8c-0.5,0-1,0.4-1,0.9c0,0.3,0.2,0.7,0.5,0.8l1.7,0.8
			c1,0.4,1.7,1.4,1.7,2.5c0,1.6-1.3,2.9-2.9,2.9c0,0,0,0,0,0c-1.3,0-2.4-0.8-2.9-2l1.8-0.8C69.4,140,69.9,140.3,70.3,140.3z"/>
		<path class="st5" d="M81.9,134.4h-4.5v1.9h3.6v2h-3.6v1.9h4.5v1.9h-6.5v-9.7h6.5V134.4z"/>
		<polyline class="st2" points="132.3,50.7 132.3,50.7 125.7,62.8 		"/>
		<polygon class="st2" points="141.2,63.9 132.3,50.7 141.9,43.2 147.1,48.7 		"/>
		<line class="st0" x1="125.1" y1="50.7" x2="127.6" y2="59.4"/>
		<path class="st3" d="M100,86.1c0.2-3.2,3-5.6,6.2-5.3c0,0,0,0,0,0l17.6,1.4c3.2,0.2,5.6,3,5.3,6.2c-0.2,3.2-3,5.6-6.2,5.3
			l-17.6-1.4C102.2,92.1,99.8,89.3,100,86.1C100,86.1,100,86.1,100,86.1"/>
		<polyline class="st3" points="152.4,98.9 114.5,93.6 114.5,80.5 147.5,83.3 		"/>
		<polygon class="st3" points="97.4,109.6 120.5,109.6 139,89.4 115.9,89.4 		"/>
		<polygon class="st3" points="208.1,109.6 167.7,109.6 149.2,89.4 189.6,89.4 		"/>
		<rect x="167.7" y="109.6" class="st3" width="71.7" height="51.6"/>
		<polygon class="st3" points="239.4,109.6 262.5,109.6 281,89.4 257.9,89.4 		"/>
		<polygon class="st3" points="262.5,155 239.4,161.2 239.4,109.6 262.5,109.6 		"/>
		<path class="st5" d="M180.8,142.1l-1.1-3.2h-1.5v3.2h-1.9v-9.7h3.2c1.8,0,3.2,1.4,3.2,3.2c0,0,0,0,0,0c0,1-0.5,2-1.3,2.6l1.3,3.9
			L180.8,142.1z M179.5,137c0.7,0.1,1.3-0.5,1.4-1.2c0.1-0.7-0.5-1.3-1.2-1.4c-0.1,0-0.2,0-0.2,0h-1.3v2.6L179.5,137z"/>
		<path class="st5" d="M191.3,134.4h-4.5v1.9h3.6v2h-3.6v1.9h4.5v1.9h-6.5v-9.7h6.5V134.4z"/>
		<path class="st5" d="M196.2,134.3c-0.7,0-1.3,0.6-1.3,1.3v3.4c-0.1,0.7,0.5,1.3,1.2,1.4c0.7,0.1,1.3-0.5,1.4-1.2
			c0-0.1,0-0.2,0-0.2h1.9c0,1.8-1.4,3.2-3.2,3.2c-1.8,0-3.2-1.4-3.2-3.2l0,0v-3.4c0-1.8,1.4-3.2,3.2-3.2c1.8,0,3.2,1.4,3.2,3.2l0,0
			h-1.9C197.5,134.9,196.9,134.3,196.2,134.3C196.2,134.3,196.2,134.3,196.2,134.3z"/>
		<path class="st5" d="M202.5,142.1v-3.9l-2.3-5.8h1.9l1.3,3.6l1.3-3.6h1.9l-2.3,5.8v3.9H202.5z"/>
		<path class="st5" d="M211.2,134.3c-0.7,0-1.3,0.6-1.3,1.3v3.4c-0.1,0.7,0.5,1.3,1.2,1.4c0.7,0.1,1.3-0.5,1.4-1.2
			c0-0.1,0-0.2,0-0.2h1.9c0,1.8-1.4,3.2-3.2,3.2c-1.8,0-3.2-1.4-3.2-3.2l0,0v-3.4c0-1.8,1.4-3.2,3.2-3.2c1.8,0,3.2,1.4,3.2,3.2l0,0
			h-1.9C212.5,134.9,211.9,134.3,211.2,134.3C211.2,134.3,211.2,134.3,211.2,134.3z"/>
		<path class="st5" d="M222.9,140.2v1.9h-6.5v-9.7h1.9v7.8H222.9z"/>
		<path class="st5" d="M231.1,134.4h-4.5v1.9h3.6v2h-3.6v1.9h4.5v1.9h-6.5v-9.7h6.5V134.4z"/>
		<polygon class="st2" points="118.2,62 125.1,50.7 122.1,43.9 117,54.5 		"/>
		<path class="st2" d="M71.5,76.8c0,3.9,4.7,7.1,10.5,7.1s10.5-3.2,10.5-7.1"/>
		<path class="st1" d="M140.5,20.5c-6.4-6-8.3-4.9-13.3-2.6c-2.8,1.3-6.1,0.5-8.1-1.9c-1.5-1.9-0.3-4.4-0.4-7.5l23.7-1.4L140.5,20.5
			"/>
		<ellipse class="st4" cx="142.2" cy="22" rx="1.8" ry="4.2"/>
	</g>
</g>
</svg>
