<svg xmlns="http://www.w3.org/2000/svg" xmlns:xlink="http://www.w3.org/1999/xlink" viewBox="0 0 652.3 278.83"><defs><style>.cls-1,.cls-10,.cls-11,.cls-3,.cls-9{fill:#fff;}.cls-1,.cls-13{stroke:#00a040;stroke-miterlimit:10;stroke-width:8.22px;}.cls-13,.cls-2{fill:none;}.cls-4{fill:#379e49;}.cls-11,.cls-5,.cls-6,.cls-7,.cls-9{stroke:#379e49;}.cls-10,.cls-11,.cls-5,.cls-6,.cls-7,.cls-9{stroke-linecap:round;stroke-linejoin:round;}.cls-10,.cls-11,.cls-5,.cls-6,.cls-7{stroke-width:7.17px;}.cls-5{fill:url(#新規パターンスウォッチ_2);}.cls-6{fill:url(#新規パターンスウォッチ_2-5);}.cls-7{fill:url(#新規パターンスウォッチ_2-9);}.cls-8{fill:#379d49;}.cls-9{stroke-width:8.22px;}.cls-10{stroke:#00974b;}.cls-12{clip-path:url(#clip-path);}</style><pattern id="新規パターンスウォッチ_2" data-name="新規パターンスウォッチ 2" width="12.03" height="12.03" patternTransform="matrix(0, -0.16, 0.16, 0, -6.2, 9.03)" patternUnits="userSpaceOnUse" viewBox="0 0 12.03 12.03"><rect class="cls-2" width="12.03" height="12.03"/><rect class="cls-3" width="12.03" height="12.03"/><path class="cls-4" d="M6,2.83A2.83,2.83,0,0,0,8.85,0H3.18A2.83,2.83,0,0,0,6,2.83Z"/><path class="cls-4" d="M2.83,6A2.83,2.83,0,0,0,0,3.18V8.85A2.83,2.83,0,0,0,2.83,6Z"/><path class="cls-4" d="M6,9.19A2.84,2.84,0,0,0,3.18,12H8.85A2.84,2.84,0,0,0,6,9.19Z"/><path class="cls-4" d="M9.19,6A2.84,2.84,0,0,0,12,8.85V3.18A2.84,2.84,0,0,0,9.19,6Z"/></pattern><pattern id="新規パターンスウォッチ_2-5" data-name="新規パターンスウォッチ 2" width="12.03" height="12.03" patternTransform="matrix(0, -0.16, 0.16, 0, -11.85, 4.92)" patternUnits="userSpaceOnUse" viewBox="0 0 12.03 12.03"><rect class="cls-2" width="12.03" height="12.03"/><rect class="cls-3" width="12.03" height="12.03"/><path class="cls-4" d="M6,2.83A2.83,2.83,0,0,0,8.85,0H3.18A2.83,2.83,0,0,0,6,2.83Z"/><path class="cls-4" d="M2.83,6A2.83,2.83,0,0,0,0,3.18V8.85A2.83,2.83,0,0,0,2.83,6Z"/><path class="cls-4" d="M6,9.19A2.84,2.84,0,0,0,3.18,12H8.85A2.84,2.84,0,0,0,6,9.19Z"/><path class="cls-4" d="M9.19,6A2.84,2.84,0,0,0,12,8.85V3.18A2.84,2.84,0,0,0,9.19,6Z"/></pattern><pattern id="新規パターンスウォッチ_2-9" data-name="新規パターンスウォッチ 2" width="12.03" height="12.03" patternTransform="matrix(0, -0.16, 0.16, 0, -5.31, 2.67)" patternUnits="userSpaceOnUse" viewBox="0 0 12.03 12.03"><rect class="cls-2" width="12.03" height="12.03"/><rect class="cls-3" width="12.03" height="12.03"/><path class="cls-4" d="M6,2.83A2.83,2.83,0,0,0,8.85,0H3.18A2.83,2.83,0,0,0,6,2.83Z"/><path class="cls-4" d="M2.83,6A2.83,2.83,0,0,0,0,3.18V8.85A2.83,2.83,0,0,0,2.83,6Z"/><path class="cls-4" d="M6,9.19A2.84,2.84,0,0,0,3.18,12H8.85A2.84,2.84,0,0,0,6,9.19Z"/><path class="cls-4" d="M9.19,6A2.84,2.84,0,0,0,12,8.85V3.18A2.84,2.84,0,0,0,9.19,6Z"/></pattern><clipPath id="clip-path"><path class="cls-1" d="M201.37,139.41A135.31,135.31,0,1,0,336.67,4.11a135.29,135.29,0,0,0-135.3,135.3"/></clipPath></defs><title>flow_img-04</title><g id="レイヤー_2" data-name="レイヤー 2"><g id="REUNIQLO"><path class="cls-5" d="M511.24,140l51.79-.36c4.1,0,7.38-7.22,7.32-16.07s-3.44-16-7.54-16L511,108Z"/><ellipse class="cls-5" cx="511.13" cy="123.96" rx="7.43" ry="16.01" transform="translate(-0.85 3.55) rotate(-0.4)"/><path class="cls-6" d="M517.16,104.34,569,104c4.1,0,7.38-7.22,7.32-16.07s-3.44-16-7.54-16l-51.79.36Z"/><ellipse class="cls-6" cx="517.05" cy="88.33" rx="7.43" ry="16.01" transform="translate(-0.6 3.59) rotate(-0.4)"/><path class="cls-7" d="M533.73,131.5l51.79-.36c4.11,0,7.38-7.22,7.32-16.06s-3.44-16-7.54-16l-51.79.36Z"/><ellipse class="cls-7" cx="533.62" cy="115.49" rx="7.43" ry="16.01" transform="translate(-0.79 3.7) rotate(-0.4)"/><polygon class="cls-8" points="57.89 185.96 13.23 185.96 13.88 274.73 45.48 274.73 57.89 185.96"/><rect class="cls-9" x="41.31" y="88.68" width="83.7" height="60.16"/><polygon class="cls-9" points="162.59 141.63 125.01 148.84 125.01 88.68 162.59 88.68 162.59 141.63"/><path class="cls-10" d="M112.68,154.38,133.93,158a9.91,9.91,0,1,0,3.3-19.55L116,134.84Z"/><path class="cls-10" d="M55.06,12.54c-12.91,0-23.37,10.9-23.37,24.34a29.68,29.68,0,0,0,9.52,21.44L39.43,77.43l20,.54,1.61-15.26c9-2.49,14.13-9.84,14.43-22.91C75.86,25.13,68,12.54,55.06,12.54Z"/><path class="cls-11" d="M55.06,12.54c-12.91,0-23.37,10.9-23.37,24.34a29.68,29.68,0,0,0,9.52,21.44L39.43,77.43l20,.54,1.61-15.26c9-2.49,14.13-9.84,14.43-22.91C75.86,25.13,68,12.54,55.06,12.54Z"/><path class="cls-4" d="M58.44,30.8c-4.32-.62-5.56,4.94-5.56,11.12-3.09,6.79-4.7,17.3-4.7,17.3H37.43s-8-8-12.4-18.19c-7.8-18.09.66-38.66,24.76-36.8,12,.92,17.61.92,23.05,7.45s8,21.41-6.88,10c5.12,10.8-3.19,18.37-3.19,18.37S62.77,31.41,58.44,30.8Z"/><path class="cls-9" d="M129.39,134.22l-33-5V99.61c0-7.46-1-14.23-7.1-18.43S67.24,69.7,67.24,69.7h-34S17.29,77,11.21,81.18s-7.1,11-7.1,18.43v41.71c0,8,9.12,11.49,9.12,11.49V186H83.72V152.7l41.47,5.89Z"/><path class="cls-9" d="M73.15,143.23c0,3.44,4.22,8.57,10.57,9.47"/><path class="cls-3" d="M201.37,139.41A135.31,135.31,0,1,0,336.67,4.11a135.29,135.29,0,0,0-135.3,135.3"/><g class="cls-12"><path class="cls-4" d="M183.42,18H307.19a14.56,14.56,0,0,1,15.93,12.88A7.37,7.37,0,0,0,333.07,37l2.56-1.53A14.32,14.32,0,0,1,357.29,46.7l.18,2.66a14.32,14.32,0,0,1-13.29,15.29L323.25,66.1a18,18,0,0,0-18.93,13.16l-9.62,34.83a13.18,13.18,0,0,1-18.11,8.53l-2.1-.93a12.51,12.51,0,0,0-16,5.32l-3.66,6.54a22,22,0,0,0-2.69,12.68l.53,5.72a12.39,12.39,0,0,1-7.9,12.68l-.22.08a12.75,12.75,0,0,1-14.8-4.24c-13.68-18.25-45.24,53.79-45.24,53.79Z"/><path class="cls-4" d="M476.81,14.59c-1.48.49-57.79,8.89-86,13.09A18.5,18.5,0,0,0,375,46v4a18.52,18.52,0,0,0,17.28,18.49L415.75,70A14.31,14.31,0,0,1,428.81,81.4l1.08,5.21a26.33,26.33,0,0,0,20.66,20.46L494,115.69Z"/><path class="cls-4" d="M523.41,157.16l-57.78-14.84a16.47,16.47,0,0,0-19.48,10.08L445,155.32a16.43,16.43,0,0,0,5,18.6l59.54,48.66Z"/><path class="cls-4" d="M348.83,191.07l-5.32,35.67a12.29,12.29,0,0,0,9.69,13.85l4.05.83a12.29,12.29,0,0,0,11.84-4.08l2.91-3.43a12.29,12.29,0,0,1,10.56-4.28l15.13,1.48A12.31,12.31,0,0,0,410.78,222l4.9-18.81a12.29,12.29,0,0,0-10-15.25l-1.4-.22a12.31,12.31,0,0,0-10.76,3.64A12.29,12.29,0,0,1,374,188.88l-.87-1.54a12.28,12.28,0,0,0-6.46-5.48l-1.43-.52A12.28,12.28,0,0,0,348.83,191.07Z"/><path class="cls-4" d="M259.33,186.64h0a5,5,0,0,1,5.73-.7l10.08,5.45a5,5,0,0,1,1.27,7.77L273.72,202a5,5,0,0,1-7.36-.09L259,193.61A5,5,0,0,1,259.33,186.64Z"/><path class="cls-4" d="M321.21,105.69h0a8.15,8.15,0,0,1,2.89,10.67l-7,13.33a8.14,8.14,0,0,1-11,3.43l-.45-.23a8.15,8.15,0,0,1-3.28-11.22l7.4-13.09A8.15,8.15,0,0,1,321.21,105.69Z"/><path class="cls-4" d="M341.42,84l1.92,2.12a6.06,6.06,0,0,1,.33,7.74l-1.84,2.41a6.06,6.06,0,0,1-7.75,1.63l-3-1.64a6.06,6.06,0,0,1-1.36-9.59l2.89-2.89A6.06,6.06,0,0,1,341.42,84Z"/><path class="cls-4" d="M285.29,127h0a6.8,6.8,0,0,0-9.34,3.89L274,136.31a6.8,6.8,0,0,0,3.78,8.53l1.28.53a6.8,6.8,0,0,0,9.39-5.55l.64-6A6.8,6.8,0,0,0,285.29,127Z"/></g><path class="cls-13" d="M201.37,139.41A135.31,135.31,0,1,0,336.67,4.11a135.29,135.29,0,0,0-135.3,135.3"/><polygon class="cls-9" points="61.31 58.45 33.27 54.42 33.27 69.7 61.31 69.7 61.31 58.45"/><polygon class="cls-8" points="83.72 185.96 36.23 185.96 59.98 274.73 92.11 274.73 83.72 185.96"/><polygon class="cls-8" points="594.41 185.96 639.06 185.96 638.42 274.73 606.82 274.73 594.41 185.96"/><path class="cls-10" d="M539.62,154.38,518.37,158a9.91,9.91,0,1,1-3.3-19.55l21.25-3.58Z"/><path class="cls-10" d="M597.24,12.54c12.9,0,23.37,10.9,23.37,24.34a29.68,29.68,0,0,1-9.52,21.44l1.78,19.11-20,.54-1.61-15.26c-9-2.49-14.13-9.84-14.43-22.91C576.43,25.13,584.33,12.54,597.24,12.54Z"/><path class="cls-11" d="M597.24,12.54c12.9,0,23.37,10.9,23.37,24.34a29.68,29.68,0,0,1-9.52,21.44l1.78,19.11-20,.54-1.61-15.26c-9-2.49-14.13-9.84-14.43-22.91C576.43,25.13,584.33,12.54,597.24,12.54Z"/><path class="cls-4" d="M593.86,30.8c4.32-.62,5.56,4.94,5.56,11.12,3.09,6.79,4.7,17.3,4.7,17.3h10.75s8-8,12.4-18.19c7.79-18.09-.67-38.66-24.76-36.8-12,.92-17.61.92-23,7.45s-8,21.41,6.88,10c-5.12,10.8,3.19,18.37,3.19,18.37S589.53,31.41,593.86,30.8Z"/><path class="cls-9" d="M522.91,134.22l33-5V99.61c0-7.46,1-14.23,7.1-18.43S585.06,69.7,585.06,69.7h34S635,77,641.09,81.18s7.1,11,7.1,18.43v41.71c0,8-9.13,11.49-9.13,11.49V186H568.58V152.7l-41.47,5.89Z"/><path class="cls-9" d="M579.15,143.23c0,3.44-4.22,8.57-10.57,9.47"/><polygon class="cls-9" points="590.99 58.45 619.03 54.42 619.03 69.7 590.99 69.7 590.99 58.45"/><polygon class="cls-8" points="568.58 185.96 616.07 185.96 592.32 274.73 560.19 274.73 568.58 185.96"/></g></g></svg>