<svg xmlns="http://www.w3.org/2000/svg" viewBox="0 0 171.31 198.27"><defs><style>.cls-1{fill:#fff;stroke:#379e49;stroke-linecap:round;stroke-linejoin:round;stroke-width:4.89px;}.cls-2{fill:#379e49;}</style></defs><title>flow_img-03-02</title><g id="レイヤー_2" data-name="レイヤー 2"><g id="REUNIQLO"><polygon class="cls-1" points="168.87 195.82 161.57 42.63 113.79 88.64 111.6 42.63 65.65 86.88 61.63 2.44 11.66 2.44 2.44 195.82 168.87 195.82"/><path class="cls-2" d="M123.72,150l-9.87-17.1a1.27,1.27,0,0,0-1.08-.62,1.26,1.26,0,0,0-.63.16l-10.94,6.32a1.27,1.27,0,0,0-.58.76,1.23,1.23,0,0,0,.13.94l9.75,16.89H87.27a1.25,1.25,0,0,0-1.1.65,1.23,1.23,0,0,0,0,1.27l13,20a1.24,1.24,0,0,0,1,.56,1.36,1.36,0,0,0,.36,0,1.25,1.25,0,0,0,.89-1.2v-6.1h9.37a7,7,0,0,0,3.14-.88,7.26,7.26,0,0,0,2.4-2.35L123.53,157l0-.06A6.71,6.71,0,0,0,123.72,150Zm-8.2,11.86-2.78,4.8,0,0a3,3,0,0,1-.93,1,2.59,2.59,0,0,1-1.09.28H97.28l-4-6.12Z"/><path class="cls-2" d="M72.61,107.1l-9.87,17.11a1.2,1.2,0,0,0,0,1.24,1.24,1.24,0,0,0,.45.46l10.94,6.32a1.26,1.26,0,0,0,1.71-.46l9.75-16.89.39.68C90.28,123,97.21,135,97.21,135a1.24,1.24,0,0,0,1.11.62,1.26,1.26,0,0,0,1.08-.68l10.79-21.28a1.24,1.24,0,0,0,0-1.18,1.25,1.25,0,0,0-1.71-.46l-5.28,3.06-4.61-8,0,0,0,0v0a6.65,6.65,0,0,0-5.57-3.18H78.66A6.7,6.7,0,0,0,72.61,107.1ZM87,108.28h5.6a2.86,2.86,0,0,1,1.32.31,2.61,2.61,0,0,1,.79.8L101.4,121l-3.3,6.53Z"/><path class="cls-2" d="M61,172.83H80.74a1.26,1.26,0,0,0,1.09-.63,1.33,1.33,0,0,0,.16-.62V159a1.25,1.25,0,0,0-1.25-1.25H61.25l.39-.68,11.21-19.44a1.24,1.24,0,0,0-1.14-1.87L47.89,137a1.25,1.25,0,0,0-1,.62,1.43,1.43,0,0,0-.14.34,1.28,1.28,0,0,0,.59,1.37l5.29,3-4.61,8,0,0,0,0v0a7.08,7.08,0,0,0-.82,3.16A7.15,7.15,0,0,0,48,156.9l7.1,12.28a.16.16,0,0,0,0,.06A6.71,6.71,0,0,0,61,172.83Zm-6.16-13L52.06,155l0,0a2.86,2.86,0,0,1-.39-1.31,2.43,2.43,0,0,1,.3-1.08l6.71-11.62,7.3-.41Z"/></g></g></svg>