<?xml version="1.0" encoding="utf-8"?>
<!-- Generator: Adobe Illustrator 24.1.2, SVG Export Plug-In . SVG Version: 6.00 Build 0)  -->
<svg version="1.1" id="レイヤー_1" xmlns="http://www.w3.org/2000/svg" xmlns:xlink="http://www.w3.org/1999/xlink" x="0px"
	 y="0px" viewBox="0 0 365.3 145" style="enable-background:new 0 0 365.3 145;" xml:space="preserve">
<style type="text/css">
	.st0{fill:#379E49;}
	.st1{fill:none;stroke:#379E49;stroke-width:7;stroke-miterlimit:10;}
</style>
<g id="レイヤー_2_1_">
	<g id="REUNIQLO">
		<path class="st0" d="M71.8,22.9C86.9,22.8,99.2,35,99.4,50.1c0,0.2,0,0.4,0,0.5c0,7.9-3.2,15.4-8.8,20.8
			c5.6,5.5,8.8,13.5,8.8,22.9c0,16.2-11.7,28.4-27.5,28.4c-15.2-0.1-27.4-12.4-27.4-27.6h16.3c0.1,6.1,5,11,11.1,11.3
			c6.6,0,11.2-4.6,11.2-12.1c0-8-4.4-13.6-8.3-14.9c-1.3-0.4-2.7-0.6-4.1-0.6h-6V62.7h6c7.4,0,12.4-4.8,12.4-12.1
			c0.2-6.1-4.5-11.2-10.6-11.4c-0.2,0-0.4,0-0.6,0c-6.2,0.1-11.1,5.1-11.1,11.2H44.4C44.4,35.3,56.7,23,71.8,22.9z"/>
		<circle class="st1" cx="72.5" cy="72.5" r="69"/>
	</g>
</g>
</svg>
