<?xml version="1.0" encoding="utf-8"?>
<!-- Generator: Adobe Illustrator 23.1.0, SVG Export Plug-In . SVG Version: 6.00 Build 0)  -->
<svg version="1.1" id="レイヤー_1" xmlns="http://www.w3.org/2000/svg" xmlns:xlink="http://www.w3.org/1999/xlink" x="0px"
	 y="0px" viewBox="0 0 189.8 161.5" style="enable-background:new 0 0 189.8 161.5;" xml:space="preserve">
<style type="text/css">
	.st0{clip-path:url(#SVGID_2_);}
	.st1{fill:#FFFFFF;stroke:#379E49;stroke-width:4.89;stroke-linecap:round;stroke-linejoin:round;}
	.st2{fill:#379E49;}
	.st3{fill:#379E49;stroke:#379E49;stroke-width:2.38;stroke-linecap:round;stroke-linejoin:round;}
	.st4{fill:#379D49;}
	.st5{fill:#FFFFFF;stroke:#379E49;stroke-width:5.6;stroke-linecap:round;stroke-linejoin:round;}
</style>
<title>アセット 6</title>
<g>
	<g id="REUNIQLO">
		<g>
			<defs>
				<rect id="SVGID_1_" x="-12.4" y="-8.9" width="216.7" height="170.4"/>
			</defs>
			<clipPath id="SVGID_2_">
				<use xlink:href="#SVGID_1_"  style="overflow:visible;"/>
			</clipPath>
			<g class="st0">
				<polygon class="st1" points="164.9,128.5 76.8,128.5 89.4,87.1 177.6,87.1 				"/>
				<polygon class="st2" points="151.9,117.4 96,117.4 102.5,96.4 158.4,96.4 				"/>
				<rect x="76.8" y="128.5" class="st1" width="88.2" height="86.2"/>
				<polygon class="st1" points="187.4,202.9 164.9,214.7 164.9,128.5 177.6,87.1 187.4,93.3 				"/>
				<path class="st3" d="M130.9,198.4h8.5c0.7,0,1.4-0.2,2.1-0.6c0.6-0.4,1.2-0.9,1.6-1.6l5.7-9.9l0,0c0.9-1.4,0.9-3.1,0.1-4.6
					l-8-13.8l-8.8,5.1l8.7,15.1h-20.5l10.5,16.1L130.9,198.4z M123.4,189.9h21.5l-3.1,5.4l0,0c-0.3,0.5-0.7,0.9-1.1,1.2
					c-0.4,0.2-0.9,0.3-1.4,0.4h-10v2.1L123.4,189.9z"/>
				<path class="st3" d="M132.5,154.3l-4.2-7.3l0,0c-0.4-0.6-0.9-1.1-1.5-1.5c-0.7-0.4-1.4-0.6-2.1-0.6h-11.4
					c-1.6-0.1-3.2,0.8-4,2.2l-8,13.8l8.8,5.1l8.7-15.2l10.2,17.7l8.7-17.1L132.5,154.3z M128.8,165c-2.4-4.2-10.7-18.6-10.8-18.6
					h6.3c0.5,0,1.1,0.1,1.6,0.4c0.4,0.3,0.7,0.6,1,1l5,8.7l1.8-1L128.8,165z"/>
				<path class="st3" d="M93.4,175l-4.2,7.3l0,0c-0.3,0.6-0.5,1.4-0.6,2.1c0,0.8,0.2,1.5,0.6,2.2l5.7,9.9l0,0
					c0.8,1.5,2.2,2.4,3.9,2.4h15.9v-10.1H97.3c3.2-5.5,10.2-17.7,10.2-17.7l-19.2,1L93.4,175z M104.7,172.8
					c-2.4,4.2-10.7,18.6-10.8,18.6l-3.1-5.4l0,0c-0.3-0.5-0.4-1-0.4-1.5c0-0.5,0.1-0.9,0.4-1.4l5-8.7l-1.8-1L104.7,172.8z"/>
				<path class="st2" d="M115.7,181.8l-1.2-3.5h-1.6v3.5h-2.1v-10.5h3.5c1.9,0,3.5,1.5,3.5,3.5c0,0,0,0,0,0c0,1.1-0.5,2.1-1.4,2.8
					l1.4,4.2H115.7z M114.3,176.3c0.8,0,1.4-0.6,1.4-1.4c0-0.8-0.6-1.4-1.4-1.4h-1.4v2.8H114.3z"/>
				<polygon class="st2" points="126.7,173.5 121.8,173.5 121.8,175.6 125.7,175.6 125.7,177.7 121.8,177.7 121.8,179.8 
					126.7,179.8 126.7,181.8 119.7,181.8 119.7,171.4 126.7,171.4 				"/>
				<rect x="128.5" y="179.8" class="st2" width="2.1" height="2.1"/>
				<path class="st4" d="M67.7,199.3V92.9c0-1.1-0.9-2-2-2H10.9c-1.1,0-2,0.9-2,2v106.4H67.7z"/>
				<rect x="69.7" y="94.8" class="st1" width="48.9" height="11.5"/>
				<rect x="69.7" y="83.3" class="st1" width="48.9" height="11.5"/>
				<rect x="69.7" y="71.7" class="st1" width="48.9" height="11.5"/>
				<rect x="69.7" y="60.2" class="st1" width="48.9" height="11.5"/>
				<path class="st1" d="M89.4,119.8l16.9,2.9c4.3,0.7,8.4-2.2,9.1-6.5c0.7-4.3-2.2-8.4-6.5-9.1l0,0L92,104.2L89.4,119.8z"/>
				<path class="st1" d="M43.4,6.7c-10.3,0-18.6,8.7-18.6,19.4c0.1,6.5,2.8,12.7,7.6,17.1L31,58.5l16,0.4l1.3-12.2
					c7.1-2,11.3-7.8,11.5-18.3C60,16.8,53.7,6.7,43.4,6.7z"/>
				<path class="st1" d="M43.4,6.7c-10.3,0-18.6,8.7-18.6,19.4c0.1,6.5,2.8,12.7,7.6,17.1L31,58.5l16,0.4l1.3-12.2
					c7.1-2,11.3-7.8,11.5-18.3C60,16.8,53.7,6.7,43.4,6.7z"/>
				<path class="st2" d="M46.1,21.3c-3.5-0.5-4.5,3.9-4.5,8.9c-2.5,5.4-3.8,13.8-3.8,13.8h-8.5c-4.1-4.3-7.4-9.2-9.9-14.5
					C13.3,15,20-1.4,39.2,0.1c9.5,0.7,14.4,4.9,21.7,4c0,0,1,5.9-8.8,10c2.4,4.9,1.4,10.8-2.5,14.6C49.6,28.7,49.6,21.8,46.1,21.3z"
					/>
				<path class="st5" d="M102.7,103.7l-26.3-4V76.2c0-6-0.8-11.3-5.7-14.7s-17.6-9.2-17.6-9.2h-27c0,0-12.7,5.9-17.6,9.2
					s-5.7,8.7-5.7,14.7v33.2c0,6.4,7.3,9.2,7.3,9.2V145h56.2v-26.5l33.1,4.7L102.7,103.7z"/>
				<path class="st5" d="M57.8,110.9c0,2.8,3.4,6.8,8.4,7.6"/>
			</g>
		</g>
	</g>
</g>
</svg>
