<svg xmlns="http://www.w3.org/2000/svg" viewBox="0 0 189.81 121.39"><defs><style>.cls-1{fill:none;}.cls-1,.cls-2,.cls-3{stroke:#379e49;stroke-linecap:round;stroke-linejoin:round;stroke-width:3.06px;}.cls-2,.cls-4{fill:#fff;}.cls-3,.cls-5{fill:#379e49;}</style></defs><title>flow_img-03-01</title><g id="レイヤー_2" data-name="レイヤー 2"><g id="REUNIQULO"><path class="cls-1" d="M67.48,35.38c-.3,1.18,1.44,3.43,6.23,3.79,3.09.23,5.64-3.43,4.71-4.24"/><path class="cls-2" d="M49.4,46s3.83-11.32,4.48-13.14c.82-2.3,1.61-3.15,3.88-3.49L62,28.71l2.87.57a11.37,11.37,0,0,1,.3-1.7,32.38,32.38,0,0,1,3.81,0l1.79-4.87c-2.61-2.1-3.89-5.7-2.82-10,1.47-5.87,6.11-8,10.86-6.85S86.57,11.16,85.1,17c-1.08,4.28-4.24,8.17-7.53,8.79l-.39,3.8c1.1.5.54.69,1.68,1.42-.07.31-.14.65-.19,1l.63.13,5.22,4.06c1.5,1.17,1.89,2.32,2.08,4.71l1,12.35L75.71,80,45.5,72.41,52.35,56.8Z"/><path class="cls-3" d="M67.55,16.48S64,6.8,68.77,3.62C77-1.87,87.11,4.89,87.18,7.73a31.88,31.88,0,0,1-1.85,8.92,40.28,40.28,0,0,0,1-7.13l-7.2-1.81S68.93,12,67.55,16.48Z"/><ellipse class="cls-4" cx="70.81" cy="14.01" rx="3.25" ry="1.76" transform="translate(39.99 79.28) rotate(-75.92)"/><polyline class="cls-2" points="71.61 30.94 71.61 30.94 73.09 36.88"/><polygon class="cls-2" points="64.28 37.54 71.61 30.94 66.97 25 63.06 27.57 64.28 37.54"/><line class="cls-2" x1="75.94" y1="32.02" x2="73.09" y2="36.88"/><polygon class="cls-2" points="79.04 37.79 75.94 32.02 78.75 28.42 81.21 33.64 79.04 37.79"/><polygon class="cls-2" points="95.51 72.48 123.74 72.48 127.53 63.97 99.3 63.97 95.51 72.48"/><rect class="cls-2" x="80.4" y="57.93" width="30.68" height="7.23"/><rect class="cls-2" x="80.4" y="50.7" width="30.68" height="7.23"/><rect class="cls-2" x="80.4" y="65.15" width="30.68" height="7.23"/><rect class="cls-2" x="1.53" y="72.48" width="65.92" height="47.38"/><polygon class="cls-2" points="88.65 114.18 67.45 119.86 67.45 72.48 88.65 72.48 88.65 114.18"/><path class="cls-5" d="M75,105.54V91.26l-.71.08V87.78l2.12-.26v17.85Z"/><path class="cls-5" d="M78.48,95.73A10.34,10.34,0,0,1,78,92.46V92.3c0-2.84.89-5.26,2-5.4s2,2.06,2,4.91V92a10.9,10.9,0,0,1-.48,3.39,10.25,10.25,0,0,1,.62,3.79v.18c0,3.06-1,5.64-2.15,5.78s-2.13-2.2-2.13-5.25v-.18A11.6,11.6,0,0,1,78.48,95.73ZM80,101.65c.44-.05.81-1,.81-2.15v-.18c0-1.13-.37-2-.82-1.95s-.78,1-.78,2.15v.18C79.21,100.82,79.56,101.7,80,101.65Zm0-7.75c.37,0,.66-.85.66-1.77V92c0-.93-.29-1.66-.66-1.61s-.65.84-.65,1.77v.15C79.35,93.21,79.65,94,80,93.9Z"/><polygon class="cls-2" points="107.31 109.18 88.65 114.18 88.65 72.48 107.31 72.48 107.31 109.18"/><path class="cls-5" d="M95.33,101.58V89l-.62.07V86l1.87-.23v15.71Z"/><path class="cls-5" d="M100.19,88.41l-2.28.28V85.55l3.53-.43v3.14l-1.87,12.8-1.25.15Z"/><polygon class="cls-2" points="123.74 104.78 107.31 109.18 107.31 72.48 123.74 72.48 123.74 104.78"/><path class="cls-5" d="M113.2,98.09V87l-.56.06V84.33l1.65-.2V98Z"/><path class="cls-5" d="M118.68,92.77v.63c0,2.29-.74,4.25-1.64,4.36s-1.65-1.67-1.65-4v-.64a15.28,15.28,0,0,1,.25-2.35l1.21-7,1.09-.14-.88,5.17C118,88.74,118.68,90.52,118.68,92.77ZM117,95c.31,0,.55-.69.55-1.46V92.9c0-.81-.23-1.34-.54-1.3s-.55.66-.55,1.44v.63C116.49,94.45,116.72,95,117,95Z"/><polygon class="cls-2" points="138.19 100.91 123.74 104.78 123.74 72.48 138.19 72.48 138.19 100.91"/><path class="cls-5" d="M128.92,95V85.28l-.49.06V82.91l1.45-.18V94.9Z"/><path class="cls-5" d="M133.61,82.28v2.43l-1.8.22v1.45a.75.75,0,0,1,.5-.29c.81-.1,1.47,1.46,1.47,3.47v1.33c0,2-.66,3.74-1.46,3.83s-1.41-1.34-1.44-3.47l1-.12c0,.71.21,1.2.48,1.16s.48-.58.48-1.28V89.68c0-.75-.2-1.2-.49-1.16s-.44.44-.48,1l-1,.12v-7Z"/><polygon class="cls-2" points="150.91 97.5 138.19 100.91 138.19 72.48 150.91 72.48 150.91 97.5"/><path class="cls-5" d="M142.75,92.32V83.75l-.43,0V81.66l1.28-.16V92.21Z"/><path class="cls-5" d="M145.92,90.64l-1.53.18V88.89l1.3-7.64,1.05-.13v7.35l.34,0v2.06l-.34.05v1.29l-.82.1Zm0-6.31-.7,4.33.7-.09Z"/><polygon class="cls-2" points="162.11 94.5 150.91 97.5 150.91 72.48 162.11 72.48 162.11 94.5"/><path class="cls-5" d="M154.93,89.94V82.4l-.38,0V80.56l1.12-.14v9.43Z"/><path class="cls-5" d="M158.38,84.8a5.27,5.27,0,0,1,.29,1.85v.11c0,1.54-.51,2.88-1.13,2.95s-1.12-1.13-1.12-2.69l.75-.09c0,.55.16.93.37.9s.37-.48.37-1v-.11c0-.58-.16-.91-.37-.89l-.37.05V84l.37,0c.21,0,.37-.43.37-1v-.11c0-.54-.16-.92-.37-.89s-.37.44-.37,1l-.75.1c0-1.52.49-2.9,1.12-3s1.13,1.13,1.13,2.68v.1A6.3,6.3,0,0,1,158.38,84.8Z"/><polygon class="cls-2" points="171.97 91.86 162.11 94.5 162.11 72.48 171.97 72.48 171.97 91.86"/><path class="cls-5" d="M165.65,87.85V81.21l-.34,0V79.59l1-.12v8.3Z"/><path class="cls-5" d="M167,81.8c0-1.37.44-2.55,1-2.61s1,1,1,2.37a5,5,0,0,1-.24,1.52l-.91,2.85,1.15-.14v1.65l-2,.25V86.12l1.19-3.79a2.28,2.28,0,0,0,.13-.69c0-.47-.15-.82-.33-.8s-.33.41-.33.88v.08l-.66.08Z"/><polygon class="cls-2" points="180.64 89.54 171.97 91.86 171.97 72.48 180.64 72.48 180.64 89.54"/><path class="cls-5" d="M175.08,86V80.16l-.29,0V78.74l.87-.11v7.3Z"/><path class="cls-5" d="M176.85,85.79V79.94l-.29,0V78.52l.87-.11v7.31Z"/><polygon class="cls-2" points="188.28 87.5 180.64 89.54 180.64 72.48 188.28 72.48 188.28 87.5"/><path class="cls-5" d="M183.38,84.38V79.24l-.26,0V78l.77-.09v6.42Z"/><path class="cls-5" d="M185.16,84.23c-.41,0-.76-.77-.76-1.84V79.7c0-1.06.35-2,.76-2s.77.78.77,1.84v2.7C185.93,83.27,185.59,84.18,185.16,84.23Zm0-1.28c.15,0,.26-.32.26-.68v-2.7c0-.36-.12-.63-.25-.61s-.26.31-.26.67v2.7C184.91,82.69,185,83,185.16,83Z"/><path class="cls-5" d="M25.46,106.41V92.12H23.67V88.56H29v17.85Z"/><path class="cls-5" d="M36.18,97A5.21,5.21,0,0,1,35,93.69v-.16a5,5,0,1,1,10.08,0v.16A4.86,4.86,0,0,1,43.88,97a5.33,5.33,0,0,1,1.56,3.87v.18a5.4,5.4,0,1,1-10.8,0v-.18A5.44,5.44,0,0,1,36.18,97Zm3.85,6.1a2.06,2.06,0,0,0,2-2.05v-.18a2.06,2.06,0,0,0-2.06-2,2,2,0,0,0-2,2v.18A2,2,0,0,0,40,103.12Zm0-7.74a1.69,1.69,0,0,0,1.67-1.69v-.16a1.66,1.66,0,1,0-3.31,0v.16A1.68,1.68,0,0,0,40,95.38Z"/><path class="cls-2" d="M58.93,49.82,77.06,64.87,71.43,70.7,52.35,56.8c-3.68-2.26-5.21-4.23-4.26-7s6.07-17.69,6.07-17.69"/><polygon class="cls-2" points="107.31 72.48 68.32 72.48 62.56 61.35 101.55 61.35 107.31 72.48"/></g></g></svg>