<svg xmlns="http://www.w3.org/2000/svg" viewBox="0 0 1170.09 102.18"><defs><style>.cls-1{fill:#251e1c;}.cls-2{fill:red;}</style></defs><g id="レイヤー_2" data-name="レイヤー 2"><g id="TOP"><path class="cls-1" d="M23.68,13.08c-5.52,0-9.81,4-9.81,9.25a8.31,8.31,0,0,0,5,8l14.89,7.22c8.46,4.06,12.86,10.26,12.86,19.85,0,12.63-10.15,22.67-23.12,22.67C13.2,80.08,4.4,73.76,0,63.84l12.29-5C14.89,64.29,18.83,67,23.68,67c5.76,0,9.82-3.94,9.82-9.36,0-4.62-1.92-6.54-5-8L13.65,42.41C5.53,38.46.79,32,.79,22.67A22.84,22.84,0,0,1,23.91,0C34.4,0,43,5.86,47.37,16.24l-12.18,5Q31.12,13.09,23.68,13.08Z"/><path class="cls-1" d="M88.12,75.68A16.69,16.69,0,0,1,77.3,79.29c-11.73,0-20.3-9-20.3-21.21V23.68H68.5v34.4a9.81,9.81,0,1,0,19.62,0V23.68h11.4V79.29H88.12Z"/><path class="cls-1" d="M126,68.46a4.83,4.83,0,0,0,5.18-4.85c0-2.59-1-3.61-3.16-4.85l-9.36-5a16.28,16.28,0,0,1,7.9-30.68,19.45,19.45,0,0,1,17.71,11.5l-10.38,5a8.06,8.06,0,0,0-7.33-5,5,5,0,0,0-5.19,4.74c0,1.81,1,3.61,3.38,4.85l9.37,5c4.62,2.37,8.57,6.77,8.57,14.33a16.41,16.41,0,0,1-16.58,16.35,19.81,19.81,0,0,1-17.71-11.5l10.49-5C120.62,66.54,123.21,68.46,126,68.46Z"/><path class="cls-1" d="M169.52.79V23.68h11.39V35.19H169.52V62.93a4.81,4.81,0,0,0,4.85,4.85h3.27V79.29h-3.27A16.37,16.37,0,0,1,158,62.93V35.19h-6.54V23.68H158V.79Z"/><path class="cls-1" d="M210.35,34.51a9.81,9.81,0,0,0-9.13,6.21l-10.49-4.4a21,21,0,0,1,19.62-13.2,21.21,21.21,0,0,1,21.21,21.32V79.29H220.17V75.68a14,14,0,0,1-10,3.61h-4.74a16.36,16.36,0,0,1,0-32.71h14.78V44.44A9.92,9.92,0,0,0,210.35,34.51Zm-9.81,28.42a4.81,4.81,0,0,0,4.85,4.85h4.74c5.41,0,10-4.06,10-9.13V58H205.39A4.84,4.84,0,0,0,200.54,62.93Z"/><path class="cls-1" d="M256.52,12.29H245V.79h11.51Zm0,67H245V23.68h11.51Z"/><path class="cls-1" d="M282,27.29a16.34,16.34,0,0,1,10.83-3.61c9.59,0,20.19,6.77,20.19,21.32V79.29H301.67V45A9.82,9.82,0,1,0,282,45V79.29h-11.5V23.68H282Z"/><path class="cls-1" d="M346.48,34.51a9.8,9.8,0,0,0-9.13,6.21l-10.49-4.4a21,21,0,0,1,19.62-13.2,21.2,21.2,0,0,1,21.2,21.32V79.29H356.29V75.68a14,14,0,0,1-10,3.61h-4.74a16.36,16.36,0,0,1,0-32.71h14.77V44.44A9.91,9.91,0,0,0,346.48,34.51Zm-9.81,28.42a4.81,4.81,0,0,0,4.85,4.85h4.74c5.41,0,10-4.06,10-9.13V58H341.52A4.84,4.84,0,0,0,336.67,62.93Z"/><path class="cls-1" d="M392.2,27.29a17.1,17.1,0,0,1,10.71-3.61c11.39,0,20.3,9.14,20.3,21.21V58.08c0,12.18-8.57,21.21-20,21.21a16.93,16.93,0,0,1-11.05-3.61v3.61H380.69V.79H392.2ZM402,35.08a9.81,9.81,0,0,0-9.81,9.81V58.08a9.81,9.81,0,1,0,19.62,0V44.89A9.81,9.81,0,0,0,402,35.08Z"/><path class="cls-1" d="M446.71,12.29H435.2V.79h11.51Zm0,67H435.2V23.68h11.51Z"/><path class="cls-1" d="M477.53,67.78h3.27V79.29h-3.27a16.36,16.36,0,0,1-16.35-16.36V.79h11.5v62A4.84,4.84,0,0,0,477.53,67.78Z"/><path class="cls-1" d="M501.64,12.29H490.13V.79h11.51Zm0,67H490.13V23.68h11.51Z"/><path class="cls-1" d="M531.15.79V23.68h11.39V35.19H531.15V62.93A4.82,4.82,0,0,0,536,67.78h3.27V79.29H536a16.36,16.36,0,0,1-16.35-16.36V35.19h-6.54V23.68h6.54V.79Z"/><path class="cls-1" d="M561.46,23.68l12.29,36.89,12.41-36.89h11.39L574.88,91.13c-2.26,6.88-8.57,10.71-16.58,11.05V90.79c3.72-.34,5.87-1.69,6.66-4.06l3-9.13L550.07,23.68Z"/><path class="cls-1" d="M685.53,27A26.2,26.2,0,0,1,671.1,50.41l14.43,28.88H672.45L659.37,53.12H646.28V79.29H633.2V.79h26.17A26,26,0,0,1,685.53,27Zm-13.08,0a12.82,12.82,0,0,0-13.08-13.09H646.28V40h13.09A13.1,13.1,0,0,0,672.45,27Z"/><path class="cls-1" d="M714.45,68.35a10.27,10.27,0,0,0,7.33-3l8,8a20.37,20.37,0,0,1-15.33,6.54,21.35,21.35,0,0,1-21.21-21.31V44.44a21.26,21.26,0,1,1,42.52,0V55.83h-31v2.71A9.79,9.79,0,0,0,714.45,68.35Zm.11-33.84a9.84,9.84,0,0,0-9.81,9.93h19.62C724,38.69,720,34.51,714.56,34.51Z"/><path class="cls-1" d="M746,102.18V23.68h11.5v3.61a17.14,17.14,0,0,1,10.72-3.61c11.39,0,20.3,9.25,20.3,21.32V58.08c0,12.18-8.57,21.21-20,21.21a17,17,0,0,1-11.06-3.61v26.5Zm21.32-67.1A9.84,9.84,0,0,0,757.54,45V58.08a9.82,9.82,0,1,0,19.63,0V45A9.84,9.84,0,0,0,767.36,35.08Z"/><path class="cls-1" d="M818.54,23.12a21.2,21.2,0,0,1,21.2,21.32v14.1a21.26,21.26,0,1,1-42.52,0V44.44A21.38,21.38,0,0,1,818.54,23.12Zm0,11.39a9.84,9.84,0,0,0-9.81,9.93v14.1a9.81,9.81,0,1,0,19.62,0V44.44A9.85,9.85,0,0,0,818.54,34.51Z"/><path class="cls-1" d="M871.88,23.68a20.34,20.34,0,0,1,14.55,6.43l-8.12,8a9.26,9.26,0,0,0-7-2.93A9.82,9.82,0,0,0,861.5,45V79.29H850V23.68h11.5v3.61A16.42,16.42,0,0,1,871.88,23.68Z"/><path class="cls-1" d="M910.59.79V23.68H922V35.19H910.59V62.93a4.81,4.81,0,0,0,4.85,4.85h3.27V79.29h-3.27a16.37,16.37,0,0,1-16.36-16.36V35.19h-6.54V23.68h6.54V.79Z"/><path class="cls-2" d="M988.79,22.22a9,9,0,1,0-18-.11H957.66a22.11,22.11,0,1,1,44.21.22c0,5.75-1.8,9.59-6,14.89l-23.46,29h29.44V79.29H957.66V66.2l27.63-36C987.89,27.07,988.79,24.81,988.79,22.22Z"/><path class="cls-2" d="M1036.65,0a22.16,22.16,0,0,1,22.1,22.22V57.86a22.11,22.11,0,1,1-44.21,0V22.22A22.17,22.17,0,0,1,1036.65,0Zm0,67a9,9,0,0,0,9-9V22.11a9,9,0,1,0-18,0V58A9,9,0,0,0,1036.65,67Z"/><path class="cls-2" d="M1102.26,22.22a9,9,0,1,0-18-.11h-13.08a22.11,22.11,0,1,1,44.21.22c0,5.75-1.81,9.59-6,14.89l-23.46,29h29.44V79.29h-44.21V66.2l27.63-36C1101.36,27.07,1102.26,24.81,1102.26,22.22Z"/><path class="cls-2" d="M1157,22.22a9,9,0,1,0-18-.11h-13.08a22.11,22.11,0,1,1,44.21.22c0,5.75-1.8,9.59-6,14.89l-23.46,29h29.43V79.29h-44.21V66.2l27.63-36C1156.11,27.07,1157,24.81,1157,22.22Z"/></g></g></svg>