<svg width="150" height="112" viewBox="0 0 150 112" fill="none" xmlns="http://www.w3.org/2000/svg">
<g clip-path="url(#clip0_2012_2319)">
<path d="M13.4734 46.9925C11.8736 51.5183 12.713 55.0283 12.4697 55.6488C9.09852 56.708 3.50606 59.7872 1.20219 69.0103C-0.371569 75.3106 -0.758218 79.0021 3.05913 86.0887C5.33421 90.3104 8.90501 91.7947 9.46465 92.4882C10.0243 93.1816 9.50724 97.3607 13.3944 100.414C15.8884 102.373 17.9384 102.483 20.031 102.483C20.031 102.483 28.8272 106.479 47.326 106.479C66.9988 106.479 74.7852 102.093 74.7852 102.093C74.7852 102.093 80.5338 102.945 84.3418 98.109C87.6875 93.8629 86.3675 90.499 86.5926 89.7629C86.8176 89.0269 93.7524 84.4767 92.8521 73.083C91.818 59.913 81.9329 56.5491 81.5983 56.0138C81.2577 55.4724 82.1093 51.9624 80.6311 47.4305C79.8768 45.1189 78.5993 42.6735 76.4702 40.5809C69.2252 33.4575 60.3865 34.7107 56.256 35.9881C50.1242 37.88 47.2895 42.0773 46.079 44.6505C46.079 44.6505 40.9631 33.5609 27.5802 35.9942C18.8509 37.5819 15.0672 42.4788 13.4734 46.9925Z" fill="#F6BFC8"/>
<path d="M49.5952 91.9406C49.4324 92.2826 49.2532 92.6247 49.0659 92.9585C49.0089 93.0644 48.9438 93.1703 48.8786 93.268C48.8542 93.3006 48.6099 93.667 48.7158 93.5204C48.6262 93.6344 48.5285 93.7322 48.4226 93.8299C48.3982 93.838 48.276 93.9357 48.2516 93.952C48.1294 94.0172 48.1131 94.0253 48.2109 93.9683C48.162 93.9765 48.1457 93.9846 48.1294 93.9928C48.0724 93.9928 48.0154 93.9928 47.9666 93.9928C47.9584 93.9928 47.9584 93.9928 47.934 93.9928C47.8688 93.9765 47.8118 93.9602 47.7548 93.9439C47.8444 93.9928 47.8281 93.9846 47.6897 93.9195C47.6164 93.8787 47.5431 93.838 47.4698 93.7892C47.3558 93.7077 47.3314 93.6915 47.3965 93.7403C47.1848 93.5612 46.9731 93.325 46.8754 93.1866C46.6962 92.9341 46.5333 92.6572 46.3868 92.3885C46.232 92.0954 46.118 91.8511 46.0366 91.6393C45.7434 90.9064 45.5399 90.141 45.3281 89.3836C46.9649 88.7892 47.6408 87.6328 47.7386 87.6328C47.8444 87.6328 48.5529 89.009 50.4258 89.6116C50.3688 89.8396 50.3118 90.0677 50.2386 90.2957C50.0431 90.9146 49.8477 91.4276 49.5952 91.9651" fill="white"/>
<path d="M40.9958 87.4127C41.0936 88.0723 41.7695 89.6114 43.675 89.9453C46.631 90.4665 47.6815 88.5691 47.7792 88.5691C47.877 88.5691 48.7483 90.328 51.3623 90.1245C53.9519 89.9209 54.3428 87.6082 54.3428 87.6082C54.4893 87.0056 53.9519 86.2645 53.4226 86.802C52.7874 87.4453 52.4372 88.2678 51.1913 88.2271C49.9535 88.1945 48.7564 87.0626 48.2923 86.7287C47.6815 86.2808 47.2743 86.5821 46.6229 87.3476C45.9796 88.1212 44.9046 88.4551 43.9356 88.2271C42.7222 87.9339 42.4942 86.9811 41.9568 86.7124C41.5414 86.5088 40.89 86.7368 40.9958 87.3964" fill="#B2574C"/>
<path d="M44.2296 89.4402C44.7019 90.9955 45.0195 92.7708 46.241 93.9434C46.9739 94.6438 48.0488 94.9695 48.9772 94.4565C49.7345 94.0411 50.1824 93.1535 50.5325 92.3962C50.9804 91.4516 51.298 90.4581 51.4853 89.432C51.5667 89.0004 51.3713 88.5037 50.899 88.3978C50.4837 88.3001 49.9462 88.52 49.8648 88.9841C49.7752 89.4727 49.6612 89.9532 49.5146 90.4255C49.3762 90.8652 49.2459 91.2154 49.0667 91.59C48.9527 91.8343 48.8306 92.0705 48.7003 92.2985C48.6596 92.3718 48.6189 92.4451 48.57 92.5183C48.5537 92.5428 48.3827 92.7952 48.456 92.6975C48.3908 92.7871 48.3094 92.8685 48.228 92.9418C48.3257 92.8522 48.1547 92.9825 48.1303 92.9988C48.0407 93.0477 48.0325 93.0477 48.1058 93.0069C48.0081 93.0314 47.9918 93.0314 48.0733 93.0232C48.0163 93.0232 47.9593 93.0232 47.9022 93.0232C47.9674 93.0314 47.9755 93.0232 47.9104 93.0232C47.8697 93.0151 47.8208 92.9988 47.7801 92.9907C47.8452 93.0232 47.829 93.0232 47.7394 92.9744C47.6905 92.9499 47.6335 92.9174 47.5847 92.8848C47.5032 92.8278 47.4869 92.8196 47.5358 92.8522C47.3892 92.7301 47.2426 92.5672 47.1693 92.4613C47.0391 92.2822 46.925 92.0949 46.8273 91.8994C46.7215 91.6959 46.64 91.5249 46.583 91.3783C46.2817 90.6047 46.1026 89.7903 45.8583 88.9923C45.728 88.5607 45.272 88.2838 44.8241 88.406C44.3925 88.52 44.0993 89.0086 44.2377 89.4402" fill="#B2574C"/>
<path d="M20.9648 84.3117C20.7354 86.4734 21.2985 88.0374 22.355 89.2261C23.4324 90.4355 25.0312 91.2558 26.8523 91.3739C30.6893 91.6103 33.4002 88.802 33.7686 85.6046C34.137 82.4071 31.5373 79.3139 28.3746 78.6952C27.1512 78.4589 26.0808 78.7787 25.198 79.0845C22.4106 80.0298 21.1803 82.2055 20.9579 84.3186" fill="#F3AAB1"/>
<path d="M25.3151 83.4445C25.0718 83.8754 24.9328 84.3064 24.7869 84.786C24.6687 85.1683 24.6617 85.5785 24.8564 85.8495C24.9954 86.0442 25.2248 86.1276 25.4333 86.0233C25.7252 85.8773 25.8087 85.6897 25.9477 85.4325C26.1423 85.071 26.2813 84.6748 26.3717 84.2925C26.469 83.8963 26.5524 83.5766 26.4203 83.1873C26.3369 82.9371 26.1423 82.8258 25.899 82.8954C25.6627 82.9649 25.5237 83.083 25.3151 83.4445Z" fill="#EF8C8D"/>
<path d="M27.6092 83.4523C27.3659 83.8833 27.2269 84.3142 27.0809 84.7939C26.9697 85.1762 26.9558 85.5863 27.1504 85.8574C27.2894 86.052 27.5188 86.1354 27.7273 86.0311C28.0193 85.8852 28.1027 85.6975 28.2417 85.4403C28.4363 85.0788 28.5754 84.6826 28.6657 84.3003C28.763 83.9041 28.8465 83.5844 28.7144 83.1951C28.631 82.9449 28.4363 82.8337 28.1861 82.9032C27.9498 82.9727 27.8108 83.0909 27.6022 83.4523" fill="#EF8C8D"/>
<path d="M29.8904 83.4523C29.6471 83.8833 29.5081 84.3142 29.3621 84.7939C29.2509 85.1762 29.237 85.5863 29.4317 85.8574C29.5707 86.052 29.8001 86.1354 30.0086 86.0311C30.3005 85.8852 30.3839 85.6975 30.523 85.4403C30.7176 85.0788 30.8566 84.6826 30.947 84.3003C31.0443 83.9041 31.1277 83.5844 30.9956 83.1951C30.9122 82.9449 30.7176 82.8337 30.4674 82.9032C30.231 82.9727 30.092 83.0909 29.8835 83.4523" fill="#EF8C8D"/>
<path d="M61.0817 84.3587C60.8538 86.5129 61.4131 88.0595 62.4626 89.2402C63.5328 90.4416 65.1208 91.2632 66.9298 91.3737C70.7411 91.6085 73.4339 88.819 73.7998 85.636C74.1658 82.4599 71.5835 79.3874 68.4419 78.7729C67.2267 78.5382 66.1634 78.8558 65.2865 79.1527C62.5178 80.0917 61.2957 82.2528 61.0748 84.3518" fill="#F3AAB1"/>
<path d="M64.5142 83.4211C64.2725 83.8492 64.1344 84.2773 63.9894 84.7537C63.872 85.1335 63.8651 85.5408 64.0585 85.8101C64.1966 86.0035 64.4244 86.0863 64.6315 85.9827C64.9215 85.8377 65.0044 85.6513 65.1425 85.3958C65.3358 85.0368 65.4739 84.6433 65.5637 84.2635C65.6603 83.8699 65.7432 83.5523 65.612 83.1657C65.5291 82.9171 65.3358 82.8066 65.0872 82.8757C64.8525 82.9447 64.7144 83.0621 64.5073 83.4211" fill="#EF8C8D"/>
<path d="M66.7926 83.429C66.5509 83.8571 66.4129 84.2851 66.2679 84.7615C66.1574 85.1413 66.1436 85.5487 66.3369 85.8179C66.475 86.0113 66.7028 86.0941 66.91 85.9906C67.2 85.8456 67.2828 85.6591 67.4209 85.4037C67.6142 85.0446 67.7523 84.6511 67.8421 84.2713C67.9388 83.8778 68.0216 83.5601 67.8904 83.1735C67.8076 82.9249 67.6142 82.8145 67.3657 82.8835C67.1309 82.9525 66.9928 83.0699 66.7857 83.429" fill="#EF8C8D"/>
<path d="M69.066 83.429C68.8244 83.8571 68.6863 84.2851 68.5413 84.7615C68.4308 85.1413 68.417 85.5487 68.6103 85.8179C68.7484 86.0113 68.9763 86.0941 69.1834 85.9906C69.4734 85.8456 69.5563 85.6591 69.6944 85.4037C69.8877 85.0446 70.0258 84.6511 70.1155 84.2713C70.2122 83.8778 70.295 83.5601 70.1639 83.1735C70.081 82.9249 69.8877 82.8145 69.646 82.8835C69.4044 82.9525 69.2732 83.0699 69.066 83.429Z" fill="#EF8C8D"/>
<path d="M29.25 77.3971C29.25 79.6479 30.1292 81.4328 31.4481 82.8659C33.0043 84.5628 35.22 85.7058 37.8929 85.7058C42.8166 85.7058 46.8083 82.0746 46.8083 77.1509C46.8083 72.2272 43.0892 68.0068 37.8929 68.2354C31.6503 68.5168 29.25 72.9833 29.25 77.4058" fill="white"/>
<path d="M37.8899 68.2347C41.9695 68.05 45.126 70.6262 46.3042 74.1167C46.1459 70.2921 42.9894 66.0717 37.714 66.4762C31.9199 66.9158 29.4141 71.057 29.4141 75.4707C30.0383 71.7692 32.5617 68.472 37.8899 68.2347Z" fill="#F2A1AC"/>
<path d="M30.2266 76.4661C30.2266 78.6818 31.1586 80.326 32.8027 81.2316C33.6644 81.7064 34.7282 82.0932 35.9504 82.0141C37.3132 81.9262 38.8431 81.1964 39.7399 80.326C40.8213 79.2709 41.3489 77.9344 41.3489 76.4222C41.3489 73.6526 39.4673 71.0237 36.0295 70.9885C34.9129 70.9797 33.7259 71.2523 32.9082 71.7183C31.053 72.7821 30.2266 74.778 30.2354 76.4749" fill="#E60012"/>
<path d="M47.5938 77.5856C47.5938 82.5093 51.6119 85.8855 56.2366 85.8855C61.1603 85.8855 65.1521 82.2543 65.1521 77.3306C65.1521 72.4068 61.4329 68.1865 56.2366 68.4151C49.9941 68.6965 47.5938 73.163 47.5938 77.5856Z" fill="white"/>
<path d="M56.2257 68.4212C61.422 68.1926 65.1412 72.4129 65.1412 77.3367C65.9852 72.8702 63.752 67.3398 57.7204 66.8122C52.2164 66.3286 48.0312 70.0214 48.0312 74.4352C48.972 71.2524 51.4954 68.6322 56.2257 68.4124" fill="#F2A1AC"/>
<path d="M48.8287 76.1088C48.8463 77.9816 49.4794 79.2653 50.4993 80.1709C51.5368 81.1029 52.9875 81.648 54.5525 81.5601C58.0695 81.3754 60.1533 78.3597 59.8719 75.4142C59.8016 74.6581 59.2301 72.8469 57.92 71.8357C55.7747 70.1916 53.4799 70.4817 51.9324 71.2115C49.6376 72.2929 48.8024 74.2712 48.8287 76.1" fill="#E60012"/>
</g>
<path d="M15.5625 105.335C15.5625 108.36 18.072 111.074 25.0742 111.092C32.0457 111.111 34.9347 108.904 35.1428 105.732C35.406 101.717 32.9516 97.0225 25.3557 97.267C17.9986 97.5053 15.5686 101.845 15.5686 105.335" fill="#FFCDD5"/>
<path d="M79.357 105.335C79.357 108.36 76.8475 111.074 69.8453 111.092C62.8737 111.111 59.9847 108.904 59.7766 105.732C59.5134 101.717 61.974 97.0225 69.5637 97.267C76.9209 97.5053 79.3509 101.845 79.3509 105.335" fill="#FFCDD5"/>
<path d="M116.724 57.2849C117.639 56.4914 119.859 54.3443 121.249 49.4847C123.203 42.6781 119.623 37.563 114.492 38.0193C109.299 38.482 109.972 43.9164 109.287 44.2381C108.82 44.4513 103.516 41.93 101.054 46.6104C98.4853 51.4847 103.455 55.4347 107.248 56.9982C111.203 58.6131 115.552 58.2951 116.72 57.2711" fill="#EC6D85"/>
<path d="M115.765 18.7019C114.816 18.6951 112.392 18.5391 108.947 16.2227C104.118 12.9825 103.327 7.82045 106.461 5.33742C109.633 2.8251 112.234 6.61778 112.795 6.45128C113.174 6.3335 114.774 1.87742 118.723 3.50169C122.838 5.19081 122.209 10.3677 120.935 13.4029C119.597 16.5581 116.978 18.7061 115.761 18.6905" fill="#EC6D85"/>
<path d="M132.771 35.5027C132.078 34.7898 130.41 32.8747 129.615 28.7356C128.494 22.9379 131.789 18.8525 135.96 19.5102C140.181 20.1765 139.247 24.6853 139.785 24.9912C140.153 25.1947 144.677 23.3714 146.363 27.4183C148.124 31.633 143.773 34.6691 140.555 35.7728C137.201 36.9105 133.661 36.4106 132.776 35.4914" fill="#FFA7B8"/>
<defs>
<clipPath id="clip0_2012_2319">
<rect width="93" height="66.4835" fill="white" transform="translate(0 35)"/>
</clipPath>
</defs>
</svg>
