<svg width="240" height="146" viewBox="0 0 240 146" fill="none" xmlns="http://www.w3.org/2000/svg">
<path d="M40.6109 135.224L75.2138 109.616L74.5626 112.129L39.9665 137.735L40.6109 135.224Z" fill="#E35F24"/>
<path d="M46.5018 90.1537L18.5719 110.857C13.6926 107.299 11.9885 106.239 9.52453 106.923C6.94575 107.636 7.17556 111.386 8.77823 113.305C10.3903 115.227 11.9151 115.764 11.9151 115.764L40.6262 135.222L75.2198 109.61L46.5061 90.1445L46.5018 90.1537Z" fill="#E35F24"/>
<path d="M41.7637 126.34L74.8891 101.845L72.9948 109.152L39.8694 133.647L41.7637 126.34Z" fill="white"/>
<g style="mix-blend-mode:multiply">
<path d="M41.2176 128.455L74.3509 103.919L74.8894 101.847L41.764 126.343L41.2176 128.455Z" fill="#D1D5E6"/>
</g>
<path d="M41.7638 126.342L39.8764 133.646L12.6336 115.189C10.3719 113.646 8.95941 110.752 9.48127 108.739C10.0031 106.727 12.2662 106.339 14.521 107.884L41.7638 126.342Z" fill="white"/>
<path opacity="0.2" d="M41.7638 126.342L39.8764 133.646L12.6336 115.189C10.3719 113.646 8.95941 110.752 9.48127 108.739C10.0031 106.727 12.2662 106.339 14.521 107.884L41.7638 126.342Z" fill="#4A4A4A"/>
<path opacity="0.2" d="M9.45227 108.932C10.4416 108.391 11.9085 108.574 13.3699 109.578L40.6127 128.035L41.2237 128.452L41.7701 126.34L14.5273 107.883C12.2725 106.337 10.0094 106.725 9.48756 108.738C9.46665 108.806 9.46632 108.866 9.45227 108.932Z" fill="#4A4A4A"/>
<path d="M43.1525 125.414L77.7529 99.7991L77.1016 102.313L42.5056 127.919L43.1525 125.414Z" fill="#FFC7AE"/>
<path d="M43.1543 125.414L42.5074 127.919L41.039 126.917L13.7962 108.46C11.5345 106.917 9.27148 107.305 8.75647 109.315C8.23461 111.328 9.64709 114.221 11.9088 115.765L40.6199 135.223L39.9687 137.737L11.255 118.272C7.43976 115.67 5.05887 110.784 5.93826 107.394C6.81512 103.996 10.6322 103.345 14.4475 105.947L43.1611 125.412L43.1543 125.414Z" fill="#E35F24"/>
<path d="M49.0357 80.3324C46.3453 78.4969 43.6596 78.2823 41.9959 79.5051C33.8652 85.4936 15.5262 99.1317 7.40233 105.118C9.06608 103.895 11.7518 104.109 14.4421 105.945L43.1558 125.41L77.7493 99.7975L49.0357 80.3324Z" fill="#FF8F5E"/>
<path d="M64.5206 97.792L49.7262 87.7744C48.9566 87.2535 47.8071 87.2178 47.156 87.6953L42.1064 91.4164C41.4553 91.8939 41.5423 92.7092 42.3144 93.2366L57.1089 103.254C57.8716 103.778 59.0279 103.811 59.679 103.333L64.7287 99.6122C65.3797 99.1346 65.2927 98.3194 64.53 97.7959" fill="white"/>
<path d="M13.0938 121.412L12.0499 118.533L8.86107 118.506L13.7327 112.044L17.9629 114.944L13.0938 121.412Z" fill="#E83F63"/>
<g clip-path="url(#clip0_2001_2281)">
<path d="M197.067 116.597H176.825V114.793H225.336C228.053 114.793 230.266 117.314 230.266 120.41V120.913C230.266 124.009 228.053 126.53 225.336 126.53H176.829V124.726H197.071C198.702 124.726 200.029 122.771 200.029 120.913V120.41C200.029 118.552 198.702 116.597 197.071 116.597H197.067Z" fill="#63C59C"/>
<path d="M176.828 126.53H197.071C199.788 126.53 202 124.009 202 120.913V120.41C202 117.314 199.788 114.793 197.071 114.793H176.828V116.597H197.071C198.702 116.597 200.028 118.552 200.028 120.41V120.913C200.028 122.771 198.702 124.726 197.071 124.726H176.828V126.53Z" fill="#358C67"/>
<path d="M197.074 116.598C198.705 116.598 200.031 118.552 200.031 120.411V120.913C200.031 122.772 198.705 124.727 197.074 124.727H179.589V116.598H197.074Z" fill="white"/>
<path d="M211.902 106.856H232.461V104.977H183.953C181.236 104.977 179.024 107.085 179.024 109.674V110.094C179.024 112.683 181.236 114.791 183.953 114.791H232.461V112.912H211.902C210.271 112.912 208.945 111.648 208.945 110.094V109.674C208.945 108.12 210.271 106.856 211.902 106.856Z" fill="#FFDC17"/>
<path d="M232.461 114.791H211.902C209.185 114.791 206.973 112.683 206.973 110.094V109.674C206.973 107.085 209.185 104.977 211.902 104.977H232.461V106.856H211.902C210.271 106.856 208.945 108.12 208.945 109.674V110.094C208.945 111.648 210.271 112.912 211.902 112.912H232.461V114.791Z" fill="#F9BA20"/>
<path d="M211.902 106.855C210.27 106.855 208.944 108.12 208.944 109.674V110.094C208.944 111.648 210.27 112.912 211.902 112.912H229.703V106.855H211.906H211.902Z" fill="white"/>
<path d="M196.084 97.0391H225.969V95.1602H177.461C174.744 95.1602 172.532 97.2682 172.532 99.8575V100.278C172.532 102.867 174.744 104.975 177.461 104.975H225.969V103.096H196.084C194.453 103.096 193.127 101.832 193.127 100.278V99.8575C193.127 98.3032 194.453 97.0391 196.084 97.0391Z" fill="#FF8F5D"/>
<path d="M225.969 104.975H196.084C193.367 104.975 191.155 102.867 191.155 100.278V99.8575C191.155 97.2682 193.367 95.1602 196.084 95.1602H225.969V97.0391H196.084C194.453 97.0391 193.127 98.3032 193.127 99.8575V100.278C193.127 101.832 194.453 103.096 196.084 103.096H225.969V104.975Z" fill="#E35F24"/>
<path d="M196.087 97.0391C194.456 97.0391 193.13 98.3032 193.13 99.8575V100.278C193.13 101.832 194.456 103.096 196.087 103.096H223.211V97.0391H196.087Z" fill="white"/>
<path d="M161.586 14.9268C161.668 16.4684 136.703 30.0282 134.389 30.0754C132.075 30.1226 107.357 19.7797 107.077 18.0651C106.797 16.3505 127.849 4.36377 131.449 4.00983C135.048 3.6559 161.487 12.9605 161.586 14.9268Z" fill="#8C93C3"/>
<path d="M159.281 16.3454C159.355 17.7533 136.54 30.1411 134.423 30.1883C132.307 30.2355 109.731 20.7814 109.475 19.2162C109.22 17.651 128.452 6.70257 131.747 6.37222C135.033 6.04975 159.19 14.5442 159.281 16.3454Z" fill="#5E5B99"/>
<path d="M150.229 39.9675C149.776 41.6743 144.661 44.7732 137.635 45.3159C128.551 46.0238 124.96 44.2147 124.243 42.5866C123.526 40.9585 121.105 22.2863 121.36 20.8234C121.616 19.3605 128.262 15.5065 134.876 15.0424C141.49 14.5784 146.243 17.0087 146.943 18.338C147.643 19.6593 150.764 37.9854 150.237 39.9675" fill="#484986"/>
<path d="M99.9565 105.53C99.9565 105.53 95.3194 115.818 96.1512 127.081C97.0325 138.942 104.462 145.816 116.05 148.632C120.786 149.788 132.507 151.912 142.794 149.049C150.948 146.776 152.884 140.948 153.172 140.963C153.757 140.995 153.955 146.516 160.354 149.489C168.632 153.328 182.51 152.667 187.839 147.138C193.465 141.302 192.493 129.008 187.988 125.736C179.908 119.877 174.414 121.985 173.491 121.096C172.561 120.207 174.752 116.652 173.458 107.599C173.458 107.599 164.843 101.669 138.281 101.26C107.732 100.788 99.9565 105.538 99.9565 105.538" fill="#F6BFC8"/>
<path fill-rule="evenodd" clip-rule="evenodd" d="M160.184 149.413C160.24 149.44 160.297 149.467 160.354 149.493C161.727 150.13 163.254 150.643 164.87 151.03C167.298 145.207 165.037 135.114 162.416 131.363C158.855 126.267 152.701 124.522 146.55 124.802C151.835 125.051 156.861 126.951 159.945 131.363C162.705 135.313 163.674 144.345 160.184 149.413Z" fill="#F3AAB1"/>
<path d="M123.507 137.301C122.551 144.765 123.573 150.633 129.404 153.079C134.766 155.329 151.231 156.296 158.051 151.577C163.948 147.503 163.165 135.972 159.945 131.363C155.267 124.67 146.116 123.757 138.374 125.621C138.374 125.621 133.671 126.196 129.017 130.089C124.693 133.715 123.507 137.293 123.507 137.293" fill="#F6BFC8"/>
<path d="M77.0136 75.7943C77.516 59.2851 91.6745 54.849 92.078 54.1569C92.4816 53.4648 91.1391 49.131 92.7864 43.3815C93.6265 40.4477 96.3693 36.0825 99.8697 33.2746C109.309 25.7161 121.91 26.7936 129.018 29.5779C132.832 31.0723 135.583 33.3297 137.568 35.76C137.568 35.76 142.782 24.7722 159.362 26.888C170.876 28.3588 176.139 34.2184 178.52 39.7477C180.908 45.3006 180.035 49.7366 180.397 50.4917C180.76 51.2468 187.818 53.5277 192.785 61.5817C196.549 67.6852 197.373 76.4471 195.511 81.7483C193.304 88.0405 189.515 89.708 189.4 90.4945C189.301 91.1945 191.484 96.9519 186.723 101.915C183.503 105.265 176.477 105.682 174.006 104.109C174.006 104.109 163.299 108.514 143.638 110.504C119.472 112.95 104.054 111.314 104.054 111.314C104.054 111.314 94.269 115.073 87.7951 107.342C82.4908 101.01 85.876 95.5283 85.5301 94.6238C85.1842 93.7193 76.5853 90.0776 77.0218 75.7943" fill="#F6BFC8"/>
<path d="M161.937 85.6662C162.209 88.2618 163.296 89.9607 164.894 91.0933C166.525 92.2573 168.699 92.8315 170.964 92.5248C175.741 91.8719 178.36 87.9157 177.998 84.0696C177.636 80.2313 173.657 77.2268 169.613 77.274C168.048 77.2897 166.821 77.9347 165.808 78.4931C162.621 80.2785 161.665 83.1336 161.929 85.6662" fill="#F3AAB1"/>
<path d="M111.705 89.9044C111.977 92.4921 113.056 94.191 114.662 95.3236C116.292 96.4798 118.467 97.0539 120.724 96.7472C125.493 96.0944 128.104 92.146 127.749 88.3078C127.387 84.4695 123.417 81.4807 119.381 81.5279C117.824 81.5436 116.589 82.1807 115.584 82.747C112.397 84.5246 111.449 87.3797 111.713 89.9044" fill="#F3AAB1"/>
<path d="M167.374 74.194C167.596 76.8997 166.657 79.1256 165.142 80.9739C163.346 83.1526 160.669 84.7335 157.309 84.9852C151.115 85.4414 145.737 81.4458 145.259 75.5311C144.781 69.6164 149.048 64.1973 155.604 63.9849C163.494 63.7411 166.945 68.885 167.374 74.194Z" fill="white"/>
<path d="M144.295 76.1316C144.772 82.0463 140.053 86.4823 134.23 86.9149C128.036 87.3711 122.658 83.3755 122.18 77.4608C121.702 71.5461 125.969 66.1269 132.525 65.9146C140.407 65.6708 143.858 70.8147 144.295 76.1237" fill="white"/>
<mask id="mask0_2001_2281" style="mask-type:luminance" maskUnits="userSpaceOnUse" x="145" y="63" width="23" height="23">
<path d="M167.372 74.1975C167.594 76.9661 166.721 79.1133 165.14 80.9695C163.336 83.0774 160.602 84.737 157.307 84.9808C153.938 85.2325 151.245 84.3595 148.585 82.1886C146.641 80.5999 145.471 78.2324 145.249 75.5268C144.771 69.6121 149.038 64.1929 155.594 63.9805C155.775 63.9805 155.956 63.9727 156.137 63.9727C163.641 63.9727 166.944 69.0064 167.364 74.1897" fill="white"/>
</mask>
<g mask="url(#mask0_2001_2281)">
<path d="M166.308 71.8453C166.522 74.5117 165.509 76.5645 163.532 77.8072C162.494 78.46 161.193 79.0263 159.644 79.0421C157.915 79.0578 155.922 78.3342 154.711 77.3668C153.245 76.2027 152.454 74.6454 152.306 72.8206C152.034 69.4936 154.143 66.1587 158.467 65.7891C159.867 65.6711 161.399 65.8913 162.47 66.379C164.916 67.4801 166.135 69.8082 166.3 71.8453" fill="#E60012"/>
</g>
<mask id="mask1_2001_2281" style="mask-type:luminance" maskUnits="userSpaceOnUse" x="122" y="65" width="23" height="22">
<path d="M144.295 76.1311C144.772 82.0458 140.053 86.4818 134.23 86.9144C128.036 87.3706 122.658 83.375 122.18 77.4603C121.702 71.5457 125.969 66.1186 132.525 65.9141C132.706 65.9141 132.887 65.9062 133.069 65.9062C140.572 65.9062 143.875 70.94 144.295 76.1232" fill="white"/>
</mask>
<g mask="url(#mask1_2001_2281)">
<path d="M143.368 73.5271C143.525 75.7765 142.857 77.3732 141.663 78.5687C140.444 79.78 138.673 80.5744 136.697 80.6215C132.257 80.7238 129.333 77.3024 129.399 73.7316C129.416 72.8113 129.951 70.5855 131.508 69.2562C134.044 67.0854 136.968 67.2191 138.978 67.9506C141.968 69.036 143.212 71.3405 143.368 73.5349" fill="#E60012"/>
</g>
<path d="M148.252 90.3663C146.415 89.8079 145.575 88.7618 145.46 88.7775C145.328 88.7932 144.619 90.2169 142.56 91.0899C142.338 92.2776 142.346 93.5045 142.676 94.6057C142.931 95.4787 143.326 96.4147 144.166 96.9967C144.899 97.5001 145.929 97.5788 146.563 96.8866C147.304 96.0765 147.609 94.881 147.865 93.9057C148.186 92.663 148.293 91.5854 148.26 90.3742" fill="white"/>
<path d="M154.035 87.7107C153.969 88.5365 153.261 90.4793 150.848 91.077C147.1 91.9973 145.568 89.7714 145.444 89.7871C145.313 89.8028 144.374 92.0366 140.997 92.0366C137.653 92.0366 136.92 89.2366 136.92 89.2366C136.664 88.5129 137.29 87.5534 138.023 88.159C138.905 88.8905 139.44 89.8579 141.03 89.7006C142.619 89.5354 144.044 88.041 144.604 87.5848C145.346 86.9792 145.897 87.3096 146.812 88.1905C147.718 89.0714 149.126 89.386 150.345 89.0085C151.877 88.5365 152.075 87.3489 152.734 86.9635C153.244 86.6725 154.109 86.8848 154.043 87.7107" fill="#B2574C"/>
<path d="M141.399 90.6266C141.086 91.9559 141.111 93.3087 141.424 94.6301C141.695 95.7863 142.264 97.0211 143.285 97.7526C144.405 98.547 145.904 98.7593 147.123 98.02C148.219 97.3514 148.688 96.0851 149.034 94.9604C149.462 93.5604 149.611 92.0817 149.536 90.6266C149.512 90.0839 148.943 89.6041 148.367 89.6749C147.766 89.7457 147.337 90.2098 147.37 90.7918C147.42 91.8143 147.354 92.6952 147.123 93.7255C147.024 94.1739 146.884 94.6772 146.736 95.0469C146.662 95.2357 146.58 95.4244 146.489 95.6054C146.448 95.6997 146.39 95.7862 146.341 95.8728C146.283 95.975 146.341 95.8728 146.357 95.857C146.316 95.9121 146.275 95.9672 146.234 96.0143C146.168 96.093 146.102 96.1638 146.028 96.2346C146.151 96.1166 145.97 96.266 145.921 96.2975C145.921 96.2975 145.772 96.384 145.871 96.3368C145.97 96.2818 145.814 96.3604 145.805 96.3604C145.756 96.3761 145.706 96.3919 145.657 96.4076C145.492 96.4548 145.797 96.3997 145.632 96.4076C145.575 96.4076 145.27 96.4076 145.443 96.4233C145.336 96.4155 145.229 96.3919 145.122 96.3683C144.949 96.3368 145.138 96.3919 144.982 96.3211C144.932 96.2975 144.883 96.2739 144.833 96.2503C144.817 96.2424 144.644 96.1481 144.718 96.1874C144.751 96.211 144.578 96.0773 144.529 96.0458C144.487 96.0065 144.446 95.975 144.405 95.9357C144.405 95.9357 144.282 95.8098 144.347 95.8806C144.273 95.802 144.084 95.5346 143.985 95.3694C143.985 95.3694 143.903 95.22 143.944 95.2986C143.985 95.3851 143.911 95.22 143.911 95.22C143.87 95.1177 143.82 95.0233 143.779 94.9211C143.689 94.693 143.614 94.4649 143.549 94.2289C143.277 93.23 143.293 92.0896 143.549 91.0278C143.672 90.5008 143.26 89.8952 142.692 89.8086C142.091 89.7221 141.555 90.0603 141.415 90.6266" fill="#B2574C"/>
<path d="M134.908 128.428C134.06 128.939 130.362 125.683 130.527 124.299C130.691 122.914 133.45 109.575 134.974 107.797C136.506 106.028 149.997 102.197 158.687 110.629C165.136 101.324 175.39 103.825 176.395 104.337C177.4 104.84 180.555 111.282 180.555 111.282C180.522 112.406 175.382 124.424 173.611 124.708C171.841 124.991 161.883 123.37 158.333 127.398C158.333 127.398 157.369 129.112 155.154 129.128C152.938 129.144 151.233 127.807 151.233 127.807C151.233 127.807 141.497 124.472 134.917 128.428" fill="white"/>
<path d="M143.936 108.402C143.993 108.937 145.542 108.889 147.09 109.062C148.35 109.204 149.133 109.275 150.443 109.621C151.9 110.006 152.741 110.517 152.913 110.116C153.119 109.637 151.975 108.937 150.533 108.512C149.38 108.174 148.812 108.064 147.568 107.93C145.97 107.757 143.886 107.898 143.936 108.402Z" fill="#E3D1D9"/>
<path d="M158.307 110.301C157.673 110.662 158.282 111.394 158.48 112.943C158.612 113.989 158.579 114.273 158.571 115.688C158.571 117.261 158.241 117.899 158.793 117.828C159.444 117.741 159.905 116.719 159.954 115.138C159.996 113.872 159.954 113.549 159.748 112.432C159.452 110.867 158.908 109.955 158.307 110.293" fill="#D0B6C2"/>
<path d="M173.914 106.375C173.914 106.917 172.374 107.028 170.858 107.35C169.615 107.617 168.857 107.767 167.588 108.247C166.18 108.781 165.406 109.379 165.183 108.986C164.928 108.53 165.982 107.712 167.374 107.153C168.486 106.705 169.038 106.532 170.257 106.272C171.83 105.934 173.914 105.871 173.914 106.375Z" fill="#E3D1D9"/>
<path d="M180.542 111.281C181.333 111.611 176.234 125.981 175.065 126.311C173.895 126.642 165.659 124.298 158.378 128.34C158.378 128.34 157.249 129.52 154.663 129.489C152.077 129.457 151.023 128.946 150.479 128.608C141.946 126.264 135.481 129.009 134.896 128.411C134.295 127.79 138.462 113.436 138.956 112.854C139.442 112.264 149.087 109.645 155.577 114.12C155.577 114.12 158.427 115.402 161.961 114.616C161.961 114.616 171.548 107.505 180.542 111.265" fill="#E83F63"/>
<path d="M110.578 23.6247C110.743 24.0888 111.813 25.9057 112.307 30.0507C112.785 34.062 113.181 38.616 111.92 39.4733C109.713 40.9755 103.462 39.1744 102.852 38.5216C102.506 38.1519 102.844 33.7159 103.56 29.6967C104.293 25.5832 104.969 23.4832 105.158 23.1843C104.985 23.1214 103.898 22.1146 104.252 20.3371C104.672 18.2213 106.666 17.5842 108.486 17.8438C110.454 18.1269 111.929 19.5033 111.789 21.3438C111.665 22.9247 110.817 23.5304 110.578 23.6169" fill="#FFDC17"/>
<path d="M107.835 28.1458C107.16 28.0907 106.979 29.8761 106.921 31.2211C106.872 32.4481 106.905 33.1245 106.954 34.2886C107.02 35.7358 107.152 36.6796 107.728 36.7504C108.346 36.8212 108.601 35.4448 108.675 34.2099C108.741 33.0537 108.783 32.8728 108.717 31.6851C108.61 30.5211 108.428 28.2008 107.835 28.1536" fill="#F9BA20"/>
<path d="M104.533 23.5135C104.459 23.9854 104.978 23.9618 106.321 23.8438C107.136 23.773 107.836 23.7888 108.973 24.009C110.455 24.3 110.974 24.5596 111.081 24.009C111.205 23.4191 110.39 23.018 109.08 22.7427C107.894 22.4989 107.713 22.4831 106.461 22.5618C105.316 22.6326 104.624 22.9472 104.525 23.5056" fill="#F9BA20"/>
<path d="M121.294 130.614C122.941 131.007 128.83 131.541 136.086 128.402C144.586 124.729 144.603 116.337 139.801 111.901C134.299 106.804 126.021 108.197 121.92 108.535C121.92 108.535 115.989 111.122 115.207 118.524C114.26 127.498 116.352 128.254 117.999 129.434" fill="#F3AAB1"/>
<path d="M118.811 131.848C121.694 132.635 126.76 132.775 134.016 129.637C142.516 125.964 142.532 117.571 137.731 113.135C132.229 108.039 123.951 109.431 119.849 109.769C119.849 109.769 113.919 112.357 113.137 119.758C112.189 128.732 116.34 130.668 116.34 130.668" fill="#F6BFC8"/>
<path d="M179.163 105.328C173.703 104.219 169.766 110.716 168.934 115.097C168.102 119.478 167.624 126.989 173.604 128.224C179.583 129.459 184.484 124.26 185.81 119.384C187.136 114.507 185.687 106.658 179.163 105.328Z" fill="#F3AAB1"/>
<path d="M181.64 103.754C176.179 102.645 172.242 109.142 171.41 113.523C170.578 117.904 170.101 125.415 176.08 126.65C182.06 127.885 186.961 122.686 188.287 117.809C189.613 112.933 188.163 105.083 181.64 103.754Z" fill="#F6BFC8"/>
<path d="M209.617 81.7793C209.617 81.7793 209.617 81.7526 209.625 81.6609C209.633 81.5693 209.645 81.47 209.665 81.3287C209.689 81.195 209.717 81.0308 209.765 80.8475C209.806 80.6604 209.874 80.4656 209.942 80.2441C210.094 79.8087 210.306 79.3161 210.591 78.8081C210.731 78.5561 210.892 78.304 211.06 78.0482C211.24 77.8076 211.409 77.5402 211.613 77.3073C211.813 77.0705 212.002 76.8184 212.218 76.6046C212.43 76.3869 212.631 76.1539 212.847 75.963C213.064 75.7644 213.272 75.5734 213.468 75.3939C213.677 75.2259 213.873 75.0655 214.054 74.9204C214.414 74.6149 214.743 74.4125 214.963 74.2482C215.188 74.0917 215.316 74 215.316 74L216.959 76.891C216.959 76.891 216.839 76.9406 216.622 77.0247C216.414 77.1163 216.089 77.2156 215.741 77.3913C215.56 77.4753 215.368 77.5631 215.164 77.6586C214.967 77.7655 214.759 77.8763 214.542 77.9947C214.318 78.1054 214.122 78.2544 213.901 78.3842C213.677 78.5179 213.48 78.6783 213.268 78.8272C213.052 78.9762 212.871 79.1518 212.671 79.3122C212.487 79.4841 212.302 79.6521 212.134 79.8278C211.801 80.1753 211.525 80.5267 211.312 80.8437C211.212 81.0041 211.112 81.1492 211.048 81.2867C210.972 81.4203 210.92 81.5387 210.872 81.638C210.831 81.7297 210.803 81.8022 210.783 81.8519C210.767 81.8863 210.755 81.9321 210.755 81.9283L209.617 81.7831V81.7793Z" fill="#CC7D56"/>
<path d="M210.601 95.1217C211.338 95.1217 212.893 95.538 213.919 95.4884C214.945 95.4387 216.227 94.8773 218.179 92.4064C220.131 89.9355 221.052 85.4596 219.153 82.6947C217.253 79.9297 213.093 79.7349 210.597 80.9952C208.1 79.7349 203.94 79.9297 202.041 82.6947C200.141 85.4596 201.067 89.9355 203.014 92.4064C204.966 94.8773 206.249 95.4387 207.274 95.4884C208.3 95.538 209.855 95.1217 210.593 95.1217H210.601Z" fill="#E63547"/>
<path d="M210.603 80.9961C208.507 79.9382 205.241 79.9115 203.125 81.569C203.133 81.5766 203.141 81.5804 203.149 81.588C203.686 81.9241 204.283 82.1991 204.9 82.3862C205.209 82.4817 205.522 82.5619 205.838 82.6077C206.155 82.6536 206.475 82.6726 206.788 82.665C207.421 82.6459 208.038 82.5123 208.599 82.3022C208.876 82.2029 209.14 82.0807 209.373 81.9585C209.489 81.8974 209.605 81.8286 209.709 81.7714C209.814 81.7026 209.914 81.6377 210.002 81.5804C210.178 81.4735 210.323 81.3513 210.423 81.2787C210.471 81.2405 210.511 81.2061 210.539 81.1832C210.563 81.1603 210.579 81.1489 210.579 81.1489C210.631 81.103 210.663 81.0381 210.667 80.9732C210.647 80.9846 210.623 80.9923 210.603 80.9999V80.9961Z" fill="#AD2836"/>
<path d="M210.514 81.1228C210.514 81.1228 210.498 81.1266 210.462 81.138C210.43 81.1495 210.378 81.1648 210.318 81.1762C210.197 81.203 210.009 81.2564 209.805 81.2832C209.7 81.2984 209.58 81.3175 209.456 81.3405C209.336 81.3519 209.203 81.3672 209.071 81.3748C208.803 81.3901 208.51 81.3977 208.218 81.3748C207.616 81.3443 206.995 81.2144 206.414 80.9777C206.122 80.8593 205.841 80.7141 205.577 80.5461C205.308 80.3781 205.06 80.1795 204.823 79.9694C204.346 79.5532 203.925 79.0605 203.585 78.5411C203.417 78.2814 203.264 78.0141 203.136 77.7429C203.012 77.468 202.9 77.2007 202.811 76.9333C202.763 76.8035 202.727 76.6736 202.695 76.5438C202.659 76.4178 202.631 76.2955 202.603 76.1733C202.551 75.9366 202.519 75.7151 202.495 75.5241C202.471 75.337 202.471 75.1689 202.463 75.0658C202.459 74.9551 202.463 74.8901 202.463 74.8901C202.463 74.7756 202.551 74.6839 202.663 74.6572C202.663 74.6572 202.727 74.6419 202.843 74.6228C202.952 74.6114 203.124 74.577 203.32 74.5617C203.521 74.5426 203.753 74.5273 204.006 74.5273C204.134 74.5273 204.27 74.5273 204.402 74.535C204.543 74.5388 204.683 74.5464 204.827 74.5655C205.12 74.5884 205.416 74.6381 205.725 74.6992C206.029 74.7641 206.334 74.8481 206.639 74.9513C207.244 75.1613 207.833 75.4477 208.362 75.8105C208.626 75.99 208.883 76.181 209.111 76.3948C209.34 76.6087 209.548 76.8417 209.728 77.0861C210.089 77.5787 210.35 78.1325 210.506 78.6862C210.586 78.9574 210.642 79.2324 210.682 79.4844C210.702 79.6104 210.714 79.7365 210.726 79.851C210.73 79.9733 210.738 80.0878 210.742 80.1909C210.758 80.3895 210.742 80.5728 210.742 80.6912C210.742 80.7485 210.734 80.802 210.73 80.8363C210.73 80.8707 210.726 80.886 210.726 80.886C210.714 80.9967 210.634 81.0884 210.526 81.119L210.514 81.1228Z" fill="#549E52"/>
<path d="M204.348 74.5391C204.296 74.5391 204.244 74.5391 204.192 74.5391L204.208 75.9139L202.617 74.6842C202.541 74.7147 202.485 74.7797 202.469 74.8599L203.423 75.5969L202.529 75.7688C202.537 75.8184 202.545 75.8681 202.553 75.9177L203.583 75.723L205.482 77.1895L203.09 77.6477C203.106 77.6821 203.118 77.7165 203.134 77.7547C203.138 77.7661 203.146 77.7776 203.154 77.789L205.639 77.3155L207.538 78.782L204.248 79.4121C204.288 79.4579 204.328 79.5 204.368 79.542L207.699 78.9042L209.598 80.3707L206.4 80.9817C206.4 80.9817 206.408 80.9817 206.412 80.9856C206.5 81.0237 206.593 81.0505 206.681 81.081L209.759 80.4929L210.556 81.1078C210.628 81.0734 210.684 81.0123 210.704 80.9321L210.544 80.8099L210.52 78.7934C210.512 78.7591 210.504 78.7285 210.496 78.6941C210.456 78.5528 210.412 78.4154 210.356 78.2779L210.384 80.6877L208.484 79.2212L208.448 75.891C208.416 75.8681 208.384 75.8452 208.352 75.8223C208.332 75.807 208.308 75.7955 208.288 75.7802L208.324 79.099L206.424 77.6325L206.392 74.8904C206.34 74.8751 206.288 74.856 206.232 74.8408L206.264 77.5064L204.364 76.0399L204.348 74.5467V74.5391Z" fill="#448042"/>
<g style="mix-blend-mode:overlay" opacity="0.2">
<path d="M218.305 82.9576C219.411 84.5043 219.492 86.2878 218.49 86.9408C217.484 87.5939 215.773 86.8683 214.666 85.3254C213.56 83.7787 213.48 81.9952 214.486 81.3422C215.492 80.6891 217.203 81.4109 218.309 82.9576H218.305Z" fill="white"/>
</g>
</g>
<defs>
<clipPath id="clip0_2001_2281">
<rect width="163" height="126" fill="white" transform="translate(77)"/>
</clipPath>
</defs>
</svg>
