<svg width="18" height="18" viewBox="0 0 18 18" fill="none" xmlns="http://www.w3.org/2000/svg">
<path d="M9 12.6L12.6 8.99996L9 5.4L7.74 6.66L9.18 8.09996H5.4V9.89996H9.18L7.74 11.34L9 12.6ZM9 18C7.75503 18 6.585 17.7637 5.49 17.2912C4.395 16.8187 3.4425 16.1775 2.6325 15.3675C1.8225 14.5575 1.18125 13.605 0.70875 12.51C0.23625 11.415 0 10.245 0 8.99996C0 7.75499 0.23625 6.585 0.70875 5.49C1.18125 4.39501 1.8225 3.4425 2.6325 2.6325C3.4425 1.8225 4.395 1.18125 5.49 0.70875C6.585 0.23625 7.75503 0 9 0C10.245 0 11.415 0.23625 12.51 0.70875C13.605 1.18125 14.5575 1.8225 15.3675 2.6325C16.1775 3.4425 16.8187 4.39501 17.2912 5.49C17.7638 6.585 18 7.75499 18 8.99996C18 10.245 17.7638 11.415 17.2912 12.51C16.8187 13.605 16.1775 14.5575 15.3675 15.3675C14.5575 16.1775 13.605 16.8187 12.51 17.2912C11.415 17.7637 10.245 18 9 18Z" fill="white"/>
</svg>
