<svg width="84" height="52" viewBox="0 0 84 52" fill="none" xmlns="http://www.w3.org/2000/svg">
<g id="logo/ch">
<path id="logo" d="M71.6684 33.8189C71.7114 34.3455 71.5911 34.8726 71.3239 35.3287C71.0566 35.7849 70.6553 36.1481 70.1742 36.3692C69.6957 36.6285 69.1598 36.7644 68.6153 36.7644C68.0707 36.7644 67.5348 36.6285 67.0563 36.3692C66.5746 36.1488 66.1728 35.7858 65.9054 35.3294C65.6381 34.8731 65.5182 34.3456 65.5622 33.8189V32.8113H47.1337C46.6747 32.8533 46.2137 32.7542 45.8128 32.5273C45.4119 32.3004 45.0902 31.9565 44.8909 31.5419C44.6667 31.1343 44.5491 30.6769 44.5491 30.212C44.5491 29.747 44.6667 29.2897 44.8909 28.8821C45.0898 28.4669 45.4113 28.1223 45.8122 27.8946C46.2131 27.6669 46.6743 27.5671 47.1337 27.6085H65.5674V26.4611C65.7035 25.0521 65.3239 23.6417 64.4988 22.4902C63.994 22.0338 63.3981 21.6891 62.7502 21.4788C62.1024 21.2684 61.4173 21.1972 60.7399 21.2698H47.0166C46.5576 21.3119 46.0966 21.2129 45.6956 20.986C45.2947 20.759 44.973 20.4151 44.7738 20.0004C44.5497 19.5928 44.4322 19.1353 44.4322 18.6704C44.4322 18.2055 44.5497 17.7482 44.7738 17.3406C44.9731 16.926 45.2948 16.582 45.6957 16.3551C46.0966 16.1282 46.5576 16.0291 47.0166 16.0711H62.5509C68.6874 16.0711 71.6694 18.7831 71.6694 24.3844V33.8168L71.6684 33.8189ZM29.0566 21.8362V24.9247L38.6174 32.6851C39.0755 32.9779 39.4276 33.4091 39.6225 33.9158C39.8174 34.4225 39.8448 34.9781 39.7006 35.5014C39.5942 35.9896 39.3538 36.4388 39.0063 36.7986C38.6588 37.1585 38.2179 37.415 37.7328 37.5395C37.1594 37.6746 36.5625 37.6753 35.9887 37.5418C35.4149 37.4082 34.8799 37.144 34.4256 36.7697L25.9679 29.6268L17.4212 36.7968C17.1129 37.1301 16.7313 37.3877 16.3065 37.5493C15.8816 37.7109 15.425 37.7722 14.9725 37.7283C14.1819 37.6015 13.4447 37.2502 12.8489 36.7165C12.585 36.4766 12.379 36.18 12.2464 35.8492C12.1138 35.5184 12.0582 35.162 12.0835 34.8067C12.1026 34.3877 12.2181 33.9787 12.4209 33.6113C12.6238 33.244 12.9087 32.9281 13.2536 32.6882L22.8186 24.9236V21.8351H14.9767C14.6254 21.8554 14.2742 21.794 13.9507 21.6559C13.6272 21.5178 13.3403 21.3067 13.1124 21.0392C12.6555 20.5243 12.4033 19.8604 12.4033 19.1727C12.4033 18.485 12.6555 17.8211 13.1124 17.3061C13.3409 17.0394 13.6279 16.8288 13.9513 16.6908C14.2746 16.5527 14.6255 16.491 14.9767 16.5103H22.3846L22.415 15.9116C22.4617 15.0087 22.8542 14.1581 23.5113 13.5355C24.1685 12.9129 25.0401 12.5658 25.9464 12.5658C26.8527 12.5658 27.7244 12.9129 28.3816 13.5355C29.0387 14.1581 29.4312 15.0087 29.4779 15.9116L29.5083 16.5103H36.9643C37.3153 16.491 37.6661 16.5528 37.9892 16.6908C38.3124 16.8289 38.5993 17.0394 38.8275 17.3061C39.2844 17.8211 39.5367 18.485 39.5367 19.1727C39.5367 19.8604 39.2844 20.5243 38.8275 21.0392C38.5991 21.3055 38.3121 21.5154 37.9889 21.6528C37.6657 21.7901 37.315 21.8511 36.9643 21.831L29.0566 21.8362ZM83.9948 25.8833C83.9947 21.0245 82.6238 16.2639 80.0388 12.146C77.4538 8.02809 73.7591 4.71909 69.3774 2.59762C64.9958 0.476161 60.1039 -0.372119 55.2616 0.149761C50.4193 0.671641 45.8221 2.54266 41.9957 5.54875C38.8364 3.06758 35.1422 1.35285 31.2048 0.539891C27.2674 -0.273066 23.1945 -0.161994 19.3075 0.864321C15.4205 1.89064 11.8258 3.80409 8.80702 6.45373C5.78829 9.10336 3.42814 12.4166 1.91288 16.1321C0.397618 19.8475 -0.231275 23.8634 0.0757653 27.8628C0.382805 31.8623 1.61736 35.7358 3.68209 39.1778C5.74683 42.6197 8.58522 45.5358 11.9732 47.6959C15.3612 49.8561 19.206 51.2011 23.2044 51.625V42.9092C23.2044 42.1848 23.4929 41.4901 24.0063 40.9779C24.5198 40.4657 25.2162 40.1779 25.9423 40.1779C26.6684 40.1779 27.3648 40.4657 27.8782 40.9779C28.3917 41.4901 28.6801 42.1848 28.6801 42.9092V51.6177C33.5416 51.1118 38.1592 49.2392 41.9957 46.2178C45.8325 49.2393 50.4504 51.1119 55.3122 51.6177V42.9092C55.3122 42.1848 55.6007 41.4901 56.1142 40.9779C56.6276 40.4657 57.324 40.1779 58.0501 40.1779C58.7763 40.1779 59.4727 40.4657 59.9861 40.9779C60.4996 41.4901 60.788 42.1848 60.788 42.9092V51.625C67.1604 50.9506 73.0573 47.948 77.3429 43.1952C81.6286 38.4425 83.9999 32.276 84 25.8833" fill="#5A371E"/>
</g>
</svg>
