<svg width="36" height="36" viewBox="0 0 36 36" fill="none" xmlns="http://www.w3.org/2000/svg">
<path d="M4.08963 3.04785C3.35615 3.66643 3.55749 4.15554 4.66491 5.62288C5.67165 6.96074 5.81547 7.04705 6.82221 8.26983C7.62761 9.26243 8.46177 9.7947 9.10896 9.29121C9.79929 8.74455 9.56918 7.66563 8.57682 6.299C7.65637 5.03307 7.98716 5.49341 6.89413 4.31379C5.77233 3.20609 4.73682 2.51558 4.08963 3.06224" fill="#F9BA20"/>
<path d="M11.6613 0.181696C10.7311 0.389378 10.6753 0.770707 10.9575 2.01706C11.2129 3.14869 11.2986 3.25747 11.6106 4.29954C11.8612 5.16665 12.3303 5.72997 13.1245 5.55946C13.9919 5.38495 14.2924 4.62004 14.0553 3.46309C13.8346 2.3917 13.9231 2.77863 13.5115 1.72311C13.0511 0.702682 12.4738 -0.0141248 11.6491 0.166155" fill="#F9BA20"/>
<path d="M5.66818 12.3724C5.92005 11.4629 5.60718 11.2468 4.3738 10.911C3.25027 10.6178 3.12168 10.6495 2.05199 10.4208C1.18132 10.237 0.449203 10.3933 0.222364 11.1702C-0.0252736 12.0074 0.509034 12.6242 1.63874 12.9596C2.68968 13.2626 2.30412 13.1568 3.41952 13.2932C4.52463 13.3592 5.433 13.1935 5.65367 12.3743" fill="#F9BA20"/>
<path d="M31.8903 28.4628C32.7712 31.2671 32.5331 34.4605 28.5806 35.6738C24.628 36.8986 22.1397 34.5178 21.0802 31.702C19.9611 28.7375 20.6992 26.517 24.7946 25.2235C28.1996 24.1476 30.7116 24.7314 31.8903 28.4513" fill="#848484"/>
<path d="M34.2022 12.9002C36.7188 18.592 35.245 24.1987 30.629 27.5118C25.6236 31.0939 13.7775 32.2974 9.85665 23.2926C5.93577 14.2878 12.7904 7.20854 19.6588 6.07586C26.1241 4.99982 31.6439 7.09528 34.2161 12.9144" fill="white"/>
<path d="M27.5973 20.0666C27.6687 20.3185 27.6449 20.5932 27.4902 20.8793C27.3116 21.1998 27.0258 21.4516 26.6806 21.6576C25.9782 22.0583 24.9067 22.3788 24.0138 22.23C23.7042 22.1727 23.3828 22.0583 23.0971 21.9095C22.9542 21.8293 22.8113 21.7492 22.6804 21.6576C22.8709 21.795 22.6566 21.6348 22.6209 21.589C22.5851 21.5546 22.347 21.2685 22.4542 21.4173C22.2518 21.1426 22.228 21.0052 22.1446 20.6733C22.097 20.513 22.0732 20.3413 22.0375 20.1811C22.0256 20.1239 22.0018 19.9407 22.0375 20.1925C22.0256 20.0895 22.0137 19.9751 22.0018 19.8721C21.9899 19.7004 21.978 19.5172 21.9899 19.3455C21.9899 19.2769 21.9899 19.2082 22.0018 19.1395C21.9899 19.4142 21.9899 19.2082 22.0018 19.1281C22.0256 19.0479 22.0494 18.9793 22.0613 18.8991C22.0851 18.7847 22.0494 18.7503 22.0375 18.9449C22.0375 18.922 22.2042 18.6931 22.0732 18.8534C22.0018 18.9335 22.0137 18.9335 22.0851 18.8534C22.1684 18.7732 22.1684 18.7847 22.0851 18.8534C22.0613 18.8648 22.0494 18.8877 22.0256 18.8991C22.1446 18.8419 22.1327 18.8419 21.9661 18.922C22.2042 18.8991 21.9661 18.9106 21.9303 18.922C22.0137 18.922 22.1089 18.922 22.1923 18.922C22.3113 18.922 22.4542 19.0022 22.1923 18.922C22.2518 18.9335 22.3113 18.9449 22.3708 18.9678C22.6209 19.0479 22.2518 18.8534 22.3589 18.9678C22.3947 19.0136 22.5018 19.0479 22.5494 19.0823C22.2994 18.9449 22.5018 19.0365 22.5732 19.1052C22.6089 19.151 22.6566 19.1967 22.7042 19.2311C22.9185 19.4142 22.597 19.025 22.728 19.2654C22.7875 19.3799 22.8709 19.4714 22.9304 19.5859C22.978 19.666 23.0137 19.7576 23.0614 19.8377C23.0375 19.8034 22.978 19.5859 23.0494 19.8034C23.109 19.9636 23.1685 20.1239 23.2161 20.2841C23.2518 20.41 23.2876 20.5474 23.3114 20.6733C23.3233 20.742 23.3352 20.8106 23.3471 20.8793C23.3947 21.051 23.3352 20.5588 23.3471 20.8335C23.3471 20.8908 23.4185 21.486 23.3471 21.5088C23.2876 21.5317 23.4542 21.1197 23.3471 21.4058C23.2995 21.5317 23.2757 21.6691 23.228 21.795C23.2995 21.6348 23.0852 22.0583 23.109 22.0239C23.0375 22.1498 22.9542 22.2872 22.8709 22.4131C22.6447 22.7336 22.2399 23.1456 22.0018 23.3059C21.5851 23.5806 21.1922 23.7637 20.7517 23.8896C20.216 24.0499 19.8945 24.0842 19.3945 23.9125C18.7397 23.6951 17.9897 24.1643 17.8111 24.7824C17.6206 25.4692 18.0492 26.0873 18.7159 26.3048C20.1564 26.7855 21.8113 26.3048 23.0733 25.5837C24.3114 24.874 25.2758 23.7065 25.752 22.3902C26.3353 20.7877 25.6805 18.51 24.4186 17.3425C23.609 16.587 22.3708 16.2093 21.2636 16.5641C19.9898 16.9647 19.4778 18.1437 19.4183 19.3341C19.3707 20.3413 19.5731 21.4516 20.0374 22.3673C20.585 23.489 21.7994 24.2445 23.0137 24.5879C26.1925 25.4921 31.1213 23.1571 30.0974 19.46C29.6688 17.9148 27.1806 18.5672 27.6092 20.1239" fill="#F9BA20"/>
</svg>
