<svg width="44" height="51" viewBox="0 0 44 51" fill="none" xmlns="http://www.w3.org/2000/svg">
<path d="M41.5915 27.7444L25.0312 3.08203L26.8469 3.63529L43.4071 28.2976L41.5915 27.7444Z" fill="#80D7B2"/>
<path d="M8.60938 21.6845L21.9988 41.5968C19.0269 44.7469 18.1217 45.8534 18.4513 47.563C18.7967 49.3424 21.5907 49.3624 23.129 48.3605C24.6621 47.3587 25.1696 46.3469 25.1696 46.3469L41.5886 27.7405L25.0283 3.07812L8.60938 21.6845Z" fill="#358C67"/>
<path d="M35.0882 26.5609L19.25 2.94531L24.5294 4.56521L40.3676 28.1758L35.0882 26.5609Z" fill="white"/>
<g style="mix-blend-mode:multiply">
<path d="M36.6108 27.0295L20.7464 3.40387L19.25 2.94531L35.0882 26.5609L36.6108 27.0295Z" fill="#D1D5E6"/>
</g>
<path d="M35.0949 26.5597L40.3743 28.1746L24.803 45.829C23.5054 47.2894 21.2607 48.1168 19.8061 47.6732C18.3515 47.2296 18.2207 45.6745 19.5236 44.2091L35.0949 26.5547V26.5597Z" fill="white"/>
<path opacity="0.2" d="M35.0949 26.5597L40.3743 28.1746L24.803 45.829C23.5054 47.2894 21.2607 48.1168 19.8061 47.6732C18.3515 47.2296 18.2207 45.6745 19.5236 44.2091L35.0949 26.5547V26.5597Z" fill="#4A4A4A"/>
<path opacity="0.2" d="M19.9427 47.7031C19.6078 47.0053 19.8485 46.0184 20.6909 45.0714L36.2623 27.417L36.6128 27.0232L35.085 26.5547L19.5137 44.2091C18.216 45.6695 18.3416 47.2246 19.7962 47.6732C19.8433 47.6881 19.8904 47.6931 19.9375 47.7081L19.9427 47.7031Z" fill="#4A4A4A"/>
<path d="M34.4952 25.5725L17.9297 0.910156L19.7453 1.46341L36.3055 26.1257L34.4952 25.5725Z" fill="#80D7B2"/>
<path d="M34.4954 25.5742L36.3057 26.1275L35.4581 27.0795L19.8868 44.7339C18.5892 46.1943 18.7147 47.7494 20.1693 48.198C21.6239 48.6466 23.8686 47.8142 25.1662 46.3538L41.5851 27.7474L43.4007 28.3056L26.9818 46.912C24.7894 49.3793 21.0065 50.7749 18.5525 50.0222C16.0986 49.2696 15.8841 46.6479 18.0764 44.1806L34.4954 25.5792V25.5742Z" fill="#358C67"/>
<path d="M1.5123 19.5116C-0.0312253 21.2511 -0.381782 23.0704 0.408296 24.2516C4.2802 30.0434 13.1019 43.1222 16.9685 48.914C16.1785 47.7277 16.5238 45.9134 18.0725 44.1739L34.4915 25.5725L17.9313 0.910156L1.5123 19.5166V19.5116Z" fill="#63C59C"/>
<path d="M15.5214 9.80168L7.07123 19.3865C6.63171 19.8849 6.52183 20.6625 6.83577 21.131L9.23739 24.7297C9.5461 25.1982 10.1583 25.1683 10.5978 24.6748L19.048 15.09C19.4875 14.5916 19.5921 13.814 19.2834 13.3505L16.8766 9.75184C16.5679 9.2883 15.9557 9.30824 15.5162 9.80667" fill="white"/>
<path d="M29.4352 45.794L27.2324 46.3722L26.9918 48.5403L22.5391 44.9367L24.9826 42.1953L29.4352 45.794Z" fill="#E83F63"/>
</svg>
