<svg width="200" height="173" viewBox="0 0 200 173" fill="none" xmlns="http://www.w3.org/2000/svg">
<g clip-path="url(#clip0_266_18877)">
<path d="M169.909 129.396C170.011 130.645 169.726 131.894 169.092 132.976C168.458 134.057 167.507 134.918 166.366 135.443C165.232 136.057 163.962 136.379 162.671 136.379C161.38 136.379 160.109 136.057 158.975 135.443C157.833 134.92 156.88 134.059 156.246 132.977C155.612 131.896 155.328 130.645 155.433 129.396V127.008H111.743C110.655 127.107 109.562 126.872 108.611 126.334C107.661 125.796 106.898 124.981 106.426 123.998C105.894 123.032 105.615 121.947 105.615 120.845C105.615 119.743 105.894 118.659 106.426 117.692C106.897 116.708 107.659 115.891 108.61 115.351C109.56 114.811 110.654 114.575 111.743 114.673H155.445V111.953C155.767 108.612 154.868 105.269 152.911 102.539C151.715 101.457 150.302 100.639 148.766 100.141C147.23 99.6421 145.606 99.4733 144 99.6454H111.465C110.377 99.7452 109.284 99.5105 108.333 98.9726C107.383 98.4344 106.62 97.6191 106.148 96.636C105.617 95.6696 105.338 94.585 105.338 93.4828C105.338 92.3807 105.617 91.2965 106.148 90.3302C106.621 89.3473 107.383 88.5317 108.334 87.9938C109.284 87.4559 110.377 87.2209 111.465 87.3205H148.293C162.842 87.3205 169.911 93.75 169.911 107.029V129.391L169.909 129.396ZM68.8863 100.988V108.31L91.5527 126.708C92.6388 127.403 93.4735 128.425 93.9356 129.626C94.3977 130.827 94.4626 132.145 94.1208 133.385C93.8685 134.543 93.2986 135.608 92.4747 136.461C91.6509 137.314 90.6056 137.922 89.4556 138.217C88.0962 138.537 86.6811 138.539 85.3207 138.222C83.9604 137.906 82.692 137.279 81.615 136.392L61.5638 119.458L41.3016 136.456C40.5706 137.246 39.666 137.857 38.6589 138.24C37.6515 138.623 36.569 138.769 35.4963 138.665C33.6219 138.364 31.8742 137.531 30.4617 136.266C29.8361 135.697 29.3477 134.994 29.0333 134.21C28.719 133.425 28.5871 132.581 28.6471 131.738C28.6924 130.745 28.9662 129.775 29.447 128.904C29.9281 128.033 30.6035 127.284 31.4212 126.716L54.0975 108.308V100.986H35.5062C34.6734 101.034 33.8408 100.888 33.0738 100.561C32.3069 100.233 31.6267 99.7329 31.0864 99.0987C30.0032 97.878 29.4053 96.3041 29.4053 94.6737C29.4053 93.0433 30.0032 91.4694 31.0864 90.2484C31.6281 89.6161 32.3085 89.1168 33.0752 88.7897C33.8417 88.4623 34.6736 88.316 35.5062 88.3618H53.0686L53.1407 86.9424C53.2514 84.8018 54.1819 82.7852 55.7397 81.3092C57.2978 79.8332 59.3642 79.0103 61.5128 79.0103C63.6614 79.0103 65.728 79.8332 67.2861 81.3092C68.8439 82.7852 69.7744 84.8018 69.8851 86.9424L69.9572 88.3618H87.6336C88.4658 88.316 89.2974 88.4625 90.0634 88.7897C90.8297 89.1171 91.5098 89.6161 92.0508 90.2484C93.134 91.4694 93.7322 93.0433 93.7322 94.6737C93.7322 96.3041 93.134 97.878 92.0508 99.0987C91.5094 99.73 90.8289 100.228 90.0627 100.553C89.2965 100.879 88.4651 101.024 87.6336 100.976L68.8863 100.988ZM199.132 110.583C199.132 99.0639 195.882 87.7776 189.753 78.015C183.625 68.2524 174.865 60.4076 164.477 55.3781C154.09 50.3486 142.492 48.3375 131.012 49.5748C119.532 50.812 108.633 55.2478 99.5619 62.3745C92.0719 56.4922 83.3139 52.427 73.9792 50.4997C64.6446 48.5724 54.9887 48.8357 45.7735 51.2688C36.5584 53.702 28.0362 58.2383 20.8794 64.52C13.7227 70.8016 8.12731 78.6566 4.53499 87.4651C0.942659 96.2735 -0.548298 105.794 0.179622 115.276C0.907541 124.758 3.83438 133.941 8.72937 142.101C13.6244 150.261 20.3535 157.174 28.3856 162.295C36.4178 167.417 45.5329 170.605 55.0122 171.61V150.947C55.0122 149.23 55.6961 147.583 56.9133 146.369C58.1307 145.154 59.7817 144.472 61.5031 144.472C63.2245 144.472 64.8755 145.154 66.0926 146.369C67.31 147.583 67.9938 149.23 67.9938 150.947V171.593C79.5192 170.394 90.4665 165.954 99.5619 158.791C108.658 165.954 119.606 170.394 131.132 171.593V150.947C131.132 149.23 131.816 147.583 133.034 146.369C134.251 145.154 135.902 144.472 137.623 144.472C139.345 144.472 140.996 145.154 142.213 146.369C143.43 147.583 144.114 149.23 144.114 150.947V171.61C159.221 170.012 173.202 162.893 183.362 151.625C193.522 140.358 199.144 125.739 199.144 110.583" fill="white"/>
</g>
<mask id="mask0_266_18877" style="mask-type:luminance" maskUnits="userSpaceOnUse" x="41" y="0" width="118" height="32">
<path d="M158.3 0H41.014V31.4952H158.3V0Z" fill="white"/>
</mask>
<g mask="url(#mask0_266_18877)">
<path d="M68.6742 9.58394C67.5859 9.58394 66.702 8.72823 66.702 7.67283V6.86228C66.702 5.82591 67.6049 4.95117 68.6742 4.95117H68.8666C69.9335 4.95117 70.8364 5.82591 70.8364 6.86228V7.67283C70.8364 8.72823 69.9525 9.58394 68.8666 9.58394H68.6742Z" fill="white"/>
<path d="M60.6404 29.1348C59.5926 29.1348 58.7419 28.2838 58.7419 27.2379V11.8516C57.4303 14.2143 54.8046 18.9161 54.8046 18.9161C54.1489 20.0832 53.2388 20.6274 51.9367 20.6274C50.6346 20.6274 49.7364 20.0784 49.0663 18.9065C49.0663 18.9065 46.3195 13.9743 45.1386 11.8516V27.2379C45.1386 28.2838 44.2879 29.1348 43.2424 29.1348H42.9026C41.8595 29.1348 41.0065 28.2838 41.0065 27.2379V7.70612C41.0065 6.05885 42.2326 4.95355 44.0503 4.95355C45.236 4.95355 46.1936 5.51452 46.752 6.53188C46.752 6.53188 50.8983 13.9338 51.9367 15.7926C53.1342 13.6629 57.1238 6.53663 57.1238 6.53663C57.6821 5.5169 58.6421 4.95117 59.8302 4.95117C61.6503 4.95117 62.8716 6.05648 62.8716 7.70374V27.2355C62.8716 28.2815 62.021 29.1324 60.9754 29.1324H60.6381L60.6404 29.1348Z" fill="white"/>
<path d="M68.6671 29.1332C67.6026 29.1332 66.702 28.2632 66.702 27.2363V12.9078C66.702 11.8857 67.6026 11.0156 68.6671 11.0156H68.8715C69.9359 11.0156 70.8364 11.8857 70.8364 12.9078V27.2363C70.8364 28.2656 69.9383 29.1332 68.8715 29.1332H68.6671Z" fill="white"/>
<path d="M93.0071 29.2948C88.9416 29.2948 86.5179 27.0604 86.5179 23.3262V22.9506C86.5179 17.9305 90.372 17.184 92.6698 17.184H97.441C97.403 15.2468 96.9516 14.6787 94.5207 14.6787H90.4599L89.5926 14.6739C88.4592 14.6739 87.6324 13.9276 87.6324 12.8959V12.7248C87.6324 11.8263 88.1717 10.8589 89.6806 10.8589H94.5207C99.2041 10.8589 101.58 13.0933 101.58 17.4931V23.9038C101.58 27.1271 99.0901 29.2972 95.3833 29.2972H93.0048L93.0071 29.2948ZM92.6389 20.992C91.3011 20.992 90.6476 21.4959 90.6476 22.537V23.5781C90.6476 24.6217 90.8259 25.4845 93.0048 25.4845H95.868C96.6332 25.4845 97.4434 24.9497 97.4434 23.9537V20.9944H92.6389V20.992Z" fill="white"/>
<path d="M112.086 10.8589C116.586 10.8589 119.164 13.0908 119.164 16.8275V17.2031C119.164 22.2162 115.31 22.9673 113.013 22.9673H108.244C108.277 24.9069 108.733 25.4774 111.164 25.4774H116.736C117.874 25.4798 118.699 26.2237 118.699 27.2578V27.4266C118.699 28.3251 118.162 29.2948 116.653 29.2948H111.166C106.481 29.2948 104.104 27.0604 104.104 22.6583V17.1437C104.104 13.6352 106.773 10.8589 110.872 10.8589H112.088H112.086ZM113.039 19.157C114.381 19.157 115.032 18.2893 115.032 17.2458V16.8869C115.032 15.6343 114.388 14.6644 112.212 14.6644H110.577C109.092 14.6644 108.239 15.6343 108.239 16.9035V19.157H113.039Z" fill="white"/>
<path d="M76.6051 29.1326C75.5429 29.1326 74.6423 28.2625 74.6423 27.2357V16.8149C74.6423 12.8691 76.7144 10.8677 81.1957 10.8677H83.5267C85.6533 10.8677 85.7626 12.3485 85.7626 12.6457V12.8762C85.7626 13.1757 85.6533 14.6804 83.5267 14.6804H80.9747C79.4516 14.6804 78.7744 15.4672 78.7744 17.2285V27.2357C78.7744 28.2649 77.8715 29.1326 76.8094 29.1326H76.6074H76.6051Z" fill="white"/>
<path d="M141.115 0C126.3 0 123.936 7.05493 123.936 15.7524C123.936 21.7638 125.069 26.9932 130.672 29.6436V9.08727C130.672 7.75139 131.283 6.40126 133.281 6.40126C134.673 6.40126 135.282 6.34658 136.32 7.69673L146.421 20.901V8.76875C146.421 6.96936 147.162 6.39888 148.593 6.39888H149.54C150.698 6.39888 151.567 7.21894 151.567 8.76875V29.6436C157.168 26.9908 158.299 21.7662 158.299 15.7524C158.299 7.05493 155.943 0 141.115 0Z" fill="white"/>
<path d="M135.527 14.1807V31.0788C137.159 31.3497 139.005 31.4947 141.113 31.4947C143.803 31.4947 146.074 31.2617 148.004 30.8268L135.529 14.1782L135.527 14.1807Z" fill="white"/>
</g>
<defs>
<clipPath id="clip0_266_18877">
<rect width="199.144" height="123.28" fill="white" transform="translate(0 49.2197)"/>
</clipPath>
</defs>
</svg>
