<svg xmlns="http://www.w3.org/2000/svg" xmlns:xlink="http://www.w3.org/1999/xlink" viewBox="0 0 1175.34 179.61"><defs><style>.cls-1{fill:none;}.cls-2{fill:red;}.cls-3{fill:#fff;}.cls-4{fill:#73a950;}.cls-5{fill:#372f28;}.cls-6{fill:#bb312b;}.cls-7{fill:#222c87;}.cls-8{fill:#ffef00;}.cls-9{fill:#753627;}.cls-10{clip-path:url(#clip-path);}.cls-11{fill:#282322;}.cls-12{fill:#251e1c;}.cls-13{fill:#080707;}.cls-14{fill:#000400;}</style><clipPath id="clip-path" transform="translate(-25.58)"><rect class="cls-1" x="536.79" y="140.15" width="150.09" height="21.83"/></clipPath></defs><g id="レイヤー_2" data-name="レイヤー 2"><g id="BUTTON"><rect class="cls-2" x="93.86" width="68.7" height="68.7"/><rect class="cls-3" x="144.49" y="9.4" width="4.34" height="21.7"/><path class="cls-3" d="M142.59,23.87a7.23,7.23,0,1,1-14.46,0V9.4h4.34V23.87a2.89,2.89,0,1,0,5.77,0V9.4h4.35Z" transform="translate(-25.58)"/><polygon class="cls-3" points="137.25 59.3 122.79 59.3 122.79 37.6 127.13 37.6 127.13 54.96 137.25 54.96 137.25 59.3"/><polygon class="cls-3" points="137.25 31.1 132.91 31.1 127.13 18.7 127.13 31.1 122.79 31.1 122.79 9.4 127.13 9.4 132.91 21.8 132.91 9.4 137.25 9.4 137.25 31.1"/><path class="cls-3" d="M135.36,37.6a7.23,7.23,0,0,0-7.23,7.24v7.23a7.31,7.31,0,0,0,8.63,7.11l1.48,4.47h4.35l-2.15-6.44a7.17,7.17,0,0,0,2.15-5.14V44.84a7.24,7.24,0,0,0-7.23-7.24m2.88,14.47a2.89,2.89,0,1,1-5.77,0V44.84a2.89,2.89,0,0,1,5.77,0Z" transform="translate(-25.58)"/><path class="cls-3" d="M172.25,37.6A7.24,7.24,0,0,0,165,44.84v7.23a7.24,7.24,0,0,0,14.47,0V44.84a7.23,7.23,0,0,0-7.22-7.24m2.88,14.47a2.89,2.89,0,1,1-5.78,0V44.84a2.89,2.89,0,0,1,5.78,0Z" transform="translate(-25.58)"/><rect class="cls-2" x="7.99" width="68.7" height="68.7"/><rect class="cls-3" x="47.04" y="26.04" width="19.51" height="4.33"/><rect class="cls-3" x="49.2" y="9.4" width="15.19" height="4.34"/><polygon class="cls-3" points="33.3 9.4 20.27 9.4 20.27 13.74 28.96 13.74 28.96 26.04 18.12 26.04 18.12 30.37 37.64 30.37 37.64 26.04 33.3 26.04 33.3 9.4"/><path class="cls-3" d="M72.63,38.32h0v21h19.5v-21ZM87.79,55H77V42.67H87.79Z" transform="translate(-25.58)"/><polygon class="cls-3" points="20.27 38.32 18.06 48.82 22.39 48.82 23.7 42.67 32.41 42.67 29.86 54.96 16.81 54.96 15.94 59.3 33.3 59.3 37.64 38.32 20.27 38.32"/><polygon class="cls-4" points="862.86 165.94 862.86 135.17 882.56 135.17 838.97 104.39 838.96 104.39 795.37 135.17 815.07 135.17 815.07 165.94 862.86 165.94"/><rect class="cls-3" x="823.58" y="126.66" width="30.78" height="30.78"/><path class="cls-5" d="M834.12,173.37a.93.93,0,0,0-.27-.68.94.94,0,0,0-.68-.27.88.88,0,0,0-.67.28.89.89,0,0,0-.28.67v2.52a.8.8,0,0,0,.08.37.92.92,0,0,0,.5.5,1,1,0,0,0,.37.08.9.9,0,0,0,.69-.28,1,1,0,0,0,.26-.71h-1v-1.38h2.37v1.42a2.24,2.24,0,0,1-.19.93,2.31,2.31,0,0,1-.51.76,2.46,2.46,0,0,1-.75.5,2.36,2.36,0,0,1-.92.18,2.3,2.3,0,0,1-1.68-.69,2.21,2.21,0,0,1-.51-.76,2.36,2.36,0,0,1-.18-.92v-2.52a2.3,2.3,0,0,1,.69-1.67,2.62,2.62,0,0,1,.75-.51,2.24,2.24,0,0,1,.93-.19,2.41,2.41,0,0,1,.93.18,2.49,2.49,0,0,1,.75.51,2.31,2.31,0,0,1,.51.76,2.39,2.39,0,0,1,.18.92Z" transform="translate(-25.58)"/><path class="cls-5" d="M836.43,178.19v-5h1.27v.3a1.23,1.23,0,0,1,.81-.3,1.41,1.41,0,0,1,.63.14,1.69,1.69,0,0,1,.54.39l-.91.92a.62.62,0,0,0-.44-.18.61.61,0,0,0-.45.18.6.6,0,0,0-.18.44v3.09Z" transform="translate(-25.58)"/><path class="cls-5" d="M842.19,178.19v-.3a1.33,1.33,0,0,1-.34.22,1,1,0,0,1-.37.08h-.27a1.45,1.45,0,0,1-.59-.12,1.58,1.58,0,0,1-.5-.34,1.72,1.72,0,0,1-.34-.49,1.54,1.54,0,0,1,0-1.19,1.68,1.68,0,0,1,.83-.83,1.46,1.46,0,0,1,.6-.12h1a.72.72,0,0,0-.17-.5.6.6,0,0,0-.47-.18.64.64,0,0,0-.57.38l-1.18-.49a2.07,2.07,0,0,1,.71-.84,1.75,1.75,0,0,1,1-.32,1.87,1.87,0,0,1,.76.15,1.87,1.87,0,0,1,1,1,2,2,0,0,1,.15.78v3.09Zm-1-1.9a.41.41,0,0,0-.26.09.33.33,0,0,0-.1.27.4.4,0,0,0,.09.25.36.36,0,0,0,.27.1h.35a.6.6,0,0,0,.46-.18.64.64,0,0,0,.17-.47v-.06Z" transform="translate(-25.58)"/><path class="cls-5" d="M849.48,178.19v-3.06a.63.63,0,0,0-.65-.65.65.65,0,0,0-.65.65v3.06h-1.27v-3.06a.65.65,0,0,0-.65-.65.63.63,0,0,0-.46.19.62.62,0,0,0-.19.46v3.06h-1.27v-5h1.27v.3a1.22,1.22,0,0,1,.84-.3,1.75,1.75,0,0,1,.68.13,1.67,1.67,0,0,1,.56.39,1.74,1.74,0,0,1,1.25-.52,1.78,1.78,0,0,1,.7.14,1.63,1.63,0,0,1,.69.51,1.56,1.56,0,0,1,.33.56,2.84,2.84,0,0,1,.08.69v3.08Z" transform="translate(-25.58)"/><path class="cls-5" d="M852.71,176.2v.15a.65.65,0,0,0,.2.47.61.61,0,0,0,.47.2.64.64,0,0,0,.49-.2l.85.87a1.85,1.85,0,0,1-.61.42,2,2,0,0,1-.74.14,1.8,1.8,0,0,1-.73-.15,1.82,1.82,0,0,1-.61-.41,1.85,1.85,0,0,1-.4-.61,1.8,1.8,0,0,1-.15-.73v-1.3a1.81,1.81,0,0,1,.15-.74,2,2,0,0,1,1-1,1.9,1.9,0,0,1,1.48,0,1.78,1.78,0,0,1,.6.41,1.94,1.94,0,0,1,.41.6,1.81,1.81,0,0,1,.15.74v1.15Zm1.34-1.11a.73.73,0,0,0-.19-.52.63.63,0,0,0-.48-.2.64.64,0,0,0-.48.2.73.73,0,0,0-.19.52Z" transform="translate(-25.58)"/><path class="cls-5" d="M857.11,176.2v.15a.65.65,0,0,0,.2.47.62.62,0,0,0,.48.2.66.66,0,0,0,.49-.2l.85.87a1.85,1.85,0,0,1-1.35.56,1.85,1.85,0,0,1-.74-.15,1.78,1.78,0,0,1-.6-.41,1.87,1.87,0,0,1-.41-.61,1.8,1.8,0,0,1-.15-.73v-1.3a1.81,1.81,0,0,1,.15-.74,1.94,1.94,0,0,1,.41-.6,2,2,0,0,1,.6-.41,1.86,1.86,0,0,1,.75-.15,1.8,1.8,0,0,1,.73.15,1.82,1.82,0,0,1,.61.41,1.91,1.91,0,0,1,.4.6,1.81,1.81,0,0,1,.15.74v1.15Zm1.34-1.11a.77.77,0,0,0-.18-.52.69.69,0,0,0-1,0,.73.73,0,0,0-.19.52Z" transform="translate(-25.58)"/><path class="cls-5" d="M862.94,178.19v-3.08a.61.61,0,0,0-.63-.63.61.61,0,0,0-.45.18.6.6,0,0,0-.18.44v3.09h-1.27v-5h1.27v.3a1.28,1.28,0,0,1,.87-.3,1.44,1.44,0,0,1,.65.14,1.46,1.46,0,0,1,.53.39,2,2,0,0,1,.35.59,2.45,2.45,0,0,1,.12.78v3.08Z" transform="translate(-25.58)"/><path class="cls-5" d="M872.89,171.07v4.82a2.41,2.41,0,0,1-.7,1.68,2.43,2.43,0,0,1-.75.51,2.36,2.36,0,0,1-.92.18,2.41,2.41,0,0,1-.93-.18,2.32,2.32,0,0,1-.75-.51,2.21,2.21,0,0,1-.51-.76,2.36,2.36,0,0,1-.18-.92v-4.82h1.42v4.82a.94.94,0,0,0,.07.37,1,1,0,0,0,.21.3.93.93,0,0,0,.3.2.9.9,0,0,0,.74,0,.92.92,0,0,0,.5-.5,1,1,0,0,0,.08-.37v-4.82Z" transform="translate(-25.58)"/><polygon class="cls-5" points="849.84 178.19 848.42 178.19 848.42 171.07 849.84 171.07 851.74 175.31 851.74 171.07 853.16 171.07 853.16 178.19 851.74 178.19 849.84 173.96 849.84 178.19"/><rect class="cls-5" x="854.29" y="171.07" width="1.42" height="7.12"/><path class="cls-5" d="M887.05,179.61h-1.42l-.47-1.39-.26,0h-.21a2.41,2.41,0,0,1-.93-.18,2.48,2.48,0,0,1-.76-.51,2.34,2.34,0,0,1-.5-.76,2.2,2.2,0,0,1-.19-.92v-2.52a2.23,2.23,0,0,1,.19-.92,2.52,2.52,0,0,1,.5-.75,2.67,2.67,0,0,1,.76-.51,2.35,2.35,0,0,1,1.85,0,2.42,2.42,0,0,1,1.26,1.26,2.4,2.4,0,0,1,.19.92v2.52a2.27,2.27,0,0,1-.18.91,2.21,2.21,0,0,1-.53.78Zm-3.32-3.72a1,1,0,0,0,.08.37,1,1,0,0,0,.21.3.93.93,0,0,0,.3.2.91.91,0,0,0,.37.08.89.89,0,0,0,.36-.07,1,1,0,0,0,.31-.21,1.21,1.21,0,0,0,.2-.3.87.87,0,0,0,.08-.37v-2.52a.93.93,0,0,0-.27-.69,1,1,0,0,0-.68-.26,1.11,1.11,0,0,0-.37.07.81.81,0,0,0-.3.21,1,1,0,0,0-.21.3,1,1,0,0,0-.08.37Z" transform="translate(-25.58)"/><polygon class="cls-5" points="863.9 176.77 867.22 176.77 867.22 178.19 862.48 178.19 862.48 171.07 863.9 171.07 863.9 176.77"/><path class="cls-5" d="M898.29,175.89a2.2,2.2,0,0,1-.19.92,2.4,2.4,0,0,1-1.26,1.27,2.47,2.47,0,0,1-1.85,0,2.48,2.48,0,0,1-.76-.51,2.34,2.34,0,0,1-.5-.76,2.37,2.37,0,0,1-.19-.92v-2.52a2.4,2.4,0,0,1,.19-.92,2.52,2.52,0,0,1,.5-.75,2.67,2.67,0,0,1,.76-.51,2.35,2.35,0,0,1,1.85,0,2.42,2.42,0,0,1,1.26,1.26,2.23,2.23,0,0,1,.19.92Zm-3.32,0a.94.94,0,0,0,.07.37,1,1,0,0,0,.21.3.93.93,0,0,0,.3.2.91.91,0,0,0,.37.08,1,1,0,0,0,.37-.08.92.92,0,0,0,.5-.5,1,1,0,0,0,.08-.37v-2.52a1,1,0,0,0-.08-.37,1.21,1.21,0,0,0-.2-.3,1,1,0,0,0-.3-.21,1.16,1.16,0,0,0-.37-.07,1.11,1.11,0,0,0-.37.07.81.81,0,0,0-.3.21,1,1,0,0,0-.21.3.94.94,0,0,0-.07.37Z" transform="translate(-25.58)"/><rect class="cls-6" x="826.14" y="129.23" width="25.65" height="25.65"/><rect class="cls-3" x="845.04" y="132.73" width="1.62" height="8.1"/><path class="cls-3" d="M860.36,138.14a2.7,2.7,0,1,1-5.4,0v-5.41h1.63v5.41a1.08,1.08,0,1,0,2.15,0v-5.41h1.62Z" transform="translate(-25.58)"/><polygon class="cls-3" points="842.34 151.37 836.94 151.37 836.94 143.26 838.56 143.26 838.56 149.74 842.34 149.74 842.34 151.37"/><polygon class="cls-3" points="842.34 140.84 840.72 140.84 838.56 136.21 838.56 140.84 836.94 140.84 836.94 132.74 838.56 132.74 840.72 137.37 840.72 132.74 842.34 132.74 842.34 140.84"/><path class="cls-3" d="M857.66,143.26A2.71,2.71,0,0,0,855,146v2.7a2.7,2.7,0,0,0,2.7,2.7,3.07,3.07,0,0,0,.53-.05l.55,1.67h1.62l-.8-2.4a2.69,2.69,0,0,0,.8-1.92V146a2.7,2.7,0,0,0-2.7-2.71m1.08,5.41a1.08,1.08,0,0,1-2.15,0V146a1.08,1.08,0,1,1,2.15,0Z" transform="translate(-25.58)"/><path class="cls-3" d="M871.44,143.26a2.71,2.71,0,0,0-2.71,2.71v2.7a2.7,2.7,0,1,0,5.4,0V146a2.71,2.71,0,0,0-2.69-2.71m1.07,5.41a1.07,1.07,0,0,1-1.07,1.07,1.08,1.08,0,0,1-1.09-1.07V146a1.08,1.08,0,1,1,2.16,0Z" transform="translate(-25.58)"/><rect class="cls-7" x="311.31" width="68.7" height="68.7"/><path class="cls-8" d="M371.65,31.85H356.88v5h9.68a10,10,0,1,1-3.08-10h6.37a15,15,0,1,0,2,7.49A15.91,15.91,0,0,0,371.65,31.85Z" transform="translate(-25.58)"/><path class="cls-8" d="M395.6,21.24V37.47h0a6.87,6.87,0,1,1-13.74,0V21.24h-5V37.47a11.87,11.87,0,1,0,23.73,0h0V21.24Z" transform="translate(-25.58)"/><rect class="cls-9" x="1023.36" y="7.8" width="151.98" height="53.1"/><path class="cls-3" d="M1070.25,22.66a2.36,2.36,0,0,0-2.61-1.95c-1.18,0-2.93.76-2.93,3.94,0,2,.84,3.85,2.93,3.85a2.48,2.48,0,0,0,2.61-2.12h2.47a4.85,4.85,0,0,1-5.13,4.17c-3.14,0-5.39-2-5.39-5.93s2.39-5.95,5.42-5.95c3.54,0,5,2.33,5.1,4h-2.47" transform="translate(-25.58)"/><path class="cls-3" d="M1074.06,24.61c0,5.29,4.11,5.94,5.67,5.94s5.67-.65,5.67-5.94-4.11-5.94-5.67-5.94-5.67.64-5.67,5.94m2.47,0c0-3.16,1.87-3.94,3.2-3.94s3.2.78,3.2,3.94-1.87,3.94-3.2,3.94S1076.53,27.76,1076.53,24.61Z" transform="translate(-25.58)"/><polyline class="cls-3" points="1073.1 30.25 1070.8 30.25 1070.8 20.82 1070.77 20.82 1068.57 30.25 1066.15 30.25 1064 20.82 1063.97 20.82 1063.97 30.25 1061.67 30.25 1061.67 18.96 1065.27 18.96 1067.4 27.86 1067.43 27.86 1069.54 18.96 1073.1 18.96 1073.1 30.25"/><path class="cls-3" d="M1105.8,24.23c1.83,0,1.83-1.25,1.83-1.76,0-1.1-.63-1.55-2.16-1.55h-2v3.31h2.29m-2.29,6h-2.46V19h5.39a3.37,3.37,0,0,1,3.66,3.62,3.52,3.52,0,0,1-3.76,3.6h-2.83Z" transform="translate(-25.58)"/><polyline class="cls-3" points="1091.43 30.25 1088.97 30.25 1088.97 20.96 1085.4 20.96 1085.4 18.96 1095 18.96 1095 20.96 1091.43 20.96 1091.43 30.25"/><path class="cls-3" d="M1120.86,24.61c0,5.29,4.11,5.94,5.67,5.94s5.66-.65,5.66-5.94-4.1-5.94-5.66-5.94-5.67.64-5.67,5.94m2.46,0c0-3.16,1.88-3.94,3.21-3.94s3.2.78,3.2,3.94-1.87,3.94-3.2,3.94S1123.32,27.76,1123.32,24.61Z" transform="translate(-25.58)"/><rect class="cls-3" x="1108.38" y="18.96" width="2.46" height="11.29"/><path class="cls-3" d="M1138.73,30.25h2.42V25.83h2.54c1.82,0,1.92.6,1.92,2.14a7.41,7.41,0,0,0,.26,2.28h2.73V30c-.52-.19-.52-.6-.52-2.25,0-2.1-.53-2.45-1.5-2.86a2.68,2.68,0,0,0,1.83-2.68c0-1-.58-3.2-3.72-3.2h-6V30.25m2.42-6.32v-3h3.07c1.44,0,1.72.87,1.72,1.47,0,1.12-.62,1.54-1.91,1.54Z" transform="translate(-25.58)"/><path class="cls-3" d="M1155.16,30.25h5.11c3.89,0,4.89-3.49,4.89-5.91,0-2.14-.82-5.38-4.8-5.38h-5.2V30.25m2.41-9.33h2.36c1.06,0,2.72.26,2.72,3.59,0,1.85-.68,3.79-2.68,3.79h-2.4Z" transform="translate(-25.58)"/><polyline class="cls-3" points="1150.11 20.96 1143.85 20.96 1143.85 23.33 1149.6 23.33 1149.6 25.33 1143.85 25.33 1143.85 28.25 1150.38 28.25 1150.38 30.25 1141.43 30.25 1141.43 18.96 1150.11 18.96 1150.11 20.96"/><path class="cls-3" d="M1179.73,26.78c0,.62.35,1.82,2.5,1.82,1.16,0,2.46-.27,2.46-1.46,0-.88-.89-1.12-2.14-1.4l-1.26-.28c-1.91-.43-3.75-.84-3.75-3.32,0-1.26.71-3.47,4.54-3.47,3.61,0,4.58,2.26,4.6,3.64h-2.37c-.06-.5-.26-1.69-2.42-1.69-.93,0-2.05.33-2.05,1.35s.76,1.07,1.25,1.18l2.88.67c1.61.38,3.08,1,3.08,3,0,3.4-3.61,3.7-4.64,3.7-4.31,0-5.05-2.38-5.05-3.77h2.37" transform="translate(-25.58)"/><path class="cls-3" d="M1079.25,42.36a2.36,2.36,0,0,0-2.61-2c-1.18,0-2.92.76-2.92,4,0,2,.83,3.85,2.92,3.85a2.49,2.49,0,0,0,2.61-2.13h2.46a4.84,4.84,0,0,1-5.12,4.17c-3.14,0-5.39-2-5.39-5.92s2.38-6,5.42-6c3.53,0,5,2.32,5.09,4h-2.46" transform="translate(-25.58)"/><path class="cls-3" d="M1083.06,44.31c0,5.3,4.11,5.94,5.67,5.94s5.67-.64,5.67-5.94-4.11-5.94-5.67-5.94-5.67.64-5.67,5.94m2.46,0c0-3.16,1.88-3.94,3.21-3.94s3.2.78,3.2,3.94-1.87,3.94-3.2,3.94S1085.52,47.47,1085.52,44.31Z" transform="translate(-25.58)"/><polyline class="cls-3" points="1075.14 49.95 1072.68 49.95 1072.68 40.66 1069.11 40.66 1069.11 38.66 1078.7 38.66 1078.7 40.66 1075.14 40.66 1075.14 49.95"/><path class="cls-3" d="M1104.57,44.31c0,5.3,4.1,5.94,5.67,5.94s5.66-.64,5.66-5.94-4.11-5.94-5.66-5.94-5.67.64-5.67,5.94m2.46,0c0-3.16,1.88-3.94,3.21-3.94s3.2.78,3.2,3.94-1.87,3.94-3.2,3.94S1107,47.47,1107,44.31Z" transform="translate(-25.58)"/><polyline class="cls-3" points="1099.49 38.66 1101.78 38.66 1101.78 49.95 1099.32 49.95 1094.51 41.91 1094.47 41.91 1094.47 49.95 1092.17 49.95 1092.17 38.66 1094.77 38.66 1099.45 46.52 1099.49 46.52 1099.49 38.66"/><polyline class="cls-3" points="1111.35 38.66 1113.64 38.66 1113.64 49.95 1111.18 49.95 1106.37 41.91 1106.33 41.91 1106.33 49.95 1104.03 49.95 1104.03 38.66 1106.63 38.66 1111.31 46.52 1111.35 46.52 1111.35 38.66"/><rect class="cls-3" x="1115.81" y="38.67" width="2.47" height="11.29"/><polyline class="cls-3" points="1129.25 40.66 1122.99 40.66 1122.99 43.04 1128.73 43.04 1128.73 45.03 1122.99 45.03 1122.99 47.95 1129.53 47.95 1129.53 49.95 1120.58 49.95 1120.58 38.66 1129.25 38.66 1129.25 40.66"/><path class="cls-3" d="M1157.11,50h2.41V45.54h2.55c1.83,0,1.92.59,1.92,2.13a7,7,0,0,0,.27,2.28H1167v-.3c-.52-.19-.52-.6-.52-2.24,0-2.11-.53-2.46-1.5-2.86a2.7,2.7,0,0,0,1.83-2.69c0-1-.58-3.19-3.71-3.19h-6V50m2.41-6.32v-3h3.08c1.44,0,1.72.88,1.72,1.48,0,1.12-.62,1.54-1.9,1.54Z" transform="translate(-25.58)"/><path class="cls-3" d="M1170.73,46.48c0,.62.34,1.82,2.5,1.82,1.16,0,2.46-.27,2.46-1.46,0-.88-.89-1.12-2.13-1.4l-1.27-.28c-1.9-.43-3.75-.83-3.75-3.32,0-1.26.71-3.47,4.54-3.47,3.61,0,4.58,2.26,4.6,3.65h-2.37c-.07-.51-.26-1.7-2.42-1.7-.93,0-2.05.33-2.05,1.35s.76,1.07,1.25,1.17l2.88.69c1.6.37,3.08,1,3.08,3,0,3.39-3.61,3.69-4.64,3.69-4.31,0-5-2.38-5-3.77h2.36" transform="translate(-25.58)"/><polyline points="742.03 46.69 742.03 22.01 746.64 22.01 746.64 31.78 753.09 31.78 753.09 22.01 757.7 22.01 757.7 46.69 753.09 46.69 753.09 35.4 746.64 35.4 746.64 46.69 742.03 46.69"/><polyline points="762.01 46.69 762.01 22.01 774.98 22.01 774.98 25.63 766.62 25.63 766.62 31.85 774.32 31.85 774.32 35.47 766.62 35.47 766.62 43.07 774.98 43.07 774.98 46.69 762.01 46.69"/><polyline points="778.6 46.69 778.6 22.01 783.2 22.01 783.2 43.07 791.76 43.07 791.76 46.69 778.6 46.69"/><path d="M825.21,46.69H820.6V22h7.34l2.47,11.45a54.78,54.78,0,0,1,.85,5.7h.07a53.92,53.92,0,0,1,.72-5.7L834.52,22h7.31V46.69h-4.61V38.93c0-4.91.1-9.81.39-14.72h-.06l-4.94,22.48h-2.8L825,24.21h-.17c.3,4.91.4,9.81.4,14.72v7.76" transform="translate(-25.58)"/><path d="M857.29,22h4.61V39.22c0,5.46-1.78,8.06-7.8,8.06s-7.86-2.6-7.86-8.06V22h4.6V38.83c0,2.37.17,4.73,3.29,4.73s3.16-2.36,3.16-4.73V22" transform="translate(-25.58)"/><polyline points="839.08 22.01 854.45 22.01 854.45 25.63 849.09 25.63 849.09 46.69 844.48 46.69 844.48 25.63 839.08 25.63 839.08 22.01"/><polyline points="865.44 46.69 865.44 22.01 870.05 22.01 870.05 43.07 878.6 43.07 878.6 46.69 865.44 46.69"/><path d="M905.54,46.69,911.43,22h6.22l5.59,24.68H918.3l-1.21-6.25h-5.4l-1.22,6.25Zm6.87-9.87h4l-1.25-7c-.23-1.15-.33-2.27-.46-3.42,0-.56-.1-1.12-.16-1.65h-.07c-.07.53-.13,1.09-.16,1.65-.14,1.15-.23,2.27-.47,3.42l-1.38,7" transform="translate(-25.58)"/><path d="M936.8,22h4.61V46.69H936.6L933,37.9a84.7,84.7,0,0,1-3.29-9.8h-.06c.16,2,.36,4.54.49,7s.23,4.94.23,6.91v4.64h-4.61V22h4.78l3.58,9a82.81,82.81,0,0,1,3.29,9.81h.07c-.17-2.24-.33-4.64-.46-7s-.23-4.74-.23-6.94V22" transform="translate(-25.58)"/><path d="M945.45,32.38c.2-6.29.69-11,8.06-11,4,0,6.69,1,7.74,5.33a15.13,15.13,0,0,1,.23,3h-4.61c-.06-2.5-.23-4.47-3.36-4.6-3.61,0-3.32,4.31-3.32,6.22V38.2c0,2,.17,5.36,3.32,5.36,2.64,0,3.49-2.79,3.4-6.51h-3.2V33.43h7.67V46.69h-3.45V43.86h-.07a4.67,4.67,0,0,1-4.35,3.42c-7.56,0-8.06-4.8-8.06-11.38V32.38" transform="translate(-25.58)"/><g class="cls-10"><path class="cls-11" d="M591.42,152.11v9H588V140.92h4.92a17.67,17.67,0,0,1,3.08.21,5.65,5.65,0,0,1,2.34.93,4.92,4.92,0,0,1,1.53,1.87,6,6,0,0,1,.56,2.57c0,3.26-1.68,5.09-5,5.46l5,6.16.71-1.43h3.31l-2.19,4.45H598.9l-7.21-9Zm0-2.67h.64a8.27,8.27,0,0,0,3.48-.48,2.24,2.24,0,0,0,1.16-2.3,2.5,2.5,0,0,0-1.13-2.44,7.29,7.29,0,0,0-3.51-.58h-.64v5.8Z" transform="translate(-25.58)"/><path class="cls-11" d="M542,158.59a1.54,1.54,0,0,0,1.46-.68,4.88,4.88,0,0,0,.35-2.25V140.94h3.5v15.8a4.43,4.43,0,0,1-1.2,3.48,6.09,6.09,0,0,1-4,1.45,5.49,5.49,0,0,1-4-1.44c-.81-.82-1.2-2.87-1.2-4.56h3.5a5,5,0,0,0,.35,2.25,1.29,1.29,0,0,0,1.31.67Z" transform="translate(-25.58)"/></g><path class="cls-11" d="M568.26,149.47h1.33a7.38,7.38,0,0,0,3.49-.5,2.82,2.82,0,0,0-.19-4.89,6.78,6.78,0,0,0-3.3-.41h-1.33v5.8Zm0,8.95h1.21a20.78,20.78,0,0,0,2.54-.12,4.17,4.17,0,0,0,1.69-.51,3,3,0,0,0,1.36-2.58,2.93,2.93,0,0,0-1.67-2.8,4.22,4.22,0,0,0-1.34-.37,10.44,10.44,0,0,0-1.51-.08h-2.28v6.46Zm-3.47,2.74V140.92h5.48a20.29,20.29,0,0,1,3.05.16,5.36,5.36,0,0,1,2.32.86,4.67,4.67,0,0,1,1.57,1.79,5.65,5.65,0,0,1,.56,2.48,4.48,4.48,0,0,1-.8,2.7,4.25,4.25,0,0,1-2.33,1.52,4.62,4.62,0,0,1,3,1.61,5.2,5.2,0,0,1,1.09,3.37,6.13,6.13,0,0,1-.47,2.36,5.55,5.55,0,0,1-1.29,1.86,5.31,5.31,0,0,1-2.77,1.31,23.47,23.47,0,0,1-3.89.22Z" transform="translate(-25.58)"/><path class="cls-11" d="M617,153.23h6.28l-3.13-6.91L617,153.23Zm9.9,8L624.57,156h-8.82l-2.4,5.21h-3.71l10.52-21,10.51,21Z" transform="translate(-25.58)"/><polygon class="cls-11" points="612.76 161.18 612.76 140.15 628.93 154.99 628.93 140.94 632.18 140.94 632.18 161.98 616.01 147.11 616.01 161.18 612.76 161.18 612.76 161.18"/><path class="cls-11" d="M672,158.19h3a17,17,0,0,0,3.22-.21,5.64,5.64,0,0,0,2.58-1.12,8.14,8.14,0,0,0,0-11.66,5.91,5.91,0,0,0-2.74-1.13,20.84,20.84,0,0,0-3.49-.2H672v14.32Zm-3.53,3V140.92h4.78c1.35,0,2.61,0,3.77.07a15,15,0,0,1,3.25.5,8.75,8.75,0,0,1,5.67,4.76,11.38,11.38,0,0,1,1,4.81q0,5.49-3.83,8.21A9.52,9.52,0,0,1,679,160.9a30.42,30.42,0,0,1-4.83.27h-5.71Z" transform="translate(-25.58)"/><path class="cls-12" d="M137,154.21c0-2.15-1.45-2.69-3.25-3.23-2.52-.74-5.58-2-5.58-6a6,6,0,0,1,5.92-5.92,7.56,7.56,0,0,1,5.49,2.5l-2.12,2.17a5.36,5.36,0,0,0-3.37-1.55,2.8,2.8,0,0,0-2.81,2.8c0,2.29,1.86,2.66,4,3.28,2.28.69,4.86,2.12,4.86,6a6.48,6.48,0,0,1-6.46,6.46,7.59,7.59,0,0,1-5.49-2.55l2.17-2.13a4.86,4.86,0,0,0,3.24,1.53,3.35,3.35,0,0,0,3.42-3.31Zm41.38-11.63h-5.19v-3.12h13.51v3.12h-5.2v17.66h-3.12V142.58ZM86.4,157.12h7.8v3.12H83.28V139.46H86.4v17.66ZM43,148.8H38.85v-6.22H43a3.11,3.11,0,1,1,0,6.22Zm0-9.34H35.73v20.78h3.12v-8.32H43a6.23,6.23,0,1,0,0-12.46Zm121.41-5h31v31h-31v-31Zm-.72,31.73h32.46V133.74H163.68v32.45Zm-45.31-31.73h31v31h-31v-31Zm-.72,31.73H150.1V133.74H117.65v32.45ZM72.34,134.46h31v31h-31v-31Zm-.72,31.73h32.45V133.74H71.62v32.45ZM26.3,134.46h31v31h-31v-31Zm-.72,31.73H58V133.74H25.58v32.45Z" transform="translate(-25.58)"/><path class="cls-13" d="M442.64,159.56h-.05v.26h0a.88.88,0,0,1,.56.16c.09.1.12.26.12.57v2.57a.93.93,0,0,1-.1.57c-.09.1-.24.15-.58.18h0v.23h.05c.4,0,.8,0,1.21,0s.77,0,1.15,0h.05v-.23h0c-.35,0-.52-.08-.6-.18s-.11-.26-.11-.57V162a2.68,2.68,0,0,0,.84.13,1.34,1.34,0,0,0,1.5-1.23c0-.95-.83-1.38-1.69-1.38-.23,0-.45,0-.67,0l-.62,0c-.42,0-.77,0-1,0Zm1.66.4a1.55,1.55,0,0,1,.53-.09.74.74,0,0,1,.63.27,1.23,1.23,0,0,1,.18.7.85.85,0,0,1-.87,1,1.52,1.52,0,0,1-.47-.1V160Z" transform="translate(-25.58)"/><path class="cls-13" d="M453.48,161.84l.52-1.41.49,1.41Zm-.46,1.27.33-.92h1.27l.22.64a1.12,1.12,0,0,0,.05.13,2.12,2.12,0,0,1,.17.56.23.23,0,0,1-.15.22,1.22,1.22,0,0,1-.49.11h-.05v.26h.05c.37,0,.75,0,1.12,0s.87,0,1.22,0h.05v-.26h-.05a.67.67,0,0,1-.65-.38l-1.48-4,0,0a3.68,3.68,0,0,1-.82.23l0,0,.13.35-1.31,3.06a1.9,1.9,0,0,1-.27.5.78.78,0,0,1-.5.21h0v.26h0c.27,0,.54,0,.81,0s.57,0,.86,0h.05v-.25h0a1.09,1.09,0,0,1-.37-.13c-.11-.06-.18-.14-.18-.22a.88.88,0,0,1,.07-.3l0-.09Z" transform="translate(-25.58)"/><path class="cls-13" d="M461.78,159.57h0v.24h0c.34,0,.49.09.58.2a.94.94,0,0,1,.1.55v2.56a.92.92,0,0,1-.1.56c-.08.09-.24.13-.58.16h0v.25h0l1.21,0c.39,0,.77,0,1.09,0h0v-.25h0c-.31,0-.46-.07-.54-.16s-.09-.26-.09-.56V162l.15.05.25,0a10.15,10.15,0,0,0,1.43,2h0l.67,0,.76,0h.05v-.21h0a2.15,2.15,0,0,1-1.11-.78,9.3,9.3,0,0,1-.77-1.08,1.13,1.13,0,0,0,1-1.11,1.42,1.42,0,0,0-1.57-1.36c-.27,0-.52,0-.78,0l-.7,0c-.4,0-.7,0-1,0Zm1.67.38a1.48,1.48,0,0,1,.47-.06.86.86,0,0,1,.87.92.85.85,0,0,1-.94.93,1,1,0,0,1-.4-.08V160Z" transform="translate(-25.58)"/><path class="cls-13" d="M472.21,159.55h0v.26h0a.77.77,0,0,1,.54.16.81.81,0,0,1,.13.53v2.86a.38.38,0,0,1-.14.34,1.13,1.13,0,0,1-.56.14h0v.25h.05c.4,0,.8,0,1.21,0s.77,0,1.16,0h.05l0-.25h-.05a1.08,1.08,0,0,1-.55-.14.38.38,0,0,1-.15-.34V160.5A.7.7,0,0,1,474,160a.78.78,0,0,1,.58-.17h0v-.26h-.16c-.36,0-.7,0-1.05,0s-.75,0-1.12,0Z" transform="translate(-25.58)"/><path class="cls-13" d="M481.77,160.38c0-.38.29-.58.68-.58a1.61,1.61,0,0,1,1.44,1.15l.24,0v-.05a.49.49,0,0,0,0-.12h0c0-.23,0-.47,0-.69a2.72,2.72,0,0,1,0-.28v-.19h-.3a2.83,2.83,0,0,1-.5-.08,3.47,3.47,0,0,0-.84-.12,1.92,1.92,0,0,0-1.19.3,1.12,1.12,0,0,0-.4,1c0,.82.8,1.17,1.49,1.47a5.36,5.36,0,0,1,.8.42.7.7,0,0,1,.34.57.52.52,0,0,1-.25.5,1.34,1.34,0,0,1-.69.14,1.93,1.93,0,0,1-1.6-1.31l-.25,0v.06a12.3,12.3,0,0,1,.27,1.53v.06l.06,0a1,1,0,0,1,.32-.09,3.2,3.2,0,0,1,.66.1,3,3,0,0,0,.67.1c1,0,1.65-.51,1.65-1.32,0-1-.86-1.34-1.57-1.65a4.33,4.33,0,0,1-.72-.38.57.57,0,0,1-.3-.47Z" transform="translate(-25.58)"/><path class="cls-13" d="M389.42,145.6v-1.54h-3.83v-2.32h-2v2.32h-1.35v1.54h1.35v5.73c0,2.25.69,2.87,3.16,2.87,2.23,0,3.06-.86,3.06-3.15,0-.09,0-.41,0-.69H388.1c0,.22,0,.37,0,.47,0,1.44-.26,1.8-1.29,1.8s-1.24-.28-1.24-1.5V145.6Z" transform="translate(-25.58)"/><path class="cls-13" d="M395.39,146.91h2v-.17c0-1.16.45-1.44,2.21-1.44,1.93,0,2.31.41,2.31,2.34v1.41h0c-.38-.79-1.18-1.07-3.06-1.07-2.83,0-3.82.82-3.82,3.15s1,3.07,3.77,3.07c1.87,0,2.64-.32,3.22-1.37l0,0-.11,1.22h2v-6.58c0-2.79-1-3.56-4.46-3.56-3.2,0-4,.6-4,3Zm1.63,4c0-1.2.49-1.53,2.31-1.53,2.08,0,2.62.35,2.62,1.7s-.65,1.63-2.55,1.63-2.38-.3-2.38-1.8Z" transform="translate(-25.58)"/><path class="cls-13" d="M412.05,144.06h-2v10h2v-5.75c0-2,.73-2.76,2.51-2.76,1,0,1.57.21,1.82.64.15.26.15.28.19,1.5v6.37h2v-5.83a4.24,4.24,0,0,1,.21-1.63c.28-.67,1.14-1.05,2.34-1.05,1.54,0,2,.45,2,2.12v6.39h2v-6.58c0-2.6-.95-3.56-3.48-3.56-1.74,0-2.7.51-3.28,1.78h0c-.28-1.18-1.33-1.78-3.07-1.78s-2.57.49-3.13,1.67l0,0,0-1.52Z" transform="translate(-25.58)"/><path class="cls-13" d="M448.51,145.6v-1.54h-3.84v-2.32h-2v2.32h-1.84v1.54h1.84v5.73c0,2.25.68,2.87,3.15,2.87,2.23,0,3.07-.86,3.07-3.15,0-.09,0-.41,0-.69h-1.71c0,.22,0,.37,0,.47,0,1.44-.26,1.8-1.29,1.8s-1.24-.28-1.24-1.5V145.6Z" transform="translate(-25.58)"/><path class="cls-13" d="M454.47,146.91h2v-.17c0-1.16.45-1.44,2.2-1.44,1.94,0,2.32.41,2.32,2.34v1.41h0c-.39-.79-1.18-1.07-3.07-1.07-2.83,0-3.82.82-3.82,3.15s1,3.07,3.78,3.07c1.86,0,2.63-.32,3.22-1.37l0,0-.11,1.22h2v-6.58c0-2.79-1-3.56-4.46-3.56-3.19,0-4,.6-4,3Zm1.63,4c0-1.2.49-1.53,2.32-1.53,2.08,0,2.61.35,2.61,1.7s-.64,1.63-2.55,1.63-2.38-.3-2.38-1.8Z" transform="translate(-25.58)"/><path class="cls-13" d="M471.14,144.06h-2v10h2v-5.75c0-2,.73-2.76,2.5-2.76,1,0,1.57.21,1.83.64.15.26.15.28.19,1.5v6.37h2v-5.83a4.2,4.2,0,0,1,.22-1.63c.28-.67,1.13-1.05,2.34-1.05,1.54,0,2,.45,2,2.12v6.39h2v-6.58c0-2.6-.94-3.56-3.48-3.56-1.73,0-2.7.51-3.27,1.78h-.05c-.28-1.18-1.33-1.78-3.06-1.78s-2.58.49-3.13,1.67l-.05,0,.05-1.52Z" transform="translate(-25.58)"/><path class="cls-13" d="M433.88,147.19a2.23,2.23,0,1,0,2.23,2.23,2.2,2.2,0,0,0-2.23-2.23Z" transform="translate(-25.58)"/><path class="cls-13" d="M258.16,144.7l0-.43c.6,0,1.37.09,2.29.09s1.87-.15,2.85-.15c1.87,0,3.65.92,3.65,3,0,1.8-1.63,2.64-3.24,2.64a5.57,5.57,0,0,1-1.9-.31v2.54c0,1.31.1,1.59,1.61,1.71l0,.37c-.88,0-1.72-.06-2.57-.06s-1.79,0-2.68.06l0-.37c1.48-.12,1.58-.4,1.58-1.71v-5.67C259.71,145.07,259.48,144.82,258.16,144.7Zm4.71,4.51a1.93,1.93,0,0,0,2-2.19c0-1.25-.51-2.2-1.86-2.2a3.48,3.48,0,0,0-1.22.22V149A3.27,3.27,0,0,0,262.87,149.21Z" transform="translate(-25.58)"/><path class="cls-13" d="M272.2,144.36c1.06,0,2.12-.09,3.28-.09,2.06,0,3.37,1.29,3.37,2.91a2.42,2.42,0,0,1-2.18,2.4c.86,1.37,2.49,3.91,4.23,4.21l0,.34c-.6,0-1.15-.06-1.71-.06s-1,0-1.48.06a21,21,0,0,1-3.2-4.35c-.17,0-.37,0-.56-.08a1.55,1.55,0,0,1-.43-.15v2.5c0,1.31.1,1.53,1.46,1.65l0,.43c-.74,0-1.59-.06-2.43-.06s-1.79,0-2.68.06l0-.43c1.48-.12,1.58-.34,1.58-1.65v-5.64c0-1.17-.1-1.59-1.55-1.71l0-.4C270.66,144.33,271.33,144.36,272.2,144.36Zm2.3,4.73a2.11,2.11,0,0,0,.17-4.21,3.56,3.56,0,0,0-1.12.15v3.85A2.2,2.2,0,0,0,274.5,149.09Z" transform="translate(-25.58)"/><path class="cls-13" d="M286.38,144.36c.86,0,1.7-.05,2.57-.09l0,.43c-1.39.05-1.7.44-1.7,1.59v6.29c0,.74.42,1.06,1.61,1.12v.43c-.9,0-1.76-.06-2.62-.06s-1.78,0-2.67.06l0-.43c1.23-.06,1.65-.38,1.65-1.12v-6.29c0-1.15-.34-1.54-1.55-1.59l0-.43C284.59,144.31,285.48,144.36,286.38,144.36Z" transform="translate(-25.58)"/><path class="cls-13" d="M294.83,151.44l.06-5.75a2.36,2.36,0,0,0-.92-.64,8.92,8.92,0,0,0-1.11-.35l0-.43c.56,0,1.08.09,1.6.09.68,0,1.34,0,2-.09,2,2.44,4.09,4.73,5.95,7.22a52.56,52.56,0,0,0-.25-5.41c-.15-1-.74-1.23-1.68-1.38l0-.43c.74,0,1.44.09,2.13.09s1.38,0,2.06-.09l0,.43c-1.54.09-1.7.59-1.7,2.75v6.85H302a74,74,0,0,0-6.48-8v4.93c0,2,.19,2.25,1.91,2.51l0,.43c-.76,0-1.47-.06-2.2-.06s-1.61,0-2.43.06l0-.43C294.67,153.44,294.82,153.18,294.83,151.44Z" transform="translate(-25.58)"/><path class="cls-13" d="M313.7,144.79c-2.35,0-3.12,2.32-3.12,4.22,0,2.43,1.33,4.21,3.89,4.21a4.41,4.41,0,0,0,3.68-2.26l.44.38a5.64,5.64,0,0,1-5.06,3,4.91,4.91,0,0,1-5.16-5.16c0-3.09,2.24-5.15,5.44-5.15a11.91,11.91,0,0,1,2.06.27l.94.18.47.09a.28.28,0,0,0,.15,0,9.39,9.39,0,0,1,0,1.18,20.22,20.22,0,0,0,.16,2.47l-.44,0C316.87,146.45,315.49,144.79,313.7,144.79Z" transform="translate(-25.58)"/><path class="cls-13" d="M323.94,152.05v-5.64c0-1.1-.2-1.59-1.51-1.65l0-.49c1.05,0,2.07.09,3.08.09,1.89,0,3.81-.05,5.76-.09,0,.39,0,.75,0,1.09a8.28,8.28,0,0,0,.11,1.71l-.39.11c-.48-1.51-1.41-2.27-3.36-2.27H326v3.52h.74a2.21,2.21,0,0,0,2.32-1.82l.37,0c0,.74-.06,1.45-.06,2.15s0,1.4.06,2.11l-.37,0a2.14,2.14,0,0,0-2.32-1.92H326v4.33a6.47,6.47,0,0,0,1.73.2,5,5,0,0,0,4.58-2.81l.36.21a25.69,25.69,0,0,0-1.3,3.21l-4.63,0c-1.92,0-3.55,0-4.3.06l0-.43C323.74,153.64,323.94,153.22,323.94,152.05Z" transform="translate(-25.58)"/><path class="cls-13" d="M340.54,144.67A1.38,1.38,0,0,0,339,146a1.49,1.49,0,0,0,.87,1.22,7.72,7.72,0,0,0,.91.47l1.05.47c1.43.65,2.88,1.5,2.88,3.34s-1.41,2.84-3.57,2.84a4.76,4.76,0,0,1-.75-.07c-.24,0-.49-.09-.73-.15a7.44,7.44,0,0,0-1.47-.21,2.63,2.63,0,0,0-.73.19c-.2-1.13-.36-2.27-.64-3.41l.39-.05a4.27,4.27,0,0,0,3.59,3c1.3,0,2.14-.34,2.14-1.48a1.66,1.66,0,0,0-.89-1.37,6.13,6.13,0,0,0-.92-.51L340,149.8c-1.44-.64-2.92-1.4-2.92-3.05,0-1.87,1.15-2.69,3.45-2.69a7.57,7.57,0,0,1,1.65.22l.7.16a3.38,3.38,0,0,0,.6.06h.57c0,.37,0,.67,0,1,0,.58.06,1.2.1,1.77l-.38.05A3.62,3.62,0,0,0,340.54,144.67Z" transform="translate(-25.58)"/><path class="cls-13" d="M353.31,144.67a1.39,1.39,0,0,0-1.57,1.36,1.5,1.5,0,0,0,.88,1.22,7,7,0,0,0,.91.47c.33.16.69.31,1.05.47,1.42.65,2.87,1.5,2.87,3.34s-1.4,2.84-3.56,2.84a4.65,4.65,0,0,1-.75-.07c-.25,0-.49-.09-.74-.15a7.34,7.34,0,0,0-1.47-.21,2.57,2.57,0,0,0-.72.19c-.2-1.13-.37-2.27-.65-3.41l.39-.05a4.28,4.28,0,0,0,3.59,3c1.31,0,2.15-.34,2.15-1.48a1.66,1.66,0,0,0-.89-1.37,6.26,6.26,0,0,0-.93-.51l-1.06-.48c-1.45-.64-2.92-1.4-2.92-3.05,0-1.87,1.15-2.69,3.45-2.69a7.65,7.65,0,0,1,1.65.22l.7.16a3.21,3.21,0,0,0,.6.06h.57c0,.37-.05.67-.05,1,0,.58.06,1.2.11,1.77l-.38.05A3.62,3.62,0,0,0,353.31,144.67Z" transform="translate(-25.58)"/><path class="cls-13" d="M362.85,152.05v-5.64c0-1.1-.19-1.59-1.5-1.65l0-.49c1.05,0,2.07.09,3.08.09,1.9,0,3.81-.05,5.77-.09,0,.39,0,.75,0,1.09a7.61,7.61,0,0,0,.12,1.71l-.39.11c-.48-1.51-1.41-2.27-3.37-2.27h-1.62v3.52h.73a2.2,2.2,0,0,0,2.32-1.82l.37,0c0,.74-.06,1.45-.06,2.15s.05,1.4.06,2.11l-.36,0a2.14,2.14,0,0,0-2.33-1.92h-.73v4.33a6.39,6.39,0,0,0,1.72.2,5,5,0,0,0,4.58-2.81l.36.21a25.69,25.69,0,0,0-1.3,3.21l-4.63,0c-1.91,0-3.54,0-4.3.06l0-.43C362.66,153.64,362.85,153.22,362.85,152.05Z" transform="translate(-25.58)"/><path class="cls-14" d="M662.27,51.4a12.82,12.82,0,0,0,4.19.62,8.89,8.89,0,0,0,8.68-5.47l11-22.93h-5.28l-7.22,15.64-7.32-15.64H661l8.34,17.18a7.49,7.49,0,0,1,1.11,3.69c0,1.59-1.32,3.26-5.28,3.26a11,11,0,0,1-2.94-.47Z" transform="translate(-25.58)"/><path class="cls-14" d="M645,44.88h4.81V34c0-1.48,0-5.55,6.17-5.59a10.32,10.32,0,0,1,2.95.39v-5.2a11,11,0,0,0-1.71-.08,8,8,0,0,0-7.29,3.81h-.12V23.62H645Z" transform="translate(-25.58)"/><path class="cls-14" d="M630,41.47c-4.31,0-6.79-2.68-6.79-7.1,0-4.89,3.1-6.9,6.79-6.9s6.79,2,6.79,6.9c0,4.42-2.49,7.1-6.79,7.1m0-18.11c-8.3,0-11.68,5.5-11.68,11.09,0,8.3,6,11.13,11.68,11.13s11.67-2.83,11.67-11.13c0-5.59-3.37-11.09-11.67-11.09" transform="translate(-25.58)"/><path class="cls-14" d="M604,27.23c3.45,0,5.86,1.32,6.59,4.85h-13c1-4,3.88-4.85,6.4-4.85m.31,14.47c-5.93-.23-6.67-4.58-6.86-5.9h18.26c0-7.52-3.76-12.37-11.59-12.44s-11.56,5.15-11.56,11c0,6.51,4.46,11.17,11.91,11.17,7.71,0,10.51-5.24,10.86-6.94H610c-.7,1.62-2.71,3.06-5.74,3.06" transform="translate(-25.58)"/><polygon class="cls-14" points="523.72 44.88 528.53 44.88 528.53 21.45 540.36 21.45 540.36 16.68 511.96 16.68 511.96 21.45 523.72 21.45 523.72 44.88"/><path class="cls-14" d="M568.64,44.88h4.81V30.53a7.48,7.48,0,0,1,6.6-3.06c3.22,0,4.46,1.74,4.46,5.85V44.88h4.81V31.54c0-6.36-3.81-8.18-8.15-8.18a9.65,9.65,0,0,0-7.72,3.29v-10h-4.81Z" transform="translate(-25.58)"/></g></g></svg>