<svg width="669" height="143" viewBox="0 0 669 143" fill="none" xmlns="http://www.w3.org/2000/svg">
<path d="M0 139.355L31.4453 2.63672H77.7344L109.863 139.355H72.3633L69.6289 122.949H36.8164L34.082 139.355H0ZM42.0898 97.6562H64.4531L58.4961 67.4805C56.7383 55.5664 55.1758 45.5078 54.1992 34.4727H52.2461C51.4648 45.5078 50 55.5664 48.2422 67.3828L42.0898 97.6562ZM116.202 139.355V2.63672H169.131C196.475 2.63672 210.635 15.0391 210.635 37.793V42.0898C210.635 58.3984 202.432 68.6523 187.393 71.2891V73.1445C199.991 76.8555 203.604 81.8359 205.948 97.7539L208.291 113.574C210.733 129.492 212.784 133.594 216.299 136.621L215.909 139.355H178.018C175.479 134.961 174.405 128.516 173.037 115.332L171.768 102.148C170.401 88.9648 167.959 85.0586 159.366 85.0586H151.651V139.355H116.202ZM151.651 58.4961H165.811C172.452 58.4961 175.577 55.2734 175.577 48.0469V41.1133C175.577 33.8867 172.452 30.6641 165.811 30.6641H151.651V58.4961ZM267.755 142.09C234.161 142.09 218.927 123.047 218.927 83.3984V58.5938C218.927 19.043 234.552 0 267.755 0C299.591 0 316.192 15.8203 316.485 53.9062L282.696 58.6914C282.696 35.0586 278.106 27.832 268.438 27.832C259.259 27.832 254.766 35.1562 254.766 50.1953V91.6016C254.766 106.738 259.259 114.062 268.438 114.062C277.227 114.062 282.403 106.25 282.696 80.7617L317.071 87.793C316.387 126.367 298.614 142.09 267.755 142.09ZM387.277 2.63672H422.726V139.355H387.277V83.0078H361.788V139.355H326.339V2.63672H361.788V54.1992H387.277V2.63672ZM434.728 2.63672H470.177V139.355H434.728V2.63672ZM508.645 139.355L476.516 2.63672H514.406L526.516 64.5508C528.371 76.9531 529.25 86.1328 530.031 100H532.082C533.059 86.1328 534.035 76.9531 535.891 64.5508L547.707 2.63672H582.961L551.809 139.355H508.645ZM624.651 110.352H668.889V139.355H589.202V2.63672H667.131V31.6406H624.651V57.3242H663.616V82.4219H624.651V110.352Z" fill="white" fill-opacity="0.9"/>
</svg>
