<?xml version="1.0" encoding="UTF-8"?>
<svg id="Layer_1" data-name="Layer 1" xmlns="http://www.w3.org/2000/svg" viewBox="0 0 160 320">
  <defs>
    <style>
      .cls-1 {
        fill: #0b3c47;
      }

      .cls-2 {
        fill: #181818;
      }

      .cls-3 {
        fill: #2a2a2a;
      }

      .cls-4 {
        fill: #fff;
      }

      .cls-5 {
        fill: #3a2424;
      }

      .cls-6 {
        fill: #e3c9b2;
      }

      .cls-7 {
        fill: #8b3d33;
      }

      .cls-8 {
        fill: #0c4450;
      }

      .cls-9 {
        fill: #a44539;
      }

      .cls-10 {
        fill: #f3eae2;
      }

      .cls-11 {
        fill: #45545c;
      }

      .cls-12 {
        fill: #91adbd;
      }

      .cls-13 {
        fill: #604646;
      }

      .cls-14 {
        fill: #bc574a;
      }
    </style>
  </defs>
  <polygon class="cls-4" points="150 150 150 140 150 130 140 130 140 120 130 120 130 110 140 110 140 100 140 90 140 80 140 70 140 60 140 50 140 40 140 30 130 30 130 20 120 20 110 20 110 10 100 10 90 10 80 10 80 0 70 0 60 0 50 0 40 0 40 10 30 10 30 20 20 20 20 30 20 40 20 50 10 50 10 60 10 70 10 80 10 90 20 90 20 100 20 110 30 110 30 120 20 120 20 130 10 130 10 140 10 150 0 150 0 160 0 170 0 180 10 180 10 190 20 190 20 200 20 210 30 210 30 220 30 230 30 240 30 250 30 260 30 270 30 280 30 290 20 290 20 300 20 310 30 310 30 320 40 320 50 320 60 320 70 320 80 320 80 310 90 310 90 320 100 320 110 320 120 320 130 320 140 320 140 310 150 310 150 300 150 290 140 290 140 280 140 270 140 260 140 250 140 240 140 230 140 220 140 210 150 210 150 200 150 190 150 180 160 180 160 170 160 160 160 150 150 150"/>
  <polygon class="cls-8" points="70.05 280 60.05 280 50.05 280 40.05 280 40.05 290 30.05 290 30.05 300 30.05 310 40.05 310 50.05 310 60.05 310 70.05 310 80.05 310 80.05 300 80.05 290 80.05 280 70.05 280"/>
  <polygon class="cls-8" points="130.05 290 130.05 280 120.05 280 110.05 280 100.05 280 90.05 280 90.05 290 90.05 300 90.05 310 100.05 310 110.05 310 120.05 310 130.05 310 140.05 310 140.05 300 140.05 290 130.05 290"/>
  <polygon class="cls-3" points="120.05 190 110.05 190 100.05 190 90.05 190 80.05 190 70.05 190 60.05 190 50.05 190 40.05 190 40.05 200 40.05 210 40.05 220 40.05 230 40.05 240 40.05 250 40.05 260 40.05 270 40.05 280 50.05 280 60.05 280 70.05 280 80.05 280 80.05 270 80.05 260 80.05 250 80.05 240 80.05 230 80.05 220 90.05 220 90.05 230 90.05 240 90.05 250 90.05 260 90.05 270 90.05 280 100.05 280 110.05 280 120.05 280 130.05 280 130.05 270 130.05 260 130.05 250 130.05 240 130.05 230 130.05 220 130.05 210 130.05 200 130.05 190 120.05 190"/>
  <polygon class="cls-14" points="140 150 140 140 140 130 130 130 130 120 120 120 120 110 110 110 100 110 90 110 80 110 70 110 60 110 50 110 40 110 40 120 30 120 30 130 20 130 20 140 20 150 10 150 10 160 10 170 10 180 20 180 20 190 30 190 40 190 50 190 60 190 70 190 80 190 90 190 100 190 110 190 120 190 130 190 140 190 140 180 150 180 150 170 150 160 150 150 140 150"/>
  <polygon class="cls-10" points="50.05 190 40.05 190 40.05 200 50.05 200 60.05 200 60.05 190 50.05 190"/>
  <polygon class="cls-10" points="120.06 190 110.06 190 110.06 200 120.06 200 130.06 200 130.06 190 120.06 190"/>
  <polygon class="cls-10" points="110.05 40 110.05 30 100.05 30 90.05 30 80.05 30 70.05 30 60.05 30 60.05 40 50.05 40 40.05 40 40.05 50 40.05 60 40.05 70 40.05 80 40.05 90 50.05 90 50.05 100 60.05 100 60.05 110 70.05 110 80.05 110 90.05 110 100.05 110 100.05 100 110.05 100 110.05 90 120.05 90 120.05 80 120.05 70 120.05 60 120.05 50 120.05 40 110.05 40"/>
  <polygon class="cls-13" points="120.05 30 110.05 30 110.05 20 100.05 20 90.05 20 80.05 20 80.05 10 70.05 10 60.05 10 50.05 10 50.05 20 40.05 20 30.05 20 30.05 30 30.05 40 30.05 50 20.05 50 20.05 60 20.05 70 20.05 80 20.05 90 30.05 90 30.05 100 30.05 110 40.05 110 50.05 110 60.05 110 70.05 110 70.05 100 70.05 90 60.05 90 60.05 80 50.05 80 50.05 70 50.05 60 50.05 50 60.05 50 60.05 40 70.05 40 70.05 30 80.05 30 90.05 30 90.05 40 100.05 40 100.05 50 110.05 50 110.05 60 110.05 70 110.05 80 100.05 80 100.05 90 90.05 90 90.05 100 90.05 110 100.05 110 110.05 110 120.05 110 130.05 110 130.05 100 130.05 90 130.05 80 130.05 70 130.05 60 130.05 50 130.05 40 130.05 30 120.05 30"/>
  <polygon class="cls-5" points="120.06 62.04 110.06 62.04 110.06 72.04 110.06 82.04 110.06 92.04 110.06 102.04 110.06 112.04 120.06 112.04 130.06 112.04 130.06 102.04 130.06 92.04 130.06 82.04 130.06 72.04 130.06 62.04 120.06 62.04"/>
  <polygon class="cls-5" points="40.05 80 40.05 70 40.05 60 30.05 60 20.05 60 20.05 70 20.05 80 20.05 90 30.05 90 30.05 100 30.05 110 40.05 110 50.05 110 50.05 100 50.05 90 50.05 80 40.05 80"/>
  <polygon class="cls-2" points="60.05 60 60.05 70 70.05 70 70.05 60 70.05 50 60.05 50 60.05 60"/>
  <polygon class="cls-2" points="80.05 50 80.05 60 80.05 70 90.05 70 90.05 60 90.05 50 80.05 50"/>
  <polygon class="cls-12" points="100.05 60 90.05 60 80.05 60 70.05 60 60.05 60 50.05 60 50.05 70 60.05 70 60.05 80 70.05 80 80.05 80 80.05 70 90.05 70 90.05 80 100.05 80 110.05 80 110.05 70 110.05 60 100.05 60"/>
  <polygon class="cls-2" points="80.05 80 70.05 80 70.05 90 80.05 90 90.05 90 90.05 80 80.05 80"/>
  <polygon class="cls-2" points="70 10 60 10 50 10 40 10 40 20 50 20 60 20 70 20 80 20 80 10 70 10"/>
  <polygon class="cls-9" points="20.05 160 10.05 160 10.05 170 10.05 180 20.05 180 30.05 180 30.05 170 30.05 160 20.05 160"/>
  <polygon class="cls-2" points="99.77 20 89.77 20 89.77 30 99.77 30 109.77 30 109.77 20 99.77 20"/>
  <polygon class="cls-2" points="120.06 30 120.06 40 120.06 50 120.06 60 120.06 70 120.06 80 120.06 90 120.06 100 120.06 110 130.06 110 130.06 100 130.06 90 130.06 80 130.06 70 130.06 60 130.06 50 130.06 40 130.06 30 120.06 30"/>
  <polygon class="cls-2" points="30.05 20 30.05 30 30.05 40 30.05 50 40.05 50 40.05 40 40.05 30 40.05 20 30.05 20"/>
  <polygon class="cls-2" points="20.05 50 20.05 60 20.05 70 20.05 80 20.05 90 30.05 90 30.05 80 30.05 70 30.05 60 30.05 50 20.05 50"/>
  <polygon class="cls-2" points="30.05 90 30.05 100 30.05 110 40.05 110 40.05 100 40.05 90 30.05 90"/>
  <polygon class="cls-2" points="110.06 110 100.06 110 90.06 110 90.06 120 100.06 120 110.06 120 120.06 120 120.06 110 110.06 110"/>
  <polygon class="cls-2" points="60.05 110 50.05 110 40.05 110 40.05 120 50.05 120 60.05 120 70.05 120 70.05 110 60.05 110"/>
  <path class="cls-2" d="M120.06,120h10v10h-10v-10Z"/>
  <polygon class="cls-2" points="130.06 130 130.06 140 130.06 150 140.06 150 140.06 140 140.06 130 130.06 130"/>
  <polygon class="cls-9" points="140 160 130 160 130 170 130 180 140 180 150 180 150 170 150 160 140 160"/>
  <path class="cls-2" d="M30.05,120h10v10h-10v-10Z"/>
  <polygon class="cls-2" points="20.05 130 20.05 140 20.05 150 30.05 150 30.05 140 30.05 130 20.05 130"/>
  <polygon class="cls-2" points="140.06 150 140.06 160 140.06 170 140.06 180 150.06 180 150.06 170 150.06 160 150.06 150 140.06 150"/>
  <polygon class="cls-2" points="100.06 150 100.06 160 100.06 170 100.06 180 110.06 180 110.06 170 110.06 160 110.06 150 100.06 150"/>
  <polygon class="cls-2" points="10.05 150 10.05 160 10.05 170 10.05 180 20.05 180 20.05 170 20.05 160 20.05 150 10.05 150"/>
  <polygon class="cls-2" points="100.05 190 90.05 190 80.05 190 70.05 190 60.05 190 60.05 200 70.05 200 80.05 200 90.05 200 100.05 200 110.05 200 110.05 190 100.05 190"/>
  <polygon class="cls-2" points="50.05 150 50.05 160 50.05 170 50.05 180 40.05 180 30.05 180 20.05 180 20.05 190 30.05 190 30.05 200 30.05 210 40.05 210 40.05 220 40.05 230 40.05 240 40.05 250 40.05 260 40.05 270 40.05 280 40.05 290 50.05 290 50.05 280 50.05 270 50.05 260 50.05 250 50.05 240 50.05 230 50.05 220 50.05 210 60.05 210 60.05 200 50.05 200 40.05 200 40.05 190 50.05 190 60.05 190 60.05 180 60.05 170 60.05 160 60.05 150 50.05 150"/>
  <polygon class="cls-2" points="130.06 180 120.06 180 110.06 180 110.06 190 120.06 190 130.06 190 130.06 200 120.06 200 110.06 200 110.06 210 120.06 210 120.06 220 120.06 230 120.06 240 120.06 250 120.06 260 120.06 270 120.06 280 120.06 290 130.06 290 130.06 280 130.06 270 130.06 260 130.06 250 130.06 240 130.06 230 130.06 220 130.06 210 140.06 210 140.06 200 140.06 190 140.06 180 130.06 180"/>
  <polygon class="cls-2" points="130.05 290 130.05 300 120.05 300 110.05 300 100.05 300 100.05 290 100.05 280 100.05 270 100.05 260 100.05 250 100.05 240 100.05 230 100.05 220 100.05 210 90.05 210 80.05 210 70.05 210 70.05 220 70.05 230 70.05 240 70.05 250 70.05 260 70.05 270 70.05 280 70.05 290 70.05 300 60.05 300 50.05 300 40.05 300 40.05 290 30.05 290 30.05 300 30.05 310 40.05 310 50.05 310 60.05 310 70.05 310 80.05 310 80.05 300 80.05 290 80.05 280 80.05 270 80.05 260 80.05 250 80.05 240 80.05 230 80.05 220 90.05 220 90.05 230 90.05 240 90.05 250 90.05 260 90.05 270 90.05 280 90.05 290 90.05 300 90.05 310 100.05 310 110.05 310 120.05 310 130.05 310 140.05 310 140.05 300 140.05 290 130.05 290"/>
  <rect class="cls-11" x="60.05" y="60" width="10" height="10"/>
  <rect class="cls-11" x="80.05" y="60" width="10" height="10"/>
  <polygon class="cls-7" points="80.05 110 70.05 110 70.05 120 80.05 120 90.05 120 90.05 110 80.05 110"/>
  <rect class="cls-1" x="120.06" y="290" width="10" height="10"/>
  <rect class="cls-1" x="40" y="290" width="10" height="10"/>
  <path class="cls-6" d="M120.06,190h10v10h-10v-10Z"/>
  <path class="cls-6" d="M40,190h10v10h-10v-10Z"/>
</svg>