<?xml version="1.0" encoding="UTF-8"?>
<svg xmlns="http://www.w3.org/2000/svg" viewBox="0 0 180 320">
  <defs>
    <style>
      .cls-1 {
        fill: #181818;
      }

      .cls-2 {
        fill: #2a2a2a;
      }

      .cls-3 {
        fill: #fff;
      }

      .cls-4 {
        fill: #3a2424;
      }

      .cls-5 {
        fill: #e3c9b2;
      }

      .cls-6 {
        fill: none;
      }

      .cls-7 {
        fill: #8b3d33;
      }

      .cls-8 {
        fill: #0c4450;
      }

      .cls-9 {
        fill: #a44539;
      }

      .cls-10 {
        fill: #f3eae2;
      }

      .cls-11 {
        fill: #45545c;
      }

      .cls-12 {
        fill: #91adbd;
      }

      .cls-13 {
        fill: #604646;
      }

      .cls-14 {
        fill: #bc574a;
      }
    </style>
  </defs>
  <g id="Layer_2" data-name="Layer 2">
    <rect class="cls-6" width="180" height="320"/>
  </g>
  <g id="Layer_1" data-name="Layer 1">
    <g>
      <polygon class="cls-3" points="160 150 160 140 160 130 150 130 150 120 140 120 140 110 150 110 150 100 150 90 150 80 150 70 150 60 150 50 150 40 150 30 140 30 140 20 130 20 120 20 120 10 110 10 100 10 90 10 90 0 80 0 70 0 60 0 50 0 50 10 40 10 40 20 30 20 30 30 30 40 30 50 20 50 20 60 20 70 20 80 20 90 30 90 30 100 30 110 40 110 40 120 30 120 30 130 20 130 20 140 20 150 10 150 10 160 10 170 10 180 20 180 20 190 30 190 30 200 30 210 40 210 40 220 40 230 30 230 20 230 10 230 0 230 0 240 0 250 0 260 0 270 0 280 0 290 10 290 10 300 20 300 30 300 40 300 40 290 50 290 60 290 60 300 70 300 80 300 90 300 90 290 100 290 110 290 120 290 130 290 130 280 140 280 140 270 150 270 150 260 150 250 150 240 150 230 150 220 150 210 160 210 160 200 160 190 160 180 170 180 170 170 170 160 170 150 160 150"/>
      <polygon class="cls-14" points="150 150 150 140 150 130 140 130 140 120 130 120 130 110 120 110 110 110 100 110 90 110 80 110 70 110 60 110 50 110 50 120 40 120 40 130 30 130 30 140 30 150 20 150 20 160 20 170 20 180 30 180 30 190 40 190 50 190 60 190 70 190 80 190 90 190 100 190 110 190 120 190 130 190 140 190 150 190 150 180 160 180 160 170 160 160 160 150 150 150"/>
      <polygon class="cls-10" points="60 190 50 190 50 200 60 200 70 200 70 190 60 190"/>
      <polygon class="cls-10" points="130 190 120 190 120 200 130 200 140 200 140 190 130 190"/>
      <polygon class="cls-10" points="120 40 120 30 110 30 100 30 90 30 80 30 70 30 70 40 60 40 50 40 50 50 50 60 50 70 50 80 50 90 60 90 60 100 70 100 70 110 80 110 90 110 100 110 110 110 110 100 120 100 120 90 130 90 130 80 130 70 130 60 130 50 130 40 120 40"/>
      <polygon class="cls-13" points="130 30 120 30 120 20 110 20 100 20 90 20 90 10 80 10 70 10 60 10 60 20 50 20 40 20 40 30 40 40 40 50 30 50 30 60 30 70 30 80 30 90 40 90 40 100 40 110 50 110 60 110 70 110 80 110 80 100 80 90 70 90 70 80 60 80 60 70 60 60 60 50 70 50 70 40 80 40 80 30 90 30 100 30 100 40 110 40 110 50 120 50 120 60 120 70 120 80 110 80 110 90 100 90 100 100 100 110 110 110 120 110 130 110 140 110 140 100 140 90 140 80 140 70 140 60 140 50 140 40 140 30 130 30"/>
      <polygon class="cls-4" points="130 60 120 60 120 70 120 80 120 90 120 100 120 110 130 110 140 110 140 100 140 90 140 80 140 70 140 60 130 60"/>
      <polygon class="cls-4" points="50 80 50 70 50 60 40 60 30 60 30 70 30 80 30 90 40 90 40 100 40 110 50 110 60 110 60 100 60 90 60 80 50 80"/>
      <polygon class="cls-1" points="80 60 80 70 90 70 90 60 90 50 80 50 80 60"/>
      <polygon class="cls-1" points="100 50 100 60 100 70 110 70 110 60 110 50 100 50"/>
      <polygon class="cls-12" points="110 60 100 60 90 60 80 60 70 60 60 60 60 70 70 70 70 80 80 80 90 80 90 70 100 70 100 80 110 80 120 80 120 70 120 60 110 60"/>
      <polygon class="cls-1" points="90 80 80 80 80 90 90 90 100 90 100 80 90 80"/>
      <polygon class="cls-1" points="79.95 10 69.95 10 59.95 10 49.95 10 49.95 20 59.95 20 69.95 20 79.95 20 89.95 20 89.95 10 79.95 10"/>
      <polygon class="cls-9" points="30 160 20 160 20 170 20 180 30 180 40 180 40 170 40 160 30 160"/>
      <polygon class="cls-1" points="109.71 20 99.71 20 99.71 30 109.71 30 119.71 30 119.71 20 109.71 20"/>
      <polygon class="cls-1" points="130 30 130 40 130 50 130 60 130 70 130 80 130 90 130 100 130 110 140 110 140 100 140 90 140 80 140 70 140 60 140 50 140 40 140 30 130 30"/>
      <polygon class="cls-1" points="40 20 40 30 40 40 40 50 50 50 50 40 50 30 50 20 40 20"/>
      <polygon class="cls-1" points="30 50 30 60 30 70 30 80 30 90 40 90 40 80 40 70 40 60 40 50 30 50"/>
      <polygon class="cls-1" points="40 90 40 100 40 110 50 110 50 100 50 90 40 90"/>
      <polygon class="cls-1" points="120 110 110 110 100 110 100 120 110 120 120 120 130 120 130 110 120 110"/>
      <polygon class="cls-1" points="69.99 110 59.99 110 49.99 110 49.99 120 59.99 120 69.99 120 79.99 120 79.99 110 69.99 110"/>
      <path class="cls-1" d="M130,120h10v10h-10v-10Z"/>
      <polygon class="cls-1" points="140 130 140 140 140 150 150 150 150 140 150 130 140 130"/>
      <polygon class="cls-9" points="149.95 160 139.95 160 139.95 170 139.95 180 149.95 180 159.95 180 159.95 170 159.95 160 149.95 160"/>
      <path class="cls-1" d="M40,120h10v10h-10v-10Z"/>
      <polygon class="cls-1" points="30 130 30 140 30 150 40 150 40 140 40 130 30 130"/>
      <polygon class="cls-1" points="150 150 150 160 150 170 150 180 160 180 160 170 160 160 160 150 150 150"/>
      <polygon class="cls-1" points="110 150 110 160 110 170 110 180 120 180 120 170 120 160 120 150 110 150"/>
      <polygon class="cls-1" points="20 150 20 160 20 170 20 180 30 180 30 170 30 160 30 150 20 150"/>
      <polygon class="cls-1" points="110 190 100 190 90 190 80 190 70 190 70 200 80 200 90 200 100 200 110 200 120 200 120 190 110 190"/>
      <rect class="cls-11" x="80" y="60" width="10" height="10"/>
      <rect class="cls-11" x="100" y="60" width="10" height="10"/>
      <polygon class="cls-7" points="90 110 80 110 80 120 90 120 100 120 100 110 90 110"/>
      <path class="cls-5" d="M130,190h10v10h-10v-10Z"/>
      <path class="cls-5" d="M49.95,190h10v10h-10v-10Z"/>
      <path class="cls-2" d="M130,210h-10v-10h-50v10h-20v30h-10v40h90v-10h10v-60h-10ZM100,230v10h-10v-20h10v10Z"/>
      <polygon class="cls-8" points="30 240 20 240 10 240 10 250 10 260 10 270 10 280 10 290 20 290 30 290 40 290 40 280 40 270 40 260 40 250 40 240 30 240"/>
      <path class="cls-1" d="M120,270h-30v-20h20v-40h-30v60H30v10h-10v-30h40v-40h10v-10h-20v-10h20v-40h-10v30h-30v10h10v20h10v30H10v50h30v-10h20v10h30v-10h40v-10h-10ZM90,230v-10h10v20h-10v-10Z"/>
      <polygon class="cls-1" points="140 180 130 180 120 180 120 190 130 190 140 190 140 200 130 200 120 200 120 210 130 210 130 220 130 230 130 240 130 250 130 260 130 270 140 270 140 260 140 250 140 240 140 230 140 220 140 210 150 210 150 200 150 190 150 180 140 180"/>
    </g>
  </g>
</svg>