<?xml version="1.0" encoding="UTF-8"?>
<svg id="Layer_1" data-name="Layer 1" xmlns="http://www.w3.org/2000/svg" viewBox="0 0 260 320">
  <defs>
    <style>
      .cls-1 {
        fill: #181818;
      }

      .cls-2 {
        fill: #a1a0ba;
      }

      .cls-3 {
        fill: #2a2a2a;
      }

      .cls-4 {
        fill: #fff;
      }

      .cls-5 {
        fill: #3a2424;
      }

      .cls-6 {
        fill: #c9c8da;
      }

      .cls-7 {
        fill: #e3c9b2;
      }

      .cls-8 {
        fill: #bc4a4a;
      }

      .cls-9 {
        fill: #445278;
      }

      .cls-10 {
        fill: #f3eae2;
      }

      .cls-11 {
        fill: #45545c;
      }

      .cls-12 {
        fill: #91adbd;
      }

      .cls-13 {
        fill: #f3f3fa;
      }

      .cls-14 {
        fill: #a43939;
      }

      .cls-15 {
        fill: #604646;
      }

      .cls-16 {
        fill: #fec8b8;
      }

      .cls-17 {
        fill: #535e73;
      }

      .cls-18 {
        fill: #353f52;
      }
    </style>
  </defs>
  <polygon class="cls-4" points="250 150 250 140 250 130 240 130 240 120 240 110 250 110 250 100 250 90 250 80 250 70 250 60 250 50 240 50 240 40 230 40 230 30 220 30 220 20 210 20 200 20 200 10 190 10 180 10 180 0 170 0 160 0 150 0 150 10 140 10 130 10 130 20 120 20 120 30 110 30 110 40 100 40 100 50 90 50 90 60 90 70 90 80 90 90 90 100 90 110 90 120 90 130 100 130 100 140 110 140 120 140 120 150 110 150 100 150 90 150 90 140 80 140 70 140 60 140 50 140 50 150 40 150 40 160 30 160 30 170 20 170 10 170 10 180 0 180 0 190 0 200 0 210 0 220 0 230 0 240 0 250 10 250 10 260 20 260 20 270 30 270 40 270 40 280 50 280 60 280 60 290 70 290 80 290 80 300 90 300 100 300 100 310 110 310 120 310 120 320 130 320 130 310 140 310 150 310 150 300 160 300 170 300 170 290 180 290 190 290 190 280 200 280 210 280 210 270 220 270 220 260 220 250 220 240 230 240 230 230 240 230 240 220 250 220 250 210 260 210 260 200 260 190 260 180 250 180 250 170 260 170 260 160 260 150 250 150"/>
  <polygon class="cls-1" points="240 150 240 140 240 130 230 130 230 120 230 110 240 110 240 100 240 90 240 80 240 70 240 60 240 50 230 50 230 40 220 40 220 30 210 30 200 30 200 20 190 20 180 20 180 10 170 10 160 10 150 10 150 20 140 20 130 20 130 30 120 30 120 40 110 40 110 50 100 50 100 60 100 70 100 80 100 90 100 100 100 110 100 120 100 130 110 130 120 130 130 130 140 130 140 140 130 140 130 150 120 150 120 160 110 160 100 160 90 160 90 150 80 150 70 150 60 150 50 150 50 160 40 160 40 170 30 170 30 180 20 180 10 180 10 190 10 200 10 210 10 220 10 230 10 240 10 250 20 250 20 260 30 260 40 260 40 270 50 270 60 270 60 280 70 280 80 280 80 290 90 290 100 290 100 300 110 300 120 300 120 310 130 310 130 300 140 300 150 300 150 290 160 290 170 290 170 280 180 280 190 280 190 270 200 270 210 270 210 260 210 250 210 240 220 240 220 230 230 230 230 220 240 220 240 210 250 210 250 200 250 190 250 180 240 180 240 170 250 170 250 160 250 150 240 150"/>
  <polygon class="cls-10" points="220 50 220 40 210 40 200 40 200 30 190 30 180 30 180 20 170 20 160 20 150 20 150 30 140 30 130 30 130 40 120 40 120 50 110 50 110 60 110 70 110 80 110 90 110 100 110 110 110 120 120 120 130 120 140 120 140 130 150 130 160 130 160 140 170 140 180 140 180 130 180 120 190 120 200 120 200 110 210 110 220 110 220 100 220 90 220 80 230 80 230 70 230 60 230 50 220 50"/>
  <polygon class="cls-7" points="170 130 160 130 160 140 170 140 180 140 180 130 170 130"/>
  <polygon class="cls-13" points="200 200 200 190 190 190 180 190 170 190 170 180 160 180 150 180 150 170 140 170 130 170 130 160 120 160 110 160 110 150 100 150 90 150 80 150 70 150 70 160 60 160 50 160 50 170 40 170 30 170 30 180 20 180 10 180 10 190 20 190 20 200 30 200 40 200 40 210 50 210 60 210 60 220 70 220 80 220 80 230 90 230 100 230 100 240 110 240 120 240 120 250 130 250 130 240 140 240 150 240 150 230 160 230 170 230 170 220 180 220 190 220 190 210 200 210 210 210 210 200 200 200"/>
  <polygon class="cls-2" points="200 210 190 210 190 220 180 220 170 220 170 230 160 230 150 230 150 240 140 240 130 240 130 250 120 250 120 240 110 240 100 240 100 230 90 230 80 230 80 220 70 220 60 220 60 210 50 210 40 210 40 200 30 200 20 200 20 190 10 190 10 200 10 210 10 220 10 230 10 240 10 250 20 250 20 260 30 260 40 260 40 270 50 270 60 270 60 280 70 280 80 280 80 290 90 290 100 290 100 300 110 300 120 300 120 310 130 310 130 300 140 300 150 300 150 290 160 290 170 290 170 280 180 280 190 280 190 270 200 270 210 270 210 260 210 250 210 240 210 230 210 220 210 210 200 210"/>
  <polygon class="cls-6" points="120 250 120 240 110 240 100 240 100 230 90 230 80 230 80 220 70 220 60 220 60 210 50 210 40 210 40 200 30 200 20 200 20 190 10 190 10 200 10 210 10 220 10 230 10 240 10 250 20 250 20 260 30 260 40 260 40 270 50 270 60 270 60 280 70 280 80 280 80 290 90 290 100 290 100 300 110 300 120 300 120 310 130 310 130 300 130 290 130 280 130 270 130 260 130 250 120 250"/>
  <polygon class="cls-8" points="230 150 230 140 230 130 220 130 210 130 210 140 200 140 200 130 190 130 190 120 180 120 180 130 180 140 170 140 160 140 150 140 140 140 140 150 130 150 130 160 120 160 120 170 120 180 130 180 140 180 150 180 160 180 170 180 180 180 180 190 190 190 200 190 210 190 220 190 220 180 230 180 230 170 240 170 240 160 240 150 230 150"/>
  <polygon class="cls-10" points="160 180 150 180 150 190 150 200 160 200 170 200 170 190 170 180 160 180"/>
  <polygon class="cls-10" points="60 160 50 160 50 170 50 180 60 180 70 180 70 170 70 160 60 160"/>
  <polygon class="cls-1" points="40 160 40 170 40 180 50 180 50 170 50 160 40 160"/>
  <polygon class="cls-1" points="140 180 140 190 140 200 150 200 150 190 150 180 140 180"/>
  <polygon class="cls-1" points="60 180 50 180 50 190 60 190 70 190 70 180 60 180"/>
  <polygon class="cls-1" points="160 200 150 200 150 210 160 210 170 210 170 200 160 200"/>
  <polygon class="cls-17" points="120 170 110 170 110 160 100 160 90 160 90 150 80 150 70 150 70 160 70 170 70 180 70 190 80 190 90 190 90 200 100 200 110 200 110 210 120 210 130 210 130 200 130 190 130 180 130 170 120 170"/>
  <polygon class="cls-18" points="130 180 130 190 130 200 140 200 140 190 140 180 130 180"/>
  <polygon class="cls-1" points="210 190 200 190 190 190 180 190 180 180 180 170 170 170 160 170 150 170 150 180 160 180 170 180 170 190 170 200 180 200 190 200 200 200 210 200 220 200 220 190 210 190"/>
  <rect class="cls-1" x="110" y="160" width="10" height="10"/>
  <rect class="cls-1" x="180" y="160" width="10" height="10"/>
  <rect class="cls-1" x="190" y="150" width="10" height="10"/>
  <polygon class="cls-7" points="160 180 160 190 150 190 150 200 160 200 170 200 170 190 170 180 160 180"/>
  <polygon class="cls-7" points="60 160 60 170 50 170 50 180 60 180 70 180 70 170 70 160 60 160"/>
  <polygon class="cls-15" points="220 50 220 40 210 40 200 40 200 30 190 30 180 30 180 20 170 20 160 20 150 20 150 30 140 30 130 30 130 40 120 40 120 50 110 50 110 60 110 70 110 80 110 90 110 100 110 110 110 120 110 130 120 130 120 120 120 110 120 100 120 90 120 80 130 80 130 70 130 60 140 60 140 50 150 50 160 50 160 60 170 60 170 70 180 70 180 80 180 90 190 90 190 100 190 110 190 120 190 130 200 130 210 130 210 120 220 120 220 110 230 110 230 100 230 90 230 80 230 70 230 60 230 50 220 50"/>
  <polygon class="cls-5" points="120 60 120 50 110 50 110 60 110 70 110 80 110 90 110 100 110 110 110 120 110 130 120 130 120 120 120 110 120 100 120 90 120 80 130 80 130 70 130 60 120 60"/>
  <polygon class="cls-5" points="220 60 220 70 210 70 210 80 200 80 200 90 200 100 200 110 200 120 200 130 210 130 210 120 220 120 220 110 230 110 230 100 230 90 230 80 230 70 230 60 220 60"/>
  <polygon class="cls-1" points="190 90 190 100 190 110 190 120 190 130 200 130 200 120 200 110 200 100 200 90 190 90"/>
  <polygon class="cls-12" points="170 100 160 100 150 100 140 100 130 100 120 100 120 110 120 120 130 120 140 120 140 110 150 110 150 120 160 120 170 120 170 110 180 110 180 100 170 100"/>
  <polygon class="cls-3" points="230 180 230 190 220 190 220 200 210 200 210 210 210 220 210 230 220 230 220 220 230 220 230 210 240 210 240 200 240 190 240 180 230 180"/>
  <polygon class="cls-14" points="150 160 140 160 140 170 130 170 130 180 140 180 150 180 150 170 160 170 160 160 150 160"/>
  <polygon class="cls-14" points="230 150 230 160 220 160 220 170 210 170 210 180 200 180 190 180 180 180 180 190 190 190 200 190 210 190 220 190 220 180 230 180 230 170 240 170 240 160 240 150 230 150"/>
  <rect class="cls-11" x="130" y="100" width="10" height="10"/>
  <rect class="cls-11" x="150" y="100" width="10" height="10"/>
  <rect class="cls-9" x="120" y="110" width="10" height="10"/>
  <rect class="cls-1" x="150" y="90" width="10" height="10"/>
  <rect class="cls-1" x="130" y="90" width="10" height="10"/>
  <polygon class="cls-16" points="180 110 170 110 170 120 170 130 180 130 180 120 190 120 190 110 180 110"/>
</svg>