<svg width="465" height="143" viewBox="0 0 465 143" fill="none" xmlns="http://www.w3.org/2000/svg">
<path d="M22.7539 139.355L0 2.63672H35.6445L42.8711 61.4258C44.5312 74.8047 45.3125 84.9609 45.8984 100H47.8516C48.7305 85.1562 49.8047 74.0234 51.1719 61.4258L57.9102 2.63672H90.0391L97.3633 61.4258C98.9258 74.0234 99.9023 85.1562 100.586 100H102.734C103.516 85.1562 104.297 74.8047 105.762 61.4258L112.207 2.63672H146.582L124.805 139.355H82.6172L78.7109 106.25C76.7578 90.2344 75.3906 75.0977 74.4141 58.6914H72.3633C71.2891 75.0977 69.8242 90.0391 67.9688 106.25L64.2578 139.355H22.7539ZM199.405 142.09C165.127 142.09 148.623 124.707 148.623 84.1797V59.375C148.623 17.8711 165.127 0 199.405 0C233.584 0 250.186 17.8711 250.186 59.375V84.1797C250.186 124.707 233.584 142.09 199.405 142.09ZM199.405 114.062C209.463 114.062 214.346 106.934 214.346 92.2852V51.1719C214.346 35.5469 209.463 28.0273 199.405 28.0273C189.346 28.0273 184.463 35.5469 184.463 51.1719V92.2852C184.463 106.934 189.346 114.062 199.405 114.062ZM259.942 139.355V2.63672H312.872C340.216 2.63672 354.376 15.0391 354.376 37.793V42.0898C354.376 58.3984 346.173 68.6523 331.134 71.2891V73.1445C343.731 76.8555 347.345 81.8359 349.688 97.7539L352.032 113.574C354.473 129.492 356.524 133.594 360.04 136.621L359.649 139.355H321.759C319.22 134.961 318.145 128.516 316.778 115.332L315.509 102.148C314.141 88.9648 311.7 85.0586 303.106 85.0586H295.391V139.355H259.942ZM295.391 58.4961H309.552C316.192 58.4961 319.317 55.2734 319.317 48.0469V41.1133C319.317 33.8867 316.192 30.6641 309.552 30.6641H295.391V58.4961ZM366.378 139.355V2.63672H401.827V22.4609C401.827 34.8633 401.046 44.2383 398.409 58.7891L400.362 59.4727L427.023 2.63672H463.253L435.03 56.1523L464.62 139.355H426.241L410.616 85.2539L401.827 100.586V139.355H366.378Z" fill="white" fill-opacity="0.9"/>
</svg>
