<?xml version="1.0" encoding="UTF-8"?>
<svg id="Layer_1" data-name="Layer 1" xmlns="http://www.w3.org/2000/svg" viewBox="0 0 854.13 556.29">
  <defs>
    <style>
      .cls-1 {
        fill: #121212;
      }

      .cls-2 {
        fill: #fff;
      }
    </style>
  </defs>
  <path class="cls-1" d="M104.45,223.23c.45,0,.95.04,1.49.11l28.67,3.87c1.91.26,3.28.83,4.1,1.7.82.88,1.23,2.47,1.23,4.76v46.21c0,6.44,1.16,12.69,3.48,18.75,2.32,6.06,5.8,11.67,10.44,16.81,4.64,5.15,10.41,9.72,17.3,13.72,6.89,4,14.85,7.14,23.86,9.43,1.91.57,3.14,1.27,3.69,2.11.54.84.82,2.72.82,5.63v26.9c0,1.69-.24,2.96-.72,3.81-.48.85-1.09,1.46-1.84,1.82-.59.28-1.17.42-1.76.42-.16,0-.33-.01-.49-.03-.75-.1-1.4-.19-1.95-.26-8.6-2.08-16.73-4.82-24.37-8.23-7.65-3.41-14.58-7.18-20.79-11.31-6.21-4.13-11.64-8.54-16.28-13.23-4.64-4.69-8.33-9.29-11.06-13.79-2.73,3.77-6.42,7.37-11.06,10.81-4.64,3.44-10.11,6.38-16.38,8.82-6.28,2.45-13.21,4.35-20.79,5.7-6.43,1.15-13.22,1.72-20.39,1.72-1.28,0-2.58-.02-3.88-.06-.55-.07-1.2-.16-1.95-.26-.75-.1-1.5-.43-2.25-.99-.75-.56-1.37-1.33-1.84-2.32-.48-.98-.72-2.32-.72-4v-26.9c0-2.91.27-4.71.82-5.41.54-.69,1.77-1.06,3.69-1.11.58,0,1.15.01,1.72.01,8.31,0,15.69-1,22.14-3,6.89-2.13,12.66-5.15,17.3-9.04,4.64-3.89,8.12-8.56,10.44-13.99,2.32-5.43,3.48-11.37,3.48-17.81v-46.21c0-2.3.41-3.77,1.23-4.43.59-.47,1.46-.71,2.61-.71M104.45,362.32c.45,0,.95.04,1.49.11l28.67,3.87c1.91.26,3.28.83,4.1,1.7.82.88,1.23,2.46,1.23,4.76v29.43l66.76,9.01c1.91.26,3.28.83,4.1,1.7.82.88,1.23,2.47,1.23,4.76v26.9c0,2.3-.41,3.77-1.23,4.43-.59.47-1.46.71-2.61.71-.45,0-.95-.04-1.49-.11l-172.84-23.33c-1.91-.26-3.28-.83-4.1-1.7-.82-.88-1.23-2.46-1.23-4.76v-26.9c0-2.3.41-3.77,1.23-4.43.59-.47,1.46-.71,2.61-.71.45,0,.95.04,1.49.11l66.76,9.01v-29.43c0-2.3.41-3.77,1.23-4.43.59-.47,1.46-.71,2.61-.71M104.45,196.77c-9.09,0-15.42,3.53-19.12,6.49l-.03.02-.03.02c-5.07,4.07-11.11,11.73-11.11,25.05v46.21c0,2.85-.44,5.28-1.36,7.42-.69,1.61-1.65,2.88-3.12,4.11-1.91,1.6-4.64,2.96-8.12,4.04-3.89,1.21-8.71,1.82-14.31,1.82-.43,0-.86,0-1.29-.01h-.57s-.57,0-.57,0c-12.63.34-19.9,6.28-23.77,11.2-5.74,7.29-6.48,15.46-6.48,21.76v26.9c0,4.85.82,9.36,2.43,13.43-1.46.83-2.71,1.71-3.76,2.55l-.03.02-.03.02c-5.07,4.07-11.11,11.73-11.11,25.06v26.9c0,11.46,4.53,18.73,8.34,22.81,3.53,3.77,9.82,8.52,19.91,9.88l172.84,23.33c1.71.23,3.4.35,5.03.35,9.09,0,15.42-3.53,19.13-6.49,5.12-4.11,11.17-11.76,11.17-25.1v-26.9c0-11.45-4.53-18.72-8.33-22.8-1.8-1.93-4.32-4.11-7.7-5.96,2.34-4.61,3.53-9.88,3.53-15.69v-26.9c0-5.66-.57-13.05-5.05-19.99l-.03-.05-.03-.05c-4.07-6.23-10.23-10.61-18.31-13.01l-.51-.15-.52-.13c-6.6-1.67-12.35-3.92-17.09-6.67-4.48-2.6-8.16-5.47-10.92-8.54-2.47-2.74-4.23-5.54-5.39-8.56-1.17-3.05-1.73-6.08-1.73-9.29v-46.21c0-11.45-4.53-18.72-8.33-22.8-3.54-3.78-9.83-8.53-19.92-9.89l-28.67-3.87c-1.71-.23-3.4-.35-5.03-.35h0Z"/>
  <path class="cls-1" d="M299,235.57c.45,0,.95.04,1.49.11l28.67,3.87c1.91.26,3.28.83,4.1,1.7.82.88,1.23,2.47,1.23,4.76v46.21c0,6.44,1.16,12.69,3.48,18.75,2.32,6.06,5.8,11.67,10.44,16.81,4.64,5.15,10.41,9.72,17.3,13.72,6.89,4,14.85,7.14,23.86,9.43,1.91.57,3.14,1.27,3.69,2.11.54.84.82,2.72.82,5.63v26.9c0,1.69-.24,2.96-.72,3.81-.48.85-1.09,1.46-1.84,1.82-.59.28-1.17.42-1.76.42-.17,0-.33-.01-.49-.03-.75-.1-1.4-.19-1.95-.26-8.6-2.08-16.73-4.82-24.37-8.23-7.65-3.41-14.58-7.18-20.79-11.31-6.21-4.13-11.64-8.54-16.28-13.23-4.64-4.69-8.33-9.29-11.06-13.79-2.73,3.77-6.42,7.37-11.06,10.81-4.64,3.44-10.11,6.38-16.38,8.82-6.28,2.45-13.21,4.35-20.79,5.7-6.43,1.15-13.22,1.72-20.39,1.72-1.28,0-2.58-.02-3.88-.05-.55-.07-1.2-.16-1.95-.26-.75-.1-1.5-.43-2.25-.99-.75-.56-1.37-1.33-1.84-2.32-.48-.98-.72-2.32-.72-4v-26.9c0-2.91.27-4.71.82-5.41.54-.69,1.77-1.06,3.69-1.11.58,0,1.15.01,1.72.01,8.31,0,15.69-1,22.14-3,6.89-2.13,12.66-5.15,17.3-9.04,4.64-3.89,8.12-8.56,10.44-13.99,2.32-5.43,3.48-11.37,3.48-17.81v-46.21c0-2.3.41-3.77,1.23-4.43.59-.47,1.46-.71,2.61-.71M299,374.65c.45,0,.95.04,1.49.11l28.67,3.87c1.91.26,3.28.83,4.1,1.7.82.88,1.23,2.46,1.23,4.76v29.43l66.76,9.01c1.91.26,3.28.83,4.1,1.7.82.88,1.23,2.47,1.23,4.76v26.9c0,2.3-.41,3.77-1.23,4.43-.59.47-1.46.71-2.61.71-.45,0-.95-.04-1.49-.11l-172.84-23.33c-1.91-.26-3.28-.83-4.1-1.7-.82-.88-1.23-2.46-1.23-4.76v-26.9c0-2.3.41-3.77,1.23-4.43.59-.47,1.46-.71,2.61-.71.45,0,.95.04,1.49.11l66.76,9.01v-29.43c0-2.3.41-3.77,1.23-4.43.59-.47,1.46-.71,2.61-.71M299,209.11c-9.09,0-15.42,3.53-19.13,6.5-5.12,4.12-11.17,11.77-11.17,25.1v46.21c0,2.85-.44,5.28-1.36,7.42-.69,1.61-1.65,2.88-3.12,4.11-1.91,1.6-4.64,2.96-8.12,4.04-3.89,1.21-8.71,1.82-14.31,1.82-.43,0-.86,0-1.29-.01h-.57s-.57,0-.57,0c-12.63.34-19.9,6.28-23.78,11.2-5.74,7.29-6.48,15.46-6.48,21.77v26.9c0,4.85.82,9.36,2.43,13.43-1.46.83-2.71,1.71-3.76,2.55-5.12,4.12-11.17,11.77-11.17,25.1v26.9c0,11.46,4.53,18.73,8.34,22.81,3.53,3.77,9.82,8.52,19.91,9.88l172.84,23.33c1.71.23,3.4.35,5.03.35,9.09,0,15.42-3.53,19.13-6.49,5.12-4.11,11.17-11.76,11.17-25.1v-26.9c0-11.45-4.53-18.72-8.33-22.8-1.8-1.93-4.32-4.11-7.69-5.96,2.34-4.61,3.53-9.88,3.53-15.69v-26.9c0-5.66-.57-13.05-5.05-19.98l-.03-.05-.03-.05c-4.07-6.23-10.23-10.61-18.31-13.01l-.51-.15-.52-.13c-6.6-1.67-12.35-3.92-17.09-6.67-4.48-2.6-8.16-5.47-10.92-8.54-2.47-2.74-4.23-5.54-5.39-8.56-1.17-3.05-1.73-6.08-1.73-9.29v-46.21c0-11.45-4.53-18.72-8.33-22.8-3.54-3.78-9.83-8.53-19.92-9.89l-28.67-3.87c-1.7-.23-3.4-.35-5.03-.35h0Z"/>
  <path class="cls-1" d="M422.52,281.44c.45,0,.95.04,1.49.11l100.35,13.55c1.91.26,3.28.83,4.1,1.7.82.88,1.23,2.46,1.23,4.76v169.2c0,9.66-1.84,16.38-5.53,20.17-2.92,3-7,4.51-12.23,4.51-1.37,0-2.82-.1-4.35-.31l-66.76-9.01c-7.37-1-12.9-3.89-16.59-8.68-3.69-4.79-5.53-12.01-5.53-21.67v-169.2c0-2.3.41-3.77,1.23-4.43.59-.47,1.46-.71,2.61-.71M487.94,456.28c1.42,0,2.44-.33,3.04-.98.82-.88,1.23-2.78,1.23-5.7v-123.91l-36.04-4.87v123.91c0,2.91.41,4.92,1.23,6.03.82,1.11,2.39,1.82,4.71,2.13l24.16,3.26c.61.08,1.17.12,1.67.12M554.21,299.21c.45,0,.95.04,1.49.11l28.67,3.87c1.91.26,3.28.83,4.1,1.7.82.88,1.23,2.46,1.23,4.76v72.42l18.84,2.54c1.91.26,3.28.83,4.1,1.7.82.88,1.23,2.47,1.23,4.76v26.67c0,2.3-.41,3.78-1.23,4.43-.59.47-1.46.71-2.6.71-.45,0-.95-.04-1.49-.11l-18.84-2.54v91.73c0,2.3-.41,3.77-1.23,4.43-.59.47-1.46.71-2.61.71-.45,0-.95-.04-1.49-.11l-28.67-3.87c-1.91-.26-3.28-.83-4.1-1.7-.82-.88-1.23-2.47-1.23-4.76v-202.3c0-2.3.41-3.77,1.23-4.43.59-.47,1.46-.71,2.61-.71M422.53,254.98c-9.09,0-15.42,3.53-19.13,6.49l-.03.02-.03.02c-5.07,4.07-11.11,11.73-11.11,25.05v169.2c0,15.58,3.71,28.3,11.02,37.8,5.56,7.22,15.97,16.32,34.02,18.76l66.76,9.01c2.69.36,5.35.55,7.89.55,5.44,0,10.19-.82,14.3-2.12,1.65,4.28,3.94,7.45,6.01,9.67,3.54,3.78,9.83,8.53,19.92,9.89l28.67,3.87c1.7.23,3.4.35,5.03.35,9.09,0,15.42-3.53,19.13-6.49l.03-.02.03-.02c5.07-4.07,11.11-11.73,11.11-25.05v-63.18c5.87-1.11,10.18-3.68,13-5.93h0c5.1-4.07,11.17-11.73,11.17-25.1v-26.67c0-11.45-4.53-18.72-8.33-22.8-3.04-3.25-8.09-7.2-15.84-9.12v-49.51c0-11.45-4.53-18.72-8.32-22.8-3.54-3.78-9.83-8.53-19.92-9.89l-28.67-3.87c-1.71-.23-3.4-.35-5.03-.35-4.3,0-7.98.79-11.06,1.94-3.64-2.58-8.63-4.93-15.24-5.82l-100.35-13.55c-1.71-.23-3.4-.35-5.03-.35h0Z"/>
  <path class="cls-1" d="M629.98,282.04c.45,0,.95.04,1.49.11l107.11,14.46c1.91.26,3.28.83,4.1,1.7.82.88,1.23,2.46,1.23,4.76v26.9c0,2.3-.41,3.78-1.23,4.43-.59.47-1.46.71-2.6.71-.45,0-.95-.04-1.49-.11l-34-4.59c0,4.45.48,8.84,1.43,13.18.95,4.35,2.73,8.49,5.32,12.44,2.59,3.95,6.07,7.6,10.44,10.95,4.37,3.35,9.96,6.25,16.79,8.7.54.23,1.19.47,1.94.72.75.26,1.47.7,2.15,1.33.68.63,1.26,1.47,1.74,2.53.48,1.06.72,2.51.72,4.35v25.52c0,2.76-.65,4.32-1.94,4.68-.73.2-1.4.31-2.02.31-.49,0-.94-.06-1.36-.19-4.78-1.11-9.66-2.57-14.64-4.39-4.98-1.82-9.86-4.09-14.64-6.8-4.78-2.71-9.35-5.98-13.72-9.78-4.37-3.81-8.26-8.16-11.67-13.07-3.55,3.97-7.48,7.27-11.78,9.9-4.3,2.64-8.84,4.67-13.62,6.09-4.78,1.42-9.66,2.37-14.64,2.85-3.59.34-7.13.52-10.61.52-1.35,0-2.69-.03-4.03-.08-.03,0-.07,0-.1,0-.94,0-2.03-.34-3.28-1.03-1.3-.71-1.95-2.45-1.95-5.21v-25.52c0-1.84.24-3.22.72-4.16.48-.93,1.06-1.62,1.74-2.06.68-.44,1.4-.69,2.15-.74.75-.05,1.4-.12,1.95-.2,6.69-.63,12.22-2.03,16.59-4.2,4.37-2.17,7.85-4.88,10.44-8.13,2.59-3.25,4.4-6.91,5.43-10.99,1.02-4.07,1.54-8.33,1.54-12.78l-34.2-4.62c-1.91-.26-3.28-.82-4.1-1.7-.82-.88-1.23-2.46-1.23-4.76v-26.9c0-2.3.41-3.77,1.23-4.43.59-.47,1.46-.71,2.61-.71M765.96,300.4c.45,0,.95.04,1.49.11l28.67,3.87c1.91.26,3.28.83,4.1,1.7.82.88,1.23,2.46,1.23,4.76v30.12l18.84,2.54c1.91.26,3.28.83,4.1,1.7.82.88,1.23,2.47,1.23,4.76v26.67c0,2.3-.41,3.78-1.23,4.43-.59.47-1.46.71-2.6.71-.45,0-.95-.04-1.49-.11l-18.84-2.54v40.69c0,2.3-.41,3.78-1.23,4.43-.59.47-1.46.71-2.6.71-.45,0-.95-.04-1.49-.11l-28.67-3.87c-1.91-.26-3.28-.82-4.1-1.7-.82-.87-1.23-2.46-1.23-4.76v-108.97c0-2.3.41-3.77,1.23-4.43.59-.47,1.46-.71,2.61-.71M695.67,424.34c6.16,0,12.86.41,20.11,1.23,14.03,1.59,26.01,4.24,35.96,7.97,9.94,3.73,18.1,8.22,24.46,13.45,6.36,5.24,11.01,11.05,13.94,17.44,2.93,6.39,4.4,13.03,4.4,19.92s-1.43,13.21-4.28,18.94c-2.86,5.73-7.42,10.54-13.7,14.43-6.28,3.89-14.43,6.57-24.46,8.04-4.8.7-10.08,1.06-15.83,1.06-6.27,0-13.1-.42-20.49-1.25-14.19-1.6-26.3-4.28-36.33-8.01-10.03-3.74-18.19-8.26-24.46-13.57-6.28-5.31-10.85-11.15-13.7-17.53-2.85-6.38-4.28-13.01-4.28-19.91s1.47-13.2,4.4-18.93c2.94-5.72,7.58-10.48,13.94-14.29,6.36-3.8,14.51-6.44,24.46-7.92,4.81-.72,10.09-1.07,15.85-1.07M733.58,490.17c.16,0,.33,0,.49,0,4.74-.02,8.93-.4,12.58-1.12,3.65-.73,6.56-1.92,8.73-3.55,2.17-1.64,3.25-3.83,3.25-6.59s-1.09-5.12-3.25-7.09c-2.18-1.96-5.08-3.69-8.73-5.18-3.65-1.49-7.85-2.69-12.58-3.59-4.74-.9-9.67-1.59-14.8-2.07-4.96-.46-9.73-.69-14.31-.69-.16,0-.33,0-.49,0-4.74.02-8.93.43-12.58,1.24-3.65.81-6.56,1.99-8.73,3.55-2.18,1.56-3.26,3.72-3.26,6.48s1.08,5.16,3.26,7.2c2.17,2.04,5.08,3.77,8.73,5.18,3.65,1.41,7.84,2.57,12.58,3.47,4.74.9,9.67,1.59,14.8,2.07,4.95.46,9.73.69,14.31.69M629.98,255.58c-9.09,0-15.42,3.53-19.13,6.49l-.03.02-.03.02c-5.07,4.07-11.11,11.73-11.11,25.06v26.9c0,11.49,4.55,18.76,8.37,22.84,1.1,1.18,2.49,2.47,4.19,3.72-4.14,2.92-7.56,6.89-9.95,11.56-2.44,4.74-3.63,10.06-3.63,16.23v25.52c0,17.81,10.88,25.76,15.64,28.38h0s0,0,0,0c0,0,0,0,.01,0,3.17,1.75,6.42,2.97,9.71,3.65-2.36,2.98-4.41,6.17-6.15,9.56-4.86,9.47-7.32,19.91-7.32,31.01s2.22,20.95,6.59,30.72c4.47,9.99,11.46,19.05,20.77,26.92,8.57,7.25,19.44,13.36,32.3,18.15,12.02,4.48,26.35,7.68,42.6,9.51,8.34.94,16.24,1.42,23.47,1.42s13.63-.45,19.67-1.34c13.59-2,25.21-5.94,34.55-11.72,10.5-6.51,18.39-14.96,23.46-25.13,4.69-9.43,7.06-19.76,7.06-30.74s-2.29-21.12-6.82-30.97c-.81-1.75-1.69-3.48-2.65-5.17,2.11-1.05,3.85-2.24,5.23-3.34,5.05-4.03,11.12-11.69,11.12-25.06v-12.14c5.9-1.12,10.23-3.71,13.04-5.97,5.06-4.04,11.12-11.7,11.12-25.06v-26.67c0-11.45-4.52-18.71-8.32-22.79l-.03-.03-.03-.03c-3-3.21-8.05-7.15-15.79-9.07v-7.21c0-11.45-4.52-18.71-8.32-22.79l-.03-.03-.03-.03c-3.5-3.74-9.79-8.48-19.87-9.84l-28.67-3.87c-1.71-.23-3.4-.35-5.03-.35-3.71,0-6.96.59-9.76,1.49-3.51-2.26-8.14-4.23-14.09-5.04l-107.1-14.46c-1.71-.23-3.4-.35-5.03-.35h0Z"/>
  <path class="cls-2" d="M104.45,223.23c.45,0,.95.04,1.49.11l28.67,3.87c1.91.26,3.28.83,4.1,1.7.82.88,1.23,2.47,1.23,4.76v46.21c0,6.44,1.16,12.69,3.48,18.75,2.32,6.06,5.8,11.67,10.44,16.81,4.64,5.15,10.41,9.72,17.3,13.72,6.89,4,14.85,7.14,23.86,9.43,1.91.57,3.14,1.27,3.69,2.11.54.84.82,2.72.82,5.63v26.9c0,1.69-.24,2.96-.72,3.81-.48.85-1.09,1.46-1.84,1.82-.59.28-1.17.42-1.76.42-.17,0-.33-.01-.49-.03-.75-.1-1.4-.19-1.95-.26-8.6-2.08-16.73-4.82-24.37-8.23-7.65-3.41-14.58-7.18-20.79-11.31-6.21-4.13-11.64-8.54-16.28-13.23-4.64-4.69-8.33-9.29-11.06-13.79-2.73,3.77-6.42,7.37-11.06,10.81-4.64,3.44-10.11,6.38-16.38,8.82-6.28,2.45-13.21,4.35-20.79,5.7-6.43,1.15-13.22,1.72-20.39,1.72-1.28,0-2.58-.02-3.88-.06-.55-.07-1.2-.16-1.95-.26-.75-.1-1.5-.43-2.25-.99-.75-.56-1.37-1.33-1.84-2.32-.48-.98-.72-2.32-.72-4v-26.9c0-2.91.27-4.71.82-5.41.54-.69,1.77-1.06,3.69-1.11.58,0,1.15.01,1.72.01,8.31,0,15.69-1,22.14-3,6.89-2.13,12.66-5.15,17.3-9.04,4.64-3.89,8.12-8.56,10.44-13.99,2.32-5.43,3.48-11.37,3.48-17.81v-46.21c0-2.3.41-3.77,1.23-4.43.59-.47,1.46-.71,2.61-.71M104.45,362.32c.45,0,.95.04,1.49.11l28.67,3.87c1.91.26,3.28.83,4.1,1.7.82.88,1.23,2.46,1.23,4.76v29.43l66.76,9.01c1.91.26,3.28.83,4.1,1.7.82.88,1.23,2.47,1.23,4.76v26.9c0,2.3-.41,3.77-1.23,4.43-.59.47-1.46.71-2.61.71-.45,0-.95-.04-1.49-.11l-172.84-23.33c-1.91-.26-3.28-.83-4.1-1.7-.82-.88-1.23-2.46-1.23-4.76v-26.9c0-2.3.41-3.77,1.23-4.43.59-.47,1.46-.71,2.61-.71.45,0,.95.04,1.49.11l66.76,9.01v-29.43c0-2.3.41-3.77,1.23-4.43.59-.47,1.46-.71,2.61-.71M104.45,209.31c-5.46,0-9.16,2.04-11.3,3.75-4.3,3.45-6.46,8.6-6.46,15.31v46.21c0,4.58-.77,8.61-2.36,12.34-1.46,3.42-3.62,6.3-6.59,8.79-3.19,2.68-7.39,4.84-12.47,6.41-5.09,1.58-11.15,2.38-18.02,2.38-.49,0-.99,0-1.49-.01h-.3s-.3,0-.3,0c-6.24.17-11.04,2.33-14.26,6.42-3.35,4.25-3.8,9.47-3.8,14.02v26.9c0,3.87.7,7.18,2.13,10.11,1.44,2.97,3.47,5.47,6.03,7.37,2.65,1.99,5.59,3.21,8.72,3.64l1.33.18.61.08.73.1.74.02c1.43.04,2.87.06,4.27.06,7.96,0,15.64-.65,22.84-1.94,4.21-.75,8.28-1.67,12.19-2.74v12.25l-50.97-6.88c-1.15-.16-2.28-.23-3.35-.23-5.46,0-9.16,2.04-11.3,3.75-4.3,3.45-6.46,8.6-6.46,15.31v26.9c0,5.93,1.67,10.72,4.97,14.26,3.08,3.29,7.25,5.31,12.42,6.01l172.84,23.33c1.15.16,2.28.23,3.35.23,5.46,0,9.16-2.04,11.3-3.75,4.3-3.45,6.46-8.59,6.46-15.31v-26.9c0-5.92-1.67-10.72-4.96-14.25-3.09-3.3-7.26-5.32-12.42-6.01l-54.7-7.38v-10.81c2.86,1.48,5.83,2.9,8.87,4.26,8.36,3.73,17.37,6.77,26.76,9.05l.7.17.71.1,1.21.16.73.1c.78.11,1.57.16,2.36.16,2.67,0,5.28-.6,7.74-1.77,3.36-1.61,6.12-4.23,8-7.58,1.69-3.03,2.5-6.5,2.5-10.63v-26.9c0-4.19-.36-9.03-3.05-13.18-2.47-3.78-6.19-6.35-11.42-7.9l-.27-.08-.27-.07c-7.72-1.96-14.55-4.64-20.3-7.98-5.61-3.25-10.3-6.95-13.95-10.99-3.47-3.85-6.09-8.04-7.78-12.47-1.72-4.5-2.56-9-2.56-13.77v-46.21c0-5.92-1.67-10.72-4.96-14.25-3.09-3.3-7.26-5.32-12.42-6.01l-28.67-3.87c-1.15-.16-2.28-.23-3.35-.23h0Z"/>
  <path class="cls-2" d="M299,235.57c.45,0,.95.04,1.49.11l28.67,3.87c1.91.26,3.28.83,4.1,1.7.82.88,1.23,2.47,1.23,4.76v46.21c0,6.44,1.16,12.69,3.48,18.75,2.32,6.06,5.8,11.67,10.44,16.81,4.64,5.15,10.41,9.72,17.3,13.72,6.89,4,14.85,7.14,23.86,9.43,1.91.57,3.14,1.27,3.69,2.11.54.84.82,2.72.82,5.63v26.9c0,1.69-.24,2.96-.72,3.81-.48.85-1.09,1.46-1.84,1.82-.59.28-1.17.42-1.76.42-.16,0-.33-.01-.49-.03-.75-.1-1.4-.19-1.95-.26-8.6-2.08-16.73-4.82-24.37-8.23-7.65-3.41-14.58-7.18-20.79-11.31-6.21-4.13-11.64-8.54-16.28-13.23-4.64-4.69-8.33-9.29-11.06-13.79-2.73,3.77-6.42,7.37-11.06,10.81-4.64,3.44-10.11,6.38-16.38,8.82-6.28,2.45-13.21,4.35-20.79,5.7-6.43,1.15-13.22,1.72-20.39,1.72-1.28,0-2.58-.02-3.88-.06-.55-.07-1.2-.16-1.95-.26-.75-.1-1.5-.43-2.25-.99-.75-.56-1.37-1.33-1.84-2.32-.48-.98-.72-2.32-.72-4v-26.9c0-2.91.27-4.71.82-5.41.54-.69,1.77-1.06,3.69-1.11.58,0,1.15.01,1.72.01,8.31,0,15.69-1,22.14-3,6.89-2.13,12.66-5.15,17.3-9.04,4.64-3.89,8.12-8.56,10.44-13.99,2.32-5.43,3.48-11.37,3.48-17.81v-46.21c0-2.3.41-3.77,1.23-4.43.59-.47,1.46-.71,2.61-.71M299,374.65c.45,0,.95.04,1.49.11l28.67,3.87c1.91.26,3.28.83,4.1,1.7.82.88,1.23,2.46,1.23,4.76v29.43l66.76,9.01c1.91.26,3.28.83,4.1,1.7.82.88,1.23,2.47,1.23,4.76v26.9c0,2.3-.41,3.77-1.23,4.43-.59.47-1.46.71-2.61.71-.45,0-.95-.04-1.49-.11l-172.84-23.33c-1.91-.26-3.28-.83-4.1-1.7-.82-.88-1.23-2.46-1.23-4.76v-26.9c0-2.3.41-3.77,1.23-4.43.59-.47,1.46-.71,2.61-.71.45,0,.95.04,1.49.11l66.76,9.01v-29.43c0-2.3.41-3.77,1.23-4.43.59-.47,1.46-.71,2.61-.71M299,221.64c-5.46,0-9.16,2.04-11.3,3.75-4.3,3.45-6.46,8.6-6.46,15.31v46.21c0,4.58-.77,8.61-2.36,12.34-1.46,3.42-3.62,6.3-6.59,8.79-3.19,2.68-7.39,4.84-12.47,6.41-5.09,1.58-11.15,2.38-18.02,2.38-.49,0-.99,0-1.49-.01h-.3s-.3,0-.3,0c-6.24.17-11.04,2.33-14.26,6.42-3.35,4.25-3.8,9.47-3.8,14.02v26.9c0,3.87.7,7.18,2.13,10.11,1.44,2.97,3.47,5.47,6.03,7.37,2.65,1.99,5.59,3.21,8.72,3.64l1.11.15.84.11.73.1.74.02c1.43.04,2.87.06,4.27.06,7.96,0,15.64-.65,22.84-1.94,4.21-.75,8.28-1.67,12.19-2.74v12.25l-50.97-6.88c-1.15-.16-2.28-.23-3.35-.23-5.46,0-9.16,2.04-11.3,3.75-4.3,3.45-6.46,8.6-6.46,15.31v26.9c0,5.93,1.67,10.72,4.97,14.26,3.08,3.29,7.25,5.31,12.42,6.01l172.84,23.33c1.15.16,2.28.23,3.35.23,5.46,0,9.16-2.04,11.3-3.75,4.3-3.45,6.46-8.59,6.46-15.31v-26.9c0-5.92-1.67-10.72-4.96-14.25-3.09-3.3-7.26-5.31-12.42-6.01l-54.7-7.38v-10.81c2.86,1.48,5.83,2.9,8.87,4.26,8.36,3.73,17.37,6.77,26.76,9.05l.7.17.71.1.35.05,1.59.22c.78.11,1.57.16,2.36.16,2.67,0,5.28-.6,7.74-1.77,3.37-1.61,6.12-4.23,8-7.58,1.69-3.03,2.5-6.49,2.5-10.63v-26.9c0-4.19-.36-9.03-3.05-13.18-2.47-3.78-6.19-6.35-11.42-7.9l-.27-.08-.27-.07c-7.72-1.96-14.55-4.64-20.3-7.98-5.61-3.25-10.3-6.95-13.95-10.99-3.47-3.85-6.09-8.04-7.78-12.47-1.72-4.5-2.56-9-2.56-13.77v-46.21c0-5.92-1.67-10.72-4.96-14.25-3.09-3.3-7.26-5.31-12.42-6.01l-28.67-3.87c-1.15-.16-2.28-.23-3.35-.23h0Z"/>
  <path class="cls-2" d="M422.52,281.44c.45,0,.95.04,1.49.11l100.35,13.55c1.91.26,3.28.83,4.1,1.7.82.88,1.23,2.46,1.23,4.76v169.2c0,9.66-1.84,16.38-5.53,20.17-2.92,3-7,4.51-12.23,4.51-1.37,0-2.82-.1-4.35-.31l-66.76-9.01c-7.37-1-12.9-3.89-16.59-8.68-3.69-4.79-5.53-12.01-5.53-21.67v-169.2c0-2.3.41-3.77,1.23-4.43.59-.47,1.46-.71,2.61-.71M487.94,456.28c1.42,0,2.44-.33,3.04-.98.82-.88,1.23-2.78,1.23-5.7v-123.91l-36.04-4.87v123.91c0,2.91.41,4.92,1.23,6.03.82,1.11,2.39,1.82,4.71,2.13l24.16,3.26c.61.08,1.17.12,1.67.12M554.2,299.21c.45,0,.95.04,1.49.11l28.67,3.87c1.91.26,3.28.83,4.1,1.7.82.88,1.23,2.46,1.23,4.76v72.42l18.84,2.54c1.91.26,3.28.83,4.1,1.7.82.88,1.23,2.47,1.23,4.76v26.67c0,2.3-.41,3.78-1.23,4.43-.59.47-1.46.71-2.6.71-.45,0-.95-.04-1.49-.11l-18.84-2.54v91.73c0,2.3-.41,3.77-1.23,4.43-.59.47-1.46.71-2.61.71-.45,0-.95-.04-1.49-.11l-28.67-3.87c-1.91-.26-3.28-.83-4.1-1.7-.82-.88-1.23-2.47-1.23-4.76v-202.3c0-2.3.41-3.77,1.23-4.43.59-.47,1.46-.71,2.61-.71M422.52,267.51h0c-5.46,0-9.16,2.04-11.3,3.75-4.3,3.45-6.46,8.6-6.46,15.31v169.2c0,12.93,2.75,22.8,8.42,30.16,5.99,7.78,14.66,12.49,25.76,13.98l66.76,9.01c2.14.29,4.23.44,6.22.44,11.35,0,18.35-4.74,22.22-8.72.82-.85,1.59-1.75,2.3-2.7v8.71c0,5.92,1.67,10.72,4.96,14.25,3.09,3.3,7.26,5.32,12.42,6.01l28.67,3.87c1.15.16,2.28.23,3.35.23,5.46,0,9.16-2.04,11.3-3.75,4.3-3.45,6.46-8.6,6.46-15.31v-75.79l3.05.41c1.15.16,2.28.23,3.36.23,5.48,0,9.18-2.05,11.33-3.78,4.26-3.4,6.43-8.55,6.43-15.29v-26.67c0-5.92-1.67-10.72-4.96-14.25-3.09-3.3-7.26-5.32-12.42-6.01l-6.78-.92v-60.24c0-5.92-1.67-10.72-4.96-14.25-3.09-3.3-7.26-5.32-12.42-6.01l-28.67-3.87c-1.15-.16-2.28-.23-3.35-.23h0c-5.46,0-9.16,2.04-11.3,3.75-.65.52-1.24,1.08-1.79,1.67-.68-1.24-1.5-2.38-2.46-3.41-3.09-3.3-7.26-5.31-12.42-6.01l-100.35-13.55c-1.15-.16-2.28-.23-3.35-.23h0ZM470.09,439.92v-103.16l8.19,1.11v103.16l-8.19-1.11h0Z"/>
  <path class="cls-2" d="M629.98,282.04c.45,0,.95.04,1.49.11l107.11,14.46c1.91.26,3.28.83,4.1,1.7.82.88,1.23,2.46,1.23,4.76v26.9c0,2.3-.41,3.78-1.23,4.43-.59.47-1.46.71-2.6.71-.45,0-.95-.04-1.49-.11l-34-4.59c0,4.45.48,8.84,1.43,13.18.95,4.35,2.73,8.49,5.32,12.44,2.59,3.95,6.07,7.6,10.44,10.95,4.37,3.35,9.96,6.25,16.79,8.7.54.23,1.19.47,1.94.72.75.26,1.47.7,2.15,1.33.68.63,1.26,1.47,1.74,2.53.48,1.06.72,2.51.72,4.35v25.52c0,2.76-.65,4.32-1.94,4.68-.73.2-1.4.31-2.02.31-.49,0-.94-.06-1.36-.19-4.78-1.11-9.66-2.57-14.64-4.39-4.98-1.82-9.86-4.09-14.64-6.8-4.78-2.71-9.35-5.98-13.72-9.78-4.37-3.81-8.26-8.16-11.67-13.07-3.55,3.97-7.48,7.27-11.78,9.9-4.3,2.64-8.84,4.67-13.62,6.09-4.78,1.42-9.66,2.37-14.64,2.85-3.59.34-7.13.52-10.61.52-1.35,0-2.69-.03-4.03-.08-.03,0-.07,0-.1,0-.94,0-2.03-.34-3.28-1.03-1.3-.71-1.95-2.45-1.95-5.21v-25.52c0-1.84.24-3.22.72-4.16.48-.93,1.06-1.62,1.74-2.06.68-.44,1.4-.69,2.15-.74.75-.05,1.4-.12,1.95-.2,6.69-.63,12.22-2.03,16.59-4.2,4.37-2.17,7.85-4.88,10.44-8.13,2.59-3.25,4.4-6.91,5.43-10.99,1.02-4.07,1.54-8.33,1.54-12.78l-34.2-4.62c-1.91-.26-3.28-.82-4.1-1.7-.82-.88-1.23-2.46-1.23-4.76v-26.9c0-2.3.41-3.77,1.23-4.43.59-.47,1.46-.71,2.61-.71M765.96,300.4c.45,0,.95.04,1.49.11l28.67,3.87c1.91.26,3.28.83,4.1,1.7.82.88,1.23,2.46,1.23,4.76v30.12l18.84,2.54c1.91.26,3.28.83,4.1,1.7.82.88,1.23,2.47,1.23,4.76v26.67c0,2.3-.41,3.78-1.23,4.43-.59.47-1.46.71-2.6.71-.45,0-.95-.04-1.49-.11l-18.84-2.54v40.69c0,2.3-.41,3.78-1.23,4.43-.59.47-1.46.71-2.6.71-.45,0-.95-.04-1.49-.11l-28.67-3.87c-1.91-.26-3.28-.82-4.1-1.7-.82-.87-1.23-2.46-1.23-4.76v-108.97c0-2.3.41-3.77,1.23-4.43.59-.47,1.46-.71,2.61-.71M695.67,424.34c6.16,0,12.86.41,20.11,1.23,14.03,1.58,26.01,4.24,35.96,7.97,9.94,3.73,18.1,8.22,24.46,13.45,6.36,5.24,11.01,11.05,13.94,17.44,2.93,6.39,4.4,13.03,4.4,19.92s-1.43,13.21-4.28,18.94c-2.86,5.73-7.42,10.54-13.7,14.43-6.28,3.89-14.43,6.57-24.46,8.04-4.8.7-10.08,1.06-15.83,1.06-6.27,0-13.1-.42-20.49-1.25-14.19-1.6-26.3-4.28-36.33-8.01-10.03-3.74-18.19-8.26-24.46-13.57-6.28-5.31-10.85-11.15-13.7-17.53-2.85-6.38-4.28-13.01-4.28-19.91s1.47-13.2,4.4-18.93c2.94-5.72,7.58-10.48,13.94-14.29,6.36-3.8,14.51-6.44,24.46-7.92,4.81-.72,10.09-1.07,15.85-1.07M733.58,490.17c.16,0,.33,0,.49,0,4.74-.02,8.93-.4,12.58-1.12,3.65-.73,6.56-1.92,8.73-3.55,2.17-1.64,3.25-3.83,3.25-6.59s-1.09-5.12-3.25-7.09c-2.18-1.96-5.08-3.69-8.73-5.18-3.65-1.49-7.85-2.69-12.58-3.59-4.74-.9-9.67-1.59-14.8-2.07-4.96-.46-9.73-.69-14.31-.69-.16,0-.33,0-.49,0-4.74.02-8.93.43-12.58,1.24-3.65.81-6.56,1.99-8.73,3.55-2.18,1.56-3.26,3.72-3.26,6.48s1.08,5.16,3.26,7.2c2.17,2.04,5.08,3.77,8.73,5.18,3.65,1.41,7.84,2.57,12.58,3.47,4.74.9,9.67,1.59,14.8,2.07,4.95.46,9.73.69,14.31.69M629.98,268.12c-5.46,0-9.16,2.04-11.3,3.75-4.3,3.45-6.46,8.6-6.46,15.31v26.9c0,5.94,1.68,10.74,4.98,14.28,3.04,3.27,7.22,5.29,12.4,5.99l20.16,2.72c-.51,1.14-1.15,2.19-1.94,3.19-1.3,1.63-3.24,3.09-5.75,4.34-2.78,1.38-6.82,2.35-11.69,2.8l-.38.04-.38.06s-.29.04-.81.08c-3.15.22-6.18,1.24-8.82,2.96-2.75,1.79-4.95,4.28-6.55,7.39-1.51,2.94-2.25,6.38-2.25,10.51v25.52c0,10.79,5.76,15.55,9.19,17.42,3.24,1.79,6.56,2.71,9.82,2.74,1.41.05,2.85.08,4.27.08,3.91,0,7.93-.19,11.94-.58,5.85-.56,11.67-1.69,17.29-3.37,5.92-1.77,11.62-4.31,16.93-7.57,1.01-.62,2.01-1.27,2.99-1.95,1.3,1.3,2.64,2.55,4.02,3.75,2.43,2.12,4.94,4.11,7.52,5.96-6.22.02-12.07.43-17.38,1.22-11.71,1.75-21.66,5.02-29.56,9.74-8.61,5.15-15.06,11.84-19.19,19.88-3.94,7.69-5.94,16.19-5.94,25.29s1.85,17.45,5.5,25.6c3.7,8.27,9.56,15.83,17.42,22.47,7.47,6.32,17.09,11.69,28.59,15.98,11.06,4.12,24.39,7.08,39.63,8.8,7.88.89,15.3,1.34,22.06,1.34,6.4,0,12.41-.4,17.86-1.2,11.88-1.75,21.9-5.1,29.77-9.98,8.49-5.26,14.82-12.01,18.83-20.06,3.81-7.67,5.74-16.13,5.74-25.15s-1.91-17.54-5.68-25.74c-3.55-7.71-8.97-14.77-16.12-21l7.57,1.02c1.15.16,2.28.23,3.35.23,5.47,0,9.18-2.05,11.32-3.77,4.26-3.4,6.44-8.56,6.44-15.29v-24.76l3.05.41c1.15.16,2.28.23,3.36.23,5.47,0,9.18-2.05,11.32-3.77,4.26-3.41,6.44-8.56,6.44-15.29v-26.67c0-5.92-1.67-10.71-4.96-14.25-3.09-3.31-7.27-5.32-12.43-6.02l-6.78-.91v-17.94c0-5.92-1.67-10.71-4.96-14.25-3.09-3.31-7.27-5.32-12.43-6.02l-28.67-3.87c-1.15-.16-2.28-.23-3.35-.23h0c-5.46,0-9.15,2.04-11.3,3.75-.13.11-.27.22-.4.33-.43-.6-.9-1.18-1.4-1.72-3.09-3.31-7.27-5.32-12.43-6.02l-107.11-14.46c-1.15-.16-2.28-.23-3.35-.23h0ZM748.19,364.66c-1.03-.57-2.09-1.05-3.19-1.42-.63-.21-.93-.33-1.04-.38l-.34-.14-.35-.13c-5.43-1.95-9.81-4.19-13.03-6.65-3.11-2.38-5.55-4.92-7.27-7.53-.35-.53-.67-1.06-.97-1.58l14.69,1.98c1.16.16,2.28.23,3.35.23,3.36,0,6.06-.77,8.13-1.77v17.39h0ZM728.09,476.13c-2.45-.1-4.97-.28-7.52-.51-3.46-.32-6.85-.76-10.11-1.29,2.45.1,4.97.28,7.52.51,3.46.32,6.85.76,10.11,1.29h0Z"/>
  <path class="cls-1" d="M28.52,392.9c0-2.3.41-3.77,1.23-4.43.82-.65,2.18-.86,4.1-.6l66.76,9.01v-29.43c0-2.3.41-3.77,1.23-4.43.82-.65,2.18-.86,4.1-.6l28.67,3.87c1.91.26,3.28.83,4.1,1.7.82.88,1.23,2.46,1.23,4.76v29.43l66.76,9.01c1.91.26,3.28.83,4.1,1.7.82.88,1.23,2.47,1.23,4.76v26.9c0,2.3-.41,3.77-1.23,4.43-.82.65-2.19.85-4.1.6l-172.84-23.33c-1.91-.26-3.28-.83-4.1-1.7-.82-.88-1.23-2.46-1.23-4.76v-26.9ZM47.77,359.4c-.55-.07-1.2-.16-1.95-.26s-1.5-.43-2.25-.99c-.75-.56-1.37-1.33-1.84-2.32-.48-.98-.72-2.32-.72-4v-26.9c0-2.91.27-4.71.82-5.41.54-.69,1.77-1.06,3.69-1.11,9.01.15,16.96-.85,23.86-2.99,6.89-2.13,12.66-5.15,17.3-9.04,4.64-3.89,8.12-8.56,10.44-13.99,2.32-5.43,3.48-11.37,3.48-17.81v-46.21c0-2.3.41-3.77,1.23-4.43.82-.65,2.18-.86,4.1-.6l28.67,3.87c1.91.26,3.28.83,4.1,1.7.82.88,1.23,2.47,1.23,4.76v46.21c0,6.44,1.16,12.69,3.48,18.75,2.32,6.06,5.8,11.67,10.44,16.81,4.64,5.15,10.41,9.72,17.3,13.72,6.89,4,14.85,7.14,23.86,9.43,1.91.57,3.14,1.27,3.69,2.11.54.84.82,2.72.82,5.63v26.9c0,1.69-.24,2.96-.72,3.81-.48.85-1.09,1.46-1.84,1.82-.75.36-1.5.49-2.25.39l-1.95-.26c-8.6-2.08-16.73-4.82-24.37-8.23-7.65-3.41-14.58-7.18-20.79-11.31-6.21-4.13-11.64-8.54-16.28-13.23-4.64-4.69-8.33-9.29-11.06-13.79-2.73,3.77-6.42,7.37-11.06,10.81-4.64,3.44-10.11,6.38-16.38,8.82-6.28,2.45-13.21,4.35-20.79,5.7-7.58,1.35-15.67,1.91-24.27,1.67Z"/>
  <path class="cls-1" d="M223.07,405.23c0-2.3.41-3.77,1.23-4.43.82-.65,2.18-.86,4.1-.6l66.76,9.01v-29.43c0-2.3.41-3.77,1.23-4.43.82-.65,2.18-.86,4.1-.6l28.67,3.87c1.91.26,3.28.83,4.1,1.7.82.88,1.23,2.46,1.23,4.76v29.43l66.76,9.01c1.91.26,3.28.83,4.1,1.7.82.88,1.23,2.47,1.23,4.76v26.9c0,2.3-.41,3.77-1.23,4.43-.82.65-2.19.85-4.1.6l-172.84-23.33c-1.91-.26-3.28-.83-4.1-1.7-.82-.88-1.23-2.46-1.23-4.76v-26.9ZM242.32,371.74l-1.95-.26c-.75-.1-1.5-.43-2.25-.99-.75-.56-1.37-1.33-1.84-2.32-.48-.98-.72-2.32-.72-4v-26.9c0-2.91.27-4.71.82-5.41.54-.69,1.77-1.06,3.69-1.11,9.01.15,16.96-.85,23.86-2.99,6.89-2.13,12.66-5.15,17.3-9.04,4.64-3.89,8.12-8.56,10.44-13.99,2.32-5.43,3.48-11.37,3.48-17.81v-46.21c0-2.3.41-3.77,1.23-4.43.82-.65,2.18-.86,4.1-.6l28.67,3.87c1.91.26,3.28.83,4.1,1.7.82.88,1.23,2.47,1.23,4.76v46.21c0,6.44,1.16,12.69,3.48,18.75,2.32,6.06,5.8,11.67,10.44,16.81,4.64,5.15,10.41,9.72,17.3,13.72,6.89,4,14.85,7.14,23.86,9.43,1.91.57,3.14,1.27,3.69,2.11.54.84.82,2.72.82,5.63v26.9c0,1.69-.24,2.96-.72,3.81-.48.85-1.09,1.46-1.84,1.82-.75.36-1.5.49-2.25.39l-1.95-.26c-8.6-2.08-16.73-4.82-24.37-8.23-7.65-3.41-14.58-7.18-20.79-11.31-6.21-4.13-11.64-8.54-16.28-13.23-4.64-4.69-8.33-9.29-11.06-13.79-2.73,3.77-6.42,7.37-11.06,10.81-4.64,3.44-10.11,6.38-16.38,8.82-6.28,2.45-13.21,4.35-20.79,5.7-7.58,1.35-15.67,1.91-24.27,1.67Z"/>
  <path class="cls-1" d="M529.68,470.76c0,9.66-1.84,16.38-5.53,20.17-3.69,3.79-9.22,5.19-16.59,4.2l-66.76-9.01c-7.37-1-12.9-3.89-16.59-8.68-3.69-4.79-5.53-12.01-5.53-21.67v-169.2c0-2.3.41-3.77,1.23-4.43.82-.65,2.18-.86,4.1-.6l100.35,13.55c1.91.26,3.28.83,4.1,1.7.82.88,1.23,2.46,1.23,4.76v169.2ZM486.27,456.16c2.32.31,3.89.03,4.71-.86.82-.88,1.23-2.78,1.23-5.7v-123.91l-36.04-4.87v123.91c0,2.91.41,4.92,1.23,6.03.82,1.11,2.39,1.82,4.71,2.13l24.16,3.26ZM613.85,417.75c0,2.3-.41,3.78-1.23,4.43-.82.66-2.18.85-4.1.6l-18.84-2.54v91.73c0,2.3-.41,3.77-1.23,4.43-.82.65-2.19.85-4.1.6l-28.67-3.87c-1.91-.26-3.28-.83-4.1-1.7-.82-.88-1.23-2.47-1.23-4.76v-202.3c0-2.3.41-3.77,1.23-4.43.82-.65,2.18-.86,4.1-.6l28.67,3.87c1.91.26,3.28.83,4.1,1.7.82.88,1.23,2.46,1.23,4.76v72.42l18.84,2.54c1.91.26,3.28.83,4.1,1.7.82.88,1.23,2.47,1.23,4.76v26.67Z"/>
  <path class="cls-1" d="M626.14,287.18c0-2.3.41-3.77,1.23-4.43.82-.65,2.18-.86,4.1-.6l107.11,14.46c1.91.26,3.28.83,4.1,1.7.82.88,1.23,2.46,1.23,4.76v26.9c0,2.3-.41,3.78-1.23,4.43-.82.66-2.19.85-4.1.6l-34-4.59c0,4.45.48,8.84,1.43,13.18.95,4.35,2.73,8.49,5.32,12.44,2.59,3.95,6.07,7.6,10.44,10.95,4.37,3.35,9.96,6.25,16.79,8.7.54.23,1.19.47,1.94.72.75.26,1.47.7,2.15,1.33.68.63,1.26,1.47,1.74,2.53.48,1.06.72,2.51.72,4.35v25.52c0,2.76-.65,4.32-1.94,4.68-1.3.36-2.43.4-3.38.12-4.78-1.11-9.66-2.57-14.64-4.39-4.98-1.82-9.86-4.09-14.64-6.8-4.78-2.71-9.35-5.98-13.72-9.78-4.37-3.81-8.26-8.16-11.67-13.07-3.55,3.97-7.48,7.27-11.78,9.9-4.3,2.64-8.84,4.67-13.62,6.09-4.78,1.42-9.66,2.37-14.64,2.85-4.98.48-9.86.62-14.64.44-.96.03-2.08-.32-3.38-1.03-1.3-.71-1.95-2.45-1.95-5.21v-25.52c0-1.84.24-3.22.72-4.16.48-.93,1.06-1.62,1.74-2.06.68-.44,1.4-.69,2.15-.74.75-.05,1.4-.12,1.95-.2,6.69-.63,12.22-2.03,16.59-4.2,4.37-2.17,7.85-4.88,10.44-8.13,2.59-3.25,4.4-6.91,5.43-10.99,1.02-4.07,1.54-8.33,1.54-12.78l-34.2-4.62c-1.91-.26-3.28-.82-4.1-1.7-.82-.88-1.23-2.46-1.23-4.76v-26.9ZM715.79,525.57c-14.19-1.6-26.3-4.28-36.33-8.01-10.03-3.74-18.19-8.26-24.46-13.57-6.28-5.31-10.85-11.15-13.7-17.53-2.85-6.38-4.28-13.01-4.28-19.91s1.47-13.2,4.4-18.93c2.94-5.72,7.58-10.48,13.94-14.29,6.36-3.8,14.51-6.44,24.46-7.92,9.95-1.48,21.93-1.43,35.96.16,14.03,1.58,26.01,4.24,35.96,7.97,9.94,3.73,18.1,8.22,24.46,13.45,6.36,5.24,11.01,11.05,13.94,17.44,2.93,6.39,4.4,13.03,4.4,19.92s-1.43,13.21-4.28,18.94c-2.85,5.73-7.42,10.54-13.7,14.43-6.28,3.89-14.43,6.57-24.46,8.04-10.03,1.47-22.14,1.41-36.33-.2ZM719.27,489.48c5.13.48,10.06.71,14.8.69,4.74-.02,8.93-.4,12.58-1.12,3.65-.73,6.56-1.92,8.73-3.55,2.17-1.64,3.25-3.83,3.25-6.59s-1.09-5.12-3.25-7.09c-2.18-1.96-5.08-3.69-8.73-5.18-3.65-1.49-7.85-2.69-12.58-3.59-4.74-.9-9.67-1.59-14.8-2.07s-10.06-.71-14.8-.69c-4.74.02-8.93.43-12.58,1.24-3.65.81-6.56,1.99-8.73,3.55-2.18,1.56-3.26,3.72-3.26,6.48s1.08,5.16,3.26,7.2c2.17,2.04,5.08,3.77,8.73,5.18,3.65,1.41,7.84,2.57,12.58,3.47,4.74.9,9.67,1.59,14.8,2.07ZM825.61,376.64c0,2.3-.41,3.78-1.23,4.43-.82.66-2.19.85-4.1.6l-18.84-2.54v40.69c0,2.3-.41,3.78-1.23,4.43-.82.66-2.19.85-4.1.6l-28.67-3.87c-1.91-.26-3.28-.82-4.1-1.7-.82-.87-1.23-2.46-1.23-4.76v-108.97c0-2.3.41-3.77,1.23-4.43.82-.65,2.18-.85,4.1-.6l28.67,3.87c1.91.26,3.28.83,4.1,1.7.82.88,1.23,2.46,1.23,4.76v30.12l18.84,2.54c1.91.26,3.28.83,4.1,1.7.82.88,1.23,2.47,1.23,4.76v26.67Z"/>
  <path class="cls-1" d="M208.18,453.88c-.64,0-1.33-.05-2.05-.15l-172.84-23.34c-2.88-.39-5.09-1.39-6.59-2.99-1.59-1.7-2.36-4.19-2.36-7.62v-26.9c0-1.35,0-5.45,2.79-7.69,1.78-1.42,4.15-1.9,7.27-1.48l62.02,8.37v-24.64c0-1.35,0-5.45,2.79-7.69,1.78-1.42,4.15-1.9,7.27-1.48l28.67,3.87c2.88.39,5.1,1.4,6.59,2.99,1.59,1.7,2.36,4.19,2.36,7.62v25.77l63.14,8.52c2.88.39,5.1,1.4,6.59,2.99,1.59,1.7,2.36,4.19,2.36,7.62v26.9c0,1.35,0,5.45-2.79,7.69-1.36,1.09-3.08,1.63-5.22,1.63ZM32.9,421.75c.18.08.63.25,1.51.37l172.84,23.33c.21.03.39.05.55.06.02-.25.04-.56.04-.95v-26.9c0-1.12-.12-1.7-.2-1.95-.18-.08-.63-.25-1.51-.37l-70.38-9.5v-33.08c0-1.12-.12-1.7-.2-1.95-.18-.08-.63-.25-1.51-.37l-28.67-3.87c-.21-.03-.4-.05-.55-.06-.02.25-.04.56-.04.95v34.21l-71.5-9.65c-.21-.03-.39-.05-.55-.06-.02.25-.04.56-.04.95v26.9c0,1.11.12,1.7.2,1.95ZM207.58,415.56h0ZM31.94,391.97h0ZM32.88,391.11h0ZM104.02,366.53h0ZM195.22,383.45c-.35,0-.71-.02-1.07-.07l-2.36-.34c-8.82-2.13-17.26-4.99-25.09-8.48-7.83-3.49-15.03-7.41-21.4-11.65-6.42-4.27-12.12-8.91-16.93-13.77-3.24-3.27-6.07-6.54-8.45-9.78-2.35,2.49-5.1,4.91-8.21,7.21-4.91,3.64-10.75,6.78-17.35,9.36-6.5,2.53-13.76,4.53-21.57,5.92-7.81,1.4-16.26,1.98-25.12,1.73l-.45-.04-1.94-.26c-1.46-.2-2.87-.8-4.19-1.79-1.29-.96-2.33-2.26-3.1-3.84-.76-1.56-1.13-3.47-1.13-5.82v-26.9c0-4.13.5-6.45,1.72-7.99,2.02-2.57,5.66-2.67,6.85-2.7h.09s.09,0,.09,0c8.52.15,16.11-.8,22.55-2.8,6.33-1.96,11.66-4.74,15.85-8.25,4.11-3.45,7.23-7.63,9.29-12.44,2.09-4.89,3.15-10.33,3.15-16.16v-46.21c0-1.35,0-5.44,2.79-7.69,1.78-1.42,4.16-1.9,7.27-1.48l28.67,3.87c2.88.39,5.1,1.4,6.59,2.99,1.59,1.7,2.36,4.19,2.36,7.62v46.21c0,5.9,1.08,11.7,3.21,17.25,2.13,5.56,5.37,10.77,9.64,15.51,4.33,4.8,9.81,9.14,16.3,12.9,6.53,3.78,14.2,6.81,22.79,8.99l.16.04c2.96.88,4.86,2.09,6,3.83,1.05,1.63,1.5,4,1.5,7.91v26.9c0,2.43-.41,4.35-1.25,5.85-.91,1.62-2.15,2.81-3.69,3.55-1.16.55-2.35.83-3.55.83ZM193.54,374.86l1.57.21s.03-.05.05-.09h0s.18-.47.18-1.77v-26.9c0-1.79-.12-2.76-.2-3.24-.23-.12-.62-.28-1.24-.47-9.31-2.37-17.67-5.68-24.84-9.84-7.24-4.19-13.4-9.08-18.31-14.53-4.96-5.5-8.75-11.6-11.24-18.12-2.49-6.51-3.76-13.32-3.76-20.24v-46.21c0-1.12-.12-1.7-.2-1.95-.18-.08-.63-.25-1.51-.37l-28.67-3.87c-.21-.03-.4-.05-.55-.06-.02.25-.04.56-.04.95v46.21c0,6.97-1.28,13.52-3.82,19.45-2.57,6.02-6.48,11.25-11.6,15.55-5.05,4.23-11.36,7.54-18.75,9.83-7.26,2.25-15.68,3.32-25.06,3.17-.1,0-.19,0-.27.01-.05.52-.09,1.27-.09,2.33v26.9c0,1.49.24,2.07.29,2.17.18.38.38.65.59.81.23.17.34.21.34.21l1.69.23c8.2.21,16.01-.33,23.19-1.61,7.28-1.3,14.01-3.14,20-5.48,5.91-2.3,11.1-5.09,15.41-8.29,4.27-3.16,7.69-6.49,10.16-9.9l3.69-5.1,3.26,5.39c2.55,4.21,6.07,8.59,10.45,13.02,4.42,4.46,9.67,8.73,15.63,12.69,5.99,3.99,12.77,7.68,20.17,10.97,7.31,3.26,15.19,5.93,23.45,7.94ZM195.05,342.69h0ZM45.45,321.55h0Z"/>
  <path class="cls-1" d="M402.73,466.22c-.64,0-1.33-.05-2.05-.15l-172.84-23.34c-2.88-.39-5.09-1.39-6.59-2.99-1.59-1.7-2.36-4.19-2.36-7.62v-26.9c0-1.35,0-5.45,2.79-7.69,1.78-1.42,4.15-1.9,7.27-1.48l62.03,8.37v-24.64c0-1.35,0-5.45,2.79-7.69,1.78-1.42,4.15-1.9,7.27-1.48l28.67,3.87c2.88.39,5.1,1.39,6.59,2.99,1.59,1.71,2.36,4.2,2.36,7.62v25.77l63.14,8.52c2.88.39,5.1,1.39,6.59,2.99,1.59,1.71,2.36,4.2,2.36,7.62v26.9c0,1.35,0,5.45-2.79,7.69-1.37,1.09-3.09,1.63-5.22,1.63ZM227.45,434.08c.18.08.63.25,1.51.37l172.84,23.33c.21.03.39.05.55.06.02-.25.04-.56.04-.95v-26.9c0-1.12-.12-1.7-.2-1.96-.18-.08-.63-.25-1.51-.37l-70.38-9.5v-33.08c0-1.12-.12-1.7-.2-1.96-.18-.08-.63-.25-1.51-.37l-28.67-3.87c-.21-.03-.39-.05-.55-.06-.02.25-.04.56-.04.95v34.21l-71.5-9.65c-.21-.03-.39-.05-.55-.06-.02.25-.04.56-.04.95v26.9c0,1.11.12,1.7.2,1.95ZM402.13,427.9h0ZM226.49,404.31h0ZM389.77,395.79c-.36,0-.71-.02-1.07-.07l-2.36-.34c-8.82-2.13-17.26-4.99-25.09-8.48-7.83-3.49-15.03-7.41-21.4-11.65-6.42-4.27-12.12-8.91-16.93-13.77-3.24-3.27-6.07-6.54-8.45-9.78-2.35,2.49-5.1,4.91-8.21,7.21-4.91,3.64-10.75,6.79-17.35,9.36-6.5,2.53-13.76,4.53-21.57,5.92-7.81,1.4-16.26,1.98-25.12,1.73l-.45-.04-1.94-.26c-1.47-.2-2.88-.8-4.2-1.79-1.29-.96-2.33-2.25-3.1-3.84-.76-1.56-1.13-3.47-1.13-5.83v-26.9c0-4.13.5-6.44,1.71-7.99,2.02-2.58,5.66-2.67,6.86-2.71h.09s.09,0,.09,0c8.5.14,16.11-.81,22.55-2.8,6.33-1.96,11.67-4.74,15.86-8.25,4.11-3.45,7.23-7.63,9.29-12.43,2.09-4.89,3.14-10.33,3.14-16.16v-46.21c0-1.35,0-5.45,2.79-7.69,1.78-1.42,4.16-1.9,7.27-1.48l28.67,3.87c2.88.39,5.1,1.39,6.59,2.99,1.59,1.71,2.36,4.2,2.36,7.62v46.21c0,5.9,1.08,11.7,3.21,17.25,2.13,5.56,5.37,10.77,9.65,15.51,4.33,4.8,9.81,9.14,16.3,12.9,6.53,3.78,14.19,6.81,22.79,8.99l.16.04c2.96.88,4.86,2.09,6,3.83,1.05,1.63,1.5,4,1.5,7.91v26.9c0,2.43-.41,4.35-1.25,5.85-.91,1.63-2.15,2.82-3.69,3.55-1.16.55-2.35.83-3.55.83ZM388.09,387.2l1.57.21s.03-.05.05-.09h0s.18-.47.18-1.77v-26.9c0-1.79-.12-2.76-.2-3.24-.23-.12-.62-.28-1.24-.47-9.31-2.37-17.67-5.68-24.84-9.84-7.24-4.2-13.4-9.09-18.31-14.53-4.97-5.5-8.75-11.6-11.24-18.11-2.49-6.51-3.76-13.32-3.76-20.24v-46.21c0-1.11-.12-1.7-.2-1.96-.18-.08-.63-.25-1.51-.37l-28.67-3.87c-.21-.03-.39-.05-.55-.06-.02.25-.04.56-.04.95v46.21c0,6.97-1.28,13.51-3.82,19.45-2.58,6.02-6.48,11.25-11.6,15.55-5.05,4.23-11.36,7.54-18.75,9.84-7.26,2.25-15.69,3.31-25.06,3.17-.1,0-.19,0-.27.01-.05.52-.09,1.27-.09,2.33v26.9c0,1.49.24,2.07.29,2.17.18.38.38.65.59.8.23.17.35.21.35.21l1.69.23c8.21.21,16.01-.33,23.2-1.61,7.28-1.3,14.01-3.14,20-5.48,5.91-2.3,11.09-5.09,15.41-8.29,4.27-3.16,7.69-6.49,10.16-9.9l3.69-5.1,3.26,5.39c2.55,4.21,6.07,8.59,10.45,13.02,4.42,4.46,9.67,8.73,15.63,12.69,5.99,3.98,12.77,7.68,20.17,10.97,7.31,3.26,15.19,5.93,23.45,7.94ZM389.6,355.03h0ZM299.52,238.92h0Z"/>
  <path class="cls-1" d="M585.86,521.28c-.65,0-1.33-.05-2.06-.15l-28.67-3.87c-2.88-.39-5.09-1.39-6.59-2.99-1.59-1.7-2.36-4.19-2.36-7.62v-202.3c0-1.35,0-5.45,2.79-7.69,1.78-1.42,4.15-1.9,7.27-1.48l28.67,3.87c2.88.39,5.1,1.4,6.59,2.99,1.59,1.7,2.35,4.19,2.35,7.62v68.76l15.22,2.06c2.88.39,5.1,1.39,6.59,2.99,1.59,1.7,2.36,4.19,2.36,7.62v26.67c0,1.35,0,5.45-2.8,7.69-1.76,1.41-4.13,1.89-7.26,1.48l-14.11-1.91v86.95c0,1.35,0,5.45-2.79,7.69-1.36,1.09-3.08,1.63-5.22,1.63ZM585.33,513.75h0ZM554.74,508.61c.18.08.63.25,1.51.37l28.67,3.87c.21.03.39.05.55.06.02-.25.04-.56.04-.95v-96.51l23.58,3.18c.21.03.4.05.55.06.02-.25.04-.56.04-.95v-26.67c0-1.11-.13-1.7-.2-1.95-.18-.08-.63-.25-1.51-.37l-22.46-3.03v-76.07c0-1.11-.12-1.7-.2-1.95-.18-.08-.63-.25-1.51-.37l-28.67-3.87c-.21-.03-.39-.05-.55-.06-.02.25-.04.56-.04.95v202.3c0,1.11.12,1.7.2,1.95ZM511.92,499.61c-1.56,0-3.2-.12-4.91-.35l-66.76-9.01c-8.46-1.14-14.97-4.6-19.34-10.27-4.3-5.59-6.4-13.51-6.4-24.22v-169.2c0-1.35,0-5.45,2.79-7.69,1.78-1.42,4.15-1.9,7.27-1.48l100.35,13.55c2.88.39,5.1,1.39,6.59,2.99,1.59,1.7,2.36,4.19,2.36,7.62v169.2c0,10.88-2.19,18.44-6.71,23.08-3.74,3.84-8.85,5.77-15.23,5.77ZM422.9,285.63c-.02.25-.04.56-.04.95v169.2c0,8.67,1.57,15.1,4.66,19.12,3.02,3.92,7.54,6.24,13.84,7.09l66.76,9.01c6.03.81,10.3-.16,13.04-2.97,2.84-2.93,4.35-8.9,4.35-17.26v-169.2c0-1.12-.13-1.7-.2-1.95-.18-.08-.63-.25-1.51-.37l-100.35-13.55c-.21-.03-.39-.05-.55-.06ZM423.04,284.79h0ZM487.9,460.46c-.69,0-1.42-.05-2.19-.16l-24.16-3.26c-3.48-.47-6.01-1.74-7.51-3.79-1.39-1.88-2.04-4.59-2.04-8.51v-128.69l44.4,5.99v127.56c0,4.15-.72,6.79-2.34,8.53-1.42,1.54-3.48,2.32-6.15,2.32ZM460.74,448.24c.17.1.7.35,1.92.52l24.16,3.26c.44.06.78.08,1.03.08.08-.48.17-1.27.17-2.5v-120.26l-27.69-3.74v119.13c0,2.3.29,3.23.4,3.5Z"/>
  <path class="cls-1" d="M736.28,531c-6.45,0-13.45-.42-20.96-1.27-14.45-1.63-27.01-4.41-37.32-8.25-10.44-3.89-19.09-8.7-25.7-14.29-6.73-5.69-11.72-12.09-14.82-19.01-3.08-6.88-4.64-14.16-4.64-21.61s1.64-14.54,4.86-20.83c3.29-6.4,8.51-11.77,15.52-15.97,6.8-4.06,15.55-6.91,25.99-8.47,10.26-1.53,22.72-1.48,37.05.13,14.3,1.62,26.73,4.38,36.96,8.21,10.34,3.88,18.97,8.64,25.65,14.14,6.82,5.62,11.9,11.99,15.08,18.92,3.18,6.92,4.79,14.2,4.79,21.67s-1.59,14.5-4.72,20.8c-3.2,6.41-8.32,11.83-15.24,16.12-6.74,4.17-15.5,7.07-26.06,8.62-4.98.73-10.47,1.09-16.45,1.09ZM695.67,428.52c-5.56,0-10.65.34-15.23,1.02-9.36,1.39-17.08,3.88-22.94,7.38-5.65,3.38-9.81,7.62-12.37,12.61-2.62,5.1-3.94,10.83-3.94,17.02s1.32,12.4,3.92,18.2c2.58,5.77,6.81,11.17,12.58,16.04,5.87,4.97,13.69,9.29,23.23,12.84,9.67,3.6,21.56,6.22,35.34,7.78,13.76,1.56,25.62,1.63,35.26.21,9.41-1.38,17.11-3.89,22.87-7.46,5.58-3.46,9.67-7.74,12.16-12.74,2.55-5.13,3.84-10.88,3.84-17.08s-1.35-12.37-4.02-18.18c-2.66-5.78-6.97-11.15-12.81-15.96-5.97-4.92-13.8-9.21-23.27-12.77-9.58-3.59-21.35-6.19-34.96-7.73-7.07-.8-13.63-1.2-19.65-1.2ZM733.61,494.35c-4.71,0-9.66-.24-14.73-.71h0c-5.23-.49-10.34-1.2-15.19-2.13-4.95-.95-9.43-2.18-13.3-3.68-4.14-1.6-7.54-3.64-10.09-6.04-2.99-2.8-4.57-6.35-4.57-10.24,0-4.11,1.73-7.53,5-9.87,2.62-1.88,6.07-3.31,10.26-4.24,3.91-.87,8.44-1.32,13.46-1.34,4.85,0,9.98.22,15.2.71,5.24.49,10.35,1.2,15.19,2.13,4.99.95,9.49,2.24,13.38,3.83,4.07,1.66,7.42,3.66,9.95,5.95,3.03,2.75,4.63,6.27,4.63,10.19s-1.7,7.5-4.91,9.93c-2.67,2.01-6.18,3.46-10.43,4.31-3.92.78-8.42,1.19-13.39,1.21-.16,0-.32,0-.48,0ZM704.94,464.46c-.15,0-.3,0-.45,0-4.42.02-8.35.4-11.69,1.14-3.08.68-5.5,1.64-7.2,2.87-1.08.77-1.52,1.67-1.52,3.09,0,1.59.62,2.91,1.94,4.15,1.77,1.66,4.25,3.12,7.38,4.33,3.4,1.32,7.39,2.42,11.85,3.27,4.59.87,9.44,1.55,14.4,2.02h0c4.97.46,9.84.67,14.4.68,4.43-.02,8.39-.37,11.78-1.04,3.01-.6,5.38-1.54,7.04-2.79,1.11-.84,1.59-1.81,1.59-3.25,0-1.58-.58-2.81-1.88-3.99-1.8-1.63-4.33-3.11-7.51-4.41-3.38-1.38-7.34-2.51-11.78-3.35-4.58-.87-9.43-1.55-14.41-2.02-4.8-.45-9.49-.68-13.95-.68ZM797.61,429.13c-.65,0-1.33-.05-2.06-.15l-28.67-3.87c-2.92-.39-5.08-1.37-6.59-2.99-1.58-1.69-2.35-4.18-2.35-7.61v-108.97c0-1.35,0-5.45,2.79-7.69,1.78-1.42,4.15-1.9,7.27-1.48l28.67,3.87c2.88.39,5.1,1.39,6.59,2.99,1.59,1.71,2.36,4.2,2.36,7.62v26.46l15.22,2.06c2.88.39,5.09,1.39,6.59,2.99,1.59,1.71,2.36,4.2,2.36,7.62v26.67c0,1.35,0,5.46-2.8,7.7-1.76,1.41-4.14,1.89-7.26,1.47l-14.11-1.9v35.91c0,1.35,0,5.46-2.8,7.7-1.35,1.08-3.07,1.62-5.21,1.62ZM766.5,416.46c.18.08.63.25,1.51.37l28.67,3.87c.21.03.4.05.55.06.02-.25.04-.56.04-.95v-45.47l23.58,3.18c.21.03.39.05.55.06.02-.25.04-.56.04-.95v-26.67c0-1.11-.12-1.7-.2-1.96-.18-.08-.63-.25-1.51-.37l-22.46-3.03v-33.77c0-1.12-.13-1.7-.2-1.95-.18-.08-.63-.25-1.51-.37l-28.67-3.87c-.21-.03-.39-.05-.55-.06-.02.25-.04.56-.04.95v108.97c0,1.11.12,1.7.2,1.95ZM822.19,377.57h0ZM741.15,419.3c-.84,0-1.64-.11-2.4-.32-4.89-1.14-9.95-2.65-15.03-4.51-5.18-1.89-10.32-4.28-15.27-7.09-5-2.84-9.84-6.29-14.4-10.27-3.38-2.94-6.51-6.23-9.35-9.8-2.86,2.7-5.93,5.06-9.17,7.04-4.58,2.81-9.5,5.01-14.61,6.54-5.02,1.49-10.21,2.51-15.44,3.01-5.1.49-10.18.64-15.09.46h-.05c-1.67,0-3.4-.51-5.29-1.55-2.72-1.49-4.11-4.47-4.11-8.86v-25.52c0-2.54.38-4.52,1.18-6.07.81-1.57,1.88-2.8,3.17-3.65,1.29-.84,2.68-1.31,4.14-1.41.64-.04,1.17-.1,1.62-.16l.23-.03c6.14-.58,11.22-1.85,15.12-3.78,3.8-1.89,6.84-4.24,9.04-6.99,2.21-2.77,3.77-5.93,4.64-9.4.66-2.61,1.09-5.33,1.28-8.13l-30.45-4.11c-2.93-.39-5.08-1.37-6.59-2.99-1.58-1.69-2.35-4.18-2.35-7.61v-26.9c0-1.35,0-5.45,2.79-7.69,1.78-1.42,4.16-1.91,7.27-1.48l107.11,14.46c2.88.39,5.09,1.39,6.59,2.99,1.59,1.71,2.36,4.2,2.36,7.62v26.9c0,1.35,0,5.46-2.79,7.69-1.76,1.41-4.14,1.89-7.26,1.48l-29.06-3.92c.21,2.51.59,5.02,1.13,7.48.84,3.83,2.43,7.54,4.74,11.05,2.32,3.54,5.52,6.88,9.5,9.93,4.02,3.08,9.29,5.8,15.66,8.09l.21.08c.46.19,1.02.4,1.66.61,1.31.45,2.53,1.19,3.64,2.2,1.11,1.02,2.02,2.33,2.73,3.89.74,1.64,1.09,3.62,1.09,6.07v25.52c0,6.04-2.72,8.07-5,8.7-1.09.31-2.14.46-3.15.46ZM685.53,374.17l3.02,4.34c3.2,4.6,6.89,8.74,10.99,12.3,4.14,3.61,8.53,6.74,13.04,9.3,4.55,2.59,9.27,4.78,14.01,6.51,4.8,1.75,9.56,3.18,14.15,4.24l.18.04c.02-.21.03-.47.03-.77v-25.52c0-1.68-.24-2.4-.35-2.64-.3-.67-.58-1.01-.77-1.18-.23-.21-.47-.37-.66-.44-.8-.27-1.51-.53-2.11-.78-7.15-2.57-13.14-5.7-17.82-9.28-4.73-3.62-8.56-7.65-11.4-11.98-2.86-4.36-4.85-9.02-5.91-13.84-1.01-4.61-1.53-9.35-1.53-14.08v-4.78l38.73,5.23c.21.03.39.05.55.06.02-.25.04-.56.04-.95v-26.9c0-1.11-.12-1.7-.2-1.95-.18-.08-.63-.25-1.51-.37l-107.11-14.46c-.21-.03-.39-.05-.55-.06-.02.25-.04.56-.04.95v26.9c0,1.11.12,1.7.2,1.95.18.08.63.25,1.51.37l37.82,5.11v3.65c0,4.77-.56,9.41-1.66,13.8-1.16,4.63-3.25,8.87-6.21,12.58-2.97,3.72-6.95,6.83-11.85,9.27-4.8,2.38-10.84,3.93-17.95,4.61-.64.09-1.37.16-2.17.22,0,0-.07.03-.15.08h0s-.12.12-.3.47c0,0-.26.55-.26,2.25v25.52c0,.94.1,1.48.17,1.74.61.3.89.32.89.32h.13s.11,0,.11,0c4.57.18,9.31.04,14.08-.42,4.69-.45,9.35-1.36,13.85-2.7,4.41-1.32,8.66-3.22,12.62-5.65,3.93-2.41,7.58-5.48,10.85-9.13l3.53-3.94ZM629.07,395.48h0s0,0,0,0ZM739.46,300.97h0ZM629.55,286.25h0ZM630.5,285.39h0s0,0,0,0Z"/>
  <g>
    <path class="cls-1" d="M506.98,190.03c-.69.06-1.41.05-2.17-.03l-86.05-9.73s-.03,0-.04,0c-5.74-.77-9.03-4.92-9.26-11.7,0-.02,0-.05,0-.07l-.24-54.97c0-1.33,1.02-2.49,2.29-2.59h0c1.27-.11,2.31.89,2.31,2.22l.24,54.94c.16,4.49,1.98,6.91,5.55,7.4l86,9.72c1.52.15,2.66-.1,3.36-.77.99-.93,1.24-2.72,1.27-4.07l-.48-119.94c-.14-3.7-1.92-5.64-5.58-6.08l-85.96-9.71c-1.22-.08-2.85.03-3.77.96-.79.8-.93,2.1-.91,3.05,0,.01,0,.03,0,.04l.11,24.97c0,1.33-1.02,2.49-2.29,2.59h0c-1.27.11-2.31-.89-2.31-2.22l-.11-24.96c-.05-2.81.8-5.18,2.46-6.85,1.24-1.25,3.55-2.68,7.51-2.41.03,0,.07,0,.1,0l86.03,9.72c5.81.71,9.12,4.4,9.34,10.38,0,.03,0,.05,0,.08l.48,120.01s0,.04,0,.06c-.07,3.38-1.08,6.1-2.94,7.84-1.32,1.24-2.97,1.95-4.93,2.11Z"/>
    <path class="cls-1" d="M411.45,90.81h0c-1.27.11-2.31-.89-2.31-2.22l-.02-4.85c0-1.33,1.02-2.49,2.29-2.59h0c1.27-.11,2.31.89,2.31,2.22l.02,4.85c0,1.33-1.02,2.49-2.29,2.59Z"/>
  </g>
  <path class="cls-1" d="M459.83,109.54l-12.89-1.46c-.6-.07-1.11-.31-1.51-.72-.4-.41-.61-.9-.61-1.45s.2-.99.6-1.32c.4-.32.9-.45,1.5-.38l29.81,3.37c.6.07,1.11.31,1.54.73.42.42.64.9.64,1.46s-.21.99-.63,1.31c-.42.32-.93.45-1.53.38l-12.64-1.43.03,6.93,17.4,1.97c.6.07,1.11.32,1.54.76.42.44.64.93.64,1.49,0,.52-.21.96-.63,1.31-.42.36-.93.5-1.53.44l-14.99-1.69,15.19,18.46c.36.48.52.98.46,1.49-.06.51-.31.93-.75,1.25-.48.28-1,.36-1.56.24-.56-.12-1.05-.4-1.45-.86l-16.46-20.04-16.48,16.32c-.4.36-.88.54-1.44.53-.56,0-1.06-.2-1.51-.59-.44-.42-.7-.89-.76-1.42-.06-.52.09-.99.45-1.39l15.16-15.03-15.17-1.71c-.56-.06-1.05-.32-1.48-.78-.42-.45-.64-.94-.64-1.46,0-.55.21-1,.63-1.34.42-.34.91-.48,1.47-.42l17.64,1.99-.03-6.93ZM441.76,93.09l2.87-4.83c.28-.45.69-.72,1.23-.8.54-.09,1.07.01,1.6.29.56.36.93.8,1.09,1.31.16.52.12,1.02-.11,1.51l-1.25,2.08,11.74,1.33c.56.06,1.06.31,1.51.75.44.44.67.93.67,1.49,0,.52-.22.95-.66,1.28-.44.34-.94.48-1.5.41l-5.24-.59.02,4.05c0,.52-.21.95-.63,1.29-.42.34-.93.48-1.53.41-.56-.06-1.05-.31-1.48-.75-.42-.44-.64-.91-.64-1.43l-.02-4.05-5.78-.65c-.36-.04-.68-.15-.96-.33-.56-.32-.93-.74-1.09-1.26-.16-.52-.1-1.02.17-1.5ZM463.26,95.52l2.87-4.83c.28-.45.7-.72,1.26-.8.56-.08,1.1.01,1.63.29.56.36.93.8,1.09,1.31.16.52.1,1.02-.17,1.5l-1.26,2.08,11.92,1.35c.6.07,1.12.32,1.54.76.42.44.64.93.64,1.49,0,.52-.21.95-.63,1.29-.42.34-.93.48-1.53.41l-5.84-.66.02,4.05c0,.52-.21.95-.63,1.29-.42.34-.93.48-1.53.41-.56-.06-1.06-.31-1.51-.75-.44-.44-.67-.92-.67-1.43l-.02-4.05-5.3-.6c-.36-.04-.68-.15-.96-.33-.52-.32-.88-.74-1.06-1.26-.18-.52-.14-1.02.14-1.51Z"/>
  <path class="cls-1" d="M503.44,180.54c-.3.03-.6.02-.91-.02l-81.25-10.15c-2.48-.37-4.41-2.61-4.41-5.09l-.06-111.35c0-1.3.52-2.55,1.43-3.44.9-.89,2.07-1.32,3.29-1.23l80.71,8.66s.06,0,.09.01c2.54.55,4.2,2.48,4.33,5.03,0,.02,0,.03,0,.05l.63,113.19c0,1.27-.48,2.42-1.36,3.25-.68.64-1.56,1.02-2.5,1.1ZM420.87,51.2c-.53.04-1.03.27-1.43.66-.5.49-.79,1.19-.78,1.92l.06,111.35c0,1.56,1.34,3.07,2.93,3.31l81.23,10.15h0c.73.09,1.39-.11,1.87-.56.44-.41.68-1.01.68-1.69l-.63-113.16c-.1-1.7-1.19-2.94-2.94-3.34l-80.63-8.65c-.12,0-.24,0-.36,0Z"/>
  <path class="cls-1" d="M524.5,184.69c-.99.08-1.91-.51-2.21-1.53-.37-1.24.31-2.64,1.52-3.13l21.3-8.52c1.65-.84,3.8-2.53,3.91-7.31l-.48-119.98c-.02-3.32-2.14-5.64-5.55-6.04l-87.89-8.35c-3.2-.18-4.11.17-5.26.62-1.22.47-2.5-.15-2.86-1.4-.36-1.25.33-2.64,1.55-3.11,1.76-.68,3.3-1.15,7.21-.92.03,0,.05,0,.08,0l87.95,8.36s.03,0,.04,0c5.55.64,9.3,4.84,9.34,10.46l.48,120.02s0,.04,0,.06c-.14,7.14-3.82,10.45-6.88,11.97-.06.03-.12.06-.18.08l-21.4,8.56c-.22.09-.44.14-.67.16Z"/>
  <path class="cls-1" d="M536.82,173.27c-.26.02-.52-.1-.66-.35-.2-.36-.06-.84.3-1.08,1.09-.71,2.54-2.17,2.51-6.71l-.46-115.44c-.15-4.08-2.21-6.69-5.67-7.14l-88.67-8.91c-2.44-.2-4.2-.02-5.36.57-.38.19-.81.04-.97-.35-.16-.38.02-.85.4-1.04,1.44-.73,3.4-.96,6.16-.73l88.71,8.91c4.15.53,6.71,3.73,6.88,8.54l.46,115.47c.02,4.03-1.05,6.69-3.28,8.14-.11.07-.23.11-.35.12Z"/>
  <g>
    <path class="cls-1" d="M398.55,167.06c-.69.06-1.41.05-2.17-.03l-86.05-9.73s-.03,0-.04,0c-5.74-.77-9.03-4.92-9.26-11.7,0-.02,0-.05,0-.07l-.24-54.97c0-1.33,1.02-2.49,2.29-2.59h0c1.27-.11,2.31.89,2.31,2.22l.24,54.93c.16,4.49,1.98,6.91,5.55,7.4l86.01,9.72c1.52.15,2.66-.11,3.36-.77.99-.93,1.24-2.72,1.27-4.07l-.48-119.94c-.14-3.7-1.92-5.64-5.58-6.08l-85.96-9.71c-1.22-.07-2.85.03-3.77.96-.79.8-.93,2.1-.91,3.05,0,.01,0,.03,0,.04l.11,24.97c0,1.33-1.02,2.49-2.29,2.59h0c-1.27.11-2.31-.89-2.31-2.22l-.11-24.96c-.05-2.81.8-5.17,2.46-6.85,1.24-1.25,3.55-2.68,7.51-2.41.03,0,.07,0,.1,0l86.03,9.72c5.81.71,9.12,4.4,9.34,10.38,0,.03,0,.05,0,.08l.48,120.01s0,.04,0,.06c-.07,3.38-1.08,6.1-2.94,7.84-1.32,1.24-2.97,1.95-4.93,2.11Z"/>
    <path class="cls-1" d="M303.03,67.84h0c-1.27.11-2.31-.89-2.31-2.22l-.02-4.85c0-1.33,1.02-2.49,2.29-2.59h0c1.27-.11,2.31.89,2.31,2.22l.02,4.85c0,1.33-1.02,2.49-2.29,2.59Z"/>
  </g>
  <path class="cls-1" d="M351.4,86.57l-12.89-1.46c-.6-.07-1.11-.31-1.51-.72-.4-.41-.61-.9-.61-1.45s.2-.99.6-1.32c.4-.32.9-.45,1.5-.38l29.81,3.37c.6.07,1.11.31,1.54.73.42.42.64.9.64,1.46s-.21.99-.63,1.31c-.42.32-.93.45-1.53.38l-12.64-1.43.03,6.93,17.4,1.97c.6.07,1.11.32,1.54.76.42.44.64.93.64,1.49,0,.52-.21.96-.63,1.31-.42.36-.93.5-1.53.44l-14.99-1.69,15.19,18.46c.36.48.52.98.46,1.49-.06.51-.31.93-.75,1.25-.48.28-1,.36-1.56.24-.56-.12-1.05-.4-1.45-.86l-16.46-20.04-16.48,16.32c-.4.36-.88.54-1.44.53-.56,0-1.06-.2-1.51-.59-.44-.42-.7-.89-.76-1.42-.06-.52.09-.99.45-1.39l15.16-15.03-15.17-1.71c-.56-.06-1.05-.32-1.48-.78-.42-.45-.64-.94-.64-1.46,0-.55.21-1,.63-1.34.42-.34.91-.48,1.47-.42l17.64,1.99-.03-6.93ZM333.34,70.12l2.87-4.83c.28-.45.69-.72,1.23-.8.54-.09,1.07.01,1.6.29.56.36.93.8,1.09,1.31.16.52.12,1.02-.11,1.51l-1.25,2.08,11.74,1.33c.56.06,1.06.31,1.51.75.44.44.67.93.67,1.49,0,.52-.22.95-.66,1.28-.44.34-.94.48-1.5.41l-5.24-.59.02,4.05c0,.52-.21.95-.63,1.29-.42.34-.93.48-1.53.41-.56-.06-1.05-.31-1.48-.75-.42-.44-.64-.91-.64-1.43l-.02-4.05-5.78-.65c-.36-.04-.68-.15-.96-.33-.56-.32-.93-.74-1.09-1.26-.16-.52-.1-1.02.17-1.5ZM354.83,72.55l2.87-4.83c.28-.45.7-.72,1.26-.8.56-.08,1.1.01,1.63.29.56.36.93.8,1.09,1.31.16.52.1,1.02-.17,1.5l-1.26,2.08,11.92,1.35c.6.07,1.12.32,1.54.76.42.44.64.93.64,1.49,0,.52-.21.95-.63,1.29-.42.34-.93.48-1.53.41l-5.84-.66.02,4.05c0,.52-.21.95-.63,1.29-.42.34-.93.48-1.53.41-.56-.06-1.06-.31-1.51-.75-.44-.44-.67-.92-.67-1.43l-.02-4.05-5.3-.6c-.36-.04-.68-.15-.96-.33-.52-.32-.88-.74-1.06-1.26-.18-.52-.14-1.02.14-1.51Z"/>
  <path class="cls-1" d="M395.01,157.57c-.3.03-.6.02-.91-.02h0l-81.25-10.15c-2.48-.37-4.41-2.6-4.41-5.09l-.06-111.35c0-1.3.52-2.55,1.43-3.44.9-.89,2.07-1.32,3.29-1.23l80.71,8.66s.06,0,.09.01c2.54.55,4.2,2.48,4.34,5.03,0,.02,0,.03,0,.05l.63,113.19c0,1.27-.48,2.42-1.36,3.25-.68.64-1.56,1.02-2.5,1.1ZM394.46,155.62c.73.09,1.39-.11,1.87-.56.44-.41.68-1.01.68-1.69l-.63-113.16c-.1-1.7-1.19-2.94-2.94-3.34l-80.63-8.65c-.65-.05-1.29.19-1.78.67-.5.49-.79,1.19-.78,1.92l.06,111.35c0,1.56,1.34,3.07,2.93,3.31l81.23,10.15Z"/>
  <path class="cls-1" d="M436.6,27.89c-1.27.11-2.31-.88-2.32-2.21v-2.34c-.03-3.42-1.7-5.32-5.11-5.81l-83.56-9.62c-3.03-.23-3.89.08-4.98.49-1.23.45-2.49-.2-2.83-1.45-.34-1.25.38-2.64,1.6-3.09,1.7-.63,3.19-1.04,6.93-.75.03,0,.05,0,.08,0l83.62,9.62s.04,0,.05,0c5.55.78,8.76,4.51,8.79,10.21v2.34c.02,1.33-1,2.49-2.27,2.6Z"/>
  <path class="cls-1" d="M425.45,32.37c-.41.03-.74-.29-.75-.71l-.02-3.32c-.02-3.95-1.89-6.4-5.25-6.9l-84.3-10.15c-2.32-.24-3.99-.09-5.1.44-.38.19-.81.02-.96-.37s.04-.85.42-1.04c1.39-.67,3.26-.86,5.9-.59l84.33,10.15c4.07.61,6.41,3.64,6.44,8.32l.02,3.32c0,.43-.33.8-.74.84Z"/>
</svg>