<?xml version="1.0" encoding="UTF-8"?>
<svg id="Layer_1" data-name="Layer 1" xmlns="http://www.w3.org/2000/svg" viewBox="0 0 883.91 321.7">
  <defs>
    <style>
      .cls-1 {
        fill: #231f20;
      }
    </style>
  </defs>
  <g>
    <path class="cls-1" d="M37.55,172.96c-.64,0-1.29-.13-1.91-.42-2.31-1.06-3.33-3.79-2.27-6.1.18-.39,18.19-39.8,36.3-78.71,10.64-22.86,19.23-41.08,25.54-54.15,13.12-27.19,13.41-27.19,16.93-27.19s3.8,0,17.02,27.18c6.36,13.07,15.02,31.29,25.75,54.15,18.26,38.9,36.42,78.31,36.6,78.7,1.06,2.31.05,5.05-2.26,6.11-2.31,1.06-5.05.05-6.11-2.25-24.04-52.18-59.58-128.26-70.99-150.26-11.33,22.02-46.57,98.08-70.41,150.25-.77,1.69-2.44,2.69-4.19,2.69Z"/>
    <path class="cls-1" d="M111.81,300.64c-2.54,0-4.61-2.06-4.61-4.61v-130.54c0-2.54,2.06-4.61,4.61-4.61s4.61,2.06,4.61,4.61v130.54c0,2.54-2.06,4.61-4.61,4.61Z"/>
    <path class="cls-1" d="M111.81,300.64c-74.3,0-101.87-29.78-103.01-31.05-1.7-1.89-1.54-4.81.35-6.5,1.89-1.7,4.79-1.54,6.49.34.36.39,26.54,28.01,96.16,28.01s96.55-27.82,96.82-28.1c1.76-1.83,4.67-1.9,6.51-.14,1.83,1.75,1.91,4.65.17,6.49-1.2,1.26-30.17,30.96-103.5,30.96Z"/>
  </g>
  <g>
    <path class="cls-1" d="M270.01,172.96c-.64,0-1.29-.13-1.91-.42-2.31-1.06-3.33-3.79-2.27-6.1.18-.39,18.19-39.8,36.3-78.71,10.64-22.86,19.23-41.08,25.54-54.15,13.12-27.19,13.41-27.19,16.93-27.19s3.8,0,17.02,27.18c6.36,13.07,15.02,31.29,25.75,54.15,18.26,38.9,36.42,78.31,36.6,78.7,1.06,2.31.05,5.05-2.26,6.11-2.31,1.06-5.05.05-6.11-2.25-24.04-52.18-59.58-128.26-70.99-150.26-11.33,22.02-46.57,98.08-70.41,150.25-.77,1.69-2.44,2.69-4.19,2.69Z"/>
    <path class="cls-1" d="M344.26,300.64c-2.54,0-4.61-2.06-4.61-4.61v-130.54c0-2.54,2.06-4.61,4.61-4.61s4.61,2.06,4.61,4.61v130.54c0,2.54-2.06,4.61-4.61,4.61Z"/>
    <path class="cls-1" d="M344.26,300.64c-74.3,0-101.87-29.78-103.01-31.05-1.7-1.89-1.54-4.81.35-6.5,1.89-1.7,4.79-1.54,6.49.34.36.39,26.54,28.01,96.16,28.01s96.55-27.82,96.82-28.1c1.76-1.83,4.67-1.9,6.51-.14,1.83,1.75,1.91,4.65.17,6.49-1.2,1.26-30.17,30.96-103.5,30.96Z"/>
  </g>
  <g>
    <path class="cls-1" d="M579.7,298.13h-89.62c-2.54,0-4.61-2.06-4.61-4.61V23.17c0-2.54,2.06-4.61,4.61-4.61h89.62c2.54,0,4.61,2.06,4.61,4.61v270.35c0,2.54-2.06,4.61-4.61,4.61ZM494.69,288.92h80.41V27.77h-80.41v261.14Z"/>
    <path class="cls-1" d="M619.09,315.3c-2.54,0-4.61-2.06-4.61-4.61V11c0-2.54,2.06-4.61,4.61-4.61s4.61,2.06,4.61,4.61v299.7c0,2.54-2.06,4.61-4.61,4.61Z"/>
    <path class="cls-1" d="M656.72,152.38h-37.62c-2.54,0-4.61-2.06-4.61-4.61s2.06-4.61,4.61-4.61h37.62c2.54,0,4.61,2.06,4.61,4.61s-2.06,4.61-4.61,4.61Z"/>
  </g>
  <g>
    <path class="cls-1" d="M793.91,171.36c-1.91,0-3.69-1.19-4.35-3.1-15.55-44.75-38.13-108.87-47.22-132.81-9.02,23.95-31.42,88.06-46.84,132.8-.83,2.4-3.44,3.68-5.86,2.85-2.4-.83-3.68-3.45-2.85-5.86.13-.36,12.48-36.2,24.91-71.59,7.3-20.79,13.2-37.36,17.52-49.25,2.58-7.08,4.62-12.57,6.08-16.31,2.65-6.79,3.54-9.08,7.02-9.08s4.37,2.29,7.03,9.07c1.47,3.74,3.53,9.23,6.13,16.31,4.36,11.89,10.31,28.46,17.67,49.25,12.53,35.39,24.99,71.23,25.11,71.59.84,2.4-.44,5.03-2.84,5.86-.5.17-1.01.26-1.51.26Z"/>
    <path class="cls-1" d="M830.17,185.49c-2.54,0-4.61-2.06-4.61-4.61V13.75c0-2.54,2.06-4.61,4.61-4.61s4.61,2.06,4.61,4.61v167.13c0,2.54-2.06,4.61-4.61,4.61Z"/>
    <path class="cls-1" d="M799.16,28.22h-113.29c-2.54,0-4.61-2.06-4.61-4.61s2.06-4.61,4.61-4.61h113.29c2.54,0,4.61,2.06,4.61,4.61s-2.06,4.61-4.61,4.61Z"/>
    <path class="cls-1" d="M796.41,308.84h-43.25c-31.35,0-56.86-25.51-56.86-56.86s25.51-56.86,56.86-56.86h43.25c31.35,0,56.86,25.51,56.86,56.86s-25.51,56.86-56.86,56.86ZM753.16,204.33c-26.27,0-47.65,21.38-47.65,47.65s21.38,47.65,47.65,47.65h43.25c26.27,0,47.65-21.38,47.65-47.65s-21.38-47.65-47.65-47.65h-43.25Z"/>
    <path d="M864.14,26.34c-10.46,5.08-26.25,16.19-26.25,16.19,0,0,5.67-8.6,16.2-14.83,5.9-3.49,14.11-5.69,20.23-6.96-5.19-.78-19.55-2.14-29.97,4.37-12.94,8.09-12.46,23.73-12.46,23.73,0,0,19.83,3.52,31.94-4.05,11.2-7,12.35-21.31,12.47-23.42-3.54,1.19-7.19,2.57-12.15,4.97Z"/>
  </g>
</svg>