<?xml version="1.0" encoding="UTF-8"?>
<svg id="Layer_1" data-name="Layer 1" xmlns="http://www.w3.org/2000/svg" viewBox="0 0 314.04 321.7">
  <path d="M145.44,132.69l-77.34.16c-3.61,0-6.58-.99-8.87-3-2.3-2.01-3.37-4.53-3.21-7.55.16-3.02,1.5-5.54,4.02-7.56,2.51-2.02,5.58-3.03,9.2-3.04l178.9-.38c3.61,0,6.63,1,9.06,3,2.42,2.01,3.55,4.52,3.39,7.55-.16,3.02-1.56,5.54-4.2,7.56-2.64,2.02-5.77,3.03-9.38,3.04l-75.9.16-2.03,37.77,104.45-.22c3.61,0,6.63,1.04,9.04,3.15,2.42,2.11,3.54,4.67,3.38,7.7-.15,2.82-1.55,5.34-4.2,7.56-2.65,2.22-5.78,3.33-9.39,3.34l-89.99.19,85.82,91.05c2.04,2.41,2.8,5.03,2.29,7.85-.51,2.82-2.15,5.24-4.91,7.26-2.99,1.82-6.16,2.58-9.52,2.29-3.36-.3-6.18-1.55-8.47-3.76l-92.99-98.89-104.71,99.31c-2.53,2.22-5.49,3.49-8.88,3.79-3.4.31-6.36-.44-8.91-2.25-2.55-2.01-3.92-4.42-4.13-7.24-.21-2.82.83-5.44,3.13-7.86l96.33-91.44-91.08.19c-3.38,0-6.26-1.09-8.68-3.3-2.41-2.21-3.54-4.72-3.39-7.55.16-3.02,1.56-5.59,4.21-7.71,2.65-2.12,5.65-3.18,9.03-3.19l105.9-.22,2.03-37.77ZM41.58,54.37l18.85-28.13c1.82-2.62,4.39-4.34,7.68-5.15,3.3-.81,6.48-.62,9.54.58,3.29,1.61,5.34,3.76,6.16,6.48.82,2.72.43,5.49-1.17,8.31l-8.24,12.1,70.48-.15c3.37,0,6.32,1.04,8.87,3.15,2.53,2.11,3.72,4.67,3.56,7.7-.15,2.82-1.61,5.29-4.37,7.41-2.77,2.12-5.83,3.18-9.21,3.19l-31.45.07-1.18,22.06c-.15,2.82-1.55,5.29-4.19,7.41-2.64,2.12-5.77,3.18-9.39,3.19-3.38,0-6.27-1.04-8.68-3.15-2.42-2.11-3.55-4.57-3.4-7.39l1.18-22.06-34.7.07c-2.17,0-4.08-.39-5.72-1.2-3.3-1.4-5.36-3.46-6.17-6.18-.82-2.72-.31-5.48,1.53-8.31ZM170.61,54.1l18.85-28.13c1.82-2.62,4.44-4.34,7.87-5.15,3.41-.81,6.66-.62,9.72.58,3.29,1.61,5.34,3.76,6.16,6.48.82,2.72.31,5.49-1.53,8.31l-8.24,12.1,71.56-.15c3.61,0,6.63,1.04,9.05,3.15,2.42,2.11,3.54,4.67,3.38,7.7-.15,2.82-1.55,5.29-4.19,7.41-2.64,2.12-5.77,3.18-9.39,3.19l-35.06.07-1.18,22.06c-.15,2.82-1.55,5.29-4.19,7.41-2.64,2.12-5.77,3.18-9.39,3.19-3.38,0-6.33-1.04-8.87-3.15-2.54-2.11-3.73-4.57-3.58-7.39l1.18-22.06-31.81.07c-2.17,0-4.08-.39-5.72-1.2-3.06-1.4-5.06-3.46-5.99-6.18-.94-2.72-.49-5.48,1.35-8.31Z"/>
</svg>