<?xml version="1.0" encoding="UTF-8"?>
<svg id="Layer_1" data-name="Layer 1" xmlns="http://www.w3.org/2000/svg" viewBox="0 0 605.11 457.02">
  <path d="M546.96,454.87c-.1,0-.2,0-.29,0l-235.2-10.17c-22.7-1.12-38.53-14.21-38.53-31.84,0-3.15,2.56-5.71,5.71-5.71s5.71,2.56,5.71,5.71c0,13.1,14.33,19.78,27.64,20.43l235.04,10.16c10.2-.02,15.74-5.27,16.48-15.6,0-.04,0-.09.01-.13l27.73-292.61c.3-3.14,3.08-5.45,6.22-5.14,3.14.3,5.44,3.08,5.15,6.22l-27.72,292.54c-1.19,16.37-11.63,26.14-27.94,26.14Z"/>
  <path d="M536.49,422.21c-.79,0-1.59-.02-2.41-.07l-223.56-9.6c-9.77-.33-23.49-1.86-29.52-11.33-.65-1.02-.35-2.38.67-3.03,1.02-.65,2.38-.35,3.03.67,4.92,7.72,17.18,9,25.98,9.3l223.61,9.6c12.16.7,20.31-4.3,24.26-14.85.43-1.13,1.69-1.71,2.83-1.28,1.14.43,1.71,1.69,1.29,2.83-4.37,11.66-13.39,17.76-26.18,17.76Z"/>
  <path d="M527.39,366.11c-.39,0-.78,0-1.18-.02l-235.26-10.17s-.07,0-.1,0c-7.61-.47-13.54-3.06-17.63-7.71-4.4-5-6.33-12.02-5.75-20.85,0-.06,0-.12.02-.18l13.5-136.07c.31-3.14,3.11-5.44,6.24-5.12,3.14.31,5.43,3.11,5.12,6.24l-13.49,135.98c-.36,5.65.62,9.84,2.93,12.46,2,2.28,5.27,3.57,9.71,3.85l235.14,10.16c9.63.32,14.99-4.42,16.28-14.44l29.56-296.88c.25-4.09-.54-7.18-2.34-9.2-2.04-2.3-5.65-3.59-10.73-3.86l-235.03-10.16c-9.93.02-15.53,4.3-16.2,12.4,0,.03,0,.06,0,.1l-6.13,61.82c-.31,3.14-3.11,5.44-6.24,5.12-3.14-.31-5.43-3.11-5.12-6.24l6.13-61.78c.93-11.05,8.68-22.83,27.64-22.83.1,0,.2,0,.3,0l235.2,10.17c8.28.43,14.56,3.01,18.71,7.67,3.92,4.4,5.67,10.33,5.2,17.62,0,.07,0,.13-.02.2l-29.58,297.06s-.01.1-.02.15c-1.94,15.42-11.95,24.51-26.86,24.51Z"/>
  <path d="M292.87,135.64c-.19,0-.38,0-.57-.03-3.14-.31-5.43-3.11-5.12-6.24l1.19-12.01c.31-3.14,3.1-5.45,6.24-5.12,3.14.31,5.43,3.11,5.12,6.24l-1.19,12.01c-.29,2.95-2.78,5.15-5.67,5.15Z"/>
  <path d="M522.17,343.08c-.23,0-.47,0-.7-.02l-221.9-12c-3.43-.26-6.57-1.83-8.65-4.32-1.88-2.24-2.75-5.05-2.45-7.9l28.52-275.68c.65-6.28,6.65-11.54,13.13-11.54.04,0,.08,0,.11,0l220.76,8.4c.07,0,.15,0,.22.02,7.04.98,11.23,5.61,10.92,12.09,0,.04,0,.07,0,.11l-27.4,280.14c-.63,6.05-6.18,10.72-12.55,10.72ZM330.05,35.99c-4.19,0-8.28,3.54-8.7,7.6l-28.52,275.68c-.22,2.13.67,3.7,1.45,4.64,1.32,1.58,3.35,2.59,5.56,2.76l221.85,12c4.34.24,8.24-2.8,8.65-6.76l27.39-280.07c.24-5.73-4.75-7.12-7.04-7.46l-220.58-8.39h-.07Z"/>
  <path d="M62.15,454.87c-20.51,0-35.77-10.78-37.75-27.16-.38-3.13,1.85-5.97,4.98-6.35,3.13-.38,5.97,1.85,6.35,4.99,1.57,12.99,16.56,17.91,29.84,16.98l198.3-17.28c3.14-.28,5.91,2.05,6.18,5.19.27,3.14-2.05,5.91-5.19,6.18l-198.35,17.29s-.06,0-.09,0c-1.45.1-2.88.15-4.28.15Z"/>
  <path d="M53.67,423.3c-8.54,0-17.32-1.61-22.65-8.1-.77-.94-.63-2.32.3-3.09.94-.77,2.32-.63,3.09.3,5.81,7.07,18.14,6.88,26.91,6.12l195.45-17.22c1.2-.11,2.27.79,2.38,1.99.11,1.21-.79,2.27-1.99,2.38l-195.45,17.22c-2.57.22-5.29.39-8.03.39Z"/>
  <path d="M9.49,113.95c-3.1,0-5.64-2.48-5.71-5.59l-1.31-62.06c-.4-11.1,5.89-23.73,24.77-25.98.08,0,.16-.02.24-.02L262.22,2.25c8.28-.57,14.82,1.24,19.5,5.37,4.42,3.9,6.86,9.58,7.27,16.88.18,3.15-2.23,5.84-5.38,6.02-3.13.18-5.84-2.23-6.02-5.38-.23-4.14-1.39-7.15-3.43-8.95-2.3-2.03-6.04-2.89-11.11-2.54L28.49,31.67c-9.86,1.21-14.91,6.13-14.6,14.24,0,.03,0,.07,0,.1l1.31,62.11c.07,3.15-2.44,5.76-5.59,5.83-.04,0-.08,0-.12,0Z"/>
  <path d="M33.24,369.11c-6.68,0-12.14-1.88-16.3-5.61-4.97-4.44-7.73-11.17-8.2-20.02,0-.06,0-.12,0-.19l-2.88-136.71c-.07-3.15,2.44-5.76,5.59-5.83,3.12-.06,5.76,2.44,5.83,5.59l2.87,136.61c.32,5.65,1.8,9.7,4.4,12.03,2.27,2.03,5.68,2.92,10.15,2.66l221.3-15.94c3.14-.24,5.88,2.14,6.1,5.28.23,3.14-2.14,5.88-5.28,6.1l-221.37,15.94c-.75.04-1.48.07-2.2.07Z"/>
  <path d="M10.33,150.15c-3.1,0-5.64-2.48-5.71-5.59l-.25-12.07c-.07-3.15,2.44-5.76,5.59-5.83,3.15-.05,5.76,2.44,5.83,5.59l.25,12.07c.07,3.15-2.44,5.76-5.59,5.83-.04,0-.08,0-.12,0Z"/>
  <path d="M40.47,343.33c-3.24,0-6.3-1.18-8.52-3.27-2.13-2-3.33-4.69-3.38-7.56L23.9,55.39c-.11-6.35,5.28-12.32,11.77-13.04l220.18-18.07c.07,0,.15,0,.22,0,7.11.13,11.82,4.23,12.29,10.69,0,.04,0,.07,0,.11l3.64,162.2c.03,1.21-.93,2.22-2.15,2.24-1.21.07-2.22-.93-2.24-2.15l-3.64-162.15c-.45-5.72-5.57-6.5-7.88-6.57L36.09,46.72c-4.19.47-7.87,4.49-7.8,8.6l4.67,277.11c.04,2.14,1.11,3.59,2,4.43,1.5,1.41,3.63,2.16,5.85,2.07l211.98-15.64c1.22-.09,2.26.82,2.35,2.03.09,1.21-.82,2.26-2.03,2.35l-212.04,15.64c-.2,0-.4.01-.6.01Z"/>
</svg>