<?xml version="1.0" encoding="UTF-8"?>
<svg id="Layer_1" data-name="Layer 1" xmlns="http://www.w3.org/2000/svg" viewBox="0 0 342.24 69.22">
  <defs>
    <style>
      .cls-1 {
        fill: #f15c27;
      }

      .cls-2 {
        fill: #233c77;
      }
    </style>
  </defs>
  <path class="cls-2" d="M63.72,67.91h10.15v-33.1h-10.15v33.1ZM41.55,35.39c-4.16-1.29-9.75-1.61-16-1.61h-.07c-6.25,0-12.17.32-16.33,1.61-7.76,2.41-8.15,7.97-8.15,10.74v21.92h10.15v-13.71h28.58v13.71h10.15v-21.92c0-2.76-.57-8.33-8.33-10.74M39.73,49.55H11.15v-4.15c0-2.21.58-4.53,4.91-6.39,2.06-.88,5.77-1.48,9.28-1.48h.07c3.51,0,6.48.28,8.94,1.03,5.29,1.62,5.39,4.62,5.39,6.83v4.15ZM205.52,53.95h31.82v-4.79h-32.03c1.39-5.93,9.12-10.3,20.39-10.3,6.88,0,11.71,1.78,13.75,2.55v-5.36c-1.79-.51-7.13-1.53-14.77-1.53-19.36,0-30.07,7.66-30.07,17.11s10.46,16.59,30.32,16.59c7.12,0,14.02-1.56,16.69-2.31v-4.97c-2.44.91-7.89,2.94-14.65,2.94-12.09,0-19.62-4.19-21.46-9.93M187.75,44.24c0-5.49-8.21-10.14-27.61-9.95-7.2.07-15.4.48-17.08.77v32.84h10.08v-29.42c4.13-.62,8.26-.61,10.2-.48,9.12.63,13.19,2.45,13.58,5.7.56,4.68-4.84,7.6-17.18,7.49l-4.2-.11c-.08,0,22.49,16.81,22.49,16.81h12.99l-20.73-14.2c12.74-.47,17.47-5.15,17.47-9.47M132.41,44.24c0-5.49-8.2-10.14-27.61-9.95-7.2.07-15.4.48-17.08.77v32.84h10.08v-29.42c4.12-.62,8.26-.61,10.2-.48,9.12.63,13.19,2.45,13.58,5.7.56,4.68-4.84,7.6-17.18,7.49l-4.2-.11c-.09,0,22.49,16.81,22.49,16.81h13.24l-20.97-14.2c12.5-.47,17.47-5.15,17.47-9.47M276.35,50.8l20.01-16h-9.93l-14.87,11.97-14.21-11.97h-12.14l20.15,16.97-20.05,16.14h9.65l15.17-12.13,14.4,12.13h12.14l-20.32-17.11Z"/>
  <path class="cls-1" d="M341.24,16.84c0-4.7-1.53-9-4.07-12.39l-8.03,6.42c1.64,2.21,2.6,4.95,2.6,7.92s-.96,5.68-2.58,7.88l5.88,4.95c3.8-3.62,6.2-8.9,6.2-14.79"/>
  <path class="cls-2" d="M318.44,32.12c-4.03,0-7.64-1.8-10.08-4.64l-.63.5c3.31,5.19,8.86,8.59,15.15,8.59,4.05,0,7.8-1.41,10.83-3.81l-5.67-4.77c-2.42,2.54-5.83,4.12-9.61,4.12"/>
  <path class="cls-1" d="M295.64,20.74c0,4.42,1.35,8.5,3.64,11.8l8.04-6.43c-1.38-2.1-2.18-4.61-2.18-7.31,0-2.96.96-5.69,2.59-7.9l-5.88-4.95c-3.81,3.62-6.22,8.9-6.22,14.8"/>
  <path class="cls-2" d="M318.44,5.46c3.76,0,7.16,1.57,9.58,4.09l.72-.57c-3.35-4.84-8.7-7.98-14.74-7.98-4.05,0-7.78,1.41-10.82,3.8l5.67,4.77c2.42-2.53,5.82-4.11,9.59-4.11"/>
</svg>