<svg id="レイヤー_2" data-name="レイヤー 2" xmlns="http://www.w3.org/2000/svg" width="650" height="650" viewBox="0 0 650 650">
  <defs>
    <style>
      .cls-1 {
        fill: #fff;
      }
    </style>
  </defs>
  <title>main_title_sp</title>
  <g>
    <path class="cls-1" d="M64.4,56.89a19.68,19.68,0,0,1-9.07-2.16,23.72,23.72,0,0,1-7.41-5.94,29.18,29.18,0,0,1-5-8.88A31.45,31.45,0,0,1,41,29.05a31,31,0,0,1,1.86-10.8,29.34,29.34,0,0,1,5-8.82,24.5,24.5,0,0,1,7.41-6A19.25,19.25,0,0,1,64.4,1.21H89.2a19.57,19.57,0,0,1,9.12,2.22,24.21,24.21,0,0,1,7.46,6,28.61,28.61,0,0,1,5,8.82,31.64,31.64,0,0,1,1.81,10.8,32.15,32.15,0,0,1-1.81,10.86,28.46,28.46,0,0,1-5,8.88,23.46,23.46,0,0,1-7.46,5.94,20,20,0,0,1-9.12,2.16Zm0-39a7.68,7.68,0,0,0-3.63.9,9.82,9.82,0,0,0-3,2.4,12,12,0,0,0-2,3.54,12.82,12.82,0,0,0,0,8.64,12,12,0,0,0,2,3.54,9.82,9.82,0,0,0,3,2.4,7.68,7.68,0,0,0,3.63.9H89.2a7.62,7.62,0,0,0,3.68-.9,10.65,10.65,0,0,0,5-5.94,13.68,13.68,0,0,0,0-8.64,10.65,10.65,0,0,0-5-5.94,7.62,7.62,0,0,0-3.68-.9Z"/>
    <path class="cls-1" d="M111.88,123H64.4a19.68,19.68,0,0,1-9.07-2.16,23.72,23.72,0,0,1-7.41-5.94,29.18,29.18,0,0,1-5-8.88A31.45,31.45,0,0,1,41,95.17a31,31,0,0,1,1.86-10.8,29.34,29.34,0,0,1,5-8.82,24.5,24.5,0,0,1,7.41-6,19.25,19.25,0,0,1,9.07-2.22h47.48V84H64.4a7.68,7.68,0,0,0-3.63.9,9.82,9.82,0,0,0-3,2.4,12,12,0,0,0-2,3.54,12.82,12.82,0,0,0,0,8.64,12,12,0,0,0,2,3.54,9.82,9.82,0,0,0,3,2.4,7.68,7.68,0,0,0,3.63.9h47.48Z"/>
    <path class="cls-1" d="M41.72,190.81V174.13l23.39-9.36v-13H41.72V135.13h70.16V163a32.15,32.15,0,0,1-1.82,10.86,28.46,28.46,0,0,1-5,8.88,23.35,23.35,0,0,1-7.46,5.94,20,20,0,0,1-9.12,2.16q-11.19,0-18.65-11Zm37.4-39V163a12.28,12.28,0,0,0,.75,4.38,13.09,13.09,0,0,0,2,3.54,8.75,8.75,0,0,0,3,2.4,8.26,8.26,0,0,0,7.26,0,8.75,8.75,0,0,0,3-2.4,12.84,12.84,0,0,0,2-3.54,12.28,12.28,0,0,0,.76-4.38V151.81Z"/>
  </g>
  <g>
    <path class="cls-1" d="M123.79,280.89a39.75,39.75,0,0,1,13.4,2.23,35.41,35.41,0,0,1,10.95,6.16,28.83,28.83,0,0,1,7.32,9.2,24.59,24.59,0,0,1,2.67,11.25,24.22,24.22,0,0,1-2.67,11.19,29.16,29.16,0,0,1-7.32,9.14,36.13,36.13,0,0,1-10.95,6.21,38.58,38.58,0,0,1-13.4,2.3H110v28.84H89.46V280.89ZM110,321.29h13.76a15,15,0,0,0,5.4-.93,15.77,15.77,0,0,0,4.37-2.49,10.75,10.75,0,0,0,3-3.67,10.15,10.15,0,0,0,0-8.95,10.81,10.81,0,0,0-3-3.66,15.77,15.77,0,0,0-4.37-2.49,15,15,0,0,0-5.4-.93H110Z"/>
    <path class="cls-1" d="M239.08,280.89v17.28H191v17.28h37.74v17.4H191v17.28h48.1v17.28H170.41V280.89Z"/>
    <path class="cls-1" d="M318,339.44a24.22,24.22,0,0,1-2.67,11.19,29.19,29.19,0,0,1-7.32,9.14A36.07,36.07,0,0,1,297,366a38.49,38.49,0,0,1-13.39,2.3,37.89,37.89,0,0,1-13.32-2.3,36.37,36.37,0,0,1-10.88-6.21,30.18,30.18,0,0,1-7.4-9.14,23.68,23.68,0,0,1-2.74-11.19V308.86A24,24,0,0,1,252,297.61a29.93,29.93,0,0,1,7.4-9.2,35.63,35.63,0,0,1,10.88-6.16A39,39,0,0,1,283.63,280,39.65,39.65,0,0,1,297,282.25a35.35,35.35,0,0,1,11,6.16,29,29,0,0,1,7.32,9.2A24.59,24.59,0,0,1,318,308.86Zm-48.1,0a9.5,9.5,0,0,0,1.11,4.48,11.88,11.88,0,0,0,3,3.66,14.39,14.39,0,0,0,4.36,2.49,15.74,15.74,0,0,0,10.66,0,14.52,14.52,0,0,0,4.36-2.49,11.88,11.88,0,0,0,3-3.66,9.5,9.5,0,0,0,1.11-4.48V308.86a9.39,9.39,0,0,0-1.11-4.54,13.05,13.05,0,0,0-7.32-6.15,16.76,16.76,0,0,0-10.66,0,13.05,13.05,0,0,0-7.32,6.15,9.39,9.39,0,0,0-1.11,4.54Z"/>
    <path class="cls-1" d="M364.88,280.89a39.65,39.65,0,0,1,13.39,2.23,35.35,35.35,0,0,1,11,6.16,29,29,0,0,1,7.32,9.2,24.59,24.59,0,0,1,2.67,11.25,24.22,24.22,0,0,1-2.67,11.19,29.3,29.3,0,0,1-7.32,9.14,36.07,36.07,0,0,1-11,6.21,38.49,38.49,0,0,1-13.39,2.3H351.12v28.84H330.54V280.89Zm-13.76,40.4h13.76a15.08,15.08,0,0,0,5.4-.93,15.91,15.91,0,0,0,4.37-2.49,10.75,10.75,0,0,0,3-3.67,10.24,10.24,0,0,0,0-8.95,10.81,10.81,0,0,0-3-3.66,15.91,15.91,0,0,0-4.37-2.49,15.08,15.08,0,0,0-5.4-.93H351.12Z"/>
    <path class="cls-1" d="M432.22,350.13h48.1v17.28H411.65V280.89h20.57Z"/>
    <path class="cls-1" d="M559.64,280.89v17.28h-48.1v17.28h37.74v17.4H511.54v17.28h48.1v17.28H491V280.89Z"/>
  </g>
  <g>
    <path class="cls-1" d="M218.61,454.11v10.5H157.7v-10.5h31.58l4.62-26.26H167.85v-10.5h40.4l-6.37,36.76Z"/>
    <path class="cls-1" d="M288.89,453v11.13h-61V453Zm-8.68-35v10.78h-43.9V418Z"/>
    <path class="cls-1" d="M345.87,419.59a11.67,11.67,0,0,0,5-1l5.81,5c-1.26,2.1-5.53,11.69-7.14,15.27-10.78,24.22-26.32,32-32.48,35.07-1.2-1.54-3.15-3.85-9-8a64.23,64.23,0,0,0,22.76-16.59c5.67-6.86,8.89-15.34,10.43-19.61h-17.5a95.84,95.84,0,0,1-15.76,17.93c-3.78-4-5.18-5.46-8.54-7.56,17-14.43,21.43-26.75,23-31l10.08,4.9c.28.14.91.49.91,1.05s-1,.91-1.68,1c-1.12,2.17-1.33,2.73-1.82,3.57Z"/>
    <path class="cls-1" d="M382.89,463.7v3.57H371.13V417.35H424.9v49.92H413.28V463.7Zm30.39-10.36V427.78H382.89v25.56Z"/>
    <path class="cls-1" d="M498.68,421.62c-17.29-.28-32.27,15.26-32.27,26.61,0,8.12,10.29,12.11,19.81,12.32A94.4,94.4,0,0,0,481,473.29c-5.67-1.54-25.76-7.14-25.76-23.87,0-13,10-22.27,12.88-24.09a190.81,190.81,0,0,0-29,4.41l-1.61-13.16A227,227,0,0,0,468.65,415c10.15-1.12,21.49-3,28.07-5.11Zm-11.62,9.94a43.13,43.13,0,0,1,6.51,7.5c-2,1.39-2.94,2.17-5.39,4.2a56.67,56.67,0,0,0-6.23-7.92Zm7.35-5a44.42,44.42,0,0,1,6.23,7.35c-1.75,1.33-2.94,2.38-5.11,4.35a51.44,51.44,0,0,0-6.23-7.92Z"/>
    <path class="cls-1" d="M165.2,515.83v-9h2.45c0-8.4,0-11.06-.07-16.52l8.89.56c.91.07,1.82.14,1.82,1,0,.7-.77,1.12-1.82,1.4.07,2.1-.14,11.55-.14,13.51h9.1c0,9.73-.63,31.44-2.87,39.84-2,7.84-7.42,8.12-11.69,8.33a17.41,17.41,0,0,0-2.52-7,80.14,80.14,0,0,1-4.34,7,25.13,25.13,0,0,0-7.84-4.69,22,22,0,0,0,1.89-2.1c-2.1.21-15.05,1.4-17.79,1.61-.48.84-.91,1.68-1.89,1.68s-1.19-.84-1.33-1.75l-1-6.58c2,.07,8.41-.28,10.79-.42V540.2h-9.18v-6h9.18v-2.24h-9.74V511.21h9.74V509H137V502.6h9.88v-2c-1.47.14-3.36.28-6.73.49a17.64,17.64,0,0,0-1.67-4.13,73.39,73.39,0,0,1-4.35,9.1c1.33.49,2.1.84,2.1,1.4,0,.35-.7.84-1.26,1.12V555h-9.17V519.54c-.84,1.19-1.61,2.1-2.8,3.5-1.54-4-2.73-6.58-5-8.61a67.31,67.31,0,0,0,13-24.22l9.45,4c8.83-.42,16.74-2.17,19.89-3.57l4,6.37a2,2,0,0,1,.35,1c0,.56-.28.91-.84.91a2.74,2.74,0,0,1-1.68-.7,65.72,65.72,0,0,1-8.05,1.54v2.87h9.94V509h-9.94v2.24h9.66v20.73h-9.66v2.24h8.61v6h-8.61v2.1a62.77,62.77,0,0,0,7.91-.84l-.28,1.4c4.83-8.89,5.6-23.32,5.74-27Zm-21,3.43h2.66v-2.8H144.2Zm2.66,4.76H144.2v2.66h2.66Zm7.28-4.76h2.66v-2.8h-2.66ZM156.8,524h-2.66v2.66h2.66Zm18.69-8.19c-.14,7.14-1.12,19.47-6.16,30.32,3.5,0,4.41.07,5.39-1.75,1.89-3.36,2.66-20.87,2.66-28.57Z"/>
    <path class="cls-1" d="M241.78,496.3c.42.35.7.63.7,1.05a.74.74,0,0,1-.84.77,4.15,4.15,0,0,1-1.19-.28c-1.4,1.33-12.81,10.22-15.19,12.25-3.22,2.73-7.14,6.09-9.73,8.4-2.24,2-2.45,2.31-2.45,2.87s.28.91,3,2.45c.21.14,6.65,4.42,12.95,9.25,7.91,6.09,11.27,9.66,14.49,13.72a44.18,44.18,0,0,0-8.05,9.45c-3.08-4.55-14.63-16.73-35.29-30.11a4.89,4.89,0,0,1-2.38-4.13c0-1.82.28-2.66,7.35-8.26a184.53,184.53,0,0,0,26.68-25.13Z"/>
    <path class="cls-1" d="M277.26,554.41H267.11V524.09c-.42.49-.91,1-1.33,1.47a30.51,30.51,0,0,0-7.77-6.72,56.71,56.71,0,0,0,10.5-16.31,60.48,60.48,0,0,0,4.2-12.39l9.74,3c.49.14,1,.42,1,1s-1.05,1-1.68,1.19a129.69,129.69,0,0,1-5.12,13.3c1,.28,1.61.49,1.61,1.12,0,.42-.35.77-1,1.26Zm30-51.18h16.1V538H313v-2.31H307.3v18.69H296.87V535.72h-5.53V538H281.12v-34.8h15.75V490.56l10.43.35c.49,0,1.54,0,1.54.7,0,.42-.7,1-1.54,1.33Zm-10.43,9.17h-5.53v14.14h5.53Zm10.43,14.14H313V512.4H307.3Z"/>
    <path class="cls-1" d="M361.13,491.75v24.36h-19v38.44h-9.8v-62.8Zm-9.59,9v-2.87h-9.39v2.87Zm-9.39,5.46v2.94h9.39v-2.94Zm15,40.75v2.24H348V519.54h30.32v25.14a31.36,31.36,0,0,0,3.85.35c1.82,0,1.89-.7,1.89-2.45V516.11H364.77V491.75h28.84v54.4c0,7.07-2.45,8.26-12.95,8.89a23.54,23.54,0,0,0-2.38-8Zm12.11-17v-3.09H357.14V530Zm-12.11,6.51v3.15h12.11v-3.15Zm26.6-35.71v-2.87h-9.31v2.87Zm-9.31,5.46v2.94h9.31v-2.94Z"/>
    <path class="cls-1" d="M434.14,493.15c.63.14,1.4.42,1.4,1.12s-1,.91-1.54.91c-.28,1.12-1.47,6.09-1.75,7.07a44.54,44.54,0,0,0,11.62-3.43l1.19,11c-2.17.7-6.16,1.89-15.82,3.29-2.8,8.82-7.7,24.09-18.35,41a72.81,72.81,0,0,0-10.57-5.32c5.88-7.35,13.23-20.79,17.29-34-4.27.35-5.11.35-12.81.42l-.91-11.48c2.1.14,4.55.28,8.12.28,3.15,0,5.25-.07,8.34-.28,1-5.25,1.47-9.8,1.89-13.23Zm5.25,42.15c-1.75,2.24-1.89,3.57-1.89,4.13a1.89,1.89,0,0,0,1.26,1.82c1.47.84,5.53,1.19,9.38,1.19a50.58,50.58,0,0,0,15.4-2.31,30.3,30.3,0,0,0-.49,5.46,50.32,50.32,0,0,0,.42,5.81A84.89,84.89,0,0,1,449,552.59c-9.17,0-21.35-1.33-21.35-11.27,0-2.73.63-5,2.73-9.17Zm-3.29-19.82a89.64,89.64,0,0,1,15.47-1.26,50.1,50.1,0,0,1,10.29.77c-.42,5.18-.49,6.3-.56,11a40.69,40.69,0,0,0-10.5-1.27A126.9,126.9,0,0,0,436.1,526Z"/>
    <path class="cls-1" d="M504.77,492.52c.56.14,1.33.42,1.33,1.12,0,.42-.35.91-1.54,1-1.54,4.76-1.68,5.25-2,6.3,7.77-1.19,15.47-2.66,22.82-5.53.35,2.31,1.26,7.63,2,10.43a121.15,121.15,0,0,1-28.63,5.95c-1.68,4.62-2.24,6-3.64,9.45a41.42,41.42,0,0,1,18.2-4.76c18.69,0,19.67,13.17,19.67,16.67a17.29,17.29,0,0,1-7.49,14.14c-3.71,2.52-10.71,6.72-30.1,6.72a64.69,64.69,0,0,1-6.52-.35,49.44,49.44,0,0,0-2.59-10.43,103.21,103.21,0,0,0,10.44.63c1.61,0,13.58,0,20.79-4.27a7.12,7.12,0,0,0,3.78-6.58c0-4.06-2.1-7.5-8.54-7.5-6.16,0-16,3.16-24.22,11.7l-10.09-5c5-7.57,8.82-18.21,9.31-19.68-6.09.07-10.92-.21-13.58-.42L474,500.57c4.55,1.12,8.54,1.54,17,1.54a93.67,93.67,0,0,0,2.66-12.39Z"/>
  </g>
</svg>
