<svg id="レイヤー_1" data-name="レイヤー 1" xmlns="http://www.w3.org/2000/svg" width="960" height="480" viewBox="0 0 960 480">
  <defs>
    <style>
      .cls-1 {
        fill: #fff;
      }
    </style>
  </defs>
  <title>main_title_pc</title>
  <g>
    <path class="cls-1" d="M64.63,56.7a19.65,19.65,0,0,1-9.07-2.16,23.72,23.72,0,0,1-7.41-5.94,29.18,29.18,0,0,1-5-8.88,31.45,31.45,0,0,1-1.87-10.86,31,31,0,0,1,1.87-10.8,29.34,29.34,0,0,1,5-8.82,24.5,24.5,0,0,1,7.41-6A19.22,19.22,0,0,1,64.63,1h24.8a19.57,19.57,0,0,1,9.12,2.22,24.33,24.33,0,0,1,7.46,6,28.61,28.61,0,0,1,5,8.82,31.64,31.64,0,0,1,1.81,10.8A32.15,32.15,0,0,1,111,39.72a28.46,28.46,0,0,1-5,8.88,23.57,23.57,0,0,1-7.46,5.94,20,20,0,0,1-9.12,2.16Zm0-39a7.68,7.68,0,0,0-3.63.9A9.82,9.82,0,0,0,58,21a12,12,0,0,0-2,3.54,12.82,12.82,0,0,0,0,8.64,12,12,0,0,0,2,3.54,9.82,9.82,0,0,0,3,2.4,7.68,7.68,0,0,0,3.63.9h24.8a7.62,7.62,0,0,0,3.68-.9,10.65,10.65,0,0,0,5-5.94,13.68,13.68,0,0,0,0-8.64,10.65,10.65,0,0,0-5-5.94,7.62,7.62,0,0,0-3.68-.9Z"/>
    <path class="cls-1" d="M112.11,122.82H64.63a19.65,19.65,0,0,1-9.07-2.16,23.72,23.72,0,0,1-7.41-5.94,29.18,29.18,0,0,1-5-8.88A31.45,31.45,0,0,1,41.24,95a31,31,0,0,1,1.87-10.8,29.34,29.34,0,0,1,5-8.82,24.5,24.5,0,0,1,7.41-6,19.22,19.22,0,0,1,9.07-2.22h47.48V83.82H64.63a7.68,7.68,0,0,0-3.63.9,9.82,9.82,0,0,0-3,2.4,12,12,0,0,0-2,3.54,12.82,12.82,0,0,0,0,8.64,12,12,0,0,0,2,3.54,9.82,9.82,0,0,0,3,2.4,7.68,7.68,0,0,0,3.63.9h47.48Z"/>
    <path class="cls-1" d="M42,190.62V173.94l23.39-9.36v-13H42V134.94h70.16v27.84a32.15,32.15,0,0,1-1.82,10.86,28.46,28.46,0,0,1-5,8.88,23.35,23.35,0,0,1-7.46,5.94,20,20,0,0,1-9.12,2.16q-11.19,0-18.65-11Zm37.4-39v11.16a12.28,12.28,0,0,0,.75,4.38,13.09,13.09,0,0,0,2,3.54,8.75,8.75,0,0,0,3,2.4,8.26,8.26,0,0,0,7.26,0,8.75,8.75,0,0,0,3-2.4,12.84,12.84,0,0,0,2-3.54,12.28,12.28,0,0,0,.76-4.38V151.62Z"/>
  </g>
  <g>
    <path class="cls-1" d="M238,158.53a47.62,47.62,0,0,1,16.11,2.69,42.26,42.26,0,0,1,13.17,7.4,34.88,34.88,0,0,1,8.81,11.06,29.62,29.62,0,0,1,3.2,13.54,29.11,29.11,0,0,1-3.2,13.45,35.07,35.07,0,0,1-8.81,11,43.45,43.45,0,0,1-13.17,7.48A46.7,46.7,0,0,1,238,227.91H221.46v34.68H196.72V158.53Zm-16.56,48.59H238a18.07,18.07,0,0,0,6.5-1.12,19.35,19.35,0,0,0,5.25-3,13.1,13.1,0,0,0,3.56-4.41,12.31,12.31,0,0,0,0-10.77,13.19,13.19,0,0,0-3.56-4.41,19.62,19.62,0,0,0-5.25-3,18.07,18.07,0,0,0-6.5-1.12H221.46Z"/>
    <path class="cls-1" d="M376.68,158.53v20.78H318.83v20.78h45.39V221H318.83v20.78h57.85v20.78H294.09V158.53Z"/>
    <path class="cls-1" d="M471.55,229a29.27,29.27,0,0,1-3.2,13.46,35.21,35.21,0,0,1-8.81,11,43.36,43.36,0,0,1-13.18,7.47,46.38,46.38,0,0,1-16.11,2.77,45.71,45.71,0,0,1-16-2.77,43.68,43.68,0,0,1-13.08-7.47,36.23,36.23,0,0,1-8.9-11A28.5,28.5,0,0,1,389,229V192.17a29,29,0,0,1,3.29-13.53,36,36,0,0,1,8.9-11.07,42.68,42.68,0,0,1,13.08-7.4,47.09,47.09,0,0,1,16-2.69,47.78,47.78,0,0,1,16.11,2.69,42.4,42.4,0,0,1,13.18,7.4,35,35,0,0,1,8.81,11.07,29.74,29.74,0,0,1,3.2,13.53Zm-57.85,0a11.38,11.38,0,0,0,1.34,5.38,14.31,14.31,0,0,0,3.56,4.41,17.48,17.48,0,0,0,5.25,3,18.87,18.87,0,0,0,12.81,0,17.48,17.48,0,0,0,5.25-3,14.31,14.31,0,0,0,3.56-4.41,11.38,11.38,0,0,0,1.34-5.38V192.17a11.32,11.32,0,0,0-1.34-5.46,15.75,15.75,0,0,0-8.81-7.4,20.06,20.06,0,0,0-12.81,0,15.75,15.75,0,0,0-8.81,7.4,11.32,11.32,0,0,0-1.34,5.46Z"/>
    <path class="cls-1" d="M528,158.53a47.54,47.54,0,0,1,16.11,2.69,42.2,42.2,0,0,1,13.18,7.4,35,35,0,0,1,8.81,11.06,29.75,29.75,0,0,1,3.2,13.54,29.23,29.23,0,0,1-3.2,13.45,35.21,35.21,0,0,1-8.81,11,43.38,43.38,0,0,1-13.18,7.48A46.61,46.61,0,0,1,528,227.91H511.42v34.68H486.68V158.53Zm-16.55,48.59H528a18,18,0,0,0,6.5-1.12,19.06,19.06,0,0,0,5.25-3,13,13,0,0,0,3.56-4.41,12.22,12.22,0,0,0,0-10.77,13.07,13.07,0,0,0-3.56-4.41,19.32,19.32,0,0,0-5.25-3,18,18,0,0,0-6.5-1.12H511.42Z"/>
    <path class="cls-1" d="M609,241.81h57.85v20.78H584.22V158.53H609Z"/>
    <path class="cls-1" d="M762.22,158.53v20.78H704.37v20.78h45.39V221H704.37v20.78h57.85v20.78H679.63V158.53Z"/>
  </g>
  <g>
    <path class="cls-1" d="M186.74,336.35V346H130.81v-9.64h29l4.25-24.11H140.13V302.6h37.09l-5.85,33.75Z"/>
    <path class="cls-1" d="M251.28,335.32v10.22H195.22V335.32Zm-8-32.14v9.9H203v-9.9Z"/>
    <path class="cls-1" d="M303.61,304.66a10.59,10.59,0,0,0,4.56-1l5.34,4.57c-1.16,1.92-5.08,10.73-6.56,14-9.9,22.24-24.17,29.38-29.83,32.21-1.09-1.42-2.89-3.54-8.29-7.33a59.06,59.06,0,0,0,20.89-15.24c5.21-6.3,8.17-14.08,9.58-18H283.23a88.29,88.29,0,0,1-14.46,16.46c-3.48-3.66-4.76-5-7.85-6.94C276.54,310.18,280.59,298.87,282,295l9.26,4.5c.25.13.83.45.83,1s-.9.83-1.54.9c-1,2-1.22,2.5-1.67,3.28Z"/>
    <path class="cls-1" d="M337.62,345.16v3.27h-10.8V302.6h49.37v45.83H365.52v-3.27Zm27.9-9.52V312.18h-27.9v23.46Z"/>
    <path class="cls-1" d="M443.94,306.52c-15.88-.26-29.63,14-29.63,24.43,0,7.46,9.45,11.12,18.19,11.31a87.2,87.2,0,0,0-4.82,11.7C422.47,352.55,404,347.41,404,332c0-11.89,9.19-20.44,11.83-22.11A174.52,174.52,0,0,0,389.24,314l-1.48-12.09a208.21,208.21,0,0,0,28.61-1.48c9.32-1,19.73-2.76,25.77-4.69Zm-10.67,9.13a39.72,39.72,0,0,1,6,6.88c-1.8,1.28-2.7,2-4.95,3.85a52.27,52.27,0,0,0-5.72-7.26Zm6.75-4.57a40.74,40.74,0,0,1,5.72,6.75c-1.6,1.23-2.7,2.19-4.69,4a47.64,47.64,0,0,0-5.72-7.26Z"/>
    <path class="cls-1" d="M491.26,318.09v-8.23h2.25c0-7.71,0-10.15-.07-15.17l8.17.52c.83.06,1.67.13,1.67,1,0,.64-.71,1-1.67,1.29.06,1.92-.13,10.6-.13,12.4h8.35c0,8.94-.57,28.87-2.63,36.58-1.86,7.2-6.81,7.46-10.74,7.65a16,16,0,0,0-2.31-6.43,73,73,0,0,1-4,6.43,23.15,23.15,0,0,0-7.2-4.31,19,19,0,0,0,1.74-1.92c-1.93.19-13.82,1.28-16.33,1.47-.45.78-.83,1.55-1.73,1.55s-1.1-.77-1.23-1.61l-.9-6c1.87.06,7.72-.26,9.9-.39v-2.38H466v-5.53h8.42v-2.05h-8.93v-19h8.93v-2.06h-9.06v-5.85h9.06v-1.8c-1.35.13-3.08.26-6.17.45a15.55,15.55,0,0,0-1.54-3.79,66.94,66.94,0,0,1-4,8.36c1.23.45,1.93.77,1.93,1.28,0,.32-.64.77-1.15,1V354h-8.43V321.5a40.45,40.45,0,0,1-2.57,3.21c-1.41-3.66-2.5-6-4.56-7.9a62,62,0,0,0,12-22.25l8.67,3.67c8.1-.39,15.37-2,18.26-3.28l3.67,5.85a2,2,0,0,1,.32.9.73.73,0,0,1-.77.83,2.49,2.49,0,0,1-1.55-.64,61.72,61.72,0,0,1-7.39,1.42v2.63h9.13v5.85H481.1v2.06H490v19H481.1v2.05H489v5.53H481.1v1.93a56.64,56.64,0,0,0,7.26-.77l-.25,1.29c4.43-8.17,5.14-21.41,5.27-24.82ZM472,321.24h2.44v-2.57H472Zm2.44,4.37H472v2.45h2.44Zm6.69-4.37h2.44v-2.57H481.1Zm2.44,4.37H481.1v2.45h2.44Zm17.17-7.52c-.13,6.56-1,17.87-5.66,27.84,3.21,0,4.05.06,4.95-1.61,1.74-3.09,2.44-19.16,2.44-26.23Z"/>
    <path class="cls-1" d="M561.58,300.16c.39.32.65.58.65,1a.68.68,0,0,1-.77.71,3.79,3.79,0,0,1-1.1-.26c-1.28,1.22-11.76,9.39-14,11.25-2.95,2.51-6.55,5.59-8.93,7.71-2.06,1.87-2.25,2.13-2.25,2.64s.26.84,2.76,2.25c.2.13,6.11,4.05,11.89,8.49,7.27,5.59,10.36,8.87,13.31,12.6a40.52,40.52,0,0,0-7.39,8.67c-2.83-4.17-13.44-15.36-32.4-27.64a4.49,4.49,0,0,1-2.19-3.79c0-1.67.26-2.44,6.75-7.59a170.41,170.41,0,0,0,24.5-23.07Z"/>
    <path class="cls-1" d="M594.18,353.51h-9.32V325.68c-.39.45-.84.9-1.23,1.35a27.56,27.56,0,0,0-7.13-6.17,52,52,0,0,0,9.64-15A55.89,55.89,0,0,0,590,294.5l8.93,2.76c.45.13.9.39.9.9s-1,.9-1.54,1.1a120.8,120.8,0,0,1-4.69,12.21c.9.26,1.48.45,1.48,1,0,.38-.32.71-.9,1.16Zm27.58-47h14.78v32H627v-2.12h-5.27v17.16h-9.58V336.35H607.1v2.12h-9.39v-32h14.47V294.88l9.58.33c.45,0,1.41,0,1.41.64,0,.39-.64.9-1.41,1.22Zm-9.58,8.42H607.1v13h5.08Zm9.58,13H627v-13h-5.27Z"/>
    <path class="cls-1" d="M671.19,296v22.37H653.77v35.29h-9V296Zm-8.81,8.29v-2.64h-8.61v2.64Zm-8.61,5V312h8.61v-2.71Zm13.76,37.42v2.06h-8.36V321.5H687v23.08a30.32,30.32,0,0,0,3.54.32c1.67,0,1.74-.64,1.74-2.25v-24.3H674.53V296H701v49.95c0,6.49-2.25,7.58-11.89,8.16a21.78,21.78,0,0,0-2.19-7.39Zm11.12-15.62v-2.83H667.53v2.83Zm-11.12,6V340h11.12v-2.89ZM692,304.27v-2.64h-8.55v2.64Zm-8.55,5V312H692v-2.71Z"/>
    <path class="cls-1" d="M738.24,297.26c.58.13,1.29.39,1.29,1s-.9.84-1.42.84c-.26,1-1.35,5.59-1.61,6.49a41,41,0,0,0,10.68-3.15l1.09,10.09c-2,.65-5.66,1.74-14.53,3a155.14,155.14,0,0,1-16.84,37.61,66.77,66.77,0,0,0-9.71-4.88c5.4-6.75,12.15-19.1,15.88-31.18-3.92.32-4.69.32-11.77.38L710.47,307c1.93.13,4.18.26,7.46.26,2.89,0,4.82-.07,7.65-.26.9-4.82,1.35-9,1.73-12.15Zm4.82,38.7c-1.6,2.06-1.73,3.28-1.73,3.8a1.75,1.75,0,0,0,1.15,1.67c1.35.77,5.08,1.09,8.62,1.09a46.65,46.65,0,0,0,14.14-2.12,28,28,0,0,0-.45,5,45.78,45.78,0,0,0,.39,5.34,78.18,78.18,0,0,1-13.31,1.09c-8.42,0-19.61-1.22-19.61-10.35,0-2.51.58-4.56,2.51-8.42Zm-3-18.19a82.2,82.2,0,0,1,14.21-1.16,45.75,45.75,0,0,1,9.45.71c-.39,4.76-.45,5.79-.52,10.09a37.58,37.58,0,0,0-9.64-1.15,118.1,118.1,0,0,0-13.5,1.15Z"/>
    <path class="cls-1" d="M803.1,296.68c.52.13,1.23.39,1.23,1,0,.39-.33.84-1.42.9-1.41,4.38-1.54,4.82-1.86,5.79,7.13-1.09,14.2-2.44,21-5.08.33,2.12,1.16,7,1.8,9.58a111.19,111.19,0,0,1-26.29,5.46c-1.54,4.25-2.06,5.53-3.34,8.68a38,38,0,0,1,16.71-4.37c17.17,0,18.07,12.09,18.07,15.3a15.9,15.9,0,0,1-6.88,13c-3.41,2.31-9.84,6.17-27.64,6.17-2.7,0-4.57-.2-6-.32a45.07,45.07,0,0,0-2.38-9.58,95.31,95.31,0,0,0,9.58.58c1.48,0,12.47,0,19.09-3.93a6.52,6.52,0,0,0,3.47-6c0-3.73-1.93-6.88-7.84-6.88-5.66,0-14.72,2.9-22.24,10.74l-9.26-4.63c4.63-6.94,8.1-16.71,8.55-18.06-5.59.06-10-.2-12.47-.39l-.13-10.54c4.18,1,7.84,1.41,15.56,1.41a87,87,0,0,0,2.44-11.38Z"/>
  </g>
</svg>
