<svg xmlns="http://www.w3.org/2000/svg" width="960" height="480" viewBox="0 0 960 480">
  <defs>
    <style>
      .cls-1 {
        fill: #fff;
      }
    </style>
  </defs>
  <title>main_title_pc</title>
  <g id="レイヤー_1" data-name="レイヤー 1">
    <g>
      <path class="cls-1" d="M64.63,56.7a19.61,19.61,0,0,1-9.07-2.16,23.6,23.6,0,0,1-7.41-5.94,29.18,29.18,0,0,1-5-8.88,31.41,31.41,0,0,1-1.87-10.86,31.08,31.08,0,0,1,1.87-10.8,29.21,29.21,0,0,1,5-8.82,24.46,24.46,0,0,1,7.41-6A19.24,19.24,0,0,1,64.63,1h24.8a19.54,19.54,0,0,1,9.12,2.22,24.39,24.39,0,0,1,7.46,6A28.67,28.67,0,0,1,111,18a31.53,31.53,0,0,1,1.81,10.8A32.24,32.24,0,0,1,111,39.72a28.45,28.45,0,0,1-5,8.88,23.52,23.52,0,0,1-7.46,5.94,20.07,20.07,0,0,1-9.12,2.16Zm0-39a7.77,7.77,0,0,0-3.63.9A9.7,9.7,0,0,0,58,21a12,12,0,0,0-2,3.54,12.82,12.82,0,0,0,0,8.64,12,12,0,0,0,2,3.54,9.7,9.7,0,0,0,3,2.4,7.77,7.77,0,0,0,3.63.9h24.8a7.62,7.62,0,0,0,3.68-.9,10.66,10.66,0,0,0,5-5.94,13.73,13.73,0,0,0,0-8.64,10.66,10.66,0,0,0-5-5.94,7.62,7.62,0,0,0-3.68-.9Z"/>
      <path class="cls-1" d="M112.11,122.82H64.63a19.61,19.61,0,0,1-9.07-2.16,23.6,23.6,0,0,1-7.41-5.94,29.18,29.18,0,0,1-5-8.88,31.92,31.92,0,0,1,0-21.64,29.21,29.21,0,0,1,5-8.82,24.46,24.46,0,0,1,7.41-6,19.22,19.22,0,0,1,9.07-2.22h47.48V83.82H64.63a7.77,7.77,0,0,0-3.63.9,9.7,9.7,0,0,0-3,2.4,12,12,0,0,0-2,3.54,12.82,12.82,0,0,0,0,8.64,12,12,0,0,0,2,3.54,9.7,9.7,0,0,0,3,2.4,7.77,7.77,0,0,0,3.63.9h47.48Z"/>
      <path class="cls-1" d="M42,190.62V173.94l23.39-9.36v-13H42V134.94h70.16v27.84a32.12,32.12,0,0,1-1.82,10.86,28.45,28.45,0,0,1-5,8.88,23.41,23.41,0,0,1-7.46,5.94,20.07,20.07,0,0,1-9.12,2.16q-11.19,0-18.65-11Zm37.4-39v11.16a12.34,12.34,0,0,0,.75,4.38,13,13,0,0,0,2,3.54,8.76,8.76,0,0,0,3,2.4,8.26,8.26,0,0,0,7.26,0,8.76,8.76,0,0,0,3-2.4,12.77,12.77,0,0,0,2-3.54,12.14,12.14,0,0,0,.76-4.38V151.62Z"/>
    </g>
    <g>
      <path class="cls-1" d="M302.3,263H277.38V211.08l-12.46,31.1H244.45L232,211.08V263H207.25V158.9H232l22.79,57.26,22.6-57.26H302.3Z"/>
      <path class="cls-1" d="M319.92,263V158.9h24.75V263Z"/>
      <path class="cls-1" d="M382.22,234.85a16.67,16.67,0,0,0,6,6.21,15.93,15.93,0,0,0,8.27,2.17,14.06,14.06,0,0,0,8.9-2.92,8.58,8.58,0,0,0,3.74-6.95,8,8,0,0,0-1.69-5.31,11.53,11.53,0,0,0-4.72-3.22L381,216.16q-10.68-4.33-16.11-11.36A25.27,25.27,0,0,1,359.44,189a26,26,0,0,1,2.94-12.11,31.13,31.13,0,0,1,8-9.87,39.72,39.72,0,0,1,11.83-6.65,42.18,42.18,0,0,1,14.6-2.47,43.59,43.59,0,0,1,22.07,5.61,37.5,37.5,0,0,1,14.95,15.47l-23,8.08a15.37,15.37,0,0,0-5.78-6.21,16,16,0,0,0-8.28-2.17,14,14,0,0,0-8.9,2.92,8.61,8.61,0,0,0-3.74,6.95,8.18,8.18,0,0,0,1.69,5.08,10.55,10.55,0,0,0,4.72,3.44l21.72,8.68q21.53,8.67,21.53,27.21a26.39,26.39,0,0,1-2.93,12.26,31.41,31.41,0,0,1-8,9.87A38.66,38.66,0,0,1,411,261.62,44.35,44.35,0,0,1,396.29,264a43.1,43.1,0,0,1-21.9-5.53,38.36,38.36,0,0,1-14.95-15.55Z"/>
      <path class="cls-1" d="M467.84,234.85a16.73,16.73,0,0,0,6,6.21,15.94,15.94,0,0,0,8.28,2.17,14.06,14.06,0,0,0,8.9-2.92,8.61,8.61,0,0,0,3.74-6.95,8,8,0,0,0-1.69-5.31,11.53,11.53,0,0,0-4.72-3.22l-21.72-8.67q-10.68-4.33-16.11-11.36A25.27,25.27,0,0,1,445.05,189,26,26,0,0,1,448,176.84a31.41,31.41,0,0,1,8-9.87,39.77,39.77,0,0,1,11.84-6.65,42.14,42.14,0,0,1,14.6-2.47,43.61,43.61,0,0,1,22.07,5.61,37.56,37.56,0,0,1,15,15.47l-23,8.08a15.46,15.46,0,0,0-5.79-6.21,15.93,15.93,0,0,0-8.27-2.17,14,14,0,0,0-8.91,2.92,8.6,8.6,0,0,0-3.73,6.95,8.18,8.18,0,0,0,1.69,5.08,10.49,10.49,0,0,0,4.72,3.44l21.71,8.68q21.54,8.67,21.54,27.21a26.28,26.28,0,0,1-2.94,12.26,31.41,31.41,0,0,1-8,9.87,38.61,38.61,0,0,1-11.92,6.58A44.41,44.41,0,0,1,481.9,264,43.06,43.06,0,0,1,460,258.48a38.38,38.38,0,0,1-15-15.55Z"/>
      <path class="cls-1" d="M534.05,263V158.9h24.74V263Z"/>
      <path class="cls-1" d="M656.87,229.32a29.3,29.3,0,0,1-3.2,13.46,35.18,35.18,0,0,1-8.81,11,43.43,43.43,0,0,1-13.17,7.47A46.46,46.46,0,0,1,615.58,264a45.63,45.63,0,0,1-16-2.77,43.61,43.61,0,0,1-13.09-7.47,36.5,36.5,0,0,1-8.9-11,28.65,28.65,0,0,1-3.29-13.46V192.54A29,29,0,0,1,577.57,179a36.09,36.09,0,0,1,8.9-11.07,42.62,42.62,0,0,1,13.09-7.4,47,47,0,0,1,16-2.69,47.87,47.87,0,0,1,16.11,2.69,42.46,42.46,0,0,1,13.17,7.4A34.81,34.81,0,0,1,653.67,179a29.68,29.68,0,0,1,3.2,13.53Zm-57.85,0a11.38,11.38,0,0,0,1.34,5.38,14.31,14.31,0,0,0,3.56,4.41,17.25,17.25,0,0,0,5.25,3,18.72,18.72,0,0,0,12.81,0,17.42,17.42,0,0,0,5.26-3,14.45,14.45,0,0,0,3.56-4.41,11.37,11.37,0,0,0,1.33-5.38V192.54a11.31,11.31,0,0,0-1.33-5.46,15.73,15.73,0,0,0-8.82-7.4,20.06,20.06,0,0,0-12.81,0,15.75,15.75,0,0,0-8.81,7.4,11.32,11.32,0,0,0-1.34,5.46Z"/>
      <path class="cls-1" d="M697.1,263H672.36V158.9H697.1l33.11,61.9V158.9H755V263H730.21l-33.11-61.9Z"/>
    </g>
    <g>
      <path class="cls-1" d="M58.9,352.74H50V337a51.35,51.35,0,0,1-5.21,7.39,20.32,20.32,0,0,0-7.59-5.59c5.4-5.91,9.26-11.57,11.77-20.12H40.25v-8.74H50v-4.76c-4.18.71-5.47.83-7.59,1.09-.51-1-2.12-4.24-2.64-5a22.85,22.85,0,0,0-1.67-2.32c10.22-1.28,15.88-2.5,23.53-5.91L67.9,300a1,1,0,0,1,.38.77c0,.45-.51.52-.83.52a3.63,3.63,0,0,1-1.42-.32,54.77,54.77,0,0,1-7.13,2.31v6.69h9v8.74H60.31c1.86,3.08,4.82,7.46,8.42,10.28a26.77,26.77,0,0,0-5.53,6.69,57.14,57.14,0,0,1-4.3-5.14Zm26.35-56c.33.06.71.19.71.7s-.71,1-1.61,1.42c-4.5,23.53-7.58,36.19-8.87,41,4.37-.64,6.69-1,12.28-2.05A82.3,82.3,0,0,0,81,322.08l9.32-2.7c4.76,8.1,10,23.72,10.61,28.86a54.91,54.91,0,0,0-9.71,3.41c-.2-.9-1-4.95-1.09-5.79-3.93.84-21.35,3.92-24.88,4.57-.32.64-.84,1.67-1.67,1.67s-.91-.84-1-1.29l-1.48-9.19c2.32-.26,3.47-.32,5.59-.58,2.06-8.36,7.14-33.11,8.23-46.48Z"/>
      <path class="cls-1" d="M123.63,317.64v21.09c0,6.17,5.27,6.17,19.16,6.17a183.28,183.28,0,0,0,25-1.29c-1.87,3.34-2.7,5.21-3,8.81h-29.7c-9.06,0-13.18-1.93-16.52-5.27a28.48,28.48,0,0,1-6.69,4.3c0,.2.07.45.07.71,0,.84-.45,1.29-1,1.29s-.84-.39-1.16-1l-4.5-8.81A21.5,21.5,0,0,0,114,340V326h-6.11v-8.36Zm-10.22-23.59a50.62,50.62,0,0,1,10.16,8.87,29.43,29.43,0,0,0-6.62,6.43,62.24,62.24,0,0,0-9.78-9.19Zm36.39,31h10.86V331H149.8v2.5h16.07v6.37H149.8v3.6h-9.39v-3.6H126.14v-6.37h14.27V331H129.67V325h10.74v-2.5H127.94v-6.62h5.46c-.45-1-1-2.13-1.28-2.58l3.92-.77H125.43V306h15v-2.31H127.94v-6.56h12.47v-3.85l9.51.38c1,.07,1.87.26,1.87,1s-.71,1-2,1.47v1h12.79v6.56H149.8V306h16.32v6.56h-11l2.83.26c.84.06,1.48.13,1.48.77s-.77.77-1.35.84a12,12,0,0,1-.51,1.48h5.2v6.62h-13Zm-1.42-9.12a20.68,20.68,0,0,0,1.22-3.35H141c.58,1.22.84,2,1.16,2.83l-2.64.52Z"/>
      <path class="cls-1" d="M202.32,341.81c14-2.57,18.06-13.37,18.06-20.06,0-5.2-2.76-14.78-14.85-15.75-2,23.53-11.7,41.08-18.51,41.08-5,0-14.34-8.48-14.34-20.38,0-13.82,12.6-29.95,31.5-29.95,14.08,0,26.36,9.58,26.36,24.94,0,3-.26,11.19-7.59,19.86-3.92,4.57-8.48,6.95-13.95,9.33A41.67,41.67,0,0,0,202.32,341.81ZM182.2,325.93c0,4.95,2.76,8.68,4.11,8.68,1.54,0,2.76-2.89,3.47-4.56a56.09,56.09,0,0,0,4.95-22.12C187.27,310.7,182.2,320.15,182.2,325.93Z"/>
      <path class="cls-1" d="M289.94,299.7a.8.8,0,0,1,.51.71c0,.58-.7.84-1.8.9a75.12,75.12,0,0,1-6.43,8.36h13.37v7.71H274.45c-1.48,1.22-2.7,2.25-5.41,4.25,1.8-.26,10.61-1.48,15.11-3.8l5.27,6.37c.26.32.58.64.58.83,0,.39,0,.84-.83.84a7.83,7.83,0,0,1-2.25-.77A163.26,163.26,0,0,1,260.37,329c-.26.65-.39,1.16-.65,2h30.09c-1.48,9.38-4.5,15.75-6.81,18.58-3.09,3.72-7.59,3.79-15.3,3.79a29.51,29.51,0,0,0-3.35-8.94,31.34,31.34,0,0,0,7.33,1c3.86,0,5.53-.2,7.39-6.62H257c-.51,1.41-1,2.57-2.18,5.65a21.86,21.86,0,0,0-8.74-2.18,98.69,98.69,0,0,0,4.11-9.9c-1.61.7-3.6,1.54-8,3.21a33.84,33.84,0,0,0-6.81-7,77.52,77.52,0,0,0,18.13-6.3c.26-.89.38-1.47.58-2.44l2.18,1c1.42-.84,3.35-2,5.53-3.41H236.65v-7.71h21.27v-3.34H243.65v-7.07h14.6v-5.79l10,.64c.52.07,1.1.13,1.1.71s-.39.84-1.55,1.35v3.09h7.85v5.2a60,60,0,0,0,5.78-9.26Zm-22.12,6.63v3.34h3.28c1.67-1.74,2.51-2.7,3.09-3.34Z"/>
      <path class="cls-1" d="M347.34,312.24c-10.92,9.58-13.5,12.73-14.78,14.21a3.46,3.46,0,0,1,1.48-.26,5,5,0,0,1,5.27,4.63c0,1.28-1,6.94-1,8.1,0,3.21,1.61,3.66,4.18,3.66a43.58,43.58,0,0,0,14.6-2.44,90.78,90.78,0,0,0,.32,10.29,92.92,92.92,0,0,1-16,1.6c-11.51,0-12.86-4.5-12.86-8,0-1,.32-5.4.32-6.3,0-.51,0-2.83-1.6-2.83-2.19,0-6.11,4.7-16.52,16.91l-8.17-7.26a248,248,0,0,0,25.2-26.88,101.52,101.52,0,0,1-19,3.35L307,311c2.12.07,3.15.07,4.5.07,10.54,0,23.78-2.57,29.57-5.85Zm-29.7-18.19a59.42,59.42,0,0,0,17.17,2.18,36.94,36.94,0,0,0,4.56-.19,43.06,43.06,0,0,0-1.09,9.32c-.77.07-1.67.13-3,.13a100.66,100.66,0,0,1-18.51-1.61Z"/>
      <path class="cls-1" d="M408.09,301.57c-4.37,2.89-14.33,12.86-15.75,14.34a34.76,34.76,0,0,1,7.72-1c8.74,0,17.74,5.53,17.74,16.91,0,14.14-13.43,20.31-24.56,20.31-8.29,0-16.32-3.28-16.32-11.06,0-6.36,5.91-10.28,12.6-10.28,6,0,12.34,3.41,13.82,9.45,4.24-2.12,4.24-7.07,4.24-7.59,0-1.54-.51-9.38-10.48-9.38-10.86,0-17,6.36-26,15.68l-7.71-7.52c7.39-5.14,21.72-19.28,26-25-2.06.46-4.24,1-17.1,2.25l-1.54-10.09c2.51.07,21.08.26,32.14-4.05Zm-19.35,37.28c-2.18,0-2.7,1.23-2.7,2.32,0,2.44,3.6,3.41,5.79,3.41a10.64,10.64,0,0,0,3.21-.52A6.31,6.31,0,0,0,388.74,338.85Z"/>
      <path class="cls-1" d="M461.64,295.08l10.87.58c.51,0,1,.19,1,.64a1.3,1.3,0,0,1-1,1.15v10.48h11.18v10H472.44c-.32,9.71-1.41,12.86-2,14.53-3,8.49-10.16,16.65-19,20.19a30.56,30.56,0,0,0-7.91-8c11.25-4,15-11.57,15.75-13.24,1.86-4.18,2.06-8.29,2.31-13.5H450.52V332.3H440.11V318H427.89v-10h12.22V295.46l10.09.58c.58.06,1.35.06,1.35.77,0,.45-.51.71-1,1v10.09h11.12Z"/>
      <path class="cls-1" d="M498,308.13v-9.65h32.85a18,18,0,0,0,4.43-.51l5,5.46a19.58,19.58,0,0,0-2.44,4.12,110.31,110.31,0,0,1-8.17,15.75c2.7,2.05,14.47,11.83,19.29,17.61-2.12,2.44-5.6,6.3-7.72,8.74A88.46,88.46,0,0,0,524,331.33c-6.17,7.4-16.26,15.69-24.69,19.22a28.62,28.62,0,0,0-7.32-8.8,54.09,54.09,0,0,0,20.89-12.86c7.33-7.07,10-13.37,12.86-20.76Z"/>
      <path class="cls-1" d="M556.91,322.65v-9.19h55v9.19h-21c-.26,7-1.61,14.15-7.26,20.45a31.31,31.31,0,0,1-14,9.13,31.51,31.51,0,0,0-7.71-8c14.59-4,18.51-12.21,18.64-21.6Zm46.16-25.84v9.32h-37v-9.32Z"/>
      <path class="cls-1" d="M646,295l10.87.39c.58,0,1.35.06,1.35.77s-1,1.09-1.35,1.22v11.44h20.18v9.58H656.81c-.64,10.87-4.63,25-22.56,34.07a37,37,0,0,0-8.17-7.78c18.78-8.16,19.42-19.28,19.87-26.29H621.2v-9.58H646Z"/>
      <path class="cls-1" d="M736.78,311.85c.39.33.78.65.78,1a1,1,0,0,1-1,.77,8.3,8.3,0,0,1-1.28-.19c-8.62,5.14-23.15,10.67-33.37,12.15v10.22c0,4.76,1.54,4.76,12.54,4.76a173.11,173.11,0,0,0,23.72-1.29,43,43,0,0,0-1.35,10.29c-2.32.12-5.59.32-11.44.32-25.78,0-27-.71-29.77-2.25-3.73-2.06-4.24-5.79-4.24-10.74V295.33l10.54.65c.77.06,1.29.06,1.29.64s-.65,1-1.29,1.41v18.2c7-1.48,18.39-5.15,26.36-11.45ZM732,296.94a61.44,61.44,0,0,1,6.56,6.3c-.39.32-2.83,2.44-4.18,3.67-.9-.84-4.05-4-6.88-6.18Zm6-5a50.17,50.17,0,0,1,6.49,6.3c-1.15,1-3.15,2.83-4.3,3.92a76.55,76.55,0,0,0-6.69-6.43Z"/>
      <path class="cls-1" d="M765.26,296.23c.77,0,1.22.07,1.22.65s-.77,1-1.22,1.22v31.43H754.53V295.91Zm29.44-1.15c.65,0,1.23.12,1.23.64,0,.77-.78,1.09-1.23,1.29V318c0,7-1.22,14.08-5.14,19.87C786,343,778.89,350,770.08,352.68a18.43,18.43,0,0,0-6.68-8.23c20.12-7,20.5-19.87,20.5-26.42V294.69Z"/>
      <path class="cls-1" d="M806.34,322.65v-9.19h55v9.19h-21c-.26,7-1.61,14.15-7.27,20.45a31.33,31.33,0,0,1-14,9.13,31.38,31.38,0,0,0-7.72-8c14.6-4,18.52-12.21,18.65-21.6Zm46.16-25.84v9.32h-37v-9.32Z"/>
      <path class="cls-1" d="M898.14,351h-9.52V328.63a78.3,78.3,0,0,1-13,6.5,30.58,30.58,0,0,0-6.43-7.59c8.74-2.89,21.73-7.84,34.46-23.27l7.52,6c.26.25.51.45.51.77,0,.51-.58.51-.9.51a3.38,3.38,0,0,1-.77-.06,97.71,97.71,0,0,1-11.89,10.8Z"/>
    </g>
  </g>
</svg>
