<svg id="レイヤー_3" data-name="レイヤー 3" xmlns="http://www.w3.org/2000/svg" width="650" height="650" viewBox="0 0 650 650">
  <defs>
    <style>
      .cls-1 {
        fill: #fff;
      }
    </style>
  </defs>
  <title>main_title_sp</title>
  <g>
    <path class="cls-1" d="M64.4,56.89a19.61,19.61,0,0,1-9.07-2.16,23.6,23.6,0,0,1-7.41-5.94,29.18,29.18,0,0,1-5-8.88A31.7,31.7,0,0,1,41,29.05a30.84,30.84,0,0,1,1.86-10.8,29.21,29.21,0,0,1,5-8.82,24.46,24.46,0,0,1,7.41-6A19.22,19.22,0,0,1,64.4,1.21H89.2a19.54,19.54,0,0,1,9.12,2.22,24.1,24.1,0,0,1,7.46,6,28.67,28.67,0,0,1,5,8.82,31.53,31.53,0,0,1,1.81,10.8,32.12,32.12,0,0,1-1.81,10.86,28.45,28.45,0,0,1-5,8.88,23.41,23.41,0,0,1-7.46,5.94,20.07,20.07,0,0,1-9.12,2.16Zm0-39a7.77,7.77,0,0,0-3.63.9,9.7,9.7,0,0,0-3,2.4,12,12,0,0,0-2,3.54,12.82,12.82,0,0,0,0,8.64,12,12,0,0,0,2,3.54,9.7,9.7,0,0,0,3,2.4,7.77,7.77,0,0,0,3.63.9H89.2a7.62,7.62,0,0,0,3.68-.9,10.66,10.66,0,0,0,5-5.94,13.73,13.73,0,0,0,0-8.64,10.66,10.66,0,0,0-5-5.94,7.62,7.62,0,0,0-3.68-.9Z"/>
    <path class="cls-1" d="M111.88,123H64.4a19.61,19.61,0,0,1-9.07-2.16,23.6,23.6,0,0,1-7.41-5.94,29.18,29.18,0,0,1-5-8.88A31.64,31.64,0,0,1,41,95.17a30.84,30.84,0,0,1,1.86-10.8,29.21,29.21,0,0,1,5-8.82,24.46,24.46,0,0,1,7.41-6,19.25,19.25,0,0,1,9.07-2.22h47.48V84H64.4a7.77,7.77,0,0,0-3.63.9,9.7,9.7,0,0,0-3,2.4,12,12,0,0,0-2,3.54,12.82,12.82,0,0,0,0,8.64,12,12,0,0,0,2,3.54,9.7,9.7,0,0,0,3,2.4,7.77,7.77,0,0,0,3.63.9h47.48Z"/>
    <path class="cls-1" d="M41.72,190.81V174.13l23.39-9.36v-13H41.72V135.13h70.16V163a32.12,32.12,0,0,1-1.82,10.86,28.45,28.45,0,0,1-5,8.88,23.41,23.41,0,0,1-7.46,5.94,20.07,20.07,0,0,1-9.12,2.16q-11.19,0-18.65-11Zm37.4-39V163a12.34,12.34,0,0,0,.75,4.38,13,13,0,0,0,2,3.54,8.76,8.76,0,0,0,3,2.4,8.26,8.26,0,0,0,7.26,0,8.76,8.76,0,0,0,3-2.4,12.77,12.77,0,0,0,2-3.54,12.14,12.14,0,0,0,.76-4.38V151.81Z"/>
  </g>
  <g>
    <path class="cls-1" d="M176.66,367.82H155.94V324.68l-10.36,25.86h-17L118.2,324.68v43.14H97.63V281.29H118.2l19,47.62,18.79-47.62h20.72Z"/>
    <path class="cls-1" d="M191.31,367.82V281.29h20.58v86.53Z"/>
    <path class="cls-1" d="M243.11,344.45a13.92,13.92,0,0,0,5,5.16,13.23,13.23,0,0,0,6.88,1.8,11.7,11.7,0,0,0,7.4-2.42,7.15,7.15,0,0,0,3.11-5.78,6.69,6.69,0,0,0-1.4-4.42,9.57,9.57,0,0,0-3.93-2.67l-18-7.21q-8.88-3.6-13.4-9.45a21,21,0,0,1-4.51-13.18,21.61,21.61,0,0,1,2.44-10.07,26.11,26.11,0,0,1,6.66-8.2,33.2,33.2,0,0,1,9.84-5.54,35.36,35.36,0,0,1,12.14-2.05,36.24,36.24,0,0,1,18.35,4.67A31.16,31.16,0,0,1,286,298l-19.09,6.72a12.78,12.78,0,0,0-4.81-5.16,13.23,13.23,0,0,0-6.88-1.81,11.65,11.65,0,0,0-7.4,2.43,7.15,7.15,0,0,0-3.11,5.78,6.86,6.86,0,0,0,1.41,4.23,8.85,8.85,0,0,0,3.92,2.86l18.06,7.21q17.89,7.2,17.9,22.62a21.86,21.86,0,0,1-2.44,10.2,26.11,26.11,0,0,1-6.66,8.2A31.89,31.89,0,0,1,267,366.7a36.7,36.7,0,0,1-12.21,2,35.82,35.82,0,0,1-18.21-4.6,31.87,31.87,0,0,1-12.43-12.93Z"/>
    <path class="cls-1" d="M314.3,344.45a13.77,13.77,0,0,0,5,5.16,13.2,13.2,0,0,0,6.88,1.8,11.7,11.7,0,0,0,7.4-2.42,7.18,7.18,0,0,0,3.11-5.78,6.64,6.64,0,0,0-1.41-4.42,9.53,9.53,0,0,0-3.92-2.67l-18.06-7.21q-8.88-3.6-13.39-9.45a21,21,0,0,1-4.51-13.18,21.61,21.61,0,0,1,2.44-10.07,26.11,26.11,0,0,1,6.66-8.2,33.2,33.2,0,0,1,9.84-5.54,35.32,35.32,0,0,1,12.14-2.05,36.27,36.27,0,0,1,18.35,4.67A31.23,31.23,0,0,1,357.22,298l-19.09,6.72a12.84,12.84,0,0,0-4.81-5.16,13.26,13.26,0,0,0-6.88-1.81,11.63,11.63,0,0,0-7.4,2.43,7.13,7.13,0,0,0-3.11,5.78,6.91,6.91,0,0,0,1.4,4.23,8.94,8.94,0,0,0,3.93,2.86l18.05,7.21q17.91,7.2,17.91,22.62a21.86,21.86,0,0,1-2.44,10.2,26.11,26.11,0,0,1-6.66,8.2,31.83,31.83,0,0,1-9.92,5.47,36.7,36.7,0,0,1-12.21,2,35.78,35.78,0,0,1-18.2-4.6,31.87,31.87,0,0,1-12.43-12.93Z"/>
    <path class="cls-1" d="M369.35,367.82V281.29h20.58v86.53Z"/>
    <path class="cls-1" d="M471.47,339.85A24.22,24.22,0,0,1,468.81,351a29.18,29.18,0,0,1-7.33,9.13,35.83,35.83,0,0,1-11,6.22,38.76,38.76,0,0,1-13.39,2.3,38.12,38.12,0,0,1-13.32-2.3,36.06,36.06,0,0,1-10.88-6.22,30,30,0,0,1-7.4-9.13,23.68,23.68,0,0,1-2.74-11.19V309.27A24.11,24.11,0,0,1,405.54,298a29.9,29.9,0,0,1,7.4-9.2,35.28,35.28,0,0,1,10.88-6.15,39,39,0,0,1,13.32-2.24,39.7,39.7,0,0,1,13.39,2.24,35.07,35.07,0,0,1,11,6.15,29.11,29.11,0,0,1,7.33,9.2,24.65,24.65,0,0,1,2.66,11.26Zm-48.1,0a9.46,9.46,0,0,0,1.11,4.47,12.07,12.07,0,0,0,3,3.67,14.57,14.57,0,0,0,4.37,2.49,15.74,15.74,0,0,0,10.66,0,14.52,14.52,0,0,0,4.36-2.49,12.07,12.07,0,0,0,3-3.67,9.46,9.46,0,0,0,1.11-4.47V309.27a9.39,9.39,0,0,0-1.11-4.54,13.25,13.25,0,0,0-3-3.67,13,13,0,0,0-4.36-2.49,16.76,16.76,0,0,0-10.66,0,13,13,0,0,0-4.37,2.49,13.25,13.25,0,0,0-3,3.67,9.39,9.39,0,0,0-1.11,4.54Z"/>
    <path class="cls-1" d="M504.92,367.82H484.35V281.29h20.57l27.53,51.47V281.29H553v86.53H532.45l-27.53-51.47Z"/>
  </g>
  <g>
    <path class="cls-1" d="M145,475.49h-9.67V458.34a55.29,55.29,0,0,1-5.67,8.05c-2.38-2.73-4.13-4.06-8.26-6.09,5.88-6.44,10.08-12.61,12.81-21.92h-9.52v-9.52h10.64v-5.18c-4.55.77-6,.91-8.26,1.19-.56-1.12-2.31-4.62-2.87-5.46a26.18,26.18,0,0,0-1.82-2.52c11.13-1.4,17.3-2.73,25.63-6.44l6.79,7.56a1.09,1.09,0,0,1,.42.84c0,.49-.56.56-.91.56a3.93,3.93,0,0,1-1.54-.35,59.36,59.36,0,0,1-7.77,2.52v7.28h9.8v9.52h-8.26c2,3.36,5.25,8.12,9.17,11.2a29.14,29.14,0,0,0-6,7.29,62.17,62.17,0,0,1-4.69-5.6Zm28.7-61c.35.07.77.21.77.77s-.77,1.05-1.75,1.54c-4.9,25.62-8.26,39.42-9.66,44.67,4.76-.7,7.28-1.12,13.37-2.24a90.45,90.45,0,0,0-7.42-17.16l10.15-2.94c5.18,8.82,10.85,25.84,11.55,31.44a60.72,60.72,0,0,0-10.57,3.71c-.21-1-1.05-5.39-1.19-6.3-4.27.91-23.24,4.27-27.09,5-.35.7-.91,1.82-1.82,1.82s-1-.91-1.05-1.4l-1.61-10c2.52-.28,3.78-.35,6.09-.63,2.24-9.1,7.77-36.06,9-50.62Z"/>
    <path class="cls-1" d="M214.12,437.26v23c0,6.72,5.75,6.72,20.87,6.72a200.38,200.38,0,0,0,27.23-1.4c-2,3.64-2.94,5.67-3.22,9.59H226.66c-9.87,0-14.36-2.1-18-5.74a31.06,31.06,0,0,1-7.28,4.69c0,.21.07.49.07.77,0,.91-.49,1.4-1.12,1.4s-.91-.42-1.26-1.12l-4.9-9.59a23.48,23.48,0,0,0,9.45-3.92V446.36H197v-9.1ZM203,411.57a55.21,55.21,0,0,1,11.06,9.66,32.29,32.29,0,0,0-7.21,7,67.6,67.6,0,0,0-10.64-10Zm39.63,33.74h11.83v6.45H242.62v2.73h17.5v6.93h-17.5v3.92H232.4v-3.92H216.86v-6.93H232.4v-2.73H220.71v-6.45H232.4v-2.73H218.82v-7.21h6c-.49-1.12-1.12-2.31-1.4-2.8l4.27-.84H216.09v-7.14H232.4v-2.52H218.82v-7.14H232.4v-4.2l10.36.42c1.12.07,2,.28,2,1.05s-.77,1.12-2.17,1.61v1.12h13.93v7.14H242.62v2.52H260.4v7.14h-12l3.08.28c.91.07,1.61.14,1.61.84s-.84.84-1.47.91a11.18,11.18,0,0,1-.56,1.61h5.67v7.21H242.62Zm-1.54-9.94a22.5,22.5,0,0,0,1.33-3.64H233c.63,1.33.91,2.17,1.26,3.08l-2.87.56Z"/>
    <path class="cls-1" d="M299.81,463.59c15.19-2.8,19.67-14.57,19.67-21.85,0-5.67-3-16.1-16.17-17.15-2.17,25.62-12.74,44.74-20.17,44.74-5.46,0-15.61-9.24-15.61-22.2,0-15.05,13.72-32.62,34.31-32.62,15.33,0,28.7,10.43,28.7,27.16,0,3.22-.28,12.19-8.26,21.64-4.27,5-9.24,7.56-15.19,10.15A45.39,45.39,0,0,0,299.81,463.59Zm-21.92-17.3c0,5.4,3,9.46,4.48,9.46,1.68,0,3-3.15,3.79-5a61.22,61.22,0,0,0,5.39-24.08C283.43,429.7,277.89,440,277.89,446.29Z"/>
    <path class="cls-1" d="M396.62,417.73a.85.85,0,0,1,.56.77c0,.63-.77.91-2,1a82.24,82.24,0,0,1-7,9.1h14.56V437h-23c-1.61,1.33-2.94,2.45-5.88,4.62,2-.28,11.55-1.61,16.45-4.13l5.74,6.93c.28.35.63.7.63.91,0,.42,0,.91-.91.91a8.41,8.41,0,0,1-2.45-.84,177.76,177.76,0,0,1-28.91,4.2c-.28.71-.42,1.27-.7,2.18h32.76c-1.61,10.22-4.9,17.15-7.42,20.23-3.36,4.06-8.26,4.13-16.66,4.13a31.81,31.81,0,0,0-3.64-9.73,34.42,34.42,0,0,0,8,1.05c4.2,0,6-.21,8.05-7.21h-24c-.56,1.54-1,2.8-2.38,6.16a23.8,23.8,0,0,0-9.53-2.38,106.62,106.62,0,0,0,4.49-10.78c-1.76.77-3.93,1.68-8.76,3.5a36.91,36.91,0,0,0-7.42-7.64,85.23,85.23,0,0,0,19.75-6.86c.28-1,.42-1.61.63-2.66l2.38,1.12c1.54-.91,3.64-2.17,6-3.71H338.58v-8.4h23.18v-3.64H346.21v-7.7h15.9v-6.3l10.92.7c.56.07,1.19.14,1.19.77s-.42.91-1.68,1.47v3.36h8.54v5.67a66,66,0,0,0,6.3-10.08Zm-24.08,7.21v3.64h3.57c1.82-1.89,2.73-2.94,3.36-3.64Z"/>
    <path class="cls-1" d="M459.13,431.38c-11.9,10.43-14.7,13.86-16.1,15.47a3.89,3.89,0,0,1,1.61-.28,5.48,5.48,0,0,1,5.74,5.05c0,1.4-1.05,7.56-1.05,8.82,0,3.5,1.75,4,4.55,4a47.34,47.34,0,0,0,15.89-2.66,99.78,99.78,0,0,0,.35,11.2,100.9,100.9,0,0,1-17.43,1.75c-12.53,0-14-4.9-14-8.68,0-1.12.35-5.88.35-6.86,0-.56,0-3.08-1.75-3.08-2.38,0-6.65,5.11-18,18.41l-8.89-7.91a268.57,268.57,0,0,0,27.45-29.27A111,111,0,0,1,417.12,441l-1.89-11c2.31.07,3.43.07,4.91.07,11.48,0,25.9-2.8,32.2-6.37Zm-32.34-19.81A64.63,64.63,0,0,0,445.48,414a40.44,40.44,0,0,0,5-.21,47,47,0,0,0-1.19,10.15c-.84.07-1.82.14-3.22.14a109.82,109.82,0,0,1-20.16-1.75Z"/>
    <path class="cls-1" d="M523.88,419.76c-4.76,3.15-15.61,14-17.15,15.61a38,38,0,0,1,8.4-1.05c9.52,0,19.32,6,19.32,18.42,0,15.4-14.63,22.12-26.74,22.12-9,0-17.78-3.57-17.78-12,0-6.93,6.44-11.2,13.72-11.2,6.58,0,13.44,3.71,15.05,10.29,4.62-2.31,4.62-7.7,4.62-8.26,0-1.68-.56-10.23-11.41-10.23-11.83,0-18.55,6.93-28.29,17.09l-8.4-8.19c8-5.61,23.67-21,28.36-27.24-2.24.49-4.62,1.05-18.63,2.45l-1.68-11c2.73.07,23,.28,35-4.41Zm-21.07,40.61c-2.38,0-2.94,1.33-2.94,2.52,0,2.66,3.92,3.71,6.3,3.71a11.6,11.6,0,0,0,3.5-.56A6.87,6.87,0,0,0,502.81,460.37Z"/>
    <path class="cls-1" d="M102.69,494.3l11.83.63c.56,0,1,.21,1,.7a1.44,1.44,0,0,1-1,1.26V508.3H126.7v10.92H114.45c-.35,10.57-1.54,14-2.17,15.82-3.22,9.25-11.06,18.14-20.65,22-2.73-4.41-6.86-7.35-8.61-8.68,12.25-4.34,16.31-12.61,17.15-14.43,2-4.55,2.24-9,2.52-14.7H90.58v15.61H79.23V519.22H65.93V508.3h13.3V494.72l11,.63c.63.07,1.47.07,1.47.84,0,.49-.56.77-1.12,1.12v11h12.11Z"/>
    <path class="cls-1" d="M139.5,508.51V498h35.78a19.33,19.33,0,0,0,4.83-.56l5.46,5.95a21.42,21.42,0,0,0-2.66,4.48A120.56,120.56,0,0,1,174,525c2.94,2.24,15.75,12.89,21,19.19-2.31,2.66-6.09,6.86-8.4,9.52a96.21,96.21,0,0,0-18.83-20c-6.72,8.06-17.71,17.09-26.89,20.94-2.66-4.41-4.13-6.37-8-9.59a58.91,58.91,0,0,0,22.76-14c8-7.7,10.85-14.56,14-22.61Z"/>
    <path class="cls-1" d="M200.82,524.33v-10h59.93v10H237.86c-.28,7.63-1.75,15.41-7.91,22.27a34,34,0,0,1-15.27,9.94,34.21,34.21,0,0,0-8.4-8.68c15.9-4.34,20.17-13.31,20.31-23.53Zm50.27-28.14v10.15H210.83V496.19Z"/>
    <path class="cls-1" d="M297.85,494.23l11.83.42c.63,0,1.47.07,1.47.84s-1.12,1.19-1.47,1.33v12.46h22v10.43H309.61c-.7,11.83-5,27.24-24.58,37.11a40.23,40.23,0,0,0-8.89-8.47c20.45-8.89,21.15-21,21.64-28.64h-27V509.28h27Z"/>
    <path class="cls-1" d="M391.09,512.57c.42.35.84.7.84,1a1.07,1.07,0,0,1-1.05.84,9.44,9.44,0,0,1-1.4-.21c-9.38,5.6-25.2,11.62-36.33,13.23v11.14c0,5.18,1.68,5.18,13.65,5.18a187.93,187.93,0,0,0,25.83-1.4,47.4,47.4,0,0,0-1.47,11.2c-2.52.14-6.09.35-12.46.35-28.08,0-29.41-.77-32.42-2.45-4.06-2.24-4.62-6.3-4.62-11.69V494.58l11.49.7c.84.07,1.4.07,1.4.7s-.7,1.12-1.4,1.54v19.81c7.63-1.61,20-5.6,28.7-12.46Zm-5.25-16.24a67.61,67.61,0,0,1,7.14,6.86c-.42.35-3.08,2.66-4.55,4-1-.91-4.41-4.34-7.49-6.72Zm6.51-5.46a55.29,55.29,0,0,1,7.07,6.86c-1.26,1-3.43,3.08-4.69,4.27a83.39,83.39,0,0,0-7.28-7Z"/>
    <path class="cls-1" d="M423.5,495.56c.84,0,1.33.07,1.33.7s-.84,1.12-1.33,1.33v34.23H411.8V495.21Zm32.06-1.26c.7,0,1.33.14,1.33.7,0,.84-.84,1.19-1.33,1.4v22.82c0,7.63-1.33,15.33-5.6,21.64-3.85,5.67-11.62,13.23-21.21,16.17a20.07,20.07,0,0,0-7.28-9c21.91-7.63,22.33-21.64,22.33-28.78V493.88Z"/>
    <path class="cls-1" d="M469.62,524.33v-10h59.93v10H506.66c-.28,7.63-1.75,15.41-7.91,22.27a34,34,0,0,1-15.26,9.94,34.25,34.25,0,0,0-8.41-8.68c15.9-4.34,20.17-13.31,20.31-23.53Zm50.27-28.14v10.15H479.64V496.19Z"/>
    <path class="cls-1" d="M571,555.21H560.63V530.84c-5.81,3.36-9.38,5.33-14.15,7.08a33.18,33.18,0,0,0-7-8.27c9.53-3.15,23.67-8.54,37.53-25.34l8.19,6.51c.28.28.56.49.56.84,0,.56-.63.56-1,.56a3.41,3.41,0,0,1-.84-.07,107.51,107.51,0,0,1-13,11.76Z"/>
  </g>
</svg>
