<svg xmlns="http://www.w3.org/2000/svg" width="140.104" height="52.372" viewBox="0 0 140.104 52.372">
  <g id="グループ_152" data-name="グループ 152" transform="translate(-177.685 -26.956)">
    <path id="パス_248" data-name="パス 248" d="M188.147,43.565a53.279,53.279,0,0,1,15.806-3.207,8.869,8.869,0,0,0,3.029-.471,9.072,9.072,0,0,0,2.113-1.43,40.414,40.414,0,0,1,27.05-9.054,35.749,35.749,0,0,1,25.461,12.456c5.491-3.333,12.23-4.216,18.6-3.382s12.425,3.283,18.136,6.224c4.7,2.42,9.281,5.238,12.9,9.1,1.988,2.122,3.731,4.759,3.682,7.666a10.053,10.053,0,0,1-2.4,5.886c-4.578,5.826-12.359,8.085-19.728,8.86a72.2,72.2,0,0,1-32.641-4.135,30.726,30.726,0,0,1-41.116-2.552,3.2,3.2,0,0,0-1.317-.966,3.118,3.118,0,0,0-1.642.147,64.946,64.946,0,0,1-19.725,2.191,25.568,25.568,0,0,1-9.828-2,16.072,16.072,0,0,1-8.353-10.374C176.03,50.669,181.271,46.093,188.147,43.565Z" fill="#fff"/>
    <path id="パス_249" data-name="パス 249" d="M317.789,62.978c-2.63,8.429-9.64,11.066-17.2,12.718-11.9,2.6-23.91,2.224-35.942,1.024a14.366,14.366,0,0,0-4.8.52c-12.914,3.239-25.457,3.318-37.151-4.161a23.267,23.267,0,0,1-3.658-2.881c-.412-.4-.353-1.285-.509-1.949.65.056,1.5-.136,1.922.2,11.6,9.36,24.641,9.64,38.124,5.753,4.755-1.371,9.25-.289,13.849-.119,10.153.376,20.307.9,30.26-1.763a31.972,31.972,0,0,0,6.581-2.6c4.3-2.26,6.539-5.789,6.079-10.825a7.52,7.52,0,0,1,.6-2.385l1.844,1.544Z"/>
    <path id="パス_250" data-name="パス 250" d="M231.718,26.961c10.173.068,17.522,3.73,24.042,9.3a4.105,4.105,0,0,0,4.312,1.035c14.906-3.951,28.4-1.71,39.652,9.579a10.414,10.414,0,0,1,1.84,2.287c.241.444-.017,1.159-.05,1.752-.571-.138-1.3-.1-1.688-.443-1.834-1.627-3.424-3.563-5.376-5.02-10.024-7.482-21.184-8.7-32.883-5.173-3.484,1.049-5.761.679-8.445-1.878a30.224,30.224,0,0,0-18.361-8.546c-7.332-.688-13.667,1.713-19.566,5.806-.887.615-2.874,1.284-3.036,1.043-1.147-1.7.739-2.2,1.635-2.877C219.481,29.515,225.779,26.826,231.718,26.961Z"/>
    <path id="パス_251" data-name="パス 251" d="M206.734,40.295c-2.989.16-6.015.081-8.959.535a22.693,22.693,0,0,0-13.008,6.9c-.44.452-1.336.46-2.021.675.082-.738-.077-1.632.284-2.189,4.584-7.066,16.52-10.837,24.328-7.7.481.193.765.879,1.141,1.335l-1.555,1.181Z"/>
  </g>
</svg>
