<svg xmlns="http://www.w3.org/2000/svg" width="310.313" height="333.045" viewBox="0 0 310.313 333.045">
  <g id="グループ_62" data-name="グループ 62" transform="translate(-11899 -3748)">
    <g id="グループ_61" data-name="グループ 61" transform="translate(11899 3748)">
      <path id="パス_81" data-name="パス 81" d="M239.644,1116.818l-1.519-4.518h-2.1v4.518h-2.708v-13.55h4.518a4.516,4.516,0,0,1,2.726,8.118l1.791,5.432Zm-1.811-7.224a1.811,1.811,0,0,0,0-3.621h-1.81v3.621Z" transform="translate(-192.939 -783.909)" fill="#379e49"/>
      <path id="パス_82" data-name="パス 82" d="M270.876,1105.973h-6.327v2.707h4.965v2.725h-4.965v2.705h6.327v2.707h-9.033v-13.55h9.033Z" transform="translate(-209.785 -783.909)" fill="#379e49"/>
      <path id="パス_83" data-name="パス 83" d="M294.359,1105.641a1.846,1.846,0,0,0-1.811,1.811v4.79a1.821,1.821,0,0,0,1.811,1.811,1.782,1.782,0,0,0,1.809-1.811h2.708a4.517,4.517,0,0,1-9.034,0v-4.79a4.517,4.517,0,0,1,9.034,0h-2.708A1.794,1.794,0,0,0,294.359,1105.641Z" transform="translate(-226.319 -783.714)" fill="#379e49"/>
      <path id="パス_84" data-name="パス 84" d="M318.145,1116.818v-5.412l-3.154-8.138H317.7l1.811,5,1.809-5h2.708l-3.155,8.138v5.412Z" transform="translate(-241.171 -783.909)" fill="#379e49"/>
      <path id="パス_85" data-name="パス 85" d="M345.61,1105.641a1.847,1.847,0,0,0-1.811,1.811v4.79a1.822,1.822,0,0,0,1.811,1.811,1.783,1.783,0,0,0,1.809-1.811h2.708a4.517,4.517,0,0,1-9.035,0v-4.79a4.517,4.517,0,0,1,9.035,0H347.42A1.794,1.794,0,0,0,345.61,1105.641Z" transform="translate(-256.585 -783.714)" fill="#379e49"/>
      <path id="パス_86" data-name="パス 86" d="M378.887,1114.111v2.707h-9.034v-13.55h2.708v10.843Z" transform="translate(-273.568 -783.909)" fill="#379e49"/>
      <path id="パス_87" data-name="パス 87" d="M406.746,1105.973H400.42v2.707h4.963v2.725H400.42v2.705h6.327v2.707h-9.033v-13.55h9.033Z" transform="translate(-290.021 -783.909)" fill="#379e49"/>
      <path id="パス_88" data-name="パス 88" d="M430.8,1116.818l4.069-13.55h2.706l-4.068,13.55Z" transform="translate(-309.56 -783.909)" fill="#379e49"/>
      <path id="パス_89" data-name="パス 89" d="M465.983,1116.818l-1.519-4.518h-2.1v4.518h-2.708v-13.55h4.518a4.516,4.516,0,0,1,2.726,8.118l1.791,5.432Zm-1.811-7.224a1.811,1.811,0,0,0,0-3.621h-1.81v3.621Z" transform="translate(-326.6 -783.909)" fill="#379e49"/>
      <path id="パス_90" data-name="パス 90" d="M497.215,1105.973h-6.327v2.707h4.964v2.725h-4.964v2.705h6.327v2.707h-9.033v-13.55h9.033Z" transform="translate(-343.446 -783.909)" fill="#379e49"/>
      <path id="パス_91" data-name="パス 91" d="M525.835,1112.438a4.516,4.516,0,0,1-9.032,0v-9.17h2.705v9.17a1.811,1.811,0,0,0,3.621,0v-9.17h2.705Z" transform="translate(-360.347 -783.909)" fill="#379e49"/>
      <path id="パス_92" data-name="パス 92" d="M549.47,1114.053a1.345,1.345,0,0,0,1.383-1.285,1.122,1.122,0,0,0-.7-1.11l-2.374-1.13a3.81,3.81,0,0,1-2.356-3.544,4.067,4.067,0,0,1,4.088-4.048,4.366,4.366,0,0,1,4.05,2.744l-2.512,1.052a1.652,1.652,0,0,0-1.538-1.091,1.345,1.345,0,0,0-1.383,1.285,1.2,1.2,0,0,0,.7,1.11l2.375,1.13a3.707,3.707,0,0,1,2.357,3.542,4.048,4.048,0,0,1-4.108,4.051,4.334,4.334,0,0,1-4.03-2.744l2.492-1.052A1.7,1.7,0,0,0,549.47,1114.053Z" transform="translate(-377.247 -783.714)" fill="#379e49"/>
      <path id="パス_93" data-name="パス 93" d="M580.506,1105.973h-6.327v2.707h4.965v2.725h-4.965v2.705h6.327v2.707h-9.034v-13.55h9.034Z" transform="translate(-392.631 -783.909)" fill="#379e49"/>
      <path id="パス_94" data-name="パス 94" d="M604.56,1116.818l4.069-13.55h2.707l-4.069,13.55Z" transform="translate(-412.171 -783.909)" fill="#379e49"/>
      <path id="パス_95" data-name="パス 95" d="M639.745,1116.818l-1.519-4.518h-2.1v4.518h-2.705v-13.55h4.516a4.517,4.517,0,0,1,2.726,8.118l1.79,5.432Zm-1.811-7.224a1.811,1.811,0,1,0,0-3.621h-1.811v3.621Z" transform="translate(-429.212 -783.909)" fill="#379e49"/>
      <path id="パス_96" data-name="パス 96" d="M670.974,1105.973h-6.327v2.707h4.963v2.725h-4.963v2.705h6.327v2.707h-9.033v-13.55h9.033Z" transform="translate(-446.056 -783.909)" fill="#379e49"/>
      <path id="パス_97" data-name="パス 97" d="M694.982,1103.268a4.5,4.5,0,0,1,4.517,4.516v4.516a4.516,4.516,0,0,1-4.517,4.518h-4.518v-13.55Zm1.811,9.032v-4.516a1.821,1.821,0,0,0-1.811-1.811h-1.811v8.138h1.811A1.82,1.82,0,0,0,696.792,1112.3Z" transform="translate(-462.9 -783.909)" fill="#379e49"/>
      <path id="パス_98" data-name="パス 98" d="M728.164,1112.438a4.517,4.517,0,0,1-9.034,0v-9.17h2.707v9.17a1.81,1.81,0,1,0,3.62,0v-9.17h2.707Z" transform="translate(-479.828 -783.909)" fill="#379e49"/>
      <path id="パス_99" data-name="パス 99" d="M752.506,1105.641a1.847,1.847,0,0,0-1.811,1.811v4.79a1.821,1.821,0,0,0,1.811,1.811,1.783,1.783,0,0,0,1.811-1.811h2.707a4.517,4.517,0,0,1-9.034,0v-4.79a4.517,4.517,0,0,1,9.034,0h-2.707A1.794,1.794,0,0,0,752.506,1105.641Z" transform="translate(-496.871 -783.714)" fill="#379e49"/>
      <path id="パス_100" data-name="パス 100" d="M785.738,1105.973H779.41v2.707h4.964v2.725H779.41v2.705h6.328v2.707H776.7v-13.55h9.035Z" transform="translate(-513.827 -783.909)" fill="#379e49"/>
      <g id="グループ_57" data-name="グループ 57" transform="translate(0 0)">
        <g id="グループ_53" data-name="グループ 53" transform="translate(0 0)">
          <g id="グループ_52" data-name="グループ 52">
            <g id="グループ_51" data-name="グループ 51">
              <g id="グループ_50" data-name="グループ 50">
                <g id="グループ_49" data-name="グループ 49">
                  <path id="パス_101" data-name="パス 101" d="M454.145,374.186l-22.669-39.265-.137-.222a25.315,25.315,0,0,0-8.283-8.182,25.864,25.864,0,0,0-11.563-3.187l-61.321.02h0c-8.011-.095-16.693,3.089-21.628,11.634L285.813,409l47.339,27.331,46.865-81.172c17.047,29.546,54.958,95.132,54.958,95.132l46.7-92.05Zm-19.668,57.887c-13.139-22.734-57.582-99.744-57.79-100.089h33.388l.279,0a17.665,17.665,0,0,1,8.358,2.053,16.711,16.711,0,0,1,5.308,5.34l26.952,46.682,9.695-5.615Z" transform="translate(-223.94 -323.331)" fill="#379e49"/>
                  <path id="パス_102" data-name="パス 102" d="M162.277,646.728l-22.67,39.263-.124.23a25.322,25.322,0,0,0-2.944,11.264,25.863,25.863,0,0,0,3.022,11.607l30.678,53.1h0c3.923,6.986,11.022,12.912,20.889,12.913H276.6V720.437h-93.73c17.064-29.537,54.908-95.161,54.908-95.161l-103.067,5.583Zm59.966-11.911c-13.119,22.746-57.59,99.74-57.784,100.092l-16.694-28.915-.136-.243a17.664,17.664,0,0,1-2.4-8.265,16.711,16.711,0,0,1,1.971-7.266l26.952-46.682-9.711-5.588Z" transform="translate(-134.707 -501.639)" fill="#379e49"/>
                  <path id="パス_103" data-name="パス 103" d="M567.547,755.822h45.338l.26-.007a25.32,25.32,0,0,0,11.228-3.082,25.868,25.868,0,0,0,8.541-8.421L663.557,691.2h0c4.088-6.89,5.671-16,.739-24.547L621.56,592.633l-47.339,27.331,46.865,81.172c-34.111-.009-109.866.029-109.866.029l56.368,86.468Zm-40.3-45.976c26.258-.012,115.172,0,115.574,0l-16.694,28.915-.143.24a17.664,17.664,0,0,1-5.957,6.212,16.71,16.71,0,0,1-7.278,1.926h-53.9l.016,11.2Z" transform="translate(-357.05 -482.363)" fill="#379e49"/>
                </g>
              </g>
            </g>
          </g>
        </g>
        <g id="グループ_54" data-name="グループ 54" transform="translate(126.943 107.199)">
          <path id="パス_104" data-name="パス 104" d="M462.793,625.17l-4.335-13.346h-6V625.17h-7.726V585.132h12.9a13.063,13.063,0,0,1,12.895,13.346,13.32,13.32,0,0,1-5.113,10.643l5.113,16.05Zm-5.169-21.343a5.353,5.353,0,0,0,0-10.7h-5.169v10.7Z" transform="translate(-444.728 -585.132)" fill="#379e49"/>
          <path id="パス_105" data-name="パス 105" d="M549.933,593.128H531.868v8h14.174v8.054H531.868v8h18.065v8H524.142V585.132h25.791Z" transform="translate(-491.625 -585.132)" fill="#379e49"/>
          <path id="パス_106" data-name="パス 106" d="M610.216,671.771H602.49v-7.726h7.726Z" transform="translate(-537.892 -631.733)" fill="#379e49"/>
        </g>
        <g id="グループ_56" data-name="グループ 56" transform="translate(90.201 162.598)">
          <g id="グループ_55" data-name="グループ 55">
            <path id="パス_107" data-name="パス 107" d="M368.84,741.539a3.641,3.641,0,1,1-7.282,0V721.155H355v20.384a10.2,10.2,0,1,0,20.406,0V721.155H368.84Z" transform="translate(-354.996 -720.857)" fill="#379e49"/>
            <path id="パス_108" data-name="パス 108" d="M432.809,737.617l-7.4-16.461h-6.449v30.289h6.562v-16.46l7.4,16.46h6.449V721.156h-6.562Z" transform="translate(-392.772 -720.858)" fill="#379e49"/>
            <path id="パス_109" data-name="パス 109" d="M532.151,741.109V730.632a10.2,10.2,0,1,0-20.406,0v10.478a10.215,10.215,0,0,0,10.2,10.2,11.133,11.133,0,0,0,1.741-.134l1.947,5.757h6.6l-2.977-8.711A9.8,9.8,0,0,0,532.151,741.109Zm-13.844-10.478a3.647,3.647,0,0,1,3.642-3.642,3.484,3.484,0,0,1,3.64,3.642v10.478a3.641,3.641,0,1,1-7.282,0Z" transform="translate(-447.561 -720.428)" fill="#379e49"/>
            <path id="パス_110" data-name="パス 110" d="M580.822,721.156h-6.562v30.289h20.406v-6.562H580.822Z" transform="translate(-484.479 -720.858)" fill="#379e49"/>
            <path id="パス_111" data-name="パス 111" d="M639.384,720.428a10.215,10.215,0,0,0-10.2,10.2v10.478a10.2,10.2,0,1,0,20.406,0V730.632A10.215,10.215,0,0,0,639.384,720.428Zm-3.641,10.2a3.641,3.641,0,1,1,7.282,0v10.478a3.641,3.641,0,1,1-7.282,0Z" transform="translate(-516.912 -720.428)" fill="#379e49"/>
          </g>
        </g>
      </g>
      <rect id="長方形_203" data-name="長方形 203" width="6.562" height="30.289" transform="translate(142.631 162.896)" fill="#379e49"/>
    </g>
    <g id="グループ_156" data-name="グループ 156" transform="translate(11899 3748)">
      <path id="パス_81-2" data-name="パス 81" d="M239.644,1116.818l-1.519-4.518h-2.1v4.518h-2.708v-13.55h4.518a4.516,4.516,0,0,1,2.726,8.118l1.791,5.432Zm-1.811-7.224a1.811,1.811,0,0,0,0-3.621h-1.81v3.621Z" transform="translate(-192.939 -783.909)" fill="#379e49"/>
      <path id="パス_82-2" data-name="パス 82" d="M270.876,1105.973h-6.327v2.707h4.965v2.725h-4.965v2.705h6.327v2.707h-9.033v-13.55h9.033Z" transform="translate(-209.785 -783.909)" fill="#379e49"/>
      <path id="パス_83-2" data-name="パス 83" d="M294.359,1105.641a1.846,1.846,0,0,0-1.811,1.811v4.79a1.821,1.821,0,0,0,1.811,1.811,1.782,1.782,0,0,0,1.809-1.811h2.708a4.517,4.517,0,0,1-9.034,0v-4.79a4.517,4.517,0,0,1,9.034,0h-2.708A1.794,1.794,0,0,0,294.359,1105.641Z" transform="translate(-226.319 -783.714)" fill="#379e49"/>
      <path id="パス_84-2" data-name="パス 84" d="M318.145,1116.818v-5.412l-3.154-8.138H317.7l1.811,5,1.809-5h2.708l-3.155,8.138v5.412Z" transform="translate(-241.171 -783.909)" fill="#379e49"/>
      <path id="パス_85-2" data-name="パス 85" d="M345.61,1105.641a1.847,1.847,0,0,0-1.811,1.811v4.79a1.822,1.822,0,0,0,1.811,1.811,1.783,1.783,0,0,0,1.809-1.811h2.708a4.517,4.517,0,0,1-9.035,0v-4.79a4.517,4.517,0,0,1,9.035,0H347.42A1.794,1.794,0,0,0,345.61,1105.641Z" transform="translate(-256.585 -783.714)" fill="#379e49"/>
      <path id="パス_86-2" data-name="パス 86" d="M378.887,1114.111v2.707h-9.034v-13.55h2.708v10.843Z" transform="translate(-273.568 -783.909)" fill="#379e49"/>
      <path id="パス_87-2" data-name="パス 87" d="M406.746,1105.973H400.42v2.707h4.963v2.725H400.42v2.705h6.327v2.707h-9.033v-13.55h9.033Z" transform="translate(-290.021 -783.909)" fill="#379e49"/>
      <path id="パス_88-2" data-name="パス 88" d="M430.8,1116.818l4.069-13.55h2.706l-4.068,13.55Z" transform="translate(-309.56 -783.909)" fill="#379e49"/>
      <path id="パス_89-2" data-name="パス 89" d="M465.983,1116.818l-1.519-4.518h-2.1v4.518h-2.708v-13.55h4.518a4.516,4.516,0,0,1,2.726,8.118l1.791,5.432Zm-1.811-7.224a1.811,1.811,0,0,0,0-3.621h-1.81v3.621Z" transform="translate(-326.6 -783.909)" fill="#379e49"/>
      <path id="パス_90-2" data-name="パス 90" d="M497.215,1105.973h-6.327v2.707h4.964v2.725h-4.964v2.705h6.327v2.707h-9.033v-13.55h9.033Z" transform="translate(-343.446 -783.909)" fill="#379e49"/>
      <path id="パス_91-2" data-name="パス 91" d="M525.835,1112.438a4.516,4.516,0,0,1-9.032,0v-9.17h2.705v9.17a1.811,1.811,0,0,0,3.621,0v-9.17h2.705Z" transform="translate(-360.347 -783.909)" fill="#379e49"/>
      <path id="パス_92-2" data-name="パス 92" d="M549.47,1114.053a1.345,1.345,0,0,0,1.383-1.285,1.122,1.122,0,0,0-.7-1.11l-2.374-1.13a3.81,3.81,0,0,1-2.356-3.544,4.067,4.067,0,0,1,4.088-4.048,4.366,4.366,0,0,1,4.05,2.744l-2.512,1.052a1.652,1.652,0,0,0-1.538-1.091,1.345,1.345,0,0,0-1.383,1.285,1.2,1.2,0,0,0,.7,1.11l2.375,1.13a3.707,3.707,0,0,1,2.357,3.542,4.048,4.048,0,0,1-4.108,4.051,4.334,4.334,0,0,1-4.03-2.744l2.492-1.052A1.7,1.7,0,0,0,549.47,1114.053Z" transform="translate(-377.247 -783.714)" fill="#379e49"/>
      <path id="パス_93-2" data-name="パス 93" d="M580.506,1105.973h-6.327v2.707h4.965v2.725h-4.965v2.705h6.327v2.707h-9.034v-13.55h9.034Z" transform="translate(-392.631 -783.909)" fill="#379e49"/>
      <path id="パス_94-2" data-name="パス 94" d="M604.56,1116.818l4.069-13.55h2.707l-4.069,13.55Z" transform="translate(-412.171 -783.909)" fill="#379e49"/>
      <path id="パス_95-2" data-name="パス 95" d="M639.745,1116.818l-1.519-4.518h-2.1v4.518h-2.705v-13.55h4.516a4.517,4.517,0,0,1,2.726,8.118l1.79,5.432Zm-1.811-7.224a1.811,1.811,0,1,0,0-3.621h-1.811v3.621Z" transform="translate(-429.212 -783.909)" fill="#379e49"/>
      <path id="パス_96-2" data-name="パス 96" d="M670.974,1105.973h-6.327v2.707h4.963v2.725h-4.963v2.705h6.327v2.707h-9.033v-13.55h9.033Z" transform="translate(-446.056 -783.909)" fill="#379e49"/>
      <path id="パス_97-2" data-name="パス 97" d="M694.982,1103.268a4.5,4.5,0,0,1,4.517,4.516v4.516a4.516,4.516,0,0,1-4.517,4.518h-4.518v-13.55Zm1.811,9.032v-4.516a1.821,1.821,0,0,0-1.811-1.811h-1.811v8.138h1.811A1.82,1.82,0,0,0,696.792,1112.3Z" transform="translate(-462.9 -783.909)" fill="#379e49"/>
      <path id="パス_98-2" data-name="パス 98" d="M728.164,1112.438a4.517,4.517,0,0,1-9.034,0v-9.17h2.707v9.17a1.81,1.81,0,1,0,3.62,0v-9.17h2.707Z" transform="translate(-479.828 -783.909)" fill="#379e49"/>
      <path id="パス_99-2" data-name="パス 99" d="M752.506,1105.641a1.847,1.847,0,0,0-1.811,1.811v4.79a1.821,1.821,0,0,0,1.811,1.811,1.783,1.783,0,0,0,1.811-1.811h2.707a4.517,4.517,0,0,1-9.034,0v-4.79a4.517,4.517,0,0,1,9.034,0h-2.707A1.794,1.794,0,0,0,752.506,1105.641Z" transform="translate(-496.871 -783.714)" fill="#379e49"/>
      <path id="パス_100-2" data-name="パス 100" d="M785.738,1105.973H779.41v2.707h4.964v2.725H779.41v2.705h6.328v2.707H776.7v-13.55h9.035Z" transform="translate(-513.827 -783.909)" fill="#379e49"/>
      <g id="グループ_57-2" data-name="グループ 57" transform="translate(0 0)">
        <g id="グループ_53-2" data-name="グループ 53" transform="translate(0 0)">
          <g id="グループ_52-2" data-name="グループ 52">
            <g id="グループ_51-2" data-name="グループ 51">
              <g id="グループ_50-2" data-name="グループ 50">
                <g id="グループ_49-2" data-name="グループ 49">
                  <path id="パス_101-2" data-name="パス 101" d="M454.145,374.186l-22.669-39.265-.137-.222a25.315,25.315,0,0,0-8.283-8.182,25.864,25.864,0,0,0-11.563-3.187l-61.321.02h0c-8.011-.095-16.693,3.089-21.628,11.634L285.813,409l47.339,27.331,46.865-81.172c17.047,29.546,54.958,95.132,54.958,95.132l46.7-92.05Zm-19.668,57.887c-13.139-22.734-57.582-99.744-57.79-100.089h33.388l.279,0a17.665,17.665,0,0,1,8.358,2.053,16.711,16.711,0,0,1,5.308,5.34l26.952,46.682,9.695-5.615Z" transform="translate(-223.94 -323.331)" fill="#379e49"/>
                  <path id="パス_102-2" data-name="パス 102" d="M162.277,646.728l-22.67,39.263-.124.23a25.322,25.322,0,0,0-2.944,11.264,25.863,25.863,0,0,0,3.022,11.607l30.678,53.1h0c3.923,6.986,11.022,12.912,20.889,12.913H276.6V720.437h-93.73c17.064-29.537,54.908-95.161,54.908-95.161l-103.067,5.583Zm59.966-11.911c-13.119,22.746-57.59,99.74-57.784,100.092l-16.694-28.915-.136-.243a17.664,17.664,0,0,1-2.4-8.265,16.711,16.711,0,0,1,1.971-7.266l26.952-46.682-9.711-5.588Z" transform="translate(-134.707 -501.639)" fill="#379e49"/>
                  <path id="パス_103-2" data-name="パス 103" d="M567.547,755.822h45.338l.26-.007a25.32,25.32,0,0,0,11.228-3.082,25.868,25.868,0,0,0,8.541-8.421L663.557,691.2h0c4.088-6.89,5.671-16,.739-24.547L621.56,592.633l-47.339,27.331,46.865,81.172c-34.111-.009-109.866.029-109.866.029l56.368,86.468Zm-40.3-45.976c26.258-.012,115.172,0,115.574,0l-16.694,28.915-.143.24a17.664,17.664,0,0,1-5.957,6.212,16.71,16.71,0,0,1-7.278,1.926h-53.9l.016,11.2Z" transform="translate(-357.05 -482.363)" fill="#379e49"/>
                </g>
              </g>
            </g>
          </g>
        </g>
        <g id="グループ_54-2" data-name="グループ 54" transform="translate(126.943 107.199)">
          <path id="パス_104-2" data-name="パス 104" d="M462.793,625.17l-4.335-13.346h-6V625.17h-7.726V585.132h12.9a13.063,13.063,0,0,1,12.895,13.346,13.32,13.32,0,0,1-5.113,10.643l5.113,16.05Zm-5.169-21.343a5.353,5.353,0,0,0,0-10.7h-5.169v10.7Z" transform="translate(-444.728 -585.132)" fill="#379e49"/>
          <path id="パス_105-2" data-name="パス 105" d="M549.933,593.128H531.868v8h14.174v8.054H531.868v8h18.065v8H524.142V585.132h25.791Z" transform="translate(-491.625 -585.132)" fill="#379e49"/>
          <path id="パス_106-2" data-name="パス 106" d="M610.216,671.771H602.49v-7.726h7.726Z" transform="translate(-537.892 -631.733)" fill="#379e49"/>
        </g>
        <g id="グループ_56-2" data-name="グループ 56" transform="translate(90.201 162.598)">
          <g id="グループ_55-2" data-name="グループ 55">
            <path id="パス_107-2" data-name="パス 107" d="M368.84,741.539a3.641,3.641,0,1,1-7.282,0V721.155H355v20.384a10.2,10.2,0,1,0,20.406,0V721.155H368.84Z" transform="translate(-354.996 -720.857)" fill="#379e49"/>
            <path id="パス_108-2" data-name="パス 108" d="M432.809,737.617l-7.4-16.461h-6.449v30.289h6.562v-16.46l7.4,16.46h6.449V721.156h-6.562Z" transform="translate(-392.772 -720.858)" fill="#379e49"/>
            <path id="パス_109-2" data-name="パス 109" d="M532.151,741.109V730.632a10.2,10.2,0,1,0-20.406,0v10.478a10.215,10.215,0,0,0,10.2,10.2,11.133,11.133,0,0,0,1.741-.134l1.947,5.757h6.6l-2.977-8.711A9.8,9.8,0,0,0,532.151,741.109Zm-13.844-10.478a3.647,3.647,0,0,1,3.642-3.642,3.484,3.484,0,0,1,3.64,3.642v10.478a3.641,3.641,0,1,1-7.282,0Z" transform="translate(-447.561 -720.428)" fill="#379e49"/>
            <path id="パス_110-2" data-name="パス 110" d="M580.822,721.156h-6.562v30.289h20.406v-6.562H580.822Z" transform="translate(-484.479 -720.858)" fill="#379e49"/>
            <path id="パス_111-2" data-name="パス 111" d="M639.384,720.428a10.215,10.215,0,0,0-10.2,10.2v10.478a10.2,10.2,0,1,0,20.406,0V730.632A10.215,10.215,0,0,0,639.384,720.428Zm-3.641,10.2a3.641,3.641,0,1,1,7.282,0v10.478a3.641,3.641,0,1,1-7.282,0Z" transform="translate(-516.912 -720.428)" fill="#379e49"/>
          </g>
        </g>
      </g>
      <rect id="長方形_203-2" data-name="長方形 203" width="6.562" height="30.289" transform="translate(142.631 162.896)" fill="#379e49"/>
    </g>
    <g id="グループ_157" data-name="グループ 157" transform="translate(11899 3748)">
      <path id="パス_81-3" data-name="パス 81" d="M239.644,1116.818l-1.519-4.518h-2.1v4.518h-2.708v-13.55h4.518a4.516,4.516,0,0,1,2.726,8.118l1.791,5.432Zm-1.811-7.224a1.811,1.811,0,0,0,0-3.621h-1.81v3.621Z" transform="translate(-192.939 -783.909)" fill="#379e49"/>
      <path id="パス_82-3" data-name="パス 82" d="M270.876,1105.973h-6.327v2.707h4.965v2.725h-4.965v2.705h6.327v2.707h-9.033v-13.55h9.033Z" transform="translate(-209.785 -783.909)" fill="#379e49"/>
      <path id="パス_83-3" data-name="パス 83" d="M294.359,1105.641a1.846,1.846,0,0,0-1.811,1.811v4.79a1.821,1.821,0,0,0,1.811,1.811,1.782,1.782,0,0,0,1.809-1.811h2.708a4.517,4.517,0,0,1-9.034,0v-4.79a4.517,4.517,0,0,1,9.034,0h-2.708A1.794,1.794,0,0,0,294.359,1105.641Z" transform="translate(-226.319 -783.714)" fill="#379e49"/>
      <path id="パス_84-3" data-name="パス 84" d="M318.145,1116.818v-5.412l-3.154-8.138H317.7l1.811,5,1.809-5h2.708l-3.155,8.138v5.412Z" transform="translate(-241.171 -783.909)" fill="#379e49"/>
      <path id="パス_85-3" data-name="パス 85" d="M345.61,1105.641a1.847,1.847,0,0,0-1.811,1.811v4.79a1.822,1.822,0,0,0,1.811,1.811,1.783,1.783,0,0,0,1.809-1.811h2.708a4.517,4.517,0,0,1-9.035,0v-4.79a4.517,4.517,0,0,1,9.035,0H347.42A1.794,1.794,0,0,0,345.61,1105.641Z" transform="translate(-256.585 -783.714)" fill="#379e49"/>
      <path id="パス_86-3" data-name="パス 86" d="M378.887,1114.111v2.707h-9.034v-13.55h2.708v10.843Z" transform="translate(-273.568 -783.909)" fill="#379e49"/>
      <path id="パス_87-3" data-name="パス 87" d="M406.746,1105.973H400.42v2.707h4.963v2.725H400.42v2.705h6.327v2.707h-9.033v-13.55h9.033Z" transform="translate(-290.021 -783.909)" fill="#379e49"/>
      <path id="パス_88-3" data-name="パス 88" d="M430.8,1116.818l4.069-13.55h2.706l-4.068,13.55Z" transform="translate(-309.56 -783.909)" fill="#379e49"/>
      <path id="パス_89-3" data-name="パス 89" d="M465.983,1116.818l-1.519-4.518h-2.1v4.518h-2.708v-13.55h4.518a4.516,4.516,0,0,1,2.726,8.118l1.791,5.432Zm-1.811-7.224a1.811,1.811,0,0,0,0-3.621h-1.81v3.621Z" transform="translate(-326.6 -783.909)" fill="#379e49"/>
      <path id="パス_90-3" data-name="パス 90" d="M497.215,1105.973h-6.327v2.707h4.964v2.725h-4.964v2.705h6.327v2.707h-9.033v-13.55h9.033Z" transform="translate(-343.446 -783.909)" fill="#379e49"/>
      <path id="パス_91-3" data-name="パス 91" d="M525.835,1112.438a4.516,4.516,0,0,1-9.032,0v-9.17h2.705v9.17a1.811,1.811,0,0,0,3.621,0v-9.17h2.705Z" transform="translate(-360.347 -783.909)" fill="#379e49"/>
      <path id="パス_92-3" data-name="パス 92" d="M549.47,1114.053a1.345,1.345,0,0,0,1.383-1.285,1.122,1.122,0,0,0-.7-1.11l-2.374-1.13a3.81,3.81,0,0,1-2.356-3.544,4.067,4.067,0,0,1,4.088-4.048,4.366,4.366,0,0,1,4.05,2.744l-2.512,1.052a1.652,1.652,0,0,0-1.538-1.091,1.345,1.345,0,0,0-1.383,1.285,1.2,1.2,0,0,0,.7,1.11l2.375,1.13a3.707,3.707,0,0,1,2.357,3.542,4.048,4.048,0,0,1-4.108,4.051,4.334,4.334,0,0,1-4.03-2.744l2.492-1.052A1.7,1.7,0,0,0,549.47,1114.053Z" transform="translate(-377.247 -783.714)" fill="#379e49"/>
      <path id="パス_93-3" data-name="パス 93" d="M580.506,1105.973h-6.327v2.707h4.965v2.725h-4.965v2.705h6.327v2.707h-9.034v-13.55h9.034Z" transform="translate(-392.631 -783.909)" fill="#379e49"/>
      <path id="パス_94-3" data-name="パス 94" d="M604.56,1116.818l4.069-13.55h2.707l-4.069,13.55Z" transform="translate(-412.171 -783.909)" fill="#379e49"/>
      <path id="パス_95-3" data-name="パス 95" d="M639.745,1116.818l-1.519-4.518h-2.1v4.518h-2.705v-13.55h4.516a4.517,4.517,0,0,1,2.726,8.118l1.79,5.432Zm-1.811-7.224a1.811,1.811,0,1,0,0-3.621h-1.811v3.621Z" transform="translate(-429.212 -783.909)" fill="#379e49"/>
      <path id="パス_96-3" data-name="パス 96" d="M670.974,1105.973h-6.327v2.707h4.963v2.725h-4.963v2.705h6.327v2.707h-9.033v-13.55h9.033Z" transform="translate(-446.056 -783.909)" fill="#379e49"/>
      <path id="パス_97-3" data-name="パス 97" d="M694.982,1103.268a4.5,4.5,0,0,1,4.517,4.516v4.516a4.516,4.516,0,0,1-4.517,4.518h-4.518v-13.55Zm1.811,9.032v-4.516a1.821,1.821,0,0,0-1.811-1.811h-1.811v8.138h1.811A1.82,1.82,0,0,0,696.792,1112.3Z" transform="translate(-462.9 -783.909)" fill="#379e49"/>
      <path id="パス_98-3" data-name="パス 98" d="M728.164,1112.438a4.517,4.517,0,0,1-9.034,0v-9.17h2.707v9.17a1.81,1.81,0,1,0,3.62,0v-9.17h2.707Z" transform="translate(-479.828 -783.909)" fill="#379e49"/>
      <path id="パス_99-3" data-name="パス 99" d="M752.506,1105.641a1.847,1.847,0,0,0-1.811,1.811v4.79a1.821,1.821,0,0,0,1.811,1.811,1.783,1.783,0,0,0,1.811-1.811h2.707a4.517,4.517,0,0,1-9.034,0v-4.79a4.517,4.517,0,0,1,9.034,0h-2.707A1.794,1.794,0,0,0,752.506,1105.641Z" transform="translate(-496.871 -783.714)" fill="#379e49"/>
      <path id="パス_100-3" data-name="パス 100" d="M785.738,1105.973H779.41v2.707h4.964v2.725H779.41v2.705h6.328v2.707H776.7v-13.55h9.035Z" transform="translate(-513.827 -783.909)" fill="#379e49"/>
      <g id="グループ_57-3" data-name="グループ 57" transform="translate(0 0)">
        <g id="グループ_53-3" data-name="グループ 53" transform="translate(0 0)">
          <g id="グループ_52-3" data-name="グループ 52">
            <g id="グループ_51-3" data-name="グループ 51">
              <g id="グループ_50-3" data-name="グループ 50">
                <g id="グループ_49-3" data-name="グループ 49">
                  <path id="パス_101-3" data-name="パス 101" d="M454.145,374.186l-22.669-39.265-.137-.222a25.315,25.315,0,0,0-8.283-8.182,25.864,25.864,0,0,0-11.563-3.187l-61.321.02h0c-8.011-.095-16.693,3.089-21.628,11.634L285.813,409l47.339,27.331,46.865-81.172c17.047,29.546,54.958,95.132,54.958,95.132l46.7-92.05Zm-19.668,57.887c-13.139-22.734-57.582-99.744-57.79-100.089h33.388l.279,0a17.665,17.665,0,0,1,8.358,2.053,16.711,16.711,0,0,1,5.308,5.34l26.952,46.682,9.695-5.615Z" transform="translate(-223.94 -323.331)" fill="#379e49"/>
                  <path id="パス_102-3" data-name="パス 102" d="M162.277,646.728l-22.67,39.263-.124.23a25.322,25.322,0,0,0-2.944,11.264,25.863,25.863,0,0,0,3.022,11.607l30.678,53.1h0c3.923,6.986,11.022,12.912,20.889,12.913H276.6V720.437h-93.73c17.064-29.537,54.908-95.161,54.908-95.161l-103.067,5.583Zm59.966-11.911c-13.119,22.746-57.59,99.74-57.784,100.092l-16.694-28.915-.136-.243a17.664,17.664,0,0,1-2.4-8.265,16.711,16.711,0,0,1,1.971-7.266l26.952-46.682-9.711-5.588Z" transform="translate(-134.707 -501.639)" fill="#379e49"/>
                  <path id="パス_103-3" data-name="パス 103" d="M567.547,755.822h45.338l.26-.007a25.32,25.32,0,0,0,11.228-3.082,25.868,25.868,0,0,0,8.541-8.421L663.557,691.2h0c4.088-6.89,5.671-16,.739-24.547L621.56,592.633l-47.339,27.331,46.865,81.172c-34.111-.009-109.866.029-109.866.029l56.368,86.468Zm-40.3-45.976c26.258-.012,115.172,0,115.574,0l-16.694,28.915-.143.24a17.664,17.664,0,0,1-5.957,6.212,16.71,16.71,0,0,1-7.278,1.926h-53.9l.016,11.2Z" transform="translate(-357.05 -482.363)" fill="#379e49"/>
                </g>
              </g>
            </g>
          </g>
        </g>
        <g id="グループ_54-3" data-name="グループ 54" transform="translate(126.943 107.199)">
          <path id="パス_104-3" data-name="パス 104" d="M462.793,625.17l-4.335-13.346h-6V625.17h-7.726V585.132h12.9a13.063,13.063,0,0,1,12.895,13.346,13.32,13.32,0,0,1-5.113,10.643l5.113,16.05Zm-5.169-21.343a5.353,5.353,0,0,0,0-10.7h-5.169v10.7Z" transform="translate(-444.728 -585.132)" fill="#379e49"/>
          <path id="パス_105-3" data-name="パス 105" d="M549.933,593.128H531.868v8h14.174v8.054H531.868v8h18.065v8H524.142V585.132h25.791Z" transform="translate(-491.625 -585.132)" fill="#379e49"/>
          <path id="パス_106-3" data-name="パス 106" d="M610.216,671.771H602.49v-7.726h7.726Z" transform="translate(-537.892 -631.733)" fill="#379e49"/>
        </g>
        <g id="グループ_56-3" data-name="グループ 56" transform="translate(90.201 162.598)">
          <g id="グループ_55-3" data-name="グループ 55">
            <path id="パス_107-3" data-name="パス 107" d="M368.84,741.539a3.641,3.641,0,1,1-7.282,0V721.155H355v20.384a10.2,10.2,0,1,0,20.406,0V721.155H368.84Z" transform="translate(-354.996 -720.857)" fill="#379e49"/>
            <path id="パス_108-3" data-name="パス 108" d="M432.809,737.617l-7.4-16.461h-6.449v30.289h6.562v-16.46l7.4,16.46h6.449V721.156h-6.562Z" transform="translate(-392.772 -720.858)" fill="#379e49"/>
            <path id="パス_109-3" data-name="パス 109" d="M532.151,741.109V730.632a10.2,10.2,0,1,0-20.406,0v10.478a10.215,10.215,0,0,0,10.2,10.2,11.133,11.133,0,0,0,1.741-.134l1.947,5.757h6.6l-2.977-8.711A9.8,9.8,0,0,0,532.151,741.109Zm-13.844-10.478a3.647,3.647,0,0,1,3.642-3.642,3.484,3.484,0,0,1,3.64,3.642v10.478a3.641,3.641,0,1,1-7.282,0Z" transform="translate(-447.561 -720.428)" fill="#379e49"/>
            <path id="パス_110-3" data-name="パス 110" d="M580.822,721.156h-6.562v30.289h20.406v-6.562H580.822Z" transform="translate(-484.479 -720.858)" fill="#379e49"/>
            <path id="パス_111-3" data-name="パス 111" d="M639.384,720.428a10.215,10.215,0,0,0-10.2,10.2v10.478a10.2,10.2,0,1,0,20.406,0V730.632A10.215,10.215,0,0,0,639.384,720.428Zm-3.641,10.2a3.641,3.641,0,1,1,7.282,0v10.478a3.641,3.641,0,1,1-7.282,0Z" transform="translate(-516.912 -720.428)" fill="#379e49"/>
          </g>
        </g>
      </g>
      <rect id="長方形_203-3" data-name="長方形 203" width="6.562" height="30.289" transform="translate(142.631 162.896)" fill="#379e49"/>
    </g>
    <g id="グループ_158" data-name="グループ 158" transform="translate(11899 3748)">
      <path id="パス_81-4" data-name="パス 81" d="M239.644,1116.818l-1.519-4.518h-2.1v4.518h-2.708v-13.55h4.518a4.516,4.516,0,0,1,2.726,8.118l1.791,5.432Zm-1.811-7.224a1.811,1.811,0,0,0,0-3.621h-1.81v3.621Z" transform="translate(-192.939 -783.909)" fill="#379e49"/>
      <path id="パス_82-4" data-name="パス 82" d="M270.876,1105.973h-6.327v2.707h4.965v2.725h-4.965v2.705h6.327v2.707h-9.033v-13.55h9.033Z" transform="translate(-209.785 -783.909)" fill="#379e49"/>
      <path id="パス_83-4" data-name="パス 83" d="M294.359,1105.641a1.846,1.846,0,0,0-1.811,1.811v4.79a1.821,1.821,0,0,0,1.811,1.811,1.782,1.782,0,0,0,1.809-1.811h2.708a4.517,4.517,0,0,1-9.034,0v-4.79a4.517,4.517,0,0,1,9.034,0h-2.708A1.794,1.794,0,0,0,294.359,1105.641Z" transform="translate(-226.319 -783.714)" fill="#251e1c"/>
      <path id="パス_84-4" data-name="パス 84" d="M318.145,1116.818v-5.412l-3.154-8.138H317.7l1.811,5,1.809-5h2.708l-3.155,8.138v5.412Z" transform="translate(-241.171 -783.909)" fill="#251e1c"/>
      <path id="パス_85-4" data-name="パス 85" d="M345.61,1105.641a1.847,1.847,0,0,0-1.811,1.811v4.79a1.822,1.822,0,0,0,1.811,1.811,1.783,1.783,0,0,0,1.809-1.811h2.708a4.517,4.517,0,0,1-9.035,0v-4.79a4.517,4.517,0,0,1,9.035,0H347.42A1.794,1.794,0,0,0,345.61,1105.641Z" transform="translate(-256.585 -783.714)" fill="#251e1c"/>
      <path id="パス_86-4" data-name="パス 86" d="M378.887,1114.111v2.707h-9.034v-13.55h2.708v10.843Z" transform="translate(-273.568 -783.909)" fill="#251e1c"/>
      <path id="パス_87-4" data-name="パス 87" d="M406.746,1105.973H400.42v2.707h4.963v2.725H400.42v2.705h6.327v2.707h-9.033v-13.55h9.033Z" transform="translate(-290.021 -783.909)" fill="#251e1c"/>
      <path id="パス_88-4" data-name="パス 88" d="M430.8,1116.818l4.069-13.55h2.706l-4.068,13.55Z" transform="translate(-309.56 -783.909)" fill="#251e1c"/>
      <path id="パス_89-4" data-name="パス 89" d="M465.983,1116.818l-1.519-4.518h-2.1v4.518h-2.708v-13.55h4.518a4.516,4.516,0,0,1,2.726,8.118l1.791,5.432Zm-1.811-7.224a1.811,1.811,0,0,0,0-3.621h-1.81v3.621Z" transform="translate(-326.6 -783.909)" fill="#379e49"/>
      <path id="パス_90-4" data-name="パス 90" d="M497.215,1105.973h-6.327v2.707h4.964v2.725h-4.964v2.705h6.327v2.707h-9.033v-13.55h9.033Z" transform="translate(-343.446 -783.909)" fill="#379e49"/>
      <path id="パス_91-4" data-name="パス 91" d="M525.835,1112.438a4.516,4.516,0,0,1-9.032,0v-9.17h2.705v9.17a1.811,1.811,0,0,0,3.621,0v-9.17h2.705Z" transform="translate(-360.347 -783.909)" fill="#251e1c"/>
      <path id="パス_92-4" data-name="パス 92" d="M549.47,1114.053a1.345,1.345,0,0,0,1.383-1.285,1.122,1.122,0,0,0-.7-1.11l-2.374-1.13a3.81,3.81,0,0,1-2.356-3.544,4.067,4.067,0,0,1,4.088-4.048,4.366,4.366,0,0,1,4.05,2.744l-2.512,1.052a1.652,1.652,0,0,0-1.538-1.091,1.345,1.345,0,0,0-1.383,1.285,1.2,1.2,0,0,0,.7,1.11l2.375,1.13a3.707,3.707,0,0,1,2.357,3.542,4.048,4.048,0,0,1-4.108,4.051,4.334,4.334,0,0,1-4.03-2.744l2.492-1.052A1.7,1.7,0,0,0,549.47,1114.053Z" transform="translate(-377.247 -783.714)" fill="#251e1c"/>
      <path id="パス_93-4" data-name="パス 93" d="M580.506,1105.973h-6.327v2.707h4.965v2.725h-4.965v2.705h6.327v2.707h-9.034v-13.55h9.034Z" transform="translate(-392.631 -783.909)" fill="#251e1c"/>
      <path id="パス_94-4" data-name="パス 94" d="M604.56,1116.818l4.069-13.55h2.707l-4.069,13.55Z" transform="translate(-412.171 -783.909)" fill="#251e1c"/>
      <path id="パス_95-4" data-name="パス 95" d="M639.745,1116.818l-1.519-4.518h-2.1v4.518h-2.705v-13.55h4.516a4.517,4.517,0,0,1,2.726,8.118l1.79,5.432Zm-1.811-7.224a1.811,1.811,0,1,0,0-3.621h-1.811v3.621Z" transform="translate(-429.212 -783.909)" fill="#379e49"/>
      <path id="パス_96-4" data-name="パス 96" d="M670.974,1105.973h-6.327v2.707h4.963v2.725h-4.963v2.705h6.327v2.707h-9.033v-13.55h9.033Z" transform="translate(-446.056 -783.909)" fill="#379e49"/>
      <path id="パス_97-4" data-name="パス 97" d="M694.982,1103.268a4.5,4.5,0,0,1,4.517,4.516v4.516a4.516,4.516,0,0,1-4.517,4.518h-4.518v-13.55Zm1.811,9.032v-4.516a1.821,1.821,0,0,0-1.811-1.811h-1.811v8.138h1.811A1.82,1.82,0,0,0,696.792,1112.3Z" transform="translate(-462.9 -783.909)" fill="#251e1c"/>
      <path id="パス_98-4" data-name="パス 98" d="M728.164,1112.438a4.517,4.517,0,0,1-9.034,0v-9.17h2.707v9.17a1.81,1.81,0,1,0,3.62,0v-9.17h2.707Z" transform="translate(-479.828 -783.909)" fill="#251e1c"/>
      <path id="パス_99-4" data-name="パス 99" d="M752.506,1105.641a1.847,1.847,0,0,0-1.811,1.811v4.79a1.821,1.821,0,0,0,1.811,1.811,1.783,1.783,0,0,0,1.811-1.811h2.707a4.517,4.517,0,0,1-9.034,0v-4.79a4.517,4.517,0,0,1,9.034,0h-2.707A1.794,1.794,0,0,0,752.506,1105.641Z" transform="translate(-496.871 -783.714)" fill="#251e1c"/>
      <path id="パス_100-4" data-name="パス 100" d="M785.738,1105.973H779.41v2.707h4.964v2.725H779.41v2.705h6.328v2.707H776.7v-13.55h9.035Z" transform="translate(-513.827 -783.909)" fill="#251e1c"/>
      <g id="グループ_57-4" data-name="グループ 57" transform="translate(0 0)">
        <g id="グループ_53-4" data-name="グループ 53" transform="translate(0 0)">
          <g id="グループ_52-4" data-name="グループ 52">
            <g id="グループ_51-4" data-name="グループ 51">
              <g id="グループ_50-4" data-name="グループ 50">
                <g id="グループ_49-4" data-name="グループ 49">
                  <path id="パス_101-4" data-name="パス 101" d="M454.145,374.186l-22.669-39.265-.137-.222a25.315,25.315,0,0,0-8.283-8.182,25.864,25.864,0,0,0-11.563-3.187l-61.321.02h0c-8.011-.095-16.693,3.089-21.628,11.634L285.813,409l47.339,27.331,46.865-81.172c17.047,29.546,54.958,95.132,54.958,95.132l46.7-92.05Zm-19.668,57.887c-13.139-22.734-57.582-99.744-57.79-100.089h33.388l.279,0a17.665,17.665,0,0,1,8.358,2.053,16.711,16.711,0,0,1,5.308,5.34l26.952,46.682,9.695-5.615Z" transform="translate(-223.94 -323.331)" fill="#379e49"/>
                  <path id="パス_102-4" data-name="パス 102" d="M162.277,646.728l-22.67,39.263-.124.23a25.322,25.322,0,0,0-2.944,11.264,25.863,25.863,0,0,0,3.022,11.607l30.678,53.1h0c3.923,6.986,11.022,12.912,20.889,12.913H276.6V720.437h-93.73c17.064-29.537,54.908-95.161,54.908-95.161l-103.067,5.583Zm59.966-11.911c-13.119,22.746-57.59,99.74-57.784,100.092l-16.694-28.915-.136-.243a17.664,17.664,0,0,1-2.4-8.265,16.711,16.711,0,0,1,1.971-7.266l26.952-46.682-9.711-5.588Z" transform="translate(-134.707 -501.639)" fill="#379e49"/>
                  <path id="パス_103-4" data-name="パス 103" d="M567.547,755.822h45.338l.26-.007a25.32,25.32,0,0,0,11.228-3.082,25.868,25.868,0,0,0,8.541-8.421L663.557,691.2h0c4.088-6.89,5.671-16,.739-24.547L621.56,592.633l-47.339,27.331,46.865,81.172c-34.111-.009-109.866.029-109.866.029l56.368,86.468Zm-40.3-45.976c26.258-.012,115.172,0,115.574,0l-16.694,28.915-.143.24a17.664,17.664,0,0,1-5.957,6.212,16.71,16.71,0,0,1-7.278,1.926h-53.9l.016,11.2Z" transform="translate(-357.05 -482.363)" fill="#379e49"/>
                </g>
              </g>
            </g>
          </g>
        </g>
        <g id="グループ_54-4" data-name="グループ 54" transform="translate(126.943 107.199)">
          <path id="パス_104-4" data-name="パス 104" d="M462.793,625.17l-4.335-13.346h-6V625.17h-7.726V585.132h12.9a13.063,13.063,0,0,1,12.895,13.346,13.32,13.32,0,0,1-5.113,10.643l5.113,16.05Zm-5.169-21.343a5.353,5.353,0,0,0,0-10.7h-5.169v10.7Z" transform="translate(-444.728 -585.132)" fill="#379e49"/>
          <path id="パス_105-4" data-name="パス 105" d="M549.933,593.128H531.868v8h14.174v8.054H531.868v8h18.065v8H524.142V585.132h25.791Z" transform="translate(-491.625 -585.132)" fill="#379e49"/>
          <path id="パス_106-4" data-name="パス 106" d="M610.216,671.771H602.49v-7.726h7.726Z" transform="translate(-537.892 -631.733)" fill="#379e49"/>
        </g>
        <g id="グループ_56-4" data-name="グループ 56" transform="translate(90.201 162.598)">
          <g id="グループ_55-4" data-name="グループ 55">
            <path id="パス_107-4" data-name="パス 107" d="M368.84,741.539a3.641,3.641,0,1,1-7.282,0V721.155H355v20.384a10.2,10.2,0,1,0,20.406,0V721.155H368.84Z" transform="translate(-354.996 -720.857)" fill="#251e1c"/>
            <path id="パス_108-4" data-name="パス 108" d="M432.809,737.617l-7.4-16.461h-6.449v30.289h6.562v-16.46l7.4,16.46h6.449V721.156h-6.562Z" transform="translate(-392.772 -720.858)" fill="#251e1c"/>
            <path id="パス_109-4" data-name="パス 109" d="M532.151,741.109V730.632a10.2,10.2,0,1,0-20.406,0v10.478a10.215,10.215,0,0,0,10.2,10.2,11.133,11.133,0,0,0,1.741-.134l1.947,5.757h6.6l-2.977-8.711A9.8,9.8,0,0,0,532.151,741.109Zm-13.844-10.478a3.647,3.647,0,0,1,3.642-3.642,3.484,3.484,0,0,1,3.64,3.642v10.478a3.641,3.641,0,1,1-7.282,0Z" transform="translate(-447.561 -720.428)" fill="#251e1c"/>
            <path id="パス_110-4" data-name="パス 110" d="M580.822,721.156h-6.562v30.289h20.406v-6.562H580.822Z" transform="translate(-484.479 -720.858)" fill="#251e1c"/>
            <path id="パス_111-4" data-name="パス 111" d="M639.384,720.428a10.215,10.215,0,0,0-10.2,10.2v10.478a10.2,10.2,0,1,0,20.406,0V730.632A10.215,10.215,0,0,0,639.384,720.428Zm-3.641,10.2a3.641,3.641,0,1,1,7.282,0v10.478a3.641,3.641,0,1,1-7.282,0Z" transform="translate(-516.912 -720.428)" fill="#251e1c"/>
          </g>
        </g>
      </g>
      <rect id="長方形_203-4" data-name="長方形 203" width="6.562" height="30.289" transform="translate(142.631 162.896)" fill="#251e1c"/>
    </g>
  </g>
</svg>
