<?xml version="1.0" encoding="utf-8"?>
<!-- Generator: Adobe Illustrator 21.0.0, SVG Export Plug-In . SVG Version: 6.00 Build 0)  -->
<svg version="1.1" id="section" xmlns="http://www.w3.org/2000/svg" xmlns:xlink="http://www.w3.org/1999/xlink" x="0px" y="0px"
	 viewBox="0 0 781 566" style="enable-background:new 0 0 781 566;" xml:space="preserve">
<style type="text/css">
	.st0{fill:none;stroke:#009B46;stroke-width:3.5;stroke-linecap:round;stroke-dasharray:0,9.065;}
	.st1{fill:#009B46;}
	.st2{fill:#00A040;}
	.st3{fill:#505564;}
</style>
<path id="シェイプ_1" class="st0" d="M173,491h-59V329.5h664.4V145H754"/>
<path id="シェイプ_2" class="st1" d="M178.9,500.5v-17.5l11.9,8.8L178.9,500.5z"/>
<g id="グループ_44">
	<path id="シェイプ_4" class="st2" d="M57.9,204.3c0-0.1-0.1-0.1-0.1-0.2v-65.2c0-0.3,0-0.5,0.1-0.7c0.1-0.4,0.2-0.8,0.4-1.5
		c0.3-1.6,0.6-6.7-2-9.8c-0.1-0.2-0.2-0.3-0.4-0.5c0.2-0.3,0.3-0.6,0.5-0.8c2.1-3,2.4-5.1,1.3-15.5c-0.9-7.4-3.6-14.4-8-20.4
		c-1.1-1.5-2.4-2.8-4-3.9c-0.8-0.4-1.4-1.1-1.8-1.8c0.7-0.9,1.1-2,1.1-3.1c0-0.1,0-0.2,0-0.3l-0.3-2.3v-4.3c0-1.9,0-4-2.3-5.8
		c-1.7-1.3-3.7-1.1-5.6-1c-1.4,0.1-2.8,0.1-4.3,0c-1.9-0.1-3.9-0.3-5.6,1c-2.3,1.8-2.3,3.9-2.3,5.8v4.3l-0.3,2.3c0,0.1,0,0.2,0,0.3
		c0,1.1,0.4,2.2,1.1,3.1c-0.4,0.8-1.1,1.4-1.8,1.8c-1.5,1.1-2.9,2.4-4,3.9c-4.4,6-7.2,13-8,20.4c-1.1,10.4-0.7,12.5,1.3,15.5
		c0.2,0.3,0.4,0.5,0.5,0.8c-0.1,0.2-0.2,0.3-0.4,0.5c-2.6,3.1-2.3,8.3-2,9.8c0.1,0.6,0.2,1.1,0.4,1.5c0.1,0.2,0.1,0.5,0.1,0.8v65.2
		c0,0.1-0.1,0.1-0.1,0.2c-0.6,1.3-0.7,2.8-0.2,4.1c-0.3,2.1,0.1,4.2,1.2,6c1.6,2.8,4.6,4.5,7.8,4.6c4.4,0,13.9,0.8,14,0.8
		s0.2,0,0.3,0s0.2,0,0.3,0s9.6-0.8,14-0.8c3.2,0,6.2-1.8,7.8-4.6c1.1-1.8,1.6-3.9,1.2-6C58.6,207.1,58.5,205.6,57.9,204.3z
		 M17.6,124.4c0-0.1-0.1-0.1-0.1-0.2s-0.1-0.1-0.1-0.2c-0.2-0.3-0.4-0.6-0.6-1c0,0,0,0,0,0c-0.7-1-1.2-1.7-1.1-4.9
		c0-1.7,0.2-4.1,0.6-7.6c0-0.1,0-0.3,0.1-0.4c0.1-0.8,0.2-1.5,0.3-2.3c0.1-0.3,0.2-0.7,0.2-1c0.1-0.5,0.2-1.1,0.4-1.6
		c0.1-0.4,0.2-0.7,0.3-1.1c0.2-0.5,0.3-1,0.5-1.5c0.1-0.4,0.3-0.7,0.4-1c0.2-0.5,0.3-0.9,0.5-1.4c0.1-0.3,0.3-0.6,0.4-1
		c0.2-0.4,0.4-0.9,0.6-1.3c0.2-0.3,0.3-0.6,0.5-0.9c0.2-0.4,0.4-0.8,0.6-1.1c0.2-0.3,0.3-0.5,0.5-0.8c0.2-0.3,0.4-0.7,0.6-1
		c0.2-0.2,0.3-0.5,0.5-0.7c0.1-0.2,0.2-0.4,0.4-0.5h23.6c0.1,0.2,0.3,0.4,0.4,0.5c0.2,0.2,0.3,0.4,0.5,0.7c0.2,0.3,0.4,0.7,0.6,1
		c0.2,0.3,0.3,0.5,0.5,0.8c0.2,0.4,0.4,0.8,0.6,1.1c0.2,0.3,0.3,0.6,0.5,0.9c0.2,0.4,0.4,0.8,0.6,1.3c0.1,0.3,0.3,0.6,0.4,1
		c0.2,0.5,0.4,0.9,0.5,1.4c0.1,0.3,0.3,0.7,0.4,1c0.2,0.5,0.3,1,0.5,1.6c0.1,0.3,0.2,0.7,0.3,1c0.2,0.6,0.3,1.2,0.4,1.8
		c0.1,0.3,0.1,0.6,0.2,0.9c0.2,0.9,0.3,1.8,0.4,2.8c1.1,10.1,0.5,10.9-0.6,12.4c0,0,0,0,0,0c-0.3,0.4-0.5,0.7-0.6,1
		c0,0.1-0.1,0.1-0.1,0.2s-0.1,0.1-0.1,0.2L17.6,124.4L17.6,124.4z M29.3,78.3v-4.5c0-1.3,0-1.7,0.2-2c0.1-0.1,0.2-0.2,0.3-0.3
		c0,0,0.1,0,0.1,0c0.8-0.2,1.6-0.2,2.4-0.1c1.6,0.1,3.3,0.1,4.9,0c0.6-0.1,1.3-0.1,1.9-0.1c0.2,0,0.4,0,0.6,0.1
		c0.1,0.1,0.2,0.2,0.3,0.3c0.2,0.3,0.2,0.7,0.2,2v4.5c0,0.1,0,0.1,0,0.2l0,0.1l0,0.1H29.2L29.3,78.3z M26.1,89.6
		c2.3-1.5,3.8-3.4,4-5.4c0.2-1-0.1-1.9-0.8-2.7c0,0,0,0,0-0.1h10.8c0,0,0,0,0,0.1c-0.6,0.7-0.9,1.7-0.8,2.7c0.2,2,1.7,3.9,4,5.4
		c0.3,0.2,0.5,0.4,0.7,0.6H25.4C25.7,89.9,25.9,89.7,26.1,89.6z M53.7,206c0.3,0.4,0.2,1-0.2,1.3c-0.3,0.4-0.3,1-0.1,1.5
		c0.4,1.1,0.2,2.4-0.5,3.3c-0.8,1.4-2.3,2.3-3.9,2.4c-4.4,0-13.1,0.7-14.3,0.8c-1.2-0.1-9.9-0.8-14.3-0.8c-1.6,0-3.1-0.9-3.9-2.4
		c-0.7-1-0.9-2.2-0.5-3.3c0.3-0.5,0.2-1-0.1-1.5c-0.4-0.3-0.5-0.9-0.2-1.3c0.3-0.6,0.4-1.2,0.4-1.8v-65.3c0-0.7-0.1-1.3-0.3-1.9
		c-0.1-0.3-0.2-0.6-0.3-1.1c-0.3-1.4-0.1-4.7,1.1-6.1c0.7-0.7,1.1-1.6,1.4-2.6h33.4c0.2,1,0.7,1.8,1.4,2.6c1.2,1.4,1.3,4.7,1.1,6.1
		c-0.1,0.5-0.2,0.8-0.3,1.1c-0.2,0.6-0.3,1.3-0.3,1.9v65.3C53.3,204.8,53.5,205.4,53.7,206L53.7,206z M166.5,204.3
		c0-0.1-0.1-0.1-0.1-0.2v-65.2c0-0.3,0-0.5,0.1-0.7c0.1-0.4,0.2-0.8,0.4-1.5c0.3-1.6,0.6-6.7-2-9.8c-0.1-0.2-0.2-0.3-0.4-0.5
		c0.2-0.3,0.3-0.6,0.5-0.8c2.1-3,2.4-5.1,1.3-15.5c-0.9-7.4-3.6-14.4-8-20.4c-1.1-1.5-2.4-2.8-4-3.9c-0.8-0.4-1.4-1.1-1.8-1.8
		c0.7-0.9,1.1-2,1.1-3.1c0-0.1,0-0.2,0-0.3l-0.3-2.3v-4.3c0-1.9,0-4-2.3-5.8c-1.7-1.3-3.7-1.1-5.6-1c-1.4,0.1-2.8,0.1-4.3,0
		c-1.9-0.1-3.9-0.3-5.6,1c-2.3,1.8-2.3,3.9-2.3,5.8v4.3l-0.3,2.3c0,0.1,0,0.2,0,0.3c0,1.1,0.4,2.2,1.1,3.1c-0.4,0.8-1.1,1.4-1.8,1.8
		c-1.5,1.1-2.9,2.4-4,3.9c-4.4,6-7.2,13-8,20.4c-1.1,10.4-0.7,12.5,1.3,15.5c0.2,0.3,0.4,0.5,0.5,0.8c-0.1,0.2-0.2,0.3-0.4,0.5
		c-2.6,3.1-2.3,8.3-2,9.8c0.1,0.6,0.2,1.1,0.4,1.5c0.1,0.2,0.1,0.5,0.1,0.8v65.2c0,0.1-0.1,0.1-0.1,0.2c-0.6,1.3-0.7,2.8-0.2,4.1
		c-0.3,2.1,0.1,4.2,1.2,6c1.6,2.8,4.6,4.5,7.8,4.6c4.4,0,13.9,0.8,14,0.8s0.2,0,0.3,0s0.2,0,0.3,0s9.6-0.8,14-0.8
		c3.2,0,6.2-1.8,7.8-4.6c1.1-1.8,1.6-3.9,1.2-6C167.2,207.1,167.1,205.6,166.5,204.3L166.5,204.3z M126.2,124.4
		c0-0.1-0.1-0.1-0.1-0.2s-0.1-0.1-0.1-0.2c-0.2-0.3-0.4-0.6-0.6-1c-0.1-0.1-0.2-0.3-0.3-0.4c-0.5-0.8-0.9-1.7-0.9-4.1
		c0-1.7,0.2-4.2,0.6-8c0-0.1,0-0.3,0.1-0.4c0.1-0.8,0.2-1.5,0.3-2.3c0.1-0.3,0.2-0.7,0.2-1c0.1-0.5,0.2-1.1,0.4-1.6
		c0.1-0.4,0.2-0.7,0.3-1.1c0.2-0.5,0.3-1,0.5-1.5c0.1-0.3,0.3-0.7,0.4-1c0.2-0.5,0.3-0.9,0.5-1.4c0.1-0.3,0.3-0.6,0.4-1
		c0.2-0.4,0.4-0.9,0.6-1.3c0.1-0.3,0.3-0.6,0.5-0.9c0.2-0.4,0.4-0.8,0.6-1.1c0.2-0.3,0.3-0.5,0.5-0.8c0.2-0.3,0.4-0.7,0.6-1
		c0.2-0.2,0.3-0.5,0.5-0.7c0.1-0.2,0.3-0.4,0.4-0.5h23.6c0.1,0.2,0.3,0.4,0.4,0.5c0.2,0.2,0.3,0.4,0.5,0.7c0.2,0.3,0.4,0.6,0.6,1
		c0.2,0.3,0.3,0.5,0.5,0.8c0.2,0.4,0.4,0.7,0.6,1.1c0.2,0.3,0.3,0.6,0.5,0.9c0.2,0.4,0.4,0.8,0.6,1.2c0.1,0.3,0.3,0.7,0.4,1
		c0.2,0.4,0.4,0.9,0.5,1.4c0.1,0.3,0.3,0.7,0.4,1c0.2,0.5,0.3,1,0.5,1.5c0.1,0.3,0.2,0.7,0.3,1c0.2,0.6,0.3,1.2,0.4,1.8
		c0.1,0.3,0.1,0.6,0.2,0.9c0.2,0.9,0.3,1.8,0.4,2.8c1.1,10.1,0.5,10.9-0.6,12.4c-0.1,0.2-0.3,0.4-0.4,0.6c-0.1,0.1-0.1,0.2-0.2,0.3
		c-0.1,0.1-0.1,0.2-0.2,0.3c0,0,0,0.1-0.1,0.1L126.2,124.4L126.2,124.4z M137.9,78.3v-4.5c0-1.7,0-1.8,0.5-2.2
		c0.8-0.2,1.7-0.2,2.5-0.1c1.6,0.1,3.3,0.1,4.9,0c0.7-0.1,1.3-0.1,2,0c0.2,0,0.4,0,0.6,0.1c0.1,0.1,0.2,0.2,0.3,0.3
		c0.2,0.3,0.2,0.7,0.2,2v4.5c0,0.1,0,0.1,0,0.2l0,0.1l0,0.1h-11.1L137.9,78.3z M134.8,89.6c2.3-1.5,3.8-3.4,4-5.4
		c0.2-1-0.1-1.9-0.8-2.7c0,0,0,0,0-0.1h10.8c0,0,0,0,0,0.1c-0.6,0.7-0.9,1.7-0.8,2.7c0.2,2,1.7,3.9,4,5.4c0.3,0.2,0.5,0.4,0.7,0.6
		h-18.7C134.3,89.9,134.5,89.7,134.8,89.6L134.8,89.6z M162.4,206c0.3,0.4,0.2,1-0.2,1.3c-0.3,0.4-0.3,1-0.1,1.5
		c0.4,1.1,0.2,2.4-0.5,3.3c-0.8,1.4-2.3,2.3-3.9,2.4c-4.4,0-13.1,0.7-14.3,0.8c-1.2-0.1-9.9-0.8-14.3-0.8c-1.6,0-3.1-0.9-3.9-2.4
		c-0.7-1-0.9-2.2-0.5-3.3c0.3-0.5,0.2-1-0.1-1.5c-0.4-0.3-0.5-0.9-0.2-1.3c0.3-0.6,0.4-1.2,0.4-1.8v-65.3c0-0.7-0.1-1.3-0.3-1.9
		c-0.1-0.3-0.2-0.6-0.3-1.1c-0.3-1.4-0.1-4.6,1.1-6.1c0.7-0.7,1.1-1.6,1.4-2.6h33.4c0.2,1,0.7,1.8,1.4,2.6c1.2,1.4,1.3,4.7,1.1,6.1
		c-0.1,0.5-0.2,0.8-0.3,1.1c-0.2,0.6-0.3,1.3-0.3,2v65.3C162,204.8,162.1,205.4,162.4,206L162.4,206z M112.2,204.3
		c0-0.1-0.1-0.1-0.1-0.2v-65.2c0-0.3,0-0.5,0.1-0.7c0.1-0.4,0.2-0.8,0.4-1.5c0.3-1.6,0.6-6.7-2-9.8c-0.1-0.2-0.2-0.3-0.4-0.5
		c0.2-0.3,0.3-0.6,0.5-0.8c2.1-3,2.4-5.1,1.3-15.5c-0.9-7.4-3.6-14.4-8-20.4c-1.1-1.5-2.4-2.8-4-3.9c-0.8-0.4-1.4-1.1-1.8-1.8
		c0.7-0.9,1.1-2,1.1-3.1c0-0.1,0-0.2,0-0.3l-0.3-2.3v-4.3c0-1.9,0-4-2.3-5.8c-1.7-1.3-3.7-1.1-5.6-1c-1.4,0.1-2.8,0.1-4.3,0
		c-1.9-0.1-3.9-0.3-5.6,1c-2.3,1.8-2.3,3.9-2.3,5.8v4.3l-0.3,2.3c0,0.1,0,0.2,0,0.3c0,1.1,0.4,2.2,1.1,3.1c-0.4,0.8-1.1,1.4-1.8,1.8
		c-1.5,1.1-2.9,2.4-4,3.9c-4.4,6-7.2,13-8,20.4c-1.1,10.4-0.7,12.5,1.3,15.5c0.2,0.3,0.4,0.5,0.5,0.8c-0.1,0.2-0.2,0.3-0.4,0.5
		c-2.6,3.1-2.3,8.3-2,9.8c0.1,0.6,0.2,1.1,0.4,1.5c0.1,0.2,0.1,0.5,0.1,0.8v65.2c0,0.1-0.1,0.1-0.1,0.2c-0.6,1.3-0.7,2.8-0.2,4.1
		c-0.3,2.1,0.1,4.2,1.2,6c1.6,2.8,4.6,4.5,7.8,4.6c4.4,0,13.9,0.8,14,0.8s0.2,0,0.3,0s0.2,0,0.3,0s9.6-0.8,14-0.8
		c3.2,0,6.2-1.8,7.8-4.6c1.1-1.8,1.6-3.9,1.2-6C112.9,207.1,112.8,205.6,112.2,204.3z M71.9,124.4c0-0.1-0.1-0.1-0.1-0.2
		s-0.1-0.1-0.1-0.2c-0.2-0.3-0.4-0.6-0.6-1c0,0,0,0,0,0c-0.7-1-1.2-1.7-1.1-4.9c0-1.7,0.2-4.1,0.6-7.6c0-0.1,0-0.3,0.1-0.4
		c0.1-0.8,0.2-1.5,0.3-2.3c0.1-0.3,0.2-0.7,0.2-1c0.1-0.5,0.2-1.1,0.4-1.6c0.1-0.4,0.2-0.7,0.3-1.1c0.2-0.5,0.3-1,0.5-1.5
		c0.1-0.4,0.3-0.7,0.4-1c0.2-0.5,0.3-0.9,0.5-1.4c0.1-0.3,0.3-0.6,0.4-1c0.2-0.4,0.4-0.9,0.6-1.3c0.2-0.3,0.3-0.6,0.5-0.9
		c0.2-0.4,0.4-0.8,0.6-1.1c0.2-0.3,0.3-0.5,0.5-0.8c0.2-0.3,0.4-0.7,0.6-1c0.2-0.2,0.3-0.5,0.5-0.7c0.1-0.2,0.2-0.4,0.4-0.5h23.6
		c0.1,0.2,0.3,0.4,0.4,0.5c0.2,0.2,0.3,0.4,0.5,0.7c0.2,0.3,0.4,0.6,0.6,1c0.2,0.3,0.3,0.5,0.5,0.8c0.2,0.4,0.4,0.7,0.6,1.1
		c0.2,0.3,0.3,0.6,0.5,0.9c0.2,0.4,0.4,0.8,0.6,1.2c0.1,0.3,0.3,0.7,0.4,1c0.2,0.4,0.4,0.9,0.5,1.4c0.1,0.3,0.3,0.7,0.4,1
		c0.2,0.5,0.3,1,0.5,1.5c0.1,0.3,0.2,0.7,0.3,1c0.2,0.6,0.3,1.2,0.4,1.8c0.1,0.3,0.1,0.6,0.2,0.9c0.2,0.9,0.3,1.8,0.4,2.8
		c1.1,10.1,0.5,10.9-0.6,12.4c-0.1,0.2-0.3,0.4-0.4,0.6c-0.1,0.1-0.1,0.2-0.2,0.3c-0.1,0.1-0.1,0.2-0.2,0.3c0,0,0,0.1-0.1,0.1
		L71.9,124.4L71.9,124.4z M83.6,78.3v-4.5c0-1.3,0-1.7,0.2-2c0.1-0.1,0.2-0.2,0.3-0.3c0,0,0.1,0,0.1,0c0.8-0.1,1.6-0.2,2.4,0
		c1.6,0.1,3.3,0.1,4.9,0c0.7-0.1,1.3-0.1,2,0c0.2,0,0.4,0.1,0.5,0.1c0.1,0.1,0.2,0.2,0.3,0.3c0.2,0.3,0.2,0.7,0.2,2v4.5
		c0,0.1,0,0.1,0,0.2l0,0.1l0,0.1H83.5L83.6,78.3z M80.5,89.6c2.3-1.5,3.8-3.4,4-5.4c0.2-1-0.1-1.9-0.8-2.7c0,0,0,0,0-0.1h10.8
		c0,0,0,0,0,0.1c-0.6,0.7-0.9,1.7-0.8,2.7c0.2,2,1.7,3.9,4,5.4c0.3,0.2,0.5,0.4,0.7,0.6H79.7C80,89.9,80.2,89.7,80.5,89.6z
		 M108.1,206c0.3,0.4,0.2,1-0.2,1.3c-0.3,0.4-0.3,1-0.1,1.5c0.4,1.1,0.2,2.4-0.5,3.3c-0.8,1.4-2.3,2.3-3.9,2.4
		c-4.4,0-13.1,0.7-14.3,0.8c-1.2-0.1-9.9-0.8-14.3-0.8c-1.6,0-3.1-0.9-3.9-2.4c-0.7-1-0.9-2.2-0.5-3.3c0.3-0.5,0.2-1-0.1-1.5
		c-0.4-0.3-0.5-0.9-0.2-1.3c0.3-0.6,0.4-1.2,0.4-1.8v-65.3c0-0.7-0.1-1.3-0.3-1.9c-0.1-0.3-0.2-0.6-0.3-1.1
		c-0.3-1.4-0.1-4.6,1.1-6.1c0.7-0.7,1.1-1.6,1.4-2.6h33.4c0.2,1,0.7,1.8,1.4,2.6c1.2,1.4,1.3,4.7,1.1,6.1c-0.1,0.5-0.2,0.8-0.3,1.1
		c-0.2,0.6-0.3,1.3-0.3,1.9v65.3C107.7,204.8,107.8,205.4,108.1,206L108.1,206z"/>
	<path id="シェイプ_7" class="st2" d="M324,132.2c-0.3,0-0.6-0.1-0.9-0.3l-5.7-4.7c-0.5-0.4-0.7-1.2-0.3-1.8l4.1-7.3
		c0.2-0.4,0.6-0.6,1-0.7c0.4-0.1,0.8,0,1.2,0.3l8.3,6.7c0.6,0.5,0.7,1.4,0.2,2c-0.1,0.1-0.1,0.2-0.2,0.2l-6.7,5.2
		C324.6,132.1,324.3,132.2,324,132.2z M320.1,125.7l3.9,3.2l4.4-3.4l-5.6-4.6L320.1,125.7z M355.2,142.6c-0.4,0-0.7-0.2-1-0.4
		l-5.1-5.1c-0.6-0.6-0.6-1.4,0-2c0,0,0.1-0.1,0.2-0.1l11.7-8.8c0.4-0.3,1-0.4,1.5-0.1l7.3,3.6c0.7,0.3,1,1.2,0.6,1.9
		c0,0.1-0.1,0.1-0.1,0.2l-5.8,8.8c-0.2,0.3-0.5,0.5-0.9,0.6l-8,1.5C355.3,142.6,355.2,142.6,355.2,142.6L355.2,142.6z M352.2,136.3
		l3.4,3.4l6.7-1.2l4.6-6.9l-5.1-2.5L352.2,136.3z M347.9,113.4H342c-0.5,0-0.9-0.2-1.2-0.6l-4.4-6.6c-0.4-0.6-0.3-1.3,0.2-1.8
		l4.4-4.4c0.2-0.2,0.5-0.4,0.8-0.4l5.8-0.7c0.5-0.1,0.9,0.1,1.2,0.5l5.1,5.8c0.2,0.2,0.3,0.4,0.3,0.7l0.7,3.7
		c0.1,0.7-0.2,1.4-0.9,1.6l-5.8,2.2C348.2,113.4,348,113.4,347.9,113.4L347.9,113.4z M342.8,110.6h4.8l4.5-1.7l-0.4-2.1l-4.4-5
		l-4.6,0.6l-3.2,3.2L342.8,110.6z M423.7,119.1c0-0.3-0.2-0.6-0.4-0.8c0.7-1.2,0.9-2.7,0.6-4c-0.1-0.5-0.6-0.8-1.1-0.7
		c-0.5,0.1-0.8,0.6-0.7,1c0.2,1.1,0,2.2-0.6,3.2l-6.4-0.6c-0.6-0.1-1.2,0.3-1.5,0.9l-3.5,9.2c-0.1,0.1-0.2,0.1-0.3,0.2
		c-4.8,2.6-9.9,4.7-15.1,6.5c0.1-0.1,0.2-0.3,0.2-0.5l2-10c0.1-0.4,0-0.8-0.3-1.1l-6-8c-0.5-0.6-1.4-0.8-2-0.3
		c-0.2,0.1-0.3,0.3-0.4,0.5l-3.3,6.7c-0.1,0.2-0.2,0.5-0.1,0.7l0.7,9.3c0,0.6,0.4,1.1,1,1.3l6.6,2c-6.1,2.1-12.3,3.8-18.5,5.2
		c-13.7,3-26.9,4.4-37.2,3.7c-9.8-0.6-15.8-2.9-16.6-6.4c-0.1-0.5-0.6-0.8-1.1-0.7s-0.8,0.6-0.7,1.1l0,0c1,4.4,7.4,7.1,18.2,7.8
		c1.7,0.1,3.4,0.2,5.3,0.2c10.9-0.2,21.8-1.5,32.4-3.9c13.7-3,26.3-7.4,35.5-12.3l6.5,7.2c0.5,0.5,1.3,0.6,1.9,0.2l5.8-4.4
		c0.4-0.3,0.6-0.8,0.6-1.3L423.7,119.1z M388.3,130.2l-0.6-8l2.1-4.3l4.2,5.7l-1.6,7.9L388.3,130.2z M416,120.1l3.7,0.4
		c-1.7,1.7-3.5,3.2-5.6,4.5L416,120.1z M418.1,133.5l-5.1-5.7l0-0.1c3-1.7,5.7-3.8,8.1-6.2l1.1,8.9L418.1,133.5z M423.9,139.7
		c-0.1-0.5-0.6-0.8-1-0.7c-0.5,0.1-0.8,0.6-0.7,1c0,0,0,0,0,0c0.7,3.2-3,7.4-10.3,11.6l-0.7-1.6c-0.3-0.6-1-1-1.7-0.8l-6.6,1.8
		c-0.5,0.1-0.9,0.6-1,1.1l-0.8,4.8c-7.5,3.1-15.2,5.5-23.1,7.4l1.1-3c0.2-0.6,0-1.4-0.6-1.7l-8.4-4.8c-0.5-0.3-1.2-0.2-1.6,0.2
		l-4.8,4.2c-0.3,0.3-0.5,0.7-0.5,1.1v7c-8.5,1.4-17.2,2-25.8,1.6c-2.6-0.1-5.2-0.5-7.8-1l2.7-4c0.3-0.5,0.3-1,0-1.5l-4.4-7.3
		c-0.4-0.7-1.3-0.9-1.9-0.5c0,0-0.1,0-0.1,0.1l-10.2,7.3c-0.4,0.3-0.7,0.9-0.6,1.4l1.5,8c0.1,0.6,0.6,1.1,1.3,1.2l7.3,0.7
		c0,0,0.1,0,0.1,0c0.5,0,0.9-0.2,1.2-0.6l2.1-3.2c2.9,0.7,5.8,1.1,8.8,1.2c1.7,0.1,3.4,0.2,5.3,0.2c7.3-0.1,14.5-0.7,21.7-1.9
		l4.9,3.8c0.4,0.3,1,0.4,1.5,0.1l4.8-2.4c0.3-0.2,0.6-0.4,0.7-0.8l1.2-3.4c8-1.8,15.8-4.3,23.4-7.3l-0.1,0.4
		c-0.1,0.6,0.2,1.3,0.8,1.5l8.4,3.6c0.2,0.1,0.4,0.1,0.6,0.1c0,0,0.1,0,0.1,0l6.6-0.6c0.6-0.1,1.2-0.5,1.3-1.2l0.6-3.6
		c0.1-0.5-0.1-1.1-0.6-1.4l-5.7-4l-0.2-0.6C420.8,148.5,424.8,143.7,423.9,139.7L423.9,139.7z M326.3,157.9l3.1,5.2l-2.7,4.1
		c-3.4-1.1-5.5-2.7-5.9-4.6c0-0.2-0.2-0.4-0.3-0.5L326.3,157.9z M324.5,170.4l-5.4-0.5l-1.1-6.1l1.1-0.8c0.6,2.4,2.8,4.3,6.6,5.7
		L324.5,170.4z M366.1,166.7v-5.8l3.5-3.1l6.5,3.7l-1.3,3.6l-0.2,0.1C371.7,165.8,368.9,166.3,366.1,166.7L366.1,166.7z M370.2,170
		l-2.2-1.7c2-0.4,4-0.8,6.1-1.2l-0.4,1.2L370.2,170z M404.6,153.5l4.5-1.2l0.3,0.7c-1.6,0.9-3.4,1.7-5.2,2.5L404.6,153.5z
		 M416.1,159.6l-0.3,1.6l-5.1,0.5l-7-3l0.2-1c2.2-1,4.3-2,6.2-3l0.3,0.7c0.1,0.2,0.3,0.4,0.5,0.6L416.1,159.6z M443.5,70
		c-1.4,0-2.5,1.1-2.5,2.5v0V97c-19.2,10.8-41.1,12.6-58.8,4.7c-3.5-1.8-6.7-3.7-9.9-5.6c-4.6-3-9.4-5.6-14.5-7.6
		c-18.3-6.1-37.2-4.1-54.8,5.8V72.5c0-1.4-1.1-2.5-2.5-2.5c-1.4,0-2.5,1.1-2.5,2.5c0,0,0,0,0,0v143c0,1.4,1.1,2.5,2.5,2.5h0h143
		c1.4,0,2.5-1.1,2.5-2.5v-143C446,71.1,444.9,70,443.5,70L443.5,70z M368.3,193.1H352l-2.9-15.8l24.9,15.8H368.3
		C368.3,193.1,368.3,193.1,368.3,193.1L368.3,193.1z M357.6,196l-16.4,6.5l10-6.5H357.6L357.6,196z M374.3,200.5h-4.5V196h4.5V200.5
		z M392,193.1h-12.6l-1.9-1.2l-2.9-1.8l20.2-12.8L392,193.1z M392.7,196l10,6.5l-16.4-6.5H392.7z M395.5,213l-8.5-11.8
		c-0.3-0.4-0.7-0.6-1.2-0.6h-8.8V196h1.6l36.4,14.4c0.7,0.3,1.5-0.1,1.8-0.8c0.2-0.6,0-1.3-0.5-1.7l-21.6-14l3.5-19.2
		c0.1-0.8-0.4-1.5-1.1-1.6c-0.4-0.1-0.7,0-1,0.2L372,188.5l-24.1-15.3c-0.7-0.4-1.5-0.2-2,0.4c-0.2,0.3-0.3,0.7-0.2,1l3.5,19.2
		l-21.6,14c-0.7,0.4-0.8,1.3-0.4,2c0.4,0.5,1.1,0.8,1.7,0.5l36.4-14.4h1.6v4.5h-8.8c-0.5,0-0.9,0.2-1.2,0.6l-8.5,11.8H303V97.6
		c17.3-10.1,35.9-12.4,53.8-6.4c4.9,2,9.5,4.4,13.9,7.3c3.2,1.9,6.4,3.9,10.1,5.8c7.8,3.4,16.3,5.2,24.9,5.1
		c12.3-0.1,24.3-3.3,35.1-9.2V213L395.5,213L395.5,213z"/>
	<path id="シェイプ_9" class="st2" d="M649,213.3c-37.6,0-68-30.4-68-68s30.4-68,68-68s68,30.4,68,68
		C717,182.9,686.5,213.3,649,213.3z M649,81.9c-35,0-63.5,28.4-63.5,63.5s28.4,63.5,63.5,63.5c35,0,63.5-28.4,63.5-63.5
		C712.4,110.3,684,81.9,649,81.9z M632.1,129.4h-8.9c-0.6,0-1.1-0.4-1.3-1l-1.9-10.5c-0.1-0.6,0.3-1.3,0.9-1.4l8.1-2.4
		c0.7-0.2,1.4,0.2,1.6,0.9c0,0,0,0.1,0,0.1l2.7,12.9c0.1,0.7-0.3,1.4-1,1.5C632.3,129.4,632.2,129.4,632.1,129.4L632.1,129.4z
		 M624.3,126.9h6.3l-2.1-10l-5.7,1.7L624.3,126.9z M594.8,135c-0.7,0-1.3-0.6-1.3-1.3c0-0.1,0-0.1,0-0.2l1.5-8.8
		c0.1-0.6,0.6-1.1,1.2-1.1l10.7-0.2c0.6,0,1.2,0.5,1.3,1.1l1.1,8.4c0.1,0.7-0.4,1.3-1.1,1.4c0,0-0.1,0-0.1,0L594.8,135L594.8,135
		L594.8,135z M597.4,126.2l-1,6.2l10.2-0.5l-0.8-5.9L597.4,126.2z M596.4,157.5c-0.2,0-0.4-0.1-0.6-0.2c-0.3-0.2-0.5-0.5-0.6-0.8
		l-3.2-12.8c-0.2-0.7,0.2-1.4,0.9-1.5c0.1,0,0.2,0,0.3,0l8.9-0.3c0.6,0,1.2,0.4,1.3,1l2.3,10.4c0.1,0.6-0.2,1.3-0.8,1.5l-8,2.8
		C596.7,157.5,596.5,157.5,596.4,157.5z M594.8,144.6l2.5,9.9l5.6-1.9l-1.9-8.2L594.8,144.6z M644.5,130.3c-0.3,0-0.5-0.1-0.7-0.2
		l-7.4-5c-0.5-0.3-0.7-1-0.4-1.6l4.3-9.8c0.3-0.6,0.9-0.9,1.5-0.7l8.1,2.5c0.7,0.2,1,0.9,0.8,1.6c0,0,0,0.1,0,0.1l-5,12.2
		C645.5,130,645,130.3,644.5,130.3L644.5,130.3z M638.8,123.6l5.2,3.5l3.9-9.5l-5.7-1.8L638.8,123.6z M656.2,139.8
		c-0.4,0-0.7-0.2-0.9-0.4l-5.6-6.3c-0.5-0.5-0.4-1.3,0.1-1.8c0,0,0.1,0,0.1-0.1l10.5-7.9c0.6-0.4,1.4-0.3,1.8,0.3
		c0.1,0.1,0.1,0.1,0.1,0.2l3.8,8.1c0.3,0.6,0.1,1.2-0.4,1.6l-8.7,6.2C656.7,139.7,656.4,139.8,656.2,139.8L656.2,139.8z
		 M652.4,132.4l4,4.4l6.9-4.9l-2.7-5.7L652.4,132.4z M678.5,133L678.5,133l-8.9-0.1c-0.6,0-1.1-0.5-1.2-1.1l-1.8-10.5
		c-0.1-0.6,0.3-1.3,0.9-1.4l8.1-2.3c0.7-0.2,1.4,0.2,1.6,0.9c0,0,0,0.1,0,0.1l2.5,13c0.1,0.7-0.3,1.4-1,1.5
		C678.7,133,678.6,133,678.5,133L678.5,133z M670.7,130.4l6.3,0.1l-2-10.1l-5.7,1.6L670.7,130.4z M689.2,124.3c-0.1,0-0.2,0-0.3,0
		c-0.3-0.1-0.6-0.3-0.8-0.6l-6.4-11.6c-0.3-0.6-0.1-1.4,0.5-1.7c0.1,0,0.2-0.1,0.2-0.1l8.5-2.6c0.6-0.2,1.2,0.1,1.5,0.6l4.9,9.5
		c0.3,0.6,0.1,1.3-0.4,1.6l-7,4.7C689.7,124.2,689.5,124.3,689.2,124.3L689.2,124.3z M684.7,112.2l5,9l4.9-3.3l-3.9-7.5L684.7,112.2
		z M652.6,158.1c-0.5,0-0.9-0.2-1.1-0.6l-5.3-9.2c-0.3-0.6-0.2-1.3,0.4-1.7l6.8-5c0.6-0.4,1.4-0.3,1.8,0.3c0,0,0,0.1,0.1,0.1
		l6.9,11.3c0.4,0.6,0.2,1.4-0.4,1.7c-0.1,0-0.2,0.1-0.2,0.1L653,158C652.8,158,652.7,158.1,652.6,158.1L652.6,158.1z M648.9,147.9
		l4.2,7.3l5.9-2.1l-5.3-8.8L648.9,147.9z M638.4,166.2c-0.6,0-1.1-0.4-1.2-1l-2.2-10.4c-0.1-0.6,0.2-1.3,0.8-1.5l8-2.6
		c0.7-0.2,1.4,0.1,1.6,0.8c0,0,0,0.1,0,0.1l3.1,12.8c0.2,0.7-0.3,1.4-0.9,1.5c-0.1,0-0.2,0-0.3,0L638.4,166.2L638.4,166.2
		L638.4,166.2z M637.7,155.4l1.7,8.3l6.3-0.2l-2.4-10L637.7,155.4z M625.3,169.9c-0.4,0-0.7-0.2-1-0.4l-5.9-6.6
		c-0.4-0.5-0.4-1.1-0.1-1.6l6.5-8.4c0.4-0.5,1.1-0.6,1.7-0.3l7.2,4.4c0.6,0.4,0.8,1.2,0.4,1.7c0,0,0,0.1-0.1,0.1l-7.8,10.6
		C626.1,169.7,625.7,169.8,625.3,169.9L625.3,169.9L625.3,169.9z M621,161.9l4.2,4.7l6.1-8.3l-5.1-3.1L621,161.9z M628.7,193.7
		c-0.6,0-1.1-0.4-1.2-0.9l-2.9-10.3c-0.2-0.6,0.1-1.3,0.7-1.5l7.8-3.2c0.7-0.3,1.4,0,1.7,0.7c0,0,0,0.1,0,0.1l4,12.6
		c0.2,0.7-0.2,1.4-0.8,1.6c-0.1,0-0.2,0-0.3,0.1l-8.9,0.8C628.8,193.7,628.7,193.7,628.7,193.7L628.7,193.7z M627.3,182.9l2.3,8.1
		l6.2-0.6l-3.1-9.8L627.3,182.9z M621.9,188.8c-0.1,0-0.2,0-0.2,0l-8.7-1.7c-0.6-0.1-1-0.6-1-1.3l0-10.7c0-0.6,0.5-1.2,1.1-1.3
		l8.4-0.9c0.4,0,0.7,0.1,1,0.3c0.3,0.2,0.4,0.6,0.4,0.9l0.3,13.2C623.2,188.2,622.7,188.8,621.9,188.8
		C621.9,188.8,621.9,188.8,621.9,188.8L621.9,188.8z M614.5,184.8l6.2,1.2l-0.2-10.3l-5.9,0.6L614.5,184.8z M646.1,186.8
		c-0.1,0-0.2,0-0.4,0l-8.6-2.5c-0.6-0.2-1-0.7-0.9-1.3l1-10.6c0.1-0.6,0.6-1.1,1.3-1.1l8.5-0.1c0.4,0,0.7,0.2,0.9,0.4
		c0.2,0.3,0.4,0.6,0.3,1l-0.9,13.2C647.4,186.3,646.8,186.8,646.1,186.8L646.1,186.8z M638.9,182.2l6,1.7l0.7-10.2l-5.9,0.1
		L638.9,182.2z M652.5,203.3c-0.1,0-0.1,0-0.2,0l-8.8-1.5c-0.6-0.1-1-0.6-1.1-1.2l-0.1-10.7c0-0.6,0.5-1.2,1.1-1.3l8.4-1
		c0.4,0,0.7,0.1,1,0.3c0.3,0.2,0.4,0.6,0.4,0.9l0.5,13.2C653.8,202.7,653.3,203.3,652.5,203.3C652.6,203.3,652.6,203.3,652.5,203.3
		L652.5,203.3z M645,199.5l6.2,1.1l-0.4-10.2l-5.9,0.7L645,199.5z M661,176.9L661,176.9l-8.9-0.1c-0.6,0-1.1-0.4-1.2-1.1l-1.9-10.5
		c-0.1-0.6,0.3-1.3,0.9-1.4l8.1-2.4c0.7-0.2,1.4,0.2,1.6,0.9c0,0,0,0.1,0,0.1l2.6,12.9c0.1,0.7-0.3,1.4-1,1.5
		C661.1,176.9,661,176.9,661,176.9z M653.1,174.3l6.3,0l-2.1-10l-5.7,1.7L653.1,174.3z M672.3,170.6c-0.1,0-0.1,0-0.2,0l-8.8-1.5
		c-0.6-0.1-1-0.6-1.1-1.2l-0.2-10.7c0-0.6,0.5-1.2,1.1-1.3l8.4-1.1c0.7-0.1,1.3,0.4,1.4,1.1c0,0,0,0.1,0,0.1l0.6,13.2
		C673.6,169.9,673.1,170.5,672.3,170.6C672.4,170.6,672.4,170.6,672.3,170.6L672.3,170.6z M664.8,166.7l6.2,1l-0.4-10.2l-5.9,0.7
		L664.8,166.7z M678.2,164.2c-0.6,0-1.1-0.4-1.2-1l-2.1-10.4c-0.1-0.6,0.2-1.3,0.9-1.5l8.1-2.6c0.7-0.2,1.4,0.2,1.6,0.8
		c0,0,0,0.1,0,0.1l3,12.9c0.2,0.7-0.3,1.4-1,1.5c-0.1,0-0.2,0-0.3,0L678.2,164.2L678.2,164.2L678.2,164.2z M677.6,153.3l1.7,8.3
		l6.3-0.1l-2.3-10L677.6,153.3z M693.4,144.8c-0.6,0-1.2-0.5-1.3-1.1l-1.1-8.4c-0.1-0.7,0.4-1.3,1.1-1.4c0,0,0.1,0,0.1,0l13.2-0.7
		c0.7,0,1.3,0.5,1.3,1.2c0,0.1,0,0.2,0,0.3l-1.4,8.8c-0.1,0.6-0.6,1.1-1.2,1.1L693.4,144.8L693.4,144.8L693.4,144.8z M693.7,136.3
		l0.8,5.9l8.5-0.2l1-6.2L693.7,136.3z M699.5,163.3c-0.1,0-0.1,0-0.2,0l-8.8-1.2c-0.6-0.1-1.1-0.6-1.1-1.2l-0.5-10.6
		c0-0.6,0.4-1.2,1.1-1.3l8.4-1.3c0.7-0.1,1.3,0.4,1.5,1.1c0,0,0,0.1,0,0.1l1,13.2c0.1,0.7-0.5,1.3-1.2,1.4
		C699.6,163.3,699.5,163.3,699.5,163.3L699.5,163.3z M691.9,159.7l6.2,0.8l-0.8-10.2l-5.9,0.9L691.9,159.7z M685.4,181.9
		c-0.5,0-1-0.3-1.2-0.8l-3.7-10c-0.2-0.6,0-1.3,0.6-1.6l7.6-3.8c0.3-0.2,0.7-0.2,1-0.1c0.3,0.1,0.6,0.4,0.7,0.7l5,12.2
		c0.3,0.7-0.1,1.4-0.7,1.7c-0.1,0-0.2,0.1-0.3,0.1l-8.8,1.6C685.5,181.9,685.4,181.9,685.4,181.9L685.4,181.9z M683.2,171.3l3,7.9
		l6.2-1.1l-3.8-9.5L683.2,171.3z M675.7,189c-0.1,0-0.3,0-0.4-0.1l-8.4-2.9c-0.6-0.2-0.9-0.8-0.8-1.4l1.6-10.5
		c0.1-0.6,0.7-1.1,1.3-1.1l8.5,0.3c0.7,0,1.2,0.6,1.2,1.3c0,0,0,0.1,0,0.1l-1.6,13.1C676.9,188.5,676.4,189,675.7,189L675.7,189z
		 M668.7,184l5.9,2l1.3-10.2l-5.9-0.2L668.7,184z M659,195.5c-0.6,0-1-0.4-1.2-0.9l-3.2-10.2c-0.2-0.6,0.1-1.3,0.7-1.6l7.7-3.4
		c0.6-0.3,1.4,0,1.7,0.6c0,0,0,0.1,0,0.1l4.3,12.5c0.2,0.7-0.1,1.4-0.8,1.6c-0.1,0-0.2,0.1-0.3,0.1l-8.8,1.1
		C659.1,195.5,659.1,195.5,659,195.5L659,195.5z M657.3,184.8l2.6,8.1l6.2-0.8l-3.4-9.7L657.3,184.8z M686.1,141.6
		c-0.3,0-0.6-0.1-0.9-0.3l-6.6-6c-0.5-0.4-0.6-1.1-0.2-1.6l5.6-9.1c0.3-0.6,1-0.8,1.6-0.5l7.6,3.6c0.6,0.3,0.9,1.1,0.6,1.7
		c0,0,0,0.1,0,0.1l-6.6,11.4c-0.2,0.3-0.5,0.6-0.9,0.6C686.2,141.6,686.1,141.6,686.1,141.6z M681.1,134.1l4.7,4.2l5.1-8.9l-5.4-2.5
		L681.1,134.1z M673.4,150.7c-0.4,0-0.7-0.1-0.9-0.4l-9-9.7c-0.5-0.5-0.5-1.3,0.1-1.8c0.1-0.1,0.1-0.1,0.2-0.2l7.6-4.6
		c0.5-0.3,1.2-0.2,1.6,0.2l7.1,8c0.4,0.5,0.4,1.2,0,1.7l-5.7,6.3C674.1,150.6,673.7,150.7,673.4,150.7L673.4,150.7L673.4,150.7z
		 M666.4,140.1l7,7.5l4-4.4l-5.6-6.3L666.4,140.1z M614.4,163.3c-0.2,0-0.4-0.1-0.6-0.2l-7.3-4.2c-0.6-0.4-0.8-1.1-0.5-1.7
		c0,0,0-0.1,0.1-0.1l7.5-10.9c0.2-0.3,0.6-0.5,1-0.5c0.4,0,0.8,0.1,1,0.4l6.1,6.5c0.4,0.4,0.5,1.1,0.1,1.6l-6.3,8.6
		C615.2,163.1,614.8,163.3,614.4,163.3z M608.9,157.4l5.1,3l5-6.8l-4.3-4.6L608.9,157.4z M606.1,174.3c-0.2,0-0.5-0.1-0.7-0.2
		l-8.9-5.8c-0.5-0.4-0.7-1.1-0.4-1.6l3.8-7.6c0.3-0.6,1.1-0.9,1.7-0.6c0,0,0.1,0,0.1,0.1l11.3,6.9c0.6,0.4,0.8,1.2,0.4,1.8
		c0,0.1-0.1,0.1-0.2,0.2l-6.1,6.5C606.8,174.1,606.5,174.3,606.1,174.3L606.1,174.3z M598.8,166.7l7.1,4.6l4.3-4.6l-8.7-5.4
		L598.8,166.7z M638.8,148c-0.4,0-0.7-0.2-1-0.4l-5.8-6.8c-0.4-0.5-0.4-1.1,0-1.6l6.7-8.3c0.4-0.5,1.1-0.6,1.7-0.3l7.1,4.6
		c0.6,0.4,0.8,1.2,0.4,1.8c0,0,0,0.1-0.1,0.1l-8,10.5C639.5,147.8,639.2,148,638.8,148L638.8,148L638.8,148z M634.6,139.9l4.1,4.8
		l6.2-8.1l-5-3.2L634.6,139.9z M608.4,122.1c-0.1,0-0.3,0-0.4-0.1c-0.4-0.1-0.6-0.4-0.8-0.8l-3-8.4c-0.2-0.6,0-1.2,0.5-1.5l9.2-5.4
		c0.6-0.3,1.3-0.2,1.7,0.3l5.1,6.8c0.4,0.6,0.3,1.4-0.3,1.8c0,0-0.1,0-0.1,0.1l-11.2,7C608.9,122,608.7,122.1,608.4,122.1
		L608.4,122.1z M607,113l2.1,5.9l8.7-5.4l-3.6-4.8L607,113z M629.2,110.8c-0.3,0-0.6-0.1-0.8-0.3l-10-8.6c-0.5-0.5-0.6-1.3-0.1-1.8
		c0.1-0.1,0.1-0.1,0.2-0.2l7.1-5.4c0.5-0.4,1.2-0.3,1.6,0.1l7.9,7.2c0.5,0.4,0.6,1.2,0.2,1.7l-5,6.8c-0.2,0.3-0.5,0.5-0.9,0.5
		C629.3,110.8,629.2,110.8,629.2,110.8L629.2,110.8z M621.2,101l7.8,6.7l3.5-4.8l-6.3-5.7L621.2,101z M647.7,108.7
		c-0.1,0-0.2,0-0.3,0l-10.4-2.4c-0.6-0.1-1.1-0.7-1-1.4l1-8.4c0-0.4,0.2-0.7,0.5-0.9c0.3-0.2,0.7-0.3,1-0.2l12.9,2.7
		c0.7,0.1,1.1,0.8,1,1.5c0,0.1,0,0.2-0.1,0.3l-3.6,8.2C648.7,108.4,648.2,108.7,647.7,108.7L647.7,108.7z M638.8,104l8.2,1.9
		l2.5-5.7l-10-2.1L638.8,104z M655.4,105.1c-0.6,0-1.2-0.5-1.3-1.1l-1.3-8.8c-0.1-0.6,0.3-1.2,0.8-1.4l10.1-3.5
		c0.6-0.2,1.3,0.1,1.6,0.7l3.6,7.6c0.3,0.6,0,1.4-0.6,1.7c0,0-0.1,0-0.1,0l-12.4,4.7C655.7,105,655.5,105.1,655.4,105.1L655.4,105.1
		z M655.5,95.8l0.9,6.2l9.6-3.6l-2.5-5.4L655.5,95.8z M657.6,122.5c-0.3,0-0.6-0.1-0.9-0.3l-6.2-5.7c-0.5-0.5-0.5-1.3-0.1-1.8
		c0,0,0,0,0.1-0.1l9.7-9c0.5-0.5,1.3-0.4,1.8,0.1c0.1,0.1,0.1,0.1,0.2,0.2l4.5,7.7c0.3,0.5,0.2,1.2-0.3,1.6l-8,7
		C658.2,122.4,657.9,122.5,657.6,122.5L657.6,122.5z M653.2,115.5l4.4,4l6.4-5.6l-3.2-5.4L653.2,115.5z M680.7,113.8
		C680.6,113.8,680.6,113.8,680.7,113.8l-10.7-0.8c-0.6,0-1.2-0.6-1.2-1.2l-0.3-8.5c0-0.4,0.1-0.7,0.4-0.9c0.3-0.3,0.6-0.4,1-0.4
		l13.2,0.7c0.7,0,1.2,0.6,1.2,1.3c0,0.1,0,0.2,0,0.3l-2.3,8.6C681.7,113.4,681.2,113.8,680.7,113.8L680.7,113.8z M671.3,110.5
		l8.4,0.7l1.6-6.1l-10.2-0.5L671.3,110.5z M619.8,144.4c-0.3,0-0.7-0.1-0.9-0.4l-7.4-7.7c-0.4-0.5-0.5-1.2-0.1-1.7l5.4-6.5
		c0.2-0.3,0.6-0.4,0.9-0.5c0.4,0,0.7,0.1,1,0.4l9.4,9.3c0.5,0.5,0.5,1.3,0,1.8c-0.1,0.1-0.1,0.1-0.2,0.2l-7.5,4.9
		C620.2,144.4,620,144.4,619.8,144.4z M614.1,135.4l5.8,6.1l5.3-3.4l-7.3-7.2L614.1,135.4z"/>
	<path id="シェイプ_8" class="st2" d="M394.6,492.6h-0.2c-0.9,0-1.7-0.7-1.7-1.6c0-0.9,0.7-1.7,1.6-1.7c0,0,0.1,0,0.1,0h0.2
		c0.9,0,1.7,0.7,1.7,1.6c0,0.9-0.7,1.7-1.6,1.7C394.7,492.6,394.6,492.6,394.6,492.6z M385.5,492.6h-0.2c-0.9,0-1.7-0.7-1.7-1.6
		c0-0.9,0.7-1.7,1.6-1.7c0,0,0.1,0,0.1,0h0.2c0.9,0,1.7,0.7,1.7,1.6c0,0.9-0.7,1.7-1.6,1.7C385.6,492.6,385.5,492.6,385.5,492.6z
		 M376.4,492.6h-0.2c-0.9,0-1.7-0.7-1.7-1.6c0-0.9,0.7-1.7,1.6-1.7c0,0,0.1,0,0.1,0h0.2c0.9,0,1.7,0.7,1.7,1.6
		c0,0.9-0.7,1.7-1.6,1.7C376.4,492.6,376.4,492.6,376.4,492.6z M367.2,492.6H367c-0.9,0-1.7-0.7-1.7-1.6c0-0.9,0.7-1.7,1.6-1.7
		c0,0,0.1,0,0.1,0h0.2c0.8-0.3,1.9,0.2,2.2,1s-0.1,1.8-0.9,2.1C368.1,492.7,367.7,492.7,367.2,492.6L367.2,492.6z M358.1,492.6h-0.2
		c-0.9,0-1.7-0.7-1.7-1.6c0-0.9,0.7-1.7,1.6-1.7c0,0,0.1,0,0.1,0h0.2c0.8-0.3,1.9,0.2,2.2,1s-0.1,1.8-0.9,2.1
		C359,492.7,358.6,492.7,358.1,492.6L358.1,492.6z M349,492.6h-0.2c-0.9,0-1.7-0.7-1.7-1.6c0-0.9,0.7-1.7,1.6-1.7c0,0,0.1,0,0.1,0
		h0.2c0.9,0,1.7,0.7,1.7,1.6c0,0.9-0.7,1.7-1.6,1.7C349.1,492.6,349.1,492.6,349,492.6L349,492.6z M400.3,482.8v16.4l11.1-8.2
		L400.3,482.8z"/>
	<path id="シェイプ_8-2" class="st2" d="M247.6,145.6h-0.2c-0.9,0-1.7-0.7-1.7-1.6s0.7-1.7,1.6-1.7c0,0,0.1,0,0.1,0h0.2
		c0.9,0,1.7,0.7,1.7,1.6s-0.7,1.7-1.6,1.7C247.7,145.6,247.6,145.6,247.6,145.6z M238.5,145.6h-0.2c-0.9,0-1.7-0.7-1.7-1.6
		s0.7-1.7,1.6-1.7c0,0,0.1,0,0.1,0h0.2c0.9,0,1.7,0.7,1.7,1.6s-0.7,1.7-1.6,1.7C238.6,145.6,238.5,145.6,238.5,145.6z M229.4,145.6
		h-0.2c-0.9,0-1.7-0.7-1.7-1.6s0.7-1.7,1.6-1.7c0,0,0.1,0,0.1,0h0.2c0.9,0,1.7,0.7,1.7,1.6s-0.7,1.7-1.6,1.7
		C229.4,145.6,229.4,145.6,229.4,145.6L229.4,145.6z M220.2,145.6H220c-0.9,0-1.7-0.7-1.7-1.6s0.7-1.7,1.6-1.7c0,0,0.1,0,0.1,0h0.2
		c0.9,0,1.7,0.7,1.7,1.6C221.9,144.9,221.2,145.6,220.2,145.6C220.2,145.6,220.2,145.6,220.2,145.6L220.2,145.6z M211.1,145.6h-0.2
		c-0.9,0-1.7-0.7-1.7-1.6s0.7-1.7,1.6-1.7c0,0,0.1,0,0.1,0h0.2c1,0,1.7,0.7,1.7,1.6C212.9,144.9,212.1,145.7,211.1,145.6
		C211.1,145.7,211.1,145.7,211.1,145.6L211.1,145.6z M202,145.6h-0.2c-0.9,0-1.7-0.7-1.7-1.6s0.7-1.7,1.6-1.7c0,0,0.1,0,0.1,0h0.2
		c0.9,0,1.7,0.7,1.7,1.6c0,0.9-0.7,1.7-1.6,1.7C202.1,145.6,202.1,145.6,202,145.6L202,145.6z M253.3,135.8v16.4l11.1-8.2
		L253.3,135.8z"/>
	<path id="シェイプ_8-3" class="st2" d="M526.6,145.6h-0.2c-0.9,0-1.7-0.7-1.7-1.6c0-0.9,0.7-1.7,1.6-1.7c0,0,0.1,0,0.1,0h0.2
		c0.9,0,1.7,0.7,1.7,1.6c0,0.9-0.7,1.7-1.6,1.7C526.7,145.6,526.6,145.6,526.6,145.6z M517.5,145.6h-0.2c-0.9,0-1.7-0.7-1.7-1.6
		c0-0.9,0.7-1.7,1.6-1.7c0,0,0.1,0,0.1,0h0.2c0.9,0,1.7,0.7,1.7,1.6c0,0.9-0.7,1.7-1.6,1.7C517.6,145.6,517.5,145.6,517.5,145.6z
		 M508.4,145.6h-0.2c-0.9,0-1.7-0.7-1.7-1.6c0-0.9,0.7-1.7,1.6-1.7c0,0,0.1,0,0.1,0h0.2c0.9,0,1.7,0.7,1.7,1.6
		c0,0.9-0.7,1.7-1.6,1.7C508.4,145.6,508.4,145.6,508.4,145.6L508.4,145.6z M499.2,145.6H499c-0.9,0-1.7-0.7-1.7-1.6
		c0-0.9,0.7-1.7,1.6-1.7c0,0,0.1,0,0.1,0h0.2c0.9-0.1,1.7,0.6,1.8,1.5c0.1,0.9-0.6,1.7-1.5,1.8C499.4,145.6,499.3,145.6,499.2,145.6
		L499.2,145.6z M490.1,145.6h-0.2c-0.9,0-1.7-0.7-1.7-1.6c0-0.9,0.7-1.7,1.6-1.7c0,0,0.1,0,0.1,0h0.2c0.9,0,1.7,0.7,1.7,1.7
		C491.8,144.9,491,145.6,490.1,145.6L490.1,145.6z M481,145.6h-0.2c-0.9,0-1.7-0.7-1.7-1.6c0-0.9,0.7-1.7,1.6-1.7c0,0,0.1,0,0.1,0
		h0.2c0.9,0,1.7,0.7,1.7,1.6c0,0.9-0.7,1.7-1.6,1.7C481.1,145.6,481.1,145.6,481,145.6L481,145.6z M532.3,135.8v16.4l11.1-8.2
		L532.3,135.8z"/>
</g>
<g id="グループ_43">
	<path id="シェイプ_8-4" class="st2" d="M385.2,432.8c-13.7,0.7-27.1,4.5-39.3,11c-0.6,0.3-1.3,0.7-1.9,1
		c-2.6,1.5-5.3,2.8-8.1,3.8c-3.9,1.2-7.6,0.9-10.3-0.7c-1-0.6-1.9-1.5-2.6-2.6c3.9-2.9,9.3-8.1,9.7-12c0.2-1.1-0.2-2.2-0.9-3
		c0,0-0.1-0.1-0.1-0.1c-1.3-0.9-3-1-4.4-0.5c-2.8,1-5.8,4.1-6.9,7.3c-0.8,2.6-0.6,5.4,0.6,7.8c-1.3,0.9-2.7,1.8-4,2.7
		c-8.8,6-17.9,12.2-27.4,16.1l-3.3-32.1c-0.1-2.5-2.6-4.2-7.7-5.2l-0.2,0l-2.3-5.5c-0.2-1-0.7-3.9-12.5-3.9s-12.3,3-12.5,4l-2.3,5.4
		l-0.2,0c-5.2,1-7.6,2.7-7.7,5.2L229,545l0,0.3c0,1.7,0.7,4.2,4,6.7l0.1,0.1v5.1c0,5.1,11.1,8,30.3,8s30.3-2.9,30.3-8V552l0.1-0.1
		c3.3-2.4,4-5,4-6.7l0-0.3l-8.2-79.7c9.9-3.9,19.2-10.3,28.2-16.4c1.3-0.9,2.6-1.8,3.9-2.7c0.8,1.2,1.8,2.2,3.1,3
		c3.1,1.9,7.3,2.2,11.6,0.9c2.9-1,5.8-2.3,8.4-3.9c0.6-0.3,1.3-0.7,1.9-1c11.9-6.4,25.1-10.1,38.6-10.8c0.4,0,0.8-0.4,0.8-0.8
		c0,0,0,0,0,0C386,433.1,385.6,432.7,385.2,432.8C385.2,432.8,385.2,432.8,385.2,432.8z M263.4,421c2.2,0,4.5,0.1,6.7,0.5
		c0,0-0.1,0-0.1,0c-0.3,0.1-0.6,0.1-1,0.2c-0.1,0-0.3,0-0.4,0.1c-0.3,0-0.6,0.1-1,0.1c-0.2,0-0.4,0-0.5,0c-0.4,0-0.8,0.1-1.2,0.1
		c-0.2,0-0.4,0-0.6,0c-0.6,0-1.2,0-1.9,0h0c-0.7,0-1.3,0-1.9,0c-0.2,0-0.4,0-0.6,0c-0.4,0-0.8,0-1.1-0.1c-0.2,0-0.4,0-0.6,0
		c-0.3,0-0.6-0.1-0.9-0.1c-0.1,0-0.3,0-0.4-0.1c-0.4-0.1-0.7-0.1-1-0.2c0,0-0.1,0-0.1,0C259,421.2,261.2,421,263.4,421z
		 M254.3,423.5c0,0,0.1,0,0.1,0c0.2,0.1,0.4,0.1,0.6,0.2c0.1,0,0.1,0,0.2,0.1c0.3,0.1,0.6,0.2,0.9,0.2c0.1,0,0.1,0,0.2,0
		c0.3,0.1,0.5,0.1,0.8,0.1c0.1,0,0.2,0,0.3,0c0.3,0,0.5,0.1,0.8,0.1l0.3,0c0.4,0,0.7,0.1,1.1,0.1c0,0,0.1,0,0.2,0c0.3,0,0.7,0,1,0.1
		l0.3,0c0.3,0,0.6,0,0.8,0l0.3,0c0.4,0,0.7,0,1.1,0h0c0.4,0,0.7,0,1.1,0l0.3,0c0.3,0,0.5,0,0.8,0l0.4,0c0.3,0,0.6,0,1-0.1l0.2,0
		c0.4,0,0.7-0.1,1.1-0.1l0.3,0c0.3,0,0.5-0.1,0.8-0.1l0.3,0c0.3,0,0.5-0.1,0.8-0.1c0.1,0,0.1,0,0.2,0c0.3-0.1,0.6-0.1,0.9-0.2
		c0.1,0,0.1,0,0.2-0.1c0.2-0.1,0.4-0.1,0.6-0.2c0,0,0.1,0,0.1,0l2,4.8c-0.2,0.1-0.4,0.2-0.7,0.2c-0.1,0-0.1,0-0.2,0
		c-0.2,0.1-0.5,0.1-0.7,0.2c-0.1,0-0.2,0.1-0.4,0.1c-0.3,0.1-0.5,0.1-0.8,0.2c-0.2,0-0.3,0.1-0.5,0.1c-0.3,0-0.6,0.1-1,0.1
		c-0.2,0-0.4,0-0.6,0.1c-0.4,0-0.7,0.1-1.1,0.1c-0.2,0-0.5,0-0.7,0.1c-0.4,0-0.9,0.1-1.4,0.1c-0.2,0-0.4,0-0.7,0c-0.7,0-1.5,0-2.3,0
		h0c-0.8,0-1.6,0-2.3,0c-0.3,0-0.5,0-0.8,0c-0.4,0-0.9,0-1.3-0.1c-0.3,0-0.6,0-0.9-0.1s-0.6-0.1-0.8-0.1c-0.4,0-0.7-0.1-1-0.1
		c-0.1,0-0.2,0-0.4,0c-1.2-0.1-2.4-0.4-3.6-0.8L254.3,423.5z M250.5,430.2c0.7,0.4,1.4,0.7,2.2,0.9c3.4,0.8,6.8,1.1,10.2,1.1h0.5h0
		h0.5c3.4,0.1,6.9-0.3,10.2-1.1c0.8-0.2,1.5-0.5,2.2-0.9c3.4,0.6,4.8,1.2,5.4,1.5c0,0-0.1,0.1-0.2,0.1c-0.2,0.1-0.3,0.2-0.5,0.2
		c0,0-0.1,0-0.1,0.1c-0.1,0-0.2,0.1-0.3,0.1s-0.2,0.1-0.3,0.1s-0.2,0.1-0.4,0.1s-0.2,0.1-0.3,0.1s-0.3,0.1-0.4,0.1s-0.3,0.1-0.4,0.1
		s-0.3,0.1-0.5,0.1l-0.5,0.1c-0.2,0-0.3,0.1-0.5,0.1s-0.3,0.1-0.5,0.1s-0.4,0.1-0.6,0.1s-0.4,0.1-0.6,0.1s-0.4,0.1-0.6,0.1
		s-0.4,0.1-0.7,0.1s-0.4,0.1-0.7,0.1c-0.2,0-0.5,0.1-0.7,0.1c-0.2,0-0.5,0-0.7,0.1c-0.3,0-0.5,0-0.8,0.1c-0.2,0-0.5,0-0.7,0.1
		c-0.3,0-0.6,0-0.9,0.1c-0.2,0-0.5,0-0.7,0c-0.3,0-0.7,0-1,0c-0.2,0-0.5,0-0.7,0c-0.4,0-0.8,0-1.2,0c-0.2,0-0.4,0-0.7,0
		c-0.6,0-1.3,0-2,0h0c-0.7,0-1.4,0-2,0c-0.2,0-0.4,0-0.6,0c-0.4,0-0.9,0-1.3,0c-0.2,0-0.5,0-0.7,0c-0.4,0-0.7,0-1.1-0.1
		c-0.2,0-0.5,0-0.7,0c-0.3,0-0.6,0-0.9-0.1c-0.2,0-0.5,0-0.7-0.1c-0.3,0-0.6,0-0.8-0.1c-0.2,0-0.5,0-0.7-0.1c-0.3,0-0.5-0.1-0.8-0.1
		c-0.2,0-0.4-0.1-0.6-0.1c-0.2,0-0.5-0.1-0.7-0.1c-0.2,0-0.4-0.1-0.6-0.1s-0.4-0.1-0.6-0.1s-0.4-0.1-0.6-0.1s-0.4-0.1-0.5-0.1
		s-0.4-0.1-0.5-0.1s-0.3-0.1-0.5-0.1s-0.3-0.1-0.5-0.1s-0.3-0.1-0.4-0.1s-0.3-0.1-0.4-0.1c-0.1,0-0.2-0.1-0.3-0.1
		c-0.1,0-0.3-0.1-0.4-0.1c-0.1,0-0.2-0.1-0.2-0.1c-0.4-0.1-0.7-0.3-1-0.4c0,0-0.1,0-0.1-0.1C245.7,431.4,247.1,430.7,250.5,430.2
		L250.5,430.2z M244.6,434.3c0,0,0.1,0,0.2,0.1c0.2,0.1,0.4,0.2,0.6,0.2c0.1,0,0.2,0.1,0.3,0.1c0.3,0.1,0.6,0.2,0.9,0.3
		c0.2,0,0.3,0.1,0.5,0.1c0.2,0.1,0.4,0.1,0.6,0.2s0.4,0.1,0.6,0.1s0.4,0.1,0.6,0.1s0.4,0.1,0.6,0.1c0,0,0.1,0,0.1,0
		c-1.7,0.4-3.4,0.9-5.2,1.2L244.6,434.3z M244.2,438.6c3.3-0.7,6.5-1.5,9.5-2.4l0.1,0c0.5,0,0.9,0.1,1.4,0.1l0.3,0
		c0.4,0,0.8,0.1,1.2,0.1l0.3,0c0.4,0,0.8,0,1.2,0.1l0.3,0c0.4,0,0.7,0,1.1,0l0.3,0c0.3,0,0.6,0,0.9,0l0.3,0c0.3,0,0.6,0,0.8,0h0.2
		c0.3,0,0.5,0,0.7,0h0.1h0.7h0c0.2,0,0.4,0,0.7,0h0.1c0.2,0,0.5,0,0.8,0h0.1c-7,2.7-14.1,4.9-21.5,6.4L244.2,438.6z M243.6,444.8
		c9-1.9,17.9-4.7,26.3-8.3l0.4,0l0.5,0l0.8-0.1c0.2,0,0.4,0,0.6,0c0.3,0,0.5,0,0.8-0.1c0.2,0,0.4,0,0.5-0.1c0.3,0,0.7-0.1,1-0.1
		c0.1,0,0.2,0,0.4,0c0.4-0.1,0.8-0.1,1.3-0.2c0.2,0,0.3-0.1,0.5-0.1c0.3,0,0.5-0.1,0.8-0.1c0.2,0,0.4-0.1,0.5-0.1
		c0.2,0,0.5-0.1,0.7-0.1c0.2,0,0.4-0.1,0.5-0.1c0.2-0.1,0.4-0.1,0.6-0.2c0.2,0,0.3-0.1,0.5-0.1c0.2-0.1,0.4-0.1,0.6-0.2
		c0.2-0.1,0.3-0.1,0.5-0.2c0.2-0.1,0.3-0.1,0.5-0.2c0.1,0,0.2-0.1,0.3-0.1l0,0.4c-12.2,6.8-25.4,11.8-39.2,14.6L243.6,444.8z
		 M242.9,451c13.8-2.8,27.2-7.8,39.5-14.6l0.4,4c-12.6,7.1-26.2,12.2-40.4,15.1L242.9,451z M242.3,457.2c14.3-2.9,28-7.9,40.8-15
		l0.4,4c-13,7.4-27,12.6-41.6,15.6L242.3,457.2z M241.6,463.4c14.7-2.9,28.9-8.1,42-15.5l0.4,4c-13.3,7.7-27.8,13.1-42.9,16
		L241.6,463.4z M241,469.6c15.2-2.9,29.8-8.3,43.2-16l0.4,4c-13.7,8-28.6,13.5-44.1,16.5L241,469.6z M240.4,475.8
		c15.6-2.9,30.7-8.5,44.5-16.4l0.4,4c-14,8.3-29.3,14-45.3,17L240.4,475.8z M239.7,482c16.1-2.9,31.6-8.6,45.7-16.9l0.4,4
		c-14.3,8.6-30.1,14.5-46.6,17.4L239.7,482z M239.1,488.1c16.6-2.9,32.4-8.8,46.9-17.3l0.4,4c-14.7,8.9-30.9,14.9-47.8,17.9
		L239.1,488.1z M238.4,494.3c17-2.9,33.3-9,48.1-17.8l0.4,3.9c-15,9.2-31.7,15.4-49,18.4L238.4,494.3z M237.8,500.5
		c17.5-2.9,34.2-9.1,49.4-18.2l0.4,3.9c-15.4,9.5-32.4,15.9-50.2,18.8L237.8,500.5z M237.2,506.6c17.9-2.9,35.1-9.3,50.6-18.7
		l0.4,3.9c-15.7,9.8-33.2,16.4-51.5,19.3L237.2,506.6z M236.5,512.8c18.4-2.9,36-9.4,51.8-19.2l0.4,3.9c-16,10.1-34,16.9-52.7,19.8
		L236.5,512.8z M235.9,519c18.8-2.9,36.9-9.6,53-19.6l0.4,3.9c-16.4,10.5-34.7,17.3-53.9,20.2L235.9,519z M263.4,561
		c-16.2,0-25.5-2.5-26.2-3.9v-4.5c6.4,3,16.5,4.5,26.2,4.5c9.7,0,19.8-1.6,26.2-4.5l0,4.5C289,558.5,279.7,561,263.4,561z
		 M293.7,545.3c0,1.3-1.2,2.7-3.3,4c0,0-0.1,0.1-0.1,0.1c-3.2,1.7-6.7,2.9-10.3,3.6c4.7-2.5,9.3-5.2,13.6-8.2L293.7,545.3z
		 M293.5,542.9c-6,4.1-12.3,7.8-18.8,10.9c-3.7,0.5-7.4,0.7-11.2,0.7c-0.2,0-0.5,0-0.7,0c10.7-3.9,20.9-9.1,30.3-15.5L293.5,542.9z
		 M292.9,537.3c-10.7,7.3-22.3,13.1-34.6,17.1c-3.6-0.2-7.2-0.6-10.8-1.3c16-3.9,31.3-10.5,45-19.7L292.9,537.3z M292.3,531.6
		c-14.7,9.9-31.1,16.9-48.4,20.6c-2.6-0.7-5.2-1.7-7.5-3c19.8-3.1,38.8-10.4,55.5-21.5L292.3,531.6z M291.7,525.9
		c-17.2,11.5-36.7,19-57.2,21.9c-0.8-0.6-1.2-1.5-1.4-2.5l0.2-1.8c20.7-2.8,40.5-10.1,57.9-21.5L291.7,525.9z M291.1,520.3
		c-17.3,11.5-37,18.9-57.6,21.6l0.5-4.5c20.2-2.8,39.6-10,56.7-21L291.1,520.3z M290.5,514.6c-17,11.1-36.2,18.3-56.4,21.2l0.5-4.5
		c19.8-2.8,38.7-9.8,55.5-20.6L290.5,514.6z M289.9,508.9c-16.7,10.8-35.5,17.8-55.1,20.7l0.5-4.5c19.3-2.8,37.8-9.7,54.3-20.1
		L289.9,508.9z M321.9,437.5c1-2.8,3.1-5.1,5.9-6.3c0.4-0.2,0.9-0.2,1.3-0.2c0.6,0,1.1,0.2,1.6,0.5c0.4,0.5,0.5,1.1,0.4,1.7
		c-0.3,2.9-4.7,7.6-8.9,10.8C321.4,441.9,321.2,439.6,321.9,437.5L321.9,437.5z"/>
	<path id="シェイプ_1-2" class="st2" d="M604.8,472.1c-0.4-0.7-8.8-16.2-16.2-24.3c-8.7-9.5-15.7-16.9-20.4-19.6
		c-4.4-2.5-12.4-3.9-14.2-4.2l-10.9-6.4c-0.3-0.2-0.7-0.3-1-0.3h-31.2c-0.4,0-0.8,0.1-1.1,0.3l-9,5.8c-2.3,0.5-12.2,2.8-15.5,4.8
		c-0.1,0.1-0.2,0.2-0.3,0.3l-1.6,1.5c-10.5,9.8-22.4,21-34.5,41.3c-0.5,0.8-0.3,1.9,0.4,2.5c7,6.2,14.4,12,22.1,17.4
		c0.8,0.6,2,0.4,2.7-0.4l7.1-8.4v80.7c0,1.1,0.9,2,2,2l0,0h87.6c1.1,0,2-0.9,2-2c0,0,0,0,0,0v-80.3l7.1,8c0.7,0.8,1.9,0.9,2.7,0.3
		l21.9-16.6C605,474,605.2,472.9,604.8,472.1z M522.7,440.3l4-2.8l4.6,3.1v24.5h-8.6v-24.5C522.7,440.5,522.7,440.4,522.7,440.3z
		 M526.7,434l-12.1-12.7h24.8L526.7,434z M528.8,435.7l13.7-13.7l8.2,4.8l-10.4,16.6L528.8,435.7z M511.1,421.5
		C511.1,421.5,511.1,421.5,511.1,421.5l13.6,14.2l-10.9,7.6l-10.7-16.7L511.1,421.5z M581.4,486.9l-9.4-10.6
		c-0.2-0.2-0.5-0.4-0.8-0.5v-14.7c0-0.7-0.6-1.3-1.3-1.3c-0.7,0-1.3,0.6-1.3,1.3v100.1h-83.6V461.1c0-0.7-0.6-1.3-1.4-1.3
		c-0.7,0-1.3,0.6-1.3,1.3v14c-0.3,0.1-0.6,0.3-0.9,0.6l-9.4,11.2c-3.1-2.2-10.8-7.9-19-15c11.5-19,22.9-29.6,33-39l1.5-1.4
		c2.4-1.3,9.3-3.1,13.1-4l11.8,18.3c0.4,0.6,1.2,0.8,1.8,0.4c0,0,0,0,0,0l5.9-4.1v24.2c0,0.7,0.6,1.3,1.3,1.3h0h11.3
		c0.7,0,1.3-0.6,1.3-1.3v0v-24l5.9,3.9c0.2,0.1,0.5,0.2,0.7,0.2c0.1,0,0.2,0,0.3,0c0.4-0.1,0.7-0.3,0.8-0.6L553,428c0,0,0,0,0,0
		c1,0.1,9.1,1.4,13.1,3.7c4.5,2.6,12.8,11.6,19.4,18.8c5.8,6.3,12.5,17.9,14.8,22L581.4,486.9z"/>
</g>
<g>
	<g>
		<path class="st2" d="M602.8,243.5c0-4.9,3.1-7.7,6.9-7.7c1.9,0,3.4,0.9,4.3,1.9l-1.6,1.9c-0.7-0.7-1.6-1.2-2.7-1.2
			c-2.2,0-3.9,1.9-3.9,5.1c0,3.2,1.5,5.2,3.9,5.2c1.3,0,2.3-0.6,3.1-1.5l1.6,1.8c-1.2,1.4-2.8,2.2-4.7,2.2
			C605.9,251.2,602.8,248.5,602.8,243.5z"/>
		<path class="st2" d="M614.4,243.4c0-4.8,2.7-7.6,6.6-7.6s6.6,2.8,6.6,7.6c0,4.8-2.7,7.7-6.6,7.7S614.4,248.2,614.4,243.4z
			 M624.6,243.4c0-3.2-1.4-5.1-3.6-5.1c-2.2,0-3.6,1.9-3.6,5.1c0,3.2,1.4,5.2,3.6,5.2C623.2,248.6,624.6,246.6,624.6,243.4z"/>
		<path class="st2" d="M628.8,249.2c4-3.6,6.4-6.4,6.4-8.7c0-1.5-0.8-2.4-2.2-2.4c-1.1,0-2,0.7-2.7,1.5l-1.6-1.6
			c1.4-1.4,2.7-2.2,4.7-2.2c2.8,0,4.7,1.8,4.7,4.6c0,2.7-2.2,5.6-4.9,8.2c0.7-0.1,1.7-0.2,2.4-0.2h3.2v2.5h-9.9V249.2z"/>
		<path class="st2" d="M648.9,235.8h2.4v12.4H644v-12.4h2.5v4.2h2.4V235.8z M648.9,242h-2.4v4.1h2.4V242z M659.3,234.2v18.4h-2.5
			v-9.3h-1.5v8.5h-2.5v-17.3h2.5v6.7h1.5v-7H659.3z"/>
		<path class="st2" d="M670.7,243.9v1.1h5v4.6h-10.1v1h10.6v1.9H663v-4.6h10.1v-0.9H663V245h5.1v-1.1h-7V242h16.6v1.9H670.7z
			 M661.8,239.6c3.7-0.2,5.5-1,6-2.1h-5.1v-1.9h5.4v-1.5h2.6v1.5h5.4v1.9H671c0.5,1,2.3,1.9,6,2.1l-0.7,1.9c-3.4-0.2-5.7-1-6.9-2.4
			c-1.1,1.4-3.5,2.2-6.9,2.4L661.8,239.6z"/>
		<path class="st2" d="M685.1,238.8v-1.5h-5.8v-2.1h8.4v5.5H682v1.6c3,0,5-0.1,7.3-0.6l0.2,2.1c-2.6,0.5-4.9,0.6-8.6,0.6h-1.6v-5.7
			H685.1z M693.4,249.1c0,2.2-2.4,3.5-6.2,3.5s-6.2-1.3-6.2-3.5c0-2.2,2.4-3.5,6.2-3.5S693.4,246.9,693.4,249.1z M690.8,249.1
			c0-1-1.2-1.5-3.6-1.5s-3.6,0.5-3.6,1.5c0,1,1.2,1.5,3.6,1.5S690.8,250.1,690.8,249.1z M693.2,238.8v1.7h2.4v2.1h-2.4v2.6h-2.6
			v-11.1h2.6v2.5h2.4v2.1H693.2z"/>
		<path class="st2" d="M597.4,284.2c-2.8,0-5-1.9-5-4.5c0-2.6,2.2-4.5,5-4.5c2.8,0,5,1.9,5,4.5C602.4,282.3,600.2,284.2,597.4,284.2
			z M594.5,285.8h12.3v6.8h-2.6v-4.7h-9.6V285.8z M597.4,282c1.4,0,2.4-0.9,2.4-2.3c0-1.4-1-2.3-2.4-2.3c-1.4,0-2.4,0.8-2.4,2.3
			C595,281.1,596,282,597.4,282z M606.8,278.7v1.8h2.4v2.2h-2.4v2.3h-2.6v-10.9h2.6v2.4h2.4v2.1H606.8z"/>
		<path class="st2" d="M614.5,287.5c8-7.2,12.8-12.8,12.8-17.3c0-3-1.6-4.8-4.4-4.8c-2.2,0-4,1.4-5.4,3l-3.2-3.2
			c2.7-2.9,5.4-4.5,9.4-4.5c5.6,0,9.3,3.6,9.3,9.1c0,5.4-4.4,11.1-9.8,16.4c1.5-0.2,3.4-0.3,4.8-0.3h6.4v5h-19.8V287.5z"/>
		<path class="st2" d="M645.2,258.7h3.9l-9.9,39.5h-3.9L645.2,258.7z"/>
		<path class="st2" d="M649.7,287.3l2.8-3.7c1.8,1.7,3.9,3,6.6,3c3,0,5-1.5,5-4.1c0-2.9-1.7-4.7-8.2-4.7v-4.2c5.4,0,7.2-1.9,7.2-4.5
			c0-2.3-1.4-3.7-4-3.7c-2.1,0-3.8,1-5.6,2.6l-3-3.6c2.6-2.2,5.4-3.6,8.9-3.6c5.7,0,9.6,2.8,9.6,7.9c0,3.2-1.8,5.5-5,6.8v0.2
			c3.4,0.9,5.9,3.4,5.9,7.3c0,5.4-4.8,8.6-10.4,8.6C654.9,291.4,651.7,289.7,649.7,287.3z"/>
		<path class="st2" d="M681.1,284.4c-2-0.7-3.4-1.9-4.2-3.6c-0.8,1.7-2.2,3.1-4.3,3.8l-1.3-2.1c3-1,4.3-3.3,4.3-5.7v-1.7h2.7v1.9
			c0,2.2,1.2,4.4,4.1,5.3L681.1,284.4z M673.6,286.1H686v6.5h-2.6v-4.4h-9.7V286.1z M688.4,280.8H686v4.5h-2.6v-11.1h2.6v4.5h2.4
			V280.8z"/>
		<path class="st2" d="M698.5,275.2c0,4.9-3.1,8.2-8.6,9.6l-1-2.1c4.1-1,6.3-3,6.7-5.5h-5.8v-2.1H698.5z M691.6,285.2h11.9v7.2
			h-11.9V285.2z M694.2,290.3h6.8v-3.1h-6.8V290.3z M706,280.3h-2.4v4.1h-2.6v-10.3h2.6v4h2.4V280.3z"/>
	</g>
	<g>
		<path class="st2" d="M32.7,32.9c1.5-0.1,3-0.2,4.4-0.4l0.2,1.9c-4,0.7-8.3,0.8-11.5,0.8L25.5,33c1.4,0,2.9,0,4.6,0v-1.6
			c-2-0.4-3.3-1.6-3.3-3.3c0-2.1,1.9-3.5,4.6-3.5c2.7,0,4.6,1.4,4.6,3.5c0,1.7-1.3,2.9-3.2,3.3V32.9z M36.9,23.9H25.9v-2.1h4.2v-2
			h2.6v2h4.2V23.9z M31.4,29.5c1.2,0,2.1-0.5,2.1-1.5c0-1-0.8-1.5-2.1-1.5c-1.2,0-2.1,0.5-2.1,1.5C29.3,29,30.2,29.5,31.4,29.5z
			 M40.8,19.8v18.4h-2.6V19.8H40.8z"/>
		<path class="st2" d="M59.7,31.9h-7.1v6.3H50v-6.3H43v-2.1h16.6V31.9z M58.1,28.4c-3.2-0.5-5.5-2-6.7-4c-1.2,2-3.5,3.5-6.7,4
			l-1-2.1c4.2-0.6,6.3-3,6.3-5.1v-0.9h2.8v0.9c0,2.1,2.1,4.5,6.3,5.1L58.1,28.4z"/>
		<path class="st2" d="M71.5,23.8H60.6v-2.1h4.1v-2h2.7v2h4.1L71.5,23.8z M66,31.5c-2.6,0-4.5-1.4-4.5-3.6c0-2.1,1.9-3.5,4.5-3.5
			s4.5,1.5,4.5,3.5C70.5,30.1,68.7,31.5,66,31.5z M65.9,35.8h9.9v2.1H63.2v-5.3h2.6V35.8z M66,29.5c1.2,0,2-0.5,2-1.6
			c0-1-0.8-1.5-2-1.5c-1.2,0-2,0.5-2,1.5C64,29,64.8,29.5,66,29.5z M77.6,25.4v2.2h-2.4v6h-2.6V19.8h2.6v5.6H77.6z"/>
		<path class="st2" d="M89.3,31.6c0.5-0.1,1-0.1,1.4-0.2l0.2,1.9C88,34,84.3,34,82,34l-0.3-2.1c0.4,0,0.9,0,1.4,0V24h-1.1v-2.1h8.4
			V24h-1.2V31.6z M85.6,31.8c0.4,0,0.9,0,1.4-0.1V24h-1.4V31.8z M91.8,20.2h2.5v17.2h-2.5v-8.6H90v-2.3h1.8V20.2z M97.9,19.8v18.4
			h-2.5V19.8H97.9z"/>
		<path class="st2" d="M116.2,33.9v2.1H99.5v-2.1H116.2z M114.5,31.4h-12.9V21.1h12.8v2.1h-10.1v1.9h9.7v2h-9.7v2.1h10.3V31.4z"/>
		<path class="st2" d="M126.6,29.8h-8.7v-8.9h2.6v2.5h3.5v-2.5h2.6v1.6h3.3v-2.7h2.6v11h-2.6v-2.4h-3.3V29.8z M132.6,34.7
			c0,2.2-2.4,3.6-6.3,3.6c-3.9,0-6.3-1.3-6.3-3.6c0-2.2,2.4-3.5,6.3-3.5C130.2,31.1,132.6,32.4,132.6,34.7z M124,25.4h-3.5v2.3h3.5
			V25.4z M130,34.7c0-1-1.3-1.5-3.7-1.5c-2.4,0-3.7,0.5-3.7,1.5c0,1,1.3,1.5,3.7,1.5C128.7,36.2,130,35.7,130,34.7z M126.6,24.6v1.7
			h3.3v-1.7H126.6z"/>
		<path class="st2" d="M151.4,27.2v2.1h-16.6v-2.1H151.4z M136.4,23.2c0-2,2.5-3.1,6.7-3.1c4.2,0,6.7,1.1,6.7,3.1
			c0,2-2.5,3.1-6.7,3.1C138.9,26.3,136.4,25.2,136.4,23.2z M139.3,36.1h10.6v2h-13.2v-4.8h10.1v-1h-10.1v-1.9h12.7V35h-10.1V36.1z
			 M139.1,23.2c0,0.9,1.3,1.2,3.9,1.2c2.7,0,3.9-0.4,3.9-1.2c0-0.8-1.3-1.2-3.9-1.2C140.4,22,139.1,22.4,139.1,23.2z"/>
	</g>
	<g>
		<path class="st2" d="M44.3,249.1l1.4-1.9c0.8,0.8,1.9,1.5,3.3,1.5c1.5,0,2.6-1,2.6-2.7c0-1.7-1-2.7-2.5-2.7
			c-0.9,0-1.4,0.2-2.2,0.8l-1.3-0.9l0.4-7.2h7.9v2.5h-5.4l-0.3,3.1c0.6-0.3,1.1-0.4,1.8-0.4c2.5,0,4.6,1.5,4.6,4.7
			c0,3.3-2.4,5.2-5.2,5.2C46.9,251.2,45.4,250.2,44.3,249.1z"/>
		<path class="st2" d="M55.6,243.4c0-5.1,2-7.6,5-7.6c3,0,5,2.5,5,7.6s-2,7.7-5,7.7C57.6,251.2,55.6,248.5,55.6,243.4z M62.9,243.4
			c0-4.1-1-5.3-2.2-5.3c-1.3,0-2.2,1.2-2.2,5.3c0,4.2,1,5.4,2.2,5.4C61.9,248.9,62.9,247.6,62.9,243.4z"/>
		<path class="st2" d="M66.6,243.4c0-5.1,2-7.6,5-7.6c3,0,5,2.5,5,7.6s-2,7.7-5,7.7C68.6,251.2,66.6,248.5,66.6,243.4z M73.8,243.4
			c0-4.1-1-5.3-2.2-5.3c-1.3,0-2.2,1.2-2.2,5.3c0,4.2,1,5.4,2.2,5.4C72.9,248.9,73.8,247.6,73.8,243.4z"/>
		<path class="st2" d="M78.3,239.7h2.4l0.2,1.5H81c0.9-1,2-1.8,3.4-1.8c1.6,0,2.5,0.7,3.1,2c1-1.1,2.1-2,3.6-2
			c2.4,0,3.5,1.7,3.5,4.5v7h-2.9v-6.6c0-1.7-0.5-2.3-1.6-2.3c-0.6,0-1.4,0.4-2.2,1.3v7.7h-2.9v-6.6c0-1.7-0.5-2.3-1.6-2.3
			c-0.6,0-1.4,0.4-2.2,1.3v7.7h-2.9V239.7z"/>
		<path class="st2" d="M96.7,247.7v-12.8h2.9v13c0,0.7,0.3,0.9,0.6,0.9c0.1,0,0.2,0,0.4,0l0.4,2.2c-0.3,0.1-0.8,0.3-1.5,0.3
			C97.5,251.2,96.7,249.8,96.7,247.7z"/>
		<path class="st2" d="M116.6,246c-3.8,0.7-8.2,0.8-11.3,0.8l-0.3-2c1.3,0,2.8,0,4.4-0.1v-1.1c-2-0.3-3.2-1.3-3.2-2.7
			c0-1.8,1.8-2.9,4.5-2.9c2.7,0,4.5,1.1,4.5,2.9c0,1.4-1.2,2.4-3.2,2.7v0.9c1.5-0.1,3-0.2,4.4-0.4L116.6,246z M116,237.6h-10.5v-1.9
			h3.9v-1.6h2.6v1.6h3.9V237.6z M110.3,250.2h10.2v2.1h-12.9v-4.6h2.6V250.2z M110.8,242c1.2,0,2-0.4,2-1.1c0-0.7-0.7-1.1-2-1.1
			s-2,0.4-2,1.1C108.8,241.6,109.5,242,110.8,242z M122.2,240.2v2.2h-2.3v6.2h-2.6v-14.4h2.6v6H122.2z"/>
		<path class="st2" d="M132.5,245c-2-0.7-3.4-2-4.2-3.6c-0.8,1.8-2.3,3.3-4.4,4l-1.4-2.1c3.1-1,4.4-3.5,4.4-6v-2h2.7v2
			c0,2.3,1.2,4.7,4.2,5.6L132.5,245z M128.1,250.2h9.9v2.1h-12.5v-5.9h2.6V250.2z M139.8,239.5v2.2h-2.4v6h-2.6v-13.5h2.6v5.3H139.8
			z"/>
	</g>
	<g>
		<path class="st2" d="M228.4,383.6c-2.1-0.6-3.5-1.9-4.3-3.5c-0.8,1.7-2.3,3.1-4.5,3.8l-1.3-2.1c3.1-0.9,4.4-3.3,4.4-5.5V375h2.7
			v1.4c0,2.2,1.3,4.3,4.3,5.2L228.4,383.6z M234.1,390.8v2h-12.7v-5.1h9.6v-1.1h-9.7v-2h12.3v5H224v1.1H234.1z M233.6,383.9H231
			v-9.3h2.6V383.9z"/>
		<path class="st2" d="M252.6,388.8v2.2h-16.7v-2.2h7v-2.7h-5.1v-6.2h10.3v-2h-10.3v-2.1h12.9v6.1h-10.3v2.1h10.7v2.1h-5.6v2.7
			H252.6z"/>
		<path class="st2" d="M266.6,385h-8.8v-8.9h8.8V385z M262.5,390.6h9.9v2.1h-12.5v-6h2.6V390.6z M264,378.2h-3.6v4.7h3.6V378.2z
			 M274.2,379.9v2.2h-2.4v6h-2.6v-13.4h2.6v5.3H274.2z"/>
		<path class="st2" d="M291.5,381.7v2.1h-16.7v-2.1H291.5z M279.4,390.8H290v2h-13.2v-5h10.1v-1h-10.1v-2h12.7v4.9h-10.1V390.8z
			 M289.6,380.7h-12.6v-5.8h12.5v2.1h-9.9v1.6h10V380.7z"/>
		<path class="st2" d="M307.9,374.5V393h-2.6v-9.7h-3.1c-0.3,3.5-2.2,5.7-4.7,5.7c-2.7,0-4.8-2.5-4.8-6.6c0-4,2-6.6,4.8-6.6
			c2.5,0,4.3,2,4.7,5.3h3.1v-6.6H307.9z M299.8,382.4c0-2.7-0.9-4.2-2.3-4.2c-1.3,0-2.2,1.5-2.2,4.2c0,2.7,0.9,4.2,2.2,4.2
			C298.9,386.6,299.8,385.1,299.8,382.4z"/>
	</g>
	<g>
		<path class="st2" d="M519,385.5c-3.7,0.7-7.9,0.8-10.9,0.8l-0.3-2.1c1.3,0,2.7,0,4.2,0v-1.4c-2-0.4-3.3-1.8-3.3-3.6
			c0-2.2,1.9-3.7,4.6-3.7c2.7,0,4.6,1.5,4.6,3.7c0,1.8-1.3,3.2-3.3,3.6v1.3c1.4-0.1,2.9-0.2,4.2-0.4L519,385.5z M512.8,390.6H523
			v2.1h-12.9v-5.2h2.6V390.6z M513.3,380.8c1.3,0,2.2-0.6,2.2-1.8s-0.9-1.8-2.2-1.8c-1.3,0-2.1,0.6-2.1,1.8S512,380.8,513.3,380.8z
			 M524.7,380.3v2.2h-2.3v6.1h-2.6v-14.1h2.6v5.8H524.7z"/>
		<path class="st2" d="M535.1,384.8c-1.9-0.7-3.2-1.9-4-3.6c-0.8,1.9-2.3,3.4-4.5,4.1l-1.4-2.1c3.1-1,4.4-3.5,4.4-6v-1.6h2.7v1.5
			c0,2.5,1.2,4.7,4.1,5.7L535.1,384.8z M540.9,389.4c0,2.2-2.4,3.6-6.3,3.6c-3.9,0-6.3-1.3-6.3-3.6c0-2.3,2.4-3.6,6.3-3.6
			C538.5,385.8,540.9,387.1,540.9,389.4z M538.3,389.4c0-1.1-1.3-1.6-3.7-1.6c-2.4,0-3.7,0.5-3.7,1.6c0,1,1.3,1.5,3.7,1.5
			C537,391,538.3,390.5,538.3,389.4z M538.2,380.1h-3.4v-2.1h3.4v-3.4h2.6v10.8h-2.6V380.1z"/>
		<path class="st2" d="M544,389.6c0-1.1,0.8-1.9,1.8-1.9c1,0,1.8,0.8,1.8,1.9c0,1.1-0.8,1.9-1.8,1.9
			C544.8,391.5,544,390.7,544,389.6z M544.5,378.8l-0.1-2.8h3l-0.1,2.8l-0.4,7.4h-1.9L544.5,378.8z"/>
	</g>
	<g>
		<path class="st2" d="M314.9,29.2v2.1h-6.8v2.9h-2.6v-2.9h-7.3v-2.1H314.9z M302.8,35.8h10.3v2.1h-12.9v-5.1h2.6V35.8z M312.8,27.9
			h-12.4v-7.6h2.6v1.9h7.2v-1.9h2.6V27.9z M310.2,24.2H303v1.7h7.2V24.2z"/>
		<path class="st2" d="M321.8,22.7c0,1.9,1,3.8,3.4,4.7l-1.3,2c-1.6-0.6-2.7-1.7-3.3-3.1c-0.7,1.5-1.8,2.8-3.6,3.4l-1.3-2
			c2.5-0.9,3.6-2.9,3.6-5v-1.5h2.6V22.7z M321.7,32.2c1.1-0.1,2.2-0.2,3.1-0.3l0.2,1.9c-3,0.6-6.7,0.7-9.1,0.7l-0.3-2.1
			c1,0,2.2,0,3.6,0V29h2.5V32.2z M331.7,19.8v18.4h-2.5v-9h-1.4v8.2h-2.5V20.1h2.5V27h1.4v-7.3H331.7z"/>
		<path class="st2" d="M339.2,22.6h3.1v2.1h-8.8v-2.1h3.1v-2.3h2.6V22.6z M341.9,29.9c0,2.6-1.7,4.4-4,4.4c-2.4,0-4-1.8-4-4.4
			c0-2.6,1.7-4.4,4-4.4C340.2,25.5,341.9,27.3,341.9,29.9z M339.6,29.9c0-1.4-0.7-2.2-1.7-2.2c-1,0-1.7,0.8-1.7,2.2s0.7,2.2,1.7,2.2
			C338.9,32,339.6,31.2,339.6,29.9z M349.2,19.8v18.4h-2.5v-8.8h-1.4v8h-2.5V20.1h2.5v7.2h1.4v-7.5H349.2z"/>
		<path class="st2" d="M358,23.9c0,3.5,1.3,6.9,4.4,8.2l-1.6,2.1c-2-1-3.4-2.8-4.1-5c-0.8,2.4-2.2,4.3-4.2,5.3l-1.6-2.1
			c3.1-1.4,4.5-5,4.5-8.5v-2.7h2.7V23.9z M366.5,19.8v18.5h-2.6V27.7h-3.5v-2.1h3.5v-5.8H366.5z"/>
		<path class="st2" d="M378.3,24.4c0,3,0.8,6,3.3,7.7l-1.4,2c-1.6-1-2.5-2.5-3.1-4.4c-0.6,2-1.7,3.8-3.4,4.8l-1.6-2
			c2.7-1.6,3.7-4.9,3.7-8.1v-3.1h2.5V24.4z M381.9,20.1h2.5v17.3h-2.5v-9.2h-2.3V26h2.3V20.1z M388.2,19.8v18.4h-2.5V19.8H388.2z"/>
		<path class="st2" d="M399.8,30.7c-2.1-0.6-3.5-1.8-4.3-3.3c-0.8,1.7-2.3,3-4.4,3.6l-1.2-2.1c3-0.9,4.2-3,4.2-5.1v-0.1h-3.6v-2.1
			h3.6v-2h2.6v2h3.6v2.1h-3.6v0.1c0,2,1.3,4,4.3,4.8L399.8,30.7z M392.8,31.7h12.6v6.5h-2.6v-4.4h-9.9V31.7z M405.4,19.8v11.1h-2.6
			v-4h-3v-2.1h3v-5H405.4z"/>
		<path class="st2" d="M414.2,22.5h4v2.1h-10.7v-2.1h4.1v-2.4h2.6V22.5z M417.5,30c0,2.6-2,4.4-4.6,4.4c-2.7,0-4.7-1.8-4.7-4.4
			c0-2.6,2-4.4,4.7-4.4C415.6,25.6,417.5,27.5,417.5,30z M415,30c0-1.4-0.9-2.2-2.1-2.2s-2.2,0.9-2.2,2.3s0.9,2.2,2.2,2.2
			S415,31.4,415,30z M424.7,29.2H422v9h-2.6V19.8h2.6V27h2.6V29.2z"/>
		<path class="st2" d="M441.9,33.9V36h-16.7v-2.1h5.9v-6.3h2.6v6.3H441.9z M436.9,31.6c0.7-3.5,0.7-6,0.7-8.2h-10.7v-2.1h13.4v1.8
			c0,2.3,0,4.9-0.7,8.8L436.9,31.6z"/>
	</g>
	<g>
		<path class="st2" d="M600.4,6v18.4h-2.5v-9.2h-1.5v8.4h-2.5v-5.3l-1.5,2c-1.6-0.9-2.7-2.4-3.4-4.2c-0.6,2.1-1.7,3.9-3.4,4.9
			l-1.6-2c2.7-1.6,3.6-4.9,3.6-8.4V10h-3V7.9h8.3V10h-2.8v0.5c0,3.2,0.9,6.3,3.6,7.7V6.3h2.5v6.8h1.5V6H600.4z"/>
		<path class="st2" d="M609.9,16.2c-1.5-0.6-2.6-1.7-3.2-3c-0.7,1.6-1.8,2.9-3.5,3.6l-1.4-2c2.6-1.1,3.6-3.4,3.6-5.5V7.1h2.5v2.1
			c0,2,1,4,3.4,4.9L609.9,16.2z M617.8,21c0,2.2-2.5,3.5-6.3,3.5c-3.9,0-6.4-1.3-6.4-3.5c0-2.1,2.5-3.4,6.4-3.4
			C615.3,17.6,617.8,18.9,617.8,21z M615.2,21c0-1-1.3-1.5-3.7-1.5c-2.4,0-3.7,0.5-3.7,1.5c0,1,1.3,1.5,3.7,1.5
			C613.8,22.5,615.2,22,615.2,21z M613.8,16.7h-2.5V6.4h2.5v4.1h1.4V6h2.5v11.3h-2.5v-4.7h-1.4V16.7z"/>
		<path class="st2" d="M640,13.8v2.1h-16.6v-2.1h7v-1.1h-5.4v-2h2.2V8.4h-2.3v-2h13.7v2h-2.3v2.3h2.2v2H633v1.1H640z M627.9,22.4
			h10.6v1.9h-13.2v-4.7h10.1v-0.9h-10.1v-1.9H638v4.6h-10.1V22.4z M629.8,10.8h3.8V8.4h-3.8V10.8z"/>
		<path class="st2" d="M644.6,18c2.8,0,5.1-0.2,7.7-0.6l0.3,2.1c-3,0.5-5.7,0.6-9,0.6h-1.7v-7.6h6V9.7h-6V7.6h8.7v7.1h-6V18z
			 M656.3,6v18.5h-2.6V6H656.3z"/>
		<path class="st2" d="M668.1,6.3h2.5v17.3h-2.5v-8.7h-1.4c-0.2,3.6-1.7,5.8-4,5.8c-2.4,0-4-2.5-4-6.7c0-4.2,1.5-6.7,4-6.7
			c2.2,0,3.7,2,4,5.5h1.5V6.3z M664.3,14c0-2.8-0.6-4.2-1.6-4.2c-1,0-1.6,1.4-1.6,4.2c0,2.8,0.6,4.2,1.6,4.2
			C663.7,18.2,664.3,16.8,664.3,14z M674.4,6v18.4h-2.5V6H674.4z"/>
		<path class="st2" d="M692.8,20.1v2.1h-16.7v-2.1H692.8z M691.1,16.9c-3.2-0.6-5.6-2.4-6.7-4.8c-1.2,2.3-3.5,4.1-6.7,4.8l-1.1-2.2
			c4.1-0.7,6.4-3.6,6.4-6.3V7.1h2.8v1.3c0,2.7,2.3,5.6,6.4,6.3L691.1,16.9z"/>
		<path class="st2" d="M697.2,18.2c2.5,0,4.5-0.1,6.8-0.5l0.2,2.1c-2.7,0.4-5,0.5-8.1,0.5h-1.5V7.6h8.5v2.1h-5.9v3h5.3v2.1h-5.3
			V18.2z M709.2,6v18.5h-2.6v-9.9h-3.2v-2.1h3.2V6H709.2z"/>
		<path class="st2" d="M603.5,44c-2.1-0.5-3.6-1.7-4.5-3.2c-0.8,1.6-2.3,2.9-4.5,3.5l-1.2-2.1c2.8-0.8,4.1-2.6,4.3-4.5H594v-2.1h3.7
			V34h2.6v1.8h3.7v2.1h-3.7c0.2,1.7,1.5,3.5,4.3,4.2L603.5,44z M605.9,44.9h2.6v7.3h-12.2v-7.3h2.6v1.6h7V44.9z M605.9,48.6h-7v1.6
			h7V48.6z M608.5,34v10.2h-2.7V34H608.5z"/>
		<path class="st2" d="M627.5,48.1v2.2h-16.7v-2.2H627.5z M626,40.3c0,3.2-3,5.3-6.9,5.3c-3.9,0-6.9-2.1-6.9-5.3
			c0-3.2,3-5.3,6.9-5.3C623,34.9,626,37.1,626,40.3z M614.8,40.3c0,2,1.8,3.2,4.3,3.2c2.5,0,4.3-1.2,4.3-3.2c0-2-1.8-3.2-4.3-3.2
			C616.6,37.1,614.8,38.3,614.8,40.3z"/>
		<path class="st2" d="M645.1,48.3v2.2h-16.7v-2.2h7v-2.7h-5.1v-6.2h10.3v-2h-10.3v-2.1h12.9v6.1h-10.3v2.1h10.7v2.1h-5.6v2.7H645.1
			z"/>
		<path class="st2" d="M659.1,44.4h-8.8v-8.9h8.8V44.4z M655,50h9.9v2.1h-12.5v-6h2.6V50z M656.5,37.6h-3.6v4.7h3.6V37.6z
			 M666.7,39.3v2.2h-2.4v6h-2.6V34h2.6v5.3H666.7z"/>
		<path class="st2" d="M684,41.2v2.1h-16.7v-2.1H684z M671.9,50.3h10.6v2h-13.2v-5h10.1v-1h-10.1v-2H682v4.9h-10.1V50.3z
			 M682.1,40.2h-12.6v-5.8h12.5v2.1H672v1.6h10V40.2z"/>
		<path class="st2" d="M701.6,48.1v2.1H685v-2.1h5.9v-6.3h2.6v6.3H701.6z M696.7,45.9c0.7-3.5,0.7-6,0.7-8.2h-10.7v-2.1H700v1.8
			c0,2.3,0,4.9-0.7,8.8L696.7,45.9z"/>
	</g>
</g>
<path class="st3" d="M735.6,280.2c0.5,0,0.9,0,1.4,0.1v-0.9c-0.4,0.1-0.9,0.1-1.3,0.1h-3.5c0.1-0.5,0.3-0.9,0.6-1.3
	c0.4-0.5,1-1,1.6-1.4c0.7-0.4,1.3-0.9,1.9-1.4c0.4-0.4,0.6-1,0.6-1.6c0-1.3-1.1-2.1-2.7-2.1c-0.8-0.1-1.6,0.3-2.2,0.8
	c-0.4,0.4-0.6,1-0.7,1.6l0.9,0.2c0-0.4,0.2-0.8,0.4-1.1c0.4-0.5,1-0.8,1.6-0.7c1.1,0,1.8,0.5,1.8,1.4c0,0.7-0.4,1.2-1.5,1.9
	c-0.6,0.4-1.2,0.8-1.7,1.2c-0.6,0.5-1.1,1.2-1.4,1.9c-0.2,0.5-0.3,1-0.3,1.5c0.4,0,0.8-0.1,1.2-0.1L735.6,280.2L735.6,280.2z"/>
<polygon class="st3" points="727.1,273.5 725.7,274.2 725.9,274.7 727.2,273.7 727.1,275.3 727.6,275.3 727.5,273.7 728.8,274.6 
	729.1,274.2 727.6,273.5 729.1,272.8 728.8,272.4 727.5,273.3 727.6,271.7 727.1,271.7 727.2,273.3 725.9,272.4 725.6,272.8 "/>
<polygon class="st3" points="711.9,273.5 710.4,274.2 710.6,274.7 712,273.7 711.8,275.3 712.3,275.3 712.2,273.7 713.5,274.6 
	713.8,274.2 712.3,273.5 713.8,272.8 713.5,272.4 712.2,273.3 712.3,271.7 711.8,271.7 712,273.3 710.6,272.4 710.4,272.8 "/>
<path class="st3" d="M716.3,272.6c0.3,0,0.6-0.1,1-0.1h0.6v6.4c0,0.4,0,0.8-0.1,1.2h1c-0.1-0.4-0.1-0.8-0.1-1.2v-5.3
	c0-0.6,0-1.2,0.1-1.8c-0.3,0-0.6,0.1-0.9,0.1h-0.7c-0.3,0-0.6,0-0.9-0.1L716.3,272.6L716.3,272.6z"/>
</svg>
