<?xml version="1.0" encoding="utf-8"?>
<!-- Generator: Adobe Illustrator 21.0.0, SVG Export Plug-In . SVG Version: 6.00 Build 0)  -->
<svg version="1.1" id="section" xmlns="http://www.w3.org/2000/svg" xmlns:xlink="http://www.w3.org/1999/xlink" x="0px" y="0px"
	 viewBox="0 0 673 1283" style="enable-background:new 0 0 673 1283;" xml:space="preserve">
<style type="text/css">
	.st0{fill:#00A040;}
	.st1{fill:#505564;}
</style>
<g id="グループ_43">
	<path id="シェイプ_6" class="st0" d="M558,801c-56.5,0-102.3-45.8-102.3-102.3S501.5,596.5,558,596.5s102.3,45.8,102.3,102.3
		C660.2,755.2,614.5,800.9,558,801z M558,605c-51.8,0-93.8,42-93.8,93.8s42,93.8,93.8,93.8s93.8-42,93.8-93.8l0,0
		C651.8,647,609.8,605,558,605z M532.8,675.5h-13.3c-1.1,0-2.1-0.8-2.3-1.9l-2.9-15.6c-0.2-1.2,0.5-2.4,1.6-2.7l12.1-3.6
		c1.3-0.4,2.6,0.3,3,1.6c0,0.1,0,0.1,0,0.2l4.1,19.3c0.3,1.3-0.5,2.5-1.8,2.8C533.2,675.5,533,675.5,532.8,675.5z M521.5,670.7h8.4
		l-3-13.9l-7.6,2.3L521.5,670.7z M477.2,683.9c-1.3,0-2.4-1.1-2.4-2.4c0-0.1,0-0.3,0-0.4L477,668c0.2-1.1,1.2-2,2.3-2l15.9-0.3
		c1.2,0,2.2,0.9,2.4,2.1l1.6,12.5c0.2,1.3-0.8,2.5-2,2.7c-0.1,0-0.1,0-0.2,0L477.2,683.9L477.2,683.9L477.2,683.9z M481.4,670.7
		L480,679l14.2-0.6l-1-7.9L481.4,670.7z M479.6,717.4c-1.1,0-2-0.7-2.3-1.8l-4.8-19.1c-0.3-1.3,0.4-2.6,1.7-2.9
		c0.2,0,0.3-0.1,0.5-0.1L488,693c1.1,0,2.1,0.7,2.4,1.8l3.5,15.5c0.3,1.2-0.4,2.4-1.5,2.8l-11.9,4.1
		C480.1,717.3,479.8,717.4,479.6,717.4L479.6,717.4z M477.8,698.2l3.5,13.8l7.5-2.6l-2.6-11.5L477.8,698.2z M551.3,676.9
		c-0.5,0-0.9-0.1-1.3-0.4l-11-7.5c-0.9-0.6-1.3-1.9-0.8-2.9l6.4-14.5c0.5-1.1,1.7-1.7,2.9-1.3l12,3.8c1.2,0.4,1.9,1.7,1.5,3
		c0,0.1,0,0.1-0.1,0.2l-7.5,18.2c-0.3,0.7-0.8,1.2-1.5,1.4C551.8,676.8,551.6,676.9,551.3,676.9L551.3,676.9z M543.3,666.2l6.9,4.7
		l5.4-13.1l-7.5-2.4L543.3,666.2z M568.7,691c-0.7,0-1.3-0.3-1.8-0.8l-8.4-9.4c-0.9-1-0.8-2.5,0.2-3.4l0.1-0.1l15.7-11.8
		c1-0.8,2.5-0.6,3.3,0.5c0.1,0.1,0.2,0.3,0.3,0.4l5.6,12c0.5,1,0.2,2.3-0.8,2.9l-12.9,9.2C569.7,690.8,569.2,691,568.7,691z
		 M563.8,679.6l5.3,5.9l9.6-6.8l-3.5-7.6L563.8,679.6z M602,680.9L602,680.9l-13.3-0.2c-1.1,0-2.1-0.9-2.3-2l-2.6-15.7
		c-0.2-1.2,0.5-2.3,1.7-2.7l12.1-3.4c1.3-0.4,2.6,0.4,2.9,1.6c0,0.1,0,0.1,0,0.2l3.8,19.3c0.2,1.3-0.6,2.5-1.9,2.8
		C602.4,680.9,602.2,680.9,602,680.9L602,680.9z M590.8,675.9l8.4,0.1l-2.7-13.9l-7.6,2.2L590.8,675.9z M618,667.8
		c-0.2,0-0.4,0-0.6-0.1c-0.6-0.2-1.2-0.6-1.5-1.2l-9.5-17.2c-0.6-1.1-0.2-2.6,0.9-3.2c0.1-0.1,0.3-0.1,0.5-0.2l12.7-3.9
		c1.1-0.3,2.3,0.2,2.8,1.2l7.3,14.1c0.6,1.1,0.2,2.4-0.8,3.1l-10.5,7C618.9,667.7,618.5,667.8,618,667.8L618,667.8z M612,649.6
		l6.9,12.4l6.6-4.4l-5.4-10.5L612,649.6z M563.3,718.2c-0.9,0-1.6-0.5-2.1-1.2l-7.9-13.8c-0.6-1-0.3-2.4,0.7-3.1l10.2-7.4
		c0.5-0.4,1.2-0.5,1.9-0.4s1.2,0.5,1.6,1.1l10.2,16.8c0.7,1.1,0.3,2.6-0.8,3.3c-0.1,0.1-0.3,0.2-0.4,0.2l-12.5,4.4
		C563.9,718.2,563.6,718.2,563.3,718.2z M558.5,702.7l5.9,10.2l7.9-2.8l-7.4-12.1L558.5,702.7z M542.2,730.4c-1.1,0-2.1-0.8-2.3-1.9
		l-3.3-15.5c-0.2-1.2,0.4-2.4,1.6-2.7l12-3.9c0.6-0.2,1.3-0.1,1.9,0.2c0.6,0.3,1,0.9,1.2,1.5l4.6,19.2c0.3,1.3-0.5,2.6-1.8,2.9
		c-0.2,0-0.3,0.1-0.5,0.1L542.2,730.4L542.2,730.4L542.2,730.4z M541.7,714.1l2.4,11.5l8.4-0.2l-3.3-13.8L541.7,714.1z M522.6,735.8
		c-0.7,0-1.3-0.3-1.8-0.8l-8.8-9.9c-0.8-0.9-0.8-2.1-0.1-3l9.7-12.6c0.7-1,2.1-1.2,3.1-0.6l10.8,6.6c1.1,0.7,1.5,2.1,0.8,3.3
		c0,0.1-0.1,0.1-0.1,0.2l-11.7,15.9c-0.4,0.6-1.1,0.9-1.8,1C522.7,735.8,522.6,735.8,522.6,735.8z M516.9,723.4l5.6,6.3l8.4-11.4
		l-6.7-4.1L516.9,723.4z M527.7,771.3c-1.1,0-2-0.7-2.3-1.7l-4.4-15.3c-0.3-1.2,0.3-2.4,1.4-2.8l11.7-4.8c1.2-0.5,2.6,0.1,3.1,1.3
		c0,0.1,0,0.1,0.1,0.2l5.9,18.8c0.4,1.2-0.3,2.6-1.6,3c-0.2,0-0.3,0.1-0.5,0.1l-13.2,1.3C527.9,771.3,527.8,771.3,527.7,771.3
		L527.7,771.3z M526.2,755l3.2,11.3l8.3-0.8l-4.2-13.5L526.2,755z M517.6,764c-0.1,0-0.3,0-0.4,0l-13-2.5c-1.1-0.2-1.9-1.2-1.9-2.3
		l0.1-15.9c0-1.2,0.9-2.2,2.1-2.3l12.5-1.3c0.7-0.1,1.3,0.1,1.8,0.6c0.5,0.4,0.8,1.1,0.8,1.7l0.4,19.7C520,762.9,519,764,517.6,764
		C517.7,764,517.6,764,517.6,764L517.6,764z M507,757.2l8.2,1.6l-0.3-14.2l-7.9,0.8L507,757.2z M553.7,761.1c-0.2,0-0.4,0-0.7-0.1
		l-12.8-3.7c-1.1-0.3-1.8-1.4-1.7-2.5L540,739c0.1-1.2,1.1-2.1,2.3-2.1l12.6-0.2c0.7,0,1.3,0.3,1.8,0.7c0.5,0.5,0.7,1.1,0.6,1.8
		l-1.4,19.6C556,760.1,555,761.1,553.7,761.1L553.7,761.1z M543.5,753.3l8.1,2.3l1-14.1l-7.9,0.1L543.5,753.3z M563.3,785.7
		c-0.1,0-0.3,0-0.4,0l-13.1-2.2c-1.1-0.2-2-1.2-2-2.3l-0.2-15.9c0-1.2,0.9-2.2,2.1-2.4l12.5-1.5c0.7-0.1,1.3,0.1,1.8,0.5
		s0.8,1,0.8,1.7l0.8,19.7C565.7,784.6,564.6,785.7,563.3,785.7C563.4,785.7,563.3,785.7,563.3,785.7L563.3,785.7z M552.5,779.1
		l8.3,1.4l-0.6-14.2l-7.9,1L552.5,779.1z M575.8,746.3L575.8,746.3l-13.3-0.1c-1.1,0-2.1-0.8-2.3-2l-2.8-15.6
		c-0.2-1.2,0.5-2.3,1.7-2.7l12.1-3.5c1.3-0.4,2.6,0.4,2.9,1.6c0,0.1,0,0.1,0,0.2l4,19.3c0.3,1.3-0.6,2.5-1.9,2.8
		C576.2,746.3,576,746.3,575.8,746.3L575.8,746.3z M564.6,741.5l8.4,0.1l-2.8-13.9l-7.6,2.2L564.6,741.5z M592.8,736.8
		c-0.1,0-0.3,0-0.4,0l-13.1-2.2c-1.1-0.2-2-1.2-2-2.3l-0.3-15.9c0-1.2,0.9-2.2,2.1-2.4l12.5-1.6c0.7-0.1,1.3,0.1,1.8,0.5
		s0.8,1,0.8,1.7l0.8,19.7C595.2,735.7,594.2,736.8,592.8,736.8C592.9,736.8,592.8,736.8,592.8,736.8L592.8,736.8z M582.1,730.3
		l8.3,1.4l-0.6-14.2l-7.9,1L582.1,730.3z M601.6,727.3c-1.1,0-2.1-0.8-2.3-1.9l-3.2-15.6c-0.2-1.2,0.4-2.4,1.6-2.7l12-3.8
		c1.2-0.4,2.6,0.3,3,1.5c0,0.1,0,0.1,0.1,0.2l4.4,19.2c0.3,1.3-0.5,2.5-1.8,2.8c-0.2,0-0.3,0.1-0.5,0.1L601.6,727.3L601.6,727.3
		L601.6,727.3z M601.2,711l2.3,11.6l8.4-0.1l-3.2-13.8L601.2,711z M624.3,698.4c-1.2,0-2.2-0.9-2.3-2.1l-1.7-12.5
		c-0.2-1.3,0.7-2.5,2-2.7c0.1,0,0.1,0,0.2,0l19.7-1c0.7,0,1.4,0.2,1.9,0.8c0.5,0.5,0.7,1.3,0.6,2l-2.1,13.1c-0.2,1.1-1.1,2-2.3,2
		L624.3,698.4L624.3,698.4L624.3,698.4z M625.3,685.7l1.1,7.8l11.8-0.3l1.3-8.3L625.3,685.7z M633.3,726c-0.1,0-0.2,0-0.3,0
		l-13.2-1.8c-1.1-0.2-2-1.1-2.1-2.2l-0.8-15.9c-0.1-1.2,0.8-2.3,2-2.5l12.5-2c1.3-0.2,2.5,0.7,2.7,2c0,0.1,0,0.1,0,0.2l1.5,19.6
		c0.1,1.3-0.9,2.4-2.2,2.5C633.5,726,633.4,726,633.3,726L633.3,726z M622.4,719.8l8.3,1.1l-1.1-14.1l-7.8,1.3L622.4,719.8z
		 M612.3,753.8c-1,0-1.9-0.6-2.2-1.5l-5.6-14.9c-0.4-1.1,0.1-2.4,1.2-3l11.3-5.7c0.6-0.3,1.3-0.3,1.9-0.1c0.6,0.2,1.1,0.7,1.4,1.3
		l7.4,18.3c0.5,1.2-0.1,2.6-1.3,3.1c-0.2,0.1-0.3,0.1-0.5,0.1l-13.1,2.3C612.5,753.8,612.4,753.8,612.3,753.8L612.3,753.8z
		 M609.6,737.7l4.1,11l8.2-1.5l-5.3-13.2L609.6,737.7z M597.9,764.3c-0.3,0-0.5,0-0.8-0.1l-12.6-4.3c-1.1-0.4-1.7-1.5-1.6-2.6
		l2.3-15.7c0.2-1.2,1.2-2,2.4-2l12.6,0.5c1.3,0.1,2.3,1.2,2.3,2.5c0,0.1,0,0.1,0,0.2l-2.4,19.5C600.1,763.4,599.1,764.3,597.9,764.3
		z M587.9,756l7.9,2.7l1.7-14.1l-7.9-0.3L587.9,756z M573,774c-1,0-1.9-0.7-2.3-1.7l-4.8-15.1c-0.4-1.2,0.2-2.4,1.3-2.9l11.5-5.1
		c1.2-0.5,2.6,0,3.1,1.2c0,0.1,0.1,0.1,0.1,0.2l6.5,18.6c0.4,1.2-0.2,2.6-1.5,3c-0.2,0.1-0.3,0.1-0.5,0.1l-13.2,1.7
		C573.2,774,573.1,774,573,774z M571,757.8l3.6,11.2l8.3-1.1l-4.7-13.4L571,757.8z M613.3,693.6c-0.6,0-1.2-0.2-1.6-0.6l-9.8-8.9
		c-0.8-0.8-1-2-0.4-3l8.3-13.5c0.6-1,1.9-1.4,3-0.9l11.4,5.4c1.2,0.6,1.7,2,1.1,3.2c0,0.1-0.1,0.1-0.1,0.2l-9.9,17
		C614.9,693.2,614.1,693.6,613.3,693.6L613.3,693.6z M606.5,681.9l6.2,5.6l7.1-12.3l-7.1-3.4L606.5,681.9z M594.4,707.3
		c-0.7,0-1.3-0.3-1.7-0.8l-13.4-14.4c-0.9-1-0.8-2.5,0.1-3.3c0.1-0.1,0.3-0.2,0.4-0.3l11.4-6.8c1-0.6,2.2-0.4,3,0.5l10.5,11.9
		c0.8,0.9,0.8,2.3,0,3.2l-8.5,9.3C595.7,707.1,595,707.3,594.4,707.3L594.4,707.3z M584.7,691l9.7,10.4l5.3-5.9l-7.8-8.8L584.7,691z
		 M506.4,726.1c-0.4,0-0.8-0.1-1.2-0.3l-10.9-6.3c-1.1-0.7-1.5-2.1-0.9-3.2c0-0.1,0.1-0.1,0.1-0.2l11.2-16.2c0.4-0.6,1.1-1,1.8-1
		c0.7-0.1,1.4,0.2,1.9,0.7l9.1,9.7c0.8,0.8,0.9,2.1,0.2,3l-9.4,12.8C507.9,725.7,507.2,726.1,506.4,726.1L506.4,726.1z M498.9,716.6
		l6.9,4l7-9.5L507,705L498.9,716.6z M494.1,742.4c-0.5,0-0.9-0.1-1.3-0.4l-13.3-8.7c-1-0.7-1.4-2-0.8-3.1l5.7-11.3
		c0.3-0.6,0.8-1,1.5-1.2c0.6-0.2,1.3-0.1,1.9,0.3l16.8,10.3c1.1,0.7,1.5,2.1,0.8,3.3c-0.1,0.1-0.2,0.3-0.3,0.4l-9.1,9.6
		C495.3,742.1,494.7,742.4,494.1,742.4L494.1,742.4z M483.8,730.5l9.9,6.4l5.8-6.1l-12.1-7.4L483.8,730.5z M542.8,703.1
		c-0.7,0-1.4-0.3-1.8-0.8l-8.6-10.1c-0.7-0.9-0.8-2.1,0-3l10-12.4c0.8-0.9,2.1-1.2,3.1-0.5l10.6,6.8c1.1,0.7,1.4,2.2,0.7,3.3
		c0,0.1-0.1,0.1-0.1,0.2l-12,15.6C544.2,702.8,543.5,703.1,542.8,703.1L542.8,703.1L542.8,703.1z M537.2,690.6l5.5,6.4l8.6-11.3
		l-6.7-4.3L537.2,690.6z M497.5,664.5c-1,0-1.9-0.6-2.2-1.6l-4.5-12.5c-0.4-1.1,0-2.3,1-2.9l13.7-8.1c1-0.6,2.4-0.3,3.1,0.6
		l7.6,10.1c0.8,1,0.6,2.5-0.5,3.3c-0.1,0-0.1,0.1-0.2,0.1l-16.7,10.4C498.4,664.4,498,664.5,497.5,664.5L497.5,664.5z M495.9,650.7
		l2.9,7.9l12-7.5l-4.7-6.3L495.9,650.7z M528.5,647.7c-0.6,0-1.1-0.2-1.5-0.6l-15-12.8c-1-0.9-1.1-2.3-0.3-3.3
		c0.1-0.1,0.2-0.2,0.4-0.3l10.6-8c0.9-0.7,2.2-0.6,3,0.1l11.8,10.7c0.9,0.8,1,2.2,0.3,3.1l-7.4,10.2c-0.4,0.5-1,0.9-1.6,1
		C528.6,647.7,528.6,647.7,528.5,647.7L528.5,647.7z M517.3,632.6l10.7,9.3l4.7-6.4l-8.7-7.9L517.3,632.6z M556.1,644.5
		c-0.2,0-0.4,0-0.5-0.1l-15.5-3.6c-1.2-0.3-2-1.4-1.8-2.6l1.5-12.5c0.2-1.3,1.3-2.2,2.6-2.1c0.1,0,0.1,0,0.2,0l19.3,4
		c1.3,0.3,2.1,1.5,1.8,2.8c0,0.2-0.1,0.3-0.2,0.5l-5.3,12.2C557.9,644,557.1,644.5,556.1,644.5L556.1,644.5z M543.3,636.7l11.5,2.7
		l3.4-7.7l-13.9-2.9L543.3,636.7z M567.5,639.2c-1.2,0-2.2-0.9-2.3-2l-2-13.1c-0.2-1.1,0.5-2.2,1.6-2.6l15-5.2
		c1.1-0.4,2.4,0.1,2.9,1.2l5.4,11.4c0.6,1.2,0.1,2.6-1.1,3.2c-0.1,0-0.1,0.1-0.2,0.1l-18.4,6.9C568.1,639.1,567.8,639.2,567.5,639.2
		L567.5,639.2z M568.2,625.3l1.3,8.3l13.3-5l-3.4-7.2L568.2,625.3z M570.8,665.2c-0.6,0-1.2-0.2-1.6-0.6l-9.3-8.5
		c-1-0.9-1-2.4-0.2-3.3c0-0.1,0.1-0.1,0.1-0.1l14.5-13.4c0.5-0.5,1.2-0.7,2-0.6c0.7,0.1,1.3,0.5,1.7,1.1l6.8,11.4
		c0.6,1,0.4,2.2-0.5,3l-12,10.5C571.9,665,571.3,665.2,570.8,665.2L570.8,665.2z M565,654.3l5.8,5.3l8.9-7.8l-4.3-7.2L565,654.3z
		 M605.2,652.2c-0.1,0-0.1,0-0.2,0l-15.8-1.2c-1.2-0.1-2.1-1.1-2.2-2.3l-0.4-12.6c0-0.7,0.2-1.3,0.7-1.8s1.1-0.7,1.8-0.7l19.7,1
		c1.3,0.1,2.3,1.2,2.2,2.5c0,0.2,0,0.3-0.1,0.5l-3.4,12.8C607.2,651.4,606.3,652.2,605.2,652.2L605.2,652.2z M591.7,646.4l11.8,0.9
		l2.2-8.1l-14.2-0.7L591.7,646.4z M514.4,697.9c-0.6,0-1.3-0.3-1.7-0.7l-11-11.5c-0.8-0.9-0.9-2.2-0.1-3.2l8.1-9.7
		c0.4-0.5,1-0.8,1.7-0.8c0.7-0.1,1.3,0.2,1.8,0.7l14,13.9c0.9,0.9,0.9,2.4,0,3.4c-0.1,0.1-0.2,0.2-0.4,0.3l-11.1,7.3
		C515.3,697.7,514.9,697.9,514.4,697.9L514.4,697.9z M506.6,683.9l8.1,8.5l7-4.6l-10.1-10L506.6,683.9z"/>
	<g id="グループ_48">
		<path id="シェイプ_2" class="st0" d="M117.1,275.2c0-0.1-0.1-0.2-0.1-0.3v-91.3c0-0.4,0.1-0.7,0.2-1c0.2-0.5,0.3-1.2,0.5-2
			c0.4-2.2,0.8-9.4-2.9-13.7c-0.2-0.2-0.4-0.4-0.5-0.7c0.2-0.4,0.5-0.8,0.7-1.2c2.9-4.2,3.4-7.1,1.9-21.6
			c-1.2-10.4-5.2-20.2-11.4-28.6c-1.5-2.1-3.4-4-5.6-5.4c-1.1-0.6-2-1.5-2.6-2.6c1-1.3,1.5-2.8,1.6-4.4c0-0.2,0-0.3,0-0.5l-0.4-3.3
			v-6c0-2.6,0-5.6-3.2-8.1c-2.4-1.8-5.2-1.6-7.9-1.4c-2,0.1-4,0.1-6,0c-2.7-0.2-5.5-0.4-7.9,1.4c-3.2,2.5-3.2,5.4-3.2,8.1v6
			l-0.4,3.3c0,0.2,0,0.3,0,0.5c0,1.6,0.6,3.1,1.6,4.4c-0.6,1.1-1.5,2-2.6,2.6c-2.2,1.5-4.1,3.3-5.6,5.4
			c-6.2,8.4-10.2,18.2-11.4,28.6c-1.5,14.5-1,17.5,1.9,21.6c0.3,0.4,0.5,0.8,0.7,1.2c-0.2,0.2-0.3,0.5-0.5,0.7
			c-3.7,4.4-3.3,11.6-2.9,13.7c0.2,0.9,0.4,1.5,0.5,2c0.1,0.3,0.2,0.7,0.2,1.1V275c0,0.1-0.1,0.2-0.1,0.3c-0.9,1.8-1,3.9-0.2,5.8
			c-0.5,2.9,0.1,5.9,1.7,8.5c2.3,3.9,6.5,6.4,11,6.4c6.3,0,19.7,1.1,19.8,1.2s0.3,0,0.4,0s0.3,0,0.4,0s13.6-1.2,19.8-1.2
			c4.5,0,8.7-2.5,11-6.4c1.6-2.5,2.2-5.5,1.7-8.5C118,279.1,118,277,117.1,275.2z M60,163.3c0-0.1-0.1-0.2-0.1-0.2l-0.1-0.2
			c-0.2-0.4-0.5-0.9-0.9-1.4l0,0c-1-1.4-1.7-2.4-1.6-6.8c0-2.4,0.3-5.7,0.8-10.6c0-0.2,0.1-0.4,0.1-0.6c0.1-1.1,0.3-2.2,0.5-3.2
			c0.1-0.5,0.2-1,0.3-1.4c0.2-0.8,0.3-1.5,0.5-2.3c0.1-0.5,0.3-1,0.5-1.5c0.2-0.7,0.4-1.4,0.7-2.1c0.2-0.5,0.4-1,0.5-1.4
			c0.2-0.6,0.5-1.3,0.8-1.9c0.2-0.5,0.4-0.9,0.6-1.4c0.3-0.6,0.5-1.2,0.8-1.8c0.2-0.4,0.4-0.8,0.7-1.2c0.3-0.5,0.6-1.1,0.9-1.6
			c0.2-0.4,0.4-0.8,0.7-1.1c0.3-0.5,0.6-0.9,0.9-1.4c0.2-0.3,0.5-0.7,0.7-1s0.4-0.5,0.5-0.7h33.5c0.2,0.2,0.4,0.5,0.6,0.8
			s0.4,0.6,0.7,1c0.3,0.4,0.6,0.9,0.9,1.4c0.2,0.4,0.4,0.7,0.7,1.1c0.3,0.5,0.6,1.1,0.9,1.6c0.2,0.4,0.4,0.8,0.6,1.2
			c0.3,0.6,0.6,1.2,0.8,1.8c0.2,0.4,0.4,0.9,0.6,1.3c0.3,0.6,0.5,1.3,0.8,2c0.2,0.5,0.4,0.9,0.5,1.4c0.2,0.7,0.5,1.4,0.7,2.2
			c0.1,0.5,0.3,0.9,0.4,1.4c0.2,0.8,0.4,1.7,0.6,2.5c0.1,0.4,0.2,0.8,0.3,1.2c0.2,1.3,0.4,2.6,0.6,3.9c1.5,14.1,0.7,15.2-0.8,17.4
			l0,0c-0.4,0.5-0.6,1-0.9,1.4c0,0.1-0.1,0.1-0.1,0.2s-0.1,0.2-0.1,0.2L60,163.3L60,163.3z M76.5,98.9v-6.3c0-1.8,0-2.3,0.3-2.7
			c0.1-0.1,0.3-0.3,0.4-0.4h0.1c1.1-0.2,2.3-0.3,3.5-0.1c2.3,0.1,4.6,0.1,6.9,0c0.9-0.1,1.8-0.1,2.7-0.1c0.3,0,0.6,0.1,0.9,0.2
			c0.2,0.1,0.3,0.2,0.4,0.4c0.3,0.4,0.3,1,0.3,2.7v6.3c0,0.1,0,0.1,0,0.2v0.1v0.1H76.5V98.9z M72.1,114.6c3.3-2,5.3-4.8,5.7-7.5
			c0.2-1.3-0.2-2.7-1.1-3.7c0,0,0-0.1-0.1-0.1H92c0,0,0,0.1-0.1,0.1c-0.9,1-1.3,2.4-1.1,3.7c0.3,2.7,2.4,5.5,5.7,7.5
			c0.4,0.2,0.7,0.5,1,0.8H71.1C71.4,115.1,71.8,114.9,72.1,114.6L72.1,114.6z M111.2,277.6c0.4,0.6,0.3,1.4-0.2,1.9
			c-0.4,0.6-0.5,1.4-0.1,2.1c0.5,0.9,0.4,2.8-0.7,4.7c-1.1,2-3.3,3.3-5.6,3.3c-6.2,0-18.5,1-20.2,1.2c-1.7-0.1-14-1.2-20.2-1.2
			c-2.3-0.1-4.4-1.3-5.6-3.3c-1.1-1.9-1.2-3.8-0.7-4.7c0.4-0.7,0.3-1.5-0.1-2.1c-0.6-0.5-0.7-1.3-0.2-1.9c0.4-0.8,0.6-1.6,0.6-2.5
			v-91.4c0-0.9-0.1-1.8-0.4-2.7c-0.1-0.4-0.2-0.9-0.4-1.6c-0.4-1.9-0.2-6.5,1.5-8.5c0.9-1,1.6-2.2,1.9-3.6H108
			c0.3,1.3,1,2.6,1.9,3.6c1.7,2,1.9,6.6,1.5,8.5c-0.1,0.7-0.3,1.2-0.4,1.6c-0.3,0.9-0.4,1.8-0.4,2.7v91.4
			C110.6,276,110.8,276.8,111.2,277.6z M270.9,275.2c0-0.1-0.1-0.2-0.1-0.3v-91.3c0-0.4,0.1-0.7,0.2-1c0.2-0.5,0.3-1.2,0.5-2
			c0.4-2.2,0.8-9.4-2.9-13.7c-0.2-0.2-0.4-0.4-0.5-0.7c0.2-0.4,0.5-0.8,0.7-1.2c2.9-4.2,3.4-7.1,1.9-21.6
			c-1.2-10.4-5.2-20.2-11.4-28.6c-1.5-2.1-3.4-4-5.6-5.4c-1.1-0.6-2-1.5-2.6-2.6c1-1.3,1.5-2.8,1.6-4.4c0-0.2,0-0.3,0-0.5l-0.4-3.3
			v-6c0-2.6,0-5.6-3.2-8.1c-2.4-1.8-5.2-1.6-7.9-1.4c-2,0.1-4,0.1-6,0c-2.7-0.2-5.5-0.4-7.9,1.4C224,87,224,90,224,92.6v6l-0.4,3.3
			c0,0.2,0,0.3,0,0.5c0,1.6,0.6,3.1,1.6,4.4c-0.6,1.1-1.5,2-2.6,2.6c-2.2,1.5-4.1,3.3-5.6,5.4c-6.2,8.4-10.2,18.2-11.4,28.6
			c-1.5,14.5-1,17.5,1.9,21.6c0.3,0.4,0.5,0.8,0.7,1.2c-0.2,0.2-0.3,0.5-0.5,0.7c-3.7,4.4-3.3,11.6-2.9,13.7c0.2,0.9,0.4,1.5,0.5,2
			c0.1,0.3,0.2,0.7,0.2,1.1V275c0,0.1-0.1,0.2-0.1,0.3c-0.9,1.8-1,3.9-0.2,5.8c-0.5,2.9,0.1,5.9,1.7,8.5c2.3,3.9,6.5,6.4,11,6.4
			c6.3,0,19.7,1.1,19.8,1.2s0.3,0,0.4,0s0.3,0,0.4,0s13.5-1.2,19.8-1.2c4.5,0,8.7-2.5,11-6.4c1.6-2.5,2.2-5.5,1.7-8.5
			C271.9,279.1,271.8,277,270.9,275.2L270.9,275.2z M213.8,163.3c0-0.1-0.1-0.2-0.1-0.2s-0.1-0.2-0.1-0.3c-0.2-0.4-0.5-0.9-0.9-1.4
			c-0.1-0.2-0.3-0.4-0.4-0.5c-0.8-1.1-1.3-2.3-1.3-5.7c0-2.4,0.2-5.8,0.8-11.1c0-0.2,0.1-0.4,0.1-0.6c0.1-1.1,0.3-2.2,0.5-3.2
			c0.1-0.5,0.2-1,0.3-1.4c0.2-0.8,0.3-1.5,0.5-2.3c0.1-0.5,0.3-1,0.5-1.5c0.2-0.7,0.4-1.4,0.7-2.1c0.2-0.5,0.4-1,0.5-1.4
			c0.3-0.7,0.5-1.3,0.8-1.9c0.2-0.5,0.4-0.9,0.6-1.3c0.3-0.6,0.5-1.2,0.8-1.8c0.2-0.4,0.4-0.8,0.6-1.2c0.3-0.5,0.6-1.1,0.9-1.6
			c0.2-0.4,0.4-0.8,0.7-1.1c0.3-0.5,0.6-0.9,0.9-1.4c0.2-0.3,0.4-0.7,0.7-1c0.2-0.3,0.4-0.5,0.5-0.7h33.5c0.2,0.2,0.4,0.5,0.5,0.8
			c0.2,0.3,0.4,0.6,0.7,1c0.3,0.4,0.6,0.9,0.9,1.4c0.2,0.4,0.5,0.7,0.7,1.1c0.3,0.5,0.6,1,0.8,1.6c0.2,0.4,0.4,0.8,0.7,1.3
			c0.3,0.6,0.5,1.1,0.8,1.7c0.2,0.5,0.4,0.9,0.6,1.4c0.3,0.6,0.5,1.3,0.8,1.9c0.2,0.5,0.4,1,0.6,1.4c0.2,0.7,0.5,1.4,0.7,2.1
			c0.1,0.5,0.3,1,0.4,1.4c0.2,0.8,0.4,1.6,0.6,2.5c0.1,0.4,0.2,0.8,0.3,1.3c0.2,1.3,0.4,2.6,0.6,3.8c1.5,14.1,0.7,15.2-0.8,17.4
			c-0.2,0.3-0.4,0.6-0.6,0.9c-0.1,0.1-0.2,0.3-0.2,0.4c-0.1,0.2-0.2,0.3-0.3,0.5c0,0.1-0.1,0.1-0.1,0.2L213.8,163.3L213.8,163.3z
			 M230.4,98.9v-6.3c0-2.4,0.1-2.6,0.8-3.1c0.5-0.3,2.1-0.2,3.6-0.1c2.3,0.1,4.6,0.1,6.9,0c0.9-0.1,1.9-0.1,2.8-0.1
			c0.3,0,0.5,0.1,0.8,0.2c0.2,0.1,0.3,0.2,0.4,0.4c0.3,0.4,0.3,1,0.3,2.7v6.3c0,0.1,0,0.1,0,0.2v0.1v0.1h-15.7L230.4,98.9z
			 M226,114.6c3.3-2,5.3-4.8,5.7-7.5c0.2-1.3-0.2-2.7-1.1-3.7c0,0,0-0.1-0.1-0.1h15.3c0,0,0,0.1-0.1,0.1c-0.9,1-1.3,2.4-1.1,3.7
			c0.3,2.7,2.4,5.5,5.7,7.5c0.4,0.2,0.7,0.5,1,0.8h-26.4C225.3,115.1,225.6,114.9,226,114.6L226,114.6z M265,277.6
			c0.4,0.6,0.3,1.4-0.2,1.9c-0.4,0.6-0.5,1.4-0.1,2.1c0.5,0.9,0.4,2.8-0.7,4.7c-1.1,2-3.3,3.3-5.6,3.3c-6.2,0-18.5,1-20.2,1.2
			c-1.7-0.1-14-1.2-20.2-1.2c-2.3-0.1-4.4-1.3-5.6-3.3c-1.1-1.9-1.2-3.8-0.7-4.7c0.4-0.7,0.3-1.5-0.1-2.1c-0.5-0.5-0.6-1.3-0.2-1.9
			c0.4-0.8,0.6-1.6,0.6-2.5v-91.4c0-0.9-0.1-1.8-0.4-2.7c-0.1-0.4-0.3-0.9-0.4-1.6c-0.4-1.9-0.2-6.5,1.5-8.5c0.9-1,1.6-2.2,1.9-3.6
			h47.3c0.3,1.3,1,2.6,1.9,3.6c1.7,2,1.9,6.6,1.5,8.5c-0.1,0.7-0.3,1.2-0.4,1.6c-0.3,0.9-0.4,1.8-0.4,2.7v91.4
			C264.5,276,264.7,276.8,265,277.6z M194,275.2c0-0.1-0.1-0.2-0.1-0.3v-91.3c0-0.4,0.1-0.7,0.2-1c0.2-0.5,0.3-1.2,0.5-2
			c0.4-2.2,0.8-9.4-2.9-13.7c-0.2-0.2-0.4-0.4-0.5-0.7c0.2-0.4,0.5-0.8,0.7-1.2c2.9-4.2,3.4-7.1,1.9-21.6
			c-1.2-10.4-5.2-20.2-11.4-28.6c-1.5-2.1-3.4-4-5.6-5.4c-1.1-0.6-2-1.5-2.6-2.6c1-1.3,1.5-2.8,1.6-4.4c0-0.2,0-0.3,0-0.5l-0.4-3.3
			v-6c0-2.6,0-5.6-3.2-8.1c-2.4-1.8-5.2-1.6-7.9-1.4c-2,0.1-4,0.1-6,0c-2.7-0.2-5.5-0.4-7.9,1.4c-3.2,2.5-3.2,5.4-3.2,8.1v6
			l-0.4,3.3c0,0.2,0,0.3,0,0.5c0,1.6,0.6,3.1,1.6,4.4c-0.6,1.1-1.5,2-2.6,2.6c-2.2,1.5-4.1,3.3-5.6,5.4
			c-6.2,8.4-10.2,18.2-11.4,28.6c-1.5,14.5-1,17.5,1.9,21.6c0.3,0.4,0.5,0.8,0.7,1.2c-0.2,0.2-0.3,0.5-0.5,0.7
			c-3.7,4.4-3.3,11.6-2.8,13.7c0.2,0.9,0.4,1.5,0.5,2c0.1,0.3,0.2,0.7,0.2,1.1V275c0,0.1-0.1,0.2-0.1,0.3c-0.9,1.8-1,3.9-0.2,5.8
			c-0.5,2.9,0.1,5.9,1.7,8.5c2.3,3.9,6.5,6.4,11,6.4c6.3,0,19.7,1.1,19.8,1.2s0.2,0,0.4,0s0.3,0,0.4,0s13.6-1.2,19.8-1.2
			c4.5,0,8.7-2.5,11-6.4c1.6-2.5,2.2-5.5,1.7-8.5C195,279.1,194.9,277,194,275.2L194,275.2z M136.9,163.3c0-0.1-0.1-0.2-0.1-0.2
			l-0.1-0.2c-0.2-0.4-0.5-0.9-0.9-1.4l0,0c-1-1.4-1.7-2.4-1.6-6.8c0-2.4,0.3-5.7,0.8-10.6c0-0.2,0.1-0.4,0.1-0.6
			c0.1-1.1,0.3-2.2,0.5-3.2c0.1-0.5,0.2-1,0.3-1.4c0.2-0.8,0.3-1.5,0.5-2.3c0.1-0.5,0.3-1,0.5-1.5c0.2-0.7,0.4-1.4,0.7-2.1
			c0.2-0.5,0.4-1,0.5-1.4c0.2-0.6,0.5-1.3,0.8-1.9c0.2-0.5,0.4-0.9,0.6-1.4c0.3-0.6,0.5-1.2,0.8-1.8c0.2-0.4,0.4-0.8,0.7-1.2
			c0.3-0.5,0.6-1.1,0.9-1.6c0.2-0.4,0.4-0.8,0.7-1.1c0.3-0.5,0.6-0.9,0.9-1.4c0.2-0.3,0.5-0.7,0.7-1s0.4-0.5,0.5-0.7H178
			c0.2,0.2,0.4,0.5,0.5,0.8c0.2,0.3,0.4,0.6,0.7,1s0.6,0.9,0.9,1.4c0.2,0.4,0.5,0.7,0.7,1.1c0.3,0.5,0.6,1,0.8,1.6
			c0.2,0.4,0.4,0.8,0.7,1.3c0.3,0.6,0.5,1.1,0.8,1.7c0.2,0.5,0.4,0.9,0.6,1.4c0.3,0.6,0.5,1.3,0.8,1.9c0.2,0.5,0.4,1,0.6,1.4
			c0.2,0.7,0.5,1.4,0.7,2.1c0.1,0.5,0.3,1,0.4,1.4c0.2,0.8,0.4,1.6,0.6,2.5c0.1,0.4,0.2,0.8,0.3,1.3c0.2,1.3,0.4,2.6,0.6,3.8
			c1.5,14.1,0.7,15.2-0.8,17.4c-0.2,0.3-0.4,0.6-0.6,0.9c-0.1,0.1-0.2,0.3-0.2,0.4c-0.1,0.2-0.2,0.3-0.3,0.5c0,0.1-0.1,0.1-0.1,0.2
			L136.9,163.3L136.9,163.3z M153.4,98.9v-6.3c0-1.8,0-2.3,0.3-2.7c0.1-0.1,0.3-0.3,0.4-0.4c0.1,0,0.1-0.1,0.2-0.1
			c1.1-0.2,2.3-0.2,3.4-0.1c2.3,0.1,4.6,0.1,6.9,0c0.9-0.1,1.9-0.1,2.8-0.1c0.3,0,0.5,0.1,0.8,0.2c0.2,0.1,0.3,0.2,0.4,0.4
			c0.3,0.4,0.3,1,0.3,2.7v6.3c0,0.1,0,0.1,0,0.2v0.1v0.1h-15.7L153.4,98.9z M149,114.6c3.3-2,5.3-4.8,5.7-7.5
			c0.2-1.3-0.2-2.7-1.1-3.7c0,0,0-0.1-0.1-0.1h15.3c0,0,0,0.1-0.1,0.1c-0.9,1-1.3,2.4-1.1,3.7c0.3,2.7,2.4,5.5,5.7,7.5
			c0.4,0.2,0.7,0.5,1,0.8H148C148.3,115.1,148.7,114.9,149,114.6z M188.1,277.6c0.4,0.6,0.3,1.4-0.2,1.9c-0.4,0.6-0.5,1.4-0.1,2.1
			c0.5,0.9,0.4,2.8-0.7,4.7c-1.1,2-3.3,3.3-5.6,3.3c-6.2,0-18.5,1-20.2,1.2c-1.7-0.1-14-1.2-20.2-1.2c-2.3-0.1-4.4-1.3-5.6-3.3
			c-1.1-1.9-1.2-3.8-0.7-4.7c0.4-0.7,0.3-1.5-0.1-2.1c-0.5-0.5-0.6-1.3-0.2-1.9c0.4-0.8,0.6-1.6,0.6-2.5v-91.4
			c0-0.9-0.1-1.8-0.4-2.7c-0.1-0.4-0.2-0.9-0.4-1.6c-0.4-1.9-0.2-6.5,1.5-8.5c0.9-1,1.6-2.2,1.9-3.6H185c0.3,1.3,1,2.6,1.9,3.6
			c1.7,2,1.9,6.6,1.5,8.5c-0.1,0.7-0.3,1.2-0.4,1.6c-0.3,0.9-0.4,1.8-0.4,2.7v91.4C187.6,276,187.8,276.8,188.1,277.6z"/>
		<path id="シェイプ_3" class="st0" d="M500.8,174.6c-0.5,0-0.9-0.2-1.2-0.4l-7.9-6.5c-0.7-0.6-0.9-1.7-0.5-2.5l5.7-10.1
			c0.3-0.5,0.8-0.8,1.3-1c0.6-0.1,1.2,0,1.6,0.4l11.5,9.3c0.8,0.7,1,1.9,0.3,2.8c-0.1,0.1-0.2,0.2-0.3,0.3l-9.3,7.2
			C501.6,174.5,501.2,174.6,500.8,174.6z M495.4,165.7l5.4,4.4l6.1-4.7l-7.8-6.3L495.4,165.7z M544,189.1c-0.5,0-1-0.2-1.4-0.6
			l-7.1-7.1c-0.8-0.8-0.8-2,0-2.8c0.1-0.1,0.1-0.1,0.2-0.2l16.2-12.1c0.6-0.4,1.4-0.5,2.1-0.2l10.1,5.1c1,0.5,1.4,1.7,0.9,2.6
			c0,0.1-0.1,0.1-0.1,0.2l-8.1,12.1c-0.3,0.4-0.8,0.7-1.3,0.8l-11.1,2C544.2,189.1,544.1,189.1,544,189.1z M539.9,180.3l4.8,4.8
			l9.3-1.7l6.4-9.6l-7-3.5L539.9,180.3z M533.8,148.7h-8.1c-0.7,0-1.3-0.3-1.6-0.9l-6.1-9.1c-0.5-0.8-0.4-1.8,0.2-2.5l6.1-6.1
			c0.3-0.3,0.7-0.5,1.1-0.6l8.1-1c0.6-0.1,1.3,0.2,1.7,0.7l7.1,8.1c0.2,0.3,0.4,0.6,0.4,0.9l1,5.1c0.2,0.9-0.3,1.9-1.2,2.2l-8.1,3
			C534.3,148.6,534.1,148.7,533.8,148.7L533.8,148.7z M526.8,144.7h6.7l6.2-2.3l-0.6-2.9l-6-6.9l-6.4,0.8l-4.5,4.5L526.8,144.7z
			 M638.9,156.6c-0.1-0.4-0.3-0.8-0.6-1.1c0.9-1.7,1.2-3.7,0.8-5.6c-0.2-0.7-0.8-1.1-1.5-0.9c-0.6,0.2-1,0.8-0.9,1.4
			c0.3,1.5,0,3.1-0.8,4.4l-8.9-0.9c-0.9-0.1-1.7,0.4-2,1.2l-4.9,12.7c-0.2,0.1-0.3,0.2-0.4,0.2c-6.7,3.5-13.7,6.6-20.9,9.1
			c0.1-0.2,0.2-0.4,0.3-0.6l2.8-13.8c0.1-0.5,0-1.1-0.4-1.6l-8.3-11.1c-0.7-0.9-1.9-1-2.8-0.4c-0.2,0.2-0.4,0.4-0.6,0.7l-4.6,9.2
			c-0.2,0.3-0.2,0.7-0.2,1l0.9,12.9c0.1,0.8,0.6,1.5,1.4,1.7l9.1,2.7c-8.4,2.9-17,5.3-25.7,7.2c-19,4.2-37.2,6-51.5,5.2
			c-13.5-0.8-21.9-4-23-8.8c-0.1-0.7-0.8-1.1-1.5-0.9c-0.7,0.1-1.1,0.8-0.9,1.5c1.3,6,10.3,9.8,25.2,10.7c2.3,0.1,4.8,0.2,7.3,0.2
			c13.1,0,28.8-1.9,44.9-5.4c19-4.2,36.4-10.3,49.1-17.1l9,9.9c0.7,0.8,1.8,0.9,2.6,0.3l8.1-6.1c0.6-0.4,0.9-1.1,0.8-1.8
			L638.9,156.6z M589.8,171.9l-0.8-11l3-5.9l5.9,7.8l-2.2,10.9L589.8,171.9z M628.1,157.9l5.1,0.5c-2.3,2.3-4.9,4.4-7.7,6.2
			L628.1,157.9z M631.1,176.4l-7.1-7.9l0.1-0.2c4.1-2.3,7.9-5.2,11.2-8.6l1.5,12.4L631.1,176.4z M639.2,185
			c-0.2-0.7-0.8-1.1-1.5-0.9c-0.6,0.2-1,0.8-0.9,1.4c1,4.4-4.2,10.2-14.3,16.1l-1-2.2c-0.4-0.9-1.4-1.4-2.3-1.1l-9.1,2.5
			c-0.7,0.2-1.3,0.8-1.4,1.6l-1.1,6.6c-10.4,4.2-21.1,7.7-32,10.2l1.5-4.2c0.3-0.9,0-1.9-0.9-2.4l-11.6-6.6
			c-0.7-0.4-1.6-0.3-2.3,0.2l-6.6,5.8c-0.4,0.4-0.7,0.9-0.7,1.5v9.7c-13.2,2.1-25.5,2.9-35.8,2.2c-3.6-0.2-7.3-0.7-10.8-1.4l3.7-5.5
			c0.4-0.6,0.4-1.4,0.1-2.1l-6.1-10.1c-0.6-0.9-1.8-1.2-2.7-0.7l-0.1,0.1l-14.2,10.1c-0.6,0.4-0.9,1.2-0.8,1.9l2,11.1
			c0.2,0.9,0.9,1.5,1.7,1.6l10.1,1c0.1,0,0.1,0,0.2,0c0.7,0,1.3-0.3,1.6-0.9l3-4.4c4,0.9,8,1.5,12.1,1.7c2.3,0.1,4.8,0.2,7.3,0.2
			c10.1-0.1,20.1-1,30-2.6l6.8,5.3c0.6,0.5,1.4,0.5,2.1,0.2l6.6-3.3c0.5-0.2,0.8-0.6,1-1.1l1.7-4.7c11.1-2.5,21.9-5.9,32.5-10.1
			l-0.1,0.5c-0.1,0.9,0.3,1.8,1.2,2.1l11.6,5c0.2,0.1,0.5,0.2,0.8,0.2c0.1,0,0.1,0,0.2,0l9.1-0.8c0.9-0.1,1.6-0.8,1.8-1.6l0.8-5
			c0.1-0.7-0.2-1.5-0.8-1.9l-7.8-5.5l-0.3-0.8C634.9,197.3,640.4,190.6,639.2,185L639.2,185z M503.9,210.2l4.3,7.2l-3.7,5.6
			c-4.7-1.6-7.6-3.7-8.2-6.4c-0.1-0.3-0.2-0.5-0.5-0.7L503.9,210.2z M501.5,227.5l-7.5-0.7l-1.5-8.4l1.5-1.1c0.8,3.3,3.9,6,9.1,7.8
			L501.5,227.5z M559,222.5v-8.1l4.9-4.3l9,5.1l-1.8,5c-0.1,0-0.2,0-0.3,0.1c-3.9,0.9-7.8,1.6-11.7,2.3L559,222.5z M564.8,227
			l-3-2.3c2.8-0.5,5.6-1.1,8.4-1.7l-0.6,1.6L564.8,227z M612.4,204.2l6.3-1.7l0.4,1c-2.2,1.2-4.7,2.4-7.2,3.5L612.4,204.2z
			 M628.4,212.7L628,215l-7.1,0.6l-9.7-4.2l0.2-1.4c3.1-1.3,5.9-2.7,8.6-4.2l0.4,0.9c0.1,0.3,0.4,0.6,0.7,0.8L628.4,212.7z
			 M666.3,88.5c-1.9,0-3.5,1.6-3.5,3.5v34c-26.6,15-56.9,17.4-81.4,6.5c-4.9-2.4-9.3-5.2-13.6-7.8c-6.5-4-12.6-7.7-20.1-10.5
			c-25.4-8.4-51.5-5.7-75.9,8V92c-0.1-1.9-1.7-3.4-3.6-3.4c-1.8,0.1-3.3,1.5-3.4,3.4v198c0,1.9,1.6,3.5,3.5,3.5h198
			c1.9,0,3.5-1.6,3.5-3.5V92C669.8,90.1,668.2,88.5,666.3,88.5z M562.1,259.1h-22.5l-4-21.9l34.5,21.9H562.1L562.1,259.1z
			 M547.3,263l-22.6,9l13.9-9H547.3L547.3,263z M570.4,269.3h-6.3V263h6.3V269.3z M594.9,259.1h-17.5l-2.6-1.6l-4-2.5l28-17.7
			L594.9,259.1z M596,263l13.9,9l-22.7-9H596z M599.8,286.5l-11.7-16.4c-0.4-0.5-1-0.8-1.6-0.8h-12.2V263h2.2l50.3,19.9
			c1,0.4,2.1-0.1,2.5-1.1c0.3-0.9,0-1.9-0.8-2.4l-29.9-19.3l4.9-26.6c0.2-1.1-0.5-2.1-1.6-2.3c-0.5-0.1-1,0-1.4,0.3l-33.3,21.1
			l-33.3-21.1c-0.9-0.6-2.1-0.3-2.7,0.6c-0.3,0.4-0.4,0.9-0.3,1.4l4.9,26.6l-29.9,19.3c-0.9,0.6-1.2,1.8-0.6,2.7
			c0.5,0.8,1.5,1.1,2.4,0.8L558,263h2.2v6.3H548c-0.6,0-1.2,0.3-1.6,0.8l-11.7,16.4h-62.9V126.7c24-14.1,49.7-17.1,74.6-8.8
			c7,2.6,13,6.3,19.3,10.2c4.4,2.7,8.9,5.5,14,8c10.9,4.8,22.6,7.2,34.5,7.1c17-0.2,33.7-4.5,48.6-12.7v156.1L599.8,286.5
			L599.8,286.5z"/>
		<path id="シェイプ_8" class="st0" d="M393.3,190H393c-1.4,0-2.5-1.2-2.5-2.6c0-1.4,1.1-2.4,2.5-2.5h0.3c1.4,0,2.5,1.2,2.5,2.6
			C395.8,188.9,394.7,190,393.3,190z M379.6,190h-0.3c-1.4,0-2.5-1.2-2.5-2.6c0-1.4,1.1-2.4,2.5-2.5h0.3c1.4,0,2.5,1.2,2.5,2.6
			C382,188.9,381,190,379.6,190z M365.9,190h-0.3c-1.4,0-2.5-1.2-2.5-2.6c0-1.4,1.1-2.4,2.5-2.5h0.3c1.4,0,2.5,1.2,2.5,2.6
			C368.3,188.9,367.2,190,365.9,190L365.9,190z M352.1,190h-0.3c-1.4,0-2.5-1.2-2.5-2.6c0-1.4,1.1-2.4,2.5-2.5h0.3
			c1.4,0.2,2.3,1.6,2,3C354,189,353.1,189.8,352.1,190L352.1,190z M338.4,190H338c-1.4,0-2.5-1.2-2.5-2.6c0-1.4,1.1-2.4,2.5-2.5h0.3
			c1.4,0,2.5,1.2,2.5,2.6C340.8,188.9,339.7,190,338.4,190L338.4,190z M324.6,190h-0.3c-1.4,0-2.5-1.2-2.5-2.6
			c0-1.4,1.1-2.4,2.5-2.5h0.3c1.4,0.2,2.3,1.6,2,3C326.5,189,325.6,189.8,324.6,190L324.6,190z M402,175v25l16.8-12.5L402,175z"/>
		<path id="シェイプ_8-2" class="st0" d="M555.7,411.6v-0.3c0-1.4,1.2-2.5,2.6-2.5c1.4,0,2.4,1.1,2.5,2.5v0.3
			c0,1.4-1.2,2.5-2.6,2.5C556.9,414.1,555.8,413,555.7,411.6z M555.7,397.9v-0.3c0-1.4,1.2-2.5,2.6-2.5c1.4,0,2.4,1.1,2.5,2.5v0.3
			c0,1.4-1.2,2.5-2.6,2.5C556.9,400.3,555.8,399.2,555.7,397.9z M555.7,384.1v-0.3c0-1.4,1.2-2.5,2.6-2.5c1.4,0,2.4,1.1,2.5,2.5v0.3
			c0,1.4-1.2,2.5-2.6,2.5C556.9,386.6,555.8,385.5,555.7,384.1z M555.7,370.4V370c0-1.4,1.2-2.5,2.6-2.5c1.4,0,2.4,1.1,2.5,2.5v0.3
			c0,1.4-1.2,2.5-2.6,2.5C556.9,372.8,555.8,371.7,555.7,370.4z M555.7,356.6v-0.3c0-1.4,1.2-2.5,2.6-2.5c1.4,0,2.4,1.1,2.5,2.5v0.3
			c0,1.4-1.2,2.5-2.6,2.5C556.9,359.1,555.8,358,555.7,356.6L555.7,356.6z M555.7,342.9v-0.3c0-1.4,1.2-2.5,2.6-2.5
			c1.4,0,2.4,1.1,2.5,2.5v0.3c0,1.4-1.2,2.5-2.6,2.5C556.9,345.3,555.8,344.2,555.7,342.9L555.7,342.9z M570.8,420.2h-25l12.5,16.8
			L570.8,420.2z"/>
		<path id="シェイプ_8-3" class="st0" d="M316.9,709h0.3c1.4,0,2.5,1.2,2.4,2.5c0,1.3-1.1,2.4-2.4,2.4h-0.3
			c-1.4,0-2.5-1.2-2.4-2.5C314.5,710.1,315.5,709,316.9,709z M330.5,709h0.3c1.4,0,2.5,1.2,2.4,2.5c0,1.3-1.1,2.4-2.4,2.4h-0.3
			c-1.4,0-2.5-1.2-2.4-2.5C328.1,710.1,329.1,709,330.5,709z M344.1,709h0.3c1.4,0,2.5,1.2,2.4,2.5c0,1.3-1.1,2.4-2.4,2.4h-0.3
			c-1.3,0-2.3-1.2-2.3-2.5S342.8,709.2,344.1,709L344.1,709z M357.7,709h0.3c1.4,0,2.5,1.2,2.4,2.5c0,1.3-1.1,2.4-2.4,2.4h-0.3
			c-1.3,0-2.3-1.2-2.3-2.5S356.4,709.2,357.7,709L357.7,709z M371.3,709h0.3c1.4,0,2.5,1.2,2.4,2.5c0,1.3-1.1,2.4-2.4,2.4h-0.3
			c-1.4,0-2.5-1.2-2.4-2.5C368.9,710.1,370,709,371.3,709L371.3,709z M384.9,709h0.3c1.4,0,2.5,1.2,2.4,2.5c0,1.3-1.1,2.4-2.4,2.4
			h-0.3c-1.4,0-2.5-1.1-2.5-2.5C382.4,710.1,383.5,709,384.9,709L384.9,709z M308.3,723.9v-24.8l-16.6,12.4L308.3,723.9z"/>
		<path id="シェイプ_8-4" class="st0" d="M192.3,940.4l-0.2-0.3c-0.7-1.2-0.2-2.7,1-3.4s2.7-0.2,3.4,1l0.2,0.3
			c0.7,1.2,0.2,2.7-1,3.4C194.5,942,193,941.6,192.3,940.4z M185.7,928.5l-0.2-0.3c-0.6-1.2-0.2-2.7,1-3.4c1.2-0.6,2.7-0.2,3.3,1
			l0.2,0.3c0.6,1.2,0.2,2.7-1,3.4C187.9,930.1,186.4,929.7,185.7,928.5L185.7,928.5z M179.1,916.6l-0.2-0.3c-0.7-1.2-0.2-2.7,1-3.4
			s2.7-0.2,3.4,1l0.2,0.3c0.7,1.2,0.2,2.7-1,3.4C181.3,918.2,179.8,917.8,179.1,916.6z M172.5,904.7l-0.2-0.3
			c-0.6-1.2-0.2-2.7,1-3.4c1.2-0.6,2.7-0.2,3.3,1l0.2,0.3c0.6,1.2,0.2,2.7-1,3.4C174.7,906.3,173.2,905.9,172.5,904.7L172.5,904.7z
			 M165.9,892.8l-0.2-0.3c-0.6-1.2-0.2-2.7,1-3.4c1.2-0.6,2.7-0.2,3.3,1l0.2,0.3c0.7,1.2,0.2,2.7-1,3.4
			C168.1,894.4,166.6,894,165.9,892.8L165.9,892.8L165.9,892.8z M159.3,880.9l-0.2-0.3c-0.7-1.2-0.2-2.7,1-3.4
			c1.2-0.6,2.7-0.2,3.3,1l0.2,0.3c0.6,1.2,0.2,2.7-1,3.4C161.4,882.5,160,882.1,159.3,880.9L159.3,880.9z M209.5,940.6l-21.6,12
			l18.9,8.5L209.5,940.6z"/>
	</g>
	<path id="シェイプ_7" class="st0" d="M337.5,620.8c-20.7,1.1-41,6.8-59.3,16.6c-1,0.5-1.9,1-2.9,1.6c-3.9,2.3-8,4.2-12.2,5.7
		c-5.8,1.8-11.5,1.4-15.5-1.1c-1.6-1-2.9-2.3-3.9-3.9c5.9-4.4,14-12.3,14.7-18.2c0.3-1.7-0.3-3.3-1.4-4.6c-0.1-0.1-0.1-0.1-0.2-0.2
		c-2-1.3-4.5-1.5-6.7-0.7c-4.3,1.5-8.7,6.2-10.4,11.1c-1.2,3.9-0.9,8.1,0.8,11.8c-2,1.4-4,2.8-6.1,4.2c-13.3,9.1-27,18.5-41.4,24.4
		l-5-48.7c-0.2-3.8-3.9-6.3-11.7-7.9L176,611l-3.4-8.3c-0.3-1.5-1.1-6-18.9-6s-18.6,4.5-18.9,6.1l-3.4,8.2l-0.3,0.1
		c-7.8,1.5-11.5,4-11.7,7.9l-17.7,171.8v0.4c0,2.6,1,6.4,6,10.1l0.2,0.2v7.7c0,7.7,16.7,12.2,45.8,12.2s45.8-4.4,45.8-12.2v-7.7
		l0.2-0.2c4.9-3.7,6-7.5,6-10.1v-0.4l-12.4-120.6c14.9-5.9,28.9-15.5,42.6-24.9c2-1.4,3.9-2.7,5.9-4c1.2,1.8,2.8,3.4,4.6,4.5
		c4.6,2.8,11,3.3,17.5,1.3c4.4-1.5,8.7-3.5,12.7-5.9c0.9-0.5,1.9-1.1,2.8-1.6c18-9.7,37.8-15.3,58.2-16.3c0.7,0,1.2-0.6,1.2-1.3l0,0
		C338.7,621.3,338.2,620.8,337.5,620.8L337.5,620.8z M153.7,603c3.4,0,6.8,0.2,10.1,0.8c-0.1,0-0.1,0-0.2,0
		c-0.4,0.1-0.9,0.2-1.5,0.2c-0.2,0-0.4,0.1-0.6,0.1c-0.5,0.1-0.9,0.1-1.5,0.2c-0.3,0-0.5,0-0.8,0.1c-0.6,0-1.1,0.1-1.7,0.1
		c-0.3,0-0.5,0-0.8,0c-0.9,0-1.9,0.1-2.9,0.1l0,0c-1,0-2,0-2.9-0.1c-0.3,0-0.6,0-0.9,0c-0.6,0-1.2-0.1-1.7-0.1c-0.3,0-0.6,0-0.8-0.1
		c-0.5,0-1-0.1-1.4-0.2c-0.2,0-0.5-0.1-0.7-0.1c-0.5-0.1-1-0.2-1.5-0.2c-0.1,0-0.2,0-0.2,0C147,603.2,150.3,603,153.7,603L153.7,603
		z M140,606.8c0.1,0,0.1,0,0.2,0.1c0.3,0.1,0.6,0.2,1,0.3c0.1,0,0.2,0.1,0.3,0.1c0.4,0.1,0.9,0.2,1.4,0.3c0.1,0,0.2,0,0.3,0.1
		c0.4,0.1,0.8,0.1,1.2,0.2c0.2,0,0.3,0,0.5,0.1c0.4,0.1,0.8,0.1,1.2,0.2c0.1,0,0.3,0,0.4,0c0.6,0.1,1.1,0.1,1.7,0.1h0.2
		c0.5,0,1,0.1,1.5,0.1h0.5c0.4,0,0.9,0,1.3,0h0.5c0.6,0,1.1,0,1.7,0l0,0c0.6,0,1.1,0,1.7,0h0.5c0.4,0,0.8,0,1.2,0c0.2,0,0.4,0,0.5,0
		c0.5,0,1,0,1.4-0.1h0.3c0.6,0,1.1-0.1,1.7-0.1c0.1,0,0.3,0,0.4,0c0.4,0,0.8-0.1,1.2-0.2c0.2,0,0.3,0,0.5-0.1
		c0.4-0.1,0.8-0.1,1.2-0.2c0.1,0,0.2,0,0.3-0.1c0.5-0.1,0.9-0.2,1.4-0.3c0.1,0,0.2-0.1,0.3-0.1c0.3-0.1,0.7-0.2,1-0.3
		c0.1,0,0.1,0,0.2-0.1l3,7.2c-0.3,0.1-0.7,0.3-1,0.4c-0.1,0-0.2,0-0.3,0.1c-0.3,0.1-0.7,0.2-1.1,0.3c-0.2,0-0.4,0.1-0.5,0.1
		c-0.4,0.1-0.8,0.2-1.3,0.2c-0.2,0-0.5,0.1-0.8,0.1c-0.5,0.1-0.9,0.1-1.5,0.2c-0.3,0-0.6,0.1-0.9,0.1c-0.5,0.1-1.1,0.1-1.7,0.2
		c-0.3,0-0.7,0.1-1.1,0.1c-0.7,0-1.4,0.1-2.1,0.1c-0.3,0-0.7,0-1,0c-1.1,0-2.3,0.1-3.5,0.1l0,0c-1.2,0-2.4,0-3.5-0.1
		c-0.4,0-0.8,0-1.2-0.1c-0.7,0-1.3-0.1-1.9-0.1c-0.5,0-0.9-0.1-1.4-0.1s-0.9-0.1-1.3-0.1c-0.5-0.1-1.1-0.1-1.6-0.2
		c-0.2,0-0.4-0.1-0.6-0.1c-1.8-0.2-3.7-0.6-5.4-1.3L140,606.8z M134.2,616.9c1,0.6,2.1,1.1,3.3,1.4c4.6,1.3,11.3,1.6,15.4,1.7
		c0.3,0,0.6,0,0.8,0l0,0c0.2,0,0.5,0,0.8,0c4.1,0,10.9-0.3,15.4-1.7c1.2-0.3,2.3-0.8,3.3-1.4c5.2,0.9,7.3,1.8,8.1,2.3
		c-0.1,0-0.2,0.1-0.2,0.1c-0.2,0.1-0.5,0.3-0.8,0.4c-0.1,0-0.1,0.1-0.2,0.1c-0.1,0.1-0.3,0.1-0.5,0.2c-0.1,0-0.3,0.1-0.4,0.1
		c-0.2,0.1-0.4,0.1-0.5,0.2s-0.3,0.1-0.5,0.2s-0.4,0.1-0.6,0.2s-0.4,0.1-0.6,0.2s-0.5,0.1-0.7,0.2s-0.5,0.1-0.7,0.2
		s-0.5,0.1-0.8,0.2s-0.5,0.1-0.8,0.1s-0.6,0.1-0.9,0.1s-0.6,0.1-0.9,0.1s-0.6,0.1-0.9,0.1s-0.7,0.1-1,0.1s-0.7,0.1-1,0.1
		c-0.4,0-0.7,0.1-1.1,0.1c-0.3,0-0.7,0.1-1.1,0.1c-0.4,0-0.8,0.1-1.2,0.1s-0.7,0.1-1.1,0.1c-0.4,0-0.9,0.1-1.4,0.1
		c-0.4,0-0.7,0-1.1,0.1c-0.5,0-1,0.1-1.6,0.1c-0.4,0-0.7,0-1.1,0.1c-0.6,0-1.2,0-1.9,0.1c-0.3,0-0.6,0-1,0c-1,0-2,0-3,0l0,0
		c-1,0-2,0-3,0c-0.3,0-0.6,0-0.9,0c-0.6,0-1.3,0-1.9-0.1c-0.4,0-0.7,0-1.1,0c-0.5,0-1.1,0-1.6-0.1c-0.4,0-0.7,0-1.1-0.1
		c-0.5,0-1-0.1-1.4-0.1s-0.7-0.1-1.1-0.1c-0.4,0-0.8-0.1-1.3-0.1c-0.4,0-0.7-0.1-1-0.1c-0.4,0-0.8-0.1-1.1-0.1s-0.7-0.1-1-0.1
		s-0.7-0.1-1-0.1s-0.6-0.1-0.9-0.1c-0.3,0-0.6-0.1-0.9-0.1c-0.3,0-0.6-0.1-0.8-0.1s-0.5-0.1-0.8-0.2s-0.5-0.1-0.8-0.2
		s-0.5-0.1-0.7-0.2c-0.2-0.1-0.5-0.1-0.7-0.2c-0.2,0-0.4-0.1-0.6-0.2c-0.2-0.1-0.4-0.1-0.6-0.2c-0.2,0-0.3-0.1-0.5-0.1
		c-0.2-0.1-0.4-0.1-0.6-0.2c-0.1,0-0.2-0.1-0.4-0.1c-0.5-0.2-1-0.4-1.5-0.7c-0.1,0-0.1-0.1-0.2-0.1
		C127,618.7,129.1,617.8,134.2,616.9z M125.4,623.1c0.1,0,0.2,0.1,0.2,0.1c0.3,0.1,0.6,0.2,0.9,0.4c0.2,0.1,0.3,0.1,0.5,0.2
		c0.5,0.2,0.9,0.3,1.4,0.5c0.2,0.1,0.5,0.1,0.7,0.2c0.3,0.1,0.6,0.2,0.9,0.2c0.3,0.1,0.6,0.1,0.9,0.2c0.3,0.1,0.6,0.1,0.9,0.2
		c0.3,0.1,0.6,0.1,0.9,0.2h0.1c-2.6,0.7-5.2,1.3-7.9,1.9L125.4,623.1z M124.7,629.7c5-1.1,9.8-2.3,14.4-3.6h0.2
		c0.7,0.1,1.4,0.1,2,0.2h0.4c0.6,0.1,1.2,0.1,1.9,0.1h0.4c0.6,0,1.2,0.1,1.7,0.1h0.4c0.6,0,1.1,0,1.6,0.1h0.4c0.5,0,1,0,1.4,0h0.4
		c0.4,0,0.8,0,1.2,0h0.3c0.4,0,0.8,0,1.1,0h0.2c0.4,0,0.7,0,1,0l0,0c0.3,0,0.7,0,1.1,0h0.2c0.4,0,0.8,0,1.2,0h0.2
		c-10.5,4.1-21.3,7.4-32.4,9.7L124.7,629.7z M123.7,639.1c13.6-2.9,26.9-7.1,39.7-12.6h0.6l0.8-0.1c0.4,0,0.8-0.1,1.2-0.1
		c0.3,0,0.6,0,0.9-0.1c0.4,0,0.8-0.1,1.2-0.1c0.3,0,0.5-0.1,0.8-0.1c0.5-0.1,1-0.1,1.6-0.2c0.2,0,0.4,0,0.5-0.1
		c0.6-0.1,1.3-0.2,1.9-0.3c0.3,0,0.5-0.1,0.7-0.1c0.4-0.1,0.8-0.1,1.2-0.2c0.3-0.1,0.5-0.1,0.8-0.2c0.4-0.1,0.7-0.1,1-0.2
		c0.3-0.1,0.5-0.1,0.8-0.2c0.3-0.1,0.6-0.2,1-0.2c0.3-0.1,0.5-0.1,0.8-0.2c0.3-0.1,0.6-0.2,0.9-0.3c0.2-0.1,0.5-0.2,0.7-0.2
		c0.3-0.1,0.5-0.2,0.8-0.3c0.2-0.1,0.3-0.1,0.5-0.2l0.1,0.6c-18.5,10.3-38.4,17.8-59.1,22.2L123.7,639.1z M122.8,648.5
		c20.9-4.3,41-11.8,59.7-22.1l0.6,6c-19,10.8-39.6,18.5-61,22.9L122.8,648.5z M121.8,657.8c21.6-4.3,42.3-12,61.5-22.8l0.6,6.1
		c-19.5,11.2-40.8,19.1-62.8,23.6L121.8,657.8z M120.8,667.2c22.2-4.4,43.6-12.3,63.4-23.5l0.6,6c-20.1,11.6-41.9,19.8-64.7,24.3
		L120.8,667.2z M119.9,676.6c22.9-4.4,45-12.6,65.2-24.2l0.6,6c-20.6,12.1-43.1,20.5-66.6,25L119.9,676.6z M118.9,685.9
		c23.6-4.4,46.3-12.8,67.1-24.8l0.6,6c-21.1,12.5-44.3,21.2-68.4,25.7L118.9,685.9z M117.9,695.3c24.3-4.4,47.6-13.1,69-25.6l0.6,6
		c-21.6,13-45.4,21.9-70.3,26.4L117.9,695.3z M117,704.7c25-4.4,49-13.3,70.8-26.3l0.6,6c-22.2,13.4-46.6,22.6-72.1,27.1L117,704.7z
		 M116,714c25.7-4.4,50.3-13.6,72.7-26.9l0.6,6c-22.7,13.9-47.8,23.3-74,27.8L116,714z M115.1,723.3c26.4-4.4,51.6-13.8,74.5-27.6
		l0.6,5.9c-23.2,14.4-48.9,24-75.8,28.5L115.1,723.3z M114.1,732.7c27.1-4.4,53-14,76.4-28.3l0.6,5.9
		c-23.7,14.8-50.1,24.8-77.7,29.2L114.1,732.7z M113.1,742c27.7-4.4,54.3-14.2,78.2-29l0.6,5.9c-24.2,15.3-51.2,25.5-79.5,29.9
		L113.1,742z M112.2,751.3c28.4-4.4,55.7-14.5,80.1-29.7l0.6,5.9c-24.7,15.8-52.4,26.3-81.4,30.6L112.2,751.3z M153.7,815
		c-24.5,0-38.5-3.8-39.5-5.9v-6.8c9.6,4.5,24.8,6.8,39.5,6.8s29.8-2.4,39.5-6.9v6.8C192.3,811.2,178.2,815,153.7,815z M199.4,791.2
		c0,2-1.8,4.1-5,6.1c-0.1,0-0.1,0.1-0.2,0.1c-3.6,2.1-8.9,4-15.5,5.4c7.1-3.7,14-7.9,20.6-12.4L199.4,791.2z M199,787.6
		c-9,6.3-18.5,11.8-28.4,16.6c-5.6,0.7-11.2,1.1-16.9,1c-0.4,0-0.7,0-1.1,0c16.1-5.9,31.5-13.8,45.8-23.4L199,787.6z M198.2,779
		c-16.1,11.1-33.7,19.8-52.2,25.9c-5.5-0.3-10.9-1-16.3-2c24.2-5.9,47.2-15.9,67.9-29.8L198.2,779z M197.3,770.5
		c-22.1,15-46.9,25.6-73,31.3c-4-1-7.8-2.5-11.4-4.6c30-4.7,58.5-15.8,83.8-32.5L197.3,770.5z M196.4,761.9
		c-25.9,17.4-55.4,28.7-86.3,33.2c-1.2-1-1.9-2.3-2-3.8l0.3-2.7c31.2-4.2,61.1-15.3,87.5-32.5L196.4,761.9z M195.5,753.3
		c-26.1,17.3-55.8,28.5-86.9,32.8l0.7-6.8c30.5-4.2,59.7-15.1,85.6-31.8L195.5,753.3z M194.6,744.7c-25.6,16.8-54.7,27.8-85.1,32.1
		l0.7-6.8c29.8-4.3,58.4-14.9,83.8-31.1L194.6,744.7z M193.7,736.1c-25.2,16.3-53.6,27-83.2,31.4l0.7-6.8
		c29.1-4.3,57-14.7,81.9-30.5L193.7,736.1z M242,628c1.4-4.1,5.3-8.3,8.9-9.6c0.6-0.2,1.3-0.4,2-0.4c0.9,0,1.7,0.2,2.4,0.7
		c0.6,0.7,0.8,1.6,0.7,2.5c-0.5,4.4-7,11.5-13.5,16.3C241.2,634.6,241,631.2,242,628L242,628z"/>
	<path id="シェイプ_1" class="st0" d="M480.4,1140.6c-0.5-1-13.5-24.8-24.7-37.2c-13.3-14.5-24-26-31.1-30
		c-6.7-3.9-18.9-5.9-21.7-6.4l-16.7-9.8c-0.5-0.3-1-0.4-1.5-0.4H337c-0.6,0-1.2,0.2-1.6,0.5l-13.7,8.8c-3.5,0.8-18.7,4.3-23.7,7.3
		c-0.2,0.1-0.4,0.2-0.5,0.4l-2.5,2.3c-16.1,15.1-34.2,32.1-52.7,63.3c-0.7,1.3-0.5,2.9,0.6,3.8c10.8,9.5,22,18.4,33.7,26.6
		c1.3,0.9,3,0.7,4-0.6l10.8-12.9V1280c0,1.7,1.4,3,3,3.1h133.7c1.7,0,3-1.4,3-3.1v-123l10.9,12.3c1,1.2,2.8,1.4,4.1,0.4l33.4-25.4
		C480.7,1143.6,481.1,1141.9,480.4,1140.6z M355.2,1091.9l6.1-4.3l7.1,4.7v37.5h-13.2v-37.6C355.2,1092.2,355.2,1092.1,355.2,1091.9
		z M361.3,1082.3l-18.5-19.4h37.9L361.3,1082.3z M364.4,1084.9l21-21l12.4,7.3l-15.9,25.4L364.4,1084.9z M337.4,1063.1l0.1,0.1
		l20.6,21.7l-16.6,11.7l-16.4-25.5L337.4,1063.1z M444.7,1163.3l-14.3-16.2c-0.3-0.4-0.8-0.7-1.3-0.8v-22.5c0-1.1-0.9-2-2-2
		s-2,0.9-2,2l0,0v153.4H297.5v-153.4c0-1.1-0.9-2-2-2.1c-1.1,0-2,0.9-2.1,2v0.1v21.5c-0.5,0.2-1,0.5-1.3,0.9l-14.4,17.2
		c-4.8-3.4-16.5-12.1-29-22.9c17.6-29.1,35-45.4,50.3-59.8l2.2-2.1c3.6-2,14.2-4.7,20-6.1l18,28.1c0.3,0.5,0.8,0.8,1.3,0.9
		s1.1,0,1.6-0.3l9-6.3v37.1c0,1.1,0.9,2,2,2l0,0h17.2c1.1,0,2-0.9,2-2l0,0v-36.8l9,6c0.3,0.2,0.7,0.3,1.1,0.3c0.1,0,0.3,0,0.4,0
		c0.5-0.1,1-0.4,1.3-0.9l17.2-27.4v-0.1c1.5,0.2,13.9,2.2,20,5.7c6.9,3.9,19.5,17.8,29.6,28.9c8.8,9.6,19.1,27.4,22.6,33.7
		L444.7,1163.3z"/>
</g>
<g>
	<path class="st0" d="M107.3,33.3c1.5-0.1,3-0.2,4.4-0.4l0.2,1.9c-4,0.7-8.3,0.8-11.5,0.8l-0.3-2.1c1.4,0,2.9,0,4.6,0v-1.6
		c-2-0.4-3.3-1.6-3.3-3.3c0-2.1,1.9-3.5,4.6-3.5s4.6,1.4,4.6,3.5c0,1.7-1.3,2.9-3.2,3.3L107.3,33.3L107.3,33.3z M111.5,24.3h-11.1
		v-2.1h4.2v-2h2.6v2h4.2v2.1H111.5z M106,30c1.2,0,2.1-0.5,2.1-1.5S107.3,27,106,27c-1.2,0-2.1,0.5-2.1,1.5S104.7,30,106,30z
		 M115.3,20.2v18.4h-2.6V20.2H115.3z"/>
	<path class="st0" d="M134.2,32.4h-7.1v6.3h-2.6v-6.3h-6.9v-2.1h16.6V32.4z M132.6,28.9c-3.2-0.5-5.5-2-6.7-4c-1.2,2-3.5,3.5-6.7,4
		l-1-2.1c4.2-0.6,6.3-3,6.3-5.1v-0.9h2.8v0.9c0,2.1,2.1,4.5,6.3,5.1L132.6,28.9z"/>
	<path class="st0" d="M146,24.2h-10.8v-2.1h4.1v-2h2.7v2h4.1L146,24.2z M140.6,32c-2.6,0-4.5-1.4-4.5-3.6c0-2.1,1.9-3.5,4.5-3.5
		s4.5,1.5,4.5,3.5C145.1,30.5,143.2,32,140.6,32z M140.4,36.2h9.9v2.1h-12.5V33h2.6V36.2z M140.6,30c1.2,0,2-0.5,2-1.6
		c0-1-0.8-1.5-2-1.5s-2,0.5-2,1.5S139.4,30,140.6,30z M152.1,25.8V28h-2.4v6H147V20.2h2.6v5.6C149.6,25.8,152.1,25.8,152.1,25.8z"/>
	<path class="st0" d="M163.8,32c0.5-0.1,1-0.1,1.4-0.2l0.2,1.9c-2.9,0.6-6.6,0.7-8.9,0.7l-0.3-2.1c0.4,0,0.9,0,1.4,0v-7.9h-1.1v-2.1
		h8.4v2.1h-1.2V32H163.8z M160.1,32.3c0.4,0,0.9,0,1.4-0.1v-7.8h-1.4V32.3z M166.3,20.6h2.5v17.2h-2.5v-8.6h-1.8v-2.3h1.8V20.6z
		 M172.5,20.2v18.4H170V20.2H172.5z"/>
	<path class="st0" d="M190.8,34.4v2.1h-16.7v-2.1H190.8z M189,31.8h-12.9V21.6h12.8v2.1h-10.1v1.9h9.7v2h-9.7v2.1H189V31.8z"/>
	<path class="st0" d="M201.2,30.2h-8.7v-8.9h2.6v2.5h3.5v-2.5h2.6v1.6h3.3v-2.7h2.6v11h-2.6v-2.4h-3.3L201.2,30.2L201.2,30.2z
		 M207.2,35.1c0,2.2-2.4,3.6-6.3,3.6c-3.9,0-6.3-1.3-6.3-3.6c0-2.2,2.4-3.5,6.3-3.5C204.8,31.6,207.2,32.9,207.2,35.1z M198.6,25.8
		h-3.5v2.3h3.5V25.8z M204.5,35.1c0-1-1.3-1.5-3.7-1.5s-3.7,0.5-3.7,1.5s1.3,1.5,3.7,1.5C203.3,36.6,204.5,36.1,204.5,35.1z
		 M201.2,25v1.7h3.3V25H201.2z"/>
	<path class="st0" d="M225.9,27.6v2.1h-16.6v-2.1H225.9z M211,23.6c0-2,2.5-3.1,6.7-3.1s6.7,1.1,6.7,3.1s-2.5,3.1-6.7,3.1
		C213.4,26.8,211,25.7,211,23.6z M213.8,36.5h10.6v2h-13.2v-4.8h10.1v-1h-10.1v-1.9h12.7v4.7h-10.1V36.5z M213.7,23.6
		c0,0.9,1.3,1.2,3.9,1.2c2.7,0,3.9-0.4,3.9-1.2c0-0.8-1.3-1.2-3.9-1.2S213.7,22.8,213.7,23.6z"/>
</g>
<g>
	<path class="st0" d="M116.6,343.3l1.4-1.9c0.8,0.8,1.9,1.5,3.3,1.5c1.5,0,2.6-1,2.6-2.7s-1-2.7-2.5-2.7c-0.9,0-1.4,0.2-2.2,0.8
		l-1.3-0.9l0.4-7.2h7.9v2.5h-5.4l-0.3,3.1c0.6-0.3,1.1-0.4,1.8-0.4c2.5,0,4.6,1.5,4.6,4.7c0,3.3-2.4,5.2-5.2,5.2
		C119.3,345.3,117.7,344.4,116.6,343.3z"/>
	<path class="st0" d="M127.9,337.6c0-5.1,2-7.6,5-7.6s5,2.5,5,7.6s-2,7.7-5,7.7C129.9,345.3,127.9,342.7,127.9,337.6z M135.2,337.6
		c0-4.1-1-5.3-2.2-5.3c-1.3,0-2.2,1.2-2.2,5.3c0,4.2,1,5.4,2.2,5.4S135.2,341.7,135.2,337.6z"/>
	<path class="st0" d="M138.9,337.6c0-5.1,2-7.6,5-7.6s5,2.5,5,7.6s-2,7.7-5,7.7C140.9,345.3,138.9,342.7,138.9,337.6z M146.2,337.6
		c0-4.1-1-5.3-2.2-5.3c-1.3,0-2.2,1.2-2.2,5.3c0,4.2,1,5.4,2.2,5.4S146.2,341.7,146.2,337.6z"/>
	<path class="st0" d="M150.6,333.8h2.4l0.2,1.5h0.1c0.9-1,2-1.8,3.4-1.8c1.6,0,2.5,0.7,3.1,2c1-1.1,2.1-2,3.6-2
		c2.4,0,3.5,1.7,3.5,4.5v7H164v-6.6c0-1.7-0.5-2.3-1.6-2.3c-0.6,0-1.4,0.4-2.2,1.3v7.7h-2.9v-6.6c0-1.7-0.5-2.3-1.6-2.3
		c-0.6,0-1.4,0.4-2.2,1.3v7.7h-2.9L150.6,333.8L150.6,333.8z"/>
	<path class="st0" d="M169.1,341.9v-12.8h2.9v13c0,0.7,0.3,0.9,0.6,0.9c0.1,0,0.2,0,0.4,0l0.4,2.2c-0.3,0.1-0.8,0.3-1.5,0.3
		C169.8,345.3,169.1,344,169.1,341.9z"/>
	<path class="st0" d="M189,340.1c-3.8,0.7-8.2,0.8-11.3,0.8l-0.3-2c1.3,0,2.8,0,4.4-0.1v-1.1c-2-0.3-3.2-1.3-3.2-2.7
		c0-1.8,1.8-2.9,4.5-2.9s4.5,1.1,4.5,2.9c0,1.4-1.2,2.4-3.2,2.7v0.9c1.5-0.1,3-0.2,4.4-0.4L189,340.1z M188.3,331.7h-10.5v-1.9h3.9
		v-1.6h2.6v1.6h3.9v1.9H188.3z M182.6,344.4h10.2v2.1h-12.9v-4.6h2.6L182.6,344.4L182.6,344.4z M183.1,336.1c1.2,0,2-0.4,2-1.1
		s-0.7-1.1-2-1.1s-2,0.4-2,1.1C181.1,335.8,181.8,336.1,183.1,336.1z M194.5,334.4v2.2h-2.3v6.2h-2.6v-14.4h2.6v6L194.5,334.4
		L194.5,334.4z"/>
	<path class="st0" d="M204.9,339.1c-2-0.7-3.4-2-4.2-3.6c-0.8,1.8-2.3,3.3-4.4,4l-1.4-2.1c3.1-1,4.4-3.5,4.4-6v-2h2.7v2
		c0,2.3,1.2,4.7,4.2,5.6L204.9,339.1z M200.5,344.4h9.9v2.1h-12.5v-5.9h2.6V344.4z M212.2,333.7v2.2h-2.4v6h-2.6v-13.5h2.6v5.3
		H212.2z"/>
</g>
<g>
	<path class="st0" d="M119.4,535.6c-2.1-0.6-3.5-1.9-4.3-3.5c-0.8,1.7-2.3,3.1-4.5,3.8l-1.3-2.1c3.1-0.9,4.4-3.3,4.4-5.5V527h2.7
		v1.4c0,2.2,1.3,4.3,4.3,5.2L119.4,535.6z M125.1,542.8v2h-12.7v-5.1h9.6v-1.1h-9.7v-2h12.3v5H115v1.1L125.1,542.8L125.1,542.8z
		 M124.6,535.9H122v-9.3h2.6V535.9z"/>
	<path class="st0" d="M143.6,540.8v2.2h-16.7v-2.2h7v-2.7h-5.1v-6.2h10.3v-2h-10.3v-2.1h12.9v6.1h-10.3v2.1h10.7v2.1h-5.6v2.7
		L143.6,540.8L143.6,540.8z"/>
	<path class="st0" d="M157.6,537h-8.8v-8.9h8.8V537z M153.5,542.6h9.9v2.1h-12.5v-6h2.6V542.6z M155,530.1h-3.6v4.7h3.6V530.1z
		 M165.2,531.9v2.2h-2.4v6h-2.6v-13.4h2.6v5.3L165.2,531.9L165.2,531.9z"/>
	<path class="st0" d="M182.6,533.7v2.1h-16.7v-2.1H182.6z M170.4,542.8H181v2h-13.2v-5h10.1v-1h-10.1v-2h12.7v4.9h-10.1V542.8z
		 M180.6,532.7H168v-5.8h12.5v2.1h-9.9v1.6h10V532.7z"/>
	<path class="st0" d="M199,526.5V545h-2.6v-9.7h-3.1c-0.3,3.5-2.2,5.7-4.7,5.7c-2.7,0-4.8-2.5-4.8-6.6c0-4,2-6.6,4.8-6.6
		c2.5,0,4.3,2,4.7,5.3h3.1v-6.6L199,526.5L199,526.5z M190.8,534.4c0-2.7-0.9-4.2-2.3-4.2c-1.3,0-2.2,1.5-2.2,4.2s0.9,4.2,2.2,4.2
		C189.9,538.6,190.8,537.1,190.8,534.4z"/>
</g>
<g>
	<path class="st0" d="M347.2,1021.9c-3.7,0.7-7.9,0.8-10.9,0.8l-0.3-2.1c1.3,0,2.7,0,4.2,0v-1.4c-2-0.4-3.3-1.8-3.3-3.6
		c0-2.2,1.9-3.7,4.6-3.7s4.6,1.5,4.6,3.7c0,1.8-1.3,3.2-3.3,3.6v1.3c1.4-0.1,2.9-0.2,4.2-0.4L347.2,1021.9z M341.1,1027h10.2v2.1
		h-12.9v-5.2h2.6L341.1,1027L341.1,1027z M341.6,1017.2c1.3,0,2.2-0.6,2.2-1.8s-0.9-1.8-2.2-1.8s-2.1,0.6-2.1,1.8
		S340.3,1017.2,341.6,1017.2z M353,1016.7v2.2h-2.3v6.1H348v-14h2.6v5.8L353,1016.7L353,1016.7z"/>
	<path class="st0" d="M363.4,1021.2c-1.9-0.7-3.2-1.9-4-3.6c-0.8,1.9-2.3,3.4-4.5,4.1l-1.4-2.1c3.1-1,4.4-3.5,4.4-6v-1.6h2.7v1.5
		c0,2.5,1.2,4.7,4.1,5.7L363.4,1021.2z M369.2,1025.8c0,2.2-2.4,3.6-6.3,3.6s-6.3-1.3-6.3-3.6c0-2.3,2.4-3.6,6.3-3.6
		C366.8,1022.2,369.2,1023.5,369.2,1025.8z M366.5,1025.8c0-1.1-1.3-1.6-3.7-1.6c-2.4,0-3.7,0.5-3.7,1.6c0,1,1.3,1.5,3.7,1.5
		C365.3,1027.4,366.5,1026.9,366.5,1025.8z M366.4,1016.5H363v-2.1h3.4v-3.4h2.6v10.8h-2.6V1016.5z"/>
	<path class="st0" d="M372.3,1026c0-1.1,0.8-1.9,1.8-1.9s1.8,0.8,1.8,1.9s-0.8,1.9-1.8,1.9C373.1,1027.9,372.3,1027.1,372.3,1026z
		 M372.7,1015.2l-0.1-2.8h3l-0.1,2.8l-0.4,7.4h-1.9L372.7,1015.2z"/>
</g>
<g>
	<path class="st0" d="M507.9,29.7v2.1h-6.8v2.9h-2.6v-2.9h-7.3v-2.1H507.9z M495.8,36.2h10.3v2.1h-12.9v-5.1h2.6V36.2z M505.8,28.4
		h-12.4v-7.6h2.6v1.9h7.2v-1.9h2.6L505.8,28.4L505.8,28.4z M503.2,24.7H496v1.7h7.2V24.7z"/>
	<path class="st0" d="M514.8,23.1c0,1.9,1,3.8,3.4,4.7l-1.3,2c-1.6-0.6-2.7-1.7-3.3-3.1c-0.7,1.5-1.8,2.8-3.6,3.4l-1.3-2
		c2.5-0.9,3.6-2.9,3.6-5v-1.5h2.6v1.5H514.8z M514.7,32.6c1.1-0.1,2.2-0.2,3.1-0.3l0.2,1.9c-3,0.6-6.7,0.7-9.1,0.7l-0.3-2.1
		c1,0,2.2,0,3.6,0v-3.3h2.5V32.6z M524.8,20.2v18.4h-2.5v-9h-1.4v8.2h-2.5V20.5h2.5v6.9h1.4v-7.3h2.5V20.2z"/>
	<path class="st0" d="M532.2,23h3.1v2.1h-8.8V23h3.1v-2.3h2.6L532.2,23L532.2,23z M534.9,30.3c0,2.6-1.7,4.4-4,4.4
		c-2.4,0-4-1.8-4-4.4s1.7-4.4,4-4.4C533.2,25.9,534.9,27.7,534.9,30.3z M532.6,30.3c0-1.4-0.7-2.2-1.7-2.2s-1.7,0.8-1.7,2.2
		s0.7,2.2,1.7,2.2C531.9,32.5,532.6,31.7,532.6,30.3z M542.3,20.2v18.4h-2.5v-8.8h-1.4v8h-2.5V20.6h2.5v7.2h1.4v-7.5L542.3,20.2
		L542.3,20.2z"/>
	<path class="st0" d="M551,24.3c0,3.5,1.3,6.9,4.4,8.2l-1.6,2.1c-2-1-3.4-2.8-4.1-5c-0.8,2.4-2.2,4.3-4.2,5.3l-1.6-2.1
		c3.1-1.4,4.5-5,4.5-8.5v-2.7h2.7v2.7H551z M559.5,20.2v18.5h-2.6V28.1h-3.5V26h3.5v-5.8H559.5z"/>
	<path class="st0" d="M571.3,24.8c0,3,0.8,6,3.3,7.7l-1.4,2c-1.6-1-2.5-2.5-3.1-4.4c-0.6,2-1.7,3.8-3.4,4.8l-1.6-2
		c2.7-1.6,3.7-4.9,3.7-8.1v-3.1h2.5V24.8z M575,20.5h2.5v17.3H575v-9.2h-2.3v-2.1h2.3V20.5z M581.2,20.2v18.4h-2.5V20.2H581.2z"/>
	<path class="st0" d="M592.8,31.1c-2.1-0.6-3.5-1.8-4.3-3.3c-0.8,1.7-2.3,3-4.4,3.6l-1.2-2.1c3-0.9,4.2-3,4.2-5.1v-0.1h-3.6V22h3.6
		v-2h2.6v2h3.6v2.1h-3.6v0.1c0,2,1.3,4,4.3,4.8L592.8,31.1z M585.8,32.2h12.6v6.5h-2.6v-4.4h-9.9L585.8,32.2L585.8,32.2z
		 M598.4,20.2v11.1h-2.6v-4h-3v-2.1h3v-5H598.4z"/>
	<path class="st0" d="M607.2,22.9h4V25h-10.7v-2.1h4.1v-2.4h2.6L607.2,22.9L607.2,22.9z M610.6,30.5c0,2.6-2,4.4-4.6,4.4
		c-2.7,0-4.7-1.8-4.7-4.4s2-4.4,4.7-4.4C608.6,26.1,610.6,27.9,610.6,30.5z M608.1,30.5c0-1.4-0.9-2.2-2.1-2.2s-2.2,0.9-2.2,2.3
		s0.9,2.2,2.2,2.2S608.1,31.9,608.1,30.5z M617.7,29.6h-2.6v9h-2.6V20.2h2.6v7.2h2.6V29.6z"/>
	<path class="st0" d="M634.9,34.3v2.1h-16.7v-2.1h5.9V28h2.6v6.3H634.9z M629.9,32.1c0.7-3.5,0.7-6,0.7-8.2h-10.7v-2.1h13.4v1.8
		c0,2.3,0,4.9-0.7,8.8L629.9,32.1z"/>
</g>
<g>
	<path class="st0" d="M514.2,509.8v18.4h-2.5V519h-1.5v8.4h-2.5v-5.3l-1.5,2c-1.6-0.9-2.7-2.4-3.4-4.2c-0.6,2.1-1.7,3.9-3.4,4.9
		l-1.6-2c2.7-1.6,3.6-4.9,3.6-8.4v-0.5h-3v-2.1h8.3v2.1h-2.8v0.5c0,3.2,0.9,6.3,3.6,7.7v-11.9h2.5v6.8h1.5v-7.1h2.7V509.8z"/>
	<path class="st0" d="M523.7,520c-1.5-0.6-2.6-1.7-3.2-3c-0.7,1.6-1.8,2.9-3.5,3.6l-1.4-2c2.6-1.1,3.6-3.4,3.6-5.5V511h2.5v2.1
		c0,2,1,4,3.4,4.9L523.7,520z M531.6,524.8c0,2.2-2.5,3.5-6.3,3.5c-3.9,0-6.4-1.3-6.4-3.5c0-2.1,2.5-3.4,6.4-3.4
		C529.2,521.4,531.6,522.7,531.6,524.8z M529,524.8c0-1-1.3-1.5-3.7-1.5s-3.7,0.5-3.7,1.5s1.3,1.5,3.7,1.5S529,525.8,529,524.8z
		 M527.6,520.5h-2.5v-10.3h2.5v4.1h1.4v-4.5h2.5v11.3H529v-4.7h-1.4V520.5z"/>
	<path class="st0" d="M553.8,517.6v2.1h-16.6v-2.1h7v-1.1h-5.4v-2h2.2v-2.3h-2.3v-2h13.7v2H550v2.3h2.2v2h-5.4v1.1H553.8z
		 M541.7,526.2h10.6v1.9h-13.2v-4.7h10.1v-0.9h-10.1v-1.9h12.7v4.6h-10.1V526.2z M543.6,514.6h3.8v-2.3h-3.8V514.6z"/>
	<path class="st0" d="M558.5,521.8c2.8,0,5.1-0.2,7.7-0.6l0.3,2.1c-3,0.5-5.7,0.6-9,0.6h-1.7v-7.6h6v-2.9h-6v-2.1h8.7v7.1h-6V521.8z
		 M570.1,509.8v18.5h-2.6v-18.5H570.1z"/>
	<path class="st0" d="M582,510.1h2.5v17.3H582v-8.7h-1.4c-0.2,3.6-1.7,5.8-4,5.8c-2.4,0-4-2.5-4-6.7s1.5-6.7,4-6.7
		c2.2,0,3.7,2,4,5.5h1.5L582,510.1L582,510.1z M578.1,517.8c0-2.8-0.6-4.2-1.6-4.2s-1.6,1.4-1.6,4.2s0.6,4.2,1.6,4.2
		S578.1,520.7,578.1,517.8z M588.2,509.8v18.4h-2.5v-18.4L588.2,509.8L588.2,509.8z"/>
	<path class="st0" d="M606.7,523.9v2.1H590v-2.1H606.7z M605,520.7c-3.2-0.6-5.6-2.4-6.7-4.8c-1.2,2.3-3.5,4.1-6.7,4.8l-1.1-2.2
		c4.1-0.7,6.4-3.6,6.4-6.3v-1.3h2.8v1.3c0,2.7,2.3,5.6,6.4,6.3L605,520.7z"/>
	<path class="st0" d="M611,522c2.5,0,4.5-0.1,6.8-0.5l0.2,2.1c-2.7,0.4-5,0.5-8.1,0.5h-1.5v-12.7h8.5v2.1H611v3h5.3v2.1H611V522z
		 M623.1,509.8v18.5h-2.6v-9.9h-3.2v-2.1h3.2v-6.5H623.1z"/>
	<path class="st0" d="M517.4,547.8c-2.1-0.5-3.6-1.7-4.5-3.2c-0.8,1.6-2.3,2.9-4.5,3.5l-1.2-2.1c2.8-0.8,4.1-2.6,4.3-4.5h-3.7v-2.1
		h3.7v-1.8h2.6v1.8h3.7v2.1h-3.7c0.2,1.7,1.5,3.5,4.3,4.2L517.4,547.8z M519.7,548.8h2.6v7.3h-12.2v-7.3h2.6v1.6h7L519.7,548.8
		L519.7,548.8z M519.7,552.4h-7v1.6h7V552.4z M522.4,537.9V548h-2.7v-10.2h2.7V537.9z"/>
	<path class="st0" d="M541.3,551.9v2.2h-16.7v-2.2H541.3z M539.9,544.1c0,3.2-3,5.3-6.9,5.3s-6.9-2.1-6.9-5.3s3-5.3,6.9-5.3
		S539.9,540.9,539.9,544.1z M528.7,544.1c0,2,1.8,3.2,4.3,3.2s4.3-1.2,4.3-3.2s-1.8-3.2-4.3-3.2
		C530.5,540.9,528.7,542.1,528.7,544.1z"/>
	<path class="st0" d="M558.9,552.1v2.2h-16.7v-2.2h7v-2.7h-5.1v-6.2h10.3v-2h-10.3V539H557v6.1h-10.3v2.1h10.7v2.1h-5.6v2.7h7.1
		V552.1z"/>
	<path class="st0" d="M572.9,548.2h-8.8v-8.9h8.8V548.2z M568.8,553.8h9.9v2.1h-12.5v-6h2.6V553.8z M570.3,541.4h-3.6v4.7h3.6V541.4
		z M580.5,543.2v2.2h-2.4v6h-2.6V538h2.6v5.3L580.5,543.2L580.5,543.2z"/>
	<path class="st0" d="M597.9,545v2.1h-16.7V545H597.9z M585.7,554.1h10.6v2h-13.2v-5h10.1v-1h-10.1v-2h12.7v4.9h-10.1V554.1z
		 M595.9,544h-12.6v-5.8h12.5v2.1h-9.9v1.6h10V544z"/>
	<path class="st0" d="M615.5,551.9v2.1h-16.7v-2.1h5.9v-6.3h2.6v6.3H615.5z M610.5,549.7c0.7-3.5,0.7-6,0.7-8.2h-10.7v-2.1h13.4v1.8
		c0,2.3,0,4.9-0.7,8.8L610.5,549.7z"/>
</g>
<g>
	<path class="st0" d="M486.4,838.5c0-4.9,3.1-7.7,6.9-7.7c1.9,0,3.4,0.9,4.3,1.9l-1.6,1.9c-0.7-0.7-1.6-1.2-2.7-1.2
		c-2.2,0-3.9,1.9-3.9,5.1c0,3.2,1.5,5.2,3.9,5.2c1.3,0,2.3-0.6,3.1-1.5l1.6,1.8c-1.2,1.4-2.8,2.2-4.7,2.2
		C489.4,846.1,486.4,843.4,486.4,838.5z"/>
	<path class="st0" d="M497.9,838.4c0-4.8,2.7-7.6,6.6-7.6s6.6,2.8,6.6,7.6s-2.7,7.7-6.6,7.7S497.9,843.2,497.9,838.4z M508.1,838.4
		c0-3.2-1.4-5.1-3.6-5.1s-3.6,1.9-3.6,5.1c0,3.2,1.4,5.2,3.6,5.2C506.7,843.5,508.1,841.5,508.1,838.4z"/>
	<path class="st0" d="M512.3,844.1c4-3.6,6.4-6.4,6.4-8.7c0-1.5-0.8-2.4-2.2-2.4c-1.1,0-2,0.7-2.7,1.5l-1.6-1.6
		c1.4-1.4,2.7-2.2,4.7-2.2c2.8,0,4.7,1.8,4.7,4.6c0,2.7-2.2,5.6-4.9,8.2c0.7-0.1,1.7-0.2,2.4-0.2h3.2v2.5h-9.9v-1.7H512.3z"/>
	<path class="st0" d="M532.4,830.7h2.4v12.4h-7.3v-12.4h2.5v4.2h2.4L532.4,830.7L532.4,830.7z M532.4,837H530v4.1h2.4V837z
		 M542.8,829.1v18.4h-2.5v-9.3h-1.5v8.5h-2.5v-17.3h2.5v6.7h1.5v-7L542.8,829.1L542.8,829.1z"/>
	<path class="st0" d="M554.3,838.9v1.1h5v4.6h-10.1v1h10.6v1.9h-13.2v-4.6h10.1V842h-10.1v-2h5.1v-1.1h-7V837h16.6v1.9H554.3z
		 M545.3,834.5c3.7-0.2,5.5-1,6-2.1h-5.1v-1.9h5.4V829h2.6v1.5h5.4v1.9h-5.1c0.5,1,2.3,1.9,6,2.1l-0.7,1.9c-3.4-0.2-5.7-1-6.9-2.4
		c-1.1,1.4-3.5,2.2-6.9,2.4L545.3,834.5z"/>
	<path class="st0" d="M568.7,833.8v-1.5h-5.8v-2.1h8.4v5.5h-5.8v1.6c3,0,5-0.1,7.3-0.6l0.2,2.1c-2.6,0.5-4.9,0.6-8.6,0.6h-1.6v-5.7
		h5.9V833.8z M576.9,844.1c0,2.2-2.4,3.5-6.2,3.5s-6.2-1.3-6.2-3.5s2.4-3.5,6.2-3.5S576.9,841.8,576.9,844.1z M574.3,844.1
		c0-1-1.2-1.5-3.6-1.5s-3.6,0.5-3.6,1.5s1.2,1.5,3.6,1.5S574.3,845.1,574.3,844.1z M576.7,833.7v1.7h2.4v2.1h-2.4v2.6h-2.6V829h2.6
		v2.5h2.4v2.1h-2.4V833.7z"/>
	<path class="st0" d="M480.9,879.1c-2.8,0-5-1.9-5-4.5s2.2-4.5,5-4.5s5,1.9,5,4.5S483.7,879.1,480.9,879.1z M478,880.7h12.3v6.8
		h-2.6v-4.7H478V880.7z M480.9,876.9c1.4,0,2.4-0.9,2.4-2.3c0-1.4-1-2.3-2.4-2.3s-2.4,0.8-2.4,2.3
		C478.5,876.1,479.5,876.9,480.9,876.9z M490.3,873.7v1.8h2.4v2.2h-2.4v2.3h-2.6v-10.9h2.6v2.4h2.4v2.1h-2.4V873.7z"/>
	<path class="st0" d="M498,882.4c8-7.2,12.8-12.8,12.8-17.3c0-3-1.6-4.8-4.4-4.8c-2.2,0-4,1.4-5.4,3l-3.2-3.2
		c2.7-2.9,5.4-4.5,9.4-4.5c5.6,0,9.3,3.6,9.3,9.1c0,5.4-4.4,11.1-9.8,16.4c1.5-0.2,3.4-0.3,4.8-0.3h6.4v5H498V882.4z"/>
	<path class="st0" d="M528.7,853.6h3.9l-9.9,39.5h-3.9L528.7,853.6z"/>
	<path class="st0" d="M533.2,882.3l2.8-3.7c1.8,1.7,3.9,3,6.6,3c3,0,5-1.5,5-4.1c0-2.9-1.7-4.7-8.2-4.7v-4.2c5.4,0,7.2-1.9,7.2-4.5
		c0-2.3-1.4-3.7-4-3.7c-2.1,0-3.8,1-5.6,2.6l-3-3.6c2.6-2.2,5.4-3.6,8.9-3.6c5.7,0,9.6,2.8,9.6,7.9c0,3.2-1.8,5.5-5,6.8v0.2
		c3.4,0.9,5.9,3.4,5.9,7.3c0,5.4-4.8,8.6-10.4,8.6C538.4,886.4,535.3,884.6,533.2,882.3z"/>
	<path class="st0" d="M564.6,879.3c-2-0.7-3.4-1.9-4.2-3.6c-0.8,1.7-2.2,3.1-4.3,3.8l-1.3-2.1c3-1,4.3-3.3,4.3-5.7V870h2.7v1.9
		c0,2.2,1.2,4.4,4.1,5.3L564.6,879.3z M557.2,881h12.3v6.5h-2.6v-4.4h-9.7V881z M571.9,875.8h-2.4v4.5h-2.6v-11.1h2.6v4.5h2.4V875.8
		z"/>
	<path class="st0" d="M582,870.2c0,4.9-3.1,8.2-8.6,9.6l-1-2.1c4.1-1,6.3-3,6.7-5.5h-5.8v-2.1L582,870.2L582,870.2z M575.1,880.1
		H587v7.2h-11.9V880.1z M577.7,885.3h6.8v-3.1h-6.8V885.3z M589.5,875.3h-2.4v4.1h-2.6v-10.3h2.6v4h2.4V875.3z"/>
</g>
<g>
	<path class="st1" d="M630.5,876.9c0.6,0,1.3,0,1.9,0.1v-1.3c-0.6,0.1-1.3,0.1-1.9,0.1h-5c0.2-0.7,0.5-1.3,0.9-1.8
		c0.6-0.8,1.4-1.4,2.3-1.9c1-0.5,1.9-1.2,2.7-2c0.6-0.6,0.9-1.4,0.9-2.2c0-1.8-1.5-3-3.9-3c-1.2-0.1-2.3,0.4-3.1,1.2
		c-0.5,0.6-0.9,1.4-1,2.3l1.3,0.2c0-0.6,0.2-1.1,0.5-1.6c0.5-0.7,1.4-1.1,2.3-1c1.6,0,2.6,0.8,2.6,2c0,1-0.5,1.6-2.1,2.7
		c-0.8,0.5-1.6,1.1-2.4,1.7c-0.9,0.7-1.6,1.6-2,2.7c-0.3,0.7-0.4,1.4-0.5,2.1c0.6-0.1,1.1-0.1,1.7-0.1L630.5,876.9L630.5,876.9z"/>
	<polygon class="st1" points="618,867.7 615.6,868.8 616,869.4 618.2,867.9 617.9,870.5 618.7,870.5 618.5,867.9 620.6,869.4 
		621,868.7 618.7,867.6 621,866.5 620.6,865.9 618.5,867.4 618.7,864.8 617.9,864.8 618.2,867.4 616,865.9 615.6,866.5 	"/>
</g>
<g>
	<polygon class="st1" points="597.3,867.7 595,868.8 595.3,869.4 597.5,867.9 597.3,870.5 598,870.5 597.8,867.9 600,869.4 
		600.3,868.7 598,867.6 600.3,866.5 599.9,865.9 597.8,867.4 598,864.8 597.2,864.8 597.5,867.4 595.3,865.9 594.9,866.5 	"/>
	<path class="st1" d="M603.8,866c0.5-0.1,0.9-0.1,1.4-0.1h0.9v9.4c0,0.6,0,1.2-0.1,1.8h1.5c-0.1-0.6-0.1-1.2-0.1-1.8v-7.9
		c0-0.9,0.1-1.8,0.1-2.7c-0.4,0.1-0.9,0.1-1.3,0.1h-1c-0.4,0-0.9,0-1.3-0.1L603.8,866L603.8,866z"/>
</g>
</svg>
