<?xml version="1.0" encoding="utf-8"?>
<!-- Generator: Adobe Illustrator 21.0.0, SVG Export Plug-In . SVG Version: 6.00 Build 0)  -->
<svg version="1.1" id="レイヤー_1" xmlns="http://www.w3.org/2000/svg" xmlns:xlink="http://www.w3.org/1999/xlink" x="0px"
	 y="0px" viewBox="0 0 219 486.8" style="enable-background:new 0 0 219 486.8;" xml:space="preserve">
<style type="text/css">
	.st0{fill:#009E41;}
	.st1{fill:none;stroke:#009E41;stroke-width:2.2335;stroke-linecap:round;stroke-linejoin:round;}
	.st2{fill:none;stroke:#009E41;stroke-width:2.6377;stroke-linecap:round;stroke-linejoin:round;}
	.st3{fill:none;stroke:#009E41;stroke-width:1.4791;stroke-linecap:round;stroke-linejoin:round;}
	.st4{fill:none;stroke:#009E41;stroke-width:0.9244;stroke-linecap:round;stroke-miterlimit:10;}
	.st5{fill:none;stroke:#009E41;stroke-width:1.4791;stroke-linecap:round;stroke-linejoin:round;stroke-miterlimit:10;}
	.st6{fill:#009E41;stroke:#009E41;stroke-width:1.4791;stroke-linecap:round;stroke-linejoin:round;stroke-miterlimit:10;}
	.st7{clip-path:url(#SVGID_2_);}
	.st8{fill:none;stroke:#009E41;stroke-width:0.9244;stroke-linecap:round;stroke-linejoin:round;}
	.st9{fill:none;stroke:#009E41;stroke-width:2.6377;stroke-miterlimit:10;}
	.st10{fill:none;stroke:#009E41;stroke-width:1.9887;stroke-linecap:round;stroke-linejoin:round;stroke-miterlimit:10;}
</style>
<g>
	<g>
		<g>
			<path class="st0" d="M108.1,44.6v-9.3l6.3,4.7L108.1,44.6z"/>
		</g>
		<line class="st1" x1="108" y1="39.9" x2="96.7" y2="39.9"/>
	</g>
	<g>
		<g>
			<path class="st0" d="M96.4,108l6.6,6.6l-7.7,1.1L96.4,108z"/>
		</g>
		<line class="st1" x1="98.9" y1="112" x2="114.1" y2="96.8"/>
	</g>
	<g>
		<g>
			<path class="st0" d="M100.6,237.1l6.6,6.6l-7.7,1.1L100.6,237.1z"/>
		</g>
		<line class="st1" x1="103.1" y1="241.1" x2="118.3" y2="225.9"/>
	</g>
	<g>
		<g>
			<path class="st0" d="M108.1,170.2v-9.3l6.3,4.7L108.1,170.2z"/>
		</g>
		<line class="st1" x1="108" y1="165.5" x2="96.7" y2="165.5"/>
	</g>
	<g>
		<polyline class="st2" points="200,2.6 200,77.3 125.4,77.3 125.4,2.6 		"/>
		<g>
			<polygon class="st3" points="136.8,26.8 134.6,30.6 137.6,33 141.1,30.3 			"/>
			<polygon class="st3" points="139,46.1 133.7,49.9 134.5,54.1 138.3,54.5 141.3,49.9 			"/>
			<polygon class="st3" points="157.3,31.2 151.2,35.8 153.9,38.5 158.1,37.7 161.2,33.1 			"/>
			<polygon class="st3" points="158.9,48.4 158.9,52.2 161.7,54.3 164.2,53.1 165.7,48.7 161.4,46.2 			"/>
			<polygon class="st3" points="170.2,28.4 170.5,33.3 174,34.3 175,29.1 171.9,24.9 			"/>
			<polygon class="st3" points="185.2,26.6 183.3,31.6 186.7,35.4 189.8,33.1 189,27 			"/>
			<polygon class="st3" points="179.1,44.3 178.4,48.1 182.8,49.9 186.3,49.6 186.6,47.8 183.4,45.6 182.5,43.4 			"/>
			<polygon class="st3" points="147,17.5 150.1,17.1 152.8,20.2 153.1,22.1 150.1,23.2 147,23.2 144.8,19.8 			"/>
		</g>
		<g>
			<path class="st4" d="M135.5,36.4c0.9,4.2,13.8,5,28.6,1.7s26.2-9.4,25.2-13.7"/>
			<path class="st4" d="M135.5,49.7c0.9,4.2,13.8,5,28.6,1.7s26.2-9.4,25.2-13.7"/>
		</g>
		<path class="st3" d="M199.8,15.7c-9.7,5.7-21.8,7.5-32.1,2.9c-4.6-2.3-8-5.2-12.6-6.9c-10.3-3.4-20.6-1.7-29.8,4"/>
		<rect x="160.8" y="66.3" class="st5" width="3.9" height="3.9"/>
		<g>
			<polyline class="st5" points="166.4,66.3 173.7,66.3 185.5,73.9 166.3,66.3 			"/>
			<polyline class="st5" points="159,66.3 151.7,66.3 140,73.9 159.1,66.3 			"/>
			<polygon class="st5" points="162.7,64 166.3,66.3 173.7,66.3 175.7,55.8 			"/>
			<polygon class="st5" points="162.7,64 149.7,55.8 151.7,66.3 159.1,66.3 166.3,66.3 			"/>
		</g>
		<polygon class="st6" points="150.4,77.3 175,77.3 170,70.2 155.4,70.2 		"/>
	</g>
	<g>
		<g>
			<path class="st0" d="M148.4,206.3c-11,0-17.3-1.7-17.3-4.6v-2.9l-0.1-0.1c-1.9-1.4-2.3-2.8-2.3-3.8c0-0.1,0-0.1,0-0.2l6.7-65
				c0.1-1.5,1.5-2.4,4.4-3h0.1l1.3-3.1c0.1-0.6,0.4-2.3,7.1-2.3c6.7,0,7,1.7,7.1,2.3l1.3,3.1h0.1c2.9,0.6,4.3,1.5,4.4,3l6.7,65
				c0,0.1,0,0.1,0,0.2c0,1-0.4,2.4-2.3,3.8l-0.1,0.1v2.9C165.7,204.6,159.4,206.3,148.4,206.3z M132.5,201.7c0,2.1,8.2,3.2,15.9,3.2
				s15.9-1.1,15.9-3.2V198c1.5-0.9,2.3-2,2.3-3.1l-6.7-65.1c0-0.9-2.2-1.5-4.1-1.8l-1.7-4.1c0-0.9-3.7-1.2-5.7-1.2s-5.7,0.3-5.7,1.3
				l-1.6,3.9c0,0,0,0,0,0.1c-1.9,0.3-4.1,0.9-4.1,1.8l-6.7,65c0,1.1,0.8,2.2,2.3,3.1L132.5,201.7L132.5,201.7z"/>
		</g>
		<g>
			<path class="st3" d="M164.1,197.9v3.8c0,1.6-7,3-15.7,3s-15.7-1.3-15.7-3v-3.8"/>
			<path class="st3" d="M130.4,194.9c0,3.3,8.1,6.1,18,6.1s18-2.7,18-6.1l-6.7-65.1c0,1.2-5.1,2.1-11.3,2.1s-11.3-1-11.3-2.1
				L130.4,194.9z"/>
			<g>
				<g>
					<defs>
						<path id="SVGID_1_" d="M130.4,194.9c0,3.3,8.1,6.1,18,6.1s18-2.7,18-6.1l-6.7-65.1c0,1.2-5.1,2.1-11.3,2.1s-11.3-1-11.3-2.1
							L130.4,194.9z"/>
					</defs>
					<clipPath id="SVGID_2_">
						<use xlink:href="#SVGID_1_"  style="overflow:visible;"/>
					</clipPath>
					<g class="st7">
						<path class="st8" d="M171.1,189.7c0,0-15.8,15.2-42.1,17.9"/>
						<path class="st8" d="M171.1,186.3c0,0-15.8,15.2-42.1,17.9"/>
						<path class="st8" d="M171.1,182.8c0,0-15.8,15.2-42.1,17.9"/>
						<path class="st8" d="M171.1,179.3c0,0-15.8,15.2-42.1,17.9"/>
						<path class="st8" d="M171.1,175.8c0,0-15.8,15.2-42.1,17.9"/>
						<path class="st8" d="M171.1,172.4c0,0-15.8,15.2-42.1,17.9"/>
						<path class="st8" d="M171.1,168.9c0,0-15.8,15.2-42.1,17.9"/>
						<path class="st8" d="M171.1,165.4c0,0-15.8,15.2-42.1,17.9"/>
						<path class="st8" d="M171.1,161.9c0,0-15.8,15.2-42.1,17.9"/>
						<path class="st8" d="M171.1,158.5c0,0-15.8,15.2-42.1,17.9"/>
						<path class="st8" d="M171.1,155c0,0-15.8,15.2-42.1,17.9"/>
						<path class="st8" d="M171.1,151.5c0,0-15.8,15.2-42.1,17.9"/>
						<path class="st8" d="M171.1,148.1c0,0-15.8,15.2-42.1,17.9"/>
						<path class="st8" d="M171.1,144.6c0,0-15.8,15.2-42.1,17.9"/>
						<path class="st8" d="M171.1,141.1c0,0-15.8,15.2-42.1,17.9"/>
						<path class="st8" d="M171.1,137.6c0,0-15.8,15.2-42.1,17.9"/>
						<path class="st8" d="M171.1,134.2c0,0-15.8,15.2-42.1,17.9"/>
						<path class="st8" d="M171.1,130.7c0,0-15.8,15.2-42.1,17.9"/>
						<path class="st8" d="M171.1,127.2c0,0-15.8,15.2-42.1,17.9"/>
						<path class="st8" d="M171.1,123.7c0,0-15.8,15.2-42.1,17.9"/>
						<path class="st8" d="M171.1,120.3c0,0-15.8,15.2-42.1,17.9"/>
						<path class="st8" d="M171.1,116.8c0,0-15.8,15.2-42.1,17.9"/>
					</g>
				</g>
			</g>
			<path class="st3" d="M155.5,128.2c-0.4,0.7-3.4,1.2-7.1,1.2c-3.7,0-6.7-0.5-7.1-1.2c-2.5,0.4-4.2,1-4.2,1.7
				c0,1.2,5.1,2.1,11.3,2.1s11.3-1,11.3-2.1C159.7,129.2,158.1,128.6,155.5,128.2z"/>
			<ellipse class="st3" cx="148.4" cy="124" rx="5.5" ry="1"/>
			<path class="st3" d="M142.9,124l-1.7,4c0,0.7,3.2,1.4,7.2,1.4s7.2-0.6,7.2-1.4l-1.7-4c0,0.6-2.5,1-5.5,1
				C145.4,125.1,142.9,124.6,142.9,124"/>
			<path class="st8" d="M161.7,149.2c7-2.4,13.7-7.4,19.8-11.5c2.9-2,7.4-6.4,5.6-8.4c-2.1-1.4-5,1.4-5.8,3.7s0.2,5.2,2.3,6.5
				c1.8,1.1,4.2,1.1,6.2,0.5c2.1-0.6,3.9-1.8,5.8-2.8c6.8-3.7,14.5-5.8,22.2-6.2"/>
		</g>
	</g>
	<g>
		<g>
			<path class="st0" d="M27,71.7C27,71.7,27,71.6,27,71.7V37.6c0-0.1,0-0.2,0.1-0.4s0.1-0.4,0.2-0.8c0.2-0.8,0.3-3.5-1.1-5.1
				C26.1,31.2,26,31.1,26,31s0.1-0.2,0.3-0.4c1.1-1.6,1.3-2.7,0.7-8.1c-0.5-4.4-2.5-8.4-4.2-10.7c-0.7-0.9-1.4-1.6-2.1-2
				c-0.6-0.4-0.9-0.7-1-1c0.5-0.7,0.6-1.4,0.6-1.6c0-0.1,0-0.1,0-0.2l-0.1-1.2V3.6c0-1,0-2.1-1.2-3C18.1-0.1,17.1,0,16,0
				c-0.7,0-1.5,0-2.2,0c-1-0.1-2-0.1-2.9,0.5c-1.2,0.9-1.2,2-1.2,3v2.2L9.6,7.1c0,0.1,0,0.1,0,0.2c0,0.2,0,0.9,0.6,1.6
				c-0.1,0.2-0.4,0.6-1,1c-0.7,0.4-1.3,1.1-2.1,2c-1.7,2.2-3.7,6.2-4.2,10.7c-0.6,5.4-0.4,6.5,0.7,8.1C3.8,30.8,3.9,31,3.9,31
				c0,0.1-0.1,0.1-0.2,0.3c-1.4,1.6-1.2,4.3-1,5.1c0.1,0.3,0.1,0.6,0.2,0.8C3,37.4,3,37.5,3,37.6v34v0.1c-0.2,0.4-0.5,1.1-0.1,2.2
				c-0.2,1,0,2.1,0.6,3.2c0.9,1.5,2.4,2.4,4.1,2.4c2.3,0,7.2,0.4,7.3,0.4H15h0.1c0,0,5-0.4,7.3-0.4c1.7,0,3.2-0.9,4.1-2.4
				c0.6-1,0.8-2.2,0.6-3.2C27.5,72.9,27.1,72.1,27,71.7z M25.4,73.7c0.7,1.3-0.6,4.1-3,4.1S15,78.2,15,78.2s-5-0.4-7.4-0.4
				s-3.7-2.8-3-4.1c-0.7-1,0-1.3,0-2s0-33.5,0-34.1s-0.1-0.7-0.3-1.5c-0.1-0.7-0.1-2.8,0.7-3.8c0.5-0.6,0.7-1.1,0.5-1.6
				c-0.1-0.3-0.3-0.6-0.5-1c-0.7-1-1-1.6-0.4-7c0.4-4,2.2-7.7,3.9-9.9c0.6-0.8,1.2-1.3,1.7-1.7c1.8-1.2,2-2.6,1.6-3.1
				c-0.4-0.4-0.4-0.9-0.4-0.9V6.7l0.1-0.9c0,0,0-1.5,0-2.3c0-0.9,0-1.3,0.6-1.8c0.6-0.4,1.6-0.1,3-0.1s2.5-0.3,3,0.1
				c0.6,0.4,0.6,0.9,0.6,1.8s0,2.3,0,2.3l0.1,0.9v0.4c0,0,0,0.4-0.4,0.9C18,8.4,18.1,9.9,20,11.1c0.5,0.3,1.1,0.9,1.7,1.7
				c1.7,2.2,3.5,5.9,3.9,9.9c0.6,5.4,0.3,6-0.4,7c-0.3,0.4-0.5,0.7-0.5,1c-0.1,0.5,0,1,0.5,1.6c0.8,1,0.8,3.1,0.7,3.8
				c-0.1,0.7-0.3,0.9-0.3,1.5s0,33.4,0,34.1C25.4,72.4,26.1,72.7,25.4,73.7z"/>
			<g>
				<path class="st3" d="M25.4,71.7c0-0.7,0-33.5,0-34.1s0.1-0.7,0.3-1.5c0.1-0.7,0.1-2.8-0.7-3.8c-0.5-0.6-0.7-1.1-0.5-1.6
					c0.1-0.3,0.3-0.6,0.5-1c0.7-1,1-1.6,0.4-7c-0.4-4-2.2-7.7-3.9-9.9c-0.6-0.8-1.2-1.3-1.7-1.7c-1.8-1.2-2-2.6-1.6-3.1
					c0.4-0.4,0.4-0.9,0.4-0.9V6.7l-0.1-0.9c0,0,0-1.5,0-2.3c0-0.9,0-1.3-0.6-1.8c-0.6-0.4-1.6-0.1-3-0.1s-2.5-0.3-3,0.1
					c-0.6,0.4-0.6,0.9-0.6,1.8s0,2.3,0,2.3l-0.1,0.9v0.4c0,0,0,0.4,0.4,0.9c0.4,0.5,0.3,2-1.6,3.2c-0.5,0.3-1.1,0.9-1.7,1.7
					c-1.7,2.2-3.5,5.9-3.9,9.9c-0.6,5.4-0.3,6,0.4,7c0.3,0.4,0.5,0.7,0.5,1c0.1,0.5,0,1-0.5,1.6c-0.9,1-0.9,3.1-0.7,3.8
					c0.1,0.7,0.3,0.9,0.3,1.5s0,33.4,0,34.1s-0.7,1,0,2c-0.7,1.3,0.6,4.1,3,4.1s7.4,0.4,7.4,0.4s5-0.4,7.4-0.4s3.7-2.8,3-4.1
					C26.1,72.7,25.4,72.4,25.4,71.7z"/>
				<path class="st3" d="M24.9,29.7c0.7-1,1-1.6,0.4-7c-0.4-4-2.2-7.7-3.9-9.9H8.3c-1.7,2.2-3.5,5.9-3.9,9.9c-0.6,5.4-0.3,6,0.4,7
					c0.3,0.4,0.5,0.7,0.5,1h18.9C24.5,30.4,24.7,30.1,24.9,29.7z"/>
				<path class="st3" d="M18.6,5.9c0,0,0-1.5,0-2.3c0-0.9,0-1.3-0.6-1.8c-0.6-0.4-1.6-0.1-3-0.1s-2.5-0.3-3,0.1
					c-0.6,0.4-0.6,0.9-0.6,1.8s0,2.3,0,2.3l-0.1,0.9h7.4L18.6,5.9z"/>
			</g>
		</g>
		<g>
			<path class="st0" d="M83.6,71.7C83.6,71.7,83.6,71.6,83.6,71.7V37.6c0-0.1,0-0.2,0.1-0.4s0.1-0.4,0.2-0.8
				c0.2-0.8,0.3-3.5-1.1-5.1c-0.1-0.1-0.2-0.2-0.2-0.3c0-0.1,0.1-0.2,0.3-0.4c1.1-1.6,1.3-2.7,0.7-8.1c-0.5-4.4-2.5-8.4-4.2-10.7
				c-0.7-0.9-1.4-1.6-2.1-2c-0.6-0.4-0.9-0.7-1-1c0.5-0.7,0.6-1.4,0.6-1.6c0-0.1,0-0.1,0-0.2l-0.1-1.2V3.6c0-1,0-2.1-1.2-3
				C74.7-0.1,73.7,0,72.7,0c-0.7,0-1.5,0-2.2,0c-1-0.1-2-0.1-2.9,0.5c-1.2,0.9-1.2,2-1.2,3v2.2l-0.1,1.2c0,0.1,0,0.1,0,0.2
				c0,0.2,0,0.9,0.6,1.6c-0.1,0.2-0.4,0.6-1,1c-0.7,0.4-1.3,1.1-2.1,2c-1.7,2.2-3.7,6.2-4.2,10.7c-0.6,5.4-0.4,6.5,0.7,8.1
				c0.2,0.2,0.2,0.4,0.3,0.4c0,0.1-0.1,0.1-0.2,0.3c-1.4,1.6-1.2,4.3-1,5.1c0.1,0.3,0.1,0.6,0.2,0.8c0.1,0.2,0.1,0.3,0.1,0.4v34v0.1
				c-0.2,0.4-0.5,1.1-0.1,2.2c-0.2,1,0,2.1,0.6,3.2c0.9,1.5,2.4,2.4,4.1,2.4c2.3,0,7.2,0.4,7.3,0.4h0.1h0.1c0,0,5-0.4,7.3-0.4
				c1.7,0,3.2-0.9,4.1-2.4c0.6-1,0.8-2.2,0.6-3.2C84.1,72.9,83.8,72.1,83.6,71.7z M82,73.7c0.7,1.3-0.6,4.1-3,4.1s-7.4,0.4-7.4,0.4
				s-5-0.4-7.4-0.4s-3.7-2.8-3-4.1c-0.7-1,0-1.3,0-2s0-33.5,0-34.1s-0.1-0.7-0.3-1.5c-0.1-0.7-0.1-2.8,0.7-3.8
				c0.5-0.6,0.7-1.1,0.5-1.6c-0.1-0.3-0.3-0.6-0.5-1c-0.7-1-1-1.6-0.4-7c0.4-4,2.2-7.7,3.9-9.9c0.6-0.8,1.2-1.3,1.7-1.7
				c1.8-1.2,2-2.6,1.6-3.1C68,7.6,68,7.1,68,7.1V6.7l0-0.8c0,0,0-1.5,0-2.3c0-0.9,0-1.3,0.6-1.8c0.6-0.4,1.6-0.1,3-0.1
				s2.5-0.3,3,0.1c0.6,0.4,0.6,0.9,0.6,1.8s0,2.3,0,2.3l0.1,0.9v0.4c0,0,0,0.4-0.4,0.9c-0.4,0.4-0.3,1.9,1.6,3.1
				c0.5,0.3,1.1,0.9,1.7,1.7c1.7,2.2,3.5,5.9,3.9,9.9c0.6,5.4,0.3,6-0.4,7c-0.3,0.4-0.5,0.7-0.5,1c-0.1,0.5,0,1,0.5,1.6
				c0.8,1,0.8,3.1,0.7,3.8C82.1,36.8,82,37,82,37.6s0,33.4,0,34.1C82,72.4,82.7,72.7,82,73.7z"/>
			<g>
				<path class="st3" d="M82,71.7c0-0.7,0-33.5,0-34.1s0.1-0.7,0.3-1.5c0.1-0.7,0.1-2.8-0.7-3.8c-0.5-0.6-0.7-1.1-0.5-1.6
					c0.1-0.3,0.3-0.6,0.5-1c0.7-1,1-1.6,0.4-7c-0.4-4-2.2-7.7-3.9-9.9c-0.6-0.8-1.2-1.3-1.7-1.7c-1.8-1.2-2-2.6-1.6-3.1
					c0.4-0.4,0.4-0.9,0.4-0.9V6.7l-0.1-0.9c0,0,0-1.5,0-2.3c0-0.9,0-1.3-0.6-1.8c-0.6-0.4-1.6-0.1-3-0.1s-2.5-0.3-3,0.1
					C68,2.3,68,2.7,68,3.6s0,2.3,0,2.3l-0.1,0.9v0.4c0,0,0,0.4,0.4,0.9c0.4,0.4,0.3,1.9-1.6,3.1c-0.5,0.3-1.1,0.9-1.7,1.7
					c-1.7,2.2-3.5,5.9-3.9,9.9c-0.6,5.4-0.3,6,0.4,7c0.3,0.4,0.5,0.7,0.5,1c0.1,0.5,0,1-0.5,1.6c-0.9,1-0.9,3.1-0.7,3.8
					c0.1,0.7,0.3,0.9,0.3,1.5s0,33.4,0,34.1s-0.7,1,0,2c-0.7,1.3,0.6,4.1,3,4.1s7.4,0.4,7.4,0.4s5-0.4,7.4-0.4s3.7-2.8,3-4.1
					C82.7,72.7,82,72.4,82,71.7z"/>
				<path class="st3" d="M81.6,29.7c0.7-1,1-1.6,0.4-7c-0.4-4-2.2-7.7-3.9-9.9H65c-1.7,2.2-3.5,5.9-3.9,9.9c-0.6,5.4-0.3,6,0.4,7
					c0.3,0.4,0.5,0.7,0.5,1h18.9C81.1,30.4,81.3,30.1,81.6,29.7z"/>
				<path class="st3" d="M75.2,5.9c0,0,0-1.5,0-2.3c0-0.9,0-1.3-0.6-1.8c-0.6-0.4-1.6-0.1-3-0.1s-2.5-0.3-3,0.1
					C68,2.3,68,2.7,68,3.6s0,2.3,0,2.3l-0.1,0.9h7.4L75.2,5.9z"/>
			</g>
		</g>
		<g>
			<path class="st0" d="M55.3,71.7C55.3,71.7,55.3,71.6,55.3,71.7V37.6c0-0.1,0-0.2,0.1-0.4s0.1-0.4,0.2-0.8
				c0.2-0.8,0.3-3.5-1.1-5.1c-0.1-0.1-0.2-0.2-0.2-0.3c0-0.1,0.1-0.2,0.3-0.4c1.1-1.6,1.3-2.7,0.7-8.1c-0.5-4.4-2.5-8.4-4.2-10.7
				c-0.7-0.9-1.4-1.6-2.1-2c-0.6-0.4-0.9-0.7-1-1c0.5-0.7,0.6-1.4,0.6-1.6c0-0.1,0-0.1,0-0.2l-0.1-1.2V3.6c0-1,0-2.1-1.2-3
				C46.4-0.1,45.4,0,44.4,0c-0.7,0-1.5,0-2.2,0c-1-0.1-2-0.1-2.9,0.5c-1.2,0.9-1.2,2-1.2,3v2.2L38,6.9C38,7,38,7,38,7.1
				c0,0.2,0,0.9,0.6,1.6c-0.1,0.2-0.4,0.6-1,1c-0.7,0.4-1.3,1.1-2.1,2c-1.7,2.2-3.7,6.2-4.2,10.7c-0.6,5.4-0.4,6.5,0.7,8.1
				c0.2,0.2,0.2,0.4,0.3,0.4c0,0.1-0.1,0.1-0.2,0.3c-1.4,1.6-1.2,4.3-1,5.1c0.1,0.3,0.1,0.6,0.2,0.8s0.1,0.3,0.1,0.4v34v0.1
				c-0.2,0.4-0.5,1.1-0.1,2.2c-0.2,1,0,2.1,0.6,3.2c0.9,1.5,2.4,2.4,4.1,2.4c2.3,0,7.2,0.4,7.3,0.4h0.1h0.1c0,0,5-0.4,7.3-0.4
				c1.7,0,3.2-0.9,4.1-2.4c0.6-1,0.8-2.2,0.6-3.2C55.8,72.9,55.5,72.1,55.3,71.7z M53.7,73.7c0.7,1.3-0.6,4.1-3,4.1
				s-7.4,0.4-7.4,0.4s-5-0.4-7.4-0.4s-3.7-2.8-3-4.1c-0.7-1,0-1.3,0-2s0-33.5,0-34.1s-0.1-0.7-0.3-1.5c-0.1-0.7-0.1-2.8,0.7-3.8
				c0.5-0.6,0.7-1.1,0.5-1.6c-0.1-0.3-0.3-0.6-0.5-1c-0.7-1-1-1.6-0.4-7c0.4-4,2.2-7.7,3.9-9.9c0.6-0.8,1.2-1.3,1.7-1.7
				c1.8-1.2,2-2.6,1.6-3.1c-0.4-0.4-0.4-0.9-0.4-0.9V6.7l0.1-0.9c0,0,0-1.5,0-2.3c0-0.9,0-1.3,0.6-1.8c0.6-0.4,1.6-0.1,3-0.1
				s2.5-0.3,3,0.1C47,2.1,47,2.6,47,3.5s0,2.3,0,2.3l0,1v0.4c0,0,0,0.4-0.4,0.9c-0.4,0.4-0.3,1.9,1.6,3.1c0.5,0.3,1.1,0.9,1.7,1.7
				c1.7,2.2,3.5,5.9,3.9,9.9c0.6,5.4,0.3,6-0.4,7c-0.3,0.4-0.5,0.7-0.5,1c-0.1,0.5,0,1,0.5,1.6c0.8,1,0.8,3.1,0.7,3.8
				s-0.3,0.9-0.3,1.5s0,33.4,0,34.1C53.7,72.4,54.4,72.7,53.7,73.7z"/>
			<g>
				<path class="st3" d="M53.7,71.7c0-0.7,0-33.5,0-34.1s0.1-0.7,0.3-1.5c0.1-0.7,0.1-2.8-0.7-3.8c-0.5-0.6-0.7-1.1-0.5-1.6
					c0.1-0.3,0.3-0.6,0.5-1c0.7-1,1-1.6,0.4-7c-0.4-4-2.2-7.7-3.9-9.9c-0.6-0.8-1.2-1.3-1.7-1.7c-1.8-1.2-2-2.6-1.6-3.1
					C47,7.7,47,7.2,47,7.2V6.8l-0.1-0.9c0,0,0-1.5,0-2.3c0-0.9,0-1.3-0.6-1.8c-0.6-0.4-1.6-0.1-3-0.1s-2.5-0.3-3,0.1
					c-0.6,0.4-0.6,0.9-0.6,1.8s0,2.3,0,2.3l-0.1,0.9v0.4c0,0,0,0.4,0.4,0.9c0.4,0.4,0.3,1.9-1.6,3.1c-0.5,0.3-1.1,0.9-1.7,1.7
					c-1.7,2.2-3.5,5.9-3.9,9.9c-0.6,5.4-0.3,6,0.4,7c0.3,0.4,0.5,0.7,0.5,1c0.1,0.5,0,1-0.5,1.6c-0.9,1-0.9,3.1-0.7,3.8
					c0.1,0.7,0.3,0.9,0.3,1.5s0,33.4,0,34.1s-0.7,1,0,2c-0.7,1.3,0.6,4.1,3,4.1s7.4,0.4,7.4,0.4s5-0.4,7.4-0.4s3.7-2.8,3-4.1
					C54.4,72.7,53.7,72.4,53.7,71.7z"/>
				<path class="st3" d="M53.2,29.7c0.7-1,1-1.6,0.4-7c-0.4-4-2.2-7.7-3.9-9.9H36.6c-1.7,2.2-3.5,5.9-3.9,9.9c-0.6,5.4-0.3,6,0.4,7
					c0.3,0.4,0.5,0.7,0.5,1h18.9C52.8,30.4,53,30.1,53.2,29.7z"/>
				<path class="st3" d="M46.9,5.9c0,0,0-1.5,0-2.3c0-0.9,0-1.3-0.6-1.8c-0.6-0.4-1.6-0.1-3-0.1s-2.5-0.3-3,0.1
					c-0.6,0.4-0.6,0.9-0.6,1.8s0,2.3,0,2.3l-0.1,0.9H47L46.9,5.9z"/>
			</g>
		</g>
	</g>
	<g>
		<g>
			<circle class="st9" cx="43" cy="165.5" r="38.2"/>
		</g>
		<polygon class="st5" points="33.2,155.5 28,155.5 26.9,149.5 31.6,148 		"/>
		<polygon class="st5" points="11.5,158.8 12.4,153.7 18.6,153.6 19.2,158.5 		"/>
		<polygon class="st5" points="10.6,164.4 15.8,164.2 17.1,170.3 12.5,171.9 		"/>
		<polygon class="st5" points="40.4,156.1 36.2,153.2 38.7,147.5 43.3,149 		"/>
		<polygon class="st5" points="50.1,153.3 52.2,158 47.2,161.6 43.9,157.9 		"/>
		<polygon class="st5" points="60.2,157.6 55,157.6 54,151.4 58.7,150.1 		"/>
		<polygon class="st5" points="62.7,145.8 67.7,144.3 70.5,149.8 66.4,152.6 		"/>
		<polygon class="st5" points="50,170.5 45.1,172.2 42,166.8 46,163.9 		"/>
		<polygon class="st5" points="42.1,176.8 36.9,176.9 35.6,170.9 40.3,169.4 		"/>
		<polygon class="st5" points="29.2,179.1 25.8,175.2 29.6,170.3 33.8,172.9 		"/>
		<polygon class="st5" points="36.4,192.4 31.2,192.9 29.5,186.9 34.1,185.1 		"/>
		<polygon class="st5" points="27.3,190.1 22.2,189.1 22.2,182.9 27.1,182.4 		"/>
		<polygon class="st5" points="41.4,188.9 36.4,187.5 37,181.3 41.9,181.3 		"/>
		<polygon class="st5" points="45.1,198.5 40,197.6 39.9,191.4 44.8,190.8 		"/>
		<polygon class="st5" points="50,183.1 44.8,183.1 43.7,177 48.5,175.6 		"/>
		<polygon class="st5" points="56.6,179.5 51.5,178.6 51.4,172.4 56.3,171.8 		"/>
		<polygon class="st5" points="65.2,175.7 60,175.8 58.8,169.7 63.5,168.2 		"/>
		<polygon class="st5" points="75.9,159.2 75.1,164.3 68.9,164.5 68.2,159.6 		"/>
		<polygon class="st5" points="72.4,175.2 67.3,174.5 66.9,168.4 71.8,167.6 		"/>
		<polygon class="st5" points="69.3,185.2 64.2,186.1 62,180.3 66.4,178 		"/>
		<polygon class="st5" points="58.6,190.2 53.7,188.5 54.6,182.4 59.5,182.6 		"/>
		<polygon class="st5" points="54,193.3 48.9,194 47,188.1 51.5,186.1 		"/>
		<polygon class="st5" points="64.6,162.6 60.8,159.1 64,153.9 68.4,156 		"/>
		<polygon class="st5" points="52,162.3 56.4,159.7 60.5,164.3 57.2,167.9 		"/>
		<polygon class="st5" points="23,166.5 26.6,170.3 22.9,175.3 18.7,172.8 		"/>
		<polygon class="st5" points="21.7,177.9 18.1,181.6 12.9,178.2 15.1,173.9 		"/>
		<polygon class="st5" points="37.1,166.3 33.7,162.4 37.6,157.6 41.8,160.2 		"/>
		<polygon class="st5" points="19.5,151.3 17.7,146.4 23,143.3 26,147.2 		"/>
		<polygon class="st5" points="25.7,139.7 29.8,136.6 34.4,140.7 31.5,144.7 		"/>
		<polygon class="st5" points="44.4,138.7 42.3,143.5 36.3,142.1 36.9,137.2 		"/>
		<polygon class="st5" points="46.8,141.4 46,136.3 51.8,134.2 53.9,138.7 		"/>
		<polygon class="st5" points="50,143 52.7,147.4 48,151.5 44.4,148.2 		"/>
		<polygon class="st5" points="62.8,141.5 61.4,146.5 55.3,146 55.1,141.1 		"/>
		<polygon class="st5" points="30.4,161.4 26,164.3 21.8,159.8 24.9,156 		"/>
	</g>
</g>
<g>
	<g>
		<path class="st10" d="M62.8,449.3c0-6.3,0-110.6,0-119.3"/>
		<path class="st10" d="M156.3,449.3c0-6.3,0-110.6,0-119.3"/>
		<path class="st0" d="M118.4,267.3c6.7,0,13,3.7,13,10.2c0,2.4,0,3.8,0,6c4.2,0.9,23.5,9.4,29.3,12.9c3.3,2,8.1,5.9,11.2,14.1
			c7.6,20.5,10.4,126.4,10.5,137.6c0,5.4-1.7,7.3-4.3,7.3c-3,0-13,0-15.4,0c-4.2,0-6.3-2.6-6.3-6.1c0,2.6-2.2,6.2-6.2,6.2
			s-34.9,0-40.5,0c-5.7,0-36.5,0-40.5,0s-6.2-3.7-6.2-6.2c0,3.5-2.2,6.1-6.3,6.1c-2.4,0-12.4,0-15.4,0c-2.5,0-4.3-2-4.3-7.3
			c0.1-11.2,2.8-117.1,10.5-137.6c3.1-8.3,7.9-12.1,11.2-14.1c5.8-3.5,25.1-12,29.3-12.9c0-2.2,0-3.6,0-6c0-6.4,6.3-10.2,13-10.2
			c1.7,0,5.9,0,8.9,0C112.6,267.3,116.7,267.3,118.4,267.3 M118.4,264.7h-8.9h-8.9c-4,0-7.7,1.1-10.6,3.2c-3.3,2.4-5.1,5.8-5.1,9.6
			v4c-6.8,2.3-22.9,9.5-28,12.6c-5.6,3.3-9.7,8.5-12.3,15.5C36.3,332.1,34.1,447,34,448.1c0,3.8,0.8,6.5,2.5,8.2
			c1.2,1.2,2.7,1.8,4.5,1.8h15.4c2.7,0,4.9-0.9,6.5-2.4c1.5,1.5,3.5,2.5,6.1,2.5h40.5H150c2.6,0,4.6-1,6.1-2.5
			c1.6,1.5,3.8,2.4,6.5,2.4H178c1.8,0,3.3-0.6,4.5-1.8c1.7-1.7,2.5-4.4,2.5-8.2c0-1.1-2.2-116-10.6-138.5
			c-2.6-6.9-6.7-12.1-12.3-15.5c-5.1-3.1-21.1-10.3-28-12.6v-4c0-3.9-1.8-7.3-5.1-9.6C126.2,265.8,122.4,264.7,118.4,264.7
			L118.4,264.7z"/>
		<path class="st10" d="M171.9,310.5c-3.1-8.3-7.9-12.1-11.2-14.1c-5.8-3.5-25.1-12-29.3-12.9l0,0c0-2.2,0-3.6,0-6
			c0-6.4-6.3-10.2-13-10.2c-1.7,0-5.9,0-8.9,0c-3.1,0-7.2,0-8.9,0c-6.7,0-13,3.7-13,10.2c0,2.4,0,3.8,0,6
			c-4.2,0.9-23.5,9.4-29.3,12.9c-3.3,2-8.1,5.9-11.2,14.1C39.5,331,36.8,436.9,36.7,448.1c0,5.4,1.7,7.3,4.3,7.3c3,0,13,0,15.4,0
			c4.2,0,6.3-2.6,6.3-6.1c0,2.6,2.2,6.2,6.2,6.2s34.9,0,40.5,0c5.7,0,36.5,0,40.5,0s6.2-3.7,6.2-6.2c0,3.5,2.2,6.1,6.3,6.1
			c2.4,0,12.4,0,15.4,0c2.5,0,4.3-2,4.3-7.3C182.3,436.9,179.5,331,171.9,310.5z"/>
		<path class="st10" d="M109.5,301.2c0,16.8,0,154.4,0,154.4"/>
		<path class="st10" d="M109.5,301.2"/>
		<path class="st10" d="M109.5,271.7c2.2,0,5.2,0,8.6,0s5.9,1.5,6.3,3.9c0.4,2.6-1.4,4.9-5,5.8c-1.7,0.4-4,1-5.6,1.3
			c-2.3,0.5-4.4,2.3-4.4,4.6c0,4.5,0,8.1,0,13.8c14.5,0,21.9-11.4,21.9-17.7c0-2.2,0-3.6,0-6c0-6.4-6.3-10.2-13-10.2
			c-1.7,0-5.9,0-8.9,0s-7.2,0-8.9,0c-6.7,0-13,3.7-13,10.2c0,2.4,0,3.8,0,6c0,6.3,7.4,17.7,21.9,17.7c0-5.8,0-9.3,0-13.8
			c0-2.3-2.1-4.1-4.4-4.6c-1.6-0.3-3.9-0.8-5.6-1.3c-3.6-0.9-5.4-3.2-5-5.8c0.4-2.4,2.9-3.9,6.3-3.9S107.3,271.7,109.5,271.7z"/>
	</g>
</g>
<g>
	<path class="st0" d="M14.4,96.4c0.7,0,1.5-0.1,2.2-0.2l0.1,0.9c-2,0.4-4.1,0.4-5.8,0.4l-0.2-1.1c0.7,0,1.5,0,2.3,0v-0.8
		c-1-0.2-1.6-0.8-1.6-1.7c0-1,0.9-1.7,2.3-1.7c1.3,0,2.3,0.7,2.3,1.7c0,0.8-0.6,1.5-1.6,1.7V96.4z M16.5,91.9H11v-1h2.1v-1h1.3v1
		h2.1V91.9z M13.7,94.8c0.6,0,1-0.3,1-0.7c0-0.5-0.4-0.7-1-0.7c-0.6,0-1,0.3-1,0.7C12.7,94.5,13.1,94.8,13.7,94.8z M18.4,89.9v9.2
		h-1.3v-9.2H18.4z"/>
	<path class="st0" d="M27.9,96h-3.5v3.1H23V96h-3.5v-1.1h8.3V96z M27.1,94.2c-1.6-0.2-2.8-1-3.3-2c-0.6,1-1.7,1.7-3.4,2l-0.5-1.1
		c2.1-0.3,3.1-1.5,3.1-2.6v-0.4h1.4v0.4c0,1.1,1.1,2.3,3.1,2.6L27.1,94.2z"/>
	<path class="st0" d="M33.7,91.9h-5.4v-1h2v-1h1.3v1h2.1L33.7,91.9z M31,95.8c-1.3,0-2.3-0.7-2.3-1.8c0-1,0.9-1.8,2.3-1.8
		s2.3,0.7,2.3,1.8C33.3,95,32.4,95.8,31,95.8z M31,97.9h4.9v1h-6.3v-2.7H31V97.9z M31,94.8c0.6,0,1-0.3,1-0.8c0-0.5-0.4-0.8-1-0.8
		c-0.6,0-1,0.3-1,0.8C30,94.5,30.4,94.8,31,94.8z M36.8,92.7v1.1h-1.2v3h-1.3v-6.9h1.3v2.8H36.8z"/>
	<path class="st0" d="M42.7,95.8c0.3,0,0.5-0.1,0.7-0.1l0.1,0.9C42,97,40.2,97,39,97l-0.1-1.1c0.2,0,0.5,0,0.7,0v-4h-0.6v-1h4.2v1
		h-0.6V95.8z M40.8,95.9c0.2,0,0.5,0,0.7,0V92h-0.7V95.9z M43.9,90.1h1.2v8.6h-1.2v-4.3H43v-1.1h0.9V90.1z M47,89.9v9.2h-1.2v-9.2
		H47z"/>
	<path class="st0" d="M56.1,97V98h-8.3V97H56.1z M55.2,95.7h-6.5v-5.1h6.4v1.1h-5.1v1H55v1h-4.8v1h5.1V95.7z"/>
	<path class="st0" d="M61.3,94.9H57v-4.4h1.3v1.2H60v-1.2h1.3v0.8H63v-1.3h1.3v5.5H63v-1.2h-1.6V94.9z M64.3,97.3
		c0,1.1-1.2,1.8-3.2,1.8c-1.9,0-3.1-0.7-3.1-1.8c0-1.1,1.2-1.8,3.1-1.8C63.1,95.6,64.3,96.2,64.3,97.3z M60,92.7h-1.7v1.1H60V92.7z
		 M63,97.3c0-0.5-0.6-0.8-1.8-0.8c-1.2,0-1.8,0.3-1.8,0.8c0,0.5,0.6,0.8,1.8,0.8C62.4,98.1,63,97.8,63,97.3z M61.3,92.3v0.8H63v-0.8
		H61.3z"/>
	<path class="st0" d="M73.7,93.6v1h-8.3v-1H73.7z M66.2,91.6c0-1,1.2-1.6,3.3-1.6c2.1,0,3.3,0.6,3.3,1.6c0,1-1.2,1.6-3.3,1.6
		C67.5,93.2,66.2,92.6,66.2,91.6z M67.7,98h5.3v1h-6.6v-2.4h5v-0.5h-5.1v-1h6.4v2.4h-5V98z M67.6,91.6c0,0.4,0.6,0.6,2,0.6
		c1.3,0,2-0.2,2-0.6c0-0.4-0.6-0.6-2-0.6C68.2,91,67.6,91.2,67.6,91.6z"/>
</g>
<g>
	<path class="st0" d="M136.2,94.6v1h-3.4v1.4h-1.3v-1.4h-3.6v-1H136.2z M130.1,97.9h5.1v1h-6.5v-2.5h1.3V97.9z M135.1,94h-6.2v-3.8
		h1.3v0.9h3.6v-0.9h1.3V94z M133.8,92.1h-3.6v0.8h3.6V92.1z"/>
	<path class="st0" d="M139.6,91.3c0,1,0.5,1.9,1.7,2.3l-0.6,1c-0.8-0.3-1.3-0.9-1.7-1.5c-0.3,0.8-0.9,1.4-1.8,1.7l-0.7-1
		c1.3-0.5,1.8-1.5,1.8-2.5v-0.7h1.3V91.3z M139.6,96.1c0.5,0,1.1-0.1,1.5-0.2l0.1,1c-1.5,0.3-3.4,0.4-4.5,0.4l-0.1-1.1
		c0.5,0,1.1,0,1.8,0v-1.6h1.2V96.1z M144.6,89.9v9.2h-1.3v-4.5h-0.7v4.1h-1.2V90h1.2v3.5h0.7v-3.6H144.6z"/>
	<path class="st0" d="M148.3,91.3h1.5v1h-4.4v-1h1.6v-1.1h1.3V91.3z M149.7,94.9c0,1.3-0.8,2.2-2,2.2c-1.2,0-2-0.9-2-2.2
		c0-1.3,0.8-2.2,2-2.2C148.8,92.7,149.7,93.6,149.7,94.9z M148.5,94.9c0-0.7-0.4-1.1-0.9-1.1c-0.5,0-0.9,0.4-0.9,1.1
		s0.4,1.1,0.9,1.1C148.1,96,148.5,95.6,148.5,94.9z M153.3,89.9v9.2h-1.2v-4.4h-0.7v4h-1.2v-8.6h1.2v3.6h0.7v-3.8H153.3z"/>
	<path class="st0" d="M157.7,91.9c0,1.7,0.7,3.4,2.2,4.1l-0.8,1c-1-0.5-1.7-1.4-2.1-2.5c-0.4,1.2-1.1,2.1-2.1,2.7l-0.8-1.1
		c1.6-0.7,2.3-2.5,2.3-4.3v-1.3h1.3V91.9z M162,89.9v9.2h-1.3v-5.3h-1.8v-1.1h1.8v-2.9H162z"/>
	<path class="st0" d="M167.8,92.2c0,1.5,0.4,3,1.6,3.8l-0.7,1c-0.8-0.5-1.3-1.3-1.6-2.2c-0.3,1-0.9,1.9-1.7,2.4l-0.8-1
		c1.3-0.8,1.8-2.5,1.8-4v-1.5h1.3V92.2z M169.7,90h1.2v8.6h-1.2v-4.6h-1.1V93h1.1V90z M172.8,89.9v9.2h-1.2v-9.2H172.8z"/>
	<path class="st0" d="M178.6,95.3c-1-0.3-1.8-0.9-2.2-1.6c-0.4,0.8-1.1,1.5-2.2,1.8l-0.6-1c1.5-0.4,2.1-1.5,2.1-2.5v0H174v-1h1.8v-1
		h1.3v1h1.8v1h-1.8v0c0,1,0.7,2,2.1,2.4L178.6,95.3z M175.1,95.9h6.3v3.2h-1.3v-2.2h-5V95.9z M181.4,89.9v5.6h-1.3v-2h-1.5v-1.1h1.5
		v-2.5H181.4z"/>
	<path class="st0" d="M185.8,91.2h2v1h-5.4v-1h2V90h1.3V91.2z M187.5,95c0,1.3-1,2.2-2.3,2.2c-1.3,0-2.3-0.9-2.3-2.2
		c0-1.3,1-2.2,2.3-2.2C186.5,92.8,187.5,93.7,187.5,95z M186.2,95c0-0.7-0.5-1.1-1.1-1.1c-0.6,0-1.1,0.4-1.1,1.1s0.5,1.1,1.1,1.1
		C185.8,96.1,186.2,95.7,186.2,95z M191,94.6h-1.3v4.5h-1.3v-9.2h1.3v3.6h1.3V94.6z"/>
	<path class="st0" d="M199.6,96.9V98h-8.3v-1.1h2.9v-3.2h1.3v3.2H199.6z M197.1,95.8c0.4-1.7,0.4-3,0.4-4.1h-5.4v-1h6.7v0.9
		c0,1.1,0,2.4-0.4,4.4L197.1,95.8z"/>
</g>
<g>
	<path class="st0" d="M145.1,219.9c-1-0.3-1.8-0.9-2.2-1.7c-0.4,0.9-1.2,1.6-2.2,1.9l-0.6-1c1.5-0.5,2.2-1.6,2.2-2.7v-0.7h1.3v0.7
		c0,1.1,0.7,2.2,2.1,2.6L145.1,219.9z M148,223.5v1h-6.4V222h4.8v-0.5h-4.8v-1h6.1v2.5H143v0.6H148z M147.8,220h-1.3v-4.6h1.3V220z"
		/>
	<path class="st0" d="M157.3,222.5v1.1h-8.3v-1.1h3.5v-1.4h-2.5V218h5.1v-1h-5.1v-1h6.4v3.1h-5.1v1h5.3v1.1h-2.8v1.4H157.3z"/>
	<path class="st0" d="M164.3,220.6h-4.4v-4.4h4.4V220.6z M162.2,223.4h4.9v1h-6.3v-3h1.3V223.4z M163,217.2h-1.8v2.4h1.8V217.2z
		 M168.1,218v1.1h-1.2v3h-1.3v-6.7h1.3v2.7H168.1z"/>
	<path class="st0" d="M176.7,218.9v1h-8.3v-1H176.7z M170.7,223.5h5.3v1h-6.6V222h5v-0.5h-5.1v-1h6.4v2.4h-5V223.5z M175.7,218.4
		h-6.3v-2.9h6.2v1h-4.9v0.8h5V218.4z"/>
	<path class="st0" d="M184.9,215.3v9.2h-1.3v-4.8h-1.5c-0.1,1.8-1.1,2.8-2.4,2.8c-1.4,0-2.4-1.3-2.4-3.3c0-2,1-3.3,2.4-3.3
		c1.2,0,2.2,1,2.3,2.7h1.5v-3.3H184.9z M180.8,219.3c0-1.4-0.4-2.1-1.1-2.1c-0.7,0-1.1,0.7-1.1,2.1c0,1.4,0.4,2.1,1.1,2.1
		C180.4,221.4,180.8,220.6,180.8,219.3z"/>
</g>
<g>
	<path class="st0" d="M18.6,211.7v9.2h-1.2v-4.6h-0.7v4.2h-1.2v-2.7l-0.7,1c-0.8-0.4-1.3-1.2-1.7-2.1c-0.3,1.1-0.8,1.9-1.7,2.4
		l-0.8-1c1.4-0.8,1.8-2.4,1.8-4.2v-0.3h-1.5v-1.1h4.2v1.1h-1.4v0.3c0,1.6,0.5,3.1,1.8,3.8v-6h1.2v3.4h0.7v-3.5H18.6z"/>
	<path class="st0" d="M23.3,216.8c-0.8-0.3-1.3-0.8-1.6-1.5c-0.3,0.8-0.9,1.4-1.7,1.8l-0.7-1c1.3-0.6,1.8-1.7,1.8-2.7v-1.1h1.3v1.1
		c0,1,0.5,2,1.7,2.5L23.3,216.8z M27.3,219.2c0,1.1-1.2,1.7-3.2,1.7c-1.9,0-3.2-0.6-3.2-1.7c0-1.1,1.2-1.7,3.2-1.7
		C26.1,217.5,27.3,218.2,27.3,219.2z M26,219.2c0-0.5-0.7-0.7-1.8-0.7c-1.2,0-1.9,0.2-1.9,0.7s0.7,0.7,1.9,0.7
		C25.3,220,26,219.7,26,219.2z M25.3,217.1H24v-5.2h1.2v2.1H26v-2.2h1.2v5.6H26v-2.3h-0.7V217.1z"/>
	<path class="st0" d="M38.4,215.7v1h-8.3v-1h3.5v-0.5h-2.7v-1H32V213h-1.2v-1h6.8v1h-1.2v1.2h1.1v1h-2.7v0.5H38.4z M32.3,219.9h5.3
		v0.9H31v-2.3h5v-0.5H31v-0.9h6.4v2.3h-5V219.9z M33.3,214.1h1.9V213h-1.9V214.1z"/>
	<path class="st0" d="M40.7,217.8c1.4,0,2.6-0.1,3.9-0.3l0.1,1.1c-1.5,0.3-2.8,0.3-4.5,0.3h-0.8v-3.8h3v-1.5h-3v-1h4.3v3.6h-3V217.8
		z M46.5,211.7v9.2h-1.3v-9.2H46.5z"/>
	<path class="st0" d="M52.4,211.9h1.2v8.6h-1.2v-4.3h-0.7c-0.1,1.8-0.9,2.9-2,2.9c-1.2,0-2-1.3-2-3.3c0-2.1,0.8-3.3,2-3.3
		c1.1,0,1.8,1,2,2.7h0.7V211.9z M50.5,215.7c0-1.4-0.3-2.1-0.8-2.1c-0.5,0-0.8,0.7-0.8,2.1c0,1.4,0.3,2.1,0.8,2.1
		C50.2,217.9,50.5,217.2,50.5,215.7z M55.6,211.7v9.2h-1.2v-9.2H55.6z"/>
	<path class="st0" d="M64.8,218.8v1.1h-8.3v-1.1H64.8z M64,217.2c-1.6-0.3-2.8-1.2-3.4-2.4c-0.6,1.2-1.8,2.1-3.4,2.4l-0.6-1.1
		c2.1-0.4,3.2-1.8,3.2-3.1v-0.7h1.4v0.7c0,1.3,1.1,2.8,3.2,3.1L64,217.2z"/>
	<path class="st0" d="M67,217.8c1.2,0,2.2-0.1,3.4-0.2l0.1,1.1c-1.3,0.2-2.5,0.2-4.1,0.2h-0.7v-6.4h4.3v1.1H67v1.5h2.6v1H67V217.8z
		 M73,211.7v9.2h-1.3v-4.9h-1.6V215h1.6v-3.2H73z"/>
	<path class="st0" d="M20.2,229.8c-1.1-0.3-1.8-0.8-2.2-1.6c-0.4,0.8-1.2,1.5-2.2,1.8l-0.6-1c1.4-0.4,2.1-1.3,2.2-2.2h-1.8v-1h1.9
		v-0.9h1.3v0.9h1.8v1h-1.8c0.1,0.9,0.8,1.7,2.2,2.1L20.2,229.8z M21.3,230.2h1.3v3.6h-6.1v-3.6h1.3v0.8h3.5V230.2z M21.3,232h-3.5
		v0.8h3.5V232z M22.6,224.8v5.1h-1.3v-5.1H22.6z"/>
	<path class="st0" d="M32.1,231.8v1.1h-8.3v-1.1H32.1z M31.4,227.9c0,1.6-1.5,2.7-3.4,2.7c-1.9,0-3.4-1.1-3.4-2.7
		c0-1.6,1.5-2.7,3.4-2.7C29.9,225.2,31.4,226.3,31.4,227.9z M25.8,227.9c0,1,0.9,1.6,2.1,1.6c1.3,0,2.1-0.6,2.1-1.6
		c0-1-0.9-1.6-2.1-1.6C26.7,226.3,25.8,226.9,25.8,227.9z"/>
	<path class="st0" d="M40.9,231.9v1.1h-8.3v-1.1h3.5v-1.4h-2.5v-3.1h5.1v-1h-5.1v-1H40v3.1h-5.1v1h5.3v1.1h-2.8v1.4H40.9z"/>
	<path class="st0" d="M47.9,230h-4.4v-4.4h4.4V230z M45.9,232.8h4.9v1h-6.3v-3h1.3V232.8z M46.6,226.6h-1.8v2.4h1.8V226.6z
		 M51.7,227.4v1.1h-1.2v3h-1.3v-6.7h1.3v2.7H51.7z"/>
	<path class="st0" d="M60.4,228.3v1h-8.3v-1H60.4z M54.3,232.9h5.3v1H53v-2.5h5v-0.5H53v-1h6.4v2.4h-5V232.9z M59.4,227.8h-6.3v-2.9
		h6.2v1h-4.9v0.8h5V227.8z"/>
	<path class="st0" d="M69.2,231.8v1.1h-8.3v-1.1h2.9v-3.2h1.3v3.2H69.2z M66.7,230.7c0.4-1.7,0.4-3,0.4-4.1h-5.4v-1h6.7v0.9
		c0,1.1,0,2.4-0.4,4.4L66.7,230.7z"/>
</g>
<g>
	<path class="st0" d="M105.6,480.7c-1.9,0.3-3.9,0.4-5.4,0.4l-0.2-1c0.6,0,1.4,0,2.1,0v-0.7c-1-0.2-1.6-0.9-1.6-1.8
		c0-1.1,1-1.9,2.3-1.9c1.3,0,2.3,0.8,2.3,1.9c0,0.9-0.6,1.6-1.6,1.8v0.7c0.7,0,1.4-0.1,2.1-0.2L105.6,480.7z M102.5,483.3h5.1v1
		h-6.4v-2.6h1.3V483.3z M102.8,478.4c0.6,0,1.1-0.3,1.1-0.9c0-0.6-0.4-0.9-1.1-0.9c-0.6,0-1.1,0.3-1.1,0.9
		C101.7,478.1,102.1,478.4,102.8,478.4z M108.5,478.1v1.1h-1.2v3H106v-7h1.3v2.9H108.5z"/>
	<path class="st0" d="M113.7,480.4c-1-0.3-1.6-1-2-1.8c-0.4,0.9-1.1,1.7-2.2,2l-0.7-1.1c1.6-0.5,2.2-1.7,2.2-3v-0.8h1.3v0.8
		c0,1.2,0.6,2.4,2.1,2.8L113.7,480.4z M116.6,482.7c0,1.1-1.2,1.8-3.1,1.8c-2,0-3.2-0.7-3.2-1.8c0-1.1,1.2-1.8,3.2-1.8
		C115.4,480.9,116.6,481.5,116.6,482.7z M115.2,482.7c0-0.5-0.6-0.8-1.8-0.8c-1.2,0-1.8,0.3-1.8,0.8c0,0.5,0.6,0.8,1.8,0.8
		C114.6,483.5,115.2,483.2,115.2,482.7z M115.2,478h-1.7v-1.1h1.7v-1.7h1.3v5.4h-1.3V478z"/>
	<path class="st0" d="M118.1,482.8c0-0.5,0.4-1,0.9-1c0.5,0,0.9,0.4,0.9,1c0,0.5-0.4,1-0.9,1C118.5,483.7,118.1,483.3,118.1,482.8z
		 M118.4,477.4l0-1.4h1.5l0,1.4l-0.2,3.7h-1L118.4,477.4z"/>
</g>
</svg>
