<?xml version="1.0" encoding="utf-8"?>
<!-- Generator: Adobe Illustrator 21.0.0, SVG Export Plug-In . SVG Version: 6.00 Build 0)  -->
<svg version="1.1" id="레이어_1" xmlns="http://www.w3.org/2000/svg" xmlns:xlink="http://www.w3.org/1999/xlink" x="0px"
	 y="0px" viewBox="0 0 90.7 135.8" style="enable-background:new 0 0 90.7 135.8;" xml:space="preserve">
<style type="text/css">
	.st0{fill:#00A040;}
</style>
<g id="レイヤー_2">
	<g id="design">
		<path class="st0" d="M0,0v90.7h90.7V0H0z M86.9,86.9H3.8V3.8h83.2V86.9z"/>
		<rect x="71.8" y="49.1" class="st0" width="7.6" height="7.6"/>
		<rect x="56.7" y="49.1" class="st0" width="7.6" height="7.6"/>
		<rect x="64.3" y="56.7" class="st0" width="7.6" height="7.6"/>
		<rect x="49.1" y="56.7" class="st0" width="7.6" height="7.6"/>
		<rect x="64.3" y="41.6" class="st0" width="7.6" height="7.6"/>
		<rect x="49.1" y="41.6" class="st0" width="7.6" height="7.6"/>
		<rect x="71.8" y="64.3" class="st0" width="7.6" height="7.6"/>
		<rect x="56.7" y="64.3" class="st0" width="7.6" height="7.6"/>
		<rect x="56.7" y="18.9" class="st0" width="7.6" height="7.6"/>
		<rect x="64.3" y="26.5" class="st0" width="7.6" height="7.6"/>
		<rect x="49.1" y="26.5" class="st0" width="7.6" height="7.6"/>
		<rect x="64.3" y="11.3" class="st0" width="7.6" height="7.6"/>
		<rect x="49.1" y="11.3" class="st0" width="7.6" height="7.6"/>
		<rect x="71.8" y="34" class="st0" width="7.6" height="7.6"/>
		<rect x="56.7" y="34" class="st0" width="7.6" height="7.6"/>
		<rect x="64.3" y="71.8" class="st0" width="7.6" height="7.6"/>
		<rect x="49.1" y="71.8" class="st0" width="7.6" height="7.6"/>
		<path class="st0" d="M40,26.5c-1-0.4-1.8-1.1-2.3-2c1.2-0.4,2-1.5,2-2.7v-7.6c0-1.6-1.3-2.8-2.8-2.8H23.6c-1.6,0-2.8,1.3-2.8,2.8
			v7.6c0,1.2,0.8,2.3,2,2.7c-0.5,0.9-1.3,1.6-2.3,2c-9.9,3.9-9.2,8.6-9.2,13.2l0,0v3.8l0,0v18.9l0,0v3.8l0,0v6l0,0
			c0,4,3.2,7.3,7.2,7.3c2.3,0,4.5-1.1,5.8-2.9c2.4,3.2,6.9,3.9,10.1,1.6c0.6-0.4,1.1-1,1.6-1.6c2.4,3.2,6.9,3.9,10.1,1.5
			c1.9-1.4,3-3.6,3-5.9V39.7C49.1,35,49.9,30.3,40,26.5z M24.5,16.6v-1.6H36v5.8H24.5V16.6z M45.4,72.1c0,2-1.6,3.5-3.5,3.5
			c-1.1,0-2.2-0.5-2.8-1.4c-1.2-1.7-3.6-2-5.2-0.8c-0.3,0.2-0.5,0.5-0.8,0.8c-1.1,1.6-3.3,1.9-4.8,0.8c-0.3-0.2-0.6-0.5-0.8-0.8
			c-0.7-0.9-1.8-1.5-3-1.5l0,0c-1.2,0-2.3,0.6-3,1.5c-0.7,0.9-1.7,1.4-2.8,1.4c-1.9,0-3.5-1.6-3.5-3.5v-6h30.3V72.1z M45.4,62.4
			H15.1V43.5h30.3V62.4z M45.4,38.7c0,0.3,0,0.6,0,1H15.1v-1c-0.1-3.9-0.1-6.1,6.8-8.8c2.4-0.9,4.2-2.9,4.9-5.4h6.9
			c0.7,2.5,2.5,4.4,4.9,5.4C45.5,32.6,45.5,34.8,45.4,38.7L45.4,38.7z"/>
		<path class="st0" d="M19.7,54.8h1.9c2.1,0,3.8-1.7,3.8-3.8c0-2.1-1.7-3.8-3.8-3.8h-3.8v11.3h1.9V54.8z M19.7,49.1h1.9
			c1,0,1.9,0.8,1.9,1.9c0,1-0.8,1.9-1.9,1.9c0,0,0,0,0,0h-1.9V49.1z"/>
		<polygon class="st0" points="33.9,56.7 28.2,56.7 28.2,53.9 32,53.9 32,52 28.2,52 28.2,49.1 33.9,49.1 33.9,47.2 26.3,47.2 
			26.3,58.6 33.9,58.6 		"/>
		<polygon class="st0" points="37.9,58.6 39.8,58.6 39.8,49.1 42.6,49.1 42.6,47.2 35.1,47.2 35.1,49.1 37.9,49.1 		"/>
	</g>
</g>
<g>
	<path class="st0" d="M44.5,103.7v13.8h-1.9v-6.9h-1.1v6.3h-1.8v-4l-1.1,1.5c-1.2-0.7-2-1.8-2.5-3.1c-0.5,1.6-1.3,2.9-2.6,3.7
		l-1.2-1.5c2.1-1.2,2.7-3.6,2.7-6.3v-0.4h-2.3v-1.6h6.3v1.6h-2.1v0.4c0,2.4,0.7,4.7,2.7,5.8V104h1.8v5.1h1.1v-5.3H44.5z"/>
	<path class="st0" d="M51.6,111.4c-1.1-0.5-1.9-1.3-2.4-2.3c-0.5,1.2-1.3,2.2-2.6,2.7l-1-1.5c1.9-0.8,2.7-2.5,2.7-4.1v-1.6h1.9v1.6
		c0,1.5,0.8,3,2.6,3.7L51.6,111.4z M57.5,115c0,1.6-1.8,2.6-4.7,2.6c-2.9,0-4.8-1-4.8-2.6c0-1.6,1.9-2.6,4.8-2.6
		C55.7,112.4,57.5,113.4,57.5,115z M55.6,115c0-0.7-1-1.1-2.8-1.1c-1.8,0-2.8,0.4-2.8,1.1s1,1.1,2.8,1.1
		C54.6,116.1,55.6,115.7,55.6,115z M54.5,111.8h-1.8V104h1.8v3.1h1.1v-3.4h1.9v8.4h-1.9v-3.5h-1.1V111.8z"/>
	<path class="st0" d="M25.2,127.6v1.6H12.7v-1.6h5.2v-0.8h-4v-1.5h1.7v-1.8h-1.8v-1.5h10.3v1.5h-1.8v1.8H24v1.5h-4v0.8H25.2z
		 M16.1,134H24v1.4h-9.9V132h7.6v-0.7h-7.6v-1.4h9.5v3.4h-7.6V134z M17.5,125.3h2.8v-1.8h-2.8V125.3z"/>
	<path class="st0" d="M28.7,130.8c2.1,0,3.8-0.1,5.8-0.5l0.2,1.6c-2.3,0.4-4.3,0.5-6.8,0.5h-1.2v-5.7h4.5v-2.2h-4.5v-1.6h6.5v5.3
		h-4.5V130.8z M37.4,121.7v13.9h-2v-13.9H37.4z"/>
	<path class="st0" d="M46.3,122h1.8v13h-1.8v-6.5h-1.1c-0.2,2.7-1.3,4.3-3,4.3c-1.8,0-3-1.9-3-5c0-3.1,1.2-5,3-5
		c1.6,0,2.7,1.5,3,4.1h1.1V122z M43.4,127.7c0-2.1-0.4-3.1-1.2-3.1c-0.8,0-1.2,1-1.2,3.1c0,2.1,0.5,3.2,1.2,3.2
		C43,130.9,43.4,129.9,43.4,127.7z M50.9,121.7v13.8h-1.9v-13.8H50.9z"/>
	<path class="st0" d="M64.8,132.3v1.6H52.3v-1.6H64.8z M63.5,129.9c-2.4-0.5-4.2-1.8-5.1-3.6c-0.9,1.8-2.6,3.1-5,3.6l-0.8-1.6
		c3.1-0.5,4.8-2.7,4.8-4.7v-1h2.1v1c0,2,1.7,4.2,4.8,4.7L63.5,129.9z"/>
	<path class="st0" d="M68.1,130.9c1.9,0,3.4-0.1,5.1-0.4l0.2,1.6c-2,0.3-3.8,0.4-6.1,0.4h-1.1v-9.6h6.4v1.6h-4.4v2.3h4v1.5h-4V130.9
		z M77.1,121.7v13.9h-2v-7.4h-2.4v-1.6h2.4v-4.9H77.1z"/>
</g>
</svg>
