<svg id="レイヤー_1" data-name="レイヤー 1" xmlns="http://www.w3.org/2000/svg" width="650" height="650" viewBox="0 0 650 650">
  <defs>
    <style>
      .cls-1 {
        fill: #fff;
      }
    </style>
  </defs>
  <title>main_title_sp</title>
  <g>
    <path class="cls-1" d="M64.75,56.74a19.68,19.68,0,0,1-9.07-2.16,23.72,23.72,0,0,1-7.41-5.94,29.18,29.18,0,0,1-5-8.88A31.45,31.45,0,0,1,41.37,28.9a31,31,0,0,1,1.86-10.8,29.34,29.34,0,0,1,5-8.82,24.5,24.5,0,0,1,7.41-6,19.25,19.25,0,0,1,9.07-2.22h24.8a19.57,19.57,0,0,1,9.12,2.22,24.21,24.21,0,0,1,7.46,6,28.61,28.61,0,0,1,5,8.82,31.64,31.64,0,0,1,1.81,10.8,32.15,32.15,0,0,1-1.81,10.86,28.46,28.46,0,0,1-5,8.88,23.46,23.46,0,0,1-7.46,5.94,20,20,0,0,1-9.12,2.16Zm0-39a7.68,7.68,0,0,0-3.63.9,9.82,9.82,0,0,0-3,2.4,12,12,0,0,0-2,3.54,12.82,12.82,0,0,0,0,8.64,12,12,0,0,0,2,3.54,9.82,9.82,0,0,0,3,2.4,7.68,7.68,0,0,0,3.63.9h24.8a7.62,7.62,0,0,0,3.68-.9,10.65,10.65,0,0,0,5-5.94,13.68,13.68,0,0,0,0-8.64,10.65,10.65,0,0,0-5-5.94,7.62,7.62,0,0,0-3.68-.9Z"/>
    <path class="cls-1" d="M112.23,122.86H64.75a19.68,19.68,0,0,1-9.07-2.16,23.72,23.72,0,0,1-7.41-5.94,29.18,29.18,0,0,1-5-8.88A31.45,31.45,0,0,1,41.37,95a31,31,0,0,1,1.86-10.8,29.34,29.34,0,0,1,5-8.82,24.5,24.5,0,0,1,7.41-6,19.25,19.25,0,0,1,9.07-2.22h47.48V83.86H64.75a7.68,7.68,0,0,0-3.63.9,9.82,9.82,0,0,0-3,2.4,12,12,0,0,0-2,3.54,12.82,12.82,0,0,0,0,8.64,12,12,0,0,0,2,3.54,9.82,9.82,0,0,0,3,2.4,7.68,7.68,0,0,0,3.63.9h47.48Z"/>
    <path class="cls-1" d="M42.07,190.66V174l23.39-9.36v-13H42.07V135h70.16v27.84a32.15,32.15,0,0,1-1.82,10.86,28.46,28.46,0,0,1-5,8.88A23.42,23.42,0,0,1,98,188.5a20,20,0,0,1-9.13,2.16q-11.19,0-18.65-11Zm37.4-39v11.16a12.28,12.28,0,0,0,.75,4.38,13.09,13.09,0,0,0,2,3.54,8.75,8.75,0,0,0,3,2.4,8.26,8.26,0,0,0,7.26,0,8.88,8.88,0,0,0,3-2.4,13.07,13.07,0,0,0,2-3.54,12.06,12.06,0,0,0,.76-4.38V151.66Z"/>
  </g>
  <g>
    <path class="cls-1" d="M82.88,281.87a39.69,39.69,0,0,1,13.39,2.23,35.41,35.41,0,0,1,11,6.16,29,29,0,0,1,7.33,9.2,24.71,24.71,0,0,1,2.66,11.25,24.34,24.34,0,0,1-2.66,11.19,29.22,29.22,0,0,1-7.33,9.14,36.13,36.13,0,0,1-11,6.21,38.53,38.53,0,0,1-13.39,2.3H69.11v28.84H48.54V281.87Zm-13.77,40.4H82.88a15.08,15.08,0,0,0,5.4-.93,15.71,15.71,0,0,0,4.36-2.49,10.6,10.6,0,0,0,3-3.66,10.17,10.17,0,0,0,0-9,10.69,10.69,0,0,0-3-3.66,15.71,15.71,0,0,0-4.36-2.49,15.08,15.08,0,0,0-5.4-.93H69.11Z"/>
    <path class="cls-1" d="M198.31,368.39H177.74L166.2,339.55h-16v28.84H129.64V281.87H164a39.65,39.65,0,0,1,13.39,2.23,35.35,35.35,0,0,1,11,6.16,29,29,0,0,1,7.32,9.2,24.58,24.58,0,0,1,2.66,11.25q0,13.8-13.61,23Zm-48.09-46.12H164a15.08,15.08,0,0,0,5.4-.93,15.91,15.91,0,0,0,4.37-2.49,10.72,10.72,0,0,0,3-3.66,10.26,10.26,0,0,0,0-9,10.81,10.81,0,0,0-3-3.66,15.91,15.91,0,0,0-4.37-2.49,15.08,15.08,0,0,0-5.4-.93H150.22Z"/>
    <path class="cls-1" d="M277.05,340.42a24.34,24.34,0,0,1-2.66,11.19,29.22,29.22,0,0,1-7.33,9.14A36.13,36.13,0,0,1,256.11,367a38.58,38.58,0,0,1-13.4,2.3,38,38,0,0,1-13.32-2.3,36.19,36.19,0,0,1-10.87-6.21,30,30,0,0,1-7.4-9.14,23.68,23.68,0,0,1-2.74-11.19V309.84a24,24,0,0,1,2.74-11.25,29.79,29.79,0,0,1,7.4-9.2,35.46,35.46,0,0,1,10.87-6.16A39.12,39.12,0,0,1,242.71,281a39.75,39.75,0,0,1,13.4,2.23,35.41,35.41,0,0,1,10.95,6.16,29,29,0,0,1,7.33,9.2,24.71,24.71,0,0,1,2.66,11.25Zm-48.1,0a9.5,9.5,0,0,0,1.11,4.48,12,12,0,0,0,3,3.66,14.45,14.45,0,0,0,4.37,2.49,15.71,15.71,0,0,0,10.65,0,14.57,14.57,0,0,0,4.37-2.49,12,12,0,0,0,3-3.66,9.5,9.5,0,0,0,1.11-4.48V309.84a9.39,9.39,0,0,0-1.11-4.54,13,13,0,0,0-7.33-6.15,16.73,16.73,0,0,0-10.65,0,13.1,13.1,0,0,0-4.37,2.48,13.25,13.25,0,0,0-3,3.67,9.39,9.39,0,0,0-1.11,4.54Z"/>
    <path class="cls-1" d="M289.63,281.87H324a39.75,39.75,0,0,1,13.4,2.23,35.41,35.41,0,0,1,10.95,6.16,29,29,0,0,1,7.33,9.2,24.71,24.71,0,0,1,2.66,11.25v28.84a24.27,24.27,0,0,1-3,11.94,28.92,28.92,0,0,1-7.84,9.07,37.54,37.54,0,0,1-11,5.78A39.18,39.18,0,0,1,324,368.39H289.63ZM324,351.11a15.24,15.24,0,0,0,5.33-.93,14.57,14.57,0,0,0,4.37-2.49,12,12,0,0,0,3-3.66,9.5,9.5,0,0,0,1.11-4.48V310.71a9.52,9.52,0,0,0-1.11-4.48,12.15,12.15,0,0,0-3-3.66,14.57,14.57,0,0,0-4.37-2.49,15.24,15.24,0,0,0-5.33-.93H310.2v52Z"/>
    <path class="cls-1" d="M439.4,281.87v58.55a24.34,24.34,0,0,1-2.66,11.19,29.22,29.22,0,0,1-7.33,9.14,36.13,36.13,0,0,1-11,6.21,38.53,38.53,0,0,1-13.39,2.3,37.89,37.89,0,0,1-13.32-2.3,36.25,36.25,0,0,1-10.88-6.21,30,30,0,0,1-7.4-9.14,23.68,23.68,0,0,1-2.74-11.19V281.87H391.3v58.55a9.5,9.5,0,0,0,1.11,4.48,12,12,0,0,0,3,3.66,14.45,14.45,0,0,0,4.37,2.49,15.71,15.71,0,0,0,10.65,0,14.45,14.45,0,0,0,4.37-2.49,12,12,0,0,0,3-3.66,9.5,9.5,0,0,0,1.11-4.48V281.87Z"/>
    <path class="cls-1" d="M500.52,309.84a9.74,9.74,0,0,0-1.11-4.6,12,12,0,0,0-3-3.67,13.65,13.65,0,0,0-4.36-2.42,16.23,16.23,0,0,0-5.33-.87,14.87,14.87,0,0,0-5.48,1,15.22,15.22,0,0,0-4.36,2.61,12,12,0,0,0-2.89,3.67,9.41,9.41,0,0,0-1,4.29v30.58a9.5,9.5,0,0,0,1.11,4.48,11.88,11.88,0,0,0,3,3.66,14.39,14.39,0,0,0,4.36,2.49,15.28,15.28,0,0,0,5.33.93,14.6,14.6,0,0,0,9.62-3.17,11.16,11.16,0,0,0,4.14-8.39H521.1a24.22,24.22,0,0,1-2.67,11.19,29.19,29.19,0,0,1-7.32,9.14,36.07,36.07,0,0,1-11,6.21,38.49,38.49,0,0,1-13.39,2.3,37.89,37.89,0,0,1-13.32-2.3,36.37,36.37,0,0,1-10.88-6.21,30.18,30.18,0,0,1-7.4-9.14,23.8,23.8,0,0,1-2.74-11.19V309.84a24.16,24.16,0,0,1,2.74-11.25,29.93,29.93,0,0,1,7.4-9.2,35.63,35.63,0,0,1,10.88-6.16A39,39,0,0,1,486.76,281a39.65,39.65,0,0,1,13.39,2.23,35.35,35.35,0,0,1,11,6.16,29,29,0,0,1,7.32,9.2,24.59,24.59,0,0,1,2.67,11.25Z"/>
    <path class="cls-1" d="M575.85,368.39H555.13V299.15h-24V281.87h68.67v17.28h-24Z"/>
  </g>
  <g>
    <path class="cls-1" d="M131.92,463.86l3.64.56c1.61.28,2.24.35,2.24,1.12s-.91.91-1.68,1c-.28.7-.77,1.68-1.61,3.36h13.58v35.7c0,6.93-1.61,9.87-13,9.87.07-.91.07-1.33.07-1.82a12.23,12.23,0,0,0-2.52-7.49v4.2h-20.3V512h-9.17V495.71a6.5,6.5,0,0,1-.7.35,13.54,13.54,0,0,0-4.9-4.62v24.08H87.47V469.88H102.1a26.92,26.92,0,0,0-2.73-5.11l5-.91H86.07v-8.4h26.46v-5l10.57.49c.7,0,1.33.21,1.33.91s-.7,1-1.33,1.26v2.31h26.67v8.4Zm-34.3,15v9.87c3.71-2.24,5.95-4.9,7.42-9.87Zm40.74,7.63c-.84,1.47-2.17,4-6.44,4h-9c-4.13,0-5.46-1.47-5.46-4.76v-6.86h-7.14l3.71,1.19c.49.14,1.47.49,1.47,1.12,0,.28,0,.77-1.89,1.19a25.13,25.13,0,0,1-6.37,10.29h25.41v13c1.4.14,2.59.35,3.36.35,2.17,0,2.31-.7,2.31-2.31Zm-28-22.61a36.45,36.45,0,0,1,3.08,5.39l-2.52.63h12.25a42.65,42.65,0,0,0,2.8-6Zm13.09,36H112.39v3.29h11.06Zm2.87-21v2.24c0,.91.07,1.54,1.4,1.54h2.1c1.33,0,1.54-1.19,2.1-3.78Zm12,0H132a20.06,20.06,0,0,0,6.37,3.36Z"/>
    <path class="cls-1" d="M167.34,511.46v3.85H157.19V482.76H185.4v31.36h-9.94v-2.66Zm8.12-8.47V491.93h-8.12V503Zm31.43-50.26v26H169.23v-26Zm-27.09,8.75v8.75h16.59v-8.75Zm20.23,50v3.85H189.88V482.76h29v32.55h-9.94v-3.85Zm8.89-8.47V491.93H200V503Z"/>
    <path class="cls-1" d="M284.66,475.48c-5,.35-10.85.84-23.52,6.58-12.32,5.6-17.22,11.62-17.22,15.05,0,5,7.49,6,16.38,6,7.77,0,18.41-1.68,23.94-4a47.56,47.56,0,0,0-.77,12.32,146,146,0,0,1-23.66,2.1c-12.18,0-16.94-1.82-20.44-3.71-4.41-2.38-7.63-6.51-7.63-12,0-9.52,8-15.47,14.91-19.81-3.5-3.92-4-7.63-5.18-16.52a28.68,28.68,0,0,0-1.89-7.49l13.72-2.94c-.28,3.57-.42,5.11-.42,7.35,0,8.4,2.45,13.79,3.08,14.91a221.81,221.81,0,0,1,24.43-10Z"/>
    <path class="cls-1" d="M309.3,491.58c-.35,7.91-1.4,15.89-5,22.82a33,33,0,0,0-9.66-3.5c5.53-9.94,5.53-20.58,5.53-29.68v-28.7h23.38V507.4c0,4.06,0,7.56-11.83,7.56a25.76,25.76,0,0,0-2.87-9.94c.77.07,2.73.21,3.57.21,1.54,0,2.1-.28,2.1-2.94V491.58Zm5.25-23.87v-6.79h-5.11v6.79Zm0,15.33V475.9h-5.11V483ZM335.2,515h-9.38V452.52H356.9c0,3.29,0,13.44-.21,16-.21,2.94-1.26,5.11-6.86,6.16a21.32,21.32,0,0,1-5,.35,13.93,13.93,0,0,0-3.64-7.77c.84.07,3.92.35,4.34.35,1.54,0,1.54-.91,1.54-3.22v-3.43H335.2v15.82h18.62l5,3.22c-.63,3-2.38,12.18-7.21,21a50.07,50.07,0,0,0,8.26,7.42,88.8,88.8,0,0,0-6.37,7.49,45.15,45.15,0,0,1-7.42-6.58,34.57,34.57,0,0,1-6.58,6.79,22.9,22.9,0,0,0-4.27-4.41Zm6.86-30H335.2v23a34.48,34.48,0,0,0,5.39-5.81,44,44,0,0,1-5.32-13.65Zm.35,0a32.06,32.06,0,0,0,3.29,7.84,43.23,43.23,0,0,0,2.31-7.84Z"/>
    <path class="cls-1" d="M365,468.2a88.09,88.09,0,0,0,15.75-3.36c15.19-4.13,17.57-4.76,23.59-4.76,18.34,0,25.69,11.34,25.69,22.12,0,13.79-11.06,20.44-15.19,22.4-10.57,4.9-23,5.39-28,5.6A56.76,56.76,0,0,0,382.38,498a44.62,44.62,0,0,0,8.05.63c14.91,0,27.79-5.11,27.79-16.31,0-8-5.81-11.9-15-11.9-10.85,0-25.62,7-33.6,10.85Zm52-19a42.32,42.32,0,0,1,5.25,7.42,35.93,35.93,0,0,0-5.6,3.36,72.7,72.7,0,0,0-5.18-7.28Zm9.38-.63a58.14,58.14,0,0,1,4.55,6.93l-5.18,3.29a51.71,51.71,0,0,0-4.41-6.86Z"/>
    <path class="cls-1" d="M486.61,457c.42.35.7.63.7,1.05a.74.74,0,0,1-.84.77,4.15,4.15,0,0,1-1.19-.28c-1.4,1.33-12.81,10.22-15.19,12.25-3.22,2.73-7.14,6.09-9.73,8.4-2.24,2-2.45,2.31-2.45,2.87s.28.91,3,2.45c.21.14,6.65,4.41,12.95,9.24,7.91,6.09,11.27,9.66,14.49,13.72a44.18,44.18,0,0,0-8.05,9.45c-3.08-4.55-14.63-16.73-35.28-30.1a4.89,4.89,0,0,1-2.38-4.13c0-1.82.28-2.66,7.35-8.26a185,185,0,0,0,26.67-25.13Z"/>
    <path class="cls-1" d="M527.91,454.27c1.26.28,2,.49,2,1.26s-1.19,1.12-1.68,1.19a53.48,53.48,0,0,0-3.08,17.85,26.56,26.56,0,0,0,.63,6.23c.56-1.12.77-1.68,1.61-3.71a16,16,0,0,1,2.17-4,50.56,50.56,0,0,0,7,5.81c-1.12,1.82-5.74,9.38-7.21,17.71l-10,1.19a70.42,70.42,0,0,1-5-26c0-5.6.63-9.87,2.31-17.29.35-1.54.35-1.89.49-2.73Zm32-2.59c.7,0,1.61.07,1.61,1s-.63.91-1.12,1c.07,2.45,1,13.09,1.12,15.26.21,2.52.35,5.46.35,8.19,0,8.82-.7,26.81-21.07,38.5-4.27-5.67-7.56-7.35-9.1-8.19,16.8-8.12,18.41-20.23,18.41-30.52,0-8.61-.42-17.29-2.66-25.62Z"/>
  </g>
</svg>
