<svg id="レイヤー_1" data-name="レイヤー 1" xmlns="http://www.w3.org/2000/svg" width="960" height="480" viewBox="0 0 960 480">
  <defs>
    <style>
      .cls-1 {
        fill: #fff;
      }
    </style>
  </defs>
  <title>main_title_pc</title>
  <g>
    <path class="cls-1" d="M64.6,56.68a19.68,19.68,0,0,1-9.07-2.16,23.72,23.72,0,0,1-7.41-5.94,29.18,29.18,0,0,1-5-8.88,31.45,31.45,0,0,1-1.86-10.86A31,31,0,0,1,43.08,18a29.34,29.34,0,0,1,5-8.82,24.5,24.5,0,0,1,7.41-6A19.25,19.25,0,0,1,64.6,1H89.4a19.57,19.57,0,0,1,9.12,2.22,24.21,24.21,0,0,1,7.46,6A28.61,28.61,0,0,1,111,18a31.64,31.64,0,0,1,1.81,10.8A32.15,32.15,0,0,1,111,39.7a28.46,28.46,0,0,1-5,8.88,23.46,23.46,0,0,1-7.46,5.94,20,20,0,0,1-9.12,2.16Zm0-39a7.74,7.74,0,0,0-3.63.9A9.82,9.82,0,0,0,58,21a12,12,0,0,0-2,3.54,12.82,12.82,0,0,0,0,8.64,12,12,0,0,0,2,3.54,9.82,9.82,0,0,0,3,2.4,7.74,7.74,0,0,0,3.63.9H89.4a7.62,7.62,0,0,0,3.68-.9,10.65,10.65,0,0,0,5-5.94,13.68,13.68,0,0,0,0-8.64,10.65,10.65,0,0,0-5-5.94,7.62,7.62,0,0,0-3.68-.9Z"/>
    <path class="cls-1" d="M112.08,122.8H64.6a19.68,19.68,0,0,1-9.07-2.16,23.72,23.72,0,0,1-7.41-5.94,29.18,29.18,0,0,1-5-8.88A31.45,31.45,0,0,1,41.22,95a31,31,0,0,1,1.86-10.8,29.34,29.34,0,0,1,5-8.82,24.5,24.5,0,0,1,7.41-6,19.25,19.25,0,0,1,9.07-2.22h47.48V83.8H64.6a7.74,7.74,0,0,0-3.63.9,9.82,9.82,0,0,0-3,2.4,12,12,0,0,0-2,3.54,12.82,12.82,0,0,0,0,8.64,12,12,0,0,0,2,3.54,9.82,9.82,0,0,0,3,2.4,7.74,7.74,0,0,0,3.63.9h47.48Z"/>
    <path class="cls-1" d="M41.92,190.6V173.92l23.39-9.36v-13H41.92V134.92h70.16v27.84a32.15,32.15,0,0,1-1.82,10.86,28.44,28.44,0,0,1-5,8.88,23.57,23.57,0,0,1-7.46,5.94,20,20,0,0,1-9.13,2.16q-11.19,0-18.64-11Zm37.4-39v11.16a12.06,12.06,0,0,0,.76,4.38,12.81,12.81,0,0,0,2,3.54,8.75,8.75,0,0,0,3,2.4,8.26,8.26,0,0,0,7.26,0,8.79,8.79,0,0,0,3-2.4,12.81,12.81,0,0,0,2-3.54,12.06,12.06,0,0,0,.76-4.38V151.6Z"/>
  </g>
  <g>
    <path class="cls-1" d="M190.22,158a47.54,47.54,0,0,1,16.11,2.69,42.2,42.2,0,0,1,13.18,7.4,35,35,0,0,1,8.81,11.06,29.74,29.74,0,0,1,3.2,13.53,29.27,29.27,0,0,1-3.2,13.46,35.21,35.21,0,0,1-8.81,11,43.59,43.59,0,0,1-13.18,7.48,46.61,46.61,0,0,1-16.11,2.76H173.67v34.69H148.93V158Zm-16.55,48.59h16.55a18,18,0,0,0,6.5-1.12,19.06,19.06,0,0,0,5.25-3,13.07,13.07,0,0,0,3.56-4.41,12.22,12.22,0,0,0,0-10.77,13.07,13.07,0,0,0-3.56-4.41,19.32,19.32,0,0,0-5.25-3,18,18,0,0,0-6.5-1.12H173.67Z"/>
    <path class="cls-1" d="M329.06,262.09H304.32L290.44,227.4H271.21v34.69H246.47V158h41.3a47.62,47.62,0,0,1,16.11,2.69,42.26,42.26,0,0,1,13.17,7.4,34.88,34.88,0,0,1,8.81,11.06,29.74,29.74,0,0,1,3.2,13.53q0,16.6-16.37,27.66Zm-57.85-55.47h16.56a18,18,0,0,0,6.49-1.12,19.06,19.06,0,0,0,5.25-3,13,13,0,0,0,3.56-4.41,12.22,12.22,0,0,0,0-10.77,13,13,0,0,0-3.56-4.41,19.32,19.32,0,0,0-5.25-3,18,18,0,0,0-6.49-1.12H271.21Z"/>
    <path class="cls-1" d="M423.76,228.45a29.19,29.19,0,0,1-3.21,13.46,35,35,0,0,1-8.81,11,43.43,43.43,0,0,1-13.17,7.47,46.42,46.42,0,0,1-16.11,2.77,45.63,45.63,0,0,1-16-2.77,43.68,43.68,0,0,1-13.08-7.47,36.2,36.2,0,0,1-8.9-11,28.54,28.54,0,0,1-3.3-13.46V191.67a28.91,28.91,0,0,1,3.3-13.53,35.8,35.8,0,0,1,8.9-11.07,42.48,42.48,0,0,1,13.08-7.4,47,47,0,0,1,16-2.69,47.83,47.83,0,0,1,16.11,2.69,42.26,42.26,0,0,1,13.17,7.4,34.67,34.67,0,0,1,8.81,11.07,29.56,29.56,0,0,1,3.21,13.53Zm-57.85,0a11.4,11.4,0,0,0,1.33,5.38,14.45,14.45,0,0,0,3.56,4.41,17.25,17.25,0,0,0,5.25,3,18.9,18.9,0,0,0,12.82,0,17.37,17.37,0,0,0,5.25-3,14.45,14.45,0,0,0,3.56-4.41,11.4,11.4,0,0,0,1.33-5.38V191.67a11.26,11.26,0,0,0-1.33-5.46,15.9,15.9,0,0,0-3.56-4.41,15.67,15.67,0,0,0-5.25-3,20.09,20.09,0,0,0-12.82,0,15.57,15.57,0,0,0-5.25,3,15.9,15.9,0,0,0-3.56,4.41,11.26,11.26,0,0,0-1.33,5.46Z"/>
    <path class="cls-1" d="M438.88,158h41.3a47.58,47.58,0,0,1,16.11,2.69,42.26,42.26,0,0,1,13.17,7.4,34.74,34.74,0,0,1,8.81,11.06,29.62,29.62,0,0,1,3.21,13.53V227.4a29.18,29.18,0,0,1-3.56,14.36,34.92,34.92,0,0,1-9.44,10.91,45.19,45.19,0,0,1-13.26,7,47,47,0,0,1-15,2.47h-41.3Zm41.3,83.28a18.51,18.51,0,0,0,6.41-1.12,17.93,17.93,0,0,0,5.25-3,14.7,14.7,0,0,0,3.56-4.41,11.44,11.44,0,0,0,1.33-5.39V192.71a11.43,11.43,0,0,0-1.33-5.38,14.7,14.7,0,0,0-3.56-4.41,17.93,17.93,0,0,0-5.25-3,18.28,18.28,0,0,0-6.41-1.12H463.63v62.5Z"/>
    <path class="cls-1" d="M619,158v70.42a29.19,29.19,0,0,1-3.21,13.46,35,35,0,0,1-8.81,11,43.43,43.43,0,0,1-13.17,7.47,46.38,46.38,0,0,1-16.11,2.77,45.71,45.71,0,0,1-16-2.77,43.68,43.68,0,0,1-13.08-7.47,36.2,36.2,0,0,1-8.9-11,28.53,28.53,0,0,1-3.29-13.46V158h24.74v70.42a11.4,11.4,0,0,0,1.33,5.38,14.45,14.45,0,0,0,3.56,4.41,17.49,17.49,0,0,0,5.25,3,18.9,18.9,0,0,0,12.82,0,17.25,17.25,0,0,0,5.25-3,14.45,14.45,0,0,0,3.56-4.41,11.41,11.41,0,0,0,1.34-5.38V158Z"/>
    <path class="cls-1" d="M692.53,191.67a11.67,11.67,0,0,0-1.33-5.53,14.77,14.77,0,0,0-3.56-4.42,16.65,16.65,0,0,0-5.26-2.91,19.39,19.39,0,0,0-6.4-1.05,18,18,0,0,0-11.84,4.34,14.29,14.29,0,0,0-3.47,4.41,11.29,11.29,0,0,0-1.25,5.16v36.78a11.41,11.41,0,0,0,1.34,5.38,14.31,14.31,0,0,0,3.56,4.41,17.25,17.25,0,0,0,5.25,3,18.2,18.2,0,0,0,6.41,1.12,17.62,17.62,0,0,0,11.57-3.81,13.49,13.49,0,0,0,5-10.09h24.74a29.3,29.3,0,0,1-3.2,13.46,35.32,35.32,0,0,1-8.81,11,43.43,43.43,0,0,1-13.17,7.47A46.46,46.46,0,0,1,676,263.14a45.63,45.63,0,0,1-16-2.77,43.61,43.61,0,0,1-13.09-7.47,36.5,36.5,0,0,1-8.9-11,28.65,28.65,0,0,1-3.29-13.46V191.67A29,29,0,0,1,638,178.14a36.09,36.09,0,0,1,8.9-11.07,42.41,42.41,0,0,1,13.09-7.4A47,47,0,0,1,676,157a47.87,47.87,0,0,1,16.11,2.69,42.26,42.26,0,0,1,13.17,7.4,35,35,0,0,1,8.81,11.07,29.68,29.68,0,0,1,3.2,13.53Z"/>
    <path class="cls-1" d="M783.13,262.09H758.21V178.81H729.37V158H812v20.78H783.13Z"/>
  </g>
  <g>
    <path class="cls-1" d="M303.43,308.68l3.35.51c1.48.26,2.05.33,2.05,1s-.83.84-1.54.9c-.26.65-.71,1.55-1.48,3.09h12.47V347c0,6.37-1.47,9.07-11.89,9.07.07-.84.07-1.22.07-1.67a11.23,11.23,0,0,0-2.32-6.88v3.86H285.5v1.54h-8.42v-15a6.59,6.59,0,0,1-.65.32,12.42,12.42,0,0,0-4.5-4.24v22.11h-9.32V314.21h13.44a24.86,24.86,0,0,0-2.51-4.69l4.57-.84H261.33V301h24.3V296.4l9.7.45c.65,0,1.23.19,1.23.84s-.65.9-1.23,1.15V301h24.5v7.71Zm-31.5,13.76v9.06a14.17,14.17,0,0,0,6.82-9.06Zm37.42,7a6.06,6.06,0,0,1-5.92,3.67h-8.22c-3.8,0-5-1.35-5-4.37v-6.3h-6.56l3.41,1.09c.45.13,1.35.45,1.35,1,0,.26,0,.71-1.73,1.09a23.09,23.09,0,0,1-5.85,9.45h23.33v12c1.29.13,2.38.32,3.09.32,2,0,2.12-.64,2.12-2.12Zm-25.72-20.76a32.52,32.52,0,0,1,2.83,4.95l-2.31.58H295.4a39.32,39.32,0,0,0,2.57-5.53Zm12,33H285.5v3h10.16Zm2.63-19.28v2.05c0,.84.07,1.42,1.29,1.42h1.93c1.22,0,1.41-1.09,1.92-3.47Zm11.06,0H303.5a18.38,18.38,0,0,0,5.85,3.08Z"/>
    <path class="cls-1" d="M336,352.39v3.54h-9.32V326h25.91v28.8h-9.13v-2.45Zm7.46-7.77V334.46H336v10.16Zm28.86-46.16v23.91H337.7V298.46Zm-24.87,8v8h15.23v-8ZM366,352.39v3.54h-9.32V326h26.62v29.89h-9.13v-3.54Zm8.17-7.77V334.46H366v10.16Z"/>
    <path class="cls-1" d="M443.7,319.35c-4.56.32-10,.77-21.6,6-11.31,5.15-15.81,10.68-15.81,13.83,0,4.62,6.88,5.52,15,5.52,7.14,0,16.91-1.54,22-3.66a43.68,43.68,0,0,0-.71,11.31,133.78,133.78,0,0,1-21.73,1.93c-11.18,0-15.55-1.67-18.77-3.41-4.05-2.18-7-6-7-11.05,0-8.74,7.33-14.21,13.7-18.19-3.22-3.6-3.67-7-4.76-15.18a26.24,26.24,0,0,0-1.74-6.87l12.6-2.7c-.25,3.27-.38,4.69-.38,6.75,0,7.71,2.25,12.66,2.83,13.69a201.69,201.69,0,0,1,22.43-9.19Z"/>
    <path class="cls-1" d="M466.33,334.14c-.32,7.26-1.28,14.59-4.56,20.95a30.63,30.63,0,0,0-8.87-3.21C458,342.75,458,333,458,324.62V298.27h21.47v50.39c0,3.73,0,6.95-10.87,6.95a23.61,23.61,0,0,0-2.63-9.13c.7.06,2.5.19,3.28.19,1.41,0,1.92-.26,1.92-2.7v-9.83Zm4.82-21.92V306h-4.69v6.24Zm0,14.07v-6.55h-4.69v6.55Zm19,29.32H481.5V298.27h28.55c0,3,0,12.34-.2,14.65-.19,2.7-1.15,4.7-6.3,5.66a19.34,19.34,0,0,1-4.63.32,12.73,12.73,0,0,0-3.34-7.13c.77.06,3.6.32,4,.32,1.41,0,1.41-.84,1.41-3V306H490.12v14.53h17.1l4.56,3a68.78,68.78,0,0,1-6.62,19.28,46.37,46.37,0,0,0,7.59,6.82,78.71,78.71,0,0,0-5.85,6.87,40.77,40.77,0,0,1-6.82-6,31.63,31.63,0,0,1-6,6.24,21.24,21.24,0,0,0-3.92-4.05Zm6.3-27.58h-6.3v21.15a31.37,31.37,0,0,0,4.95-5.34,40.54,40.54,0,0,1-4.89-12.53Zm.32,0a29.55,29.55,0,0,0,3,7.2,39.5,39.5,0,0,0,2.12-7.2Z"/>
    <path class="cls-1" d="M517.44,312.67a81.2,81.2,0,0,0,14.46-3.09c14-3.79,16.14-4.37,21.67-4.37,16.84,0,23.59,10.41,23.59,20.31,0,12.67-10.16,18.77-13.95,20.57-9.71,4.5-21.15,5-25.71,5.15a52.43,52.43,0,0,0-4-11.25,41.55,41.55,0,0,0,7.39.58c13.69,0,25.52-4.7,25.52-15,0-7.33-5.34-10.93-13.76-10.93-10,0-23.52,6.43-30.85,10Zm47.76-17.49A38.77,38.77,0,0,1,570,302a33.47,33.47,0,0,0-5.14,3.09,66.45,66.45,0,0,0-4.76-6.69Zm8.62-.58A53.69,53.69,0,0,1,578,301l-4.76,3a47.1,47.1,0,0,0-4-6.3Z"/>
    <path class="cls-1" d="M629.17,302.38c.38.32.64.58.64,1a.68.68,0,0,1-.77.71,3.73,3.73,0,0,1-1.09-.26c-1.29,1.23-11.77,9.39-14,11.25-3,2.51-6.56,5.6-8.94,7.72-2.06,1.86-2.25,2.12-2.25,2.63s.26.84,2.76,2.25c.2.13,6.11,4.05,11.9,8.49,7.26,5.59,10.35,8.87,13.3,12.6a40.64,40.64,0,0,0-7.39,8.68C620.55,353.23,610,342,591,329.77a4.51,4.51,0,0,1-2.18-3.8c0-1.67.25-2.44,6.75-7.58A170.41,170.41,0,0,0,620,295.31Z"/>
    <path class="cls-1" d="M667.09,299.87c1.16.26,1.81.45,1.81,1.16s-1.1,1-1.55,1.09a49.23,49.23,0,0,0-2.83,16.4,24.52,24.52,0,0,0,.58,5.72c.52-1,.71-1.55,1.48-3.41a14.75,14.75,0,0,1,2-3.66A46.9,46.9,0,0,0,675,322.5c-1,1.67-5.27,8.62-6.62,16.27l-9.19,1.09A64.67,64.67,0,0,1,654.62,316c0-5.14.58-9.07,2.13-15.88.32-1.41.32-1.74.45-2.51Zm29.38-2.38c.65,0,1.48.07,1.48.9s-.58.84-1,1c.07,2.25.9,12,1,14,.19,2.32.32,5,.32,7.52,0,8.1-.64,24.63-19.35,35.36-3.92-5.21-6.94-6.75-8.35-7.52,15.43-7.46,16.9-18.58,16.9-28,0-7.91-.38-15.88-2.44-23.53Z"/>
  </g>
</svg>
