<?xml version="1.0" encoding="utf-8"?>
<!-- Generator: Adobe Illustrator 26.0.3, SVG Export Plug-In . SVG Version: 6.00 Build 0)  -->
<svg version="1.1" id="レイヤー_1" xmlns="http://www.w3.org/2000/svg" xmlns:xlink="http://www.w3.org/1999/xlink" x="0px"
	 y="0px" viewBox="0 0 622.1 150" style="enable-background:new 0 0 622.1 150;" xml:space="preserve">
<style type="text/css">
	.st0{fill:#040000;}
</style>
<g>
	<path class="st0" d="M8.6,4.6C6.7,4.6,5.2,6,5.2,7.8c0,1.3,0.6,2.2,1.7,2.8l5.2,2.5c3,1.4,4.5,3.6,4.5,6.9c0,4.4-3.5,7.9-8.1,7.9
		c-3.6,0-6.7-2.2-8.2-5.7l4.3-1.7c0.9,1.9,2.3,2.8,4,2.8c2,0,3.4-1.4,3.4-3.3c0-1.6-0.7-2.3-1.7-2.8l-5.2-2.5
		c-2.8-1.4-4.5-3.6-4.5-6.9C0.6,3.5,4.2,0,8.7,0c3.7,0,6.7,2.1,8.2,5.7l-4.3,1.7C11.7,5.5,10.3,4.6,8.6,4.6z"/>
	<path class="st0" d="M24.3,9.5c1-0.8,2.3-1.3,3.8-1.3c4.1,0,7.1,3.2,7.1,7.4v12h-4v-12c0-1.9-1.5-3.4-3.4-3.4
		c-1.9,0-3.4,1.5-3.4,3.4v12h-4V0.3h4V9.5z"/>
	<path class="st0" d="M43.4,4.3h-4v-4h4V4.3z M43.4,27.7h-4V8.3h4V27.7z"/>
	<path class="st0" d="M51.6,9.5c1-0.8,2.2-1.3,3.8-1.3c3.4,0,7.1,2.4,7.1,7.5v12h-4v-12c0-1.9-1.5-3.5-3.4-3.5
		c-1.9,0-3.4,1.5-3.4,3.5v12h-4V8.3h4V9.5z"/>
	<path class="st0" d="M69.4,8.3l4.3,12.9L78,8.3h4l-7.9,23.6c-0.8,2.4-3,3.7-5.8,3.9v-4c1.3-0.1,2.1-0.6,2.3-1.4l1.1-3.2L65.4,8.3
		H69.4z"/>
	<path class="st0" d="M91.6,12.1c-1.4,0-2.6,0.8-3.2,2.2l-3.7-1.5c1.2-2.9,3.8-4.6,6.9-4.6c4.1,0,7.4,3.4,7.4,7.5v12.2h-4v-1.3
		c-0.9,0.8-2.1,1.3-3.5,1.3h-1.7c-3.2,0-5.7-2.6-5.7-5.7c0-3.3,2.7-5.7,5.7-5.7H95v-0.7C95,13.6,93.5,12.1,91.6,12.1z M88.2,22
		c0,0.9,0.7,1.7,1.7,1.7h1.7c1.9,0,3.5-1.4,3.5-3.2v-0.2h-5.2C88.9,20.3,88.2,21,88.2,22z"/>
	<path class="st0" d="M122.4,27.7V14l-6.9-13.7h4.6l4.6,9.2l4.6-9.2h4.6L126.9,14v13.7H122.4z"/>
	<path class="st0" d="M143.6,12.1c-1.4,0-2.6,0.8-3.2,2.2l-3.7-1.5c1.2-2.9,3.8-4.6,6.9-4.6c4.1,0,7.4,3.4,7.4,7.5v12.2h-4v-1.3
		c-0.9,0.8-2.1,1.3-3.5,1.3h-1.7c-3.2,0-5.7-2.6-5.7-5.7c0-3.3,2.7-5.7,5.7-5.7h5.2v-0.7C147.1,13.6,145.5,12.1,143.6,12.1z
		 M140.2,22c0,0.9,0.7,1.7,1.7,1.7h1.7c1.9,0,3.5-1.4,3.5-3.2v-0.2h-5.2C141,20.3,140.2,21,140.2,22z"/>
	<path class="st0" d="M162.7,8.3c2,0,3.9,0.8,5.3,2.4c1.5-1.6,3.3-2.4,5.4-2.4c4.1,0,7.2,3.2,7.2,7.5v12h-4v-12
		c0-1.9-1.5-3.5-3.4-3.5c-1.9,0-3.4,1.5-3.4,3.4v12h-4v-12c0-1.9-1.5-3.5-3.4-3.5c-1.9,0-3.4,1.5-3.4,3.5v12h-4V8.3h4v1.3
		C160.1,8.7,161.4,8.3,162.7,8.3z"/>
	<path class="st0" d="M191.7,12.1c-1.4,0-2.6,0.8-3.2,2.2l-3.7-1.5c1.2-2.9,3.8-4.6,6.9-4.6c4.1,0,7.4,3.4,7.4,7.5v12.2h-4v-1.3
		c-0.9,0.8-2.1,1.3-3.5,1.3H190c-3.2,0-5.7-2.6-5.7-5.7c0-3.3,2.7-5.7,5.7-5.7h5.2v-0.7C195.2,13.6,193.6,12.1,191.7,12.1z
		 M188.3,22c0,0.9,0.7,1.7,1.7,1.7h1.7c1.9,0,3.5-1.4,3.5-3.2v-0.2H190C189,20.3,188.3,21,188.3,22z"/>
	<path class="st0" d="M207,9.5c1-0.8,2.2-1.3,3.8-1.3c3.4,0,7.1,2.4,7.1,7.5v12h-4v-12c0-1.9-1.5-3.5-3.4-3.5
		c-1.9,0-3.4,1.5-3.4,3.5v12h-4V8.3h4V9.5z"/>
	<path class="st0" d="M228.9,12.1c-1.4,0-2.6,0.8-3.2,2.2l-3.7-1.5c1.2-2.9,3.8-4.6,6.9-4.6c4.1,0,7.4,3.4,7.4,7.5v12.2h-4v-1.3
		c-0.9,0.8-2.1,1.3-3.5,1.3h-1.7c-3.2,0-5.7-2.6-5.7-5.7c0-3.3,2.7-5.7,5.7-5.7h5.2v-0.7C232.3,13.6,230.8,12.1,228.9,12.1z
		 M225.4,22c0,0.9,0.7,1.7,1.7,1.7h1.7c1.9,0,3.5-1.4,3.5-3.2v-0.2h-5.2C226.2,20.3,225.4,21,225.4,22z"/>
	<path class="st0" d="M251.7,27.7l-4.8-8.9l-2.7,3.2v5.7h-4V0.3h4V17l7.5-8.7h4.3l-6.5,7.6l6.8,11.8H251.7z"/>
	<path class="st0" d="M266.3,12.1c-1.4,0-2.6,0.8-3.2,2.2l-3.7-1.5c1.2-2.9,3.8-4.6,6.9-4.6c4.1,0,7.4,3.4,7.4,7.5v12.2h-4v-1.3
		c-0.9,0.8-2.1,1.3-3.5,1.3h-1.7c-3.2,0-5.7-2.6-5.7-5.7c0-3.3,2.7-5.7,5.7-5.7h5.2v-0.7C269.8,13.6,268.2,12.1,266.3,12.1z
		 M262.9,22c0,0.9,0.7,1.7,1.7,1.7h1.7c1.9,0,3.5-1.4,3.5-3.2v-0.2h-5.2C263.7,20.3,262.9,21,262.9,22z"/>
</g>
<g>
	<path class="st0" d="M4.8,136.5c-1.4,0-2.5,1.1-2.5,2.5v4c0,1.4,1.1,2.5,2.5,2.5c1.4,0,2.5-1,2.5-2.5h1.3c0,0.4,0,0.6-0.1,1
		c-0.4,1.7-2,2.8-3.6,2.8c-2.1,0-3.8-1.7-3.8-3.8v-4c0-2.1,1.7-3.8,3.8-3.8c1.7,0,3.2,1.1,3.6,2.8c0.1,0.3,0.1,0.5,0.1,1H7.3
		C7.3,137.6,6.3,136.5,4.8,136.5z"/>
	<path class="st0" d="M12.3,135.4v4c0.5-0.5,1.2-0.7,1.9-0.7c1.7,0,3,1.4,3,3.1v4.9h-1.1v-4.9c0-1-0.9-1.9-1.9-1.9
		c-1,0-1.9,0.9-1.9,1.9v4.9h-1.1v-11.3H12.3z"/>
	<path class="st0" d="M22.8,139.8c-0.8,0-1.4,0.5-1.8,1.2l-1.1-0.4c0.5-1.2,1.6-1.9,2.8-1.9c1.7,0,3,1.4,3,3.1v5h-1.2v-1
		c-0.5,0.7-1.1,1-1.9,1h-0.7c-1.3,0-2.4-1-2.4-2.3s1-2.3,2.4-2.3h2.6v-0.3C24.7,140.6,23.8,139.8,22.8,139.8z M20.9,144.4
		c0,0.7,0.5,1.2,1.2,1.2h0.7c1.1,0,1.9-1,1.9-2.4h-2.6C21.4,143.1,20.9,143.7,20.9,144.4z"/>
	<path class="st0" d="M29.9,136.8h-1.4v-1.4h1.4V136.8z M29.7,146.7h-1.1v-8h1.1V146.7z"/>
	<path class="st0" d="M33.7,138.7v0.7c0.5-0.5,1.2-0.7,1.9-0.7c0.8,0,1.6,0.3,2.2,0.9l-0.8,0.8c-0.4-0.4-0.8-0.6-1.4-0.6
		c-1,0-1.9,0.9-1.9,1.9v4.9h-1.1v-8H33.7z"/>
	<path class="st0" d="M43.2,138.7c1,0,2,0.5,2.5,1.3c0.6-0.8,1.5-1.3,2.5-1.3c1.7,0,3,1.4,3,3.1v4.9h-1.1v-4.9
		c0-1.1-0.9-1.9-1.9-1.9c-1.1,0-1.9,0.9-1.9,1.9v4.9h-1.1v-5c0-1-0.9-1.9-1.9-1.9c-1.1,0-1.9,0.9-1.9,1.9v4.9h-1.1v-8h1.1v0.8
		C41.9,139,42.5,138.7,43.2,138.7z"/>
	<path class="st0" d="M56.8,139.8c-0.8,0-1.4,0.5-1.8,1.2l-1.1-0.4c0.5-1.2,1.6-1.9,2.8-1.9c1.7,0,3,1.4,3,3.1v5h-1.2v-1
		c-0.5,0.7-1.1,1-1.9,1h-0.7c-1.3,0-2.4-1-2.4-2.3s1-2.3,2.4-2.3h2.6v-0.3C58.7,140.6,57.9,139.8,56.8,139.8z M54.9,144.4
		c0,0.7,0.5,1.2,1.2,1.2h0.7c1.1,0,1.9-1,1.9-2.4h-2.6C55.5,143.1,54.9,143.7,54.9,144.4z"/>
	<path class="st0" d="M63.8,138.7v0.7c0.5-0.5,1.2-0.7,1.9-0.7c1.7,0,3.1,1.4,3.1,3.1v4.9h-1.1v-4.9c0-1-0.9-1.9-1.9-1.9
		c-1,0-1.9,0.9-1.9,1.9v4.9h-1.1v-8H63.8z"/>
	<path class="st0" d="M72.9,146.7l-1.4,1.4v-2.7h1.4V146.7z"/>
	<path class="st0" d="M90.2,139.2c0,2.1-1.7,3.8-3.8,3.8h-2.5v3.8h-1.2v-11.3h3.8C88.5,135.4,90.2,137.1,90.2,139.2z M88.9,139.2
		c0-1.4-1.1-2.5-2.5-2.5h-2.5v5h2.5C87.8,141.7,88.9,140.6,88.9,139.2z"/>
	<path class="st0" d="M93.8,138.7v0.7c0.5-0.5,1.2-0.7,1.9-0.7c0.8,0,1.6,0.3,2.2,0.9l-0.8,0.8c-0.4-0.4-0.8-0.6-1.4-0.6
		c-1,0-1.9,0.9-1.9,1.9v4.9h-1.1v-8H93.8z"/>
	<path class="st0" d="M102.9,145.6c0.6,0,1-0.2,1.4-0.6l0.8,0.8c-0.6,0.6-1.4,0.9-2.2,0.9c-1.7,0-3-1.4-3-3.1v-2
		c0-1.7,1.4-3.1,3-3.1c1.7,0,3.1,1.4,3.1,3.1v1.2h-5v0.9C101,144.8,101.8,145.6,102.9,145.6z M102.9,139.8c-1.1,0-1.9,0.8-1.9,2h3.8
		C104.8,140.6,103.9,139.8,102.9,139.8z"/>
	<path class="st0" d="M110.7,145.7c0.6,0,1.2-0.5,1.2-1.1c0-0.5-0.3-1-1-1.3l-0.8-0.4c-1.3-0.6-1.8-1.3-1.8-2.2c0-1.2,1-2.1,2.3-2.1
		c1.2,0,2.1,0.6,2.6,1.7l-1,0.5c-0.4-0.6-1-1-1.6-1c-0.6,0-1.1,0.4-1.1,1c0,0.4,0.3,0.7,1,1.1l0.9,0.4c1.2,0.5,1.7,1.2,1.7,2.2
		c0,1.3-1,2.3-2.3,2.3c-1.2,0-2.1-0.6-2.6-1.7l1-0.5C109.5,145.3,110.1,145.7,110.7,145.7z"/>
	<path class="st0" d="M116.8,136.8h-1.4v-1.4h1.4V136.8z M116.7,146.7h-1.1v-8h1.1V146.7z"/>
	<path class="st0" d="M124.3,146c-0.5,0.5-1.2,0.7-1.9,0.7c-1.7,0-3.1-1.4-3.1-3v-1.9c0-1.7,1.4-3.1,3.1-3.1c0.7,0,1.4,0.2,1.9,0.7
		v-4h1.1v11.3h-1.1V146z M122.3,145.6c1,0,1.9-0.9,1.9-1.9v-1.9c0-1-0.9-1.9-1.9-1.9c-1,0-1.9,0.9-1.9,1.9v1.9
		C120.4,144.7,121.3,145.6,122.3,145.6z"/>
	<path class="st0" d="M131,145.6c0.6,0,1-0.2,1.4-0.6l0.8,0.8c-0.6,0.6-1.4,0.9-2.2,0.9c-1.7,0-3-1.4-3-3.1v-2c0-1.7,1.4-3.1,3-3.1
		c1.7,0,3.1,1.4,3.1,3.1v1.2h-5v0.9C129.1,144.8,130,145.6,131,145.6z M131,139.8c-1.1,0-1.9,0.8-1.9,2h3.8
		C132.9,140.6,132.1,139.8,131,139.8z"/>
	<path class="st0" d="M137.7,138.7v0.7c0.5-0.5,1.2-0.7,1.9-0.7c1.7,0,3.1,1.4,3.1,3.1v4.9h-1.1v-4.9c0-1-0.9-1.9-1.9-1.9
		c-1,0-1.9,0.9-1.9,1.9v4.9h-1.1v-8H137.7z"/>
	<path class="st0" d="M148,145.6h0.3v1.1h-0.3c-1.2,0-2.1-0.9-2.1-2.1v-4.8h-0.9v-1.1h0.9v-3.3h1.1v3.3h1.6v1.1H147v4.8
		C147,145.1,147.4,145.6,148,145.6z"/>
	<path class="st0" d="M160.9,139.8c-0.8,0-1.4,0.5-1.8,1.2l-1.1-0.4c0.5-1.2,1.6-1.9,2.8-1.9c1.7,0,3,1.4,3,3.1v5h-1.2v-1
		c-0.5,0.7-1.1,1-1.9,1h-0.7c-1.3,0-2.4-1-2.4-2.3s1-2.3,2.4-2.3h2.6v-0.3C162.8,140.6,161.9,139.8,160.9,139.8z M159,144.4
		c0,0.7,0.5,1.2,1.2,1.2h0.7c1.1,0,1.9-1,1.9-2.4h-2.6C159.5,143.1,159,143.7,159,144.4z"/>
	<path class="st0" d="M167.8,138.7v0.7c0.5-0.5,1.2-0.7,1.9-0.7c1.7,0,3.1,1.4,3.1,3.1v4.9h-1.1v-4.9c0-1-0.9-1.9-1.9-1.9
		c-1,0-1.9,0.9-1.9,1.9v4.9h-1.1v-8H167.8z"/>
	<path class="st0" d="M180.3,146c-0.5,0.5-1.2,0.7-1.9,0.7c-1.7,0-3.1-1.4-3.1-3v-1.9c0-1.7,1.4-3.1,3.1-3.1c0.7,0,1.4,0.2,1.9,0.7
		v-4h1.1v11.3h-1.1V146z M178.4,145.6c1,0,1.9-0.9,1.9-1.9v-1.9c0-1-0.9-1.9-1.9-1.9c-1,0-1.9,0.9-1.9,1.9v1.9
		C176.5,144.7,177.3,145.6,178.4,145.6z"/>
	<path class="st0" d="M194.6,136.5c-1.4,0-2.5,1.1-2.5,2.5v4c0,1.4,1.1,2.5,2.5,2.5c1.4,0,2.5-1,2.5-2.5h1.3c0,0.4,0,0.6-0.1,1
		c-0.4,1.7-2,2.8-3.6,2.8c-2.1,0-3.8-1.7-3.8-3.8v-4c0-2.1,1.7-3.8,3.8-3.8c1.7,0,3.2,1.1,3.6,2.8c0.1,0.3,0.1,0.5,0.1,1h-1.3
		C197.1,137.6,196.1,136.5,194.6,136.5z"/>
	<path class="st0" d="M202.3,140.4h4.4v1.3h-4.4v3.8h6.3v1.2H201v-11.3h7.5v1.2h-6.3V140.4z"/>
	<path class="st0" d="M214.4,135.3c2.1,0,3.8,1.7,3.8,3.8v4c0,2.1-1.7,3.8-3.8,3.8c-2.1,0-3.8-1.7-3.8-3.8v-4
		C210.7,137,212.4,135.3,214.4,135.3z M214.4,136.5c-1.4,0-2.5,1.1-2.5,2.5v4c0,1.4,1.2,2.5,2.5,2.5s2.5-1.2,2.5-2.5v-4
		C217,137.7,215.8,136.5,214.4,136.5z"/>
	<path class="st0" d="M235.3,136.7h-6.3v3.8h4.4v1.2h-4.4v5h-1.2v-11.3h7.5V136.7z"/>
	<path class="st0" d="M239.7,139.8c-0.8,0-1.4,0.5-1.8,1.2l-1.1-0.4c0.5-1.2,1.6-1.9,2.8-1.9c1.7,0,3,1.4,3,3.1v5h-1.2v-1
		c-0.5,0.7-1.1,1-1.9,1H239c-1.3,0-2.4-1-2.4-2.3s1-2.3,2.4-2.3h2.6v-0.3C241.6,140.6,240.7,139.8,239.7,139.8z M237.8,144.4
		c0,0.7,0.5,1.2,1.2,1.2h0.7c1.1,0,1.9-1,1.9-2.4H239C238.3,143.1,237.8,143.7,237.8,144.4z"/>
	<path class="st0" d="M247.7,145.7c0.6,0,1.2-0.5,1.2-1.1c0-0.5-0.3-1-1-1.3l-0.8-0.4c-1.3-0.6-1.8-1.3-1.8-2.2c0-1.2,1-2.1,2.3-2.1
		c1.2,0,2.1,0.6,2.6,1.7l-1,0.5c-0.4-0.6-1-1-1.6-1c-0.6,0-1.1,0.4-1.1,1c0,0.4,0.3,0.7,1,1.1l0.9,0.4c1.2,0.5,1.7,1.2,1.7,2.2
		c0,1.3-1,2.3-2.3,2.3c-1.2,0-2.1-0.6-2.6-1.7l1-0.5C246.5,145.3,247.1,145.7,247.7,145.7z"/>
	<path class="st0" d="M255.4,145.6h0.3v1.1h-0.3c-1.2,0-2.1-0.9-2.1-2.1v-4.8h-0.9v-1.1h0.9v-3.3h1.1v3.3h1.6v1.1h-1.6v4.8
		C254.5,145.1,254.9,145.6,255.4,145.6z"/>
	<path class="st0" d="M271.8,146.7l-2.1-4.3h-2.8v4.3h-1.2v-11.3h4c2,0,3.5,1.6,3.5,3.5c0,1.4-0.9,2.7-2.2,3.3l2.2,4.5H271.8z
		 M272,138.9c0-1.2-1-2.3-2.3-2.3h-2.8v4.5h2.8C270.9,141.2,272,140.2,272,138.9z"/>
	<path class="st0" d="M278.3,145.6c0.6,0,1-0.2,1.4-0.6l0.8,0.8c-0.6,0.6-1.4,0.9-2.2,0.9c-1.7,0-3-1.4-3-3.1v-2
		c0-1.7,1.4-3.1,3-3.1c1.7,0,3.1,1.4,3.1,3.1v1.2h-5v0.9C276.4,144.8,277.3,145.6,278.3,145.6z M278.4,139.8c-1.1,0-1.9,0.8-1.9,2
		h3.8C280.3,140.6,279.4,139.8,278.4,139.8z"/>
	<path class="st0" d="M286.6,145.6h0.3v1.1h-0.3c-1.2,0-2.1-0.9-2.1-2.1v-4.8h-0.9v-1.1h0.9v-3.3h1.1v3.3h1.6v1.1h-1.6v4.8
		C285.6,145.1,286,145.6,286.6,145.6z"/>
	<path class="st0" d="M292.5,139.8c-0.8,0-1.4,0.5-1.8,1.2l-1.1-0.4c0.5-1.2,1.6-1.9,2.8-1.9c1.7,0,3,1.4,3,3.1v5h-1.2v-1
		c-0.5,0.7-1.1,1-1.9,1h-0.7c-1.3,0-2.4-1-2.4-2.3s1-2.3,2.4-2.3h2.6v-0.3C294.4,140.6,293.5,139.8,292.5,139.8z M290.6,144.4
		c0,0.7,0.5,1.2,1.2,1.2h0.7c1.1,0,1.9-1,1.9-2.4h-2.6C291.1,143.1,290.6,143.7,290.6,144.4z"/>
	<path class="st0" d="M299.5,136.8h-1.4v-1.4h1.4V136.8z M299.4,146.7h-1.1v-8h1.1V146.7z"/>
	<path class="st0" d="M304.4,145.6h0.5v1.1h-0.5c-1.2,0-2.1-0.9-2.1-2.1v-9.2h1.1v9.2C303.4,145.1,303.8,145.6,304.4,145.6z"/>
	<path class="st0" d="M308.4,136.8H307v-1.4h1.4V136.8z M308.2,146.7h-1.1v-8h1.1V146.7z"/>
	<path class="st0" d="M312.2,138.7v0.7c0.5-0.5,1.2-0.7,1.9-0.7c1.7,0,3.1,1.4,3.1,3.1v4.9h-1.1v-4.9c0-1-0.9-1.9-1.9-1.9
		c-1,0-1.9,0.9-1.9,1.9v4.9h-1.1v-8H312.2z"/>
	<path class="st0" d="M322.8,150c-0.8,0-1.6-0.3-2.2-0.9l0.8-0.9c0.4,0.4,0.9,0.6,1.4,0.6c1,0,1.9-0.9,1.9-1.9v-1
		c-0.5,0.5-1.2,0.7-1.9,0.7c-1.7,0-3.1-1.4-3.1-3.1v-1.9c0-1.7,1.4-3.1,3.1-3.1c0.9,0,1.5,0.3,1.9,0.7v-0.7h1.1v8.2
		C325.8,148.6,324.5,150,322.8,150z M322.8,139.8c-1,0-1.9,0.9-1.9,1.9v1.9c0,1,0.9,1.9,1.9,1.9c1,0,1.9-0.9,1.9-1.9v-1.9
		C324.7,140.7,323.8,139.8,322.8,139.8z"/>
	<path class="st0" d="M339,136.5c-1.4,0-2.5,1.1-2.5,2.5v4c0,1.4,1.1,2.5,2.5,2.5c1.4,0,2.5-1,2.5-2.5h1.3c0,0.4,0,0.6-0.1,1
		c-0.4,1.7-2,2.8-3.6,2.8c-2.1,0-3.8-1.7-3.8-3.8v-4c0-2.1,1.7-3.8,3.8-3.8c1.7,0,3.2,1.1,3.6,2.8c0.1,0.3,0.1,0.5,0.1,1h-1.3
		C341.5,137.6,340.4,136.5,339,136.5z"/>
	<path class="st0" d="M348.3,146.8c-1.7,0-3.1-1.4-3.1-3.1v-2c0-1.7,1.4-3.1,3.1-3.1c1.7,0,3,1.4,3,3.1v2
		C351.3,145.4,350,146.8,348.3,146.8z M348.3,145.6c1,0,1.9-0.9,1.9-1.9v-2c0-1-0.9-1.9-1.9-1.9c-1,0-1.9,0.9-1.9,1.9v2
		C346.4,144.8,347.2,145.6,348.3,145.6z"/>
	<path class="st0" d="M355.1,146.7h-1.4v-1.4h1.4V146.7z"/>
	<path class="st0" d="M359.2,146.7l-1.4,1.4v-2.7h1.4V146.7z"/>
	<path class="st0" d="M370.2,145.5h6.3v1.2h-7.5v-11.3h1.2V145.5z"/>
	<path class="st0" d="M381.4,145.6h0.3v1.1h-0.3c-1.2,0-2.1-0.9-2.1-2.1v-4.8h-0.9v-1.1h0.9v-3.3h1.1v3.3h1.6v1.1h-1.6v4.8
		C380.4,145.1,380.8,145.6,381.4,145.6z"/>
	<path class="st0" d="M389.1,146c-0.5,0.5-1.2,0.7-1.9,0.7c-1.7,0-3.1-1.4-3.1-3v-1.9c0-1.7,1.4-3.1,3.1-3.1c0.7,0,1.4,0.2,1.9,0.7
		v-4h1.1v11.3h-1.1V146z M387.2,145.6c1,0,1.9-0.9,1.9-1.9v-1.9c0-1-0.9-1.9-1.9-1.9c-1,0-1.9,0.9-1.9,1.9v1.9
		C385.3,144.7,386.2,145.6,387.2,145.6z"/>
	<path class="st0" d="M394.4,146.7h-1.4v-1.4h1.4V146.7z"/>
</g>
<g>
	<path class="st0" d="M1.5,54.5H0.3V43.2h1.3L4.5,51l2.9-7.9h1.3v11.3H7.4v-8.4l-2.3,6.5H3.8l-2.3-6.5V54.5z"/>
	<path class="st0" d="M13.7,53.4c0.6,0,1-0.2,1.4-0.6l0.8,0.8c-0.6,0.6-1.4,0.9-2.2,0.9c-1.7,0-3-1.4-3-3.1v-2c0-1.7,1.4-3.1,3-3.1
		c1.7,0,3.1,1.4,3.1,3.1v1.2h-5v0.9C11.8,52.5,12.7,53.4,13.7,53.4z M13.8,47.5c-1.1,0-1.9,0.8-1.9,2h3.8
		C15.7,48.4,14.8,47.5,13.8,47.5z"/>
	<path class="st0" d="M23.6,53.7c-0.5,0.5-1.2,0.7-1.9,0.7c-1.7,0-3.1-1.4-3.1-3v-1.9c0-1.7,1.4-3.1,3.1-3.1c0.7,0,1.4,0.2,1.9,0.7
		v-4h1.1v11.3h-1.1V53.7z M21.6,53.3c1,0,1.9-0.9,1.9-1.9v-1.9c0-1-0.9-1.9-1.9-1.9c-1,0-1.9,0.9-1.9,1.9v1.9
		C19.7,52.4,20.6,53.3,21.6,53.3z"/>
	<path class="st0" d="M28.2,44.5h-1.4v-1.4h1.4V44.5z M28.1,54.5H27v-8h1.1V54.5z"/>
	<path class="st0" d="M33.2,47.5c-1,0-1.9,0.9-1.9,1.9v2c0,1,0.9,1.9,1.9,1.9c1.1,0,1.9-0.8,1.9-1.9h1.1c-0.1,1.8-1.3,3.1-3.1,3.1
		c-1.7,0-3-1.4-3-3.1v-2c0-1.7,1.4-3.1,3-3.1c1.7,0,3,1.3,3.1,3.1h-1.1C35,48.3,34.3,47.5,33.2,47.5z"/>
	<path class="st0" d="M41.1,47.5c-0.8,0-1.4,0.5-1.8,1.2l-1.1-0.4c0.5-1.2,1.6-1.9,2.8-1.9c1.7,0,3,1.4,3,3.1v5H43v-1
		c-0.5,0.7-1.1,1-1.9,1h-0.7c-1.3,0-2.4-1-2.4-2.3c0-1.3,1-2.4,2.4-2.4H43v-0.3C43,48.4,42.1,47.5,41.1,47.5z M39.2,52.1
		c0,0.7,0.5,1.2,1.2,1.2h0.7c1.1,0,1.9-1,1.9-2.4h-2.6C39.7,50.9,39.2,51.4,39.2,52.1z"/>
	<path class="st0" d="M48.4,53.3h0.5v1.1h-0.5c-1.2,0-2.1-0.9-2.1-2.1v-9.2h1.1v9.2C47.5,52.9,47.9,53.3,48.4,53.3z"/>
	<path class="st0" d="M59.9,53.3c1.1,0,1.9-0.8,1.9-2c0-0.8-0.5-1.4-1.5-1.9l-1.6-0.7c-1.5-0.6-2.2-1.5-2.2-2.8
		c0-1.7,1.3-2.9,3.1-2.9c1.6,0,2.8,0.7,3.7,2.3l-1.1,0.5c-0.6-1-1.5-1.5-2.5-1.5c-1.1,0-1.9,0.7-1.9,1.6c0,0.7,0.4,1.2,1.4,1.7
		l1.7,0.7c1.6,0.7,2.2,1.6,2.2,3.1c0,1.9-1.3,3.2-3.2,3.2c-1.5,0-2.7-0.8-3.6-2.3l1.1-0.4C58,52.8,58.8,53.3,59.9,53.3z"/>
	<path class="st0" d="M68,47.5c-1,0-1.9,0.9-1.9,1.9v2c0,1,0.9,1.9,1.9,1.9c1.1,0,1.9-0.8,1.9-1.9h1.1c-0.1,1.8-1.3,3.1-3.1,3.1
		c-1.7,0-3-1.4-3-3.1v-2c0-1.7,1.4-3.1,3-3.1c1.7,0,3,1.3,3.1,3.1h-1.1C69.9,48.3,69.1,47.5,68,47.5z"/>
	<path class="st0" d="M74.3,44.5h-1.4v-1.4h1.4V44.5z M74.2,54.5H73v-8h1.1V54.5z"/>
	<path class="st0" d="M79.3,53.4c0.6,0,1-0.2,1.4-0.6l0.8,0.8c-0.6,0.6-1.4,0.9-2.2,0.9c-1.7,0-3-1.4-3-3.1v-2c0-1.7,1.4-3.1,3-3.1
		c1.7,0,3.1,1.4,3.1,3.1v1.2h-5v0.9C77.4,52.5,78.2,53.4,79.3,53.4z M79.3,47.5c-1.1,0-1.9,0.8-1.9,2h3.8
		C81.2,48.4,80.3,47.5,79.3,47.5z"/>
	<path class="st0" d="M85.4,46.4v0.7c0.5-0.5,1.2-0.7,1.9-0.7c1.7,0,3.1,1.4,3.1,3.1v4.9h-1.1v-4.9c0-1-0.9-1.9-1.9-1.9
		c-1,0-1.9,0.9-1.9,1.9v4.9h-1.1v-8H85.4z"/>
	<path class="st0" d="M95.1,53.3h0.3v1.1h-0.3c-1.2,0-2.1-0.9-2.1-2.1v-4.8H92v-1.1H93v-3.3h1.1v3.3h1.6v1.1h-1.6v4.8
		C94.1,52.9,94.5,53.3,95.1,53.3z"/>
	<path class="st0" d="M99,44.5h-1.4v-1.4H99V44.5z M98.8,54.5h-1.1v-8h1.1V54.5z"/>
	<path class="st0" d="M103.3,53.4c0.6,0,1.2-0.5,1.2-1.1c0-0.5-0.3-1-1-1.3l-0.8-0.4c-1.3-0.6-1.8-1.3-1.8-2.2c0-1.2,1-2.1,2.3-2.1
		c1.2,0,2.1,0.6,2.6,1.7l-1,0.5c-0.4-0.6-1-1-1.6-1c-0.6,0-1.1,0.4-1.1,1c0,0.4,0.3,0.7,1,1.1L104,50c1.2,0.5,1.7,1.2,1.7,2.2
		c0,1.3-1,2.3-2.3,2.3c-1.2,0-2.1-0.6-2.6-1.7l1-0.5C102.1,53,102.8,53.4,103.3,53.4z"/>
	<path class="st0" d="M110.5,53.3h0.3v1.1h-0.3c-1.2,0-2.1-0.9-2.1-2.1v-4.8h-0.9v-1.1h0.9v-3.3h1.1v3.3h1.6v1.1h-1.6v4.8
		C109.5,52.9,109.9,53.3,110.5,53.3z"/>
	<path class="st0" d="M120.3,54.5h-1.3l3.5-11.3h1.3L120.3,54.5z"/>
	<path class="st0" d="M139.5,46.9v3.8c0,2.1-1.7,3.8-3.8,3.8H132V43.2h3.8C137.9,43.2,139.5,44.8,139.5,46.9z M138.3,50.7v-3.8
		c0-1.4-1.1-2.5-2.5-2.5h-2.5v8.8h2.5C137.2,53.2,138.3,52.1,138.3,50.7z"/>
	<path class="st0" d="M142.9,44.5h-1.4v-1.4h1.4V44.5z M142.8,54.5h-1.1v-8h1.1V54.5z"/>
	<path class="st0" d="M146.2,46.4v0.7c0.5-0.5,1.2-0.7,1.9-0.7c0.8,0,1.6,0.3,2.2,0.9l-0.8,0.8c-0.4-0.4-0.8-0.6-1.4-0.6
		c-1,0-1.9,0.9-1.9,1.9v4.9h-1.1v-8H146.2z"/>
	<path class="st0" d="M154.7,53.4c0.6,0,1-0.2,1.4-0.6l0.8,0.8c-0.6,0.6-1.4,0.9-2.2,0.9c-1.7,0-3-1.4-3-3.1v-2c0-1.7,1.4-3.1,3-3.1
		c1.7,0,3.1,1.4,3.1,3.1v1.2h-5v0.9C152.8,52.5,153.7,53.4,154.7,53.4z M154.7,47.5c-1.1,0-1.9,0.8-1.9,2h3.8
		C156.7,48.4,155.8,47.5,154.7,47.5z"/>
	<path class="st0" d="M162.7,47.5c-1,0-1.9,0.9-1.9,1.9v2c0,1,0.9,1.9,1.9,1.9c1.1,0,1.9-0.8,1.9-1.9h1.1c-0.1,1.8-1.3,3.1-3.1,3.1
		c-1.7,0-3-1.4-3-3.1v-2c0-1.7,1.4-3.1,3-3.1c1.7,0,3,1.3,3.1,3.1h-1.1C164.5,48.3,163.7,47.5,162.7,47.5z"/>
	<path class="st0" d="M170.3,53.3h0.3v1.1h-0.3c-1.2,0-2.1-0.9-2.1-2.1v-4.8h-0.9v-1.1h0.9v-3.3h1.1v3.3h1.6v1.1h-1.6v4.8
		C169.4,52.9,169.8,53.3,170.3,53.3z"/>
	<path class="st0" d="M175.7,54.5c-1.7,0-3.1-1.4-3.1-3.1v-2c0-1.7,1.4-3.1,3.1-3.1c1.7,0,3,1.4,3,3.1v2
		C178.7,53.2,177.4,54.5,175.7,54.5z M175.7,53.4c1,0,1.9-0.9,1.9-1.9v-2c0-1-0.9-1.9-1.9-1.9c-1,0-1.9,0.9-1.9,1.9v2
		C173.8,52.5,174.6,53.4,175.7,53.4z"/>
	<path class="st0" d="M181.9,46.4v0.7c0.5-0.5,1.2-0.7,1.9-0.7c0.8,0,1.6,0.3,2.2,0.9l-0.8,0.8c-0.4-0.4-0.8-0.6-1.4-0.6
		c-1,0-1.9,0.9-1.9,1.9v4.9h-1.1v-8H181.9z"/>
	<path class="st0" d="M196.9,54.5c-1.7,0-3.1-1.4-3.1-3.1v-2c0-1.7,1.4-3.1,3.1-3.1c1.7,0,3,1.4,3,3.1v2
		C199.9,53.2,198.6,54.5,196.9,54.5z M196.9,53.4c1,0,1.9-0.9,1.9-1.9v-2c0-1-0.9-1.9-1.9-1.9c-1,0-1.9,0.9-1.9,1.9v2
		C195,52.5,195.9,53.4,196.9,53.4z"/>
	<path class="st0" d="M202.5,54.5v-6.6h-0.9v-1.1h0.9v-1.5c0-1.2,0.9-2.1,2.1-2.1h0.9v1.1h-0.9c-0.5,0-0.9,0.4-0.9,0.9v1.5h1.6v1.1
		h-1.6v6.6H202.5z"/>
	<path class="st0" d="M216.6,53.3h0.3v1.1h-0.3c-1.2,0-2.1-0.9-2.1-2.1v-4.8h-0.9v-1.1h0.9v-3.3h1.1v3.3h1.6v1.1h-1.6v4.8
		C215.6,52.9,216,53.3,216.6,53.3z"/>
	<path class="st0" d="M220.3,43.2v4c0.5-0.5,1.2-0.7,1.9-0.7c1.7,0,3,1.4,3,3.1v4.9h-1.1v-4.9c0-1-0.9-1.9-1.9-1.9
		c-1,0-1.9,0.9-1.9,1.9v4.9h-1.1V43.2H220.3z"/>
	<path class="st0" d="M230.3,53.4c0.6,0,1-0.2,1.4-0.6l0.8,0.8c-0.6,0.6-1.4,0.9-2.2,0.9c-1.7,0-3-1.4-3-3.1v-2c0-1.7,1.4-3.1,3-3.1
		c1.7,0,3.1,1.4,3.1,3.1v1.2h-5v0.9C228.4,52.5,229.3,53.4,230.3,53.4z M230.3,47.5c-1.1,0-1.9,0.8-1.9,2h3.8
		C232.2,48.4,231.4,47.5,230.3,47.5z"/>
	<path class="st0" d="M245.3,44.3c-1.4,0-2.5,1.1-2.5,2.5v4c0,1.4,1.1,2.5,2.5,2.5c1.4,0,2.5-1,2.5-2.5h1.3c0,0.4,0,0.6-0.1,1
		c-0.4,1.7-2,2.8-3.6,2.8c-2.1,0-3.8-1.7-3.8-3.8v-4c0-2.1,1.7-3.8,3.8-3.8c1.7,0,3.2,1.1,3.6,2.8c0.1,0.3,0.1,0.5,0.1,1h-1.3
		C247.7,45.3,246.7,44.3,245.3,44.3z"/>
	<path class="st0" d="M253.9,53.4c0.6,0,1-0.2,1.4-0.6l0.8,0.8c-0.6,0.6-1.4,0.9-2.2,0.9c-1.7,0-3-1.4-3-3.1v-2c0-1.7,1.4-3.1,3-3.1
		c1.7,0,3.1,1.4,3.1,3.1v1.2h-5v0.9C252,52.5,252.9,53.4,253.9,53.4z M254,47.5c-1.1,0-1.9,0.8-1.9,2h3.8
		C255.9,48.4,255,47.5,254,47.5z"/>
	<path class="st0" d="M260.1,46.4v0.7c0.5-0.5,1.2-0.7,1.9-0.7c1.7,0,3.1,1.4,3.1,3.1v4.9h-1.1v-4.9c0-1-0.9-1.9-1.9-1.9
		c-1,0-1.9,0.9-1.9,1.9v4.9h-1.1v-8H260.1z"/>
	<path class="st0" d="M269.8,53.3h0.3v1.1h-0.3c-1.2,0-2.1-0.9-2.1-2.1v-4.8h-0.9v-1.1h0.9v-3.3h1.1v3.3h1.6v1.1h-1.6v4.8
		C268.8,52.9,269.2,53.3,269.8,53.3z"/>
	<path class="st0" d="M275.1,53.4c0.6,0,1-0.2,1.4-0.6l0.8,0.8c-0.6,0.6-1.4,0.9-2.2,0.9c-1.7,0-3-1.4-3-3.1v-2c0-1.7,1.4-3.1,3-3.1
		c1.7,0,3.1,1.4,3.1,3.1v1.2h-5v0.9C273.2,52.5,274,53.4,275.1,53.4z M275.1,47.5c-1.1,0-1.9,0.8-1.9,2h3.8
		C277,48.4,276.1,47.5,275.1,47.5z"/>
	<path class="st0" d="M281.2,46.4v0.7c0.5-0.5,1.2-0.7,1.9-0.7c0.8,0,1.6,0.3,2.2,0.9l-0.8,0.8c-0.4-0.4-0.8-0.6-1.4-0.6
		c-1,0-1.9,0.9-1.9,1.9v4.9h-1.1v-8H281.2z"/>
	<path class="st0" d="M294.1,54.5v-6.6h-0.9v-1.1h0.9v-1.5c0-1.2,0.9-2.1,2.1-2.1h0.9v1.1h-0.9c-0.5,0-0.9,0.4-0.9,0.9v1.5h1.6v1.1
		h-1.6v6.6H294.1z"/>
	<path class="st0" d="M301.6,54.5c-1.7,0-3.1-1.4-3.1-3.1v-2c0-1.7,1.4-3.1,3.1-3.1c1.7,0,3,1.4,3,3.1v2
		C304.7,53.2,303.3,54.5,301.6,54.5z M301.6,53.4c1,0,1.9-0.9,1.9-1.9v-2c0-1-0.9-1.9-1.9-1.9c-1,0-1.9,0.9-1.9,1.9v2
		C299.7,52.5,300.6,53.4,301.6,53.4z"/>
	<path class="st0" d="M307.9,46.4v0.7c0.5-0.5,1.2-0.7,1.9-0.7c0.8,0,1.6,0.3,2.2,0.9l-0.8,0.8c-0.4-0.4-0.8-0.6-1.4-0.6
		c-1,0-1.9,0.9-1.9,1.9v4.9h-1.1v-8H307.9z"/>
	<path class="st0" d="M321.3,44.5H320v-1.4h1.4V44.5z M321.2,54.5h-1.1v-8h1.1V54.5z"/>
	<path class="st0" d="M331.1,46.9c0,2.1-1.7,3.8-3.8,3.8h-2.5v3.8h-1.2V43.2h3.8C329.4,43.2,331.1,44.8,331.1,46.9z M329.8,46.9
		c0-1.4-1.1-2.5-2.5-2.5h-2.5v5h2.5C328.7,49.4,329.8,48.3,329.8,46.9z"/>
	<path class="st0" d="M336.3,53.3c1.1,0,1.9-0.8,1.9-2c0-0.8-0.5-1.4-1.5-1.9l-1.6-0.7c-1.5-0.6-2.2-1.5-2.2-2.8
		c0-1.7,1.3-2.9,3.1-2.9c1.6,0,2.8,0.7,3.7,2.3l-1.1,0.5c-0.6-1-1.5-1.5-2.5-1.5c-1.1,0-1.9,0.7-1.9,1.6c0,0.7,0.4,1.2,1.4,1.7
		l1.7,0.7c1.6,0.7,2.2,1.6,2.2,3.1c0,1.9-1.3,3.2-3.2,3.2c-1.5,0-2.7-0.8-3.6-2.3l1.1-0.4C334.4,52.8,335.2,53.3,336.3,53.3z"/>
	<path class="st0" d="M351.5,44.3c-1.4,0-2.5,1.1-2.5,2.5v4c0,1.4,1.1,2.5,2.5,2.5c1.4,0,2.5-1,2.5-2.5h1.3c0,0.4,0,0.6-0.1,1
		c-0.4,1.7-2,2.8-3.6,2.8c-2.1,0-3.8-1.7-3.8-3.8v-4c0-2.1,1.7-3.8,3.8-3.8c1.7,0,3.2,1.1,3.6,2.8c0.1,0.3,0.1,0.5,0.1,1H354
		C354,45.3,352.9,44.3,351.5,44.3z"/>
	<path class="st0" d="M360.2,53.4c0.6,0,1-0.2,1.4-0.6l0.8,0.8c-0.6,0.6-1.4,0.9-2.2,0.9c-1.7,0-3-1.4-3-3.1v-2c0-1.7,1.4-3.1,3-3.1
		c1.7,0,3.1,1.4,3.1,3.1v1.2h-5v0.9C358.3,52.5,359.1,53.4,360.2,53.4z M360.2,47.5c-1.1,0-1.9,0.8-1.9,2h3.8
		C362.1,48.4,361.2,47.5,360.2,47.5z"/>
	<path class="st0" d="M367.3,53.3h0.5v1.1h-0.5c-1.2,0-2.1-0.9-2.1-2.1v-9.2h1.1v9.2C366.3,52.9,366.8,53.3,367.3,53.3z"/>
	<path class="st0" d="M371.5,53.3h0.5v1.1h-0.5c-1.2,0-2.1-0.9-2.1-2.1v-9.2h1.1v9.2C370.6,52.9,371,53.3,371.5,53.3z"/>
	<path class="st0" d="M386.1,54.5l-2.1-4.3h-2.8v4.3h-1.2V43.2h4c2,0,3.5,1.6,3.5,3.5c0,1.4-0.9,2.7-2.2,3.3l2.2,4.5H386.1z
		 M386.2,46.7c0-1.2-1-2.3-2.3-2.3h-2.8v4.5h2.8C385.2,48.9,386.2,47.9,386.2,46.7z"/>
	<path class="st0" d="M392,53.4c0.6,0,1-0.2,1.4-0.6l0.8,0.8c-0.6,0.6-1.4,0.9-2.2,0.9c-1.7,0-3-1.4-3-3.1v-2c0-1.7,1.4-3.1,3-3.1
		c1.7,0,3.1,1.4,3.1,3.1v1.2h-5v0.9C390.1,52.5,391,53.4,392,53.4z M392,47.5c-1.1,0-1.9,0.8-1.9,2h3.8
		C394,48.4,393.1,47.5,392,47.5z"/>
	<path class="st0" d="M399.3,53.4c0.6,0,1.2-0.5,1.2-1.1c0-0.5-0.3-1-1-1.3l-0.8-0.4c-1.3-0.6-1.8-1.3-1.8-2.2c0-1.2,1-2.1,2.3-2.1
		c1.2,0,2.1,0.6,2.6,1.7l-1,0.5c-0.4-0.6-1-1-1.6-1c-0.6,0-1.1,0.4-1.1,1c0,0.4,0.3,0.7,1,1.1L400,50c1.2,0.5,1.7,1.2,1.7,2.2
		c0,1.3-1,2.3-2.3,2.3c-1.2,0-2.1-0.6-2.6-1.7l1-0.5C398.1,53,398.7,53.4,399.3,53.4z"/>
	<path class="st0" d="M406.4,53.4c0.6,0,1-0.2,1.4-0.6l0.8,0.8c-0.6,0.6-1.4,0.9-2.2,0.9c-1.7,0-3-1.4-3-3.1v-2c0-1.7,1.4-3.1,3-3.1
		c1.7,0,3.1,1.4,3.1,3.1v1.2h-5v0.9C404.5,52.5,405.4,53.4,406.4,53.4z M406.5,47.5c-1.1,0-1.9,0.8-1.9,2h3.8
		C408.4,48.4,407.5,47.5,406.5,47.5z"/>
	<path class="st0" d="M414.2,47.5c-0.8,0-1.4,0.5-1.8,1.2l-1.1-0.4c0.5-1.2,1.6-1.9,2.8-1.9c1.7,0,3,1.4,3,3.1v5h-1.2v-1
		c-0.5,0.7-1.1,1-1.9,1h-0.7c-1.3,0-2.4-1-2.4-2.3c0-1.3,1-2.4,2.4-2.4h2.6v-0.3C416.1,48.4,415.2,47.5,414.2,47.5z M412.3,52.1
		c0,0.7,0.5,1.2,1.2,1.2h0.7c1.1,0,1.9-1,1.9-2.4h-2.6C412.8,50.9,412.3,51.4,412.3,52.1z"/>
	<path class="st0" d="M420.6,46.4v0.7c0.5-0.5,1.2-0.7,1.9-0.7c0.8,0,1.6,0.3,2.2,0.9l-0.8,0.8c-0.4-0.4-0.8-0.6-1.4-0.6
		c-1,0-1.9,0.9-1.9,1.9v4.9h-1.1v-8H420.6z"/>
	<path class="st0" d="M429.1,47.5c-1,0-1.9,0.9-1.9,1.9v2c0,1,0.9,1.9,1.9,1.9c1.1,0,1.9-0.8,1.9-1.9h1.1c-0.1,1.8-1.3,3.1-3.1,3.1
		c-1.7,0-3-1.4-3-3.1v-2c0-1.7,1.4-3.1,3-3.1c1.7,0,3,1.3,3.1,3.1H431C431,48.3,430.2,47.5,429.1,47.5z"/>
	<path class="st0" d="M435.2,43.2v4c0.5-0.5,1.2-0.7,1.9-0.7c1.7,0,3,1.4,3,3.1v4.9h-1.1v-4.9c0-1-0.9-1.9-1.9-1.9
		c-1,0-1.9,0.9-1.9,1.9v4.9h-1.1V43.2H435.2z"/>
	<path class="st0" d="M3,65.5c-0.8,0-1.4,0.5-1.8,1.2l-1.1-0.4c0.5-1.2,1.6-1.9,2.8-1.9c1.7,0,3,1.4,3,3.1v5H5v-1
		c-0.5,0.7-1.1,1-1.9,1H2.4c-1.3,0-2.4-1-2.4-2.3c0-1.3,1-2.4,2.4-2.4H5v-0.3C5,66.4,4.1,65.5,3,65.5z M1.1,70.1
		c0,0.7,0.5,1.2,1.2,1.2H3c1.1,0,1.9-1,1.9-2.4H2.4C1.7,68.9,1.1,69.4,1.1,70.1z"/>
	<path class="st0" d="M9.4,64.4v0.7c0.5-0.5,1.2-0.7,1.9-0.7c1.7,0,3.1,1.4,3.1,3.1v4.9h-1.1v-4.9c0-1-0.9-1.9-1.9-1.9
		c-1,0-1.9,0.9-1.9,1.9v4.9H8.3v-8H9.4z"/>
	<path class="st0" d="M21.3,71.7c-0.5,0.5-1.2,0.7-1.9,0.7c-1.7,0-3.1-1.4-3.1-3v-1.9c0-1.7,1.4-3.1,3.1-3.1c0.7,0,1.4,0.2,1.9,0.7
		v-4h1.1v11.3h-1.1V71.7z M19.4,71.3c1,0,1.9-0.9,1.9-1.9v-1.9c0-1-0.9-1.9-1.9-1.9c-1,0-1.9,0.9-1.9,1.9v1.9
		C17.5,70.4,18.4,71.3,19.4,71.3z"/>
	<path class="st0" d="M31.8,72.5h-1.3l4-11.3h1.3l4,11.3h-1.3l-0.9-2.5h-4.9L31.8,72.5z M33.2,68.7h4l-2-5.8L33.2,68.7z"/>
	<path class="st0" d="M42.7,65.2c0.5-0.5,1.2-0.7,1.9-0.7c1.7,0,3.1,1.4,3.1,3.1v1.9c0,1.7-1.4,3.1-3.1,3.1c-0.7,0-1.4-0.2-1.9-0.7
		v4h-1.1V64.4h1.1V65.2z M44.6,65.6c-1,0-1.9,0.9-1.9,1.9v1.9c0,1,0.9,1.9,1.9,1.9c1,0,1.9-0.9,1.9-1.9v-1.9
		C46.6,66.5,45.7,65.6,44.6,65.6z"/>
	<path class="st0" d="M50.8,65.2c0.5-0.5,1.2-0.7,1.9-0.7c1.7,0,3.1,1.4,3.1,3.1v1.9c0,1.7-1.4,3.1-3.1,3.1c-0.7,0-1.4-0.2-1.9-0.7
		v4h-1.1V64.4h1.1V65.2z M52.7,65.6c-1,0-1.9,0.9-1.9,1.9v1.9c0,1,0.9,1.9,1.9,1.9c1,0,1.9-0.9,1.9-1.9v-1.9
		C54.6,66.5,53.8,65.6,52.7,65.6z"/>
	<path class="st0" d="M59.9,71.3h0.5v1.1h-0.5c-1.2,0-2.1-0.9-2.1-2.1v-9.2H59v9.2C59,70.9,59.4,71.3,59.9,71.3z"/>
	<path class="st0" d="M63.3,62.5H62v-1.4h1.4V62.5z M63.2,72.5h-1.1v-8h1.1V72.5z"/>
	<path class="st0" d="M68.3,65.5c-1,0-1.9,0.9-1.9,1.9v2c0,1,0.9,1.9,1.9,1.9c1.1,0,1.9-0.8,1.9-1.9h1.1c-0.1,1.8-1.3,3.1-3.1,3.1
		c-1.7,0-3-1.4-3-3.1v-2c0-1.7,1.4-3.1,3-3.1c1.7,0,3,1.3,3.1,3.1h-1.1C70.2,66.3,69.4,65.5,68.3,65.5z"/>
	<path class="st0" d="M76.2,65.5c-0.8,0-1.4,0.5-1.8,1.2l-1.1-0.4c0.5-1.2,1.6-1.9,2.8-1.9c1.7,0,3,1.4,3,3.1v5h-1.2v-1
		c-0.5,0.7-1.1,1-1.9,1h-0.7c-1.3,0-2.4-1-2.4-2.3c0-1.3,1-2.4,2.4-2.4h2.6v-0.3C78.1,66.4,77.3,65.5,76.2,65.5z M74.3,70.1
		c0,0.7,0.5,1.2,1.2,1.2h0.7c1.1,0,1.9-1,1.9-2.4h-2.6C74.8,68.9,74.3,69.4,74.3,70.1z"/>
	<path class="st0" d="M84,71.3h0.3v1.1H84c-1.2,0-2.1-0.9-2.1-2.1v-4.8h-0.9v-1.1h0.9v-3.3H83v3.3h1.6v1.1H83v4.8
		C83,70.9,83.4,71.3,84,71.3z"/>
	<path class="st0" d="M87.9,62.5h-1.4v-1.4h1.4V62.5z M87.8,72.5h-1.1v-8h1.1V72.5z"/>
	<path class="st0" d="M92.8,72.5c-1.7,0-3.1-1.4-3.1-3.1v-2c0-1.7,1.4-3.1,3.1-3.1c1.7,0,3,1.4,3,3.1v2
		C95.9,71.2,94.6,72.5,92.8,72.5z M92.8,71.4c1,0,1.9-0.9,1.9-1.9v-2c0-1-0.9-1.9-1.9-1.9c-1,0-1.9,0.9-1.9,1.9v2
		C90.9,70.5,91.8,71.4,92.8,71.4z"/>
	<path class="st0" d="M99.1,64.4v0.7c0.5-0.5,1.2-0.7,1.9-0.7c1.7,0,3.1,1.4,3.1,3.1v4.9h-1.1v-4.9c0-1-0.9-1.9-1.9-1.9
		c-1,0-1.9,0.9-1.9,1.9v4.9h-1.1v-8H99.1z"/>
	<path class="st0" d="M112.5,69.3v-4.9c0-1.8,1.3-3.1,3.2-3.2v1.2c-1.1,0-1.9,0.8-1.9,1.9v4.9c0,1.1,0.8,1.9,1.9,1.9v1.2
		C113.9,72.4,112.5,71.1,112.5,69.3z"/>
	<path class="st0" d="M121,62.3c-1.4,0-2.5,1.1-2.5,2.5v4c0,1.4,1.1,2.5,2.5,2.5c1.4,0,2.5-1,2.5-2.5h1.3c0,0.4,0,0.6-0.1,1
		c-0.4,1.7-2,2.8-3.6,2.8c-2.1,0-3.8-1.7-3.8-3.8v-4c0-2.1,1.7-3.8,3.8-3.8c1.7,0,3.2,1.1,3.6,2.8c0.1,0.3,0.1,0.5,0.1,1h-1.3
		C123.5,63.3,122.4,62.3,121,62.3z"/>
	<path class="st0" d="M128.1,62.5h-1.4v-1.4h1.4V62.5z M127.9,72.5h-1.1v-8h1.1V72.5z"/>
	<path class="st0" d="M136.4,72.5l-2.1-4.3h-2.8v4.3h-1.2V61.2h4c2,0,3.5,1.6,3.5,3.5c0,1.4-0.9,2.7-2.2,3.3l2.2,4.5H136.4z
		 M136.6,64.7c0-1.2-1-2.3-2.3-2.3h-2.8v4.5h2.8C135.5,66.9,136.6,65.9,136.6,64.7z"/>
	<path class="st0" d="M140.8,72.5h-1.3l4-11.3h1.3l4,11.3h-1.3l-0.9-2.5h-4.9L140.8,72.5z M142.1,68.7h4l-2-5.8L142.1,68.7z"/>
	<path class="st0" d="M152.5,69.3v-4.9c0-1.1-0.8-1.9-1.9-1.9v-1.2c1.8,0,3.2,1.4,3.2,3.2v4.9c0,1.8-1.3,3.1-3.2,3.2v-1.2
		C151.7,71.2,152.5,70.4,152.5,69.3z"/>
	<path class="st0" d="M157,72.5l-1.4,1.4v-2.7h1.4V72.5z"/>
	<path class="st0" d="M173.3,61.2l-3.9,5.3l3.8,6h-1.4l-3.1-5l-1.7,2.4v2.6h-1.2V61.2h1.2v6.7l4.9-6.7H173.3z"/>
	<path class="st0" d="M174.8,64.4l2.1,6.1l2.2-6.1h1.2l-3.5,9.7c-0.4,1-1.2,1.5-2.4,1.6v-1.2c0.7,0,1.1-0.3,1.3-0.7l0.6-1.6
		l-2.8-7.7H174.8z"/>
	<path class="st0" d="M184.8,72.5c-1.7,0-3.1-1.4-3.1-3.1v-2c0-1.7,1.4-3.1,3.1-3.1c1.7,0,3,1.4,3,3.1v2
		C187.8,71.2,186.5,72.5,184.8,72.5z M184.8,71.4c1,0,1.9-0.9,1.9-1.9v-2c0-1-0.9-1.9-1.9-1.9c-1,0-1.9,0.9-1.9,1.9v2
		C182.9,70.5,183.7,71.4,184.8,71.4z"/>
	<path class="st0" d="M192.5,71.3h0.3v1.1h-0.3c-1.2,0-2.1-0.9-2.1-2.1v-4.8h-0.9v-1.1h0.9v-3.3h1.1v3.3h1.6v1.1h-1.6v4.8
		C191.5,70.9,191.9,71.3,192.5,71.3z"/>
	<path class="st0" d="M197.8,72.5c-1.7,0-3.1-1.4-3.1-3.1v-2c0-1.7,1.4-3.1,3.1-3.1c1.7,0,3,1.4,3,3.1v2
		C200.8,71.2,199.5,72.5,197.8,72.5z M197.8,71.4c1,0,1.9-0.9,1.9-1.9v-2c0-1-0.9-1.9-1.9-1.9c-1,0-1.9,0.9-1.9,1.9v2
		C195.9,70.5,196.7,71.4,197.8,71.4z"/>
	<path class="st0" d="M210.5,68.8c0,1.4,1.2,2.5,2.5,2.5s2.5-1.2,2.5-2.5v-7.6h1.2v7.6c0,2.1-1.7,3.8-3.8,3.8
		c-2.1,0-3.8-1.7-3.8-3.8v-7.6h1.2V68.8z"/>
	<path class="st0" d="M220.2,64.4v0.7c0.5-0.5,1.2-0.7,1.9-0.7c1.7,0,3.1,1.4,3.1,3.1v4.9H224v-4.9c0-1-0.9-1.9-1.9-1.9
		c-1,0-1.9,0.9-1.9,1.9v4.9H219v-8H220.2z"/>
	<path class="st0" d="M228.6,62.5h-1.4v-1.4h1.4V62.5z M228.5,72.5h-1.1v-8h1.1V72.5z"/>
	<path class="st0" d="M236.5,64.4l-2.5,8h-1.1l-2.5-8h1.3l1.8,6.2l1.8-6.2H236.5z"/>
	<path class="st0" d="M240.9,71.4c0.6,0,1-0.2,1.4-0.6l0.8,0.8c-0.6,0.6-1.4,0.9-2.2,0.9c-1.7,0-3-1.4-3-3.1v-2c0-1.7,1.4-3.1,3-3.1
		c1.7,0,3.1,1.4,3.1,3.1v1.2h-5v0.9C239,70.5,239.8,71.4,240.9,71.4z M240.9,65.5c-1.1,0-1.9,0.8-1.9,2h3.8
		C242.8,66.4,241.9,65.5,240.9,65.5z"/>
	<path class="st0" d="M247,64.4v0.7c0.5-0.5,1.2-0.7,1.9-0.7c0.8,0,1.6,0.3,2.2,0.9l-0.8,0.8c-0.4-0.4-0.8-0.6-1.4-0.6
		c-1,0-1.9,0.9-1.9,1.9v4.9h-1.1v-8H247z"/>
	<path class="st0" d="M255.1,71.4c0.6,0,1.2-0.5,1.2-1.1c0-0.5-0.3-1-1-1.3l-0.8-0.4c-1.3-0.6-1.8-1.3-1.8-2.2c0-1.2,1-2.1,2.3-2.1
		c1.2,0,2.1,0.6,2.6,1.7l-1,0.5c-0.4-0.6-1-1-1.6-1c-0.6,0-1.1,0.4-1.1,1c0,0.4,0.3,0.7,1,1.1l0.9,0.4c1.2,0.5,1.7,1.2,1.7,2.2
		c0,1.3-1,2.3-2.3,2.3c-1.2,0-2.1-0.6-2.6-1.7l1-0.5C253.9,71,254.5,71.4,255.1,71.4z"/>
	<path class="st0" d="M260.7,62.5h-1.4v-1.4h1.4V62.5z M260.6,72.5h-1.1v-8h1.1V72.5z"/>
	<path class="st0" d="M265.6,71.3h0.3v1.1h-0.3c-1.2,0-2.1-0.9-2.1-2.1v-4.8h-0.9v-1.1h0.9v-3.3h1.1v3.3h1.6v1.1h-1.6v4.8
		C264.6,70.9,265,71.3,265.6,71.3z"/>
	<path class="st0" d="M269.2,64.4l2.1,6.1l2.2-6.1h1.2l-3.5,9.7c-0.4,1-1.2,1.5-2.4,1.6v-1.2c0.7,0,1.1-0.3,1.3-0.7l0.6-1.6
		l-2.8-7.7H269.2z"/>
	<path class="st0" d="M283.6,72.5h-1.3l3.5-11.3h1.3L283.6,72.5z"/>
	<path class="st0" d="M301.5,72.5l-2.1-4.3h-2.8v4.3h-1.2V61.2h4c2,0,3.5,1.6,3.5,3.5c0,1.4-0.9,2.7-2.2,3.3l2.2,4.5H301.5z
		 M301.6,64.7c0-1.2-1-2.3-2.3-2.3h-2.8v4.5h2.8C300.6,66.9,301.6,65.9,301.6,64.7z"/>
	<path class="st0" d="M307.4,71.4c0.6,0,1-0.2,1.4-0.6l0.8,0.8c-0.6,0.6-1.4,0.9-2.2,0.9c-1.7,0-3-1.4-3-3.1v-2c0-1.7,1.4-3.1,3-3.1
		c1.7,0,3.1,1.4,3.1,3.1v1.2h-5v0.9C305.5,70.5,306.4,71.4,307.4,71.4z M307.5,65.5c-1.1,0-1.9,0.8-1.9,2h3.8
		C309.4,66.4,308.5,65.5,307.5,65.5z"/>
	<path class="st0" d="M313.5,65.2c0.5-0.5,1.2-0.7,1.9-0.7c1.7,0,3.1,1.4,3.1,3.1v1.9c0,1.7-1.4,3.1-3.1,3.1c-0.7,0-1.4-0.2-1.9-0.7
		v4h-1.1V64.4h1.1V65.2z M315.4,65.6c-1,0-1.9,0.9-1.9,1.9v1.9c0,1,0.9,1.9,1.9,1.9c1,0,1.9-0.9,1.9-1.9v-1.9
		C317.3,66.5,316.5,65.6,315.4,65.6z"/>
	<path class="st0" d="M321.6,64.4v0.7c0.5-0.5,1.2-0.7,1.9-0.7c0.8,0,1.6,0.3,2.2,0.9l-0.8,0.8c-0.4-0.4-0.8-0.6-1.4-0.6
		c-1,0-1.9,0.9-1.9,1.9v4.9h-1.1v-8H321.6z"/>
	<path class="st0" d="M330.2,71.4c0.6,0,1-0.2,1.4-0.6l0.8,0.8c-0.6,0.6-1.4,0.9-2.2,0.9c-1.7,0-3-1.4-3-3.1v-2c0-1.7,1.4-3.1,3-3.1
		c1.7,0,3.1,1.4,3.1,3.1v1.2h-5v0.9C328.3,70.5,329.1,71.4,330.2,71.4z M330.2,65.5c-1.1,0-1.9,0.8-1.9,2h3.8
		C332.1,66.4,331.2,65.5,330.2,65.5z"/>
	<path class="st0" d="M337.4,71.4c0.6,0,1.2-0.5,1.2-1.1c0-0.5-0.3-1-1-1.3l-0.8-0.4c-1.3-0.6-1.8-1.3-1.8-2.2c0-1.2,1-2.1,2.3-2.1
		c1.2,0,2.1,0.6,2.6,1.7l-1,0.5c-0.4-0.6-1-1-1.6-1c-0.6,0-1.1,0.4-1.1,1c0,0.4,0.3,0.7,1,1.1l0.9,0.4c1.2,0.5,1.7,1.2,1.7,2.2
		c0,1.3-1,2.3-2.3,2.3c-1.2,0-2.1-0.6-2.6-1.7l1-0.5C336.2,71,336.9,71.4,337.4,71.4z"/>
	<path class="st0" d="M344.6,71.4c0.6,0,1-0.2,1.4-0.6l0.8,0.8c-0.6,0.6-1.4,0.9-2.2,0.9c-1.7,0-3-1.4-3-3.1v-2c0-1.7,1.4-3.1,3-3.1
		c1.7,0,3.1,1.4,3.1,3.1v1.2h-5v0.9C342.7,70.5,343.5,71.4,344.6,71.4z M344.6,65.5c-1.1,0-1.9,0.8-1.9,2h3.8
		C346.5,66.4,345.6,65.5,344.6,65.5z"/>
	<path class="st0" d="M350.7,64.4v0.7c0.5-0.5,1.2-0.7,1.9-0.7c1.7,0,3.1,1.4,3.1,3.1v4.9h-1.1v-4.9c0-1-0.9-1.9-1.9-1.9
		c-1,0-1.9,0.9-1.9,1.9v4.9h-1.1v-8H350.7z"/>
	<path class="st0" d="M360.4,71.3h0.3v1.1h-0.3c-1.2,0-2.1-0.9-2.1-2.1v-4.8h-0.9v-1.1h0.9v-3.3h1.1v3.3h1.6v1.1h-1.6v4.8
		C359.4,70.9,359.8,71.3,360.4,71.3z"/>
	<path class="st0" d="M365.7,65.5c-0.8,0-1.4,0.5-1.8,1.2l-1.1-0.4c0.5-1.2,1.6-1.9,2.8-1.9c1.7,0,3,1.4,3,3.1v5h-1.2v-1
		c-0.5,0.7-1.1,1-1.9,1H365c-1.3,0-2.4-1-2.4-2.3c0-1.3,1-2.4,2.4-2.4h2.6v-0.3C367.6,66.4,366.7,65.5,365.7,65.5z M363.8,70.1
		c0,0.7,0.5,1.2,1.2,1.2h0.7c1.1,0,1.9-1,1.9-2.4H365C364.3,68.9,363.8,69.4,363.8,70.1z"/>
	<path class="st0" d="M373.5,71.3h0.3v1.1h-0.3c-1.2,0-2.1-0.9-2.1-2.1v-4.8h-0.9v-1.1h0.9v-3.3h1.1v3.3h1.6v1.1h-1.6v4.8
		C372.5,70.9,372.9,71.3,373.5,71.3z"/>
	<path class="st0" d="M377.4,62.5H376v-1.4h1.4V62.5z M377.2,72.5h-1.1v-8h1.1V72.5z"/>
	<path class="st0" d="M385.2,64.4l-2.5,8h-1.1l-2.5-8h1.3l1.8,6.2l1.8-6.2H385.2z"/>
	<path class="st0" d="M389.6,71.4c0.6,0,1-0.2,1.4-0.6l0.8,0.8c-0.6,0.6-1.4,0.9-2.2,0.9c-1.7,0-3-1.4-3-3.1v-2c0-1.7,1.4-3.1,3-3.1
		c1.7,0,3.1,1.4,3.1,3.1v1.2h-5v0.9C387.7,70.5,388.6,71.4,389.6,71.4z M389.6,65.5c-1.1,0-1.9,0.8-1.9,2h3.8
		C391.5,66.4,390.7,65.5,389.6,65.5z"/>
	<path class="st0" d="M408.6,64.9v3.8c0,2.1-1.7,3.8-3.8,3.8h-3.8V61.2h3.8C407,61.2,408.6,62.8,408.6,64.9z M407.4,68.7v-3.8
		c0-1.4-1.1-2.5-2.5-2.5h-2.5v8.8h2.5C406.3,71.2,407.4,70.1,407.4,68.7z"/>
	<path class="st0" d="M412,62.5h-1.4v-1.4h1.4V62.5z M411.8,72.5h-1.1v-8h1.1V72.5z"/>
	<path class="st0" d="M415.3,64.4v0.7c0.5-0.5,1.2-0.7,1.9-0.7c0.8,0,1.6,0.3,2.2,0.9l-0.8,0.8c-0.4-0.4-0.8-0.6-1.4-0.6
		c-1,0-1.9,0.9-1.9,1.9v4.9h-1.1v-8H415.3z"/>
	<path class="st0" d="M423.8,71.4c0.6,0,1-0.2,1.4-0.6l0.8,0.8c-0.6,0.6-1.4,0.9-2.2,0.9c-1.7,0-3-1.4-3-3.1v-2c0-1.7,1.4-3.1,3-3.1
		c1.7,0,3.1,1.4,3.1,3.1v1.2h-5v0.9C421.9,70.5,422.8,71.4,423.8,71.4z M423.8,65.5c-1.1,0-1.9,0.8-1.9,2h3.8
		C425.7,66.4,424.9,65.5,423.8,65.5z"/>
	<path class="st0" d="M431.7,65.5c-1,0-1.9,0.9-1.9,1.9v2c0,1,0.9,1.9,1.9,1.9c1.1,0,1.9-0.8,1.9-1.9h1.1c-0.1,1.8-1.3,3.1-3.1,3.1
		c-1.7,0-3-1.4-3-3.1v-2c0-1.7,1.4-3.1,3-3.1c1.7,0,3,1.3,3.1,3.1h-1.1C433.6,66.3,432.8,65.5,431.7,65.5z"/>
	<path class="st0" d="M439.4,71.3h0.3v1.1h-0.3c-1.2,0-2.1-0.9-2.1-2.1v-4.8h-0.9v-1.1h0.9v-3.3h1.1v3.3h1.6v1.1h-1.6v4.8
		C438.5,70.9,438.9,71.3,439.4,71.3z"/>
	<path class="st0" d="M444.8,72.5c-1.7,0-3.1-1.4-3.1-3.1v-2c0-1.7,1.4-3.1,3.1-3.1c1.7,0,3,1.4,3,3.1v2
		C447.8,71.2,446.5,72.5,444.8,72.5z M444.8,71.4c1,0,1.9-0.9,1.9-1.9v-2c0-1-0.9-1.9-1.9-1.9c-1,0-1.9,0.9-1.9,1.9v2
		C442.8,70.5,443.7,71.4,444.8,71.4z"/>
	<path class="st0" d="M451,64.4v0.7c0.5-0.5,1.2-0.7,1.9-0.7c0.8,0,1.6,0.3,2.2,0.9l-0.8,0.8c-0.4-0.4-0.8-0.6-1.4-0.6
		c-1,0-1.9,0.9-1.9,1.9v4.9h-1.1v-8H451z"/>
	<path class="st0" d="M466,72.5c-1.7,0-3.1-1.4-3.1-3.1v-2c0-1.7,1.4-3.1,3.1-3.1c1.7,0,3,1.4,3,3.1v2C469,71.2,467.7,72.5,466,72.5
		z M466,71.4c1,0,1.9-0.9,1.9-1.9v-2c0-1-0.9-1.9-1.9-1.9c-1,0-1.9,0.9-1.9,1.9v2C464.1,70.5,464.9,71.4,466,71.4z"/>
	<path class="st0" d="M471.6,72.5v-6.6h-0.9v-1.1h0.9v-1.5c0-1.2,0.9-2.1,2.1-2.1h0.9v1.1h-0.9c-0.5,0-0.9,0.4-0.9,0.9v1.5h1.6v1.1
		h-1.6v6.6H471.6z"/>
	<path class="st0" d="M485.7,71.3h0.3v1.1h-0.3c-1.2,0-2.1-0.9-2.1-2.1v-4.8h-0.9v-1.1h0.9v-3.3h1.1v3.3h1.6v1.1h-1.6v4.8
		C484.7,70.9,485.1,71.3,485.7,71.3z"/>
	<path class="st0" d="M489.4,61.2v4c0.5-0.5,1.2-0.7,1.9-0.7c1.7,0,3,1.4,3,3.1v4.9h-1.1v-4.9c0-1-0.9-1.9-1.9-1.9
		c-1,0-1.9,0.9-1.9,1.9v4.9h-1.1V61.2H489.4z"/>
	<path class="st0" d="M499.4,71.4c0.6,0,1-0.2,1.4-0.6l0.8,0.8c-0.6,0.6-1.4,0.9-2.2,0.9c-1.7,0-3-1.4-3-3.1v-2c0-1.7,1.4-3.1,3-3.1
		c1.7,0,3.1,1.4,3.1,3.1v1.2h-5v0.9C497.5,70.5,498.4,71.4,499.4,71.4z M499.4,65.5c-1.1,0-1.9,0.8-1.9,2h3.8
		C501.3,66.4,500.5,65.5,499.4,65.5z"/>
	<path class="st0" d="M514.3,62.3c-1.4,0-2.5,1.1-2.5,2.5v4c0,1.4,1.1,2.5,2.5,2.5c1.4,0,2.5-1,2.5-2.5h1.3c0,0.4,0,0.6-0.1,1
		c-0.4,1.7-2,2.8-3.6,2.8c-2.1,0-3.8-1.7-3.8-3.8v-4c0-2.1,1.7-3.8,3.8-3.8c1.7,0,3.2,1.1,3.6,2.8c0.1,0.3,0.1,0.5,0.1,1h-1.3
		C516.8,63.3,515.8,62.3,514.3,62.3z"/>
	<path class="st0" d="M521.4,62.5H520v-1.4h1.4V62.5z M521.3,72.5h-1.1v-8h1.1V72.5z"/>
	<path class="st0" d="M529.8,72.5l-2.1-4.3h-2.8v4.3h-1.2V61.2h4c2,0,3.5,1.6,3.5,3.5c0,1.4-0.9,2.7-2.2,3.3l2.2,4.5H529.8z
		 M529.9,64.7c0-1.2-1-2.3-2.3-2.3h-2.8v4.5h2.8C528.9,66.9,529.9,65.9,529.9,64.7z"/>
	<path class="st0" d="M534.1,72.5h-1.3l4-11.3h1.3l4,11.3h-1.3l-0.9-2.5H535L534.1,72.5z M535.5,68.7h4l-2-5.8L535.5,68.7z"/>
	<path class="st0" d="M557.9,62.4h-6.3v3.8h4.4v1.2h-4.4v5h-1.2V61.2h7.5V62.4z"/>
	<path class="st0" d="M561.8,72.5c-1.7,0-3.1-1.4-3.1-3.1v-2c0-1.7,1.4-3.1,3.1-3.1c1.7,0,3,1.4,3,3.1v2
		C564.8,71.2,563.5,72.5,561.8,72.5z M561.8,71.4c1,0,1.9-0.9,1.9-1.9v-2c0-1-0.9-1.9-1.9-1.9c-1,0-1.9,0.9-1.9,1.9v2
		C559.8,70.5,560.7,71.4,561.8,71.4z"/>
	<path class="st0" d="M571.7,72.4v-0.7c-0.5,0.5-1.2,0.7-1.9,0.7c-1.7,0-3.1-1.4-3.1-3v-5h1.1v5c0,1,0.9,1.9,1.9,1.9
		s1.9-0.9,1.9-1.9v-5h1.1v8H571.7z"/>
	<path class="st0" d="M576.3,64.4v0.7c0.5-0.5,1.2-0.7,1.9-0.7c1.7,0,3.1,1.4,3.1,3.1v4.9h-1.1v-4.9c0-1-0.9-1.9-1.9-1.9
		c-1,0-1.9,0.9-1.9,1.9v4.9h-1.1v-8H576.3z"/>
	<path class="st0" d="M588.2,71.7c-0.5,0.5-1.2,0.7-1.9,0.7c-1.7,0-3.1-1.4-3.1-3v-1.9c0-1.7,1.4-3.1,3.1-3.1c0.7,0,1.4,0.2,1.9,0.7
		v-4h1.1v11.3h-1.1V71.7z M586.3,71.3c1,0,1.9-0.9,1.9-1.9v-1.9c0-1-0.9-1.9-1.9-1.9c-1,0-1.9,0.9-1.9,1.9v1.9
		C584.3,70.4,585.2,71.3,586.3,71.3z"/>
	<path class="st0" d="M594.3,65.5c-0.8,0-1.4,0.5-1.8,1.2l-1.1-0.4c0.5-1.2,1.6-1.9,2.8-1.9c1.7,0,3,1.4,3,3.1v5h-1.2v-1
		c-0.5,0.7-1.1,1-1.9,1h-0.7c-1.3,0-2.4-1-2.4-2.3c0-1.3,1-2.4,2.4-2.4h2.6v-0.3C596.2,66.4,595.3,65.5,594.3,65.5z M592.4,70.1
		c0,0.7,0.5,1.2,1.2,1.2h0.7c1.1,0,1.9-1,1.9-2.4h-2.6C592.9,68.9,592.4,69.4,592.4,70.1z"/>
	<path class="st0" d="M602,71.3h0.3v1.1H602c-1.2,0-2.1-0.9-2.1-2.1v-4.8H599v-1.1h0.9v-3.3h1.1v3.3h1.6v1.1h-1.6v4.8
		C601.1,70.9,601.5,71.3,602,71.3z"/>
	<path class="st0" d="M605.9,62.5h-1.4v-1.4h1.4V62.5z M605.8,72.5h-1.1v-8h1.1V72.5z"/>
	<path class="st0" d="M610.9,72.5c-1.7,0-3.1-1.4-3.1-3.1v-2c0-1.7,1.4-3.1,3.1-3.1c1.7,0,3,1.4,3,3.1v2
		C614,71.2,612.6,72.5,610.9,72.5z M610.9,71.4c1,0,1.9-0.9,1.9-1.9v-2c0-1-0.9-1.9-1.9-1.9c-1,0-1.9,0.9-1.9,1.9v2
		C609,70.5,609.9,71.4,610.9,71.4z"/>
	<path class="st0" d="M617.1,64.4v0.7c0.5-0.5,1.2-0.7,1.9-0.7c1.7,0,3.1,1.4,3.1,3.1v4.9h-1.1v-4.9c0-1-0.9-1.9-1.9-1.9
		c-1,0-1.9,0.9-1.9,1.9v4.9H616v-8H617.1z"/>
</g>
<g>
	<path class="st0" d="M18.9,100H12v22.9H7.4V100H0.6v-4.6h18.3V100z"/>
	<path class="st0" d="M28.7,107.2c-1.4,0-2.6,0.8-3.2,2.2l-3.7-1.5c1.2-2.9,3.8-4.6,6.9-4.6c4.1,0,7.4,3.4,7.4,7.5v12.2h-4v-1.3
		c-0.9,0.8-2.1,1.3-3.5,1.3H27c-3.2,0-5.7-2.6-5.7-5.7c0-3.3,2.7-5.7,5.7-5.7h5.2v-0.7C32.1,108.8,30.6,107.2,28.7,107.2z
		 M25.3,117.1c0,0.9,0.7,1.7,1.7,1.7h1.7c1.9,0,3.5-1.4,3.5-3.2v-0.2H27C26,115.4,25.3,116.1,25.3,117.1z"/>
	<path class="st0" d="M49.5,122.9v-1.3c-1.2,0.9-2.3,1.3-3.9,1.3c-4,0-7-3.2-7-7.4v-4.6c0-4.2,3.2-7.4,7.1-7.4
		c1.4,0,2.7,0.4,3.7,1.3v-9.3h4v27.5H49.5z M46.1,107.4c-1.9,0-3.4,1.5-3.4,3.4v4.6c0,1.9,1.5,3.4,3.4,3.4c1.9,0,3.4-1.5,3.4-3.4
		v-4.6C49.5,109,48,107.4,46.1,107.4z"/>
	<path class="st0" d="M63.7,107.2c-1.4,0-2.6,0.8-3.2,2.2l-3.7-1.5c1.2-2.9,3.8-4.6,6.9-4.6c4.1,0,7.4,3.4,7.4,7.5v12.2h-4v-1.3
		c-0.9,0.8-2.1,1.3-3.5,1.3H62c-3.2,0-5.7-2.6-5.7-5.7c0-3.3,2.7-5.7,5.7-5.7h5.2v-0.7C67.2,108.8,65.6,107.2,63.7,107.2z
		 M60.3,117.1c0,0.9,0.7,1.7,1.7,1.7h1.7c1.9,0,3.5-1.4,3.5-3.2v-0.2H62C61.1,115.4,60.3,116.1,60.3,117.1z"/>
	<path class="st0" d="M79.3,119.1c1.1,0,1.8-0.7,1.8-1.7c0-0.9-0.4-1.3-1.1-1.7l-3.3-1.7c-1.9-1-3-2.9-3-5c0-3.2,2.6-5.7,5.8-5.7
		c2.8,0,5.1,1.7,6.2,4L82,109c-0.5-1.1-1.4-1.7-2.6-1.7c-1,0-1.8,0.7-1.8,1.7c0,0.6,0.4,1.3,1.2,1.7l3.3,1.7c1.6,0.8,3,2.4,3,5
		c0,3.2-2.6,5.7-5.8,5.7c-2.7,0-5.1-1.7-6.2-4l3.7-1.7C77.4,118.4,78.3,119.1,79.3,119.1z"/>
	<path class="st0" d="M91.9,104.7c1-0.8,2.3-1.3,3.8-1.3c4.1,0,7.1,3.2,7.1,7.4v12h-4v-12c0-1.9-1.5-3.4-3.4-3.4
		c-1.9,0-3.4,1.5-3.4,3.4v12h-4V95.4h4V104.7z"/>
	<path class="st0" d="M110.3,99.4h-4v-4h4V99.4z M110.3,122.9h-4v-19.4h4V122.9z"/>
	<path class="st0" d="M132.6,122.9v-13.7l-6.9-13.7h4.6l4.6,9.2l4.6-9.2h4.6l-6.9,13.7v13.7H132.6z"/>
	<path class="st0" d="M153.2,107.2c-1.4,0-2.6,0.8-3.2,2.2l-3.7-1.5c1.2-2.9,3.8-4.6,6.9-4.6c4.1,0,7.4,3.4,7.4,7.5v12.2h-4v-1.3
		c-0.9,0.8-2.1,1.3-3.5,1.3h-1.7c-3.2,0-5.7-2.6-5.7-5.7c0-3.3,2.7-5.7,5.7-5.7h5.2v-0.7C156.6,108.8,155.1,107.2,153.2,107.2z
		 M149.8,117.1c0,0.9,0.7,1.7,1.7,1.7h1.7c1.9,0,3.5-1.4,3.5-3.2v-0.2h-5.2C150.5,115.4,149.8,116.1,149.8,117.1z"/>
	<path class="st0" d="M167.8,104.7c1-0.8,2.2-1.3,3.8-1.3c3.4,0,7.1,2.4,7.1,7.5v12h-4v-12c0-1.9-1.5-3.5-3.4-3.5
		c-1.9,0-3.4,1.5-3.4,3.5v12h-4v-19.4h4V104.7z"/>
	<path class="st0" d="M189,107.2c-1.4,0-2.6,0.8-3.2,2.2l-3.7-1.5c1.2-2.9,3.8-4.6,6.9-4.6c4.1,0,7.4,3.4,7.4,7.5v12.2h-4v-1.3
		c-0.9,0.8-2.1,1.3-3.5,1.3h-1.7c-3.2,0-5.7-2.6-5.7-5.7c0-3.3,2.7-5.7,5.7-5.7h5.2v-0.7C192.4,108.8,190.8,107.2,189,107.2z
		 M185.5,117.1c0,0.9,0.7,1.7,1.7,1.7h1.7c1.9,0,3.5-1.4,3.5-3.2v-0.2h-5.2C186.3,115.4,185.5,116.1,185.5,117.1z"/>
	<path class="st0" d="M203.7,99.4h-4v-4h4V99.4z M203.7,122.9h-4v-19.4h4V122.9z"/>
</g>
</svg>
