<?xml version="1.0" encoding="utf-8"?>
<!-- Generator: Adobe Illustrator 26.0.3, SVG Export Plug-In . SVG Version: 6.00 Build 0)  -->
<svg version="1.1" id="レイヤー_1" xmlns="http://www.w3.org/2000/svg" xmlns:xlink="http://www.w3.org/1999/xlink" x="0px"
	 y="0px" viewBox="0 0 622.1 150" style="enable-background:new 0 0 622.1 150;" xml:space="preserve">
<style type="text/css">
	.st0{fill:#040000;}
</style>
<g>
	<g>
		<path class="st0" d="M14.4,20.4c-1.5,2-3.4,3-5.9,3c-2.5,0-4.4-1-5.9-2.9c-1.5-2-2.2-4.5-2.2-7.7c0-3.2,0.7-5.8,2.2-7.7
			c1.5-1.9,3.4-2.9,5.9-2.9c2.5,0,4.4,1,5.9,2.9c1.5,2,2.2,4.5,2.2,7.7C16.6,15.9,15.9,18.5,14.4,20.4z M11.4,8
			c-0.7-1.4-1.6-2.1-2.8-2.1C7.4,5.9,6.4,6.6,5.7,8C5,9.4,4.6,11,4.6,12.7c0,1.8,0.4,3.4,1.1,4.8c0.7,1.4,1.7,2.1,2.9,2.1
			c1.2,0,2.1-0.7,2.8-2.1c0.7-1.4,1-3,1-4.8C12.4,11,12.1,9.4,11.4,8z M24.3,19.1v9.2h-4.3V0.2h4.3v6.3h3.9v3.8h-3.9v5h3.9v3.8H24.3
			z"/>
		<path class="st0" d="M30.6,22.4v-19h14.5v19H30.6z M40.9,7h-6v11.7h6V7z M53.5,14.8v13.6h-4.3V0.2h4.3v10.5h4v4.1H53.5z"/>
		<path class="st0" d="M72.8,21.8c-1.8,0.2-3.7,0.3-5.7,0.4h-6.5V2.5h4.3v16h2.3c1.5,0,3.1-0.1,5.1-0.3c1.9-0.2,3.5-0.4,4.7-0.6v3.6
			C76,21.4,74.6,21.6,72.8,21.8z M83.2,15v13.3h-4.3V0.2h4.3v10.9h4V15H83.2z"/>
		<path class="st0" d="M100.9,16.1c-2.5,3.4-5.6,6.1-9.4,7.9l-3.3-2.6c1.6-0.7,3.4-1.8,5.4-3.4c2-1.6,3.4-3.2,4-4.8
			c-1,0.2-2.2,0.4-3.6,0.5c-1.4,0.1-2.9,0.2-4.7,0.2v-3.4c1.9,0,3.8-0.1,5.7-0.2c1.9-0.1,3.3-0.3,4.1-0.5c0.1-0.5,0.2-1,0.3-1.6
			c0.1-0.6,0.1-1.1,0.2-1.5h-9.3V3.1h14.4C104.6,8.3,103.4,12.7,100.9,16.1z M112.7,15.2v13.2h-4.3V0.2h4.3v11.1h4v3.9H112.7z"/>
		<path class="st0" d="M145,16.6c-1.3-0.5-2.5-1.3-3.7-2.3c-1.2-1-2.2-2.1-3.1-3.3c-0.7,1.2-1.6,2.4-2.8,3.6
			c-1.2,1.2-2.5,2.1-3.8,2.8l-3.1-2.9c1.9-0.8,3.6-2.1,5.1-4c1.5-1.8,2.3-3.6,2.3-5.4V0.8h4.6v4.3c0,1.7,0.8,3.4,2.3,5.1
			c1.5,1.6,3.1,2.7,4.8,3.2L145,16.6z M133.9,27.7v-8.8h4.3V24h17.2v3.7H133.9z M150.5,20.5V0.2h4.3v20.4H150.5z"/>
		<path class="st0" d="M172.8,20.4c-1.5,2-3.4,3-5.9,3c-2.5,0-4.4-1-5.9-2.9c-1.5-2-2.2-4.5-2.2-7.7c0-3.2,0.7-5.8,2.2-7.7
			c1.5-1.9,3.4-2.9,5.9-2.9c2.5,0,4.4,1,5.9,2.9c1.5,2,2.2,4.5,2.2,7.7C175,15.9,174.3,18.5,172.8,20.4z M169.8,8
			c-0.7-1.4-1.6-2.1-2.8-2.1c-1.2,0-2.1,0.7-2.9,2.1c-0.7,1.4-1.1,3-1.1,4.7c0,1.8,0.4,3.4,1.1,4.8c0.7,1.4,1.7,2.1,2.9,2.1
			c1.2,0,2.1-0.7,2.8-2.1c0.7-1.4,1-3,1-4.8C170.8,11,170.5,9.4,169.8,8z M182.7,19.1v9.2h-4.3V0.2h4.3v6.3h3.9v3.8h-3.9v5h3.9v3.8
			H182.7z"/>
	</g>
	<g>
		<path class="st0" d="M10.4,54.4c-1.4,0.1-2.6,0.1-3.7,0.1l-3.8,0v-1.3l4,0c1.2,0,2.4-0.1,3.6-0.1c1.2-0.1,2.1-0.1,2.8-0.2v1.4
			C12.8,54.3,11.8,54.3,10.4,54.4z M10.5,45.2c0.8,0.7,1.1,1.5,1.1,2.5c0,1-0.4,1.8-1.1,2.5s-1.7,1-2.9,1c-1.2,0-2.1-0.3-2.9-1
			c-0.7-0.7-1.1-1.5-1.1-2.5c0-0.9,0.4-1.8,1.1-2.5c0.7-0.7,1.7-1,2.9-1C8.8,44.2,9.8,44.5,10.5,45.2z M9.4,46.2
			c-0.4-0.4-1-0.6-1.7-0.6c-0.7,0-1.3,0.2-1.7,0.6c-0.4,0.4-0.6,0.9-0.6,1.5c0,0.6,0.2,1.1,0.6,1.5c0.4,0.4,1,0.6,1.7,0.6
			c0.7,0,1.3-0.2,1.7-0.6c0.4-0.4,0.6-0.9,0.6-1.5C10,47.1,9.8,46.6,9.4,46.2z M13.8,57.4V43.3h1.6v14.1H13.8z"/>
		<path class="st0" d="M17.5,46.7v-1.2h8.9v1.2H17.5z M19.1,51.3c-0.7-0.4-1-1-1-1.7c0-0.7,0.3-1.2,1-1.6c0.7-0.4,1.6-0.7,2.8-0.7
			c1.2,0,2.2,0.2,2.8,0.7s1,1,1,1.6c0,0.7-0.3,1.2-1,1.7c-0.7,0.4-1.6,0.7-2.8,0.7C20.8,52,19.8,51.8,19.1,51.3z M27.7,57.4v-3H19
			v-1.3h10.4v4.3H27.7z M19.6,44.5v-1.2h4.7v1.2H19.6z M23.5,48.8c-0.3-0.2-0.9-0.3-1.6-0.3s-1.2,0.1-1.6,0.3
			c-0.4,0.2-0.5,0.5-0.5,0.8s0.2,0.6,0.5,0.8c0.4,0.2,0.9,0.3,1.6,0.3s1.2-0.1,1.6-0.3c0.3-0.2,0.5-0.5,0.5-0.8S23.9,49,23.5,48.8z
			 M29.4,48.6v3.7h-1.6v-9h1.6v3.9h2v1.4H29.4z"/>
		<path class="st0" d="M40.1,54.6c-0.6-0.4-1.3-1-2-1.7c-0.8-0.8-1.2-1.5-1.5-2.2c-0.3,0.8-0.8,1.6-1.5,2.5
			c-0.8,0.8-1.5,1.5-2.2,1.9L31.6,54c1.9-1.1,3-2.3,3.5-3.6c0.5-1.3,0.7-2.4,0.7-3v-1.1h-3.2v-1.4h8.2v1.4h-3.2v1.1
			c0,0.7,0.2,1.6,0.6,2.9c0.4,1.2,1.4,2.3,3.1,3.2L40.1,54.6z M44.1,43.3v5.6h2.1v1.5h-2.1v7.1h-1.6V43.3H44.1z"/>
		<path class="st0" d="M49.5,54.9v1.3c0,0.3,0,0.5-0.1,0.7c-0.1,0.2-0.2,0.4-0.4,0.6c-0.2,0.2-0.4,0.4-0.6,0.6
			c-0.3,0.1-0.4,0.2-0.5,0.2l-0.5-0.6c0.1,0,0.4-0.1,0.7-0.4c0.4-0.3,0.5-0.5,0.5-0.6h-1.2v-1.9H49.5z"/>
		<path class="st0" d="M56.6,55.6v-1.3h3.3v-4.8h1.6v4.8h2.1v-4.8h1.6v4.8h5.5v1.3H56.6z M68.9,48.3c-0.2,1.5-0.4,2.9-0.7,4.1h-1.6
			c0-0.1,0.2-0.9,0.4-2.3c0.2-1.4,0.4-2.7,0.4-3.8h-9.3v-1.4h11.1C69.2,45.6,69.1,46.8,68.9,48.3z"/>
		<path class="st0" d="M71.3,55.7v-1.3h6.2v-2.3h-4.3v-7.6h10.3v1.4h-8.7v1.8h8.6V49h-8.6v1.8h8.8v1.4h-4.4v2.3h6.2v1.3H71.3z"/>
		<path class="st0" d="M92.2,54.2c-0.5,0-1.2,0.1-2.1,0.1l-2.8,0v-9.2h5v1.4h-3.4v6.4l1.8,0c0.5,0,1,0,1.5-0.1
			c0.5,0,0.9-0.1,1.1-0.1V54C93,54.1,92.7,54.1,92.2,54.2z M97.5,57.4v-7.3h-1.8v6.7h-1.6V43.6h1.6v5h1.8v-5.3H99v14.1H97.5z"/>
		<path class="st0" d="M101.3,46.7v-1.2h8.9v1.2H101.3z M102.9,51.3c-0.7-0.4-1-1-1-1.7c0-0.7,0.3-1.2,1-1.6
			c0.7-0.4,1.6-0.7,2.8-0.7c1.2,0,2.2,0.2,2.8,0.7s1,1,1,1.6c0,0.7-0.3,1.2-1,1.7c-0.7,0.4-1.6,0.7-2.8,0.7
			C104.5,52,103.6,51.8,102.9,51.3z M111.5,57.4v-3h-8.8v-1.3h10.4v4.3H111.5z M103.4,44.5v-1.2h4.7v1.2H103.4z M107.3,48.8
			c-0.3-0.2-0.9-0.3-1.6-0.3s-1.2,0.1-1.6,0.3c-0.4,0.2-0.5,0.5-0.5,0.8s0.2,0.6,0.5,0.8c0.4,0.2,0.9,0.3,1.6,0.3s1.2-0.1,1.6-0.3
			c0.3-0.2,0.5-0.5,0.5-0.8S107.7,49,107.3,48.8z M113.1,48.6v3.7h-1.6v-9h1.6v3.9h2v1.4H113.1z"/>
		<path class="st0" d="M121.8,46.1v-1.5h1.5v1.5H121.8z M121.8,56v-8.3h1.5V56H121.8z"/>
		<path class="st0" d="M132.6,45.6c0.7,0.6,1.1,1.4,1.1,2.5c0,1-0.4,1.8-1.1,2.5c-0.7,0.7-1.7,1-2.8,1h-3.2V56h-1.5V44.7h4.6
			C131,44.7,131.9,45,132.6,45.6z M131.5,49.7c0.5-0.3,0.7-0.9,0.7-1.6s-0.2-1.3-0.7-1.6c-0.5-0.3-1-0.5-1.6-0.5h-3.2v4.2h3.2
			C130.5,50.2,131,50.1,131.5,49.7z"/>
		<path class="st0" d="M142.7,51.4c0.4,0.5,0.5,1.2,0.4,1.8c-0.1,0.9-0.5,1.6-1.3,2.3c-0.7,0.6-1.8,1-3.1,1c-1.5,0-2.7-0.5-3.4-1.4
			c-0.7-0.9-1.1-1.9-1.1-2.8h1.6c0,0.9,0.3,1.6,0.9,2.1s1.3,0.7,2.1,0.7c0.9,0,1.5-0.2,1.9-0.6c0.4-0.4,0.7-0.8,0.8-1.4
			c0.1-0.4,0-0.8-0.2-1.1s-0.6-0.5-1-0.8c-0.5-0.2-1.1-0.4-1.6-0.4c-0.6,0-1.2-0.2-1.8-0.4c-0.7-0.3-1.3-0.7-1.7-1.1
			c-0.4-0.4-0.6-1.1-0.6-1.8c0-0.8,0.4-1.5,1-2.2c0.7-0.7,1.7-1.1,3-1.1c1.6,0,2.7,0.4,3.3,1.3s0.9,1.7,0.9,2.3l-1.6,0
			c0-0.6-0.2-1.2-0.6-1.6c-0.4-0.5-1.1-0.7-2-0.7c-0.8,0-1.4,0.2-1.8,0.6c-0.4,0.4-0.6,0.9-0.6,1.3c0,0.5,0.2,0.9,0.5,1.1
			c0.3,0.2,0.6,0.4,1,0.5c0.4,0.1,1,0.3,1.6,0.4c0.7,0.1,1.3,0.3,1.9,0.6C141.8,50.5,142.3,50.9,142.7,51.4z"/>
		<path class="st0" d="M156.2,54.7c-0.5-0.4-1.1-1-1.7-1.8c-0.6-0.8-1-1.5-1.2-2.1c-0.2,0.7-0.5,1.4-1.1,2.2c-0.6,0.8-1.2,1.5-1.8,2
			l-1.3-1c1.2-0.8,2.1-1.9,2.6-3.2s0.8-2.7,0.8-4.1v-2.4h1.7v2.4c0,1.4,0.3,2.7,0.8,3.9c0.5,1.2,1.3,2.2,2.4,3L156.2,54.7z
			 M158.2,56.8v-7.2h-2.2v-1.4h2.2v-4.5h1.6v13.1H158.2z M161.2,57.4V43.3h1.6v14.1H161.2z"/>
		<path class="st0" d="M164,55.7v-1.3h6.2v-2.7h-5.1v-1.3h2.3l-0.3-3.9h1.6l0.3,3.9h3.9l0.4-3.9h1.6l-0.3,3.9h2.3v1.3h-5v2.7h6.2
			v1.3H164z M165.5,45.9v-1.3h11v1.3H165.5z"/>
		<path class="st0" d="M190.1,45.2v-1.9h1.6v10.2h-1.6v-4.1h-3.5c-0.3,0.5-0.8,0.8-1.3,1.1c-0.6,0.3-1.2,0.4-1.9,0.4
			c-1.1,0-2.1-0.3-2.8-1c-0.7-0.7-1.1-1.5-1.1-2.5c0-1,0.4-1.8,1.1-2.5c0.7-0.7,1.7-1.1,2.8-1.1c0.7,0,1.3,0.1,1.8,0.4
			c0.5,0.3,1,0.6,1.3,1H190.1z M185,45.8c-0.4-0.4-0.9-0.6-1.7-0.6c-0.7,0-1.3,0.2-1.7,0.6c-0.4,0.4-0.6,1-0.6,1.6
			c0,0.6,0.2,1.1,0.6,1.5c0.4,0.4,0.9,0.6,1.7,0.6c0.7,0,1.3-0.2,1.7-0.6c0.4-0.4,0.6-0.9,0.6-1.5C185.6,46.8,185.4,46.3,185,45.8z
			 M181.6,57.1v-4.6h1.6v3.3h8.9v1.3H181.6z M190.1,48.1v-1.5h-3c0,0.1,0.1,0.3,0.1,0.4c0,0.1,0,0.3,0,0.4c0,0.1,0,0.2,0,0.4
			s0,0.2,0,0.4H190.1z"/>
		<path class="st0" d="M201,51.4v6h-1.6v-6h-5.9V50h9.9c0.1-0.5,0.3-1.2,0.5-2.1c0.2-0.9,0.3-1.8,0.3-2.5H195v-1.3h11
			c0,0.3-0.1,1.2-0.3,2.6c-0.2,1.5-0.4,2.6-0.6,3.3h2.5v1.3H201z"/>
		<path class="st0" d="M208.2,55.7v-1.3h6.2v-3h1.6v3h6.3v1.3H208.2z M213.2,50.1c-1.1,0.8-2.1,1.4-3.1,1.7l-1.1-1.2
			c2.4-0.8,3.9-1.8,4.5-3s0.9-2.1,0.9-2.7v-1.1h1.7v1.1c0,0.7,0.3,1.6,1,2.8c0.7,1.2,2.1,2.2,4.5,3l-1.1,1.2
			c-1.1-0.3-2.1-0.9-3.1-1.8c-1-0.9-1.7-1.7-2-2.5C214.9,48.4,214.2,49.3,213.2,50.1z"/>
		<path class="st0" d="M228.5,55.7v-1.3h6.2v-3h1.6v3h6.3v1.3H228.5z M233.5,50.1c-1.1,0.8-2.1,1.4-3.1,1.7l-1.1-1.2
			c2.4-0.8,3.9-1.8,4.5-3s0.9-2.1,0.9-2.7v-1.1h1.7v1.1c0,0.7,0.3,1.6,1,2.8c0.7,1.2,2.1,2.2,4.5,3l-1.1,1.2
			c-1.1-0.3-2.1-0.9-3.1-1.8c-1-0.9-1.7-1.7-2-2.5C235.2,48.4,234.5,49.3,233.5,50.1z"/>
		<path class="st0" d="M251.8,50.9c-0.6-0.1-1.2-0.5-1.9-1s-1.3-1.1-1.8-1.7c-0.2,0.6-0.8,1.2-1.6,1.8c-0.8,0.6-1.5,1-2.1,1.2
			l-1.1-1.1c1.5-0.6,2.6-1.3,3.1-2s0.8-1.6,0.8-2.6h-3v-1.3h7.7v1.3h-3c0,1,0.3,1.8,0.9,2.5c0.6,0.7,1.5,1.3,2.9,1.7L251.8,50.9z
			 M254.8,56.9c-0.9,0.5-2.2,0.8-4,0.8c-1.7,0-3.1-0.3-4-0.8c-0.9-0.5-1.4-1.2-1.4-2c0-0.8,0.5-1.4,1.4-2c0.9-0.5,2.2-0.8,4-0.8
			c1.7,0,3.1,0.3,4,0.8c0.9,0.5,1.3,1.2,1.3,2C256.2,55.7,255.7,56.4,254.8,56.9z M253.5,53.8c-0.7-0.3-1.5-0.4-2.6-0.4
			c-1.1,0-1.9,0.1-2.6,0.4s-1,0.6-1,1.1c0,0.4,0.3,0.8,1,1s1.5,0.4,2.6,0.4c1.1,0,1.9-0.1,2.6-0.4c0.7-0.3,1-0.6,1-1
			C254.5,54.5,254.1,54.1,253.5,53.8z M255.8,47.9v3.9h-1.6v-8.5h1.6v3.1h2.1v1.5H255.8z"/>
		<path class="st0" d="M263.3,49.1c0,0.9-0.7,1.6-1.6,1.6c-0.9,0-1.6-0.7-1.6-1.6c0-0.9,0.7-1.6,1.6-1.6
			C262.6,47.4,263.3,48.2,263.3,49.1z"/>
		<path class="st0" d="M271.5,50.9v-1.3h5.3v-2.7h1.6v2.7h7.2v1.3H271.5z M282.7,56.8c-1,0.5-2.3,0.8-4.2,0.8
			c-1.8,0-3.2-0.3-4.1-0.8c-1-0.5-1.5-1.2-1.5-2c0-0.8,0.5-1.5,1.5-2c1-0.5,2.3-0.8,4.1-0.8c1.8,0,3.2,0.3,4.2,0.8
			c1,0.5,1.5,1.2,1.5,2C284.2,55.6,283.7,56.3,282.7,56.8z M283.8,46.3c-0.2,1-0.4,1.8-0.6,2.5h-1.6c0-0.1,0.1-0.5,0.3-1.3
			c0.2-0.8,0.3-1.5,0.4-2.2h-9.1v-1.3h10.9C284.1,44.5,284,45.3,283.8,46.3z M275.8,53.6c-0.7,0.3-1.1,0.6-1.1,1.1
			c0,0.5,0.4,0.9,1.1,1.2c0.7,0.3,1.6,0.4,2.8,0.4c1.1,0,2.1-0.1,2.8-0.4c0.7-0.3,1.1-0.7,1.1-1.2c0-0.5-0.4-0.9-1.1-1.1
			c-0.7-0.3-1.6-0.4-2.8-0.4C277.4,53.2,276.5,53.4,275.8,53.6z"/>
		<path class="st0" d="M293.7,49.7c-0.7,0.7-1.7,1-2.8,1c-1.1,0-2.1-0.3-2.8-1c-0.7-0.7-1.1-1.5-1.1-2.4c0-0.9,0.4-1.8,1.1-2.4
			c0.7-0.7,1.7-1,2.8-1c1.1,0,2.1,0.3,2.8,1c0.7,0.7,1.1,1.5,1.1,2.4C294.8,48.2,294.4,49,293.7,49.7z M292.5,45.8
			c-0.4-0.4-0.9-0.6-1.7-0.6c-0.7,0-1.3,0.2-1.7,0.6c-0.4,0.4-0.6,0.9-0.6,1.5c0,0.6,0.2,1.1,0.6,1.5c0.4,0.4,0.9,0.6,1.7,0.6
			c0.7,0,1.3-0.2,1.7-0.6c0.4-0.4,0.6-0.9,0.6-1.5C293.1,46.7,292.9,46.2,292.5,45.8z M297.6,57.4v-3.6h-9v-1.3h10.6v5H297.6z
			 M297.7,51.6v-8.3h1.6v8.3H297.7z"/>
		<path class="st0" d="M301.8,46.4V45h6.6v1.4H306v0.5c0,1.2,0.2,2.4,0.6,3.6c0.4,1.2,1.3,2.3,2.5,3.2l-1.1,1
			c-0.5-0.3-1-0.9-1.6-1.7c-0.6-0.8-1-1.5-1.2-2.2c-0.2,0.7-0.6,1.5-1.2,2.3c-0.6,0.8-1.2,1.5-1.8,2l-1.3-1c1.4-1.1,2.4-2.3,2.8-3.6
			c0.4-1.3,0.6-2.5,0.6-3.7v-0.5H301.8z M312.9,57.4v-7.1h-1.6v6.4h-1.6V43.6h1.6v5.1h1.6v-5.4h1.6v14.1H312.9z"/>
		<path class="st0" d="M323.1,50.8c-0.9,0.1-1.9,0.1-2.9,0.1l-3.6,0v-6.7h7.1v1.3h-5.5v4l2.6,0c0.7,0,1.4-0.1,2.3-0.1
			c0.9-0.1,1.6-0.1,2-0.2v1.3C324.7,50.7,324,50.7,323.1,50.8z M318.1,57.1v-4.7h1.6v3.4h8.6v1.3H318.1z M327.9,43.3v4.1h2v1.3h-2
			v4.7h-1.6V43.3H327.9z"/>
		<path class="st0" d="M341.6,46.4v-3.1h1.6v7.6h-1.6v-3.1h-3.2v2.7h-6.8v-6.6h1.6v2h3.7v-2h1.6v2.5H341.6z M333.1,57.2v-5.6h1.6
			v1.5h6.8v-1.5h1.6v5.6H333.1z M336.8,47.3h-3.7v2h3.7V47.3z M341.5,54.5h-6.8v1.4h6.8V54.5z"/>
		<path class="st0" d="M352.5,49.9c-0.7,0.7-1.7,1-2.8,1c-1.1,0-2.1-0.3-2.8-1c-0.7-0.7-1.1-1.5-1.1-2.5c0-1,0.4-1.8,1.1-2.5
			c0.7-0.7,1.7-1.1,2.8-1.1c1.1,0,2.1,0.4,2.8,1.1c0.7,0.7,1.1,1.6,1.1,2.5C353.6,48.4,353.3,49.2,352.5,49.9z M351.4,45.8
			c-0.4-0.4-0.9-0.6-1.7-0.6c-0.7,0-1.3,0.2-1.7,0.6s-0.6,1-0.6,1.6c0,0.6,0.2,1.1,0.6,1.5s0.9,0.6,1.7,0.6c0.7,0,1.3-0.2,1.7-0.6
			s0.6-0.9,0.6-1.5C352,46.8,351.8,46.3,351.4,45.8z M348,57.1v-4.5h1.6v3.1h8.8v1.3H348z M356.5,53.5V43.3h1.6v10.2H356.5z"/>
		<path class="st0" d="M365.4,55.6v-1.3h3.3v-4.8h1.6v4.8h2.1v-4.8h1.6v4.8h5.5v1.3H365.4z M377.7,48.3c-0.2,1.5-0.4,2.9-0.7,4.1
			h-1.6c0-0.1,0.2-0.9,0.4-2.3c0.2-1.4,0.4-2.7,0.4-3.8h-9.3v-1.4H378C378,45.6,377.9,46.8,377.7,48.3z"/>
		<path class="st0" d="M380.2,55.7v-1.3h6.2v-2.3h-4.3v-7.6h10.3v1.4h-8.7v1.8h8.6V49h-8.6v1.8h8.8v1.4h-4.4v2.3h6.2v1.3H380.2z"/>
		<path class="st0" d="M401,54.2c-0.5,0-1.2,0.1-2.1,0.1l-2.8,0v-9.2h5v1.4h-3.4v6.4l1.8,0c0.5,0,1,0,1.5-0.1c0.5,0,0.9-0.1,1.1-0.1
			V54C401.9,54.1,401.5,54.1,401,54.2z M406.3,57.4v-7.3h-1.8v6.7h-1.6V43.6h1.6v5h1.8v-5.3h1.6v14.1H406.3z"/>
		<path class="st0" d="M410.1,46.7v-1.2h8.9v1.2H410.1z M411.8,51.3c-0.7-0.4-1-1-1-1.7c0-0.7,0.3-1.2,1-1.6
			c0.7-0.4,1.6-0.7,2.8-0.7c1.2,0,2.2,0.2,2.8,0.7s1,1,1,1.6c0,0.7-0.3,1.2-1,1.7c-0.7,0.4-1.6,0.7-2.8,0.7
			C413.4,52,412.5,51.8,411.8,51.3z M420.4,57.4v-3h-8.8v-1.3H422v4.3H420.4z M412.2,44.5v-1.2h4.7v1.2H412.2z M416.1,48.8
			c-0.3-0.2-0.9-0.3-1.6-0.3s-1.2,0.1-1.6,0.3c-0.4,0.2-0.5,0.5-0.5,0.8s0.2,0.6,0.5,0.8c0.4,0.2,0.9,0.3,1.6,0.3s1.2-0.1,1.6-0.3
			c0.3-0.2,0.5-0.5,0.5-0.8S416.5,49,416.1,48.8z M422,48.6v3.7h-1.6v-9h1.6v3.9h2v1.4H422z"/>
		<path class="st0" d="M430.6,46.1v-1.5h1.5v1.5H430.6z M430.6,56v-8.3h1.5V56H430.6z"/>
		<path class="st0" d="M441.5,45.6c0.7,0.6,1.1,1.4,1.1,2.5c0,1-0.4,1.8-1.1,2.5c-0.7,0.7-1.7,1-2.8,1h-3.2V56h-1.5V44.7h4.6
			C439.8,44.7,440.7,45,441.5,45.6z M440.3,49.7c0.5-0.3,0.7-0.9,0.7-1.6s-0.2-1.3-0.7-1.6c-0.5-0.3-1-0.5-1.6-0.5h-3.2v4.2h3.2
			C439.3,50.2,439.8,50.1,440.3,49.7z"/>
		<path class="st0" d="M451.5,51.4c0.4,0.5,0.5,1.2,0.4,1.8c-0.1,0.9-0.5,1.6-1.3,2.3c-0.7,0.6-1.8,1-3.1,1c-1.5,0-2.7-0.5-3.4-1.4
			c-0.7-0.9-1.1-1.9-1.1-2.8h1.6c0,0.9,0.3,1.6,0.9,2.1s1.3,0.7,2.1,0.7c0.9,0,1.5-0.2,1.9-0.6c0.4-0.4,0.7-0.8,0.8-1.4
			c0.1-0.4,0-0.8-0.2-1.1s-0.6-0.5-1-0.8c-0.5-0.2-1.1-0.4-1.6-0.4c-0.6,0-1.2-0.2-1.8-0.4c-0.7-0.3-1.3-0.7-1.7-1.1
			c-0.4-0.4-0.6-1.1-0.6-1.8c0-0.8,0.4-1.5,1-2.2c0.7-0.7,1.7-1.1,3-1.1c1.6,0,2.7,0.4,3.3,1.3s0.9,1.7,0.9,2.3l-1.6,0
			c0-0.6-0.2-1.2-0.6-1.6c-0.4-0.5-1.1-0.7-2-0.7c-0.8,0-1.4,0.2-1.8,0.6c-0.4,0.4-0.6,0.9-0.6,1.3c0,0.5,0.2,0.9,0.5,1.1
			c0.3,0.2,0.6,0.4,1,0.5c0.4,0.1,1,0.3,1.6,0.4c0.7,0.1,1.3,0.3,1.9,0.6C450.7,50.5,451.2,50.9,451.5,51.4z"/>
		<path class="st0" d="M465,54.7c-0.5-0.4-1.1-1-1.7-1.8c-0.6-0.8-1-1.5-1.2-2.1c-0.2,0.7-0.5,1.4-1.1,2.2c-0.6,0.8-1.2,1.5-1.8,2
			l-1.3-1c1.2-0.8,2.1-1.9,2.6-3.2s0.8-2.7,0.8-4.1v-2.4h1.7v2.4c0,1.4,0.3,2.7,0.8,3.9c0.5,1.2,1.3,2.2,2.4,3L465,54.7z M467,56.8
			v-7.2h-2.2v-1.4h2.2v-4.5h1.6v13.1H467z M470,57.4V43.3h1.6v14.1H470z"/>
		<path class="st0" d="M472.8,55.7v-1.3h6.2v-2.7H474v-1.3h2.3l-0.3-3.9h1.6l0.3,3.9h3.9l0.4-3.9h1.6l-0.3,3.9h2.3v1.3h-5v2.7h6.2
			v1.3H472.8z M474.4,45.9v-1.3h11v1.3H474.4z"/>
		<path class="st0" d="M498.9,45.2v-1.9h1.6v10.2h-1.6v-4.1h-3.5c-0.3,0.5-0.8,0.8-1.3,1.1c-0.6,0.3-1.2,0.4-1.9,0.4
			c-1.1,0-2.1-0.3-2.8-1c-0.7-0.7-1.1-1.5-1.1-2.5c0-1,0.4-1.8,1.1-2.5c0.7-0.7,1.7-1.1,2.8-1.1c0.7,0,1.3,0.1,1.8,0.4
			c0.5,0.3,1,0.6,1.3,1H498.9z M493.8,45.8c-0.4-0.4-0.9-0.6-1.7-0.6c-0.7,0-1.3,0.2-1.7,0.6c-0.4,0.4-0.6,1-0.6,1.6
			c0,0.6,0.2,1.1,0.6,1.5c0.4,0.4,0.9,0.6,1.7,0.6c0.7,0,1.3-0.2,1.7-0.6c0.4-0.4,0.6-0.9,0.6-1.5C494.4,46.8,494.2,46.3,493.8,45.8
			z M490.4,57.1v-4.6h1.6v3.3h8.9v1.3H490.4z M498.9,48.1v-1.5h-3c0,0.1,0.1,0.3,0.1,0.4c0,0.1,0,0.3,0,0.4c0,0.1,0,0.2,0,0.4
			s0,0.2,0,0.4H498.9z"/>
		<path class="st0" d="M509.8,51.4v6h-1.6v-6h-5.9V50h9.9c0.1-0.5,0.3-1.2,0.5-2.1c0.2-0.9,0.3-1.8,0.3-2.5h-9.2v-1.3h11
			c0,0.3-0.1,1.2-0.3,2.6c-0.2,1.5-0.4,2.6-0.6,3.3h2.5v1.3H509.8z"/>
		<path class="st0" d="M517.9,46.4V45h6.6v1.4H522v0.5c0,1.2,0.2,2.4,0.6,3.6c0.4,1.2,1.3,2.3,2.5,3.2l-1.1,1
			c-0.5-0.3-1-0.9-1.6-1.7c-0.6-0.8-1-1.5-1.2-2.2c-0.2,0.7-0.6,1.5-1.2,2.3c-0.6,0.8-1.2,1.5-1.8,2l-1.3-1c1.4-1.1,2.4-2.3,2.8-3.6
			c0.4-1.3,0.6-2.5,0.6-3.7v-0.5H517.9z M528.9,57.4v-7.1h-1.6v6.4h-1.6V43.6h1.6v5.1h1.6v-5.4h1.6v14.1H528.9z"/>
		<path class="st0" d="M539.1,50.8c-0.9,0.1-1.9,0.1-2.9,0.1l-3.6,0v-6.7h7.1v1.3h-5.5v4l2.6,0c0.7,0,1.4-0.1,2.3-0.1
			c0.9-0.1,1.6-0.1,2-0.2v1.3C540.7,50.7,540,50.7,539.1,50.8z M534.1,57.1v-4.7h1.6v3.4h8.6v1.3H534.1z M543.9,43.3v4.1h2v1.3h-2
			v4.7h-1.6V43.3H543.9z"/>
		<path class="st0" d="M559.6,53.4c-0.7,0.9-1.6,1.4-2.8,1.4c-1.2,0-2.1-0.5-2.8-1.4c-0.7-0.9-1-2.2-1-3.8c0-1.6,0.3-2.9,1-3.8
			c0.7-0.9,1.6-1.4,2.8-1.4c1.2,0,2.1,0.5,2.8,1.4c0.7,0.9,1,2.2,1,3.8C560.6,51.2,560.2,52.4,559.6,53.4z M558.4,46.9
			c-0.4-0.8-0.9-1.1-1.6-1.1c-0.7,0-1.3,0.4-1.7,1.1c-0.4,0.8-0.6,1.6-0.6,2.6c0,1,0.2,1.9,0.6,2.7c0.4,0.8,1,1.1,1.7,1.1
			c0.7,0,1.3-0.4,1.6-1.1s0.6-1.6,0.6-2.7C559,48.6,558.8,47.7,558.4,46.9z M563.4,57.4V43.3h1.6v14.1H563.4z"/>
		<path class="st0" d="M575.1,54.7c-0.6-0.3-1.3-0.8-2.1-1.7s-1.3-1.7-1.7-2.6c-0.2,0.8-0.7,1.6-1.5,2.5c-0.8,0.9-1.5,1.6-2.2,2
			l-1.3-1c1.5-0.8,2.6-1.9,3.2-3.1s1-2.8,1-4.5v-2.2h1.7v2.2c0,1.7,0.3,3.2,1,4.3c0.7,1.1,1.7,2.1,3,2.9L575.1,54.7z M579,43.3V49
			h2.1v1.4H579v7h-1.6V43.3H579z"/>
		<path class="st0" d="M590.1,50.9c-0.6-0.1-1.2-0.5-1.9-1s-1.3-1.1-1.8-1.7c-0.2,0.6-0.8,1.2-1.6,1.8c-0.8,0.6-1.5,1-2.1,1.2
			l-1.1-1.1c1.5-0.6,2.6-1.3,3.1-2s0.8-1.6,0.8-2.6h-3v-1.3h7.7v1.3h-3c0,1,0.3,1.8,0.9,2.5c0.6,0.7,1.5,1.3,2.9,1.7L590.1,50.9z
			 M593.1,56.9c-0.9,0.5-2.2,0.8-4,0.8c-1.7,0-3.1-0.3-4-0.8c-0.9-0.5-1.4-1.2-1.4-2c0-0.8,0.5-1.4,1.4-2c0.9-0.5,2.2-0.8,4-0.8
			c1.7,0,3.1,0.3,4,0.8c0.9,0.5,1.3,1.2,1.3,2C594.4,55.7,594,56.4,593.1,56.9z M591.7,53.8c-0.7-0.3-1.5-0.4-2.6-0.4
			c-1.1,0-1.9,0.1-2.6,0.4s-1,0.6-1,1.1c0,0.4,0.3,0.8,1,1s1.5,0.4,2.6,0.4c1.1,0,1.9-0.1,2.6-0.4c0.7-0.3,1-0.6,1-1
			C592.7,54.5,592.4,54.1,591.7,53.8z M594.1,47.9v3.9h-1.6v-8.5h1.6v3.1h2.1v1.5H594.1z"/>
	</g>
</g>
<g>
	<g>
		<path class="st0" d="M14.4,110.4c-1.5,2-3.4,3-5.9,3c-2.5,0-4.4-1-5.9-2.9c-1.5-2-2.2-4.5-2.2-7.7c0-3.2,0.7-5.8,2.2-7.7
			c1.5-1.9,3.4-2.9,5.9-2.9c2.5,0,4.4,1,5.9,2.9c1.5,2,2.2,4.5,2.2,7.7C16.6,105.9,15.9,108.5,14.4,110.4z M11.4,98
			c-0.7-1.4-1.6-2.1-2.8-2.1c-1.2,0-2.1,0.7-2.9,2.1c-0.7,1.4-1.1,3-1.1,4.7c0,1.8,0.4,3.4,1.1,4.8c0.7,1.4,1.7,2.1,2.9,2.1
			c1.2,0,2.1-0.7,2.8-2.1c0.7-1.4,1-3,1-4.8C12.4,101,12.1,99.4,11.4,98z M24.3,109.1v9.2h-4.3V90.2h4.3v6.3h3.9v3.8h-3.9v5h3.9v3.8
			H24.3z"/>
		<path class="st0" d="M43.3,111.8c-1.8,0.2-3.7,0.3-5.7,0.4h-6.5V92.5h4.3v16h2.3c1.5,0,3.1-0.1,5.1-0.3c1.9-0.2,3.5-0.4,4.7-0.6
			v3.6C46.6,111.4,45.2,111.6,43.3,111.8z M53.7,105v13.3h-4.3V90.2h4.3v10.9h4v3.9H53.7z"/>
		<path class="st0" d="M74.1,110.4c-1.5,2-3.4,3-5.9,3c-2.5,0-4.4-1-5.9-2.9c-1.5-2-2.2-4.5-2.2-7.7c0-3.2,0.7-5.8,2.2-7.7
			c1.5-1.9,3.4-2.9,5.9-2.9c2.5,0,4.4,1,5.9,2.9c1.5,2,2.2,4.5,2.2,7.7C76.3,105.9,75.6,108.5,74.1,110.4z M71.1,98
			c-0.7-1.4-1.6-2.1-2.8-2.1c-1.2,0-2.1,0.7-2.8,2.1s-1.1,3-1.1,4.7c0,1.8,0.4,3.4,1.1,4.8s1.7,2.1,2.8,2.1c1.2,0,2.1-0.7,2.8-2.1
			c0.7-1.4,1-3,1-4.8C72.1,101,71.8,99.4,71.1,98z M80.5,118.4V90.2h4.3v28.2H80.5z"/>
		<path class="st0" d="M113.8,111.8c-2.3,0.3-4.7,0.4-7.4,0.4h-5.5V93.1h13.8v3.6h-9.5v11.7h3.4c1.4,0,3.2-0.1,5.4-0.4
			s3.3-0.4,3.4-0.4v3.6C117.2,111.4,116,111.5,113.8,111.8z M123.5,105.1v13.3h-4.3V90.2h4.3v11h3.8v3.9H123.5z"/>
		<path class="st0" d="M143.2,111.8c-2.3,0.3-4.7,0.4-7.4,0.4h-5.5V93.1h13.8v3.6h-9.5v11.7h3.4c1.4,0,3.2-0.1,5.4-0.4
			s3.3-0.4,3.4-0.4v3.6C146.6,111.4,145.5,111.5,143.2,111.8z M152.9,105.1v13.3h-4.3V90.2h4.3v11h3.8v3.9H152.9z"/>
		<path class="st0" d="M174.8,113c-1.2-0.7-2.4-1.6-3.8-2.8s-2.4-2.6-3.2-4.1c-0.6,1.5-1.7,3-3,4.3s-2.6,2.3-3.7,2.9l-3.2-2.8
			c1.6-0.9,3.3-2.3,5-4.3c1.7-2,2.6-4.7,2.6-8.2v-6.3h4.5V98c0,3.5,0.9,6.1,2.6,8s3.3,3.2,4.8,4L174.8,113z M179.9,118.4V90.2h4.3
			v28.2H179.9z"/>
	</g>
	<g>
		<path class="st0" d="M10.1,142.5v4.9H8.5v-4.9H2.3v-1.3h14.1v1.3H10.1z M11.5,137c0.8,0.8,2.1,1.4,4,1.8l-1.1,1.1
			c-1-0.2-2-0.6-3-1.2s-1.7-1.2-2.2-1.9c-0.4,0.6-1.1,1.2-2,1.8c-0.9,0.6-1.9,1-3.1,1.3l-1.1-1.1c1.9-0.4,3.2-1,4-1.8
			c0.8-0.8,1.2-1.4,1.3-1.8H3.9v-1.3h10.8v1.3h-4.5C10.3,135.6,10.7,136.2,11.5,137z"/>
		<path class="st0" d="M25.7,141c-0.8-0.3-1.5-0.8-2.2-1.4c-0.7-0.6-1.2-1.2-1.5-1.8c-0.3,0.7-0.8,1.4-1.6,2.1
			c-0.7,0.7-1.5,1.2-2.2,1.5l-1.2-1.1c1.8-0.8,2.9-1.7,3.3-2.8s0.7-1.9,0.7-2.6v-1.3h1.7v1.3c0,0.6,0.2,1.4,0.7,2.4
			c0.5,1,1.5,1.8,3.2,2.4L25.7,141z M28.3,147.4v-3.6h-8.8v-1.3h10.4v4.9H28.3z M28.3,141.8v-8.5h1.6v8.5H28.3z"/>
		<path class="st0" d="M40,145.2c-1,0-2.1,0.1-3.4,0.1l-4.5,0v-1.4h4.4v-1.4c-0.8-0.1-1.5-0.4-2.1-0.8s-0.8-0.9-0.8-1.4
			c0-0.6,0.3-1.2,1-1.6c0.7-0.4,1.6-0.7,2.6-0.7c1,0,1.9,0.2,2.6,0.7s1.1,1,1.1,1.6c0,0.5-0.3,1-0.8,1.4c-0.5,0.4-1.2,0.7-2,0.8v1.5
			c0.8,0,1.6,0,2.3-0.1s1.4-0.1,1.9-0.2v1.4C41.8,145.1,41,145.1,40,145.2z M32.9,137.3V136h8.6v1.3H32.9z M34.9,135.1v-1.3h4.6v1.3
			H34.9z M38.8,139.5c-0.4-0.2-0.9-0.3-1.5-0.3c-0.6,0-1.1,0.1-1.5,0.3s-0.6,0.5-0.6,0.8c0,0.3,0.2,0.6,0.6,0.8
			c0.4,0.2,0.9,0.3,1.5,0.3c0.6,0,1.1-0.1,1.5-0.3c0.4-0.2,0.6-0.5,0.6-0.8C39.4,140,39.2,139.7,38.8,139.5z M43.1,147.4v-14.1h1.6
			v14.1H43.1z"/>
		<path class="st0" d="M54.8,144.7c-0.6-0.3-1.3-0.8-2.1-1.7c-0.8-0.8-1.3-1.7-1.7-2.6c-0.2,0.8-0.7,1.6-1.5,2.5
			c-0.8,0.9-1.5,1.6-2.2,2l-1.3-1c1.5-0.8,2.6-1.9,3.2-3.1s1-2.8,1-4.5v-2.2h1.7v2.2c0,1.7,0.3,3.2,1,4.3c0.7,1.1,1.7,2.1,3,2.9
			L54.8,144.7z M58.7,133.3v5.6h2.1v1.4h-2.1v7h-1.6v-14.1H58.7z"/>
		<path class="st0" d="M73.2,144.2c-0.4,0-0.9,0.1-1.5,0.1l-4.6,0V143h1.6l-0.3-6h1.6l0.2,6c0.5,0,0.8,0,0.8,0c0,0,0.2,0,0.6,0
			l0.3-6h1.6l-0.3,5.9c0.3,0,0.5,0,0.8-0.1c0.2,0,0.5-0.1,0.8-0.1v1.4C74.1,144.2,73.6,144.2,73.2,144.2z M67.4,136.4V135h6.8v1.4
			H67.4z M78.5,147.4v-7.3h-1.7v6.7h-1.5v-13.1h1.5v5h1.7v-5.3H80v14.1H78.5z"/>
		<path class="st0" d="M81.5,145.3V144h14.1v1.3H81.5z M86.5,140.3c-1.1,0.8-2.1,1.4-3.1,1.7l-1.1-1.2c2.4-0.8,3.9-1.8,4.5-3
			s0.9-2.1,0.9-2.7v-1h1.7v1c0,0.7,0.3,1.6,1,2.8c0.7,1.2,2.1,2.2,4.5,3l-1.1,1.2c-1.1-0.3-2.1-0.9-3.1-1.8c-1-0.9-1.7-1.7-2-2.5
			C88.2,138.6,87.5,139.5,86.5,140.3z"/>
		<path class="st0" d="M96.2,145.5v-1.3h14.1v1.3H96.2z M98.1,142.2v-7.5h10.3v1.3h-8.7v1.8h8.7v1.3h-8.7v1.8h8.8v1.3H98.1z"/>
		<path class="st0" d="M119,144.4c-0.9,0.1-1.8,0.1-2.7,0.2l-4,0v-5.7h5.3V136h-5.3v-1.4h6.9v5.6h-5.3v3l2.9,0
			c0.7,0,1.5-0.1,2.4-0.1c0.9-0.1,1.5-0.1,2-0.2v1.3C120.6,144.3,119.9,144.4,119,144.4z M122,147.4v-14.1h1.6v14.1H122z"/>
		<path class="st0" d="M131.9,144.4c-0.4,0-0.8,0.1-1.2,0.1c-0.8,0-1.7,0.1-2.5,0.1s-1.3,0-1.3,0v-9.7h5.1v1.4h-3.5v2.7h3.4v1.3
			h-3.4v2.9l2.3,0c0.4,0,0.8-0.1,1.2-0.1c0.4,0,0.7-0.1,1-0.1v1.3C132.6,144.3,132.3,144.4,131.9,144.4z M134.1,146.8v-6.9h-1.8
			v-1.4h1.8v-4.9h1.5v13.1H134.1z M137.1,147.4v-14.1h1.6v14.1H137.1z"/>
		<path class="st0" d="M147.6,139.4c-0.8,0.6-1.6,0.9-2.6,0.9c-1,0-1.9-0.3-2.6-0.9c-0.8-0.6-1.2-1.4-1.2-2.4s0.4-1.8,1.1-2.4
			c0.8-0.6,1.6-0.9,2.6-0.9c1,0,1.9,0.3,2.6,0.9c0.8,0.6,1.2,1.4,1.2,2.4C148.7,138,148.3,138.8,147.6,139.4z M146.4,135.7
			c-0.4-0.4-0.9-0.5-1.5-0.5c-0.6,0-1.1,0.2-1.5,0.5c-0.4,0.4-0.7,0.8-0.7,1.3c0,0.5,0.2,1,0.7,1.3c0.4,0.4,0.9,0.6,1.5,0.6
			c0.6,0,1.1-0.2,1.5-0.6c0.4-0.4,0.7-0.8,0.7-1.3C147.1,136.5,146.9,136,146.4,135.7z M143.2,147.2v-3.5h8.4v-1.1h-8.4v-1.2h10.2
			v3.5H145v1.1h8.8v1.2H143.2z M151.8,140.8v-7.4h1.6v7.4H151.8z"/>
		<path class="st0" d="M162.9,141.3c-1,0.1-1.9,0.1-2.8,0.1l-3.9,0v-4.3h5.6v-1.7h-5.6v-1.3h7.2v4.4h-5.6v1.6l2.9,0
			c0.7,0,1.5,0,2.4-0.1c0.9-0.1,1.6-0.1,2.1-0.2v1.3C164.6,141.1,163.9,141.2,162.9,141.3z M166.6,146.9c-0.9,0.5-2.3,0.8-4,0.8
			c-1.8,0-3.1-0.3-4-0.8c-0.9-0.5-1.4-1.1-1.4-1.9c0-0.8,0.5-1.4,1.4-1.9s2.3-0.8,4-0.8c1.8,0,3.1,0.3,4,0.8
			c0.9,0.5,1.4,1.1,1.4,1.9C168,145.7,167.5,146.4,166.6,146.9z M165.3,143.9c-0.7-0.3-1.6-0.4-2.6-0.4c-1.1,0-2,0.1-2.7,0.4
			c-0.7,0.3-1,0.6-1,1.1c0,0.4,0.3,0.8,1,1c0.7,0.2,1.6,0.4,2.7,0.4c1.1,0,2-0.1,2.6-0.4s1-0.6,1-1
			C166.3,144.5,165.9,144.1,165.3,143.9z M166.3,142v-8.7h1.6v8.7H166.3z"/>
		<path class="st0" d="M181.5,144.2c-0.5,0-1.2,0.1-2.1,0.1l-2.8,0v-9.2h5v1.4h-3.4v6.4l1.8,0c0.5,0,1,0,1.5-0.1
			c0.5,0,0.9-0.1,1.1-0.1v1.4C182.4,144.1,182,144.1,181.5,144.2z M186.8,147.4v-7.3H185v6.7h-1.6v-13.1h1.6v5h1.8v-5.3h1.6v14.1
			H186.8z"/>
		<path class="st0" d="M190.1,145.7v-1.3h4v-3h-2.8V140h2.3l-0.4-3.7h1.6l0.3,3.7h3.9l0.3-3.7h1.6l-0.4,3.7h2.3v1.3h-2.7v3h3.9v1.3
			H190.1z M191.7,135.8v-1.3h11v1.3H191.7z M198.7,141.4h-3v3h3V141.4z"/>
		<path class="st0" d="M212.4,143.4c-0.7,1-1.6,1.4-2.8,1.4c-1.2,0-2.1-0.5-2.8-1.4c-0.7-0.9-1-2.2-1-3.8c0-1.6,0.3-2.9,1-3.8
			c0.7-0.9,1.6-1.4,2.8-1.4c1.2,0,2.1,0.5,2.8,1.4s1,2.2,1,3.8C213.4,141.2,213,142.4,212.4,143.4z M211.2,136.9
			c-0.4-0.8-0.9-1.1-1.6-1.1c-0.7,0-1.3,0.4-1.7,1.1c-0.4,0.8-0.6,1.6-0.6,2.6c0,1,0.2,1.9,0.6,2.7c0.4,0.8,1,1.1,1.7,1.1
			c0.7,0,1.3-0.4,1.6-1.1s0.6-1.6,0.6-2.7C211.8,138.6,211.6,137.7,211.2,136.9z M216.2,147.4v-14.1h1.6v14.1H216.2z"/>
		<path class="st0" d="M227.9,144.7c-0.6-0.3-1.3-0.8-2.1-1.7c-0.8-0.8-1.3-1.7-1.7-2.6c-0.2,0.8-0.7,1.6-1.5,2.5
			c-0.8,0.9-1.5,1.6-2.2,2l-1.3-1c1.5-0.8,2.6-1.9,3.2-3.1s1-2.8,1-4.5v-2.2h1.7v2.2c0,1.7,0.3,3.2,1,4.3c0.7,1.1,1.7,2.1,3,2.9
			L227.9,144.7z M231.8,133.3v5.6h2.1v1.4h-2.1v7h-1.6v-14.1H231.8z"/>
		<path class="st0" d="M247,138c-0.8,1.6-2.7,2.8-5.6,3.7l-0.9-1.1c2.2-0.6,3.7-1.4,4.5-2.4c0.8-1.1,1.3-1.9,1.4-2.6h-5v-1.3h6.9
			C248.2,135.2,247.8,136.4,247,138z M242.8,147.2V142h10v5.2H242.8z M251.3,143.4h-6.8v2.5h6.8V143.4z M251.3,141.3v-1.7h-2.9v-1.3
			h2.9v-1.5h-2.6v-1.3h2.6v-2.1h1.6v8H251.3z"/>
		<path class="st0" d="M268.5,144.7c-0.6-0.3-1.3-0.8-2.1-1.7c-0.8-0.8-1.3-1.7-1.7-2.6c-0.2,0.8-0.7,1.6-1.5,2.5
			c-0.8,0.9-1.5,1.6-2.2,2l-1.3-1c1.5-0.8,2.6-1.9,3.2-3.1s1-2.8,1-4.5v-2.2h1.7v2.2c0,1.7,0.3,3.2,1,4.3c0.7,1.1,1.7,2.1,3,2.9
			L268.5,144.7z M272.4,133.3v5.6h2.1v1.4h-2.1v7h-1.6v-14.1H272.4z"/>
		<path class="st0" d="M283.6,140.9c-0.6-0.1-1.2-0.5-1.9-1s-1.3-1.1-1.8-1.7c-0.2,0.6-0.8,1.2-1.6,1.8c-0.8,0.6-1.5,1-2.1,1.2
			l-1.1-1.1c1.5-0.6,2.6-1.3,3.1-2c0.5-0.8,0.8-1.6,0.8-2.6h-3v-1.3h7.7v1.3h-3c0,1,0.3,1.8,0.9,2.5c0.6,0.7,1.5,1.2,2.9,1.7
			L283.6,140.9z M286.5,146.9c-0.9,0.5-2.2,0.8-4,0.8c-1.7,0-3.1-0.3-4-0.8c-0.9-0.5-1.4-1.2-1.4-2c0-0.8,0.5-1.4,1.4-2
			c0.9-0.5,2.2-0.8,4-0.8c1.7,0,3.1,0.3,4,0.8c0.9,0.5,1.3,1.2,1.3,2C287.9,145.7,287.4,146.4,286.5,146.9z M285.2,143.8
			c-0.7-0.3-1.5-0.4-2.6-0.4c-1.1,0-1.9,0.1-2.6,0.4c-0.7,0.3-1,0.6-1,1.1c0,0.4,0.3,0.8,1,1c0.7,0.3,1.5,0.4,2.6,0.4
			c1.1,0,1.9-0.1,2.6-0.4c0.7-0.3,1-0.6,1-1C286.2,144.5,285.8,144.1,285.2,143.8z M287.5,137.9v3.9h-1.6v-8.5h1.6v3.1h2.1v1.5
			H287.5z"/>
	</g>
</g>
</svg>
