<?xml version="1.0" encoding="utf-8"?>
<!-- Generator: Adobe Illustrator 26.1.0, SVG Export Plug-In . SVG Version: 6.00 Build 0)  -->
<svg version="1.1" id="레이어_1" xmlns="http://www.w3.org/2000/svg" xmlns:xlink="http://www.w3.org/1999/xlink" x="0px"
	 y="0px" viewBox="0 0 920 179.6" style="enable-background:new 0 0 920 179.6;" xml:space="preserve">
<style type="text/css">
	.st0{fill:#FF0000;}
	.st1{fill:#FFFFFF;}
	.st2{fill:#73A950;}
	.st3{fill:#372F28;}
	.st4{fill:#BB312B;}
	.st5{fill:#222C87;}
	.st6{fill:#FFEF00;}
	.st7{fill:#753627;}
	.st8{clip-path:url(#SVGID_00000021804691534991169370000003385763249433292975_);}
	.st9{fill:#282322;}
	.st10{fill:#251E1C;}
	.st11{fill:#080707;}
</style>
<g>
	<rect x="50.9" class="st0" width="68.7" height="68.7"/>
	<rect x="101.6" y="9.4" class="st1" width="4.3" height="21.7"/>
	<path class="st1" d="M74.1,23.9c0,4-3.2,7.2-7.2,7.2c-4,0-7.2-3.2-7.2-7.2V9.4H64v14.5c-0.1,1.6,1.1,3,2.7,3.1
		c1.6,0.1,3-1.1,3.1-2.7c0-0.1,0-0.2,0-0.3V9.4h4.4V23.9z"/>
	<polygon class="st1" points="94.3,59.3 79.9,59.3 79.9,37.6 84.2,37.6 84.2,55 94.3,55 	"/>
	<polygon class="st1" points="94.3,31.1 90,31.1 84.2,18.7 84.2,31.1 79.9,31.1 79.9,9.4 84.2,9.4 90,21.8 90,9.4 94.3,9.4 	"/>
	<path class="st1" d="M66.9,37.6c-4,0-7.2,3.2-7.2,7.2c0,0,0,0,0,0v7.2c0,4,3.4,7.3,7.4,7.2c0.4,0,0.8,0,1.2-0.1l1.5,4.5h4.4
		l-2.1-6.4c1.4-1.4,2.2-3.2,2.1-5.1v-7.2C74.1,40.8,70.8,37.6,66.9,37.6 M69.7,52.1c0.1,1.6-1.1,3-2.7,3.1c-1.6,0.1-3-1.1-3.1-2.7
		c0-0.1,0-0.2,0-0.3v-7.2c0.1-1.6,1.5-2.8,3.1-2.7c1.5,0.1,2.6,1.3,2.7,2.7V52.1z"/>
	<path class="st1" d="M103.7,37.6c-4,0-7.2,3.2-7.2,7.2c0,0,0,0,0,0v7.2c0.1,4,3.5,7.1,7.5,7c3.8-0.1,6.8-3.2,7-7v-7.2
		C111,40.8,107.7,37.6,103.7,37.6L103.7,37.6 M106.6,52.1c0,1.6-1.3,2.9-2.9,2.9c-1.6,0-2.9-1.3-2.9-2.9c0,0,0,0,0,0v-7.2
		c0-1.6,1.3-2.9,2.9-2.9c1.6,0,2.9,1.3,2.9,2.9V52.1z"/>
</g>
<polygon class="st2" points="862.9,165.9 862.9,135.2 882.6,135.2 839,104.4 839,104.4 795.4,135.2 815.1,135.2 815.1,165.9 "/>
<rect x="823.7" y="126.7" class="st1" width="30.8" height="30.8"/>
<path class="st3" d="M808.6,173.4c0-0.3-0.1-0.5-0.3-0.7c-0.2-0.2-0.4-0.3-0.7-0.3c-0.3,0-0.5,0.1-0.7,0.3c-0.2,0.2-0.3,0.4-0.3,0.7
	v2.5c0,0.1,0,0.3,0.1,0.4c0.1,0.2,0.3,0.4,0.5,0.5c0.1,0,0.2,0.1,0.4,0.1c0.3,0,0.5-0.1,0.7-0.3c0.2-0.2,0.3-0.4,0.3-0.7h-1v-1.4
	h2.4v1.4c0,0.3-0.1,0.6-0.2,0.9c-0.1,0.3-0.3,0.5-0.5,0.8c-0.2,0.2-0.5,0.4-0.8,0.5c-0.3,0.1-0.6,0.2-0.9,0.2
	c-0.6,0-1.2-0.2-1.7-0.7c-0.2-0.2-0.4-0.5-0.5-0.8c-0.1-0.3-0.2-0.6-0.2-0.9v-2.5c0-0.6,0.2-1.2,0.7-1.7c0.2-0.2,0.5-0.4,0.8-0.5
	c0.3-0.1,0.6-0.2,0.9-0.2c0.3,0,0.6,0.1,0.9,0.2c0.3,0.1,0.5,0.3,0.8,0.5c0.2,0.2,0.4,0.5,0.5,0.8c0.1,0.3,0.2,0.6,0.2,0.9
	L808.6,173.4z"/>
<path class="st3" d="M810.9,178.2v-5h1.3v0.3c0.2-0.2,0.5-0.3,0.8-0.3c0.2,0,0.4,0,0.6,0.1c0.2,0.1,0.4,0.2,0.5,0.4l-0.9,0.9
	c-0.1-0.1-0.3-0.2-0.4-0.2c-0.2,0-0.3,0.1-0.5,0.2c-0.1,0.1-0.2,0.3-0.2,0.4v3.1L810.9,178.2z"/>
<path class="st3" d="M816.7,178.2v-0.3c-0.1,0.1-0.2,0.2-0.3,0.2c-0.1,0-0.2,0.1-0.4,0.1h-0.3c-0.2,0-0.4,0-0.6-0.1
	c-0.2-0.1-0.4-0.2-0.5-0.3c-0.1-0.1-0.3-0.3-0.3-0.5c-0.2-0.4-0.2-0.8,0-1.2c0.2-0.4,0.5-0.7,0.8-0.8c0.2-0.1,0.4-0.1,0.6-0.1h1
	c0-0.2-0.1-0.4-0.2-0.5c-0.1-0.1-0.3-0.2-0.5-0.2c-0.2,0-0.5,0.2-0.6,0.4l-1.2-0.5c0.2-0.3,0.4-0.6,0.7-0.8c0.3-0.2,0.6-0.3,1-0.3
	c0.3,0,0.5,0,0.8,0.1c0.5,0.2,0.8,0.5,1,1c0.1,0.2,0.2,0.5,0.2,0.8v3.1L816.7,178.2z M815.7,176.3c-0.1,0-0.2,0-0.3,0.1
	c-0.1,0.1-0.1,0.2-0.1,0.3c0,0.1,0,0.2,0.1,0.2c0.1,0.1,0.2,0.1,0.3,0.1h0.3c0.2,0,0.3-0.1,0.5-0.2c0.1-0.1,0.2-0.3,0.2-0.5v-0.1
	L815.7,176.3z"/>
<path class="st3" d="M824,178.2v-3.1c0-0.3-0.3-0.6-0.6-0.6c0,0,0,0,0,0c-0.4,0-0.7,0.3-0.7,0.6v0v3.1h-1.3v-3.1
	c0-0.4-0.3-0.6-0.7-0.6l0,0c-0.2,0-0.3,0.1-0.5,0.2c-0.1,0.1-0.2,0.3-0.2,0.5v3.1h-1.3v-5h1.3v0.3c0.2-0.2,0.5-0.3,0.8-0.3
	c0.2,0,0.5,0,0.7,0.1c0.2,0.1,0.4,0.2,0.6,0.4c0.3-0.3,0.8-0.5,1.2-0.5c0.2,0,0.5,0,0.7,0.1c0.3,0.1,0.5,0.3,0.7,0.5
	c0.1,0.2,0.3,0.4,0.3,0.6c0.1,0.2,0.1,0.5,0.1,0.7v3.1L824,178.2z"/>
<path class="st3" d="M827.2,176.2v0.1c0,0.2,0.1,0.3,0.2,0.5c0.1,0.1,0.3,0.2,0.5,0.2c0.2,0,0.4-0.1,0.5-0.2l0.8,0.9
	c-0.2,0.2-0.4,0.3-0.6,0.4c-0.2,0.1-0.5,0.1-0.7,0.1c-0.3,0-0.5,0-0.7-0.1c-0.2-0.1-0.4-0.2-0.6-0.4c-0.2-0.2-0.3-0.4-0.4-0.6
	c-0.1-0.2-0.2-0.5-0.2-0.7V175c0-0.3,0-0.5,0.2-0.7c0.2-0.4,0.6-0.8,1-1c0.5-0.2,1-0.2,1.5,0c0.2,0.1,0.4,0.2,0.6,0.4
	c0.2,0.2,0.3,0.4,0.4,0.6c0.1,0.2,0.2,0.5,0.2,0.7v1.1L827.2,176.2z M828.5,175.1c0-0.2-0.1-0.4-0.2-0.5c-0.1-0.1-0.3-0.2-0.5-0.2
	c-0.2,0-0.4,0.1-0.5,0.2c-0.1,0.1-0.2,0.3-0.2,0.5H828.5z"/>
<path class="st3" d="M831.6,176.2v0.1c0,0.2,0.1,0.3,0.2,0.5c0.1,0.1,0.3,0.2,0.5,0.2c0.2,0,0.4-0.1,0.5-0.2l0.8,0.9
	c-0.4,0.4-0.8,0.6-1.3,0.6c-0.3,0-0.5,0-0.7-0.1c-0.2-0.1-0.4-0.2-0.6-0.4c-0.2-0.2-0.3-0.4-0.4-0.6c-0.1-0.2-0.2-0.5-0.2-0.7V175
	c0-0.3,0-0.5,0.2-0.7c0.1-0.2,0.2-0.4,0.4-0.6c0.2-0.2,0.4-0.3,0.6-0.4c0.2-0.1,0.5-0.2,0.8-0.1c0.3,0,0.5,0,0.7,0.1
	c0.2,0.1,0.4,0.2,0.6,0.4c0.2,0.2,0.3,0.4,0.4,0.6c0.1,0.2,0.2,0.5,0.2,0.7v1.1L831.6,176.2z M832.9,175.1c0-0.2-0.1-0.4-0.2-0.5
	c-0.3-0.3-0.7-0.3-1,0c0,0,0,0,0,0c-0.1,0.1-0.2,0.3-0.2,0.5H832.9z"/>
<path class="st3" d="M837.4,178.2v-3.1c0-0.3-0.3-0.6-0.6-0.6c0,0,0,0,0,0c-0.2,0-0.3,0.1-0.5,0.2c-0.1,0.1-0.2,0.3-0.2,0.4v3.1
	h-1.3v-5h1.3v0.3c0.2-0.2,0.6-0.3,0.9-0.3c0.2,0,0.4,0,0.7,0.1c0.2,0.1,0.4,0.2,0.5,0.4c0.1,0.2,0.3,0.4,0.3,0.6
	c0.1,0.3,0.1,0.5,0.1,0.8v3.1L837.4,178.2z"/>
<path class="st3" d="M847.4,171.1v4.8c0,0.6-0.3,1.2-0.7,1.7c-0.2,0.2-0.5,0.4-0.8,0.5c-0.3,0.1-0.6,0.2-0.9,0.2
	c-0.3,0-0.6-0.1-0.9-0.2c-0.3-0.1-0.5-0.3-0.8-0.5c-0.2-0.2-0.4-0.5-0.5-0.8c-0.1-0.3-0.2-0.6-0.2-0.9v-4.8h1.4v4.8
	c0,0.1,0,0.3,0.1,0.4c0.1,0.1,0.1,0.2,0.2,0.3c0.1,0.1,0.2,0.2,0.3,0.2c0.2,0.1,0.5,0.1,0.7,0c0.2-0.1,0.4-0.3,0.5-0.5
	c0-0.1,0.1-0.2,0.1-0.4v-4.8H847.4z"/>
<polygon class="st3" points="849.9,178.2 848.5,178.2 848.5,171.1 849.9,171.1 851.8,175.3 851.8,171.1 853.2,171.1 853.2,178.2 
	851.8,178.2 849.9,174 "/>
<rect x="854.4" y="171.1" class="st3" width="1.4" height="7.1"/>
<path class="st3" d="M861.5,179.6h-1.4l-0.5-1.4h-0.3h-0.2c-0.3,0-0.6-0.1-0.9-0.2c-0.3-0.1-0.5-0.3-0.8-0.5
	c-0.2-0.2-0.4-0.5-0.5-0.8c-0.1-0.3-0.2-0.6-0.2-0.9v-2.5c0-0.3,0.1-0.6,0.2-0.9c0.1-0.3,0.3-0.5,0.5-0.8c0.2-0.2,0.5-0.4,0.8-0.5
	c0.6-0.3,1.3-0.3,1.8,0c0.6,0.2,1,0.7,1.3,1.3c0.1,0.3,0.2,0.6,0.2,0.9v2.5c0,0.3-0.1,0.6-0.2,0.9c-0.1,0.3-0.3,0.6-0.5,0.8
	L861.5,179.6z M858.2,175.9c0,0.1,0,0.3,0.1,0.4c0.1,0.1,0.1,0.2,0.2,0.3c0.1,0.1,0.2,0.2,0.3,0.2c0.1,0.1,0.2,0.1,0.4,0.1
	c0.1,0,0.2,0,0.4-0.1c0.1,0,0.2-0.1,0.3-0.2c0.1-0.1,0.1-0.2,0.2-0.3c0.1-0.1,0.1-0.2,0.1-0.4v-2.5c0-0.3-0.1-0.5-0.3-0.7
	c-0.2-0.2-0.4-0.3-0.7-0.3c-0.1,0-0.3,0-0.4,0.1c-0.1,0-0.2,0.1-0.3,0.2c-0.1,0.1-0.2,0.2-0.2,0.3c0,0.1-0.1,0.2-0.1,0.4V175.9z"/>
<polygon class="st3" points="864,176.8 867.3,176.8 867.3,178.2 862.6,178.2 862.6,171.1 864,171.1 "/>
<path class="st3" d="M872.8,175.9c0,0.3-0.1,0.6-0.2,0.9c-0.2,0.6-0.7,1-1.3,1.3c-0.6,0.2-1.3,0.2-1.8,0c-0.3-0.1-0.5-0.3-0.8-0.5
	c-0.2-0.2-0.4-0.5-0.5-0.8c-0.1-0.3-0.2-0.6-0.2-0.9v-2.5c0-0.3,0.1-0.6,0.2-0.9c0.1-0.3,0.3-0.5,0.5-0.8c0.2-0.2,0.5-0.4,0.8-0.5
	c0.6-0.3,1.3-0.3,1.8,0c0.6,0.2,1,0.7,1.3,1.3c0.1,0.3,0.2,0.6,0.2,0.9V175.9z M869.5,175.9c0,0.1,0,0.3,0.1,0.4
	c0.1,0.1,0.1,0.2,0.2,0.3c0.1,0.1,0.2,0.2,0.3,0.2c0.1,0.1,0.2,0.1,0.4,0.1c0.1,0,0.3,0,0.4-0.1c0.2-0.1,0.4-0.3,0.5-0.5
	c0-0.1,0.1-0.2,0.1-0.4v-2.5c0-0.1,0-0.3-0.1-0.4c-0.1-0.1-0.1-0.2-0.2-0.3c-0.1-0.1-0.2-0.2-0.3-0.2c-0.1,0-0.2-0.1-0.4-0.1
	c-0.1,0-0.3,0-0.4,0.1c-0.1,0-0.2,0.1-0.3,0.2c-0.1,0.1-0.2,0.2-0.2,0.3c0,0.1-0.1,0.2-0.1,0.4V175.9z"/>
<rect x="826.2" y="129.2" class="st4" width="25.7" height="25.6"/>
<rect x="845.1" y="132.7" class="st1" width="1.6" height="8.1"/>
<path class="st1" d="M834.9,138.1c0,1.5-1.2,2.7-2.7,2.7s-2.7-1.2-2.7-2.7v-5.4h1.6v5.4c-0.1,0.6,0.4,1.1,1,1.2
	c0.6,0.1,1.1-0.4,1.2-1c0-0.1,0-0.1,0-0.2v-5.4h1.6V138.1z"/>
<polygon class="st1" points="842.4,151.4 837,151.4 837,143.3 838.6,143.3 838.6,149.7 842.4,149.7 "/>
<polygon class="st1" points="842.4,140.8 840.8,140.8 838.6,136.2 838.6,140.8 837,140.8 837,132.7 838.6,132.7 840.8,137.4 
	840.8,132.7 842.4,132.7 "/>
<path class="st1" d="M832.2,143.3c-1.5,0-2.7,1.3-2.7,2.7v2.7c0,1.5,1.2,2.7,2.7,2.7l0,0c0.2,0,0.4,0,0.5-0.1l0.5,1.7h1.6l-0.8-2.4
	c0.5-0.5,0.8-1.2,0.8-1.9V146C834.9,144.5,833.7,143.3,832.2,143.3C832.2,143.3,832.2,143.3,832.2,143.3 M833.3,148.7
	c-0.1,0.6-0.6,1-1.2,1c-0.5,0-0.9-0.5-1-1V146c-0.1-0.6,0.4-1.1,1-1.2c0.6-0.1,1.1,0.4,1.2,1c0,0.1,0,0.1,0,0.2V148.7z"/>
<path class="st1" d="M845.9,143.3c-1.5,0-2.7,1.2-2.7,2.7c0,0,0,0,0,0v2.7c0,1.5,1.2,2.7,2.7,2.7s2.7-1.2,2.7-2.7l0,0V146
	C848.6,144.5,847.4,143.3,845.9,143.3 M847,148.7c0,0.6-0.5,1.1-1.1,1.1l0,0c-0.6,0-1.1-0.5-1.1-1.1c0,0,0,0,0,0V146
	c0-0.6,0.5-1.1,1.1-1.1c0.6,0,1.1,0.5,1.1,1.1c0,0,0,0,0,0L847,148.7z"/>
<rect x="311.4" class="st5" width="68.7" height="68.7"/>
<path class="st6" d="M346.1,31.9h-14.8v5h9.7c-1.4,5.3-6.8,8.6-12.2,7.2s-8.6-6.8-7.2-12.2c1.4-5.3,6.8-8.6,12.2-7.2
	c1.5,0.4,2.9,1.1,4.1,2.2h6.4c-4.1-7.2-13.3-9.6-20.5-5.5c-7.2,4.1-9.6,13.3-5.5,20.5c4.1,7.2,13.3,9.6,20.5,5.5
	c4.6-2.7,7.5-7.6,7.5-13C346.3,33.5,346.3,32.7,346.1,31.9z"/>
<path class="st6" d="M370.1,21.2v16.2l0,0c0,3.8-3.1,6.9-6.9,6.9c-3.8,0-6.9-3.1-6.9-6.9c0,0,0,0,0,0V21.2h-5v16.2
	c-0.2,6.6,5,12,11.5,12.2c6.6,0.2,12-5,12.2-11.5c0-0.2,0-0.5,0-0.7l0,0V21.2H370.1z"/>
<g>
	<rect x="762.7" y="7.8" class="st7" width="152" height="53.1"/>
	<path class="st1" d="M784,22.7c-0.2-1.2-1.4-2.1-2.6-2c-1.2,0-2.9,0.8-2.9,3.9c0,2,0.8,3.9,2.9,3.9c1.3,0.1,2.4-0.8,2.6-2.1h2.5
		c-0.4,2.5-2.6,4.3-5.1,4.2c-3.1,0-5.4-2-5.4-5.9s2.4-5.9,5.4-5.9c3.5,0,5,2.3,5.1,4L784,22.7"/>
	<path class="st1" d="M787.8,24.6c0,5.3,4.1,5.9,5.7,5.9s5.7-0.6,5.7-5.9s-4.1-5.9-5.7-5.9S787.8,19.3,787.8,24.6 M790.3,24.6
		c0-3.2,1.9-3.9,3.2-3.9s3.2,0.8,3.2,3.9s-1.9,3.9-3.2,3.9S790.3,27.8,790.3,24.6z"/>
	<polyline class="st1" points="812.4,30.2 810.1,30.2 810.1,20.8 810.1,20.8 807.9,30.2 805.5,30.2 803.3,20.8 803.3,20.8 
		803.3,30.2 801,30.2 801,19 804.6,19 806.7,27.9 806.8,27.9 808.9,19 812.4,19 812.4,30.2 	"/>
	<path class="st1" d="M819.6,24.2c1.8,0,1.8-1.2,1.8-1.8c0-1.1-0.6-1.5-2.2-1.5h-2v3.3H819.6 M817.2,30.2h-2.5V19h5.4
		c1.9-0.2,3.5,1.2,3.7,3.1c0,0.2,0,0.4,0,0.6c0,1.9-1.5,3.6-3.4,3.6c-0.1,0-0.2,0-0.3,0h-2.8L817.2,30.2z"/>
	<polyline class="st1" points="830.8,30.2 828.3,30.2 828.3,21 824.7,21 824.7,19 834.3,19 834.3,21 830.8,21 830.8,30.2 	"/>
	<path class="st1" d="M834.6,24.6c0,5.3,4.1,5.9,5.7,5.9s5.7-0.6,5.7-5.9s-4.1-5.9-5.7-5.9S834.6,19.3,834.6,24.6 M837.1,24.6
		c0-3.2,1.9-3.9,3.2-3.9s3.2,0.8,3.2,3.9s-1.9,3.9-3.2,3.9S837.1,27.8,837.1,24.6z"/>
	<rect x="847.7" y="19" class="st1" width="2.5" height="11.3"/>
	<path class="st1" d="M852.5,30.2h2.4v-4.4h2.5c1.8,0,1.9,0.6,1.9,2.1c0,0.8,0.1,1.5,0.3,2.3h2.7V30c-0.5-0.2-0.5-0.6-0.5-2.2
		c0-2.1-0.5-2.5-1.5-2.9c1.1-0.4,1.9-1.5,1.8-2.7c0-1-0.6-3.2-3.7-3.2h-6L852.5,30.2 M854.9,23.9v-3h3.1c1.4,0,1.7,0.9,1.7,1.5
		c0,1.1-0.6,1.5-1.9,1.5L854.9,23.9z"/>
	<path class="st1" d="M868.9,30.2h5.1c3.9,0,4.9-3.5,4.9-5.9c0-2.1-0.8-5.4-4.8-5.4h-5.2V30.2 M871.3,20.9h2.4
		c1.1,0,2.7,0.3,2.7,3.6c0,1.9-0.7,3.8-2.7,3.8h-2.4L871.3,20.9z"/>
	<polyline class="st1" points="889.5,21 883.2,21 883.2,23.3 888.9,23.3 888.9,25.3 883.2,25.3 883.2,28.2 889.7,28.2 889.7,30.2 
		880.8,30.2 880.8,19 889.5,19 889.5,21 	"/>
	<path class="st1" d="M893.5,26.8c0,0.6,0.3,1.8,2.5,1.8c1.2,0,2.5-0.3,2.5-1.5c0-0.9-0.9-1.1-2.1-1.4l-1.3-0.3
		c-1.9-0.4-3.8-0.8-3.8-3.3c0-1.3,0.7-3.5,4.5-3.5c3.6,0,4.6,2.3,4.6,3.6h-2.4c-0.1-0.5-0.3-1.7-2.4-1.7c-0.9,0-2.1,0.3-2.1,1.4
		s0.8,1.1,1.2,1.2l2.9,0.7c1.6,0.4,3.1,1,3.1,3c0,3.4-3.6,3.7-4.6,3.7c-4.3,0-5.1-2.4-5.1-3.8L893.5,26.8"/>
	<path class="st1" d="M793,42.4c-0.2-1.3-1.3-2.1-2.6-2c-1.2,0-2.9,0.8-2.9,4c0,2,0.8,3.8,2.9,3.8c1.3,0.1,2.4-0.8,2.6-2.1h2.5
		c-0.3,2.5-2.6,4.3-5.1,4.2c-3.1,0-5.4-2-5.4-5.9s2.4-6,5.4-6c3.5,0,5,2.3,5.1,4L793,42.4"/>
	<path class="st1" d="M796.8,44.3c0,5.3,4.1,5.9,5.7,5.9s5.7-0.6,5.7-5.9s-4.1-5.9-5.7-5.9S796.8,39,796.8,44.3 M799.3,44.3
		c0-3.2,1.9-3.9,3.2-3.9s3.2,0.8,3.2,3.9s-1.9,3.9-3.2,3.9S799.3,47.5,799.3,44.3z"/>
	<polyline class="st1" points="814.5,50 812,50 812,40.7 808.5,40.7 808.5,38.7 818,38.7 818,40.7 814.5,40.7 814.5,50 	"/>
	<path class="st1" d="M818.3,44.3c0,5.3,4.1,5.9,5.7,5.9s5.7-0.6,5.7-5.9s-4.1-5.9-5.7-5.9S818.3,39,818.3,44.3 M820.8,44.3
		c0-3.2,1.9-3.9,3.2-3.9s3.2,0.8,3.2,3.9s-1.9,3.9-3.2,3.9S820.8,47.5,820.8,44.3L820.8,44.3z"/>
	<polyline class="st1" points="838.8,38.7 841.1,38.7 841.1,50 838.7,50 833.9,41.9 833.8,41.9 833.8,50 831.5,50 831.5,38.7 
		834.1,38.7 838.8,46.5 838.8,46.5 838.8,38.7 	"/>
	<polyline class="st1" points="850.7,38.7 853,38.7 853,50 850.5,50 845.7,41.9 845.7,41.9 845.7,50 843.4,50 843.4,38.7 846,38.7 
		850.7,46.5 850.7,46.5 850.7,38.7 	"/>
	<rect x="855.2" y="38.7" class="st1" width="2.5" height="11.3"/>
	<polyline class="st1" points="868.6,40.7 862.3,40.7 862.3,43 868.1,43 868.1,45 862.3,45 862.3,48 868.9,48 868.9,50 859.9,50 
		859.9,38.7 868.6,38.7 868.6,40.7 	"/>
	<path class="st1" d="M870.9,50h2.4v-4.5h2.6c1.8,0,1.9,0.6,1.9,2.1c0,0.8,0.1,1.5,0.3,2.3h2.7v-0.3c-0.5-0.2-0.5-0.6-0.5-2.2
		c0-2.1-0.5-2.5-1.5-2.9c1.1-0.4,1.9-1.5,1.8-2.7c0-1-0.6-3.2-3.7-3.2h-6L870.9,50 M873.3,43.7v-3h3.1c1.4,0,1.7,0.9,1.7,1.5
		c0,1.1-0.6,1.5-1.9,1.5L873.3,43.7z"/>
	<path class="st1" d="M884.5,46.5c0,0.6,0.3,1.8,2.5,1.8c1.2,0,2.5-0.3,2.5-1.5c0-0.9-0.9-1.1-2.1-1.4l-1.3-0.3
		c-1.9-0.4-3.8-0.8-3.8-3.3c0-1.3,0.7-3.5,4.5-3.5c3.6,0,4.6,2.3,4.6,3.7h-2.4c-0.1-0.5-0.3-1.7-2.4-1.7c-0.9,0-2.1,0.3-2.1,1.3
		s0.8,1.1,1.2,1.2l2.9,0.7c1.6,0.4,3.1,1,3.1,3c0,3.4-3.6,3.7-4.6,3.7c-4.3,0-5-2.4-5-3.8L884.5,46.5"/>
</g>
<g>
	<polyline points="499.7,46.7 499.7,22 504.3,22 504.3,31.8 510.7,31.8 510.7,22 515.3,22 515.3,46.7 510.7,46.7 510.7,35.4 
		504.3,35.4 504.3,46.7 499.7,46.7 	"/>
	<polyline points="519.7,46.7 519.7,22 532.6,22 532.6,25.6 524.3,25.6 524.3,31.9 532,31.9 532,35.5 524.3,35.5 524.3,43.1 
		532.6,43.1 532.6,46.7 519.7,46.7 	"/>
	<polyline points="536.2,46.7 536.2,22 540.8,22 540.8,43.1 549.4,43.1 549.4,46.7 536.2,46.7 	"/>
	<path d="M557.3,46.7h-4.6V22h7.3l2.5,11.5c0.4,1.9,0.7,3.8,0.8,5.7h0.1c0.1-1.9,0.4-3.8,0.7-5.7l2.5-11.5h7.3v24.7h-4.6v-7.8
		c0-4.9,0.1-9.8,0.4-14.7h-0.1l-4.9,22.5h-2.8l-4.8-22.5h-0.2c0.3,4.9,0.4,9.8,0.4,14.7L557.3,46.7"/>
	<path d="M589.4,22h4.6v17.2c0,5.5-1.8,8.1-7.8,8.1s-7.9-2.6-7.9-8.1V22h4.6v16.8c0,2.4,0.2,4.7,3.3,4.7s3.2-2.4,3.2-4.7L589.4,22"
		/>
	<polyline points="596.7,22 612.1,22 612.1,25.6 606.7,25.6 606.7,46.7 602.1,46.7 602.1,25.6 596.7,25.6 596.7,22 	"/>
	<polyline points="623.1,46.7 623.1,22 627.7,22 627.7,43.1 636.2,43.1 636.2,46.7 623.1,46.7 	"/>
	<path d="M637.6,46.7l5.9-24.7h6.2l5.6,24.7h-4.9l-1.2-6.2h-5.4l-1.2,6.2L637.6,46.7z M644.5,36.8h4l-1.2-7
		c-0.2-1.1-0.3-2.3-0.5-3.4c0-0.6-0.1-1.1-0.2-1.6h-0.1c-0.1,0.5-0.1,1.1-0.2,1.6c-0.1,1.1-0.2,2.3-0.5,3.4L644.5,36.8"/>
	<path d="M668.9,22h4.6v24.7h-4.8l-3.6-8.8c-1.3-3.2-2.4-6.5-3.3-9.8h-0.1c0.2,2,0.4,4.5,0.5,7s0.2,4.9,0.2,6.9v4.6h-4.6V22h4.8
		l3.6,9c1.3,3.2,2.4,6.5,3.3,9.8h0.1c-0.2-2.2-0.3-4.6-0.5-7s-0.2-4.7-0.2-6.9L668.9,22"/>
	<path d="M677.5,32.4c0.2-6.3,0.7-11,8.1-11c4,0,6.7,1,7.7,5.3c0.2,1,0.3,2,0.2,3h-4.6c-0.1-2.5-0.2-4.5-3.4-4.6
		c-3.6,0-3.3,4.3-3.3,6.2v6.9c0,2,0.2,5.4,3.3,5.4c2.6,0,3.5-2.8,3.4-6.5h-3.2v-3.6h7.7v13.3H690v-2.8h-0.1c-0.5,2-2.3,3.4-4.3,3.4
		c-7.6,0-8.1-4.8-8.1-11.4V32.4"/>
</g>
<g>
	<g>
		<defs>
			<rect id="SVGID_1_" x="511.3" y="140.1" width="150.1" height="21.8"/>
		</defs>
		<clipPath id="SVGID_00000103254180213251115890000003455730069070326203_">
			<use xlink:href="#SVGID_1_"  style="overflow:visible;"/>
		</clipPath>
		<g style="clip-path:url(#SVGID_00000103254180213251115890000003455730069070326203_);">
			<path class="st9" d="M565.9,152.1v9h-3.4v-20.2h4.9c1,0,2.1,0.1,3.1,0.2c0.8,0.1,1.6,0.4,2.3,0.9c0.7,0.5,1.2,1.1,1.5,1.9
				c0.4,0.8,0.6,1.7,0.6,2.6c0,3.3-1.7,5.1-5,5.5l5,6.2l0.7-1.4h3.3l-2.2,4.4h-3.4l-7.2-9L565.9,152.1z M565.9,149.4h0.6
				c1.2,0.1,2.4-0.1,3.5-0.5c0.8-0.4,1.3-1.4,1.2-2.3c0.1-1-0.3-1.9-1.1-2.4c-1.1-0.5-2.3-0.7-3.5-0.6h-0.6L565.9,149.4L565.9,149.4
				z"/>
			<path class="st9" d="M516.5,158.6c0.6,0.1,1.1-0.2,1.5-0.7c0.3-0.7,0.4-1.5,0.3-2.2v-14.7h3.5v15.8c0.1,1.3-0.3,2.5-1.2,3.5
				c-1.1,0.9-2.5,1.5-4,1.4c-1.5,0.1-2.9-0.4-4-1.4c-0.8-0.8-1.2-2.9-1.2-4.6h3.5c-0.1,0.8,0.1,1.5,0.3,2.2
				C515.5,158.4,516,158.7,516.5,158.6L516.5,158.6z"/>
		</g>
	</g>
	<path class="st9" d="M542.8,149.5h1.3c1.2,0.1,2.4-0.1,3.5-0.5c1.3-0.8,1.7-2.6,0.9-3.9c-0.3-0.4-0.6-0.8-1.1-1
		c-1-0.4-2.2-0.5-3.3-0.4h-1.3V149.5z M542.8,158.4h1.2c0.8,0,1.7,0,2.5-0.1c0.6,0,1.2-0.2,1.7-0.5c0.9-0.6,1.4-1.5,1.4-2.6
		c0.1-1.2-0.6-2.3-1.7-2.8c-0.4-0.2-0.9-0.3-1.3-0.4c-0.5-0.1-1-0.1-1.5-0.1h-2.3L542.8,158.4L542.8,158.4z M539.3,161.2v-20.2h5.5
		c1,0,2,0,3,0.2c0.8,0.1,1.6,0.4,2.3,0.9c0.7,0.5,1.2,1.1,1.6,1.8c0.4,0.8,0.6,1.6,0.6,2.5c0,1-0.3,1.9-0.8,2.7
		c-0.6,0.8-1.4,1.3-2.3,1.5c1.2,0.1,2.2,0.7,3,1.6c0.7,1,1.1,2.2,1.1,3.4c0,0.8-0.2,1.6-0.5,2.4c-0.3,0.7-0.7,1.3-1.3,1.9
		c-0.8,0.7-1.7,1.2-2.8,1.3c-1.3,0.2-2.6,0.3-3.9,0.2L539.3,161.2z"/>
	<path class="st9" d="M591.5,153.2h6.3l-3.1-6.9L591.5,153.2z M601.4,161.2l-2.3-5.2h-8.8l-2.4,5.2h-3.7l10.5-21l10.5,21
		L601.4,161.2z"/>
	<polygon class="st9" points="612.8,161.2 612.8,140.1 629,155 629,140.9 632.3,140.9 632.3,162 616.1,147.1 616.1,161.2 
		612.8,161.2 	"/>
	<path class="st9" d="M646.5,158.2h3c1.1,0,2.2,0,3.2-0.2c0.9-0.1,1.8-0.5,2.6-1.1c3.2-3.1,3.3-8.3,0.1-11.5c0-0.1-0.1-0.1-0.1-0.1
		c-0.8-0.6-1.7-1-2.7-1.1c-1.2-0.2-2.3-0.2-3.5-0.2h-2.6V158.2z M643,161.2v-20.3h4.8c1.3,0,2.6,0,3.8,0.1c1.1,0,2.2,0.2,3.2,0.5
		c2.5,0.7,4.6,2.4,5.7,4.8c0.7,1.5,1,3.2,1,4.8c0,3.7-1.3,6.4-3.8,8.2c-1.2,0.9-2.6,1.4-4.1,1.6c-1.6,0.2-3.2,0.3-4.8,0.3L643,161.2
		L643,161.2z"/>
</g>
<g>
	<path class="st10" d="M111.4,154.2c0-2.1-1.4-2.7-3.2-3.2c-2.5-0.7-5.6-2-5.6-6c0-3.3,2.7-5.9,5.9-5.9c2.1,0,4.1,0.9,5.5,2.5
		l-2.1,2.2c-0.9-0.9-2.1-1.5-3.4-1.6c-1.5,0-2.8,1.2-2.8,2.8c0,0,0,0,0,0c0,2.3,1.9,2.7,4,3.3c2.3,0.7,4.9,2.1,4.9,6
		c0,3.6-2.9,6.4-6.5,6.5c-2.1-0.1-4.1-1-5.5-2.6l2.2-2.1c0.8,0.9,2,1.5,3.2,1.5C109.9,157.6,111.4,156.1,111.4,154.2
		C111.4,154.3,111.4,154.3,111.4,154.2L111.4,154.2z M152.8,142.6h-5.2v-3.1h13.5v3.1h-5.2v17.7h-3.1V142.6z M60.8,157.1h7.8v3.1
		H57.7v-20.8h3.1V157.1L60.8,157.1z M17.4,148.8h-4.2v-6.2h4.2c1.7,0,3.1,1.4,3.1,3.1S19.1,148.8,17.4,148.8z M17.4,139.5h-7.3v20.8
		h3.1v-8.3h4.2c3.4,0,6.2-2.8,6.2-6.2C23.7,142.2,20.9,139.5,17.4,139.5z M138.8,134.5h31v31h-31V134.5z M138.1,166.2h32.5v-32.4
		h-32.5L138.1,166.2L138.1,166.2z M92.8,134.5h31v31h-31V134.5z M92.1,166.2h32.4v-32.4H92.1L92.1,166.2L92.1,166.2z M46.8,134.5h31
		v31h-31V134.5z M46,166.2h32.4v-32.4H46C46,133.7,46,166.2,46,166.2z M0.7,134.5h31v31h-31V134.5z M0,166.2h32.4v-32.4H0V166.2z"/>
</g>
<path class="st11" d="M417.1,159.6L417.1,159.6l0,0.3l0,0c0.2,0,0.4,0,0.6,0.2c0.1,0.1,0.1,0.3,0.1,0.6v2.6c0,0.2,0,0.4-0.1,0.6
	c-0.1,0.1-0.2,0.1-0.6,0.2l0,0v0.2h0c0.4,0,0.8,0,1.2,0s0.8,0,1.1,0h0v-0.2l0,0c-0.4,0-0.5-0.1-0.6-0.2s-0.1-0.3-0.1-0.6V162
	c0.3,0.1,0.6,0.1,0.8,0.1c0.7,0.1,1.4-0.4,1.5-1.2c0,0,0,0,0-0.1c0-0.9-0.8-1.4-1.7-1.4c-0.2,0-0.5,0-0.7,0h-0.6
	C417.8,159.5,417.4,159.5,417.1,159.6L417.1,159.6z M418.8,160c0.2-0.1,0.3-0.1,0.5-0.1c0.2,0,0.5,0.1,0.6,0.3
	c0.1,0.2,0.2,0.5,0.2,0.7c0.1,0.5-0.2,0.9-0.7,1c-0.1,0-0.1,0-0.2,0c-0.2,0-0.3,0-0.5-0.1V160L418.8,160z"/>
<path class="st11" d="M428,161.8l0.5-1.4l0.5,1.4H428z M427.5,163.1l0.3-0.9h1.3l0.2,0.6c0,0,0,0.1,0,0.1c0.1,0.2,0.1,0.4,0.2,0.6
	c0,0.1-0.1,0.2-0.1,0.2c-0.2,0.1-0.3,0.1-0.5,0.1h0v0.3h0c0.4,0,0.8,0,1.1,0s0.9,0,1.2,0h0v-0.3h0c-0.3,0-0.5-0.1-0.6-0.4l-1.5-4
	l0,0c-0.3,0.1-0.5,0.2-0.8,0.2l0,0l0.1,0.4l-1.3,3.1c-0.1,0.2-0.2,0.3-0.3,0.5c-0.1,0.1-0.3,0.2-0.5,0.2l0,0v0.3l0,0
	c0.3,0,0.5,0,0.8,0s0.6,0,0.9,0h0v-0.2l0,0c-0.1,0-0.3-0.1-0.4-0.1c-0.1-0.1-0.2-0.1-0.2-0.2C427.5,163.4,427.6,163.3,427.5,163.1
	L427.5,163.1L427.5,163.1z"/>
<path class="st11" d="M436.3,159.6L436.3,159.6v0.2l0,0c0.3,0,0.5,0.1,0.6,0.2c0.1,0.2,0.1,0.4,0.1,0.6v2.6c0,0.2,0,0.4-0.1,0.6
	c-0.1,0.1-0.2,0.1-0.6,0.2l0,0v0.2l0,0h1.2c0.4,0,0.8,0,1.1,0l0,0v-0.2l0,0c-0.3,0-0.5-0.1-0.5-0.2s-0.1-0.3-0.1-0.6V162l0.1,0.1
	h0.2c0.4,0.7,0.9,1.4,1.4,2l0,0h0.7h0.8h0v-0.2l0,0c-0.4-0.1-0.8-0.4-1.1-0.8c-0.3-0.3-0.5-0.7-0.8-1.1c0.6-0.1,1-0.5,1-1.1
	c0-0.8-0.7-1.4-1.5-1.4c0,0-0.1,0-0.1,0c-0.3,0-0.5,0-0.8,0h-0.7C436.9,159.5,436.6,159.5,436.3,159.6L436.3,159.6z M437.9,160
	c0.2,0,0.3-0.1,0.5-0.1c0.5,0,0.9,0.4,0.9,0.8c0,0,0,0,0,0.1c0,0.5-0.3,0.9-0.8,0.9c-0.1,0-0.1,0-0.2,0c-0.1,0-0.3,0-0.4-0.1V160
	L437.9,160z"/>
<path class="st11" d="M446.7,159.6L446.7,159.6v0.3l0,0c0.2,0,0.4,0,0.5,0.2c0.1,0.2,0.1,0.3,0.1,0.5v2.9c0,0.1,0,0.3-0.1,0.3
	c-0.2,0.1-0.4,0.1-0.6,0.1l0,0v0.2h0c0.4,0,0.8,0,1.2,0s0.8,0,1.2,0h0v-0.2h0c-0.2,0-0.4,0-0.5-0.1c-0.1-0.1-0.2-0.2-0.1-0.3v-2.9
	c0-0.2,0-0.4,0.1-0.5c0.2-0.1,0.4-0.2,0.6-0.2l0,0v-0.3h-0.2c-0.4,0-0.7,0-1,0S447.1,159.6,446.7,159.6L446.7,159.6z"/>
<path class="st11" d="M456.3,160.4c0-0.4,0.3-0.6,0.7-0.6c0.7,0,1.2,0.5,1.4,1.1h0.2v-0.1c0,0,0-0.1,0-0.1l0,0c0-0.2,0-0.5,0-0.7
	c0-0.1,0-0.2,0-0.3v-0.2h-0.3c-0.2,0-0.3,0-0.5-0.1c-0.3-0.1-0.6-0.1-0.8-0.1c-0.4,0-0.8,0.1-1.2,0.3c-0.3,0.2-0.4,0.6-0.4,1
	c0,0.8,0.8,1.2,1.5,1.5c0.3,0.1,0.5,0.3,0.8,0.4c0.2,0.1,0.3,0.3,0.3,0.6c0,0.2-0.1,0.4-0.2,0.5c-0.2,0.1-0.5,0.2-0.7,0.1
	c-0.7-0.1-1.4-0.6-1.6-1.3h-0.2v0.1c0.1,0.5,0.2,1,0.3,1.5v0.1h0.1c0.1,0,0.2-0.1,0.3-0.1c0.2,0,0.4,0,0.7,0.1
	c0.2,0.1,0.4,0.1,0.7,0.1c1,0,1.6-0.5,1.6-1.3c0-1-0.9-1.3-1.6-1.6c-0.3-0.1-0.5-0.2-0.7-0.4C456.4,160.8,456.3,160.6,456.3,160.4
	L456.3,160.4z"/>
<path class="st11" d="M363.9,145.6v-1.5h-3.8v-2.3h-2v2.3h-1.4v1.5h1.4v5.7c0,2.2,0.7,2.9,3.2,2.9c2.2,0,3.1-0.9,3.1-3.1
	c0-0.1,0-0.4,0-0.7h-1.7c0,0.2,0,0.4,0,0.5c0,1.4-0.3,1.8-1.3,1.8s-1.2-0.3-1.2-1.5v-5.5H363.9z"/>
<path class="st11" d="M369.9,146.9h2v-0.2c0-1.2,0.5-1.4,2.2-1.4c1.9,0,2.3,0.4,2.3,2.3v1.4l0,0c-0.4-0.8-1.2-1.1-3.1-1.1
	c-2.8,0-3.8,0.8-3.8,3.1s1,3.1,3.8,3.1c1.9,0,2.6-0.3,3.2-1.4l0,0l-0.1,1.2h2v-6.6c0-2.8-1-3.6-4.5-3.6
	C370.7,143.9,369.9,144.5,369.9,146.9L369.9,146.9z M371.5,150.9c0-1.2,0.5-1.5,2.3-1.5c2.1,0,2.6,0.4,2.6,1.7s-0.6,1.6-2.5,1.6
	S371.5,152.4,371.5,150.9z"/>
<path class="st11" d="M386.5,144.1h-2v10h2v-5.8c0-2,0.7-2.8,2.5-2.8c1,0,1.6,0.2,1.8,0.6c0.1,0.3,0.1,0.3,0.2,1.5v6.4h2v-5.8
	c0-0.6,0-1.1,0.2-1.6c0.3-0.7,1.1-1.1,2.3-1.1c1.5,0,2,0.4,2,2.1v6.4h2v-6.6c0-2.6-1-3.6-3.5-3.6c-1.7,0-2.7,0.5-3.3,1.8l0,0
	c-0.3-1.2-1.3-1.8-3.1-1.8s-2.6,0.5-3.1,1.7l0,0v-1.5L386.5,144.1z"/>
<path class="st11" d="M423,145.6v-1.5h-3.8v-2.3h-2v2.3h-1.8v1.5h1.8v5.7c0,2.2,0.7,2.9,3.1,2.9c2.2,0,3.1-0.9,3.1-3.1
	c0-0.1,0-0.4,0-0.7h-1.7c0,0.2,0,0.4,0,0.5c0,1.4-0.3,1.8-1.3,1.8s-1.2-0.3-1.2-1.5v-5.5H423z"/>
<path class="st11" d="M429,146.9h2v-0.2c0-1.2,0.5-1.4,2.2-1.4c1.9,0,2.3,0.4,2.3,2.3v1.4l0,0c-0.4-0.8-1.2-1.1-3.1-1.1
	c-2.8,0-3.8,0.8-3.8,3.1s1,3.1,3.8,3.1c1.9,0,2.6-0.3,3.2-1.4l0,0l-0.1,1.2h2v-6.6c0-2.8-1-3.6-4.5-3.6
	C429.8,143.9,429,144.5,429,146.9L429,146.9z M430.6,150.9c0-1.2,0.5-1.5,2.3-1.5c2.1,0,2.6,0.4,2.6,1.7s-0.6,1.6-2.5,1.6
	S430.6,152.4,430.6,150.9z"/>
<path class="st11" d="M445.6,144.1h-2v10h2v-5.8c0-2,0.7-2.8,2.5-2.8c1,0,1.6,0.2,1.8,0.6c0.1,0.3,0.1,0.3,0.2,1.5v6.4h2v-5.8
	c0-0.6,0-1.1,0.2-1.6c0.3-0.7,1.1-1.1,2.3-1.1c1.5,0,2,0.4,2,2.1v6.4h2v-6.6c0-2.6-0.9-3.6-3.5-3.6c-1.7,0-2.7,0.5-3.3,1.8h0
	c-0.3-1.2-1.3-1.8-3.1-1.8s-2.6,0.5-3.1,1.7h0L445.6,144.1L445.6,144.1z"/>
<path class="st11" d="M408.4,147.2c-1.2,0-2.2,1-2.2,2.2s1,2.2,2.2,2.2c1.2,0,2.2-1,2.2-2.2C410.6,148.2,409.7,147.2,408.4,147.2
	C408.4,147.2,408.4,147.2,408.4,147.2z"/>
<path class="st11" d="M232.7,144.7v-0.4c0.6,0,1.4,0.1,2.3,0.1s1.9-0.1,2.9-0.1c1.9,0,3.6,0.9,3.6,3c0,1.8-1.6,2.6-3.2,2.6
	c-0.6,0-1.3-0.1-1.9-0.3v2.5c0,1.3,0.1,1.6,1.6,1.7v0.4c-0.9,0-1.7-0.1-2.6-0.1s-1.8,0-2.7,0.1v-0.4c1.5-0.1,1.6-0.4,1.6-1.7v-5.7
	C234.2,145.1,234,144.8,232.7,144.7z M237.4,149.2c1.1,0,2-0.8,2-1.8c0-0.1,0-0.2,0-0.3c0-1.2-0.5-2.2-1.9-2.2
	c-0.4,0-0.8,0.1-1.2,0.2v4C236.6,149.1,237,149.2,237.4,149.2L237.4,149.2z"/>
<path class="st11" d="M246.7,144.4c1.1,0,2.1-0.1,3.3-0.1c2.1,0,3.4,1.3,3.4,2.9c0,1.2-0.9,2.3-2.2,2.4c0.9,1.4,2.5,3.9,4.2,4.2v0.3
	c-0.6,0-1.1-0.1-1.7-0.1s-1,0-1.5,0.1c-1.2-1.3-2.3-2.8-3.2-4.4c-0.2,0-0.4,0-0.6-0.1c-0.1,0-0.3-0.1-0.4-0.1v2.5
	c0,1.3,0.1,1.5,1.5,1.6v0.4c-0.7,0-1.6-0.1-2.4-0.1s-1.8,0-2.7,0.1v-0.4c1.5-0.1,1.6-0.3,1.6-1.6v-5.6c0-1.2-0.1-1.6-1.5-1.7v-0.4
	C245.2,144.3,245.8,144.4,246.7,144.4z M249,149.1c1.2,0,2.1-1,2.1-2.1c0-1.1-0.8-2-1.9-2.1c-0.4,0-0.8,0-1.1,0.1v3.9
	C248.3,149,248.7,149.1,249,149.1z"/>
<path class="st11" d="M260.9,144.4c0.9,0,1.7-0.1,2.6-0.1v0.4c-1.4,0.1-1.7,0.4-1.7,1.6v6.3c0,0.7,0.4,1.1,1.6,1.1v0.4
	c-0.9,0-1.8-0.1-2.6-0.1s-1.8,0-2.7,0.1v-0.4c1.2-0.1,1.6-0.4,1.6-1.1v-6.3c0-1.1-0.3-1.5-1.5-1.6v-0.4
	C259.1,144.3,260,144.4,260.9,144.4z"/>
<path class="st11" d="M269.3,151.4l0.1-5.8c-0.3-0.3-0.6-0.5-0.9-0.6c-0.4-0.1-0.7-0.3-1.1-0.4v-0.4c0.6,0,1.1,0.1,1.6,0.1
	c0.7,0,1.3,0,2-0.1c2,2.4,4.1,4.7,6,7.2c0-1.8-0.1-3.6-0.2-5.4c-0.1-1-0.7-1.2-1.7-1.4v-0.4c0.7,0,1.4,0.1,2.1,0.1s1.4,0,2.1-0.1
	v0.4c-1.5,0.1-1.7,0.6-1.7,2.8v6.9h-1c-2-2.8-4.1-5.5-6.5-8v4.9c0,2,0.2,2.2,1.9,2.5v0.4c-0.8,0-1.5-0.1-2.2-0.1s-1.6,0-2.4,0.1
	v-0.4C269.2,153.4,269.3,153.2,269.3,151.4z"/>
<path class="st11" d="M288.2,144.8c-2.4,0-3.1,2.3-3.1,4.2c0,2.4,1.3,4.2,3.9,4.2c1.5-0.1,2.9-0.9,3.7-2.3l0.4,0.4
	c-1,1.9-2.9,3-5.1,3c-2.7,0.1-5-1.9-5.2-4.6c0-0.2,0-0.3,0-0.5c0-3.1,2.2-5.1,5.4-5.1c0.7,0,1.4,0.1,2.1,0.3l0.9,0.2l0.5,0.1
	c0,0,0.1,0,0.1,0c0,0.4,0,0.8,0,1.2c0,0.8,0.1,1.7,0.2,2.5h-0.4C291.4,146.4,290,144.8,288.2,144.8z"/>
<path class="st11" d="M298.4,152.1v-5.6c0-1.1-0.2-1.6-1.5-1.6v-0.5c1,0,2.1,0.1,3.1,0.1c1.9,0,3.8-0.1,5.8-0.1c0,0.4,0,0.8,0,1.1
	c0,0.6,0,1.1,0.1,1.7l-0.4,0.1c-0.5-1.5-1.4-2.3-3.4-2.3h-1.6v3.5h0.7c1.1,0.1,2.1-0.7,2.3-1.8h0.4c0,0.7-0.1,1.4-0.1,2.1
	s0,1.4,0.1,2.1h-0.4c-0.1-1.2-1.2-2-2.3-1.9h-0.7v4.3c0.6,0.1,1.1,0.2,1.7,0.2c1.9,0,3.7-1.1,4.6-2.8l0.4,0.2
	c-0.5,1-0.9,2.1-1.3,3.2h-4.6c-1.9,0-3.5,0-4.3,0.1v-0.4C298.2,153.6,298.4,153.2,298.4,152.1z"/>
<path class="st11" d="M315,144.7c-0.8-0.1-1.4,0.5-1.5,1.2c0,0,0,0.1,0,0.1c0,0.5,0.4,1,0.9,1.2c0.3,0.2,0.6,0.3,0.9,0.5l1,0.5
	c1.4,0.6,2.9,1.5,2.9,3.3s-1.4,2.8-3.6,2.8c-0.3,0-0.5,0-0.8-0.1c-0.2,0-0.5-0.1-0.7-0.1c-0.5-0.1-1-0.2-1.5-0.2
	c-0.3,0-0.5,0.1-0.7,0.2c-0.2-1.1-0.4-2.3-0.6-3.4l0.4-0.1c0.5,1.6,1.9,2.8,3.6,3c1.3,0,2.1-0.3,2.1-1.5c0-0.6-0.4-1.1-0.9-1.4
	c-0.3-0.2-0.6-0.4-0.9-0.5l-1.1-0.5c-1.4-0.6-2.9-1.4-2.9-3.1c0-1.9,1.1-2.7,3.5-2.7c0.6,0,1.1,0.1,1.6,0.2l0.7,0.2
	c0.2,0,0.4,0.1,0.6,0.1h0.6c0,0.4,0,0.7,0,1c0,0.6,0.1,1.2,0.1,1.8l-0.4,0.1C317.9,145.8,316.6,144.8,315,144.7z"/>
<path class="st11" d="M327.8,144.7c-0.8-0.1-1.5,0.4-1.6,1.2c0,0.1,0,0.1,0,0.2c0.1,0.5,0.4,1,0.9,1.2c0.3,0.2,0.6,0.3,0.9,0.5
	c0.3,0.2,0.7,0.3,1,0.5c1.4,0.6,2.9,1.5,2.9,3.3s-1.4,2.8-3.6,2.8c-0.3,0-0.5,0-0.8-0.1c-0.2,0-0.5-0.1-0.7-0.1
	c-0.5-0.1-1-0.2-1.5-0.2c-0.2,0-0.5,0.1-0.7,0.2c-0.2-1.1-0.4-2.3-0.6-3.4l0.4-0.1c0.5,1.6,1.9,2.8,3.6,3c1.3,0,2.1-0.3,2.1-1.5
	c0-0.6-0.4-1.1-0.9-1.4c-0.3-0.2-0.6-0.4-0.9-0.5l-1.1-0.5c-1.5-0.6-2.9-1.4-2.9-3.1c0-1.9,1.1-2.7,3.5-2.7c0.6,0,1.1,0.1,1.6,0.2
	l0.7,0.2c0.2,0,0.4,0.1,0.6,0.1h0.6c0,0.4,0,0.7,0,1c0,0.6,0.1,1.2,0.1,1.8l-0.4,0.1C330.6,145.9,329.3,144.8,327.8,144.7z"/>
<path class="st11" d="M337.3,152.1v-5.6c0-1.1-0.2-1.6-1.5-1.6v-0.5c1,0,2.1,0.1,3.1,0.1c1.9,0,3.8-0.1,5.8-0.1c0,0.4,0,0.8,0,1.1
	c0,0.6,0,1.1,0.1,1.7l-0.4,0.1c-0.5-1.5-1.4-2.3-3.4-2.3h-1.6v3.5h0.7c1.1,0.1,2.1-0.7,2.3-1.8h0.4c0,0.7-0.1,1.4-0.1,2.1
	s0,1.4,0.1,2.1h-0.4c-0.1-1.2-1.2-2-2.3-1.9h-0.7v4.3c0.6,0.1,1.1,0.2,1.7,0.2c1.9,0,3.7-1.1,4.6-2.8l0.4,0.2
	c-0.5,1-0.9,2.1-1.3,3.2h-4.6c-1.9,0-3.5,0-4.3,0.1v-0.4C337.2,153.6,337.3,153.2,337.3,152.1z"/>
</svg>
