<svg width="60" height="60" viewBox="0 0 60 60" fill="none" xmlns="http://www.w3.org/2000/svg">
<g clip-path="url(#clip0_74_257)">
<path d="M53.024 29.7843C53.024 42.8477 42.431 53.4311 29.3772 53.4311C16.3233 53.4311 5.7207 42.8477 5.7207 29.7843C5.7207 16.7209 16.3137 6.13745 29.3675 6.13745L53.0144 29.7843H53.024Z" fill="white" stroke="black" stroke-width="1.5" stroke-linejoin="round"/>
<path d="M48.2671 32.1394C48.2671 32.1394 48.219 32.1394 48.1998 32.1394C47.748 32.101 47.402 31.7069 47.4404 31.2454C47.4693 30.8994 47.4885 30.5437 47.4981 30.1881C47.5077 29.7267 47.921 29.3806 48.344 29.3806C48.8054 29.3902 49.1611 29.7747 49.1515 30.2265C49.1418 30.611 49.1226 30.9955 49.0938 31.38C49.0553 31.8126 48.6997 32.1394 48.2671 32.1394Z" fill="black"/>
<path d="M30.2534 49.5477C29.8112 49.5477 29.4459 49.2017 29.4267 48.7595C29.4075 48.2981 29.7631 47.9136 30.2149 47.8944C30.9455 47.8655 31.676 47.779 32.3874 47.6637C32.8392 47.5771 33.2621 47.8944 33.339 48.3461C33.4159 48.7979 33.1083 49.2209 32.6565 49.2978C31.8779 49.4324 31.0897 49.5093 30.2918 49.5477C30.2822 49.5477 30.263 49.5477 30.2534 49.5477ZM25.7163 49.2113C25.6586 49.2113 25.6105 49.2113 25.5529 49.1921C24.7742 49.0383 23.9956 48.8364 23.2458 48.5961C22.8133 48.4519 22.573 47.9905 22.7172 47.5483C22.8613 47.1061 23.3227 46.8754 23.7649 47.0196C24.4474 47.2407 25.1587 47.4233 25.8701 47.5675C26.3219 47.654 26.6102 48.0866 26.5237 48.5384C26.4468 48.9325 26.1008 49.2113 25.7067 49.2113H25.7163ZM36.8764 48.0193C36.5592 48.0193 36.2516 47.8367 36.117 47.5195C35.9344 47.0965 36.1266 46.6063 36.5496 46.4333C37.2129 46.1449 37.8665 45.8181 38.4913 45.4528C38.8855 45.2221 39.3949 45.3567 39.6256 45.7508C39.8563 46.1449 39.7217 46.6543 39.3276 46.885C38.6451 47.2792 37.9338 47.6444 37.2033 47.9616C37.0975 48.0097 36.9822 48.0289 36.8764 48.0289V48.0193ZM19.3816 46.7216C19.2374 46.7216 19.0836 46.6832 18.949 46.5967C18.2762 46.1833 17.6225 45.7219 17.0073 45.2221C16.6516 44.9337 16.594 44.4146 16.8823 44.059C17.1707 43.7033 17.6898 43.6456 18.0455 43.934C18.6126 44.3858 19.2086 44.8087 19.8238 45.1932C20.2083 45.4336 20.3332 45.943 20.0929 46.3371C19.9391 46.5871 19.6604 46.7312 19.3912 46.7312L19.3816 46.7216ZM42.5382 44.2416C42.3171 44.2416 42.1057 44.1551 41.9422 43.9917C41.625 43.6648 41.6346 43.1362 41.9615 42.8189C42.4805 42.3095 42.9804 41.7712 43.4322 41.2136C43.7206 40.858 44.2396 40.8099 44.5953 41.0983C44.951 41.3867 44.999 41.9058 44.7107 42.2614C44.2108 42.8766 43.6725 43.463 43.1054 44.0109C42.9419 44.1647 42.7401 44.2416 42.5286 44.2416H42.5382ZM14.3446 42.1557C14.0947 42.1557 13.8448 42.0403 13.691 41.8288C13.2104 41.1944 12.7586 40.5408 12.3548 39.8583C12.1241 39.4642 12.2491 38.9547 12.6432 38.724C13.0373 38.4933 13.5468 38.6183 13.7775 39.0124C14.1428 39.6276 14.5561 40.2428 14.9983 40.8195C15.2771 41.1848 15.2098 41.7039 14.8445 41.9827C14.6907 42.098 14.5177 42.1557 14.3446 42.1557ZM46.5082 38.7144C46.3928 38.7144 46.2679 38.6856 46.1525 38.6375C45.7392 38.4452 45.5566 37.9454 45.7584 37.532C46.066 36.8784 46.3448 36.1959 46.5659 35.5134C46.7101 35.0808 47.1715 34.8501 47.6136 34.9847C48.0462 35.1289 48.2865 35.5999 48.1423 36.0325C47.8924 36.7823 47.5944 37.5224 47.258 38.2434C47.1138 38.5414 46.8158 38.7144 46.5082 38.7144ZM11.2302 36.1094C10.8745 36.1094 10.5477 35.8787 10.4323 35.523C10.2016 34.7636 10.019 33.985 9.88442 33.2064C9.80752 32.7546 10.1055 32.3221 10.5573 32.2451C11.0091 32.1779 11.432 32.4662 11.5185 32.918C11.6435 33.6294 11.8069 34.3407 12.0184 35.0328C12.153 35.475 11.9031 35.9364 11.4609 36.0613C11.384 36.0902 11.2975 36.0998 11.2206 36.0998L11.2302 36.1094ZM10.4612 29.3518C10.4612 29.3518 10.4227 29.3518 10.4035 29.3518C9.95171 29.3229 9.60565 28.9288 9.63449 28.4674C9.68255 27.6792 9.78829 26.8814 9.93248 26.1123C10.019 25.6606 10.4516 25.3626 10.9033 25.4491C11.3551 25.5356 11.6531 25.9682 11.5666 26.42C11.432 27.1313 11.3455 27.8522 11.2878 28.5828C11.259 29.0249 10.8937 29.3518 10.4612 29.3518ZM12.1145 22.7576C11.9992 22.7576 11.8838 22.7383 11.7685 22.6807C11.3551 22.4884 11.1725 21.9982 11.3551 21.5848C11.682 20.8639 12.0569 20.1526 12.4702 19.4893C12.7105 19.0952 13.22 18.9702 13.6045 19.2105C13.9986 19.4509 14.1235 19.9603 13.8832 20.3448C13.5083 20.96 13.1623 21.6041 12.8643 22.2673C12.7297 22.5749 12.4221 22.748 12.1145 22.748V22.7576ZM16.0076 17.1727C15.7961 17.1727 15.5847 17.0862 15.4212 16.9324C15.0944 16.6055 15.104 16.0865 15.4212 15.7596C15.9788 15.2021 16.5747 14.6734 17.1996 14.1928C17.5648 13.9044 18.0839 13.9717 18.3627 14.337C18.6414 14.7023 18.5838 15.2213 18.2185 15.5001C17.6417 15.9519 17.0938 16.4325 16.5844 16.942C16.4209 17.1054 16.2095 17.1823 15.998 17.1823L16.0076 17.1727ZM21.6117 13.3181C21.2945 13.3181 20.9965 13.1354 20.8523 12.8278C20.6697 12.4145 20.8523 11.9146 21.2657 11.732C21.9962 11.4052 22.7364 11.1264 23.4958 10.8957C23.938 10.7611 24.3994 11.0014 24.5339 11.4436C24.6685 11.8858 24.4282 12.3472 23.986 12.4818C23.2939 12.6932 22.6114 12.9528 21.9482 13.2508C21.8424 13.2988 21.7271 13.3277 21.6117 13.3277V13.3181Z" fill="black"/>
<path d="M28.2639 11.7032C27.8313 11.7032 27.466 11.3668 27.4372 10.9246C27.4083 10.4632 27.764 10.0787 28.2158 10.0498C28.6003 10.0306 28.9848 10.021 29.3693 10.021C29.8307 10.021 30.196 10.3959 30.196 10.8477C30.196 11.2995 29.8211 11.6744 29.3693 11.6744C29.0136 11.6744 28.658 11.684 28.3119 11.7032C28.2927 11.7032 28.2831 11.7032 28.2639 11.7032Z" fill="black"/>
<path d="M52.4086 30.5629C39.3451 30.5629 28.7617 19.9698 28.7617 6.91602L52.4086 30.5629Z" fill="white"/>
<path d="M52.4086 30.5629C39.3451 30.5629 28.7617 19.9698 28.7617 6.91602" stroke="black" stroke-width="1.5" stroke-linejoin="round"/>
<path d="M44.5657 53.9983C49.8745 53.9983 54.1782 49.5612 54.1782 44.0878C54.1782 38.6143 49.8745 34.1772 44.5657 34.1772C39.2568 34.1772 34.9531 38.6143 34.9531 44.0878C34.9531 49.5612 39.2568 53.9983 44.5657 53.9983Z" fill="#F9724F"/>
<path d="M40.5469 44.4242L43.5364 47.4041L49.823 41.1079" stroke="white" stroke-width="1.5" stroke-miterlimit="10"/>
</g>
<defs>
<clipPath id="clip0_74_257">
<rect width="49.1778" height="48.7452" fill="white" transform="translate(5 5.4165)"/>
</clipPath>
</defs>
</svg>
