<svg width="60" height="60" viewBox="0 0 60 60" fill="none" xmlns="http://www.w3.org/2000/svg">
<rect x="8" y="9" width="44" height="43" rx="2" fill="white"/>
<path d="M8 11C8 9.89543 8.89543 9 10 9H32V52H10C8.89543 52 8 51.1046 8 50V11Z" fill="#F9724F"/>
<circle cx="30" cy="30" r="15" fill="white"/>
<path d="M30 9L10 9C8.89543 9 8 9.89543 8 11V50C8 51.1046 8.89543 52 10 52H30" stroke="black" stroke-width="1.5"/>
<path d="M30 9H50C51.1046 9 52 9.89543 52 11V50C52 51.1046 51.1046 52 50 52H30" stroke="black" stroke-width="1.5" stroke-dasharray="3 5"/>
<path d="M14.2812 30.3049C14.2812 34.4209 15.8865 38.2864 18.7953 41.2016C20.4519 42.8518 22.4104 44.0846 24.555 44.8423C26.186 45.4138 27.9133 45.7156 29.6919 45.7156C31.4706 45.7156 33.1978 45.4138 34.8288 44.8423C36.9734 44.0846 38.9383 42.8582 40.5885 41.2016C43.4973 38.2928 45.1026 34.4209 45.1026 30.3049C45.1026 26.189 43.4973 22.3235 40.5885 19.4083C38.9319 17.7581 36.9734 16.5252 34.8288 15.7676C33.1978 15.1961 31.4706 14.8943 29.6919 14.8943C28.1059 14.8943 26.5648 15.1319 25.0944 15.5942C25.6595 15.9345 25.9933 16.1528 26.0319 16.1785C27.2134 15.8767 28.4398 15.7162 29.6983 15.7162C31.4834 15.7162 33.2171 16.0372 34.8352 16.6472C36.7551 17.3664 38.5209 18.4965 40.017 19.9926C42.7717 22.7473 44.2935 26.4138 44.2935 30.3114C44.2935 34.209 42.7781 37.869 40.017 40.6301C38.8677 41.7795 37.5578 42.7105 36.1387 43.4104C36.8835 41.3685 36.7551 39.1596 35.914 37.2076C35.6314 36.5591 35.2718 35.9363 34.8416 35.3648C34.8416 35.3648 34.8416 35.3584 34.8352 35.3584C34.7582 35.2556 34.6747 35.1465 34.5848 35.0501C34.3215 34.7355 34.0518 34.4337 33.7886 34.1191C33.5895 33.8815 33.4033 33.6375 33.2299 33.3807C33.1721 33.2972 33.1208 33.2073 33.0694 33.1174C33.0309 33.0468 32.9859 32.9761 32.9538 32.8991C32.8447 32.6743 32.7548 32.4432 32.697 32.1992C32.6777 32.1221 32.6649 32.0451 32.652 31.968C32.652 31.9487 32.6392 31.724 32.6328 31.724C32.8575 31.7368 33.0758 31.7433 33.2941 31.7433C33.8207 31.7433 34.3344 31.6919 34.8352 31.5892C34.9572 31.5635 35.0856 31.5378 35.2076 31.4993C35.3104 31.4736 35.4131 31.4415 35.5094 31.403C35.8112 31.3002 36.1066 31.1718 36.3955 31.0113C36.6845 30.8507 36.9606 30.6645 37.2303 30.4462C37.3202 30.3692 37.4101 30.2921 37.5 30.215C37.6091 30.1123 37.7119 30.0096 37.8082 29.894C38.0008 29.6693 38.1742 29.4317 38.3283 29.1748C38.4053 29.0464 38.4824 28.918 38.5466 28.7831C38.5851 28.7061 38.6237 28.6226 38.6429 28.5456C38.6493 28.5199 38.6558 28.4942 38.6558 28.4685C38.6622 28.3658 38.6301 28.263 38.5273 28.1731C38.3604 28.0319 38.2127 27.8778 38.0843 27.7108C38.0393 27.6594 38.0008 27.6017 37.9623 27.5439C37.8852 27.4347 37.8082 27.3127 37.7376 27.1971C37.6669 27.0815 37.6091 26.9595 37.5449 26.8311C37.4165 26.5679 37.3073 26.2918 37.2046 26.0156C37.1147 25.7716 37.0248 25.5276 36.9349 25.2836C36.8835 25.1488 36.8258 25.0139 36.768 24.8855C36.723 24.7892 36.6781 24.6929 36.6267 24.603C36.5304 24.4168 36.4212 24.237 36.2992 24.07C36.2414 23.9866 36.1772 23.9031 36.1194 23.8196C35.7534 23.3509 35.3232 22.9528 34.8352 22.6381C34.5398 22.4455 34.2252 22.285 33.8977 22.1501C33.2685 21.8997 32.5814 21.7585 31.8558 21.7456C31.7595 21.7456 31.6632 21.7456 31.5669 21.7456C31.4706 21.7456 31.3742 21.752 31.2779 21.752C31.0082 21.7649 30.7385 21.7906 30.4753 21.8355C30.0001 21.919 29.525 22.041 29.0947 22.2657C29.0883 22.2593 29.0819 22.2529 29.0691 22.2465C28.4462 21.6493 27.8169 21.0585 27.1427 20.5256C26.7831 20.2431 26.4043 19.9734 26.0126 19.7294C25.6209 19.4854 25.2228 19.2542 24.8119 19.0423C24.7284 18.9974 24.6449 18.9588 24.5679 18.9203C23.2965 18.2718 21.9866 17.7003 20.6189 17.2829C20.6125 17.2829 20.606 17.2765 20.5996 17.2765C20.4262 17.2251 20.2529 17.1738 20.0795 17.1288C19.9061 17.0839 19.7328 17.0389 19.5594 17.0068C19.2127 16.9298 18.8595 16.8784 18.5063 16.8399C18.3715 16.827 18.2302 16.8142 18.0954 16.8078C17.9156 16.8014 17.7358 16.7949 17.5624 16.7949C17.3826 16.7949 17.2093 16.8078 17.0295 16.8206C16.9781 16.827 16.9267 16.827 16.8754 16.8335C16.824 16.8399 16.7662 16.8463 16.7148 16.8527C16.6827 16.8591 16.6442 16.8656 16.6121 16.872C16.458 16.8913 16.3296 16.9426 16.2268 17.0325C16.092 17.1481 16.1177 17.315 16.1755 17.4692C16.1883 17.5013 16.2012 17.5334 16.214 17.559C16.2461 17.6168 16.2718 17.6746 16.2975 17.7196C16.7148 18.4516 17.2478 19.1194 17.8771 19.678C17.9413 19.7358 18.0055 19.7936 18.0761 19.8514C18.1789 19.9349 18.2816 20.0183 18.3908 20.0954C18.5898 20.2431 18.7889 20.3715 19.0008 20.4935C19.431 20.7503 19.8869 20.9687 20.3556 21.1484C20.5482 21.2255 20.7409 21.2897 20.9335 21.3539C21.3252 21.4823 21.7233 21.5915 22.1214 21.6878C22.3205 21.7392 22.526 21.7841 22.725 21.8291C23.1295 21.919 23.5341 21.996 23.9386 22.0731C24.1441 22.1116 24.3495 22.1566 24.555 22.1951C24.7477 22.2336 24.9467 22.2721 25.1329 22.3107C25.3512 22.3556 25.5824 22.407 25.82 22.4648C25.9099 22.484 25.9998 22.5097 26.0897 22.5354C26.2245 22.5675 26.3529 22.606 26.4814 22.6446C26.7382 22.7152 26.9822 22.7922 27.2005 22.8693C27.3097 22.9078 27.406 22.9399 27.4959 22.9785C27.5794 23.0106 27.6564 23.0427 27.7206 23.0748C27.7335 23.0812 27.7977 23.1582 27.8105 23.1647C27.7913 23.1582 27.7014 23.2867 27.6757 23.3124C27.5665 23.4344 27.4766 23.5628 27.3867 23.704C27.3097 23.8196 27.239 23.9416 27.1748 24.07C27.1299 24.1599 27.0849 24.2498 27.0464 24.3397C26.6676 25.1745 26.5391 26.0349 26.5777 26.8953C26.5841 27.043 26.5969 27.1843 26.6098 27.332C26.629 27.4989 26.6547 27.6659 26.6868 27.8328C26.7318 28.0961 26.796 28.3529 26.8666 28.6098C26.9437 28.8923 27.04 29.1684 27.1427 29.4445C27.3482 29.9967 27.5986 30.5297 27.8619 31.0369C28.0995 31.48 28.3178 31.9359 28.5233 32.3918C29.1268 33.7659 29.5314 35.2042 29.4286 36.7517C29.2874 38.8322 28.3178 40.7264 26.8538 42.184C26.7575 42.2803 26.6547 42.3766 26.5584 42.4729C26.4749 42.55 26.3915 42.6206 26.308 42.6913C26.141 42.8325 25.9612 42.9674 25.7815 43.0958C25.6916 43.16 25.6017 43.2242 25.5053 43.282C25.3191 43.404 25.1265 43.5132 24.9274 43.6095C24.8054 43.6737 24.677 43.7315 24.555 43.7828V43.9691C24.478 43.9369 24.4009 43.9113 24.3239 43.8856C24.1505 43.8149 23.9771 43.7443 23.8038 43.6673C23.7267 43.6352 23.6496 43.5966 23.5726 43.5645C23.5597 43.5581 23.5469 43.5517 23.5341 43.5453C23.624 43.5838 23.7139 43.6223 23.8038 43.6608C23.8615 43.5838 23.9193 43.5067 23.9771 43.4297C23.9001 43.4554 23.8294 43.4811 23.7524 43.5003C23.7395 43.5003 23.7331 43.5067 23.7203 43.5132C23.7331 43.5067 23.7395 43.5067 23.7524 43.5003C23.8294 43.4811 23.9001 43.4554 23.9771 43.4297C24.4202 42.7747 24.6321 41.94 24.4523 41.1759C24.3752 40.8548 24.2404 40.5659 24.0542 40.3154C23.9835 40.2127 23.9001 40.1228 23.8102 40.0393C23.7203 39.9559 23.6304 39.8724 23.5341 39.8018C23.4827 39.7632 23.4313 39.7311 23.38 39.699C23.1745 39.577 22.9497 39.4807 22.7122 39.4293C22.5966 39.4037 22.4746 39.3908 22.3526 39.3844C22.0251 39.3715 21.6912 39.4358 21.3637 39.5834C20.7666 39.8595 20.3364 40.4118 20.163 41.0346C20.1373 41.1245 20.118 41.208 20.1052 41.2979C19.8548 41.0796 19.6108 40.8612 19.3796 40.6237C16.625 37.869 15.1032 34.2026 15.1032 30.3049C15.1032 26.8119 16.3296 23.505 18.5705 20.8723C18.4807 20.8145 18.3137 20.7054 18.2174 20.6412C18.1275 20.5834 17.9926 20.4742 17.9028 20.4036C15.5526 23.1647 14.2812 26.6385 14.2812 30.3049ZM34.6554 44.0333C34.7132 44.014 34.771 43.9883 34.8288 43.9691C34.771 43.9883 34.7132 44.0076 34.6554 44.0333ZM25.4604 44.2708C26.8152 44.6754 28.2343 44.8873 29.6855 44.8873C31.3871 44.8873 33.0373 44.5983 34.5976 44.0461C34.5719 44.059 34.5398 44.0654 34.5142 44.0782C34.3215 44.1488 34.1289 44.2131 33.9298 44.2708C33.0951 44.5277 32.2282 44.7075 31.3357 44.8038C31.2394 44.8166 31.1367 44.8231 31.0403 44.8359C30.5973 44.8744 30.1414 44.9001 29.6855 44.9001C28.2215 44.9001 26.8024 44.6818 25.4604 44.2708Z" fill="#111111"/>
<path d="M30.5386 21.1548C30.5707 21.1998 30.59 21.2319 30.5964 21.264C30.5193 21.2768 30.4423 21.2832 30.3717 21.2961C30.0634 21.3474 29.7873 21.4117 29.5305 21.4951C29.4085 21.5272 29.2929 21.5658 29.1837 21.6043C28.6251 21.0778 28.0665 20.5641 27.4629 20.0825C26.7501 19.5174 25.9604 19.0166 25.0421 18.5414C24.8752 18.4515 24.7082 18.3681 24.5477 18.291C23.3405 17.6874 22.249 17.2315 21.1766 16.8784C21.0289 16.8334 20.8877 16.782 20.74 16.7371C20.451 16.6472 20.1749 16.5766 19.9052 16.5124C19.8539 16.4738 19.8025 16.3839 19.7704 16.3454C19.7126 16.2748 19.6227 16.1399 19.5713 16.0693C19.475 15.928 19.398 15.7803 19.3145 15.6262C19.2053 15.4143 19.109 15.196 19.0256 14.9777C18.9613 14.8172 18.865 14.5924 18.9485 14.4383C19.0641 14.2393 19.353 14.2393 19.5521 14.2457C20.5602 14.2714 21.5169 14.4961 22.448 14.8814C22.9232 15.0804 23.3791 15.2988 23.8285 15.5299C24.0725 15.6519 24.3101 15.7868 24.5477 15.9152C26.1722 16.8334 27.6491 17.9635 28.9783 19.312C29.5433 19.8834 30.0763 20.4934 30.5386 21.1548Z" fill="#111111"/>
</svg>
