<svg width="60" height="60" viewBox="0 0 60 60" fill="none" xmlns="http://www.w3.org/2000/svg">
<path d="M11 47.5L15 20.5H46L48.5 47.5H11Z" fill="white"/>
<path d="M49.6249 48.3313H11.3749C11.1454 48.3313 10.9287 48.2325 10.7773 48.0604C10.6259 47.8883 10.5557 47.6604 10.5844 47.4325L14.1417 19.7618C14.1927 19.3649 14.5321 19.0669 14.9322 19.0669H46.0661C46.4661 19.0669 46.8056 19.3649 46.8566 19.7618L50.4138 47.4325C50.4425 47.6604 50.3724 47.8883 50.221 48.0604C50.0712 48.2325 49.8544 48.3313 49.6249 48.3313ZM12.2802 46.7376H48.7181L45.3648 20.6606H15.6334L12.2802 46.7376Z" fill="black"/>
<path d="M39.8389 27.1727C39.399 27.1727 39.042 26.8157 39.042 26.3758V15.9304C39.042 14.4195 38.1894 12.9803 36.6418 11.879C35.0114 10.7204 32.8296 10.0813 30.4995 10.0813C28.0754 10.0813 25.7517 10.8001 24.1245 12.0528C22.7268 13.1285 21.957 14.5071 21.957 15.9304V26.3742C21.957 26.8141 21.6 27.1711 21.1602 27.1711C20.7203 27.1711 20.3633 26.8141 20.3633 26.3742V15.9304C20.3633 14.0003 21.3546 12.1755 23.1523 10.7905C25.0792 9.30514 27.6897 8.48755 30.4995 8.48755C33.1579 8.48755 35.6681 9.23183 37.5662 10.5817C39.5457 11.9906 40.6358 13.8904 40.6358 15.9304V26.3742C40.6358 26.8157 40.2804 27.1727 39.8389 27.1727Z" fill="black"/>
<path d="M49.6125 54.8211C54.9214 54.8211 59.2251 50.384 59.2251 44.9105C59.2251 39.4371 54.9214 35 49.6125 35C44.3037 35 40 39.4371 40 44.9105C40 50.384 44.3037 54.8211 49.6125 54.8211Z" fill="#F9724F"/>
<path d="M46 45H54" stroke="white" stroke-width="1.5" stroke-linejoin="round"/>
<path d="M50 49V41" stroke="white" stroke-width="1.5" stroke-linejoin="round"/>
</svg>
