<svg width="60" height="60" viewBox="0 0 60 60" fill="none" xmlns="http://www.w3.org/2000/svg">
<g clip-path="url(#clip0_74_270)">
<path d="M46.41 25.9199H4.75V55.2199H46.41V25.9199Z" fill="white"/>
<path d="M46.4102 55.97H45.9102C45.5002 55.97 45.1602 55.63 45.1602 55.22C45.1602 54.88 45.3802 54.6 45.6902 54.5C45.7802 54.19 46.0702 53.97 46.4102 53.97C46.8202 53.97 47.1602 54.31 47.1602 54.72V55.22C47.1602 55.63 46.8202 55.97 46.4102 55.97Z" fill="black"/>
<path d="M41.7414 55.97H40.7014C40.2914 55.97 39.9514 55.63 39.9514 55.22C39.9514 54.81 40.2914 54.47 40.7014 54.47H41.7414C42.1514 54.47 42.4914 54.81 42.4914 55.22C42.4914 55.63 42.1514 55.97 41.7414 55.97ZM36.5314 55.97H35.4914C35.0814 55.97 34.7414 55.63 34.7414 55.22C34.7414 54.81 35.0814 54.47 35.4914 54.47H36.5314C36.9414 54.47 37.2814 54.81 37.2814 55.22C37.2814 55.63 36.9414 55.97 36.5314 55.97ZM31.3214 55.97H30.2814C29.8714 55.97 29.5314 55.63 29.5314 55.22C29.5314 54.81 29.8714 54.47 30.2814 54.47H31.3214C31.7314 54.47 32.0714 54.81 32.0714 55.22C32.0714 55.63 31.7314 55.97 31.3214 55.97ZM26.1114 55.97H25.0714C24.6614 55.97 24.3214 55.63 24.3214 55.22C24.3214 54.81 24.6614 54.47 25.0714 54.47H26.1114C26.5214 54.47 26.8614 54.81 26.8614 55.22C26.8614 55.63 26.5214 55.97 26.1114 55.97ZM20.9014 55.97H19.8614C19.4514 55.97 19.1114 55.63 19.1114 55.22C19.1114 54.81 19.4514 54.47 19.8614 54.47H20.9014C21.3114 54.47 21.6514 54.81 21.6514 55.22C21.6514 55.63 21.3114 55.97 20.9014 55.97ZM15.6914 55.97H14.6514C14.2414 55.97 13.9014 55.63 13.9014 55.22C13.9014 54.81 14.2414 54.47 14.6514 54.47H15.6914C16.1014 54.47 16.4414 54.81 16.4414 55.22C16.4414 55.63 16.1014 55.97 15.6914 55.97ZM10.4814 55.97H9.44141C9.03141 55.97 8.69141 55.63 8.69141 55.22C8.69141 54.81 9.03141 54.47 9.44141 54.47H10.4814C10.8914 54.47 11.2314 54.81 11.2314 55.22C11.2314 55.63 10.8914 55.97 10.4814 55.97Z" fill="black"/>
<path d="M5.25 55.97H4.75C4.34 55.97 4 55.63 4 55.22V54.72C4 54.31 4.34 53.97 4.75 53.97C5.09 53.97 5.37 54.19 5.47 54.5C5.78 54.59 6 54.88 6 55.22C6 55.63 5.66 55.97 5.25 55.97Z" fill="black"/>
<path d="M4.75 51.5698C4.34 51.5698 4 51.2298 4 50.8198V49.8398C4 49.4298 4.34 49.0898 4.75 49.0898C5.16 49.0898 5.5 49.4298 5.5 49.8398V50.8198C5.5 51.2298 5.16 51.5698 4.75 51.5698ZM4.75 46.6898C4.34 46.6898 4 46.3498 4 45.9398V44.9598C4 44.5498 4.34 44.2098 4.75 44.2098C5.16 44.2098 5.5 44.5498 5.5 44.9598V45.9398C5.5 46.3498 5.16 46.6898 4.75 46.6898ZM4.75 41.8098C4.34 41.8098 4 41.4698 4 41.0598V40.0798C4 39.6698 4.34 39.3298 4.75 39.3298C5.16 39.3298 5.5 39.6698 5.5 40.0798V41.0598C5.5 41.4698 5.16 41.8098 4.75 41.8098ZM4.75 36.9298C4.34 36.9298 4 36.5898 4 36.1798V35.1998C4 34.7898 4.34 34.4498 4.75 34.4498C5.16 34.4498 5.5 34.7898 5.5 35.1998V36.1798C5.5 36.5898 5.16 36.9298 4.75 36.9298ZM4.75 32.0498C4.34 32.0498 4 31.7098 4 31.2998V30.3198C4 29.9098 4.34 29.5698 4.75 29.5698C5.16 29.5698 5.5 29.9098 5.5 30.3198V31.2998C5.5 31.7098 5.16 32.0498 4.75 32.0498Z" fill="black"/>
<path d="M4.75 27.1699C4.34 27.1699 4 26.8299 4 26.4199V25.9199C4 25.5099 4.34 25.1699 4.75 25.1699H5.25C5.66 25.1699 6 25.5099 6 25.9199C6 26.2599 5.78 26.5399 5.47 26.6399C5.38 26.9499 5.09 27.1699 4.75 27.1699Z" fill="black"/>
<path d="M41.7414 26.6699H40.7014C40.2914 26.6699 39.9514 26.3299 39.9514 25.9199C39.9514 25.5099 40.2914 25.1699 40.7014 25.1699H41.7414C42.1514 25.1699 42.4914 25.5099 42.4914 25.9199C42.4914 26.3299 42.1514 26.6699 41.7414 26.6699ZM36.5314 26.6699H35.4914C35.0814 26.6699 34.7414 26.3299 34.7414 25.9199C34.7414 25.5099 35.0814 25.1699 35.4914 25.1699H36.5314C36.9414 25.1699 37.2814 25.5099 37.2814 25.9199C37.2814 26.3299 36.9414 26.6699 36.5314 26.6699ZM31.3214 26.6699H30.2814C29.8714 26.6699 29.5314 26.3299 29.5314 25.9199C29.5314 25.5099 29.8714 25.1699 30.2814 25.1699H31.3214C31.7314 25.1699 32.0714 25.5099 32.0714 25.9199C32.0714 26.3299 31.7314 26.6699 31.3214 26.6699ZM26.1114 26.6699H25.0714C24.6614 26.6699 24.3214 26.3299 24.3214 25.9199C24.3214 25.5099 24.6614 25.1699 25.0714 25.1699H26.1114C26.5214 25.1699 26.8614 25.5099 26.8614 25.9199C26.8614 26.3299 26.5214 26.6699 26.1114 26.6699ZM20.9014 26.6699H19.8614C19.4514 26.6699 19.1114 26.3299 19.1114 25.9199C19.1114 25.5099 19.4514 25.1699 19.8614 25.1699H20.9014C21.3114 25.1699 21.6514 25.5099 21.6514 25.9199C21.6514 26.3299 21.3114 26.6699 20.9014 26.6699ZM15.6914 26.6699H14.6514C14.2414 26.6699 13.9014 26.3299 13.9014 25.9199C13.9014 25.5099 14.2414 25.1699 14.6514 25.1699H15.6914C16.1014 25.1699 16.4414 25.5099 16.4414 25.9199C16.4414 26.3299 16.1014 26.6699 15.6914 26.6699ZM10.4814 26.6699H9.44141C9.03141 26.6699 8.69141 26.3299 8.69141 25.9199C8.69141 25.5099 9.03141 25.1699 9.44141 25.1699H10.4814C10.8914 25.1699 11.2314 25.5099 11.2314 25.9199C11.2314 26.3299 10.8914 26.6699 10.4814 26.6699Z" fill="black"/>
<path d="M46.4102 27.1699C46.0702 27.1699 45.7902 26.9499 45.6902 26.6399C45.3802 26.5499 45.1602 26.2599 45.1602 25.9199C45.1602 25.5099 45.5002 25.1699 45.9102 25.1699H46.4102C46.8202 25.1699 47.1602 25.5099 47.1602 25.9199V26.4199C47.1602 26.8299 46.8202 27.1699 46.4102 27.1699Z" fill="black"/>
<path d="M46.4102 51.5698C46.0002 51.5698 45.6602 51.2298 45.6602 50.8198V49.8398C45.6602 49.4298 46.0002 49.0898 46.4102 49.0898C46.8202 49.0898 47.1602 49.4298 47.1602 49.8398V50.8198C47.1602 51.2298 46.8202 51.5698 46.4102 51.5698ZM46.4102 46.6898C46.0002 46.6898 45.6602 46.3498 45.6602 45.9398V44.9598C45.6602 44.5498 46.0002 44.2098 46.4102 44.2098C46.8202 44.2098 47.1602 44.5498 47.1602 44.9598V45.9398C47.1602 46.3498 46.8202 46.6898 46.4102 46.6898ZM46.4102 41.8098C46.0002 41.8098 45.6602 41.4698 45.6602 41.0598V40.0798C45.6602 39.6698 46.0002 39.3298 46.4102 39.3298C46.8202 39.3298 47.1602 39.6698 47.1602 40.0798V41.0598C47.1602 41.4698 46.8202 41.8098 46.4102 41.8098ZM46.4102 36.9298C46.0002 36.9298 45.6602 36.5898 45.6602 36.1798V35.1998C45.6602 34.7898 46.0002 34.4498 46.4102 34.4498C46.8202 34.4498 47.1602 34.7898 47.1602 35.1998V36.1798C47.1602 36.5898 46.8202 36.9298 46.4102 36.9298ZM46.4102 32.0498C46.0002 32.0498 45.6602 31.7098 45.6602 31.2998V30.3198C45.6602 29.9098 46.0002 29.5698 46.4102 29.5698C46.8202 29.5698 47.1602 29.9098 47.1602 30.3198V31.2998C47.1602 31.7098 46.8202 32.0498 46.4102 32.0498Z" fill="black"/>
<path d="M55.3902 4.75H14.7402V33.34H55.3902V4.75Z" fill="white" stroke="black" stroke-width="1.5" stroke-linejoin="round"/>
<path d="M15.3398 32.2901L29.9998 15.8601L45.4698 33.5501" stroke="black" stroke-width="1.5" stroke-linejoin="round"/>
<path d="M40.4609 27.89L45.5009 22.75L54.4409 33.03" stroke="black" stroke-width="1.5" stroke-linejoin="round"/>
<path d="M47.8913 14.7901C49.4708 14.7901 50.7513 13.5096 50.7513 11.9301C50.7513 10.3505 49.4708 9.07007 47.8913 9.07007C46.3117 9.07007 45.0312 10.3505 45.0312 11.9301C45.0312 13.5096 46.3117 14.7901 47.8913 14.7901Z" stroke="black" stroke-width="1.5" stroke-linejoin="round"/>
<path d="M25.5791 50.7001C29.6052 50.7001 32.8691 47.4363 32.8691 43.4101C32.8691 39.384 29.6052 36.1201 25.5791 36.1201C21.5529 36.1201 18.2891 39.384 18.2891 43.4101C18.2891 47.4363 21.5529 50.7001 25.5791 50.7001Z" fill="#F9724F"/>
<path d="M22.1289 43.4102H29.0289" stroke="white" stroke-width="1.5" stroke-linejoin="round"/>
<path d="M25.5781 46.8602V39.9602" stroke="white" stroke-width="1.5" stroke-linejoin="round"/>
</g>
<defs>
<clipPath id="clip0_74_270">
<rect width="52.14" height="51.97" fill="white" transform="translate(4 4)"/>
</clipPath>
</defs>
</svg>
