<?xml version="1.0" encoding="UTF-8"?>
<svg id="_레이어_2" data-name="레이어 2" xmlns="http://www.w3.org/2000/svg" viewBox="0 0 1200 483.74">
  <defs>
    <style>
      .cls-1 {
        fill: #111;
      }
    </style>
  </defs>
  <g id="_레이어_1-2" data-name="레이어 1">
    <g>
      <path class="cls-1" d="M454.61,398.25c-2.42.64-4.88.96-7.38.96-3.61,0-6.12-1.21-7.49-3.62-1.38-2.41-1.31-5.77.22-10.07l11.29-31.78c.82-2.3,2.99-3.83,5.43-3.83h20.78c2.44.02,4.61-1.52,5.43-3.81l11.04-31.08c1.33-3.74-1.45-7.68-5.42-7.68h-12.62c-3.97-.01-6.75-3.95-5.42-7.69l8.57-24.14c1.33-3.74-1.45-7.68-5.42-7.68h-.44c.54-6.93.77-13.92.62-20.96,1.52-158.24-157.17-274.45-307.56-226.12,4.86,2.85,9.64,5.85,14.35,8.97C320.63-7.9,462.68,101.64,461.23,246.86c.07,7.02-.24,14.01-.87,20.96l-32.88-.02c-2.44,0-4.61,1.53-5.43,3.83l-11.3,31.82c-.82,2.3-2.99,3.83-5.43,3.83h-11.23c-2.44,0-4.61,1.52-5.43,3.82l-11.04,31.08c-1.33,3.74,1.45,7.68,5.42,7.68h3.07c3.97,0,6.75,3.94,5.42,7.68l-10.1,28.46c-5.14,14.48-6.24,26.22-3.29,35.21-9.84,8-20.39,15.17-31.57,21.36-3.49,2.02-7.09,3.79-10.65,5.66,15.42-41.88,6.52-88.77-19.96-123.71-12.97-17.26-32.79-32.88-33.86-56,29.13,2.29,59.76-5.53,79.51-28.12,4.5-5.15,8.23-10.98,11.43-17.04,1.65-3.09,2.77-6.75-.41-9.45-20.45-17.18-20.54-46.84-37.04-66.78-24.29-32.15-72.03-40.23-107.96-23.9-14.78-14.31-29.91-28.18-47.37-39.09-28.44-17.2-59.11-31.04-91.15-39.98-16.05-4.26-32.81-6.24-49.38-4.49-9.69.85-14.5,4.33-8.5,13.7,14.95,27.46,41.49,46.85,71.09,55.96,34.4,11.66,72.48,12.27,105.83,27.22-23.78,26.52-22.75,65.75-10.37,97.04,5.72,15.86,14.62,30,21.25,45.33,9.29,21.14,15.46,43.26,13.88,66.98-3.47,47-34.77,91.87-78.64,109.57-2.63-1.09-5.25-2.2-7.88-3.31,20.3-23.94,11.59-62.94-22.26-65.77-16.79-1.13-32.44,13-34.62,29.49C-2.44,336.31-13.42,193.39,65.9,101.83c-2.66-1.68-5.19-3.4-7.7-5.26-.88-.65-1.73-1.35-2.56-2.05-129.05,152.99-19.16,389.44,181.3,389.18,54.59,1.13,106.39-18.86,147.55-52.09,7.67,7.8,20.42,11.72,38.3,11.73,13.54,0,25.24-1.98,35.11-5.96,2.12-.85,3.45-2.98,3.48-5.26l.31-28c.04-3.76-3.44-6.84-7.07-5.87Z"/>
      <path class="cls-1" d="M526.39,310.59l44.43.03c2.73,0,5.17-1.7,6.12-4.26l10.44-29.75c1.58-4.26-1.57-8.78-6.11-8.79l-44.43-.03c-2.73,0-5.17,1.7-6.12,4.26l-10.44,29.75c-1.58,4.26,1.57,8.78,6.11,8.79Z"/>
      <path class="cls-1" d="M562.09,326.19l-44.68-.03c-2.86,0-5.38,1.86-6.23,4.59l-35.23,101.59c-1.3,4.2,1.83,8.46,6.22,8.46l44.68.03c2.86,0,5.38-1.86,6.23-4.59l35.23-101.59c1.3-4.2-1.83-8.46-6.22-8.46Z"/>
      <path class="cls-1" d="M710.09,398.42l-27.57-16.43c-2.41-1.44-5.45-.86-7.33,1.22-8.95,9.91-18.27,14.86-27.97,14.85-6.88,0-11.75-2.42-14.6-7.24-2.85-4.82-2.69-11.7.49-20.65,3.12-8.78,7.81-15.57,14.08-20.38,6.27-4.81,12.85-7.22,19.73-7.21,8.68,0,14.23,3.98,16.68,11.91,1.04,3.38,4.55,5.31,7.81,3.95l42.77-17.87c2.23-.93,3.76-3.19,3.56-5.6-.91-11.16-5.65-20.06-14.23-26.68-9.59-7.4-22.99-11.12-40.2-11.13-16-.01-31.43,3.08-46.28,9.26-14.85,6.19-27.82,14.82-38.9,25.92-11.08,11.09-19.13,23.7-24.14,37.8-5.01,14.11-5.93,26.76-2.76,37.95,3.17,11.19,9.98,19.89,20.43,26.09,10.45,6.2,23.68,9.31,39.68,9.32,17.21.01,33.23-3.67,48.08-11.07,12.84-6.39,23.6-14.91,32.29-25.55,2.18-2.67,1.32-6.69-1.63-8.45Z"/>
      <path class="cls-1" d="M1058.12,370.48c5.44-15.31,6.63-28.48,3.57-39.5-3.06-11.01-9.48-19.37-19.25-25.05-9.77-5.69-21.8-8.53-36.08-8.55-15.15-.01-29.88,3.08-44.21,9.26-14.33,6.19-26.95,14.82-37.86,25.92-10.91,11.09-18.87,23.7-23.88,37.8-4.95,13.94-5.88,26.5-2.8,37.69,3.08,11.19,9.96,19.93,20.64,26.22,10.68,6.29,24.53,9.44,41.57,9.45,25.34.02,47.15-6.46,65.45-19.44,2.47-1.75,3.05-5.22,1.42-7.77l-13.68-21.5c-1.62-2.54-4.94-3.5-7.59-2.06-4.46,2.42-8.47,4.2-12.05,5.36-4.77,1.55-10.25,2.32-16.44,2.31-7.23,0-12.75-1.43-16.56-4.27-3.81-2.84-5.8-6.93-5.97-12.27l94.25.07c2.33,0,4.43-1.41,5.33-3.56,2.5-6.01,3.89-9.38,4.14-10.11ZM1003.22,355.99l-28.29-.02c-5.28,0-7.71-6.47-3.85-10.08,1.55-1.45,3.21-2.73,4.97-3.86,5.12-3.26,10.69-4.9,16.71-4.89,6.02,0,10.42,1.69,13.19,5.04,1.73,2.11,2.75,4.7,3.06,7.79.32,3.26-2.5,6.02-5.78,6.02Z"/>
      <path class="cls-1" d="M853.75,365.16c-1.05-2.43-.31-5.25,1.79-6.86l62.97-48.08c4.37-3.34,2.02-10.33-3.49-10.33l-50.01-.04c-1.24,0-2.45.4-3.44,1.14l-38.37,28.56c-4.56,3.4-10.76-1.18-8.86-6.54l20.95-47.5c1.33-3.74-1.45-7.68-5.42-7.68l-46.13-.03c-2.44,0-4.61,1.53-5.43,3.83l-61.49,161.67c-1.33,3.74,1.45,7.68,5.42,7.68l46.13.03c2.44,0,4.61-1.53,5.43-3.83l9.9-27.88c.37-1.03,1.02-1.93,1.88-2.61l5.7-4.46c2.96-2.32,7.31-1.21,8.82,2.23l14.46,33.13c.91,2.1,2.98,3.45,5.27,3.45l57.95.04c4.14,0,6.93-4.24,5.29-8.04l-29.32-67.88Z"/>
      <path class="cls-1" d="M1193.63,297.93c-16.39,1.51-30.75,7.3-43.11,17.38l2.68-7.55c1.33-3.74-1.45-7.68-5.42-7.68l-43.29-.03c-2.44,0-4.61,1.53-5.43,3.83l-46.04,129.67c-1.33,3.74,1.45,7.68,5.42,7.68l46.13.03c2.44,0,4.61-1.53,5.43-3.83l20.91-58.88c7.21-20.3,20.79-30.45,40.76-30.43,2.63,0,5.37.16,8.2.46,2.6.28,5.03-1.35,5.9-3.81l13.9-39.13c1.41-3.98-1.82-8.09-6.03-7.7Z"/>
      <path class="cls-1" d="M86.65,34.98c27.97,6.99,50.03,16.43,78.97,31.18,25.25,12.81,44.06,28.18,63.59,47.03,1.7-.62,3.48-1.19,5.32-1.72,4.95-1.56,10.96-2.91,16.6-3.59-7.26-10.79-15.96-20.74-25.07-29.97-28.92-29.34-62.7-52.19-100.38-68.11C111.39,3.84,96.72.37,81.22.02c-3.13-.07-7.52-.12-9.31,2.97-1.34,2.32.18,6.27,1.1,8.97,1.5,4.37,7.57,16.17,13.63,23.02Z"/>
    </g>
  </g>
</svg>