<svg id="レイヤー_1" data-name="レイヤー 1" xmlns="http://www.w3.org/2000/svg" width="650" height="650" viewBox="0 0 650 650">
  <defs>
    <style>
      .cls-1 {
        fill: #fff;
      }
    </style>
  </defs>
  <title>main_title_sp</title>
  <g>
    <path class="cls-1" d="M102.28,368.24l34.33-86.5h20.52l34.4,86.5h-20.6l-6.79-17.3H129.81l-7,17.3Zm34.33-34.54h20.52l-10.19-28.35Z"/>
    <path class="cls-1" d="M199,340.25V309.66a24.27,24.27,0,0,1,2.75-11.23,29.49,29.49,0,0,1,7.37-9.2,35.85,35.85,0,0,1,11-6.13,38.92,38.92,0,0,1,13.26-2.27q14.31,0,24.32,8.4t10,20.43H247.1a10.24,10.24,0,0,0-4-8.22,14.75,14.75,0,0,0-9.72-3.31,14.28,14.28,0,0,0-9.79,3.52,10.47,10.47,0,0,0-4,8v30.59a10.37,10.37,0,0,0,4.08,8.17,15.78,15.78,0,0,0,19.33.24,11.26,11.26,0,0,0,4.12-8.41h20.6A24.2,24.2,0,0,1,265,351.39a29.39,29.39,0,0,1-7.3,9.2,35.34,35.34,0,0,1-10.95,6.19,38.82,38.82,0,0,1-13.37,2.31,38.36,38.36,0,0,1-17.16-3.89,32.17,32.17,0,0,1-12.54-10.53A24.73,24.73,0,0,1,199,340.25Z"/>
    <path class="cls-1" d="M277.74,299V281.74h68.65V299h-24v69.26H301.66V299Z"/>
    <path class="cls-1" d="M361.57,368.24v-86.5h20.59v86.5Z"/>
    <path class="cls-1" d="M398,340.25V309.66a24.27,24.27,0,0,1,2.75-11.23,29.49,29.49,0,0,1,7.37-9.2,35.81,35.81,0,0,1,10.95-6.13,38.92,38.92,0,0,1,13.26-2.27q14.31,0,24.32,8.4t10,20.43v30.59a24.24,24.24,0,0,1-2.71,11.14,29.39,29.39,0,0,1-7.3,9.2,35.34,35.34,0,0,1-10.95,6.19,38.82,38.82,0,0,1-13.37,2.31,38.36,38.36,0,0,1-17.16-3.89,32.17,32.17,0,0,1-12.54-10.53A24.78,24.78,0,0,1,398,340.25Zm20.53,0a10.37,10.37,0,0,0,4.08,8.17,15.43,15.43,0,0,0,19.4,0,10.38,10.38,0,0,0,4.05-8.17V309.66A10.25,10.25,0,0,0,442,301.5a14.59,14.59,0,0,0-9.68-3.37,14.76,14.76,0,0,0-9.72,3.37,10.2,10.2,0,0,0-4.08,8.16Z"/>
    <path class="cls-1" d="M479.43,368.24v-86.5H500l27.54,51.41V281.74h20.59v86.5H527.56L500,316.76v51.48Z"/>
  </g>
  <g>
    <path class="cls-1" d="M123.67,413.48c.63.07,1.19.21,1.19,1,0,1-.7,1.19-1.26,1.33-.56,5.11-.7,7.7-.77,9.31a78.21,78.21,0,0,0,22-3.5,77.71,77.71,0,0,0-.7,12c-6.65,1.75-17.22,2.59-21.56,2.66.07,2.73.28,10.29,1,13.44,6.79.91,20.72,8.27,25.34,11.63a67.4,67.4,0,0,0-7.42,9.73c-1.61-1.26-10.43-7.91-16.94-10.08a11.22,11.22,0,0,1-2.8,8.54c-3.78,4.13-10.92,4.34-13.09,4.34-8.82,0-20.45-3.57-20.45-13.37,0-10.37,14-12.82,22-12.82a12,12,0,0,1,1.89.14c-.56-10.15-.56-10.78-.56-25.27a60,60,0,0,0-1-11.27Zm-15.61,43.83c-3.71,0-7.84,1.12-7.84,3.71,0,3.22,5.53,3.29,6.09,3.29,6.65,0,6.65-2.59,6.65-6.37A14.78,14.78,0,0,0,108.06,457.31Z"/>
    <path class="cls-1" d="M177.08,414.46c1.26.28,2,.49,2,1.26s-1.19,1.12-1.68,1.19a53.48,53.48,0,0,0-3.08,17.85A26.63,26.63,0,0,0,175,441c.56-1.12.77-1.68,1.61-3.71a16,16,0,0,1,2.17-4,50.56,50.56,0,0,0,7,5.81c-1.12,1.82-5.74,9.38-7.21,17.72l-10,1.19a70.14,70.14,0,0,1-5-26c0-5.6.62-9.87,2.31-17.29a25.14,25.14,0,0,0,.48-2.73Zm32-2.59c.7,0,1.61.07,1.61,1s-.63.91-1.12,1c.07,2.45,1,13.09,1.12,15.26.21,2.52.35,5.46.35,8.19,0,8.82-.7,26.82-21.07,38.51-4.27-5.67-7.56-7.35-9.1-8.19,16.8-8.12,18.41-20.24,18.41-30.53,0-8.61-.42-17.29-2.66-25.62Z"/>
    <path class="cls-1" d="M227.19,466.69c4.06-.84,5.32-1.12,6.44-1.47v-47.4h17.72v-7.28l11.34.42c.84,0,1.89.07,1.89,1.05,0,.77-.91,1.12-1.89,1.47v4.34h17.08v27.79l4.69,3.64a1.22,1.22,0,0,1,.56,1c0,.55-.28.9-.77.9a4.61,4.61,0,0,1-1.05,0,68.13,68.13,0,0,1-9.52,9c4.9,3,10.43,5.81,16.94,6.51a32.57,32.57,0,0,0-7,8.75c-9.24-3.08-18.9-8.33-25.48-15.68-.49,2-.63,3.64-.56,7.84-5.6,2.17-16.8,5.25-25.28,7.56-.28.84-.63,1.54-1.33,1.54-.91,0-1.19-1.05-1.4-1.68ZM244.42,429h25.06v-3.08H244.42Zm25.06,7.07H244.42v3.08h25.06Zm-25.06,26.19c3.92-1.12,11.69-3.43,12.67-3.71A50.21,50.21,0,0,1,250,447.43h-5.6ZM261,447.43a34.07,34.07,0,0,0,5,6.59,57.69,57.69,0,0,0,6.3-6.59Z"/>
    <path class="cls-1" d="M311.41,418.17c.63.21,1.4.42,1.4,1.05,0,.91-.84,1-1.47,1.12a62.66,62.66,0,0,0-3.92,21.07c0,8.54,2.66,14.5,4.69,14.5,2.24,0,4.9-6.17,6.79-10.58a32.19,32.19,0,0,0,7.35,7.43c-5.6,13.58-12,18.34-15.4,18.34-3.92,0-14.29-8.33-14.29-30,0-9,1.54-17.15,3.43-26.18Zm33.81.49c7.7,10.36,12.95,22.26,14.14,35.22-4.13,1.61-9.1,4-11.41,5.18-.84-14.85-5.18-25.07-11.76-34.66Z"/>
    <path class="cls-1" d="M405.21,431.4V411.45l11.41.49a.79.79,0,0,1,.84.7c0,.63-.7.91-1.4,1.12V431.4h11.27v10.15H416.06v23h13.3v9.66H389v-9.66h16.24v-23H393.66v-8.61c-2.24,4.2-2.94,5.74-5.25,8.68a60.84,60.84,0,0,0,9.8,8.54,31.07,31.07,0,0,0-6.44,7.64,39.49,39.49,0,0,1-7.28-6.44v24.22H374.12V457c-2.94,2.38-4,3.22-5.67,4.41a20.21,20.21,0,0,0-6.3-8.68c7.42-4.28,16.25-12.82,18.7-18.49H365.44v-9.73h8.68v-13l10.37.28c.42,0,1.12.14,1.12.91,0,.35-.28.7-1.12,1.26v10.57h6.72l4.48,4.34c-.21.42-1.12,2.24-1.26,2.59Z"/>
    <path class="cls-1" d="M484.73,441.34H449.31V435.6a64.76,64.76,0,0,1-8.48,4.48,38.76,38.76,0,0,0-7.77-8.4c10.65-3.08,24.51-14.07,28.36-21.77l12.46,1.54c.42.07.91.28.91.91s-.91,1.12-1.4,1.26c8.89,9.59,19.46,14.28,27.86,16.87-3.71,2.24-6.79,8.4-6.93,8.75a61.85,61.85,0,0,1-9.59-4.55ZM438,463.68c2-.07,4.76-.14,10.93-.35a82.43,82.43,0,0,0,4.41-10.22h-15v-9.25h57.55v9.25H481.44A85.31,85.31,0,0,1,496,468.86a40.89,40.89,0,0,0-8.12,7.42,77,77,0,0,0-4.9-7c-8.05,1.33-23.59,3.43-40.4,4.48-.56,1.26-.84,2-1.61,2-.56,0-.84-.63-.91-1.12Zm42.5-31.58a92.06,92.06,0,0,1-13.79-11.27,120.93,120.93,0,0,1-12.46,11.27Zm-4.48,21h-9.1c0,.63-.21,1-1.68,1.33-1.26,2.8-2.8,5.46-4.34,8.19,7.07-.56,11.27-1.05,14.7-1.47-2-1.75-3.08-2.73-4.41-3.85Z"/>
    <path class="cls-1" d="M523.09,416.63c1.33.49,1.89.7,1.89,1.19s-1.4.77-1.89.84c-2.1,6.23-4.55,14.21-4.55,28.91a24.47,24.47,0,0,0,.49,5.6c.42-.77,2.1-3.85,2.94-5.25a20.52,20.52,0,0,0,5.39,5.75c-1.75,3.29-5,11.41-4.62,16.73l-10,2.66a73.82,73.82,0,0,1-5-28c0-12.67,2-21.35,4.48-32.48Zm18.48,32.9a19,19,0,0,0-1.05,5c0,3.08,1.68,3.57,9.73,3.57a71.33,71.33,0,0,0,17.29-1.89,46.53,46.53,0,0,0-1,11.41,147.54,147.54,0,0,1-17.71.91c-10.43,0-18.48-1.82-18.48-10.36a26,26,0,0,1,2.31-10.3Zm-8.47-29.89c2.1.14,4.9.35,9.1.35a81.48,81.48,0,0,0,20.58-2.24,105.46,105.46,0,0,0,1,10.64,104,104,0,0,1-21.56,2.1c-4.13,0-6.86-.21-9.1-.35Z"/>
    <path class="cls-1" d="M124.44,494c1.12.14,1.75.21,1.75.77,0,.77-.84,1.05-1.4,1.19-.14,1.26-.21,2.1-.35,4.9,19.74-.84,21.91-.91,23.24-1-.07,1.47-.21,8.4.07,11.27-12.67-.63-18-.63-23.1-.56a57.57,57.57,0,0,0,.07,7.77c4.06,5,4.06,12.46,4.06,13.44,0,9.94-6.51,21.57-16.24,27a47.08,47.08,0,0,0-10.22-7.21c2.1-.84,10.36-4.34,12.88-10.08-.7.56-2.1,1.68-5.53,1.68-1.12,0-5.11,0-7.56-3.16s-3-7.77-3-10.36c0-15.4,13.16-14.91,14.63-14.7.07-2.24.07-2.87.07-3.92a190.41,190.41,0,0,0-27.94,3.64l-.77-11.83c1.61.07,4.27-.07,28.43-1.47a73.72,73.72,0,0,0-1-8.89Zm-16.17,35c0,4.62,2.31,5.88,3.57,5.88,2.17,0,3.43-3.22,3.43-6.72,0-1.61-.35-4.34-3.15-4.34C109.81,523.86,108.27,526.17,108.27,529Z"/>
    <path class="cls-1" d="M204.8,501.18c-4.76,3.15-15.61,14-17.15,15.61a38.28,38.28,0,0,1,8.4-1c9.52,0,19.32,6,19.32,18.41,0,15.41-14.63,22.13-26.74,22.13-9,0-17.78-3.57-17.78-12,0-6.94,6.44-11.21,13.72-11.21,6.58,0,13.44,3.71,15.05,10.3,4.62-2.31,4.62-7.71,4.62-8.27,0-1.68-.56-10.22-11.41-10.22-11.83,0-18.55,6.93-28.29,17.09l-8.4-8.2c8.05-5.6,23.67-21,28.36-27.23-2.24.49-4.62,1.05-18.62,2.45l-1.69-11c2.74.07,23,.28,35-4.41Zm-21.07,40.61c-2.38,0-2.94,1.33-2.94,2.52,0,2.66,3.92,3.71,6.3,3.71a11.86,11.86,0,0,0,3.5-.56,6.86,6.86,0,0,0-6.86-5.67Z"/>
    <path class="cls-1" d="M258.14,495.65c.63.14,1.4.42,1.4,1.12s-1,.91-1.54.91c-.28,1.12-1.47,6.09-1.75,7.07a44.51,44.51,0,0,0,11.62-3.43l1.19,11c-2.17.7-6.16,1.89-15.82,3.29-2.8,8.82-7.7,24.09-18.34,41a74.78,74.78,0,0,0-10.58-5.32c5.88-7.35,13.24-20.8,17.3-34-4.27.35-5.11.35-12.82.42l-.91-11.48c2.1.14,4.55.28,8.13.28,3.15,0,5.25-.07,8.33-.28,1-5.25,1.47-9.8,1.89-13.23Zm5.25,42.14c-1.75,2.24-1.89,3.57-1.89,4.14a1.89,1.89,0,0,0,1.26,1.82c1.47.84,5.53,1.19,9.38,1.19a50.57,50.57,0,0,0,15.4-2.31,30.29,30.29,0,0,0-.49,5.46,51.42,51.42,0,0,0,.42,5.81A84.51,84.51,0,0,1,273,555.09c-9.17,0-21.35-1.33-21.35-11.27,0-2.73.63-5,2.73-9.18ZM260.1,518a89.13,89.13,0,0,1,15.47-1.26,50,50,0,0,1,10.29.77c-.42,5.18-.49,6.3-.56,11a40.41,40.41,0,0,0-10.5-1.26,129.16,129.16,0,0,0-14.7,1.26Z"/>
    <path class="cls-1" d="M312.6,497.54A60.73,60.73,0,0,0,314.21,509a33.43,33.43,0,0,1,12.6-4.06c.91-6.58,1.05-7.7,1.05-12l11.83,2.73c.84.21,1.33.49,1.33,1.05,0,1-1.12.91-1.47.91-.07.35-1.33,6.3-1.54,7.35,11.34,1.61,20.16,10.15,20.16,23.52,0,20-18.76,25.91-26.88,27.17a32.83,32.83,0,0,0-6.16-9.17,32.27,32.27,0,0,0,13-3.85c5.88-3.23,9.1-7.29,9.1-14.5,0-11.2-8.61-12.81-11.55-13.3a67.32,67.32,0,0,1-9,20.65c.77,1,1.33,1.75,3.22,3.92a53.14,53.14,0,0,0-8.89,8.06,27.64,27.64,0,0,1-2-3.08c-6.58,6-10.71,6.37-13.09,6.37-6.17,0-10.44-4.48-10.44-12,0-2.66.56-13,9.95-22.89a136.83,136.83,0,0,1-4.21-14.7ZM309.31,526c-2.24,3.29-4.06,7.77-4.06,11.48,0,.49,0,2.45,2,2.45s4.69-2.8,6.44-4.62C311.13,530.23,309.87,527.43,309.31,526Zm7.91-7.56a62.4,62.4,0,0,0,3.36,7.35,41.69,41.69,0,0,0,4.2-10.64,26.74,26.74,0,0,0-7.56,3.32Z"/>
    <path class="cls-1" d="M397.93,545c15.19-2.8,19.67-14.57,19.67-21.85,0-5.67-3-16.1-16.17-17.15-2.17,25.62-12.74,44.74-20.16,44.74-5.46,0-15.62-9.24-15.62-22.2,0-15,13.73-32.62,34.31-32.62,15.33,0,28.7,10.43,28.7,27.16,0,3.22-.28,12.18-8.26,21.64-4.27,5-9.24,7.56-15.19,10.15A45.7,45.7,0,0,0,397.93,545ZM376,527.71c0,5.39,3,9.45,4.48,9.45,1.68,0,3-3.15,3.78-5a61.21,61.21,0,0,0,5.39-24.08C381.55,511.12,376,521.41,376,527.71Z"/>
    <path class="cls-1" d="M437.89,511.05c4.27,1.61,10.72,6.58,11.77,7.42a63.94,63.94,0,0,0-5.68,7.7,44,44,0,0,0-10.85-7.7Zm-3.78,41.1c4.2-5.6,8.75-15.76,10.51-22a20,20,0,0,0,8.19,5.53c-2.66,7.22-3.22,8.41-8.27,19.12a2.85,2.85,0,0,1,.71,1.61.94.94,0,0,1-.88,1h0a4.14,4.14,0,0,1-1.75-.49Zm7.77-59.65a72.1,72.1,0,0,1,11.35,6.5,58.1,58.1,0,0,0-5.53,8.12,76.85,76.85,0,0,0-11.28-7.35Zm39.21,18.55H498.8v8.89H481.09V527H496v29.7h-9.87V554h-19.6v2.73h-9.94V527h14.77v-7.07H452.81V511h18.55v-5.88a103.78,103.78,0,0,1-13.3.91,28.85,28.85,0,0,0-3.43-8.82c16.24.21,22.54-1,34.09-4.55l6.16,6.44a1.84,1.84,0,0,1,.63,1.19c0,.7-.56,1-1.26,1a3.58,3.58,0,0,1-1.54-.35,64.51,64.51,0,0,1-11.62,2.8Zm5,34.59v-9.95h-19.6v9.95Z"/>
    <path class="cls-1" d="M546.82,507.27V493l9.59.49c1.12.07,1.75.35,1.75,1.19,0,.63-.77,1.12-1.75,1.47v11.13H568c0,21.42,0,41-5.32,46.35-3.22,3.22-8.82,3.22-11.13,3.08a33,33,0,0,0-3.71-8.61A52.65,52.65,0,0,1,541.4,558a40.86,40.86,0,0,0-8.12-4.83c.21-.28.91-1.12,1.4-1.82-16,2.24-22.9,2.45-25.56,2.52-.35.63-.77,1.61-1.54,1.61s-1.12-.77-1.26-1.61l-1.12-8.05c2.59.14,6,0,13.73-.42v-3.08H506.28V535.9h12.61v-2H506.7V512.8h12.19v-2H505.16v-7h13.73v-1.75c-3.64.21-5.82.35-9,.28a15.81,15.81,0,0,0-3.15-6.93,44.08,44.08,0,0,0,5.39.21c12.75,0,20-2.17,21.78-2.94l4.2,6a1.6,1.6,0,0,1,.35.91c0,.35-.14.84-.7.84a3.31,3.31,0,0,1-1.75-.77c-3.5.77-5.67,1.19-8.26,1.54v2.59h14.56v3.43ZM518.89,521v-2.66H515V521ZM515,525.68v2.66h3.85v-2.66Zm26-14.84H527.71v2h12.18v21.07H527.71v2h12v6.38h-12v2.45c3.85-.28,7.84-.63,10.92-1.12-.28.91-.42,1.54-.77,2.87,2-3.29,7.35-12.19,8.68-28.78h-5.46ZM531.56,521v-2.66h-3.85V521Zm-3.85,4.69v2.66h3.85v-2.66Zm28-8c-1.26,15.33-4.13,22.41-7.21,29.06a19.42,19.42,0,0,0,4.41.84c1.68,0,2.45-.63,3.15-3.22,2.1-7.29,2.45-19,2.24-26.68Z"/>
  </g>
  <g>
    <path class="cls-1" d="M64.77,1H89.58a19.62,19.62,0,0,1,9.11,2.23,23.68,23.68,0,0,1,7.45,6,29,29,0,0,1,5,8.88A31.51,31.51,0,0,1,113,28.83q0,11.61-6.82,19.72T89.58,56.66H64.77a19.69,19.69,0,0,1-9-2.19,24,24,0,0,1-7.45-5.92,28.61,28.61,0,0,1-5-8.88A31.47,31.47,0,0,1,41.4,28.83a31.1,31.1,0,0,1,3.15-13.91A26.05,26.05,0,0,1,53.09,4.75,20,20,0,0,1,64.77,1Zm0,16.64A8.41,8.41,0,0,0,58.15,21a11.89,11.89,0,0,0-2.78,7.88,11.74,11.74,0,0,0,2.78,7.85A8.44,8.44,0,0,0,64.77,40H89.58a8.32,8.32,0,0,0,6.62-3.28,11.86,11.86,0,0,0,2.73-7.85A12,12,0,0,0,96.2,21a8.3,8.3,0,0,0-6.62-3.31Z"/>
    <path class="cls-1" d="M64.77,67h47.45V83.73H64.77A8.44,8.44,0,0,0,58.15,87a11.9,11.9,0,0,0-2.78,7.89,11.78,11.78,0,0,0,2.78,7.85,8.47,8.47,0,0,0,6.62,3.28h47.45v16.7H64.77a19.58,19.58,0,0,1-9-2.2,23.86,23.86,0,0,1-7.45-5.92,28.67,28.67,0,0,1-5-8.87A31.52,31.52,0,0,1,41.4,94.93,31.17,31.17,0,0,1,44.55,81a26.29,26.29,0,0,1,8.54-10.2A19.9,19.9,0,0,1,64.77,67Z"/>
    <path class="cls-1" d="M42.08,134.83h70.14v27.89a29.64,29.64,0,0,1-6.82,19.72q-6.81,8.12-16.56,8.11-11.22,0-18.65-11.07L42.08,190.55v-16.7l23.38-9.37V151.53H42.08Zm37.41,16.7v11.19a11.78,11.78,0,0,0,2.76,7.88,8.35,8.35,0,0,0,6.59,3.25,8.44,8.44,0,0,0,6.62-3.25,11.7,11.7,0,0,0,2.78-7.88V151.53Z"/>
  </g>
</svg>
