<svg xmlns="http://www.w3.org/2000/svg" viewBox="0 0 75 198.65"><defs><style>.cls-1{fill:#fff}</style></defs><title>main_title_our</title><g id="レイヤー_2" data-name="レイヤー 2"><path class="cls-1" d="M24.5 0h26A20.68 20.68 0 0 1 60 2.33a25 25 0 0 1 7.86 6.27 30.62 30.62 0 0 1 5.21 9.3A33 33 0 0 1 75 29.17q0 12.15-7.14 20.66T50.5 58.34h-26A20.46 20.46 0 0 1 15 56a25 25 0 0 1-7.82-6.2A30.24 30.24 0 0 1 2 40.53a33 33 0 0 1-2-11.36 32.7 32.7 0 0 1 3.3-14.59 27.33 27.33 0 0 1 9-10.65A21 21 0 0 1 24.5 0zm0 17.44a8.83 8.83 0 0 0-6.94 3.47 12.44 12.44 0 0 0-2.91 8.26 12.34 12.34 0 0 0 2.91 8.23 8.85 8.85 0 0 0 6.94 3.44h26a8.75 8.75 0 0 0 6.94-3.44 12.51 12.51 0 0 0 2.86-8.23 12.61 12.61 0 0 0-2.86-8.26 8.73 8.73 0 0 0-6.94-3.47zm0 51.77h49.73v17.5H24.5a8.8 8.8 0 0 0-6.94 3.47 13.12 13.12 0 0 0 0 16.48 8.82 8.82 0 0 0 6.94 3.44h49.73v17.5H24.5a20.45 20.45 0 0 1-9.5-2.3 25 25 0 0 1-7.82-6.2A30.24 30.24 0 0 1 2 109.8a33 33 0 0 1-2-11.36 32.64 32.64 0 0 1 3.3-14.59 27.57 27.57 0 0 1 9-10.68 20.92 20.92 0 0 1 12.2-3.96zM.72 140.25h73.51v29.23q0 12.17-7.15 20.67t-17.36 8.5q-11.76 0-19.54-11.6L.72 198.65v-17.5l24.5-9.82v-13.58H.72zm39.2 17.5v11.73a12.36 12.36 0 0 0 2.89 8.26 8.74 8.74 0 0 0 13.85 0 12.28 12.28 0 0 0 2.92-8.26v-11.73z" id="レイヤー_1-2" data-name="レイヤー 1"/></g></svg>