<svg id="レイヤー_1" data-name="レイヤー 1" xmlns="http://www.w3.org/2000/svg" width="960" height="480" viewBox="0 0 960 480">
  <defs>
    <style>
      .cls-1 {
        fill: #fff;
      }
    </style>
  </defs>
  <title>main_title_pc</title>
  <g>
    <path class="cls-1" d="M67.26,294.39c.58.07,1.09.2,1.09.9,0,.9-.64,1.1-1.16,1.23-.51,4.69-.64,7.07-.7,8.55a71.92,71.92,0,0,0,20.18-3.22A70.76,70.76,0,0,0,86,312.91c-6.11,1.61-15.82,2.38-19.8,2.44.06,2.51.26,9.45,1,12.34,6.24.84,19,7.59,23.27,10.68a61.91,61.91,0,0,0-6.81,8.93c-1.48-1.16-9.58-7.26-15.56-9.26a10.25,10.25,0,0,1-2.57,7.85c-3.47,3.79-10,4-12,4-8.1,0-18.77-3.28-18.77-12.28,0-9.51,12.86-11.76,20.18-11.76a10.56,10.56,0,0,1,1.74.13c-.51-9.32-.51-9.9-.51-23.21a55.59,55.59,0,0,0-1-10.35ZM52.92,334.64c-3.41,0-7.2,1-7.2,3.4,0,3,5.08,3,5.59,3,6.11,0,6.11-2.38,6.11-5.85A13.32,13.32,0,0,0,52.92,334.64Z"/>
    <path class="cls-1" d="M116.31,295.29c1.15.26,1.8.45,1.8,1.16s-1.1,1-1.55,1.09a49.27,49.27,0,0,0-2.83,16.4,24.45,24.45,0,0,0,.58,5.72c.52-1,.71-1.54,1.48-3.41a14.63,14.63,0,0,1,2-3.66,46.22,46.22,0,0,0,6.42,5.33c-1,1.67-5.27,8.62-6.62,16.27l-9.19,1.09a64.59,64.59,0,0,1-4.56-23.85c0-5.14.57-9.06,2.12-15.88.32-1.41.32-1.73.45-2.51Zm29.38-2.37c.64,0,1.47.06,1.47.9s-.57.83-1,1c.06,2.25.89,12,1,14,.2,2.32.32,5,.32,7.53,0,8.1-.64,24.62-19.34,35.35-3.93-5.2-6.95-6.75-8.36-7.52,15.43-7.46,16.91-18.58,16.91-28,0-7.9-.39-15.88-2.45-23.53Z"/>
    <path class="cls-1" d="M162.33,343.25c3.73-.77,4.89-1,5.92-1.35V298.38h16.26v-6.69l10.42.39c.77,0,1.73.06,1.73,1,0,.71-.83,1-1.73,1.35v4h15.68V323.9l4.31,3.34a1.12,1.12,0,0,1,.51.9c0,.52-.25.84-.7.84a5.19,5.19,0,0,1-1,0,61.69,61.69,0,0,1-8.74,8.29c4.5,2.77,9.58,5.34,15.56,6a30.07,30.07,0,0,0-6.43,8c-8.49-2.83-17.36-7.65-23.4-14.4a25.41,25.41,0,0,0-.52,7.2c-5.14,2-15.42,4.82-23.2,6.94-.26.77-.58,1.41-1.22,1.41-.84,0-1.1-1-1.29-1.54Zm15.82-34.58h23v-2.83h-23Zm23,6.49h-23V318h23Zm-23,24c3.6-1,10.73-3.15,11.63-3.41a46.38,46.38,0,0,1-6.49-10.22h-5.14Zm15.23-13.63a32,32,0,0,0,4.57,6.05,52.72,52.72,0,0,0,5.78-6.05Z"/>
    <path class="cls-1" d="M239.67,298.7c.58.19,1.29.39,1.29,1,0,.83-.78,1-1.35,1A57.62,57.62,0,0,0,236,320c0,7.85,2.44,13.31,4.3,13.31,2.06,0,4.5-5.66,6.24-9.71a29.26,29.26,0,0,0,6.75,6.82c-5.14,12.47-11,16.84-14.14,16.84-3.6,0-13.12-7.65-13.12-27.51,0-8.23,1.42-15.75,3.15-24.05Zm31.05.45c7.07,9.52,11.89,20.44,13,32.34-3.8,1.48-8.36,3.66-10.48,4.75a58.58,58.58,0,0,0-10.8-31.82Z"/>
    <path class="cls-1" d="M325.81,310.85V292.53l10.48.45a.71.71,0,0,1,.77.64c0,.58-.64.84-1.28,1v16.2h10.35v9.32H335.78v21.09H348v8.87H310.9v-8.87h14.91V320.17H315.2v-7.9c-2.05,3.85-2.69,5.27-4.82,8a55.56,55.56,0,0,0,9,7.84,28.69,28.69,0,0,0-5.91,7,36.25,36.25,0,0,1-6.69-5.92v22.25h-9.51v-17.1c-2.7,2.18-3.67,2.95-5.21,4.05a18.72,18.72,0,0,0-5.78-8c6.81-3.92,14.91-11.76,17.16-17H289.3v-8.93h8v-12l9.51.26c.39,0,1,.13,1,.83,0,.32-.25.65-1,1.16v9.71H313l4.12,4c-.19.39-1,2.06-1.16,2.38Z"/>
    <path class="cls-1" d="M398.84,320H366.31v-5.27a59.58,59.58,0,0,1-7.78,4.11,35.49,35.49,0,0,0-7.13-7.71c9.77-2.83,22.5-12.92,26-20l11.45,1.41a.85.85,0,0,1,.83.84c0,.7-.83,1-1.28,1.15,8.16,8.81,17.87,13.12,25.58,15.5-3.41,2.05-6.23,7.71-6.36,8a55.55,55.55,0,0,1-8.81-4.18ZM355.9,340.49c1.86-.07,4.37-.13,10-.32a77.5,77.5,0,0,0,4.05-9.39H356.22v-8.49h52.84v8.49H395.82a78.78,78.78,0,0,1,13.37,14.46,37.62,37.62,0,0,0-7.46,6.82,70.4,70.4,0,0,0-4.5-6.43c-7.39,1.22-21.66,3.15-37.09,4.11-.51,1.16-.77,1.8-1.48,1.8-.51,0-.77-.57-.83-1Zm39-29a84.36,84.36,0,0,1-12.67-10.35,109.3,109.3,0,0,1-11.44,10.35Zm-4.12,19.29h-8.35c0,.58-.2,1-1.55,1.22-1.15,2.57-2.57,5-4,7.52,6.49-.51,10.35-1,13.5-1.35-1.8-1.6-2.83-2.5-4.05-3.53Z"/>
    <path class="cls-1" d="M434.07,297.29c1.22.45,1.73.64,1.73,1.09s-1.28.71-1.73.77c-1.93,5.72-4.18,13.05-4.18,26.55a22.4,22.4,0,0,0,.45,5.14c.39-.7,1.93-3.53,2.7-4.82a18.54,18.54,0,0,0,4.95,5.27c-1.61,3-4.56,10.48-4.24,15.37l-9.13,2.44a67.64,67.64,0,0,1-4.57-25.71c0-11.64,1.8-19.61,4.12-29.83Zm17,30.21a17.27,17.27,0,0,0-1,4.57c0,2.82,1.55,3.27,8.94,3.27a65.33,65.33,0,0,0,15.88-1.73,42.51,42.51,0,0,0-1,10.48,137.11,137.11,0,0,1-16.27.83c-9.58,0-17-1.67-17-9.51a23.81,23.81,0,0,1,2.12-9.45Zm-7.78-27.45c1.93.13,4.5.32,8.36.32a75.21,75.21,0,0,0,18.9-2.05,95.37,95.37,0,0,0,.9,9.77,96.09,96.09,0,0,1-19.8,1.93c-3.8,0-6.3-.2-8.36-.33Z"/>
    <path class="cls-1" d="M518,293.43c1,.13,1.61.19,1.61.71,0,.7-.77,1-1.29,1.09-.13,1.16-.19,1.93-.32,4.5,18.13-.77,20.12-.84,21.34-1-.06,1.35-.19,7.71.07,10.35-11.64-.58-16.52-.58-21.22-.52a51.35,51.35,0,0,0,.07,7.14C522,320.3,522,327.18,522,328.08c0,9.13-6,19.8-14.92,24.81a43.34,43.34,0,0,0-9.38-6.62c1.92-.77,9.51-4,11.83-9.25-.65.51-1.93,1.54-5.08,1.54-1,0-4.7,0-6.95-2.89s-2.76-7.14-2.76-9.52c0-14.14,12.08-13.69,13.43-13.5.07-2.06.07-2.63.07-3.6a175.18,175.18,0,0,0-25.65,3.34l-.71-10.86c1.48.06,3.92-.06,26.1-1.35A67.69,67.69,0,0,0,507,292Zm-14.85,32.14c0,4.25,2.12,5.4,3.28,5.4,2,0,3.15-3,3.15-6.17,0-1.48-.32-4-2.89-4C504.52,320.82,503.11,322.94,503.11,325.57Z"/>
    <path class="cls-1" d="M591.76,300c-4.37,2.89-14.34,12.85-15.75,14.33a35.35,35.35,0,0,1,7.71-1c8.75,0,17.75,5.53,17.75,16.91,0,14.14-13.44,20.31-24.56,20.31-8.29,0-16.33-3.28-16.33-11.06,0-6.36,5.92-10.28,12.6-10.28,6,0,12.34,3.4,13.82,9.45,4.25-2.12,4.25-7.07,4.25-7.59,0-1.54-.52-9.38-10.48-9.38-10.87,0-17,6.36-26,15.68l-7.72-7.52c7.39-5.14,21.73-19.29,26-25-2.06.45-4.25,1-17.1,2.25L554.47,297c2.51.06,21.09.26,32.15-4Zm-19.35,37.28c-2.19,0-2.7,1.22-2.7,2.32,0,2.44,3.6,3.4,5.79,3.4a10.77,10.77,0,0,0,3.21-.51A6.32,6.32,0,0,0,572.41,337.27Z"/>
    <path class="cls-1" d="M640.74,294.91c.58.13,1.29.38,1.29,1s-.9.83-1.41.83c-.26,1-1.35,5.6-1.61,6.5a41.39,41.39,0,0,0,10.67-3.15l1.09,10.09c-2,.64-5.65,1.73-14.53,3a155.31,155.31,0,0,1-16.84,37.61,66.65,66.65,0,0,0-9.71-4.89c5.41-6.75,12.16-19.09,15.88-31.18-3.92.32-4.69.32-11.76.39L613,304.62c1.93.12,4.18.25,7.46.25,2.89,0,4.82-.06,7.65-.25.9-4.83,1.35-9,1.74-12.15Zm4.83,38.7c-1.61,2.06-1.74,3.28-1.74,3.79a1.73,1.73,0,0,0,1.16,1.67c1.35.77,5.08,1.1,8.61,1.1A46.2,46.2,0,0,0,667.74,338a28.25,28.25,0,0,0-.45,5,45.57,45.57,0,0,0,.39,5.33,77.12,77.12,0,0,1-13.31,1.1c-8.42,0-19.6-1.22-19.6-10.35,0-2.51.58-4.57,2.5-8.42Zm-3-18.19a82,82,0,0,1,14.2-1.16,45.58,45.58,0,0,1,9.45.71c-.38,4.75-.45,5.78-.51,10.09A37.23,37.23,0,0,0,656,323.9a117.89,117.89,0,0,0-13.49,1.16Z"/>
    <path class="cls-1" d="M690.76,296.64a55.86,55.86,0,0,0,1.48,10.55,30.42,30.42,0,0,1,11.57-3.73c.83-6,1-7.07,1-11.06l10.87,2.51c.77.19,1.22.45,1.22,1,0,.9-1,.84-1.35.84-.07.32-1.22,5.78-1.42,6.75,10.42,1.48,18.52,9.32,18.52,21.6,0,18.32-17.23,23.78-24.69,24.94a30.26,30.26,0,0,0-5.65-8.42,29.49,29.49,0,0,0,12-3.54c5.4-3,8.36-6.68,8.36-13.3,0-10.29-7.91-11.77-10.61-12.22a61.89,61.89,0,0,1-8.23,19c.71.9,1.23,1.6,3,3.6a48.39,48.39,0,0,0-8.16,7.39c-.9-1.29-1.29-1.86-1.87-2.83-6,5.53-9.83,5.85-12,5.85-5.66,0-9.58-4.11-9.58-11.06,0-2.44.52-11.95,9.13-21a130,130,0,0,1-3.86-13.5Zm-3,26.17c-2.06,3-3.73,7.13-3.73,10.54,0,.45,0,2.25,1.86,2.25s4.31-2.57,5.92-4.24C689.41,326.67,688.25,324.09,687.74,322.81Zm7.26-6.94a57.8,57.8,0,0,0,3.09,6.75,38.21,38.21,0,0,0,3.85-9.78A24.67,24.67,0,0,0,695,315.87Z"/>
    <path class="cls-1" d="M769.12,340.23c14-2.57,18.07-13.37,18.07-20.06,0-5.2-2.77-14.78-14.85-15.75-2,23.53-11.7,41.08-18.52,41.08-5,0-14.33-8.48-14.33-20.38,0-13.82,12.6-29.95,31.5-29.95,14.07,0,26.35,9.57,26.35,24.94,0,3-.25,11.18-7.58,19.86-3.92,4.57-8.49,6.95-14,9.32A41.67,41.67,0,0,0,769.12,340.23ZM749,324.35c0,4.95,2.77,8.68,4.12,8.68,1.54,0,2.76-2.89,3.47-4.56a56.44,56.44,0,0,0,4.95-22.12C754.08,309.12,749,318.57,749,324.35Z"/>
    <path class="cls-1" d="M805.83,309.05c3.92,1.48,9.83,6,10.8,6.82a57.54,57.54,0,0,0-5.21,7.07,40.48,40.48,0,0,0-10-7.07Zm-3.47,37.74c3.86-5.15,8-14.47,9.64-20.19a18.32,18.32,0,0,0,7.52,5.08c-2.44,6.62-3,7.71-7.58,17.55a2.66,2.66,0,0,1,.64,1.48.87.87,0,0,1-.84.9,3.72,3.72,0,0,1-1.6-.45ZM809.49,292a66,66,0,0,1,10.42,6,52.85,52.85,0,0,0-5.08,7.46,70.45,70.45,0,0,0-10.35-6.75Zm36,17h16.27v8.17H845.49v6.49h13.7V351h-9.07v-2.51h-18V351H823V323.71h13.57v-6.49h-17v-8.17h17v-5.4a95.07,95.07,0,0,1-12.22.84,25.94,25.94,0,0,0-3.15-8.1c14.92.19,20.7-.9,31.31-4.18l5.66,5.91a1.69,1.69,0,0,1,.58,1.1c0,.64-.52.9-1.16.9a3.39,3.39,0,0,1-1.42-.33,58.32,58.32,0,0,1-10.67,2.58Zm4.63,31.76v-9.13h-18v9.13Z"/>
    <path class="cls-1" d="M905.86,305.58V292.47l8.8.45c1,.06,1.61.32,1.61,1.09,0,.58-.71,1-1.61,1.35v10.22h10.61c0,19.67,0,37.67-4.88,42.56-3,2.95-8.1,2.95-10.23,2.83a29.62,29.62,0,0,0-3.4-7.91,48.17,48.17,0,0,1-5.92,9.06,37.51,37.51,0,0,0-7.45-4.43c.19-.26.83-1,1.28-1.67-14.72,2.05-21,2.25-23.46,2.31-.32.58-.71,1.48-1.42,1.48s-1-.71-1.15-1.48l-1-7.39c2.38.13,5.53,0,12.6-.39v-2.83H868.64v-5.85h11.57V330H869V310.66h11.19v-1.8h-12.6v-6.43h12.6v-1.61c-3.35.2-5.34.32-8.3.26a14.33,14.33,0,0,0-2.89-6.36,43.27,43.27,0,0,0,5,.19c11.7,0,18.39-2,20-2.7l3.86,5.53a1.52,1.52,0,0,1,.32.83c0,.32-.13.77-.64.77a3,3,0,0,1-1.61-.7c-3.21.7-5.2,1.09-7.58,1.41v2.38h13.37v3.15Zm-25.65,12.6v-2.44h-3.54v2.44Zm-3.54,4.31v2.44h3.54v-2.44Zm23.92-13.63H888.31v1.8h11.18V330H888.31v1.86h11v5.85h-11V340c3.53-.25,7.2-.58,10-1-.26.84-.39,1.42-.71,2.64,1.8-3,6.75-11.19,8-26.42h-5Zm-8.75,9.32v-2.44h-3.53v2.44Zm-3.53,4.31v2.44h3.53v-2.44ZM914,315.16c-1.16,14.08-3.79,20.57-6.62,26.68a18.57,18.57,0,0,0,4.05.77c1.54,0,2.25-.58,2.89-3,1.93-6.68,2.25-17.42,2.06-24.49Z"/>
  </g>
  <g>
    <path class="cls-1" d="M212.87,262.44l41.29-104h24.68l41.37,104H295.44l-8.17-20.81H246l-8.43,20.81Zm41.29-41.54h24.68l-12.25-34.1Z"/>
    <path class="cls-1" d="M329.25,228.78V192a29.18,29.18,0,0,1,3.3-13.51,35.35,35.35,0,0,1,8.87-11.06,43.13,43.13,0,0,1,13.17-7.37,46.59,46.59,0,0,1,16-2.74q17.2,0,29.24,10.11t12,24.57H387.05a12.36,12.36,0,0,0-4.82-9.9,17.81,17.81,0,0,0-11.69-4,17.23,17.23,0,0,0-11.78,4.24q-4.83,4.23-4.82,9.64v36.79a12.43,12.43,0,0,0,4.91,9.82,19,19,0,0,0,23.25.29,13.52,13.52,0,0,0,4.95-10.11h24.77a29.16,29.16,0,0,1-3.26,13.4,35.38,35.38,0,0,1-8.78,11.06,42.59,42.59,0,0,1-13.17,7.45,48,48,0,0,1-36.72-1.9,38.83,38.83,0,0,1-15.08-12.67A29.74,29.74,0,0,1,329.25,228.78Z"/>
    <path class="cls-1" d="M423.9,179.14V158.4h82.57v20.74H477.61v83.3H452.67v-83.3Z"/>
    <path class="cls-1" d="M524.72,262.44v-104h24.77v104Z"/>
    <path class="cls-1" d="M568.52,228.78V192a29.18,29.18,0,0,1,3.3-13.51,35.21,35.21,0,0,1,8.87-11.06,43,43,0,0,1,13.16-7.37,46.63,46.63,0,0,1,15.95-2.74q17.22,0,29.25,10.11t12,24.57v36.79a29.16,29.16,0,0,1-3.26,13.4,35.38,35.38,0,0,1-8.78,11.06,42.59,42.59,0,0,1-13.17,7.45,46.78,46.78,0,0,1-16.08,2.77,46.29,46.29,0,0,1-20.64-4.67,38.83,38.83,0,0,1-15.08-12.67A29.74,29.74,0,0,1,568.52,228.78Zm24.68,0a12.46,12.46,0,0,0,4.91,9.82,18.55,18.55,0,0,0,23.34,0,12.51,12.51,0,0,0,4.87-9.82V192a12.36,12.36,0,0,0-4.87-9.82,18.8,18.8,0,0,0-23.34,0A12.32,12.32,0,0,0,593.2,192Z"/>
    <path class="cls-1" d="M666.47,262.44v-104h24.77l33.12,61.84V158.4h24.77v104H724.36l-33.12-61.91v61.91Z"/>
  </g>
  <g>
    <path class="cls-1" d="M65.19,2H90a19.62,19.62,0,0,1,9.11,2.23,23.71,23.71,0,0,1,7.45,6,29,29,0,0,1,5,8.89,31.57,31.57,0,0,1,1.85,10.76q0,11.6-6.82,19.7T90,57.66H65.19a19.66,19.66,0,0,1-9-2.19,24,24,0,0,1-7.45-5.91,28.47,28.47,0,0,1-5-8.87,31.43,31.43,0,0,1-1.88-10.83A31.21,31.21,0,0,1,45,15.93,26.24,26.24,0,0,1,53.5,5.75,20.07,20.07,0,0,1,65.19,2Zm0,14A10.48,10.48,0,0,0,56.92,20a14.78,14.78,0,0,0-3.44,9.82,14.65,14.65,0,0,0,3.44,9.79,10.52,10.52,0,0,0,8.27,4.07H90a10.42,10.42,0,0,0,8.24-4.07,14.69,14.69,0,0,0,3.43-9.79A14.82,14.82,0,0,0,98.24,20,10.38,10.38,0,0,0,90,16Z"/>
    <path class="cls-1" d="M65.19,67.45h47.45V81.39H65.19a10.47,10.47,0,0,0-8.27,4.11,15.75,15.75,0,0,0,0,19.65,10.5,10.5,0,0,0,8.27,4.08h47.45v13.94H65.19a19.55,19.55,0,0,1-9-2.2,23.83,23.83,0,0,1-7.45-5.91,28.41,28.41,0,0,1-5-8.88A32.27,32.27,0,0,1,45,81.42,26.42,26.42,0,0,1,53.5,71.23,20,20,0,0,1,65.19,67.45Z"/>
    <path class="cls-1" d="M42.5,135.36h70.14v27.89a31.87,31.87,0,0,1-3,13.83,25.58,25.58,0,0,1-8.41,10.19A20.49,20.49,0,0,1,77,187a26.14,26.14,0,0,1-8.67-11.22L42.5,191.08V177.14l23.38-13.89V149.3H42.5ZM77.6,149.3v13.95A14.73,14.73,0,0,0,81,173.06a10.56,10.56,0,0,0,16.63.06,14.92,14.92,0,0,0,3.33-9.87V149.3Z"/>
  </g>
</svg>
