<svg xmlns="http://www.w3.org/2000/svg" width="25" height="25" viewBox="0 0 25 25"><defs><style>.cls-1{fill:#7d7d7d;fill-rule:evenodd}</style></defs><path id="シェイプ_1" data-name="シェイプ 1" class="cls-1" d="M23.62 0H1.38A1.38 1.38 0 0 0 0 1.38v22.24A1.38 1.38 0 0 0 1.38 25h11.973v-9.681H10.1v-3.773h3.258V8.763c0-3.229 1.972-4.987 4.853-4.987a26.741 26.741 0 0 1 2.911.149V7.3h-2c-1.567 0-1.87.744-1.87 1.837v2.409h3.736l-.488 3.773h-3.25V25h6.37A1.38 1.38 0 0 0 25 23.62V1.38A1.38 1.38 0 0 0 23.62 0z"/></svg>