<svg xmlns="http://www.w3.org/2000/svg" viewBox="0 0 433.05 240.49"><defs><style>.cls-1,.cls-6{fill:none;}.cls-2{fill:#0068b3;}.cls-3{fill:#666;}.cls-4{fill:red;}.cls-5{fill:#fff;}.cls-6{stroke:#000;stroke-miterlimit:10;stroke-width:0.73px;}</style></defs><g id="レイヤー_2" data-name="レイヤー 2"><g id="design"><rect class="cls-1" x="207.29" width="225.76" height="240.49"/><path class="cls-2" d="M267.12,178.51c0,8.57-4.63,12.69-14.07,12.69s-14.11-4.12-14.11-12.69v-19h9.52v16.84c0,3.16,0,7.1,4.63,7.1s4.51-3.94,4.51-7.1V159.55h9.52v19"/><polygon class="cls-2" points="272.83 159.55 282.57 159.55 291.58 176.09 291.66 176.09 291.66 159.55 300.67 159.55 300.67 190.46 291.4 190.46 281.93 173.58 281.84 173.58 281.84 190.46 272.83 190.46 272.83 159.55"/><polygon class="cls-2" points="306.51 159.55 316.04 159.55 316.04 170.28 324.95 170.28 324.95 159.55 334.48 159.55 334.48 190.46 324.95 190.46 324.95 178.21 316.04 178.21 316.04 190.46 306.51 190.46 306.51 159.55"/><path class="cls-2" d="M358.85,171.07a5,5,0,0,0-5-4.55c-4.46,0-5.89,4.33-5.89,8.48s1.43,8.49,5.89,8.49c3.21,0,4.46-2.25,5-5.15h9.35c0,6.23-5.06,12.85-14.11,12.85-10,0-15.67-7.05-15.67-16.19,0-9.74,6.15-16.19,15.67-16.19,8.48.05,13.16,4.51,14,12.26h-9.26"/><path class="cls-2" d="M381.75,166.91h4.46c3.64,0,4.72,1.12,4.72,3.07,0,2.77-2.43,3.08-4.2,3.08h-5Zm-9.53,23.55h9.53V179.68h5.07c3.76,0,4,3.07,4.28,6a22.11,22.11,0,0,0,.78,4.76h9.52c-.86-1.43-.9-5.11-1-6.62-.34-3.86-1.94-6.71-4.54-7.71,3.16-1.17,4.63-4.55,4.63-7.75,0-5.84-4.68-8.83-10.09-8.83H372.22v30.91"/><polygon class="cls-2" points="242.04 197.56 238.93 197.56 238.93 195.65 247.42 195.65 247.42 197.56 244.31 197.56 244.31 206 242.04 206 242.04 197.56"/><path class="cls-2" d="M248.13,195.65h2.06v3.9h0a2.64,2.64,0,0,1,2.19-1.25c2.19,0,2.74,1.24,2.74,3.09V206H253.1v-4.23c0-1.24-.36-1.84-1.32-1.84-1.11,0-1.59.62-1.59,2.14V206h-2.06V195.65"/><path class="cls-2" d="M258.11,202.75c.05,1.31.69,1.9,1.84,1.9a1.67,1.67,0,0,0,1.62-1h1.82a3.38,3.38,0,0,1-3.51,2.53,3.66,3.66,0,0,1-3.83-4,3.76,3.76,0,0,1,3.83-4c2.55,0,3.78,2.15,3.64,4.45Zm3.35-1.3c-.19-1-.64-1.6-1.64-1.6a1.62,1.62,0,0,0-1.71,1.6h3.35"/><path class="cls-2" d="M276.89,202.09c0,2.8-1.65,4.16-4.42,4.16s-4.41-1.35-4.41-4.16v-6.44h2.28v6.44c0,1.13.29,2.25,2.13,2.25,1.62,0,2.14-.72,2.14-2.25v-6.44h2.28v6.44"/><polygon class="cls-2" points="278.42 195.65 280.68 195.65 285 202.59 285.03 202.59 285.03 195.65 287.16 195.65 287.16 206 284.88 206 280.58 199.07 280.55 199.07 280.55 206 278.42 206 278.42 195.65"/><path class="cls-2" d="M294.4,197.42h2.49c1,0,1.57.43,1.57,1.43s-.55,1.48-1.57,1.48H294.4ZM292.12,206h2.28V202h2.28c1.14,0,1.56.48,1.72,1.57a11.35,11.35,0,0,0,.37,2.48H301a5.69,5.69,0,0,1-.43-2.45c-.07-1-.39-2.13-1.51-2.42v0a2.56,2.56,0,0,0,1.64-2.6,2.85,2.85,0,0,0-3-2.85h-5.59V206"/><path class="cls-2" d="M303.81,201.45a1.63,1.63,0,0,1,1.71-1.6c1,0,1.46.55,1.64,1.6Zm5.41,1.3c.15-2.3-1.09-4.45-3.64-4.45a3.76,3.76,0,0,0-3.83,4,3.67,3.67,0,0,0,3.83,4,3.38,3.38,0,0,0,3.51-2.53h-1.81a1.69,1.69,0,0,1-1.62,1c-1.15,0-1.79-.59-1.85-1.9h5.41"/><path class="cls-2" d="M310.58,199.88h-1.23V198.5h1.23v-.58a2.2,2.2,0,0,1,2.51-2.27c.36,0,.74,0,1.09.06v1.53a6.34,6.34,0,0,0-.76,0c-.55,0-.78.23-.78.85v.45h1.42v1.38h-1.42V206h-2.06v-6.12"/><path class="cls-2" d="M321.73,206h-2v-1h0a2.68,2.68,0,0,1-2.29,1.25c-2.19,0-2.74-1.24-2.74-3.09V198.5h2.06v4.24c0,1.23.36,1.84,1.32,1.84,1.12,0,1.59-.62,1.59-2.15V198.5h2.06V206"/><path class="cls-2" d="M326.48,204.23c-1.27,0-1.67-1.17-1.67-2.24s.51-2.14,1.67-2.14c1.33,0,1.75,1.09,1.75,2.31a1.84,1.84,0,0,1-1.75,2.07m3.71-5.73h-2v1h0A2.31,2.31,0,0,0,326,198.3c-2.1,0-3.22,1.77-3.22,3.71s1,3.78,3.2,3.78a2.54,2.54,0,0,0,2.25-1.16h0v1c0,1.08-.51,1.86-1.65,1.86a1.39,1.39,0,0,1-1.54-1h-2c.1,1.71,1.82,2.41,3.3,2.41,3.45,0,3.89-2.09,3.89-3.33v-7"/><path class="cls-2" d="M333.28,201.45a1.62,1.62,0,0,1,1.71-1.6c1,0,1.45.55,1.64,1.6Zm5.41,1.3c.14-2.3-1.09-4.45-3.64-4.45a3.76,3.76,0,0,0-3.83,4,3.67,3.67,0,0,0,3.83,4,3.38,3.38,0,0,0,3.51-2.53h-1.81a1.7,1.7,0,0,1-1.63,1c-1.15,0-1.78-.59-1.84-1.9h5.41"/><path class="cls-2" d="M341.34,201.45a1.63,1.63,0,0,1,1.72-1.6c1,0,1.45.55,1.63,1.6Zm5.41,1.3c.15-2.3-1.08-4.45-3.64-4.45a3.76,3.76,0,0,0-3.83,4,3.67,3.67,0,0,0,3.83,4,3.38,3.38,0,0,0,3.51-2.53h-1.81a1.69,1.69,0,0,1-1.63,1c-1.14,0-1.78-.59-1.84-1.9h5.41"/><path class="cls-2" d="M356.18,198.2h0l1.3,3.8h-2.68Zm-5.06,7.8h2.3l.82-2.3h3.87l.78,2.3h2.37l-3.88-10.35h-2.33Z"/><path class="cls-2" d="M365.12,204.23c-1.27,0-1.67-1.17-1.67-2.24s.51-2.14,1.67-2.14c1.33,0,1.75,1.09,1.75,2.31a1.84,1.84,0,0,1-1.75,2.07m3.71-5.73h-2v1h0a2.32,2.32,0,0,0-2.23-1.21c-2.11,0-3.22,1.77-3.22,3.71s1,3.78,3.2,3.78a2.54,2.54,0,0,0,2.25-1.16h0v1c0,1.08-.51,1.86-1.65,1.86a1.39,1.39,0,0,1-1.54-1h-2.05c.11,1.71,1.83,2.41,3.31,2.41,3.45,0,3.89-2.09,3.89-3.33v-7"/><path class="cls-2" d="M371.92,201.45a1.62,1.62,0,0,1,1.71-1.6c1,0,1.45.55,1.64,1.6Zm5.41,1.3c.14-2.3-1.09-4.45-3.64-4.45a3.76,3.76,0,0,0-3.83,4,3.66,3.66,0,0,0,3.83,4,3.38,3.38,0,0,0,3.51-2.53h-1.81a1.7,1.7,0,0,1-1.63,1c-1.14,0-1.78-.59-1.84-1.9h5.41"/><path class="cls-2" d="M378.23,198.5h1.95v1.05h.05a2.68,2.68,0,0,1,2.29-1.25c2.19,0,2.74,1.24,2.74,3.09V206H383.2v-4.23c0-1.24-.36-1.84-1.32-1.84-1.11,0-1.59.62-1.59,2.14V206h-2.06v-7.5"/><path class="cls-2" d="M391.61,201.15a1.4,1.4,0,0,0-1.52-1.3c-1.32,0-1.75,1.34-1.75,2.44s.42,2.36,1.71,2.36a1.58,1.58,0,0,0,1.64-1.52h2a3.35,3.35,0,0,1-3.61,3.08,3.64,3.64,0,0,1-3.78-3.85c0-2.33,1.39-4.06,3.83-4.06,1.77,0,3.39.93,3.52,2.85h-2"/><path class="cls-2" d="M398.27,207a2.35,2.35,0,0,1-2.58,1.69c-.42,0-.84,0-1.26-.07v-1.7a11.89,11.89,0,0,0,1.2.08,1,1,0,0,0,.71-1.41l-2.64-7h2.21l1.7,5.14h0l1.63-5.14h2.14L398.27,207"/><path class="cls-2" d="M324.29,115.74c1.48,0,1.29-.83,1.29-2.39v-7.56c0-1.56-.16-2.05.74-2.05,3.12,0,4-.29,4-3.07V72.6c0-7.65-5.43-6.39-7-9.18-2.17-3.78,4.06-3.78,1.8-12-.58-1.85-2-3-4.85-3s-4.28,1.15-4.86,3c-2.25,8.19,4,8.19,1.81,12-1.54,2.79-7,1.53-7,9.18v28.07c0,2.78.85,3.07,4,3.07.89,0,.74.49.74,2.05v7.56c0,1.56-.18,2.39,1.3,2.39h8"/><path class="cls-2" d="M299.61,54.81c-2.78,2.94-7.17,9.8-4.3,15.51,5.81,2.23,5.37-18.36,12.62-18,3.58,3.3-1.08,13-2.51,17.29-1.79,5.25-3.22,16.3-6.62,21.65-2.86,4.45-.72,18.44-1.61,23.26-2.41,2.4-8.95.7-11.73.26,0-5.52-.71-9.89-1.61-18.71-.08-1.78-2-29-.45-32.35,3.14-6.86,20.23-20,22.56-22.45C308,39,315.26,31.64,318,31.64c2,1.34.8,4.46.35,5.71-2.77,6.86-14.76,13.63-18.78,17.46"/><path class="cls-2" d="M341.3,54.81c2.68,2.94,7.07,9.8,4.29,15.51-5.9,2.23-5.45-18.36-12.7-18-3.49,3.3,1.16,13,2.59,17.29,1.79,5.25,3.22,16.3,6.62,21.65,2.78,4.45.72,18.44,1.52,23.26,2.5,2.4,8.95.7,11.81.26,0-5.52.63-9.89,1.52-18.71.19-1.78,2.06-29,.54-32.35-3.13-6.86-20.22-20-22.54-22.45-2.15-2.23-9.31-9.63-12.08-9.63-2.06,1.34-.81,4.46-.36,5.71,2.77,6.86,14.76,13.63,18.79,17.46"/><path class="cls-2" d="M274.75,45.57c-1.53,1.43-4.94,2.41-7.27,5.54-.9-1.7,1.43-5.8,4.21-8.22,2.06-1.7,6.1-4.46,7.26-4.73.9,2.06-2.32,5.18-4.2,7.41"/><path class="cls-2" d="M270,56.73c-2.6,2.42-5.37,3.4-9,7.77a26.32,26.32,0,0,1-.45-13c1.26-4.1,3.32-8.66,6.82-10.08a38.82,38.82,0,0,0-2.15,9.91c-1.52,6-2.42,6.16-2.06,7,.36,0,2.33-3.12,4.75-5.53,2.87-2.86,6.45-3.49,8.79-5.18-.36,1.16-2.42,4.82-6.73,9.19"/><path class="cls-2" d="M257.35,81.47c-3.5-6.25-3.86-10.81-4.13-16.08.19-3.66,2-12.14,4.67-13.39-.81,7.68,1.26,8.39.45,14.73,0,.36-.91,7-.91,7.32,1.08-.17.1-6.07,12.38-14.55-2.69,4.65-1.44,6.07-6.27,12.23-5.65,5.54-6.46,11-6.19,9.74"/><path class="cls-2" d="M262.28,87.36c-2.6,3.75-2.15,5.62-2.78,7.41C253.31,91.19,246.32,77,248.92,70c1.61,5.36,3.85,6.52,5.47,11,2.78,6.7,2.33,8.75,4.12,10.26-.36-3.47.81-7.58,2-10.62,1.7-2.58,3.05-6,4.3-7.14,1.35,4.91.36,8.93-2.51,13.93"/><path class="cls-2" d="M267.84,99.5c0,5.45-1,7.86-1.44,11.87-10.67-3.47-16.23-15.62-16.23-21.6,3.24,7.32,8,7.23,14.18,17.59.53-3.93-1.08-1-1.26-8.4.18-7.77,1.79-8,2.06-12.85,2,2.14,2.69,10.71,2.69,13.39"/><path class="cls-2" d="M276.72,115c.81,4,1.16,8.75,1.78,12.23-6.09-2.23-7.62-.54-14.88-5.09-3.31-1.79-9.23-9.29-8.87-14.64,7.17,7.94,8.43,7,11.93,10,3.22,2.59,5.82,6.43,8.16,5.89.17-2.14-5.3-6.79-4.58-20.18,1.43,1.52,5.37,7.59,6.46,11.79"/><path class="cls-2" d="M288.82,125c1.88,2.68,1.43,3.83,6.27,9.37a52.64,52.64,0,0,1-12.64,2.5c-3,0-13.8-2.85-17.39-10.18,6.18,3.31,6.27,2.5,14.53,4.29,5.92,1.34,10.13,3.21,11.74,3-.35-.81-4.93-2.69-8.06-6.61-3.15-4.2-2.43-8.93-5.21-12.41,1.88-.54,9.23,8,10.76,10"/><path class="cls-2" d="M365.65,45.57c1.44,1.43,4.94,2.41,7.18,5.54,1-1.7-1.44-5.8-4.21-8.22-2-1.7-6-4.46-7.27-4.73-.9,2.06,2.33,5.18,4.3,7.41"/><path class="cls-2" d="M370.41,56.73c2.51,2.42,5.28,3.4,8.87,7.77a26.09,26.09,0,0,0,.45-13c-1.16-4.1-3.31-8.66-6.81-10.08a34.94,34.94,0,0,1,2.15,9.91c1.52,6,2.42,6.16,2.06,7-.36,0-2.33-3.12-4.75-5.53-2.78-2.86-6.37-3.49-8.79-5.18.36,1.16,2.51,4.82,6.82,9.19"/><path class="cls-2" d="M383,81.47c3.58-6.25,3.85-10.81,4.12-16.08-.19-3.66-2-12.14-4.58-13.39.72,7.68-1.34,8.39-.45,14.73,0,.36.81,7,.81,7.32-1-.17-.09-6.07-12.28-14.55,2.6,4.65,1.34,6.07,6.18,12.23,5.74,5.54,6.46,11,6.2,9.74"/><path class="cls-2" d="M378.12,87.36c2.51,3.75,2.06,5.62,2.69,7.41C387,91.19,394.08,77,391.39,70c-1.53,5.36-3.86,6.52-5.38,11-2.87,6.7-2.42,8.75-4.12,10.26.35-3.47-.9-7.58-2.07-10.62-1.61-2.58-3.05-6-4.3-7.14-1.26,4.91-.36,8.93,2.6,13.93"/><path class="cls-2" d="M372.47,99.5c0,5.45,1.07,7.86,1.52,11.87,10.59-3.47,16.23-15.62,16.23-21.6-3.32,7.32-8,7.23-14.25,17.59-.54-3.93,1.07-1,1.25-8.4-.18-7.77-1.79-8-2.06-12.85-2,2.14-2.69,10.71-2.69,13.39"/><path class="cls-2" d="M363.59,115c-.8,4-1.07,8.75-1.7,12.23,6-2.23,7.53-.54,14.8-5.09,3.31-1.79,9.32-9.29,9-14.64-7.17,7.94-8.52,7-11.92,10-3.23,2.59-5.92,6.43-8.26,5.89-.17-2.14,5.3-6.79,4.67-20.18-1.52,1.52-5.47,7.59-6.55,11.79"/><path class="cls-2" d="M351.49,125c-1.79,2.68-1.35,3.83-6.28,9.37a53.85,53.85,0,0,0,12.73,2.5c3,0,13.72-2.85,17.31-10.18-6.19,3.31-6.28,2.5-14.53,4.29-5.92,1.34-10,3.21-11.74,3,.35-.81,5-2.69,8.07-6.61,3.14-4.2,2.42-8.93,5.29-12.41-2-.54-9.32,8-10.85,10"/><path class="cls-2" d="M304.87,150.13l-1.79-.9s11.39-13.84,30.93-12.77,18.2,5.63,28.69,4.92c1.16-.09-.9,1.42-.9,1.42a36.32,36.32,0,0,1-22.86-.35c-12.56-4.29-20.71-6.88-34.07,7.68"/><path class="cls-2" d="M335.79,150.13l1.8-.9a39.11,39.11,0,0,0-30.84-12.77c-19.64,1.08-18.29,5.63-28.78,4.92-1.16-.09.9,1.42.9,1.42a36.34,36.34,0,0,0,22.87-.35c12.63-4.29,20.79-6.88,34.05,7.68"/><path class="cls-3" d="M258,20.7V10.25h1.31V20.7Z"/><path class="cls-3" d="M266.85,20.7V15.75c0-1.34-.68-1.76-1.69-1.76a2.88,2.88,0,0,0-2.24,1.18V20.7h-1.18V13.13h1.18v1.1a3.73,3.73,0,0,1,2.69-1.29A2.15,2.15,0,0,1,268,15.39V20.7Z"/><path class="cls-3" d="M275.6,19.55v4h-1.18V13.13h1.18v1.13a3.16,3.16,0,0,1,2.55-1.32c2,0,3.37,1.51,3.37,4s-1.38,4-3.37,4A3.09,3.09,0,0,1,275.6,19.55Zm4.68-2.65c0-1.67-.91-2.91-2.43-2.91a2.78,2.78,0,0,0-2.25,1.21v3.41a2.8,2.8,0,0,0,2.25,1.23C279.37,19.84,280.28,18.58,280.28,16.9Z"/><path class="cls-3" d="M288.09,20.7v-.86a3.31,3.31,0,0,1-2.51,1,2.52,2.52,0,0,1-2.65-2.5,2.48,2.48,0,0,1,2.65-2.49,3.19,3.19,0,0,1,2.51,1V15.56c0-1-.82-1.6-1.92-1.6a3,3,0,0,0-2.31,1l-.55-.82a4,4,0,0,1,3-1.25c1.6,0,2.93.72,2.93,2.56v5.2Zm0-1.6V17.67a2.57,2.57,0,0,0-2.09-.94A1.67,1.67,0,1,0,286,20,2.54,2.54,0,0,0,288.09,19.1Z"/><path class="cls-3" d="M291.57,20.7V13.13h1.17v1.22A3.22,3.22,0,0,1,295.26,13v1.21a2.12,2.12,0,0,0-.47,0,2.78,2.78,0,0,0-2.05,1.21V20.7Z"/><path class="cls-3" d="M297.46,19.11V14.16h-1.25v-1h1.25V11.06h1.18v2.07h1.53v1h-1.53v4.7c0,.57.25,1,.76,1a1.14,1.14,0,0,0,.8-.32l.35.88a1.93,1.93,0,0,1-1.41.48A1.55,1.55,0,0,1,297.46,19.11Z"/><path class="cls-3" d="M307,20.7V15.75c0-1.34-.67-1.76-1.69-1.76a2.91,2.91,0,0,0-2.24,1.18V20.7h-1.17V13.13h1.17v1.1a3.75,3.75,0,0,1,2.7-1.29,2.15,2.15,0,0,1,2.41,2.45V20.7Z"/><path class="cls-3" d="M310.06,16.9a3.78,3.78,0,0,1,3.73-4c2.28,0,3.63,1.79,3.63,4.06v.3h-6.13A2.67,2.67,0,0,0,314,19.91a3.29,3.29,0,0,0,2.33-.95l.57.77a4.11,4.11,0,0,1-3,1.15A3.75,3.75,0,0,1,310.06,16.9Zm3.71-3a2.54,2.54,0,0,0-2.48,2.52h5A2.45,2.45,0,0,0,313.77,13.91Z"/><path class="cls-3" d="M319.28,20.7V13.13h1.18v1.22A3.2,3.2,0,0,1,323,13v1.21a2.12,2.12,0,0,0-.47,0,2.76,2.76,0,0,0-2.05,1.21V20.7Z"/><path class="cls-3" d="M323.94,19.69l.62-.84a3.41,3.41,0,0,0,2.49,1.08c1.16,0,1.78-.55,1.78-1.3s-.92-1.05-1.94-1.3c-1.28-.3-2.74-.64-2.74-2.21,0-1.18,1-2.18,2.82-2.18a3.83,3.83,0,0,1,2.8,1.1l-.55.81A2.92,2.92,0,0,0,327,13.9c-1,0-1.68.51-1.68,1.19s.86.92,1.85,1.16c1.32.29,2.84.67,2.84,2.35,0,1.27-1,2.28-3,2.28A4,4,0,0,1,323.94,19.69Z"/><path class="cls-3" d="M337,20.7v-5c0-1.33-.69-1.72-1.71-1.72A3,3,0,0,0,333,15.17V20.7h-1.17V10.25H333v4a3.75,3.75,0,0,1,2.71-1.29,2.13,2.13,0,0,1,2.41,2.41V20.7Z"/><path class="cls-3" d="M340.23,11.26a.79.79,0,1,1,.78.79A.8.8,0,0,1,340.23,11.26Zm.2,9.44V13.13h1.18V20.7Z"/><path class="cls-3" d="M345.08,19.55v4h-1.17V13.13h1.17v1.13a3.16,3.16,0,0,1,2.55-1.32c2,0,3.37,1.51,3.37,4s-1.38,4-3.37,4A3.09,3.09,0,0,1,345.08,19.55Zm4.69-2.65c0-1.67-.91-2.91-2.43-2.91a2.8,2.8,0,0,0-2.26,1.21v3.41a2.82,2.82,0,0,0,2.26,1.23C348.86,19.84,349.77,18.58,349.77,16.9Z"/><path class="cls-3" d="M363.46,20.7l-2-6.08-2,6.08h-1.18l-2.41-7.57h1.22l1.85,6,2-6h1l2,6,1.85-6h1.22l-2.41,7.57Z"/><path class="cls-3" d="M368.27,11.26a.79.79,0,1,1,.78.79A.8.8,0,0,1,368.27,11.26Zm.21,9.44V13.13h1.17V20.7Z"/><path class="cls-3" d="M372.28,19.11V14.16H371v-1h1.26V11.06h1.17v2.07H375v1h-1.54v4.7c0,.57.25,1,.77,1a1.15,1.15,0,0,0,.8-.32l.34.88a1.93,1.93,0,0,1-1.41.48A1.54,1.54,0,0,1,372.28,19.11Z"/><path class="cls-3" d="M381.84,20.7v-5c0-1.33-.69-1.72-1.7-1.72a2.94,2.94,0,0,0-2.24,1.18V20.7h-1.18V10.25h1.18v4a3.73,3.73,0,0,1,2.71-1.29A2.13,2.13,0,0,1,383,15.35V20.7Z"/><rect class="cls-4" y="30.76" width="175.49" height="175.49"/><rect class="cls-5" x="129.32" y="54.77" width="11.08" height="55.43"/><path class="cls-5" d="M59.1,91.74a18.47,18.47,0,0,1-36.93,0v-37h11.1v37a7.37,7.37,0,1,0,14.73,0v-37H59.1Z"/><polygon class="cls-5" points="110.82 182.24 73.89 182.24 73.89 126.81 84.96 126.81 84.96 171.14 110.82 171.14 110.82 182.24"/><polygon class="cls-5" points="110.82 110.2 99.74 110.2 84.96 78.53 84.96 110.2 73.89 110.2 73.89 54.77 84.96 54.77 99.74 86.45 99.74 54.77 110.82 54.77 110.82 110.2"/><path class="cls-5" d="M40.65,126.81a18.48,18.48,0,0,0-18.48,18.5v18.46a18.57,18.57,0,0,0,22.06,18.15L48,193.35H59.1l-5.47-16.44a18.44,18.44,0,0,0,5.47-13.14V145.31a18.47,18.47,0,0,0-18.45-18.5m7.35,37a7.37,7.37,0,1,1-14.73,0V145.31a7.37,7.37,0,1,1,14.73,0Z"/><path class="cls-5" d="M134.86,126.81a18.5,18.5,0,0,0-18.5,18.5v18.46a18.48,18.48,0,1,0,37,0V145.31a18.49,18.49,0,0,0-18.46-18.5m7.38,37a7.39,7.39,0,0,1-14.77,0V145.31a7.39,7.39,0,0,1,14.77,0Z"/><line class="cls-6" x1="207.29" y1="12.94" x2="207.29" y2="208.85"/></g></g></svg>