<svg width="68" height="68" viewBox="0 0 68 68" fill="none" xmlns="http://www.w3.org/2000/svg">
<path d="M21.7041 51.8811V52.6811H22.5041V51.8811H21.7041ZM17.2334 51.8811H16.4334V52.6811H17.2334V51.8811ZM17.2334 28.4123H18.0334V27.6123H17.2334V28.4123ZM15 25.0588V24.2588H14.2V25.0588H15ZM23.9404 25.0588H24.7404V24.2588H23.9404V25.0588ZM21.7041 28.4123V27.6123H20.9041V28.4123H21.7041ZM21.7041 51.8811V51.0811H17.2334V51.8811V52.6811H21.7041V51.8811ZM17.2334 51.8811H18.0334V28.4123H17.2334H16.4334V51.8811H17.2334ZM17.2334 28.4123V27.6123H17V28.4123V29.2123H17.2334V28.4123ZM17 28.4123V27.6123C16.3376 27.6123 15.8002 27.075 15.8 26.4121L15 26.4123H14.2C14.2004 27.9581 15.4536 29.2123 17 29.2123V28.4123ZM15 26.4123L15.8 26.4121V25.0588H15H14.2V26.4123H15ZM15 25.0588V25.8588H23.9404V25.0588V24.2588H15V25.0588ZM23.9404 25.0588H23.1404V26.4123H23.9404L24.7404 26.4125V25.0588H23.9404ZM23.9404 26.4123H23.1404C23.1403 27.0751 22.6028 27.6123 21.9404 27.6123V28.4123V29.2123C23.4866 29.2122 24.7401 27.9583 24.7404 26.4125L23.9404 26.4123ZM21.9404 28.4123V27.6123H21.7041V28.4123V29.2123H21.9404V28.4123ZM21.7041 28.4123H20.9041V51.8811H21.7041H22.5041V28.4123H21.7041Z" fill="black"/>
<path d="M36.2354 51.8811V52.6811H37.0354V51.8811H36.2354ZM31.7646 51.8811H30.9646V52.6811H31.7646V51.8811ZM31.7646 28.4123H32.5646V27.6123H31.7646V28.4123ZM29.5273 25.0588V24.2588H28.7273V25.0588H29.5273ZM38.4678 25.0588H39.2678V24.2588H38.4678V25.0588ZM36.2354 28.4123V27.6123H35.4354V28.4123H36.2354ZM36.2354 51.8811V51.0811H31.7646V51.8811V52.6811H36.2354V51.8811ZM31.7646 51.8811H32.5646V28.4123H31.7646H30.9646V51.8811H31.7646ZM31.7646 28.4123V27.6123H31.5273V28.4123V29.2123H31.7646V28.4123ZM31.5273 28.4123V27.6123C30.8649 27.6123 30.3275 27.075 30.3273 26.4121L29.5273 26.4123H28.7273C28.7277 27.9581 29.9809 29.2123 31.5273 29.2123V28.4123ZM29.5273 26.4123L30.3273 26.4121V25.0588H29.5273H28.7273V26.4123H29.5273ZM29.5273 25.0588V25.8588H38.4678V25.0588V24.2588H29.5273V25.0588ZM38.4678 25.0588H37.6678V26.4123H38.4678L39.2678 26.4125V25.0588H38.4678ZM38.4678 26.4123H37.6678C37.6676 27.0749 37.1301 27.6122 36.4676 27.6123L36.4678 28.4123V29.2123C38.0138 29.212 39.2674 27.9584 39.2678 26.4125L38.4678 26.4123ZM36.4678 28.4123L36.4676 27.6123H36.2354V28.4123V29.2123H36.4678V28.4123ZM36.2354 28.4123H35.4354V51.8811H36.2354H37.0354V28.4123H36.2354Z" fill="black"/>
<path d="M50.7636 51.8811V52.6811H51.5636V51.8811H50.7636ZM46.2929 51.8811H45.4929V52.6811H46.2929V51.8811ZM46.2929 28.4123H47.0929V27.6123H46.2929V28.4123ZM44.0546 25.0588V24.2588H43.2546V25.0588H44.0546ZM52.995 25.0588H53.795V24.2588H52.995V25.0588ZM50.7636 28.4123V27.6123H49.9636V28.4123H50.7636ZM50.7636 51.8811V51.0811H46.2929V51.8811V52.6811H50.7636V51.8811ZM46.2929 51.8811H47.0929V28.4123H46.2929H45.4929V51.8811H46.2929ZM46.2929 28.4123V27.6123H46.0546V28.4123L46.0545 29.2123H46.2929V28.4123ZM46.0546 28.4123V27.6123C45.3921 27.6122 44.8547 27.0748 44.8546 26.4121L44.0546 26.4123H43.2546C43.255 27.9582 44.5084 29.2121 46.0545 29.2123L46.0546 28.4123ZM44.0546 26.4123L44.8546 26.4121V25.0588H44.0546H43.2546V26.4123H44.0546ZM44.0546 25.0588V25.8588H52.995V25.0588V24.2588H44.0546V25.0588ZM52.995 25.0588H52.195V26.4123H52.995L53.795 26.4125V25.0588H52.995ZM52.995 26.4123H52.195C52.1949 27.0752 51.6574 27.6123 50.995 27.6123V28.4123V29.2123C52.5414 29.2123 53.7947 27.9583 53.795 26.4125L52.995 26.4123ZM50.995 28.4123V27.6123H50.7636V28.4123V29.2123H50.995V28.4123ZM50.7636 28.4123H49.9636V51.8811H50.7636H51.5636V28.4123H50.7636Z" fill="black"/>
<path d="M51.5 50H16.5C15.6716 50 15 50.6716 15 51.5C15 52.3284 15.6716 53 16.5 53H51.5C52.3284 53 53 52.3284 53 51.5C53 50.6716 52.3284 50 51.5 50Z" fill="white" stroke="black" stroke-width="1.5"/>
<path d="M56 53H12C10.3431 53 9 54.3431 9 56C9 57.6569 10.3431 59 12 59H56C57.6569 59 59 57.6569 59 56C59 54.3431 57.6569 53 56 53Z" fill="white" stroke="#DB0032" stroke-width="1.5"/>
<path d="M33.3975 10.2752C33.7235 10.0859 34.1163 10.062 34.459 10.2039L34.6025 10.2752L58.1748 23.9617C59.2352 24.5774 58.7984 26.2 57.5723 26.2H10.4278C9.23996 26.2 8.79234 24.6772 9.72953 24.0223L9.82524 23.9617L33.3975 10.2752Z" fill="white" stroke="black" stroke-width="1.6"/>
<path d="M34 20C35.1046 20 36 19.1046 36 18C36 16.8954 35.1046 16 34 16C32.8954 16 32 16.8954 32 18C32 19.1046 32.8954 20 34 20Z" stroke="#DB0032" stroke-width="1.6"/>
</svg>
