<svg width="28" height="28" viewBox="0 0 28 28" fill="none" xmlns="http://www.w3.org/2000/svg">
<g clip-path="url(#clip0_184_394)">
<path d="M23.6944 5.7731C23.6944 5.7731 18.8182 7.07446 16.664 7.88328C14.5097 8.6895 12.5966 7.21963 12.8092 9.44128C13.0217 11.6629 16.6925 14.0012 16.664 16.9747C16.6329 19.9481 17.5246 21.6772 17.5246 21.6772C17.5246 21.6772 20.4592 17.9131 20.6718 14.893C20.8843 11.8729 21.8331 12.0855 23.697 13.9986C25.5583 15.9118 26.9323 13.9986 26.9323 13.9986C26.9323 13.9986 26.9193 8.73097 23.697 5.77051L23.6944 5.7731Z" fill="white"/>
<path d="M4.29638 4.87891C4.29638 4.87891 8.82263 6.01176 8.26527 7.88085C7.70791 9.74994 6.83948 11.2146 6.53099 11.225C6.2225 11.2354 4.29638 12.2982 4.29638 12.2982C4.29638 12.2982 3.43312 12.5989 4.29638 14.8932C5.15963 17.1848 6.53099 18.818 6.53099 18.818V24.5471C6.53099 24.5471 1.2374 21.2237 1.07408 13.9988C0.910765 6.77392 4.29638 4.87891 4.29638 4.87891Z" fill="white"/>
<path d="M13.9987 28C6.28127 28 0 21.7187 0 13.9987C0 6.27868 6.28127 0 13.9987 0C21.7161 0 27.9974 6.28127 27.9974 13.9987C27.9974 21.7161 21.7161 27.9974 13.9987 27.9974V28ZM13.9987 2.14388C7.46079 2.14388 2.14388 7.46338 2.14388 13.9987C2.14388 20.534 7.46338 25.8535 13.9987 25.8535C20.534 25.8535 25.8535 20.534 25.8535 13.9987C25.8535 7.46338 20.5366 2.14388 13.9987 2.14388Z" fill="white"/>
</g>
<defs>
<clipPath id="clip0_184_394">
<rect width="28" height="28" fill="white"/>
</clipPath>
</defs>
</svg>
