<svg width="68" height="68" viewBox="0 0 68 68" fill="none" xmlns="http://www.w3.org/2000/svg">
<g clip-path="url(#clip0_441_120)">
<path d="M47.9512 42.2012C47.2848 42.7354 46.2616 42.7125 45.2324 42.6851C44.3444 42.6606 43.4533 42.6316 42.7854 42.9568C41.3646 43.6467 40.5555 46.1913 38.9798 46.5515C37.4588 46.8995 35.6387 44.9762 34.0114 44.9671H34.0007C32.3704 44.9671 30.5458 46.8995 29.0217 46.5515C27.446 46.1913 26.6369 43.6467 25.2161 42.9568C24.5466 42.6332 23.6556 42.6606 22.7691 42.6851C21.7398 42.7125 20.7152 42.7369 20.0488 42.2012C18.8026 41.2014 19.1684 38.5561 18.1726 37.3013C17.1813 36.0543 14.5354 35.8268 13.8387 34.3737C13.1525 32.9449 14.6189 30.7255 14.2607 29.1426C13.9131 27.6085 11.627 26.25 11.627 24.6091C11.627 22.9682 13.9146 21.6112 14.2607 20.0772C14.6189 18.4927 13.1525 16.2733 13.8387 14.8446C14.5354 13.3914 17.1813 13.164 18.1726 11.9169C19.1684 10.6637 18.8026 8.01839 20.0488 7.01705C21.2905 6.02029 23.7709 6.96363 25.2161 6.263C26.6369 5.57458 27.446 3.0285 29.0217 2.66826C30.5473 2.31871 32.3719 4.25117 34.0007 4.25117C35.6296 4.25117 37.4557 2.32024 38.9798 2.66826C40.5555 3.02697 41.3646 5.57305 42.7854 6.263C44.2306 6.96363 46.711 6.02029 47.9527 7.01705C49.199 8.01839 48.8347 10.6622 49.8305 11.9169C50.8202 13.164 53.4676 13.3914 54.1644 14.8446C54.849 16.2733 53.3841 18.4942 53.7408 20.0772C54.0885 21.6112 56.3761 22.9697 56.3761 24.6091C56.3761 26.2485 54.0885 27.607 53.7408 29.1426C53.3841 30.727 54.849 32.9465 54.1644 34.3737C53.4676 35.8268 50.8202 36.0543 49.8305 37.3013C48.8347 38.5545 49.199 41.1998 47.9527 42.2012H47.9512Z" fill="white"/>
<path d="M34.0009 11.4121C41.5818 11.4121 47.7281 17.5926 47.7281 25.2156C47.7281 32.8386 41.5818 39.0191 34.0009 39.0191C26.42 39.0191 20.2736 32.8386 20.2736 25.2156C20.2736 17.5926 26.42 11.4121 34.0009 11.4121Z" fill="white"/>
<path d="M41.9627 22.6145L37.981 26.5161L38.9206 32.0265L34.0008 29.4254L29.0794 32.0265L30.019 26.5161L26.0388 22.6145L31.5401 21.8101L34.0008 16.7988L36.4599 21.8101L41.9627 22.6145Z" fill="white"/>
<path d="M45.2325 42.6834V65.3722L34.0008 57.8423C34.0008 57.6012 33.9992 59.8801 34.0114 44.9654C35.6387 44.9746 37.4588 46.8963 38.9798 46.5498C40.5555 46.1896 41.3646 43.6451 42.7854 42.9551C43.4549 42.6315 44.3459 42.659 45.2325 42.6834Z" fill="white"/>
<path d="M34.0007 57.8445L22.769 65.3744V42.6856C23.657 42.6612 24.5481 42.6322 25.216 42.9573C26.6368 43.6473 27.4459 46.1918 29.0216 46.552C30.5563 46.9031 32.3536 44.9676 34.0128 44.9676C33.9992 59.8823 34.0022 57.6018 34.0022 57.8445H34.0007Z" fill="white"/>
<path d="M55.4897 27.5298C56.232 26.6491 57.0002 25.7378 57.0002 24.6098C57.0002 23.4818 56.232 22.572 55.4897 21.6913C54.9903 21.0975 54.4727 20.4854 54.3497 19.9404C54.2192 19.3604 54.4241 18.559 54.623 17.7851C54.9038 16.6876 55.1952 15.552 54.7262 14.5735C54.248 13.5768 53.1718 13.0944 52.1319 12.6289C51.4154 12.3083 50.6746 11.9771 50.3179 11.5268C49.9566 11.0719 49.7988 10.2675 49.6454 9.49053C49.4253 8.37166 49.1961 7.21463 48.343 6.52926C47.4929 5.84695 46.3241 5.879 45.1931 5.91106C44.4023 5.93243 43.5841 5.95532 43.0588 5.70041C42.5503 5.45313 42.0676 4.80593 41.6 4.17856C40.9139 3.25813 40.2035 2.30564 39.1211 2.05836C38.0798 1.82024 37.0506 2.35448 36.0563 2.87194C35.3428 3.24287 34.6066 3.626 34.0039 3.626C33.4013 3.626 32.6651 3.24287 31.9516 2.87194C30.9573 2.35448 29.9281 1.82024 28.8868 2.05836C27.8044 2.30564 27.094 3.2566 26.4079 4.17856C25.9403 4.80593 25.4576 5.45313 24.9491 5.70041C24.4223 5.95532 23.6056 5.93243 22.8148 5.91106C21.6838 5.879 20.5135 5.84695 19.6634 6.52926C18.8087 7.21615 18.581 8.37166 18.3609 9.49053C18.2076 10.2675 18.0497 11.0719 17.6885 11.5268C17.3317 11.9771 16.5909 12.3083 15.8745 12.6289C14.8346 13.0944 13.7584 13.5768 13.2802 14.5735C12.8096 15.552 13.1011 16.6876 13.3834 17.7851C13.5823 18.559 13.7872 19.3604 13.6567 19.9404C13.5337 20.4854 13.0161 21.099 12.5166 21.6913C11.7743 22.572 11.0062 23.4833 11.0062 24.6098C11.0062 25.7363 11.7743 26.6491 12.5166 27.5298C13.0161 28.1236 13.5337 28.7357 13.6567 29.2822C13.7872 29.8622 13.5823 30.6636 13.3834 31.4375C13.1026 32.535 12.8111 33.6706 13.2802 34.6476C13.7584 35.6443 14.8346 36.1267 15.8745 36.5922C16.5909 36.9128 17.3317 37.244 17.6885 37.6943C18.0497 38.1492 18.2076 38.9536 18.3609 39.7306C18.581 40.8494 18.8087 42.0065 19.6634 42.6918C20.345 43.2398 21.2618 43.3253 22.1499 43.3238V65.373C22.1499 65.605 22.2759 65.8172 22.4793 65.9256C22.6827 66.0355 22.9286 66.0232 23.1199 65.895L34.0055 58.5972L44.8911 65.895C44.9958 65.9652 45.1157 66.0004 45.2372 66.0004C45.3373 66.0004 45.4391 65.9759 45.5317 65.9256C45.7351 65.8157 45.8611 65.6035 45.8611 65.373V43.3238C46.7476 43.3253 47.6629 43.2398 48.346 42.6918C49.2007 42.0065 49.4284 40.8494 49.65 39.7306C49.8033 38.9536 49.9627 38.1492 50.324 37.6943C50.6807 37.2455 51.4215 36.9128 52.138 36.5922C53.1793 36.1267 54.2541 35.6443 54.7323 34.6476C55.2013 33.6691 54.9099 32.535 54.629 31.4375C54.4302 30.6636 54.2252 29.8622 54.3558 29.2822C54.4788 28.7372 54.9964 28.1236 55.4958 27.5298H55.4897ZM23.3931 43.2993C23.9851 43.2948 24.5483 43.3299 24.9445 43.5207C25.453 43.768 25.9358 44.4152 26.4033 45.0425C27.0895 45.963 27.7999 46.9154 28.8822 47.1627C29.0583 47.2024 29.2329 47.2207 29.4074 47.2207C30.2697 47.2207 31.1197 46.7781 31.9471 46.3476C32.4283 46.0973 32.9186 45.8424 33.3755 45.7019V57.5058L23.3916 64.1992V43.2963L23.3931 43.2993ZM34.6248 57.5088V45.7035C35.0802 45.8439 35.572 46.0988 36.0533 46.3491C37.0475 46.8666 38.0767 47.4024 39.1181 47.1627C40.2004 46.9154 40.9109 45.963 41.597 45.0425C42.0645 44.4152 42.5473 43.768 43.0558 43.5207C43.4535 43.3283 44.0167 43.2948 44.6087 43.2978V64.2007L34.6248 57.5073V57.5088ZM53.1323 29.0044C52.9349 29.8805 53.1778 30.8315 53.4146 31.7504C53.6499 32.6693 53.8731 33.5378 53.6029 34.1026C53.3236 34.6857 52.4598 35.0719 51.6249 35.4459C50.7718 35.8275 49.8898 36.2228 49.3434 36.9113C48.7923 37.6042 48.6041 38.5613 48.4219 39.4863C48.2443 40.3839 48.0622 41.3119 47.5643 41.7119C47.0724 42.1072 46.1464 42.0828 45.2523 42.0584H45.2341C44.2914 42.0309 43.3169 42.0034 42.5154 42.3911C41.7336 42.7712 41.1583 43.5436 40.6012 44.29C40.0501 45.0288 39.4794 45.7935 38.8433 45.9401C38.2468 46.0759 37.4604 45.6684 36.6286 45.2348C35.7876 44.7983 34.9178 44.3449 34.0176 44.3404H34.0024C33.0962 44.3404 32.2218 44.7952 31.3763 45.2348C30.5444 45.6684 29.7581 46.0759 29.1615 45.9401C28.5255 45.795 27.9547 45.0303 27.4037 44.29C26.8466 43.5436 26.2712 42.7712 25.488 42.3911C24.8914 42.1026 24.1992 42.0446 23.4948 42.0446C23.2535 42.0446 23.0106 42.0507 22.7707 42.0584H22.754C21.8584 42.0828 20.9324 42.1072 20.4391 41.7119C19.9412 41.3135 19.759 40.3854 19.5829 39.4879C19.4008 38.5628 19.2125 37.6058 18.6615 36.9128C18.115 36.2244 17.2331 35.829 16.3799 35.4474C15.545 35.0734 14.6813 34.6872 14.402 34.1042C14.1303 33.5394 14.3534 32.6724 14.5887 31.7535C14.824 30.8345 15.0684 29.8836 14.8695 29.0074C14.6783 28.1633 14.062 27.4306 13.4654 26.7224C12.8688 26.0141 12.251 25.2814 12.251 24.6144C12.251 23.9473 12.8688 23.2146 13.4654 22.5064C14.062 21.7981 14.6798 21.0654 14.8695 20.2213C15.0684 19.3436 14.824 18.3942 14.5887 17.4753C14.3534 16.5564 14.1303 15.6878 14.402 15.1215C14.6813 14.5384 15.545 14.1522 16.3799 13.7783C17.2331 13.3967 18.115 13.0013 18.6615 12.3129C19.2125 11.6199 19.4008 10.6628 19.5829 9.73781C19.759 8.84027 19.9427 7.9122 20.4391 7.51228C20.9324 7.11541 21.8706 7.14288 22.7783 7.16731C23.718 7.19326 24.6895 7.22073 25.4895 6.83302C26.2712 6.45294 26.8481 5.68057 27.4052 4.93415C27.9562 4.19535 28.527 3.43062 29.163 3.28561C29.7596 3.14975 30.5459 3.55731 31.3793 3.99081C32.2249 4.43042 33.0992 4.88377 34.0055 4.88377C34.9117 4.88377 35.7861 4.4289 36.6316 3.99081C37.4635 3.55884 38.2498 3.14975 38.8479 3.28561C39.4839 3.43062 40.0532 4.19535 40.6042 4.93415C41.1613 5.68057 41.7367 6.45294 42.5199 6.83302C43.3199 7.22073 44.2914 7.19326 45.2311 7.16731C46.1373 7.14288 47.0755 7.11541 47.5688 7.51228C48.0667 7.9122 48.2504 8.84027 48.4265 9.73781C48.6086 10.6628 48.7984 11.6199 49.3479 12.3129C49.8944 13.0013 50.7763 13.3967 51.6295 13.7783C52.4644 14.1522 53.3281 14.5384 53.6074 15.1215C53.8776 15.6863 53.656 16.5548 53.4192 17.4753C53.1839 18.3942 52.9395 19.3436 53.1368 20.2213C53.3281 21.0654 53.9444 21.7981 54.541 22.5064C55.1376 23.2146 55.7554 23.9473 55.7554 24.6144C55.7554 25.2814 55.1376 26.0141 54.541 26.7224C53.9444 27.4306 53.3266 28.1633 53.1368 29.0074L53.1323 29.0044Z" fill="black" stroke="black" stroke-width="0.4"/>
<path d="M34.0008 10.7842C26.0874 10.7842 19.6495 17.2578 19.6495 25.215C19.6495 33.1723 26.0874 39.6458 34.0008 39.6458C41.9141 39.6458 48.3519 33.1723 48.3519 25.215C48.3519 17.2578 41.9141 10.7842 34.0008 10.7842ZM34.0008 38.3927C26.7751 38.3927 20.8974 32.4823 20.8974 25.2165C20.8974 17.9508 26.7751 12.0404 34.0008 12.0404C41.2264 12.0404 47.1041 17.9508 47.1041 25.2165C47.1041 32.4823 41.2264 38.3927 34.0008 38.3927Z" fill="black" stroke="black" stroke-width="0.4"/>
<path d="M42.0522 21.9932L36.8743 21.2361L34.5594 16.5195C34.4547 16.3058 34.2376 16.1699 33.9993 16.1699C33.7624 16.1699 33.5454 16.3058 33.4391 16.5195L31.1226 21.2361L25.9463 21.9932C25.711 22.0283 25.5167 22.1932 25.4423 22.4206C25.3694 22.6481 25.4301 22.8969 25.6001 23.0633L29.3466 26.7343L28.4616 31.9196C28.4221 32.1547 28.5177 32.3928 28.7105 32.5332C28.9033 32.6736 29.1568 32.692 29.3678 32.5805L33.9977 30.1321L38.6276 32.5805C38.7187 32.6294 38.8189 32.6523 38.9176 32.6523C39.0466 32.6523 39.1756 32.6111 39.2849 32.5317C39.4777 32.3913 39.5734 32.1531 39.5339 31.9181L38.6489 26.7328L42.3953 23.0617C42.5653 22.8954 42.6261 22.645 42.5532 22.4191C42.4803 22.1917 42.2845 22.0268 42.0492 21.9917L42.0522 21.9932ZM37.5453 26.0657C37.3981 26.2092 37.3313 26.4183 37.3662 26.6214L38.0918 30.8786L34.2907 28.8683C34.1996 28.8209 34.0994 28.7965 34.0008 28.7965C33.9021 28.7965 33.8019 28.8209 33.7108 28.8683L29.9098 30.8786L30.6354 26.6214C30.6703 26.4183 30.6035 26.2108 30.4562 26.0657L27.3808 23.0511L31.6312 22.4298C31.8346 22.3993 32.0107 22.271 32.1002 22.0863L34.0023 18.2138L35.9028 22.0863C35.9939 22.271 36.17 22.3993 36.3719 22.4298L40.6238 23.0511L37.5483 26.0657H37.5453Z" fill="#DB0032" stroke="#DB0032" stroke-width="0.4"/>
</g>
<defs>
<clipPath id="clip0_441_120">
<rect width="48" height="66" fill="white" transform="translate(10 1)"/>
</clipPath>
</defs>
</svg>
