<svg width="68" height="68" viewBox="0 0 68 68" fill="none" xmlns="http://www.w3.org/2000/svg">
<g clip-path="url(#clip0_441_123)">
<mask id="mask0_441_123" style="mask-type:luminance" maskUnits="userSpaceOnUse" x="12" y="8" width="44" height="53">
<path d="M56 8H12V61H56V8Z" fill="white"/>
</mask>
<g mask="url(#mask0_441_123)">
<path d="M23.4624 50.7926C18.8293 50.7926 15.0586 47.1396 15.0586 42.6512C15.0586 38.1627 18.8293 34.5098 23.4624 34.5098C28.0955 34.5098 31.8662 38.1627 31.8662 42.6512C31.8662 47.1396 28.0955 50.7926 23.4624 50.7926ZM23.4624 36.3036C19.8508 36.3036 16.9102 39.1497 16.9102 42.6512C16.9102 46.1526 19.8481 48.9987 23.4624 48.9987C27.0767 48.9987 30.0146 46.1526 30.0146 42.6512C30.0146 39.1497 27.0767 36.3036 23.4624 36.3036Z" fill="black"/>
<path d="M34.0001 60.9993C33.488 60.9993 33.073 60.5972 33.073 60.1011C33.073 54.9677 28.7606 50.7899 23.4617 50.7899C18.1628 50.7899 13.8504 54.9677 13.8504 60.1011C13.8504 60.5972 13.4354 60.9993 12.9233 60.9993C12.4112 60.9993 11.9961 60.5972 11.9961 60.1011C11.9961 53.9781 17.1386 48.9961 23.459 48.9961C29.7794 48.9961 34.9219 53.9781 34.9219 60.1011C34.9219 60.5972 34.5068 60.9993 33.9947 60.9993H34.0001Z" fill="black"/>
<path d="M44.5366 50.7926C39.9035 50.7926 36.1328 47.1396 36.1328 42.6512C36.1328 38.1627 39.9035 34.5098 44.5366 34.5098C49.1698 34.5098 52.9404 38.1627 52.9404 42.6512C52.9404 47.1396 49.1698 50.7926 44.5366 50.7926ZM44.5366 36.3036C40.925 36.3036 37.9845 39.1497 37.9845 42.6512C37.9845 46.1526 40.9223 48.9987 44.5366 48.9987C48.1509 48.9987 51.0888 46.1526 51.0888 42.6512C51.0888 39.1497 48.1509 36.3036 44.5366 36.3036Z" fill="black"/>
<path d="M55.0744 60.9993C54.5623 60.9993 54.1472 60.5972 54.1472 60.1011C54.1472 54.9677 49.8348 50.7899 44.5359 50.7899C39.2371 50.7899 34.9246 54.9677 34.9246 60.1011C34.9246 60.5972 34.5096 60.9993 33.9975 60.9993C33.4854 60.9993 33.0703 60.5972 33.0703 60.1011C33.0703 53.9781 38.2129 48.9961 44.5332 48.9961C50.8536 48.9961 55.9961 53.9781 55.9961 60.1011C55.9961 60.5972 55.5811 60.9993 55.069 60.9993H55.0744Z" fill="black"/>
<path d="M44.3942 32.8733C44.0843 32.8733 43.7959 32.7245 43.6234 32.4738L40.5993 28.095H27.3953L24.3712 32.4738C24.1987 32.7218 23.9103 32.8733 23.6004 32.8733C23.2904 32.8733 23.002 32.7245 22.8295 32.4738L19.8054 28.095H15.3367C13.4986 28.095 12 26.6458 12 24.8624V11.2325C12 9.44916 13.4959 8 15.3367 8H52.666C54.5041 8 56.0027 9.44916 56.0027 11.2325V24.8651C56.0027 26.6458 54.5068 28.0976 52.666 28.0976H48.1892L45.1651 32.4764C44.9926 32.7245 44.7042 32.8759 44.3942 32.8759V32.8733ZM26.9047 26.3012H41.0979C41.4079 26.3012 41.6963 26.45 41.8688 26.7007L44.3969 30.364L46.9278 26.7007C47.1003 26.4526 47.3887 26.3012 47.6986 26.3012H52.6687C53.488 26.3012 54.1511 25.6562 54.1511 24.8651V11.2325C54.1511 10.4388 53.4853 9.79643 52.6687 9.79643H15.3367C14.5201 9.79643 13.8543 10.4414 13.8543 11.2325V24.8651C13.8543 25.6562 14.5201 26.3012 15.3367 26.3012H20.3068C20.6167 26.3012 20.9051 26.45 21.0776 26.7007L23.6085 30.364L26.1366 26.7007C26.3091 26.4526 26.5975 26.3012 26.9074 26.3012H26.9047Z" fill="black"/>
<path d="M37.8881 15.0413C37.8881 15.6497 37.3787 16.1432 36.7507 16.1432C36.1227 16.1432 35.6133 15.6497 35.6133 15.0413C35.6133 14.433 36.1227 13.9395 36.7507 13.9395C37.3787 13.9395 37.8881 14.433 37.8881 15.0413Z" fill="#DB0032"/>
<path d="M32.3881 15.0413C32.3881 15.6497 31.8787 16.1432 31.2507 16.1432C30.6227 16.1432 30.1133 15.6497 30.1133 15.0413C30.1133 14.433 30.6227 13.9395 31.2507 13.9395C31.8787 13.9395 32.3881 14.433 32.3881 15.0413Z" fill="#DB0032"/>
<path d="M33.8744 21.8511C30.6239 21.8511 27.6295 20.7127 26.0609 18.8823C25.7347 18.5011 25.7886 17.9345 26.1822 17.6186C26.5757 17.3026 27.1605 17.3548 27.4867 17.7361C28.6941 19.146 31.2034 20.0573 33.8744 20.0573C36.7448 20.0573 39.3269 19.0468 40.4535 17.4854C40.626 17.2452 40.909 17.1016 41.2136 17.1016C41.7257 17.1016 42.1461 17.5037 42.1461 17.9998C42.1461 18.2348 42.0545 18.4515 41.9009 18.6108C40.3888 20.6135 37.3297 21.8511 33.8744 21.8511Z" fill="#DB0032"/>
</g>
</g>
<defs>
<clipPath id="clip0_441_123">
<rect width="44" height="53" fill="white" transform="translate(12 8)"/>
</clipPath>
</defs>
</svg>
