<svg width="68" height="68" viewBox="0 0 68 68" fill="none" xmlns="http://www.w3.org/2000/svg">
<g clip-path="url(#clip0_441_122)">
<mask id="mask0_441_122" style="mask-type:luminance" maskUnits="userSpaceOnUse" x="6" y="7" width="56" height="55">
<path d="M62 7H6V62H62V7Z" fill="white"/>
</mask>
<g mask="url(#mask0_441_122)">
<path d="M6.91609 49.7274C6.71848 49.7274 6.51819 49.6635 6.34995 49.5305C5.95205 49.2192 5.88262 48.6444 6.19506 48.2479C6.53689 47.8142 14.6311 37.6231 19.8092 36.3672C23.2888 35.5237 31.5513 36.777 37.8696 37.9797C40.209 38.424 41.8166 40.6193 41.5309 42.9768C41.2451 45.3343 39.1515 47.0852 36.7801 46.9654L25.0593 46.372C24.552 46.3454 24.1647 45.917 24.1888 45.4115C24.2155 44.9059 24.6428 44.5201 25.1528 44.544L36.8736 45.1374C38.2996 45.2092 39.5387 44.1635 39.7096 42.7559C39.8805 41.3483 38.9191 40.0392 37.5252 39.7731C28.9716 38.1473 22.6719 37.5513 20.2418 38.142C16.4551 39.06 9.85896 46.5636 7.63712 49.3762C7.45553 49.605 7.18581 49.7247 6.91609 49.7247V49.7274Z" fill="black"/>
<path d="M17.8143 61.9994C17.6273 61.9994 17.4404 61.9435 17.2775 61.8264C16.8662 61.5311 16.7728 60.959 17.0692 60.5492C17.176 60.4029 19.6863 56.9863 23.2781 56.9863C23.2888 56.9863 23.2994 56.9863 23.3101 56.9863C23.684 56.9863 24.194 56.9996 24.8083 57.0129C29.2466 57.1114 39.6428 57.3482 43.2212 54.8763C46.4258 52.6624 55.5268 44.3153 59.2922 40.8269C60.3764 39.8238 60.4565 38.1714 59.4738 37.0671C58.4991 35.9682 56.798 35.8538 55.6817 36.8117L44.5111 46.3934C44.3081 46.569 44.0357 46.6462 43.7687 46.6036L39.4291 45.9198C38.9271 45.84 38.5879 45.3717 38.6654 44.8741C38.7455 44.3738 39.2155 44.0332 39.7149 44.1131L43.6352 44.7331L54.4827 35.428C56.3547 33.8235 59.2094 34.0151 60.8464 35.8591C62.4941 37.7137 62.3579 40.4837 60.5393 42.168C55.8286 46.5318 47.4486 54.1818 44.2654 56.3796C40.1929 59.1895 29.7727 58.9554 24.7655 58.8436C24.1647 58.8303 23.668 58.8197 23.2994 58.817H23.2781C20.6156 58.817 18.578 61.5923 18.5593 61.6215C18.3804 61.869 18.1 62.002 17.8143 62.002V61.9994Z" fill="black"/>
<path d="M37.0095 23.5559C32.427 23.5559 28.7017 19.8413 28.7017 15.2779C28.7017 10.7146 32.4297 7 37.0095 7C41.5894 7 45.3174 10.7146 45.3174 15.2779C45.3174 19.8413 41.5894 23.5559 37.0095 23.5559ZM37.0095 8.82801C33.4391 8.82801 30.5363 11.723 30.5363 15.2779C30.5363 18.8329 33.4418 21.7279 37.0095 21.7279C40.5773 21.7279 43.4828 18.8329 43.4828 15.2779C43.4828 11.723 40.5773 8.82801 37.0095 8.82801Z" fill="#DB0032"/>
<path d="M47.4271 33.9365C46.9197 33.9365 46.5084 33.5268 46.5084 33.0212C46.5084 27.8033 42.2463 23.5565 37.0095 23.5565C31.7727 23.5565 27.5106 27.8033 27.5106 33.0212C27.5106 33.5268 27.0994 33.9365 26.592 33.9365C26.0846 33.9365 25.6733 33.5268 25.6733 33.0212C25.6733 26.7948 30.7579 21.7285 37.0069 21.7285C43.2558 21.7285 48.3404 26.7948 48.3404 33.0212C48.3404 33.5268 47.9291 33.9365 47.4217 33.9365H47.4271Z" fill="#DB0032"/>
</g>
</g>
<defs>
<clipPath id="clip0_441_122">
<rect width="56" height="55" fill="white" transform="translate(6 7)"/>
</clipPath>
</defs>
</svg>
