<?xml version="1.0" encoding="UTF-8"?>
<svg id="_레이어_1" data-name="레이어 1" xmlns="http://www.w3.org/2000/svg" viewBox="0 0 336.68 124.6">
  <defs>
    <style>
      .cls-1 {
        fill: #db0032;
      }

      .cls-2 {
        fill: #3f3b3a;
      }
    </style>
  </defs>
  <path class="cls-1" d="M334.81,62.3c0,33.47-27.14,60.6-60.6,60.6-18.17,0-34.46-8.02-45.56-20.68h12.38v-26.96c4,.31,8.83.41,13.22.07l14.13,26.89h26.27l-18.64-30.51,1.58-.94c8.44-5.01,13.29-13.1,13.29-22.2,0-17.1-13.35-25.41-40.81-25.41-5.74,0-15.1.54-23.1,1.24,11.11-13.82,28.13-22.68,47.24-22.68,33.46,0,60.6,27.13,60.6,60.6ZM265.72,48.25c0-8.25-6.07-13.56-15.45-13.56-5.25,0-9.24.9-9.24.9v27.6s2.93.53,7.89.53c10.52,0,16.8-5.79,16.8-15.47Z"/>
  <path class="cls-2" d="M53.72,102.21l-27.62-37.76v37.76H1.87V24.08h24.24v34.9l26.29-34.9h27.94l-31.41,37.15,32.86,40.98h-28.05Z"/>
  <path class="cls-2" d="M192.08,102.21v-48.11c0-8.1-3.47-12.19-10.31-12.19-5.6,0-10.95,3.21-17.38,10.41l-.46.52v49.37h-24.42v-47.93c0-8.09-3.47-12.19-10.31-12.19-5.42,0-10.79,3.2-17.37,10.39l-.5.52v49.2h-24.41V24.08h23.67v17.51l3.16-3.41c10.33-11.1,18.36-15.62,27.7-15.62,11.03,0,17.66,4.75,20.87,14.93l.94,3,2.14-2.3c10.05-10.79,19.14-15.81,28.63-15.81,14.28,0,22.48,9.16,22.48,25.12v54.71h-24.42Z"/>
</svg>