<svg xmlns="http://www.w3.org/2000/svg" width="435.999" height="124.738" viewBox="0 0 435.999 124.738">
  <g id="グループ_226" data-name="グループ 226" transform="translate(-764 -696.999)">
    <g id="グループ_207" data-name="グループ 207" transform="translate(1112.529 696.999)">
      <g id="グループ_204" data-name="グループ 204" transform="translate(2.26 33.887)">
        <g id="グループ_203" data-name="グループ 203">
          <path id="パス_90" data-name="パス 90" d="M1157.185,743.924a2.514,2.514,0,0,0-2.189-1.275l-30.8-.4,3.9-15.249h-22.326l-30.833,37.489a2.516,2.516,0,0,0,2.144,3.834l30.171-.095-13.378,44.639a2.531,2.531,0,0,0,4.661,1.549l58.624-67.958A2.516,2.516,0,0,0,1157.185,743.924Z" transform="translate(-1074.561 -727)" fill="#e4efe2"/>
        </g>
      </g>
      <g id="グループ_205" data-name="グループ 205" transform="translate(0)">
        <path id="パス_91" data-name="パス 91" d="M1096.659,821.737c-.123,0-.246,0-.372-.015a4.79,4.79,0,0,1-4.41-5.142,2.266,2.266,0,0,1,.088-.476l12.505-41.722-27.128.085a4.774,4.774,0,0,1-4.073-7.275,2.1,2.1,0,0,1,.18-.252l55.828-67.884a4.791,4.791,0,0,1,8.7,3.233,2.422,2.422,0,0,1-.059.325l-10.567,41.3,27.936.363a4.776,4.776,0,0,1,4.066,7.228,2.147,2.147,0,0,1-.227.315l-58.531,67.852A4.778,4.778,0,0,1,1096.659,821.737Zm-.259-4.69a.265.265,0,0,0,.046.077.269.269,0,0,0,.185.094.288.288,0,0,0,.252-.125,2.161,2.161,0,0,1,.2-.267l58.428-67.732a.265.265,0,0,0-.029-.168h0a.254.254,0,0,0-.224-.13l-30.834-.4a2.258,2.258,0,0,1-2.158-2.819l11.215-43.839a.274.274,0,0,0-.238-.215.265.265,0,0,0-.256.121,2.148,2.148,0,0,1-.148.2l-55.748,67.786a.267.267,0,0,0,0,.123.247.247,0,0,0,.115.158.261.261,0,0,0,.135.038l30.165-.095h.007a2.259,2.259,0,0,1,2.164,2.907Zm61.015-66.7h0Z" transform="translate(-1072.56 -696.999)" fill="#0da43b"/>
      </g>
      <g id="グループ_206" data-name="グループ 206" transform="translate(34.383 31.628)">
        <rect id="長方形_90" data-name="長方形 90" width="20" height="5" transform="translate(0.088 -0.475)" fill="#0da43b"/>
      </g>
    </g>
    <g id="グループ_211" data-name="グループ 211" transform="translate(885.027 706.036)">
      <g id="グループ_208" data-name="グループ 208" transform="translate(2.259 41.793)">
        <path id="パス_92" data-name="パス 92" d="M944.252,742H883.2c-5.88,8.893-10.055,17.951-10.055,27.982a40.58,40.58,0,1,0,81.159,0C954.307,759.951,950.133,750.893,944.252,742Z" transform="translate(-873.148 -742)" fill="#e4efe2"/>
      </g>
      <g id="グループ_209" data-name="グループ 209">
        <path id="パス_93" data-name="パス 93" d="M913.987,817.613a42.887,42.887,0,0,1-42.839-42.839c0-16.762,10.824-30.572,22.286-45.192,1.634-2.085,3.851-5.021,6.2-8.129C912.053,705,912.386,705,913.988,705s1.934,0,14.348,16.447c2.349,3.111,4.568,6.05,6.2,8.135h0c11.46,14.62,22.286,28.429,22.286,45.193A42.887,42.887,0,0,1,913.987,817.613Zm0-107.281c-2.331,2.692-7.275,9.241-10.751,13.845-2.36,3.124-4.588,6.076-6.247,8.193-10.966,13.989-21.323,27.2-21.323,42.4a38.321,38.321,0,0,0,76.641,0c0-15.2-10.358-28.417-21.323-42.4h0c-1.662-2.118-3.891-5.073-6.253-8.2C921.258,719.568,916.317,713.024,913.988,710.333Z" transform="translate(-871.148 -705)" fill="#0da43b"/>
      </g>
      <g id="グループ_210" data-name="グループ 210" transform="translate(13.387 39.534)">
        <rect id="長方形_91" data-name="長方形 91" width="59" height="5" transform="translate(-0.415 -0.418)" fill="#0da43b"/>
      </g>
    </g>
    <g id="グループ_218" data-name="グループ 218" transform="translate(989.907 735.009)">
      <g id="グループ_215" data-name="グループ 215">
        <g id="グループ_212" data-name="グループ 212" transform="translate(0 25.867)">
          <path id="パス_94" data-name="パス 94" d="M985.609,753.551v12.707H964V753.551Z" transform="translate(-964 -753.551)" fill="#0da43b"/>
        </g>
        <g id="グループ_213" data-name="グループ 213" transform="translate(23.081 0.635)">
          <path id="パス_95" data-name="パス 95" d="M1003.4,794.383H990.788V743.829h-6.354V731.212H1003.4Z" transform="translate(-984.434 -731.212)" fill="#0da43b"/>
        </g>
        <g id="グループ_214" data-name="グループ 214" transform="translate(52.94)">
          <path id="パス_96" data-name="パス 96" d="M1048.808,776.122a18.237,18.237,0,0,1-1.5,7.352,19.1,19.1,0,0,1-10.166,10.12,18.583,18.583,0,0,1-7.4,1.5,17.936,17.936,0,0,1-7.306-1.5,19.365,19.365,0,0,1-10.074-10.12,18.253,18.253,0,0,1-1.5-7.352v-26.5a18.259,18.259,0,0,1,1.5-7.351,19.372,19.372,0,0,1,10.074-10.121,17.935,17.935,0,0,1,7.306-1.5,18.582,18.582,0,0,1,7.4,1.5,19.111,19.111,0,0,1,10.166,10.121,18.243,18.243,0,0,1,1.5,7.351Zm-25.323,0a6.117,6.117,0,0,0,1.861,4.493,6.013,6.013,0,0,0,4.4,1.86,6.35,6.35,0,0,0,6.354-6.354v-26.5a6.13,6.13,0,0,0-1.859-4.493,6.03,6.03,0,0,0-4.4-1.86,6.353,6.353,0,0,0-6.354,6.354Z" transform="translate(-1010.869 -730.65)" fill="#0da43b"/>
        </g>
      </g>
      <g id="グループ_217" data-name="グループ 217" transform="translate(95.468 27.504)">
        <g id="グループ_216" data-name="グループ 216">
          <path id="パス_97" data-name="パス 97" d="M1053.772,791.2h-5.252l16.488-36.2h5.255Zm4.995-26.216a5.1,5.1,0,0,1-1.483,3.615,5.391,5.391,0,0,1-1.639,1.118,4.81,4.81,0,0,1-1.977.416,4.939,4.939,0,0,1-2.03-.416A5.4,5.4,0,0,1,1050,768.6a5.028,5.028,0,0,1-1.092-1.638,5.094,5.094,0,0,1-.389-1.977V760.15a5.06,5.06,0,0,1,5.148-5.15,4.921,4.921,0,0,1,3.616,1.482,4.982,4.982,0,0,1,1.483,3.668Zm-6.347,0a1.163,1.163,0,0,0,1.248,1.247,1.157,1.157,0,0,0,.858-.338,1.228,1.228,0,0,0,.338-.909V760.1a1.17,1.17,0,0,0-.338-.86,1.235,1.235,0,0,0-.911-.338,1.154,1.154,0,0,0-1.2,1.2Zm17.842,21.066a4.8,4.8,0,0,1-.417,1.977,5.412,5.412,0,0,1-1.118,1.639,5.5,5.5,0,0,1-1.613,1.119,4.628,4.628,0,0,1-1.95.416,4.8,4.8,0,0,1-1.977-.416,5.362,5.362,0,0,1-2.758-2.758,4.8,4.8,0,0,1-.416-1.977v-4.837a5.115,5.115,0,0,1,.39-1.977,5.016,5.016,0,0,1,1.093-1.639,5.4,5.4,0,0,1,1.638-1.118,4.937,4.937,0,0,1,2.03-.417,4.811,4.811,0,0,1,1.977.417,5.405,5.405,0,0,1,1.638,1.118,5.037,5.037,0,0,1,1.093,1.639,5.115,5.115,0,0,1,.39,1.977Zm-6.347.053a1.156,1.156,0,0,0,1.2,1.2,1.233,1.233,0,0,0,.912-.338,1.164,1.164,0,0,0,.337-.858v-4.89a1.237,1.237,0,0,0-.337-.912,1.168,1.168,0,0,0-.859-.338,1.164,1.164,0,0,0-1.249,1.249Z" transform="translate(-1048.52 -755)" fill="#0da43b"/>
        </g>
      </g>
    </g>
    <g id="グループ_225" data-name="グループ 225" transform="translate(764 735.644)">
      <g id="グループ_221" data-name="グループ 221" transform="translate(21.951)">
        <g id="グループ_219" data-name="グループ 219">
          <path id="パス_98" data-name="パス 98" d="M802.4,794.383H789.788V743.829h-6.354V731.212H802.4Z" transform="translate(-783.434 -731.212)" fill="#0da43b"/>
        </g>
        <g id="グループ_220" data-name="グループ 220" transform="translate(30.222)">
          <path id="パス_99" data-name="パス 99" d="M810.19,731.212h35.761v12.617H822.443v7.533a16.8,16.8,0,0,1,6.535-1.18,18.791,18.791,0,0,1,7.488,1.5A19.125,19.125,0,0,1,846.632,761.8a18.28,18.28,0,0,1,1.5,7.352v6.9a18.272,18.272,0,0,1-1.5,7.352,19.125,19.125,0,0,1-10.166,10.12,18.561,18.561,0,0,1-24.6-9.8,21.684,21.684,0,0,1-1.68-7.67h12.617a6.959,6.959,0,0,0,1.906,4.584,5.822,5.822,0,0,0,4.357,1.77,6.2,6.2,0,0,0,4.493-1.815,6.083,6.083,0,0,0,1.86-4.538v-6.9a6.088,6.088,0,0,0-1.815-4.63,6.461,6.461,0,0,0-4.629-1.724,6.638,6.638,0,0,0-4.084,1.361,5.393,5.393,0,0,0-2.179,3.54H810.19Z" transform="translate(-810.19 -731.212)" fill="#0da43b"/>
        </g>
      </g>
      <g id="グループ_223" data-name="グループ 223" transform="translate(95.467 26.869)">
        <g id="グループ_222" data-name="グループ 222">
          <path id="パス_100" data-name="パス 100" d="M853.772,791.2h-5.254L865.008,755h5.255Zm4.994-26.216a5.093,5.093,0,0,1-.39,1.977,5.029,5.029,0,0,1-1.092,1.638,5.4,5.4,0,0,1-1.639,1.118,4.805,4.805,0,0,1-1.977.416,4.925,4.925,0,0,1-2.029-.416A5.39,5.39,0,0,1,850,768.6a5.029,5.029,0,0,1-1.092-1.638,5.093,5.093,0,0,1-.39-1.977V760.15a5.062,5.062,0,0,1,5.15-5.15,4.921,4.921,0,0,1,3.616,1.482,4.981,4.981,0,0,1,1.482,3.668Zm-6.346,0a1.164,1.164,0,0,0,1.248,1.247,1.159,1.159,0,0,0,.859-.338,1.228,1.228,0,0,0,.338-.909V760.1a1.171,1.171,0,0,0-.338-.86,1.233,1.233,0,0,0-.91-.338,1.156,1.156,0,0,0-1.2,1.2Zm17.842,21.066a4.8,4.8,0,0,1-.417,1.977,5.388,5.388,0,0,1-1.118,1.639,5.509,5.509,0,0,1-1.613,1.119,4.629,4.629,0,0,1-1.951.416,4.808,4.808,0,0,1-1.977-.416,5.357,5.357,0,0,1-2.756-2.758,4.8,4.8,0,0,1-.417-1.977v-4.837a5.1,5.1,0,0,1,.391-1.977A5.015,5.015,0,0,1,861.5,777.6a5.4,5.4,0,0,1,1.638-1.118,4.935,4.935,0,0,1,2.029-.417,4.8,4.8,0,0,1,1.977.417,5.4,5.4,0,0,1,1.639,1.118,5.015,5.015,0,0,1,1.092,1.639,5.1,5.1,0,0,1,.391,1.977Zm-6.347.053a1.157,1.157,0,0,0,1.2,1.2,1.233,1.233,0,0,0,.911-.338,1.164,1.164,0,0,0,.338-.858v-4.89a1.237,1.237,0,0,0-.338-.912,1.17,1.17,0,0,0-.859-.338,1.166,1.166,0,0,0-1.248,1.249Z" transform="translate(-848.519 -755)" fill="#0da43b"/>
        </g>
      </g>
      <g id="グループ_224" data-name="グループ 224" transform="translate(0 25.233)">
        <path id="パス_101" data-name="パス 101" d="M785.609,753.551v12.707H764V753.551Z" transform="translate(-764 -753.551)" fill="#0da43b"/>
      </g>
    </g>
  </g>
</svg>
