<svg xmlns="http://www.w3.org/2000/svg" width="66" height="66" viewBox="0 0 66 66">
  <g id="グループ_48" data-name="グループ 48" transform="translate(-492 -1291)">
    <circle id="楕円形_19" data-name="楕円形 19" cx="33" cy="33" r="33" transform="translate(492 1291)" fill="#0da43b"/>
    <path id="パス_130" data-name="パス 130" d="M-7.8-1.834A5.019,5.019,0,0,1-6.776-.9a9.727,9.727,0,0,0,1.848-2A17.026,17.026,0,0,1-3.584-1.19l.994-1.162A22.471,22.471,0,0,0-4.158-4.074a16.06,16.06,0,0,0,.882-2,4.445,4.445,0,0,1,.224-.546L-4.41-7.154a8.39,8.39,0,0,1-.756,2.1c-.448-.42-.728-.644-1.484-1.274L-7.6-5.39a16.008,16.008,0,0,1,1.736,1.5A7.861,7.861,0,0,1-7.8-1.974V-5.306a9.02,9.02,0,0,1,.056-1.232H-9.324a7.4,7.4,0,0,1,.07,1.3v4.8c0,.672-.028,1.176-.07,1.61H-7.8V.56h5.292v.616H-.952A11.04,11.04,0,0,1-1.036-.378V-5.264a8.437,8.437,0,0,1,.07-1.3h-1.6a9.332,9.332,0,0,1,.056,1.274V-.784H-7.8Zm-4.76-3.08a13.374,13.374,0,0,0,.5-3.85L-13.16-9a11.277,11.277,0,0,1-.5,3.64Zm2.324,6.1A14.02,14.02,0,0,1-10.318-.5V-10.29a9.332,9.332,0,0,1,.084-1.484h-1.652a9.3,9.3,0,0,1,.1,1.484V-.574a12.948,12.948,0,0,1-.1,1.764ZM-6.5-7.91a27.859,27.859,0,0,0-1.47-3.4l-1.3.616A18.059,18.059,0,0,1-7.826-7.308ZM-2.73-6.86A22.937,22.937,0,0,0-.686-10.99l-1.5-.532a13.022,13.022,0,0,1-1.89,4.046ZM-8.5-7.14a14.659,14.659,0,0,0-.854-2.128l-.882.406a12.117,12.117,0,0,1,.728,2.184Zm4.606-1.3A19.268,19.268,0,0,0-5.18-11.76l-1.33.476A19.076,19.076,0,0,1-5.292-7.952Zm6.412-.8a10.887,10.887,0,0,1,1.106-.084C5-9.38,5.334-9.394,6.048-9.45,5.7-8.162,5.53-7.63,5.166-6.524a4.986,4.986,0,0,0-2.646.672A3.523,3.523,0,0,0,.784-2.786a2.41,2.41,0,0,0,2.24,2.66,2.212,2.212,0,0,0,1.918-1.33A18.651,18.651,0,0,0,6.328-4.9a10.691,10.691,0,0,1,3.15.966A5.7,5.7,0,0,1,8.232-1.862a6.583,6.583,0,0,1-2.17,1.47A5.089,5.089,0,0,1,7.336.868,8.112,8.112,0,0,0,9.45-.714a6.611,6.611,0,0,0,1.526-2.464,14.3,14.3,0,0,1,1.932,1.3l.63-1.848a4.943,4.943,0,0,1-.644-.336c-.434-.252-1.05-.574-1.5-.8a23.324,23.324,0,0,0,.252-2.968,4.539,4.539,0,0,1,.084-.938l-1.764-.07a4.2,4.2,0,0,1,.056.742,15.207,15.207,0,0,1-.14,2.59A11.409,11.409,0,0,0,6.79-6.384c.126-.434.98-3.01,1.05-3.178a2.089,2.089,0,0,1,.294-.588L7.028-11.1a1.061,1.061,0,0,1-.56.168c-.518.07-1.764.126-2.6.126a8.3,8.3,0,0,1-1.414-.07ZM4.732-5.054a18.261,18.261,0,0,1-.91,2.338c-.322.63-.532.882-.8.882-.378,0-.686-.462-.686-1.036A1.968,1.968,0,0,1,2.87-4.214,2.77,2.77,0,0,1,4.732-5.054Z" transform="translate(525 1314)" fill="#fff"/>
    <path id="パス_131" data-name="パス 131" d="M-7.4,0A12.234,12.234,0,0,1-6.284-4.717a9.072,9.072,0,0,1,3.8-3.647L.33-9.99a13.241,13.241,0,0,0,2.651-1.875,3.852,3.852,0,0,0,1.2-2.783,3.885,3.885,0,0,0-1.1-2.908,4,4,0,0,0-2.93-1.077A3.828,3.828,0,0,0-3.6-16.582a7.342,7.342,0,0,0-.615,3.047H-6.892A9.415,9.415,0,0,1-5.881-18Q-4.167-21.05.168-21.05q3.6,0,5.266,1.948A6.518,6.518,0,0,1,7.1-14.766a5.894,5.894,0,0,1-1.772,4.307,17.353,17.353,0,0,1-3.677,2.52L-.359-6.826A13,13,0,0,0-2.615-5.317,5.5,5.5,0,0,0-4.46-2.49H6.995V0Z" transform="translate(525 1344)" fill="#fff"/>
  </g>
</svg>
