<svg xmlns="http://www.w3.org/2000/svg" width="25" height="20.033" viewBox="0 0 25 20.033">
  <path id="シェイプ_2" data-name="シェイプ 2" d="M25,4.361a10.368,10.368,0,0,1-2.946.8,5.084,5.084,0,0,0,2.255-2.8,10.359,10.359,0,0,1-3.257,1.227,5.157,5.157,0,0,0-3.744-1.6,5.093,5.093,0,0,0-5.129,5.056A5.008,5.008,0,0,0,12.312,8.2,14.631,14.631,0,0,1,1.74,2.916a4.978,4.978,0,0,0-.694,2.542A5.036,5.036,0,0,0,3.328,9.666,5.164,5.164,0,0,1,1,9.034c0,.021,0,.042,0,.066a5.078,5.078,0,0,0,4.114,4.958,5.212,5.212,0,0,1-2.316.087,5.126,5.126,0,0,0,4.791,3.512,10.386,10.386,0,0,1-6.37,2.164A10.6,10.6,0,0,1,0,19.747a14.67,14.67,0,0,0,7.862,2.272A14.385,14.385,0,0,0,22.456,7.633q0-.329-.015-.654A10.344,10.344,0,0,0,25,4.361Z" transform="translate(0 -1.988)" fill="#7d7d7d" fill-rule="evenodd"/>
</svg>
