<svg id="グループ_237" data-name="グループ 237" xmlns="http://www.w3.org/2000/svg" width="94.69" height="118.399" viewBox="0 0 94.69 118.399">
  <g id="グループ_234" data-name="グループ 234" transform="translate(1.023 4.094)">
    <path id="パス_114" data-name="パス 114" d="M1082.922,892.487C1077.91,886.1,1066.957,871,1065.913,871s-12,15.1-17.011,21.487c-10.159,12.959-19.754,25.2-19.754,39.681a36.764,36.764,0,1,0,73.528,0C1102.676,917.689,1093.081,905.446,1082.922,892.487Z" transform="translate(-1027.101 -868.953)" fill="#e4efe2"/>
    <path id="パス_115" data-name="パス 115" d="M1065.959,971.025a38.855,38.855,0,0,1-38.811-38.811c0-15.188,9.808-27.7,20.191-40.943,1.482-1.889,3.492-4.552,5.619-7.369,11.25-14.9,11.551-14.9,13-14.9s1.752,0,13,14.9c2.126,2.817,4.135,5.479,5.617,7.367h0c10.383,13.246,20.19,25.756,20.19,40.943A38.855,38.855,0,0,1,1065.959,971.025Zm0-97.194c-2.111,2.439-6.588,8.368-9.735,12.537-2.14,2.833-4.161,5.51-5.666,7.428-9.934,12.673-19.317,24.643-19.317,38.418a34.717,34.717,0,1,0,69.435,0c0-13.774-9.384-25.745-19.32-38.418h0c-1.5-1.918-3.523-4.594-5.662-7.427C1072.548,882.2,1068.071,876.27,1065.96,873.831Z" transform="translate(-1027.148 -869)" fill="#0da43b"/>
  </g>
  <g id="グループ_235" data-name="グループ 235" transform="translate(0 70.61)">
    <path id="パス_116" data-name="パス 116" d="M1052.141,945.588c-2.236-2.852-7.123-9.588-7.589-9.588s-5.353,6.735-7.59,9.588c-4.532,5.782-8.814,11.244-8.814,17.7a16.4,16.4,0,0,0,32.807,0C1060.955,956.832,1056.673,951.369,1052.141,945.588Z" transform="translate(-1026.101 -933.953)" fill="#e4efe2"/>
    <path id="パス_117" data-name="パス 117" d="M1044.6,981.789a18.471,18.471,0,0,1-18.451-18.45c0-7.167,4.493-12.9,9.25-18.967.66-.842,1.553-2.027,2.495-3.274,5.159-6.832,5.409-7.1,6.706-7.1s1.545.265,6.7,7.094c.943,1.247,1.837,2.434,2.5,3.276h0c4.756,6.067,9.25,11.8,9.25,18.969A18.471,18.471,0,0,1,1044.6,981.789Zm0-42.713c-1,1.263-2.395,3.106-3.439,4.489-.958,1.269-1.869,2.475-2.541,3.332-4.307,5.5-8.377,10.688-8.377,16.442a14.357,14.357,0,0,0,28.714,0c0-5.755-4.07-10.946-8.378-16.442h0c-.674-.859-1.585-2.066-2.546-3.337C1046.99,942.177,1045.6,940.337,1044.6,939.076Z" transform="translate(-1026.148 -934)" fill="#0da43b"/>
  </g>
  <g id="グループ_236" data-name="グループ 236" transform="translate(35.217 0)">
    <path id="パス_118" data-name="パス 118" d="M1117.724,899.414a1.68,1.68,0,0,0-1.462-.851L1095.7,898.3l7.528-29.43a1.689,1.689,0,0,0-3.1-1.1l-37.319,45.376a1.68,1.68,0,0,0,1.432,2.559l20.143-.063-8.932,29.8a1.69,1.69,0,0,0,3.112,1.033l39.139-45.371a1.681,1.681,0,0,0,.019-1.692Z" transform="translate(-1060.516 -864.953)" fill="#fff"/>
    <path id="パス_119" data-name="パス 119" d="M1077.189,949.355c-.1,0-.193,0-.291-.011a3.737,3.737,0,0,1-3.44-4.013,2.047,2.047,0,0,1,.08-.43l8.139-27.159-17.385.055a3.727,3.727,0,0,1-3.178-5.681,2.044,2.044,0,0,1,.162-.227l37.259-45.3a3.736,3.736,0,0,1,6.771,2.54,2,2,0,0,1-.053.293l-6.884,26.91,17.965.233a3.721,3.721,0,0,1,3.214,1.888h0a3.729,3.729,0,0,1-.043,3.752,2.05,2.05,0,0,1-.207.288l-39.059,45.277A3.725,3.725,0,0,1,1077.189,949.355Zm7.242-35.715a2.048,2.048,0,0,1,1.961,2.634l-8.31,27.73,37.4-43.36-19.769-.256a2.047,2.047,0,0,1-1.955-2.554l7.054-27.574-35.728,43.44,19.338-.061Zm31.869-12.984h0Zm-.309-.185h0Z" transform="translate(-1060.562 -864.999)" fill="#0da43b"/>
  </g>
</svg>
