<svg xmlns="http://www.w3.org/2000/svg" width="539.26" height="23.563" viewBox="0 0 539.26 23.563">
  <defs>
    <style>
      .cls-1 {
        fill: #251e1c;
        fill-rule: evenodd;
      }
    </style>
  </defs>
  <path id="UNIQLO_Sustainability_THE_POWER_OF_CLOTHING" data-name="UNIQLO Sustainability / THE POWER OF CLOTHING" class="cls-1" d="M7184.64,31.837h-3.02V44.084a6.03,6.03,0,1,0,12.06,0V31.837h-3.01V44.084a3.015,3.015,0,1,1-6.03,0V31.837Zm15.23,0h-3.01v18.1h3.01V37.869l6.03,12.064h3.02v-18.1h-3.02V43.9Zm14.74,0h-3.01v18.1h3.01v-18.1Zm11.81,5.85v6.4a3.015,3.015,0,1,1-6.03,0v-6.4A3.015,3.015,0,1,1,7226.42,37.687Zm3.01,15.263-2.15-4.238a6.034,6.034,0,0,0,2.15-4.628v-6.4a6.03,6.03,0,1,0-12.06,0v6.4a6.028,6.028,0,0,0,6.08,6.032,5.2,5.2,0,0,0,1.43-.182l1.54,3.016h3.01ZM7235,31.837h-3.02v18.1h12.07V46.918H7235V31.837Zm20.12,5.85v6.4a3.015,3.015,0,1,1-6.03,0v-6.4A3.015,3.015,0,1,1,7255.12,37.687Zm-9.05,0v6.4a6.035,6.035,0,0,0,12.07,0v-6.4A6.035,6.035,0,0,0,7246.07,37.687Zm31-1.144,2.8-1.144a5.724,5.724,0,0,0-5.4-3.744,5.262,5.262,0,0,0-5.33,5.226,4.79,4.79,0,0,0,2.96,4.55l3.43,1.664a1.785,1.785,0,0,1,1.15,1.846,2.137,2.137,0,0,1-2.27,2.158,2.869,2.869,0,0,1-2.62-1.872l-2.84,1.144a5.951,5.951,0,0,0,5.41,3.744,5.233,5.233,0,0,0,5.33-5.226,4.687,4.687,0,0,0-2.96-4.576l-3.43-1.664a1.91,1.91,0,0,1-1.15-1.846,2.158,2.158,0,0,1,2.26-2.132A2.909,2.909,0,0,1,7277.07,36.543Zm12.16,13.391h2.63V37.115h-2.63v7.93a2.26,2.26,0,1,1-4.52,0v-7.93h-2.65v7.93a4.645,4.645,0,0,0,4.68,4.888,3.841,3.841,0,0,0,2.49-.832v0.832Zm7-3.666-2.42,1.144a4.561,4.561,0,0,0,4.08,2.652,3.784,3.784,0,0,0,3.82-3.77,3.5,3.5,0,0,0-1.97-3.3l-2.16-1.144a1.264,1.264,0,0,1-.78-1.118,1.155,1.155,0,0,1,1.2-1.092,1.863,1.863,0,0,1,1.69,1.144l2.39-1.144a4.473,4.473,0,0,0-4.08-2.652,3.754,3.754,0,0,0-1.83,7.072l2.16,1.144a1.159,1.159,0,0,1-.46,2.236A1.937,1.937,0,0,1,7296.23,46.268Zm8.45-14.431v5.278h-1.51v2.652h1.51v6.4a3.773,3.773,0,0,0,3.77,3.77h0.75V47.281h-0.75a1.107,1.107,0,0,1-1.12-1.118v-6.4h2.62V37.115h-2.62V31.837h-2.65Zm10.58,13.183h3.41v0.156a2.236,2.236,0,0,1-2.32,2.106h-1.09A1.131,1.131,0,0,1,7315.26,45.02Zm3.41-3.12v0.494h-3.41a3.77,3.77,0,0,0,0,7.54h1.09a3.266,3.266,0,0,0,2.32-.832v0.832h2.62V41.9a4.89,4.89,0,0,0-4.89-4.914,4.828,4.828,0,0,0-4.52,3.042l2.42,1.014a2.254,2.254,0,0,1,2.1-1.43A2.292,2.292,0,0,1,7318.67,41.9Zm7.58-10.062h-2.65v2.652h2.65V31.837Zm0,5.278h-2.65V49.934h2.65V37.115Zm4.97,0h-2.65V49.934h2.65v-7.9a2.265,2.265,0,1,1,4.53,0v7.9h2.62v-7.9a4.607,4.607,0,0,0-4.65-4.914,3.756,3.756,0,0,0-2.5.832V37.115Zm13.31,7.9h3.41v0.156a2.236,2.236,0,0,1-2.32,2.106h-1.09A1.131,1.131,0,0,1,7344.53,45.02Zm3.41-3.12v0.494h-3.41a3.77,3.77,0,1,0,0,7.54h1.09a3.232,3.232,0,0,0,2.32-.832v0.832h2.63V41.9a4.892,4.892,0,0,0-9.42-1.872l2.42,1.014A2.265,2.265,0,0,1,7347.94,41.9Zm12.14,0.1v3.042a2.26,2.26,0,1,1-4.52,0V42A2.26,2.26,0,1,1,7360.08,42Zm-4.52-10.166h-2.66v18.1h2.66V49.1a3.876,3.876,0,0,0,2.54.832,4.637,4.637,0,0,0,4.61-4.888V42a4.714,4.714,0,0,0-4.68-4.888,3.923,3.923,0,0,0-2.47.832v-6.11Zm11.77,0h-2.65v2.652h2.65V31.837Zm0,5.278h-2.65V49.934h2.65V37.115Zm4.81,9.023v-14.3h-2.65V46.164a3.773,3.773,0,0,0,3.77,3.77h0.76V47.281h-0.76A1.12,1.12,0,0,1,7372.14,46.138Zm5.59-14.3h-2.65v2.652h2.65V31.837Zm0,5.278h-2.65V49.934h2.65V37.115Zm3.2-5.278v5.278h-1.51v2.652h1.51v6.4a3.773,3.773,0,0,0,3.77,3.77h0.76V47.281h-0.76a1.114,1.114,0,0,1-1.12-1.118v-6.4h2.63V37.115h-2.63V31.837h-2.65Zm6.45,5.278,4.13,12.428-0.7,2.106a1.54,1.54,0,0,1-1.53.937v2.626a3.9,3.9,0,0,0,3.82-2.548l5.23-15.548h-2.63l-2.86,8.5-2.84-8.5h-2.62Zm27.82-5.278h-3.02l-4.52,18.1h3.01Zm21.97,0H7425.1v3.016h4.53V49.934h3.01V34.853h4.53V31.837Zm6.97,0h-3.02v18.1h3.02v-7.54h6.03v7.54h3.01v-18.1h-3.01v7.54h-6.03v-7.54Zm15.75,3.016h9.05V31.837h-12.06v18.1h12.06V46.918h-9.05V42.394h6.03V39.377h-6.03V34.853Zm25.82,6.032h-3.02V34.853h3.02A3.016,3.016,0,1,1,7485.71,40.885Zm0-9.048h-6.03v18.1h3.01V43.9h3.02A6.032,6.032,0,0,0,7485.71,31.837Zm18.48,5.85v6.4a3.015,3.015,0,1,1-6.03,0v-6.4A3.015,3.015,0,1,1,7504.19,37.687Zm-9.04,0v6.4a6.03,6.03,0,1,0,12.06,0v-6.4A6.03,6.03,0,1,0,7495.15,37.687Zm17.65-5.85h-3.02l4.53,18.1h3.02l3.01-13.156,3.02,13.156h3.01l4.53-18.1h-3.02l-3.01,13.183-3.02-13.183h-3.02l-3.01,13.183Zm24.41,3.016h9.05V31.837H7534.2v18.1h12.06V46.918h-9.05V42.394h6.04V39.377h-6.04V34.853Zm18.78,6.032h-3.02V34.853h3.02a2.951,2.951,0,0,1,3.01,3.016A3.016,3.016,0,0,1,7555.99,40.885Zm0-9.048h-6.04v18.1h3.02V43.9h3.02l3.01,6.032h3.02l-3.33-6.656A6.042,6.042,0,0,0,7555.99,31.837Zm25.01,5.85v6.4a3.015,3.015,0,1,1-6.03,0v-6.4A3.015,3.015,0,1,1,7581,37.687Zm-9.05,0v6.4a6.03,6.03,0,1,0,12.06,0v-6.4A6.03,6.03,0,1,0,7571.95,37.687Zm27.85-5.85h-12.07v18.1h3.02v-7.54h6.03V39.377h-6.03V34.853h9.05V31.837Zm18.2,5.85h3.01a6.793,6.793,0,0,0-.21-1.56,6.027,6.027,0,0,0-11.85,1.56v6.4a6.07,6.07,0,0,0,6.03,6.032,6,6,0,0,0,5.82-4.472,7.394,7.394,0,0,0,.21-1.56H7618a3.02,3.02,0,0,1-6.04,0v-6.4a3.024,3.024,0,0,1,3.02-3.016A2.973,2.973,0,0,1,7618,37.687Zm9.49-5.85h-3.02v18.1h12.06V46.918h-9.04V31.837Zm20.51,5.85v6.4a3.015,3.015,0,1,1-6.03,0v-6.4A3.015,3.015,0,1,1,7648,37.687Zm-9.05,0v6.4a6.035,6.035,0,0,0,12.07,0v-6.4A6.035,6.035,0,0,0,7638.95,37.687Zm27.15-5.85h-12.07v3.016h4.53V49.934h3.01V34.853h4.53V31.837Zm6.7,0h-3.01v18.1h3.01v-7.54h6.04v7.54h3.01v-18.1h-3.01v7.54h-6.04v-7.54Zm16.33,0h-3.02v18.1h3.02v-18.1Zm7.05,0h-3.02v18.1h3.02V37.869l6.03,12.064h3.01v-18.1h-3.01V43.9Zm21.68,5.85h3.02a7.182,7.182,0,0,0-.21-1.56,6.033,6.033,0,0,0-11.86,1.56v6.4a6.07,6.07,0,0,0,6.03,6.032,6,6,0,0,0,6.04-6.214V40.885h-6.11V43.9h3.09a3.018,3.018,0,1,1-6.03.182v-6.4a3.016,3.016,0,0,1,3.01-3.016A2.9,2.9,0,0,1,7717.86,37.687Z" transform="translate(-7181.62 -31.656)"/>
</svg>
