<svg xmlns="http://www.w3.org/2000/svg" width="295.8" height="52.594" viewBox="0 0 295.8 52.594">
  <defs>
    <style>
      .cls-1 {
        fill-rule: evenodd;
      }
    </style>
  </defs>
  <path id="UNIQLO_Sustainability_THE_POWER_OF_CLOTHING" data-name="UNIQLO Sustainability THE POWER OF CLOTHING" class="cls-1" d="M12101.4,31.837h-3V44.084a6.05,6.05,0,0,0,12.1,0V31.837h-3V44.084a3.05,3.05,0,0,1-6.1,0V31.837Zm15.3,0h-3.1v18.1h3.1V37.869l6,12.064h3v-18.1h-3V43.9Zm14.7,0h-3v18.1h3v-18.1Zm11.8,5.85v6.4a3.046,3.046,0,0,1-3,3.016,2.982,2.982,0,0,1-3-3.016v-6.4a2.982,2.982,0,0,1,3-3.016A3.046,3.046,0,0,1,12143.2,37.687Zm3,15.263-2.1-4.238a6.157,6.157,0,0,0,2.1-4.628v-6.4a6,6,0,1,0-12,0v6.4a6.011,6.011,0,0,0,6,6.032,5.926,5.926,0,0,0,1.5-.182l1.5,3.016h3Zm5.6-21.113h-3v18.1h12V46.918h-9V31.837Zm20.1,5.85v6.4a3,3,0,1,1-6,0v-6.4A3,3,0,1,1,12171.9,37.687Zm-9,0v6.4a6,6,0,1,0,12,0v-6.4A6,6,0,1,0,12162.9,37.687Zm30.9-1.144,2.9-1.144a5.853,5.853,0,0,0-5.5-3.744,5.281,5.281,0,0,0-5.3,5.226,4.782,4.782,0,0,0,3,4.55l3.4,1.664a1.82,1.82,0,0,1,1.2,1.846,2.179,2.179,0,0,1-2.3,2.158,2.854,2.854,0,0,1-2.6-1.872l-2.9,1.144a6.088,6.088,0,0,0,5.4,3.744,5.287,5.287,0,0,0,5.4-5.226,4.653,4.653,0,0,0-3-4.576l-3.4-1.664a1.9,1.9,0,0,1-1.2-1.846,2.175,2.175,0,0,1,2.3-2.132A2.854,2.854,0,0,1,12193.8,36.543Zm12.2,13.391h2.6V37.115h-2.6v7.93a2.25,2.25,0,1,1-4.5,0v-7.93h-2.7v7.93a4.667,4.667,0,0,0,4.7,4.888,3.888,3.888,0,0,0,2.5-.832v0.832Zm7-3.666-2.4,1.144a4.524,4.524,0,0,0,4.1,2.652,3.786,3.786,0,0,0,3.8-3.77,3.456,3.456,0,0,0-2-3.3l-2.1-1.144a1.207,1.207,0,0,1-.8-1.118,1.13,1.13,0,0,1,1.2-1.092,2,2,0,0,1,1.7,1.144l2.4-1.144a4.524,4.524,0,0,0-4.1-2.652,3.723,3.723,0,0,0-3.8,3.77,3.616,3.616,0,0,0,2,3.3l2.1,1.144a1.1,1.1,0,0,1,.7,1.118,1.119,1.119,0,0,1-1.2,1.118A1.971,1.971,0,0,1,12213,46.268Zm8.5-14.431v5.278h-1.5v2.652h1.5v6.4a3.7,3.7,0,0,0,3.7,3.77h0.8V47.281h-0.8a1.109,1.109,0,0,1-1.1-1.118v-6.4h2.6V37.115h-2.6V31.837h-2.6ZM12232,45.02h3.4v0.156a2.186,2.186,0,0,1-2.3,2.106h-1.1A1.131,1.131,0,0,1,12232,45.02Zm3.4-3.12v0.494h-3.4a3.771,3.771,0,0,0,0,7.54h1.1a3.026,3.026,0,0,0,2.3-.832v0.832h2.7V41.9a4.917,4.917,0,0,0-4.9-4.914,4.8,4.8,0,0,0-4.5,3.042l2.4,1.014A2.224,2.224,0,0,1,12235.4,41.9Zm7.6-10.062h-2.6v2.652h2.6V31.837Zm0,5.278h-2.6V49.934h2.6V37.115Zm5,0h-2.6V49.934h2.6v-7.9a2.25,2.25,0,1,1,4.5,0v7.9h2.7v-7.9a4.65,4.65,0,0,0-4.7-4.914,3.888,3.888,0,0,0-2.5.832V37.115Zm13.3,7.9h3.4v0.156a2.186,2.186,0,0,1-2.3,2.106h-1.1A1.131,1.131,0,0,1,12261.3,45.02Zm3.4-3.12v0.494h-3.4a3.77,3.77,0,1,0,0,7.54h1.1a3.183,3.183,0,0,0,2.3-.832v0.832h2.6V41.9a4.833,4.833,0,0,0-4.8-4.914,4.936,4.936,0,0,0-4.6,3.042l2.5,1.014a2.092,2.092,0,0,1,2.1-1.43A2.265,2.265,0,0,1,12264.7,41.9Zm12.2,0.1v3.042a2.3,2.3,0,0,1-4.6,0V42A2.3,2.3,0,0,1,12276.9,42Zm-4.6-10.166h-2.6v18.1h2.6V49.1a4.057,4.057,0,0,0,2.6.832,4.647,4.647,0,0,0,4.6-4.888V42a4.743,4.743,0,0,0-4.7-4.888,4.091,4.091,0,0,0-2.5.832v-6.11Zm11.8,0h-2.6v2.652h2.6V31.837Zm0,5.278h-2.6V49.934h2.6V37.115Zm4.8,9.023v-14.3h-2.6V46.164a3.765,3.765,0,0,0,3.7,3.77h0.8V47.281h-0.8A1.116,1.116,0,0,1,12288.9,46.138Zm5.6-14.3h-2.6v2.652h2.6V31.837Zm0,5.278h-2.6V49.934h2.6V37.115Zm3.2-5.278v5.278h-1.5v2.652h1.5v6.4a3.786,3.786,0,0,0,3.8,3.77h0.7V47.281h-0.7a1.109,1.109,0,0,1-1.1-1.118v-6.4h2.6V37.115h-2.6V31.837h-2.7Zm6.5,5.278,4.1,12.428-0.7,2.106a1.577,1.577,0,0,1-1.5.937v2.626a3.9,3.9,0,0,0,3.8-2.548l5.2-15.548h-2.6l-2.9,8.5-2.8-8.5h-2.6Zm-233.8,28.866h-12.1V69h4.6V84.078h3V69h4.5V65.981Zm7,0h-3v18.1h3v-7.54h6v7.54h3v-18.1h-3v7.54h-6v-7.54ZM12093.1,69h9.1V65.981h-12.1v18.1h12.1V81.062h-9.1V76.538h6.1V73.522h-6.1V69Zm25.8,6.032h-3V69h3A3.017,3.017,0,1,1,12118.9,75.03Zm0-9.048h-6v18.1h3V78.046h3A6.033,6.033,0,1,0,12118.9,65.981Zm18.5,5.85v6.4a3,3,0,1,1-6,0v-6.4A3,3,0,1,1,12137.4,71.832Zm-9,0v6.4a6.044,6.044,0,0,0,6,6.032,5.98,5.98,0,0,0,6-6.032v-6.4a5.948,5.948,0,0,0-6-6.032A6.011,6.011,0,0,0,12128.4,71.832Zm17.6-5.85h-3l4.5,18.1h3.1l3-13.156,3,13.156h3l4.5-18.1h-3l-3,13.183-3-13.183h-3l-3.1,13.183ZM12170.4,69h9.1V65.981h-12.1v18.1h12.1V81.062h-9.1V76.538h6.1V73.522h-6.1V69Zm18.8,6.032h-3V69h3a2.92,2.92,0,0,1,3,3.016A2.982,2.982,0,0,1,12189.2,75.03Zm0-9.048h-6v18.1h3V78.046h3l3,6.032h3l-3.3-6.656A6.051,6.051,0,0,0,12189.2,65.981Zm25,5.85v6.4a3,3,0,1,1-6,0v-6.4A3,3,0,1,1,12214.2,71.832Zm-9,0v6.4a6.044,6.044,0,0,0,6,6.032,5.98,5.98,0,0,0,6-6.032v-6.4a5.948,5.948,0,0,0-6-6.032A6.011,6.011,0,0,0,12205.2,71.832Zm27.8-5.85h-12v18.1h3v-7.54h6V73.522h-6V69h9V65.981Zm18.2,5.85h3a4.331,4.331,0,0,0-.2-1.56,6,6,0,0,0-11.8,1.56v6.4a6,6,0,0,0,11.8,1.56,4.544,4.544,0,0,0,.2-1.56h-3a3,3,0,1,1-6,0v-6.4a2.982,2.982,0,0,1,3-3.016A2.95,2.95,0,0,1,12251.2,71.832Zm9.5-5.85h-3v18.1h12.1V81.062h-9.1V65.981Zm20.5,5.85v6.4a3,3,0,1,1-6,0v-6.4A3,3,0,1,1,12281.2,71.832Zm-9,0v6.4a6.044,6.044,0,0,0,6,6.032,5.98,5.98,0,0,0,6-6.032v-6.4a5.948,5.948,0,0,0-6-6.032A6.011,6.011,0,0,0,12272.2,71.832Zm27.1-5.85h-12V69h4.5V84.078h3V69h4.5V65.981Zm6.7,0h-3v18.1h3v-7.54h6.1v7.54h3v-18.1h-3v7.54h-6.1v-7.54Zm16.4,0h-3.1v18.1h3.1v-18.1Zm7,0h-3v18.1h3V72.014l6,12.064h3.1v-18.1h-3.1V78.046Zm21.7,5.85h3a9.579,9.579,0,0,0-.2-1.56,6.006,6.006,0,0,0-5.8-4.472,6.1,6.1,0,0,0-6.1,6.032v6.4a6.13,6.13,0,0,0,6.1,6.032,5.992,5.992,0,0,0,6-6.214V75.03h-6.1v3.016h3.1a3.013,3.013,0,0,1-3,3.2,2.982,2.982,0,0,1-3-3.016v-6.4a2.982,2.982,0,0,1,3-3.016A2.92,2.92,0,0,1,12351.1,71.832Z" transform="translate(-12058.3 -31.656)"/>
</svg>
