<?xml version="1.0" encoding="utf-8"?>
<!-- Generator: Adobe Illustrator 25.4.1, SVG Export Plug-In . SVG Version: 6.00 Build 0)  -->
<svg version="1.1" id="レイヤー_1" xmlns="http://www.w3.org/2000/svg" xmlns:xlink="http://www.w3.org/1999/xlink" x="0px"
	 y="0px" viewBox="0 0 76.3 19" style="enable-background:new 0 0 76.3 19;" xml:space="preserve">
<g>
	<g>
		<g>
			<path d="M14.9,9h3v1.5h-3v2.2h4.4v1.5h-5.9V5.3h5.9v1.5h-4.4V9z"/>
			<path d="M26.7,11.2V5.3h1.5v8.9h-1.5l-3-5.9v5.9h-1.5V5.3h1.5L26.7,11.2z"/>
			<path d="M39.6,8.2c0,1.6-1.3,3-3,3h-2v3h-1V5.3h3C38.3,5.3,39.6,6.6,39.6,8.2z M38.6,8.2c0-1.1-0.9-2-2-2h-2v4h2
				C37.7,10.2,38.6,9.3,38.6,8.2z"/>
			<path d="M41.2,14.1h-1l3.2-8.9h1l3.2,8.9h-1l-0.7-2h-3.9L41.2,14.1z M42.3,11.2h3.2l-1.6-4.6L42.3,11.2z"/>
			<path d="M53.9,8.1c0-1.2-0.9-2-2-2c-1.1,0-2,0.9-2,2v3.1c0,1.1,0.9,2,2,2c0.8,0,1.5-0.5,1.8-1.3c0.1-0.2,0.1-0.5,0.1-0.8v-0.3h-2
				v-1h3v1.3c0,1.7-1.3,3-3,3c-1.6,0-3-1.3-3-3V8.1c0-1.6,1.3-3,3-3c1.3,0,2.5,0.9,2.9,2.2c0.1,0.3,0.1,0.4,0.1,0.8H53.9L53.9,8.1z"
				/>
			<path d="M58.5,9.2h3.5v1h-3.5v3h4.9v1h-5.9V5.3h5.9v1h-4.9V9.2z"/>
		</g>
		<g>
			<g>
				<polygon points="74.2,19 2.2,19 2.2,14.5 3.2,14.5 3.2,18 73.2,18 73.2,7.7 74.2,7.7 				"/>
			</g>
			<g>
				<polygon points="3.2,11.5 2.2,11.5 2.2,0 74.2,0 74.2,4.5 73.2,4.5 73.2,1 3.2,1 				"/>
			</g>
		</g>
	</g>
	<polygon points="5.4,7.9 2.7,10.8 0,7.9 0,9.2 2.7,12.1 5.4,9.2 	"/>
	<polygon points="76.3,9.8 73.7,6.9 71,9.8 71,11.3 73.7,8.4 76.3,11.3 	"/>
</g>
</svg>
