<svg xmlns="http://www.w3.org/2000/svg" width="960" height="298" viewBox="0 0 960 298"><defs><style>.cls-1{fill:#fff;}</style></defs><title>copy</title><g id="レイヤー_2" data-name="レイヤー 2"><g id="レイヤー_1-2" data-name="レイヤー 1"><path class="cls-1" d="M102.9,78.53c-.66,15-2.65,30.12-9.41,43.25a62.8,62.8,0,0,0-18.31-6.63c10.48-18.84,10.48-39,10.48-56.25V4.51H130v104c0,7.69,0,14.32-22.42,14.32-.27-3.31-1.46-11.94-5.44-18.83,1.46.13,5.17.39,6.76.39,2.92,0,4-.53,4-5.57V78.53Zm9.95-45.23V20.43h-9.68V33.3Zm0,29.05V48.82h-9.68V62.35ZM152,122.84H134.21V4.51h58.9c0,6.24,0,25.47-.4,30.25-.39,5.57-2.38,9.68-13,11.67a40.14,40.14,0,0,1-9.55.66c-1.32-7.42-3.58-11-6.9-14.72,1.6.13,7.43.66,8.23.66,2.92,0,2.92-1.72,2.92-6.1v-6.5H152v30h35.29l9.41,6.1c-1.19,5.71-4.51,23.09-13.66,39.8a94.75,94.75,0,0,0,15.65,14.06,170.48,170.48,0,0,0-12.07,14.2,86,86,0,0,1-14.06-12.47c-6.63,8.36-10.08,11-12.47,12.87a43.1,43.1,0,0,0-8.09-8.36Zm13-56.91H152v43.65a65.79,65.79,0,0,0,10.21-11A83.56,83.56,0,0,1,152.12,72.7Zm.66,0a60.87,60.87,0,0,0,6.24,14.86,81.56,81.56,0,0,0,4.37-14.86Z"/><path class="cls-1" d="M271.94,100.56c28.79-5.31,37.28-27.6,37.28-41.39,0-10.75-5.71-30.52-30.65-32.51-4.11,48.56-24.14,84.77-38.2,84.77-10.35,0-29.59-17.51-29.59-42.05,0-28.52,26-61.82,65-61.82,29,0,54.39,19.77,54.39,51.47,0,6.11-.53,23.09-15.66,41-8.09,9.41-17.51,14.32-28.79,19.23A85.79,85.79,0,0,0,271.94,100.56ZM230.42,67.79c0,10.21,5.7,17.91,8.49,17.91,3.18,0,5.7-6,7.16-9.42,5.7-13.13,10.08-28.39,10.21-45.64C240.9,36.35,230.42,55.85,230.42,67.79Z"/><path class="cls-1" d="M418.37,47.62h40.72v19H416.91c-5.31,38.08-34.49,51.21-44.31,55.72-7.16-10.34-13.66-14.72-16.32-16.58,15.39-5.44,35.82-15,39.27-39.14H345.14v-19h51.21V32.9A260.77,260.77,0,0,1,365,36.75a76.84,76.84,0,0,0-10-18.31c38.07,0,63.28-9.82,74.29-17.11l16.18,14.19a2.32,2.32,0,0,1,1.06,2c0,.93-.79,1.46-2,1.46a4.07,4.07,0,0,1-2-.53c-8.49,4.64-21.09,8.22-24.27,9.15Z"/><path class="cls-1" d="M541.53,5.17c1.72.14,2.65.27,2.65,1.46,0,1.59-1.59,2-2.65,2.39.13,4.11.13,9.55-.27,18.57h42.19c-1.2,56.38-3.72,65.54-6.9,73-3.45,8.09-10.48,20.82-37.94,19.23-.53-6.5-1.59-11.27-5.44-22A33.36,33.36,0,0,0,542.59,99c11.54,0,17.64,0,18.7-51.34h-22c-6.37,39.4-24.14,58.11-50.94,73.5a53.41,53.41,0,0,0-15.39-15.92c30.65-16.32,40.2-32.37,44.84-57.58H477.59v-20h42.18a156.54,156.54,0,0,0-1.06-23.88Z"/><path class="cls-1" d="M689.18,38.47a40.77,40.77,0,0,0,11.41-1.19l12.86,9.15c-2.25,4.25-11.94,23.08-14.06,26.8-13.4,23.48-27.72,38.47-57.7,50.94-3.72-6.24-10.35-13.27-14.46-17.11,12.2-4.25,42.45-14.73,55.58-49.22h-79.6V38.47ZM697,7.56v19H620.06v-19Z"/><path class="cls-1" d="M788.33,4c.79.13,2.65.53,2.65,2.39s-2.39,2-3.32,2l-3,6.5c3.85-.53,16.45-2.26,27.46-6.24V28.26c-19.76,3.45-22.15,3.84-37.81,5.7-1.59,2.79-1.85,3.32-5.17,9.15,4.78-2.65,10.48-2.65,11.54-2.65,6.77,0,15.26,4,19.37,11.28,19.63-9.42,21.89-10.35,26.8-13.14l7.82,21.23c-14.72,4.64-22.42,7.43-30.24,10.75.26,3.84.4,8,.4,11.93,0,6-.27,9.69-.4,13.27-4.25-.26-9-.26-13.27-.26a60.32,60.32,0,0,0-7.69.26,116.24,116.24,0,0,0,.93-15.12c-8.23,5-16.59,10.61-16.59,16,0,6,13.54,6.37,20.3,6.37a149.16,149.16,0,0,0,42.45-6.5A83.58,83.58,0,0,0,828,117.67a164.4,164.4,0,0,1-37,3.85c-8.89,0-43.38,0-43.38-23.48,0-15.66,21.09-28.79,35.55-36.35-2.12-5.84-6.76-6.64-9.95-6.64-13.79,0-23.08,14.86-30.38,26.67L724.38,71.24c8.76-9.29,22-27.6,26.93-35.69-7.16.27-13,.27-18.7.14l.13-19.24c4.11.4,11.81,1.06,20.83,1.06,3.85,0,5.44,0,7.56-.13,4.91-10.22,6-13.8,7-17.38Z"/><path class="cls-1" d="M875.27,121a106.78,106.78,0,0,0-26.93-22.82L861.21,84a172.78,172.78,0,0,1,29,22.29Z"/><path class="cls-1" d="M81.59,212.39V174.58l21.62.93c.66,0,1.59.4,1.59,1.32,0,1.2-1.32,1.73-2.65,2.13v33.43h21.36v19.23H102.15v43.52h25.2v18.3H50.81v-18.3H81.59V231.62H59.7V215.31c-4.25,8-5.57,10.87-10,16.45,6.76,7.69,15.78,14.19,18.57,16.18a58.8,58.8,0,0,0-12.2,14.46,74.17,74.17,0,0,1-13.8-12.2v45.9H22.69V260.81c-5.58,4.51-7.57,6.1-10.75,8.36C9.55,262.4,5.17,257.09,0,252.72c14.06-8.1,30.78-24.28,35.42-35H6.24V199.25H22.69V174.58l19.63.53c.79,0,2.12.26,2.12,1.72,0,.67-.53,1.33-2.12,2.39v20H55.05l8.49,8.23c-.39.79-2.12,4.24-2.38,4.91Z"/><path class="cls-1" d="M234.41,231.23H167.28V220.35a123.14,123.14,0,0,1-16.05,8.49c-1.59-2.26-7.16-10.22-14.72-15.92,20.16-5.84,46.43-26.67,53.72-41.26l23.62,2.92c.79.13,1.72.53,1.72,1.72,0,1.46-1.72,2.13-2.65,2.39,16.85,18.18,36.88,27.06,52.8,32-7,4.25-12.87,15.92-13.14,16.58a116.57,116.57,0,0,1-18.17-8.62Zm-88.62,42.31c3.85-.13,9-.26,20.7-.66a154.11,154.11,0,0,0,8.35-19.37H146.46V236h109v17.51H228.17a161.5,161.5,0,0,1,27.6,29.85,77.65,77.65,0,0,0-15.39,14.06,149.7,149.7,0,0,0-9.29-13.26c-15.25,2.52-44.7,6.5-76.54,8.49-1.06,2.38-1.59,3.71-3.05,3.71-1.06,0-1.6-1.19-1.73-2.12Zm80.53-59.83a175.79,175.79,0,0,1-26.14-21.35c-7.69,7.69-15.92,15.65-23.61,21.35Zm-8.49,39.8H200.58c0,1.2-.4,2-3.18,2.52-2.39,5.31-5.31,10.35-8.23,15.52,13.4-1.06,21.36-2,27.86-2.78-3.71-3.32-5.84-5.18-8.36-7.3Z"/><path class="cls-1" d="M334.27,273c28.79-5.3,37.28-27.59,37.28-41.39,0-10.74-5.7-30.51-30.64-32.5-4.11,48.55-24.15,84.77-38.21,84.77-10.35,0-29.58-17.51-29.58-42,0-28.52,26-61.82,65-61.82,29.05,0,54.39,19.76,54.39,51.47,0,6.1-.53,23.08-15.65,41-8.09,9.42-17.51,14.33-28.79,19.24A86,86,0,0,0,334.27,273Zm-41.52-32.76c0,10.21,5.71,17.9,8.49,17.9,3.19,0,5.71-6,7.17-9.41,5.7-13.14,10.08-28.39,10.21-45.64C303.23,208.81,292.75,228.31,292.75,240.25Z"/><path class="cls-1" d="M480.7,220.08h40.73v19H479.24c-5.3,38.08-34.49,51.21-44.3,55.72-7.17-10.35-13.67-14.73-16.32-16.58,15.39-5.44,35.82-15,39.27-39.14H407.48v-19h51.2V205.36a258.71,258.71,0,0,1-31.31,3.84,77,77,0,0,0-9.95-18.3c38.08,0,63.28-9.82,74.29-17.12L507.9,188a2.34,2.34,0,0,1,1.06,2c0,.93-.8,1.46-2,1.46a4.15,4.15,0,0,1-2-.53c-8.49,4.64-21.09,8.22-24.28,9.15Z"/><path class="cls-1" d="M603.86,177.63c1.73.13,2.66.27,2.66,1.46,0,1.59-1.59,2-2.66,2.39.14,4.11.14,9.55-.26,18.57h42.18c-1.19,56.38-3.71,65.53-6.89,73-3.45,8.1-10.48,20.83-37.94,19.24-.54-6.5-1.6-11.28-5.44-22a33.36,33.36,0,0,0,9.42,1.19c11.54,0,17.64,0,18.7-51.34h-22c-6.37,39.4-24.15,58.11-50.94,73.5a53.41,53.41,0,0,0-15.39-15.92c30.64-16.32,40.19-32.37,44.84-57.58h-40.2v-20h42.19a157.83,157.83,0,0,0-1.06-23.88Z"/><path class="cls-1" d="M751.51,210.93a40.33,40.33,0,0,0,11.41-1.2l12.87,9.16c-2.25,4.24-11.94,23.08-14.06,26.79C748.33,269.17,734,284.16,704,296.63c-3.71-6.24-10.35-13.27-14.46-17.12,12.21-4.24,42.45-14.72,55.59-49.21h-79.6V210.93ZM759.34,180v19H682.4V180Z"/><path class="cls-1" d="M821.76,184.4c2.52.92,3.58,1.32,3.58,2.25,0,1.19-2.66,1.46-3.58,1.59-4,11.81-8.63,26.93-8.63,54.79a46.28,46.28,0,0,0,.93,10.61c.8-1.45,4-7.29,5.57-9.94a39.05,39.05,0,0,0,10.22,10.87c-3.32,6.24-9.42,21.63-8.76,31.71l-18.83,5c-4.52-12.47-9.42-27.2-9.42-53.06,0-24,3.71-40.47,8.49-61.56Zm35,62.35a35.77,35.77,0,0,0-2,9.42c0,5.83,3.18,6.76,18.44,6.76A135.18,135.18,0,0,0,906,259.35c-2.39,9.82-2,19.77-2,21.62-9.16,1.33-24.15,1.73-33.57,1.73-19.76,0-35-3.45-35-19.64,0-1.72,0-9.28,4.38-19.5Zm-16-56.65c4,.27,9.28.66,17.24.66,21.89,0,34-3,39-4.24.14,2.12.67,13.79,1.86,20.16a197.65,197.65,0,0,1-40.86,4c-7.82,0-13-.4-17.24-.66Z"/><path class="cls-1" d="M960,274.6a18.71,18.71,0,1,1-18.71-18.7A18.8,18.8,0,0,1,960,274.6Zm-29.19,0a10.48,10.48,0,1,0,10.48-10.48A10.42,10.42,0,0,0,930.81,274.6Z"/></g></g></svg>