<svg xmlns="http://www.w3.org/2000/svg" viewBox="0 0 320 319.17"><defs><style>.cls-1{fill:#fff;}.cls-2{fill:red;}</style></defs><title>logo</title><g id="レイヤー_2" data-name="レイヤー 2"><g id="レイヤー_1-2" data-name="レイヤー 1"><path class="cls-1" d="M107.53,208.22v34.19c0,8.7-3.86,17.19-9.32,23.43l9.32,30.28H87.85l-7-21a36.39,36.39,0,0,1-6.6.63,33.54,33.54,0,0,1-33.59-33.3V208.22a33.45,33.45,0,0,1,66.89,0Z"/><path class="cls-1" d="M279.1,208.22v34.19a33.31,33.31,0,0,1-66.62,0V208.22a33.31,33.31,0,0,1,66.62,0Z"/><path class="cls-2" d="M320,0V319.17H0V0ZM279.1,242.41V208.22a33.31,33.31,0,0,0-66.62,0v34.19a33.31,33.31,0,0,0,66.62,0Zm-23-98V43.54H235.59V144.37ZM202.21,275.71v-20.5H155.28V174.92H134.87V275.71Zm0-131.35V43.54H181.74v57.67L155.28,43.54H134.87V144.36h20.41V86.6l26.46,57.76Zm-94.67-33.49V43.55H87.86v67.32a13.62,13.62,0,1,1-27.23,0V43.55h-20v67.32a33.13,33.13,0,0,0,33.61,33.51C93.11,144.38,107.54,129.79,107.54,110.87Zm0,131.54V208.22a33.45,33.45,0,0,0-66.89,0v34.19a33.54,33.54,0,0,0,33.59,33.3,36.39,36.39,0,0,0,6.6-.63l7,21h19.68l-9.32-30.28C103.67,259.6,107.53,251.11,107.53,242.41Z"/><rect class="cls-1" x="235.59" y="43.54" width="20.48" height="100.83"/><polygon class="cls-1" points="202.21 255.21 202.21 275.71 134.87 275.71 134.87 174.92 155.28 174.92 155.28 255.21 202.21 255.21"/><polygon class="cls-1" points="202.21 43.54 202.21 144.36 181.74 144.36 155.28 86.6 155.28 144.36 134.87 144.36 134.87 43.54 155.28 43.54 181.74 101.21 181.74 43.54 202.21 43.54"/><path class="cls-1" d="M107.54,43.55v67.32c0,18.92-14.43,33.51-33.29,33.51a33.13,33.13,0,0,1-33.61-33.51V43.55h20v67.32a13.62,13.62,0,1,0,27.23,0V43.55Z"/><path class="cls-2" d="M74.23,194.64a13.57,13.57,0,0,0-13.61,13.58v34.19c0,6.63,6.08,12.8,13.61,12.8s13.62-6.17,13.62-12.8V208.22A13.54,13.54,0,0,0,74.23,194.64Z"/><path class="cls-2" d="M245.79,194.64a13.6,13.6,0,0,0-13.65,13.58v34.19c0,6.63,6.12,12.8,13.65,12.8s13.66-6.17,13.66-12.8V208.22A13.63,13.63,0,0,0,245.79,194.64Z"/></g></g></svg>