<svg id="レイヤー_1" data-name="レイヤー 1" xmlns="http://www.w3.org/2000/svg" viewBox="0 0 750 290"><path d="M39.31,79.11a3.27,3.27,0,0,0-3.43,3.23,2.89,2.89,0,0,0,1.73,2.8l5.21,2.53a7.11,7.11,0,0,1,4.49,6.94,7.94,7.94,0,0,1-8.08,7.93A9,9,0,0,1,31,96.86l4.29-1.74a4.35,4.35,0,0,0,4,2.84,3.23,3.23,0,0,0,3.43-3.27A2.69,2.69,0,0,0,41,91.89l-5.2-2.53a7.26,7.26,0,0,1-4.5-6.9,8,8,0,0,1,8.09-7.92,8.7,8.7,0,0,1,8.2,5.67L43.33,82Q41.91,79.12,39.31,79.11Z"/><path d="M55,84.08a5.85,5.85,0,0,1,3.79-1.26c4.06,0,7.06,3.15,7.06,7.41v12h-4v-12a3.44,3.44,0,0,0-6.87,0v12H51V74.81h4Z"/><path d="M74.07,78.83h-4v-4h4Zm0,23.43h-4V82.82h4Z"/><path d="M82.28,84.08a5.7,5.7,0,0,1,3.79-1.26c3.35,0,7.06,2.36,7.06,7.45v12h-4v-12a3.44,3.44,0,1,0-6.87,0v12h-4V82.82h4Z"/><path d="M100.08,82.82l4.3,12.89,4.34-12.89h4l-7.93,23.58c-.79,2.41-3,3.75-5.79,3.87v-4c1.3-.11,2-.59,2.32-1.42l1.07-3.19L96.1,82.82Z"/><path d="M122.29,86.6a3.43,3.43,0,0,0-3.19,2.17l-3.67-1.54a7.42,7.42,0,0,1,14.28,2.84v12.19h-4V101a4.91,4.91,0,0,1-3.51,1.26h-1.66a5.72,5.72,0,0,1,0-11.44h5.17v-.75A3.47,3.47,0,0,0,122.29,86.6Zm-3.43,9.94a1.69,1.69,0,0,0,1.7,1.7h1.66a3.39,3.39,0,0,0,3.51-3.2v-.23h-5.17A1.69,1.69,0,0,0,118.86,96.54Z"/><path d="M153.07,102.26V88.54l-6.86-13.73h4.58L155.36,84l4.58-9.19h4.57l-6.86,13.73v13.72Z"/><path d="M174.34,86.6a3.43,3.43,0,0,0-3.19,2.17l-3.67-1.54a7.42,7.42,0,0,1,14.28,2.84v12.19h-4V101a4.88,4.88,0,0,1-3.51,1.26h-1.65a5.72,5.72,0,0,1,0-11.44h5.16v-.75A3.46,3.46,0,0,0,174.34,86.6Zm-3.43,9.94a1.69,1.69,0,0,0,1.7,1.7h1.65a3.38,3.38,0,0,0,3.51-3.2v-.23h-5.16A1.69,1.69,0,0,0,170.91,96.54Z"/><path d="M193.44,82.82a7.2,7.2,0,0,1,5.32,2.36,7.27,7.27,0,0,1,5.45-2.36,7.19,7.19,0,0,1,7.17,7.45v12h-4v-12a3.43,3.43,0,1,0-6.86,0v12h-4v-12a3.42,3.42,0,1,0-6.83,0v12h-4V82.82h4v1.26A6.14,6.14,0,0,1,193.44,82.82Z"/><path d="M222.44,86.6a3.44,3.44,0,0,0-3.2,2.17l-3.67-1.54a7.42,7.42,0,0,1,14.28,2.84v12.19h-4V101a4.9,4.9,0,0,1-3.51,1.26H220.7a5.72,5.72,0,1,1,0-11.44h5.17v-.75A3.47,3.47,0,0,0,222.44,86.6ZM219,96.54a1.68,1.68,0,0,0,1.69,1.7h1.66a3.39,3.39,0,0,0,3.51-3.2v-.23H220.7A1.68,1.68,0,0,0,219,96.54Z"/><path d="M237.75,84.08a5.7,5.7,0,0,1,3.79-1.26c3.35,0,7.05,2.36,7.05,7.45v12h-4v-12a3.43,3.43,0,1,0-6.86,0v12h-4V82.82h4Z"/><path d="M259.57,86.6a3.44,3.44,0,0,0-3.2,2.17l-3.66-1.54A7.41,7.41,0,0,1,267,90.07v12.19h-4V101a4.9,4.9,0,0,1-3.51,1.26h-1.66a5.72,5.72,0,1,1,0-11.44H263v-.75A3.47,3.47,0,0,0,259.57,86.6Zm-3.43,9.94a1.68,1.68,0,0,0,1.69,1.7h1.66A3.39,3.39,0,0,0,263,95v-.23h-5.17A1.69,1.69,0,0,0,256.14,96.54Z"/><path d="M282.37,102.26l-4.77-8.87-2.68,3.15v5.72h-4V74.81h4V91.53l7.45-8.71h4.34l-6.55,7.61L287,102.26Z"/><path d="M297.05,86.6a3.43,3.43,0,0,0-3.19,2.17l-3.67-1.54a7.42,7.42,0,0,1,14.28,2.84v12.19h-4V101a4.88,4.88,0,0,1-3.51,1.26h-1.65a5.72,5.72,0,1,1,0-11.44h5.16v-.75A3.46,3.46,0,0,0,297.05,86.6Zm-3.43,9.94a1.69,1.69,0,0,0,1.7,1.7H297a3.38,3.38,0,0,0,3.51-3.2v-.23h-5.16A1.69,1.69,0,0,0,293.62,96.54Z"/><path d="M35.55,211.08A2.52,2.52,0,0,0,33,213.6v4a2.54,2.54,0,0,0,2.53,2.51,2.46,2.46,0,0,0,2.5-2.51h1.26a4.38,4.38,0,0,1-.13,1,3.76,3.76,0,0,1-7.4-1v-4a3.76,3.76,0,0,1,7.4-1,4.39,4.39,0,0,1,.13,1H38.05A2.47,2.47,0,0,0,35.55,211.08Z"/><path d="M43,209.94v4a2.74,2.74,0,0,1,1.92-.74A3.06,3.06,0,0,1,48,216.3v4.94H46.82V216.3a1.92,1.92,0,1,0-3.83,0v4.94H41.85v-11.3Z"/><path d="M53.5,214.3a1.91,1.91,0,0,0-1.75,1.19l-1.07-.44a3.06,3.06,0,0,1,5.89,1.18v5H55.41v-1a2.28,2.28,0,0,1-1.92,1H52.8a2.35,2.35,0,1,1,0-4.7h2.62v-.31A2,2,0,0,0,53.5,214.3Zm-1.9,4.59a1.2,1.2,0,0,0,1.2,1.2h.69a2.16,2.16,0,0,0,1.93-2.41H52.8A1.21,1.21,0,0,0,51.6,218.89Z"/><path d="M60.57,211.3H59.21V210h1.36Zm-.12,9.94H59.31v-8h1.14Z"/><path d="M64.45,213.24V214a2.69,2.69,0,0,1,1.9-.74,3.08,3.08,0,0,1,2.19.9l-.82.84a1.81,1.81,0,0,0-1.37-.6,1.93,1.93,0,0,0-1.9,1.92v4.94H63.31v-8Z"/><path d="M74,213.23a3.11,3.11,0,0,1,2.5,1.28,3,3,0,0,1,2.5-1.28,3.07,3.07,0,0,1,3,3.07v4.94H80.87V216.3a1.93,1.93,0,1,0-3.85,0v4.94H75.88v-5a1.93,1.93,0,0,0-3.85,0v4.94H70.9v-8H72V214A2.66,2.66,0,0,1,74,213.23Z"/><path d="M87.52,214.3a1.92,1.92,0,0,0-1.75,1.19l-1.07-.44a3.06,3.06,0,0,1,5.89,1.18v5H89.43v-1a2.27,2.27,0,0,1-1.92,1h-.68a2.35,2.35,0,1,1,0-4.7h2.62v-.31A2,2,0,0,0,87.52,214.3Zm-1.9,4.59a1.21,1.21,0,0,0,1.21,1.2h.68a2.16,2.16,0,0,0,1.94-2.41H86.83A1.21,1.21,0,0,0,85.62,218.89Z"/><path d="M94.47,213.24V214a2.7,2.7,0,0,1,1.91-.74,3.06,3.06,0,0,1,3.06,3.06v4.94H98.3V216.3a1.92,1.92,0,1,0-3.83,0v4.94H93.33v-8Z"/><path d="M103.6,221.24l-1.36,1.36v-2.72h1.36Z"/><path d="M120.88,213.71a3.76,3.76,0,0,1-3.77,3.76h-2.52v3.77h-1.25V210h3.77A3.74,3.74,0,0,1,120.88,213.71Zm-1.25,0a2.51,2.51,0,0,0-2.52-2.52h-2.52v5h2.52A2.53,2.53,0,0,0,119.63,213.71Z"/><path d="M124.48,213.24V214a2.69,2.69,0,0,1,1.9-.74,3.12,3.12,0,0,1,2.2.9l-.83.84a1.8,1.8,0,0,0-1.37-.6,1.94,1.94,0,0,0-1.9,1.92v4.94h-1.14v-8Z"/><path d="M133.58,220.17a1.87,1.87,0,0,0,1.4-.61l.81.82a3,3,0,0,1-2.21.94,3.06,3.06,0,0,1-3.05-3.07v-2a3.06,3.06,0,1,1,6.11,0v1.16h-5v.87A1.94,1.94,0,0,0,133.58,220.17Zm0-5.87a1.91,1.91,0,0,0-1.92,2h3.83A1.93,1.93,0,0,0,133.59,214.3Z"/><path d="M141.41,220.21a1.14,1.14,0,0,0,1.15-1.14,1.38,1.38,0,0,0-1-1.26l-.84-.37c-1.3-.57-1.8-1.34-1.8-2.18a2.2,2.2,0,0,1,2.3-2.11,2.88,2.88,0,0,1,2.65,1.65l-1,.49a1.88,1.88,0,0,0-1.62-1,1.05,1.05,0,0,0-1.14,1c0,.37.26.75,1,1.09l.94.42a2.32,2.32,0,0,1,1.67,2.25,2.25,2.25,0,0,1-2.34,2.27,2.88,2.88,0,0,1-2.63-1.65l1-.51A2,2,0,0,0,141.41,220.21Z"/><path d="M147.55,211.3h-1.36V210h1.36Zm-.12,9.94h-1.14v-8h1.14Z"/><path d="M155,220.49a2.69,2.69,0,0,1-1.91.75,3.07,3.07,0,0,1-3.07-3.05V216.3a3.06,3.06,0,0,1,3.07-3.06A2.7,2.7,0,0,1,155,214v-4h1.14v11.3H155Zm-1.91-.4a1.92,1.92,0,0,0,1.91-1.9V216.3a1.92,1.92,0,1,0-3.83,0v1.89A1.92,1.92,0,0,0,153.05,220.09Z"/><path d="M161.73,220.17a1.87,1.87,0,0,0,1.4-.61l.81.82a2.93,2.93,0,0,1-2.21.94,3.06,3.06,0,0,1-3-3.07v-2a3.06,3.06,0,1,1,6.12,0v1.16h-5v.87A1.93,1.93,0,0,0,161.73,220.17Zm0-5.87a1.9,1.9,0,0,0-1.92,2h3.82A1.92,1.92,0,0,0,161.75,214.3Z"/><path d="M168.41,213.24V214a2.7,2.7,0,0,1,1.91-.74,3.06,3.06,0,0,1,3.06,3.06v4.94h-1.14V216.3a1.92,1.92,0,1,0-3.83,0v4.94h-1.14v-8Z"/><path d="M178.66,220.09h.3v1.15h-.31a2.07,2.07,0,0,1-2.09-2.09v-4.77h-.94v-1.14h.94v-3.3h1.15v3.3h1.61v1.14h-1.61v4.77A.93.93,0,0,0,178.66,220.09Z"/><path d="M191.6,214.3a1.92,1.92,0,0,0-1.76,1.19l-1.06-.44a3.06,3.06,0,0,1,5.89,1.18v5H193.5v-1a2.27,2.27,0,0,1-1.92,1h-.68a2.35,2.35,0,1,1,0-4.7h2.62v-.31A2,2,0,0,0,191.6,214.3Zm-1.9,4.59a1.2,1.2,0,0,0,1.2,1.2h.68a2.16,2.16,0,0,0,1.94-2.41H190.9A1.2,1.2,0,0,0,189.7,218.89Z"/><path d="M198.55,213.24V214a2.67,2.67,0,0,1,1.9-.74,3.07,3.07,0,0,1,3.07,3.06v4.94h-1.15V216.3a1.91,1.91,0,1,0-3.82,0v4.94H197.4v-8Z"/><path d="M211,220.49a2.71,2.71,0,0,1-1.92.75,3.07,3.07,0,0,1-3.07-3.05V216.3a3.07,3.07,0,0,1,3.07-3.06A2.74,2.74,0,0,1,211,214v-4h1.13v11.3H211Zm-1.92-.4a1.93,1.93,0,0,0,1.92-1.9V216.3a1.92,1.92,0,1,0-3.84,0v1.89A1.93,1.93,0,0,0,209.08,220.09Z"/><path d="M225.35,211.08a2.51,2.51,0,0,0-2.52,2.52v4a2.53,2.53,0,0,0,2.52,2.51,2.46,2.46,0,0,0,2.51-2.51h1.26a4.38,4.38,0,0,1-.13,1,3.76,3.76,0,0,1-7.4-1v-4a3.76,3.76,0,0,1,7.4-1,4.39,4.39,0,0,1,.13,1h-1.26A2.47,2.47,0,0,0,225.35,211.08Z"/><path d="M233,215h4.4v1.25H233V220h6.28v1.25h-7.53V209.93h7.53v1.25H233Z"/><path d="M245.14,209.83a3.75,3.75,0,0,1,3.77,3.76v4a3.77,3.77,0,0,1-7.53,0v-4A3.76,3.76,0,0,1,245.14,209.83Zm0,1.25a2.51,2.51,0,0,0-2.52,2.51v4a2.52,2.52,0,0,0,5,0v-4A2.51,2.51,0,0,0,245.14,211.08Z"/><path d="M266.05,211.19h-6.28V215h4.4v1.24h-4.4v5h-1.25V210h7.53Z"/><path d="M270.39,214.3a1.92,1.92,0,0,0-1.76,1.19l-1.07-.44a3.06,3.06,0,0,1,5.89,1.18v5h-1.16v-1a2.27,2.27,0,0,1-1.92,1h-.68a2.35,2.35,0,1,1,0-4.7h2.62v-.31A2,2,0,0,0,270.39,214.3Zm-1.91,4.59a1.21,1.21,0,0,0,1.21,1.2h.68a2.16,2.16,0,0,0,1.94-2.41h-2.62A1.21,1.21,0,0,0,268.48,218.89Z"/><path d="M278.41,220.21a1.14,1.14,0,0,0,1.15-1.14,1.38,1.38,0,0,0-1-1.26l-.84-.37c-1.3-.57-1.8-1.34-1.8-2.18a2.2,2.2,0,0,1,2.3-2.11,2.89,2.89,0,0,1,2.65,1.65l-1,.49a1.89,1.89,0,0,0-1.63-1,1,1,0,0,0-1.13,1c0,.37.26.75,1,1.09l.94.42a2.32,2.32,0,0,1,1.67,2.25,2.25,2.25,0,0,1-2.34,2.27,2.91,2.91,0,0,1-2.64-1.65l1-.51A2,2,0,0,0,278.41,220.21Z"/><path d="M286.13,220.09h.29v1.15h-.3a2.07,2.07,0,0,1-2.09-2.09v-4.77h-.94v-1.14H284v-3.3h1.15v3.3h1.61v1.14h-1.61v4.77A.93.93,0,0,0,286.13,220.09Z"/><path d="M302.54,221.24,300.41,217h-2.8v4.27h-1.24V210h4a3.51,3.51,0,0,1,1.28,6.78l2.24,4.51Zm.12-7.79a2.28,2.28,0,0,0-2.28-2.26h-2.77v4.53h2.77A2.28,2.28,0,0,0,302.66,213.45Z"/><path d="M309.05,220.17a1.87,1.87,0,0,0,1.4-.61l.81.82a3,3,0,0,1-2.21.94,3.06,3.06,0,0,1-3.05-3.07v-2a3.06,3.06,0,1,1,6.11,0v1.16h-5v.87A1.94,1.94,0,0,0,309.05,220.17Zm0-5.87a1.91,1.91,0,0,0-1.92,2H311A1.92,1.92,0,0,0,309.06,214.3Z"/><path d="M317.3,220.09h.29v1.15h-.3a2.07,2.07,0,0,1-2.09-2.09v-4.77h-.94v-1.14h.94v-3.3h1.15v3.3H318v1.14h-1.61v4.77A.93.93,0,0,0,317.3,220.09Z"/><path d="M323.17,214.3a1.93,1.93,0,0,0-1.76,1.19l-1.06-.44a3.06,3.06,0,0,1,5.89,1.18v5h-1.17v-1a2.26,2.26,0,0,1-1.92,1h-.68a2.35,2.35,0,1,1,0-4.7h2.62v-.31A2,2,0,0,0,323.17,214.3Zm-1.9,4.59a1.2,1.2,0,0,0,1.2,1.2h.68a2.16,2.16,0,0,0,1.94-2.41h-2.62A1.2,1.2,0,0,0,321.27,218.89Z"/><path d="M330.23,211.3h-1.35V210h1.35Zm-.11,9.94H329v-8h1.15Z"/><path d="M335.06,220.09h.47v1.15h-.47a2.07,2.07,0,0,1-2.09-2.09v-9.21h1.14v9.21A1,1,0,0,0,335.06,220.09Z"/><path d="M339.06,211.3H337.7V210h1.36Zm-.12,9.94H337.8v-8h1.14Z"/><path d="M342.94,213.24V214a2.7,2.7,0,0,1,1.91-.74,3.06,3.06,0,0,1,3.06,3.06v4.94h-1.14V216.3a1.92,1.92,0,1,0-3.83,0v4.94H341.8v-8Z"/><path d="M353.5,224.53a3,3,0,0,1-2.18-.91l.78-.86a1.91,1.91,0,0,0,1.4.62,2,2,0,0,0,1.92-1.92v-1a2.75,2.75,0,0,1-1.92.75,3.07,3.07,0,0,1-3.06-3.07V216.3a3.1,3.1,0,0,1,3.06-3.06,2.6,2.6,0,0,1,1.92.74v-.74h1.13v8.22A3.07,3.07,0,0,1,353.5,224.53Zm0-10.15a2,2,0,0,0-1.92,1.92v1.87a1.92,1.92,0,0,0,3.84,0V216.3A2,2,0,0,0,353.5,214.38Z"/><path d="M369.73,211.08a2.51,2.51,0,0,0-2.52,2.52v4a2.53,2.53,0,0,0,2.52,2.51,2.46,2.46,0,0,0,2.51-2.51h1.25a3.89,3.89,0,0,1-.12,1,3.77,3.77,0,0,1-7.41-1v-4a3.77,3.77,0,0,1,7.41-1,3.91,3.91,0,0,1,.12,1h-1.25A2.47,2.47,0,0,0,369.73,211.08Z"/><path d="M379,221.32a3.06,3.06,0,0,1-3.07-3.07v-2a3.06,3.06,0,1,1,6.12,0v2A3,3,0,0,1,379,221.32Zm0-1.15a1.93,1.93,0,0,0,1.9-1.92v-2a1.91,1.91,0,1,0-3.82,0v2A1.94,1.94,0,0,0,379,220.17Z"/><path d="M385.77,221.24h-1.35v-1.36h1.35Z"/><path d="M389.86,221.24l-1.36,1.36v-2.72h1.36Z"/><path d="M400.88,220h6.28v1.25h-7.53v-11.3h1.25Z"/><path d="M412.08,220.09h.29v1.15h-.3a2.07,2.07,0,0,1-2.09-2.09v-4.77H409v-1.14H410v-3.3h1.15v3.3h1.61v1.14h-1.61v4.77A.93.93,0,0,0,412.08,220.09Z"/><path d="M419.83,220.49a2.71,2.71,0,0,1-1.92.75,3.06,3.06,0,0,1-3.06-3.05V216.3a3.06,3.06,0,0,1,3.06-3.06,2.74,2.74,0,0,1,1.92.74v-4H421v11.3h-1.13Zm-1.92-.4a1.93,1.93,0,0,0,1.92-1.9V216.3a1.92,1.92,0,1,0-3.84,0v1.89A1.93,1.93,0,0,0,417.91,220.09Z"/><path d="M425.11,221.24h-1.35v-1.36h1.35Z"/><path d="M32.23,129H31v-11.3h1.29l2.85,7.89L38,117.69h1.29V129H38.14v-8.38l-2.32,6.49H34.55l-2.32-6.49Z"/><path d="M44.45,127.92a1.83,1.83,0,0,0,1.4-.62l.81.83a2.93,2.93,0,0,1-2.21.94A3.07,3.07,0,0,1,41.4,126v-2a3.06,3.06,0,1,1,6.12,0v1.15h-5V126A1.93,1.93,0,0,0,44.45,127.92Zm0-5.88a1.9,1.9,0,0,0-1.92,2h3.82A1.92,1.92,0,0,0,44.47,122Z"/><path d="M54.26,128.24a2.68,2.68,0,0,1-1.91.74,3.06,3.06,0,0,1-3.07-3v-1.88A3.07,3.07,0,0,1,52.35,121a2.7,2.7,0,0,1,1.91.74v-4H55.4V129H54.26Zm-1.91-.4a1.92,1.92,0,0,0,1.91-1.91v-1.88a1.92,1.92,0,1,0-3.83,0v1.88A1.92,1.92,0,0,0,52.35,127.84Z"/><path d="M58.92,119.05H57.57v-1.36h1.35ZM58.81,129H57.66v-8h1.15Z"/><path d="M63.88,122A1.93,1.93,0,0,0,62,124v2a1.93,1.93,0,0,0,1.9,1.92A1.91,1.91,0,0,0,65.8,126H67a3,3,0,0,1-3.07,3.07A3.07,3.07,0,0,1,60.83,126v-2a3.07,3.07,0,0,1,3.05-3.06A3,3,0,0,1,67,124H65.8A1.92,1.92,0,0,0,63.88,122Z"/><path d="M71.79,122a1.92,1.92,0,0,0-1.75,1.2L69,122.8A3.06,3.06,0,0,1,74.86,124v5H73.7v-1a2.27,2.27,0,0,1-1.92,1h-.69a2.35,2.35,0,0,1,0-4.7h2.62V124A2,2,0,0,0,71.79,122Zm-1.9,4.59a1.21,1.21,0,0,0,1.2,1.21h.69a2.16,2.16,0,0,0,1.93-2.41H71.09A1.2,1.2,0,0,0,69.89,126.63Z"/><path d="M79.12,127.84h.47V129h-.47A2.07,2.07,0,0,1,77,126.9v-9.21h1.14v9.21A1,1,0,0,0,79.12,127.84Z"/><path d="M90.59,127.85a1.85,1.85,0,0,0,1.92-2c0-.85-.45-1.43-1.54-1.9l-1.6-.7c-1.49-.65-2.15-1.54-2.15-2.78a2.92,2.92,0,0,1,3.11-2.93A3.94,3.94,0,0,1,94,119.83l-1.13.5a2.87,2.87,0,0,0-2.52-1.51,1.71,1.71,0,0,0-1.89,1.64c0,.73.38,1.22,1.4,1.66l1.68.73a3.12,3.12,0,0,1,2.21,3.05,3.06,3.06,0,0,1-3.21,3.2A3.87,3.87,0,0,1,87,126.76l1.14-.43A2.74,2.74,0,0,0,90.59,127.85Z"/><path d="M98.72,122a1.93,1.93,0,0,0-1.9,1.92v2a1.91,1.91,0,1,0,3.82,0h1.15a3.06,3.06,0,1,1-6.12,0v-2a3.06,3.06,0,1,1,6.12,0h-1.15A1.93,1.93,0,0,0,98.72,122Z"/><path d="M105,119.05h-1.36v-1.36H105Zm-.12,9.94h-1.14v-8h1.14Z"/><path d="M110,127.92a1.84,1.84,0,0,0,1.4-.62l.81.83a3,3,0,0,1-2.21.94,3.07,3.07,0,0,1-3-3.07v-2a3.06,3.06,0,1,1,6.11,0v1.15h-5V126A1.93,1.93,0,0,0,110,127.92Zm0-5.88a1.92,1.92,0,0,0-1.92,2h3.83A1.93,1.93,0,0,0,110,122Z"/><path d="M116.09,121v.74A2.69,2.69,0,0,1,118,121a3.07,3.07,0,0,1,3.07,3.07V129h-1.15v-4.94a1.91,1.91,0,1,0-3.82,0V129h-1.15v-8Z"/><path d="M125.78,127.84h.29V129h-.3a2.07,2.07,0,0,1-2.09-2.09v-4.76h-.94V121h.94v-3.29h1.15V121h1.6v1.15h-1.6v4.76A.94.94,0,0,0,125.78,127.84Z"/><path d="M129.66,119.05h-1.35v-1.36h1.35Zm-.11,9.94H128.4v-8h1.15Z"/><path d="M134,128a1.14,1.14,0,0,0,1.15-1.14,1.39,1.39,0,0,0-1-1.25l-.85-.37c-1.29-.57-1.79-1.34-1.79-2.19a2.18,2.18,0,0,1,2.3-2.1,2.86,2.86,0,0,1,2.64,1.65l-1,.49a1.85,1.85,0,0,0-1.62-1,1.06,1.06,0,0,0-1.13,1c0,.37.25.75,1,1.09l.94.42a2.31,2.31,0,0,1,1.68,2.25,2.25,2.25,0,0,1-2.34,2.27,2.92,2.92,0,0,1-2.64-1.66l1-.5A2,2,0,0,0,134,128Z"/><path d="M141.2,127.84h.29V129h-.3a2.07,2.07,0,0,1-2.09-2.09v-4.76h-.94V121h.94v-3.29h1.15V121h1.6v1.15h-1.6v4.76A.94.94,0,0,0,141.2,127.84Z"/><path d="M151,129h-1.25l3.46-11.3h1.25Z"/><path d="M170.24,121.45v3.77a3.74,3.74,0,0,1-3.77,3.76h-3.76V117.69h3.76A3.75,3.75,0,0,1,170.24,121.45ZM169,125.22v-3.77a2.51,2.51,0,0,0-2.52-2.51H164v8.8h2.52A2.51,2.51,0,0,0,169,125.22Z"/><path d="M173.58,119.05h-1.36v-1.36h1.36Zm-.11,9.94h-1.15v-8h1.15Z"/><path d="M176.91,121v.74a2.67,2.67,0,0,1,1.9-.74,3.11,3.11,0,0,1,2.19.91l-.83.84a1.76,1.76,0,0,0-1.36-.6,1.93,1.93,0,0,0-1.9,1.92V129h-1.15v-8Z"/><path d="M185.44,127.92a1.84,1.84,0,0,0,1.4-.62l.81.83a3,3,0,0,1-2.21.94,3.07,3.07,0,0,1-3.05-3.07v-2a3.06,3.06,0,1,1,6.11,0v1.15h-5V126A1.94,1.94,0,0,0,185.44,127.92Zm0-5.88a1.92,1.92,0,0,0-1.92,2h3.83A1.93,1.93,0,0,0,185.45,122Z"/><path d="M193.36,122a1.94,1.94,0,0,0-1.91,1.92v2a1.94,1.94,0,0,0,1.91,1.92,1.91,1.91,0,0,0,1.92-1.92h1.14a3.06,3.06,0,1,1-6.11,0v-2a3.06,3.06,0,1,1,6.11,0h-1.14A1.93,1.93,0,0,0,193.36,122Z"/><path d="M201.05,127.84h.29V129H201a2.07,2.07,0,0,1-2.09-2.09v-4.76H198V121H199v-3.29h1.15V121h1.6v1.15h-1.6v4.76A.94.94,0,0,0,201.05,127.84Z"/><path d="M206.38,129.07a3.07,3.07,0,0,1-3.07-3.07v-2a3.06,3.06,0,1,1,6.12,0v2A3,3,0,0,1,206.38,129.07Zm0-1.15a1.93,1.93,0,0,0,1.9-1.92v-2a1.91,1.91,0,1,0-3.82,0v2A2,2,0,0,0,206.38,127.92Z"/><path d="M212.59,121v.74a2.69,2.69,0,0,1,1.9-.74,3.13,3.13,0,0,1,2.2.91l-.83.84a1.76,1.76,0,0,0-1.37-.6,1.94,1.94,0,0,0-1.9,1.92V129h-1.14v-8Z"/><path d="M227.6,129.07a3.07,3.07,0,0,1-3.06-3.07v-2a3.06,3.06,0,1,1,6.11,0v2A3,3,0,0,1,227.6,129.07Zm0-1.15a1.93,1.93,0,0,0,1.91-1.92v-2a1.92,1.92,0,1,0-3.83,0v2A2,2,0,0,0,227.6,127.92Z"/><path d="M233.23,129v-6.6h-.94v-1.14h.94v-1.47a2.08,2.08,0,0,1,2.1-2.09h.94v1.15h-1a.92.92,0,0,0-.94.94v1.47H236v1.14h-1.62V129Z"/><path d="M247.28,127.84h.29V129h-.3a2.07,2.07,0,0,1-2.09-2.09v-4.76h-.94V121h.94v-3.29h1.15V121h1.6v1.15h-1.6v4.76A.94.94,0,0,0,247.28,127.84Z"/><path d="M251,117.69v4a2.71,2.71,0,0,1,1.92-.74,3.07,3.07,0,0,1,3.05,3.07V129h-1.15v-4.94a1.91,1.91,0,1,0-3.82,0V129h-1.15v-11.3Z"/><path d="M261,127.92a1.84,1.84,0,0,0,1.4-.62l.81.83a3,3,0,0,1-2.21.94,3.07,3.07,0,0,1-3-3.07v-2a3.06,3.06,0,1,1,6.11,0v1.15h-5V126A1.93,1.93,0,0,0,261,127.92Zm0-5.88a1.92,1.92,0,0,0-1.92,2h3.83A1.93,1.93,0,0,0,261,122Z"/><path d="M276,118.82a2.51,2.51,0,0,0-2.52,2.52v4a2.53,2.53,0,0,0,2.52,2.52,2.46,2.46,0,0,0,2.5-2.52h1.26a3.88,3.88,0,0,1-.13,1,3.76,3.76,0,0,1-7.4-1v-4a3.77,3.77,0,0,1,7.53,0h-1.26A2.47,2.47,0,0,0,276,118.82Z"/><path d="M284.65,127.92a1.81,1.81,0,0,0,1.4-.62l.81.83a2.93,2.93,0,0,1-2.21.94,3.07,3.07,0,0,1-3-3.07v-2a3.06,3.06,0,1,1,6.12,0v1.15h-5V126A1.93,1.93,0,0,0,284.65,127.92Zm0-5.88a1.91,1.91,0,0,0-1.92,2h3.82A1.92,1.92,0,0,0,284.67,122Z"/><path d="M290.78,121v.74a2.67,2.67,0,0,1,1.9-.74,3.08,3.08,0,0,1,3.07,3.07V129H294.6v-4.94a1.91,1.91,0,1,0-3.82,0V129h-1.15v-8Z"/><path d="M300.47,127.84h.29V129h-.3a2.07,2.07,0,0,1-2.09-2.09v-4.76h-.94V121h.94v-3.29h1.14V121h1.61v1.15h-1.61v4.76A1,1,0,0,0,300.47,127.84Z"/><path d="M305.78,127.92a1.81,1.81,0,0,0,1.4-.62l.81.83a2.93,2.93,0,0,1-2.21.94,3.07,3.07,0,0,1-3-3.07v-2a3.06,3.06,0,1,1,6.12,0v1.15h-5V126A1.93,1.93,0,0,0,305.78,127.92Zm0-5.88a1.91,1.91,0,0,0-1.92,2h3.82A1.92,1.92,0,0,0,305.8,122Z"/><path d="M311.91,121v.74a2.67,2.67,0,0,1,1.9-.74,3.09,3.09,0,0,1,2.19.91l-.83.84a1.76,1.76,0,0,0-1.36-.6,1.93,1.93,0,0,0-1.9,1.92V129h-1.15v-8Z"/><path d="M324.79,129v-6.6h-.94v-1.14h.94v-1.47a2.08,2.08,0,0,1,2.09-2.09h.95v1.15h-.95a.92.92,0,0,0-.94.94v1.47h1.62v1.14h-1.62V129Z"/><path d="M332.34,129.07a3.08,3.08,0,0,1-3.07-3.07v-2a3.06,3.06,0,1,1,6.12,0v2A3,3,0,0,1,332.34,129.07Zm0-1.15a1.93,1.93,0,0,0,1.9-1.92v-2a1.91,1.91,0,1,0-3.82,0v2A2,2,0,0,0,332.34,127.92Z"/><path d="M338.56,121v.74a2.67,2.67,0,0,1,1.9-.74,3.11,3.11,0,0,1,2.19.91l-.83.84a1.76,1.76,0,0,0-1.36-.6,1.93,1.93,0,0,0-1.9,1.92V129h-1.15v-8Z"/><path d="M352.05,119.05H350.7v-1.36h1.35Zm-.11,9.94h-1.15v-8h1.15Z"/><path d="M361.79,121.46a3.76,3.76,0,0,1-3.76,3.76h-2.52V129h-1.25v-11.3H358A3.74,3.74,0,0,1,361.79,121.46Zm-1.24,0a2.51,2.51,0,0,0-2.52-2.52h-2.52v5H358A2.54,2.54,0,0,0,360.55,121.46Z"/><path d="M367,127.85a1.85,1.85,0,0,0,1.92-2c0-.85-.45-1.43-1.54-1.9l-1.6-.7c-1.49-.65-2.15-1.54-2.15-2.78a2.92,2.92,0,0,1,3.11-2.93,3.94,3.94,0,0,1,3.67,2.25l-1.13.5a2.87,2.87,0,0,0-2.52-1.51,1.71,1.71,0,0,0-1.89,1.64c0,.73.38,1.22,1.4,1.66l1.68.73a3.13,3.13,0,0,1,2.22,3.05,3.07,3.07,0,0,1-3.21,3.2,3.88,3.88,0,0,1-3.57-2.34l1.15-.43A2.72,2.72,0,0,0,367,127.85Z"/><path d="M382.2,118.82a2.51,2.51,0,0,0-2.52,2.52v4a2.53,2.53,0,0,0,2.52,2.52,2.47,2.47,0,0,0,2.51-2.52H386a3.47,3.47,0,0,1-.13,1,3.76,3.76,0,0,1-7.4-1v-4a3.76,3.76,0,0,1,7.4-1,3.35,3.35,0,0,1,.13,1h-1.25A2.48,2.48,0,0,0,382.2,118.82Z"/><path d="M390.88,127.92a1.81,1.81,0,0,0,1.4-.62l.81.83a2.93,2.93,0,0,1-2.21.94,3.07,3.07,0,0,1-3.05-3.07v-2a3.06,3.06,0,1,1,6.12,0v1.15h-5V126A1.93,1.93,0,0,0,390.88,127.92Zm0-5.88a1.91,1.91,0,0,0-1.92,2h3.82A1.92,1.92,0,0,0,390.9,122Z"/><path d="M398,127.84h.47V129H398a2.07,2.07,0,0,1-2.09-2.08v-9.21H397v9.21A.94.94,0,0,0,398,127.84Z"/><path d="M402.2,127.84h.47V129h-.47a2.07,2.07,0,0,1-2.09-2.08v-9.21h1.15v9.21A.94.94,0,0,0,402.2,127.84Z"/><path d="M416.79,129l-2.13-4.27h-2.79V129h-1.25v-11.3h4a3.51,3.51,0,0,1,1.29,6.78l2.23,4.52Zm.12-7.79a2.28,2.28,0,0,0-2.28-2.26h-2.76v4.53h2.76A2.28,2.28,0,0,0,416.91,121.2Z"/><path d="M422.74,127.92a1.84,1.84,0,0,0,1.4-.62l.81.83a3,3,0,0,1-2.21.94,3.07,3.07,0,0,1-3.05-3.07v-2a3.06,3.06,0,1,1,6.12,0v1.15h-5V126A1.94,1.94,0,0,0,422.74,127.92Zm0-5.88a1.92,1.92,0,0,0-1.92,2h3.83A1.93,1.93,0,0,0,422.75,122Z"/><path d="M430,128a1.13,1.13,0,0,0,1.15-1.14,1.37,1.37,0,0,0-1-1.25l-.84-.37c-1.29-.57-1.79-1.34-1.79-2.19a2.18,2.18,0,0,1,2.29-2.1,2.87,2.87,0,0,1,2.65,1.65l-1,.49a1.86,1.86,0,0,0-1.62-1,1.06,1.06,0,0,0-1.14,1c0,.37.26.75,1,1.09l.94.42a2.31,2.31,0,0,1,1.67,2.25,2.25,2.25,0,0,1-2.33,2.27,2.89,2.89,0,0,1-2.64-1.66l1-.5A2,2,0,0,0,430,128Z"/><path d="M437.15,127.92a1.84,1.84,0,0,0,1.4-.62l.81.83a3,3,0,0,1-2.21.94,3.07,3.07,0,0,1-3-3.07v-2a3.06,3.06,0,1,1,6.11,0v1.15h-5V126A1.93,1.93,0,0,0,437.15,127.92Zm0-5.88a1.92,1.92,0,0,0-1.92,2h3.83A1.93,1.93,0,0,0,437.16,122Z"/><path d="M444.87,122a1.92,1.92,0,0,0-1.75,1.2l-1.07-.44a3.06,3.06,0,0,1,5.89,1.17v5h-1.16v-1a2.27,2.27,0,0,1-1.92,1h-.69a2.35,2.35,0,0,1,0-4.7h2.62V124A2,2,0,0,0,444.87,122Zm-1.9,4.59a1.21,1.21,0,0,0,1.2,1.21h.69a2.16,2.16,0,0,0,1.93-2.41h-2.62A1.2,1.2,0,0,0,443,126.63Z"/><path d="M451.26,121v.74a2.69,2.69,0,0,1,1.9-.74,3.09,3.09,0,0,1,2.19.91l-.83.84a1.74,1.74,0,0,0-1.36-.6,1.93,1.93,0,0,0-1.9,1.92V129h-1.15v-8Z"/><path d="M459.79,122a1.93,1.93,0,0,0-1.91,1.92v2a1.92,1.92,0,1,0,3.83,0h1.14a3.06,3.06,0,1,1-6.11,0v-2a3.06,3.06,0,1,1,6.11,0h-1.14A1.93,1.93,0,0,0,459.79,122Z"/><path d="M465.94,117.69v4a2.74,2.74,0,0,1,1.92-.74,3.07,3.07,0,0,1,3.05,3.07V129h-1.15v-4.94a1.91,1.91,0,1,0-3.82,0V129h-1.15v-11.3Z"/><path d="M33.75,140a1.93,1.93,0,0,0-1.75,1.2l-1.07-.44A3.06,3.06,0,0,1,36.82,142v5H35.66v-1a2.26,2.26,0,0,1-1.92,1h-.68a2.35,2.35,0,0,1,0-4.7h2.62V142A2,2,0,0,0,33.75,140Zm-1.9,4.59a1.21,1.21,0,0,0,1.21,1.21h.68a2.16,2.16,0,0,0,1.94-2.41H33.06A1.21,1.21,0,0,0,31.85,144.63Z"/><path d="M40.14,139v.74a2.7,2.7,0,0,1,1.91-.74,3.07,3.07,0,0,1,3.06,3.07V147H44v-4.94a1.92,1.92,0,1,0-3.83,0V147H39v-8Z"/><path d="M52,146.24a2.72,2.72,0,0,1-1.92.74,3.06,3.06,0,0,1-3.07-3v-1.88A3.07,3.07,0,0,1,50.12,139a2.74,2.74,0,0,1,1.92.74v-4h1.13V147H52Zm-1.92-.4A1.94,1.94,0,0,0,52,143.93v-1.88a1.92,1.92,0,1,0-3.84,0v1.88A1.94,1.94,0,0,0,50.12,145.84Z"/><path d="M62.54,147H61.23l4-11.3H66.5l4,11.3H69.2l-.88-2.52h-4.9Zm1.32-3.77h4l-2-5.83Z"/><path d="M73.43,139.72a2.74,2.74,0,0,1,1.92-.74,3.08,3.08,0,0,1,3.07,3.07v1.87A3.07,3.07,0,0,1,75.35,147a2.74,2.74,0,0,1-1.92-.74v4H72.3V139h1.13Zm1.92.41a2,2,0,0,0-1.92,1.92v1.87a1.92,1.92,0,1,0,3.84,0v-1.87A2,2,0,0,0,75.35,140.13Z"/><path d="M81.51,139.72a2.74,2.74,0,0,1,1.92-.74,3.08,3.08,0,0,1,3.07,3.07v1.87A3.07,3.07,0,0,1,83.43,147a2.74,2.74,0,0,1-1.92-.74v4H80.38V139h1.13Zm1.92.41a2,2,0,0,0-1.92,1.92v1.87a1.92,1.92,0,0,0,3.84,0v-1.87A2,2,0,0,0,83.43,140.13Z"/><path d="M90.61,145.84h.47V147h-.47a2.07,2.07,0,0,1-2.09-2.08v-9.21h1.14v9.21A1,1,0,0,0,90.61,145.84Z"/><path d="M94.05,137.05H92.69v-1.36h1.36ZM93.93,147H92.79v-8h1.14Z"/><path d="M99,140A1.93,1.93,0,0,0,97.1,142v2a1.92,1.92,0,1,0,3.83,0h1.14A3.06,3.06,0,1,1,96,144v-2a3.06,3.06,0,1,1,6.11,0h-1.14A1.93,1.93,0,0,0,99,140Z"/><path d="M106.91,140a1.93,1.93,0,0,0-1.75,1.2l-1.07-.44A3.06,3.06,0,0,1,110,142v5h-1.16v-1a2.26,2.26,0,0,1-1.92,1h-.69a2.35,2.35,0,0,1,0-4.7h2.62V142A2,2,0,0,0,106.91,140Zm-1.9,4.59a1.21,1.21,0,0,0,1.2,1.21h.69a2.16,2.16,0,0,0,1.93-2.41h-2.62A1.2,1.2,0,0,0,105,144.63Z"/><path d="M114.69,145.84H115V147h-.3a2.07,2.07,0,0,1-2.09-2.09v-4.76h-.94V139h.94v-3.29h1.15V139h1.6v1.15h-1.6v4.76A.94.94,0,0,0,114.69,145.84Z"/><path d="M118.57,137.05h-1.35v-1.36h1.35Zm-.11,9.94h-1.15v-8h1.15Z"/><path d="M123.55,147.07a3.08,3.08,0,0,1-3.07-3.07v-2a3.06,3.06,0,1,1,6.12,0v2A3,3,0,0,1,123.55,147.07Zm0-1.15a1.93,1.93,0,0,0,1.9-1.92v-2a1.91,1.91,0,1,0-3.82,0v2A2,2,0,0,0,123.55,145.92Z"/><path d="M129.77,139v.74a2.67,2.67,0,0,1,1.9-.74,3.08,3.08,0,0,1,3.07,3.07V147h-1.15v-4.94a1.91,1.91,0,1,0-3.82,0V147h-1.15v-8Z"/><path d="M143.21,143.81v-4.94a3.16,3.16,0,0,1,3.18-3.18v1.25a1.92,1.92,0,0,0-1.93,1.93v4.94a1.92,1.92,0,0,0,1.93,1.93V147A3.15,3.15,0,0,1,143.21,143.81Z"/><path d="M151.73,136.82a2.51,2.51,0,0,0-2.52,2.52v4a2.53,2.53,0,0,0,2.52,2.52,2.47,2.47,0,0,0,2.51-2.52h1.25a3.47,3.47,0,0,1-.13,1,3.76,3.76,0,0,1-7.4-1v-4a3.76,3.76,0,0,1,7.4-1,3.35,3.35,0,0,1,.13,1h-1.25A2.48,2.48,0,0,0,151.73,136.82Z"/><path d="M158.76,137.05h-1.35v-1.36h1.35Zm-.11,9.94H157.5v-8h1.15Z"/><path d="M167.15,147,165,142.72h-2.79V147H161v-11.3h4a3.51,3.51,0,0,1,1.29,6.78l2.23,4.52Zm.12-7.79a2.28,2.28,0,0,0-2.28-2.26h-2.76v4.53H165A2.28,2.28,0,0,0,167.27,139.2Z"/><path d="M171.51,147H170.2l4-11.3h1.27l4,11.3h-1.32l-.87-2.52h-4.91Zm1.32-3.77h4l-2-5.83Z"/><path d="M183.2,143.81v-4.94a1.91,1.91,0,0,0-1.93-1.93v-1.25a3.16,3.16,0,0,1,3.18,3.18v4.94a3.15,3.15,0,0,1-3.18,3.17v-1.24A1.93,1.93,0,0,0,183.2,143.81Z"/><path d="M187.7,147l-1.36,1.35v-2.71h1.36Z"/><path d="M204,135.69,200.08,141l3.78,6h-1.44l-3.12-5-1.72,2.36V147h-1.25v-11.3h1.25v6.7l4.9-6.7Z"/><path d="M205.55,139l2.15,6.07,2.2-6.07h1.24l-3.53,9.71a2.45,2.45,0,0,1-2.38,1.59v-1.22a1.29,1.29,0,0,0,1.3-.75l.58-1.62L204.3,139Z"/><path d="M215.48,147.07a3.08,3.08,0,0,1-3.07-3.07v-2a3.06,3.06,0,1,1,6.12,0v2A3,3,0,0,1,215.48,147.07Zm0-1.15a1.93,1.93,0,0,0,1.9-1.92v-2a1.91,1.91,0,1,0-3.82,0v2A2,2,0,0,0,215.48,145.92Z"/><path d="M223.16,145.84h.29V147h-.3a2.07,2.07,0,0,1-2.09-2.09v-4.76h-.94V139h.94v-3.29h1.15V139h1.61v1.15h-1.61v4.76A.94.94,0,0,0,223.16,145.84Z"/><path d="M228.49,147.07a3.07,3.07,0,0,1-3.07-3.07v-2a3.06,3.06,0,1,1,6.12,0v2A3,3,0,0,1,228.49,147.07Zm0-1.15a1.93,1.93,0,0,0,1.9-1.92v-2a1.91,1.91,0,1,0-3.82,0v2A2,2,0,0,0,228.49,145.92Z"/><path d="M241.21,143.34a2.52,2.52,0,0,0,5,0v-7.65h1.24v7.65a3.77,3.77,0,0,1-7.53,0v-7.65h1.25Z"/><path d="M250.89,139v.74a2.67,2.67,0,0,1,1.9-.74,3.08,3.08,0,0,1,3.07,3.07V147h-1.15v-4.94a1.91,1.91,0,1,0-3.82,0V147h-1.15v-8Z"/><path d="M259.34,137.05H258v-1.36h1.35Zm-.11,9.94h-1.15v-8h1.15Z"/><path d="M267.19,139l-2.48,8h-1.14l-2.49-8h1.27l1.79,6.2,1.78-6.2Z"/><path d="M271.59,145.92a1.83,1.83,0,0,0,1.4-.62l.81.83a2.93,2.93,0,0,1-2.21.94,3.07,3.07,0,0,1-3-3.07v-2a3.06,3.06,0,1,1,6.12,0v1.15h-5V144A1.93,1.93,0,0,0,271.59,145.92Zm0-5.88a1.91,1.91,0,0,0-1.92,2h3.82A1.92,1.92,0,0,0,271.61,140Z"/><path d="M277.71,139v.74a2.69,2.69,0,0,1,1.9-.74,3.13,3.13,0,0,1,2.2.91l-.83.84a1.76,1.76,0,0,0-1.37-.6,1.94,1.94,0,0,0-1.9,1.92V147h-1.14v-8Z"/><path d="M285.82,146a1.13,1.13,0,0,0,1.15-1.14,1.37,1.37,0,0,0-1-1.25l-.84-.37c-1.29-.57-1.79-1.34-1.79-2.19a2.18,2.18,0,0,1,2.29-2.1,2.88,2.88,0,0,1,2.65,1.65l-1,.49a1.86,1.86,0,0,0-1.62-1,1.06,1.06,0,0,0-1.14,1c0,.37.26.75,1,1.09l.94.42a2.31,2.31,0,0,1,1.67,2.25,2.25,2.25,0,0,1-2.33,2.27,2.89,2.89,0,0,1-2.64-1.66l1-.5A2,2,0,0,0,285.82,146Z"/><path d="M291.4,137.05H290v-1.36h1.36Zm-.12,9.94h-1.14v-8h1.14Z"/><path d="M296.29,145.84h.29V147h-.3a2.07,2.07,0,0,1-2.09-2.09v-4.76h-.94V139h.94v-3.29h1.14V139h1.61v1.15h-1.61v4.76A1,1,0,0,0,296.29,145.84Z"/><path d="M299.87,139l2.14,6.07,2.21-6.07h1.23l-3.52,9.71a2.45,2.45,0,0,1-2.39,1.59v-1.22a1.28,1.28,0,0,0,1.3-.75l.59-1.62L298.62,139Z"/><path d="M314.33,147h-1.25l3.46-11.3h1.25Z"/><path d="M332.19,147l-2.13-4.27h-2.79V147H326v-11.3h4a3.51,3.51,0,0,1,1.29,6.78l2.23,4.52Zm.12-7.79a2.28,2.28,0,0,0-2.28-2.26h-2.76v4.53H330A2.28,2.28,0,0,0,332.31,139.2Z"/><path d="M338.14,145.92a1.83,1.83,0,0,0,1.4-.62l.81.83a2.93,2.93,0,0,1-2.21.94,3.07,3.07,0,0,1-3.05-3.07v-2a3.06,3.06,0,1,1,6.12,0v1.15h-5V144A1.93,1.93,0,0,0,338.14,145.92Zm0-5.88a1.91,1.91,0,0,0-1.92,2h3.82A1.92,1.92,0,0,0,338.16,140Z"/><path d="M344.21,139.72a2.74,2.74,0,0,1,1.92-.74,3.07,3.07,0,0,1,3.06,3.07v1.87a3.06,3.06,0,0,1-3.06,3.06,2.74,2.74,0,0,1-1.92-.74v4h-1.13V139h1.13Zm1.92.41a2,2,0,0,0-1.92,1.92v1.87a1.92,1.92,0,0,0,3.84,0v-1.87A2,2,0,0,0,346.13,140.13Z"/><path d="M352.34,139v.74a2.69,2.69,0,0,1,1.9-.74,3.13,3.13,0,0,1,2.2.91l-.83.84a1.78,1.78,0,0,0-1.37-.6,1.93,1.93,0,0,0-1.9,1.92V147H351.2v-8Z"/><path d="M360.88,145.92a1.84,1.84,0,0,0,1.4-.62l.81.83a3,3,0,0,1-2.21.94,3.07,3.07,0,0,1-3.05-3.07v-2a3.06,3.06,0,1,1,6.11,0v1.15h-5V144A1.93,1.93,0,0,0,360.88,145.92Zm0-5.88a1.92,1.92,0,0,0-1.92,2h3.83A1.93,1.93,0,0,0,360.89,140Z"/><path d="M368.15,146a1.13,1.13,0,0,0,1.15-1.14,1.37,1.37,0,0,0-1-1.25l-.84-.37c-1.3-.57-1.8-1.34-1.8-2.19a2.19,2.19,0,0,1,2.3-2.1,2.89,2.89,0,0,1,2.65,1.65l-1,.49a1.88,1.88,0,0,0-1.63-1,1.06,1.06,0,0,0-1.13,1c0,.37.26.75,1,1.09l.94.42a2.31,2.31,0,0,1,1.67,2.25,2.25,2.25,0,0,1-2.34,2.27,2.92,2.92,0,0,1-2.64-1.66l1-.5A2,2,0,0,0,368.15,146Z"/><path d="M375.28,145.92a1.81,1.81,0,0,0,1.4-.62l.81.83a2.93,2.93,0,0,1-2.21.94,3.07,3.07,0,0,1-3-3.07v-2a3.06,3.06,0,1,1,6.12,0v1.15h-5V144A1.93,1.93,0,0,0,375.28,145.92Zm0-5.88a1.91,1.91,0,0,0-1.92,2h3.82A1.92,1.92,0,0,0,375.3,140Z"/><path d="M381.41,139v.74a2.67,2.67,0,0,1,1.9-.74,3.08,3.08,0,0,1,3.07,3.07V147h-1.15v-4.94a1.91,1.91,0,1,0-3.82,0V147h-1.15v-8Z"/><path d="M391.1,145.84h.29V147h-.3a2.07,2.07,0,0,1-2.09-2.09v-4.76h-.94V139H389v-3.29h1.14V139h1.61v1.15h-1.61v4.76A1,1,0,0,0,391.1,145.84Z"/><path d="M396.41,140a1.93,1.93,0,0,0-1.76,1.2l-1.07-.44a3.06,3.06,0,0,1,5.89,1.17v5h-1.16v-1a2.26,2.26,0,0,1-1.92,1h-.68a2.35,2.35,0,1,1,0-4.7h2.62V142A2,2,0,0,0,396.41,140Zm-1.91,4.59a1.21,1.21,0,0,0,1.21,1.21h.68a2.16,2.16,0,0,0,1.94-2.41h-2.62A1.21,1.21,0,0,0,394.5,144.63Z"/><path d="M404.18,145.84h.29V147h-.3a2.07,2.07,0,0,1-2.09-2.09v-4.76h-.94V139h.94v-3.29h1.15V139h1.6v1.15h-1.6v4.76A.94.94,0,0,0,404.18,145.84Z"/><path d="M408.07,137.05h-1.36v-1.36h1.36ZM408,147H406.8v-8H408Z"/><path d="M415.91,139l-2.48,8h-1.14l-2.48-8h1.26l1.79,6.2,1.79-6.2Z"/><path d="M420.31,145.92a1.81,1.81,0,0,0,1.4-.62l.81.83a2.93,2.93,0,0,1-2.21.94,3.07,3.07,0,0,1-3.05-3.07v-2a3.06,3.06,0,1,1,6.12,0v1.15h-5V144A1.93,1.93,0,0,0,420.31,145.92Zm0-5.88a1.91,1.91,0,0,0-1.92,2h3.82A1.92,1.92,0,0,0,420.33,140Z"/><path d="M439.32,139.45v3.77a3.73,3.73,0,0,1-3.76,3.76h-3.77V135.69h3.77A3.74,3.74,0,0,1,439.32,139.45Zm-1.24,3.77v-3.77a2.51,2.51,0,0,0-2.52-2.51H433v8.8h2.52A2.51,2.51,0,0,0,438.08,143.22Z"/><path d="M442.67,137.05h-1.36v-1.36h1.36Zm-.12,9.94h-1.14v-8h1.14Z"/><path d="M446,139v.74a2.69,2.69,0,0,1,1.9-.74,3.09,3.09,0,0,1,2.19.91l-.82.84a1.78,1.78,0,0,0-1.37-.6,1.93,1.93,0,0,0-1.9,1.92V147h-1.14v-8Z"/><path d="M454.52,145.92a1.81,1.81,0,0,0,1.4-.62l.81.83a2.93,2.93,0,0,1-2.21.94,3.07,3.07,0,0,1-3-3.07v-2a3.06,3.06,0,1,1,6.12,0v1.15h-5V144A1.93,1.93,0,0,0,454.52,145.92Zm0-5.88a1.91,1.91,0,0,0-1.92,2h3.82A1.92,1.92,0,0,0,454.54,140Z"/><path d="M462.44,140a1.93,1.93,0,0,0-1.9,1.92v2a1.93,1.93,0,0,0,1.9,1.92,1.91,1.91,0,0,0,1.92-1.92h1.15a3,3,0,0,1-3.07,3.07,3.07,3.07,0,0,1-3.05-3.07v-2a3.07,3.07,0,0,1,3.05-3.06,3,3,0,0,1,3.07,3.06h-1.15A1.92,1.92,0,0,0,462.44,140Z"/><path d="M470.13,145.84h.3V147h-.31a2.07,2.07,0,0,1-2.08-2.09v-4.76h-1V139h1v-3.29h1.14V139h1.61v1.15h-1.61v4.76A.94.94,0,0,0,470.13,145.84Z"/><path d="M475.46,147.07A3.07,3.07,0,0,1,472.4,144v-2a3.06,3.06,0,1,1,6.11,0v2A3,3,0,0,1,475.46,147.07Zm0-1.15a1.94,1.94,0,0,0,1.91-1.92v-2a1.92,1.92,0,1,0-3.83,0v2A2,2,0,0,0,475.46,145.92Z"/><path d="M481.68,139v.74a2.69,2.69,0,0,1,1.9-.74,3.09,3.09,0,0,1,2.19.91l-.83.84a1.74,1.74,0,0,0-1.36-.6,1.93,1.93,0,0,0-1.9,1.92V147h-1.15v-8Z"/><path d="M496.69,147.07a3.08,3.08,0,0,1-3.07-3.07v-2a3.06,3.06,0,1,1,6.12,0v2A3,3,0,0,1,496.69,147.07Zm0-1.15a1.93,1.93,0,0,0,1.9-1.92v-2a1.91,1.91,0,1,0-3.82,0v2A2,2,0,0,0,496.69,145.92Z"/><path d="M502.32,147v-6.6h-.95v-1.14h.95v-1.47a2.07,2.07,0,0,1,2.09-2.09h.94v1.15h-1a.93.93,0,0,0-.94.94v1.47h1.63v1.14h-1.63V147Z"/><path d="M516.37,145.84h.29V147h-.31a2.07,2.07,0,0,1-2.08-2.09v-4.76h-.95V139h.95v-3.29h1.14V139H517v1.15h-1.61v4.76A1,1,0,0,0,516.37,145.84Z"/><path d="M520.1,135.69v4A2.74,2.74,0,0,1,522,139a3.07,3.07,0,0,1,3.05,3.07V147h-1.14v-4.94a1.92,1.92,0,1,0-3.83,0V147H519v-11.3Z"/><path d="M530.1,145.92a1.81,1.81,0,0,0,1.4-.62l.81.83a2.93,2.93,0,0,1-2.21.94,3.07,3.07,0,0,1-3.05-3.07v-2a3.06,3.06,0,1,1,6.12,0v1.15h-5V144A1.93,1.93,0,0,0,530.1,145.92Zm0-5.88a1.91,1.91,0,0,0-1.92,2H532A1.92,1.92,0,0,0,530.12,140Z"/><path d="M545.05,136.82a2.52,2.52,0,0,0-2.52,2.52v4a2.54,2.54,0,0,0,2.52,2.52,2.47,2.47,0,0,0,2.51-2.52h1.26a4.39,4.39,0,0,1-.13,1,3.76,3.76,0,0,1-7.4-1v-4a3.76,3.76,0,0,1,7.4-1,4.22,4.22,0,0,1,.13,1h-1.26A2.48,2.48,0,0,0,545.05,136.82Z"/><path d="M552.09,137.05h-1.36v-1.36h1.36ZM552,147h-1.15v-8H552Z"/><path d="M560.48,147l-2.13-4.27h-2.8V147h-1.24v-11.3h4a3.51,3.51,0,0,1,1.28,6.78l2.24,4.52Zm.11-7.79a2.27,2.27,0,0,0-2.27-2.26h-2.77v4.53h2.77A2.27,2.27,0,0,0,560.59,139.2Z"/><path d="M564.84,147h-1.32l4-11.3h1.26l4,11.3H571.5l-.88-2.52h-4.9Zm1.32-3.77h4l-2-5.83Z"/><path d="M588.56,136.94h-6.29v3.76h4.4V142h-4.4v5H581v-11.3h7.53Z"/><path d="M592.46,147.07A3.07,3.07,0,0,1,589.4,144v-2a3.06,3.06,0,1,1,6.11,0v2A3,3,0,0,1,592.46,147.07Zm0-1.15a1.93,1.93,0,0,0,1.91-1.92v-2a1.92,1.92,0,1,0-3.83,0v2A2,2,0,0,0,592.46,145.92Z"/><path d="M602.45,147v-.74a2.7,2.7,0,0,1-1.91.74,3.06,3.06,0,0,1-3.06-3v-5h1.14v5a1.92,1.92,0,0,0,3.83,0v-5h1.14v8Z"/><path d="M607,139v.74a2.7,2.7,0,0,1,1.91-.74,3.07,3.07,0,0,1,3.06,3.07V147h-1.14v-4.94a1.92,1.92,0,1,0-3.83,0V147h-1.14v-8Z"/><path d="M618.88,146.24A2.72,2.72,0,0,1,617,147a3.06,3.06,0,0,1-3.07-3v-1.88A3.07,3.07,0,0,1,617,139a2.74,2.74,0,0,1,1.92.74v-4H620V147h-1.13Zm-1.92-.4a1.94,1.94,0,0,0,1.92-1.91v-1.88a1.92,1.92,0,1,0-3.84,0v1.88A1.94,1.94,0,0,0,617,145.84Z"/><path d="M625,140a1.94,1.94,0,0,0-1.76,1.2l-1.06-.44A3.06,3.06,0,0,1,628,142v5h-1.16v-1a2.27,2.27,0,0,1-1.92,1h-.69a2.35,2.35,0,0,1,0-4.7h2.62V142A2,2,0,0,0,625,140Zm-1.9,4.59a1.2,1.2,0,0,0,1.2,1.21H625a2.16,2.16,0,0,0,1.93-2.41h-2.62A1.2,1.2,0,0,0,623.07,144.63Z"/><path d="M632.74,145.84h.3V147h-.31a2.07,2.07,0,0,1-2.09-2.09v-4.76h-.94V139h.94v-3.29h1.15V139h1.61v1.15h-1.61v4.76A.94.94,0,0,0,632.74,145.84Z"/><path d="M636.63,137.05h-1.36v-1.36h1.36Zm-.11,9.94h-1.15v-8h1.15Z"/><path d="M641.61,147.07a3.07,3.07,0,0,1-3.07-3.07v-2a3.06,3.06,0,1,1,6.12,0v2A3.05,3.05,0,0,1,641.61,147.07Zm0-1.15a1.93,1.93,0,0,0,1.9-1.92v-2a1.91,1.91,0,1,0-3.82,0v2A1.94,1.94,0,0,0,641.61,145.92Z"/><path d="M647.82,139v.74a2.7,2.7,0,0,1,1.91-.74,3.07,3.07,0,0,1,3.06,3.07V147h-1.14v-4.94a1.92,1.92,0,1,0-3.83,0V147h-1.14v-8Z"/><path d="M49.56,174.51H42.7v22.88H38.12V174.51H31.26v-4.57h18.3Z"/><path d="M59.42,181.73a3.43,3.43,0,0,0-3.19,2.17l-3.67-1.54a7.34,7.34,0,0,1,6.86-4.62,7.43,7.43,0,0,1,7.42,7.46v12.19h-4v-1.27a4.89,4.89,0,0,1-3.51,1.27H57.69a5.72,5.72,0,1,1,0-11.44h5.16v-.75A3.46,3.46,0,0,0,59.42,181.73ZM56,191.67a1.68,1.68,0,0,0,1.7,1.69h1.65a3.38,3.38,0,0,0,3.51-3.19v-.24H57.69A1.7,1.7,0,0,0,56,191.67Z"/><path d="M80.25,197.39v-1.27a5.93,5.93,0,0,1-3.87,1.27,7.09,7.09,0,0,1-7-7.42v-4.61a7.21,7.21,0,0,1,7.14-7.42,6,6,0,0,1,3.75,1.26v-9.26h4v27.45ZM76.81,182a3.43,3.43,0,0,0-3.43,3.4V190a3.44,3.44,0,0,0,6.87,0v-4.61A3.43,3.43,0,0,0,76.81,182Z"/><path d="M94.44,181.73a3.43,3.43,0,0,0-3.19,2.17l-3.67-1.54a7.34,7.34,0,0,1,6.86-4.62,7.43,7.43,0,0,1,7.42,7.46v12.19h-4v-1.27a4.92,4.92,0,0,1-3.51,1.27H92.71a5.72,5.72,0,0,1,0-11.44h5.17v-.75A3.47,3.47,0,0,0,94.44,181.73ZM91,191.67a1.68,1.68,0,0,0,1.7,1.69h1.66a3.39,3.39,0,0,0,3.51-3.19v-.24H92.71A1.7,1.7,0,0,0,91,191.67Z"/><path d="M110,193.6a1.76,1.76,0,0,0,.71-3.39l-3.27-1.74a5.69,5.69,0,0,1,2.76-10.73,6.79,6.79,0,0,1,6.19,4l-3.63,1.73a2.82,2.82,0,0,0-2.56-1.73,1.75,1.75,0,0,0-1.81,1.65,1.92,1.92,0,0,0,1.18,1.7l3.27,1.74a5.27,5.27,0,0,1,3,5,5.74,5.74,0,0,1-5.8,5.72,6.91,6.91,0,0,1-6.19-4l3.67-1.74A3,3,0,0,0,110,193.6Z"/><path d="M122.6,179.2a5.91,5.91,0,0,1,3.79-1.26c4.06,0,7.06,3.16,7.06,7.42v12h-4v-12a3.43,3.43,0,1,0-6.86,0v12h-4V169.94h4Z"/><path d="M141,174h-4v-4h4Zm0,23.43h-4V177.94h4Z"/><path d="M163.3,197.39V183.66l-6.86-13.72H161l4.58,9.18,4.58-9.18h4.57l-6.86,13.72v13.73Z"/><path d="M183.89,181.73a3.45,3.45,0,0,0-3.2,2.17L177,182.36a7.33,7.33,0,0,1,6.86-4.62,7.42,7.42,0,0,1,7.41,7.46v12.19h-4v-1.27a4.9,4.9,0,0,1-3.51,1.27h-1.66a5.72,5.72,0,0,1,0-11.44h5.17v-.75A3.47,3.47,0,0,0,183.89,181.73Zm-3.43,9.94a1.68,1.68,0,0,0,1.69,1.69h1.66a3.39,3.39,0,0,0,3.51-3.19v-.24h-5.17A1.69,1.69,0,0,0,180.46,191.67Z"/><path d="M198.52,179.2a5.75,5.75,0,0,1,3.79-1.26c3.35,0,7.06,2.37,7.06,7.46v12h-4v-12a3.43,3.43,0,1,0-6.86,0v12h-4V177.94h4Z"/><path d="M219.66,181.73a3.45,3.45,0,0,0-3.2,2.17l-3.66-1.54a7.33,7.33,0,0,1,6.86-4.62,7.42,7.42,0,0,1,7.41,7.46v12.19h-4v-1.27a4.9,4.9,0,0,1-3.51,1.27h-1.66a5.72,5.72,0,0,1,0-11.44h5.17v-.75A3.47,3.47,0,0,0,219.66,181.73Zm-3.43,9.94a1.68,1.68,0,0,0,1.69,1.69h1.66a3.39,3.39,0,0,0,3.51-3.19v-.24h-5.17A1.69,1.69,0,0,0,216.23,191.67Z"/><path d="M234.41,174h-4v-4h4Zm0,23.43h-4V177.94h4Z"/></svg>