<svg xmlns="http://www.w3.org/2000/svg" viewBox="0 0 100 99.74"><defs><style>.cls-1{fill:#fff}.cls-2{fill:red}</style></defs><title>logo</title><g id="レイヤー_2" data-name="レイヤー 2"><g id="レイヤー_1-2" data-name="レイヤー 1"><path class="cls-1" d="M33.6 65.07v10.68a11.42 11.42 0 0 1-2.91 7.33l2.91 9.46h-6.15L25.26 86a11.51 11.51 0 0 1-2.06.2 10.48 10.48 0 0 1-10.5-10.45V65.07a10.45 10.45 0 0 1 20.9 0zm53.62 0v10.68a10.41 10.41 0 0 1-20.82 0V65.07a10.41 10.41 0 0 1 20.82 0z"/><path class="cls-2" d="M100 0v99.74H0V0zM87.22 75.75V65.07a10.41 10.41 0 0 0-20.82 0v10.68a10.41 10.41 0 0 0 20.82 0zM80 45.12V13.61h-6.4v31.51zm-16.83 41v-6.37H48.52V54.66h-6.37v31.5zm0-41V13.61h-6.4v18l-8.27-18h-6.35v31.5h6.37v-18l8.27 18.05zM33.61 34.65v-21h-6.15v21a4.26 4.26 0 1 1-8.51 0v-21H12.7v21a10.35 10.35 0 0 0 10.5 10.47 10.27 10.27 0 0 0 10.41-10.47zm0 41.1V65.07a10.45 10.45 0 0 0-20.9 0v10.68A10.48 10.48 0 0 0 23.2 86.16a11.51 11.51 0 0 0 2.06-.2l2.19 6.58h6.15l-2.91-9.46a11.42 11.42 0 0 0 2.91-7.33z"/><path class="cls-1" d="M73.62 13.61h6.4v31.51h-6.4zM63.19 79.75v6.41H42.15v-31.5h6.37v25.09h14.67zm0-66.14v31.5h-6.4l-8.27-18.05v18.05h-6.37v-31.5h6.37l8.27 18.02V13.61h6.4zm-29.58 0v21A10.27 10.27 0 0 1 23.2 45.12a10.35 10.35 0 0 1-10.5-10.47v-21H19v21a4.26 4.26 0 1 0 8.51 0v-21z"/><path class="cls-2" d="M23.2 60.83a4.24 4.24 0 0 0-4.26 4.24v10.68a4.26 4.26 0 0 0 8.51 0V65.07a4.23 4.23 0 0 0-4.25-4.24zm53.61 0a4.26 4.26 0 0 0-4.27 4.24v10.68a4.28 4.28 0 0 0 8.54 0V65.07a4.26 4.26 0 0 0-4.27-4.24z"/></g></g></svg>