<svg id="レイヤー_1" data-name="レイヤー 1" xmlns="http://www.w3.org/2000/svg" viewBox="0 0 100 99.74"><defs><style>.cls-1{fill:red;}.cls-2{fill:#fff;}</style></defs><title>アートボード 1</title><rect class="cls-1" x="55.55" y="13.07" width="44.45" height="44.45"/><rect class="cls-2" x="88.31" y="19.15" width="2.8" height="14.04"/><path class="cls-2" d="M70.52,28.51a4.68,4.68,0,1,1-9.35,0V19.15H64v9.36a1.87,1.87,0,1,0,3.73,0V19.15h2.81Z"/><polygon class="cls-2" points="83.62 51.43 74.27 51.43 74.27 37.4 77.07 37.4 77.07 48.62 83.62 48.62 83.62 51.43"/><polygon class="cls-2" points="83.62 33.19 80.81 33.19 77.07 25.17 77.07 33.19 74.27 33.19 74.27 19.15 77.07 19.15 80.81 27.18 80.81 19.15 83.62 19.15 83.62 33.19"/><path class="cls-2" d="M65.85,37.4a4.68,4.68,0,0,0-4.68,4.68v4.68a4.67,4.67,0,0,0,4.68,4.67,4.5,4.5,0,0,0,.9-.08l1,2.9h2.81l-1.38-4.17a4.68,4.68,0,0,0,1.38-3.32V42.08a4.68,4.68,0,0,0-4.67-4.68m1.86,9.36a1.87,1.87,0,0,1-3.73,0V42.08a1.87,1.87,0,1,1,3.73,0Z"/><path class="cls-2" d="M89.71,37.4A4.69,4.69,0,0,0,85,42.08v4.68a4.68,4.68,0,0,0,9.36,0V42.08a4.68,4.68,0,0,0-4.67-4.68m1.87,9.36a1.87,1.87,0,0,1-3.74,0V42.08a1.87,1.87,0,0,1,3.74,0Z"/><rect class="cls-1" y="13.07" width="44.44" height="44.45"/><rect class="cls-2" x="25.27" y="29.91" width="12.62" height="2.8"/><rect class="cls-2" x="26.67" y="19.15" width="9.82" height="2.8"/><polygon class="cls-2" points="16.38 19.15 7.95 19.15 7.95 21.96 13.56 21.96 13.56 29.91 6.56 29.91 6.56 32.71 19.18 32.71 19.18 29.91 16.38 29.91 16.38 19.15"/><path class="cls-2" d="M25.27,37.86h0V51.43H37.89V37.86Zm9.81,10.76h-7V40.67h7Z"/><polygon class="cls-2" points="7.95 37.86 6.52 44.65 9.32 44.65 10.17 40.67 15.8 40.67 14.15 48.62 5.71 48.62 5.14 51.43 16.38 51.43 19.18 37.86 7.95 37.86"/><polygon points="18.04 74.18 18.04 85.21 24.93 85.21 24.93 86.58 16.67 86.58 16.67 74.18 18.04 74.18"/><path d="M28.34,75.67h-1.5V74.18h1.5Zm-.13,10.91H27V77.8h1.26Z"/><path d="M33,86.58H31.7V79.35h-1V78.08h1v-1.6a2.27,2.27,0,0,1,.19-.9,2,2,0,0,1,.49-.73A2.25,2.25,0,0,1,34,74.18h1v1.26H34a1,1,0,0,0-1,1v1.6h1.78v1.27H33Z"/><path d="M37.85,83.3a2,2,0,0,0,.17.81,2.25,2.25,0,0,0,.45.67,2.11,2.11,0,0,0,.66.46,2,2,0,0,0,2.34-.51l.89.91a3.18,3.18,0,0,1-1.1.77,3.49,3.49,0,0,1-1.32.26,3.23,3.23,0,0,1-1.31-.27,3.3,3.3,0,0,1-1.78-1.79,3.19,3.19,0,0,1-.26-1.31V81.07a3.23,3.23,0,0,1,.26-1.31A3.39,3.39,0,0,1,38.63,78a3.43,3.43,0,0,1,2.62,0,3.33,3.33,0,0,1,1.07.73A3.55,3.55,0,0,1,43,79.76a3.23,3.23,0,0,1,.27,1.31v1.27H37.85ZM42,81.13a2.2,2.2,0,0,0-.17-.86,2.28,2.28,0,0,0-.44-.68,2,2,0,0,0-.66-.46A2.25,2.25,0,0,0,40,79a2,2,0,0,0-1.49.61,2.29,2.29,0,0,0-.62,1.55Z"/><polygon points="54.52 84.23 57.3 74.18 58.67 74.18 55.14 86.58 53.79 86.58 51.51 76.78 49.23 86.58 47.87 86.58 44.32 74.18 45.7 74.18 48.47 84.23 50.83 74.18 52.18 74.18 54.52 84.23"/><path d="M61,83.3a2,2,0,0,0,.16.81,2.46,2.46,0,0,0,.45.67,2.23,2.23,0,0,0,.66.46,2,2,0,0,0,.81.17,2,2,0,0,0,1.53-.68l.89.91a3.18,3.18,0,0,1-1.1.77,3.49,3.49,0,0,1-1.32.26,3.23,3.23,0,0,1-1.31-.27A3.3,3.3,0,0,1,60,84.61a3.37,3.37,0,0,1-.26-1.31V81.07A3.4,3.4,0,0,1,60,79.76,3.39,3.39,0,0,1,61.76,78a3.43,3.43,0,0,1,2.62,0,3.33,3.33,0,0,1,1.07.73,3.55,3.55,0,0,1,.72,1.06,3.23,3.23,0,0,1,.27,1.31v1.27H61Zm4.18-2.17a2,2,0,0,0-.17-.86,2.28,2.28,0,0,0-.44-.68,2,2,0,0,0-.66-.46,2.25,2.25,0,0,0-.81-.16,2,2,0,0,0-1.49.61A2.24,2.24,0,0,0,61,81.13Z"/><path d="M73.71,81.07a2.06,2.06,0,0,0-.17-.81,2.15,2.15,0,0,0-.45-.66A2.09,2.09,0,0,0,71.61,79a2,2,0,0,0-1.15.36,2.17,2.17,0,0,0-.78.94l-1.17-.48a3.44,3.44,0,0,1,1.25-1.53,3.25,3.25,0,0,1,1.86-.55,3.37,3.37,0,0,1,1.31.26,3.48,3.48,0,0,1,1.78,1.79A3.23,3.23,0,0,1,75,81.07v5.51H73.69V85.49a2.47,2.47,0,0,1-2.1,1.09h-.75a2.64,2.64,0,0,1-1-.2,2.72,2.72,0,0,1-.82-.56,2.62,2.62,0,0,1-.55-.82,2.42,2.42,0,0,1-.2-1,2.46,2.46,0,0,1,.2-1,2.55,2.55,0,0,1,1.37-1.37,2.47,2.47,0,0,1,1-.21h2.87Zm-2.87,1.61A1.31,1.31,0,0,0,69.52,84a1.33,1.33,0,0,0,1.32,1.32h.75a1.8,1.8,0,0,0,.84-.21,2.22,2.22,0,0,0,.67-.55,2.64,2.64,0,0,0,.45-.83,3.21,3.21,0,0,0,.16-1Z"/><path d="M77.58,77.8h1.26v.82a2.93,2.93,0,0,1,2.09-.82,3.4,3.4,0,0,1,2.4,1l-.91.93a1.94,1.94,0,0,0-1.49-.66,2,2,0,0,0-.81.17,2.09,2.09,0,0,0-.66.45,2.19,2.19,0,0,0-.45.67,2.06,2.06,0,0,0-.17.81v5.42H77.58Z"/></svg>