<svg xmlns="http://www.w3.org/2000/svg" width="297" height="31" viewBox="0 0 297 31"><defs><style>.cls-1{fill:#ffffff}</style></defs><title>header_logo</title><g id="レイヤー_2" data-name="レイヤー 2"><path class="cls-1" d="M15.09.84v15.31a7.5 7.5 0 0 1-2.2 5.32 7.7 7.7 0 0 1-2.4 1.62 7.38 7.38 0 0 1-2.95.61 7.17 7.17 0 0 1-2.92-.61 7.77 7.77 0 0 1-2.39-1.62A7.63 7.63 0 0 1 .6 19.08a7.21 7.21 0 0 1-.6-2.93V.84h4.52v15.31a2.92 2.92 0 0 0 .24 1.17 3.07 3.07 0 0 0 1.61 1.61 2.86 2.86 0 0 0 2.34 0 3.07 3.07 0 0 0 1.61-1.61 2.77 2.77 0 0 0 .25-1.17V.84zm9.1 22.63h-4.52V.84h4.52l6 13.46V.84h4.52v22.63h-4.47L24.19 10zm15.18 0V.84h4.53v22.63zM63.08 28h-4.52l-1.5-4.42-.79.09h-.7a7.22 7.22 0 0 1-2.93-.61 7.89 7.89 0 0 1-2.39-1.62 7.77 7.77 0 0 1-1.62-2.39 7 7 0 0 1-.6-2.93v-8a7.13 7.13 0 0 1 .6-2.94 7.86 7.86 0 0 1 1.62-2.38 7.68 7.68 0 0 1 2.39-1.61 7.37 7.37 0 0 1 2.93-.58 7.45 7.45 0 0 1 2.94.58 7.42 7.42 0 0 1 4 4 7.45 7.45 0 0 1 .58 2.94v8a7.3 7.3 0 0 1-2.24 5.37zM52.54 16.15a2.93 2.93 0 0 0 .25 1.17 3.07 3.07 0 0 0 1.61 1.61 2.77 2.77 0 0 0 1.17.25 3.09 3.09 0 0 0 1.17-.18 2.77 2.77 0 0 0 1-.65 3.29 3.29 0 0 0 .65-1 2.92 2.92 0 0 0 .24-1.17v-8a2.91 2.91 0 0 0-.9-2.18 3 3 0 0 0-2.16-.83 3.09 3.09 0 0 0-1.17.23 2.77 2.77 0 0 0-1 .65 3.32 3.32 0 0 0-.65 1 2.83 2.83 0 0 0-.25 1.18zM71.76 19h10.57v4.52H67.24V.84h4.52zm28.87-2.85a7.37 7.37 0 0 1-.58 2.93 7.57 7.57 0 0 1-1.61 2.39A7.74 7.74 0 0 1 96 23.09a7.3 7.3 0 0 1-2.94.61 7.22 7.22 0 0 1-2.93-.61 7.89 7.89 0 0 1-2.39-1.62 7.77 7.77 0 0 1-1.62-2.39 7.21 7.21 0 0 1-.6-2.93v-8a7.29 7.29 0 0 1 .6-2.94 7.86 7.86 0 0 1 1.65-2.41 7.68 7.68 0 0 1 2.39-1.61 7.37 7.37 0 0 1 2.93-.58 7.45 7.45 0 0 1 2.91.58 7.55 7.55 0 0 1 2.44 1.61 7.66 7.66 0 0 1 1.61 2.41 7.45 7.45 0 0 1 .58 2.94zm-10.56 0a2.92 2.92 0 0 0 .24 1.17 3.07 3.07 0 0 0 1.61 1.61 2.86 2.86 0 0 0 2.34 0 3.07 3.07 0 0 0 1.61-1.61 2.92 2.92 0 0 0 .24-1.17v-8A2.83 2.83 0 0 0 95.87 7a3.32 3.32 0 0 0-.65-1 2.77 2.77 0 0 0-1-.65 3.09 3.09 0 0 0-2.34 0A2.77 2.77 0 0 0 91 6a3.32 3.32 0 0 0-.65 1 2.83 2.83 0 0 0-.24 1.18zM123.9 6.2a3.92 3.92 0 0 0-3.69-2.33 3.4 3.4 0 0 0-3.56 3.33c0 1.85 1.91 2.7 3.36 3.35l1.42.63c2.79 1.22 5.15 2.62 5.15 6a6.77 6.77 0 0 1-13.43 1.08l2.33-.65a4.43 4.43 0 0 0 4.3 4 4.31 4.31 0 0 0 4.41-4.18c0-2.51-2-3.36-4-4.27l-1.3-.57c-2.51-1.14-4.67-2.42-4.67-5.49 0-3.33 2.82-5.46 6-5.46A6.15 6.15 0 0 1 125.81 5zm9.99 11.35c0 2.25.26 4.18 3 4.18s3-1.93 3-4.18V10.1h2.28v7.71c0 3.55-1.34 6-5.29 6s-5.29-2.48-5.29-6V10.1h2.27zm19.58-4.35a2.16 2.16 0 0 0-1.83-1.37 1.62 1.62 0 0 0-1.64 1.48c0 1.23 1.53 1.68 3.1 2.34s3.1 1.59 3.1 3.84a4.38 4.38 0 0 1-4.53 4.35 4.81 4.81 0 0 1-4.67-3.39l2-.85c.57 1.25 1.22 2.13 2.73 2.13a2 2 0 0 0 2.16-2.05c0-3-6-2-6-6.17a3.81 3.81 0 0 1 4-3.78 4 4 0 0 1 3.55 2.47zm10.04 10.27h-2.28V12.2h-1.39v-2.1h1.39V5.29h2.28v4.81h2.39v2.1h-2.39zm18.35 0h-2.28v-1.85h-.06a5.61 5.61 0 0 1-4.6 2.22c-3.93 0-6.4-3.33-6.4-7s2.41-7.08 6.43-7.08a5.75 5.75 0 0 1 4.57 2.24h.06v-1.9h2.28zm-11-6.83c0 2.62 1.54 5.09 4.38 5.09s4.47-2.36 4.47-5.06-1.68-4.84-4.5-4.84a4.54 4.54 0 0 0-4.36 4.81zM191 5.06a1.62 1.62 0 1 1-3.24 0 1.62 1.62 0 0 1 3.24 0zm-.48 18.41h-2.32V10.1h2.28zm8.7-11.75h.05a4.5 4.5 0 0 1 3.81-2c3.7 0 4.56 2.67 4.56 5.8v7.94h-2.28v-7.53c0-2.16-.17-4.1-2.82-4.1-3.12 0-3.32 2.91-3.32 5.29v6.35h-2.28V10.1h2.28zm26.65 11.75h-2.27v-1.85h-.06a5.62 5.62 0 0 1-4.61 2.22c-3.92 0-6.4-3.33-6.4-7S215 9.73 219 9.73a5.78 5.78 0 0 1 4.54 2.27h.06v-1.9h2.27zm-11-6.83c0 2.62 1.53 5.09 4.38 5.09s4.46-2.36 4.46-5.06-1.68-4.84-4.49-4.84a4.53 4.53 0 0 0-4.35 4.81zM231.68 0H234v12a5.74 5.74 0 0 1 4.58-2.27c4 0 6.43 3.27 6.43 7.05s-2.47 7.06-6.4 7.06a5.63 5.63 0 0 1-4.61-2.22v1.85h-2.27zm2.16 16.64c0 2.62 1.54 5.09 4.38 5.09s4.47-2.36 4.47-5.06-1.68-4.84-4.5-4.84a4.54 4.54 0 0 0-4.35 4.81zM253.1 5.06a1.62 1.62 0 1 1-3.24 0 1.62 1.62 0 1 1 3.24 0zm-.48 18.41h-2.28V10.1h2.28zm8.68 0H259V0h2.28zm9.13-18.41a1.62 1.62 0 1 1-1.62-1.62 1.64 1.64 0 0 1 1.62 1.62zm-.49 18.41h-2.27V10.1h2.27zm8.85 0h-2.27V12.2h-1.4v-2.1h1.4V5.29h2.27v4.81h2.39v2.1h-2.39zm3.93-13.37h2.64l4.73 9.58 4.32-9.58H297L287.13 31h-2.59l4.32-8.76z" id="レイヤー_1-2" data-name="レイヤー 1"/></g></svg>