<svg xmlns="http://www.w3.org/2000/svg" viewBox="0 0 690.34 549.18" preserveAspectRatio="xMidYMin"><defs><style>.cls-1,.cls-2{stroke:#000;stroke-linecap:round;stroke-linejoin:round;stroke-width:0.69px;}.cls-1,.cls-3{fill-rule:evenodd;}</style></defs><g id="レイヤー_2" data-name="レイヤー 2"><g id="design"><path class="cls-1" d="M68.88,7.11,70,7.22l0,.16,1.12.27.12.5.16,0c0,.17-.37.43-.24.8h.17c.24.44.41.46.38,1.18a1.57,1.57,0,0,0,.67-.26l0-.16,1.28.28c0-.44,0-.87,0-1.31l-.16,0,.11-1.13-.16,0,0-.32-.17,0-.11-.5c-.53-.2-.71-.58-1.06-.92V5.62l-.32,0V5.43l-.63-.23V5l-1-.25V4.62l-.32,0V4.43l-.81-.07,0-.17L68,4.09V3.92c-1-.37-2.31,0-3.09-.12l-1.12-.27,0,.16-2.11-.2c-1.42.27-3.23.12-4.62.39l-1.14-.11v.16l-.49,0v.16l-1.14-.11V4.1L53.62,4l0,.16L53,4.14v.17l-.81-.08,0,.16-1-.09,0,.16-.32,0,0,.16L50,4.52l0,.16-.64-.06,0,.16-.65-.06v.16H47l0,.16-.48,0,0,.16-.49,0v.16l-.49,0V5.4H43.83l-.19.31-1.5.19v.16L41.8,6V6.2l-1-.09-.38.46-1-.09-.19.31-.65-.06,0,.16-.48,0,0,.17-.32,0,0,.17L37,7.06v.16l-1,.24v.16l-.33,0v.16l-.49,0,0,.17-.32,0,0,.16-.48,0,0,.17-.49,0-.19.31-.32,0,0,.16-.65-.06v.16l-.83.09v.16l-.67.1v.16l-1.67.34-.2.31-1,.07-.37.45-.33,0v.17l-.33,0v.16l-.49-.05,0,.16-.32,0-.19.31-.65-.06,0,.16-.32,0-.2.31-.66.1-.19.31-.83.09-.19.31-1.17.22v.16l-.33,0-.19.31-.67.1-.19.31-.66.1c-.13.15-.25.3-.37.46l-.33,0-.19.31c-.61.31-.71-.11-1.05.71l-.32,0,0,.33-.5.12-.37.45-.32,0-.2.31-1.39.85L15,17.93h.17c0,.17.07.34.11.51l.33,0,0,.32,1.38.95,0-.16.48,0,.19-.31.51-.11,0-.33,1.76-1.3.32,0c.32-.89.33-.31.87-.58l.2-.31a1.66,1.66,0,0,1,1.18-.38l0-.32.5-.12,0-.16.48,0,.55-.61.49.05v-.16l.33,0v-.17l.67-.1v-.16l.49.05.19-.31.67-.1.19-.31.49,0v-.16l.67-.1v-.16l.49,0,.19-.31.67-.1v-.16l.33,0V13l.33,0v-.16l.49,0,.37-.45.65.06v-.17l.83-.08v-.16l.67-.11V11.8l1.16-.05v-.17l.33,0,.19-.3.32,0,.2-.31,1.31,0v-.17l1-.23v-.16l1.48,0v-.16l.49,0,0-.17.32,0,0-.17.65.06.19-.31,1.15-.05,0-.16,1-.24V9.13l1.32,0V8.93l.49,0,0-.16.32,0,0-.16,1.47,0,0-.17.32,0,0-.16.81.08V8.28l.65.06,0-.17.48.05,0-.16.49,0V7.94l.65.06,0-.16h1.8V7.68l.33,0V7.55l1.3.12,0-.16.48,0,0-.17.65.07V7.29l1,.09V7.22l.33,0V7.09l1,.09,0-.16.15.18,1-.07V7l1.14.11V6.91l3.43.16V6.9l.33,0V6.77l1,.09c.06,0,.06-.23.34-.13V6.9H65l0-.16,1.62.15V6.74L68.9,7Z"/><path class="cls-1" d="M131.76,1.81l-.33-1A3.86,3.86,0,0,1,129.8.34h-1.3V.51c-.58.45-.07.33-.33,1H128c-.11.33-.22.66-.32,1h-.17v.33h-.16L127,4.42h-.16c-.05.22-.11.43-.16.65h-.17V5.4h-.16v.49h-.16v.32h-.16v.33l-.33.16-.16.49h-.17c-.19.31-.16,1-.32,1.3l-.49.33c-.06.33-.11.65-.16,1l-.49.32-.33,1-.33.16v.33h-.16v.49H123v.33l-.33.16v.32h-.16v.33h-.16v.33h-.17V14c-.22.48-.46.48-.49,1.3-.75.2-.51.48-.81,1.14h-.16v.33h-.17v.49l-.32.16v.32l-.33.33v.33h-.16v.32h-.16v.33h-.17v.32h-.16v.33h-.16v.33h-.17l-.16.65h-.16l-.17.65h-.16v.33h-.16V22h-.16v.49l-.33.16c0,.17-.11.33-.16.49h-.17v.49h-.16l-.16.65h-.17l-.16.66-.32.16c-.06.33-.11.65-.17,1l-.32.16v.33h-.17c-.05.21-.11.43-.16.65h-.16v.65l-.33.16c0,.33-.11.66-.16,1h-.16v.33h-.17v.32h-.16V30h-.16v.33H114v.32h-.16V31h-.16v.32h-.17c-.1.33-.21.66-.32,1H113v.49h-.17l-.32,1h-.17v1h-.16v.32l-.33.17v.32h-.16v.33h-.16v.49h-.16c-.06.21-.11.43-.17.65h-.16v.65h-.16V38l-.33.16v.33h-.16v.32h-.17c-.1.44-.21.87-.32,1.31l-.49.32v.33l-.49.32-.33,1-.48.33v.32l-.49.33c-.35.63.41.5-.49.81-.19.19,0,.07-.33.17-.19-.49-.34-1.32-.49-1.8v-.81l-.32-.16v-.49h-.17v-.33h-.16v-.65h-.16v-.33h-.17v-.32L105,39v-.48l-.49-.33v-.33l-.33-.16-.49-.81c-1.15-.22-3.57-.73-4.89-.17v.17l-.65.16v.16h-.32v.16a2.43,2.43,0,0,1-1,.66c-.12.47-.18.54-.65.65-.17.59-.52.65-.66,1.3-.64.16-.76.57-1,1.14h-.33c-.14.5-.39.63-.65,1h-.16v.49A5,5,0,0,0,93,43.7c-.67.2-.22.11-.49.49l-.33.16v.33l-.49.33v.65l-.32.16v.33h-.17c.06.16.11.32.17.49l-.66.48c-.05.28-.1.55-.16.82l-.65.49c-.06.22-.11.43-.16.65h-.17v.49h-.16l-.16.65h-.17v.49h-.16V51h-.16v.49h-.16l.16.48h-.16c-.06.33-.11.66-.17,1h-.16v.65h-.16V54h-.17v.65a14.2,14.2,0,0,0-.65,4.89v1.8h.16V62h.17V63.1h.16v.49h.16v.65l.49.33v.65l.33.16v.33h.16a2.31,2.31,0,0,1,.65,1c.52.14.75.48,1.14.66s.78.07,1.15.49h1L93,67.5l.65-.16L95.25,66v-.32l.65-.49v-.33l.33-.16A2.68,2.68,0,0,0,97,63.26h.65l.17-.65h.32l.17-.49.65-.49v-.32l.32-.17v-.32h.17l.49-.66h.32c.1-.64.33-.74.65-1.14h.17c.11-.32.21-.65.32-1l.49-.33a5.45,5.45,0,0,0,1.31-2c.66-.19.18-.06.48-.49l.33-.16v-.32h.16v-.33l.49-.33v-.32l.33-.17c0-.16.11-.32.16-.48h.16v-.33l.33-.16c0-.27.11-.55.16-.82H106v-.16h.49c-.06.81-.11,1.63-.17,2.44h-.16v.33H106v.81h-.17v.82h-.16c0,.22.11.43.16.65h-.16v1.63h-.16v1.14h-.17c.06.33.11.65.17,1h-.17v2a11.32,11.32,0,0,0-.16,3.58h.16v1.31h.17v.49h.16v.48h.16l.82,1a16.85,16.85,0,0,1,2,.49,2.32,2.32,0,0,1,.66-.49,2.52,2.52,0,0,0,.32-1.79l-.32-.16c0-.27.11-.55.16-.82h-.16v-2c-.06-.17-.11-.33-.17-.49a17.37,17.37,0,0,0,.33-2.94V58.86h.16v-.65h.17v-2h.16V55.6h.16v-1h.16c.06-.81.11-1.63.17-2.44h.16v-.82h.16v-.81h.17v-.49h.16v-.82h.16c.17-.7.33-1.41.49-2.12h.16v-.48H112v-.49h.16v-.82h.16V45h.17c0-.33.11-.66.16-1h.16c.06-.49.11-1,.17-1.47h.16v-.33h.16v-.32l.33-.16c0-.38.11-.77.16-1.15H114c.06-.21.11-.43.17-.65h.16c.16-.49.33-1,.49-1.46H115v-.33h.16v-.65h.17V37h.16c.05-.22.11-.44.16-.65h.17V36H116c0-.33.11-.65.16-1h.17c.1-.32.21-.65.32-1h.16v-.32l.49-.33v-.32h.17c0-.38.11-.76.16-1.14.06-.14.22,0,.33-.49.83-.24.32-.39.65-1l.32-.16V30h.17v-.33l.32-.32V29l.33-.16.32-1,.49-.33v-.32h.17c0-.22.11-.44.16-.65H121c.06-.38.11-.76.17-1.14l.32-.17c.06-.21.11-.43.16-.65h.17l.32-1h.17c0-.38.11-.76.16-1.14.09-.17.21,0,.33-.49h.32l.33-1.46.32-.17V19.9l.33-.16c.05-.27.11-.54.16-.81l.65-.49V18h.17v-.33h.16V17.3l.33-.17v-.32h.16v-.33h.16l.33-1.47h.16v-.32l.33-.17.16-.65H127l.33-1h.16v-.48h.17c0-.22.1-.44.16-.66H128v-.49h.16v-.32l.33-.16.33-1H129V9.31h.16l.33-1h.16V8h.16V7.52H130l.16-.66h.16V6.37h.17V6.05h.16V5.56h.16V5.23H131c.19-.44.11-.89.32-1.3h.16a7.37,7.37,0,0,0,.49-2.12ZM103.24,43.86v1.8c-.37,1.28-.72,2.84-1.15,4.07-.26.76.21,1.18,0,1.8h-.16v.32h-.16v.49h-.16v.33c-.16.2-.62.18-.82.32v.17l-.33.16v.32l-.32.17v.32l-.33.17a2.22,2.22,0,0,0-.65,1.14c-1.11.3-.32.82-.65,1.3v.16l-.82-.16c-.11.45-.22.37-.32.82H97a1.33,1.33,0,0,1-.32.65h-.17v.32l-.32.17V59l-.33.17v.32l-.33.17V60h-.16l-.32.49h-.33a2.72,2.72,0,0,1-.82,1.14l-.32.16-.33,1-.49.17-.65.81h-.49v-.16H91.5v-1h-.16V60.82s-.14,0-.17-.33V58.7H91v-.17a10,10,0,0,0,.49-1.14h-.16c0-.32.1-.65.16-1h.16v-1h.17v-.65H92v-.66h.16v-.49h.16L92.64,52h.16c.06-.21.11-.43.17-.65h.16v-.65l.33-.16v-.49h.16v-.33h.16l.33-1h.16v-.48h.16c.06-.22.11-.44.17-.66h.16v-.49l.49-.32c0-.22.11-.44.16-.65l.33-.17c.05-.21.11-.43.16-.65l.33-.16v-.33l.32-.16v-.33L97,44V43.7l.33-.16v-.33h.16a2,2,0,0,0,.49-1c.46-.12.4-.2.65-.48h.16l.17-.49.49-.17v-.32h.16v-.33h.16c.06-.11.11-.22.17-.32h.32l.16-.33c.53-.27.42.25.82-.33h1v.17h.16v.49l.33.16v1h.16v.49h.16c.06.54.11,1.08.17,1.63h.16C103.34,43.54,103.29,43.7,103.24,43.86Z"/><path class="cls-1" d="M51.45,30.2c-.48-.17-1.1-.75-2-.52v.16h-.81l-.17.32h-.33v.16H47.7v.17h-.33v.17l-1.14,0v.16l-.66.16v.16l-2.29.45-.16.33H42.3V32H42v.17h-.82v.16l-.65.15v.17h-.66v.16h-.49V33H39v.16h-.81v.16h-.32v.16l-1.48.47v.16l-.65.16v.16l-1.47.3v.17h-.33l-.16.33-.82.15v.16h-.33v.16l-.66.15V36h-.49v.16l-.65.15v.17l-1.63.46-.17.33h-.49v.16l-1.48.47V38a1.08,1.08,0,0,1-.65.16,1.34,1.34,0,0,1,.33-.65h.16v-.32h.16l.18-1h.16l.17-.65h.17v-.49h.16l.17-.65h.16v-.48h.16v-.33h.16v-.48h.16v-.65h.16l.18-.65h.16v-.49l.32-.16v-.32h.16l.18-1,.33-.15v-.49h.17c.11-.32.22-.65.34-1h.16v-.33h.16v-.48l.32-.16V27h.16v-.32h.16c.2-.37.14-.94.34-1.3l.5-.32v-.65h.16v-.32l.32-.16v-.33h.16l.18-1,.33-.16c.05-.22.11-.43.17-.65l.33-.16v-.32l.33-.16v-.33h.16c.06-.22.11-.44.17-.65L35.3,20v-.49h.16l.17-.65h.16v-.49H36c.12-.33.23-.65.34-1h.17V17.1h.17v-.32h.16v-.33H37c.11-.33.23-.65.34-1l.33-.16V15l.33-.16v-.49h.16v-.16H38c0-1.1,0-.91-.63-1.32v-.16H37v-.17h-.65v-.16l-1.31,0-.16.33h-.17V13l-.33.16c-.06.27-.12.54-.17.81l-.33.16-.18.65-.32.16-.18.65h-.16c-.06.22-.11.44-.17.65h-.16c-.18.54-.35,1.08-.52,1.62h-.16c-.06.16-.11.33-.17.49l-.33.16V19H31.4v.33h-.17v.32l-.33.16-.17.65-.33.16-.17.65-.33.16v.32h-.16v.33h-.17v.49h-.17c-.05.22-.11.43-.17.65h-.16v.32h-.16v.33h-.17l-.34,1h-.16l-.18,1-.33.16v.49h-.17v.32l-.33.16v.65l-.49.32v.49h-.16c-.06.21-.12.43-.17.65H26.2c-.11.48-.23,1-.34,1.46h-.17v.33h-.17v.32l-.33.16v.49H25v.49h-.16v.32h-.17v.49h-.17v.32h-.16v.33h-.16c-.12.33-.23.65-.34,1h-.16l-.18,1.14h-.17v.33h-.17v.33H23v.32h-.16v.49h-.16l-.34,1h-.16v.32H22v.33h-.16c-.17.31-.18,1-.34,1.29l-.33.16c-.25.27-.48.65-.83.81l-.82.15v.16h-.32v.16h-.49l-.16.33H18l-.17.32-.82.15-.17.33h-.65l-.16.32h-.33l-.17.32h-.32l-.34.33h-.32v.16h-.33l-.17.32h-.49l-.16.32h-.49v.17h-.32v.16h-.33V45H12l-.33.32-.65.15-.17.33h-.49v.16H10l-.17.32-1,.15v.16H8.51v.16c-.62.23-.88-.08-1.14.15L6.87,47c0,1.11.28.91.46,1.64.45.12.37.23.81.34v.32c.35.09.46.11.65.34l1.63-.14v-.16h.33v-.16h.49V49h.49l.17-.32,1-.15.17-.33h.48v-.16h.32v-.16h.32l.17-.32h.33l.33-.33h.32v-.16h.33V47H16l.17-.32h.32v-.16h.33v-.17h.49v-.16h.33V46l.49-.16c.19-.18,0-.07.33-.16v.17h.16V46h-.16v.33h-.16v.33l-.32.16v.49l-.33.15V48h-.16v.33h-.17v.32h-.16v.32H17l-.18.81-.33.16v.33h-.16l-.18.65h-.16l-.35,1.47-.49.31-.51,1.46h-.16v.33l-.33.16c-.11.32-.22.65-.34,1h-.16l-.18,1.14h-.16V57h-.16v.32l-.33.16V58l-.33.16v.49h-.17c-.05.21-.11.43-.17.64h-.16l-.18,1h-.16v.32l-.33.16v.33h-.16v.49H10.9l-.18.65h-.16v.49h-.16V63h-.17v.49h-.17v.33H9.89c-.12.32-.23.65-.34,1H9.38v.49H9.21v.32H9l-.18,1.14H8.7v.33H8.53v.49H8.36V68L8,68.2c-.21.35,0,.7-.18,1.14H7.69l-.34,1H7.18v.33H7v.65H6.84c0,.22-.11.44-.17.65H6.51l-.18,1H6.17l-.18,1H5.83v.32H5.66l-.18,1-.33.15c-.11.6-.23,1.2-.35,1.79H4.64c-.06.22-.12.43-.17.65H4.3L4.12,78.9H4v.33H3.79v.49H3.62v.49H3.45v.49H3.28v.65H3.11v.32H2.94l-.18,1.46H2.6l-.18,1H2.26v.33H2.09c-.06.49-.12,1-.19,1.46H1.74v.49H1.57V87H1.4v.32H1.23v.49H1.06v1a8,8,0,0,0-.71,3.42c.33.38.65.77,1,1.15.53,0,.73,0,1,.34a2.89,2.89,0,0,0,1.8-.3v-.49c.59-.14.57-.32.83-.8h.16v-.65l.33-.16.18-.81.32-.16V90h.16v-.65h.16V89l.33-.16c.06-.27.11-.54.17-.81,0,0,.24-.14.33-.32l-.48-.17v-.65H6.45v-.17H6a12.62,12.62,0,0,1,1.21-4.71l.18-1.14h.16v-.33h.17l.18-1.14H8V79H8.2v-.81h.16c.12-.32.23-.65.34-1h.17v-.33H9l.18-1.14h.17v-.33h.16l.18-1h.16V74.1h.16L10.24,73h.16l.18-.65h.16l.18-1h.16V71h.16v-.49h.16v-.32h.17c.11-.32.22-.65.34-1h.16c.11-.49.23-1,.35-1.46h.16l.17-.65h.16l.18-1h.16v-.33h.16l.18-1.14h.17v-.33H14v-.33l.33-.16v-.65h.16l.34-1H15V62h.16v-.33h.17V61.3h.16V61h.16v-.49h.16v-.33H16v-.49h.16v-.33h.17l.51-1.46H17c.11-.33.23-.65.34-1h.16V56.6h.16l.18-.81.32-.16v-.32h.16v-.49h.16l.18-.65h.16v-.49H19v-.33l.33-.15v-.49h.16c.06-.22.12-.43.17-.65h.17v-.49l.33-.16V51.1h.16v-.49h.16c.06-.21.11-.43.17-.65h.17l.17-.65.33-.16v-.33h.16v-.49l.33-.16v-.33H22c.05-.21.11-.43.17-.64h.16v-.49h.16V46.4l.33-.15v-.33H23v-.49l.33-.15v-.49h.16v-.33h.17c.05-.22.11-.44.17-.65H24l.18-.81.49-.16.33-.48.82-.16v-.16h.49V41.9h.33l.33-.48c.35-.21.7,0,1.14-.15v-.16L28.8,41v-.16l1-.15v-.32l.49-.16V40c.4-.2.92-.12,1.31-.31v-.16h.33v-.16l2-.63c0-.1.11-.21.16-.32h.66l.16-.32h.49V38h.32v-.17h.49l.17-.32h.33v-.16l1-.15.17-.32h.65v-.16h.33v-.17h.49v-.16H40l.17-.33h.33v-.16l1.47-.31.17-.32,1.47-.14V35l.65-.15v-.16l1-.15.16-.33,1.14,0,.17-.32h.65v-.17H48v-.16h.33v-.16h.49v-.17h.65V33.1h.32v-.17l.82-.15.17-.32.81.17v-.16h.66a1.08,1.08,0,0,1,.33-.32c0-1.35,0-1.18-.46-2Z"/><path class="cls-1" d="M477.37,66.18h.16c.05.65.11,1.3.16,2l.49.32v.65h.16l.17.49.49.33v.49l1.63,1.14,1.63-.33v-.16l.49-.33c.05-.32.1-.65.16-1h-.16l-.17-.49h-.49a2.39,2.39,0,0,1-1.14-.82c-.21-.31.2-1.22,0-1.95h-.16a2.38,2.38,0,0,1,.33-1.47V63.25h.16c.05-.38.11-.76.16-1.15h.16v-.48h.17V61h.16v-.65h.16v-1h.17c.05-.27.1-.54.16-.81h.16v-.33h.17v-.65h.16c0-.49.11-1,.16-1.47l.49-.32c.05-.44.11-.87.16-1.31l.33-.16v-.49h.16V53.3h.17v-.49h.16v-.49h.16V52h.16v-.65H485v-.49l.49-.33c.05-.32.1-.65.16-1l.49-.32V48.9h.16c.06-.38.11-.76.16-1.14h.17c0-.22.11-.43.16-.65H487v-.33h.17v-.49l.32-.16V45.8h.17v-.48h.16c.11-.33.22-.66.32-1h.17V44h.16v-.49l.33-.16V43h.16v-.32h.16v-.49h.17l.32-1h.16l.17-.65.32-.16c.06-.28.11-.55.17-.82l.32-.16v-.33h.17V38.8h.16v-.49l.32-.17c.06-.21.11-.43.17-.65s.32-.22.49-.32.1-.44.16-.66l.33-.16.16-.65.32-.16v-.33h.17v-.33h.16v-.32l.33-.33v-.32l.49-.33v-.49h.16v-.33l.32-.16.17-.65.49-.33.32-.49h.17v-.32c.12-.17.49-.29.65-.49h.32V30c.33-.09.14,0,.33-.16h.16c-.11-.54-.21-1.09-.32-1.63h-.17l-.65-.81H495v-.17h-1.3L493,28.53h-.32a6.07,6.07,0,0,1-.82,1.63v.32l-.32.17v.48h-.17a2.27,2.27,0,0,0-.32,1.31c-.53.14-.58.42-1,.65-.05.38-.11.76-.16,1.14h-.33v.16c-.32.28-.65.55-1,.82v.33L488,36c-.11.33-.22.66-.32,1l-.49.33c-.44,1.19-.87,2.39-1.31,3.58h-.32c-.06.28-.11.55-.17.82l-.32.16v.33h-.17v.49h-.16c0,.19.32.29.16.65l-.32.16v.33h-.16v.49l-.66.49v.32h-.16c-.05.22-.11.44-.16.65h-.17v.66l-.32.16c-.06.27-.11.54-.16.81h-.17v.33h-.16v.82l-.49.32v.65l-.33.17V50h-.16v.82l-.32.16c-.06.27-.11.54-.17.82l-.32.16v.32h-.17V53h-.16v.32h-.16v.82l-.33.16v.49h-.16v.33h-.16c-.06.27-.11.54-.17.81h-.16v.49H479c-.06.43-.11.87-.17,1.3h-.16V58h-.16v.81h-.17v.66h-.16v1.3H478c-.06.33-.11.65-.16,1h-.17v.32h-.16l-.33,3.59h.17Z"/><path class="cls-1" d="M441.68,68.87h.3l.9-1.06h.3l.75-.9h.31l.3-.3v-.3c.17-.22.36-.1.6-.46h.3v-.3c.56-.07.48-.14.75-.45h.15l.15-.45h.31l.15-.3h.3l.3-.45h.3v-.15c.22-.21.2-.08.3-.46.62-.17.16-.11.45-.45h.15v-.15l.61-.15.45-.6H450l.15-.3h.3a2.67,2.67,0,0,0,.6-1.06,3.14,3.14,0,0,0,1.66-1l.15-.3h.3v-.15l.45-.3.3-.46c.4-.28.79-.34,1.06-.75h.3c.12-.41,0-.34.45-.45v-.3h.3v-.3c.46-.12.52-.28.61-.76.72-.2.64-.71,1.35-.9a2.8,2.8,0,0,1,.75-1h.15V53.5l.31-.15.15-.6.3-.15v-.3l.45-.3.15-.6.3-.15.15-.76h.15l.15-.6h.15v-.45h.15V47.63h.16V46.58h-.16v-.76h-.15l-.15-.6h-.15l-.15-.75h-.15a2.05,2.05,0,0,1-.45-.91c-.65-.18-.51-.47-.9-.75h-.31l-.15-.3-.6-.15v-.15l-.9-.3v-.15h-.45v-.15l-.61-.15v-.15h-.75v-.16h-.45V41l-1.21-.15V40.7h-2.1s0-.2-.31-.15v.15c-.5.1-.78-.19-1.05-.15v.15L448,41v.15h-.3v.16l-.45.3v-.15h-.15l.3-1.51.3-.15v-.6l.45-.3v-.46h.15v-.3h.15v-.3l.3-.15v-.6h.15v-.3h.16v-.3l.3-.15.15-.61h.15a3.08,3.08,0,0,0,.45-1.35h.3a5.88,5.88,0,0,1,.45-1.21H451v-.6l.46-.3.15-.6h.15v-.76l.3-.15v-.3l.45-.3v-.3l.3-.3v-.3l.3-.15v-.46h.15a2.74,2.74,0,0,0-.15-1H453c0-.16.32-.29.15-.6H453c-.37-.38-.65-.12-1.2-.3l-1.36-.46c-.1.19-.24.21-.3.31v.3l-.45.3-.15.75-.3.15-.15.75h-.16v.31h-.15l-.15.6h-.15l-.15.75h-.15v.3H448l-.3,1.51-.3.15-.15.6-.45.3v.61l-.31.15v.3h-.15c-.27.59.19.65-.6.9a10.24,10.24,0,0,1-1.2,2.41l-.45,1.36h-.16v.3h-.15V40h-.15l-.15.6h-.15l-.15.76-.45.3-.3,1.35-.45.3-.15.46h-.46l-.15.3h-.3v.15c-.22.2-.2.07-.3.45-.7.15-.75.52-1.2.9v.15h-.3c-.31.35-.61.71-.91,1.06v.45h-.15c-.31.93.22,1.49-.45,2.11V50h.15l.9,1.36-.6,1.8h-.15l-.15.76-.3.15-.3,1.35-.3.15v.46h-.15v.3h-.16V57l-.3.15-.15.9H436v.3h-.15v.61h-.15v.45h-.15l-.15,1h-.15l-.15,1.21h-.15v.9h-.15V63h-.15v.61h-.15v1.05h-.15a8.78,8.78,0,0,0,.15,3.16h.15c.21.61-.16.79.3,1.21.11.41,0,.34.45.45l-.15.75h-.15l.15,1.06h.3c.16.61.4.49.9.75v.15h.46l.15.3.75.15c.26-.3.35-.13.6-.3l.3-.45h.15v-.3l.46-.15.75-1.06h.3c.17-.63.5-.54.9-.9Zm-1.21-3.62-.6.76-.45.15-.3.45a7.32,7.32,0,0,1-1.51,1.2v-.15h-.15a13.93,13.93,0,0,1,.6-4.06V63l.3-.15v-.45h.15v-.9h.15v-.61h.15v-.45H439V60h.16v-.45h.15l.15-.75h.15v-.3h.15V58l.3-.15v-.3h.15v-.3h.15v-.6h.15l.3-.91h.15l.15-.75.3-.15v-.45h.15c.05-.3.11-.6.16-.91h.15l.15-.6h.15l.15-.9.3-.15v-.3h.15l.3-1.36h.15v-.3h.15v-.6h.15l.15-.6h.15v-.31l.31-.15.3-1h.15v-.3h.15l.15-1.06.45-.3.15-.45h.3v-.15l.91-.3v-.15h.45a12.85,12.85,0,0,1,5.42-1.06h2v.15l1,.16v.15h.6V44h.31l.15.3h.3c.29.16.6.44.9.6a9.73,9.73,0,0,0,.45,1,6.43,6.43,0,0,1-.45,2.56l-.3.16V49h-.15l-.45,1.35-1.06.91-.15.6h-.15a1.75,1.75,0,0,0-.45.75h-.3c-.19.69-.78.78-1.21,1.21l-.6.75h-.3l-.3.45-.3.15-.15.45h-.3l-.46.61h-.3l-.45.6h-.3l-.6.75h-.3l-.31.45-.9.76-.15.45h-.3l-.15.3h-.3l-.61.75h-.3l-1.05,1.21h-.3l-.15.3h-.3l-.46.9-.6.15-.45.61h-.3l-.6.75h-.3l-.16.3h-.15l-.45.75Z"/><path class="cls-1" d="M660.62,51.45l.32-.18,0-.49.93-.86V49.6l.63-.52.27-1,.63-.52c.09-.33.18-.66.28-1l.47-.35c.09-.33.18-.66.28-1l.32-.18,0-.33h.16c.09-.33.19-.66.28-1h.33l.27-1h.17l0-.32.32-.18c0-.22.08-.44.13-.66l.47-.35.13-.66.32-.18c0-.22.09-.44.13-.66l.32-.17,0-.33h.16v-.32H668l0-.33h.17l0-.48.48-.35.13-.66.47-.35c.09-.33.18-.66.28-1l.31-.17v-.33h.16v-.32h.16l0-.49h.17c.14-.49.27-1,.41-1.49.94-.29.65-1,1.06-1.68l.63-.52,0-.33h.17l0-.32h.16l0-.65h.16c0-.22.09-.44.13-.66h.17l0-.32.32-.18,0-.65c.12-.36.7-.78.41-1.49h-.16l0-.33h-.16l-.18-.48-.83-.12-.18-.32-.65,0v-.16l-1.14.05c-.34.19-.52,1-.75,1.35l-.79.69c0,.22-.08.44-.13.66l-.31.18v.32l-.32.18,0,.33-.47.35v.32l-.62.52v.33l-.47.35,0,.32-.63.52v.33l-.47.35,0,.32h-.16c-.27.47.16.28-.47.51A2.72,2.72,0,0,1,664.5,34l-.48.35-.27,1-.32.18c0,.22-.09.44-.13.66h-.16c0,.16-.1.33-.14.5l-.32.17c-1,2.23-2.07,4.46-3.1,6.68l-.33,0a2.07,2.07,0,0,0-.7-1.11c-.47-.28-3.08-1-4.11-.61V42l-.33,0v.16l-.5-.14-.46.68-.8.2c-.21.28-.41.56-.61.85h-.33l-.45.68-.32.18v.32l-.31.34-.32,0-.46.67c-.29.25-.24-.06-.47.35l-.33,0A3,3,0,0,1,648,47.5h-.17l0,.32-.78.69v.33l-.47.35,0,.33-.48.35,0,.32-.32.18c0,.22-.08.44-.13.66l-.32.18,0,.32-.32.18,0,.33H645l-.13.66-.32.17v.33l-.31.18v.32l-.32.18c0,.33-.07.66-.11,1l-.32.18,0,.32h-.16l0,.65h-.17l-.13.66h-.16c0,.38-.07.76-.11,1.14h-.16l0,.49c-.24.72-.86,2.73-.46,3.94h.16l.06,1.3h.17l0,.48h.16l0,.49H643l0,.49c.27.51.82.69,1,1.41l.5.14v.16l.49.14.18.32c.29.18.37,0,.67.29l1.3-.06.15-.33.8-.21v-.16h.32l.92-1.19c.63-.51,1.35-.83,1.72-1.56h.33c.19-.85.83-.77.89-1.84l.32,0,.61-.84c.46-.5,1.09-.75,1.4-1.38l.49,0c.12,1.19.23,2.38.34,3.57a7.45,7.45,0,0,1,.74,1.76h.33v.32l1,.77v.16l.82.12v.17c.51-.1.39-.08.63-.36h.17l0-.33.63-.35a4.82,4.82,0,0,0,.11-1.15c-.33-.08-.14,0-.33-.15-.79-.43-.42-.7-.73-1.59h-.17c0-1.57.07-3.15.1-4.73H659l0-.82h.16l0-.65h.16l0-.65h.16c.08-.66.16-1.31.23-2h.17c0-.22.08-.44.13-.66h.16l0-.49h.16l.13-.66h.16C660.54,51.89,660.58,51.67,660.62,51.45ZM657.08,49h-.17l0,.65h-.17l0,.49h-.17l0,.49h-.16l0,.49h-.16c0,.27-.09.55-.13.82h-.16l-.14.5-.32.18,0,.32-.63.52-.14.5h-.32c-.14.64-.46.54-.6,1.18-.79.24-.42.46-.76,1H653a1.66,1.66,0,0,0-.44.84,2.08,2.08,0,0,0-1.24,1.36l-.33,0,0,.33L649.78,60l-.14.33-.33,0-.6,1.17-.48,0-.31.5-.32,0-.6,1-.33,0,0,.33-.66,0a8.52,8.52,0,0,1-.12-2.61h.16l0-.66h.16c0-.44.07-.88.1-1.31h.16v-.33h.16c.08-.49.17-1,.25-1.48l.32-.18.13-.66.32-.17,0-.49h.17l0-.33h.16v-.33l.32-.18,0-.49h.16v-.33h.16v-.32h.16l.14-.5.31-.18.14-.66.62-.52v-.32l.31-.18v-.33l.63-.52.13-.49.48-.35.76-1c.4-.44.94-.67,1.08-1.36a1.3,1.3,0,0,0,.63-.36v-.16l.48-.19.13-.49.65-.2.3-.5,1.29-.23A15.2,15.2,0,0,1,657.08,49Z"/><path class="cls-1" d="M162.66,44.19,163,44l.16-.49h.16v-.33l.49-.32v-.33l.49-.33v-.32c.27-.22.54-.44.82-.65v-.17h.32l.49-.81h.33V40a2.31,2.31,0,0,0,1.46-.65,1.91,1.91,0,0,0,.33-1.47c-.74-.17-2-1.25-3.26-.81v.16h-.33v.16H164v.17l-.66.16V38a2.66,2.66,0,0,0-1.63,1.63c-.88.23-.58.56-1,1.14l-.33.16v.16l-.33.17v.32l-.81.65v.33l-.33.16v.33h-.16a1.66,1.66,0,0,0-.49.81h-.16v.49h-.33c-.25,1.07-.84,1.23-1.3,2v.33l-.33.32v.33H156v.32h-.16v.33l-.33.16v.33h-.16v.32h-.17l-.16.49-.33.17c0,.21-.1.43-.16.65l-.65.49c-.06.27-.11.54-.16.81l-.33.17v.32h-.16v.33H153v.32l-.32.33v.33l-.33.16-.16.49h-.16v.32l-.33.33v.33h-.16v.32l-.33.16-.65,1.8h-.16c-.06.16-.11.32-.17.49l-.32.16v.49h-.17v.32h-.16v.33l-.32.16L149,60h-.16v.33h-.17v.32h-.16V61h-.16v.33h-.17v.48l-.48.33v.65h-.17l-.16.65c-.29.53-.45.25-.49,1.15h-.65V64.4H146c-.06-.38-.11-.76-.17-1.14h-.16v-.81h-.16c-.06-1.31-.11-2.61-.17-3.92h.17c0-1,.1-2,.16-2.93h.16v-.81H146V53.32h.16v-.65h.16V51.53h.16v-.66h.17c.05-.21.11-.43.16-.65H147v-.65h.17l-.17-.33h.17v-.65h.16c0-.43.11-.87.16-1.3h.17V46.8h.16v-.49H148v-.65h.16v-.49h.17v-.33h.16l.33-2H149V42.4h.16v-.49h.17v-.49h.16V40.6h.16v-.48h.16V39.3H150v-.49h.16v-.32h.16c.17-.93.33-1.85.49-2.78a2.55,2.55,0,0,1-.65-1,12.78,12.78,0,0,0-2.93-.33c-.17.82-.33,1.63-.49,2.45h-.17v.48h-.16c0,.2.31.29.16.66l-.32.16v.49H146v.49h-.17v.65h-.16v1.14h-.16v.49h-.17v.33h-.16v.65h-.16v.49h-.17v1h-.16c0,.22-.11.44-.16.66h-.16v1h-.17v.33l-.32.16v.49h-.17c-.05.49-.11,1-.16,1.47h-.16v.33h-.17v1h-.16v.33h-.16v1l-.33.16v.49h-.16v.49h-.16v1h-.17v.65H142V55c-.05.54-.11,1.09-.16,1.63,0,.16.11.32.16.49h-.16c0,.16.11.32.16.49h-.16c0,1.3.11,2.6.16,3.91h.16L142,62h.16v.32h.17v.66h.16v.48h.16v.66h.17v.49h.16v.32l.32.16.17.49h.32l.33.49h.16c.06.17.11.33.17.49h.32v.16l.49.17c-.05.82-.23.8-.49,1.3v.33h-.16V69l-.33.16v.33h-.16c-.06.27-.11.54-.16.81l-.33.16v.66l-.33.16-.16.49h-.16c-.22.65-.44,1.3-.65,2h-.17V74l-.32.16v.49h-.17c0,.22-.1.44-.16.65h-.16l-.16.66-.33.16v.49l-.33.16-.32,1H140c-.1.32-.21.65-.32,1h-.16v.81l-.49.33v.49l-.33.16c0,.27-.11.54-.16.82h-.17v.32h-.16V82l-.32.16v.33h-.17v.65l-.32.16c-.17.49-.33,1-.49,1.47h-.17v.32h-.16v.49h-.16v.33h-.16v.65l-.33.16c-.06.22-.11.44-.16.66h-.17c0,.21-.11.43-.16.65h-.16v.49h-.17v.32H135l-.16.66h-.16V90h-.17c-.05.22-.11.44-.16.66h-.16v.49H134v.32h-.16V92h-.16v.33h-.17v.65h-.16v.32h-.16v.66H133c-.1.32-.21.65-.32,1h-.16c-.06.33-.11.66-.17,1h-.16v.49H132v.49h-.17v.49h-.16v.33h-.16v.81h-.17V99h-.16v.49H131v1h-.16c-.06.21-.11.43-.17.65h-.16c-.05.38-.11.76-.16,1.14h-.17c-.1.71-.21,1.41-.32,2.12.65.19.2,0,.49.49h.16v.32h.16v.17H131v.16l1.14.16v.17h1.14c.06-.17.11-.33.16-.49l.66-.49v-.33l.65-.49c.05-.27.11-.54.16-.81l.33-.17c.05-.21.11-.43.16-.65h.16v-.32h.17v-.33h.16v-.49l.49-.32c.05-.28.11-.55.16-.82l.33-.16c.11-.22.21-.44.32-.65a4.12,4.12,0,0,0-1.46-.17,4.78,4.78,0,0,1,.32-2h.17v-.49h.16v-.49h.16c.06-.38.11-.76.16-1.14h.17l.32-1h.17v-.65h.16v-.33h.16c.06-.32.11-.65.17-1h.16v-.32h.16c.16-.55.33-1.09.49-1.63h.16l.17-.65h.16V89h.16v-.33h.17V88.2h.16c0-.22.11-.43.16-.65H140v-.49h.17c.05-.22.11-.43.16-.65h.16v-.33h.17v-.49h.16l.16-.65h.17v-.65h.16V84l.49-.32V83l.32-.17.17-.65h.16v-.33h.16v-.32h.17v-.33h.16v-.32h.16v-.33h.16v-.33h.17v-.32h.16v-.33h.16v-.32h.17v-.33h.16v-.33h.16v-.32h.17v-.33h.16v-.32h.16v-.33h.16v-.49l.33-.16.33-1.14,1.3-2.12.33-1.14.32-.17v-.49h.17v-.32h.16c0-.22.11-.44.16-.65h.16v-.49h.17v-.33l.32-.16v-.33h.17c.16-.49.32-1,.49-1.46l.32-.17v-.49h.16v-.32H150v-.33h.16l.33-1h.16v-.49h.16v-.32h.17V64.4l.32-.16c.06-.22.11-.43.16-.65h.17v-.33h.16v-.32h.16v-.33h.17v-.33h.16V62h.16c.06-.22.11-.44.17-.65h.16V61l.32-.33v-.32l.49-.33v-.49l.33-.16V59H154V58.7l.33-.33v-.32l.32-.17v-.32h.17v-.33H155v-.49h.16l.17-.65h.16v-.33l.33-.16v-.49H156v-.32l.32-.17c.06-.21.11-.43.17-.65l.32-.16c.06-.27.11-.55.17-.82l.49-.32v-.49l.32-.17v-.32l.33-.16V51.2l.32-.16.33-1,.33-.16v-.33l.32-.16v-.33l.33-.33.16-.65h.16c.06-.16.11-.32.17-.49l.32-.16v-.33l.33-.16v-.32l.49-.33V46l.32-.16c.06-.16.11-.33.17-.49H162V45l.65-.49Z"/><path class="cls-1" d="M508.62,48.52v.16l2.12-.16.16-.33h.49V48h.49l.16-.33h1.31l.16-.32h1v-.17h.65v-.16l1.79-.16v-.16h.49v-.17l1.63-.16v-.16h.33v-.17h1.14v-.16a3.46,3.46,0,0,1,1.3.16,4.34,4.34,0,0,1-.65,1.31v.32l-.32.17v.49l-.33.16v.32h-.16c-.06.22-.11.44-.17.66H520V50h-.16v.32h-.17v.33l-.32.16v.49h-.16v.33h-.17v.32l-.49.33c0,.27-.11.54-.16.81h-.16c-.06.22-.11.44-.17.65h-.16v.66l-.49.32-.16.49h-.16c0,.16.1.33.16.49l-.49.33-.33,1-.32.17c-.06.27-.11.54-.16.81l-.33.17V59l-.49.33c0,.21-.11.43-.16.65l-.33.16-.49,1.47H514v.32l-.33.17v.32h-.16c0,.6-.11,1.2-.16,1.8h-.17v.32H513L512.53,66v.81h-.16v.82h-.16v.16h.16a3.27,3.27,0,0,0,.33,2l.32.16v.49l.33.16v.17h.32v.16c.33.19.37,0,.66.33,1.6,0,1.32-.47,2.11-1.15-.05-.84-.76-1.33-.48-2.28h.16v-.81h.16v-.49h.16v-.82h.17c0-.21.11-.43.16-.65h.16c.21-.4.14-.87.33-1.3h.16c.06-.22.11-.44.17-.65h.16V62.7h.16v-.49l.33-.16v-.33h.16l.49-1.47.49-.32v-.49h.16v-.33h.16v-.32h.17c0-.22.11-.44.16-.65l.33-.17c0-.21.1-.43.16-.65h.16V57h.17v-.32H521v-.33h.16v-.49l.33-.16v-.33h.16V55h.16v-.49l.33-.16c.05-.22.11-.44.16-.66l.33-.16c.22-.65.43-1.3.65-2l.33-.17c0-.16.1-.32.16-.49h.16v-.32l.33-.33V50h.16v-.33h.16v-.33l.33-.32v-.33l.33-.16c.32-1,.65-2,1-2.94l1.8-.16v.16h2.77v.17h2.12v.16h.81v.16l1.14.17v-.17c.76,0,.87-.18,1-.81H536c-.24-.36-.06-.38,0-.82-.36-.24-.47-.74-.81-1h-.33V43.3l-.65-.16V43h-.49v-.17l-3.09-.16v-.16a3.92,3.92,0,0,0-2.12.16H528v-.16c-.08-.12-.23,0-.17-.33H528c.05-.16.11-.32.16-.49h.16l.33-1h.16v-.48H529v-.33h.16v-.49h.16c.06-.22.11-.43.16-.65h.17c.05-.33.11-.65.16-1H530v-.33h.17c.05-.32.1-.65.16-1h.16l.33-1H531c.06-.38.11-.76.16-1.14h.17v-.65h.16V33.2h.16v-.33h.17a1.9,1.9,0,0,0-.33-1.47c-.05-.16-.11-.32-.16-.49l-1.63-.48v-.17c-.33-.09-.38.06-.49.17h-.82v.16c-.34.35-.14.79-.32,1.3h-.17c-.05.38-.1.76-.16,1.14h-.16v.33h-.16v.49h-.17v.65H527V35h-.16v.65l-.33.16c0,.33-.11.66-.16,1h-.17v.33l-.32.16v.33l-.33.16c-.05.33-.11.65-.16,1h-.16v.32l-.33.17c0,.21-.11.43-.16.65h-.17c-.05.33-.1.65-.16,1l-.49.32c-.11.44-.22.87-.32,1.31-.31,0-.33.16-.33.16h-2v.16l-.32-.16v.16h-.49V43h-2.45v.16l-.81.16-.16.33-.82-.16v.16h-.65v.16h-.33V44h-1.79v.17l-.65.16v.16h-.16v-.16h-.17v.16h-1v.17h-.65v.16h-.65v.16h-.65v.17l-2.94.48v1.31l1.47,1.63Z"/><path class="cls-1" d="M58.41,39.3V37.67c-.17-.37-2.23-1.33-2.77-.81-.7,0-.55.1-1,.32.06.33.11.65.16,1h-.16l.16.49h-.16a4,4,0,0,0,.16,2.12v1.46l.33.17c.05.16.11.32.16.49l.65.16v.16h.49v.17l.49.16.33-1.14h.16v-.65h.16v-.49h.17v-.82h.16C58.1,40.05,58.14,39.58,58.41,39.3Z"/><path class="cls-1" d="M497.85,47.81l.16,0,.06.32.35.1c.32.45,0,.61.49.91l0,.16.48-.08c.16.3,0,.14.22.29.2.42.1.36.57.4.21.15,0,.07.35.1l.07-.51.16,0,0-.32.16,0-.14-.81-.16,0,0-.16.16,0L500.53,47l.16,0-.12-.64.16,0L500.67,45c.06-.18.22,0,.24-.54.62-.3.26-.38.69-.78a3.56,3.56,0,0,0-.66-1.87l-.16,0a1.51,1.51,0,0,1-.43-.59,5.21,5.21,0,0,1-2-.31,2.19,2.19,0,0,0-1.2.71l.11.64-.16,0,.42,2.41-.16,0,.36,1.1C497.73,46.29,497.51,47.21,497.85,47.81Z"/><path class="cls-2" d="M271.25,38.51v-.43l-1.13-1.3-.58-.26a6.54,6.54,0,0,0-4.16.12l-.14.1-.49.1-.13.24h-.37l-.14.28-.46.09v.12l-.5.13-.24.48a1.57,1.57,0,0,1-.74.39l-.48.11V39a4.56,4.56,0,0,0-1,.68,2.59,2.59,0,0,1-.83.53l-.38.21-.07.25h-.22l-.24.37h-.18l-.6.6v.13l-.12.18a.77.77,0,0,0-.59.29l-.28.47-.73.31v.09l-.24.12v.3l-.76.83-.84.68v.15l-.32,0-.16.49a.73.73,0,0,0-.38.39,1.13,1.13,0,0,0-.52.55l-.05.11-.65.48v.18l-.25.12v.38l-.49.43v.21l-.24.21-.25.12V49h-.12v.48l-.25.12-.17,0,.17,2.13.17.56.08.39.27.13.1.46.61.54v.26l1.68,1.66h.2l.18.27.88.29v.3l.86.13V57h.37v.13h.61v.12h.61v.12H259v.13h1.1v.12h1.35v.12H262v.12h1v.13h1.34l.19,0,0,.09.11,0c0,.1-.09.25-.16.44l0,.07h-.13V59l-.25.12-.1.6-.27,0v.48l-.24.12v.27l-.18.14-.07.27-.21.27a2.86,2.86,0,0,0-.49.78h-.28l-.11.48a1.2,1.2,0,0,1-.38.62l-.38.18-.14.41-.46.31v.2l-.25.12v.3l-.36.24v.3l-1,.86v.25l-.49.15-.62,1.22h-.25l-.17.34-.55.2v.36l-.37.25V69l-.15,0-.18.27h-.2l-1.3,1.56-.36.12-.79.9h-.58v.41l-.89.93H252l-.29.45-.47.12-.32.42h-.39l-.24.36h-.23l-.27.36a1,1,0,0,0-.67.07l-.52.55-.68.13V76l-.36.37,0,.32a1.23,1.23,0,0,0,.38,1.13v.3l.37.12v.3l2.18.43.24-.28c.06-.07.11-.09.37-.12a1.83,1.83,0,0,0,.84-.25l.3-.35.49-.12.24-.37.54-.14.09-.18.47-.1v-.24h.07l.41,0,.11-.4c0-.11.06-.14.24-.27a3.06,3.06,0,0,0,.32-.26h.57V75.5l.12,0,.54-.77.15-.09a1.42,1.42,0,0,0,.65-.63,1.87,1.87,0,0,0,.52-.43c.11-.12.14-.16.26-.19l.34-.09.09-.34a.75.75,0,0,1,.17-.29l.14-.2.7-.17v-.43l.37-.3H260l.73-1h.41l.12-.45a.37.37,0,0,1,.07-.14,1.57,1.57,0,0,0,.19-.27,1.16,1.16,0,0,0,.67-.78l0-.1.59-.59h.39l.14-.42.19-.24A2.13,2.13,0,0,0,264,67h.19l.12-.24h.36v-.55l.41-.31.25-.74.56-.43v-.2l.25-.21.13-.07.25-.74.36-.17V63.1l.24-.12v-.3l.37-.24v-.32l.37-.14v-.24h.12v-.6l.25-.13v-.13h.12v-.45l.07-.16a4.71,4.71,0,0,0,.17-2.49,1.78,1.78,0,0,0-.5-1.21l-.19-.49L266,55l-.93-.15v-.18h-.61l-.09-.46-.67.33h-1.45v-.12h-.37v-.12h-.74v-.08l-1.59-.12v-.17h-.37v-.12h-.37v-.12h-.37v-.13h-.36V53.4h-.37v-.12h-.25v-.12h-.37V53h-.36v-.12h-.61l-.77-.54-.09-.24a1.76,1.76,0,0,0-.34-.69,3.2,3.2,0,0,1,.39-1.13l.24-.12.16-.23h.4v-.49l.06-.06a3.13,3.13,0,0,0,.23-.31h.45v-.56l.53-.42,0-.12h.27l.12-.45c.06-.24.43-.56.75-.84a6.25,6.25,0,0,0,.69-.67h.4l.12-.45c0-.14.05-.15.24-.26a2.28,2.28,0,0,0,.49-.36l.75-.92a.74.74,0,0,0,.62-.49,2.47,2.47,0,0,0,.6-.45,1,1,0,0,1,.15-.14h.2l.25-.37h.29l.13-.24h.29l.37-.49h.37l.37-.5h.31l.17-.33.91-.47.63-.18.21-.36,1-.25v-.13a1,1,0,0,1,.24.11v.36l.45.13a.34.34,0,0,1,.17.07v.44h1.09l.62.61.33-.88A6,6,0,0,0,271.25,38.51Zm-16.89,7.71Z"/><path class="cls-1" d="M79.11,56.58v.16l-.65.16-.16-.48h-.17c.17-.33-.09-1.2.17-1.8h.16V54.3h.16v-.82h.17c0-.49.1-1,.16-1.47h.16v-.48h.16V51h.17v-1h.16v-.65h.16v-.66h.17v-.32h.16v-.49h.16v-.49h.17v-.81h.16c0-.44.11-.87.16-1.31h.16c.06-.7.11-1.41.17-2.12H80.9v-1a8.21,8.21,0,0,0-.65-1l-.81-.17v-.16h-.33v-.16l-1.79.32c-.23.87-.91,1.26-1.47,1.8l-.16.32-.49.17v.32H75l-.66.82h-.32l-1,1.14-2.12,2c0,.17-.11.33-.16.49l-1.14,1v.33c-.17.2-.42,0-.65.16s-.19.61-.33.81l-.33.17L67.05,52h-.33v.33c-.32.1-.14,0-.32.16h-.17a6.21,6.21,0,0,1,1-2.28c.16-.7.33-1.41.49-2.12h.16v-.32l.33-.17c0-.54.11-1.08.16-1.63h.17v-.49h.16v-.32h.16v-.65H69c0-.33.1-.66.16-1h.16c.08-.31-.12-.24-.16-.33s.11-.32.16-.49h-.16v-.16l.16-.16L69,41.75h-.17v-.33a3.94,3.94,0,0,1-1.63-.33c-.5,0-1.21-.08-1.47.17-.43.47-.09,1.22-.32,2h-.16c-.06.44-.11.87-.17,1.31h-.16v.32h-.16v.49H64.6v.49h-.16v.33h-.16v.49h-.17c0,.43-.1.86-.16,1.3l-.32.16v.49h-.17c-.05.22-.11.44-.16.65h-.16v.49H63l-.16.65h-.16v.49h-.17c0,.22-.1.44-.16.66h-.16V52l-.33.17v.65h-.16v.49h-.16c-.06.27-.11.54-.17.81h-.16v.33H61V55h-.17l-.32,1h-.16v.32H60.2v.33H60v.32h-.16v.33h-.17v.33h-.16v.65h-.16l-.17.65h-.16v.33H58.9v.65h-.16l-.33,1h-.16c-.06.38-.11.76-.17,1.14h-.16l.33,1.46a1.88,1.88,0,0,1,.81.49v.17h.33v.16c.35.22.23-.07.49.33h1.3l.65-.82.82-.65.16-.49.49-.33V62l.33-.33v-.32h.16V61l.32-.16c.06-.27.11-.55.17-.82l.49-.32v-.17h.49v-.16l.32-.16v-.33l.49-.33v-.32h.33a4.2,4.2,0,0,1,1.14-1.47l.32-.16v-.33H68l.32-.49h.33a1.38,1.38,0,0,1,.33-.65h.16v-.32l1-1.31h.32l.33-.32v-.33l.32-.16c.06-.17.11-.33.17-.49h.16v-.33l1.3-1.14v-.33l.49-.16,1-1.14h.16v-.33h.33c.45-.24.06-.54,1-.65a20.75,20.75,0,0,1-1.14,4.08c-.06.76-.11,1.52-.17,2.28a3.54,3.54,0,0,0-.16,1.63h.16v1.3h.17v.49c.21.17.43.33.65.49v.33l.49.32.16.49c1.12.24,1.39.68,2.94.65V60h.32l.16-.32h.33v-.17h.33l.16-.32a3.52,3.52,0,0,1,1-.66c.06-.35.16-.31.16-.32v-.82h.16c0-.7-.1-.55-.32-1Z"/><path class="cls-1" d="M470.1,46.11l.16,0,.1.81.17,0,0,.16,1.35.32a1.7,1.7,0,0,1,.28-.36l-.08-.65.16,0-.08-.65.16,0,.3-1.52.16,0,0-.32.16,0c0-.33,0-.66,0-1l.3-.2,0-.33.17,0a4.56,4.56,0,0,0-.25-1.94l-.35-.12-.2-.3-1.82-.1,0-.16a2.08,2.08,0,0,0-.79.26c0,.34-.12.35-.12.35L470,41l-.17,0,.21,1.61-.16,0c.09.32.19.64.28,1l-.3.21c0,.71,0,1.43-.05,2.14C470.09,46.05,469.89,46,470.1,46.11Z"/><path class="cls-1" d="M229.17,50.06c.16.27.32.54.49.81a4,4,0,0,0,2,.33,10.85,10.85,0,0,0,0-2.61l-.81-1-1-.16v-.16h-.49v-.17h-.49V47H227.7V46.8h-.16V47h-1.8v.16h-.32v.17h-.49v.16h-.65l-.17.33h-.49v.16h-.48l-.17.33h-.32v.16l-.66.16-.16.33-.65.16-.33.49-1,.33c-.06.1-.11.21-.17.32h-.32l-.49.65h-.33V51c-.45.28-.29-.16-.49.49a3.16,3.16,0,0,0-1.3.81l-.16.33h-.33L215,54.13c-.33.33-.72.4-1,.82h-.17c.06-.27.11-.54.17-.82h.16v-.32h.16c.06-.38.11-.76.17-1.14h.16V52h.16v-.48H215V51h.17v-.66h.16c.06-.54.11-1.08.16-1.63h.17v-.32h.16c0-.33.11-.65.16-1h.17l.16-.65h.16v-.65c.27-.81.51-2.36-.16-2.94v-.16h-.65v-.16c-.19-.09-1.59-.55-2-.33v.16h-.33c-.1.66-.21,1.31-.32,2h-.16v.65h-.17V46h-.16v.49h-.16v.33h-.17v1h-.16v.32h-.16l-.33,2h-.16v.32h-.16c-.06.33-.11.66-.17,1h-.16v.33h-.16c-.06.38-.11.76-.17,1.14h-.16v.49h-.16V54h-.17c-.05.27-.1.54-.16.82h-.16c-.06.21-.11.43-.16.65h-.17c-.05.38-.11.76-.16,1.14h-.16v.32H209c0,.33-.1.66-.16,1h-.16c-.06.22-.11.44-.17.65h-.16c-.05.39-.11.77-.16,1.15H208V60h-.17v.49h-.16c-.05.33-.11.65-.16,1h-.17V62h-.16v.49H207v.49h-.17v1h-.16v.49h-.16v.49h-.16v.33h-.17c-.05.38-.11.76-.16,1.14h-.16V67h-.17v.65h-.16v.49h-.16v.33h-.17V69H205v.49h-.16l-.33,1.79h.17v.49l1,1.14H206V73l.65.16v.17A1.72,1.72,0,0,0,208,73c.94-.57.52-1.9,1-2.93h.17c0-.22.11-.44.16-.65h.16c.06-.38.11-.76.17-1.15h.16V68h.16c.06-.33.11-.65.16-1l.33-.16v-.33l.33-.32v-.33h.16v-.33h.16l.33-1,.32-.17c.06-.21.11-.43.17-.65l.32-.16V63.1l.66-.49v-.33H213a3.82,3.82,0,0,0,.49-1.3c.83-.23.61-.67,1-1.3h.16v-.33l.81-.49.17-.49.81-.65v-.33l.33-.16,1-1.14h.49c.05-.27.1-.54.16-.82s.41,0,.65-.16V55a2.33,2.33,0,0,1,1.14-.65c.06-.17.11-.33.16-.49l1-.33c.22-.79.43-.46,1-.81l.16-.33h.33v-.16h.33l.16-.33.65-.16.16-.33h.33V51.2l.65-.16v-.17h.49v-.16h.33v-.16h.49l.16-.33a7.42,7.42,0,0,1,2.12-.32v.16Z"/><path class="cls-1" d="M180.1,47.61h-.16c-.05-.38-.11-.76-.16-1.14h-.17v-.32h-.16c0-.17-.11-.33-.16-.49H179c-.05-.22-.11-.44-.16-.65l-.49-.17v-.16H178v-.16h-.32v-.17l-3.26-.16v.16c-.87,0-1.47.3-1.63,1h-.49v.16L170.65,47v.33l-.65.49v.32l-.49.33-.17.32H169l-.33.33v.33l-.49.32v.33l-.32.16-.17.65-.32.17v.32l-.33.17-1.14,2.6h-.16v.33l-.33.16V55l-.32.16v.33l-.49.32-.33,1h-.16v.33l-.33.32v.33l-.32.16v.49h-.17v.33h-.16v.49H163v1h-.17v.33h-.16v.65h-.16a5,5,0,0,0,.32,2.77c.06.33.11.66.17,1l.32.16v.49l.49.33a7.92,7.92,0,0,0,2.77,2.28l2.61.16v-.16h.33l.16-.32h.65l.17-.33.65-.16c.11-.41.08-.27.32-.49v-.17h.33l.16-.48.49-.17v-.16l.82-.65v-.33h.32a3,3,0,0,1,.82-1.14h.16v-.33l.49-.32v-.33l.33-.16v-.33l1.14-1c0-.28.11-.55.16-.82h.16v-.33l.33-.16v-.32l.32-.17v-.32h.17v-.33h.16v-.65H178l.33-1,.33-.16v-.33h.16c0-.43.11-.87.16-1.3h.16V55h.17v-.33h.16V54h.16v-.49h.17v-1.3h.16v-.65h.16V50.38h.17c-.06-.21-.11-.43-.17-.65h.17v-.16h-.17Zm-2.61,4.08h-.16c-.05.27-.11.54-.16.81H177v1.14h-.17V54h-.16v.49l-.49.33v.32l-.65.49v.33l-.33.32v.33h-.16c-.05.27-.11.54-.16.81h-.17v1l-.49.16-.81,1.15h-.33c-.24,1.09-.72,1.23-1.46,1.79l-1.14,1.63h-.33c-.24.89-1.2,1.22-1.63,1.95l-1.14.17v-.17c-.67-.17-.2-.07-.49-.48h-.16l-.17-.49a3.31,3.31,0,0,1-.16-1.8c.27-1,.54-2,.82-2.93h.16v-.16c.56,0,1.25.35,1.63,0h.16c-.05-.17-.11-.33-.16-.49h.16V57.56H169c.11-.6.22-1.2.32-1.8h.17c.05-.21.11-.43.16-.65h.16v-.32l.49-.33c.06-.27.11-.54.17-.82l.65-.48c.11-.33.21-.66.32-1l.33-.17v-.32H172v-.33c.22-.16.44-.32.65-.49v-.32h.17v-.33h.16l.16-.49h.33v-.32c.63-.18.49-.37.81-.82l.66-.49.16-.32h.33c.1-.17.21-.33.32-.49H176v-.17h1l.16-.16a3.44,3.44,0,0,1,.16,1.63s-.24.06-.16.33l.32.16a2.77,2.77,0,0,1-.16,1.47C177.19,51.07,177.56,51.39,177.49,51.69Z"/><path class="cls-1" d="M379.63,40.3c.44.1.61.17.81.49.62,0,.68,0,.82-.49h.32c.06-.3.17-.32.17-.32V38.84h.16v-.49h.16a5.63,5.63,0,0,0-.16-2.28c-.47-.23-1.53-1-2-.66a3.47,3.47,0,0,0-1.3.17c.16,1.19.32,2.39.49,3.58A8.13,8.13,0,0,1,379.63,40.3Z"/><path class="cls-1" d="M202.6,47.29h-.17c0-.23.14.06.17-.17s-.11-.54-.17-.81c-.64,0-1,0-1.3-.33H199.5v.17c-.62.44-.48.44-.82,1.14h-.16v.65h-.16c-.06.22-.11.43-.16.65H198c-.11.49-.21,1-.32,1.47l-.33.16c0,.27-.11.54-.16.82l-.49.32a4.33,4.33,0,0,0-.49,1.8h-.33l-.16.32h-.16v.33l-.33.16v.33h-.16c-.33.56-.43,1-1,1.3v.49c-.81.21-.45.44-.81,1l-.33.16-.65,1H192a3.06,3.06,0,0,1-1,1.47l-.32.16v.32l-.65.49V61h-.17a1.25,1.25,0,0,0-.32.65h-.33l-.81,1.14h-.49v-.16c-.76-.79-.18-3.35,0-4.24l.65-3.42h.16v-.33h.16c.06-.32.11-.65.17-1h.16v-.32h.16v-.49h.17c.05-.27.11-.54.16-.82l.33-.16v-.49l.32-.16c.06-.22.11-.44.16-.65l.33-.17v-.32H191v-.33c.45-.69,1.1-.94,1.31-1.95.18-.19.07,0,.16-.33a2.17,2.17,0,0,1-.81-.81c-.89,0-1.39-.46-2.12-.17l-.33-.16v.16h-.33v.17l-.48.16c-.29,1-1.2,1.13-1.31,2.44h-.32c-.06.17-.11.33-.17.49h-.16v.33h-.16v.49l-.33.16-.33,1h-.16c0,.32-.11.65-.16,1h-.16v.49H185v.48h-.16v.49h-.16c-.06.44-.11.87-.17,1.31h-.16L184,58.53a3.71,3.71,0,0,0-.32,1.31h.16c0,.43-.11.87-.16,1.3h.16v.49H184l-.16.33H184c.06.38.11.76.17,1.14h.16v.32l.33.17v.32l.32.17v.32l.33.17.65.81c.63.41,1.31.12,1.79.82.78,0,1.12.24,1.8,0V66h.49l.32-.49h.33l1.14-1.3h.32a7.27,7.27,0,0,0,1-1.79h.33c.19-.12.2-.63.32-.82l.49-.32v-.49c0-.06.24-.14.33-.33h.33c.12-.44,0-.37.48-.49.06.16.11.33.17.49h.16c.06.27.11.54.16.82l.66.48v.33h.16l.32.49h.33v.16c.44.21.48,0,.82.33a2.26,2.26,0,0,0,.81-.16V61.79h-.16v-.32h-.17v-.65h-.16c.06-.66.11-1.31.16-2h.17v-.49H199c.06-.76.11-1.52.16-2.28h.17V55.6h.16v-.49h.16c.06-.38.11-.76.17-1.14H200v-.33h.16V53l.33-.16v-.49l.32-.16.33-1,.49-.33v-.49h.16c.06-.21.11-.43.16-.65h.17v-.49h.16l.16-.65h.17v-.65h.16v-.16h-.16Z"/><path class="cls-1" d="M321.92,52.25v.16l.82.17v.16a2.6,2.6,0,0,0,1.14-.16l.16-.33.65-.16.17-.33h.32c.06-.11.11-.22.16-.33l1.47-.48v.16H327c-.11.88-.39.76-.65,1.3v.49l-.32.16v.49h-.17c-.05.22-.1.44-.16.66h-.16c-.06.32-.11.65-.17,1h-.16v.33H325c-.06.33-.11.65-.16,1h-.17v.32h-.16v.66h-.16l-.33,1h-.16v.82h-.17v.49h-.16v.49h-.16v.49h-.16v.32h-.17c-.05.44-.11.87-.16,1.31h-.16V63h-.17v.49h-.16v.81h-.16v.49h-.17v1.31h-.16v.48h-.16v1.63c-.14.76-.29,3.91.49,4.57v1l.49.32c.05.17.11.33.16.49l1.3,1h.49l.17.33.48.16v.16l.82.16v.17a1.39,1.39,0,0,0,1.47-1c.18-.19.07,0,.16-.33-.4-.18-.79-.45-1.14-.65h-.33v-.16l-.49-.33c-.05-.22-.1-.43-.16-.65h-.16v-1h-.17a15.46,15.46,0,0,1,.17-4.07V66.92h.16c.06-.43.11-.87.16-1.3H326v-.33h.16v-.65h.16v-.49h.17l.48-2.28h.17c.11-.6.22-1.2.32-1.8h.17v-.32h.16c0-.33.11-.65.16-1h.17c.05-.22.1-.43.16-.65h.16v-.49h.16V57.3h.17v-.49h.16v-.48h.16v-.49h.17c.05-.33.11-.66.16-1h.16v-.33h.17c.05-.27.1-.54.16-.81h.16l.33-1.47h.16v-.33l.33-.16c.05-.27.11-.54.16-.81h.16v-.33h.17l.16-.65h.16v-.65l.49-.33c.06-.16.11-.33.16-.49.25-.1.57-.06.82-.16v-.17h.33V48h.65v-.16h.32v-.16h1.14v-.17h.33v-.16h.65V47.2h1V47h.49v-.16h.33v-.16h1v-.17h.82v-.16h1v-.16h1.3l.16-.33.49-.16v-.16h.65V45.4h.17c0-1-.22-1.45-1-1.63a4.54,4.54,0,0,0-2.28-.16.42.42,0,0,1-.49.16v-.16H339v.16l-.49-.16v.16h-.49v.17h-.82v.16h-.65v.16l-1.3.17v.16a2.62,2.62,0,0,1-1.14.16c.11-.87.53-1,.81-1.63v-.49l.33-.16V42l.32-.16v-.33h.17v-.32h.16v-.49h.16v-.33h.17c.05-.22.1-.43.16-.65h.16c.06-.22.11-.44.17-.65h.16v-.49s.24-.16.32-.33h.49l.17-.65h.32c.06-.27.11-.54.17-.82l-.33-.16c-.06-.27-.11-.54-.16-.81l-1.14-.17v-.16c-.23,0-.27.28-.66.16v-.16a2,2,0,0,0-1.79.16c-.77.23-.39.48-.65,1.14h-.16v.66l-.49.32v.33h-.17v.32h-.16v.49h-.16v.49h-.17v.33h-.16V40l-.33.17v.49l-.32.16v.33h-.16v.32h-.17v.33h-.16v.32h-.16v.33l-.33.33v.32l-.33.16v.33l-.32.16v.33h-.16v.49l-.33.16v.49c-.18.39-.44.52-.49,1.14a3.21,3.21,0,0,0-1.3.49V47h-.82v.17l-.65.16v.16h-.33l-.16.33H325V48l-.65.16v.17h-.49l-.33.49h-.49V49h-.32l-.17.33h-.65v.16h-.32l-.17.32h-.49V50c-.16.11-.32.22-.49.32.13.56.38.75.49,1.31A2.28,2.28,0,0,1,321.92,52.25Z"/><path class="cls-1" d="M533.69,50.26a9.26,9.26,0,0,1-.28,2.64l.07,1-.16,0,.07.81h-.17l.09,1.14h-.16a9.87,9.87,0,0,0,.42,3.24c.11.75.23,1.51.34,2.26h.17c.13.32.26.63.4.95a.87.87,0,0,0-.28.67l-.32,0c-.2.29-.39.58-.59.86l-.16,0,0,.48-.48.21c-.18.18-.14.64-.26.83l-.16,0-.28.51-.33,0a2.11,2.11,0,0,1-.56,1.19l-.32,0-.3.35,0,.33-.31.18-.44.69-.32,0-.14.34-.76.71-.11.66-.16,0a2.33,2.33,0,0,0-.58,1l-.32,0a6.77,6.77,0,0,1-1.6,2.58l-.46.36c-.08.33-.16.67-.25,1l-.32,0a1.89,1.89,0,0,1-.42.85h-.17l-.24,1-.32.19,0,.32-.16,0c0,.16-.09.33-.13.5-.62.23-.21.06-.45.52l-.16,0,0,.32h-.17l0,.33-.46.36,0,.33-.31.19,0,.32-.76.71,0,.33-.31.19,0,.32a4.9,4.9,0,0,0-.67,1.85c-.9.32-.86,1.36-1.14,2.22h-.16l0,.49-.31.19,0,.49-.46.36,0,.49h-.16l0,.32-.16,0,0,.32-.31.19,0,.33-.31.18,0,.49h-.16l0,.49c-.07.19-.21,0-.28.51l-.33,0c-.16.67-.33,1.33-.49,2l-.32.19,0,.49h-.16c-.18.4.08.22-.29.51a2.59,2.59,0,0,0,2,2.3l0,.16,1.13-.09c.09-.41.07-.27.29-.51v-.16l.32,0,.13-.5c.25-.24.5-.48.76-.71,0-.33.06-.66.08-1h.17c0-.23.07-.45.11-.67h.16c0-.38,0-.77.07-1.15h.16l.12-.67.31-.18,0-.33h.16l0-.33h.16l0-.49.32-.19,0-.32h.16c0-.28.07-.55.1-.83l.31-.19,0-.48.32-.19,0-.33.31-.19c0-.22.08-.44.11-.66l.32-.19.12-.5h.16l0-.49.47-.36c0-.22.07-.44.11-.66l.31-.19,0-.33.32-.19,0-.32.31-.19,0-.32.31-.19c.08-.34.16-.67.25-1l.16,0a1.71,1.71,0,0,0,.42-.85l.33,0A4.81,4.81,0,0,1,527,79.4l.61-.53c0-.28.07-.55.1-.83l.46-.36,0-.33.31-.19V77l.31-.19,0-.48.47-.21a1.51,1.51,0,0,0,.26-.83l.33,0c.13-.73.72-1.12,1-1.71l.32,0a1.85,1.85,0,0,1,.43-.85h.16l0-.33.76-.71,0-.33,1.51-1.59,0-.32.17,0a1.28,1.28,0,0,0,.27-.67l.49,0a5,5,0,0,1,.87-1.38l.31-.19,0-.32.31-.19,0-.32.48-.21a10.88,10.88,0,0,0,.57-1l.32,0c.14-.68.44-.66.9-1l.44-.69.31-.19c.16-.38-.18-.73.09-1l.63-.22.13-.5h.16a1.79,1.79,0,0,0,.42-.85c.4-.15.26-.1.46-.37h.17l0-.32.16,0,0-.48.48-.21.12-.5c.61-.64,1.21-1.29,1.81-1.94l0-.32.46-.37,0-.32.46-.36c0-.17.09-.34.13-.5l.49,0,0-.17.31-.18,0-.33.31-.19,0-.32h.16v-.17c.34-.35.31.15.44-.52l.33,0v-.16l1.06-1.07,0-.32.3-.35.33,0,.28-.51.31-.19.13-.5.8-.23,0-.16.32-.19,0-.32.46-.37v-.16l.33,0c.2-.2.43-.93.72-1.21l-.09-1.13-.34-.14c-.73-.65-1.4-.76-2.83-.59l-1.06,1.06,0,.33-1.06,1.06-.29.51c-.59.5-.91.27-1.05,1.23a1.72,1.72,0,0,0-.77.55v.17l-.32,0-1,1.39c-.41.36-.63.24-.74.88l-.33,0c-.08.46-.19.39-.26.84-.72.25-.73.67-1.05,1.23l-.31.19,0,.32-.32.19c-.45.57-1.36,1.45-1.45,2.24-.4.14-.26.11-.47.37h-.16l0,.32-.17,0-.28.51-.49,0a14.51,14.51,0,0,1,.32-4.28l-.06-.65h.17c0-.22.07-.44.11-.66l.16,0-.08-1v-.16l.16,0a1.67,1.67,0,0,0-.42-1.27C536.68,49.79,534.9,49.9,533.69,50.26Z"/><path class="cls-1" d="M306,50.25l.16-.65.33-.17a5.35,5.35,0,0,0,1.3-1.63c.71-.19.56-.51,1-.81h.33c.05-.11.1-.22.16-.33h.16l.17-.32h.32l.49-.66c.54-.38,1.12-.4,1.47-1a14.45,14.45,0,0,1,2.77.49,2.33,2.33,0,0,1,.49-.82c-.13-1-.77-1.42-1-2.28l-3.26-.49v.16l-1,.17v.16h-.32l-.17.32-.81.17v.32a2.06,2.06,0,0,0-1,.49v.17c-.73.5-1.32.47-1.79,1.3h-.33v.33a1.25,1.25,0,0,0-.65.32v.16l-.49.17v.32l-.33.33h-.32l-1.8,2v.32l-.32.16v.33l-.49.33v.32l-.33.17v.32h-.16c-.05.22-.11.44-.16.65h-.17c-.05.33-.1.66-.16,1h-.16a8.12,8.12,0,0,0,.16,2.94,6.38,6.38,0,0,1,.82,1v.33l.32.16c.06.17.11.33.17.49l.48.33.17.32h.32l.33.49h.49v.17h.32l.33.48c.49.31,1.16.14,1.79.33v.16l5.06-.32v.49c-.21.17-.17.28-.33.49h-.16v.32l-.65.49V61l-.33.16-.49.65h-.33c-.1.22-.21.44-.32.65h-.33c-.23,1.05-1.06,1.25-1.79,1.8l-1,1.46h-.32v.33a3.22,3.22,0,0,0-1.31,1c0,.11-.11.21-.16.32h-.33l-.65.82H302l-.17.49-.65.16-.81,1h-.33l-.32.49h-.33l-.16.32-.49.17v.32h-.17l-.16.33c-.54.39-.92.19-1.14,1l-.65.16v.33a2.22,2.22,0,0,0-1.14.65l-.17.32h-.48l-.17.33h-.49l-1.14.81c0,.68-.06.84.49,1l.16.65c1.14.25,1.52.74,2.78.49v-.32a3.62,3.62,0,0,0,1.3-.49L298,76h.33l.16-.32h.33l.16-.33h.33l.49-.65.48-.16.17-.33h.32l1.14-1.3h.33l.16-.33h.33l1-1.14.65-.16.65-.82h.33l1-1.14h.16V69c.78-.18.77-.63,1.47-.81.23-.84,1.38-1.55,1.95-2.12l1.14-1.3.49-.33V64.1l.49-.32.16-.65.66-.49v-.33l1-.81v-.33l.33-.16c.33-.93.65-1.85,1-2.77h-.17c-.23-.83-.19-1.17-.81-1.63v-.17h-.65v-.16H313v-.16a16.51,16.51,0,0,0-4.08-.17v.17l-3.26.16v-.16a5.69,5.69,0,0,0-1.3-.49l-.16-.65H304c-.46-1.34.88-3.65,1.31-4.24Z"/><path class="cls-1" d="M599.48,60a2.63,2.63,0,0,0,1.31-.82l.16-.32h.32l.33-.49.65-.16.17-.33a5.15,5.15,0,0,0,1.79-1.47h.49a5,5,0,0,1-.49,1.8c-.06.59-.11,1.19-.16,1.79h-.17V61.8h.17v.82h.16v.65h.16l.33,1h.16v.32l.33.17A3.27,3.27,0,0,1,606,66l.49.16v.17h.33v.16l2.28.16v-.16h.32v-.16h.49V66.2h.49V66h.33v-.16h.32v-.16a1.37,1.37,0,0,1,.66-.33v-.33a4.7,4.7,0,0,0,2.12-1.3l.32-.49,1-.33.16-.32h.33l.16-.33h.33l.16-.32.49-.17v-.32c.11-.14.32-.12.49-.33s0,0,.16-.16l-.65-.17c0-.59,0-.74-.33-1v-.17l-.49.17v.32h-.32l-.16.33h-1.15v.16h-1.14v.16l-.65.17v.16H612l-.32.49-.82.16-.49.65h-.32a2.47,2.47,0,0,0-.82.82h-1.47a9.33,9.33,0,0,1,1.31-6.19c0-.22.11-.44.16-.66l.65-.49c.06-.21.11-.43.17-.65l.32-.16c.06-.16.11-.33.17-.49h.16v-.49l.49-.32c0-.22.11-.44.16-.66h.16v-.32l.33-.17c.38-.57.36-.93,1-1.3-.06-.65-.11-1.3-.17-2l-.48-.16v-.16c-.65-.24-1,.13-1.47-.33a2.83,2.83,0,0,0-2.28,1l-.17.33H608l-.17.32h-.32l-.33.49-.65.16-.33.82c-.46.33-.52-.22-1,0l-.66.81h-.48v.17h-.33V53h-.33l-.16.33h-.49c-.11.16-.22.32-.32.49-.51.35-1,.45-1.31,1h-.32v.33c-1.25.15-1.35,1.19-2.45,1.47-.05.27-.11.54-.16.81s-.38,0-.65.16v.17h-.33v.16c-.55.32-1,.47-1.14,1.14l-1.14.16a15.18,15.18,0,0,1,1.3-3.09c.06-.33.11-.65.16-1h.17v-.33h.16c0-.38.11-.76.16-1.14H597V53h.16v-.81c0-.06.23,0,.16-.33h-.16c0-.49.11-1,.16-1.47h-.16c-.06-.32-.11-.65-.16-1-.54-.15-.33-.18-.66-.48v-.17l-3.09-.49v.17l-.65.16-.33.49c-.32.17-.58-.05-.82.16s-.21.44-.32.65h-.33v.17h-.49v.16h-.49v.16h-.32v.17h-.33l-1.3,1v.33c-.12.14-.34.13-.49.33h-.33l-.16.65h-.49c-.26,1-.8.54-1.47,1V54l-.81.65v.49c-1.17.07-.47.35-1,.65h-.65l-1.14,1.31h-.33a3,3,0,0,1,.33-1.31h.16c.06-.38.11-.76.16-1.14h.17l.32-1h.17c0-.32.1-.65.16-1h.16c.06-.27.11-.54.17-.81H583v-.33h.16c.06-.21.11-.43.16-.65h.17c0-.32.11-.65.16-1h.16v-.32H584c.1-.49.21-1,.32-1.47h.17v-.33h.16c.05-.32.11-.65.16-1H585v-.33l.33-.16V46a3.27,3.27,0,0,0,.49-1.63,2.59,2.59,0,0,1-.65-1l-1-.16v-.16a.47.47,0,0,0-.49.16l-1.14-.16a1.38,1.38,0,0,1-.33.65H582c0,.27-.11.54-.16.81h-.17v1l-.49.33V47h-.16c0,.22-.11.43-.16.65h-.16v.65h-.17v.49h-.16v.49h-.16v.49h-.17v.49h-.16c0,.22-.11.43-.16.65h-.17c-.13.27,0,.9-.16,1.14h-.16c-.19.28-.1.23-.49.33L578.45,54h-.16v.32h-.16c-.06.17-.11.33-.17.49h-.32l-.33,2-.49.33v.32h-.16v.33h-.16v.49l-.33.16v.49H576v.32h-.16c-.06.39-.11.77-.17,1.15h-.16v.32h-.16c-.06.27-.11.55-.17.82H575c0,.38-.11.76-.16,1.14l-.33.16v.33h-.16v.32h-.16v.49h-.17c0,.22-.11.44-.16.65h-.16c-.17.49-.33,1-.49,1.47h-.17c-.1.49-.21,1-.32,1.47h-.16v.32h-.17v.49h-.16v.33h-.16V69l-.33.16v1a7.81,7.81,0,0,0,.65,1h.33c.15.13.12.34.32.49a6.2,6.2,0,0,0,1.15.49v-.16h.48v-.16l.49-.33v-.33c.17-.1.33-.21.49-.32s.11-.44.17-.65l.32-.17v-.32l.33-.33V69h.16v-.33h.16v-.33l.49-.32v-.33h.17v-.33l.32-.16c.06-.22.11-.43.16-.65l.33-.16V66l.33-.16v-.33l.81-.65v-.33l.65-.49v-.32l.82-.65v-.33l.32-.16v-.33l.49-.32v-.33h.17l.32-.49h.33a3.18,3.18,0,0,1,1-1.3l.32-.17v-.32l.49-.33v-.16c.39-.36.46,0,.65-.65h.33l.65-.82h.33v-.16l.32-.16v-.33c.33-.1.14,0,.33-.16.44-.13.37,0,.49-.49a3.29,3.29,0,0,0,1.3-.82l.17-.32h.32l.33-.49h.32l.33-.49h.33c.05-.11.1-.22.16-.33l.65-.16.33-.49.65-.16.16-.33.49-.16v.16h.16a6,6,0,0,1-1,2.61v.33H592v.32h-.16l-.49,1.79-.32.17-.33,1.63h-.16v.32l-.33.17v.32H590c-.06.38-.11.76-.17,1.14h-.16v.49h-.16v.33h-.16v.65h-.17v.33h-.16l-.65,2.77h.16v.32h.16v.33h.17v.33h.16c.15.22.11.28.16.65h.33l.49.65h.49v.16h.65s1.74-1.39,1.79-1.46v-.33l.33-.16.81-1h.33l.16-.49.82-.65c.05-.17.1-.33.16-.49.26-.22.18.17.49-.33h.32v-.32l.49-.33v-.33l.33-.32h.33l.48-.65c.49-.35.8-.31,1-1C599.44,60.37,599.36,60.46,599.48,60Z"/><path class="cls-1" d="M49.44,53.16l-.16-.66L47.65,52a1.75,1.75,0,0,0-1.47.49H46c-.05.38-.11.76-.16,1.14H45.7c-.06.28-.11.55-.17.82l-.32.16V55H45v.32h-.16v.49h-.16v.33h-.17v.49l-.48.32c-.06.17-.11.33-.17.49h-.16v.49h-.16v.33h-.17v.49h-.16l-.16.65h-.17v.33l-.32.16v.32h-.16c-.06.22-.11.44-.17.66h-.16c0,.32-.11.65-.16,1h-.17v.49h-.16l-.16.66h-.17v.32l-.32.16v.49h-.16c-.17.93-.33,1.85-.49,2.77h.16a1.17,1.17,0,0,0,1,1.31v.32l1,.17v.16a3.49,3.49,0,0,0,1.3-.16c0-.22.11-.44.16-.65h.17V65.71h.16v-.33h.16v-.49h.16v-.32h.17c.11-.33.22-.66.32-1h.17v-.82l.32-.16v-.33h.17v-.49h.16v-.32H46v-.33l.33-.16v-.33h.16l.33-1.3.49-.33c.1-.32.21-.65.32-1h.16v-.33H48v-.33h.16v-.32h.16v-.33h.17v-.49l.32-.16c.06-.33.11-.65.17-1h.16c.05-.22.11-.43.16-.65h.16v-1s.23,0,.17-.32Z"/><path class="cls-1" d="M409.71,60v.49h.17v1.63H410v.33h.16c.06.32.11.65.17,1l.49.33c.05.27.1.54.16.81h.16a1.37,1.37,0,0,1,.33.66,2.41,2.41,0,0,1,1,.65V66h.32v.16l1,.33v.16h.65v.17l1.47-.17v-.16l.65-.16.33-.49h.32l.17-.33h.32L418,65a6.36,6.36,0,0,0,1.63-1.79H420l.17-.65.65-.16v-.33H421l.82-1v-.16h.49v.81h.16v.33h.16c.06.27.11.54.16.81h.17v.33l.32.16v.33l.82,1h.49l.16.32c.28.25.6.33.82.66l2,.32v-.16H428v-.16h.33V65.5h.49v-.16l.48-.33v-.32L428,64.2h-.81c-.31-.12-.67-.49-1-.65-.06-.28-.11-.55-.17-.82l-.32-.16v-1h-.16a13.42,13.42,0,0,1,.65-5.38l.32-.16v-.33h.17c.05-.22.11-.43.16-.65H427l.33-1.63.32-.16V53h.17l.16-.65h.16v-.82h.17a1.66,1.66,0,0,0-.33-1.3c-.45-.67-.7-.19-1.3-.49,0,0-.17-.25-.33-.32l-.16-.49h.16V47.41h-.16c0-.23.15.07.16-.16s-.11-.66-.16-1l-.33-.16c-.05-.33-.11-.66-.16-1h-.16l-.33-.49c-1-.2-2.54-1.15-3.59-.82V44H421l-.16.32h-.49l-.16.33h-.33l-.16.32h-.33l-.16.33h-.33l-1,1.14h-.32l-.33.65h-.32l-.66.82h-.32l-.49.81h-.33l-.16.33-.81.65c-.06.22-.11.44-.17.65l-.32.17a2.63,2.63,0,0,0-.82,1.46l-.49.17v.32l-.49.33c-.11.38-.21.76-.32,1.14h-.17c0,.22-.1.43-.16.65H411v.49h-.16v.33h-.17v.49h-.16c0,.21-.11.43-.16.65h-.17v.81H410c-.05.65-.11,1.31-.16,2h-.17c-.1.38.19.44.17.65Zm3.75.16h.17V59h.16v-.49H414c.06-.21.11-.43.17-.65h.16V57h.16c.06-.22.11-.44.16-.66h.17v-.48h.16v-.33h.16v-.33l.33-.16c.05-.22.11-.43.16-.65l.33-.16v-.33l.49-.33v-.32h.16V53l.33-.16c.21-.33.43-.65.65-1h.32c.12-.44.23-.37.33-.81a3.23,3.23,0,0,0,1.47-1.31H420c.18-.67.5-.63,1-1l.33-.49h.32c.06-.1.11-.21.17-.32s.47-.28.65-.49a1.86,1.86,0,0,1,.65.16,23.85,23.85,0,0,1-1.47,5.71c-.05.65-.11,1.3-.16,1.95h.16a3.2,3.2,0,0,1-1.14,1.8l-.32.16-.17.49-.49.32v.33h-.16v.33l-.49.32v.17h-.32v.16l-.49.32V60l-.65.49v.33h-.33v.16l-1.3,1.14v.33l-.33.32h-.33v.16c-.2.16-.31.12-.49.33H414v-.16A4.85,4.85,0,0,1,413.46,60.12Z"/><path class="cls-1" d="M676.32,66.8l.33,0v-.16l.65,0v-.16a2.89,2.89,0,0,1,1.29-.39l.14-.5c.41,0,.44.13.65.13l.15-.33,1-.21V65h.33v-.16l.33,0,.14-.33.33,0v-.16l.33,0v-.16l.49,0v-.16l.64-.19v-.17l.65,0,.15-.33.65,0V63l.66,0c0-.11.09-.22.14-.33l1.3-.23,0-.32c.61-.2.81-.62,1.26-.88s.74,0,1.14-.22a1.28,1.28,0,0,1,.3-.34,2.46,2.46,0,0,0-.39-1.45l-1,0v.16h-.33v.17c-.49.16-1.09-.46-1.63.08-.43.14-.37,0-.46.51l-1.14.06V60h-.16v.16l-.82,0v.17l-.49,0v.16l-.33,0v.16l-.81,0V61h-.33v.16l-.82,0v.17h-.32v.17l-.81,0v.16l-.49,0v.17l-.49,0v.16l-.49,0v.16h-.33v.17l-1.45.4v.16l-.64.19v.17l-.65,0v.16l-.33,0v.16l-1,0V64l-.81,0v.16a2.15,2.15,0,0,1-1.65-.24c-.79-.18-.19-.15-.52-.63h-.16a1.28,1.28,0,0,1-.36-.64l-.32,0c-.08-.33-.18-.32-.18-.32l0-.81h-.16l-.06-1.14h-.16c0-.6,0-1.2.07-1.8h.16v-.33h.16l0-.65h.16c.09-.33.19-.66.28-1h.16l0-.49h.16l0-.33h.17l0-.32h.16v-.33h.16l0-.49c.12-.32.45-.69.6-1l.65,0,.36.63h.32l.53.62h.32l.35.47.82.12v.16h.33v.16a9.6,9.6,0,0,0,2.45-.12v-.16c.38-.29.3-.29,1-.37.05-.17.09-.34.14-.5A12,12,0,0,0,681,53l0-.48c.8-.1.68-.37,1.28-.56a2.3,2.3,0,0,1,.6-1.17l.32-.18,0-.32h.16V50h.16l0-.49h.17l0-.49h.17l0-.65h.17l0-1H684v-.16h-.16c-.19-.59,0-1.1-.4-1.45-.28-.87-2.11-1.56-3-1.81l-.82,0a4.64,4.64,0,0,0-2.12-.05v.16h-.33v.17l-.82,0v.16l-.64.19v.17l-1,.21v.16l-.33,0-.15.33-.32,0-.15.33-.49,0-.3.51-.8.2-.31.51a7.71,7.71,0,0,0-2.48,2.57h-.33c-.16.72-.48.58-.76,1V51l-.47.35-.27,1.16h-.16l0,.32-.32.18c0,.28-.08.55-.13.82h-.16c-.09.33-.18.66-.28,1h-.16l0,.65h-.16c0,.22-.09.44-.13.66H666c0,.38-.07.77-.11,1.15h-.16l0,.48h-.16l0,.49h-.16c.08.59.17,1.19.25,1.78h-.16c.08.49.15,1,.23,1.46H666v.32h.16l0,.48h.16l0,.65h.17l.19.64h.16l0,.32.5.3.2.65.5.3v.16l.33,0c.28.32.57.63.86.94L672,67.51l2.77-.14v-.16l1.62-.25Zm-1.82-17h.33v-.16c.43-.31.3.14.46-.52.55-.18.41-.36,1-.53l0-.33,1.61-.57v-.16l.32,0v-.16l.49,0V47.1c.6-.27,1.33-.34,1.93-.58a.65.65,0,0,0,.34.31c-.08,1.4-.85,2-1.32,3l-.33,0a2,2,0,0,1-.45.84h-.16l0,.49h-.16v.16l-.16.17-1,0v.16l-.32,0v.16l-.33,0v.16l-.33,0v.16a2.67,2.67,0,0,1-1.94.26c-.18-.38-.18-.58-.53-.79A2.51,2.51,0,0,1,674.5,49.75Z"/><path class="cls-1" d="M362.35,63.45l-.33.49h-.32v.16h-.17v-.16a3.67,3.67,0,0,0-1.95.16l-1.31-.65c-.16-.49-.32-1-.49-1.47h-.16v-.32h-.16V58.24l.32-.17v-.32H358v-.66h.16v-.32h.16v-.65h.17c.05-.22.1-.44.16-.66h.16V55h.16v-.66h.17V54h.16v-.49h.16c.06-.22.11-.44.17-.65h.16V52.2h.16V51.06l-.49-.32c-.05-.17-.1-.33-.16-.49h-.33l-.16-.49h-.16v-1.3h-.16V47.8h-.17v-.32h-.16v-.82l-.33-.16V46c-.18-.4-.53-.64-.65-1.14-.49-.14-.62-.39-1-.65v-.17h-.49a4.63,4.63,0,0,0-2.93-.48v.16h-.33v.16l-.81.16-.33.49h-.32l-.65.82-.66.16c-.05.16-.1.33-.16.49l-1.3,1.14v.33l-.66.49v.32l-.48.33v.32h-.17l-.49.66-.32.16-.17.65-.65.49v.33l-.32.16v.33h-.17c-.05.27-.1.54-.16.81l-.81.65v.33l-.33.32v.33h-.16v.33h-.17v.32H343v.33h-.16v.32h-.17v.33h-.16v.33h-.16v.49l-.33.16v.49h-.16c-.05.21-.11.43-.16.65h-.17v.49h-.16v.32h-.16v.66H341v.49h-.16v.65h-.16v1h-.16c-.06,1.14-.11,2.28-.17,3.42h.17v.65l.32.16c.06.33.11.66.16,1l.49.33.17.49h.16v.32l.49.33.16.49h.33c.11.16.22.32.32.49l.66.16c.41.22,1.77,1.09,2.6.81V70h.33v-.16h.81l.33-.49.65-.16.17-.33H349l.33-.49h.32v-.16l.82-.65V67c1-.26.57-.65,1-1.31l.32-.16v-.33l.33-.16c.22-.32.43-.65.65-1h.33l.81-1.46c.95.13.62.33,1,1H355v.33l.49.33v.32l.49.17.33.48,2.44,1.15a5.3,5.3,0,0,0,3.1-.49l.33-.49h.65v-.17a2.16,2.16,0,0,1,1-.48,1.42,1.42,0,0,0-.32-1.15C363.23,63.61,362.35,63.45,362.35,63.45Zm-7.17-13.36H355v.81h-.16v.49h-.16v.81h-.17c0,.22-.1.44-.16.66h-.16c-.06.27-.11.54-.17.81l-.32.16a8.08,8.08,0,0,0-.49,2.45h.16c.06.16.11.33.17.49h-.17v.49l-.32.16v.49l-.49.33-.17.48h-.16v.33l-.32.16c-.06.22-.11.44-.17.66l-.49.32v.33l-.49.32v.33l-.65.49c-.05.22-.11.43-.16.65l-.49.33c-.05.16-.11.32-.16.49l-1.14,1v.33l-.33.16v.33l-.33.32h-.32l-.16.33-.49.33v.32h-.17c-.1.17-.21.33-.32.49s-.1-.12-.33.16c-1.23,0-.8-.36-1.47-.81V64.92h-.16c0-.33-.11-.65-.16-1h.16V63h.16c.06-.43.11-.87.17-1.3h.16v-.49h.16c.06-.38.11-.76.17-1.14h.16V59.7h.16v-.65h.17v-.33h.16c.16-.48.32-1,.49-1.46l.32-.17v-.32h.17c0-.22.11-.44.16-.65h.16v-.49H347V55.3h.16c.05-.16.11-.32.16-.49h.33a3.45,3.45,0,0,1,.49-1.3l.49-.33c0-.22.1-.43.16-.65l.65-.49v-.32l.33-.17v-.32H350c.05-.17.11-.33.16-.49l.33-.17v-.32l.81-.65v-.33L354,46.66h.66v.17h.16v.65H355v.32h.17Z"/><path class="cls-1" d="M494.51,56.87l-.16,0,.08.49-.16,0,.06.33-.29.21,0,.32-.16,0,.06.32-.16,0,.05.32-.26.38.05.32-.56.59c-.07.51-.15,1-.23,1.53l-.42.41.08.48-.16,0c0,.22,0,.44-.05.67l-.16,0,.09.49-.17,0,.12.65-.16,0,.08.49-.16,0,.22,1.29a4.28,4.28,0,0,0,.32,2.76l.16,0,.05.32,1,1,.67,0,0,.16.83,0,0,.16c.51-.16.44-.23.74-.46.06-.34.11-.68.16-1l-.16,0-.3-.77.16,0-.14-.8.16,0-.22-1.29c.33-1.54.67-3.09,1-4.64l.29-.21-.05-.33.29-.21-.06-.32.43-.41c0-.28,0-.55,0-.83l.29-.22c0-.17.06-.34.08-.51l.16,0c0-.23,0-.45.05-.67l.16,0-.05-.32.29-.22-.06-.32.16,0a3,3,0,0,1,.61-1.26,15.41,15.41,0,0,0-.66-1.87h-1l0-.16-.33.06,0-.16-.49.08,0-.16-1.55.6a5.87,5.87,0,0,1-.53,1.75l.06.32-.29.21Z"/><path class="cls-1" d="M381.44,65.41h-.17c0,.27-.1.54-.16.81H381a2.94,2.94,0,0,0,2.61,2.45v.16a1.13,1.13,0,0,1,.65-.16c.16-.27.32-.55.49-.82l.32-.16v-.33h.17V67h.16c0-.27.11-.55.16-.82l.33-.16v-.49H386v-.33h.16v-.32l.33-.16v-.33l.33-.16v-.33l.81-.65c.45-.5.2-1.06,1-1.31.17-.58.63-.88,1-1.3h.16v-.33l.65-.48v-.33l.33-.16.16-.49h.16v-.33l.49-.32v-.33l.33-.16v-.17l.33-.16v-.33h.16a1.74,1.74,0,0,0,.49-.81h.32V56l1.47-1.3c.06-.16.11-.33.16-.49l.66-.33v-.32h.16l.65-.82h.33l.81-1c.64-.46,1.09-.37,1.31-1.31l.81-.16.33-.49h.32c.45-.32.15-.55,1-.65,0,1-.18.86-.49,1.46v.33h-.16v.49h-.16v.49h-.17c-.05.22-.11.43-.16.65h-.16V53h-.17c-.05.22-.1.43-.16.65h-.16l-.17.65H399v.33h-.16c-.06.38-.11.76-.16,1.14h-.17v.49h-.16v.33h-.16v.48h-.17v.49h-.16v.66h-.16v.65h-.17V60a5.48,5.48,0,0,0-.32,1.63l.16.49h-.16c.11.81.22,1.63.32,2.44h.17c.05.33.11.65.16,1l.49.33v.32l.33.33H399l.33.49h.32l.17.32.81.17v.16a4.88,4.88,0,0,0,2.28,0c.32-.37.91-.52,1.31-.82l.32-.32v-.33a2.82,2.82,0,0,1,1-.49c.06-.54.11-1.08.16-1.63h-1.63c0,.11-.1.22-.16.33h-.32v.16c-.85.32-1-.28-1.63.49-.53-.06-.48-.15-.82-.32-.05-1-.11-2-.16-2.94h.16v-.65h.16v-.49h.17c.05-.6.11-1.2.16-1.79h.16v-.33H402v-.49h.16v-.65h.16c.06-.22.11-.43.16-.65h.17v-.49h.16V56H403c.06-.32.11-.65.17-1h.16c.05-.22.11-.44.16-.66h.17v-.49h.16c.05-.21.11-.43.16-.65h.16v-.65l.33-.16v-.49l.33-.16v-.49l.32-.17v-.49h.17c.05-.38.1-.76.16-1.14h.16v-.49h.16v-.48h.17v-.82h.16v-1h.16v-1.3h-.16v-.82h-.16v-.16l-1.14-.16v-.17h-.66v-.16h-1.3l-.16.33h-.33l-.16.32h-.33l-.49.66c-.48.41-.57-.18-.81.65A3.11,3.11,0,0,0,398.72,47l-.33.16c-.15.24.07.52-.16.65l-.49-.16-.17.33h-.32v.16l-.82.16c-.1.22-.21.44-.32.65h-.33l-.16.33h-.33l-.49.65h-.32l-.33.65h-.81v.17a2.09,2.09,0,0,1-.82.49c0,.32-.11.65-.16,1l-.49.33-1.14,1.3-.33.17v.32a2.54,2.54,0,0,1-1,.82v.16h-.16v-.16h-.16a1.55,1.55,0,0,1,.16-.82h.16c.06-.27.11-.54.17-.81h.16v-.33h.16v-.32h.17c.05-.33.11-.66.16-1h.16c.06-.22.11-.44.17-.65h.16c0-.33.11-.66.16-1h.16l.17-.65h.16c.06-.33.11-.66.16-1h.17v-.33h.16V47.8H392v-.32h.17V47l.32-.16v-.49h.16c.18-.35.05-.4.33-.66a3.21,3.21,0,0,0-.49-1.63,4.13,4.13,0,0,0-2.44-.32v.16l-.49-.16v.16c-.59.41-.23.8-.49,1.47h-.16v.32h-.17v.82l-.32.16c-.06.27-.11.55-.17.82h-.16v.32H388v.66h-.17v.32l-.32.16-.33,1.47-.32.16v.33h-.17c-.16.81-.32,1.63-.49,2.45H386v.32l-.32.16c-.06.22-.11.44-.17.66l-.32.16c-.06.27-.11.54-.17.81h-.16l-.16.66h-.17c0,.27-.1.54-.16.81h-.16c-.06.65-.11,1.31-.16,2h-.17v.32l-.49.33v.33h-.16c-.05.38-.11.76-.16,1.14h-.17l-.16.65h-.16v.49h-.16v.32h-.17c-.05.38-.11.76-.16,1.14h-.16v.33h-.17v.49h-.16v.49h-.16Z"/><path class="cls-1" d="M286.88,61.17l.49-.16.32-.33v-.33l.33-.16v-.32l.49-.33v-.33H289c.32.76.65,1.52,1,2.29h.16l.65.81.65.16.33.49.65.17v.16h.65v.16a2.48,2.48,0,0,0,1.47-.16v-.16h.33c.29-.24,0-.64.16-1h.16c-.15-1.16-.35-.35-1.14-.65v-.17h-.33v-.16l-.48-.16c-.2-.48-.29-.77-.49-1.31h-.17c-.05-.92-.11-1.85-.16-2.77,0,0,.21-.06.16-.49h-.16c0-.23.12.07.16-.16V55.14h.17v-.49h.16v-.33h.16c.06-.32.11-.65.17-1h.16v-.66h.16c.06-.21.11-.43.16-.65h.17c.05-.32.11-.65.16-1h.16c.06-.21.11-.43.17-.65h.16v-.32h.16V49.6l.49-.33v-.33h.16v-.48l.33-.17c.05-.22.11-.43.16-.65H296c.1-.33.21-.65.32-1h.17c.18-.42,0-1,.32-1.3l-.16-.49h-.16v-.49h-.17a5.28,5.28,0,0,0-2.77-.49v.16l-.65.17c-.06.27-.11.54-.16.81l-.33.17v.48h-.16v.49h-.17v.33h-.16v.33l-.32.16-.33,1-.33.16v.49h-.16v.32h-.16v.49h-.17c0,.22-.1.44-.16.66h-.16v.32H290v.33h-.17v.32h-.16v.33h-.16v.33h-.17v1s-.1,0-.16.33c-.66.19-.22.11-.49.49l-.32.16V54h-.17v.32l-.49.33-.32,1-.49.16-.33.33v.32l-.65.49v.33l-.49.32v.33l-.32.16v.33l-.33.16v.33l-.33.16c-.29.41.17.28-.49.49v.33l-1,.81-.17.49h-.32c-.29,1.3-1.69,1.45-2.29,2.44h-.65v-.16c-.78-.22-.64-.51-1-1.14h-.16V62h-.16v-.65l-.33-.16V58.89h.17v-1h.16v-1h.16v-.65h.16v-.65h.17v-.49h.16c.06-.44.11-.87.16-1.31h.17l.16-.65h.16c.06-.27.11-.54.17-.81l.32-.17c.06-.32.11-.65.16-1h.17l.32-1h.17v-.33H281l.16-.65.33-.16.16-.49h.16v-.49H282l.32-.49h1c.17-.49.33-1,.49-1.47l-.49-.32v-.33a1.24,1.24,0,0,1-.65-.16V45.2H282V45h-2.28l-.33.49-1.14,1v.33l-.33.16v.32h-.16v.33l-.33.33v.32l-.49.33v.49h-.16v.32h-.16l-.33,1h-.16v.49H276l-.17.65h-.16c-.05.27-.11.55-.16.82h-.17v.32h-.16c-.11.71-.22,1.42-.32,2.12h-.17v.65h-.16V56h-.16v1h-.17c-.05.44-.1.87-.16,1.31,0,0,.22,0,.16.32H274a6.26,6.26,0,0,0,.49,3.1v.49h.16c.06.21.11.43.17.65H275c0,.22.11.43.16.65l.65.49v.33l.33.16.65.81.65.17.17.32h.32v.17h.33v.16h.49v.16h.32v.17h.49v.16H280v.16a5,5,0,0,0,1.63-.32h.65l.33-.49H283l.16-.33c.46-.32.69-.3,1-.81h.32c.06-.22.11-.44.17-.66.71-.19.62-.61,1-1.14l.33-.16v-.33l.82-.49C286.77,61.71,286.82,61.44,286.88,61.17Z"/><path class="cls-1" d="M463.65,63.86c0,.22,0,.44-.08.67l-.3.2.06.48c-.16.59-1,1.88-.46,2.86l.17,0,0,.33.16,0,.22.46c.46.06.4.17.85.22l0,.33a3.43,3.43,0,0,0,1.62-.21,3.29,3.29,0,0,1,.34-1.19l.3-.21c0-.22.06-.44.08-.66l.17,0-.09-.64.16,0,0-.33.17,0-.09-.64.45-.39.18-1.17.3-.2c0-.23.05-.45.08-.67l.16,0,0-.33.16,0,0-.32.16,0,0-.32.16,0,0-.33.16,0,.08-.67.16,0c0-.22.05-.44.08-.66l.3-.21c0-.22.06-.44.08-.66l.31-.21c0-.17.06-.33.1-.5l.16,0,.42-1.86.3-.21,0-.32.3-.2,0-.33.16,0,0-.32.16,0c0-.33,0-.66,0-1l.16,0-.12-1c-.36-.57-3-1.13-3.5-.38l-.3.2-.06.83-.16,0,0,.33-.3.2c0,.22-.06.44-.08.67l-.17,0c0,.38,0,.77,0,1.15l-.59.57.06.48-.16,0-.1.51-.32,0a5.82,5.82,0,0,1-.6,1.72l0,.32-.3.21c0,.22-.06.44-.08.66l-.17,0,.05.33-.17,0,.05.32-.17,0,.07.49-.17,0,.09.65-.17,0c-.06.33-.13.67-.2,1Z"/><path class="cls-1" d="M633.77,63.07l0-.33c.79-.18.76-.57,1.39-.81l0-.32L636,61l0-.32.29-.36.32,0,.29-.36,0-.33.31-.19.7-1.07.32,0,.11-.51.16,0,.11-.5.3-.2,0-.32.3-.2,0-.33h.16l0-.33.16,0-.05-.48.16,0,0-.32.16,0-.05-.49.16,0c0-.7-.05-1.41-.07-2.12l-.17,0-.11-1h-.16c-.08-.21-.16-.42-.23-.63l-.17,0-.07-.65-.16,0,0-.32-.16,0,0-.33-.52-.27,0-.32-.5-.11-.2-.3-.32,0,0-.16-1-.21,0-.16-.64.07,0-.16-.49,0,0-.16-.65.07V47.8l-.33,0,0-.16-1.63,0v.16l-1.13.13-.12.34-1,.11,0,.16-.79.26-.27.52-.79.25c-.14.24-.28.47-.41.71l-.33,0,0,.16-.63.24,0,.16L626,51l0,.16-.32,0,0,.17-.33,0,0,.17-.32,0,0,.16a2.49,2.49,0,0,1-.9.76c-.13.68-.08.19-.43.54l-.13.35h-.16l0,.33-.74.74,0,.32-.45.38,0,.32-.16,0a2.43,2.43,0,0,0-.52,1.21c-.92.36-.62.87-1,1.59l-.3.19c-.07.34-.15.68-.22,1l-.3.2c-.24.57-.84,3.12-.35,4.14l.16,0,0,.33.17,0L620,65l.34.12c.07.16.14.32.22.47l.16,0,0,.33.34.12,0,.33.53.27,0,.32.51.11.38.45.32,0,0,.16.49,0v.16l.33,0,0,.16,1,.22,0,.16,1-.11,0,.16c.81.13,1.47-.5,1.89-.7l1.12-.29,0-.17.32,0,.13-.35.32,0,0-.16.33,0,0-.16.32,0,.29-.36.32,0,.13-.34.32,0,.69-1.22.79-.25.55-.89ZM632.11,60c-.41.35-.81.48-1.05.94l-.32,0c-.11.69-.41.56-.88.92l0,.16-.33,0-.12.34-.32,0-.42.7-.63.23-.28.37-.33,0,0,.16-.32,0v.16l-.32,0,0,.16-1.71.85,0-.16c-1,0-1.06-.49-1.73-.79a6.52,6.52,0,0,1,.3-3.15l.45-.38,0-.49.45-.37c.06-.39.13-.78.19-1.17a1.45,1.45,0,0,0,.83-1.41c.33-.11.55-.38.77-.42l.2.31a1.8,1.8,0,0,0,1.19.36l.21-1,.16,0c0-.44,0-.88,0-1.31l.3-.2,0-.33.3-.19c0-.17.07-.34.11-.51a5.51,5.51,0,0,1,1.76-.36c0-.12.06-.6.09-.67l.16,0a1.28,1.28,0,0,0,.22-1l.47-.21,0-.16.32,0,0-.16a5.32,5.32,0,0,1,3.06-.51l.65-.08,0,.17c.68.11.36.29.88.55.1.37.2.75.29,1.12,0,0-.2,0-.12.34a.28.28,0,0,1,.2.3l-.17,0c0,.33,0,.66-.05,1l-.16,0,0,.33h-.17l0,.33-.31.2.06.48-.45.38,0,.33-.61.39,0,.33h-.16l-.27.53-.32,0-.7,1.07-.33,0-.41.71-.63.23Z"/><path class="cls-1" d="M371.8,67.53H372V67h.16v-.49h.16v-.33h.16v-.65h.17v-.65h.16v-.49h.16c.06-.27.11-.54.17-.82h.16v-.32h.16l.33-1.47h.16c.06-.22.11-.43.16-.65h.17v-.49h.16v-.33h.16v-.48h.17c.05-.22.1-.44.16-.66h.16c.06-.43.11-.87.17-1.3a12.55,12.55,0,0,0,1.46-5.54,2.42,2.42,0,0,1-.49-.65,5,5,0,0,0-3.26-.33,13.26,13.26,0,0,1-.81,3.59v.48H372l-.33,1h-.16c-.06.44-.11.87-.17,1.31h-.16v.49H371c-.06.21-.11.43-.17.65h-.16v.65h-.16L370.17,61H370v.32h-.16v.49h-.17v.65h-.16c-.21.54-1.08,3.33-.81,4.08h.16v.32H369l.16.49a4.39,4.39,0,0,1,1.63.82C371.47,68.11,371.51,67.92,371.8,67.53Z"/></g><g id="Button"><path class="cls-3" d="M619.32,453.6a1.56,1.56,0,0,1,.4,1h.4c.55.31.07.67,1.2.8v.4a5.43,5.43,0,0,1,2.39.6c1.19.71,1.91,4.24,2.4,5.8v1.2h.2v1.2h.2v2.2h.2v1.6h.2v1.8h.2v4.39a14.83,14.83,0,0,1,.2,4.8h-.2c.07.53.14,1.07.2,1.6h-.2v2.8s-.25.06-.2.4h.2v1h-.2v1.2h-.2c-.06,1.26-.13,2.53-.2,3.8h-.2v1.39h-.2V495h.2l1.2,1.4,1,.2v.2l2.2-.2a4.12,4.12,0,0,0,.4-2,.54.54,0,0,1-.2-.6h.2v-.8h.2v-1.8h.2V490h.2v-1.4h.2v-1.2h.2v-.6h.2v-1.4h.2v-.8h.2v-.8h.2v-.4h.2v-1.2h.2v-.6h.2v-.8h.2v-.4h.2v-.6h.2l.6-2.6h.2v-.4h.2v-1.2h.2v-.4h.2c.06-.53.13-1.06.2-1.6l.4-.2c.06-.2.13-.4.2-.6h.2c.24-.38.19-1.21.4-1.59l.4-.2v-.4h.2v-.4h.2v-.6l.6-.4c.06-.27.13-.54.2-.8l.4-.2c.26-.8.53-1.6.8-2.4l.6-.4c.13-.4.26-.8.4-1.2l.6-.4c.06-.27.13-.53.2-.8l.39-.2.2-.8.6-.4v-.4l.6-.4v-.4l.4-.2v-.4l.4-.2.4-.6h.2v-.4c.34-.26.67-.53,1-.8v-.4l.4-.2c.27-.33.54-.66.8-1,.45-.28,1.06,0,1.6-.2a9.62,9.62,0,0,0,1.2-.8,3.56,3.56,0,0,0-.6-1.8c-.49-.73-.56-.29-1.4-.59v-.2h-.6v-.2h-.4v-.2h-.8V452h-1v.2a2.28,2.28,0,0,1-2-.8h-.2v-.6c-.13-.07-.26-.14-.4-.2-.13-.4-.26-.8-.4-1.2h-.19c-.14-.4-.27-.8-.4-1.2h-.2c-.14-.87-.27-1.74-.4-2.6h-.2v-3h-.2a.53.53,0,0,1,.2-.6v-4.4h-.2v-1.4h.2V436h-.2v-3h-.2v-2.8c-.08-.27-.16.08-.2-.2-.36-2.14.47-4.32,0-6a3.82,3.82,0,0,1,.4-2.4v-1.4l-.6-.4c-.07-.2-.14-.4-.2-.6h-.6V419h-.4v-.2l-1.2-.2v-.2a3.14,3.14,0,0,0-1.2.2l-.6,1.8v1.4h-.2V424h-.2v1.4h-.2v.8h-.2v1.4h-.2v.6h-.2c-.07.6-.13,1.2-.2,1.8h-.2v.4h-.2v1h-.2v.4h-.2c-.25.5-.17,1.06-.4,1.6h-.2v.4h-.2l-.2,1.19-.4.2c-.07.34-.13.67-.2,1l-.4.2v.4h-.2v.4h-.2v.8l-.8.6-.4,1.2c-.56.88-1.38,1.56-1.6,2.8h-.4a1.63,1.63,0,0,1-.4.8h-.2v.6l-.8.6c-.06.27-.13.53-.2.8l-1.2,1v.4l-.4.2c-.39.58-.36.83-1,1.2v.6h-.4c-.06.2-.13.4-.19.6l-.6.2v.2l-.6.4-.2.8a14.41,14.41,0,0,1-2.6,1.4l.2,1.19Zm6.59-.4,1-.79a10.39,10.39,0,0,0,1-1.6l.8-.6v-.4l.4-.2c.07-.2.14-.4.2-.6l.8-.6V448l.4-.2v-.4l.8-.6v-.4l.4-.2v-.4h.2v-.4h.2v-.6l1-.6v-.4l.4-.4V443l.4-.2.4-1.2.6-.4v-.4l.4-.2c.26-.48-.1-.54.4-1v-.2h.2c0,2.64-.08,5.1.6,7,.06.46.13.93.2,1.4h.2v.4l.4.2v.6h.2c.06.26.13.53.2.8h.2v.4l.4.2v.4l.4.2v.4l.4.2c.06.2.13.4.2.6h.2c.06.2.13.4.2.6.87.24,1.12,1,2,1.19v1l-.8.6v.4l-.4.2v.4l-.8.6v.4l-.4.2v.4l-.6.4v.4l-.4.2-.2.6h-.2l-.2.8-.6.4v.4h-.2v.4l-.4.2c-.07.27-.14.53-.2.8l-.4.2c-.07.27-.14.53-.2.8l-.6.4v.4h-.2v.4l-.4.2c-.13.4-.27.8-.4,1.2l-.4.2v.6h-.2c-.07.26-.13.53-.2.8l-.4.2v.4a4.8,4.8,0,0,0-.8,1.6c-.4-.12-.17,0-.4-.2h-.2l.2-1h-.2v-1.2h-.2v-1.6h-.2v-1.4h-.2v-1.4h-.2v-.8h-.2v-.8h-.2V461h-.2v-.8h-.2v-.6h-.2c-.07-.33-.13-.66-.2-1h-.2c-.06-.26-.13-.53-.2-.8h-.2c-.06-.26-.13-.53-.2-.8l-.4-.2v-.4l-.6-.4v-.4l-1.8-1.6Z"/><path class="cls-3" d="M58.92,401.68l-.38-.16,0-.11-.33.07-.15-.2h-.58l-.17-.31-.22.05-.29-.29-.11,0-.19-.42-.38-.15-.08-.45-.11,0-.09-.45-.11,0-.09-.45-.11,0,0-.23-.11,0-.82-3.62-.45-2.32a1.19,1.19,0,0,1-.24-.64l.11,0-.11-.55c.08-.76-.09-1.77,0-2.52l-.13-.66s.15,0,.07-.24l-.11,0-.09-.44.11,0,0-.22.11,0-.13-.66.11,0-.06-.33.11,0-.11-.55.11,0,0-.23.11,0-.13-.66.11,0-.09-.44.12,0c0-.66-.47-.63-.11-1.13l-.24-1.21a2.55,2.55,0,0,1-.39-.27l-1.21.24c0,.59-.34.9-.28,1.54-.32.11-.54.22-.81-.07-.64.11-.92.18-1,.66l.11.55-.2.15.06.33-.11,0,.05.22-.12,0,.07.33-.2.15c0,.15,0,.31,0,.46l-.2.16,0,.46-.2.15c0,.16,0,.31,0,.47l-.11,0,0,.35-.2.15.05.22c-.1.1-.2.19-.29.29l0,.22-.2.15,0,.47-.29.28,0,.22-.2.15c0,.16,0,.31,0,.47s-.25.28-.38.41l0,.22c-.11.31-.3.46-.3.86l-.22.05a.9.9,0,0,1-.13.48l-.11,0a6.15,6.15,0,0,1-.38,1L46,394l0,.22-.2.15,0,.22-.2.16,0,.11-.2.15,0,.22-.37.42,0,.22L45,396a2.21,2.21,0,0,0-.38,1l-.22,0,0,.36-.37.41.06.33c-.16.15-.32.3-.49.44l.05.22-.29.29,0,.22-.2.15a4.83,4.83,0,0,1-.33.64c.2.62.58.68.81,1.22a.88.88,0,0,1,.48.13l0,.11.23,0,.15.2.77-.15.15.2a1.42,1.42,0,0,0,.73.2l0,.22.22,0c.07.14.14.28.2.42l.24.06,0,.22.11,0c.11.21.23.42.35.62l.11,0,.06.33.11,0,0,.22.11,0,.07.33.11,0,.11.55.11,0,.13.66.11,0c.22,1.37.45,2.74.68,4.1l-.11,0,.24,1.21-.11,0,.06.33-.11,0,.15.78-.11,0,.22,1.1-.11,0c0,.72.05,1.44.07,2.16a7.91,7.91,0,0,0,.19,2.14l.24.07.18.31.11,0,.17.31c.55,0,1.5.52,1.92-.15.45-.43,0-.53.12-1.17l.11,0-.09-.44.11,0-.08-.44.11,0-.07-.33.11,0-.11-.55.12,0,0-.22.11,0c0-.23,0-.46,0-.68l.11,0-.15-.77.11,0,0-.22.11,0,.09-.71.2-.15-.08-.44.37-.42c0-.19,0-.38,0-.57l.28-.29,0-.22.11,0,0-.22.11,0-.07-.33.12,0,0-.22.11,0-.06-.33.29-.28,0-.46.2-.16,0-.22.28-.28,0-.22.38-.42,0-.22.37-.42,0-.22.29-.28-.07-.34.11,0c.06-.12.11-.25.16-.37l.22,0,0-.23c.4-.2.28-.39.68-.59a1.29,1.29,0,0,1,.12-.59c.27-.29.31.14.37-.42l.42-.19,0,.11.22,0,0,.11.66-.13c.35,0,.54.1.75-.26l.31-.17L59.2,402,59,401.9Zm-4.13,0,.05.22c-.57.25-.62.7-.93,1.1l0,.11-.22,0,0,.11-.29.29,0,.22-.55.68,0,.22c-.15.18-.31.36-.46.55l0,.22-.29.28,0,.22-.28.29c-.16.36-.11.61-.41.88-.21-.36-.17-1.05-.41-1.52l-1.11-2.19-.11,0-.2-.42-.11,0,0-.22-.37-.16-.07-.33-.24-.06c-.12-.21-.23-.42-.35-.62l-.48-.14-.2-.42-.24-.07-.68-.55-.22,0-.42-.37-.11,0a3.86,3.86,0,0,1,.27-1l.2-.15,0-.23.47-.54,0-.36c.15-.18.31-.36.46-.55l0-.22.38-.41-.05-.22.38-.42c0-.12,0-.24,0-.35l.19-.16,0-.22.47-.55-.05-.22.29-.28,0-.22.29-.29,0-.22.11,0a1.39,1.39,0,0,0,.21-.73l.22,0a1.42,1.42,0,0,1,.2-.73l.2-.15c0-.15,0-.31,0-.46l.2-.16,0-.22.29-.28-.05-.22c.09-.24.24-.5.32-.75l.2-.15,0,.11.11,0a10.18,10.18,0,0,1-.1,1.85l.22,1.1-.12,0a13.23,13.23,0,0,0,.74,3.18l.23,1.21.11,0,.48,1.86.11,0,.11.55.11,0,0,.22.11,0,.07.34.11,0,.06.34.11,0,.07.34.24.06,0,.22.24.07.48.71Z"/><path class="cls-3" d="M28.61,313.25l.25-.07.06-.84.52-.13.12-1.68.64-.71-.13-.52.83-1-.2-.77,1-1.36-.14-.52.9-.78-.13-.51,1.41-2c0-.2.08-.39.13-.59l.51-.13c0-.19.09-.39.13-.58l.51-.13.51-1.23.52-.13-.07-.26c.45-.43.58-.15.9-.78l1.81-.46.39.45a4.15,4.15,0,0,0,1.87-.21,4.34,4.34,0,0,1,1.28-1.43l-.26-1-.26.07c-.52-2-3.07-3-4.86-2.88a5.46,5.46,0,0,0-2.08-1.66l-.58-.13c-.3-.47-.61-.94-.91-1.42l-.26.07-.45-.71L32,289l-.59-1.23-.58-.12-.58-1.22-.26.06-.14-.51-.25.06-.13-.51-.26.06-.14-.51-.25.06c-.31-.47-.61-.94-.91-1.41l-.26.06-.2-.77-.26.07-.13-.52-.26.07-.26-1-.26.07-.13-.51-.58-.13-.14-.52-.26.07c-.69-1.65-1.39-3.31-2.09-5a24.28,24.28,0,0,1-1.65-5.35l-.52-2.06.45-.39-.14-.52.26-.06.06-.84,1.22-.59-.19-.77-.52.13c0-.54-.09-1.08-.14-1.62l-1.49-.44-.06-.26-.07-.25-.26.06a14.38,14.38,0,0,0-4.39,0l.14,1.61-.26.07.47,1.8-.26.07.2.77-.26.07.13.51-.26.07.53,2.06-.83,1,.26,1-.25.07.13.51-.45.39.13.52-.26.07.13.51c0,.17-.3.29-.38.65l-.51.13c.21.49.43,1,.65,1.48a4.45,4.45,0,0,0-2.31,2.79V280c-.34.45-.68.91-1,1.36l.07.26-.64.71.13.52-.26.07.13.51-.25.07-.32.9-.52.13c0,.89-.42,1.09-.63,1.82l-.52.13c0,1-.53,1.14-.89,1.88l-.52.13c0,.77-.13.73-.51,1.23l.07.26-.77.19.06.26-.25.07c0,.54.09,1.07.13,1.61a10.48,10.48,0,0,0-1.6,1.24l.06.25-.25.07-.26.07-.07-.26-1.29.33-.06-.26a3.61,3.61,0,0,0-1.23.59l.59,1.22.26-.06.46,1.8.26-.06c.55.65,1,.9,1.49,1.54l3.23-.28.07.26,1.68.12.06.25.78-.19c.12.15.26.3.39.45a7.13,7.13,0,0,0,2.78,1.21l1.11,2.18.26-.06.52,1,.26-.06.2.77.25-.06.27,2.12.26-.06c.73,1.34.7,3.75.68,4.77l.46,1.81-.26.06.59,2.32-.25.07.2.77-.26.07.53,2.06-.26.07.46,1.8-.26.07.4,1.55-.45.39c.35,1.74.71,3.48,1.06,5.22l.26-.07.13.52.26-.07,1.83,2.83.51-.13c.51.89,1.05.65,1.69,1.22l1.8-.46-.06-.26c1-1.27.1-2.2.43-3.68l.25-.07-.13-.52.26-.06-.2-.78.26-.06-.2-.78.45-.39c0-.45-.05-.9-.07-1.35l.26-.07-.14-.51.26-.07c0-.54-.09-1.07-.14-1.61l.26-.07-.13-.51.45-.39-.27-1,.45-.39v-1.09l.26-.07.06-.84.44-.39c0-.45,0-.9-.07-1.35l.64-.72Zm-3.41-9-.52.13c0,1.2-.59,1.09-.89,1.88l.13.51-.26.07c-.11.3-.21.6-.32.91l-1,.26-1.38-4.32-.26.07-.2-.77-.25.06-.2-.77-.26.06-.26-1-.26.07-.52-1-.26.07-.2-.77-.58-.13-.2-.77-.26.06-.13-.51-.58-.13-.13-.51-5.12-2.81-.77.19-1-.83-.26.07-.07-.26a5.42,5.42,0,0,0,1.8-2.66l.51-.13-.13-.52.52-.13-.14-.51c1.06-.6.53-.81,1-1.62.69-1.3,1.78-2.26,2-3.83l.51-.13a3,3,0,0,1,.44-1.49l.26-.06-.13-.52.26-.06.51-1.23.45-.39-.14-.52.45-.39c.39-1.11.32-2.2,1.15-3l2.28,3.54.33,1.29.26-.07.13.52.58.12.13.52.26-.07.33,1.29.58.13.27,1,.26-.07.13.52.58.12.13.52.26-.07.26,1,.91.32.33,1.29.26-.06.52,1,.26-.07.2.78.25-.07.14.52.25-.07.14.52.58.12.13.52.26-.07.13.52.58.12c.72.67.41,1,1.43,1.29,0,1.72-1.42,2.22-2.43,3.37l-.71,1.55-.51.13c0,.2-.08.39-.13.59l-.7.45.13.52-.39.65-.51.13c0,.19-.08.39-.13.58C25.68,302.62,25.16,303,25.2,304.23Z"/><path class="cls-3" d="M686.64,524.75c.51-.26.41-.48.49-.53l1.36-.32,0,.19.2,0-.05-.2,1.17-.28-.05-.19.54-.33c-.19-1-.13-1.59-1-1.62l-.09-.38-.44-.11,0-.19-.39.09-.52-.49-.39.09-.29-.34-.39.09,0-.19-.63-.06a10.46,10.46,0,0,0-.91-1.22c-.32-.74-.63-1.49-1-2.24l-.19,0c-.86-1.49.2-2.23.28-3.15l-.42-1.75.19-.05-.18-.77.19-.05a3,3,0,0,0-.9-2.05l-.19.05-.28-1.17c-.19-.32-.58-1-.76-1.46l-1.84,0-.29-.34-1,.23,0-.2c-.39,0-.67.08-1,0-.06.24-.26.39-.29.48l.09.39-.19.05c-.08.66.49.86.51,1.31l-.19.05.19.78-.2,0,.22,1.8-.19,0,.09.38c-.16.18-.32.36-.49.53v.83l-.34.28.09.39-.64.77.1.39-.49.53.09.39-1.08,1.49c-.09.22-.17.45-.25.67l-.74.38c0,.15-.06.29-.1.44l-.39.09,0,.2-.58.14,0,.19-.39.09,0,.2-.39.09-.1.43-.39.1-.1.43-.58.14,0,.2-.39.09,0,.19-.54.34c.34.53.67,1.07,1,1.61l.68.25.14.58.19,0,.29.35.39-.1c.43.38.86.76,1.3,1.13l.51,1.32a8.89,8.89,0,0,1,1.45,5.2l.6,2.53-.19.05.93,3.89-.2,0,.37,1.56-.19,0,.23,1-.2,0,.28,1.17-.19,0,.09.39-.19,0,.18.78-.19,0,.09.39-.19,0,.27,1.17-.19,0,.69,2.92.44.1.09.39.44.1,0,.2.39-.1,0,.2c.82.23,1.15,0,1.79.6l1.16-.28a6.2,6.2,0,0,0,.36-1.93l-.18-.78.19-.05-.14-.58.35-.29-.19-.78.2,0-.1-.39.2,0-.18-1.6.2,0-.1-.39.2,0-.09-1.21c.45-.24.38-.31.69-.58a16,16,0,0,1-.24-4.46l-.19-.78.2,0V534l.2,0-.09-.39.34-.28,0-1.85.39-.09a5.76,5.76,0,0,1,0-3.29L685,528l.69-1.4.39-.09C686.07,525.61,686.61,525.67,686.64,524.75Z"/></g></g></svg>