<?xml version="1.0" encoding="utf-8"?>
<!-- Generator: Adobe Illustrator 21.0.0, SVG Export Plug-In . SVG Version: 6.00 Build 0)  -->
<svg version="1.1" id="グループ_1" xmlns="http://www.w3.org/2000/svg" xmlns:xlink="http://www.w3.org/1999/xlink" x="0px"
	 y="0px" viewBox="0 0 372.7 78.2" style="enable-background:new 0 0 372.7 78.2;" xml:space="preserve">
<g>
	<path d="M10,8c0,3.9,2,8.5,6.3,10.4l-2,2.9c-2.9-1.3-4.9-3.9-6-6.9C7.1,17.7,5,20.6,2.1,22L0,19c4.2-2,6.3-6.8,6.3-11.1V6.5H1v-3
		h14.2v3.1H10V8z M24.5,13.9h-3.8v12.9H17V1h3.7v9.8h3.8V13.9z"/>
	<path d="M49.6,20.7v3H26.3v-3H49.6z M43.6,10.4c0.1-1.4,0.1-2.8,0.1-4.1V6.2H29V3.3h18.3v3c0,3.8,0,7.3-1.2,12.9l-3.6-0.4
		c0.5-2.1,0.8-4,1-5.7l-14.7,0.8l-0.4-3L43.6,10.4z"/>
	<path d="M72.1,12c0,5.7-2.9,9.2-6.8,9.2s-6.8-3.6-6.8-9.2c0-5.7,2.9-9.2,6.8-9.2C69.2,2.8,72.1,6.3,72.1,12z M68.6,12
		c0-3.8-1.3-5.9-3.2-5.9c-1.9,0-3.2,2-3.2,5.9c0,3.8,1.3,5.9,3.2,5.9S68.6,15.8,68.6,12z M82.4,13.8h-3.8v13h-3.7V1h3.7v9.7h3.8
		V13.8z"/>
	<path d="M99.1,13.3c-3.5,0.5-6.6,0.6-11.8,0.6h-2.2V2.1h12.1V5h-8.4v1.6h7.9v2.7h-7.9V11c4.2,0,6.9-0.1,10-0.5L99.1,13.3z
		 M91.2,23.8h14.1v2.8H87.5v-7h13.4v-1.5H87.5v-2.8h17v6.8H91.2V23.8z M107.9,6.1v3h-3.4v5.2h-3.7V1h3.7v5L107.9,6.1L107.9,6.1z"/>
	<path d="M115.1,17.8c3.9,0,7.2-0.2,10.8-0.8l0.4,3c-4.2,0.7-8,0.9-12.7,0.9h-2.3V10.3h8.4V6.2h-8.4v-3h12.2v10h-8.4V17.8z M131.4,1
		v25.9h-3.7V1H131.4z"/>
</g>
<g>
	<path d="M13.6,62.3c0,5.7-2.9,9.2-6.8,9.2C2.9,71.6,0,68,0,62.3s2.9-9.2,6.8-9.2S13.6,56.7,13.6,62.3z M10,62.3
		c0-3.8-1.3-5.9-3.2-5.9s-3.2,2.1-3.2,5.9c0,3.8,1.3,5.9,3.2,5.9S10,66.2,10,62.3z M20,60.4v4.5h3.6v3H20v9.2h-3.7V51.4H20v6h3.6v3
		H20z"/>
	<path d="M30.1,67.7c3.2-0.1,6.7-0.4,10.4-1.1l0.4,3c-4.3,0.9-8.4,1.1-12.2,1.1h-2.2v-17h3.7v14H30.1z M49.4,64.1h-3.6v13h-3.7V51.3
		h3.7V61h3.6V64.1z"/>
	<path d="M65.7,62.3c0,5.7-2.9,9.2-6.8,9.2s-6.8-3.6-6.8-9.2c0-5.7,2.9-9.2,6.8-9.2S65.7,56.7,65.7,62.3z M55.7,62.3
		c0,3.8,1.3,5.9,3.2,5.9s3.2-2,3.2-5.9c0-3.8-1.3-5.9-3.2-5.9S55.7,58.5,55.7,62.3z M72.7,51.3v25.9H69V51.3H72.7z"/>
	<path d="M88.2,67.9c3.7-0.1,6.7-0.3,10.1-0.8l0.4,3.1c-3.9,0.7-7.4,0.8-11.9,0.8h-2.2V53.7h12v3h-8.3L88.2,67.9L88.2,67.9z
		 M107.4,63.9h-3.8v13.3H100V51.4h3.7v9.5h3.8L107.4,63.9L107.4,63.9z"/>
	<path d="M113.9,67.9c3.7-0.1,6.7-0.3,10.1-0.8l0.4,3.1c-3.9,0.7-7.4,0.8-11.9,0.8h-2.2V53.7h12v3H114L113.9,67.9L113.9,67.9z
		 M133.2,63.9h-3.8v13.3h-3.7V51.4h3.7v9.5h3.8V63.9z"/>
	<path d="M145,57.1c0,4.8,2,9.5,6.4,11.4l-2.1,3c-3-1.3-5-3.9-6.1-7.1c-1.1,3.4-3.2,6.2-6.3,7.7l-2.2-3.1c4.5-1.9,6.6-6.9,6.6-11.9
		v-3.8h3.7L145,57.1L145,57.1z M156.4,51.3v25.9h-3.7V51.3H156.4z"/>
</g>
<g>
	<path d="M185.1,56.9h-3.6V60h-1v-3.1H177V56h8.2L185.1,56.9z M177.4,54.6c1.7-0.2,3-1.2,3-2.3h-2.7v-0.8h6.6v0.8h-2.7
		c0.1,1,1.3,2,3,2.3l-0.4,0.8c-1.5-0.2-2.7-1-3.3-2c-0.5,1-1.8,1.7-3.3,2L177.4,54.6z"/>
	<path d="M191.1,55.9c-1-0.4-1.8-1.1-2.2-2c-0.4,1-1.2,1.8-2.2,2.1l-0.5-0.8c1.4-0.5,2.2-1.7,2.2-3v-0.9h1v0.9
		c0,1.2,0.8,2.3,2.2,2.8L191.1,55.9z M187.5,56.8h6.1V60h-1v-2.4h-5.1V56.8z M193.5,50.9v5.4h-1v-5.4H193.5z"/>
	<path d="M198.8,57.4c0.8,0,1.6-0.1,2.4-0.2l0.1,0.8c-2,0.3-4.1,0.4-5.8,0.4l-0.1-0.8c0.7,0,1.5,0,2.4,0v-0.9
		c-1-0.2-1.7-0.8-1.7-1.6c0-1,0.9-1.7,2.2-1.7s2.2,0.7,2.2,1.7c0,0.9-0.7,1.5-1.7,1.6L198.8,57.4L198.8,57.4z M201,52.8h-5.5V52h2.2
		v-1h1v1h2.2v0.8H201z M198.3,55.8c0.7,0,1.2-0.3,1.2-0.9c0-0.5-0.5-0.9-1.2-0.9s-1.2,0.3-1.2,0.9C197,55.5,197.5,55.8,198.3,55.8z
		 M202.7,50.9v9h-1v-9H202.7z"/>
	<path d="M207.7,53.2c0,1.6,0.8,3.2,2.2,3.9l-0.6,0.8c-1-0.5-1.7-1.5-2.1-2.7c-0.4,1.3-1.1,2.3-2.2,2.8l-0.6-0.8
		c1.4-0.7,2.3-2.4,2.3-4.1v-1.5h1L207.7,53.2L207.7,53.2z M212.9,55.4h-1.4V60h-1v-9h1v3.6h1.4V55.4z"/>
	<path d="M219.5,56.9c0.3,0,0.5-0.1,0.8-0.1l0.1,0.7c-1.4,0.3-3.3,0.3-4.4,0.3l-0.1-0.8c0.2,0,0.5,0,0.8,0v-4.1H216V52h4.1v0.8h-0.7
		L219.5,56.9L219.5,56.9z M217.6,57c0.3,0,0.6,0,0.9,0v-4.1h-0.9V57z M223.7,50.9v9h-1v-4.6h-1v4.2h-1v-8.4h1v3.4h1v-3.6
		C222.7,50.9,223.7,50.9,223.7,50.9z"/>
	<path d="M233.3,58v0.8h-8.2V58H233.3z M232.5,56.2c-1.5-0.3-2.7-1.2-3.3-2.5c-0.6,1.2-1.9,2.2-3.3,2.5l-0.4-0.8
		c1.8-0.3,3.2-1.7,3.2-3.1v-0.7h1.1v0.7c0,1.4,1.4,2.8,3.2,3.1L232.5,56.2z"/>
	<path d="M242.5,58v0.8h-8.2V58H242.5z M241.6,56.5h-6.3v-4.9h6.2v0.8h-5.1v1.2h4.9v0.8h-4.9v1.2h5.2L241.6,56.5L241.6,56.5z"/>
	<path d="M245.1,57c1.4,0,2.7-0.1,4.1-0.3l0.1,0.8c-1.5,0.3-2.9,0.3-4.5,0.3H244v-3.6h3.1v-1.7H244v-0.8h4.2V55h-3.1L245.1,57
		L245.1,57z M251,50.9V60h-1v-9.1H251z"/>
	<path d="M254,57c1.1,0,1.9-0.1,2.8-0.2l0.1,0.8c-1,0.2-1.9,0.2-3.2,0.2h-0.6V52h3.3v0.8H254v1.6h2v0.8h-2V57z M257.6,51.1h1v8.4h-1
		v-4.4h-1.2v-0.8h1.2V51.1z M260.5,50.9v9h-1v-9H260.5z"/>
	<path d="M264.5,55.3c-1.4,0-2.4-0.8-2.4-2s1-2,2.4-2s2.4,0.8,2.4,2S265.9,55.3,264.5,55.3z M264.5,54.5c0.8,0,1.4-0.5,1.4-1.2
		s-0.6-1.2-1.4-1.2s-1.4,0.5-1.4,1.2S263.7,54.5,264.5,54.5z M269.7,59v0.8h-6.2v-2.4h4.9v-0.7h-4.9v-0.8h5.9v2.3h-4.9V59H269.7z
		 M269.4,55.5h-1v-4.6h1V55.5z"/>
	<path d="M276.7,55.7c-1.4,0.2-2.6,0.3-4.4,0.3h-0.8v-2.7h3.1v-1h-3.1v-0.8h4.1v2.6h-3.1v1c1.5,0,2.7,0,4-0.3L276.7,55.7z
		 M278.7,58.3c0,1-1.2,1.7-3.1,1.7s-3-0.6-3-1.7c0-1,1.1-1.7,3-1.7S278.7,57.3,278.7,58.3z M277.6,58.3c0-0.6-0.7-0.9-2-0.9
		s-2,0.3-2,0.9c0,0.5,0.7,0.8,2,0.8C276.9,59.2,277.6,58.9,277.6,58.3z M278.6,56.5h-1V51h1V56.5z"/>
	<path d="M178.2,74c1,0,1.9-0.1,2.8-0.3l0.1,0.8c-1.1,0.2-2,0.3-3.3,0.3h-0.6V69h3.3v0.8h-2.3V74z M184.6,67.9v9h-1v-4.6h-1.1v4.2
		h-1v-8.4h1v3.4h1.1v-3.6H184.6z"/>
	<path d="M194.3,75.1v0.8h-8.2v-0.8h2.1v-1.9h-1.4v-0.8h1.3v-2.8h-1.3v-0.8h6.8v0.8h-1.3v2.8h1.3v0.8h-1.4v1.9H194.3z M189.1,72.3
		h2.1v-2.8h-2.1V72.3z M189.3,75.1h1.8v-1.9h-1.8V75.1z"/>
	<path d="M200.3,71.8c0,2-1,3.2-2.3,3.2s-2.3-1.2-2.3-3.2c0-1.9,1-3.2,2.3-3.2C199.3,68.6,200.3,69.8,200.3,71.8z M196.6,71.8
		c0,1.4,0.5,2.3,1.3,2.3s1.3-0.8,1.3-2.3c0-1.4-0.5-2.2-1.3-2.2C197.1,69.5,196.6,70.4,196.6,71.8z M202.7,67.9V77h-1v-9.1H202.7z"
		/>
	<path d="M207.7,70.2c0,1.6,0.8,3.2,2.2,3.9l-0.6,0.8c-1-0.5-1.7-1.5-2.1-2.7c-0.4,1.3-1.1,2.3-2.2,2.8l-0.6-0.8
		c1.4-0.7,2.3-2.4,2.3-4.1v-1.5h1L207.7,70.2L207.7,70.2z M212.9,72.4h-1.4V77h-1v-9h1v3.6h1.4V72.4z"/>
	<path d="M223.4,67.9V73h-1v-1h-2.2v-0.8h2.2v-1h-2.1c-0.6,1.4-1.9,2.5-3.9,3l-0.4-0.8c2.1-0.6,3.3-1.7,3.5-3h-3v-0.8h4.1
		c0,0.3,0,0.6-0.1,0.8h1.9V68L223.4,67.9z M217.6,73.4h5.9v3.4h-5.9V73.4z M218.6,76h3.9v-1.8h-3.9V76z"/>
	<path d="M230.9,74.4c0.8,0,1.6-0.1,2.4-0.2l0.1,0.8c-2,0.3-4.1,0.4-5.8,0.4l-0.1-0.8c0.7,0,1.5,0,2.4,0v-0.9
		c-1-0.2-1.7-0.8-1.7-1.6c0-1,0.9-1.7,2.2-1.7s2.2,0.7,2.2,1.7c0,0.9-0.7,1.5-1.7,1.6L230.9,74.4L230.9,74.4z M233.1,69.8h-5.5V69
		h2.2v-1h1v1h2.2v0.8H233.1z M230.4,72.8c0.7,0,1.2-0.3,1.2-0.9c0-0.5-0.5-0.9-1.2-0.9s-1.2,0.3-1.2,0.9
		C229.1,72.5,229.6,72.8,230.4,72.8z M234.8,67.9v9h-1v-9H234.8z"/>
	<path d="M241.4,73c-1-0.3-1.7-1-2.1-1.8c-0.4,1-1.2,1.7-2.2,2.1l-0.5-0.8c1.4-0.5,2.2-1.6,2.2-2.9v-0.2h-1.9v-0.8h4.8v0.8h-1.9v0.2
		c0,1.1,0.8,2.2,2.1,2.6L241.4,73z M243.8,75.3c0,1.1-1.1,1.7-3,1.7s-3-0.6-3-1.7s1.1-1.7,3-1.7S243.8,74.2,243.8,75.3z M242.7,75.3
		c0-0.6-0.7-0.9-2-0.9s-2,0.3-2,0.9s0.7,0.9,2,0.9S242.7,75.8,242.7,75.3z M244.9,70.1V71h-1.3v2.3h-1v-5.4h1v2.2H244.9z"/>
</g>
<g>
	<g>
		<path d="M183.1,1.2h0.8l-2.8,9.8h-0.8L183.1,1.2z"/>
		<path d="M155.3,20.3c-0.6,1.4-1.9,2.4-3.8,3l-0.4-0.8c2.1-0.6,3.3-1.7,3.5-3.1h-3v-0.8h4.1c0,0.3,0,0.6-0.1,0.9h1.9V18h1v5.3h-1
			v-1h-2.2v-0.8h2.2v-1h-2.2V20.3z M158.4,25.1c0,1.1-1.2,1.8-3,1.8s-3-0.7-3-1.8c0-1.1,1.2-1.8,3-1.8S158.4,24,158.4,25.1z
			 M157.4,25.1c0-0.6-0.8-1-2-1s-2,0.3-2,1c0,0.6,0.8,1,2,1C156.7,26.1,157.4,25.7,157.4,25.1z"/>
		<path d="M162.8,20.4c0,1.5,0.6,3.1,1.8,3.8l-0.6,0.7c-0.8-0.5-1.4-1.4-1.7-2.4c-0.3,1.1-0.9,2.1-1.8,2.7l-0.6-0.8
			c1.3-0.8,1.9-2.4,1.9-4v-0.6h-1.6V19h4.1v0.8h-1.5L162.8,20.4L162.8,20.4z M165,18h1v8.4h-1v-4.6h-1.3V21h1.3V18z M167.8,17.9v9
			h-1v-9H167.8z"/>
		<path d="M174.6,19.6h-5.3v-0.8h2.1v-0.9h1v0.9h2.1L174.6,19.6L174.6,19.6z M172,23.3c-1.3,0-2.2-0.7-2.2-1.6c0-1,0.9-1.6,2.2-1.6
			s2.2,0.7,2.2,1.6C174.2,22.6,173.3,23.3,172,23.3z M170.4,24h5.9v2.9h-1v-2.1h-4.9V24z M172,22.5c0.7,0,1.2-0.3,1.2-0.8
			s-0.5-0.9-1.2-0.9s-1.2,0.3-1.2,0.9C170.8,22.1,171.3,22.5,172,22.5z M177.6,21.1h-1.3v2.4h-1v-5.6h1v2.4h1.3V21.1z"/>
		<path d="M181.7,20.5c0,1.4,0.9,3,2.3,3.6l-0.6,0.8c-1-0.5-1.8-1.5-2.2-2.6c-0.4,1.3-1.2,2.3-2.2,2.8l-0.6-0.8
			c1.4-0.7,2.3-2.4,2.3-3.9v-0.9h-2v-0.8h4.9v0.8h-1.9V20.5z M186.9,22.3h-1.4v4.6h-1v-9h1v3.6h1.4V22.3z"/>
		<path d="M192.3,18.2h0.8l-2.8,9.8h-0.8L192.3,18.2z"/>
		<path d="M200.8,18.7v6h-4.2v-6H200.8z M197.6,19.5v4.3h2.2v-4.3H197.6z M203.5,17.9V27h-1v-9.1H203.5z"/>
		<path d="M206.6,24c0.9,0,1.8-0.1,2.8-0.2l0.1,0.8c-1.2,0.2-2.2,0.2-3.3,0.2h-0.6v-3.5h2.4v-1.6h-2.4v-0.8h3.4v3.3h-2.4V24z
			 M213,17.9v9h-1v-4.7h-1v4.2h-1V18h1v3.3h1.1v-3.5L213,17.9L213,17.9z"/>
		<path d="M219.8,19.6h-5.3v-0.8h2.1v-0.9h1v0.9h2.1L219.8,19.6L219.8,19.6z M217.2,23.3c-1.3,0-2.2-0.7-2.2-1.6
			c0-1,0.9-1.6,2.2-1.6s2.2,0.7,2.2,1.6C219.4,22.6,218.5,23.3,217.2,23.3z M215.6,24h5.9v2.9h-1v-2.1h-4.9V24z M217.2,22.5
			c0.7,0,1.2-0.3,1.2-0.8s-0.5-0.9-1.2-0.9s-1.2,0.3-1.2,0.9C216,22.1,216.5,22.5,217.2,22.5z M222.8,21.1h-1.3v2.4h-1v-5.6h1v2.4
			h1.3V21.1z"/>
		<path d="M226.9,20.5c0,1.4,0.9,3,2.3,3.6l-0.6,0.8c-1-0.5-1.8-1.5-2.2-2.6c-0.4,1.3-1.2,2.3-2.2,2.8l-0.6-0.8
			c1.4-0.7,2.3-2.4,2.3-3.9v-0.9h-2v-0.8h4.9v0.8h-1.9V20.5z M232.1,22.3h-1.4v4.6h-1v-9h1v3.6h1.4V22.3z"/>
	</g>
	<g>
		<path d="M155.9,5.6c-1-0.2-1.8-0.8-2.3-1.5c-0.4,0.8-1.2,1.4-2.3,1.7L150.9,5c1.4-0.3,2.2-1.2,2.2-2.2V2.6h-1.9V1.8h1.9V0.9h1v0.9
			h1.9v0.8h-1.9v0.1c0,0.9,0.8,1.7,2.2,2L155.9,5.6z M158.8,9.1v0.8h-6.2V7.6h4.8V6.9h-4.9V6.1h5.9v2.2h-4.8v0.8H158.8z M157.4,3.2
			V1h1v4.7h-1V4h-1.6V3.2H157.4z"/>
		<path d="M165.5,2.7h-5.3V1.9h2.1V0.9h1v0.9h2.1V2.7z M162.8,6.4c-1.3,0-2.2-0.7-2.2-1.6c0-1,0.9-1.6,2.2-1.6
			c1.3,0,2.2,0.7,2.2,1.6C165,5.7,164.1,6.4,162.8,6.4z M161.3,7.1h5.9V10h-1V7.9h-4.9V7.1z M162.8,5.6c0.7,0,1.2-0.3,1.2-0.8
			c0-0.5-0.5-0.9-1.2-0.9c-0.7,0-1.2,0.3-1.2,0.9C161.6,5.2,162.1,5.6,162.8,5.6z M168.5,4.2h-1.3v2.4h-1V1h1v2.4h1.3V4.2z"/>
		<path d="M172.5,3.6c0,1.4,0.9,3,2.3,3.6l-0.6,0.8c-1-0.5-1.8-1.5-2.2-2.6c-0.4,1.3-1.2,2.3-2.2,2.8l-0.6-0.8
			c1.4-0.7,2.3-2.4,2.3-3.9V2.7h-2V1.9h4.9v0.8h-1.9V3.6z M177.8,5.4h-1.4V10h-1V1h1v3.6h1.4V5.4z"/>
	</g>
</g>
</svg>
