<?xml version="1.0" encoding="utf-8"?>
<!-- Generator: Adobe Illustrator 23.1.0, SVG Export Plug-In . SVG Version: 6.00 Build 0)  -->
<svg version="1.1" id="レイヤー_1" xmlns="http://www.w3.org/2000/svg" xmlns:xlink="http://www.w3.org/1999/xlink" x="0px"
	 y="0px" viewBox="0 0 30 30" style="enable-background:new 0 0 30 30;" xml:space="preserve">
<style type="text/css">
	.st0{fill:#0076c0;}
	.st1{fill:#FFFFFF;}
</style>
<g>
	<g id="Botton">
		<rect x="1.5" y="1.5" class="st0" width="27" height="27"/>
		<path class="st0" d="M27,3v24H3V3H27 M30,0H0v30h30V0z"/>
		<path class="st1" d="M11.8,19h-1.7v5.8H8.9V19H7.2v-1.2h4.6V19z"/>
		<path class="st1" d="M15.1,17.8c1.3,0,2.3,1,2.3,2.3c0,0,0,0,0,0v2.5c0.1,1.3-0.9,2.4-2.2,2.5c-1.3,0.1-2.4-0.9-2.5-2.2
			c0-0.1,0-0.2,0-0.3v-2.5C12.8,18.8,13.8,17.8,15.1,17.8z M15.1,18.9c-0.6,0-1.1,0.5-1.1,1.2v2.5c-0.1,0.6,0.4,1.2,1,1.3
			c0.6,0.1,1.2-0.4,1.3-1c0-0.1,0-0.1,0-0.2v-2.5C16.3,19.5,15.8,18.9,15.1,18.9C15.2,18.9,15.1,18.9,15.1,18.9z"/>
		<path class="st1" d="M23.6,20.2c0,1.3-1,2.3-2.3,2.3h-1.2v2.3H19v-7h2.3C22.6,17.8,23.6,18.8,23.6,20.2
			C23.6,20.1,23.6,20.1,23.6,20.2z M22.5,20.2c0-0.6-0.5-1.2-1.1-1.2c0,0,0,0,0,0h-1.2v2.3h1.2C21.9,21.3,22.5,20.8,22.5,20.2
			C22.5,20.2,22.5,20.2,22.5,20.2z"/>
		<polygon class="st1" points="19.7,13.9 15,8.3 10.3,13.9 8.7,12.6 15,5.2 21.3,12.6 		"/>
	</g>
</g>
</svg>
