<svg xmlns="http://www.w3.org/2000/svg" viewBox="0 0 232.7 83.89"><defs><style>.cls-1{fill:#1e2dbe;}</style></defs><g id="レイヤー_2" data-name="レイヤー 2"><g id="CONTENTS"><path class="cls-1" d="M116.41,24.77V9.59H119V24.77Z"/><path class="cls-1" d="M128.36,24.77V18.41c0-1.72-.69-2.58-2.06-2.58s-2.25.85-2.25,2.54v6.4h-2.54V13.69h2.54v1a3.58,3.58,0,0,1,2.92-1.3,3.85,3.85,0,0,1,2.83,1.08A4.68,4.68,0,0,1,130.9,18v6.81Z"/><path class="cls-1" d="M136.37,25c-1.72,0-2.58-1-2.58-2.84V15.9h-1.64V13.69h1.64V10.32l2.54-1.21v4.58h2.56V15.9h-2.56v5.79c0,.71.31,1.06.93,1.06a3.56,3.56,0,0,0,1.74-.5l-.31,2.28A4.94,4.94,0,0,1,136.37,25Z"/><path class="cls-1" d="M145.13,25a4.74,4.74,0,0,1-3.74-1.55A6.21,6.21,0,0,1,140,19.21,6.08,6.08,0,0,1,141.4,15a4.72,4.72,0,0,1,3.73-1.55,4.8,4.8,0,0,1,3.48,1.32A5.18,5.18,0,0,1,150,18.63a11.94,11.94,0,0,1-.09,1.56h-7.35a2.76,2.76,0,0,0,.82,1.89,2.52,2.52,0,0,0,1.79.71,2.77,2.77,0,0,0,2.34-1.15l1.6,1.65A4.86,4.86,0,0,1,145.13,25Zm-2.58-6.94h4.9a2.68,2.68,0,0,0-.74-1.81,2.23,2.23,0,0,0-1.58-.62,2.65,2.65,0,0,0-1.79.6A2.45,2.45,0,0,0,142.55,18.09Z"/><path class="cls-1" d="M151.71,24.77V13.69h2.54v1.14a2.33,2.33,0,0,1,2.27-1.4,3.1,3.1,0,0,1,2.06.75l-.36,2.32a3.18,3.18,0,0,0-1.89-.58,2,2,0,0,0-1.48.61,2.81,2.81,0,0,0-.6,2v6.21Z"/><path class="cls-1" d="M166.69,24.77V18.41c0-1.72-.68-2.58-2.06-2.58s-2.25.85-2.25,2.54v6.4h-2.54V13.69h2.54v1a3.6,3.6,0,0,1,2.93-1.3,3.87,3.87,0,0,1,2.83,1.08A4.72,4.72,0,0,1,169.23,18v6.81Z"/><path class="cls-1" d="M177.82,24.77v-.89A3.92,3.92,0,0,1,174.87,25a4.28,4.28,0,0,1-2.89-1,3.38,3.38,0,0,1-1.12-2.72,3.19,3.19,0,0,1,1.27-2.73,5.06,5.06,0,0,1,3.07-.93,5.29,5.29,0,0,1,2.62.58v-.58a1.94,1.94,0,0,0-.53-1.54,2.38,2.38,0,0,0-1.64-.48,5.66,5.66,0,0,0-3.29,1l-.78-2.06a7.55,7.55,0,0,1,4.33-1.21,7,7,0,0,1,1.53.14,4.68,4.68,0,0,1,1.37.55,2.68,2.68,0,0,1,1.09,1.3,5.5,5.5,0,0,1,.39,2.21v7.14Zm-2.47-2a3.28,3.28,0,0,0,2.47-1.06V20.3a5.1,5.1,0,0,0-2.21-.46,3.3,3.3,0,0,0-1.65.37,1.22,1.22,0,0,0-.63,1.13,1.27,1.27,0,0,0,.52,1.06A2.48,2.48,0,0,0,175.35,22.79Z"/><path class="cls-1" d="M185.75,25c-1.72,0-2.58-1-2.58-2.84V15.9h-1.65V13.69h1.65V10.32l2.53-1.21v4.58h2.56V15.9H185.7v5.79c0,.71.32,1.06.94,1.06a3.55,3.55,0,0,0,1.73-.5l-.3,2.28A5,5,0,0,1,185.75,25Z"/><path class="cls-1" d="M192.24,11.72a1.41,1.41,0,0,1-1.06.45,1.52,1.52,0,0,1-1.52-1.52,1.44,1.44,0,0,1,.44-1.06,1.5,1.5,0,0,1,1.08-.44,1.51,1.51,0,0,1,1.06,2.57ZM189.9,24.77V13.69h2.53V24.77Z"/><path class="cls-1" d="M199.34,25a4.73,4.73,0,0,1-3.71-1.54,6.2,6.2,0,0,1-1.37-4.25A6.21,6.21,0,0,1,195.63,15a5.23,5.23,0,0,1,7.43,0,6.21,6.21,0,0,1,1.37,4.26,6.2,6.2,0,0,1-1.36,4.25A4.76,4.76,0,0,1,199.34,25Zm0-2.43a2.23,2.23,0,0,0,1.87-.89,3.94,3.94,0,0,0,.69-2.47,4.06,4.06,0,0,0-.69-2.5,2.35,2.35,0,0,0-3.72,0,4.09,4.09,0,0,0-.69,2.49,4,4,0,0,0,.68,2.46A2.22,2.22,0,0,0,199.34,22.6Z"/><path class="cls-1" d="M213.13,24.77V18.41c0-1.72-.69-2.58-2.06-2.58s-2.25.85-2.25,2.54v6.4h-2.54V13.69h2.54v1a3.58,3.58,0,0,1,2.92-1.3,3.85,3.85,0,0,1,2.83,1.08,4.68,4.68,0,0,1,1.1,3.45v6.81Z"/><path class="cls-1" d="M224.26,24.77v-.89A3.93,3.93,0,0,1,221.31,25a4.28,4.28,0,0,1-2.89-1,3.38,3.38,0,0,1-1.12-2.72,3.16,3.16,0,0,1,1.27-2.73,5,5,0,0,1,3.07-.93,5.29,5.29,0,0,1,2.62.58v-.58a2,2,0,0,0-.53-1.54,2.4,2.4,0,0,0-1.64-.48,5.64,5.64,0,0,0-3.29,1L218,14.64a7.55,7.55,0,0,1,4.33-1.21,7,7,0,0,1,1.53.14,4.68,4.68,0,0,1,1.37.55,2.68,2.68,0,0,1,1.09,1.3,5.5,5.5,0,0,1,.39,2.21v7.14Zm-2.47-2a3.28,3.28,0,0,0,2.47-1.06V20.3a5.13,5.13,0,0,0-2.21-.46,3.3,3.3,0,0,0-1.65.37,1.22,1.22,0,0,0-.63,1.13,1.27,1.27,0,0,0,.52,1.06A2.48,2.48,0,0,0,221.79,22.79Z"/><path class="cls-1" d="M229,24.77V10.3l2.54-1.19V24.77Z"/><path class="cls-1" d="M116.3,46.45V31.27h2.6V44h7.37v2.49Z"/><path class="cls-1" d="M134.31,46.45v-.89a3.88,3.88,0,0,1-2.95,1.15,4.23,4.23,0,0,1-2.89-1A3.38,3.38,0,0,1,127.35,43a3.19,3.19,0,0,1,1.27-2.73,5.06,5.06,0,0,1,3.07-.93,5.29,5.29,0,0,1,2.62.58v-.58a2,2,0,0,0-.53-1.54,2.38,2.38,0,0,0-1.64-.48,5.66,5.66,0,0,0-3.29,1l-.78-2.06a7.55,7.55,0,0,1,4.33-1.21,7.67,7.67,0,0,1,1.53.14,4.68,4.68,0,0,1,1.37.55,2.73,2.73,0,0,1,1.09,1.3,5.53,5.53,0,0,1,.39,2.21v7.14Zm-2.47-2a3.29,3.29,0,0,0,2.47-1.07V42a5.1,5.1,0,0,0-2.21-.45,3.2,3.2,0,0,0-1.65.37,1.21,1.21,0,0,0-.63,1.12,1.29,1.29,0,0,0,.52,1.07A2.48,2.48,0,0,0,131.84,44.48Z"/><path class="cls-1" d="M144,46.71a3,3,0,0,1-2.45-1.11v.85H139V31.94l2.53-1.15v5.4a3.14,3.14,0,0,1,2.5-1.08,4.1,4.1,0,0,1,3.33,1.56,6.54,6.54,0,0,1,1.26,4.23,6.64,6.64,0,0,1-1.23,4.29A4.17,4.17,0,0,1,144,46.71Zm-.3-2.43a2,2,0,0,0,1.79-.9,4.35,4.35,0,0,0,.62-2.48,4.26,4.26,0,0,0-.63-2.52,2.06,2.06,0,0,0-1.78-.86,2.42,2.42,0,0,0-2.15,1.08v4.62A2.39,2.39,0,0,0,143.71,44.28Z"/><path class="cls-1" d="M155.07,46.71a4.7,4.7,0,0,1-3.71-1.54A6.18,6.18,0,0,1,150,40.92a6.21,6.21,0,0,1,1.36-4.26,5.23,5.23,0,0,1,7.43,0,6.17,6.17,0,0,1,1.38,4.26,6.19,6.19,0,0,1-1.37,4.25A4.71,4.71,0,0,1,155.07,46.71Zm0-2.43a2.25,2.25,0,0,0,1.88-.89,4,4,0,0,0,.68-2.47,4.07,4.07,0,0,0-.68-2.49,2.22,2.22,0,0,0-1.88-.91,2.17,2.17,0,0,0-1.84.92,4,4,0,0,0-.7,2.48,4,4,0,0,0,.69,2.46A2.19,2.19,0,0,0,155.07,44.28Z"/><path class="cls-1" d="M168.74,46.45V45.39a3.49,3.49,0,0,1-2.91,1.32,3.88,3.88,0,0,1-2.84-1.1,4.71,4.71,0,0,1-1.1-3.45V35.37h2.53V41.7c0,1.72.7,2.58,2.09,2.58s2.23-.85,2.23-2.54V35.37h2.54V46.45Z"/><path class="cls-1" d="M173.64,46.45V35.37h2.53v1.15a2.34,2.34,0,0,1,2.28-1.41,3.05,3.05,0,0,1,2.06.76l-.37,2.32a3.19,3.19,0,0,0-1.89-.59,2,2,0,0,0-1.47.61,2.82,2.82,0,0,0-.61,2v6.2Z"/><path class="cls-1" d="M122.41,68.39a7,7,0,0,1-2.56-.45A5.53,5.53,0,0,1,118,66.71a7,7,0,0,1-1.26-1.79,8.52,8.52,0,0,1-.73-2.11,12.32,12.32,0,0,1,0-4.53,8.59,8.59,0,0,1,.73-2.12A7.21,7.21,0,0,1,118,54.37a5.37,5.37,0,0,1,1.89-1.22,7,7,0,0,1,2.56-.46,6.64,6.64,0,0,1,3.09.69,5.19,5.19,0,0,1,2.08,1.84,8.79,8.79,0,0,1,1.12,2.5,10.49,10.49,0,0,1,.37,2.82,10.38,10.38,0,0,1-.37,2.82,8.85,8.85,0,0,1-1.12,2.51,5.26,5.26,0,0,1-2.08,1.84A6.76,6.76,0,0,1,122.41,68.39Zm0-2.49a3.43,3.43,0,0,0,3.09-1.81,6.65,6.65,0,0,0,.66-1.72,7.45,7.45,0,0,0,.22-1.83,7.77,7.77,0,0,0-.22-1.89,6.59,6.59,0,0,0-.66-1.71,3.43,3.43,0,0,0-1.23-1.28,3.62,3.62,0,0,0-1.86-.47,3.28,3.28,0,0,0-2.32.87,4.76,4.76,0,0,0-1.29,2,8.2,8.2,0,0,0-.35,2.45,8.42,8.42,0,0,0,.21,1.89,7.05,7.05,0,0,0,.66,1.71,3.39,3.39,0,0,0,1.24,1.28A3.49,3.49,0,0,0,122.41,65.9Z"/><path class="cls-1" d="M131.25,68.13V57.05h2.54V58.2a2.32,2.32,0,0,1,2.27-1.41,3.05,3.05,0,0,1,2.06.76l-.37,2.32a3.16,3.16,0,0,0-1.88-.59,2,2,0,0,0-1.48.61,2.86,2.86,0,0,0-.6,2v6.2Z"/><path class="cls-1" d="M143.17,72.47l-1.35-2a7.47,7.47,0,0,0,3.16-.7,1.89,1.89,0,0,0,.88-1.71v-.63a3.23,3.23,0,0,1-2.52,1A4.11,4.11,0,0,1,140,66.88a6.51,6.51,0,0,1-1.26-4.3A6.55,6.55,0,0,1,140,58.34a4.12,4.12,0,0,1,3.33-1.55,3.4,3.4,0,0,1,2.5.93v-.67h2.53V67a5.65,5.65,0,0,1-1.18,4A6.16,6.16,0,0,1,143.17,72.47Zm.61-6.51a2.34,2.34,0,0,0,2.08-1.08v-4.6a2.41,2.41,0,0,0-2.08-1.08,2.15,2.15,0,0,0-1.84.87,5.13,5.13,0,0,0,0,5A2.11,2.11,0,0,0,143.78,66Z"/><path class="cls-1" d="M157.07,68.13v-.89a3.87,3.87,0,0,1-2.94,1.15,4.3,4.3,0,0,1-2.9-1,3.43,3.43,0,0,1-1.12-2.72A3.22,3.22,0,0,1,151.38,62a5.06,5.06,0,0,1,3.07-.93,5.26,5.26,0,0,1,2.62.59V61a2,2,0,0,0-.53-1.54,2.37,2.37,0,0,0-1.63-.48,5.63,5.63,0,0,0-3.3,1L150.83,58a7.58,7.58,0,0,1,4.34-1.22,7.82,7.82,0,0,1,1.53.14,4.67,4.67,0,0,1,1.36.56,2.65,2.65,0,0,1,1.1,1.3,5.5,5.5,0,0,1,.39,2.21v7.13Zm-2.47-2a3.3,3.3,0,0,0,2.47-1.06V63.66a5.1,5.1,0,0,0-2.21-.45,3.14,3.14,0,0,0-1.64.37,1.21,1.21,0,0,0-.63,1.13,1.25,1.25,0,0,0,.52,1.06A2.43,2.43,0,0,0,154.6,66.16Z"/><path class="cls-1" d="M168.64,68.13V61.78c0-1.72-.69-2.58-2.06-2.58s-2.25.84-2.25,2.53v6.4h-2.54V57.05h2.54v1a3.58,3.58,0,0,1,2.92-1.3,3.82,3.82,0,0,1,2.83,1.09,4.67,4.67,0,0,1,1.1,3.44v6.81Z"/><path class="cls-1" d="M175.77,55.09a1.4,1.4,0,0,1-1.06.44,1.46,1.46,0,0,1-1.08-.44,1.48,1.48,0,0,1-.44-1.07,1.46,1.46,0,0,1,.44-1.07,1.49,1.49,0,0,1,1.08-.43,1.43,1.43,0,0,1,1.06.43A1.46,1.46,0,0,1,176.2,54,1.47,1.47,0,0,1,175.77,55.09Zm-2.34,13V57.05H176V68.13Z"/><path class="cls-1" d="M177.6,68.13v-2l5.81-6.78H178V57.05h8.52v2l-5.79,6.88h5.77v2.25Z"/><path class="cls-1" d="M194.85,68.13v-.89a3.87,3.87,0,0,1-2.94,1.15,4.3,4.3,0,0,1-2.9-1,3.43,3.43,0,0,1-1.12-2.72A3.22,3.22,0,0,1,189.16,62a5.06,5.06,0,0,1,3.07-.93,5.26,5.26,0,0,1,2.62.59V61a2,2,0,0,0-.53-1.54,2.37,2.37,0,0,0-1.63-.48,5.63,5.63,0,0,0-3.3,1L188.61,58A7.58,7.58,0,0,1,193,56.79a7.82,7.82,0,0,1,1.53.14,4.67,4.67,0,0,1,1.36.56,2.65,2.65,0,0,1,1.1,1.3,5.5,5.5,0,0,1,.39,2.21v7.13Zm-2.47-2a3.32,3.32,0,0,0,2.47-1.06V63.66a5.1,5.1,0,0,0-2.21-.45,3.14,3.14,0,0,0-1.64.37,1.21,1.21,0,0,0-.63,1.13,1.25,1.25,0,0,0,.52,1.06A2.43,2.43,0,0,0,192.38,66.16Z"/><path class="cls-1" d="M202.78,68.39c-1.72,0-2.58-.94-2.58-2.84V59.26h-1.65V57.05h1.65V53.69l2.54-1.21v4.57h2.55v2.21h-2.55v5.79c0,.71.31,1.06.93,1.06a3.53,3.53,0,0,0,1.73-.49l-.3,2.27A4.88,4.88,0,0,1,202.78,68.39Z"/><path class="cls-1" d="M209.27,55.09a1.4,1.4,0,0,1-1.06.44,1.43,1.43,0,0,1-1.07-.44,1.45,1.45,0,0,1-.45-1.07,1.44,1.44,0,0,1,.45-1.07,1.46,1.46,0,0,1,1.07-.43,1.43,1.43,0,0,1,1.06.43A1.46,1.46,0,0,1,209.7,54,1.47,1.47,0,0,1,209.27,55.09Zm-2.34,13V57.05h2.54V68.13Z"/><path class="cls-1" d="M216.37,68.39a4.7,4.7,0,0,1-3.71-1.54,6.17,6.17,0,0,1-1.37-4.25,6.25,6.25,0,0,1,1.37-4.26,5.23,5.23,0,0,1,7.43,0,6.25,6.25,0,0,1,1.37,4.26,6.17,6.17,0,0,1-1.36,4.25A4.73,4.73,0,0,1,216.37,68.39Zm0-2.43a2.21,2.21,0,0,0,1.87-.89,3.92,3.92,0,0,0,.69-2.47,4,4,0,0,0-.69-2.49,2.34,2.34,0,0,0-3.71,0,4,4,0,0,0-.7,2.48,4,4,0,0,0,.68,2.46A2.22,2.22,0,0,0,216.37,66Z"/><path class="cls-1" d="M230.16,68.13V61.78c0-1.72-.68-2.58-2.06-2.58s-2.25.84-2.25,2.53v6.4h-2.54V57.05h2.54v1a3.6,3.6,0,0,1,2.92-1.3,3.82,3.82,0,0,1,2.83,1.09,4.67,4.67,0,0,1,1.1,3.44v6.81Z"/><path class="cls-1" d="M23.31,22.19c-.41.72-.57,1-.57,1a1.45,1.45,0,0,1-1.77.69l-1.2-.45a1.28,1.28,0,0,0-1.65.74l-.91,2.38A1.28,1.28,0,0,0,18,28.23l1.2.46a1.48,1.48,0,0,1,.89,1.7L19.52,33A1.5,1.5,0,0,1,18,34.22l-1.28,0a1.27,1.27,0,0,0-1.32,1.23L15.35,38a1.29,1.29,0,0,0,1.24,1.33l1.29,0a1.48,1.48,0,0,1,1.39,1.31l.36,2.64a1.49,1.49,0,0,1-1,1.63l-1.25.38a1.28,1.28,0,0,0-.84,1.6l1.12,3.67,6.89-2.13a27.92,27.92,0,0,1,22.1-38.26L45,3.13,41.31,4a1.28,1.28,0,0,0-1,1.54l.29,1.26a1.49,1.49,0,0,1-.92,1.69l-2.46,1a1.5,1.5,0,0,1-1.83-.55l-.69-1.1A1.28,1.28,0,0,0,33,7.43L30.81,8.78a1.29,1.29,0,0,0-.41,1.76l.68,1.09a1.49,1.49,0,0,1-.32,1.89l-2,1.76a1.48,1.48,0,0,1-1.91.08l-1-.81a1.27,1.27,0,0,0-1.8.18l-1.62,2a1.28,1.28,0,0,0,.19,1.8l1,.81a1.45,1.45,0,0,1,.29,1.88S23.72,21.48,23.31,22.19Z"/><path class="cls-1" d="M49.93,68.34c.83,0,1.18,0,1.18,0a1.45,1.45,0,0,1,1.48,1.18l.2,1.27a1.3,1.3,0,0,0,1.47,1.06l2.52-.41A1.28,1.28,0,0,0,57.84,70l-.2-1.27a1.5,1.5,0,0,1,1-1.62l2.53-.85a1.49,1.49,0,0,1,1.79.67l.6,1.13a1.3,1.3,0,0,0,1.74.53l2.25-1.21a1.28,1.28,0,0,0,.53-1.73l-.61-1.14a1.48,1.48,0,0,1,.44-1.86L70,61A1.5,1.5,0,0,1,72,61l1,.89a1.29,1.29,0,0,0,1.81-.06l2.62-2.81L72,54.14a27.91,27.91,0,0,1-44.18,0l-5.3,4.91,2.62,2.8a1.29,1.29,0,0,0,1.81.07l.95-.89A1.5,1.5,0,0,1,29.85,61L32,62.6a1.5,1.5,0,0,1,.44,1.87l-.61,1.14a1.28,1.28,0,0,0,.53,1.73l2.25,1.2A1.27,1.27,0,0,0,36.29,68l.61-1.13a1.49,1.49,0,0,1,1.79-.67l2.53.85a1.5,1.5,0,0,1,1,1.62L42,70a1.27,1.27,0,0,0,1.05,1.46l2.53.41a1.28,1.28,0,0,0,1.46-1.06l.21-1.27a1.45,1.45,0,0,1,1.48-1.18S49.1,68.34,49.93,68.34Z"/><path class="cls-1" d="M76.58,22.21c-.41-.72-.6-1-.6-1a1.46,1.46,0,0,1,.28-1.88l1-.81a1.28,1.28,0,0,0,.18-1.8l-1.61-2a1.29,1.29,0,0,0-1.8-.18l-1,.81a1.5,1.5,0,0,1-1.92-.08l-2-1.76a1.5,1.5,0,0,1-.32-1.89l.68-1.09a1.28,1.28,0,0,0-.41-1.76L66.9,7.43a1.28,1.28,0,0,0-1.76.41l-.68,1.1a1.5,1.5,0,0,1-1.84.55l-2.46-1a1.48,1.48,0,0,1-.91-1.68l.29-1.27a1.27,1.27,0,0,0-1-1.53l-3.74-.87-1.6,7A27.92,27.92,0,0,1,75.33,48.43l6.9,2.13,1.12-3.67a1.28,1.28,0,0,0-.85-1.59l-1.25-.38a1.5,1.5,0,0,1-1-1.64l.36-2.63A1.5,1.5,0,0,1,82,39.33l1.29,0A1.28,1.28,0,0,0,84.53,38l-.08-2.55a1.29,1.29,0,0,0-1.32-1.24l-1.29,0A1.47,1.47,0,0,1,80.37,33l-.53-2.61a1.51,1.51,0,0,1,.9-1.7l1.19-.45a1.28,1.28,0,0,0,.74-1.65l-.91-2.39a1.28,1.28,0,0,0-1.65-.74l-1.19.46a1.45,1.45,0,0,1-1.77-.69S77,22.93,76.58,22.21Z"/><path class="cls-1" d="M10,21.61l0,.05Z"/><path class="cls-1" d="M21,7.12l.1.12a8.86,8.86,0,0,1,2.6-1.31c7-1.95,6.6-4.36,9.55-5.79L33.13,0a4.89,4.89,0,0,1-2.45.73C22.51.83,23.13,5.59,21,7.12Z"/><path class="cls-1" d="M12.86,16.18l.15.1A7,7,0,0,1,16.53,14C23,12.1,25.26,7.82,27,6.6L27,6.5c-2.39,1.7-5.24,0-10.09,5.16,0,0-.16-.16-.16-.16,3.93-4.75,4-8,5.85-9.73l-.1-.09C11,8.52,16,12.26,12.86,16.18Z"/><path class="cls-1" d="M13.34,8.25C2.53,19,9.26,21.7,7.56,27l.11,0a7,7,0,0,1,3.55-3.28c4.57-2.11,6-7.44,7.84-9.06L19,14.64c-2.23,2.43-5.93,1.07-8.92,7.08a.78.78,0,0,1-.2-.11c2.43-5.23,1.29-10,3.6-13.23A.52.52,0,0,0,13.34,8.25Z"/><path class="cls-1" d="M5.48,41.25h.16A6.73,6.73,0,0,1,8,35.73c5.13-4.75,4.26-9,6.37-12.24l-.16-.09c-1.64,2.79-7.62,5.83-7.87,10.12,0,0-.23,0-.22,0,.87-6.14-2.37-10.23-.6-14.11a.68.68,0,0,0-.16-.09C-1.51,33.38,4.19,33.18,5.48,41.25Z"/><path class="cls-1" d="M8.13,54.65l.17-.06c-1.42-3.19.95-7.54,1.06-7.75,3.12-6.05,2.07-11.52,2.78-13.43l-.14,0c-1.67,4.15-6.29,6.41-5.57,13.38a.45.45,0,0,1-.23,0C5.47,42.43.57,38.27.73,33.55H.64C-2.41,50.32,6.3,50.21,8.13,54.65Z"/><path class="cls-1" d="M15.11,67.07l.12-.09a9.31,9.31,0,0,1-2-7.67c1.45-8.37-1.26-9.87-1.32-13.66h-.14c-.13,4.23-4.47,9-.53,14.93l-.19.12c-4.34-6.34-7.78-4.79-9.81-11.09h0a.48.48,0,0,0-.18,0C4.13,68.11,12.34,62.53,15.11,67.07Z"/><path class="cls-1" d="M32,75.12,32,75c-5.72,1.14-8.64,0-9.68-5.21-1.45-7.38-6.47-10.23-7.06-13.18h0a.28.28,0,0,0-.14,0h0C16.2,61.8,13.66,64.9,20,71.14l-.18.14c-6-4.79-10.2-3-12.6-6.36a.32.32,0,0,0-.1.11C14.56,77.47,22.6,78.15,32,75.12Z"/><path class="cls-1" d="M17.92,77.26l0-.07c7.69,4.49,15.72-1.76,25.46-2,2.44,0,9.75.39,16.45,8.18l-1.78.51c-2.21-3.85-5.63-6.63-8.73-7.4-8.86-2.22-9,6-18.87,6.17C23.2,82.75,18.21,77.55,17.92,77.26Z"/><path class="cls-1" d="M89.8,21.61l0,.05Z"/><path class="cls-1" d="M89.8,21.61l0,.05Z"/><path class="cls-1" d="M10,21.61l0,.05Z"/><path class="cls-1" d="M89.8,21.61l0,.05Z"/><path class="cls-1" d="M78.81,7.12l-.1.12a8.86,8.86,0,0,0-2.6-1.31C69.16,4,69.5,1.57,66.56.14L66.65,0A4.85,4.85,0,0,0,69.1.73C77.26.83,76.64,5.59,78.81,7.12Z"/><path class="cls-1" d="M86.92,16.18l-.15.1A7,7,0,0,0,83.25,14c-6.47-1.92-8.73-6.2-10.49-7.42l.07-.1c2.39,1.7,5.24,0,10.08,5.16,0,0,.17-.16.17-.16-3.93-4.75-4-8-5.85-9.73l.1-.09C88.79,8.52,83.76,12.26,86.92,16.18Z"/><path class="cls-1" d="M86.44,8.25C97.25,19,90.52,21.7,92.21,27l-.1,0a7,7,0,0,0-3.55-3.28c-4.58-2.11-6-7.44-7.85-9.06l.1-.09c2.23,2.43,5.93,1.07,8.92,7.08a.78.78,0,0,0,.2-.11c-2.43-5.23-1.29-10-3.6-13.23A.52.52,0,0,1,86.44,8.25Z"/><path class="cls-1" d="M94.29,41.25h-.16a6.68,6.68,0,0,0-2.34-5.52c-5.14-4.75-4.26-9-6.37-12.24l.16-.09c1.64,2.79,7.61,5.83,7.87,10.12,0,0,.22,0,.22,0-.87-6.14,2.37-10.23.6-14.11a.68.68,0,0,1,.16-.09C101.29,33.38,95.59,33.18,94.29,41.25Z"/><path class="cls-1" d="M91.65,54.65l-.17-.06c1.42-3.19-1-7.54-1.06-7.75-3.12-6.05-2.07-11.52-2.79-13.43l.15,0c1.66,4.15,6.29,6.41,5.57,13.38a.45.45,0,0,0,.23,0c.72-4.32,5.63-8.48,5.47-13.2h.08C102.19,50.32,93.48,50.21,91.65,54.65Z"/><path class="cls-1" d="M84.67,67.07,84.55,67a9.31,9.31,0,0,0,2-7.67c-1.45-8.37,1.26-9.87,1.32-13.66H88c.12,4.23,4.46,9,.53,14.93l.19.12c4.33-6.34,7.78-4.79,9.81-11.09h0a.48.48,0,0,1,.18,0C95.65,68.11,87.44,62.53,84.67,67.07Z"/><path class="cls-1" d="M67.73,75.12l0-.17c5.72,1.14,8.64,0,9.67-5.21,1.46-7.38,6.48-10.23,7.07-13.18h0a.28.28,0,0,1,.14,0h0c-1.08,5.21,1.46,8.31-4.83,14.55l.17.14c6-4.79,10.21-3,12.61-6.36a.32.32,0,0,1,.1.11C85.22,77.47,77.18,78.15,67.73,75.12Z"/><path class="cls-1" d="M81.86,77.26l0-.07c-7.69,4.49-15.73-1.76-25.46-2-2.45,0-9.75.39-16.46,8.18l1.78.51c2.22-3.85,5.64-6.63,8.74-7.4,8.85-2.22,9,6,18.87,6.17C76.58,82.75,81.57,77.55,81.86,77.26Z"/><path class="cls-1" d="M10,21.61l0,.05Z"/><path class="cls-1" d="M10,21.61l0,.05Z"/><path class="cls-1" d="M89.8,21.61l0,.05Z"/><path class="cls-1" d="M61.86,21.85h-.14A9.84,9.84,0,0,0,53,28a17.86,17.86,0,0,0-1.07,7,17.84,17.84,0,0,0,1.07,7c1.72,3.86,5.18,6.49,8.77,6.49h.14c3.59,0,7-2.63,8.76-6.49a17.66,17.66,0,0,0,1.08-7,17.68,17.68,0,0,0-1.08-7A9.81,9.81,0,0,0,61.86,21.85Zm5.53,13.28c0,2.31-.07,4.3-.07,4.3-.14,1.88-.17,3.78-1,5.06a5,5,0,0,1-4.17,2.23l-.06,0h-.2l-.06,0a5,5,0,0,1-4.17-2.23c-.87-1.28-.91-3.18-1-5.06,0,0-.06-2-.06-4.26v-.1c0-2.31.06-4.29.06-4.29.14-1.89.17-3.78,1-5.07a5,5,0,0,1,4.16-2.23l.06,0h.21l.06,0a5,5,0,0,1,4.16,2.23c.88,1.29.91,3.18,1,5.07,0,0,.06,2,.07,4.25Z"/><path class="cls-1" d="M64.55,49.53a8.55,8.55,0,0,1-2,3,4.86,4.86,0,0,1-2.63.87l-8.84.44h-2s-1.49-.08-1.57-1.46v-31c.08-1.38,1.57-1.47,1.57-1.47h2v-1.8H39.23v1.8h2a1.64,1.64,0,0,1,1.56,1.47v31a1.62,1.62,0,0,1-1.56,1.46h-2v1.81H51.06l12.81,0,1.57-5.72v-.2Z"/><path class="cls-1" d="M36.76,25.25A1.37,1.37,0,0,1,38.07,24H39.7v-1.5H29.83V24h1.63s1.24.07,1.3,1.22V45.06c-.06,1.15-1.3,1.22-1.3,1.22H29.83v1.51H39.7V46.28H38.07a1.37,1.37,0,0,1-1.31-1.22Z"/></g></g></svg>