<svg width="110" height="30" viewBox="0 0 110 30" fill="none" xmlns="http://www.w3.org/2000/svg">
<path d="M25.9307 8.92822C25.4482 8.93524 24.9826 8.75188 24.636 8.41839C24.2893 8.0849 24.0899 7.62844 24.0815 7.14916V6.39188C24.0959 5.91443 24.2971 5.46139 24.6424 5.12898C24.9877 4.79657 25.4499 4.61104 25.9307 4.61182H26.11C26.5908 4.61105 27.0529 4.79661 27.398 5.12905C27.7431 5.46149 27.9441 5.91453 27.9581 6.39188V7.14916C27.95 7.62835 27.7509 8.08481 27.4044 8.41832C27.0579 8.75184 26.5924 8.93523 26.11 8.92822H25.9307Z" fill="#4D4D4D"/>
<path d="M18.4138 27.1351C18.1801 27.1354 17.9486 27.0899 17.7326 27.0013C17.5166 26.9126 17.3203 26.7824 17.155 26.6183C16.9897 26.4542 16.8586 26.2593 16.7692 26.0448C16.6797 25.8302 16.6338 25.6003 16.634 25.3681V11.0366C15.4019 13.2385 12.9422 17.6183 12.9422 17.6183C12.6804 18.1014 12.2916 18.505 11.8172 18.786C11.3428 19.067 10.8006 19.2149 10.2483 19.214C9.69594 19.2131 9.15419 19.0634 8.68073 18.7808C8.20727 18.4983 7.81981 18.0935 7.55961 17.6096C7.55961 17.6096 4.98658 13.02 3.87662 11.0388V25.3681C3.87662 25.6003 3.83057 25.8302 3.74111 26.0446C3.65165 26.2591 3.52054 26.4539 3.35525 26.618C3.18995 26.7821 2.99373 26.9122 2.77779 27.0009C2.56185 27.0897 2.33042 27.1353 2.09674 27.1351H1.77771C1.30632 27.1343 0.854506 26.9478 0.521282 26.6166C0.188059 26.2853 0.000607099 25.8364 2.55789e-05 25.3681V7.17598C-0.00159216 6.81479 0.0735431 6.45727 0.22052 6.12691C0.367497 5.79654 0.58301 5.50075 0.852964 5.25878C1.12292 5.01682 1.44125 4.83414 1.78713 4.72274C2.13301 4.61135 2.49865 4.57376 2.86017 4.61236C3.37821 4.59849 3.8898 4.72904 4.33698 4.9892C4.78416 5.24935 5.14905 5.62869 5.3903 6.08429C5.3903 6.08429 9.27899 12.9785 10.2514 14.7105C11.3735 12.726 15.1148 6.08869 15.1148 6.08869C15.3571 5.63149 15.7235 5.25086 16.1724 4.98993C16.6213 4.729 17.1349 4.59819 17.6548 4.61236C18.0158 4.57439 18.3808 4.61249 18.726 4.72421C19.0712 4.83593 19.3888 5.0187 19.658 5.26065C19.9272 5.5026 20.142 5.79827 20.2883 6.12831C20.4347 6.45834 20.5093 6.81535 20.5072 7.17598V25.3671C20.5072 25.8357 20.3198 26.2851 19.9863 26.6165C19.6527 26.9479 19.2002 27.1341 18.7285 27.1341L18.4138 27.1351Z" fill="#4D4D4D"/>
<path d="M25.9252 27.133C25.4467 27.1352 24.9862 26.9518 24.6419 26.6218C24.2975 26.2917 24.0964 25.8411 24.0815 25.366V12.0213C24.0978 11.5472 24.2995 11.098 24.6437 10.7691C24.9879 10.4402 25.4476 10.2575 25.9252 10.2598H26.1166C26.5939 10.2578 27.0532 10.4407 27.397 10.7695C27.7408 11.0984 27.9421 11.5474 27.9581 12.0213V25.365C27.9435 25.8398 27.7429 26.2901 27.3989 26.6202C27.0549 26.9502 26.5949 27.1339 26.1166 27.1319L25.9252 27.133Z" fill="#4D4D4D"/>
<path d="M48.7594 27.2815C44.9467 27.2815 42.6729 25.2052 42.6729 21.7237V21.374C42.6729 16.6992 46.2887 16.0042 48.4426 16.0042H52.9177C52.8825 14.199 52.4578 13.6689 50.1785 13.6689H46.3701H45.5561C45.3243 13.6875 45.0911 13.6587 44.871 13.5843C44.6508 13.5099 44.4483 13.3915 44.276 13.2364C44.1037 13.0812 43.9651 12.8927 43.869 12.6824C43.7728 12.472 43.721 12.2444 43.7168 12.0134V11.8528C43.7082 11.6076 43.7535 11.3635 43.8493 11.1373C43.9452 10.9112 44.0895 10.7086 44.2721 10.5434C44.4548 10.3782 44.6714 10.2544 44.907 10.1807C45.1425 10.107 45.3914 10.0851 45.6364 10.1164H50.1774C54.571 10.1164 56.7975 12.1927 56.7975 16.2949V22.2646C56.7975 25.2664 54.4621 27.2913 50.9871 27.2913L48.7594 27.2815ZM48.4162 19.5491C47.1589 19.5491 46.5461 20.019 46.5461 20.9894V21.9608C46.5461 22.9334 46.7133 23.7365 48.7572 23.7365H51.4403C51.6327 23.7431 51.8244 23.7111 52.004 23.6424C52.1837 23.5736 52.3475 23.4695 52.4856 23.3363C52.6238 23.2032 52.7335 23.0437 52.8081 22.8674C52.8827 22.6911 52.9207 22.5017 52.9199 22.3105V19.5524L48.4162 19.5491Z" fill="#4D4D4D"/>
<path d="M66.6576 10.1129C70.8785 10.1129 73.2965 12.1892 73.2965 15.6696V16.0193C73.2965 20.6908 69.6828 21.3913 67.5289 21.3913H63.055C63.0891 23.1954 63.5148 23.7254 65.793 23.7254H70.4022H71.0204C71.2524 23.706 71.4858 23.7343 71.7063 23.8083C71.9268 23.8823 72.1297 24.0005 72.3022 24.1557C72.4748 24.3108 72.6135 24.4995 72.7096 24.7101C72.8056 24.9207 72.8571 25.1486 72.8608 25.3798V25.5383C72.8695 25.7835 72.8244 26.0277 72.7287 26.254C72.6329 26.4802 72.4888 26.6831 72.3063 26.8485C72.1239 27.014 71.9074 27.1381 71.6719 27.2122C71.4364 27.2864 71.1874 27.3088 70.9423 27.2779H65.7941C61.4005 27.2779 59.1729 25.2017 59.1729 21.0973V15.9613C59.1729 12.694 61.6733 10.1074 65.5191 10.1074L66.6576 10.1129ZM67.5542 17.8431C67.7988 17.8664 68.0456 17.8369 68.2778 17.7568C68.5099 17.6768 68.722 17.548 68.8995 17.3791C69.077 17.2103 69.2157 17.0054 69.3063 16.7785C69.3968 16.5515 69.4371 16.3079 69.4243 16.0641V15.7329C69.4243 14.5681 68.8192 13.6633 66.7786 13.6633H65.2463C64.96 13.6395 64.6719 13.6765 64.4011 13.7717C64.1302 13.8669 63.8829 14.0182 63.6754 14.2155C63.4679 14.4129 63.305 14.6518 63.1974 14.9164C63.0899 15.181 63.0402 15.4653 63.0516 15.7504V17.8486L67.5542 17.8431Z" fill="#4D4D4D"/>
<path d="M33.3805 27.1314C32.9024 27.1331 32.4425 26.9494 32.0986 26.6194C31.7547 26.2894 31.554 25.8391 31.5391 25.3644V15.6607C31.5391 11.9847 33.4818 10.1216 37.684 10.1216H39.8709C41.8653 10.1216 41.9687 11.5017 41.9687 11.7782V11.9968C41.9687 12.2765 41.8653 13.6774 39.8709 13.6774H37.4783C36.0482 13.6774 35.4124 14.4095 35.4124 16.0498V25.3699C35.3975 25.8444 35.1969 26.2945 34.8532 26.6244C34.5095 26.9544 34.0499 27.1382 33.572 27.1369L33.3805 27.1314Z" fill="#4D4D4D"/>
<path d="M93.8832 0C79.9862 0 77.7686 6.56852 77.7686 14.6713C77.7686 20.2717 78.8312 25.1399 84.084 27.6074V8.46339C84.0444 8.13138 84.0798 7.79476 84.1877 7.47808C84.2956 7.16141 84.4733 6.87261 84.7078 6.63277C84.9423 6.39293 85.2277 6.20807 85.5432 6.09166C85.8587 5.97525 86.1964 5.93024 86.5316 5.95987C87.8385 5.95987 88.4017 5.9063 89.3829 7.16188L98.8566 19.462V8.16286C98.8566 6.48766 99.5507 5.95547 100.895 5.95547H101.783C102.867 5.95547 103.684 6.72042 103.684 8.16286V27.603C108.939 25.1333 109.999 20.2663 109.999 14.667C110 6.56856 107.789 0 93.8832 0Z" fill="#4D4D4D"/>
<path d="M88.6445 13.2056V28.9412C90.3775 29.2125 92.1298 29.3427 93.8841 29.3303C96.0549 29.3595 98.2223 29.1506 100.347 28.7074L88.6445 13.2056Z" fill="#4D4D4D"/>
</svg>
