<?xml version="1.0" encoding="UTF-8"?>
<svg id="Layer_2" data-name="Layer 2" xmlns="http://www.w3.org/2000/svg" viewBox="0 0 177.22 87.04">
  <defs>
    <style>
      .cls-1 {
        fill: #00adee;
      }
    </style>
  </defs>
  <path class="cls-1" d="M98.84,21.98l-9,17.75-8.94-17.75h-9.91l11.24,20.93h-12.07v-20.93h-5.09V1h-22.18v20.95h-20.96v20.95H1v22.18h20.95v20.95h22.18v-20.95h41.9s8.35,0,8.35,0v-16.77l14.31-26.33h-9.85ZM21.95,63.86H2.22v-19.73h19.73v19.73ZM44.13,2.22h19.73v19.73h-19.73V2.22ZM61.06,23.18v15.71h-16.92v-15.71h16.92ZM23.18,23.18h11.65v19.73h-11.65v-19.73ZM23.18,44.13h11.65v19.73h-11.65v-19.73ZM42.91,84.82h-19.73v-19.73h19.73v19.73ZM44.13,46.5h16.92v17.36h-16.92v-17.36ZM70.17,63.86v-19.73h12.73l1.91,3.57v16.16h-14.64Z"/>
  <path class="cls-1" d="M124.68,28.97c-3.44,0-6.1,1.29-8,3.87-1.89,2.58-2.83,6.18-2.83,10.8,0,9.61,3.61,14.42,10.83,14.42,3.03,0,6.7-.76,11.01-2.27v7.67c-3.54,1.48-7.49,2.22-11.86,2.22-6.28,0-11.07-1.9-14.4-5.71-3.32-3.8-4.98-9.26-4.98-16.38,0-4.48.82-8.41,2.45-11.78,1.63-3.37,3.98-5.96,7.03-7.76,3.06-1.8,6.64-2.7,10.76-2.7s8.4,1.01,12.62,3.04l-2.95,7.43c-1.61-.77-3.24-1.43-4.87-2-1.63-.57-3.23-.86-4.81-.86Z"/>
  <path class="cls-1" d="M176.22,21.98v27.89c0,3.18-.71,5.97-2.14,8.37-1.43,2.4-3.48,4.24-6.18,5.51-2.69,1.28-5.88,1.92-9.55,1.92-5.55,0-9.85-1.42-12.92-4.26-3.07-2.84-4.6-6.73-4.6-11.66v-27.77h9.11v26.4c0,3.33.67,5.76,2.01,7.31,1.33,1.55,3.55,2.33,6.63,2.33s5.15-.78,6.5-2.35c1.35-1.56,2.02-4.01,2.02-7.36v-26.34h9.11Z"/>
  <g>
    <path class="cls-1" d="M51.28,78.19h-1.35v-2.76h-2.53v2.76h-1.35v-6.38h1.35v2.5h2.53v-2.5h1.35v6.38Z"/>
    <path class="cls-1" d="M56.71,78.19l-.46-1.51h-2.33l-.46,1.51h-1.46l2.26-6.41h1.65l2.26,6.41h-1.46ZM55.92,75.54c-.43-1.38-.67-2.16-.72-2.34-.05-.18-.09-.33-.12-.43-.1.37-.37,1.3-.83,2.77h1.66Z"/>
    <path class="cls-1" d="M64.55,78.19h-1.72l-2.78-4.83h-.04c.05.85.08,1.46.08,1.83v3h-1.21v-6.38h1.71l2.77,4.78h.03c-.04-.83-.07-1.41-.07-1.76v-3.02h1.22v6.38Z"/>
    <path class="cls-1" d="M68.05,74.43l1.33-2.63h1.46l-2.12,3.9v2.48h-1.35v-2.44l-2.12-3.94h1.47l1.32,2.63Z"/>
    <path class="cls-1" d="M75.47,78.19l-.46-1.51h-2.33l-.47,1.51h-1.46l2.25-6.41h1.66l2.26,6.41h-1.46ZM74.68,75.54c-.43-1.38-.67-2.16-.72-2.34-.05-.18-.09-.33-.12-.43-.1.37-.37,1.3-.83,2.77h1.67Z"/>
    <path class="cls-1" d="M83.3,78.19h-1.72l-2.78-4.83h-.04c.05.85.08,1.46.08,1.83v3h-1.21v-6.38h1.71l2.77,4.78h.03c-.04-.83-.07-1.41-.07-1.76v-3.02h1.22v6.38Z"/>
    <path class="cls-1" d="M87.25,74.61h2.53v3.31c-.41.13-.8.23-1.16.28-.36.05-.73.08-1.11.08-.96,0-1.7-.29-2.21-.85-.51-.57-.76-1.38-.76-2.44s.29-1.83.88-2.41c.59-.58,1.41-.86,2.45-.86.66,0,1.29.13,1.89.39l-.45,1.08c-.46-.23-.95-.35-1.45-.35-.59,0-1.05.19-1.41.59-.35.39-.53.92-.53,1.58s.14,1.22.42,1.59c.28.37.7.55,1.24.55.28,0,.57-.03.86-.09v-1.33h-1.21v-1.12Z"/>
    <path class="cls-1" d="M96.16,72.84c-.51,0-.91.19-1.19.57-.28.38-.42.92-.42,1.6,0,1.42.53,2.14,1.6,2.14.45,0,.99-.11,1.63-.34v1.14c-.52.22-1.11.33-1.76.33-.93,0-1.64-.28-2.13-.85-.49-.56-.74-1.37-.74-2.43,0-.66.12-1.24.36-1.74.24-.5.59-.88,1.04-1.15.45-.26.98-.4,1.59-.4s1.24.15,1.87.45l-.44,1.1c-.24-.12-.48-.21-.72-.3-.24-.09-.48-.13-.71-.13Z"/>
    <path class="cls-1" d="M101.05,74.43l1.33-2.63h1.46l-2.12,3.9v2.48h-1.34v-2.44l-2.12-3.94h1.47l1.32,2.63Z"/>
    <path class="cls-1" d="M104.55,71.81h1.99c.91,0,1.56.13,1.97.38.41.26.61.67.61,1.23,0,.38-.09.69-.27.94-.18.24-.42.39-.71.44v.04c.41.09.7.26.88.51.18.25.27.58.27.99,0,.58-.21,1.04-.63,1.36-.42.32-.99.49-1.71.49h-2.39v-6.38ZM105.91,74.34h.79c.37,0,.63-.06.8-.17.17-.11.25-.3.25-.56,0-.25-.09-.42-.27-.53-.18-.11-.46-.16-.85-.16h-.71v1.42ZM105.91,75.41v1.66h.88c.37,0,.65-.07.83-.21.18-.14.27-.36.27-.65,0-.53-.38-.8-1.14-.8h-.84Z"/>
    <path class="cls-1" d="M114.15,78.19h-3.68v-6.38h3.68v1.11h-2.33v1.4h2.17v1.11h-2.17v1.64h2.33v1.12Z"/>
    <path class="cls-1" d="M116.75,75.75v2.45h-1.35v-6.38h1.86c.87,0,1.51.16,1.93.47.42.32.62.8.62,1.44,0,.38-.11.71-.31,1-.21.29-.5.52-.88.69.96,1.43,1.59,2.36,1.88,2.78h-1.5l-1.52-2.45h-.72ZM116.75,74.64h.44c.43,0,.74-.07.95-.21.2-.14.31-.37.31-.67s-.1-.52-.31-.65c-.21-.13-.53-.19-.96-.19h-.41v1.73Z"/>
    <path class="cls-1" d="M128.64,71.81v4.13c0,.47-.1.89-.32,1.24-.21.35-.51.63-.91.82-.4.19-.87.29-1.42.29-.82,0-1.46-.21-1.92-.63-.45-.42-.68-1-.68-1.73v-4.11h1.35v3.91c0,.49.1.86.29,1.09.2.23.53.35.99.35s.76-.12.96-.35c.2-.23.3-.59.3-1.09v-3.9h1.35Z"/>
    <path class="cls-1" d="M135.78,78.19h-1.72l-2.78-4.83h-.04c.05.85.08,1.46.08,1.83v3h-1.21v-6.38h1.71l2.77,4.78h.03c-.04-.83-.07-1.41-.07-1.76v-3.02h1.22v6.38Z"/>
    <path class="cls-1" d="M137.3,78.19v-6.38h1.35v6.38h-1.35Z"/>
    <path class="cls-1" d="M143.82,71.81h1.37l-2.17,6.38h-1.47l-2.17-6.38h1.37l1.2,3.8c.07.22.14.48.21.78.07.3.12.51.13.62.03-.27.14-.74.33-1.41l1.21-3.8Z"/>
    <path class="cls-1" d="M149.58,78.19h-3.68v-6.38h3.68v1.11h-2.32v1.4h2.16v1.11h-2.16v1.64h2.32v1.12Z"/>
    <path class="cls-1" d="M152.17,75.75v2.45h-1.36v-6.38h1.86c.87,0,1.51.16,1.92.47.42.32.62.8.62,1.44,0,.38-.1.71-.31,1-.21.29-.5.52-.88.69.96,1.43,1.59,2.36,1.88,2.78h-1.5l-1.52-2.45h-.72ZM152.17,74.64h.43c.43,0,.75-.07.95-.21.21-.14.31-.37.31-.67s-.1-.52-.31-.65c-.21-.13-.53-.19-.97-.19h-.41v1.73Z"/>
    <path class="cls-1" d="M160.41,76.42c0,.58-.21,1.03-.62,1.37-.42.33-.99.5-1.73.5-.68,0-1.28-.13-1.81-.39v-1.26c.43.19.79.33,1.09.41.3.08.57.12.82.12.3,0,.53-.06.68-.17.16-.11.24-.28.24-.5,0-.12-.04-.23-.11-.33-.07-.1-.17-.19-.31-.28-.14-.09-.41-.23-.83-.43-.39-.18-.68-.36-.88-.53-.2-.17-.35-.37-.47-.59-.12-.22-.17-.48-.17-.79,0-.56.19-1.01.58-1.33.38-.32.91-.48,1.59-.48.33,0,.65.04.95.12.3.08.62.19.95.33l-.44,1.05c-.34-.14-.62-.24-.85-.29-.22-.05-.44-.08-.66-.08-.25,0-.45.06-.59.18-.14.12-.2.27-.2.46,0,.12.03.22.08.31.06.09.14.17.26.26.12.08.41.23.86.45.6.29,1,.57,1.23.86.22.29.33.64.33,1.05Z"/>
    <path class="cls-1" d="M161.47,78.19v-6.38h1.35v6.38h-1.35Z"/>
    <path class="cls-1" d="M166.81,78.19h-1.35v-5.26h-1.73v-1.12h4.82v1.12h-1.74v5.26Z"/>
    <path class="cls-1" d="M171.42,74.43l1.33-2.63h1.46l-2.12,3.9v2.48h-1.34v-2.44l-2.12-3.94h1.47l1.32,2.63Z"/>
  </g>
</svg>